<?xml version="1.0" encoding="utf-8"?>
<!-- Generator: Adobe Illustrator 16.0.0, SVG Export Plug-In . SVG Version: 6.00 Build 0)  -->
<!DOCTYPE svg PUBLIC "-//W3C//DTD SVG 1.1//EN" "http://www.w3.org/Graphics/SVG/1.1/DTD/svg11.dtd">
<svg version="1.1" id="Layer_1" xmlns="http://www.w3.org/2000/svg" xmlns:xlink="http://www.w3.org/1999/xlink" x="0px" y="0px"
	 width="48px" height="48px" viewBox="0 0 48 48" enable-background="new 0 0 48 48" xml:space="preserve">
<path fill="#414042" d="M30.273,28.967c-0.524-1.166-0.853-2.874-0.962-4.957c0.941-1.369,1.638-3.086,1.973-5.044
	c2.266-2.748,0.479-4.938-0.037-5.472C30.223,8.795,27.026,5.4,23.606,5.4c-3.706,0-6.929,3.626-7.709,8.647
	c-0.321,0.333-1.101,1.27-1.119,2.51c-0.013,0.918,0.387,1.787,1.188,2.583c0.424,2.31,1.355,4.279,2.601,5.717
	c-0.112,1.641-0.416,3.055-0.896,4.11c-2.115,0.22-14.762,1.803-14.959,8.146v5c0,0.27,0.218,0.487,0.488,0.487h41.543
	c0.27,0,0.488-0.218,0.488-0.487v-5.016C45.036,30.77,32.391,29.187,30.273,28.967z M16.753,18.544c-0.67-0.63-1.006-1.292-1-1.966
	c0.012-1.096,0.918-1.926,0.927-1.934c0.085-0.076,0.141-0.181,0.158-0.294c0.666-4.621,3.512-7.974,6.769-7.974
	c2.995,0,5.819,3.139,6.717,7.463c0.021,0.104,0.078,0.199,0.157,0.269c0.217,0.189,2.047,1.915-0.025,4.329
	c-0.059,0.068-0.097,0.151-0.11,0.24c-0.728,4.481-3.562,7.733-6.738,7.733c-1.545,0-2.988-0.742-4.154-2.014
	c-0.016-0.021-0.034-0.037-0.053-0.055c-1.208-1.342-2.109-3.259-2.5-5.524C16.881,18.712,16.83,18.616,16.753,18.544z
	 M44.257,41.625H3.688l0-4.497c0.184-5.899,14.206-7.204,14.348-7.217c0.167-0.015,0.316-0.115,0.392-0.266
	c0.521-1.029,0.861-2.345,1.033-3.896c1.212,1.039,2.634,1.635,4.146,1.635c1.805,0,3.478-0.833,4.816-2.262
	c0.177,1.887,0.536,3.419,1.095,4.522c0.076,0.15,0.225,0.251,0.393,0.266c0.142,0.013,14.165,1.313,14.347,7.201V41.625z"/>
</svg>
