<?xml version="1.0" encoding="utf-8"?>
<!-- Generator: Adobe Illustrator 16.0.0, SVG Export Plug-In . SVG Version: 6.00 Build 0)  -->
<!DOCTYPE svg PUBLIC "-//W3C//DTD SVG 1.1//EN" "http://www.w3.org/Graphics/SVG/1.1/DTD/svg11.dtd">
<svg version="1.1" id="Layer_1" xmlns="http://www.w3.org/2000/svg" xmlns:xlink="http://www.w3.org/1999/xlink" x="0px" y="0px"
	 width="48px" height="48px" viewBox="0 0 48 48" enable-background="new 0 0 48 48" xml:space="preserve">
<g>
	<path fill="#414042" d="M31.535,40.364H2.995l0-4.497c0.184-5.899,14.206-7.205,14.347-7.217c0.168-0.015,0.316-0.115,0.393-0.266
		c0.521-1.029,0.86-2.345,1.033-3.896c1.212,1.039,2.634,1.635,4.146,1.635c1.804,0,3.477-0.833,4.815-2.261
		c0.177,1.887,0.537,3.418,1.096,4.522c0.076,0.15,0.225,0.25,0.393,0.266c0.177,0.016,4.383,0.406,8.232,1.753
		c0.054,0.019,0.108,0.027,0.161,0.027c0.202,0,0.391-0.126,0.46-0.327c0.09-0.254-0.044-0.532-0.299-0.621
		c-3.441-1.203-7.154-1.665-8.19-1.775c-0.525-1.166-0.854-2.873-0.965-4.956c0.942-1.369,1.639-3.087,1.974-5.046
		c2.267-2.748,0.479-4.938-0.037-5.472c-1.025-4.699-4.221-8.094-7.64-8.094c-3.706,0-6.929,3.626-7.71,8.647
		c-0.321,0.333-1.101,1.27-1.118,2.51c-0.013,0.918,0.387,1.787,1.188,2.583c0.424,2.31,1.355,4.279,2.601,5.717
		c-0.112,1.641-0.417,3.055-0.896,4.11c-2.115,0.22-14.762,1.803-14.959,8.146v5c0,0.27,0.218,0.488,0.488,0.488h29.028
		c0.27,0,0.487-0.219,0.487-0.488S31.805,40.364,31.535,40.364z M16.059,17.283c-0.67-0.63-1.006-1.292-0.999-1.966
		c0.011-1.096,0.918-1.926,0.927-1.934c0.085-0.076,0.141-0.181,0.158-0.294c0.666-4.621,3.512-7.974,6.769-7.974
		c2.994,0,5.818,3.139,6.716,7.463c0.021,0.104,0.078,0.2,0.157,0.27c0.216,0.188,2.048,1.914-0.024,4.329
		c-0.06,0.068-0.098,0.151-0.112,0.239c-0.726,4.481-3.559,7.733-6.736,7.733c-1.545,0-2.988-0.742-4.155-2.014
		c-0.016-0.021-0.033-0.037-0.052-0.055c-1.208-1.342-2.109-3.259-2.5-5.524C16.188,17.451,16.136,17.355,16.059,17.283z"/>
	<path fill="#414042" d="M45.438,37.444h-4.954v-4.953c0-0.27-0.218-0.487-0.487-0.487s-0.488,0.218-0.488,0.487v4.953h-4.953
		c-0.27,0-0.487,0.218-0.487,0.487s0.218,0.488,0.487,0.488h4.953v4.953c0,0.27,0.219,0.488,0.488,0.488s0.487-0.219,0.487-0.488
		V38.42h4.954c0.27,0,0.487-0.219,0.487-0.488S45.708,37.444,45.438,37.444z"/>
</g>
</svg>
