<?xml version="1.0" encoding="utf-8"?>
<!-- Generator: Adobe Illustrator 16.0.0, SVG Export Plug-In . SVG Version: 6.00 Build 0)  -->
<!DOCTYPE svg PUBLIC "-//W3C//DTD SVG 1.1//EN" "http://www.w3.org/Graphics/SVG/1.1/DTD/svg11.dtd">
<svg version="1.1" id="Layer_1" xmlns="http://www.w3.org/2000/svg" xmlns:xlink="http://www.w3.org/1999/xlink" x="0px" y="0px"
	 width="48px" height="48px" viewBox="0 0 48 48" enable-background="new 0 0 48 48" xml:space="preserve">
<g>
	<path fill="#414042" d="M32.258,41.625H2.03v-4.497c0.183-5.899,14.205-7.204,14.347-7.217c0.167-0.015,0.316-0.115,0.393-0.266
		c0.521-1.029,0.86-2.345,1.033-3.896c1.213,1.039,2.635,1.635,4.147,1.635c1.804,0,3.476-0.832,4.813-2.26
		c0.178,1.887,0.538,3.418,1.098,4.521c0.076,0.15,0.225,0.251,0.392,0.266c0.107,0.009,10.65,0.979,13.608,5.113
		c0.095,0.133,0.244,0.204,0.396,0.204c0.099,0,0.198-0.03,0.283-0.092c0.22-0.156,0.27-0.461,0.112-0.68
		c-2.967-4.147-12.265-5.306-14.036-5.49c-0.525-1.165-0.854-2.872-0.965-4.954c0.942-1.37,1.639-3.088,1.974-5.047
		c2.268-2.748,0.479-4.938-0.037-5.472C28.563,8.795,25.368,5.4,21.949,5.4c-3.707,0-6.93,3.626-7.711,8.647
		c-0.321,0.333-1.101,1.27-1.118,2.51c-0.013,0.918,0.387,1.787,1.188,2.583c0.424,2.31,1.355,4.278,2.601,5.716
		c-0.112,1.642-0.417,3.056-0.896,4.11c-2.115,0.22-14.762,1.803-14.959,8.146v5c0,0.27,0.218,0.487,0.488,0.487h30.716
		c0.27,0,0.488-0.218,0.488-0.487S32.527,41.625,32.258,41.625z M15.094,18.544c-0.67-0.63-1.006-1.292-0.999-1.966
		c0.011-1.096,0.917-1.926,0.927-1.934c0.085-0.076,0.141-0.181,0.158-0.294c0.666-4.621,3.513-7.974,6.77-7.974
		c2.994,0,5.817,3.139,6.715,7.463c0.021,0.105,0.078,0.2,0.159,0.271c0.087,0.075,2.099,1.853-0.027,4.328
		c-0.059,0.068-0.097,0.151-0.111,0.24c-0.725,4.481-3.558,7.733-6.735,7.733c-1.546,0-2.99-0.743-4.157-2.016
		c-0.015-0.019-0.032-0.035-0.049-0.052c-1.208-1.342-2.111-3.259-2.502-5.525C15.223,18.712,15.171,18.616,15.094,18.544z"/>
	<path fill="#414042" d="M46.404,38.838H35.521c-0.27,0-0.487,0.218-0.487,0.487s0.218,0.487,0.487,0.487h10.883
		c0.27,0,0.487-0.218,0.487-0.487S46.674,38.838,46.404,38.838z"/>
</g>
</svg>
