<?xml version="1.0" encoding="utf-8"?>
<!-- Generator: Adobe Illustrator 16.0.0, SVG Export Plug-In . SVG Version: 6.00 Build 0)  -->
<!DOCTYPE svg PUBLIC "-//W3C//DTD SVG 1.1//EN" "http://www.w3.org/Graphics/SVG/1.1/DTD/svg11.dtd">
<svg version="1.1" id="Layer_1" xmlns="http://www.w3.org/2000/svg" xmlns:xlink="http://www.w3.org/1999/xlink" x="0px" y="0px"
	 width="48px" height="48px" viewBox="0 0 48 48" enable-background="new 0 0 48 48" xml:space="preserve">
<g>
	<path fill="#414042" d="M31.381,41.625H3.211l0-4.497c0.184-5.899,14.206-7.204,14.347-7.217c0.167-0.015,0.316-0.115,0.393-0.266
		c0.521-1.029,0.86-2.345,1.033-3.896c1.212,1.039,2.634,1.635,4.146,1.635c1.805,0,3.477-0.833,4.816-2.262
		c0.177,1.888,0.537,3.419,1.095,4.522c0.076,0.15,0.225,0.251,0.393,0.266c0.069,0.006,6.961,0.635,11.188,3.067
		c0.076,0.043,0.16,0.064,0.242,0.064c0.169,0,0.333-0.088,0.423-0.244c0.135-0.234,0.054-0.532-0.18-0.666
		c-3.968-2.283-9.937-3.022-11.309-3.166c-0.524-1.166-0.854-2.874-0.963-4.956c0.941-1.369,1.638-3.086,1.974-5.045
		c2.265-2.748,0.479-4.938-0.037-5.472C29.745,8.795,26.549,5.4,23.129,5.4c-3.706,0-6.929,3.626-7.71,8.647
		c-0.321,0.333-1.101,1.27-1.118,2.51c-0.013,0.918,0.387,1.787,1.188,2.583c0.424,2.31,1.355,4.279,2.601,5.717
		c-0.112,1.641-0.417,3.055-0.896,4.11c-2.115,0.22-14.762,1.803-14.959,8.146v5c0,0.27,0.218,0.487,0.488,0.487h28.657
		c0.27,0,0.487-0.218,0.487-0.487S31.65,41.625,31.381,41.625z M16.275,18.544c-0.67-0.63-1.006-1.292-0.999-1.966
		c0.011-1.096,0.918-1.926,0.927-1.934c0.085-0.076,0.141-0.181,0.158-0.294c0.666-4.621,3.512-7.974,6.769-7.974
		c2.995,0,5.82,3.139,6.716,7.463c0.021,0.104,0.078,0.199,0.157,0.269c0.217,0.189,2.048,1.915-0.025,4.329
		c-0.058,0.068-0.097,0.151-0.11,0.24c-0.727,4.481-3.561,7.733-6.738,7.733c-1.545,0-2.989-0.742-4.155-2.015
		c-0.016-0.02-0.033-0.036-0.052-0.054c-1.208-1.342-2.11-3.259-2.5-5.524C16.404,18.712,16.353,18.616,16.275,18.544z"/>
	<path fill="#414042" d="M45.613,34.677c-0.16-0.217-0.465-0.261-0.682-0.101l-7.78,5.769l-2.508-2.835
		c-0.18-0.203-0.488-0.221-0.688-0.042c-0.201,0.179-0.221,0.486-0.041,0.688l2.804,3.17c0.096,0.108,0.229,0.165,0.365,0.165
		c0.102,0,0.204-0.032,0.29-0.096l8.14-6.037C45.729,35.198,45.774,34.893,45.613,34.677z"/>
</g>
</svg>
