<?xml version="1.0" encoding="utf-8"?>
<!-- Generator: Adobe Illustrator 16.0.0, SVG Export Plug-In . SVG Version: 6.00 Build 0)  -->
<!DOCTYPE svg PUBLIC "-//W3C//DTD SVG 1.1//EN" "http://www.w3.org/Graphics/SVG/1.1/DTD/svg11.dtd">
<svg version="1.1" id="Layer_1" xmlns="http://www.w3.org/2000/svg" xmlns:xlink="http://www.w3.org/1999/xlink" x="0px" y="0px"
	 width="48px" height="48px" viewBox="0 0 48 48" enable-background="new 0 0 48 48" xml:space="preserve">
<g>
	<path fill="#414042" d="M41.434,38.773l4.251-4.25c0.19-0.19,0.19-0.499,0-0.689s-0.499-0.19-0.689,0l-4.251,4.25l-4.25-4.25
		c-0.19-0.19-0.499-0.19-0.689,0s-0.19,0.499,0,0.689l4.25,4.25l-4.25,4.251c-0.19,0.19-0.19,0.499,0,0.689
		c0.095,0.095,0.22,0.143,0.345,0.143s0.249-0.048,0.345-0.143l4.25-4.251l4.251,4.251c0.095,0.095,0.22,0.143,0.345,0.143
		s0.25-0.048,0.345-0.143c0.19-0.19,0.19-0.499,0-0.689L41.434,38.773z"/>
	<path fill="#414042" d="M33.214,40.368H3.093l0-4.497c0.184-5.899,14.206-7.204,14.347-7.217c0.168-0.015,0.316-0.115,0.393-0.265
		c0.521-1.029,0.861-2.346,1.033-3.896c1.212,1.039,2.634,1.634,4.146,1.634c1.805,0,3.477-0.833,4.816-2.261
		c0.177,1.887,0.537,3.418,1.095,4.521c0.076,0.15,0.225,0.251,0.393,0.266c0.069,0.006,6.961,0.636,11.188,3.067
		c0.076,0.044,0.16,0.064,0.243,0.064c0.168,0,0.332-0.087,0.423-0.244c0.134-0.233,0.053-0.532-0.181-0.666
		c-3.968-2.282-9.937-3.021-11.309-3.166c-0.524-1.166-0.854-2.873-0.963-4.955c0.941-1.369,1.638-3.086,1.974-5.045
		c2.265-2.748,0.479-4.938-0.037-5.472c-1.025-4.699-4.222-8.094-7.641-8.094c-3.706,0-6.929,3.626-7.709,8.647
		c-0.321,0.333-1.102,1.27-1.119,2.51c-0.013,0.918,0.387,1.787,1.188,2.583c0.424,2.31,1.355,4.279,2.601,5.717
		c-0.112,1.642-0.417,3.056-0.896,4.109c-2.115,0.22-14.762,1.804-14.959,8.146v5c0,0.27,0.218,0.488,0.488,0.488h30.608
		c0.27,0,0.487-0.219,0.487-0.488S33.483,40.368,33.214,40.368z M16.157,17.288c-0.67-0.63-1.006-1.292-0.999-1.966
		c0.011-1.096,0.918-1.926,0.927-1.934c0.085-0.076,0.141-0.181,0.158-0.294c0.666-4.621,3.512-7.974,6.769-7.974
		c2.995,0,5.819,3.139,6.716,7.463c0.021,0.104,0.078,0.199,0.157,0.269c0.217,0.189,2.048,1.915-0.025,4.329
		c-0.058,0.068-0.096,0.151-0.11,0.24c-0.727,4.481-3.561,7.732-6.738,7.732c-1.545,0-2.989-0.743-4.155-2.015
		c-0.016-0.02-0.032-0.036-0.05-0.052c-1.208-1.342-2.111-3.259-2.501-5.525C16.286,17.456,16.234,17.36,16.157,17.288z"/>
</g>
</svg>
