<?xml version="1.0" encoding="utf-8"?>
<!-- Generator: Adobe Illustrator 16.0.0, SVG Export Plug-In . SVG Version: 6.00 Build 0)  -->
<!DOCTYPE svg PUBLIC "-//W3C//DTD SVG 1.1//EN" "http://www.w3.org/Graphics/SVG/1.1/DTD/svg11.dtd">
<svg version="1.1" id="Layer_1" xmlns="http://www.w3.org/2000/svg" xmlns:xlink="http://www.w3.org/1999/xlink" x="0px" y="0px"
	 width="48px" height="48px" viewBox="0 0 48 48" enable-background="new 0 0 48 48" xml:space="preserve">
<g>
	<path fill="#414042" d="M31.058,40.947H3.391V36.45c0.184-5.899,14.205-7.205,14.347-7.217c0.167-0.015,0.316-0.115,0.393-0.266
		c0.521-1.029,0.86-2.345,1.033-3.896c1.212,1.039,2.634,1.635,4.146,1.635c1.804,0,3.477-0.832,4.814-2.261
		c0.178,1.887,0.538,3.419,1.097,4.521c0.076,0.15,0.225,0.251,0.392,0.266c0.023,0.002,2.288,0.206,4.992,0.829
		c0.037,0.009,0.073,0.013,0.109,0.013c0.223,0,0.423-0.152,0.476-0.378c0.06-0.263-0.104-0.524-0.366-0.585
		c-2.245-0.518-4.15-0.749-4.847-0.823c-0.524-1.165-0.854-2.872-0.964-4.955c0.942-1.369,1.639-3.087,1.974-5.046
		c2.267-2.748,0.479-4.938-0.037-5.472c-1.025-4.699-4.221-8.094-7.64-8.094c-3.706,0-6.929,3.626-7.71,8.647
		c-0.321,0.333-1.101,1.27-1.118,2.51c-0.013,0.918,0.387,1.787,1.188,2.583c0.424,2.31,1.356,4.279,2.602,5.717
		c-0.112,1.641-0.417,3.055-0.896,4.11c-2.115,0.22-14.762,1.803-14.959,8.146v5c0,0.27,0.218,0.487,0.487,0.487h28.154
		c0.27,0,0.488-0.218,0.488-0.487S31.327,40.947,31.058,40.947z M16.456,17.866c-0.67-0.63-1.006-1.292-1-1.966
		c0.012-1.096,0.918-1.926,0.927-1.934c0.084-0.076,0.141-0.181,0.158-0.294c0.666-4.621,3.512-7.974,6.769-7.974
		c2.994,0,5.818,3.139,6.716,7.463c0.021,0.104,0.078,0.199,0.157,0.27c0.216,0.188,2.048,1.914-0.025,4.329
		c-0.059,0.068-0.097,0.151-0.111,0.24c-0.726,4.481-3.559,7.733-6.736,7.733c-1.545,0-2.989-0.743-4.155-2.015
		c-0.016-0.02-0.033-0.036-0.051-0.054c-1.208-1.342-2.11-3.259-2.501-5.524C16.584,18.034,16.533,17.938,16.456,17.866z"/>
	<path fill="#414042" d="M45.506,34.942c-0.058-0.177-0.211-0.306-0.395-0.332l-4.156-0.599l-1.853-3.76
		c-0.082-0.166-0.252-0.271-0.437-0.271c-0.001,0-0.001,0-0.001,0c-0.185,0-0.354,0.104-0.438,0.271l-1.864,3.761l-4.156,0.599
		c-0.184,0.026-0.337,0.155-0.394,0.332c-0.058,0.177-0.01,0.37,0.124,0.501l3.019,2.939l-0.615,4.339
		c-0.027,0.186,0.056,0.369,0.211,0.474c0.082,0.055,0.178,0.082,0.271,0.082c0.086,0,0.171-0.021,0.248-0.067l3.609-2.124
		l3.886,2.019c0.167,0.087,0.371,0.07,0.521-0.044c0.15-0.114,0.221-0.305,0.183-0.489l-0.891-4.203l3.003-2.926
		C45.516,35.313,45.563,35.119,45.506,34.942z M41.507,37.857c-0.12,0.116-0.172,0.286-0.138,0.45l0.732,3.456l-3.212-1.668
		c-0.148-0.078-0.327-0.073-0.472,0.013l-2.97,1.748l0.508-3.581c0.021-0.154-0.031-0.311-0.143-0.419l-2.486-2.422l3.428-0.494
		c0.159-0.023,0.297-0.122,0.368-0.267l1.54-3.105l1.531,3.104c0.07,0.145,0.208,0.244,0.367,0.268l3.431,0.494L41.507,37.857z"/>
</g>
</svg>
