<?xml version="1.0" encoding="utf-8"?>
<!-- Generator: Adobe Illustrator 16.0.0, SVG Export Plug-In . SVG Version: 6.00 Build 0)  -->
<!DOCTYPE svg PUBLIC "-//W3C//DTD SVG 1.1//EN" "http://www.w3.org/Graphics/SVG/1.1/DTD/svg11.dtd">
<svg version="1.1" id="Layer_1" xmlns="http://www.w3.org/2000/svg" xmlns:xlink="http://www.w3.org/1999/xlink" x="0px" y="0px"
	 width="48px" height="48px" viewBox="0 0 48 48" enable-background="new 0 0 48 48" xml:space="preserve">
<g>
	<path fill="#414042" d="M35.735,29.872c-3.091-0.927-6.086-1.294-7-1.391c-0.525-1.165-0.854-2.872-0.965-4.954
		c0.942-1.37,1.639-3.088,1.974-5.047c2.268-2.748,0.479-4.938-0.037-5.473c-1.025-4.699-4.22-8.094-7.639-8.094
		c-3.707,0-6.93,3.626-7.711,8.647c-0.321,0.333-1.101,1.269-1.118,2.509c-0.013,0.918,0.386,1.787,1.188,2.584
		c0.424,2.31,1.355,4.278,2.601,5.716c-0.112,1.642-0.417,3.056-0.896,4.11c-2.115,0.22-14.762,1.802-14.959,8.146v4.999
		c0,0.27,0.218,0.487,0.488,0.487h33.381c0.271,0,0.488-0.218,0.488-0.487s-0.218-0.487-0.488-0.487H2.148v-4.496
		c0.184-5.9,14.205-7.205,14.347-7.217c0.167-0.015,0.316-0.115,0.393-0.266c0.521-1.029,0.86-2.346,1.033-3.896
		c1.213,1.04,2.635,1.636,4.147,1.636c1.804,0,3.476-0.832,4.813-2.26c0.178,1.888,0.538,3.418,1.097,4.521
		c0.077,0.15,0.226,0.251,0.393,0.266c0.035,0.003,3.547,0.32,7.084,1.381c0.047,0.014,0.094,0.021,0.14,0.021
		c0.21,0,0.404-0.137,0.467-0.348C36.14,30.221,35.993,29.949,35.735,29.872z M22.068,25.924c-1.546,0-2.99-0.743-4.157-2.016
		c-0.015-0.019-0.032-0.035-0.049-0.052c-1.208-1.342-2.112-3.259-2.502-5.525c-0.018-0.104-0.069-0.2-0.146-0.272
		c-0.67-0.63-1.006-1.292-0.999-1.967c0.012-1.096,0.917-1.925,0.927-1.934c0.084-0.076,0.141-0.181,0.158-0.294
		c0.666-4.621,3.513-7.974,6.77-7.974c2.994,0,5.817,3.138,6.715,7.462c0.021,0.105,0.078,0.201,0.159,0.271
		c0.086,0.075,2.099,1.854-0.027,4.329c-0.059,0.068-0.097,0.151-0.111,0.24C28.079,22.672,25.246,25.924,22.068,25.924z"/>
	<path fill="#414042" d="M45.021,33.307l1.678-2.686c0.095-0.15,0.099-0.34,0.014-0.495c-0.086-0.154-0.25-0.251-0.427-0.251h-7.623
		v-0.197c0-0.27-0.218-0.487-0.487-0.487s-0.488,0.218-0.488,0.487v12.92c0,0.27,0.219,0.487,0.488,0.487s0.487-0.218,0.487-0.487
		v-5.973h7.623c0.179,0,0.344-0.098,0.429-0.255c0.085-0.158,0.078-0.35-0.021-0.499L45.021,33.307z M38.662,35.649v-4.799h6.742
		l-1.375,2.203c-0.102,0.161-0.1,0.365,0.005,0.524l1.351,2.071H38.662z"/>
</g>
</svg>
