<?xml version="1.0" encoding="utf-8"?>
<!-- Generator: Adobe Illustrator 16.0.0, SVG Export Plug-In . SVG Version: 6.00 Build 0)  -->
<!DOCTYPE svg PUBLIC "-//W3C//DTD SVG 1.1//EN" "http://www.w3.org/Graphics/SVG/1.1/DTD/svg11.dtd">
<svg version="1.1" id="Layer_1" xmlns="http://www.w3.org/2000/svg" xmlns:xlink="http://www.w3.org/1999/xlink" x="0px" y="0px"
	 width="48px" height="48px" viewBox="0 0 48 48" enable-background="new 0 0 48 48" xml:space="preserve">
<g>
	<path fill="#414042" d="M31.004,40.448H4.014v-4.497c0.184-5.899,14.205-7.204,14.347-7.217c0.167-0.015,0.316-0.115,0.393-0.266
		c0.521-1.029,0.86-2.345,1.033-3.895c1.212,1.039,2.634,1.634,4.146,1.634c1.804,0,3.476-0.832,4.814-2.26
		c0.178,1.886,0.538,3.418,1.096,4.521c0.077,0.15,0.226,0.251,0.393,0.266c0.018,0.002,1.696,0.152,3.881,0.593
		c0.032,0.007,0.065,0.01,0.098,0.01c0.227,0,0.431-0.16,0.478-0.392c0.053-0.264-0.118-0.521-0.383-0.574
		c-1.737-0.35-3.136-0.52-3.708-0.58c-0.525-1.166-0.854-2.873-0.965-4.955c0.942-1.369,1.639-3.087,1.974-5.046
		c2.267-2.748,0.479-4.938-0.037-5.472c-1.025-4.699-4.221-8.094-7.64-8.094c-3.706,0-6.929,3.626-7.71,8.647
		c-0.321,0.333-1.101,1.27-1.118,2.51c-0.013,0.918,0.387,1.787,1.188,2.583c0.424,2.31,1.355,4.279,2.601,5.717
		c-0.112,1.641-0.416,3.056-0.895,4.109c-2.115,0.22-14.762,1.804-14.959,8.146v5c0,0.27,0.218,0.488,0.487,0.488h27.478
		c0.271,0,0.488-0.219,0.488-0.488S31.274,40.448,31.004,40.448z M17.079,17.368c-0.67-0.63-1.006-1.292-1-1.966
		c0.012-1.096,0.918-1.926,0.927-1.934c0.084-0.076,0.141-0.181,0.158-0.294c0.666-4.621,3.512-7.975,6.769-7.975
		c2.994,0,5.818,3.139,6.716,7.463c0.021,0.104,0.078,0.2,0.157,0.27c0.216,0.188,2.048,1.914-0.025,4.329
		c-0.059,0.068-0.097,0.151-0.111,0.24c-0.726,4.481-3.559,7.732-6.736,7.732c-1.545,0-2.989-0.743-4.156-2.015
		c-0.015-0.02-0.032-0.036-0.05-0.052c-1.208-1.342-2.111-3.259-2.501-5.525C17.207,17.536,17.156,17.44,17.079,17.368z"/>
	<path fill="#414042" d="M44.777,42.958l-3.503-3.795c0.794-0.891,1.311-2.038,1.363-3.326c0.116-2.94-2.182-5.428-5.121-5.545
		l-0.216-0.004c-2.875,0-5.215,2.251-5.329,5.124c-0.058,1.423,0.442,2.783,1.409,3.831s2.283,1.656,3.709,1.713l0.215,0.005
		c1.233,0,2.354-0.432,3.257-1.132l3.499,3.79c0.097,0.104,0.227,0.157,0.358,0.157c0.118,0,0.237-0.043,0.33-0.129
		C44.947,43.465,44.96,43.156,44.777,42.958z M37.129,39.982c-1.165-0.047-2.241-0.545-3.031-1.4
		c-0.79-0.856-1.198-1.968-1.15-3.131c0.092-2.348,2.005-4.188,4.354-4.188l0.178,0.003c2.402,0.096,4.279,2.129,4.184,4.531
		c-0.049,1.187-0.563,2.241-1.361,2.996c-0.006,0.005-0.014,0.007-0.02,0.012c-0.003,0.003-0.004,0.006-0.006,0.009
		c-0.779,0.726-1.821,1.171-2.971,1.171L37.129,39.982z"/>
</g>
</svg>
