<?xml version="1.0" encoding="utf-8"?>
<!-- Generator: Adobe Illustrator 16.0.0, SVG Export Plug-In . SVG Version: 6.00 Build 0)  -->
<!DOCTYPE svg PUBLIC "-//W3C//DTD SVG 1.1//EN" "http://www.w3.org/Graphics/SVG/1.1/DTD/svg11.dtd">
<svg version="1.1" id="Layer_1" xmlns="http://www.w3.org/2000/svg" xmlns:xlink="http://www.w3.org/1999/xlink" x="0px" y="0px"
	 width="48px" height="48px" viewBox="0 0 48 48" enable-background="new 0 0 48 48" xml:space="preserve">
<g>
	<path fill="#414042" d="M31.069,41.625H3.315l0-4.497c0.185-5.899,14.206-7.204,14.348-7.217c0.167-0.015,0.316-0.115,0.393-0.266
		c0.52-1.028,0.86-2.345,1.033-3.896c1.212,1.039,2.634,1.635,4.146,1.635c1.805,0,3.477-0.833,4.815-2.261
		c0.178,1.887,0.537,3.418,1.096,4.521c0.076,0.15,0.225,0.251,0.392,0.266c0.01,0.001,0.989,0.089,2.416,0.323
		c0.026,0.005,0.054,0.007,0.08,0.007c0.234,0,0.441-0.169,0.48-0.408c0.044-0.266-0.137-0.517-0.402-0.561
		c-1.026-0.169-1.814-0.263-2.209-0.306c-0.525-1.165-0.854-2.874-0.964-4.956c0.941-1.369,1.638-3.086,1.974-5.045
		c2.266-2.748,0.479-4.938-0.037-5.472C29.849,8.795,26.653,5.4,23.233,5.4c-3.706,0-6.929,3.626-7.709,8.647
		c-0.321,0.333-1.102,1.27-1.119,2.511c-0.013,0.918,0.387,1.786,1.188,2.583c0.424,2.31,1.356,4.279,2.602,5.717
		c-0.113,1.642-0.417,3.056-0.896,4.109c-2.114,0.22-14.761,1.803-14.959,8.146v5c0,0.27,0.218,0.487,0.487,0.487h28.242
		c0.27,0,0.487-0.218,0.487-0.487S31.339,41.625,31.069,41.625z M16.379,18.544c-0.67-0.63-1.006-1.291-0.999-1.966
		c0.012-1.097,0.918-1.926,0.928-1.935c0.084-0.076,0.141-0.181,0.157-0.294c0.665-4.621,3.512-7.974,6.768-7.974
		c2.995,0,5.819,3.139,6.717,7.463c0.021,0.104,0.078,0.199,0.157,0.269c0.216,0.189,2.047,1.915-0.026,4.329
		c-0.058,0.068-0.096,0.151-0.11,0.24c-0.727,4.481-3.561,7.733-6.737,7.733c-1.545,0-2.988-0.742-4.154-2.014
		c-0.016-0.02-0.033-0.037-0.052-0.054c-1.208-1.342-2.11-3.259-2.501-5.524C16.508,18.712,16.457,18.616,16.379,18.544z"/>
	<path fill="#414042" d="M38.777,28.893c-3.765,0-6.828,3.063-6.828,6.828c0,3.763,3.063,6.824,6.828,6.824s6.828-3.062,6.828-6.824
		C45.605,31.956,42.542,28.893,38.777,28.893z M38.777,29.868c1.438,0,2.753,0.522,3.772,1.385l-8.236,8.242
		c-0.864-1.021-1.389-2.337-1.389-3.774C32.925,32.493,35.55,29.868,38.777,29.868z M38.777,41.569
		c-1.438,0-2.754-0.522-3.773-1.386l8.235-8.241c0.866,1.021,1.391,2.338,1.391,3.778C44.63,38.945,42.005,41.569,38.777,41.569z"/>
</g>
</svg>
