<?xml version="1.0" encoding="utf-8"?>
<!-- Generator: Adobe Illustrator 16.0.0, SVG Export Plug-In . SVG Version: 6.00 Build 0)  -->
<!DOCTYPE svg PUBLIC "-//W3C//DTD SVG 1.1//EN" "http://www.w3.org/Graphics/SVG/1.1/DTD/svg11.dtd">
<svg version="1.1" id="Layer_1" xmlns="http://www.w3.org/2000/svg" xmlns:xlink="http://www.w3.org/1999/xlink" x="0px" y="0px"
	 width="48px" height="48px" viewBox="0 0 48 48" enable-background="new 0 0 48 48" xml:space="preserve">
<g>
	<path fill="#414042" d="M29.579,41.574H3.775v-4.497c0.184-5.898,14.205-7.204,14.347-7.216c0.168-0.016,0.316-0.115,0.393-0.266
		c0.52-1.028,0.86-2.345,1.034-3.896c1.212,1.039,2.634,1.635,4.146,1.635c1.805,0,3.477-0.833,4.815-2.261
		c0.177,1.886,0.537,3.418,1.096,4.521c0.076,0.151,0.225,0.251,0.393,0.267c0.009,0.001,0.988,0.088,2.415,0.323
		c0.026,0.005,0.054,0.007,0.08,0.007c0.234,0,0.441-0.17,0.48-0.408c0.044-0.266-0.137-0.517-0.402-0.561
		c-1.025-0.17-1.814-0.264-2.209-0.306c-0.525-1.166-0.854-2.873-0.964-4.956c0.941-1.369,1.638-3.086,1.974-5.045
		c2.266-2.749,0.479-4.938-0.037-5.472c-1.025-4.7-4.221-8.094-7.641-8.094c-3.707,0-6.93,3.626-7.71,8.647
		c-0.321,0.333-1.102,1.27-1.119,2.51c-0.013,0.918,0.387,1.787,1.188,2.583c0.424,2.31,1.356,4.279,2.602,5.716
		c-0.113,1.643-0.418,3.057-0.896,4.109C15.645,29.137,2.998,30.72,2.8,37.063v5c0,0.27,0.218,0.487,0.488,0.487h26.292
		c0.27,0,0.488-0.218,0.488-0.487S29.849,41.574,29.579,41.574z M16.839,18.494c-0.669-0.63-1.006-1.292-0.999-1.966
		c0.011-1.097,0.918-1.927,0.927-1.935c0.084-0.076,0.141-0.181,0.158-0.294c0.665-4.621,3.511-7.975,6.769-7.975
		c2.995,0,5.819,3.139,6.717,7.463c0.021,0.104,0.078,0.2,0.157,0.269c0.216,0.189,2.047,1.915-0.025,4.33
		c-0.059,0.068-0.097,0.151-0.111,0.24c-0.727,4.481-3.561,7.733-6.737,7.733c-1.545,0-2.989-0.743-4.155-2.015
		c-0.016-0.02-0.033-0.036-0.051-0.053c-1.208-1.342-2.111-3.259-2.502-5.525C16.968,18.662,16.917,18.566,16.839,18.494z"/>
	<path fill="#414042" d="M45.141,41.396l-0.001-6.408c0.006-0.084,0.017-0.522-0.294-0.853c-0.136-0.145-0.382-0.316-0.785-0.316
		c-0.011,0-0.021,0-0.029,0h-0.976l-0.001-0.71c0-0.337-0.032-0.643-0.098-0.93c-0.23-1.044-0.784-1.905-1.644-2.561
		c-0.599-0.458-1.29-0.744-2.051-0.85c-0.108-0.016-0.222-0.03-0.382-0.045h-0.486c-0.023,0-0.105,0.013-0.13,0.017l-0.178,0.023
		c-0.15,0.019-0.3,0.038-0.449,0.071c-2.035,0.47-3.442,2.242-3.421,4.312c0.003,0.226,0.002,0.45,0.001,0.674h-1.079
		c-0.434,0-0.697,0.181-0.841,0.331c-0.312,0.327-0.308,0.748-0.304,0.806l0.003,6.547c0.006,0.461,0.347,1.146,1.262,1.146h10.708
		c0.481,0,0.759-0.204,0.906-0.374C45.202,41.896,45.146,41.396,45.141,41.396z M37.852,29.787c0.116-0.025,0.236-0.041,0.357-0.056
		l0.616-0.036c0.097,0.012,0.197,0.024,0.299,0.039c0.604,0.084,1.126,0.299,1.597,0.659c0.682,0.519,1.102,1.172,1.285,1.999
		c0.05,0.218,0.073,0.452,0.073,0.719l0.001,0.709h-6.887c0-0.227,0.002-0.455-0.001-0.684
		C35.176,31.529,36.271,30.151,37.852,29.787z M44.136,41.638c-0.017,0.019-0.074,0.037-0.169,0.037H33.259
		c-0.142,0-0.274-0.024-0.286-0.183l-0.003-6.548c0-0.148,0.07-0.148,0.169-0.148h1.565h8.013c0.005,0,0.01-0.003,0.015-0.003h1.3
		c0.003,0,0.005,0,0.008,0c0.031,0.007,0.063,0.01,0.096,0.01c0.015,0.016,0.032,0.082,0.03,0.154l0.005,6.508
		C44.174,41.489,44.168,41.601,44.136,41.638z"/>
</g>
</svg>
