<?xml version="1.0" encoding="utf-8"?>
<!-- Generator: Adobe Illustrator 16.0.0, SVG Export Plug-In . SVG Version: 6.00 Build 0)  -->
<!DOCTYPE svg PUBLIC "-//W3C//DTD SVG 1.1//EN" "http://www.w3.org/Graphics/SVG/1.1/DTD/svg11.dtd">
<svg version="1.1" id="Layer_1" xmlns="http://www.w3.org/2000/svg" xmlns:xlink="http://www.w3.org/1999/xlink" x="0px" y="0px"
	 width="48px" height="48px" viewBox="0 0 48 48" enable-background="new 0 0 48 48" xml:space="preserve">
<g>
	<path fill="#414042" d="M40.183,30.321c-2.004,0-3.634,1.631-3.634,3.635c0,0.27,0.218,0.488,0.487,0.488s0.487-0.219,0.487-0.488
		c0-1.466,1.193-2.659,2.659-2.659c1.467,0,2.659,1.193,2.659,2.659c0,1.102-0.692,2.102-1.702,2.482
		c-0.495,0.162-1.432,0.795-1.432,2.032v1.428c0,0.27,0.219,0.488,0.488,0.488s0.487-0.219,0.487-0.488v-1.428
		c0-0.816,0.686-1.079,0.779-1.112c1.409-0.53,2.354-1.897,2.354-3.402C43.817,31.952,42.187,30.321,40.183,30.321z"/>
	<path fill="#414042" d="M40.183,41.623c-0.458,0-0.859,0.413-0.859,0.884c0,0.47,0.401,0.882,0.859,0.882s0.859-0.412,0.859-0.882
		C41.042,42.036,40.641,41.623,40.183,41.623z"/>
	<path fill="#414042" d="M35.888,28.857c-1.961-0.418-3.571-0.612-4.198-0.68c-0.525-1.165-0.854-2.872-0.964-4.955
		c0.941-1.369,1.638-3.087,1.974-5.045c2.266-2.748,0.479-4.938-0.037-5.472c-1.025-4.699-4.221-8.095-7.641-8.095
		c-3.706,0-6.929,3.626-7.71,8.647c-0.321,0.333-1.101,1.27-1.118,2.51c-0.013,0.919,0.387,1.787,1.188,2.584
		c0.424,2.31,1.355,4.279,2.601,5.716c-0.112,1.641-0.417,3.056-0.896,4.109c-2.115,0.22-14.762,1.804-14.959,8.146v5
		c0,0.271,0.218,0.488,0.488,0.488h29.669c0.27,0,0.487-0.218,0.487-0.488c0-0.27-0.218-0.487-0.487-0.487H5.103v-4.497
		c0.184-5.898,14.206-7.204,14.347-7.217c0.167-0.015,0.316-0.115,0.392-0.266c0.521-1.028,0.86-2.345,1.033-3.895
		c1.212,1.039,2.634,1.635,4.146,1.635c1.805,0,3.477-0.833,4.815-2.261c0.177,1.887,0.537,3.418,1.095,4.521
		c0.076,0.15,0.226,0.251,0.393,0.266c0.02,0.002,1.944,0.175,4.359,0.689c0.034,0.008,0.068,0.011,0.103,0.011
		c0.226,0,0.427-0.156,0.477-0.386C36.319,29.173,36.15,28.914,35.888,28.857z M25.021,25.621c-1.545,0-2.988-0.743-4.155-2.015
		c-0.016-0.021-0.034-0.038-0.053-0.055c-1.207-1.342-2.109-3.258-2.5-5.523c-0.018-0.104-0.069-0.2-0.146-0.272
		c-0.67-0.63-1.006-1.292-1-1.967c0.012-1.097,0.918-1.927,0.927-1.935c0.085-0.076,0.141-0.181,0.158-0.294
		c0.666-4.621,3.513-7.975,6.769-7.975c2.994,0,5.819,3.139,6.717,7.463c0.021,0.104,0.078,0.2,0.156,0.269
		c0.217,0.189,2.048,1.915-0.025,4.33c-0.058,0.068-0.096,0.151-0.11,0.24C31.032,22.369,28.198,25.621,25.021,25.621z"/>
</g>
</svg>
