<?xml version="1.0" encoding="utf-8"?>
<!-- Generator: Adobe Illustrator 16.0.0, SVG Export Plug-In . SVG Version: 6.00 Build 0)  -->
<!DOCTYPE svg PUBLIC "-//W3C//DTD SVG 1.1//EN" "http://www.w3.org/Graphics/SVG/1.1/DTD/svg11.dtd">
<svg version="1.1" id="Layer_1" xmlns="http://www.w3.org/2000/svg" xmlns:xlink="http://www.w3.org/1999/xlink" x="0px" y="0px"
	 width="48px" height="48px" viewBox="0 0 48 48" enable-background="new 0 0 48 48" xml:space="preserve">
<g>
	<path fill="#414042" d="M39.773,29.808c-3.394-1.148-6.93-1.583-7.939-1.689c-0.524-1.166-0.854-2.872-0.964-4.955
		c0.942-1.37,1.639-3.087,1.974-5.046c2.267-2.748,0.479-4.938-0.037-5.472c-1.025-4.7-4.221-8.095-7.64-8.095
		c-3.706,0-6.929,3.626-7.71,8.647c-0.321,0.333-1.101,1.27-1.118,2.51c-0.013,0.919,0.387,1.787,1.188,2.584
		c0.424,2.31,1.355,4.278,2.601,5.716c-0.112,1.641-0.417,3.056-0.896,4.109c-2.115,0.22-14.762,1.804-14.959,8.146v5.001
		c0,0.27,0.218,0.487,0.488,0.487h34.765c0.27,0,0.487-0.218,0.487-0.487c0-0.271-0.218-0.488-0.487-0.488H5.249v-4.497
		c0.183-5.898,14.205-7.204,14.347-7.217c0.167-0.015,0.316-0.115,0.393-0.265c0.521-1.029,0.86-2.346,1.033-3.896
		c1.212,1.04,2.634,1.635,4.146,1.635c1.804,0,3.476-0.832,4.814-2.261c0.178,1.888,0.538,3.419,1.097,4.521
		c0.076,0.149,0.225,0.25,0.393,0.265c0.041,0.004,4.177,0.38,7.99,1.67c0.051,0.018,0.104,0.025,0.156,0.025
		c0.203,0,0.393-0.128,0.462-0.331C40.165,30.171,40.028,29.894,39.773,29.808z M25.167,25.561c-1.545,0-2.989-0.743-4.155-2.015
		c-0.016-0.02-0.034-0.037-0.053-0.055c-1.207-1.342-2.109-3.259-2.5-5.523c-0.018-0.104-0.07-0.2-0.147-0.272
		c-0.67-0.63-1.006-1.292-0.999-1.967c0.011-1.097,0.918-1.926,0.927-1.935c0.085-0.076,0.141-0.181,0.158-0.294
		c0.666-4.621,3.512-7.975,6.769-7.975c2.994,0,5.818,3.139,6.716,7.464c0.021,0.104,0.078,0.199,0.157,0.27
		c0.216,0.188,2.048,1.914-0.025,4.329c-0.059,0.068-0.097,0.151-0.111,0.24C31.178,22.308,28.345,25.561,25.167,25.561z"/>
	<path fill="#414042" d="M42.641,31.789c-0.27,0-0.488,0.218-0.488,0.487v10.686c0,0.27,0.219,0.487,0.488,0.487
		s0.487-0.218,0.487-0.487V32.276C43.128,32.007,42.91,31.789,42.641,31.789z"/>
	<path fill="#414042" d="M42.641,28.538c-0.549,0-1.031,0.496-1.031,1.063c0,0.559,0.492,1.067,1.031,1.067
		c0.54,0,1.032-0.509,1.032-1.067C43.673,29.034,43.189,28.538,42.641,28.538z"/>
</g>
</svg>
