<?xml version="1.0" encoding="utf-8"?>
<!-- Generator: Adobe Illustrator 16.0.0, SVG Export Plug-In . SVG Version: 6.00 Build 0)  -->
<!DOCTYPE svg PUBLIC "-//W3C//DTD SVG 1.1//EN" "http://www.w3.org/Graphics/SVG/1.1/DTD/svg11.dtd">
<svg version="1.1" id="Layer_1" xmlns="http://www.w3.org/2000/svg" xmlns:xlink="http://www.w3.org/1999/xlink" x="0px" y="0px"
	 width="48px" height="48px" viewBox="0 0 48 48" enable-background="new 0 0 48 48" xml:space="preserve">
<g>
	<path fill="#414042" d="M31.487,41.499H2.774v-4.497c0.184-5.898,14.206-7.204,14.347-7.217c0.167-0.015,0.316-0.115,0.392-0.265
		c0.521-1.029,0.861-2.346,1.033-3.896c1.213,1.039,2.635,1.635,4.147,1.635c1.804,0,3.476-0.832,4.813-2.26
		c0.178,1.888,0.538,3.419,1.097,4.521c0.076,0.15,0.226,0.25,0.393,0.265c0.015,0.002,1.471,0.132,3.432,0.504
		c0.03,0.005,0.061,0.008,0.091,0.008c0.23,0,0.435-0.162,0.479-0.396c0.051-0.265-0.124-0.52-0.389-0.57
		c-1.523-0.288-2.728-0.434-3.248-0.488c-0.525-1.165-0.854-2.871-0.965-4.954c0.942-1.369,1.639-3.087,1.974-5.047
		c2.267-2.749,0.479-4.938-0.037-5.472c-1.025-4.7-4.22-8.095-7.639-8.095c-3.707,0-6.93,3.626-7.711,8.646
		c-0.321,0.333-1.101,1.27-1.118,2.511c-0.013,0.919,0.387,1.787,1.188,2.584c0.424,2.31,1.355,4.278,2.601,5.716
		c-0.112,1.642-0.416,3.056-0.896,4.109c-2.115,0.221-14.762,1.804-14.959,8.146v5c0,0.27,0.218,0.487,0.488,0.487h29.201
		c0.27,0,0.487-0.218,0.487-0.487S31.757,41.499,31.487,41.499z M15.839,18.419c-0.67-0.63-1.006-1.292-1-1.966
		c0.012-1.097,0.918-1.927,0.927-1.935c0.084-0.076,0.141-0.181,0.157-0.294c0.666-4.621,3.513-7.975,6.771-7.975
		c2.994,0,5.817,3.139,6.715,7.463c0.021,0.104,0.078,0.2,0.158,0.27c0.215,0.189,2.048,1.915-0.026,4.329
		c-0.059,0.068-0.097,0.151-0.111,0.24c-0.725,4.481-3.558,7.733-6.735,7.733c-1.546,0-2.99-0.743-4.157-2.016
		c-0.015-0.02-0.032-0.036-0.051-0.053c-1.208-1.342-2.11-3.259-2.501-5.524C15.967,18.587,15.916,18.492,15.839,18.419z"/>
	<path fill="#414042" d="M39.214,28.861c-3.822,0-6.931,3.11-6.931,6.934c0,3.821,3.108,6.931,6.931,6.931s6.933-3.109,6.933-6.931
		C46.146,31.972,43.036,28.861,39.214,28.861z M37.422,30.175c-0.009,0.018-0.017,0.035-0.024,0.054l-0.056,0.141
		c-0.062,0.16-0.031,0.335,0.064,0.466c-0.127,0.043-0.281,0.09-0.428,0.117c0.026-0.105,0.039-0.224,0.035-0.353
		c-0.021-0.113-0.054-0.209-0.088-0.304c0.155-0.065,0.313-0.123,0.475-0.175C37.408,30.14,37.413,30.156,37.422,30.175z
		 M35.893,30.853c-0.135,0.128-0.191,0.321-0.13,0.505c0.061,0.18,0.276,0.599,0.963,0.599c0.609,0,1.357-0.338,1.364-0.341
		c0.048-0.023,0.092-0.053,0.129-0.09c0.27-0.259,0.307-0.526,0.289-0.712c-0.006-0.057-0.017-0.109-0.033-0.158
		c0.009-0.008,0.016-0.015,0.021-0.02c0.119-0.112,0.175-0.277,0.146-0.438c-0.023-0.128-0.104-0.229-0.209-0.303
		c0.257-0.034,0.516-0.058,0.781-0.058c2.857,0,5.25,2.023,5.824,4.713c-0.008-0.013-0.014-0.022-0.021-0.036
		C44.696,34.089,44.359,34,44.135,34c-0.482,0-0.789,0.379-0.898,0.546c-1.135,0.812-1.314,1.179-1.238,1.462
		c0.042,0.253,0.004,0.478-0.051,0.647c-0.147-0.335-0.313-0.912-0.402-1.327c-0.182-0.609-0.188-0.813-0.188-0.833
		c0-0.181-0.165-0.362-0.325-0.446c-0.16-0.085-0.418-0.091-0.566,0.012c-0.082-0.082-0.185-0.128-0.292-0.14L39.209,33.4
		c-0.085-0.121-0.191-0.245-0.302-0.374c-0.122-0.142-0.349-0.406-0.377-0.512c-0.03-0.151-0.152-0.31-0.291-0.376
		c-0.308-0.147-0.634,0.008-1.231,0.318c-0.104,0.054-0.199,0.104-0.268,0.135c-0.353,0.158-0.549,0.469-0.527,0.829
		c0.036,0.584,0.704,1.256,1.23,1.685c-0.547,0.415-0.952,0.487-1.167,0.487c-0.191-0.001-0.306-0.05-0.293-0.041
		c-0.35-0.291-0.795-2.306-0.983-3.963C35.272,31.315,35.571,31.068,35.893,30.853z M33.269,36c0.253,0.561,0.896,1.835,1.651,2.183
		c0.084,0.039,0.179,0.054,0.271,0.04c0.312-0.044,0.677-0.047,0.885-0.014c-0.06,0.145-0.208,0.398-0.552,0.564
		c-0.072,0.029-0.626,0.272-0.949,0.747C33.793,38.55,33.314,37.33,33.269,36z M39.214,41.75c-1.48,0-2.834-0.547-3.877-1.444
		c-0.017-0.067-0.015-0.122,0-0.159c0.082-0.213,0.413-0.41,0.584-0.482c0.792-0.38,1.097-1.059,1.132-1.317
		c0.095-0.271,0.053-0.543-0.114-0.749c-0.347-0.424-1.161-0.42-1.711-0.362c-0.368-0.275-0.853-1.137-1.116-1.736v-2.761
		c0.016-0.027,0.032-0.054,0.048-0.08c0.195,1.287,0.581,3.161,1.226,3.664c0.114,0.091,0.43,0.246,0.892,0.246
		c0.508,0,1.314-0.197,2.278-1.14c0.091-0.091,0.142-0.213,0.143-0.341c0.005-0.18-0.091-0.35-0.25-0.438
		c-0.354-0.232-1.076-0.883-1.232-1.205c0.07-0.033,0.152-0.076,0.241-0.122c0.079-0.042,0.203-0.105,0.317-0.161
		c0.112,0.172,0.254,0.337,0.394,0.5c0.107,0.125,0.229,0.267,0.271,0.342c0.046,0.083,0.113,0.15,0.196,0.194l1.37,0.74
		c0.121,0.074,0.277,0.14,0.467,0.153c0.034,0.144,0.077,0.303,0.129,0.475c0.012,0.057,0.275,1.303,0.663,1.859
		c0.128,0.358,0.377,0.569,0.68,0.569c0.188,0,0.457-0.085,0.64-0.438c0.082-0.115,0.462-0.697,0.396-1.532
		c0.086-0.099,0.317-0.327,0.9-0.738c0.044-0.031,0.115-0.119,0.146-0.163c0.04-0.068,0.107-0.14,0.082-0.152
		c0.001,0.001,0.05,0.021,0.099,0.081c0.453,0.815,0.727,1.154,0.937,1.295C44.863,39.372,42.312,41.75,39.214,41.75z"/>
</g>
</svg>
