<?xml version="1.0" encoding="utf-8"?>
<!-- Generator: Adobe Illustrator 16.0.0, SVG Export Plug-In . SVG Version: 6.00 Build 0)  -->
<!DOCTYPE svg PUBLIC "-//W3C//DTD SVG 1.1//EN" "http://www.w3.org/Graphics/SVG/1.1/DTD/svg11.dtd">
<svg version="1.1" id="Layer_1" xmlns="http://www.w3.org/2000/svg" xmlns:xlink="http://www.w3.org/1999/xlink" x="0px" y="0px"
	 width="48px" height="48px" viewBox="0 0 48 48" enable-background="new 0 0 48 48" xml:space="preserve">
<g>
	<path fill="#414042" d="M45.861,25.208c-0.454-1.042-1.547-1.829-2.543-1.829c-0.499,0-0.946,0.192-1.295,0.554
		c-0.467,0.482-0.681,0.724-0.681,0.724l-0.965,1.029c-0.004,0.004-0.009,0.005-0.012,0.009l-7.86,8.371
		c-0.053,0.056-0.085,0.122-0.106,0.19c-0.002,0.006-0.007,0.01-0.009,0.016l-1.196,4.406c-0.05,0.181,0.009,0.372,0.15,0.495
		c0.09,0.079,0.204,0.12,0.319,0.12c0.065,0,0.13-0.013,0.192-0.039l4.052-1.725c0.003-0.001,0.005-0.005,0.008-0.006
		c0.057-0.025,0.11-0.061,0.156-0.109l7.86-8.369c0.001-0.001,0.002-0.001,0.003-0.002l0.972-1.037c0,0,0.199-0.209,0.679-0.724
		C46.097,26.736,46.196,25.98,45.861,25.208z M33.119,35.312l1.719,1.613l-2.438,1.039L33.119,35.312z M35.695,36.392l-2.146-2.013
		l7.194-7.661l2.146,2.014L35.695,36.392z M44.872,26.618c-0.471,0.506-0.668,0.711-0.674,0.718l-0.641,0.685l-2.144-2.014
		l0.652-0.694c0.004-0.006,0.208-0.236,0.658-0.702c0.591-0.612,1.834,0.05,2.242,0.987C45.092,25.884,45.176,26.293,44.872,26.618z
		"/>
	<path fill="#414042" d="M32.01,41.637H2.865v-4.501c0.184-5.903,14.215-7.208,14.356-7.221c0.168-0.015,0.316-0.115,0.393-0.266
		c0.521-1.03,0.862-2.348,1.034-3.898c1.213,1.04,2.636,1.636,4.149,1.636c1.805,0,3.479-0.833,4.818-2.263
		c0.177,1.89,0.537,3.423,1.097,4.526c0.076,0.149,0.225,0.25,0.392,0.265c0.013,0.001,1.273,0.114,3.024,0.428
		c0.029,0.005,0.059,0.008,0.087,0.008c0.231,0,0.438-0.166,0.479-0.401c0.048-0.266-0.129-0.519-0.395-0.566
		c-1.326-0.237-2.359-0.361-2.832-0.412c-0.525-1.166-0.854-2.875-0.965-4.958c0.943-1.37,1.64-3.09,1.976-5.05
		c2.268-2.749,0.479-4.94-0.037-5.475c-1.028-4.703-4.225-8.1-7.645-8.1c-3.708,0-6.934,3.628-7.715,8.652
		c-0.321,0.333-1.101,1.271-1.119,2.512c-0.013,0.919,0.387,1.788,1.189,2.586c0.423,2.312,1.355,4.282,2.602,5.72
		c-0.112,1.641-0.417,3.056-0.897,4.113c-2.115,0.22-14.77,1.804-14.968,8.149v5.004c0,0.27,0.218,0.488,0.488,0.488H32.01
		c0.27,0,0.487-0.219,0.487-0.488S32.279,41.637,32.01,41.637z M15.94,18.542c-0.671-0.631-1.008-1.293-1.001-1.969
		c0.012-1.098,0.918-1.928,0.927-1.936c0.085-0.076,0.141-0.181,0.158-0.294c0.667-4.624,3.516-7.98,6.774-7.98
		c2.995,0,5.821,3.141,6.721,7.468c0.021,0.105,0.077,0.201,0.159,0.271c0.086,0.075,2.099,1.855-0.027,4.331
		c-0.059,0.068-0.097,0.151-0.111,0.239c-0.727,4.485-3.562,7.74-6.741,7.74c-1.546,0-2.99-0.742-4.157-2.014
		c-0.018-0.022-0.037-0.041-0.058-0.06c-1.206-1.343-2.107-3.26-2.497-5.524C16.068,18.709,16.017,18.614,15.94,18.542z"/>
</g>
</svg>
