<?xml version="1.0" encoding="utf-8"?>
<!-- Generator: Adobe Illustrator 16.0.0, SVG Export Plug-In . SVG Version: 6.00 Build 0)  -->
<!DOCTYPE svg PUBLIC "-//W3C//DTD SVG 1.1//EN" "http://www.w3.org/Graphics/SVG/1.1/DTD/svg11.dtd">
<svg version="1.1" id="Layer_1" xmlns="http://www.w3.org/2000/svg" xmlns:xlink="http://www.w3.org/1999/xlink" x="0px" y="0px"
	 width="48px" height="48px" viewBox="0 0 48 48" enable-background="new 0 0 48 48" xml:space="preserve">
<g>
	<path fill="#414042" d="M28.711,40.921H2.053l0-4.332c0.177-5.682,13.684-6.939,13.82-6.951c0.162-0.015,0.305-0.111,0.378-0.256
		c0.501-0.989,0.829-2.258,0.996-3.751c1.168,1.001,2.538,1.574,3.994,1.574c1.738,0,3.349-0.802,4.638-2.178
		c0.171,1.818,0.518,3.294,1.057,4.355c0.073,0.145,0.217,0.24,0.378,0.255c0.022,0.002,2.339,0.211,5.052,0.855
		c0.035,0.009,0.072,0.013,0.107,0.013c0.213,0,0.405-0.146,0.457-0.361c0.06-0.253-0.097-0.506-0.349-0.565
		c-2.27-0.539-4.222-0.777-4.917-0.851c-0.506-1.122-0.824-2.766-0.929-4.772c0.907-1.319,1.578-2.974,1.9-4.861
		c2.184-2.647,0.462-4.756-0.035-5.271c-0.988-4.527-4.066-7.797-7.359-7.797c-3.57,0-6.675,3.493-7.427,8.329
		c-0.309,0.321-1.061,1.223-1.077,2.418c-0.013,0.885,0.372,1.721,1.144,2.489c0.408,2.225,1.305,4.121,2.505,5.506
		c-0.108,1.582-0.401,2.944-0.863,3.958c-2.036,0.212-14.219,1.737-14.409,7.847v4.816c0,0.26,0.21,0.47,0.47,0.47h27.128
		c0.26,0,0.47-0.21,0.47-0.47S28.971,40.921,28.711,40.921z M14.637,18.689c-0.646-0.607-0.969-1.245-0.963-1.895
		c0.011-1.056,0.884-1.855,0.893-1.863c0.082-0.073,0.136-0.174,0.152-0.283c0.642-4.451,3.383-7.681,6.521-7.681
		c2.884,0,5.604,3.023,6.468,7.189c0.021,0.102,0.076,0.193,0.154,0.261c0.083,0.072,2.021,1.785-0.026,4.169
		c-0.057,0.065-0.093,0.145-0.106,0.23c-0.699,4.316-3.427,7.449-6.489,7.449c-1.489,0-2.879-0.716-4.003-1.941
		c-0.015-0.019-0.032-0.034-0.049-0.051c-1.163-1.292-2.033-3.139-2.409-5.321C14.76,18.851,14.711,18.759,14.637,18.689z"/>
	<path fill="#414042" d="M46.636,32.013c-0.013-0.025-0.019-0.052-0.035-0.075c-0.012-0.016-0.028-0.024-0.042-0.038
		c-0.188-0.208-0.455-0.345-0.759-0.345H32.691c-0.191,0-0.36,0.066-0.514,0.157c-0.055,0.022-0.104,0.056-0.147,0.099
		c-0.223,0.189-0.371,0.462-0.371,0.776v8.353c0,0.57,0.463,1.033,1.032,1.033H45.8c0.57,0,1.033-0.463,1.033-1.033v-8.353
		C46.833,32.369,46.75,32.179,46.636,32.013z M32.598,32.897l4.713,3.46l-4.713,4.007V32.897z M40.279,35.986
		c-1.034,0.668-1.879,0.008-1.934-0.034l-4.711-3.458h11.41L40.279,35.986z M38.111,36.912c0.312,0.165,0.729,0.306,1.216,0.306
		c0.395,0,0.831-0.102,1.28-0.345l4.666,4.159H33.265L38.111,36.912z M41.406,36.326l4.487-3.289v7.288L41.406,36.326z"/>
</g>
</svg>
