<?xml version="1.0" encoding="utf-8"?>
<!-- Generator: Adobe Illustrator 16.0.0, SVG Export Plug-In . SVG Version: 6.00 Build 0)  -->
<!DOCTYPE svg PUBLIC "-//W3C//DTD SVG 1.1//EN" "http://www.w3.org/Graphics/SVG/1.1/DTD/svg11.dtd">
<svg version="1.1" id="Layer_1" xmlns="http://www.w3.org/2000/svg" xmlns:xlink="http://www.w3.org/1999/xlink" x="0px" y="0px"
	 width="48px" height="48px" viewBox="0 0 48 48" enable-background="new 0 0 48 48" xml:space="preserve">
<g>
	<path fill="#414042" d="M34.488,40.296H1.746v-4.38c0.179-5.742,13.83-7.014,13.968-7.025c0.163-0.015,0.308-0.112,0.382-0.259
		c0.507-1.001,0.838-2.282,1.006-3.792c1.181,1.011,2.565,1.591,4.037,1.591c1.757,0,3.384-0.811,4.688-2.201
		c0.173,1.838,0.524,3.329,1.068,4.402c0.074,0.146,0.219,0.243,0.382,0.258c0.041,0.004,4.096,0.373,7.821,1.64
		c0.052,0.018,0.102,0.025,0.153,0.025c0.197,0,0.382-0.124,0.45-0.321c0.084-0.249-0.049-0.519-0.298-0.603
		c-3.317-1.129-6.785-1.556-7.772-1.66c-0.512-1.135-0.833-2.796-0.939-4.824c0.917-1.333,1.595-3.006,1.921-4.913
		c2.207-2.675,0.467-4.806-0.036-5.326c-0.999-4.576-4.109-7.882-7.438-7.882c-3.607,0-6.746,3.531-7.507,8.418
		c-0.312,0.325-1.072,1.237-1.088,2.446c-0.013,0.894,0.376,1.739,1.156,2.514c0.413,2.249,1.32,4.166,2.533,5.566
		c-0.109,1.599-0.405,2.975-0.872,4c-2.057,0.214-14.372,1.756-14.564,7.931v4.869c0,0.263,0.212,0.475,0.475,0.475h33.217
		c0.263,0,0.475-0.212,0.475-0.475S34.751,40.296,34.488,40.296z M14.466,17.824c-0.652-0.613-0.979-1.257-0.973-1.914
		c0.011-1.068,0.894-1.876,0.902-1.885c0.083-0.074,0.137-0.176,0.153-0.286c0.648-4.499,3.42-7.764,6.59-7.764
		c2.915,0,5.664,3.057,6.538,7.267c0.021,0.101,0.075,0.194,0.153,0.263c0.21,0.183,1.994,1.863-0.024,4.213
		c-0.058,0.066-0.095,0.147-0.108,0.233c-0.706,4.363-3.464,7.53-6.559,7.53c-1.504,0-2.909-0.723-4.045-1.961
		c-0.016-0.021-0.034-0.037-0.053-0.055c-1.175-1.307-2.052-3.172-2.433-5.377C14.591,17.988,14.541,17.895,14.466,17.824z"/>
	<path fill="#414042" d="M47.13,34.631l-0.03-0.191c-0.024-0.156-0.049-0.313-0.086-0.467c-0.215-0.856-0.648-1.549-1.288-2.055
		c-0.421-0.336-0.883-0.547-1.374-0.627c-0.404-0.064-0.823-0.072-1.244-0.027c-0.442,0.049-0.853,0.182-1.219,0.394
		c-0.361,0.21-0.655,0.482-0.889,0.73c-0.325-0.349-0.637-0.597-0.974-0.777c-0.375-0.201-0.8-0.322-1.269-0.359
		c-0.393-0.029-0.745-0.017-1.077,0.034c-0.586,0.093-1.12,0.357-1.586,0.785c-0.626,0.572-1.024,1.337-1.186,2.271l-0.039,0.252
		c-0.003,0.021-0.019,0.137-0.019,0.158v0.775c0,0.039,0.008,0.084,0.02,0.126c0.047,0.444,0.162,0.894,0.347,1.37
		c0,0.001,0,0.002,0,0.003c0.001,0.002,0.002,0.004,0.003,0.006c0.001,0.004,0.002,0.007,0.003,0.011
		c0.001,0.001,0.002,0.002,0.002,0.004c0.174,0.487,0.438,0.894,0.444,0.903l0.109,0.176c0.072,0.116,0.144,0.232,0.219,0.346
		c0.553,0.813,1.244,1.582,2.177,2.422c0.719,0.649,1.536,1.295,2.506,1.979c0.101,0.068,0.209,0.102,0.318,0.102
		c0.112,0,0.226-0.035,0.329-0.106c0.61-0.434,1.15-0.841,1.649-1.247c0.873-0.711,1.589-1.389,2.188-2.071
		c0.481-0.551,0.865-1.078,1.172-1.613c0.032-0.054,0.305-0.531,0.431-0.873l0.001-0.001c0.001-0.002,0.001-0.004,0.002-0.006
		s0.002-0.005,0.003-0.007c0-0.001,0-0.002,0-0.003c0.158-0.402,0.264-0.774,0.32-1.137l0.035-0.224
		c0.004-0.023,0.019-0.134,0.019-0.158v-0.775C47.148,34.706,47.144,34.675,47.13,34.631z M44.452,38.921
		c-0.563,0.643-1.242,1.284-2.074,1.962c-0.423,0.344-0.876,0.689-1.378,1.05c-0.836-0.6-1.554-1.172-2.19-1.745
		c-0.874-0.787-1.517-1.502-2.024-2.249c-0.069-0.101-0.132-0.206-0.195-0.31l-0.122-0.195c-0.002-0.003-0.222-0.338-0.353-0.719
		c-0.001-0.004-0.004-0.006-0.005-0.009c-0.002-0.003-0.001-0.006-0.002-0.009c-0.163-0.419-0.26-0.807-0.303-1.222
		c-0.001-0.005-0.003-0.011-0.005-0.018l-0.004-0.638c0-0.001,0.014-0.095,0.014-0.096l0.034-0.22
		c0.126-0.734,0.418-1.301,0.892-1.734c0.331-0.305,0.689-0.483,1.092-0.547c0.258-0.04,0.54-0.049,0.858-0.025
		c0.337,0.026,0.627,0.107,0.891,0.249c0.253,0.136,0.493,0.332,0.756,0.617l0.311,0.35c0.091,0.103,0.22,0.161,0.356,0.161
		c0.001,0,0.001,0,0.001,0c0.136,0,0.265-0.058,0.356-0.16l0.205-0.235c0.215-0.24,0.477-0.512,0.802-0.701
		c0.255-0.147,0.532-0.236,0.848-0.271c0.333-0.037,0.67-0.03,0.989,0.021c0.331,0.054,0.637,0.195,0.934,0.433
		c0.479,0.38,0.793,0.884,0.957,1.54c0.03,0.125,0.05,0.254,0.069,0.383l0.034,0.21c0,0.004,0.002,0.01,0.003,0.017l-0.007,0.73
		l-0.034,0.215c-0.048,0.302-0.136,0.614-0.271,0.956c-0.001,0.002,0,0.004-0.001,0.006c-0.001,0.003-0.004,0.005-0.005,0.008
		c-0.081,0.224-0.29,0.605-0.365,0.735C45.239,37.942,44.892,38.42,44.452,38.921z"/>
</g>
</svg>
