<?xml version="1.0" encoding="utf-8"?>
<!-- Generator: Adobe Illustrator 16.0.0, SVG Export Plug-In . SVG Version: 6.00 Build 0)  -->
<!DOCTYPE svg PUBLIC "-//W3C//DTD SVG 1.1//EN" "http://www.w3.org/Graphics/SVG/1.1/DTD/svg11.dtd">
<svg version="1.1" id="Layer_1" xmlns="http://www.w3.org/2000/svg" xmlns:xlink="http://www.w3.org/1999/xlink" x="0px" y="0px"
	 width="48px" height="48px" viewBox="0 0 48 48" enable-background="new 0 0 48 48" xml:space="preserve">
<g>
	<path fill="#414042" d="M40.353,33.853c-1.509,0-2.736,1.228-2.736,2.735s1.228,2.734,2.736,2.734c1.507,0,2.733-1.227,2.733-2.734
		S41.859,33.853,40.353,33.853z M40.353,38.373c-0.985,0-1.786-0.801-1.786-1.785c0-0.985,0.801-1.786,1.786-1.786
		c0.982,0,1.784,0.801,1.784,1.786C42.137,37.572,41.335,38.373,40.353,38.373z"/>
	<path fill="#414042" d="M46.58,37.793l-1.323-0.764c0-0.204-0.004-0.377-0.008-0.553c-0.001-0.113-0.003-0.229-0.005-0.354
		l1.336-0.771c0.379-0.224,0.509-0.717,0.289-1.098l-1.231-2.133c-0.215-0.373-0.738-0.508-1.101-0.295l-1.323,0.765
		c-0.109-0.063-0.205-0.12-0.298-0.176c-0.157-0.092-0.307-0.181-0.493-0.285v-1.519c0-0.443-0.362-0.806-0.806-0.806h-2.461
		c-0.446,0-0.808,0.362-0.808,0.806v1.423c-0.298,0.213-0.603,0.419-0.806,0.554l-1.3-0.75c-0.37-0.217-0.89-0.077-1.102,0.293
		l-1.233,2.134c-0.221,0.384-0.088,0.877,0.299,1.102l1.233,0.699c-0.001,0.381,0,0.772,0.001,1.024l-1.234,0.711
		c-0.382,0.223-0.514,0.716-0.293,1.099l1.234,2.14c0.212,0.364,0.718,0.506,1.098,0.291l1.305-0.754
		c0.296,0.189,0.602,0.361,0.81,0.475v1.491c0,0.444,0.361,0.806,0.805,0.806h2.464c0.443,0,0.806-0.361,0.806-0.806v-1.486
		c0.194-0.105,0.479-0.27,0.81-0.487l1.3,0.751c0.37,0.213,0.883,0.076,1.099-0.296l1.234-2.133
		C47.097,38.505,46.963,38.012,46.58,37.793z M44.893,40.426l-1.432-0.827c-0.158-0.092-0.357-0.083-0.508,0.021
		c-0.659,0.46-1.192,0.716-1.198,0.718c-0.164,0.079-0.271,0.246-0.271,0.429v1.633h-2.176v-1.633c0-0.178-0.099-0.34-0.257-0.422
		c-0.007-0.003-0.674-0.347-1.185-0.696c-0.15-0.121-0.363-0.141-0.535-0.041l-1.427,0.846l-1.097-1.902l1.346-0.775
		c0.147-0.085,0.239-0.243,0.237-0.414c0,0-0.005-0.87,0-1.566c0.002-0.172-0.091-0.331-0.24-0.417l-1.347-0.765l1.086-1.881
		l1.432,0.825c0.153,0.09,0.346,0.085,0.493-0.013c0,0,0.706-0.454,1.291-0.889c0.12-0.089,0.192-0.23,0.192-0.381v-1.52h2.176
		v1.654c0,0.173,0.094,0.333,0.245,0.416c0.304,0.165,0.501,0.283,0.713,0.407c0.158,0.094,0.324,0.191,0.569,0.33
		c0.144,0.071,0.312,0.065,0.45-0.014l1.426-0.846l1.098,1.901l-1.444,0.833c-0.146,0.084-0.237,0.241-0.237,0.41
		c0,0.251,0.004,0.45,0.008,0.646c0.004,0.24,0.008,0.475,0.004,0.797c0,0.033,0.004,0.071,0.01,0.104
		c0.028,0.134,0.11,0.25,0.229,0.318l1.436,0.829L44.893,40.426z"/>
	<path fill="#414042" d="M31.658,39.904H1.912v-4.377c0.178-5.74,13.824-7.011,13.962-7.022c0.163-0.015,0.308-0.112,0.382-0.259
		c0.507-1.001,0.837-2.282,1.005-3.791c1.18,1.011,2.563,1.59,4.035,1.59c1.756,0,3.383-0.811,4.687-2.2
		c0.172,1.838,0.522,3.328,1.066,4.4c0.074,0.146,0.219,0.244,0.382,0.259c0.046,0.004,4.627,0.421,8.529,1.894
		c0.056,0.021,0.112,0.03,0.167,0.03c0.193,0,0.373-0.116,0.444-0.307c0.094-0.245-0.031-0.519-0.276-0.611
		c-3.52-1.329-7.447-1.813-8.51-1.925c-0.512-1.134-0.832-2.795-0.938-4.822c0.916-1.333,1.594-3.004,1.92-4.91
		c2.205-2.674,0.467-4.805-0.036-5.325c-0.997-4.574-4.107-7.877-7.435-7.877c-3.606,0-6.743,3.529-7.503,8.415
		c-0.313,0.324-1.072,1.235-1.088,2.443c-0.012,0.894,0.376,1.739,1.156,2.514c0.412,2.248,1.319,4.164,2.531,5.563
		c-0.109,1.598-0.405,2.974-0.872,3.999C13.462,27.8,1.155,29.341,0.963,35.513v4.866c0,0.262,0.212,0.475,0.474,0.475h30.221
		c0.262,0,0.474-0.213,0.474-0.475C32.132,40.116,31.92,39.904,31.658,39.904z M14.625,17.443c-0.652-0.613-0.979-1.257-0.972-1.914
		c0.011-1.067,0.893-1.875,0.902-1.883c0.083-0.074,0.137-0.176,0.153-0.286c0.648-4.497,3.418-7.76,6.587-7.76
		c2.914,0,5.663,3.054,6.535,7.263c0.021,0.101,0.076,0.194,0.153,0.262c0.211,0.184,1.993,1.863-0.023,4.213
		c-0.059,0.066-0.096,0.147-0.108,0.233c-0.707,4.361-3.464,7.525-6.557,7.525c-1.504,0-2.909-0.723-4.044-1.961
		c-0.015-0.019-0.032-0.035-0.049-0.051c-1.175-1.306-2.054-3.172-2.434-5.377C14.751,17.606,14.701,17.513,14.625,17.443z"/>
</g>
</svg>
