<?xml version="1.0" encoding="utf-8"?>
<!-- Generator: Adobe Illustrator 16.0.0, SVG Export Plug-In . SVG Version: 6.00 Build 0)  -->
<!DOCTYPE svg PUBLIC "-//W3C//DTD SVG 1.1//EN" "http://www.w3.org/Graphics/SVG/1.1/DTD/svg11.dtd">
<svg version="1.1" id="Layer_1" xmlns="http://www.w3.org/2000/svg" xmlns:xlink="http://www.w3.org/1999/xlink" x="0px" y="0px"
	 width="48px" height="48px" viewBox="0 0 48 48" enable-background="new 0 0 48 48" xml:space="preserve">
<g>
	<path fill="#414042" d="M27.546,29.281c-0.506-1.123-0.822-2.768-0.928-4.773c0.908-1.321,1.579-2.979,1.903-4.868
		c2.187-2.653,0.467-4.769-0.035-5.29c-0.99-4.539-4.078-7.818-7.381-7.818c-3.58,0-6.695,3.502-7.452,8.351
		c-0.312,0.324-1.064,1.229-1.081,2.429c-0.012,0.888,0.374,1.728,1.147,2.498c0.41,2.228,1.309,4.128,2.511,5.516
		c-0.108,1.578-0.401,2.939-0.861,3.956c-2.058,0.215-14.251,1.746-14.442,7.87v4.827c0,0.265,0.214,0.479,0.48,0.479h40.1
		c0.265,0,0.479-0.214,0.479-0.479v-4.842C41.795,31.026,29.603,29.496,27.546,29.281z M14.493,19.223
		c-0.645-0.606-0.969-1.243-0.962-1.892c0.011-1.055,0.883-1.854,0.892-1.862c0.083-0.075,0.139-0.178,0.154-0.289
		c0.644-4.456,3.389-7.69,6.527-7.69c2.887,0,5.608,3.027,6.472,7.198c0.021,0.103,0.076,0.197,0.156,0.266
		c0.084,0.072,2.019,1.783-0.026,4.165c-0.058,0.067-0.095,0.149-0.109,0.236c-0.701,4.32-3.432,7.456-6.493,7.456
		c-1.489,0-2.88-0.715-4.004-1.94c-0.016-0.02-0.034-0.037-0.052-0.054c-1.165-1.294-2.034-3.142-2.411-5.326
		C14.62,19.388,14.569,19.294,14.493,19.223z M41.027,41.498H1.886v-4.332c0.178-5.687,13.705-6.944,13.841-6.956
		c0.166-0.015,0.312-0.113,0.386-0.262c0.5-0.992,0.828-2.258,0.996-3.747c1.169,0.998,2.539,1.569,3.996,1.569
		c1.737,0,3.348-0.8,4.639-2.172c0.171,1.815,0.52,3.289,1.058,4.351c0.075,0.147,0.221,0.246,0.386,0.261
		c0.137,0.012,13.663,1.27,13.84,6.941V41.498z"/>
	<path fill="#414042" d="M34.682,24.943c-0.418-0.946-0.678-2.323-0.766-4c0.777-1.138,1.34-2.543,1.614-4.106
		c0.813-0.869,1.187-1.771,1.106-2.681c-0.098-1.13-0.878-1.911-1.217-2.2c-0.843-3.786-3.406-6.414-6.277-6.414
		c-0.887,0-1.746,0.238-2.556,0.709c-0.229,0.133-0.306,0.427-0.172,0.656c0.133,0.229,0.428,0.304,0.656,0.173
		c0.659-0.385,1.356-0.58,2.071-0.58c2.454,0,4.665,2.393,5.376,5.82c0.023,0.117,0.093,0.222,0.188,0.292
		c0.01,0.006,0.895,0.659,0.976,1.635c0.054,0.654-0.263,1.337-0.943,2.028c-0.068,0.07-0.114,0.162-0.13,0.259
		c-0.385,2.365-1.518,4.415-3.031,5.482c-0.217,0.153-0.268,0.452-0.115,0.668c0.093,0.132,0.242,0.203,0.392,0.203
		c0.095,0,0.193-0.029,0.276-0.088c0.322-0.228,0.622-0.5,0.908-0.792c0.15,1.498,0.447,2.715,0.898,3.601
		c0.075,0.147,0.22,0.246,0.385,0.261c3.223,0.283,11.614,1.888,11.737,5.844v3.641h-1.623c-0.265,0-0.479,0.214-0.479,0.479
		c0,0.266,0.214,0.48,0.479,0.48h2.102c0.265,0,0.48-0.215,0.48-0.48V31.7C46.855,26.475,36.558,25.143,34.682,24.943z"/>
</g>
</svg>
