<?xml version="1.0" encoding="utf-8"?>
<!-- Generator: Adobe Illustrator 16.0.0, SVG Export Plug-In . SVG Version: 6.00 Build 0)  -->
<!DOCTYPE svg PUBLIC "-//W3C//DTD SVG 1.1//EN" "http://www.w3.org/Graphics/SVG/1.1/DTD/svg11.dtd">
<svg version="1.1" id="Layer_1" xmlns="http://www.w3.org/2000/svg" xmlns:xlink="http://www.w3.org/1999/xlink" x="0px" y="0px"
	 width="48px" height="48px" viewBox="0 0 48 48" enable-background="new 0 0 48 48" xml:space="preserve">
<g>
	<path fill="#414042" d="M44.352,3.448h-20.84c-1.031,0-1.869,0.729-1.869,1.626V5.99c0,0.27,0.218,0.488,0.487,0.488
		c0.27,0,0.488-0.218,0.488-0.488V5.074c0-0.353,0.41-0.651,0.894-0.651h20.84c0.485,0,0.895,0.298,0.895,0.651v9.397
		c0,0.354-0.409,0.651-0.895,0.651h-3.367c-0.136,0-0.267,0.057-0.359,0.157l-4.689,5.094l0.661-4.981
		c0.019-0.139-0.024-0.28-0.117-0.386c-0.092-0.105-0.226-0.166-0.366-0.166h-4.216c-0.271,0-0.488,0.218-0.488,0.488
		s0.218,0.488,0.488,0.488h3.659l-0.791,5.958c-0.028,0.211,0.084,0.416,0.276,0.506c0.066,0.031,0.137,0.046,0.207,0.046
		c0.134,0,0.264-0.055,0.359-0.157l5.591-6.072h3.152c1.031,0,1.87-0.729,1.87-1.627V5.074C46.222,4.178,45.383,3.448,44.352,3.448z
		"/>
	<path fill="#414042" d="M29.104,31.005c-0.521-1.159-0.847-2.853-0.956-4.918c0.936-1.359,1.627-3.066,1.96-5.011
		c2.251-2.729,0.477-4.905-0.037-5.437c-1.019-4.669-4.193-8.042-7.591-8.042c-3.681,0-6.884,3.602-7.662,8.589
		c-0.319,0.332-1.093,1.262-1.11,2.495c-0.013,0.913,0.384,1.776,1.18,2.568c0.421,2.293,1.346,4.249,2.583,5.677
		c-0.112,1.628-0.414,3.032-0.889,4.078c-2.106,0.219-14.662,1.792-14.858,8.092v4.967c0,0.27,0.218,0.488,0.488,0.488h41.262
		c0.27,0,0.488-0.219,0.488-0.488v-4.981C43.766,32.796,31.211,31.224,29.104,31.005z M15.674,20.653
		c-0.665-0.625-0.998-1.282-0.992-1.951c0.012-1.088,0.911-1.912,0.919-1.919c0.085-0.076,0.141-0.181,0.157-0.294
		c0.663-4.587,3.489-7.917,6.721-7.917c2.973,0,5.775,3.117,6.666,7.411c0.022,0.105,0.079,0.201,0.159,0.271
		c0.086,0.074,2.082,1.838-0.026,4.293c-0.06,0.068-0.097,0.151-0.111,0.239c-0.72,4.45-3.532,7.679-6.688,7.679
		c-1.533,0-2.966-0.736-4.124-1.998c-0.017-0.022-0.036-0.04-0.056-0.059c-1.197-1.333-2.092-3.235-2.479-5.482
		C15.803,20.821,15.751,20.726,15.674,20.653z M42.986,43.576H2.699v-4.464c0.183-5.856,14.106-7.151,14.247-7.163
		c0.167-0.015,0.316-0.115,0.392-0.266c0.516-1.021,0.854-2.327,1.026-3.864c1.204,1.03,2.615,1.62,4.115,1.62
		c1.791,0,3.45-0.825,4.78-2.241c0.175,1.87,0.532,3.39,1.087,4.485c0.076,0.15,0.225,0.251,0.393,0.266
		c0.141,0.012,14.064,1.307,14.247,7.147V43.576z"/>
</g>
</svg>
