<?xml version="1.0" encoding="utf-8"?>
<!-- Generator: Adobe Illustrator 16.0.0, SVG Export Plug-In . SVG Version: 6.00 Build 0)  -->
<!DOCTYPE svg PUBLIC "-//W3C//DTD SVG 1.1//EN" "http://www.w3.org/Graphics/SVG/1.1/DTD/svg11.dtd">
<svg version="1.1" id="Layer_1" xmlns="http://www.w3.org/2000/svg" xmlns:xlink="http://www.w3.org/1999/xlink" x="0px" y="0px"
	 width="48px" height="48px" viewBox="0 0 48 48" enable-background="new 0 0 48 48" xml:space="preserve">
<g>
	<path fill="#414042" d="M36.054,6.963h-0.79c-0.27,0-0.488,0.218-0.488,0.488s0.219,0.488,0.488,0.488h0.79
		c0.27,0,0.488-0.218,0.488-0.488S36.323,6.963,36.054,6.963z"/>
	<path fill="#414042" d="M41.765,6.963h-0.79c-0.27,0-0.488,0.218-0.488,0.488s0.219,0.488,0.488,0.488h0.79
		c0.27,0,0.488-0.218,0.488-0.488S42.034,6.963,41.765,6.963z"/>
	<path fill="#414042" d="M41.918,1.658h-7.354c-2.918,0-4.956,1.808-4.956,4.397l0.002,2.832c0.325,3.907,2.983,4.358,4.954,4.358
		h0.809l-1.361,4.001c-0.006,0.015-0.011,0.031-0.015,0.047c-0.009,0.04-0.014,0.079-0.014,0.119c0,0.027,0.002,0.055,0.007,0.082
		c0.011,0.067,0.037,0.132,0.077,0.191c0.031,0.047,0.071,0.089,0.118,0.123h0.001v0c0.05,0.037,0.107,0.063,0.166,0.077
		c0.039,0.009,0.079,0.014,0.118,0.014c0.028,0,0.057-0.002,0.084-0.007c0.065-0.012,0.13-0.037,0.188-0.076
		c0.013-0.008,0.025-0.018,0.037-0.027l5.727-4.543h1.412c2.871,0,4.956-1.931,4.956-4.592V5.86
		C46.874,3.308,44.929,1.658,41.918,1.658z M45.898,8.653c0,2.096-1.674,3.617-3.98,3.617h-1.582c-0.11,0-0.217,0.037-0.303,0.105
		l-4.568,3.623l1.051-3.084c0,0,0-0.001,0-0.001c0-0.001,0-0.001,0-0.001v0c0.039-0.114,0.032-0.233-0.011-0.337v-0.001
		c-0.008-0.019-0.018-0.038-0.028-0.056c0,0,0-0.001,0-0.001s0,0,0,0c-0.054-0.094-0.14-0.171-0.248-0.212c0,0,0,0,0,0h-0.001
		c-0.013-0.005-0.024-0.009-0.038-0.013c-0.05-0.015-0.1-0.019-0.147-0.02h-1.479c-2.624,0-3.777-1.004-3.98-3.424V6.055
		c0-2.364,1.999-3.421,3.98-3.421h7.354c1.925,0,3.98,0.848,3.98,3.226V8.653z"/>
	<path fill="#414042" d="M28.839,32.61c-0.53-1.176-0.862-2.897-0.972-4.999c0.948-1.38,1.649-3.11,1.987-5.084
		c2.284-2.77,0.482-4.974-0.037-5.51c-1.032-4.736-4.25-8.157-7.694-8.157c-3.733,0-6.979,3.654-7.767,8.712
		c-0.322,0.335-1.11,1.279-1.127,2.529c-0.012,0.925,0.39,1.799,1.197,2.601c0.427,2.328,1.366,4.313,2.622,5.762
		c-0.114,1.656-0.421,3.084-0.904,4.146c-2.125,0.221-14.874,1.813-15.072,8.204v5.04c0,0.27,0.218,0.487,0.488,0.487h41.864
		c0.27,0,0.487-0.218,0.487-0.487v-5.056C43.713,34.424,30.965,32.831,28.839,32.61z M15.213,22.107
		c-0.676-0.635-1.016-1.303-1.008-1.984c0.012-1.107,0.926-1.945,0.935-1.954c0.084-0.076,0.141-0.181,0.158-0.294
		c0.671-4.658,3.542-8.04,6.826-8.04c3.019,0,5.866,3.165,6.77,7.525c0.021,0.105,0.078,0.201,0.159,0.271
		c0.088,0.075,2.115,1.869-0.027,4.366c-0.059,0.068-0.097,0.151-0.111,0.239c-0.731,4.518-3.587,7.796-6.791,7.796
		c-1.558,0-3.013-0.748-4.189-2.03c-0.017-0.021-0.036-0.039-0.056-0.058c-1.216-1.353-2.125-3.284-2.518-5.566
		C15.342,22.275,15.291,22.179,15.213,22.107z M42.936,45.366H2.047V40.83c0.185-5.948,14.317-7.263,14.46-7.275
		c0.168-0.015,0.316-0.115,0.393-0.265c0.524-1.037,0.867-2.366,1.042-3.933c1.222,1.05,2.657,1.651,4.182,1.651
		c1.82,0,3.506-0.841,4.855-2.283c0.178,1.905,0.54,3.451,1.104,4.564c0.076,0.149,0.225,0.25,0.393,0.265
		c0.143,0.013,14.276,1.327,14.46,7.26V45.366z"/>
</g>
</svg>
