<?xml version="1.0" encoding="utf-8"?>
<!-- Generator: Adobe Illustrator 16.0.0, SVG Export Plug-In . SVG Version: 6.00 Build 0)  -->
<!DOCTYPE svg PUBLIC "-//W3C//DTD SVG 1.1//EN" "http://www.w3.org/Graphics/SVG/1.1/DTD/svg11.dtd">
<svg version="1.1" id="Layer_1" xmlns="http://www.w3.org/2000/svg" xmlns:xlink="http://www.w3.org/1999/xlink" x="0px" y="0px"
	 width="48px" height="48px" viewBox="0 0 48 48" enable-background="new 0 0 48 48" xml:space="preserve">
<path fill="#414042" d="M30.346,29.418c-0.533-1.182-0.867-2.912-0.977-5.021c0.952-1.385,1.657-3.123,1.996-5.104
	c0.858-1.038,1.207-2.047,1.038-3.002c-0.066-0.375-0.21-0.694-0.379-0.968h4.996c0.271,0,0.488-0.218,0.488-0.488
	s-0.218-0.488-0.488-0.488h-5.898l-0.901-7.196C30.103,5.701,29.282,4.8,28.079,4.8h-8.471c-1.342,0-2.366,1.006-2.484,2.418
	l-0.991,6.965c-0.008,0.056-0.001,0.11,0.01,0.163h-5.061c-0.27,0-0.488,0.218-0.488,0.488s0.218,0.488,0.488,0.488h4.235
	c-0.288,0.409-0.551,0.937-0.591,1.571c-0.056,0.895,0.332,1.76,1.153,2.575c0.429,2.338,1.372,4.33,2.632,5.784
	c-0.114,1.663-0.422,3.097-0.908,4.165c-2.128,0.221-14.932,1.82-15.131,8.235v5.059c0,0.27,0.218,0.487,0.488,0.487h42.027
	c0.27,0,0.488-0.218,0.488-0.487v-5.073C45.274,31.237,32.475,29.64,30.346,29.418z M17.099,14.321l0.995-6.993
	c0.08-0.943,0.675-1.552,1.515-1.552h8.471c0.914,0,1.125,0.911,1.172,1.475l0.889,7.096H17.09
	C17.091,14.338,17.097,14.331,17.099,14.321z M16.666,18.873c-0.678-0.638-1.003-1.281-0.966-1.911
	c0.047-0.804,0.662-1.418,0.914-1.639h14.149c0.259,0.231,0.587,0.615,0.68,1.138c0.122,0.686-0.183,1.46-0.905,2.303
	c-0.06,0.068-0.098,0.151-0.111,0.239c-0.736,4.536-3.604,7.828-6.821,7.828c-1.565,0-3.027-0.752-4.208-2.04
	c-0.016-0.02-0.033-0.036-0.052-0.054c-1.223-1.358-2.136-3.299-2.532-5.592C16.794,19.041,16.743,18.945,16.666,18.873z
	 M44.499,42.224H3.447v-4.555c0.186-5.975,14.376-7.294,14.519-7.307c0.167-0.015,0.316-0.115,0.393-0.266
	c0.527-1.042,0.871-2.378,1.046-3.949c1.228,1.055,2.668,1.659,4.2,1.659c1.827,0,3.521-0.845,4.876-2.295
	c0.178,1.913,0.542,3.466,1.108,4.586c0.076,0.149,0.225,0.25,0.393,0.265c0.144,0.013,14.331,1.329,14.518,7.291V42.224z"/>
</svg>
