<?xml version="1.0" encoding="utf-8"?>
<!-- Generator: Adobe Illustrator 16.0.0, SVG Export Plug-In . SVG Version: 6.00 Build 0)  -->
<!DOCTYPE svg PUBLIC "-//W3C//DTD SVG 1.1//EN" "http://www.w3.org/Graphics/SVG/1.1/DTD/svg11.dtd">
<svg version="1.1" id="Layer_1" xmlns="http://www.w3.org/2000/svg" xmlns:xlink="http://www.w3.org/1999/xlink" x="0px" y="0px"
	 width="48px" height="48px" viewBox="0 0 48 48" enable-background="new 0 0 48 48" xml:space="preserve">
<g>
	<path fill="#414042" d="M29.783,33.209c-0.474-1.063-0.771-2.612-0.87-4.499c0.86-1.256,1.498-2.828,1.807-4.619
		c1.781-2.074,0.761-4.329-0.112-5.34c-0.077-0.367-0.135-0.617-0.243-0.957c0.847-0.392,1.786-1.041,2.268-2.098
		c0.028-0.063,0.043-0.132,0.043-0.202v-3.037c0-0.27-0.218-0.488-0.487-0.488S31.7,12.188,31.7,12.458v2.926
		c-0.806,1.59-3.166,1.984-3.14,1.986l-8.391,0.002c-3.093-0.272-3.919-1.627-4.067-1.931v-2.982c0-0.27-0.218-0.488-0.488-0.488
		c-0.27,0-0.488,0.218-0.488,0.488v3.081c0,0.053,0.009,0.107,0.026,0.157c0.021,0.063,0.388,1.061,1.863,1.826
		c-0.012,0.023-0.029,0.042-0.038,0.068c-0.201,0.633-0.354,1.287-0.457,1.945c-0.291,0.307-0.949,1.122-0.986,2.225
		c-0.029,0.867,0.324,1.699,1.049,2.478c0.389,2.12,1.243,3.927,2.385,5.25c-0.103,1.484-0.377,2.765-0.808,3.722
		C16.15,33.421,4.602,34.89,4.42,40.722v4.59c0,0.27,0.218,0.487,0.488,0.487h38.129c0.27,0,0.488-0.218,0.488-0.487v-4.604
		C43.344,34.889,31.796,33.421,29.783,33.209z M17.388,23.665c-0.6-0.61-0.895-1.236-0.877-1.864
		c0.028-0.966,0.788-1.665,0.794-1.67c0.086-0.077,0.143-0.182,0.159-0.296c0.093-0.656,0.242-1.309,0.442-1.938
		c0.606,0.207,1.333,0.371,2.221,0.449l8.51-0.005c0.039-0.006,0.362-0.059,0.814-0.197c0.096,0.307,0.146,0.538,0.229,0.936
		c0.018,0.087,0.06,0.168,0.12,0.233c0.081,0.088,1.97,2.182,0.101,4.234c-0.063,0.07-0.105,0.157-0.12,0.25
		c-0.664,4.093-3.247,7.064-6.143,7.064c-1.407,0-2.722-0.677-3.785-1.836c-0.014-0.018-0.029-0.031-0.045-0.047
		c-1.104-1.227-1.93-2.979-2.287-5.053C17.504,23.825,17.457,23.735,17.388,23.665z M42.55,44.824H5.396l0-4.087
		c0.167-5.379,13.002-6.572,13.132-6.584c0.168-0.015,0.316-0.115,0.393-0.266c0.471-0.932,0.783-2.118,0.945-3.514
		c1.107,0.929,2.399,1.461,3.773,1.461c1.64,0,3.16-0.745,4.386-2.025c0.165,1.697,0.496,3.077,1.002,4.078
		c0.077,0.15,0.226,0.251,0.393,0.266c0.13,0.012,12.965,1.205,13.132,6.568V44.824z"/>
	<path fill="#414042" d="M11.777,9.138l9.661,3.274c1.047,0.375,1.825,0.535,2.603,0.535c0.652,0,1.317-0.114,2.104-0.364
		l7.17-2.483l3.673,1.072v3.743c-0.168,0.519-1.124,3.494-1.313,4.287c-0.062,0.263,0.101,0.525,0.362,0.587
		c0.037,0.009,0.075,0.013,0.112,0.013c0.221,0,0.421-0.151,0.475-0.375c0.103-0.433,0.465-1.605,0.783-2.616l0.463,1.951
		c0.052,0.224,0.252,0.375,0.474,0.375c0.036,0,0.074-0.004,0.111-0.013c0.264-0.062,0.426-0.324,0.363-0.587l-0.855-3.607v-4.125
		c0-0.217-0.143-0.408-0.352-0.468l-2.705-0.79l2.101-0.728c0.535-0.129,0.909-0.526,0.953-1.011
		c0.041-0.451-0.218-0.869-0.691-1.078l-11.008-4C25.424,2.379,24.585,2.2,23.767,2.2c-1.022,0-1.787,0.273-2.246,0.437
		l-9.776,3.541C10.55,6.584,9.957,7.113,9.98,7.748C10.015,8.681,11.367,9.033,11.777,9.138z M12.068,7.098l9.782-3.543
		c0.423-0.151,1.063-0.379,1.917-0.379c0.688,0,1.399,0.153,2.139,0.464l10.999,3.996c0.027,0.012,0.089,0.043,0.085,0.085
		c-0.005,0.049-0.072,0.117-0.256,0.164l-3.441,1.191l-8.37-2.442c-0.256-0.076-0.53,0.074-0.604,0.332
		c-0.076,0.259,0.072,0.53,0.332,0.605l7.05,2.057l-5.86,2.029c-1.489,0.471-2.352,0.453-4.08-0.167l-9.703-3.287
		c-0.912-0.237-1.085-0.477-1.102-0.477h0C10.982,7.649,11.239,7.38,12.068,7.098z"/>
</g>
</svg>
