<?xml version="1.0" encoding="utf-8"?>
<!-- Generator: Adobe Illustrator 16.0.0, SVG Export Plug-In . SVG Version: 6.00 Build 0)  -->
<!DOCTYPE svg PUBLIC "-//W3C//DTD SVG 1.1//EN" "http://www.w3.org/Graphics/SVG/1.1/DTD/svg11.dtd">
<svg version="1.1" id="Layer_1" xmlns="http://www.w3.org/2000/svg" xmlns:xlink="http://www.w3.org/1999/xlink" x="0px" y="0px"
	 width="48px" height="48px" viewBox="0 0 48 48" enable-background="new 0 0 48 48" xml:space="preserve">
<g>
	<path fill="#414042" d="M23.57,23.626C23.57,23.626,23.57,23.626,23.57,23.626c0.118,0,0.235-0.002,0.283-0.009
		c0,0,0.194,0.022,0.529,0.022c1.574,0,6.855-0.524,8.733-7.267c0.013-0.043,0.019-0.087,0.019-0.131V9.595
		c0-0.041-0.005-0.081-0.016-0.12c-0.014-0.054-1.462-5.434-8.505-5.434c-0.237,0-0.481,0.006-0.652,0.021
		c0,0-0.186-0.021-0.499-0.021c-1.28,0-4.328,0.349-5.814,3.485c-0.207-0.048-0.467-0.09-0.75-0.09c-1.2,0-2.003,0.761-2.208,2.16
		v6.769c0,0.048,0.007,0.096,0.021,0.141C14.733,16.576,16.94,23.626,23.57,23.626z M16.898,8.411c0.443,0,0.834,0.157,0.838,0.159
		c0.121,0.049,0.256,0.048,0.375-0.002c0.119-0.051,0.215-0.147,0.263-0.268c1.184-2.963,3.952-3.283,5.088-3.283
		c0.234,0,0.378,0.014,0.47,0.018c6.512-0.327,8.058,4.056,8.227,4.627v6.513c-1.708,6.021-6.381,6.49-7.776,6.49
		c-0.256,0-0.409-0.015-0.493-0.019c-0.108,0.004-0.213,0.006-0.318,0.006c-0.001,0-0.001,0-0.001,0
		c-5.645,0-7.669-5.646-7.904-6.363l-0.005-6.621C15.83,8.541,16.448,8.411,16.898,8.411z"/>
	<path fill="#414042" d="M45.213,43.224l-3.104-12.026c-0.034-0.132-0.121-0.243-0.24-0.308l-9.687-5.232
		c-0.07-0.039-0.15-0.059-0.231-0.059h-1.246c-0.194,0-0.37,0.115-0.447,0.294l-3.642,8.435l-1.267-2.501l1.512-2.035
		c0.129-0.173,0.129-0.41,0-0.583L25.29,27.1c-0.093-0.123-0.237-0.196-0.392-0.196h-1.852c-0.154,0-0.299,0.073-0.392,0.196
		l-1.571,2.108c-0.128,0.173-0.129,0.41,0,0.583l1.512,2.035l-1.265,2.5l-3.642-8.434c-0.077-0.179-0.253-0.294-0.447-0.294h-1.246
		c-0.081,0-0.161,0.02-0.232,0.059L6.076,30.89c-0.119,0.064-0.206,0.176-0.241,0.308L2.7,43.35
		c-0.038,0.146-0.005,0.302,0.087,0.421c0.092,0.119,0.234,0.188,0.385,0.188h41.601c0.008,0.001,0.015,0.001,0.019,0
		c0.27,0,0.488-0.218,0.488-0.487C45.28,43.381,45.256,43.297,45.213,43.224z M3.802,42.984l2.925-11.338l9.39-5.073h0.802
		l3.927,9.096c0.075,0.174,0.244,0.288,0.433,0.295c0.172-0.013,0.364-0.099,0.45-0.268l1.873-3.698
		c0.083-0.165,0.066-0.362-0.044-0.511L22.083,29.5l1.209-1.621h1.362l1.209,1.621l-1.476,1.987
		c-0.11,0.148-0.126,0.346-0.044,0.511l1.873,3.698c0.086,0.169,0.222,0.257,0.45,0.268c0.188-0.007,0.357-0.121,0.433-0.295
		l3.928-9.096h0.802l9.39,5.073l2.926,11.338H3.802z"/>
</g>
</svg>
