<?xml version="1.0" encoding="utf-8"?>
<!-- Generator: Adobe Illustrator 16.0.0, SVG Export Plug-In . SVG Version: 6.00 Build 0)  -->
<!DOCTYPE svg PUBLIC "-//W3C//DTD SVG 1.1//EN" "http://www.w3.org/Graphics/SVG/1.1/DTD/svg11.dtd">
<svg version="1.1" id="Layer_1" xmlns="http://www.w3.org/2000/svg" xmlns:xlink="http://www.w3.org/1999/xlink" x="0px" y="0px"
	 width="1024px" height="1024px" viewBox="0 0 1024 1024" enable-background="new 0 0 1024 1024" xml:space="preserve">
<g>
	<path fill="#414042" d="M315.063,358.583c8.958,51.833,30.5,96.542,59.708,127.583c4.604,4.75,43.375,43.209,95.709,44.167
		c34.041,0.625,67.625-15.125,99-46.833l0.666-0.792c-0.083,0.083-0.208,0.167-0.333,0.292c0.208-0.209,0.375-0.417,0.583-0.625
		l12.375-15.625c21.542-29.865,37.209-68.198,44.209-111.334c0,0,5.791,1,11.125-11.541c27.583-64.875-7.334-99.5-7.334-99.5
		c-3.208-3.459-6.25-4.406-6.25-4.406c-19.541-94.303-81.041-163.136-153.791-163.136c-77.459,0-142.042,77.958-157.042,181.708
		c0,0-3.208-7.521-11.833,0c0,0-25.75,40.917,5.75,96.875C310.646,360.833,315.063,358.583,315.063,358.583z"/>
	<path fill="#414042" d="M956.063,746.416h-83.583v-83.583c0-21.583-17.5-39.042-39.042-39.042
		c-21.583,0-39.042,17.459-39.042,39.042v83.583h-83.583c-21.583,0-39.083,17.5-39.083,39.042c0,21.583,17.5,39.063,39.083,39.063
		h83.583v83.583c0,21.563,17.459,39.063,39.042,39.063c21.542,0,39.042-17.5,39.042-39.063v-83.583h83.583
		c21.583,0,39.042-17.479,39.042-39.063C995.104,763.916,977.646,746.416,956.063,746.416z"/>
	<path fill="#414042" d="M607.729,785.458c0-56.792,46.25-103.042,103.083-103.042h19.583v-19.583
		c0-18.792,5.417-36.208,14.25-51.396c-71.458-19.209-136.541-24.979-136.541-24.979c-12.292-24.25-18.792-33.208-22.125-64
		c-35.875,36.042-73.792,53.917-113.5,53.917c-0.875,0-1.792,0-2.667-0.042c-46.125-0.917-82-25.417-100.042-40.667
		c-3.375,25.459-9.458,28.792-20.625,50.792c0,0-315.958,27.792-320.25,166.458v108.25h612.542
		C620.854,842.291,607.729,815.5,607.729,785.458z"/>
</g>
</svg>
