<?xml version="1.0" encoding="utf-8"?>
<!-- Generator: Adobe Illustrator 16.0.0, SVG Export Plug-In . SVG Version: 6.00 Build 0)  -->
<!DOCTYPE svg PUBLIC "-//W3C//DTD SVG 1.1//EN" "http://www.w3.org/Graphics/SVG/1.1/DTD/svg11.dtd">
<svg version="1.1" id="Layer_1" xmlns="http://www.w3.org/2000/svg" xmlns:xlink="http://www.w3.org/1999/xlink" x="0px" y="0px"
	 width="1024px" height="1024px" viewBox="0 0 1024 1024" enable-background="new 0 0 1024 1024" xml:space="preserve">
<g>
	<path fill="#414042" d="M318.625,374.302c8.938,51.864,30.5,96.573,59.708,127.614c4.584,4.75,43.375,43.167,95.709,44.125
		c34.041,0.667,67.625-15.083,99-46.791l0.666-0.834c-0.104,0.125-0.208,0.209-0.333,0.292c0.208-0.208,0.375-0.375,0.563-0.583
		l12.396-15.625c21.542-29.917,37.209-68.25,44.209-111.334c0,0,5.771,1.011,11.104-11.583c27.604-64.875-7.333-99.5-7.333-99.5
		c-3.208-3.406-6.229-4.375-6.229-4.375c-19.563-94.292-81.041-163.167-153.791-163.167c-77.479,0-142.063,78-157.042,181.709
		c0,0-3.208-7.542-11.854,0c0,0-25.75,40.958,5.771,96.916C314.208,376.583,318.625,374.302,318.625,374.302z"/>
	<path fill="#414042" d="M982.708,751.916c-0.625-0.833-1.604-1.166-2.271-1.958c-0.375-0.75-0.5-1.542-1-2.208
		c-2.396-3.292-5.688-5.292-9.208-6.75c-14.646-8.563-33.563-8.042-47.896,2.833l-111.625,85.333l-37.25-44.625
		c-15.188-18.208-42.333-20.708-60.625-5.458c-18.25,15.25-20.729,42.375-5.479,60.667l63.666,76.208
		c8.5,10.208,20.729,15.5,33.084,15.5c9.125,0,18.291-2.917,26.104-8.875L974.646,812.25
		C993.521,797.833,997.125,770.833,982.708,751.916z"/>
	<path fill="#414042" d="M820.5,741.125l63.104-48.209c1.333-1.041,2.813-1.75,4.188-2.708c-87.813-71.375-276.125-88-276.125-88
		c-12.292-24.25-18.813-33.208-22.125-64c-35.875,36.042-73.792,53.875-113.5,53.875c-0.896,0-1.792,0-2.688,0
		c-46.104-0.958-82-25.458-100.042-40.667c-3.354,25.459-9.458,28.792-20.604,50.792c0,0-315.958,27.75-320.271,166.417v108.25
		h623.167c-34.459-45.209-27.875-110.084,16.229-146.959c19.209-16,43.563-24.833,68.542-24.833
		C771.188,705.083,800.208,718.166,820.5,741.125z"/>
</g>
</svg>
