<?xml version="1.0" encoding="utf-8"?>
<!-- Generator: Adobe Illustrator 16.0.0, SVG Export Plug-In . SVG Version: 6.00 Build 0)  -->
<!DOCTYPE svg PUBLIC "-//W3C//DTD SVG 1.1//EN" "http://www.w3.org/Graphics/SVG/1.1/DTD/svg11.dtd">
<svg version="1.1" id="Layer_1" xmlns="http://www.w3.org/2000/svg" xmlns:xlink="http://www.w3.org/1999/xlink" x="0px" y="0px"
	 width="1024px" height="1024px" viewBox="0 0 1024 1024" enable-background="new 0 0 1024 1024" xml:space="preserve">
<g>
	<path fill="#414042" d="M979.042,861.188l-59.104-59.104l59.104-59.104c15.271-15.271,15.25-39.979,0-55.208
		c-15.25-15.271-39.959-15.271-55.229,0l-59.083,59.083l-59.104-59.083c-15.271-15.271-40-15.271-55.229,0
		c-15.271,15.229-15.271,39.958,0,55.208l59.104,59.104l-59.104,59.104c-15.25,15.25-15.271,39.979-0.021,55.229
		c15.25,15.271,40,15.271,55.25,0l59.104-59.104l59.083,59.104c15.271,15.271,39.979,15.271,55.25,0
		C994.292,901.166,994.313,876.438,979.042,861.188z"/>
	<path fill="#414042" d="M319.688,377.875c8.938,51.875,30.5,96.583,59.708,127.625c4.584,4.75,43.375,43.166,95.709,44.125
		c34.041,0.666,67.625-15.063,99-46.771l0.666-0.854c-0.104,0.125-0.208,0.208-0.333,0.291c0.208-0.208,0.375-0.375,0.563-0.583
		l12.396-15.625c21.542-29.917,37.209-68.239,44.209-111.333c0,0,5.771,1,11.104-11.584c27.604-64.875-7.333-99.5-7.333-99.5
		c-3.208-3.416-6.229-4.364-6.229-4.364C609.583,165,548.104,96.125,475.354,96.125c-77.479,0-142.063,78-157.042,181.708
		c0,0-3.208-7.542-11.854,0c0,0-25.75,40.958,5.771,96.917C315.271,380.166,319.688,377.875,319.688,377.875z"/>
	<path fill="#414042" d="M728.542,625.458c-62.854-15-115.813-19.667-115.813-19.667c-12.292-24.25-18.813-33.188-22.125-64
		c-35.875,36.063-73.792,53.875-113.5,53.875c-0.896,0-1.792,0-2.688,0c-46.104-0.958-82-25.458-100.042-40.666
		c-3.354,25.458-9.458,28.791-20.604,50.791c0,0-315.958,27.75-320.271,166.417v108.25h642.292
		c1.916-23.521,11.396-46.542,29.354-64.521L719,802.083l-13.833-13.813c-19.479-19.479-30.229-45.354-30.229-72.896
		c0-27.542,10.75-53.438,30.188-72.875C712.104,635.521,720.125,630.104,728.542,625.458z"/>
</g>
</svg>
