<?xml version="1.0" encoding="utf-8"?>
<!-- Generator: Adobe Illustrator 16.0.0, SVG Export Plug-In . SVG Version: 6.00 Build 0)  -->
<!DOCTYPE svg PUBLIC "-//W3C//DTD SVG 1.1//EN" "http://www.w3.org/Graphics/SVG/1.1/DTD/svg11.dtd">
<svg version="1.1" id="Layer_1" xmlns="http://www.w3.org/2000/svg" xmlns:xlink="http://www.w3.org/1999/xlink" x="0px" y="0px"
	 width="1024px" height="1024px" viewBox="0 0 1024 1024" enable-background="new 0 0 1024 1024" xml:space="preserve">
<g>
	<path fill="#414042" d="M308.146,365.072c8.938,51.854,30.521,96.573,59.709,127.615c4.604,4.75,43.396,43.188,95.708,44.146
		c34.063,0.646,67.646-15.083,99.021-46.813l0.667-0.813c-0.125,0.125-0.208,0.188-0.333,0.292c0.208-0.209,0.375-0.396,0.541-0.604
		l12.417-15.625c21.542-29.906,37.208-68.239,44.208-111.344c0,0,5.75,1,11.084-11.563c27.625-64.875-7.334-99.5-7.334-99.5
		c-3.208-3.438-6.208-4.386-6.208-4.386c-19.583-94.302-81.042-163.156-153.792-163.156c-77.5,0-142.083,77.979-157.063,181.709
		c0,0-3.208-7.542-11.854,0c0,0-25.75,40.938,5.771,96.896C303.75,367.344,308.146,365.072,308.146,365.072z"/>
	<path fill="#414042" d="M610.583,724.875c8.875-27.209,31.979-46.646,60.334-50.75l68.166-9.834L759.042,624
		c-79.292-24.084-157.834-31.021-157.834-31.021c-12.291-24.25-18.833-33.188-22.125-64c-35.875,36.042-73.791,53.896-113.5,53.896
		c-0.916,0-1.791,0-2.708-0.021c-46.104-0.938-82-25.438-100.042-40.666c-3.333,25.458-9.458,28.791-20.583,50.791
		c0,0-315.958,27.771-320.292,166.438v108.25h653.834l3.083-18l-49.417-48.188C609,781.541,601.75,752.229,610.583,724.875z"/>
	<path fill="#414042" d="M1001.5,744.708c-1.25-3.854-4.583-6.667-8.625-7.25l-101.458-14.646l-45.313-91.729
		c-1.792-3.667-5.5-5.958-9.563-5.958c-4.042,0-7.75,2.291-9.542,5.916l-45.5,91.771l-101.438,14.646
		c-4.021,0.583-7.354,3.396-8.625,7.25c-1.25,3.875-0.208,8.125,2.688,10.958l73.521,71.646l-17.313,100.896
		c-0.666,4,0.959,8.042,4.25,10.417c1.854,1.375,4.063,2.041,6.271,2.041c1.688,0,3.396-0.396,4.938-1.208l90.75-47.542
		l90.791,47.542c3.584,1.875,7.959,1.583,11.209-0.833c3.291-2.375,4.916-6.438,4.25-10.438l-17.479-100.896l73.5-71.625
		C1001.708,752.833,1002.75,748.583,1001.5,744.708z"/>
</g>
</svg>
