<?xml version="1.0" encoding="utf-8"?>
<!-- Generator: Adobe Illustrator 16.0.0, SVG Export Plug-In . SVG Version: 6.00 Build 0)  -->
<!DOCTYPE svg PUBLIC "-//W3C//DTD SVG 1.1//EN" "http://www.w3.org/Graphics/SVG/1.1/DTD/svg11.dtd">
<svg version="1.1" id="Layer_1" xmlns="http://www.w3.org/2000/svg" xmlns:xlink="http://www.w3.org/1999/xlink" x="0px" y="0px"
	 width="1024px" height="1024px" viewBox="0 0 1024 1024" enable-background="new 0 0 1024 1024" xml:space="preserve">
<g>
	<path fill="#414042" d="M308.25,379.729c9.25,53.594,31.542,99.813,61.708,131.896c4.771,4.896,44.854,44.625,98.917,45.625
		c35.229,0.666,69.917-15.625,102.333-48.396l0.688-0.833c-0.104,0.104-0.229,0.188-0.333,0.313
		c0.188-0.229,0.396-0.417,0.563-0.625l12.833-16.167c22.229-30.896,38.459-70.5,45.667-115.063c0,0,5.979,1.042,11.479-11.938
		c28.521-67.063-7.563-102.833-7.563-102.833c-3.334-3.563-6.459-4.542-6.459-4.542c-20.208-97.458-83.75-168.625-158.938-168.625
		c-80.083,0-146.813,80.604-162.313,187.792c0,0-3.313-7.792-12.25,0c0,0-26.604,42.323,5.959,100.146
		C303.708,382.083,308.25,379.729,308.25,379.729z"/>
	<path fill="#414042" d="M588.25,549.125c-37.063,37.25-76.229,55.708-117.271,55.708c-0.938,0-1.875,0-2.792-0.021
		c-47.667-0.979-84.75-26.292-103.396-42.042c-3.479,26.313-9.792,29.771-21.292,52.521c0,0-326.563,28.709-331.021,172v111.875
		h724.396V667.541c-96.729-43.375-125.75-52.25-125.75-52.25C598.417,590.208,591.688,580.958,588.25,549.125z"/>
	<path fill="#414042" d="M1009.792,767l-36.584-56.084l36.688-58.708c2.063-3.292,2.167-7.438,0.292-10.833
		c-1.875-3.396-5.458-5.5-9.333-5.5H844.813v-4.334c0-11.791-9.542-21.333-21.333-21.333c-11.771,0-21.334,9.542-21.334,21.333
		v282.584c0,11.791,9.563,21.333,21.334,21.333c11.791,0,21.333-9.542,21.333-21.333V783.5h156.042c3.916,0,7.521-2.146,9.375-5.584
		C1012.104,774.5,1011.938,770.291,1009.792,767z"/>
</g>
</svg>
