<?xml version="1.0" encoding="utf-8"?>
<!-- Generator: Adobe Illustrator 16.0.0, SVG Export Plug-In . SVG Version: 6.00 Build 0)  -->
<!DOCTYPE svg PUBLIC "-//W3C//DTD SVG 1.1//EN" "http://www.w3.org/Graphics/SVG/1.1/DTD/svg11.dtd">
<svg version="1.1" id="Layer_1" xmlns="http://www.w3.org/2000/svg" xmlns:xlink="http://www.w3.org/1999/xlink" x="0px" y="0px"
	 width="1024px" height="1024px" viewBox="0 0 1024 1024" enable-background="new 0 0 1024 1024" xml:space="preserve">
<g>
	<path fill="#414042" d="M622.917,222.083c-19.542-94.292-81.042-163.125-153.792-163.125c-77.458,0-142.042,77.958-157.042,181.708
		c0,0-3.208-7.541-11.833,0c0,0-25.75,40.938,5.75,96.875c3.042,5.417,7.458,3.167,7.458,3.167
		c8.959,51.833,30.5,96.552,59.709,127.583c4.625,4.75,43.375,43.209,95.708,44.167c34.083,0.625,67.625-15.125,99-46.833
		l0.667-0.792c-0.084,0.083-0.209,0.167-0.334,0.292c0.209-0.209,0.375-0.417,0.584-0.625l12.375-15.625
		c21.541-29.875,37.208-68.209,44.208-111.334c0,0,5.792,1,11.125-11.541c27.583-64.875-7.333-99.5-7.333-99.5
		C625.958,223.041,622.917,222.083,622.917,222.083z"/>
	<path fill="#414042" d="M989.625,913l-74.292-92.396C939.625,793.416,954.5,757.708,954.5,718.5
		c0-84.75-68.958-153.688-153.708-153.688S647.125,633.75,647.125,718.5s68.917,153.688,153.667,153.688
		c22.458,0,43.708-4.938,62.958-13.646l76,94.563c6.292,7.854,15.583,11.938,24.958,11.938c7.042,0,14.125-2.291,20.042-7.041
		C998.5,946.916,1000.708,926.791,989.625,913z M800.792,808.188c-49.459,0-89.667-40.229-89.667-89.688
		c0-49.459,40.208-89.688,89.667-89.688c49.458,0,89.708,40.229,89.708,89.688C890.5,767.958,850.25,808.188,800.792,808.188z"/>
	<path fill="#414042" d="M606.5,568.583c-12.292-24.25-18.792-33.208-22.125-64C548.5,540.625,510.583,558.5,470.917,558.5
		c-0.917,0-1.834,0-2.709-0.042c-46.125-0.917-82-25.417-100.041-40.667c-3.375,25.459-9.459,28.792-20.625,50.792
		c0,0-315.959,27.792-320.25,166.458v108.25h595.416c-24.875-35.375-39.583-78.375-39.583-124.791
		c0-56.104,21.542-107.209,56.542-145.854C619.333,569.75,606.5,568.583,606.5,568.583z"/>
</g>
</svg>
