<?xml version="1.0" encoding="utf-8"?>
<!-- Generator: Adobe Illustrator 16.0.0, SVG Export Plug-In . SVG Version: 6.00 Build 0)  -->
<!DOCTYPE svg PUBLIC "-//W3C//DTD SVG 1.1//EN" "http://www.w3.org/Graphics/SVG/1.1/DTD/svg11.dtd">
<svg version="1.1" id="Layer_1" xmlns="http://www.w3.org/2000/svg" xmlns:xlink="http://www.w3.org/1999/xlink" x="0px" y="0px"
	 width="1024px" height="1024px" viewBox="0 0 1024 1024" enable-background="new 0 0 1024 1024" xml:space="preserve">
<g>
	<path fill="#414042" d="M315.292,367.625c8.938,51.844,30.5,96.541,59.708,127.583c4.583,4.75,43.375,43.208,95.708,44.167
		c34.042,0.625,67.625-15.125,99-46.834l0.667-0.791c-0.104,0.083-0.208,0.166-0.333,0.291c0.208-0.208,0.375-0.416,0.563-0.625
		L583,475.791c21.542-29.875,37.208-68.208,44.208-111.333c0,0,5.771,1,11.104-11.542c27.604-64.875-7.333-99.489-7.333-99.489
		c-3.209-3.469-6.229-4.427-6.229-4.427c-19.563-94.292-81.042-163.125-153.792-163.125c-77.479,0-142.063,77.958-157.041,181.708
		c0,0-3.209-7.542-11.854,0c0,0-25.75,40.917,5.771,96.875C310.875,369.875,315.292,367.625,315.292,367.625z"/>
	<path fill="#414042" d="M844.104,636.541c-83.146,0-150.792,67.667-150.792,150.792c0,83.167,67.646,150.792,150.792,150.792
		c83.146,0,150.791-67.625,150.791-150.792C994.896,704.208,927.25,636.541,844.104,636.541z M748.771,787.333
		c0-52.542,42.771-95.333,95.334-95.333c15.563,0,30.063,4.125,43.063,10.771L758.542,828.583
		C752.479,816.063,748.771,802.166,748.771,787.333z M844.104,882.666c-17.521,0-33.75-5.083-47.854-13.354l130.813-127.979
		c7.646,13.708,12.375,29.25,12.375,46C939.438,839.916,896.667,882.666,844.104,882.666z"/>
	<path fill="#414042" d="M718.083,613.791c-60.146-13.875-109.75-18.291-109.75-18.291c-12.291-24.25-18.813-33.209-22.125-64
		c-35.875,36.041-73.791,53.916-113.5,53.916c-0.896,0-1.791,0-2.688-0.041c-46.104-0.917-82-25.417-100.041-40.667
		c-3.354,25.458-9.459,28.792-20.604,50.792c0,0-315.958,27.791-320.271,166.458v108.25h616.875
		c-10.709-25.521-16.667-53.5-16.667-82.875C629.313,716,664.396,652.875,718.083,613.791z"/>
</g>
</svg>
