<?xml version="1.0" encoding="utf-8"?>
<!-- Generator: Adobe Illustrator 16.0.0, SVG Export Plug-In . SVG Version: 6.00 Build 0)  -->
<!DOCTYPE svg PUBLIC "-//W3C//DTD SVG 1.1//EN" "http://www.w3.org/Graphics/SVG/1.1/DTD/svg11.dtd">
<svg version="1.1" id="Layer_1" xmlns="http://www.w3.org/2000/svg" xmlns:xlink="http://www.w3.org/1999/xlink" x="0px" y="0px"
	 width="1024px" height="1024px" viewBox="0 0 1024 1024" enable-background="new 0 0 1024 1024" xml:space="preserve">
<g>
	<path fill="#414042" d="M593.938,531.708c0-0.042-0.042-0.083-0.042-0.083l-0.25,0.333
		C593.729,531.833,593.813,531.791,593.938,531.708z"/>
	<path fill="#414042" d="M383.063,549.5c0,0.083,0,0.188,0,0.291c0.333,0.25,0.75,0.459,1.083,0.792
		C383.521,549.958,383.063,549.5,383.063,549.5z"/>
	<path fill="#414042" d="M304.271,378.875c8.917,51.833,30.5,96.541,59.709,127.583c4.583,4.75,43.375,43.229,95.708,44.167
		c34.042,0.625,67.625-15.125,99-46.813l0.667-0.813c-0.125,0.083-0.209,0.166-0.334,0.291c0.209-0.208,0.375-0.416,0.542-0.625
		l12.417-15.625c21.541-29.875,37.208-68.197,44.208-111.333c0,0,5.75,1,11.083-11.542c27.625-64.875-7.333-99.5-7.333-99.5
		c-3.208-3.458-6.208-4.396-6.208-4.396c-19.584-94.302-81.042-163.146-153.792-163.146c-77.5,0-142.083,77.958-157.042,181.708
		c0,0-3.208-7.542-11.875,0c0,0-25.75,40.917,5.792,96.875C299.854,381.125,304.271,378.875,304.271,378.875z"/>
	<path fill="#414042" d="M996.688,719.708h-45.292v-25.542c0-57.958-47.125-105.125-105.083-105.125
		c-58,0-105.125,47.167-105.125,105.125v25.542h-47.125c-5.083,0-9.208,4.125-9.208,9.208v188.75c0,5.084,4.125,9.209,9.208,9.209
		h302.625c5.167,0,9.25-4.125,9.25-9.209v-188.75C1005.938,723.833,1001.854,719.708,996.688,719.708z M923.729,719.708H768.854
		v-25.542c0-42.708,34.75-77.458,77.458-77.458c42.667,0,77.417,34.75,77.417,77.458V719.708z"/>
	<path fill="#414042" d="M597.313,606.75c-12.292-24.25-18.833-33.209-22.125-64c-35.875,36.041-73.792,53.916-113.5,53.916
		c-0.917,0-1.792,0-2.708-0.041c-46.084-0.917-82-25.417-100.042-40.667c-3.333,25.458-9.458,28.792-20.583,50.792
		c0,0-315.959,27.791-320.292,166.458v108.25h602.792V728.916c0-36.041,26.166-66.083,60.5-72.083
		c2.75-12.167,6.958-23.792,12.166-34.792C639.688,610.5,597.313,606.75,597.313,606.75z"/>
</g>
</svg>
