<?xml version="1.0" encoding="utf-8"?>
<!-- Generator: Adobe Illustrator 16.0.0, SVG Export Plug-In . SVG Version: 6.00 Build 0)  -->
<!DOCTYPE svg PUBLIC "-//W3C//DTD SVG 1.1//EN" "http://www.w3.org/Graphics/SVG/1.1/DTD/svg11.dtd">
<svg version="1.1" id="Layer_1" xmlns="http://www.w3.org/2000/svg" xmlns:xlink="http://www.w3.org/1999/xlink" x="0px" y="0px"
	 width="1024px" height="1024px" viewBox="0 0 1024 1024" enable-background="new 0 0 1024 1024" xml:space="preserve">
<g>
	<path fill="#414042" d="M320.417,358.104c8.958,51.875,30.5,96.563,59.708,127.604c4.583,4.75,43.375,43.167,95.708,44.125
		c34.042,0.667,67.625-15.083,99-46.792l0.667-0.833c-0.083,0.125-0.208,0.208-0.333,0.292c0.208-0.209,0.375-0.375,0.583-0.584
		l12.375-15.625c21.542-29.916,37.208-68.229,44.208-111.313c0,0,5.792,1,11.125-11.583c27.584-64.875-7.333-99.5-7.333-99.5
		c-3.208-3.417-6.25-4.375-6.25-4.375c-19.542-94.292-81.042-163.167-153.792-163.167c-77.458,0-142.041,78-157.041,181.709
		c0,0-3.209-7.542-11.834,0c0,0-25.75,40.958,5.75,96.916C316,360.396,320.417,358.104,320.417,358.104z"/>
	<path fill="#414042" d="M949.458,603.75c-37.833-28.813-70.25-27.584-90.666-21.604c-50.917,15.021-72.875,72.229-75.209,78.688
		c-7.125,19.833,3.084,41.583,22.875,48.833c19.834,7.313,41.75-2.875,49.167-22.583c2.5-6.646,7.583-15.313,13.292-22.021
		c2.208-1.5,4.333-3.229,6.833-4.146c6.542-2.375,13.958-2.083,21.625-0.083c1.375,0.875,2.708,1.771,3.792,2.521
		c5.083,5.313,18.208,21.604,8,38.209c-7.459,12.104-13.042,15.979-20.75,21.271c-24.5,16.958-38.334,34.792-41.084,80.292
		c-1.291,21.125,14.792,39.291,35.917,40.583c0.792,0.063,1.583,0.083,2.375,0.083c20.083,0,36.958-15.666,38.167-36
		c0.375-5.958,0.916-9.875,1.458-12.666c19.125-12.75,31.792-25.75,39.667-39.917c3.166-4.083,6.291-8.292,9.5-13.5
		C1010.25,683.5,975.542,627.5,949.458,603.75z"/>
	<path fill="#414042" d="M913.417,876.208c-3.167-4.688-8-8.229-13.834-8.854c-0.541-0.063-1.041,0.188-1.625,0.167
		c-3.958-1.271-8-2.5-12.416-2.5c-22.792,0-41.292,18.5-41.292,41.313s18.5,41.313,41.292,41.313
		c22.791,0,41.333-18.5,41.333-41.313C926.875,894.333,921.583,883.75,913.417,876.208z"/>
	<path fill="#414042" d="M783.458,799.229c0.625-10.125,1.709-19.646,3.334-28.625c-0.834-0.271-1.625-0.563-2.417-0.854
		c-52.583-19.334-79.958-77.917-60.958-130.709c1.833-5.063,6.541-16.854,14.625-31.208C671.458,591.125,613.458,586,613.458,586
		c-12.291-24.25-18.791-33.209-22.125-64c-35.875,36.041-73.791,53.875-113.5,53.875c-0.875,0-1.791,0-2.666,0
		c-46.125-0.959-82-25.459-100.042-40.667C371.75,560.666,365.667,564,354.5,586c0,0-315.958,27.75-320.25,166.416v108.25h756.625
		c1.292-2.625,2.5-5.291,3.958-7.813C786.292,836.521,782.292,818.104,783.458,799.229z"/>
</g>
</svg>
