<?xml version="1.0" encoding="utf-8"?>
<!-- Generator: Adobe Illustrator 16.0.0, SVG Export Plug-In . SVG Version: 6.00 Build 0)  -->
<!DOCTYPE svg PUBLIC "-//W3C//DTD SVG 1.1//EN" "http://www.w3.org/Graphics/SVG/1.1/DTD/svg11.dtd">
<svg version="1.1" id="Layer_1" xmlns="http://www.w3.org/2000/svg" xmlns:xlink="http://www.w3.org/1999/xlink" x="0px" y="0px"
	 width="1024px" height="1024px" viewBox="0 0 1024 1024" enable-background="new 0 0 1024 1024" xml:space="preserve">
<g>
	<path fill="#414042" d="M328.771,358.813c8.959,51.854,30.5,96.541,59.709,127.583c4.604,4.75,43.375,43.188,95.708,44.146
		c34.083,0.667,67.625-15.104,99-46.813l0.667-0.813c-0.084,0.104-0.209,0.188-0.334,0.292c0.209-0.208,0.417-0.396,0.584-0.604
		l12.416-15.625c21.5-29.875,37.209-68.188,44.167-111.313c0,0,5.792,1,11.125-11.563c27.583-64.875-7.333-99.5-7.333-99.5
		c-3.209-3.438-6.25-4.396-6.25-4.396c-19.542-94.292-81.042-163.146-153.792-163.146c-77.458,0-142.042,78-157.042,181.708
		c0,0-3.208-7.542-11.833,0c0,0-25.75,40.938,5.75,96.896C324.354,361.083,328.771,358.813,328.771,358.813z"/>
	<path fill="#414042" d="M940.604,704.646c-20.875,0-37.792,16.938-37.792,37.813v166.667c0,20.875,16.917,37.813,37.792,37.813
		s37.833-16.938,37.833-37.813V742.458C978.438,721.583,961.479,704.646,940.604,704.646z"/>
	<path fill="#414042" d="M940.604,669.313c22.5,0,40.791-18.25,40.791-40.75s-18.291-40.771-40.791-40.771
		s-40.75,18.271-40.75,40.771S918.104,669.313,940.604,669.313z"/>
	<path fill="#414042" d="M845.861,861.032c-9.713-15.844-7.049-48.984-7.049-68.782V639.521c-93.625-42-217-52.833-217-52.833
		c-12.292-24.229-18.792-33.209-22.125-64c-35.875,36.041-73.75,53.896-113.458,53.896c-0.917,0-1.834,0-2.709-0.021
		c-46.125-0.938-82-25.438-100.041-40.667c-3.375,25.458-9.459,28.792-20.625,50.792c0,0-315.959,27.771-320.25,166.438v108.25
		h803.058c-0.664,1.169-1.146,2.229,0.4,0C847.237,858.906,846.547,859.867,845.861,861.032z"/>
</g>
</svg>
