<?xml version="1.0" encoding="utf-8"?>
<!-- Generator: Adobe Illustrator 16.0.0, SVG Export Plug-In . SVG Version: 6.00 Build 0)  -->
<!DOCTYPE svg PUBLIC "-//W3C//DTD SVG 1.1//EN" "http://www.w3.org/Graphics/SVG/1.1/DTD/svg11.dtd">
<svg version="1.1" id="Layer_1" xmlns="http://www.w3.org/2000/svg" xmlns:xlink="http://www.w3.org/1999/xlink" x="0px" y="0px"
	 width="1024px" height="1024px" viewBox="0 0 1024 1024" enable-background="new 0 0 1024 1024" xml:space="preserve">
<g>
	<path fill="#414042" d="M848.125,615.291c-90.708,0-164.458,73.792-164.458,164.479s73.75,164.5,164.458,164.5
		c90.667,0,164.458-73.813,164.458-164.5S938.792,615.291,848.125,615.291z M784.667,658.979c0-0.166-0.417-1.854-1-3.854
		c10.416-5.375,21.583-9.5,33.25-12.167c1.458,2.646,3.333,5.104,6.291,6.375c-0.875,0.896-3.375,3.229-5.958,3.229
		c-0.417,0-0.792-0.021-1.125-0.146l-0.25-0.083l-1.292,3.333l0.209,0.084c0.041,0.063,4.666,3.063,5.125,7.416
		c0.25,2.459-0.917,4.938-3.375,7.354c-0.959,0.417-16.042,6.917-27.292,6.917c-6.458,0-10.5-2.146-11.875-6.292
		C778.625,670.416,784.875,666.229,784.667,658.979z M848.125,920.188c-39.875,0-75.792-16.75-101.375-43.521
		c5.292-10.125,18.458-15.75,18.458-15.75c18.292-8.729,20.834-24.541,20.834-24.541c5.708-16.188-34.75-10.542-34.75-10.542
		c-17.667-8.188-35.417-50.688-35.417-50.688v-42.042c5.25-14.875,12.833-28.604,22.458-40.688
		c3.459,24.625,12.542,80.042,26.375,90.875c0.25,0.125,5.084,3.292,13.875,3.292c9.875,0,25.834-4.104,45.709-23.542l0.083-0.063
		v-0.146c-1.333-0.438-52.583-38.125-30.042-48.292c7.125-3.229,25.5-14.208,26.292-10.083c1.5,8.292,15.208,20.083,19.25,27.417
		l29.708,15.063c0.167,0.208,3.917,4.729,9.875,4.729c2.584,0,5.25-0.896,7.834-2.583c-0.042,1.771,0.291,7.583,4.875,22.917
		c0.291,1.333,7.041,31.916,14.791,41.041c0.25,0.792,2.125,7.313,5.667,7.313c1.917,0,3.792-1.875,5.75-5.5
		c0.083-0.188,10-13.646,7-31.896c-0.042-0.021-1.333-5.021,26.458-24.625l0.084-0.146c0.041-0.063,5.125-9.313,12.625-9.313
		c3.916,0,7.875,2.583,11.666,7.583c0.417,0.688,6.542,11.813,12.167,19.604c0,1.25,0.167,2.438,0.167,3.708
		C988.542,857.229,925.542,920.188,848.125,920.188z"/>
	<path fill="#414042" d="M297.625,361.479c8.917,51.875,30.5,96.563,59.708,127.604c4.584,4.75,43.375,43.167,95.709,44.125
		c34.041,0.667,67.625-15.083,99-46.792l0.666-0.813c-0.125,0.104-0.208,0.188-0.333,0.271c0.208-0.188,0.375-0.375,0.542-0.584
		l12.416-15.625c21.542-29.896,37.209-68.229,44.209-111.313c0,0,5.75,1,11.083-11.583c27.625-64.875-7.333-99.5-7.333-99.5
		c-3.209-3.417-6.209-4.375-6.209-4.375C587.5,148.604,526.042,79.729,453.292,79.729c-77.5,0-142.084,78-157.042,181.709
		c0,0-3.208-7.542-11.875,0c0,0-25.75,40.958,5.792,96.916C293.208,363.771,297.625,361.479,297.625,361.479z"/>
	<path fill="#414042" d="M700.417,607.646c-60.167-13.896-109.75-18.271-109.75-18.271c-12.292-24.25-18.834-33.209-22.125-64
		c-35.875,36.041-73.792,53.875-113.5,53.875c-0.917,0-1.792,0-2.709,0c-46.083-0.959-82-25.459-100.041-40.688
		c-3.334,25.479-9.459,28.813-20.584,50.813c0,0-315.958,27.75-320.291,166.416v108.25h616.875
		c-10.709-25.5-16.667-53.5-16.667-82.833C611.625,709.875,646.708,646.729,700.417,607.646z"/>
</g>
</svg>
