<?xml version="1.0" encoding="utf-8"?>
<!-- Generator: Adobe Illustrator 16.0.0, SVG Export Plug-In . SVG Version: 6.00 Build 0)  -->
<!DOCTYPE svg PUBLIC "-//W3C//DTD SVG 1.1//EN" "http://www.w3.org/Graphics/SVG/1.1/DTD/svg11.dtd">
<svg version="1.1" id="Layer_1" xmlns="http://www.w3.org/2000/svg" xmlns:xlink="http://www.w3.org/1999/xlink" x="0px" y="0px"
	 width="1024px" height="1024px" viewBox="0 0 1024 1024" enable-background="new 0 0 1024 1024" xml:space="preserve">
<g>
	<path fill="#414042" d="M328.771,358.813c8.959,51.854,30.5,96.563,59.709,127.604c4.604,4.75,43.375,43.188,95.708,44.146
		c34.083,0.646,67.625-15.104,99-46.813l0.667-0.813c-0.084,0.104-0.209,0.188-0.334,0.291c0.209-0.208,0.417-0.396,0.584-0.604
		L596.521,467c21.5-29.896,37.209-68.229,44.167-111.334c0,0,5.792,1,11.125-11.552c27.583-64.886-7.333-99.5-7.333-99.5
		c-3.209-3.438-6.25-4.406-6.25-4.406c-19.542-94.292-81.042-163.146-153.792-163.146c-77.458,0-142.042,77.979-157.042,181.719
		c0,0-3.208-7.553-11.833,0c0,0-25.75,40.927,5.75,96.885C324.354,361.083,328.771,358.813,328.771,358.813z"/>
	<path fill="#414042" d="M940.604,830.083c20.916,0,37.833-16.917,37.833-37.813V625.604c0-20.854-16.917-37.813-37.833-37.813
		c-20.834,0-37.792,16.959-37.792,37.813v166.667C902.813,813.166,919.771,830.083,940.604,830.083z"/>
	<path fill="#414042" d="M940.604,865.416c-22.459,0-40.75,18.25-40.75,40.75s18.291,40.771,40.75,40.771
		c22.541,0,40.791-18.271,40.791-40.771S963.146,865.416,940.604,865.416z"/>
	<path fill="#414042" d="M838.813,639.541c-93.625-42-217-52.833-217-52.833c-12.292-24.25-18.792-33.208-22.125-64
		c-35.875,36.063-73.75,53.896-113.458,53.896c-0.917,0-1.834,0-2.709-0.021c-46.125-0.917-82-25.438-100.041-40.667
		c-3.375,25.459-9.459,28.792-20.625,50.792c0,0-315.959,27.771-320.25,166.438v108.25h803.458
		c2.458-5.188,5.208-10.188,8.458-14.854c-9.958-15.708-15.708-34.333-15.708-54.271V639.541z"/>
</g>
</svg>
