<?xml version="1.0" encoding="utf-8"?>
<!-- Generator: Adobe Illustrator 16.0.0, SVG Export Plug-In . SVG Version: 6.00 Build 0)  -->
<!DOCTYPE svg PUBLIC "-//W3C//DTD SVG 1.1//EN" "http://www.w3.org/Graphics/SVG/1.1/DTD/svg11.dtd">
<svg version="1.1" id="Layer_1" xmlns="http://www.w3.org/2000/svg" xmlns:xlink="http://www.w3.org/1999/xlink" x="0px" y="0px"
	 width="1024px" height="1024px" viewBox="0 0 1024 1024" enable-background="new 0 0 1024 1024" xml:space="preserve">
<g>
	<path fill="#414042" d="M565.729,474.208l-0.292,0.333c0.083-0.104,0.208-0.146,0.292-0.229
		C565.729,474.291,565.729,474.25,565.729,474.208z"/>
	<path fill="#414042" d="M299.104,358.927c8.958,51.844,30.541,96.573,59.708,127.594c4.625,4.75,43.417,43.188,95.708,44.146
		c34.084,0.646,67.667-15.104,99.042-46.813l0.667-0.813c-0.125,0.125-0.25,0.188-0.334,0.292c0.167-0.208,0.375-0.396,0.542-0.604
		l12.417-15.625c21.5-29.896,37.208-68.229,44.208-111.333c0,0,5.75,1,11.083-11.563c27.584-64.875-7.333-99.5-7.333-99.5
		c-3.208-3.438-6.25-4.396-6.25-4.396c-19.542-94.292-81-163.146-153.75-163.146c-77.5,0-142.083,77.979-157.083,181.709
		c0,0-3.209-7.542-11.834,0c0,0-25.75,40.938,5.75,96.896C294.729,361.197,299.104,358.927,299.104,358.927z"/>
	<path fill="#414042" d="M603.896,929.958c-1.333,4.938,0.25,10.208,4.125,13.563c2.5,2.167,5.625,3.313,8.792,3.313
		c1.75,0,3.542-0.354,5.208-1.083l111-47.25c0.084-0.042,0.125-0.104,0.167-0.146c0.125-0.063,0.25-0.188,0.375-0.229l-97.25-87.563
		L603.896,929.958z"/>
	<polygon fill="#414042" points="671.271,770.125 770.896,859.791 934.979,685.166 835.313,595.438 	"/>
	<path fill="#414042" d="M1005.729,560.875c-12.417-28.563-42.375-50.104-69.667-50.104c-13.667,0-25.958,5.25-35.5,15.167
		c-9.292,9.646-15.125,15.646-18.542,19.875l-0.041-0.042L871.896,556.5l99.667,89.666l8.042-8.604c0,0,5.458-5.709,18.583-19.834
		C1012.188,602.771,1014.896,582.021,1005.729,560.875z"/>
	<path fill="#414042" d="M624.604,726.333l106.875-113.813c-72.542-19.792-139.292-25.708-139.292-25.708
		c-12.292-24.25-18.833-33.209-22.167-64c-35.833,36.063-73.75,53.896-113.458,53.896c-0.917,0-1.792,0-2.708,0
		c-46.125-0.958-82-25.458-100.042-40.688c-3.333,25.458-9.458,28.792-20.583,50.792c0,0-315.959,27.771-320.292,166.438V861.5
		h543.25l18.375-67.688c5-18.5,18.25-33.146,35.417-41C612.729,743.041,617.521,733.875,624.604,726.333z"/>
</g>
</svg>
