<?xml version="1.0" encoding="utf-8"?>
<!-- Generator: Adobe Illustrator 16.0.0, SVG Export Plug-In . SVG Version: 6.00 Build 0)  -->
<!DOCTYPE svg PUBLIC "-//W3C//DTD SVG 1.1//EN" "http://www.w3.org/Graphics/SVG/1.1/DTD/svg11.dtd">
<svg version="1.1" id="Layer_1" xmlns="http://www.w3.org/2000/svg" xmlns:xlink="http://www.w3.org/1999/xlink" x="0px" y="0px"
	 width="1024px" height="1024px" viewBox="0 0 1024 1024" enable-background="new 0 0 1024 1024" xml:space="preserve">
<g>
	<path fill="#414042" d="M294.833,393.333c8.709,50.417,29.667,93.854,58.042,124.042c4.5,4.604,42.188,41.979,93.042,42.916
		c33.125,0.625,65.75-14.688,96.25-45.5l0.666-0.813c-0.104,0.104-0.229,0.188-0.333,0.292c0.188-0.208,0.396-0.396,0.542-0.583
		l12.083-15.188c20.896-29.063,36.167-66.313,42.958-108.219c0,0,5.604,0.969,10.792-11.24c26.813-63.072-7.125-96.729-7.125-96.729
		c-3.125-3.344-6.083-4.271-6.083-4.271c-19-91.666-78.771-158.604-149.479-158.604c-75.333,0-138.104,75.802-152.688,176.646
		c0,0-3.125-7.333-11.521,0c0,0-25.021,39.792,5.604,94.198C290.563,395.541,294.833,393.333,294.833,393.333z"/>
	<path fill="#414042" d="M1007.313,686.854L890.5,778.396L1007.375,890V687.396C1007.375,687.188,1007.333,687.021,1007.313,686.854
		z"/>
	<path fill="#414042" d="M870.229,772.771l126.083-98.833c-0.583-0.104-1.146-0.229-1.75-0.229H698.5l125.083,98.229
		C825.979,774,845.583,789.771,870.229,772.771z"/>
	<path fill="#414042" d="M683.854,683.688c-0.334,1.166-0.584,2.416-0.584,3.708v203.479c0,1.021,0.292,2,0.5,2.958l120.792-115.354
		L683.854,683.688z"/>
	<path fill="#414042" d="M847.167,797.75c-11.959,0-22.167-4.209-29.146-8.854L696.917,904.563h297.646
		c1.104,0,2.104-0.271,3.125-0.521L876.833,788.604C866.417,795.146,856.292,797.75,847.167,797.75z"/>
	<path fill="#414042" d="M558.208,552.646c-34.875,35.042-71.708,52.396-110.313,52.396c-0.896,0-1.75,0-2.625-0.021
		c-44.854-0.917-79.729-24.729-97.25-39.542c-3.271,24.75-9.208,28-20.041,49.375c0,0-307.146,27-311.354,161.813v105.229h608.667
		c-0.417-3.063-0.959-6.104-0.959-9.292V682.833c0-24,12.792-44.854,31.792-56.604c-43.917-8.458-76.396-11.375-76.396-11.375
		C567.771,591.291,561.438,582.583,558.208,552.646z"/>
</g>
</svg>
