<?xml version="1.0" encoding="utf-8"?>
<!-- Generator: Adobe Illustrator 16.0.0, SVG Export Plug-In . SVG Version: 6.00 Build 0)  -->
<!DOCTYPE svg PUBLIC "-//W3C//DTD SVG 1.1//EN" "http://www.w3.org/Graphics/SVG/1.1/DTD/svg11.dtd">
<svg version="1.1" id="Layer_1" xmlns="http://www.w3.org/2000/svg" xmlns:xlink="http://www.w3.org/1999/xlink" x="0px" y="0px"
	 width="1024px" height="1024px" viewBox="0 0 1024 1024" enable-background="new 0 0 1024 1024" xml:space="preserve">
<g>
	<path fill="#414042" d="M290.396,376.302c8.771,50.771,29.875,94.552,58.459,124.948c4.521,4.646,42.479,42.291,93.729,43.229
		c33.354,0.625,66.209-14.771,96.938-45.833l0.646-0.813c-0.084,0.104-0.209,0.188-0.313,0.292c0.188-0.209,0.375-0.396,0.563-0.584
		l12.146-15.313c21.063-29.271,36.438-66.802,43.271-109.01c0,0,5.667,0.979,10.875-11.323c27.021-63.521-7.166-97.427-7.166-97.427
		c-3.146-3.365-6.125-4.303-6.125-4.303c-19.125-92.333-79.354-159.75-150.584-159.75c-75.854,0-139.104,76.354-153.791,177.928
		c0,0-3.125-7.386-11.584,0c0,0-25.208,40.083,5.625,94.875C286.083,378.521,290.396,376.302,290.396,376.302z"/>
	<path fill="#414042" d="M689.208,725.791l1.104-7.313c5.521-31.771,19.104-57.5,40.479-77.063
		c3.416-3.146,7.021-5.875,10.688-8.541c-80.792-26.042-164.146-33.417-164.146-33.417c-12.021-23.729-18.396-32.5-21.666-62.667
		c-35.125,35.292-72.229,52.771-111.104,52.771c-0.875,0-1.771,0-2.646-0.021c-45.146-0.916-80.292-24.916-97.959-39.813
		c-3.291,24.917-9.25,28.188-20.188,49.729c0,0-309.375,27.188-313.583,162.979v105.979h729.125
		c-5.625-6.938-10.979-13.875-15.792-21c-2.313-3.479-4.479-6.938-6.604-10.438l-2.542-4.083
		c-0.354-0.521-8.125-12.417-13.813-27.75l-1.229-3.292c-5.146-13.646-8.416-26.625-9.958-39.625
		c-0.563-2.833-0.854-5.666-0.854-8.438v-20C688.521,732.688,689,727.333,689.208,725.791z"/>
	<path fill="#414042" d="M1013.813,742.771c0-0.979-0.125-1.688-0.375-2.646l-0.646-4.063c-0.542-3.479-1.104-7-1.959-10.438
		c-4.708-18.854-14.229-34.042-28.313-45.229c-9.271-7.354-19.416-12-30.229-13.771c-8.854-1.396-18.042-1.625-27.354-0.584
		c-9.75,1.084-18.771,4-26.833,8.646c-7.959,4.625-14.396,10.625-19.521,16.083c-7.166-7.667-14.021-13.125-21.416-17.104
		c-8.375-4.5-17.479-7.083-27.917-7.916c-8.583-0.604-16.333-0.354-23.708,0.75c-12.896,2.063-24.604,7.854-34.854,17.271
		c-13.75,12.583-22.563,29.417-26.104,49.979l-0.854,5.541c-0.042,0.479-0.375,2.979-0.375,3.479v17.042
		c0,0.854,0.146,1.833,0.396,2.771c1.042,9.75,3.563,19.646,7.625,30.146c0.021,0.021,0,0.042,0.021,0.063
		c0,0.063,0.042,0.104,0.063,0.146c0.021,0.063,0.021,0.146,0.063,0.208c0,0.021,0.042,0.042,0.042,0.042
		c3.813,10.771,9.646,19.708,9.771,19.916l2.271,3.646c1.625,2.646,3.229,5.271,4.958,7.833
		c12.125,17.833,27.333,34.771,47.854,53.271c15.791,14.229,33.75,28.417,55.125,43.5c2.208,1.5,4.604,2.229,7,2.229
		c2.479,0,4.958-0.771,7.25-2.313c13.458-9.563,25.333-18.542,36.313-27.458c19.5-15.917,34.791-30.375,48.104-45.542
		c10.521-12.021,18.959-23.625,25.813-35.5c0.688-1.167,6.646-11.688,9.479-19.167c0-0.041,0-0.041,0-0.041
		c0.042-0.063,0.042-0.104,0.042-0.146c0.041-0.041,0.041-0.083,0.041-0.104c0.042-0.042,0-0.063,0-0.063
		c3.5-8.959,5.834-17.167,7.375-26.979L1013.813,742.771z"/>
</g>
</svg>
