<?xml version="1.0" encoding="utf-8"?>
<!-- Generator: Adobe Illustrator 16.0.0, SVG Export Plug-In . SVG Version: 6.00 Build 0)  -->
<!DOCTYPE svg PUBLIC "-//W3C//DTD SVG 1.1//EN" "http://www.w3.org/Graphics/SVG/1.1/DTD/svg11.dtd">
<svg version="1.1" id="Layer_1" xmlns="http://www.w3.org/2000/svg" xmlns:xlink="http://www.w3.org/1999/xlink" x="0px" y="0px"
	 width="1024px" height="1024px" viewBox="0 0 1024 1024" enable-background="new 0 0 1024 1024" xml:space="preserve">
<g>
	<path fill="#414042" d="M1004.375,813.604l-29.042-16.75c0-4.458-0.083-8.229-0.125-12.104c-0.041-2.438-0.083-4.917-0.125-7.604
		l29.292-16.896c8.417-5,11.333-15.959,6.417-24.459l-27.084-46.916c-4.75-8.313-16.375-11.396-24.541-6.604l-29,16.771
		c-2.417-1.416-4.542-2.666-6.625-3.896c-3.334-1.979-6.584-3.875-10.584-6.104v-33.313c0-9.896-8.041-17.938-17.916-17.938h-54.209
		c-9.916,0-17.958,8.042-17.958,17.938v31.188c-6.458,4.646-13.083,9.104-17.542,12.063l-28.5-16.438
		c-8.333-4.875-19.833-1.708-24.541,6.521l-27.125,46.958c-4.917,8.542-2,19.542,6.625,24.542l27.083,15.333
		c-0.042,8.271-0.042,16.75,0,22.292l-27.083,15.604c-8.5,5-11.417,15.959-6.5,24.479l27.125,47.083
		c4.791,8.146,16.208,11.271,24.5,6.459l28.583-16.5c6.458,4.104,13.083,7.854,17.625,10.354v32.667
		c0,9.896,8.042,17.958,17.917,17.958h54.208c9.917,0,17.958-8.063,17.958-17.958V885.75c4.292-2.313,10.459-5.875,17.625-10.604
		l28.5,16.458c8.209,4.75,19.709,1.667,24.459-6.583l27.166-46.958C1015.875,829.5,1012.917,818.5,1004.375,813.604z M867.167,837
		c-27.5,0-49.75-22.292-49.75-49.729c0-27.5,22.25-49.771,49.75-49.771c27.458,0,49.75,22.271,49.75,49.771
		C916.917,814.708,894.625,837,867.167,837z"/>
	<path fill="#414042" d="M296.833,369.458c8.959,51.854,30.5,96.563,59.709,127.604c4.583,4.75,43.375,43.188,95.708,44.146
		c34.042,0.667,67.625-15.104,99-46.813l0.667-0.813c-0.084,0.104-0.209,0.188-0.334,0.292c0.209-0.209,0.375-0.396,0.584-0.604
		l12.375-15.625c21.541-29.896,37.208-68.208,44.208-111.333c0,0,5.792,1,11.125-11.563c27.583-64.865-7.333-99.5-7.333-99.5
		c-3.209-3.438-6.25-4.396-6.25-4.396C586.75,156.563,525.25,87.708,452.5,87.708c-77.458,0-142.042,78-157.042,181.708
		c0,0-3.208-7.531-11.833,0c0,0-25.75,40.938,5.75,96.896C292.417,371.729,296.833,369.458,296.833,369.458z"/>
	<path fill="#414042" d="M589.875,597.354c-12.292-24.229-18.792-33.208-22.125-64c-35.875,36.042-73.792,53.896-113.5,53.896
		c-0.875,0-1.792,0-2.667-0.021c-46.125-0.938-82-25.438-100.041-40.666c-3.375,25.458-9.459,28.791-20.625,50.791
		c0,0-315.959,27.771-320.25,166.438v108.25h660.208l-1.042-1.791c-15.291-26.5-14-58.209,0.75-82.959
		c-14.833-24.729-16.208-56.583-0.833-83.313l27-46.708c8.458-14.75,21.333-26.125,36.417-33.146
		C659.083,603.438,589.875,597.354,589.875,597.354z"/>
</g>
</svg>
