<?xml version="1.0" encoding="utf-8"?>
<!-- Generator: Adobe Illustrator 16.0.0, SVG Export Plug-In . SVG Version: 6.00 Build 0)  -->
<!DOCTYPE svg PUBLIC "-//W3C//DTD SVG 1.1//EN" "http://www.w3.org/Graphics/SVG/1.1/DTD/svg11.dtd">
<svg version="1.1" id="Layer_1" xmlns="http://www.w3.org/2000/svg" xmlns:xlink="http://www.w3.org/1999/xlink" x="0px" y="0px"
	 width="1024px" height="1024px" viewBox="0 0 1024 1024" enable-background="new 0 0 1024 1024" xml:space="preserve">
<g>
	<path fill="#414042" d="M716.813,404.239c-3.313,7.802-7.229,13.938-11.417,18.802c-1.271,5.917-3.021,11.553-4.625,17.303
		c3.396,0.489,6.771,1.094,10.209,1.021c35.521-0.656,61.833-26.729,64.979-29.969c19.792-21.073,34.479-51.417,40.5-86.625
		c0,0,3,1.552,5.063-2.114c21.417-38,3.917-65.781,3.917-65.781c-5.833-5.104-8.021,0-8.021,0
		c-10.209-70.417-54.021-123.334-106.604-123.334c-21.083,0-40.667,8.803-57.271,23.698c21.666,28.427,38.583,63.813,48.833,104.302
		C722.396,283.041,746.229,335.114,716.813,404.239z"/>
	<path fill="#414042" d="M207.542,324.771c6.021,35.208,20.708,65.552,40.5,86.625c3.146,3.239,29.458,29.313,64.979,29.969
		c3.709,0.073,7.438-0.531,11.104-1.104c-1.021-3.771-2.417-7.333-3.313-11.197c-2.479-2.729-4.688-5.813-6.563-9.167
		c-34.313-60.938-19.083-115.948-4.688-138.833c2.167-3.448,4.813-6.563,7.917-9.24c0.979-0.875,2-1.708,3.021-2.51
		c9.854-43.448,27.438-81.386,50.458-111.656c-16.729-15.136-36.479-24.115-57.771-24.115c-52.583,0-96.438,52.917-106.604,123.334
		c0,0-2.188-5.104-8.021,0c0,0-17.5,27.781,3.917,65.781C204.563,326.322,207.542,324.771,207.542,324.771z"/>
	<path fill="#414042" d="M351.771,299.969c-1.75,0-3.979,0.844-6.854,3.322c0,0-25.521,40.594,5.729,96.094
		c1.625,2.917,3.667,3.604,5.167,3.604c1.271,0,2.208-0.5,2.208-0.5c8.854,51.448,30.271,95.781,59.188,126.573
		c4.584,4.708,43.042,42.813,94.938,43.771c0.646,0.021,1.354,0.021,2,0.021c33.084,0,65.667-15.625,96.188-46.458l0.646-0.813
		c-0.063,0.104-0.188,0.167-0.271,0.292c0.167-0.209,0.313-0.396,0.479-0.604l12.333-15.479
		c21.334-29.625,36.875-67.646,43.813-110.406c0,0,0.125,0.021,0.313,0.021c1.271,0,6.167-0.75,10.688-11.479
		c27.375-64.323-7.25-98.667-7.25-98.667c-3.188-3.406-6.208-4.364-6.208-4.364c-19.375-93.5-80.313-161.792-152.438-161.792
		c-76.875,0-140.917,77.334-155.771,180.188C356.667,303.291,355.25,299.969,351.771,299.969z"/>
	<path fill="#414042" d="M635.146,628.5c-11.063-21.813-17.104-25.125-20.479-50.354c-17.875,15.083-53.459,39.396-99.188,40.313
		h-4.021c-45.708-0.917-81.313-25.229-99.188-40.313c-3.333,25.229-9.375,28.542-20.438,50.354c0,0-313.291,27.541-317.583,165.021
		v107.375h434.542h443.938V793.521C948.438,656.041,635.146,628.5,635.146,628.5z"/>
	<path fill="#414042" d="M793.333,479.458c-7.541-14.917-11.708-17.188-13.979-34.458c-12.25,10.313-36.604,26.958-67.938,27.604
		c-0.604,0-1.167,0-1.834,0c-6.271,0-12.479-0.75-18.604-2.083c-8.854,23.104-19.938,44.729-33.563,63.667
		c-0.375,0.541-0.771,1.063-1.188,1.583l-4.334,5.438l4.167,31.417c1.146,8.521,1.875,10.916,5.104,16.688
		c51.313,6.271,168.438,25.583,249.25,76.604h100.313v-73.479C1007.792,498.313,793.333,479.458,793.333,479.458z"/>
	<path fill="#414042" d="M365.771,589.313c3.229-5.75,3.959-8.146,5.104-16.646l3.875-29.354
		c-16.729-21.084-30.604-45.771-41.042-72.959c-6.354,1.459-12.813,2.25-19.291,2.25c-0.667,0-1.229,0-1.834,0
		c-31.333-0.646-55.688-17.291-67.938-27.604c-2.271,17.271-6.438,19.541-13.979,34.458c0,0-214.459,18.854-217.396,112.979v73.479
		h103.292C197.375,614.896,314.458,595.583,365.771,589.313z"/>
</g>
</svg>
