<?xml version="1.0" encoding="utf-8"?>
<!-- Generator: Adobe Illustrator 16.0.0, SVG Export Plug-In . SVG Version: 6.00 Build 0)  -->
<!DOCTYPE svg PUBLIC "-//W3C//DTD SVG 1.1//EN" "http://www.w3.org/Graphics/SVG/1.1/DTD/svg11.dtd">
<svg version="1.1" id="Layer_1" xmlns="http://www.w3.org/2000/svg" xmlns:xlink="http://www.w3.org/1999/xlink" x="0px" y="0px"
	 width="1024px" height="1024px" viewBox="0 0 1024 1024" enable-background="new 0 0 1024 1024" xml:space="preserve">
<g>
	<path fill="#414042" d="M302.417,428.666c8.458,49.167,28.916,91.584,56.646,121.042c4.333,4.5,41.146,40.979,90.792,41.896
		c32.291,0.604,64.166-14.333,93.896-44.438l0.667-0.729c-0.125,0.041-0.229,0.125-0.354,0.25c0.188-0.209,0.396-0.375,0.542-0.584
		l11.771-14.833c20.417-28.354,35.313-64.729,41.917-105.594c0,0,5.521,0.938,10.563-10.979
		c26.166-61.541-6.959-94.375-6.959-94.375c-3.063-3.25-5.938-4.188-5.938-4.188c-18.541-89.458-76.854-154.771-145.875-154.771
		c-73.479,0-134.771,73.958-148.979,172.375c0,0-3.042-7.136-11.229,0c0,0-24.458,38.844,5.438,91.938
		C298.229,430.833,302.417,428.666,302.417,428.666z"/>
	<path fill="#414042" d="M567.5,644.854c-10.542-20.854-16.375-24.021-19.563-48.188c-17.104,14.438-51.146,37.688-94.896,38.584
		h-3.854c-43.75-0.896-77.792-24.146-94.917-38.584c-3.166,24.167-8.958,27.334-19.521,48.188c0,0-299.708,26.334-303.833,157.875
		v102.709h415.75h424.646V802.729C867.229,671.188,567.5,644.854,567.5,644.854z"/>
	<path fill="#414042" d="M631.646,293.896c19.084,20.479,41.917,70.239,13.813,136.313c-3.188,7.458-6.958,13.333-10.938,18
		c-4,18.688-9.75,36.521-16.771,53.438h0.042c28.75,0.542,57.125-12.771,83.604-39.521l0.584-0.709
		c-0.125,0.084-0.188,0.146-0.313,0.25c0.188-0.166,0.354-0.354,0.458-0.541l10.521-13.167
		c18.167-25.261,31.417-57.636,37.354-94.042c0,0,4.854,0.844,9.354-9.76c23.333-54.823-6.167-84.073-6.167-84.073
		c-2.729-2.896-5.292-3.729-5.292-3.729c-16.521-79.635-68.479-137.791-129.916-137.791c-28.271,0-54.396,12.489-76.084,33.541
		C583.396,181.771,615.792,231.406,631.646,293.896z"/>
	<path fill="#414042" d="M722.521,549.083c-9.396-18.563-14.563-21.396-17.396-42.896c-15.208,12.833-45.542,33.541-84.5,34.333
		h-3.417c-6.416-0.125-12.5-0.875-18.416-2c-3.292,5.417-6.521,10.917-10.167,15.979c-0.354,0.521-0.729,0.979-1.083,1.458
		l-10.875,13.688c5.604,5.979,9.563,13.396,10.688,21.771c1.083,8.25,1.771,10.5,4.916,16.125
		c73.959,9.084,291.313,46.459,316.334,173.563h84.479v-91.458C989.438,572.563,722.521,549.083,722.521,549.083z"/>
</g>
</svg>
