<?xml version="1.0" encoding="utf-8"?>
<!-- Generator: Adobe Illustrator 16.0.0, SVG Export Plug-In . SVG Version: 6.00 Build 0)  -->
<!DOCTYPE svg PUBLIC "-//W3C//DTD SVG 1.1//EN" "http://www.w3.org/Graphics/SVG/1.1/DTD/svg11.dtd">
<svg version="1.1" id="Layer_1" xmlns="http://www.w3.org/2000/svg" xmlns:xlink="http://www.w3.org/1999/xlink" x="0px" y="0px"
	 width="1024px" height="1024px" viewBox="0 0 1024 1024" enable-background="new 0 0 1024 1024" xml:space="preserve">
<g>
	<path fill="#414042" d="M322.854,451.313c9,52.125,30.666,97.041,60,128.25c4.625,4.75,43.625,43.375,96.166,44.354
		c34.25,0.667,68-15.188,99.5-47.063l0.688-0.791c-0.104,0.083-0.229,0.188-0.354,0.291c0.208-0.208,0.396-0.416,0.583-0.625
		l12.458-15.708c21.625-30.021,37.396-68.583,44.417-111.875c0,0,5.813,1,11.167-11.625c27.708-65.167-7.375-99.989-7.375-99.989
		c-3.209-3.428-6.271-4.428-6.271-4.428c-19.646-94.75-81.438-163.916-154.521-163.916c-77.875,0-142.771,78.333-157.833,182.583
		c0,0-3.229-7.583-11.896,0c0,0-25.875,41.125,5.771,97.375C318.438,453.604,322.854,451.313,322.854,451.313z"/>
	<path fill="#414042" d="M603.688,680.313c-11.208-22.084-17.333-25.459-20.729-51.042c-18.104,15.292-54.188,39.958-100.541,40.875
		h-4.063c-46.334-0.917-82.396-25.583-100.542-40.875c-3.354,25.583-9.5,28.958-20.708,51.042c0,0-317.5,27.916-321.834,167.25
		v108.791h440.396h449.854V847.563C921.188,708.229,603.688,680.313,603.688,680.313z"/>
	<path fill="#414042" d="M959.938,67.646H525.167c-15.959,0-28.854,10.625-28.854,23.75v35.052
		c81.438,8.615,149.667,78.948,175.792,181.823c7.333,7.875,15.104,19.833,20.708,35.104h79.833l-15.354,135.813l139.021-129.959
		h1.417h62.208c15.854,0,28.771-10.666,28.771-23.791V91.396C988.708,78.271,975.792,67.646,959.938,67.646z"/>
</g>
</svg>
