<?xml version="1.0" encoding="utf-8"?>
<!-- Generator: Adobe Illustrator 16.0.0, SVG Export Plug-In . SVG Version: 6.00 Build 0)  -->
<!DOCTYPE svg PUBLIC "-//W3C//DTD SVG 1.1//EN" "http://www.w3.org/Graphics/SVG/1.1/DTD/svg11.dtd">
<svg version="1.1" id="Layer_1" xmlns="http://www.w3.org/2000/svg" xmlns:xlink="http://www.w3.org/1999/xlink" x="0px" y="0px"
	 width="1024px" height="1024px" viewBox="0 0 1024 1024" enable-background="new 0 0 1024 1024" xml:space="preserve">
<g>
	<path fill="#414042" d="M898.542,40.688H719.833c-59.958,0-108.541,48.625-108.541,108.583v40.708
		c0,60,48.583,108.553,108.541,108.553h36.209l-38.459,113.072l142.5-113.072h38.459c59.916,0,108.541-48.553,108.541-108.553
		v-40.708C1007.083,89.313,958.458,40.688,898.542,40.688z M733.125,185.781h-26.542c-8.833,0-16.041-8.386-16.041-18.803
		c0-10.438,7.208-18.822,16.041-18.822h26.542c8.833,0,15.958,8.385,15.958,18.822C749.083,177.396,741.958,185.781,733.125,185.781
		z M925.042,185.781H898.5c-8.875,0-16-8.386-16-18.803c0-10.438,7.125-18.822,16-18.822h26.542c8.833,0,16,8.385,16,18.822
		C941.042,177.396,933.875,185.781,925.042,185.781z"/>
	<path fill="#414042" d="M304.583,478.104c8.959,52.125,30.667,97.042,60,128.313c4.625,4.729,43.625,43.375,96.209,44.354
		c34.25,0.625,68-15.229,99.541-47.083l0.667-0.792c-0.125,0.083-0.208,0.167-0.333,0.313c0.208-0.229,0.375-0.438,0.541-0.625
		l12.5-15.729c21.625-30.041,37.375-68.583,44.417-111.916c0,0,5.792,1,11.167-11.625c27.75-65.198-7.375-100-7.375-100
		c-3.209-3.459-6.292-4.417-6.292-4.417c-19.625-94.792-81.458-164-154.542-164c-77.916,0-142.833,78.375-157.875,182.625
		c0,0-3.25-7.531-11.916,0c0,0-25.875,41.167,5.791,97.417C300.125,480.396,304.583,478.104,304.583,478.104z"/>
	<path fill="#414042" d="M585.5,707.188c-11.208-22.104-17.375-25.5-20.75-51.042c-18.125,15.292-54.208,39.917-100.583,40.875
		h-4.042c-46.375-0.958-82.417-25.583-100.583-40.875c-3.375,25.542-9.5,28.938-20.709,51.042c0,0-317.583,27.938-321.916,167.313
		v108.813h440.5h450V874.5C903.083,735.125,585.5,707.188,585.5,707.188z"/>
</g>
</svg>
