<?xml version="1.0" encoding="utf-8"?>
<!-- Generator: Adobe Illustrator 16.0.0, SVG Export Plug-In . SVG Version: 6.00 Build 0)  -->
<!DOCTYPE svg PUBLIC "-//W3C//DTD SVG 1.1//EN" "http://www.w3.org/Graphics/SVG/1.1/DTD/svg11.dtd">
<svg version="1.1" id="Layer_1" xmlns="http://www.w3.org/2000/svg" xmlns:xlink="http://www.w3.org/1999/xlink" x="0px" y="0px"
	 width="1024px" height="1024px" viewBox="0 0 1024 1024" enable-background="new 0 0 1024 1024" xml:space="preserve">
<g>
	<path fill="#414042" d="M635.292,642.729c-11.209-22.104-17.354-25.479-20.729-51.041c-18.125,15.291-54.208,39.938-100.542,40.896
		h-4.063c-46.333-0.958-82.416-25.604-100.541-40.896c-3.375,25.563-9.5,28.938-20.709,51.041c0,0-317.541,27.917-321.875,167.25
		v108.813h440.459h449.854V809.979C952.813,670.646,635.292,642.729,635.292,642.729z"/>
	<path fill="#414042" d="M239.063,337.833h547.5c11.938,0,21.583-9.542,21.583-21.333c0-11.792-9.646-21.334-21.583-21.334h-121.75
		l-17.375-138.438c-2.583-31.791-20.646-51.521-47.125-51.521H418.125c-29.417,0-51.875,22.042-54.5,52.938l-19.5,137.021H239.063
		c-11.896,0-21.563,9.542-21.563,21.334C217.5,328.291,227.167,337.833,239.063,337.833z"/>
	<path fill="#414042" d="M623.5,522.416c21.646-30.041,37.396-68.583,44.417-111.896c0,0,5.813,1.021,11.146-11.594
		c2.875-6.739,4.938-13.094,6.563-19.156H334.604c2.396,9.552,6.188,19.813,12.354,30.75c3.063,5.469,7.5,3.177,7.5,3.177
		c8.979,52.115,30.667,97.031,60,128.24c4.625,4.771,43.604,43.396,96.146,44.375c34.25,0.625,68-15.188,99.521-47.063l0.688-0.813
		c-0.125,0.083-0.229,0.188-0.333,0.291c0.188-0.208,0.375-0.375,0.541-0.604L623.5,522.416z"/>
</g>
</svg>
