<?xml version="1.0" encoding="utf-8"?>
<!-- Generator: Adobe Illustrator 16.0.0, SVG Export Plug-In . SVG Version: 6.00 Build 0)  -->
<!DOCTYPE svg PUBLIC "-//W3C//DTD SVG 1.1//EN" "http://www.w3.org/Graphics/SVG/1.1/DTD/svg11.dtd">
<svg version="1.1" id="Layer_1" xmlns="http://www.w3.org/2000/svg" xmlns:xlink="http://www.w3.org/1999/xlink" x="0px" y="0px"
	 width="1024px" height="1024px" viewBox="0 0 1024 1024" enable-background="new 0 0 1024 1024" xml:space="preserve">
<g>
	<path fill="#414042" d="M627.563,724.146c-10.479-20.667-16.25-23.854-19.417-47.854c-16.979,14.354-50.813,37.438-94.271,38.334
		h-3.813c-43.438-0.896-77.25-23.979-94.271-38.334c-3.125,24-8.896,27.188-19.396,47.854c0,0-297.688,26.167-301.75,156.792
		v102.041h412.896h421.791V880.938C925.271,750.313,627.563,724.146,627.563,724.146z"/>
	<path fill="#414042" d="M248.833,174.114l214.917,72.813c35.938,12.886,60.458,15.458,97.438,3.771l144.958-50.188l99.563,29.063
		v83.167c-3.688,11.417-24.979,77.646-29.166,95.313c-1.375,5.823,2.229,11.677,8.041,13.042c0.834,0.219,1.667,0.291,2.5,0.291
		c4.917,0,9.375-3.333,10.542-8.333c2.292-9.604,10.333-35.667,17.396-58.146l10.292,43.375c1.167,4.958,5.625,8.333,10.563,8.333
		c0.813,0,1.646-0.083,2.479-0.313c5.833-1.333,9.438-7.188,8.063-13.011l-19.021-80.135v-91.709c0-4.833-3.188-9.063-7.813-10.427
		l-78-22.75l62.021-21.489c15.416-3.719,17.271-20.136,4.646-25.709L563.083,51.989c-46.708-19.708-80.166-8.083-97.479-1.917
		l-217.459,78.771C208.313,142.396,202.729,162.125,248.833,174.114z"/>
	<path fill="#414042" d="M699,332.322v-93.104l-131.396,45.5c-42.292,13.354-70.313,10.416-111.438-4.313l-125.521-42.542v95.438
		c0,0,15,44.021,100.271,51.521h187.521C618.438,384.822,679.375,375.469,699,332.322z"/>
	<path fill="#414042" d="M616.521,611.354c20.292-28.146,35.063-64.271,41.646-104.875c0,0,5.438,0.938,10.458-10.896
		c19.438-45.688,5.958-75.448-2.083-87.573c-20.479,8.698-37.792,11.729-41.625,12.313l-3.229,0.5h-3.25H430.917h-1.875
		l-1.854-0.156c-25.083-2.219-45.542-7.302-62.479-13.802c-0.5,2.813-1.313,5.438-1.729,8.313c0,0-3.021-7.083-11.167,0
		c0,0-24.25,38.552,5.438,91.302c2.875,5.084,7.021,2.938,7.021,2.938c8.438,48.854,28.771,91,56.25,120.271
		c4.354,4.458,40.896,40.708,90.188,41.583c32.104,0.604,63.709-14.229,93.292-44.104l0.625-0.791
		c-0.104,0.104-0.208,0.166-0.313,0.291c0.188-0.208,0.354-0.375,0.521-0.583L616.521,611.354z"/>
</g>
</svg>
