<?xml version="1.0" encoding="utf-8"?>
<!-- Generator: Adobe Illustrator 16.0.0, SVG Export Plug-In . SVG Version: 6.00 Build 0)  -->
<!DOCTYPE svg PUBLIC "-//W3C//DTD SVG 1.1//EN" "http://www.w3.org/Graphics/SVG/1.1/DTD/svg11.dtd">
<svg version="1.1" id="Layer_1" xmlns="http://www.w3.org/2000/svg" xmlns:xlink="http://www.w3.org/1999/xlink" x="0px" y="0px"
	 width="1024px" height="1024px" viewBox="0 0 1024 1024" enable-background="new 0 0 1024 1024" xml:space="preserve">
<g>
	<path fill="#414042" d="M510.583,493.041c0,0,144.667,16.167,191.125-150.719V196.947c0,0-30.083-118.458-191.125-110.416
		c0,0-95.416-10.75-130.916,78.135c0,0-51.896-21.594-59.979,32.281v148.042C319.688,344.989,366,498.416,510.583,493.041z"/>
	<polygon fill="#414042" points="898.333,672.083 686.5,557.625 659.25,557.625 570.583,763 529.625,682.125 566.625,632.291 
		532.25,586.166 491.771,586.166 457.375,632.291 494.375,682.125 453.417,763 364.75,557.625 337.5,557.625 125.688,672.083 
		57.083,937.875 966.917,937.875 	"/>
</g>
</svg>
