<?xml version="1.0" encoding="utf-8"?>
<!-- Generator: Adobe Illustrator 16.0.0, SVG Export Plug-In . SVG Version: 6.00 Build 0)  -->
<!DOCTYPE svg PUBLIC "-//W3C//DTD SVG 1.1//EN" "http://www.w3.org/Graphics/SVG/1.1/DTD/svg11.dtd">
<svg version="1.1" id="Layer_1" xmlns="http://www.w3.org/2000/svg" xmlns:xlink="http://www.w3.org/1999/xlink" x="0px" y="0px"
	 width="1024px" height="1024px" viewBox="0 0 1024 1024" enable-background="new 0 0 1024 1024" xml:space="preserve">
<g>
	<path fill="#414042" d="M914.979,654.462c1.771-4.896,1.541-10.188-0.688-14.917c-2.209-4.708-6.125-8.25-10.938-9.979
		c-6.604-2.438-14.229-0.875-19.375,3.563c-7.959-4.709-17.771-7.209-29.604-7.375c-48.229,0-73.667,65.332-74.792,68.312
		c-2.604,7.271-14.75,44.771,2.479,69.291c4.813,6.854,16.188,18.333,38.875,18.396c3.333,0,18.458-0.771,35.521-13.666
		c8.5,10.125,21.417,15.271,38.438,15.271c2.75,0,5.646-0.146,9.146-0.479c1.979-0.25,48.375-7.146,65.021-59.062
		c13.813-43.188,2.125-76.646-0.146-82.374c-1.771-5.313-18.959-52.396-77.104-69.291c-11.333-3.292-23.375-4.959-35.792-4.959
		c-29.625,0-52.916,9.542-56.604,11.188c-7.729,2.792-75.938,29.438-89.625,113.77c-1.104,5.688-9.959,56.813,20.125,100.896
		c19.896,29.166,51.646,47.771,94.313,55.312c2.083,0.375,9.771,1.583,20.979,1.583c25.25,0,62.479-5.854,96.354-33.791
		c4-3.313,6.5-7.979,6.979-13.146c0.5-5.188-1.042-10.25-4.334-14.229c-6.583-8.021-19.396-9.249-27.396-2.666
		c-26.208,21.604-56.479,24.833-72.208,24.833c-8,0-13.146-0.771-13.521-0.854c-31.958-5.666-55.146-18.75-68.938-38.854
		C741,740.356,747.75,700.92,748.083,699.065c10.521-64.833,62.271-83.312,64.021-83.916l2.166-0.833
		c0.188-0.083,18.646-8.167,41.896-8.167c8.729,0,17.063,1.146,24.813,3.396c39.958,11.583,50.583,42.854,51.521,45.541
		c0.396,1.042,9.563,25.458-0.5,56.874c-8.979,28.042-32.063,32.208-32.292,32.271c-1.563,0.146-3.229,0.229-4.916,0.229
		c-6.5,0-8.459-1.375-8.521-1.375c-1.104-1.813-0.333-9.063,1.521-13.854L914.979,654.462z M853.688,709.273
		c-15.292,32.354-32.229,33.542-32.729,33.583c-1.729,0-5.875-0.208-7.041-1.854c-3.938-5.584-1.313-23.667,2.146-33.417
		c6.625-17.333,23.396-42.916,38.333-42.916v-10.666l0.188,10.666c5.229,0.083,9.104,1.125,10.646,2.875
		c1.063,1.208,1.583,3.375,1.688,5.313L853.688,709.273z"/>
	<path fill="#414042" d="M539.938,417.631l331.5-242.935c-1.5-0.229-2.958-0.646-4.542-0.646H88.375L417.25,415.506
		C423.625,420.61,475.125,459.359,539.938,417.631z"/>
	<path fill="#414042" d="M49.75,198.612c-0.833,2.917-1.458,5.917-1.458,9.104v500.162c0,2.563,0.708,4.896,1.291,7.292
		l317.584-283.519L49.75,198.612z"/>
	<path fill="#414042" d="M724.604,548.671c17.041-13.479,34.75-23.666,51.229-29.812c10.188-4.24,41.271-15.667,80.188-15.667
		c15.271,0,30.125,2.146,44.542,5.573v-301.05c0-0.447-0.125-0.896-0.146-1.374l-307.146,225.06L724.604,548.671z"/>
	<path fill="#414042" d="M479.292,479.005c-31.459,0-58.25-10.333-76.667-21.78l-318.5,284.319h561.146
		c-3.313-28.999-0.063-52.083,1.5-60.479c7.021-42.312,24.979-76.249,47.146-102.603L557.313,456.495
		C529.917,472.547,503.292,479.005,479.292,479.005z"/>
</g>
</svg>
