<?xml version="1.0" encoding="utf-8"?>
<!-- Generator: Adobe Illustrator 16.0.0, SVG Export Plug-In . SVG Version: 6.00 Build 0)  -->
<!DOCTYPE svg PUBLIC "-//W3C//DTD SVG 1.1//EN" "http://www.w3.org/Graphics/SVG/1.1/DTD/svg11.dtd">
<svg version="1.1" id="Layer_1" xmlns="http://www.w3.org/2000/svg" xmlns:xlink="http://www.w3.org/1999/xlink" x="0px" y="0px"
	 width="1024px" height="1024px" viewBox="0 0 1024 1024" enable-background="new 0 0 1024 1024" xml:space="preserve">
<g>
	<path fill="#414042" d="M972.458,642.92l-0.666-4.146c-0.542-3.563-1.125-7.146-2-10.667
		c-4.792-19.249-14.542-34.771-28.896-46.187c-9.479-7.521-19.854-12.25-30.896-14.063c-8.917-1.417-18.313-1.583-27.917-0.604
		c-9.958,1.104-19.166,4.084-27.416,8.834c-8.146,4.75-14.729,10.875-19.938,16.416c-7.313-7.833-14.292-13.396-21.854-17.458
		c-8.542-4.583-17.875-7.25-28.5-8.083c-8.792-0.625-16.708-0.417-24.229,0.771c-13.166,2.104-25.146,8.021-35.604,17.625
		c-14.042,12.854-23.021,30.041-26.667,51.041l-0.854,5.667c-0.063,0.479-0.396,3.063-0.396,3.541v17.417
		c0,0.875,0.167,1.875,0.417,2.833c1.041,9.958,3.625,20.063,7.791,30.771v0.083c0.021,0.042,0.042,0.084,0.084,0.146
		c0,0.063,0.021,0.146,0.041,0.229c0.021,0,0.042,0.021,0.042,0.021c3.917,11,9.875,20.125,10,20.313l2.333,3.749
		c1.625,2.688,3.292,5.375,5.042,8c12.375,18.209,27.917,35.5,48.896,54.396c16.104,14.542,34.459,29.021,56.146,44.354
		c2.291,1.604,4.813,2.396,7.333,2.396c2.5,0,5.042-0.813,7.333-2.396c13.75-9.791,25.875-18.937,37.084-28.041
		c19.938-16.291,35.541-31.041,49.125-46.521c10.75-12.271,19.396-24.125,26.375-36.249c0.708-1.229,6.854-11.979,9.688-19.625
		c0-0.021,0.021-0.021,0.021-0.021c0-0.021,0-0.041,0-0.041c0.042-0.063,0.042-0.125,0.083-0.167c0-0.021,0-0.042,0-0.083
		c3.563-9.146,5.938-17.583,7.5-27.563l0.896-24C972.854,644.607,972.708,643.879,972.458,642.92z"/>
	<path fill="#414042" d="M542.792,437.256l331.5-242.936c-1.5-0.219-2.959-0.646-4.542-0.646H91.25l328.833,241.435
		C426.458,440.234,477.958,478.984,542.792,437.256z"/>
	<path fill="#414042" d="M52.583,218.237c-0.833,2.916-1.458,5.927-1.458,9.104v500.162c0,2.563,0.75,4.896,1.333,7.291L370,451.276
		L52.583,218.237z"/>
	<path fill="#414042" d="M775.125,502.63c4.438,0,9.042,0.167,14.229,0.521c16.146,1.271,31.375,5.104,45.354,11.365
		c12.667-5.656,26.292-9.323,40.875-10.928c6.229-0.646,12.459-0.958,18.542-0.958c3.125,0,6.188,0.563,9.292,0.75V227.341
		c0-0.438-0.125-0.896-0.125-1.375L596.125,451.026l91.75,81.905c18.25-14.802,39.458-24.76,62.292-28.406
		C758.25,503.244,766.417,502.63,775.125,502.63z"/>
	<path fill="#414042" d="M660.958,751.753c-2.708-4.25-10.041-16.292-15.666-31.583c-0.167-0.375-0.313-0.813-0.459-1.188
		c-0.083-0.209-0.125-0.375-0.208-0.563c-5.5-14.5-9.063-28.417-10.833-42.438c-0.792-4.333-1.167-8.667-1.167-12.958v-17.417
		c0-4.313,0.417-7.896,0.938-11.813c0.063-0.458,0.125-0.916,0.188-1.375l0.875-5.666c0.042-0.438,0.125-0.834,0.208-1.271
		c3.917-22.666,12.5-43.062,24.417-60.895l-99.083-88.458c-27.417,16.042-54.042,22.5-78.042,22.5
		c-31.417,0-58.25-10.333-76.667-21.771l-318.5,284.31h579.959c-1.354-2.125-2.792-4.333-3.938-6.188L660.958,751.753z"/>
</g>
</svg>
