<?xml version="1.0" encoding="utf-8"?>
<!-- Generator: Adobe Illustrator 16.0.0, SVG Export Plug-In . SVG Version: 6.00 Build 0)  -->
<!DOCTYPE svg PUBLIC "-//W3C//DTD SVG 1.1//EN" "http://www.w3.org/Graphics/SVG/1.1/DTD/svg11.dtd">
<svg version="1.1" id="Layer_1" xmlns="http://www.w3.org/2000/svg" xmlns:xlink="http://www.w3.org/1999/xlink" x="0px" y="0px"
	 width="1024px" height="1024px" viewBox="0 0 1024 1024" enable-background="new 0 0 1024 1024" xml:space="preserve">
<g>
	<path fill="#414042" d="M586.521,103.613c-75.583-48.614-138,2.864-138,2.864l-108.833,89.479h355L586.521,103.613z"/>
	<path fill="#414042" d="M516.854,678.712c-31.459,0-58.25-10.334-76.667-21.792l-318.5,284.331h782.792
		c2.875,0,5.541-0.625,8.208-1.334L594.896,656.212C567.479,672.253,540.854,678.712,516.854,678.712z"/>
	<polygon fill="#414042" points="182.271,320.069 123.521,372.068 182.271,415.037 	"/>
	<polygon fill="#414042" points="854.063,320.069 854.063,415.037 912.771,372.068 	"/>
	<path fill="#414042" d="M87.313,398.329c-0.833,2.927-1.458,5.916-1.458,9.114v500.141c0,2.584,0.708,4.917,1.291,7.292
		l317.584-283.497L87.313,398.329z"/>
	<path fill="#414042" d="M937.979,406.068L630.854,631.129l307.291,274.33V407.443C938.146,406.954,938.021,406.548,937.979,406.068
		z"/>
	<path fill="#414042" d="M297.229,342.559c0-14.364,11.771-26.063,26.25-26.063h375.208c14.5,0,26.25,11.698,26.25,26.063V506.13
		l91.792-67.26v-10.416v-2.792V255.58c0-14.322-8.5-25.874-18.959-25.874H236.104c-10.459,0-18.917,11.552-18.917,25.874
		l-0.25,182.207l80.292,58.937V342.559z"/>
	<path fill="#414042" d="M457.646,615.254c6.084,4.667,59.542,35.708,116.584,1.979l120.458-86.094V347.329l-369.917-2.125
		l0.021,175.687L457.646,615.254z M510.271,367.476c29,0.156,52.146,23.624,52.209,52.479c0.041,28.437-23.771,52.718-53.584,52.197
		c-27.938-0.469-51.208-24.083-51.041-52.489C457.979,390.684,481.438,367.329,510.271,367.476z M488.688,481.245h42.75
		c36.833,0,66.417,31.291,66.417,71.26l-175.584-0.959C422.271,513.744,451.854,481.245,488.688,481.245z"/>
</g>
</svg>
