<?xml version="1.0" encoding="utf-8"?>
<!-- Generator: Adobe Illustrator 16.0.0, SVG Export Plug-In . SVG Version: 6.00 Build 0)  -->
<!DOCTYPE svg PUBLIC "-//W3C//DTD SVG 1.1//EN" "http://www.w3.org/Graphics/SVG/1.1/DTD/svg11.dtd">
<svg version="1.1" id="Layer_1" xmlns="http://www.w3.org/2000/svg" xmlns:xlink="http://www.w3.org/1999/xlink" x="0px" y="0px"
	 width="1024px" height="1024px" viewBox="0 0 1024 1024" enable-background="new 0 0 1024 1024" xml:space="preserve">
<g>
	<path fill="#414042" d="M586.542,103.613c-75.604-48.614-138.021,2.864-138.021,2.864l-108.833,89.479h355L586.542,103.613z"/>
	<path fill="#414042" d="M938,406.068L630.854,631.129l307.291,274.33V407.443C938.146,406.954,938.021,406.548,938,406.068z"/>
	<path fill="#414042" d="M516.854,678.712c-31.438,0-58.25-10.334-76.667-21.792l-318.5,284.331h782.792
		c2.875,0,5.541-0.625,8.208-1.334L594.896,656.212C567.479,672.253,540.854,678.712,516.854,678.712z"/>
	<polygon fill="#414042" points="182.271,320.069 123.542,372.068 182.271,415.037 	"/>
	<polygon fill="#414042" points="854.063,320.069 854.063,415.037 912.792,372.068 	"/>
	<path fill="#414042" d="M87.313,398.329c-0.833,2.927-1.458,5.916-1.458,9.114L87.313,398.329z"/>
	<path fill="#414042" d="M87.313,398.329l-1.458,509.255c0,2.584,0.729,4.917,1.313,7.292l317.563-283.497L87.313,398.329z"/>
	<path fill="#414042" d="M574.25,616.546L816.729,438.87v-10.416v-2.792V255.58c0-14.322-8.479-25.874-18.938-25.874H236.125
		c-10.458,0-18.938,11.552-18.938,25.874l-0.25,182.207l240.729,176.717C463.729,619.399,517.188,651.754,574.25,616.546z
		 M617.396,415.662l11.459-10.375c10.979-9.813,18.271-17.396,31.354-17.396v130.655c-13.583,0-18.313-4.271-31.354-14.917
		l-11.459-10.364V415.662z M586.625,419.308h20.5v67.854h-20.5V419.308z M531.229,297.569c22.041,0,39.896,17.875,39.896,39.885
		c0,22.084-17.854,39.938-39.896,39.938c-22.021,0-39.917-17.854-39.917-39.938C491.313,315.444,509.208,297.569,531.229,297.569z
		 M431.938,297.569c22.063,0,39.917,17.875,39.917,39.885c0,22.084-17.854,39.938-39.917,39.938
		c-22.042,0-39.917-17.854-39.917-39.938C392.021,315.444,409.896,297.569,431.938,297.569z M385.021,390.787h191.542v124.854
		H385.021V390.787z"/>
</g>
</svg>
