<?xml version="1.0" encoding="utf-8"?>
<!-- Generator: Adobe Illustrator 16.0.0, SVG Export Plug-In . SVG Version: 6.00 Build 0)  -->
<!DOCTYPE svg PUBLIC "-//W3C//DTD SVG 1.1//EN" "http://www.w3.org/Graphics/SVG/1.1/DTD/svg11.dtd">
<svg version="1.1" id="Layer_1" xmlns="http://www.w3.org/2000/svg" xmlns:xlink="http://www.w3.org/1999/xlink" x="0px" y="0px"
	 width="1024px" height="1024px" viewBox="0 0 1024 1024" enable-background="new 0 0 1024 1024" xml:space="preserve">
<g>
	<path fill="#414042" d="M513.063,788.272c-11.792,0-21.333,9.521-21.333,21.334v115.27c0,11.791,9.541,21.333,21.333,21.333
		s21.333-9.542,21.333-21.333v-115.27C534.396,797.794,524.854,788.272,513.063,788.272z"/>
	<path fill="#414042" d="M504.313,746.919V433.828c0-95.874-85.833-173.852-191.333-173.852s-191.313,77.978-191.313,173.852
		v313.091c0,5.917,4.771,10.667,10.666,10.667h361.313C499.542,757.586,504.313,752.836,504.313,746.919z M421.646,713.086H200.313
		c-11.792,0-21.333-9.541-21.333-21.333c0-11.791,9.541-21.333,21.333-21.333h221.333c11.792,0,21.334,9.542,21.334,21.333
		C442.979,703.545,433.438,713.086,421.646,713.086z"/>
	<path fill="#414042" d="M711,259.977h-87.354v-44.292h180.667c11.792,0,21.333-9.541,21.333-21.333V99.103
		c0-11.791-9.541-21.333-21.333-21.333h-202c-11.792,0-21.333,9.542-21.333,21.333v116.582v44.292h-147.5
		c69.021,32.291,116.479,97.999,116.479,173.852v313.091c0,3.75-0.771,7.333-1.958,10.667h343.646
		c5.896,0,10.667-4.75,10.667-10.667V433.828C902.313,337.954,816.5,259.977,711,259.977z"/>
</g>
</svg>
