<?xml version="1.0" encoding="utf-8"?>
<!-- Generator: Adobe Illustrator 16.0.0, SVG Export Plug-In . SVG Version: 6.00 Build 0)  -->
<!DOCTYPE svg PUBLIC "-//W3C//DTD SVG 1.1//EN" "http://www.w3.org/Graphics/SVG/1.1/DTD/svg11.dtd">
<svg version="1.1" id="Layer_1" xmlns="http://www.w3.org/2000/svg" xmlns:xlink="http://www.w3.org/1999/xlink" x="0px" y="0px"
	 width="1024px" height="1024px" viewBox="0 0 1024 1024" enable-background="new 0 0 1024 1024" xml:space="preserve">
<g>
	<path fill="#414042" d="M278.813,314.027h466.354c5.896,0,10.666-3.833,10.666-8.563v-69.957c0-4.729-4.771-8.563-10.666-8.563
		H278.813c-5.896,0-10.667,3.833-10.667,8.563v69.957C268.146,310.194,272.917,314.027,278.813,314.027z"/>
	<path fill="#414042" d="M539.125,23.03h-54.292c-101.521,0-184.354,81.563-186.438,182.582h427.167
		C723.479,104.593,640.646,23.03,539.125,23.03z"/>
	<path fill="#414042" d="M752.375,875.418h-480.75c-5.896,0-10.667,3.521-10.667,7.854v109.833c0,4.333,4.771,7.854,10.667,7.854
		h480.75c5.896,0,10.667-3.521,10.667-7.854V883.271C763.042,878.938,758.271,875.418,752.375,875.418z"/>
	<polygon fill="#414042" points="419.167,602.691 419.167,690.878 477.708,643.545 	"/>
	<path fill="#414042" d="M309.021,340.319c-5.896,0-10.666,4.541-10.666,10.146v491.453c0,5.604,4.771,10.125,10.666,10.125h405.917
		c5.896,0,10.667-4.521,10.667-10.125V350.465c0-5.604-4.771-10.146-10.667-10.146H309.021z M626.229,706.753
		c0,9.875-8.459,17.916-18.854,17.916H416.667c-10.375,0-18.834-8.041-18.834-17.916V591.171c0-5.542,2.813-10.313,6.979-13.625
		c0.833-0.688,1.667-1.271,2.646-1.667c2.771-1.541,5.792-2.646,9.209-2.646h190.708c4.313,0,8.125,1.625,11.313,3.979
		c0.25,0.125,0.458,0.271,0.708,0.438c0.646,0.521,1.292,1,1.854,1.625c0.271,0.271,0.625,0.438,0.875,0.75
		c0.354,0.479,0.458,1,0.729,1.521c1.958,2.792,3.375,6,3.375,9.625V706.753z M615.563,476.359H408.458
		c-5.896,0-10.666-4.511-10.666-10.146c0-5.594,4.771-10.125,10.666-10.125h207.104c5.896,0,10.667,4.531,10.667,10.125
		C626.229,471.849,621.458,476.359,615.563,476.359z"/>
	<path fill="#414042" d="M513.208,658.857c-6.625,0-12.375-1.583-17.063-3.583l-60.729,49.104h154.25l-58.375-49.479
		C524.958,657.732,518.833,658.857,513.208,658.857z"/>
	<path fill="#414042" d="M525,635.17l59.729-41.666H442.083l59.125,41.291C502.667,635.92,512.646,642.754,525,635.17z"/>
	<polygon fill="#414042" points="604.896,690.107 604.896,604.608 549.542,643.191 	"/>
</g>
</svg>
