<?xml version="1.0" encoding="utf-8"?>
<!-- Generator: Adobe Illustrator 16.0.0, SVG Export Plug-In . SVG Version: 6.00 Build 0)  -->
<!DOCTYPE svg PUBLIC "-//W3C//DTD SVG 1.1//EN" "http://www.w3.org/Graphics/SVG/1.1/DTD/svg11.dtd">
<svg version="1.1" id="Layer_1" xmlns="http://www.w3.org/2000/svg" xmlns:xlink="http://www.w3.org/1999/xlink" x="0px" y="0px"
	 width="1024px" height="1024px" viewBox="0 0 1024 1024" enable-background="new 0 0 1024 1024" xml:space="preserve">
<g>
	<path fill="#414042" d="M938,260.539l-307.146,225.06l307.291,274.362V261.914C938.146,261.455,938.021,261.018,938,260.539z"/>
	<path fill="#414042" d="M577.521,471.828l331.5-242.935c-1.5-0.229-2.958-0.656-4.541-0.656H125.958l328.854,241.445
		C461.188,474.817,512.688,513.567,577.521,471.828z"/>
	<path fill="#414042" d="M87.313,252.81c-0.833,2.917-1.458,5.917-1.458,9.104v500.172c0,2.541,0.729,4.875,1.313,7.291
		l317.563-283.518L87.313,252.81z"/>
	<path fill="#414042" d="M516.854,533.202c-31.438,0-58.25-10.333-76.667-21.791l-318.5,284.341h782.792
		c2.875,0,5.541-0.667,8.208-1.333L594.896,510.703C567.479,526.744,540.854,533.202,516.854,533.202z"/>
</g>
</svg>
