<?xml version="1.0" encoding="utf-8"?>
<!-- Generator: Adobe Illustrator 16.0.0, SVG Export Plug-In . SVG Version: 6.00 Build 0)  -->
<!DOCTYPE svg PUBLIC "-//W3C//DTD SVG 1.1//EN" "http://www.w3.org/Graphics/SVG/1.1/DTD/svg11.dtd">
<svg version="1.1" id="Layer_1" xmlns="http://www.w3.org/2000/svg" xmlns:xlink="http://www.w3.org/1999/xlink" x="0px" y="0px"
	 width="1024px" height="1024px" viewBox="0 0 1024 1024" enable-background="new 0 0 1024 1024" xml:space="preserve">
<path fill="#414042" d="M967.563,201.998H56.438c-7.438,0-13.458,5.999-13.458,13.437v593.109c0,7.416,6.021,13.458,13.458,13.458
	h911.125c7.458,0,13.458-6.042,13.458-13.458V215.435C981.021,207.997,975.021,201.998,967.563,201.998z M321.396,588.129H156.229
	c-11.771,0-21.334-9.541-21.334-21.333c0-11.75,9.563-21.333,21.334-21.333h165.166c11.771,0,21.334,9.583,21.334,21.333
	C342.729,578.588,333.167,588.129,321.396,588.129z M401.208,474.703H149.021c-11.791,0-21.333-9.563-21.333-21.333
	c0-11.823,9.542-21.333,21.333-21.333h252.188c11.771,0,21.334,9.51,21.334,21.333C422.542,465.141,412.979,474.703,401.208,474.703
	z M476.604,361.121H149.021c-11.791,0-21.333-9.542-21.333-21.333c0-11.771,9.542-21.333,21.333-21.333h327.584
	c11.771,0,21.333,9.563,21.333,21.333C497.938,351.579,488.375,361.121,476.604,361.121z M874.563,537.9
	c0,7.438-6,13.438-13.458,13.438H682.438c-7.417,0-13.458-6-13.458-13.438V339.788c0-7.438,6.041-13.458,13.458-13.458h178.667
	c7.458,0,13.458,6.021,13.458,13.458V537.9z"/>
</svg>
