<?xml version="1.0" encoding="utf-8"?>
<!-- Generator: Adobe Illustrator 16.0.0, SVG Export Plug-In . SVG Version: 6.00 Build 0)  -->
<!DOCTYPE svg PUBLIC "-//W3C//DTD SVG 1.1//EN" "http://www.w3.org/Graphics/SVG/1.1/DTD/svg11.dtd">
<svg version="1.1" id="Layer_1" xmlns="http://www.w3.org/2000/svg" xmlns:xlink="http://www.w3.org/1999/xlink" x="0px" y="0px"
	 width="1024px" height="1024px" viewBox="0 0 1024 1024" enable-background="new 0 0 1024 1024" xml:space="preserve">
<g>
	<path fill="#414042" d="M241.968,530.809H35.793c-11.586,0-20.999,9.393-20.999,21c0,11.586,9.413,20.998,20.999,20.998h206.175
		c11.606,0,20.999-9.412,20.999-20.998C262.967,540.201,253.574,530.809,241.968,530.809z"/>
	<path fill="#414042" d="M241.968,612.589H77.996c-11.586,0-20.999,9.393-20.999,20.999s9.413,20.998,20.999,20.998h163.972
		c11.606,0,20.999-9.392,20.999-20.998S253.574,612.589,241.968,612.589z"/>
	<path fill="#414042" d="M241.968,694.39H114.006c-11.587,0-21,9.391-21,20.998c0,11.606,9.413,20.999,21,20.999h127.962
		c11.606,0,20.999-9.393,20.999-20.999C262.967,703.78,253.574,694.39,241.968,694.39z"/>
	<path fill="#414042" d="M1009.062,299.784l-259.226,189.93l259.349,231.559V300.922
		C1009.185,300.542,1009.081,300.173,1009.062,299.784z"/>
	<path fill="#414042" d="M704.823,478.087l279.773-205.023c-1.251-0.206-2.481-0.553-3.814-0.553H323.707l277.538,203.772
		C606.638,480.609,650.093,513.316,704.823,478.087z"/>
	<path fill="#414042" d="M291.102,293.241c-0.717,2.461-1.23,4.983-1.23,7.681v422.136c0,2.152,0.615,4.143,1.107,6.151
		l268.022-239.3L291.102,293.241z"/>
	<path fill="#414042" d="M653.619,529.886c-26.536,0-49.154-8.714-64.699-18.394L320.099,751.479h660.684
		c2.42,0,4.676-0.554,6.932-1.128L719.486,510.897C696.355,524.452,673.879,529.886,653.619,529.886z"/>
</g>
</svg>
