<?xml version="1.0" encoding="utf-8"?>
<!-- Generator: Adobe Illustrator 16.0.0, SVG Export Plug-In . SVG Version: 6.00 Build 0)  -->
<!DOCTYPE svg PUBLIC "-//W3C//DTD SVG 1.1//EN" "http://www.w3.org/Graphics/SVG/1.1/DTD/svg11.dtd">
<svg version="1.1" id="Layer_1" xmlns="http://www.w3.org/2000/svg" xmlns:xlink="http://www.w3.org/1999/xlink" x="0px" y="0px"
	 width="1024px" height="1024px" viewBox="0 0 1024 1024" enable-background="new 0 0 1024 1024" xml:space="preserve">
<g>
	<path fill="#414042" d="M510.917,430.558l331.5-242.935c-1.5-0.229-2.959-0.636-4.542-0.636H59.333l328.875,241.425
		C394.583,433.547,446.083,472.297,510.917,430.558z"/>
	<path fill="#414042" d="M20.708,211.539c-0.833,2.917-1.458,5.917-1.458,9.104v500.15c0,2.584,0.708,4.917,1.292,7.313
		l317.583-283.518L20.708,211.539z"/>
	<path fill="#414042" d="M692.875,616.379L528.292,469.433c-27.417,16.041-54.042,22.5-78.042,22.5
		c-31.458,0-58.25-10.334-76.667-21.792l-318.5,284.32h569.459c-4.959-12.042-7.792-25.208-7.792-39.041
		C616.75,667.962,649.167,628.295,692.875,616.379z"/>
	<path fill="#414042" d="M1004.417,715.17c-0.167-4.25-0.917-8.396-2.5-12.417c-0.75-1.833-1.959-3.375-2.959-5.042
		c-1.166-2.041-1.916-4.166-3.458-6.041l-72.208-84.333c-13.834-16.124-38.167-18.041-54.334-4.208
		c-16.166,13.792-18.041,38.125-4.208,54.291l17.833,20.792H718.625c-21.25,0-38.5,17.291-38.5,38.541s17.25,38.499,38.5,38.499
		h162.167l-15.625,17.709c-14.084,15.916-12.584,40.291,3.333,54.354c7.333,6.479,16.417,9.688,25.5,9.688
		c10.667,0,21.25-4.417,28.875-13.042l72.208-81.749c1.75-1.917,2.667-4.25,3.917-6.458c0.958-1.625,2.167-2.979,2.833-4.709
		c1.834-4.583,2.875-9.333,2.875-14.166c0-0.042,0.042-0.042,0.042-0.125C1004.75,716.17,1004.458,715.711,1004.417,715.17z"/>
	<path fill="#414042" d="M752.458,612.379h41.167c4.417-22.521,16.083-42.791,33.708-57.874
		c12.75-10.917,28.042-18.167,44.209-21.844V220.644c0-0.459-0.125-0.896-0.167-1.375L564.25,444.328L752.458,612.379z"/>
</g>
</svg>
