<?xml version="1.0" encoding="utf-8"?>
<!-- Generator: Adobe Illustrator 16.0.0, SVG Export Plug-In . SVG Version: 6.00 Build 0)  -->
<!DOCTYPE svg PUBLIC "-//W3C//DTD SVG 1.1//EN" "http://www.w3.org/Graphics/SVG/1.1/DTD/svg11.dtd">
<svg version="1.1" id="Layer_1" xmlns="http://www.w3.org/2000/svg" xmlns:xlink="http://www.w3.org/1999/xlink" x="0px" y="0px"
	 width="1024px" height="1024px" viewBox="0 0 1024 1024" enable-background="new 0 0 1024 1024" xml:space="preserve">
<g>
	<path fill="#414042" d="M504.708,430.767l331.5-242.956c-1.5-0.209-2.958-0.625-4.541-0.625h-778.5L382,428.6
		C388.375,433.734,439.875,472.474,504.708,430.767z"/>
	<path fill="#414042" d="M14.5,211.727c-0.833,2.917-1.458,5.917-1.458,9.125v500.151c0,2.541,0.75,4.875,1.333,7.291
		l317.542-283.518L14.5,211.727z"/>
	<path fill="#414042" d="M972.458,678.045H808.5l17.833-20.833c13.834-16.167,11.959-40.5-4.208-54.291
		c-16.167-13.833-40.5-11.917-54.333,4.208l-72.209,84.374c-1.541,1.833-2.291,4-3.458,6.021c-1,1.688-2.208,3.209-2.958,5.042
		c-1.584,4.021-2.334,8.188-2.5,12.396c-0.042,0.584-0.334,1.042-0.334,1.584c0,0.083,0.042,0.083,0.042,0.125
		c0,4.833,1.042,9.624,2.875,14.166c0.667,1.75,1.875,3.083,2.833,4.708c1.25,2.229,2.167,4.542,3.917,6.5l72.208,81.708
		c7.625,8.625,18.209,13.041,28.875,13.041c9.084,0,18.167-3.208,25.5-9.666c15.917-14.083,17.417-38.458,3.334-54.375
		l-15.625-17.708h162.166c21.25,0,38.5-17.208,38.5-38.499C1010.958,695.295,993.708,678.045,972.458,678.045z"/>
	<path fill="#414042" d="M708.083,578.463l11.084-12.959c19.5-22.749,47.916-35.822,77.916-35.822
		c24.417,0,48.084,8.739,66.625,24.614c0.584,0.5,1.042,1.125,1.625,1.667V220.852c0-0.448-0.125-0.917-0.125-1.375L558.042,444.516
		L708.083,578.463z"/>
	<path fill="#414042" d="M444.042,492.141c-31.417,0-58.25-10.333-76.667-21.781l-318.5,284.31h581
		c-0.125-0.333-0.25-0.563-0.417-0.917c-4.166-10.333-6.625-21.916-7-33.666c-0.083-1.166-0.125-2.375-0.125-3.541
		c0-3,0.25-6.146,0.709-9.334c0.875-9.666,3.041-19,6.458-27.771c2.708-6.688,5.375-11.229,7.125-13.938
		c1.833-3.583,5-9.291,10.042-15.229l33.666-39.396l-158.25-141.238C494.667,485.683,468.042,492.141,444.042,492.141z"/>
</g>
</svg>
