<?xml version="1.0" encoding="utf-8"?>
<!-- Generator: Adobe Illustrator 16.0.0, SVG Export Plug-In . SVG Version: 6.00 Build 0)  -->
<!DOCTYPE svg PUBLIC "-//W3C//DTD SVG 1.1//EN" "http://www.w3.org/Graphics/SVG/1.1/DTD/svg11.dtd">
<svg version="1.1" id="Layer_1" xmlns="http://www.w3.org/2000/svg" xmlns:xlink="http://www.w3.org/1999/xlink" x="0px" y="0px"
	 width="1024px" height="1024px" viewBox="0 0 1024 1024" enable-background="new 0 0 1024 1024" xml:space="preserve">
<g>
	<path fill="#414042" d="M970.583,615.546l-84.354-72.208c-1.854-1.583-3.979-2.333-6.021-3.5c-1.688-1-3.208-2.208-5.041-2.958
		c-4.021-1.542-8.188-2.334-12.417-2.5c-0.563,0-1.021-0.292-1.583-0.292c-0.063,0-0.084,0.042-0.125,0.042
		c-4.834,0-9.604,1-14.167,2.833c-1.729,0.667-3.083,1.875-4.708,2.833c-2.209,1.25-4.542,2.209-6.479,3.917l-81.729,72.208
		c-8.625,7.625-13.021,18.208-13.021,28.874c0,9.084,3.188,18.167,9.667,25.5c14.063,15.917,38.438,17.458,54.354,3.375
		l17.709-15.667v162.165c0,21.25,17.229,38.5,38.5,38.5c21.25,0,38.521-17.25,38.521-38.5V656.212l20.813,17.833
		c16.167,13.833,40.5,11.958,54.292-4.208C988.625,653.67,986.708,629.337,970.583,615.546z"/>
	<path fill="#414042" d="M531.604,408.923l331.5-242.956c-1.5-0.229-2.959-0.646-4.542-0.646H80.021l328.875,241.435
		C415.271,411.881,466.771,450.641,531.604,408.923z"/>
	<path fill="#414042" d="M41.396,189.883c-0.833,2.917-1.458,5.917-1.458,9.104v500.161c0,2.584,0.708,4.896,1.292,7.271
		l317.583-283.497L41.396,189.883z"/>
	<path fill="#414042" d="M809.333,484.776c2.896-1.917,7.771-4.917,13.688-7.188c11.188-4.479,22.792-7,34.542-7.396
		c1.208-0.063,2.417-0.104,3.604-0.104c3.229,0,6.416,0.229,9.583,0.708c7.354,0.667,14.5,2.333,21.479,4.542V198.987
		c0-0.458-0.125-0.896-0.167-1.375L584.938,422.673l144.792,129.27l63.625-56.229C799.729,490.099,805.792,486.651,809.333,484.776z
		"/>
	<path fill="#414042" d="M702.646,712.67c-16.583-18.75-25.708-42.875-25.708-67.875c0-23.083,8.042-45.166,22.083-63.082
		L548.979,447.766c-27.417,16.053-54.042,22.511-78.042,22.511c-31.458,0-58.25-10.333-76.667-21.792l-318.5,284.331h651.334
		C718.063,727.44,709.75,720.711,702.646,712.67z"/>
</g>
</svg>
