<?xml version="1.0" encoding="utf-8"?>
<!-- Generator: Adobe Illustrator 16.0.0, SVG Export Plug-In . SVG Version: 6.00 Build 0)  -->
<!DOCTYPE svg PUBLIC "-//W3C//DTD SVG 1.1//EN" "http://www.w3.org/Graphics/SVG/1.1/DTD/svg11.dtd">
<svg version="1.1" id="Layer_1" xmlns="http://www.w3.org/2000/svg" xmlns:xlink="http://www.w3.org/1999/xlink" x="0px" y="0px"
	 width="1024px" height="1024px" viewBox="0 0 1024 1024" enable-background="new 0 0 1024 1024" xml:space="preserve">
<g>
	<path fill="#414042" d="M985.458,717.295c-13.791-16.188-38.125-18.042-54.291-4.209l-20.813,17.833V566.963
		c0-21.25-17.271-38.511-38.521-38.511c-21.271,0-38.5,17.261-38.5,38.511v162.165l-17.708-15.667
		c-15.917-14.104-40.292-12.541-54.354,3.375c-6.479,7.333-9.666,16.417-9.666,25.5c0,10.666,4.396,21.25,13.021,28.875
		l81.729,72.207c1.938,1.688,4.271,2.667,6.479,3.917c1.625,0.958,2.979,2.166,4.709,2.833c4.563,1.833,9.333,2.833,14.166,2.833
		c0.042,0,0.063,0.042,0.125,0.042c0.563,0,1.021-0.292,1.584-0.292c4.229-0.166,8.396-0.958,12.416-2.5
		c1.834-0.75,3.354-1.958,5.042-2.958c2.042-1.166,4.167-1.916,6.021-3.5l84.354-72.207
		C997.375,757.794,999.292,733.461,985.458,717.295z"/>
	<path fill="#414042" d="M520.938,414.548l331.5-242.936c-1.5-0.25-2.958-0.656-4.542-0.656H69.375l328.854,241.436
		C404.604,417.517,456.104,456.266,520.938,414.548z"/>
	<path fill="#414042" d="M30.729,195.519c-0.834,2.917-1.459,5.927-1.459,9.104v500.172c0,2.541,0.729,4.875,1.313,7.291
		l317.563-283.518L30.729,195.519z"/>
	<path fill="#414042" d="M769.333,602.462v-35.499c0-56.531,45.979-102.51,102.5-102.51c3.334,0,6.479,0.667,9.729,0.979v-260.81
		c0-0.459-0.125-0.896-0.146-1.375l-307.146,225.06L769.333,602.462z"/>
	<path fill="#414042" d="M538.313,453.412c-27.417,16.041-54.042,22.499-78.042,22.499c-31.438,0-58.25-10.344-76.666-21.791
		l-318.5,284.32h622.854c0.896-23.563,9.646-46.208,25.354-64c11.271-12.771,25.458-22.312,41.083-28.104L538.313,453.412z"/>
</g>
</svg>
