<?xml version="1.0" encoding="utf-8"?>
<!-- Generator: Adobe Illustrator 16.0.0, SVG Export Plug-In . SVG Version: 6.00 Build 0)  -->
<!DOCTYPE svg PUBLIC "-//W3C//DTD SVG 1.1//EN" "http://www.w3.org/Graphics/SVG/1.1/DTD/svg11.dtd">
<svg version="1.1" id="Layer_1" xmlns="http://www.w3.org/2000/svg" xmlns:xlink="http://www.w3.org/1999/xlink" x="0px" y="0px"
	 width="1024px" height="1024px" viewBox="0 0 1024 1024" enable-background="new 0 0 1024 1024" xml:space="preserve">
<g>
	<path fill="#414042" d="M87.313,361.496c-0.833,2.917-1.458,5.917-1.458,9.125v500.172c0,2.542,0.708,4.875,1.291,7.25
		l317.584-283.497L87.313,361.496z"/>
	<path fill="#414042" d="M516.854,641.899c-31.459,0-58.25-10.313-76.667-21.813l-318.5,284.372h782.792
		c2.875,0,5.541-0.688,8.208-1.333L594.896,619.421C567.479,635.462,540.854,641.899,516.854,641.899z"/>
	<path fill="#414042" d="M583.438,532.213h96c29.958,0,47.125-16.927,47.125-46.427V227.622c0-25.583-19.458-39.416-38-39.416
		l-35.625,0.458c-25.292,1.511-40.542,19.229-39.792,45.667l-0.125,202.081c0,11.791,9.542,21.333,21.334,21.333
		c11.791,0,21.333-9.542,21.333-21.313l0.125-202.686c-0.042-1,0-1.833,0.042-2.458l28.041-0.386v254.883
		c0,1.563-0.083,2.719-0.166,3.5c-0.834,0.125-2.084,0.261-3.75,0.271c0,0-95.584,0-95.667,0
		c-0.167-2.688,0.292-16.438,0.292-18.771l0.208-268.247c0-37.354,12.333-40.333,28.458-40.333l111.875-0.021
		c17.125,1.104,25.459,17.104,24.875,47.947l0.459,111.113c0.041,11.792,9.583,21.25,21.333,21.25c0.042,0,0.083,0,0.083,0
		c11.792-0.042,21.292-9.625,21.25-21.416l-0.458-110.635c1.042-54.114-23.125-88.093-66.125-90.905H613.271
		c-32.416,0-71.125,14.417-71.125,82.979l-0.208,268.268c0,1.761-0.083,3.625-0.167,5.542c-0.458,11.25-1.125,30.708,10.709,43.416
		C559.938,527.682,570.313,531.88,583.438,532.213z"/>
	<path fill="#414042" d="M554.979,592.129c-19.042-4.958-35.875-14.416-49.292-28.708c-30.167-32.344-28.5-74.01-27.833-90.01
		l0.083-2.656l0.125-133.801H125.938l328.875,241.425C460.438,582.9,501.063,613.421,554.979,592.129z"/>
	<path fill="#414042" d="M937.979,369.246l-147.417,108.02v8.521c0,65.01-45.667,110.426-111.125,110.426h-46.458l305.166,272.456
		V370.621C938.146,370.142,938.021,369.704,937.979,369.246z"/>
	<path fill="#414042" d="M790.563,424.37l118.458-86.801c-1.5-0.219-2.958-0.615-4.541-0.615h-48.875
		c-6.292,33.292-31.917,59.917-65.042,67.416V424.37z"/>
</g>
</svg>
