<?xml version="1.0" encoding="utf-8"?>
<!-- Generator: Adobe Illustrator 16.0.0, SVG Export Plug-In . SVG Version: 6.00 Build 0)  -->
<!DOCTYPE svg PUBLIC "-//W3C//DTD SVG 1.1//EN" "http://www.w3.org/Graphics/SVG/1.1/DTD/svg11.dtd">
<svg version="1.1" id="Layer_1" xmlns="http://www.w3.org/2000/svg" xmlns:xlink="http://www.w3.org/1999/xlink" x="0px" y="0px"
	 width="1024px" height="1024px" viewBox="0 0 1024 1024" enable-background="new 0 0 1024 1024" xml:space="preserve">
<g>
	<path fill="#414042" d="M580.833,611.587L930.75,355.184L609.083,91.415c-26.188-17.771-54.479-26.771-84.104-26.771
		c-49.979,0-85.959,26.146-87.75,27.458L98.208,351.226l353.063,257.945C454.563,611.796,511.354,656.295,580.833,611.587z"/>
	<path fill="#414042" d="M957.688,390.902L636.292,626.379l322.25,287.185c0.521-3.021,0.938-6.063,0.938-9.229V404.183
		C959.479,399.267,958.708,394.934,957.688,390.902z"/>
	<path fill="#414042" d="M517.146,675.878c-31.521,0-58.646-9.708-77.541-20.624L91.313,951.334c8.271,4.958,17.854,8,28.208,8
		h784.959c10.604,0,20.438-3.167,28.833-8.375L598.542,652.67C570.021,669.212,542.167,675.878,517.146,675.878z"/>
	<path fill="#414042" d="M70.771,386.6c-0.771-0.563-1.166-1.364-1.854-2.021c-2.521,5.854-4.396,12.458-4.396,19.604v500.151
		c0,3.5,0.417,6.875,1.021,10.167l336.438-285.956L70.771,386.6z"/>
</g>
</svg>
