<?xml version="1.0" encoding="utf-8"?>
<!-- Generator: Adobe Illustrator 16.0.0, SVG Export Plug-In . SVG Version: 6.00 Build 0)  -->
<!DOCTYPE svg PUBLIC "-//W3C//DTD SVG 1.1//EN" "http://www.w3.org/Graphics/SVG/1.1/DTD/svg11.dtd">
<svg version="1.1" id="Layer_1" xmlns="http://www.w3.org/2000/svg" xmlns:xlink="http://www.w3.org/1999/xlink" x="0px" y="0px"
	 width="1024px" height="1024px" viewBox="0 0 1024 1024" enable-background="new 0 0 1024 1024" xml:space="preserve">
<g>
	<path fill="#414042" d="M586.542,103.613c-75.604-48.614-138.021,2.864-138.021,2.864l-108.833,89.468h355L586.542,103.613z"/>
	<path fill="#414042" d="M938,406.048l-307.146,225.06l307.291,274.352V407.423C938.146,406.943,938.021,406.526,938,406.048z"/>
	<path fill="#414042" d="M516.854,678.712c-31.438,0-58.25-10.334-76.667-21.813l-318.5,284.352h782.792
		c2.875,0,5.541-0.646,8.208-1.334L594.896,656.212C567.479,672.253,540.854,678.712,516.854,678.712z"/>
	<polygon fill="#414042" points="182.271,320.059 123.542,372.068 182.271,415.026 	"/>
	<polygon fill="#414042" points="854.063,320.059 854.063,415.026 912.792,372.068 	"/>
	<path fill="#414042" d="M574.25,616.546l242.479-177.687v-10.416v-2.792V255.57c0-14.334-8.479-25.875-18.938-25.875H236.125
		c-10.458,0-18.938,11.541-18.938,25.875l-0.25,182.206l240.729,176.728C463.729,619.379,517.188,651.732,574.25,616.546z
		 M317.854,290.861h397.333c11.792,0,21.333,9.542,21.333,21.333c0,11.781-9.541,21.333-21.333,21.333H317.854
		c-11.792,0-21.334-9.552-21.334-21.333C296.521,300.403,306.063,290.861,317.854,290.861z M297.146,417.673
		c0-11.771,9.542-21.333,21.334-21.333h397.333c11.792,0,21.333,9.562,21.333,21.333c0,11.771-9.541,21.333-21.333,21.333H318.479
		C306.688,439.006,297.146,429.443,297.146,417.673z"/>
	<polygon fill="#414042" points="85.854,406.048 87.167,914.854 404.729,631.357 	"/>
</g>
</svg>
