<?xml version="1.0" encoding="utf-8"?>
<!-- Generator: Adobe Illustrator 16.0.0, SVG Export Plug-In . SVG Version: 6.00 Build 0)  -->
<!DOCTYPE svg PUBLIC "-//W3C//DTD SVG 1.1//EN" "http://www.w3.org/Graphics/SVG/1.1/DTD/svg11.dtd">
<svg version="1.1" id="Layer_1" xmlns="http://www.w3.org/2000/svg" xmlns:xlink="http://www.w3.org/1999/xlink" x="0px" y="0px"
	 width="1024px" height="1024px" viewBox="0 0 1024 1024" enable-background="new 0 0 1024 1024" xml:space="preserve">
<g>
	<path fill="#414042" d="M965.354,717.628h-245.25c-21.584,0-39.042,17.479-39.042,39.062c0,21.542,17.458,39.042,39.042,39.042
		h245.25c21.583,0,39.083-17.5,39.083-39.042C1004.438,735.106,986.938,717.628,965.354,717.628z"/>
	<path fill="#414042" d="M511.229,471.817l331.5-242.935c-1.5-0.229-2.959-0.636-4.542-0.636H59.667l328.854,241.425
		C394.896,474.797,446.396,513.547,511.229,471.817z"/>
	<path fill="#414042" d="M21.021,252.799c-0.833,2.928-1.458,5.917-1.458,9.104v500.161c0,2.563,0.729,4.896,1.313,7.292
		l317.563-283.508L21.021,252.799z"/>
	<path fill="#414042" d="M752.771,653.629h119.084V261.903c0-0.458-0.125-0.896-0.146-1.386L564.563,485.589L752.771,653.629z"/>
	<path fill="#414042" d="M693.208,657.67L528.604,510.692c-27.417,16.042-54.042,22.5-78.042,22.5
		c-31.438,0-58.25-10.333-76.667-21.792l-318.5,284.331h569.459c-4.959-12.063-7.792-25.208-7.792-39.042
		C617.063,709.232,649.479,669.565,693.208,657.67z"/>
</g>
</svg>
