<?xml version="1.0" encoding="utf-8"?>
<!-- Generator: Adobe Illustrator 16.0.0, SVG Export Plug-In . SVG Version: 6.00 Build 0)  -->
<!DOCTYPE svg PUBLIC "-//W3C//DTD SVG 1.1//EN" "http://www.w3.org/Graphics/SVG/1.1/DTD/svg11.dtd">
<svg version="1.1" id="Layer_1" xmlns="http://www.w3.org/2000/svg" xmlns:xlink="http://www.w3.org/1999/xlink" x="0px" y="0px"
	 width="1024px" height="1024px" viewBox="0 0 1024 1024" enable-background="new 0 0 1024 1024" xml:space="preserve">
<g>
	<path fill="#414042" d="M21.021,196.623c-0.833,2.916-1.458,5.916-1.458,9.104v500.151c0,2.583,0.729,4.917,1.313,7.292
		l317.563-283.508L21.021,196.623z"/>
	<path fill="#414042" d="M511.229,415.642l331.5-242.936c-1.5-0.229-2.959-0.646-4.542-0.646H59.667l328.854,241.435
		C394.896,418.62,446.396,457.37,511.229,415.642z"/>
	<path fill="#414042" d="M965.375,651.17h-83.583v-83.541c0-21.583-17.479-39.072-39.063-39.072
		c-21.542,0-39.042,17.489-39.042,39.072v83.541h-83.583c-21.584,0-39.042,17.5-39.042,39.083c0,21.542,17.458,39.063,39.042,39.063
		h83.583v83.562c0,21.583,17.5,39.041,39.042,39.041c21.583,0,39.063-17.458,39.063-39.041v-83.562h83.583
		c21.563,0,39.063-17.521,39.063-39.063C1004.438,668.67,986.938,651.17,965.375,651.17z"/>
	<path fill="#414042" d="M684.688,593.858L528.604,454.526c-27.417,16.041-54.042,22.489-78.042,22.489
		c-31.438,0-58.25-10.333-76.667-21.791l-318.5,284.319h574.792c-8.125-14.708-13.125-31.333-13.125-49.291
		C617.063,645.92,645.333,608.379,684.688,593.858z"/>
	<path fill="#414042" d="M739.688,585.754v-18.125c0-56.843,46.229-103.071,103.042-103.071c10.188,0,19.833,1.938,29.125,4.708
		V205.727c0-0.458-0.125-0.896-0.146-1.375l-307.146,225.05L739.688,585.754z"/>
</g>
</svg>
