<?xml version="1.0" encoding="utf-8"?>
<!-- Generator: Adobe Illustrator 16.0.0, SVG Export Plug-In . SVG Version: 6.00 Build 0)  -->
<!DOCTYPE svg PUBLIC "-//W3C//DTD SVG 1.1//EN" "http://www.w3.org/Graphics/SVG/1.1/DTD/svg11.dtd">
<svg version="1.1" id="Layer_1" xmlns="http://www.w3.org/2000/svg" xmlns:xlink="http://www.w3.org/1999/xlink" x="0px" y="0px"
	 width="1024px" height="1024px" viewBox="0 0 1024 1024" enable-background="new 0 0 1024 1024" xml:space="preserve">
<g>
	<path fill="#414042" d="M1001.896,643.17c-0.625-0.854-1.583-1.188-2.25-2c-0.375-0.708-0.5-1.5-1-2.166
		c-2.416-3.292-5.708-5.292-9.208-6.792c-14.667-8.563-33.583-8.021-47.917,2.875l-111.625,85.291l-37.25-44.583
		c-15.166-18.208-42.333-20.75-60.625-5.5c-18.25,15.292-20.708,42.416-5.458,60.687l63.667,76.229
		c8.5,10.167,20.708,15.479,33.083,15.479c9.125,0,18.292-2.896,26.083-8.875l144.459-110.312
		C1012.729,689.065,1016.313,662.087,1001.896,643.17z"/>
	<path fill="#414042" d="M504.896,444.881l331.5-242.936c-1.5-0.229-2.958-0.646-4.541-0.646H53.313l328.875,241.445
		C388.563,447.859,440.063,486.609,504.896,444.881z"/>
	<path fill="#414042" d="M14.688,225.872c-0.833,2.906-1.458,5.906-1.458,9.104v500.151c0,2.563,0.708,4.896,1.291,7.291
		l317.584-283.518L14.688,225.872z"/>
	<path fill="#414042" d="M720.813,603.837c12.292-4.833,25.417-7.521,38.75-7.521c30.833,0,59.833,13.104,80.167,36.021
		l25.791-19.708V234.977c0-0.469-0.125-0.906-0.166-1.386L558.229,458.651L720.813,603.837z"/>
	<path fill="#414042" d="M522.271,483.755c-27.416,16.052-54.041,22.511-78.041,22.511c-31.459,0-58.25-10.344-76.667-21.802
		l-318.5,284.33h626.208c-33-42.583-28.75-102.687,8.834-140.54L522.271,483.755z"/>
</g>
</svg>
