<?xml version="1.0" encoding="utf-8"?>
<!-- Generator: Adobe Illustrator 16.0.0, SVG Export Plug-In . SVG Version: 6.00 Build 0)  -->
<!DOCTYPE svg PUBLIC "-//W3C//DTD SVG 1.1//EN" "http://www.w3.org/Graphics/SVG/1.1/DTD/svg11.dtd">
<svg version="1.1" id="Layer_1" xmlns="http://www.w3.org/2000/svg" xmlns:xlink="http://www.w3.org/1999/xlink" x="0px" y="0px"
	 width="1024px" height="1024px" viewBox="0 0 1024 1024" enable-background="new 0 0 1024 1024" xml:space="preserve">
<g>
	<path fill="#414042" d="M895.896,728.648l61.521-61.521c12.479-12.479,12.479-32.791,0-45.249
		c-12.084-12.083-33.167-12.083-45.25,0l-61.521,61.499l-61.521-61.499c-12.083-12.083-33.167-12.083-45.25,0
		c-12.479,12.458-12.479,32.771,0,45.249l61.521,61.521l-61.521,61.521c-12.479,12.5-12.479,32.749,0,45.249
		c12.083,12.084,33.167,12.084,45.25,0l61.521-61.541l61.521,61.541c6.041,6.042,14.083,9.375,22.625,9.375
		c8.541,0,16.583-3.333,22.625-9.375c12.479-12.5,12.479-32.749,0-45.249L895.896,728.648z"/>
	<path fill="#414042" d="M548.896,422.787l331.5-242.936c-1.5-0.229-2.958-0.646-4.541-0.646H97.333l328.854,241.436
		C432.563,425.767,484.063,464.526,548.896,422.787z"/>
	<path fill="#414042" d="M58.688,203.769c-0.833,2.917-1.458,5.916-1.458,9.114v500.162c0,2.541,0.729,4.896,1.313,7.291
		l317.563-283.528L58.688,203.769z"/>
	<path fill="#414042" d="M834.375,576.629l16.271,16.25l16.271-16.25c11.666-11.666,26.583-19.666,42.604-24.021V212.883
		c0-0.469-0.125-0.896-0.146-1.386L602.229,436.558l132.25,118.072c10.229-3.584,21-5.834,32.021-5.834
		C791.958,548.796,816.708,558.963,834.375,576.629z"/>
	<path fill="#414042" d="M697.125,578.463L566.271,461.662c-27.416,16.041-54.041,22.51-78.041,22.51
		c-31.438,0-58.25-10.333-76.667-21.802l-318.5,284.341h604.104c0.541-0.583,0.896-1.25,1.458-1.792l16.25-16.271l-16.25-16.271
		C661.75,675.545,661.375,616.004,697.125,578.463z"/>
</g>
</svg>
