<?xml version="1.0" encoding="utf-8"?>
<!-- Generator: Adobe Illustrator 16.0.0, SVG Export Plug-In . SVG Version: 6.00 Build 0)  -->
<!DOCTYPE svg PUBLIC "-//W3C//DTD SVG 1.1//EN" "http://www.w3.org/Graphics/SVG/1.1/DTD/svg11.dtd">
<svg version="1.1" id="Layer_1" xmlns="http://www.w3.org/2000/svg" xmlns:xlink="http://www.w3.org/1999/xlink" x="0px" y="0px"
	 width="1024px" height="1024px" viewBox="0 0 1024 1024" enable-background="new 0 0 1024 1024" xml:space="preserve">
<g>
	<path fill="#414042" d="M497.829,453.591l318.481-233.395c-1.44-0.22-2.842-0.62-4.363-0.62H64l315.94,231.953
		C386.065,456.453,435.542,493.701,497.829,453.591z"/>
	<path fill="#414042" d="M26.872,243.173c-0.801,2.802-1.402,5.685-1.402,8.747v480.53c0,2.441,0.701,4.684,1.261,7.005
		l305.091-272.395L26.872,243.173z"/>
	<path fill="#414042" d="M989.643,605.415H946.13v-24.559c0-55.691-45.294-100.966-100.978-100.966
		c-55.701,0-100.976,45.274-100.976,100.966v24.559h-45.295c-4.884,0-8.827,3.942-8.827,8.827v181.335
		c0,4.884,3.943,8.847,8.827,8.847h290.761c4.943,0,8.887-3.963,8.887-8.847V614.242
		C998.529,609.357,994.586,605.415,989.643,605.415z M919.549,605.415H770.756v-24.559c0-41.031,33.366-74.406,74.396-74.406
		c41.012,0,74.396,33.375,74.396,74.406V605.415z"/>
	<path fill="#414042" d="M844.292,428.692V251.92c0-0.441-0.12-0.861-0.14-1.321L549.068,466.82l112.605,100.545
		c9.367-7.465,20.896-12.328,33.585-13.089C707.828,483.264,769.816,429.093,844.292,428.692z"/>
	<path fill="#414042" d="M439.545,512.556c-30.203,0-55.963-9.928-73.655-20.937L59.897,764.794h578.919V614.242
		c0-3.884,0.4-7.687,1.101-11.37L514.521,490.939C488.182,506.35,462.602,512.556,439.545,512.556z"/>
</g>
</svg>
