<?xml version="1.0" encoding="utf-8"?>
<!-- Generator: Adobe Illustrator 16.0.0, SVG Export Plug-In . SVG Version: 6.00 Build 0)  -->
<!DOCTYPE svg PUBLIC "-//W3C//DTD SVG 1.1//EN" "http://www.w3.org/Graphics/SVG/1.1/DTD/svg11.dtd">
<svg version="1.1" id="Layer_1" xmlns="http://www.w3.org/2000/svg" xmlns:xlink="http://www.w3.org/1999/xlink" x="0px" y="0px"
	 width="1024px" height="1024px" viewBox="0 0 1024 1024" enable-background="new 0 0 1024 1024" xml:space="preserve">
<g>
	<path fill="#414042" d="M1002.313,648.17c-1.25-3.854-4.604-6.666-8.625-7.25l-101.458-14.646l-45.334-91.729
		c-1.791-3.666-5.5-5.958-9.541-5.958c-4.063,0-7.771,2.292-9.563,5.917l-45.479,91.77L680.854,640.92
		c-4,0.584-7.354,3.396-8.625,7.25c-1.25,3.875-0.209,8.125,2.708,10.958l73.5,71.646l-17.292,100.895
		c-0.688,4,0.959,8.042,4.25,10.438c1.834,1.354,4.042,2.021,6.25,2.021c1.709,0,3.417-0.396,4.959-1.209l90.75-47.541
		l90.771,47.541c3.583,1.875,7.979,1.584,11.229-0.813c3.291-2.396,4.916-6.479,4.229-10.458l-17.479-100.895l73.5-71.625
		C1002.521,656.295,1003.563,652.045,1002.313,648.17z"/>
	<path fill="#414042" d="M512.813,423.401l331.5-242.935c-1.5-0.229-2.958-0.636-4.542-0.636H61.25l328.854,241.425
		C396.479,426.392,447.979,465.141,512.813,423.401z"/>
	<path fill="#414042" d="M22.604,204.383c-0.834,2.917-1.459,5.917-1.459,9.104v500.161c0,2.563,0.729,4.896,1.313,7.313
		l317.563-283.549L22.604,204.383z"/>
	<path fill="#414042" d="M716.208,571.15l23.688-3.417l30.521-61.583c12.666-25.646,38.313-41.562,66.938-41.562
		c12.833,0,25.188,3.521,36.083,9.563V213.487c0-0.459-0.125-0.896-0.146-1.375l-307.146,225.06L716.208,571.15z"/>
	<path fill="#414042" d="M611.396,628.274c7.834-23.896,26.667-41.771,50.354-48.541L530.188,462.276
		c-27.417,16.031-54.042,22.5-78.042,22.5c-31.438,0-58.25-10.334-76.666-21.792l-318.5,284.352h616.75l-43.459-42.375
		C609.813,685.045,602.563,655.732,611.396,628.274z"/>
</g>
</svg>
