<?xml version="1.0" encoding="utf-8"?>
<!-- Generator: Adobe Illustrator 16.0.0, SVG Export Plug-In . SVG Version: 6.00 Build 0)  -->
<!DOCTYPE svg PUBLIC "-//W3C//DTD SVG 1.1//EN" "http://www.w3.org/Graphics/SVG/1.1/DTD/svg11.dtd">
<svg version="1.1" id="Layer_1" xmlns="http://www.w3.org/2000/svg" xmlns:xlink="http://www.w3.org/1999/xlink" x="0px" y="0px"
	 width="1024px" height="1024px" viewBox="0 0 1024 1024" enable-background="new 0 0 1024 1024" xml:space="preserve">
<g>
	<path fill="#414042" d="M846.688,535.608c-90.708,0-164.458,73.771-164.458,164.457s73.75,164.478,164.458,164.478
		c90.667,0,164.458-73.791,164.458-164.478S937.354,535.608,846.688,535.608z M783.229,579.275c0-0.188-0.417-1.854-1-3.834
		c10.416-5.396,21.583-9.521,33.25-12.188c1.458,2.625,3.333,5.104,6.291,6.375c-0.875,0.875-3.375,3.229-5.958,3.229
		c-0.417,0-0.792-0.021-1.125-0.146l-0.25-0.084l-1.292,3.334l0.209,0.083c0.041,0.063,4.666,3.042,5.125,7.417
		c0.25,2.458-0.917,4.938-3.375,7.333c-0.959,0.438-16.042,6.938-27.292,6.938c-6.458,0-10.5-2.146-11.875-6.292
		C777.188,590.733,783.438,586.504,783.229,579.275z M846.688,840.502c-39.875,0-75.792-16.771-101.375-43.542
		c5.292-10.125,18.458-15.749,18.458-15.749c18.292-8.75,20.834-24.542,20.834-24.542c5.708-16.208-34.75-10.541-34.75-10.541
		c-17.667-8.188-35.417-50.688-35.417-50.688v-42.062c5.25-14.854,12.833-28.584,22.458-40.667
		c3.459,24.625,12.542,80.062,26.375,90.874c0.25,0.125,5.084,3.292,13.875,3.292c9.875,0,25.834-4.104,45.709-23.541l0.083-0.063
		v-0.146c-1.333-0.438-52.583-38.124-30.042-48.291c7.125-3.229,25.5-14.208,26.292-10.083c1.5,8.291,15.208,20.083,19.25,27.416
		l29.708,15.042c0.167,0.229,3.917,4.75,9.875,4.75c2.584,0,5.25-0.896,7.834-2.584c-0.042,1.75,0.291,7.584,4.875,22.917
		c0.291,1.333,7.041,31.916,14.791,41.041c0.25,0.792,2.125,7.313,5.667,7.313c1.917,0,3.792-1.875,5.75-5.521
		c0.083-0.167,10-13.625,7-31.875c-0.042-0.021-1.333-5.042,26.458-24.625l0.084-0.146c0.041-0.063,5.125-9.313,12.625-9.313
		c3.916,0,7.875,2.583,11.666,7.583c0.417,0.688,6.542,11.813,12.167,19.604c0,1.25,0.167,2.438,0.167,3.708
		C987.104,777.502,924.104,840.502,846.688,840.502z"/>
	<path fill="#414042" d="M504.521,403.006l331.5-242.945c-1.5-0.219-2.958-0.614-4.541-0.614h-778.5L381.813,400.86
		C388.188,405.995,439.688,444.734,504.521,403.006z"/>
	<path fill="#414042" d="M14.313,183.987c-0.833,2.927-1.458,5.917-1.458,9.104v500.161c0,2.563,0.75,4.896,1.333,7.292
		l317.542-283.519L14.313,183.987z"/>
	<path fill="#414042" d="M689.708,534.505c40.979-38.875,96.167-62.896,156.979-62.896c6.229,0,12.354,0.417,18.458,0.917V193.092
		c0-0.459-0.125-0.896-0.125-1.365l-307.166,225.05L689.708,534.505z"/>
	<path fill="#414042" d="M521.896,441.881c-27.416,16.041-54.041,22.499-78.041,22.499c-31.417,0-58.25-10.333-76.667-21.791
		l-318.5,284.33h571.271c-1.041-8.833-1.729-17.749-1.729-26.854c0-49.833,16.208-95.832,43.396-133.437L521.896,441.881z"/>
</g>
</svg>
