<?xml version="1.0" encoding="utf-8"?>
<!-- Generator: Adobe Illustrator 16.0.0, SVG Export Plug-In . SVG Version: 6.00 Build 0)  -->
<!DOCTYPE svg PUBLIC "-//W3C//DTD SVG 1.1//EN" "http://www.w3.org/Graphics/SVG/1.1/DTD/svg11.dtd">
<svg version="1.1" id="Layer_1" xmlns="http://www.w3.org/2000/svg" xmlns:xlink="http://www.w3.org/1999/xlink" x="0px" y="0px"
	 width="1024px" height="1024px" viewBox="0 0 1024 1024" enable-background="new 0 0 1024 1024" xml:space="preserve">
<g>
	<path fill="#414042" d="M846.167,545.692c-83.146,0-150.792,67.666-150.792,150.79c0,83.166,67.646,150.79,150.792,150.79
		c83.146,0,150.791-67.624,150.791-150.79C996.958,613.358,929.313,545.692,846.167,545.692z M750.833,696.482
		c0-52.541,42.771-95.333,95.334-95.333c15.563,0,30.063,4.146,43.063,10.771L760.604,737.731
		C754.542,725.211,750.833,711.315,750.833,696.482z M846.167,791.814c-17.521,0-33.75-5.083-47.854-13.354l130.813-127.957
		c7.646,13.687,12.375,29.229,12.375,45.979C941.5,749.065,898.729,791.814,846.167,791.814z"/>
	<path fill="#414042" d="M518.708,420.298l331.5-242.936c-1.5-0.229-2.958-0.646-4.541-0.646h-778.5L396,418.151
		C402.375,423.276,453.875,462.026,518.708,420.298z"/>
	<path fill="#414042" d="M28.5,201.279c-0.833,2.927-1.458,5.916-1.458,9.114v500.151c0,2.563,0.75,4.916,1.333,7.291
		l317.542-283.518L28.5,201.279z"/>
	<path fill="#414042" d="M879.333,484.526V210.394c0-0.469-0.125-0.896-0.125-1.396L572.042,434.068l123.083,109.895
		c38.833-38.447,92.208-62.271,151.042-62.271C857.479,481.692,868.5,482.839,879.333,484.526z"/>
	<path fill="#414042" d="M536.083,459.172c-27.416,16.042-54.041,22.511-78.041,22.511c-31.417,0-58.25-10.344-76.667-21.802
		l-318.5,284.33h574.021c-3.5-15.375-5.521-31.313-5.521-47.729c0-44.271,13.479-85.437,36.521-119.645L536.083,459.172z"/>
</g>
</svg>
