<?xml version="1.0" encoding="utf-8"?>
<!-- Generator: Adobe Illustrator 16.0.0, SVG Export Plug-In . SVG Version: 6.00 Build 0)  -->
<!DOCTYPE svg PUBLIC "-//W3C//DTD SVG 1.1//EN" "http://www.w3.org/Graphics/SVG/1.1/DTD/svg11.dtd">
<svg version="1.1" id="Layer_1" xmlns="http://www.w3.org/2000/svg" xmlns:xlink="http://www.w3.org/1999/xlink" x="0px" y="0px"
	 width="1024px" height="1024px" viewBox="0 0 1024 1024" enable-background="new 0 0 1024 1024" xml:space="preserve">
<g>
	<path fill="#414042" d="M984.792,724.794l-29.021-16.749c0-4.459-0.083-8.25-0.146-12.084c-0.042-2.458-0.083-4.916-0.125-7.625
		l29.292-16.896c8.438-4.979,11.333-15.958,6.438-24.458l-27.084-46.916c-4.75-8.313-16.396-11.396-24.541-6.604l-29.021,16.75
		c-2.416-1.396-4.541-2.646-6.604-3.875c-3.354-1.979-6.584-3.875-10.584-6.104v-33.313c0-9.896-8.041-17.938-17.938-17.938h-54.188
		c-9.916,0-17.979,8.042-17.979,17.938v31.188c-6.459,4.646-13.063,9.104-17.521,12.063l-28.5-16.438
		c-8.354-4.875-19.833-1.708-24.541,6.521l-27.146,46.958c-4.916,8.542-1.979,19.541,6.646,24.541l27.063,15.334
		c-0.042,8.271-0.021,16.749,0,22.291l-27.063,15.604c-8.521,4.979-11.438,15.938-6.521,24.479l27.146,47.083
		c4.791,8.125,16.188,11.271,24.479,6.458l28.604-16.5c6.438,4.125,13.063,7.854,17.604,10.354v32.666
		c0,9.896,8.041,17.958,17.938,17.958h54.208c9.896,0,17.958-8.063,17.958-17.958v-32.604c4.271-2.292,10.459-5.854,17.625-10.584
		l28.479,16.459c8.229,4.75,19.708,1.666,24.479-6.584l27.166-46.957C996.292,740.669,993.333,729.69,984.792,724.794z
		 M847.604,748.19c-27.5,0-49.771-22.292-49.771-49.729c0-27.499,22.271-49.77,49.771-49.77c27.458,0,49.729,22.271,49.729,49.77
		C897.333,725.898,875.063,748.19,847.604,748.19z"/>
	<path fill="#414042" d="M521.917,420.058l331.5-242.925c-1.5-0.229-2.959-0.635-4.542-0.635H70.354l328.854,241.425
		C405.583,423.048,457.083,461.797,521.917,420.058z"/>
	<path fill="#414042" d="M31.708,201.05c-0.833,2.917-1.458,5.938-1.458,9.104v500.162c0,2.563,0.729,4.896,1.313,7.292
		L349.125,434.1L31.708,201.05z"/>
	<path fill="#414042" d="M749.458,527.453c13.979-25.303,40.938-42.469,71.813-42.469h54.188c2.396,0,4.729,0.292,7.084,0.5V210.153
		c0-0.458-0.125-0.896-0.146-1.375L575.25,433.839l123.479,110.249c14.083-10.583,31.521-16.666,49.833-16.666
		C748.854,527.422,749.146,527.422,749.458,527.453z"/>
	<path fill="#414042" d="M672.021,577.421L539.292,458.943c-27.417,16.041-54.042,22.499-78.042,22.499
		c-31.438,0-58.25-10.333-76.667-21.791l-318.5,284.352h573.521c-0.625-15.938,3.25-31.813,11.416-45.5
		c-14.833-24.75-16.229-56.583-0.833-83.312L672.021,577.421z"/>
</g>
</svg>
