<?xml version="1.0" encoding="utf-8"?>
<!-- Generator: Adobe Illustrator 16.0.0, SVG Export Plug-In . SVG Version: 6.00 Build 0)  -->
<!DOCTYPE svg PUBLIC "-//W3C//DTD SVG 1.1//EN" "http://www.w3.org/Graphics/SVG/1.1/DTD/svg11.dtd">
<svg version="1.1" id="Layer_1" xmlns="http://www.w3.org/2000/svg" xmlns:xlink="http://www.w3.org/1999/xlink" x="0px" y="0px"
	 width="1024px" height="1024px" viewBox="0 0 1024 1024" enable-background="new 0 0 1024 1024" xml:space="preserve">
<g>
	<path fill="#414042" d="M515.021,406.714l331.5-242.924c-1.5-0.229-2.958-0.646-4.541-0.646H63.458l328.854,241.436
		C398.688,409.704,450.188,448.453,515.021,406.714z"/>
	<path fill="#414042" d="M24.813,187.717c-0.833,2.906-1.458,5.906-1.458,9.094v500.15c0,2.584,0.729,4.917,1.313,7.292
		l317.563-283.508L24.813,187.717z"/>
	<path fill="#414042" d="M993.583,808.794l-74.271-92.416c24.25-27.167,39.146-62.874,39.146-102.082
		c0-84.76-68.938-153.718-153.688-153.718s-153.708,68.958-153.708,153.718c0,84.707,68.958,153.665,153.708,153.665
		c22.438,0,43.709-4.959,62.938-13.625l76,94.54c6.313,7.875,15.604,11.959,24.959,11.959c7.021,0,14.104-2.334,20.021-7.084
		C1002.479,842.71,1004.646,822.543,993.583,808.794z M804.771,703.961c-49.458,0-89.708-40.208-89.708-89.665
		c0-49.458,40.25-89.718,89.708-89.718c49.459,0,89.688,40.26,89.688,89.718C894.458,663.753,854.229,703.961,804.771,703.961z"/>
	<path fill="#414042" d="M875.646,408.662V196.811c0-0.459-0.125-0.886-0.146-1.375l-307.146,225.06l65.916,58.854
		c39.896-50.332,101.417-82.77,170.5-82.77C829.604,396.579,853.396,400.975,875.646,408.662z"/>
	<path fill="#414042" d="M610.917,515.703L532.396,445.6c-27.416,16.052-54.041,22.499-78.041,22.499
		c-31.438,0-58.25-10.322-76.667-21.791l-318.5,284.32h561.917c-21.438-33.708-34.042-73.541-34.042-116.332
		C587.063,578.796,595.792,545.338,610.917,515.703z"/>
</g>
</svg>
