<?xml version="1.0" encoding="utf-8"?>
<!-- Generator: Adobe Illustrator 16.0.0, SVG Export Plug-In . SVG Version: 6.00 Build 0)  -->
<!DOCTYPE svg PUBLIC "-//W3C//DTD SVG 1.1//EN" "http://www.w3.org/Graphics/SVG/1.1/DTD/svg11.dtd">
<svg version="1.1" id="Layer_1" xmlns="http://www.w3.org/2000/svg" xmlns:xlink="http://www.w3.org/1999/xlink" x="0px" y="0px"
	 width="1024px" height="1024px" viewBox="0 0 1024 1024" enable-background="new 0 0 1024 1024" xml:space="preserve">
<g>
	<path fill="#414042" d="M995.917,703.545c-0.188-10.146-4.334-19.646-11.625-26.708c-7.209-7.042-16.729-10.917-27.021-10.917
		l-120.729,0.583c-10.188,0.042-19.709,4.104-26.771,11.375c-1.854,1.896-3.438,3.979-4.854,6.167
		c-1.375-2.021-2.979-3.917-4.792-5.667c-7.229-7.041-16.75-10.916-27.042-10.916l-113.916,0.583
		c-10.188,0-19.709,4.042-26.771,11.313c-7.104,7.229-10.896,16.833-10.688,26.875l0.542,89.312c0.208,11,5.25,21.396,13.792,28.583
		c6.896,5.813,15.688,9.021,24.729,9.021l114.063-0.604c10.209-0.041,19.709-4.063,26.792-11.313
		c1.917-1.979,3.542-4.146,4.979-6.437c1.958,2.854,4.146,5.521,6.854,7.833c6.917,5.75,15.646,8.938,24.584,8.938l120.979-0.563
		c10.188-0.042,19.688-4.063,26.771-11.292c7.083-7.271,10.875-16.875,10.666-26.916L995.917,703.545z M730.896,768.106
		c4.354,3.604,9.938,5.625,15.688,5.625h0.042l31.021-0.25c-4.354,4.479-6.875,10.833-7.813,16.291l-104.75,0.542l-0.458-79.479
		l104.813-0.521c1.188,5.521,4.396,10.583,8.813,14.146l-31.563,0.188c-13.438,0.146-24.438,11.188-24.521,24.583
		C722.104,756.564,725.292,763.439,730.896,768.106z M805.208,776.211c-0.813-1.021-1.666-2-2.583-2.896l4.792-0.041
		C806.583,774.211,805.917,775.189,805.208,776.211z M802.063,724.253c0.833-0.646,1.792-1.021,2.563-1.813
		c0.396-0.417,0.542-0.979,0.917-1.417c1.125,1.292,2.583,2.188,3.958,3.188L802.063,724.253z M841.979,788.731
		c-1.188-5.542-4.313-11.354-8.646-15.646l40.875-0.292c13.438-0.104,24.438-11.125,24.542-24.583
		c0.042-6.542-2.458-12.688-7.042-17.292c-4.604-4.625-10.729-7.166-17.458-7.166l-42.729,0.291
		c1.104-0.791,2.334-1.333,3.334-2.354c3.354-3.438,5.708-7.854,6.666-12.396l111.563-0.563l0.5,79.478L841.979,788.731z"/>
	<path fill="#414042" d="M519.208,434.422l331.5-242.914c-1.5-0.25-2.958-0.666-4.541-0.666H67.646L396.5,432.276
		C402.875,437.401,454.375,476.151,519.208,434.422z"/>
	<path fill="#414042" d="M29,215.403c-0.833,2.917-1.458,5.928-1.458,9.104v500.161c0,2.584,0.729,4.896,1.313,7.292
		l317.563-283.518L29,215.403z"/>
	<path fill="#414042" d="M746.604,603.587l26.479-0.125c10.479,0,20.709,1.563,30.459,4.542c10.375-3.563,21.375-5.458,32.708-5.5
		l43.583-0.25V224.508c0-0.448-0.125-0.906-0.146-1.375L572.542,448.193L746.604,603.587z"/>
	<path fill="#414042" d="M682.917,603.921L536.583,473.297c-27.416,16.042-54.041,22.5-78.041,22.5
		c-31.438,0-58.25-10.333-76.667-21.781l-318.5,284.32h494.667l-0.313-50.708c-0.604-27.5,9.708-53.479,28.791-72.896
		c19.188-19.729,44.938-30.624,72.313-30.687L682.917,603.921z"/>
</g>
</svg>
