<?xml version="1.0" encoding="utf-8"?>
<!-- Generator: Adobe Illustrator 16.0.0, SVG Export Plug-In . SVG Version: 6.00 Build 0)  -->
<!DOCTYPE svg PUBLIC "-//W3C//DTD SVG 1.1//EN" "http://www.w3.org/Graphics/SVG/1.1/DTD/svg11.dtd">
<svg version="1.1" id="Layer_1" xmlns="http://www.w3.org/2000/svg" xmlns:xlink="http://www.w3.org/1999/xlink" x="0px" y="0px"
	 width="1024px" height="1024px" viewBox="0 0 1024 1024" enable-background="new 0 0 1024 1024" xml:space="preserve">
<g>
	<path fill="#414042" d="M994.792,606.462l-10.459,2.042l10.188-4.375c-0.333-2.708-0.688-5.458-1.229-8.083
		c-4.896-23.292-16.604-42.791-34.834-57.916c-14.5-12.011-31.271-19.489-49.771-22.177l-6.125-0.803
		c-0.688-0.135-2.667-0.302-3.354-0.302H888.25c-1.229,0-2.479,0.146-4.458,0.563l-2.354,0.333c-0.083,0-2.75,0.375-2.833,0.396
		c-3.042,0.458-6.146,0.938-9.459,1.729c-43.458,10.771-74.396,48.094-76.958,92.885c-0.917,15.791,2,31.375,8.667,46.333
		c0.021,0.083,0.063,0.166,0.083,0.208c0.979,2.396,4.896,11.333,13.271,21.75L693.188,799.919c-3.854,3.833-6,8.958-6,14.438
		c-0.021,5.479,2.104,10.604,6,14.521c7.646,7.625,20.958,7.666,28.875-0.042l11.875-11.875l22.292,22.375c3.875,3.875,9,6,14.438,6
		c5.416,0,10.541-2.125,14.438-5.958c7.938-7.959,7.979-20.875,0.041-28.917l-22.333-22.375l17.396-17.333L798,788.46
		c7.625,7.75,21.125,7.813,28.958,0c7.896-8.041,7.854-20.958-0.083-28.874l-17.75-17.708l36.375-36.313
		c1.854,1.021,3.771,2.021,5.771,2.979c0.229,0.083,0.459,0.208,0.688,0.291c19.771,9.146,41.25,11.583,62.146,7.25
		c24.208-5,44.291-17.458,59.666-36.999c11.084-14.042,17.979-30.167,20.521-47.958l0.896-6.75c0.063-0.458,0.188-2.25,0.188-2.708
		v-10.375C995.375,609.712,995.188,608.087,994.792,606.462z M953.833,625.379c-1.479,10.521-5.563,20.083-12.146,28.416
		c-9.229,11.75-21.313,19.25-35.875,22.292c-12.5,2.541-25.063,1.041-36.896-4.417c-21.854-10.5-30.021-29.458-30.042-29.5
		c-0.042-0.083-0.146-0.271-0.271-0.5c-0.063-0.208-0.146-0.375-0.209-0.541c-4.166-9.084-5.979-18.5-5.416-28.042
		c1.541-26.833,20-49.124,45.938-55.541c1.875-0.458,3.916-0.708,6.979-1.125l11.75-0.708c1.604,0.167,3.209,0.375,5.021,0.667
		c11.083,1.604,21.083,6.041,29.688,13.208c11.125,9.208,17.958,20.583,20.958,34.833c0.292,1.396,0.438,2.791,0.625,4.541
		l0.667,10.625L953.833,625.379z"/>
	<path fill="#414042" d="M520.271,422.225l331.5-242.936c-1.5-0.229-2.958-0.635-4.541-0.635H68.708l328.854,241.425
		C403.938,425.214,455.438,463.953,520.271,422.225z"/>
	<path fill="#414042" d="M30.063,203.206c-0.833,2.917-1.458,5.916-1.458,9.104v500.151c0,2.584,0.729,4.917,1.313,7.313
		l317.563-283.518L30.063,203.206z"/>
	<path fill="#414042" d="M732.708,578.046c14.104-59.655,59.938-107.145,121.563-122.437c5.188-1.219,10.042-2.031,14.792-2.76
		v0.021c1.125-0.188,2.271-0.354,3.396-0.5l0.667-0.063c2.167-0.417,4.833-0.792,7.771-1.063V212.31
		c0-0.458-0.125-0.896-0.146-1.375L573.604,435.995L732.708,578.046z"/>
	<path fill="#414042" d="M728.917,631.837L537.646,461.1c-27.416,16.041-54.041,22.499-78.041,22.499
		c-31.438,0-58.25-10.333-76.667-21.791l-318.5,284.341h592.042l79.563-79.479C732.313,655.254,730.042,643.629,728.917,631.837z"/>
</g>
</svg>
