<?xml version="1.0" encoding="utf-8"?>
<!-- Generator: Adobe Illustrator 16.0.0, SVG Export Plug-In . SVG Version: 6.00 Build 0)  -->
<!DOCTYPE svg PUBLIC "-//W3C//DTD SVG 1.1//EN" "http://www.w3.org/Graphics/SVG/1.1/DTD/svg11.dtd">
<svg version="1.1" id="Layer_1" xmlns="http://www.w3.org/2000/svg" xmlns:xlink="http://www.w3.org/1999/xlink" x="0px" y="0px"
	 width="48px" height="48px" viewBox="0 0 48 48" enable-background="new 0 0 48 48" xml:space="preserve">
<g>
	<path fill="#414042" d="M23.983,1.625c-12.339,0-22.377,10.038-22.377,22.377c0,12.336,10.038,22.373,22.377,22.373
		c12.336,0,22.373-10.037,22.373-22.373C46.355,11.663,36.319,1.625,23.983,1.625z M23.983,45.375
		c-11.787,0-21.377-9.588-21.377-21.373c0-11.787,9.59-21.377,21.377-21.377c11.785,0,21.373,9.59,21.373,21.377
		C45.355,35.787,35.768,45.375,23.983,45.375z"/>
	<path fill="#414042" d="M34.529,29.101c-0.248-0.129-0.546-0.032-0.675,0.21c-0.103,0.197-2.569,4.72-9.874,4.885
		c-7.305-0.165-9.771-4.688-9.874-4.885c-0.128-0.241-0.427-0.338-0.675-0.21c-0.244,0.128-0.339,0.429-0.212,0.673
		c0.11,0.213,2.691,5.012,10.193,5.4c0.049,0.017,0.102,0.025,0.156,0.025h0.822c0.055,0,0.107-0.009,0.156-0.025
		c7.501-0.389,10.083-5.188,10.193-5.4C34.868,29.529,34.773,29.229,34.529,29.101z"/>
	<path fill="#414042" d="M29.981,23.717c2.146,0,3.892-2.407,3.892-5.365s-1.746-5.365-3.892-5.365
		c-2.146,0-3.893,2.407-3.893,5.365S27.835,23.717,29.981,23.717z M29.981,13.986c1.595,0,2.892,1.958,2.892,4.365
		c0,1.34-0.41,2.526-1.042,3.328c0.024-0.149,0.039-0.303,0.039-0.46c0-1.344-0.924-2.434-2.064-2.434c-1.106,0-2,1.024-2.056,2.31
		c-0.407-0.752-0.661-1.699-0.661-2.743C27.089,15.944,28.387,13.986,29.981,13.986z"/>
	<path fill="#414042" d="M17.982,23.717c2.146,0,3.892-2.407,3.892-5.365s-1.746-5.365-3.892-5.365
		c-2.146,0-3.893,2.407-3.893,5.365S15.835,23.717,17.982,23.717z M17.982,13.986c1.595,0,2.892,1.958,2.892,4.365
		c0,1.34-0.411,2.526-1.042,3.328c0.024-0.149,0.04-0.303,0.04-0.46c0-1.344-0.924-2.434-2.064-2.434c-1.106,0-2,1.024-2.056,2.31
		c-0.407-0.752-0.661-1.699-0.661-2.743C15.089,15.944,16.387,13.986,17.982,13.986z"/>
</g>
</svg>
