<?xml version="1.0" encoding="utf-8"?>
<!-- Generator: Adobe Illustrator 16.0.0, SVG Export Plug-In . SVG Version: 6.00 Build 0)  -->
<!DOCTYPE svg PUBLIC "-//W3C//DTD SVG 1.1//EN" "http://www.w3.org/Graphics/SVG/1.1/DTD/svg11.dtd">
<svg version="1.1" id="Layer_1" xmlns="http://www.w3.org/2000/svg" xmlns:xlink="http://www.w3.org/1999/xlink" x="0px" y="0px"
	 width="48px" height="48px" viewBox="0 0 48 48" enable-background="new 0 0 48 48" xml:space="preserve">
<g>
	<path fill="#414042" d="M23.983,1.625c-12.339,0-22.377,10.038-22.377,22.377c0,12.336,10.038,22.373,22.377,22.373
		c12.336,0,22.373-10.037,22.373-22.373C46.355,11.663,36.319,1.625,23.983,1.625z M23.983,45.375
		c-11.787,0-21.377-9.588-21.377-21.373c0-11.787,9.59-21.377,21.377-21.377c11.785,0,21.373,9.59,21.373,21.377
		C45.355,35.787,35.768,45.375,23.983,45.375z"/>
	<path fill="#414042" d="M29.98,13.92c-2.146,0-3.893,2.407-3.893,5.365s1.746,5.365,3.893,5.365c2.146,0,3.892-2.407,3.892-5.365
		S32.126,13.92,29.98,13.92z M31.605,22.893c0.146-0.333,0.236-0.706,0.236-1.107c0-1.344-0.925-2.434-2.066-2.434
		c-1.141,0-2.065,1.09-2.065,2.434c0,0.07,0.013,0.135,0.018,0.204c-0.395-0.746-0.64-1.678-0.64-2.704
		c0-2.407,1.298-4.365,2.893-4.365s2.892,1.958,2.892,4.365C32.872,20.783,32.369,22.106,31.605,22.893z"/>
	<path fill="#414042" d="M17.981,24.65c2.146,0,3.892-2.407,3.892-5.365s-1.746-5.365-3.892-5.365c-2.146,0-3.893,2.407-3.893,5.365
		S15.834,24.65,17.981,24.65z M17.981,14.92c1.595,0,2.892,1.958,2.892,4.365c0,1.498-0.503,2.821-1.267,3.607
		c0.146-0.333,0.236-0.706,0.236-1.107c0-1.344-0.925-2.434-2.066-2.434c-1.141,0-2.065,1.09-2.065,2.434
		c0,0.07,0.013,0.135,0.018,0.204c-0.394-0.746-0.64-1.678-0.64-2.704C15.088,16.878,16.386,14.92,17.981,14.92z"/>
	<path fill="#414042" d="M33.62,13.943c-0.252-0.079-0.404-0.273-0.674-0.64c-0.337-0.457-0.797-1.082-1.765-1.601
		c-1.288-0.689-2.078-0.955-2.379-1.042l-1.467-1.315c-0.205-0.184-0.521-0.167-0.706,0.038c-0.185,0.206-0.167,0.522,0.038,0.706
		l1.556,1.395c0.063,0.057,0.142,0.097,0.225,0.116c0.007,0.001,0.757,0.18,2.261,0.984c0.769,0.413,1.121,0.891,1.432,1.313
		c0.298,0.404,0.604,0.822,1.181,1.001c0.05,0.016,0.101,0.023,0.149,0.023c0.213,0,0.41-0.137,0.478-0.351
		C34.03,14.305,33.884,14.025,33.62,13.943z"/>
	<path fill="#414042" d="M14.694,14.92c0.049,0,0.1-0.007,0.149-0.023c0.575-0.18,0.883-0.597,1.18-1.001
		c0.312-0.422,0.663-0.9,1.433-1.313c1.504-0.805,2.253-0.983,2.258-0.984c0.084-0.019,0.162-0.059,0.227-0.116l1.557-1.395
		c0.205-0.185,0.223-0.5,0.038-0.706c-0.186-0.207-0.501-0.224-0.706-0.039l-1.468,1.315c-0.3,0.087-1.09,0.353-2.378,1.042
		c-0.968,0.519-1.429,1.144-1.765,1.601c-0.271,0.366-0.423,0.561-0.674,0.64c-0.264,0.082-0.41,0.363-0.328,0.626
		C14.284,14.783,14.481,14.92,14.694,14.92z"/>
	<path fill="#414042" d="M32.977,32.023c-0.271-0.062-0.537,0.109-0.598,0.378c-0.221,0.974-0.683,1.648-1.373,2.007
		c-1.517,0.783-3.694-0.1-3.737-0.117c-1.14-0.412-4.175-1.842-4.223-1.864c-6.14-2.618-9.096,2.025-9.125,2.073
		c-0.145,0.234-0.071,0.541,0.162,0.686c0.235,0.146,0.543,0.073,0.688-0.16c0.102-0.163,2.548-3.952,7.865-1.687
		c0.126,0.06,3.108,1.464,4.27,1.884c0.072,0.031,1.244,0.51,2.593,0.51c0.647,0,1.336-0.111,1.963-0.435
		c0.966-0.499,1.603-1.399,1.892-2.676C33.415,32.354,33.246,32.085,32.977,32.023z"/>
</g>
</svg>
