<?xml version="1.0" encoding="utf-8"?>
<!-- Generator: Adobe Illustrator 16.0.0, SVG Export Plug-In . SVG Version: 6.00 Build 0)  -->
<!DOCTYPE svg PUBLIC "-//W3C//DTD SVG 1.1//EN" "http://www.w3.org/Graphics/SVG/1.1/DTD/svg11.dtd">
<svg version="1.1" id="Layer_1" xmlns="http://www.w3.org/2000/svg" xmlns:xlink="http://www.w3.org/1999/xlink" x="0px" y="0px"
	 width="48px" height="48px" viewBox="0 0 48 48" enable-background="new 0 0 48 48" xml:space="preserve">
<g>
	<path fill="#414042" d="M23.983,1.625c-12.339,0-22.377,10.038-22.377,22.377c0,12.336,10.038,22.373,22.377,22.373
		c12.336,0,22.373-10.037,22.373-22.373C46.355,11.663,36.319,1.625,23.983,1.625z M23.983,45.375
		c-11.787,0-21.377-9.588-21.377-21.373c0-11.787,9.59-21.377,21.377-21.377c11.785,0,21.373,9.59,21.373,21.377
		C45.355,35.787,35.768,45.375,23.983,45.375z"/>
	<path fill="#414042" d="M38.956,12.034c-1.357-2.152-2.027-3.899-2.033-3.917c-0.074-0.194-0.26-0.323-0.468-0.323
		c-0.208,0-0.395,0.129-0.468,0.323c-0.007,0.017-0.674,1.764-2.033,3.916c-1.07,1.695-1.227,3.497-0.43,4.943
		c0.632,1.146,1.755,1.857,2.931,1.857s2.299-0.711,2.931-1.857C40.183,15.53,40.026,13.729,38.956,12.034z M38.51,16.494
		c-0.448,0.814-1.255,1.34-2.055,1.34s-1.606-0.526-2.055-1.34c-0.616-1.118-0.471-2.549,0.399-3.926
		c0.76-1.203,1.307-2.272,1.655-3.017c0.35,0.744,0.896,1.813,1.655,3.017C38.98,13.945,39.126,15.376,38.51,16.494z"/>
	<path fill="#414042" d="M29.98,15.186c-2.146,0-3.893,2.407-3.893,5.365s1.746,5.365,3.893,5.365s3.893-2.407,3.893-5.365
		S32.127,15.186,29.98,15.186z M31.478,24.267c0.105-0.194,0.169-0.408,0.169-0.638c0-0.818-0.744-1.48-1.666-1.48
		c-0.918,0-1.664,0.662-1.664,1.48c0,0.231,0.064,0.447,0.171,0.642c-0.835-0.767-1.399-2.14-1.399-3.72
		c0-2.407,1.298-4.365,2.893-4.365s2.893,1.958,2.893,4.365C32.873,22.128,32.311,23.5,31.478,24.267z"/>
	<path fill="#414042" d="M21.874,20.551c0-2.958-1.746-5.365-3.893-5.365s-3.893,2.407-3.893,5.365s1.746,5.365,3.893,5.365
		S21.874,23.509,21.874,20.551z M15.088,20.551c0-2.407,1.298-4.365,2.893-4.365s2.893,1.958,2.893,4.365
		c0,1.577-0.563,2.949-1.395,3.716c0.105-0.194,0.168-0.408,0.168-0.638c0-0.818-0.744-1.48-1.666-1.48
		c-0.918,0-1.664,0.662-1.664,1.48c0,0.231,0.065,0.447,0.171,0.642C15.653,23.504,15.088,22.131,15.088,20.551z"/>
	<path fill="#414042" d="M24.333,30.937c-0.012,0-0.023,0-0.035,0c-3.597,0-6.233,2.781-6.344,2.899
		c-0.188,0.203-0.178,0.52,0.024,0.707c0.201,0.189,0.52,0.179,0.706-0.023c0.024-0.026,2.446-2.583,5.614-2.583
		c0.009,0,0.02,0,0.029,0c1.874,0.01,3.652,0.919,5.284,2.704c0.099,0.107,0.233,0.162,0.369,0.162c0.121,0,0.241-0.043,0.338-0.131
		c0.203-0.187,0.218-0.503,0.031-0.707C28.521,31.967,26.497,30.947,24.333,30.937z"/>
</g>
</svg>
