<?xml version="1.0" encoding="utf-8"?>
<!-- Generator: Adobe Illustrator 16.0.0, SVG Export Plug-In . SVG Version: 6.00 Build 0)  -->
<!DOCTYPE svg PUBLIC "-//W3C//DTD SVG 1.1//EN" "http://www.w3.org/Graphics/SVG/1.1/DTD/svg11.dtd">
<svg version="1.1" id="Layer_1" xmlns="http://www.w3.org/2000/svg" xmlns:xlink="http://www.w3.org/1999/xlink" x="0px" y="0px"
	 width="48px" height="48px" viewBox="0 0 48 48" enable-background="new 0 0 48 48" xml:space="preserve">
<g>
	<path fill="#414042" d="M23.983,1.625c-12.339,0-22.377,10.038-22.377,22.377c0,12.336,10.038,22.373,22.377,22.373
		c12.336,0,22.373-10.037,22.373-22.373C46.355,11.663,36.319,1.625,23.983,1.625z M23.983,45.375
		c-11.787,0-21.377-9.588-21.377-21.373c0-11.787,9.59-21.377,21.377-21.377c11.785,0,21.373,9.59,21.373,21.377
		C45.355,35.787,35.768,45.375,23.983,45.375z"/>
	<path fill="#414042" d="M37.917,15.675c-4.671-1.335-9.47-2.012-14.263-2.012c-8.173,0-13.426,1.942-13.646,2.025
		c-0.074,0.028-0.141,0.073-0.194,0.131c-0.089,0.099-0.873,0.989-0.801,1.9c0.032,0.395,0.219,0.74,0.541,0.997
		c0.074,0.06,0.169,0.097,0.264,0.107c0.006,0,0.495,0.069,0.506,0.241c-0.005,0.094-0.105,2.307,1.369,3.863
		c0.912,0.962,2.207,1.45,3.879,1.45c0.002,0,0.003,0,0.005,0c0.055-0.003,5.476-0.411,7.209-6.349
		c0.02-0.056,0.219-0.543,1.209-0.543c0.964,0,1.164,0.488,1.18,0.533c1.736,5.948,7.157,6.355,7.212,6.359
		c0.011,0,0.021,0.001,0.031,0.001c1.643,0,2.938-0.488,3.851-1.451c1.476-1.556,1.376-3.77,1.372-3.815
		c0.009-0.221,0.497-0.289,0.499-0.289c0.099-0.009,0.191-0.046,0.269-0.107c0.321-0.257,0.508-0.602,0.539-0.997
		c0.073-0.911-0.708-1.801-0.798-1.9C38.087,15.751,38.007,15.701,37.917,15.675z M37.866,17.855
		c-0.489,0.099-1.191,0.44-1.225,1.263c0.001,0.019,0.085,1.875-1.099,3.122c-0.713,0.752-1.759,1.135-3.107,1.139
		c-0.344-0.027-4.794-0.477-6.301-5.638c-0.015-0.051-0.38-1.255-2.167-1.255c-1.762,0-2.125,1.205-2.138,1.252
		c-1.535,5.258-6.122,5.628-6.284,5.64c-1.354,0-2.404-0.381-3.121-1.134c-1.18-1.238-1.104-3.109-1.103-3.176
		c-0.035-0.78-0.737-1.116-1.227-1.213c-0.051-0.063-0.078-0.131-0.085-0.213c-0.028-0.353,0.285-0.829,0.469-1.061
		c0.824-0.286,5.847-1.918,13.175-1.918c4.65,0,9.307,0.65,13.841,1.932c0.2,0.254,0.481,0.715,0.455,1.045
		C37.943,17.724,37.917,17.792,37.866,17.855z"/>
	<path fill="#414042" d="M34.405,29.101c-0.248-0.129-0.546-0.032-0.675,0.21c-0.104,0.2-2.662,4.889-10.287,4.889
		c-0.276,0-0.5,0.224-0.5,0.5s0.224,0.5,0.5,0.5c8.259,0,11.058-5.204,11.173-5.426C34.744,29.529,34.649,29.229,34.405,29.101z"/>
</g>
</svg>
