<?xml version="1.0" encoding="utf-8"?>
<!-- Generator: Adobe Illustrator 16.0.0, SVG Export Plug-In . SVG Version: 6.00 Build 0)  -->
<!DOCTYPE svg PUBLIC "-//W3C//DTD SVG 1.1//EN" "http://www.w3.org/Graphics/SVG/1.1/DTD/svg11.dtd">
<svg version="1.1" id="Layer_1" xmlns="http://www.w3.org/2000/svg" xmlns:xlink="http://www.w3.org/1999/xlink" x="0px" y="0px"
	 width="48px" height="48px" viewBox="0 0 48 48" enable-background="new 0 0 48 48" xml:space="preserve">
<g>
	<path fill="#414042" d="M29.98,15.137c-0.918,0-1.664,0.752-1.664,1.686c0,0.93,0.746,1.686,1.664,1.686
		c0.922,0,1.666-0.756,1.666-1.686C31.646,15.889,30.902,15.137,29.98,15.137z"/>
	<path fill="#414042" d="M17.981,15.137c-0.918,0-1.664,0.752-1.664,1.686c0,0.93,0.746,1.686,1.664,1.686
		c0.922,0,1.666-0.756,1.666-1.686C19.647,15.889,18.903,15.137,17.981,15.137z"/>
	<path fill="#414042" d="M23.983,1.625c-12.339,0-22.377,10.038-22.377,22.377c0,12.336,10.038,22.373,22.377,22.373
		c12.336,0,22.373-10.037,22.373-22.373C46.355,11.663,36.319,1.625,23.983,1.625z M23.983,45.375
		c-11.787,0-21.377-9.588-21.377-21.373c0-11.787,9.59-21.377,21.377-21.377c11.785,0,21.373,9.59,21.373,21.377
		C45.355,35.787,35.768,45.375,23.983,45.375z"/>
	<path fill="#414042" d="M23.981,27.488c-3.233,0-5.863,3.085-5.863,6.877c0,0.276,0.224,0.5,0.5,0.5s0.5-0.224,0.5-0.5
		c0-3.24,2.182-5.877,4.863-5.877c2.681,0,4.863,2.637,4.863,5.877c0,0.276,0.224,0.5,0.5,0.5s0.5-0.224,0.5-0.5
		C29.844,30.573,27.214,27.488,23.981,27.488z"/>
	<path fill="#414042" d="M29.98,12.17c-2.146,0-3.893,2.407-3.893,5.365S27.834,22.9,29.98,22.9c2.146,0,3.892-2.407,3.892-5.365
		S32.126,12.17,29.98,12.17z M29.98,21.9c-1.595,0-2.893-1.958-2.893-4.365s1.298-4.365,2.893-4.365s2.892,1.958,2.892,4.365
		S31.575,21.9,29.98,21.9z"/>
	<path fill="#414042" d="M21.873,17.535c0-2.958-1.746-5.365-3.892-5.365c-2.146,0-3.893,2.407-3.893,5.365s1.746,5.365,3.893,5.365
		C20.126,22.9,21.873,20.494,21.873,17.535z M17.981,21.9c-1.595,0-2.893-1.958-2.893-4.365s1.298-4.365,2.893-4.365
		s2.892,1.958,2.892,4.365S19.576,21.9,17.981,21.9z"/>
	<path fill="#414042" d="M28.121,8.188c0.063,0.057,0.143,0.097,0.226,0.116c0.007,0.002,0.757,0.178,2.261,0.984
		c0.769,0.411,1.12,0.889,1.431,1.311c0.298,0.405,0.605,0.823,1.183,1.003c0.049,0.015,0.1,0.022,0.148,0.022
		c0.213,0,0.41-0.137,0.478-0.351c0.082-0.264-0.065-0.544-0.329-0.626c-0.251-0.078-0.404-0.273-0.674-0.641
		c-0.337-0.457-0.797-1.083-1.764-1.6c-1.288-0.69-2.079-0.956-2.38-1.042L27.234,6.05c-0.205-0.184-0.521-0.167-0.706,0.038
		s-0.167,0.522,0.038,0.706L28.121,8.188z"/>
	<path fill="#414042" d="M14.592,11.625c0.049,0,0.1-0.007,0.149-0.023c0.575-0.18,0.882-0.597,1.179-1.001
		c0.312-0.422,0.663-0.901,1.434-1.313c1.502-0.806,2.252-0.982,2.257-0.983c0.084-0.019,0.163-0.059,0.228-0.116l1.557-1.395
		c0.205-0.185,0.223-0.5,0.038-0.706c-0.185-0.207-0.501-0.223-0.706-0.039L19.26,7.364c-0.302,0.087-1.092,0.353-2.378,1.042
		c-0.97,0.518-1.431,1.145-1.767,1.602c-0.27,0.366-0.422,0.561-0.673,0.64c-0.264,0.082-0.41,0.363-0.328,0.626
		C14.182,11.488,14.379,11.625,14.592,11.625z"/>
</g>
</svg>
