<?xml version="1.0" encoding="utf-8"?>
<!-- Generator: Adobe Illustrator 16.0.0, SVG Export Plug-In . SVG Version: 6.00 Build 0)  -->
<!DOCTYPE svg PUBLIC "-//W3C//DTD SVG 1.1//EN" "http://www.w3.org/Graphics/SVG/1.1/DTD/svg11.dtd">
<svg version="1.1" id="Layer_1" xmlns="http://www.w3.org/2000/svg" xmlns:xlink="http://www.w3.org/1999/xlink" x="0px" y="0px"
	 width="48px" height="48px" viewBox="0 0 48 48" enable-background="new 0 0 48 48" xml:space="preserve">
<g>
	<path fill="#414042" d="M23.983,1.625c-12.339,0-22.377,10.038-22.377,22.377c0,12.336,10.038,22.373,22.377,22.373
		c12.336,0,22.373-10.037,22.373-22.373C46.355,11.663,36.319,1.625,23.983,1.625z M23.983,45.375
		c-11.787,0-21.377-9.588-21.377-21.373c0-11.787,9.59-21.377,21.377-21.377c11.785,0,21.373,9.59,21.373,21.377
		C45.355,35.787,35.768,45.375,23.983,45.375z"/>
	<path fill="#414042" d="M28.981,24.832c2.146,0,3.892-2.406,3.892-5.363c0-2.958-1.746-5.365-3.892-5.365
		c-2.146,0-3.893,2.407-3.893,5.365C25.089,22.426,26.835,24.832,28.981,24.832z M28.981,15.104c1.595,0,2.892,1.958,2.892,4.365
		c0,1.596-0.577,2.98-1.427,3.741c0.124-0.207,0.2-0.439,0.2-0.69c0-0.82-0.743-1.48-1.665-1.48c-0.92,0-1.666,0.66-1.666,1.48
		c0,0.25,0.077,0.483,0.2,0.69c-0.85-0.761-1.427-2.145-1.427-3.741C26.089,17.062,27.387,15.104,28.981,15.104z"/>
	<path fill="#414042" d="M16.982,24.832c2.146,0,3.892-2.406,3.892-5.363c0-2.958-1.746-5.365-3.892-5.365
		c-2.146,0-3.893,2.407-3.893,5.365C13.089,22.426,14.835,24.832,16.982,24.832z M16.982,15.104c1.595,0,2.892,1.958,2.892,4.365
		c0,1.596-0.577,2.98-1.427,3.741c0.124-0.207,0.2-0.439,0.2-0.69c0-0.82-0.743-1.48-1.665-1.48c-0.92,0-1.666,0.66-1.666,1.48
		c0,0.25,0.077,0.483,0.201,0.69c-0.85-0.761-1.427-2.145-1.427-3.741C14.089,17.062,15.387,15.104,16.982,15.104z"/>
	<path fill="#414042" d="M32.86,23.036c-0.148-0.389-0.787-0.388-0.936,0c-0.008,0.02-0.772,2.021-2.329,4.485
		c-0.482,0.765-0.793,1.547-0.944,2.316c-1.265-0.427-2.635-0.691-4.102-0.77c-0.05-0.017-0.103-0.025-0.158-0.025h-0.822
		c-0.055,0-0.107,0.009-0.156,0.025c-7.502,0.389-10.082,5.188-10.192,5.4c-0.127,0.244-0.032,0.545,0.212,0.673
		c0.074,0.038,0.153,0.058,0.23,0.058c0.181,0,0.354-0.098,0.444-0.268c0.103-0.197,2.569-4.719,9.871-4.884
		c1.661,0.037,3.192,0.317,4.576,0.813c0,0.79,0.176,1.549,0.554,2.234c0.709,1.285,1.968,2.084,3.285,2.084
		c1.298,0,2.588-0.818,3.285-2.084c0.898-1.629,0.721-3.66-0.487-5.574C33.634,25.057,32.868,23.056,32.86,23.036z M34.803,32.612
		c-0.525,0.952-1.471,1.567-2.41,1.567c-0.938,0-1.885-0.615-2.409-1.566c-0.717-1.301-0.55-2.961,0.458-4.557
		c0.914-1.449,1.559-2.727,1.951-3.578c0.394,0.851,1.038,2.128,1.952,3.578C35.353,29.651,35.52,31.313,34.803,32.612z"/>
</g>
</svg>
