<?xml version="1.0" encoding="utf-8"?>
<!-- Generator: Adobe Illustrator 16.0.0, SVG Export Plug-In . SVG Version: 6.00 Build 0)  -->
<!DOCTYPE svg PUBLIC "-//W3C//DTD SVG 1.1//EN" "http://www.w3.org/Graphics/SVG/1.1/DTD/svg11.dtd">
<svg version="1.1" id="Layer_1" xmlns="http://www.w3.org/2000/svg" xmlns:xlink="http://www.w3.org/1999/xlink" x="0px" y="0px"
	 width="48px" height="48px" viewBox="0 0 48 48" enable-background="new 0 0 48 48" xml:space="preserve">
<g>
	<path fill="#414042" d="M23.984,1.625c-12.339,0-22.377,10.038-22.377,22.377c0,12.336,10.038,22.373,22.377,22.373
		c12.336,0,22.373-10.037,22.373-22.373C46.356,11.663,36.32,1.625,23.984,1.625z M23.984,45.375
		c-11.787,0-21.377-9.588-21.377-21.373c0-11.787,9.59-21.377,21.377-21.377c11.785,0,21.373,9.59,21.373,21.377
		C45.356,35.787,35.769,45.375,23.984,45.375z"/>
	<path fill="#414042" d="M34.298,29.043H13.664c-0.144,0-0.279,0.062-0.374,0.168c-0.095,0.107-0.14,0.25-0.122,0.393
		c0.011,0.091,1.188,8.949,10.223,9.563c0.056,0.021,0.116,0.033,0.18,0.033h0.822c0.06,0,0.117-0.011,0.171-0.029
		c9.48-0.584,10.227-9.5,10.234-9.592c0.01-0.139-0.038-0.274-0.133-0.376S34.437,29.043,34.298,29.043z M23.991,38.193
		c-7.469-0.209-9.33-6.243-9.732-8.15h19.473C33.425,31.919,31.828,37.983,23.991,38.193z"/>
	<path fill="#414042" d="M29.981,23.34c2.146,0,3.891-2.406,3.891-5.363c0-2.958-1.745-5.365-3.891-5.365
		c-2.146,0-3.893,2.407-3.893,5.365C26.089,20.934,27.835,23.34,29.981,23.34z M29.981,13.611c1.594,0,2.891,1.958,2.891,4.365
		c0,1.269-0.366,2.403-0.941,3.201c0.069-0.243,0.115-0.499,0.115-0.769c0-1.344-0.924-2.432-2.064-2.432
		c-1.143,0-2.066,1.088-2.066,2.432c0,0.27,0.046,0.525,0.115,0.768c-0.575-0.798-0.941-1.932-0.941-3.2
		C27.089,15.569,28.387,13.611,29.981,13.611z"/>
	<path fill="#414042" d="M17.982,23.34c2.146,0,3.892-2.406,3.892-5.363c0-2.958-1.746-5.365-3.892-5.365
		c-2.146,0-3.893,2.407-3.893,5.365C14.089,20.934,15.835,23.34,17.982,23.34z M17.982,13.611c1.595,0,2.892,1.958,2.892,4.365
		c0,1.27-0.367,2.404-0.943,3.202c0.069-0.243,0.116-0.5,0.116-0.771c0-1.344-0.924-2.432-2.064-2.432
		c-1.143,0-2.066,1.088-2.066,2.432c0,0.27,0.046,0.525,0.115,0.768c-0.574-0.798-0.941-1.932-0.941-3.2
		C15.089,15.569,16.387,13.611,17.982,13.611z"/>
</g>
</svg>
