<?xml version="1.0" encoding="utf-8"?>
<!-- Generator: Adobe Illustrator 16.0.0, SVG Export Plug-In . SVG Version: 6.00 Build 0)  -->
<!DOCTYPE svg PUBLIC "-//W3C//DTD SVG 1.1//EN" "http://www.w3.org/Graphics/SVG/1.1/DTD/svg11.dtd">
<svg version="1.1" id="Layer_1" xmlns="http://www.w3.org/2000/svg" xmlns:xlink="http://www.w3.org/1999/xlink" x="0px" y="0px"
	 width="48px" height="48px" viewBox="0 0 48 48" enable-background="new 0 0 48 48" xml:space="preserve">
<g>
	<path fill="#414042" d="M23.983,1.625c-12.339,0-22.377,10.038-22.377,22.377c0,12.336,10.038,22.373,22.377,22.373
		c12.336,0,22.373-10.037,22.373-22.373C46.355,11.663,36.319,1.625,23.983,1.625z M23.983,45.375
		c-11.787,0-21.377-9.588-21.377-21.373c0-11.787,9.59-21.377,21.377-21.377c11.785,0,21.373,9.59,21.373,21.377
		C45.355,35.787,35.768,45.375,23.983,45.375z"/>
	<path fill="#414042" d="M29.504,13.863c-2.146,0-3.893,2.407-3.893,5.365s1.746,5.365,3.893,5.365s3.893-2.407,3.893-5.365
		S31.65,13.863,29.504,13.863z M29.504,23.594c-1.595,0-2.893-1.958-2.893-4.365c0-1.732,0.677-3.218,1.647-3.923
		c-0.258,0.26-0.419,0.598-0.419,0.974c0,0.816,0.746,1.48,1.664,1.48c0.922,0,1.666-0.664,1.666-1.48
		c0-0.372-0.158-0.706-0.411-0.965c0.966,0.708,1.638,2.189,1.638,3.915C32.396,21.636,31.099,23.594,29.504,23.594z"/>
	<path fill="#414042" d="M21.397,19.229c0-2.958-1.746-5.365-3.893-5.365s-3.893,2.407-3.893,5.365s1.746,5.365,3.893,5.365
		S21.397,22.187,21.397,19.229z M17.504,23.594c-1.595,0-2.893-1.958-2.893-4.365c0-1.732,0.677-3.218,1.647-3.923
		c-0.257,0.26-0.419,0.598-0.419,0.974c0,0.816,0.746,1.48,1.664,1.48c0.922,0,1.666-0.664,1.666-1.48
		c0-0.372-0.158-0.706-0.411-0.965c0.965,0.708,1.637,2.189,1.637,3.915C20.397,21.636,19.099,23.594,17.504,23.594z"/>
	<path fill="#414042" d="M29.539,33.9c-0.306,0.369-0.626,0.557-0.979,0.574c-0.654,0.023-1.235-0.523-1.236-0.523
		c-0.595-0.605-1.24-0.907-1.936-0.883c-1.087,0.031-1.837,0.863-1.832,0.863c0,0,0,0,0.001,0c-1.271,1.095-2.375,0.129-2.497,0.016
		c-0.553-0.521-1.129-0.771-1.777-0.746c-0.957,0.043-1.594,0.747-1.621,0.777c-0.183,0.205-0.164,0.518,0.04,0.701
		c0.206,0.186,0.521,0.168,0.705-0.034c0.004-0.005,0.396-0.426,0.929-0.445c0.326-0.012,0.691,0.147,1.036,0.472
		c0.632,0.605,2.247,1.391,3.888-0.031c0.005-0.006,0.503-0.555,1.157-0.572c0.448-0.02,0.803,0.185,1.198,0.587
		c0.035,0.034,0.839,0.821,1.889,0.821c0.033,0,0.065-0.001,0.099-0.002c0.643-0.031,1.217-0.345,1.707-0.934
		c0.176-0.213,0.147-0.527-0.065-0.705C30.034,33.661,29.718,33.688,29.539,33.9z"/>
	<path fill="#414042" d="M27.505,10.495c-0.271,0.051-0.45,0.313-0.398,0.584c0.051,0.272,0.314,0.448,0.584,0.398
		c0.035-0.006,3.506-0.626,5.198,2.168c0.094,0.155,0.259,0.241,0.428,0.241c0.089,0,0.178-0.023,0.259-0.072
		c0.236-0.143,0.312-0.451,0.169-0.687C31.695,9.745,27.673,10.463,27.505,10.495z"/>
	<path fill="#414042" d="M14.975,13.063c0.146,0,0.29-0.063,0.389-0.185c2.044-2.524,5.353-1.398,5.491-1.35
		c0.262,0.094,0.547-0.045,0.638-0.305c0.092-0.26-0.043-0.545-0.303-0.638c-0.041-0.015-4.11-1.417-6.604,1.662
		c-0.174,0.215-0.141,0.53,0.074,0.704C14.753,13.026,14.864,13.063,14.975,13.063z"/>
</g>
</svg>
