<?xml version="1.0" encoding="utf-8"?>
<!-- Generator: Adobe Illustrator 16.0.0, SVG Export Plug-In . SVG Version: 6.00 Build 0)  -->
<!DOCTYPE svg PUBLIC "-//W3C//DTD SVG 1.1//EN" "http://www.w3.org/Graphics/SVG/1.1/DTD/svg11.dtd">
<svg version="1.1" id="Layer_1" xmlns="http://www.w3.org/2000/svg" xmlns:xlink="http://www.w3.org/1999/xlink" x="0px" y="0px"
	 width="48px" height="48px" viewBox="0 0 48 48" enable-background="new 0 0 48 48" xml:space="preserve">
<g>
	<path fill="#414042" d="M23.983,1.625c-12.339,0-22.377,10.038-22.377,22.377c0,12.336,10.038,22.373,22.377,22.373
		c12.336,0,22.373-10.037,22.373-22.373C46.355,11.663,36.319,1.625,23.983,1.625z M23.983,45.375
		c-11.787,0-21.377-9.588-21.377-21.373c0-11.787,9.59-21.377,21.377-21.377c11.785,0,21.373,9.59,21.373,21.377
		C45.355,35.787,35.768,45.375,23.983,45.375z"/>
	<path fill="#414042" d="M31.838,29.742c-0.002-0.032-0.001-0.064-0.009-0.096c-0.002-0.007,0-0.013-0.002-0.019
		c-0.008-0.025-0.024-0.044-0.036-0.067c-0.015-0.03-0.026-0.061-0.046-0.087c-0.021-0.028-0.048-0.05-0.074-0.072
		c-0.022-0.02-0.042-0.04-0.067-0.056c-0.031-0.019-0.065-0.028-0.101-0.04c-0.022-0.008-0.041-0.021-0.065-0.026
		c-3.064-0.561-6.668,0.298-7.445,0.499c-2.977-0.913-7.243-0.522-7.427-0.505c-0.009,0.001-0.016,0.006-0.025,0.008
		c-0.028,0.004-0.054,0.016-0.082,0.024c-0.036,0.012-0.071,0.022-0.102,0.041c-0.021,0.013-0.037,0.03-0.055,0.045
		c-0.031,0.026-0.062,0.051-0.086,0.084c-0.004,0.006-0.011,0.009-0.016,0.015c-0.013,0.019-0.015,0.04-0.025,0.06
		c-0.016,0.032-0.032,0.063-0.042,0.1c-0.008,0.032-0.009,0.063-0.01,0.096c-0.001,0.025-0.01,0.048-0.008,0.073
		c0.001,0.009,0.006,0.015,0.007,0.023c0.006,0.04,0.021,0.076,0.036,0.114c0.009,0.021,0.014,0.044,0.026,0.063
		c0.022,0.038,0.053,0.069,0.085,0.102c0.015,0.015,0.027,0.031,0.043,0.044c0.007,0.006,0.011,0.015,0.019,0.02
		c0.013,0.009,1.284,0.892,1.501,2.065c0.149,0.809,0.81,1.669,1.765,2.301c0.593,0.391,1.691,0.945,3.157,0.945
		c0.385,0,0.794-0.039,1.226-0.127c2.08,0.429,3.633-0.324,4.379-0.817c0.957-0.631,1.618-1.491,1.753-2.235
		c0.255-0.763,0.852-1.908,1.378-2.066c0.026-0.008,0.046-0.025,0.069-0.037c0.028-0.014,0.057-0.024,0.081-0.043
		c0.032-0.023,0.058-0.053,0.083-0.084c0.016-0.019,0.033-0.035,0.047-0.057c0.021-0.034,0.032-0.07,0.044-0.108
		c0.007-0.021,0.021-0.038,0.024-0.06c0.001-0.006-0.001-0.012,0-0.018C31.845,29.811,31.84,29.777,31.838,29.742z M29.147,32.066
		c-0.1,0.533-0.625,1.181-1.337,1.65c-0.629,0.414-1.944,1.051-3.72,0.652c-0.072-0.016-0.146-0.016-0.219,0
		c-1.775,0.4-3.094-0.238-3.722-0.653c-0.712-0.47-1.235-1.117-1.333-1.647c-0.14-0.76-0.571-1.398-0.99-1.867
		c1.491-0.057,4.105-0.044,5.999,0.573c0.051,0.017,0.103,0.024,0.155,0.024c0.045,0,0.091-0.006,0.135-0.019
		c0.036-0.01,3.12-0.855,6.017-0.653C29.581,30.842,29.243,31.77,29.147,32.066z"/>
	<path fill="#414042" d="M29.98,12.988c-2.146,0-3.893,2.407-3.893,5.365s1.746,5.365,3.893,5.365s3.893-2.407,3.893-5.365
		S32.127,12.988,29.98,12.988z M32.007,21.461c0.025-0.151,0.04-0.306,0.04-0.465c0-1.344-0.924-2.434-2.064-2.434
		c-1.143,0-2.066,1.09-2.066,2.434c0,0.16,0.015,0.316,0.04,0.467c-0.534-0.792-0.868-1.892-0.868-3.11
		c0-2.407,1.298-4.365,2.893-4.365s2.893,1.958,2.893,4.365C32.873,19.569,32.541,20.668,32.007,21.461z"/>
	<path fill="#414042" d="M21.874,18.354c0-2.958-1.746-5.365-3.893-5.365s-3.893,2.407-3.893,5.365s1.746,5.365,3.893,5.365
		S21.874,21.312,21.874,18.354z M15.088,18.354c0-2.407,1.298-4.365,2.893-4.365s2.893,1.958,2.893,4.365
		c0,1.216-0.333,2.315-0.866,3.107c0.024-0.151,0.04-0.306,0.04-0.465c0-1.344-0.924-2.434-2.064-2.434
		c-1.143,0-2.066,1.09-2.066,2.434c0,0.16,0.015,0.316,0.04,0.467C15.422,20.671,15.088,19.571,15.088,18.354z"/>
</g>
</svg>
