<?xml version="1.0" encoding="utf-8"?>
<!-- Generator: Adobe Illustrator 16.0.0, SVG Export Plug-In . SVG Version: 6.00 Build 0)  -->
<!DOCTYPE svg PUBLIC "-//W3C//DTD SVG 1.1//EN" "http://www.w3.org/Graphics/SVG/1.1/DTD/svg11.dtd">
<svg version="1.1" id="Layer_1" xmlns="http://www.w3.org/2000/svg" xmlns:xlink="http://www.w3.org/1999/xlink" x="0px" y="0px"
	 width="48px" height="48px" viewBox="0 0 48 48" enable-background="new 0 0 48 48" xml:space="preserve">
<g>
	<path fill="#414042" d="M20.876,23.625c0-1.271-1.014-2.299-2.271-2.299c-1.254,0-2.27,1.027-2.27,2.299
		c0,1.268,1.016,2.299,2.27,2.299C19.863,25.924,20.876,24.893,20.876,23.625z"/>
	<path fill="#414042" d="M27.065,23.625c0,1.279,1.023,2.316,2.287,2.316c1.268,0,2.289-1.037,2.289-2.316
		c0-1.281-1.021-2.316-2.289-2.316C28.089,21.309,27.065,22.344,27.065,23.625z"/>
	<path fill="#414042" d="M38.168,13.901c4.014-9.85-1.321-12.568-1.551-12.679c-0.195-0.095-0.437-0.051-0.586,0.112
		s-0.175,0.403-0.063,0.593c1.801,3.04-2.836,7.49-3.542,8.142c-2.571-1.15-5.425-1.811-8.443-1.811
		c-3.613,0-6.997,0.932-9.929,2.541C12.97,9.965,8.388,6.206,9.792,3.142c0.092-0.2,0.042-0.437-0.123-0.583
		C9.503,2.414,9.264,2.392,9.076,2.508c-0.214,0.131-5.134,3.304-0.332,12.5c-3.019,3.375-4.855,7.75-4.855,12.537
		c0,10.633,9.015,19.283,20.096,19.283c11.077,0,20.089-8.65,20.089-19.283C44.073,22.221,41.813,17.394,38.168,13.901z
		 M33.475,10.454C34.658,9.3,37.56,6.15,37.373,3.192c1.072,1.382,2.184,4.295,0.079,9.801l-2.193-1.4
		c-0.042-0.027-0.084-0.053-0.126-0.081L33.475,10.454z M8.53,4.507c0.103,2.936,3.257,5.764,4.594,6.834
		c-1.335,0.828-2.56,1.801-3.653,2.899C6.791,8.941,7.601,5.961,8.53,4.507z M23.984,45.828c-10.529,0-19.096-8.201-19.096-18.283
		c0-4.699,1.876-8.975,4.928-12.218l4.33-3.426c2.878-1.666,6.236-2.643,9.837-2.643c3.913,0,7.552,1.137,10.583,3.08l0.141,0.089
		c5.045,3.295,8.365,8.841,8.365,15.118C43.073,37.627,34.51,45.828,23.984,45.828z"/>
	<path fill="#414042" d="M24.496,31.824c-0.046-0.014-0.096-0.021-0.146-0.021h-0.736c-0.051,0-0.101,0.008-0.146,0.021
		c-6.74,0.338-9.066,4.484-9.166,4.668c-0.132,0.242-0.042,0.544,0.2,0.676c0.244,0.134,0.546,0.043,0.678-0.197
		c0.093-0.168,2.291-4.023,8.803-4.164c6.511,0.141,8.709,3.996,8.802,4.164c0.091,0.165,0.263,0.259,0.439,0.259
		c0.08,0,0.162-0.02,0.238-0.062c0.242-0.132,0.332-0.434,0.2-0.676C33.562,36.309,31.235,32.162,24.496,31.824z"/>
	<path fill="#414042" d="M25.815,23.627c0,2.578,1.588,4.676,3.539,4.676c1.95,0,3.537-2.098,3.537-4.676
		c0-2.581-1.587-4.68-3.537-4.68C27.403,18.947,25.815,21.046,25.815,23.627z M31.892,23.627c0,2.027-1.138,3.676-2.537,3.676
		c-1.4,0-2.539-1.648-2.539-3.676c0-2.029,1.139-3.68,2.539-3.68C30.754,19.947,31.892,21.598,31.892,23.627z"/>
	<path fill="#414042" d="M18.607,28.303c1.95,0,3.537-2.098,3.537-4.676c0-2.581-1.587-4.68-3.537-4.68
		c-1.951,0-3.539,2.099-3.539,4.68C15.068,26.205,16.656,28.303,18.607,28.303z M18.607,19.947c1.399,0,2.537,1.651,2.537,3.68
		c0,2.027-1.138,3.676-2.537,3.676c-1.4,0-2.539-1.648-2.539-3.676C16.068,21.598,17.207,19.947,18.607,19.947z"/>
	<path fill="#414042" d="M17.74,16.597c0.124-0.006,3.132-0.087,4.34,2.508c0.085,0.182,0.265,0.289,0.453,0.289
		c0.071,0,0.143-0.015,0.211-0.047c0.25-0.116,0.359-0.414,0.242-0.664c-1.493-3.208-5.141-3.091-5.286-3.085
		c-0.276,0.012-0.489,0.244-0.479,0.519S17.453,16.629,17.74,16.597z"/>
	<path fill="#414042" d="M25.336,19.313c0.068,0.032,0.14,0.046,0.21,0.046c0.188,0,0.369-0.107,0.454-0.29
		c1.202-2.599,4.203-2.512,4.332-2.515c0.288,0.027,0.508-0.205,0.518-0.48c0.011-0.275-0.203-0.507-0.479-0.519
		c-0.155-0.006-3.795-0.115-5.279,3.094C24.977,18.9,25.085,19.197,25.336,19.313z"/>
</g>
</svg>
