<?xml version="1.0" encoding="utf-8"?>
<!-- Generator: Adobe Illustrator 16.0.0, SVG Export Plug-In . SVG Version: 6.00 Build 0)  -->
<!DOCTYPE svg PUBLIC "-//W3C//DTD SVG 1.1//EN" "http://www.w3.org/Graphics/SVG/1.1/DTD/svg11.dtd">
<svg version="1.1" id="Layer_1" xmlns="http://www.w3.org/2000/svg" xmlns:xlink="http://www.w3.org/1999/xlink" x="0px" y="0px"
	 width="48px" height="48px" viewBox="0 0 48 48" enable-background="new 0 0 48 48" xml:space="preserve">
<g>
	<ellipse fill="#414042" cx="18.157" cy="18.785" rx="1.666" ry="1.686"/>
	<ellipse fill="#414042" cx="29.655" cy="18.785" rx="1.665" ry="1.686"/>
	<path fill="#414042" d="M23.983,1.625c-12.339,0-22.377,10.038-22.377,22.377c0,12.336,10.038,22.373,22.377,22.373
		c12.336,0,22.373-10.037,22.373-22.373C46.355,11.663,36.319,1.625,23.983,1.625z M23.983,45.375
		c-11.787,0-21.377-9.588-21.377-21.373c0-11.787,9.59-21.377,21.377-21.377c11.785,0,21.373,9.59,21.373,21.377
		C45.355,35.787,35.768,45.375,23.983,45.375z"/>
	<path fill="#414042" d="M24.548,29.068c-0.049-0.017-0.102-0.025-0.156-0.025H23.57c-0.055,0-0.107,0.009-0.156,0.025
		c-7.502,0.389-10.083,5.188-10.193,5.4c-0.127,0.244-0.032,0.545,0.212,0.673c0.247,0.128,0.547,0.032,0.675-0.21
		c0.103-0.197,2.569-4.72,9.874-4.885c7.304,0.165,9.771,4.688,9.874,4.885c0.09,0.17,0.264,0.268,0.444,0.268
		c0.077,0,0.156-0.02,0.23-0.058c0.244-0.128,0.339-0.429,0.212-0.673C34.631,34.256,32.05,29.457,24.548,29.068z"/>
	<path fill="#414042" d="M26.088,19.439c0,2.958,1.746,5.363,3.893,5.363s3.893-2.406,3.893-5.363c0-2.958-1.746-5.365-3.893-5.365
		S26.088,16.481,26.088,19.439z M32.873,19.439c0,2.406-1.298,4.363-2.893,4.363s-2.893-1.958-2.893-4.363
		c0-2.407,1.298-4.365,2.893-4.365S32.873,17.032,32.873,19.439z"/>
	<path fill="#414042" d="M17.981,24.803c2.146,0,3.893-2.406,3.893-5.363c0-2.958-1.746-5.365-3.893-5.365s-3.893,2.407-3.893,5.365
		C14.088,22.397,15.834,24.803,17.981,24.803z M17.981,15.074c1.595,0,2.893,1.958,2.893,4.365c0,2.406-1.298,4.363-2.893,4.363
		s-2.893-1.958-2.893-4.363C15.088,17.032,16.386,15.074,17.981,15.074z"/>
	<path fill="#414042" d="M17.014,11.171c0.041-0.001,3.521-0.116,4.893,2.96c0.083,0.186,0.266,0.296,0.457,0.296
		c0.068,0,0.138-0.014,0.204-0.043c0.252-0.112,0.365-0.408,0.253-0.66c-1.646-3.688-5.676-3.555-5.85-3.552
		c-0.276,0.012-0.49,0.246-0.479,0.521C16.505,10.969,16.717,11.19,17.014,11.171z"/>
	<path fill="#414042" d="M25.525,14.344c0.066,0.029,0.135,0.043,0.203,0.043c0.191,0,0.374-0.111,0.457-0.297
		c1.36-3.064,4.745-2.977,4.888-2.967c0.321,0.035,0.509-0.204,0.52-0.479s-0.202-0.508-0.478-0.52
		c-0.175-0.009-4.203-0.135-5.844,3.561C25.159,13.936,25.273,14.232,25.525,14.344z"/>
</g>
</svg>
