<?xml version="1.0" encoding="utf-8"?>
<!-- Generator: Adobe Illustrator 16.0.0, SVG Export Plug-In . SVG Version: 6.00 Build 0)  -->
<!DOCTYPE svg PUBLIC "-//W3C//DTD SVG 1.1//EN" "http://www.w3.org/Graphics/SVG/1.1/DTD/svg11.dtd">
<svg version="1.1" id="Layer_1" xmlns="http://www.w3.org/2000/svg" xmlns:xlink="http://www.w3.org/1999/xlink" x="0px" y="0px"
	 width="48px" height="48px" viewBox="0 0 48 48" enable-background="new 0 0 48 48" xml:space="preserve">
<g>
	<path fill="#414042" d="M23.984,1.625c-12.339,0-22.377,10.038-22.377,22.377c0,12.336,10.038,22.373,22.377,22.373
		c12.336,0,22.373-10.037,22.373-22.373C46.356,11.663,36.32,1.625,23.984,1.625z M23.984,45.375
		c-11.787,0-21.377-9.588-21.377-21.373c0-11.787,9.59-21.377,21.377-21.377c11.785,0,21.373,9.59,21.373,21.377
		C45.356,35.787,35.769,45.375,23.984,45.375z"/>
	<path fill="#414042" d="M17.422,23.922c0.086,0.061,0.188,0.092,0.288,0.092s0.201-0.03,0.287-0.09
		c3.611-2.53,4.499-4.764,4.502-4.772c0.138-0.346,0.313-0.904,0.355-1.328c0.01-0.043,0.014-0.087,0.011-0.131l-0.045-0.915
		c-0.131-0.763-0.439-1.359-0.945-1.822c-0.368-0.336-0.767-0.534-1.215-0.603c-0.294-0.047-0.586-0.051-0.882-0.028
		c-0.367,0.029-0.688,0.12-0.98,0.276c-0.277,0.148-0.533,0.356-0.81,0.657l-0.281,0.319l-0.19-0.218
		c-0.186-0.21-0.473-0.513-0.835-0.723c-0.287-0.166-0.595-0.264-0.94-0.301c-0.342-0.036-0.679-0.035-1.013,0.021
		c-0.377,0.061-0.721,0.218-1.05,0.481c-0.513,0.406-0.848,0.941-1.023,1.64c-0.03,0.127-0.051,0.262-0.069,0.388l-0.036,0.259
		l0.006,0.746l0.033,0.188c0.051,0.317,0.223,0.821,0.363,1.176C13.847,21.248,16.376,23.184,17.422,23.922z M13.576,17.891
		l-0.032-0.685l0.031-0.188c0.015-0.104,0.029-0.208,0.053-0.302c0.12-0.479,0.334-0.827,0.674-1.096
		c0.195-0.156,0.382-0.243,0.588-0.277c0.139-0.022,0.278-0.032,0.417-0.032c0.109,0,0.219,0.007,0.33,0.019
		c0.207,0.022,0.38,0.077,0.544,0.172c0.236,0.137,0.448,0.362,0.585,0.518l0.56,0.654c0.095,0.112,0.234,0.177,0.381,0.177h0.001
		c0.146,0,0.286-0.064,0.381-0.176l0.645-0.746c0.192-0.21,0.363-0.352,0.54-0.446c0.167-0.09,0.358-0.143,0.584-0.161
		c0.215-0.017,0.428-0.017,0.649,0.019c0.254,0.039,0.475,0.152,0.695,0.353c0.335,0.307,0.542,0.716,0.628,1.191l0.036,0.803
		c-0.002,0.011-0.003,0.021-0.003,0.027c-0.031,0.308-0.173,0.77-0.292,1.068c-0.008,0.02-0.801,1.896-3.857,4.116
		c-0.98-0.721-3.112-2.42-3.838-4.053C13.732,18.484,13.607,18.087,13.576,17.891z"/>
	<path fill="#414042" d="M34.529,29.007c-0.248-0.13-0.546-0.032-0.675,0.21c-0.103,0.197-2.569,4.72-9.874,4.885
		c-7.305-0.165-9.771-4.688-9.874-4.885c-0.128-0.242-0.427-0.339-0.675-0.21c-0.244,0.128-0.339,0.429-0.212,0.673
		c0.11,0.213,2.691,5.012,10.193,5.4c0.049,0.017,0.102,0.025,0.156,0.025h0.822c0.055,0,0.107-0.009,0.156-0.025
		c7.501-0.389,10.083-5.188,10.193-5.4C34.868,29.436,34.773,29.135,34.529,29.007z"/>
	<path fill="#414042" d="M35.322,14.955c-0.368-0.336-0.767-0.534-1.215-0.603c-0.295-0.047-0.586-0.051-0.882-0.028
		c-0.367,0.029-0.688,0.12-0.98,0.276c-0.277,0.148-0.533,0.356-0.81,0.657l-0.281,0.319l-0.19-0.218
		c-0.186-0.21-0.473-0.513-0.835-0.723c-0.287-0.166-0.595-0.264-0.94-0.301c-0.342-0.036-0.678-0.035-1.013,0.021
		c-0.377,0.061-0.721,0.218-1.05,0.481c-0.513,0.406-0.848,0.941-1.023,1.64c-0.03,0.127-0.051,0.262-0.069,0.388l-0.036,0.259
		l0.006,0.746l0.033,0.188c0.051,0.317,0.223,0.821,0.363,1.176c0.895,2.015,3.424,3.951,4.47,4.689
		c0.086,0.061,0.188,0.092,0.288,0.092s0.201-0.03,0.287-0.09c3.611-2.53,4.499-4.764,4.502-4.772
		c0.138-0.346,0.313-0.904,0.355-1.328c0.01-0.043,0.014-0.087,0.011-0.131l-0.045-0.915C36.137,16.014,35.828,15.417,35.322,14.955
		z M35.309,17.714c-0.031,0.308-0.173,0.77-0.292,1.068c-0.008,0.02-0.801,1.896-3.857,4.116c-0.98-0.721-3.112-2.42-3.838-4.053
		c-0.143-0.362-0.268-0.759-0.299-0.955l-0.032-0.685l0.031-0.188c0.015-0.104,0.029-0.208,0.053-0.302
		c0.12-0.479,0.334-0.827,0.674-1.096c0.195-0.156,0.382-0.243,0.588-0.277c0.139-0.022,0.278-0.032,0.417-0.032
		c0.109,0,0.219,0.007,0.33,0.019c0.207,0.022,0.38,0.077,0.544,0.172c0.236,0.137,0.448,0.362,0.585,0.518l0.56,0.654
		c0.095,0.112,0.234,0.177,0.381,0.177h0.001c0.146,0,0.286-0.064,0.381-0.176l0.645-0.746c0.192-0.21,0.363-0.352,0.54-0.446
		c0.167-0.09,0.358-0.143,0.584-0.161c0.215-0.017,0.427-0.017,0.649,0.019c0.254,0.039,0.475,0.152,0.695,0.353
		c0.335,0.307,0.542,0.716,0.628,1.191l0.036,0.803C35.31,17.698,35.309,17.708,35.309,17.714z"/>
</g>
</svg>
