<?xml version="1.0" encoding="utf-8"?>
<!-- Generator: Adobe Illustrator 16.0.0, SVG Export Plug-In . SVG Version: 6.00 Build 0)  -->
<!DOCTYPE svg PUBLIC "-//W3C//DTD SVG 1.1//EN" "http://www.w3.org/Graphics/SVG/1.1/DTD/svg11.dtd">
<svg version="1.1" id="Layer_1" xmlns="http://www.w3.org/2000/svg" xmlns:xlink="http://www.w3.org/1999/xlink" x="0px" y="0px"
	 width="48px" height="48px" viewBox="0 0 48 48" enable-background="new 0 0 48 48" xml:space="preserve">
<g>
	<path fill="#414042" d="M23.983,1.625c-12.339,0-22.377,10.038-22.377,22.377c0,12.336,10.038,22.373,22.377,22.373
		c12.336,0,22.373-10.037,22.373-22.373C46.355,11.663,36.319,1.625,23.983,1.625z M23.983,45.375
		c-11.787,0-21.377-9.588-21.377-21.373c0-11.787,9.59-21.377,21.377-21.377c11.785,0,21.373,9.59,21.373,21.377
		C45.355,35.787,35.768,45.375,23.983,45.375z"/>
	<path fill="#414042" d="M21.096,39.717c-5.764,0-6.495-3.916-6.522-4.082c-0.045-0.271-0.307-0.461-0.573-0.414
		c-0.272,0.045-0.458,0.301-0.415,0.574c0.009,0.049,0.868,4.922,7.511,4.922c0.276,0,0.5-0.224,0.5-0.5
		S21.373,39.717,21.096,39.717z"/>
	<path fill="#414042" d="M22.002,7.27c-5.08-1.045-8.939,3.142-9.101,3.32c-0.185,0.205-0.169,0.521,0.036,0.706
		c0.096,0.087,0.215,0.129,0.335,0.129c0.137,0,0.272-0.056,0.371-0.165c0.035-0.04,3.626-3.943,8.157-3.012
		c0.266,0.053,0.534-0.117,0.591-0.389C22.447,7.59,22.273,7.326,22.002,7.27z"/>
	<path fill="#414042" d="M25.834,7.018c-0.275,0.025-0.479,0.269-0.453,0.543c0.024,0.275,0.291,0.474,0.543,0.453
		c0.058-0.004,5.343-0.438,8.04,3.313c0.098,0.136,0.251,0.208,0.406,0.208c0.102,0,0.203-0.031,0.292-0.094
		c0.224-0.161,0.275-0.474,0.114-0.698C31.747,6.53,26.07,6.994,25.834,7.018z"/>
	<path fill="#414042" d="M29.467,11.578c-2.146,0-3.893,2.407-3.893,5.365s1.746,5.365,3.893,5.365c2.146,0,3.892-2.407,3.892-5.365
		S31.612,11.578,29.467,11.578z M29.467,21.309c-1.595,0-2.893-1.958-2.893-4.365s1.298-4.365,2.893-4.365
		c0.359,0,0.7,0.112,1.018,0.293c-0.574,0.099-1.018,0.527-1.018,1.068c0,0.613,0.56,1.111,1.249,1.111
		c0.49,0,0.902-0.257,1.107-0.621c0.334,0.712,0.535,1.576,0.535,2.514C32.358,19.351,31.062,21.309,29.467,21.309z"/>
	<path fill="#414042" d="M17.467,22.309c2.146,0,3.892-2.407,3.892-5.365s-1.746-5.365-3.892-5.365
		c-2.146,0-3.893,2.407-3.893,5.365S15.321,22.309,17.467,22.309z M17.467,12.578c0.359,0,0.699,0.112,1.017,0.293
		c-0.576,0.099-1.02,0.527-1.02,1.068c0,0.613,0.56,1.111,1.249,1.111c0.491,0,0.905-0.258,1.109-0.624
		c0.335,0.713,0.537,1.578,0.537,2.516c0,2.407-1.297,4.365-2.892,4.365s-2.893-1.958-2.893-4.365S15.873,12.578,17.467,12.578z"/>
</g>
</svg>
