<?xml version="1.0" encoding="utf-8"?>
<!-- Generator: Adobe Illustrator 16.0.0, SVG Export Plug-In . SVG Version: 6.00 Build 0)  -->
<!DOCTYPE svg PUBLIC "-//W3C//DTD SVG 1.1//EN" "http://www.w3.org/Graphics/SVG/1.1/DTD/svg11.dtd">
<svg version="1.1" id="Layer_1" xmlns="http://www.w3.org/2000/svg" xmlns:xlink="http://www.w3.org/1999/xlink" x="0px" y="0px"
	 width="48px" height="48px" viewBox="0 0 48 48" enable-background="new 0 0 48 48" xml:space="preserve">
<g>
	<path fill="#414042" d="M23.983,1.625c-12.339,0-22.377,10.038-22.377,22.377c0,12.336,10.038,22.373,22.377,22.373
		c12.336,0,22.373-10.037,22.373-22.373C46.355,11.663,36.319,1.625,23.983,1.625z M23.983,45.375
		c-11.787,0-21.377-9.588-21.377-21.373c0-11.787,9.59-21.377,21.377-21.377c11.785,0,21.373,9.59,21.373,21.377
		C45.355,35.787,35.768,45.375,23.983,45.375z"/>
	<path fill="#414042" d="M14.26,7.876c0.035,0.007,3.481,0.756,4.624,3.684c0.077,0.198,0.266,0.318,0.466,0.318
		c0.061,0,0.122-0.011,0.182-0.034c0.258-0.101,0.385-0.39,0.284-0.647c-1.343-3.442-5.19-4.267-5.354-4.3
		c-0.272-0.055-0.534,0.119-0.59,0.389S13.991,7.82,14.26,7.876z"/>
	<path fill="#414042" d="M30.574,35.125H16.856c-0.276,0-0.5,0.224-0.5,0.5s0.224,0.5,0.5,0.5h13.718c0.276,0,0.5-0.224,0.5-0.5
		S30.851,35.125,30.574,35.125z"/>
	<path fill="#414042" d="M34.289,10.521h-7.432c-0.276,0-0.5,0.224-0.5,0.5s0.224,0.5,0.5,0.5h7.432c0.276,0,0.5-0.224,0.5-0.5
		S34.565,10.521,34.289,10.521z"/>
	<path fill="#414042" d="M29.591,14.193c-2.146,0-3.893,2.407-3.893,5.365s1.746,5.365,3.893,5.365c2.146,0,3.892-2.407,3.892-5.365
		S31.736,14.193,29.591,14.193z M29.591,23.924c-1.271,0-2.341-1.251-2.729-2.975c0.211,0.144,0.462,0.244,0.748,0.244
		c0.691,0,1.249-0.498,1.249-1.109c0-0.615-0.558-1.111-1.249-1.111c-0.353,0-0.669,0.132-0.896,0.342
		c0.086-2.292,1.337-4.121,2.876-4.121c1.595,0,2.892,1.958,2.892,4.365S31.186,23.924,29.591,23.924z"/>
	<path fill="#414042" d="M21.483,19.559c0-2.958-1.746-5.365-3.892-5.365c-2.146,0-3.893,2.407-3.893,5.365s1.746,5.365,3.893,5.365
		C19.737,24.924,21.483,22.517,21.483,19.559z M14.863,20.949c0.21,0.144,0.461,0.244,0.748,0.244c0.691,0,1.249-0.498,1.249-1.109
		c0-0.615-0.558-1.111-1.249-1.111c-0.353,0-0.668,0.132-0.896,0.342c0.086-2.292,1.337-4.121,2.876-4.121
		c1.595,0,2.892,1.958,2.892,4.365s-1.297,4.365-2.892,4.365C16.32,23.924,15.25,22.672,14.863,20.949z"/>
</g>
</svg>
