<?xml version="1.0" encoding="utf-8"?>
<!-- Generator: Adobe Illustrator 16.0.0, SVG Export Plug-In . SVG Version: 6.00 Build 0)  -->
<!DOCTYPE svg PUBLIC "-//W3C//DTD SVG 1.1//EN" "http://www.w3.org/Graphics/SVG/1.1/DTD/svg11.dtd">
<svg version="1.1" id="Layer_1" xmlns="http://www.w3.org/2000/svg" xmlns:xlink="http://www.w3.org/1999/xlink" x="0px" y="0px"
	 width="48px" height="48px" viewBox="0 0 48 48" enable-background="new 0 0 48 48" xml:space="preserve">
<g>
	<path fill="#414042" d="M23.983,1.625c-12.339,0-22.377,10.038-22.377,22.377c0,12.336,10.038,22.373,22.377,22.373
		c12.336,0,22.373-10.037,22.373-22.373C46.355,11.663,36.319,1.625,23.983,1.625z M23.983,45.375
		c-11.787,0-21.377-9.588-21.377-21.373c0-11.787,9.59-21.377,21.377-21.377c11.785,0,21.373,9.59,21.373,21.377
		C45.355,35.787,35.768,45.375,23.983,45.375z"/>
	<path fill="#414042" d="M29.468,12.104c-2.146,0-3.893,2.407-3.893,5.365s1.746,5.365,3.893,5.365c2.146,0,3.892-2.407,3.892-5.365
		S31.613,12.104,29.468,12.104z M29.468,21.834c-1.595,0-2.893-1.958-2.893-4.365s1.298-4.365,2.893-4.365
		c0.481,0,0.928,0.195,1.327,0.51c-0.155-0.052-0.322-0.084-0.498-0.084c-0.807,0-1.461,0.594-1.461,1.33
		c0,0.732,0.654,1.328,1.461,1.328c0.809,0,1.461-0.596,1.461-1.328c0-0.011-0.003-0.021-0.004-0.032
		c0.374,0.736,0.605,1.645,0.605,2.642C32.359,19.876,31.063,21.834,29.468,21.834z"/>
	<path fill="#414042" d="M21.36,17.469c0-2.958-1.746-5.365-3.892-5.365c-2.146,0-3.893,2.407-3.893,5.365s1.746,5.365,3.893,5.365
		C19.614,22.834,21.36,20.427,21.36,17.469z M17.468,21.834c-1.595,0-2.893-1.958-2.893-4.365s1.298-4.365,2.893-4.365
		c0.481,0,0.928,0.195,1.328,0.51c-0.156-0.052-0.322-0.084-0.499-0.084c-0.807,0-1.461,0.594-1.461,1.33
		c0,0.732,0.654,1.328,1.461,1.328c0.809,0,1.461-0.596,1.461-1.328c0-0.011-0.003-0.021-0.003-0.032
		c0.374,0.736,0.605,1.645,0.605,2.642C20.36,19.876,19.063,21.834,17.468,21.834z"/>
	<path fill="#414042" d="M21.801,8.431c0.266,0.054,0.534-0.117,0.591-0.389c0.055-0.271-0.119-0.535-0.39-0.59
		c-5.08-1.046-8.939,3.144-9.101,3.322c-0.185,0.205-0.169,0.521,0.035,0.706c0.096,0.087,0.216,0.129,0.336,0.129
		c0.136,0,0.271-0.055,0.37-0.164C13.679,11.406,17.282,7.505,21.801,8.431z"/>
	<path fill="#414042" d="M25.202,7.246c-0.275,0.025-0.477,0.268-0.453,0.543c0.024,0.274,0.271,0.474,0.542,0.453
		c0.052-0.007,5.349-0.43,8.04,3.315c0.098,0.136,0.251,0.208,0.406,0.208c0.102,0,0.203-0.03,0.292-0.094
		c0.224-0.161,0.275-0.473,0.114-0.698C31.114,6.758,25.439,7.224,25.202,7.246z"/>
	<path fill="#414042" d="M25.817,30.111c-0.466-0.637-1.01-0.979-1.622-1.016c-0.957-0.051-1.606,0.635-1.665,0.697l-3.5,3.416
		c-0.197,0.192-0.201,0.51-0.008,0.707c0.192,0.198,0.509,0.201,0.707,0.008l3.517-3.433c0.003-0.004,0.447-0.416,0.889-0.397
		c0.3,0.018,0.594,0.223,0.87,0.602l2.592,3.66c0.098,0.138,0.252,0.211,0.408,0.211c0.101,0,0.201-0.029,0.289-0.092
		c0.226-0.16,0.278-0.472,0.119-0.697L25.817,30.111z"/>
</g>
</svg>
