<?xml version="1.0" encoding="utf-8"?>
<!-- Generator: Adobe Illustrator 16.0.0, SVG Export Plug-In . SVG Version: 6.00 Build 0)  -->
<!DOCTYPE svg PUBLIC "-//W3C//DTD SVG 1.1//EN" "http://www.w3.org/Graphics/SVG/1.1/DTD/svg11.dtd">
<svg version="1.1" id="Layer_1" xmlns="http://www.w3.org/2000/svg" xmlns:xlink="http://www.w3.org/1999/xlink" x="0px" y="0px"
	 width="48px" height="48px" viewBox="0 0 48 48" enable-background="new 0 0 48 48" xml:space="preserve">
<g>
	<path fill="#323232" d="M42.524,11.493c-0.014-0.022-0.027-0.042-0.044-0.063c-4.03-5.914-10.817-9.805-18.498-9.805
		c-7.715,0-14.53,3.925-18.555,9.882c-0.006,0.011-0.017,0.018-0.022,0.03c-0.001,0.002,0,0.005-0.002,0.008
		c-2.397,3.563-3.798,7.85-3.798,12.458c0,12.336,10.038,22.373,22.377,22.373c12.336,0,22.373-10.037,22.373-22.373
		C46.355,19.372,44.942,15.066,42.524,11.493z M23.983,2.625c7.085,0,13.359,3.481,17.25,8.808
		c-20.346,4.631-31.941,1.087-34.578,0.1C10.541,6.149,16.851,2.625,23.983,2.625z M23.396,14.778l-1.343,8.489
		c-0.009,0.071-0.244,1.75-1.557,1.75h-6.261c-0.159-0.001-1.562-0.052-1.755-1.458l-1.178-9.706
		c2.61,0.513,6.118,0.948,10.561,0.948C22.359,14.801,22.878,14.789,23.396,14.778z M23.983,45.375
		c-11.787,0-21.377-9.588-21.377-21.373c0-4.285,1.279-8.27,3.458-11.619c0.651,0.266,2.053,0.771,4.206,1.253l1.22,10.051
		c0.253,1.844,1.899,2.331,2.738,2.331c0.003,0,0.005,0,0.007,0h6.262c1.759,0,2.437-1.718,2.547-2.609l1.37-8.659
		c4.856-0.174,10.664-0.861,17.444-2.433c2.204,3.362,3.498,7.373,3.498,11.686C45.355,35.787,35.768,45.375,23.983,45.375z"/>
	<path fill="#323232" d="M29.043,32H18.918c-0.276,0-0.5,0.224-0.5,0.5s0.224,0.5,0.5,0.5h10.125c0.276,0,0.5-0.224,0.5-0.5
		S29.319,32,29.043,32z"/>
	<path fill="#323232" d="M29.729,15.17c-2.091,0-3.729,2.334-3.729,5.314c0,2.928,1.673,5.311,3.729,5.311s3.729-2.382,3.729-5.311
		C33.457,17.504,31.819,15.17,29.729,15.17z M29.729,24.795c-1.479,0-2.729-1.974-2.729-4.311c0-2.339,1.249-4.314,2.729-4.314
		s2.729,1.976,2.729,4.314C32.457,22.821,31.208,24.795,29.729,24.795z"/>
	<ellipse fill="#323232" cx="29.73" cy="20.482" rx="1.666" ry="1.686"/>
</g>
</svg>
