<?xml version="1.0" encoding="utf-8"?>
<!-- Generator: Adobe Illustrator 16.0.0, SVG Export Plug-In . SVG Version: 6.00 Build 0)  -->
<!DOCTYPE svg PUBLIC "-//W3C//DTD SVG 1.1//EN" "http://www.w3.org/Graphics/SVG/1.1/DTD/svg11.dtd">
<svg version="1.1" id="Layer_1" xmlns="http://www.w3.org/2000/svg" xmlns:xlink="http://www.w3.org/1999/xlink" x="0px" y="0px"
	 width="48px" height="48px" viewBox="0 0 48 48" enable-background="new 0 0 48 48" xml:space="preserve">
<g>
	<ellipse fill="#414042" cx="30.101" cy="16.93" rx="1.666" ry="1.686"/>
	<path fill="#414042" d="M18.244,15.328c-0.918,0-1.664,0.754-1.664,1.686c0,0.93,0.746,1.686,1.664,1.686
		c0.922,0,1.666-0.756,1.666-1.686C19.91,16.082,19.166,15.328,18.244,15.328z"/>
	<path fill="#414042" d="M23.983,1.625c-12.339,0-22.377,10.038-22.377,22.377c0,12.336,10.038,22.373,22.377,22.373
		c12.336,0,22.373-10.037,22.373-22.373C46.355,11.663,36.319,1.625,23.983,1.625z M23.983,45.375
		c-11.787,0-21.377-9.588-21.377-21.373c0-11.787,9.59-21.377,21.377-21.377c11.785,0,21.373,9.59,21.373,21.377
		C45.355,35.787,35.768,45.375,23.983,45.375z"/>
	<path fill="#414042" d="M24.694,27.232c-3.401,0-6.168,3.744-6.168,8.346c0,0.276,0.224,0.5,0.5,0.5h11.337c0.008,0,0.015,0,0.02,0
		c0.276,0,0.5-0.224,0.5-0.5c0-0.05-0.007-0.098-0.021-0.144C30.806,30.898,28.06,27.232,24.694,27.232z M19.538,35.078
		c0.182-3.818,2.425-6.846,5.156-6.846c2.732,0,4.976,3.027,5.158,6.846H19.538z"/>
	<path fill="#414042" d="M29.982,12.217c-2.146,0-3.893,2.407-3.893,5.365s1.746,5.365,3.893,5.365c2.146,0,3.891-2.407,3.891-5.365
		S32.128,12.217,29.982,12.217z M29.982,21.947c-1.595,0-2.893-1.958-2.893-4.365s1.298-4.365,2.893-4.365
		c1.594,0,2.891,1.958,2.891,4.365S31.576,21.947,29.982,21.947z"/>
	<path fill="#414042" d="M21.874,17.582c0-2.958-1.745-5.365-3.891-5.365c-2.146,0-3.893,2.407-3.893,5.365s1.746,5.365,3.893,5.365
		C20.128,22.947,21.874,20.541,21.874,17.582z M17.983,21.947c-1.595,0-2.893-1.958-2.893-4.365s1.298-4.365,2.893-4.365
		c1.594,0,2.891,1.958,2.891,4.365S19.577,21.947,17.983,21.947z"/>
</g>
</svg>
