<?xml version="1.0" encoding="utf-8"?>
<!-- Generator: Adobe Illustrator 16.0.0, SVG Export Plug-In . SVG Version: 6.00 Build 0)  -->
<!DOCTYPE svg PUBLIC "-//W3C//DTD SVG 1.1//EN" "http://www.w3.org/Graphics/SVG/1.1/DTD/svg11.dtd">
<svg version="1.1" id="Layer_1" xmlns="http://www.w3.org/2000/svg" xmlns:xlink="http://www.w3.org/1999/xlink" x="0px" y="0px"
	 width="48px" height="48px" viewBox="0 0 48 48" enable-background="new 0 0 48 48" xml:space="preserve">
<g>
	<path fill="#414042" d="M23.984,1.508c-12.404,0-22.495,10.091-22.495,22.494c0,12.401,10.091,22.49,22.495,22.49
		c12.4,0,22.489-10.089,22.489-22.49C46.473,11.599,36.384,1.508,23.984,1.508z M23.984,45.492c-11.853,0-21.495-9.641-21.495-21.49
		c0-11.852,9.643-21.494,21.495-21.494c11.849,0,21.489,9.642,21.489,21.494C45.473,35.852,35.833,45.492,23.984,45.492z"/>
	<path fill="#414042" d="M21.902,17.945c0.276,0,0.5-0.224,0.5-0.5s-0.224-0.5-0.5-0.5H8.659c-0.276,0-0.5,0.224-0.5,0.5
		s0.224,0.5,0.5,0.5h2.143c0.077,3.299,1.609,6.553,4.479,6.553c3.019,0,4.409-3.249,4.479-6.553H21.902z M15.281,23.498
		c-2.465,0-3.414-3.227-3.48-5.553h1.545c0.108,1.215,0.721,2.459,1.934,2.459c1.262,0,1.835-1.244,1.936-2.459h1.545
		C18.704,20.125,17.925,23.498,15.281,23.498z"/>
	<path fill="#414042" d="M27.947,35.576h-8.28c-0.276,0-0.5,0.224-0.5,0.5s0.224,0.5,0.5,0.5h8.28c0.276,0,0.5-0.224,0.5-0.5
		S28.224,35.576,27.947,35.576z"/>
	<path fill="#414042" d="M39.591,16.945H26.349c-0.276,0-0.5,0.224-0.5,0.5s0.224,0.5,0.5,0.5h2.143
		c0.077,3.299,1.609,6.553,4.479,6.553c3.019,0,4.41-3.249,4.479-6.553h2.142c0.276,0,0.5-0.224,0.5-0.5
		S39.867,16.945,39.591,16.945z M32.97,23.498c-2.465,0-3.414-3.227-3.479-5.553h1.546c0.108,1.215,0.72,2.459,1.934,2.459
		c1.262,0,1.834-1.244,1.935-2.459h1.546C36.394,20.125,35.615,23.498,32.97,23.498z"/>
</g>
</svg>
