<?xml version="1.0" encoding="utf-8"?>
<!-- Generator: Adobe Illustrator 16.0.0, SVG Export Plug-In . SVG Version: 6.00 Build 0)  -->
<!DOCTYPE svg PUBLIC "-//W3C//DTD SVG 1.1//EN" "http://www.w3.org/Graphics/SVG/1.1/DTD/svg11.dtd">
<svg version="1.1" id="Layer_1" xmlns="http://www.w3.org/2000/svg" xmlns:xlink="http://www.w3.org/1999/xlink" x="0px" y="0px"
	 width="48px" height="48px" viewBox="0 0 48 48" enable-background="new 0 0 48 48" xml:space="preserve">
<g id="_x32_80">
	<g id="_x32_20_1_">
		<g>
			<g>
				<g>
					<ellipse fill="#404041" cx="17.476" cy="22.787" rx="2.065" ry="2.432"/>
				</g>
			</g>
		</g>
		<g>
			<g>
				<g>
					<ellipse fill="#404041" cx="29.476" cy="22.787" rx="2.065" ry="2.432"/>
				</g>
			</g>
		</g>
	</g>
	<g>
		<g>
			<g>
				<path fill="#404041" d="M23.982,46.375c-12.339,0-22.377-10.036-22.377-22.373c0-12.339,10.038-22.377,22.377-22.377
					c12.337,0,22.373,10.038,22.373,22.377C46.355,36.339,36.319,46.375,23.982,46.375z M23.982,2.625
					c-11.787,0-21.377,9.59-21.377,21.377c0,11.785,9.59,21.373,21.377,21.373c11.785,0,21.373-9.588,21.373-21.373
					C45.355,12.215,35.768,2.625,23.982,2.625z"/>
			</g>
			<g>
				<g>
					<path fill="#404041" d="M29.17,25.719c-2.146,0-3.893-2.407-3.893-5.365s1.746-5.365,3.893-5.365
						c2.146,0,3.891,2.407,3.891,5.365S31.315,25.719,29.17,25.719z M29.17,15.988c-1.595,0-2.893,1.958-2.893,4.365
						s1.298,4.365,2.893,4.365c1.594,0,2.891-1.958,2.891-4.365S30.764,15.988,29.17,15.988z"/>
				</g>
			</g>
			<g>
				<g>
					<path fill="#404041" d="M17.17,25.719c-2.146,0-3.893-2.407-3.893-5.365s1.746-5.365,3.893-5.365
						c2.146,0,3.891,2.407,3.891,5.365S19.315,25.719,17.17,25.719z M17.17,15.988c-1.595,0-2.893,1.958-2.893,4.365
						s1.298,4.365,2.893,4.365c1.594,0,2.891-1.958,2.891-4.365S18.764,15.988,17.17,15.988z"/>
				</g>
			</g>
			<g>
				<path fill="#404041" d="M27.947,41.813c-2.7,0-3.857-4.207-4.312-6.807c-0.047-0.271,0.134-0.531,0.407-0.578
					c0.269-0.056,0.531,0.134,0.578,0.406c0.262,1.491,1.313,6.318,3.63,5.953c0.025-0.005,0.447-0.082,0.822-0.646
					c0.516-0.773,0.956-2.461,0.12-6.101c-0.062-0.27,0.106-0.538,0.375-0.6c0.278-0.066,0.538,0.106,0.6,0.375
					c0.747,3.254,0.644,5.589-0.306,6.943c-0.625,0.89-1.387,1.007-1.472,1.017C28.238,41.802,28.091,41.813,27.947,41.813z"/>
			</g>
			<g>
				<path fill="#404041" d="M24.392,35.43h-0.822c-0.055,0-0.107-0.009-0.157-0.025c-7.501-0.389-10.083-5.188-10.193-5.4
					c-0.127-0.244-0.032-0.545,0.212-0.673c0.244-0.129,0.546-0.034,0.674,0.211c0.104,0.195,2.57,4.719,9.875,4.883
					c7.305-0.164,9.771-4.688,9.874-4.883c0.128-0.244,0.426-0.341,0.675-0.211c0.244,0.128,0.339,0.429,0.212,0.673
					c-0.11,0.213-2.691,5.012-10.193,5.4C24.499,35.421,24.446,35.43,24.392,35.43z"/>
			</g>
		</g>
	</g>
</g>
</svg>
