<?xml version="1.0" encoding="utf-8"?>
<!-- Generator: Adobe Illustrator 16.0.0, SVG Export Plug-In . SVG Version: 6.00 Build 0)  -->
<!DOCTYPE svg PUBLIC "-//W3C//DTD SVG 1.1//EN" "http://www.w3.org/Graphics/SVG/1.1/DTD/svg11.dtd">
<svg version="1.1" id="Layer_1" xmlns="http://www.w3.org/2000/svg" xmlns:xlink="http://www.w3.org/1999/xlink" x="0px" y="0px"
	 width="48px" height="48px" viewBox="0 0 48 48" enable-background="new 0 0 48 48" xml:space="preserve">
<g>
	<path fill="#414042" d="M29.98,10.778c-2.146,0-3.893,2.407-3.893,5.365s1.746,5.365,3.893,5.365s3.893-2.407,3.893-5.365
		S32.127,10.778,29.98,10.778z M31.932,19.345c0.069-0.243,0.115-0.498,0.115-0.768c0-1.344-0.925-2.432-2.066-2.432
		c-1.141,0-2.065,1.088-2.065,2.432c0,0.271,0.046,0.526,0.115,0.77c-0.575-0.798-0.942-1.933-0.942-3.203
		c0-2.407,1.298-4.365,2.893-4.365s2.893,1.958,2.893,4.365C32.873,17.413,32.507,18.546,31.932,19.345z"/>
	<path fill="#414042" d="M17.981,10.778c-2.146,0-3.893,2.407-3.893,5.365s1.746,5.365,3.893,5.365s3.893-2.407,3.893-5.365
		S20.127,10.778,17.981,10.778z M19.932,19.345c0.069-0.243,0.115-0.498,0.115-0.768c0-1.344-0.925-2.432-2.066-2.432
		c-1.141,0-2.065,1.088-2.065,2.432c0,0.271,0.046,0.526,0.116,0.77c-0.576-0.798-0.943-1.933-0.943-3.203
		c0-2.407,1.298-4.365,2.893-4.365s2.893,1.958,2.893,4.365C20.874,17.413,20.507,18.546,19.932,19.345z"/>
	<path fill="#414042" d="M23.983,1.625c-12.339,0-22.377,10.038-22.377,22.377c0,2.566,0.439,5.076,1.289,7.471
		c-0.291,0.448-0.525,0.985-0.667,1.641c-0.008,0.035-0.012,0.07-0.012,0.106v7.262c0,0.111,0.037,0.22,0.105,0.308
		c0.396,0.509,3.938,4.978,6.242,4.978h4.387c0.051,0,0.101-0.008,0.149-0.022c0.098-0.03,1.083-0.354,2.279-1.09
		c2.728,1.138,5.62,1.72,8.604,1.721c12.336,0,22.373-10.037,22.373-22.373C46.355,11.663,36.319,1.625,23.983,1.625z
		 M12.868,44.767H8.563c-1.336,0-3.938-2.679-5.348-4.458v-7.033c0.564-2.474,2.623-2.754,3.512-2.756l0.396,5.275
		c-0.535,0.363-1.02,0.524-1.394,0.467c-0.23-0.035-0.38-0.146-0.457-0.217l-0.268-2.373c-0.032-0.275-0.296-0.469-0.553-0.441
		c-0.274,0.031-0.473,0.279-0.441,0.553l0.285,2.523c0.009,0.077,0.035,0.151,0.077,0.217c0.039,0.059,0.4,0.586,1.164,0.721
		c0.115,0.02,0.232,0.029,0.352,0.029c0.543,0,1.131-0.221,1.751-0.633c0.196,0.184,0.505,0.402,0.976,0.484
		c0.122,0.021,0.245,0.033,0.371,0.033c0.668,0,1.399-0.299,2.179-0.893C11.3,36.164,11.375,36,11.362,35.83l-0.097-1.29
		c0.072,0.015,0.147,0.017,0.224-0.003c0.267-0.071,0.426-0.346,0.354-0.611l-1.213-4.555c-0.003-0.012-0.006-0.023-0.009-0.034
		l-1.143-4.598c0.084-0.271,0.239-0.629,0.487-0.706c0.189-0.059,0.449,0.04,0.655,0.157l1.075,2.428l3.578,9.259
		c0.077,0.2,0.277,0.328,0.491,0.318c0.216-0.01,0.399-0.158,0.457-0.365c0.421-1.516,1.011-2.449,1.662-2.631
		c0.434-0.122,0.86,0.107,1.078,0.26l0.006,4.555C18.252,42.725,13.493,44.547,12.868,44.767z M10.343,35.627
		c-0.588,0.403-1.118,0.582-1.534,0.518c-0.261-0.041-0.429-0.168-0.512-0.248l-0.575-5.6c0.391-0.24,1.251-0.68,2.002-0.445
		l0.321,1.205c-0.024,0.064-0.036,0.134-0.031,0.207L10.343,35.627z M13.103,27.328l-0.473-1.069l-0.942-2.438
		c-0.029-0.075-0.075-0.141-0.136-0.194c-0.004-0.003-0.016-0.013-0.022-0.019c0.018-0.21,0.058-0.529,0.155-0.845
		c0.272-0.881,0.713-0.881,0.857-0.881c0.221,0,0.485,0.077,0.788,0.23L13.103,27.328z M23.983,45.375
		c-2.625-0.001-5.17-0.494-7.592-1.417c1.549-1.192,3.148-3.064,3.572-5.869V33.22c0-0.059-0.015-0.114-0.034-0.168
		c1.133,0.381,2.391,0.641,3.787,0.641c2.927,0,6.401-1.079,10.285-4.253c0.214-0.176,0.245-0.49,0.07-0.704
		c-0.174-0.214-0.49-0.245-0.703-0.071c-8.605,7.032-14.894,3.371-17.876,0.563c-0.201-0.188-0.517-0.18-0.707,0.021
		c-0.189,0.201-0.18,0.518,0.021,0.707c0.711,0.669,1.771,1.513,3.111,2.232c-0.096,0.011-0.191,0.018-0.29,0.045
		c-0.772,0.211-1.412,0.888-1.909,2.018l-1.759-4.554c0.028-0.06,0.049-0.123,0.052-0.192l0.333-7.656
		c0.008-0.183-0.085-0.356-0.242-0.451c-0.569-0.342-1.094-0.515-1.559-0.515c-0.494,0-1.386,0.206-1.813,1.585
		c-0.067,0.217-0.112,0.431-0.143,0.625c-0.278-0.082-0.59-0.114-0.909-0.018c-0.574,0.173-0.978,0.687-1.2,1.525
		c-0.021,0.082-0.022,0.167-0.002,0.249l0.976,3.941c-1.028-0.066-1.999,0.481-2.382,0.734c-0.925-0.073-2.325,0.131-3.409,1.059
		c-0.688-2.12-1.055-4.326-1.055-6.582c0-11.787,9.59-21.377,21.377-21.377c11.785,0,21.373,9.59,21.373,21.377
		C45.355,35.787,35.768,45.375,23.983,45.375z"/>
</g>
</svg>
