<?xml version="1.0" encoding="utf-8"?>
<!-- Generator: Adobe Illustrator 16.0.0, SVG Export Plug-In . SVG Version: 6.00 Build 0)  -->
<!DOCTYPE svg PUBLIC "-//W3C//DTD SVG 1.1//EN" "http://www.w3.org/Graphics/SVG/1.1/DTD/svg11.dtd">
<svg version="1.1" id="Layer_1" xmlns="http://www.w3.org/2000/svg" xmlns:xlink="http://www.w3.org/1999/xlink" x="0px" y="0px"
	 width="48px" height="48px" viewBox="0 0 48 48" enable-background="new 0 0 48 48" xml:space="preserve">
<g>
	<ellipse fill="#414042" cx="17.931" cy="18.8" rx="1.586" ry="1.867"/>
	<ellipse fill="#414042" cx="30.036" cy="18.799" rx="1.586" ry="1.866"/>
	<path fill="#414042" d="M28.162,30.14h-8.363c-0.276,0-0.5,0.224-0.5,0.5s0.224,0.5,0.5,0.5h8.363c0.276,0,0.5-0.224,0.5-0.5
		S28.438,30.14,28.162,30.14z"/>
	<path fill="#414042" d="M25.995,11.579h5.676c0.276,0,0.5-0.224,0.5-0.5s-0.224-0.5-0.5-0.5h-5.676c-0.276,0-0.5,0.224-0.5,0.5
		S25.719,11.579,25.995,11.579z"/>
	<path fill="#414042" d="M22.135,11.079c0-0.276-0.224-0.5-0.5-0.5h-5.676c-0.276,0-0.5,0.224-0.5,0.5s0.224,0.5,0.5,0.5h5.676
		C21.912,11.579,22.135,11.355,22.135,11.079z"/>
	<path fill="#414042" d="M29.98,13.435c-2.146,0-3.893,2.407-3.893,5.365s1.746,5.365,3.893,5.365s3.893-2.407,3.893-5.365
		S32.127,13.435,29.98,13.435z M29.98,23.165c-1.595,0-2.893-1.958-2.893-4.365s1.298-4.365,2.893-4.365s2.893,1.958,2.893,4.365
		S31.575,23.165,29.98,23.165z"/>
	<path fill="#414042" d="M23.983,1.625c-12.339,0-22.377,10.038-22.377,22.377c0,2.649,0.459,5.242,1.363,7.709
		c0.027,0.074,0.073,0.134,0.126,0.185c-0.565,0.681-0.979,1.674-0.979,3.146v5.503c0,0.111,0.037,0.219,0.105,0.307
		c0.396,0.51,3.938,4.979,6.242,4.979h4.387c0.051,0,0.101-0.008,0.149-0.023c0.101-0.031,1.138-0.372,2.379-1.151
		c2.726,1.137,5.618,1.719,8.603,1.72c12.336,0,22.373-10.037,22.373-22.373C46.355,11.663,36.319,1.625,23.983,1.625z
		 M12.769,44.83H8.464c-1.336,0-3.938-2.679-5.348-4.458v-5.33c0-3.386,2.608-3.589,3.208-3.593l0.276,4.454
		c-0.929,0.546-1.455,0.333-1.663,0.188l-0.119-1.986c-0.016-0.275-0.228-0.484-0.529-0.469c-0.275,0.017-0.485,0.254-0.469,0.529
		l0.131,2.188c0.006,0.104,0.046,0.205,0.112,0.287c0.231,0.283,0.734,0.608,1.449,0.608c0.434,0,0.95-0.133,1.527-0.456
		c0.332,0.275,0.817,0.516,1.436,0.516c0.45,0,0.971-0.138,1.542-0.464c0.224,0.128,0.555,0.253,0.998,0.253
		c0.535,0,1.231-0.184,2.092-0.768c0.146-0.098,0.229-0.267,0.218-0.441l-0.384-6.602l-0.053-5.303
		c0.296-0.468,0.623-0.705,0.973-0.705c0.479,0,0.98,0.408,1.236,0.668l0.044,11.814c0.001,0.25,0.186,0.461,0.434,0.494
		c0.252,0.033,0.481-0.122,0.548-0.362c0.478-1.72,1.159-2.667,1.919-2.667c0.34,0,0.646,0.174,0.821,0.297l0.006,4.554
		C18.154,42.788,13.394,44.61,12.769,44.83z M11.96,29.633l0.351,6.021c-1.011,0.611-1.572,0.449-1.787,0.334l-0.507-5.616
		c-0.004-0.042-0.021-0.079-0.035-0.117c0.252-0.336,0.707-0.788,1.321-0.788C11.511,29.467,11.733,29.533,11.96,29.633z
		 M9.054,30.828l0.465,5.149c-1.065,0.607-1.692,0.2-1.912-0.013L7.3,31.02c0-0.013-0.007-0.022-0.009-0.035
		c0.32-0.151,0.725-0.293,1.136-0.293C8.656,30.691,8.865,30.74,9.054,30.828z M23.983,45.375c-2.632-0.001-5.181-0.496-7.607-1.422
		c1.523-1.195,3.072-3.047,3.488-5.801v-4.869c0-0.136-0.056-0.266-0.153-0.359c-0.073-0.072-0.748-0.697-1.668-0.697
		c-0.744,0-1.383,0.383-1.909,1.143l-0.036-9.617c0-0.115-0.041-0.227-0.114-0.316c-0.02-0.024-0.08-0.092-0.161-0.176
		c0.618,0.57,1.36,0.905,2.159,0.905c2.146,0,3.893-2.407,3.893-5.365s-1.746-5.365-3.893-5.365s-3.893,2.407-3.893,5.365
		c0,1.821,0.665,3.427,1.674,4.397c-0.346-0.343-1.053-0.917-1.9-0.917c-0.522,0-1.277,0.229-1.906,1.318
		c-0.045,0.077-0.068,0.166-0.067,0.255l0.046,4.698c-0.212-0.057-0.423-0.084-0.631-0.084c-1.127,0-1.862,0.807-2.212,1.311
		c-0.212-0.057-0.434-0.086-0.664-0.086c-0.986,0-1.883,0.531-2.223,0.76c-0.379,0.015-1.415,0.115-2.349,0.748
		c-0.825-2.305-1.25-4.725-1.25-7.197c0-11.787,9.59-21.377,21.377-21.377c11.785,0,21.373,9.59,21.373,21.377
		C45.355,35.787,35.768,45.375,23.983,45.375z M15.088,18.8c0-2.407,1.298-4.365,2.893-4.365s2.893,1.958,2.893,4.365
		s-1.298,4.365-2.893,4.365S15.088,21.207,15.088,18.8z"/>
</g>
</svg>
