<?xml version="1.0" encoding="utf-8"?>
<!-- Generator: Adobe Illustrator 16.0.0, SVG Export Plug-In . SVG Version: 6.00 Build 0)  -->
<!DOCTYPE svg PUBLIC "-//W3C//DTD SVG 1.1//EN" "http://www.w3.org/Graphics/SVG/1.1/DTD/svg11.dtd">
<svg version="1.1" id="Layer_1" xmlns="http://www.w3.org/2000/svg" xmlns:xlink="http://www.w3.org/1999/xlink" x="0px" y="0px"
	 width="48px" height="48px" viewBox="0 0 48 48" enable-background="new 0 0 48 48" xml:space="preserve">
<g>
	<path fill="#414042" d="M33.367,28.461c-4.221,3.449-8.344,4.711-12.247,3.743c-0.269-0.065-0.539,0.099-0.605,0.365
		c-0.066,0.269,0.098,0.539,0.365,0.605c0.934,0.231,1.877,0.347,2.827,0.347c3.353,0,6.803-1.436,10.292-4.287
		c0.214-0.174,0.245-0.489,0.07-0.703C33.896,28.317,33.58,28.286,33.367,28.461z"/>
	<path fill="#414042" d="M21.719,20.373c0.099,0.132,0.249,0.201,0.401,0.201c0.104,0,0.209-0.032,0.299-0.099
		c0.222-0.165,0.268-0.478,0.103-0.7c-2.539-3.408-4.943-3.28-6.514-2.573c-0.252,0.114-0.364,0.41-0.251,0.662
		c0.114,0.252,0.412,0.362,0.661,0.25C18.217,17.303,20,18.063,21.719,20.373z"/>
	<path fill="#414042" d="M30.435,16.798c-0.011,0-0.021,0-0.031,0c-2.923,0.02-5.013,2.862-5.101,2.983
		c-0.162,0.224-0.111,0.536,0.112,0.698c0.089,0.064,0.191,0.095,0.293,0.095c0.154,0,0.308-0.072,0.405-0.207
		c0.019-0.025,1.874-2.552,4.297-2.569c0.008,0,0.016,0,0.023,0c1.412,0,2.772,0.866,4.045,2.575c0.166,0.222,0.479,0.266,0.7,0.102
		c0.222-0.165,0.268-0.478,0.103-0.7C33.81,17.8,32.179,16.798,30.435,16.798z"/>
	<path fill="#414042" d="M23.983,1.625c-12.339,0-22.377,10.038-22.377,22.377c0,2.216,0.323,4.404,0.96,6.504
		c0.016,0.053,0.045,0.098,0.075,0.141v0.702c0,0.008,0.004,0.014,0.004,0.021c0,0.007-0.003,0.013-0.002,0.02
		c0.478,6.04,0.797,7.11,0.811,7.127c0.658,4.253,1.673,7.473,1.683,7.505c0.065,0.208,0.259,0.349,0.477,0.349h7.302
		c0.249,0,0.461-0.184,0.495-0.431l0.22-1.571c0.157-0.097,0.305-0.2,0.449-0.306c3.091,1.531,6.42,2.313,9.904,2.313
		c12.336,0,22.373-10.037,22.373-22.373C46.355,11.663,36.319,1.625,23.983,1.625z M12.48,45.369H5.984
		c-0.273-0.934-1.023-3.65-1.56-7.082c-0.014-0.043-0.319-1.103-0.783-6.955L3.64,26.373c0.063-0.828,0.351-2.176,0.771-2.445
		c0.041-0.025,0.085-0.045,0.188-0.007c0.064,0.024,0.092,0.032,0.152,0.031c0.007,0.001,0.721,0.199,0.855,2.655l0.404,4.91
		c0.021,0.261,0.24,0.459,0.497,0.459c0.015,0,0.028-0.001,0.042-0.001c0.275-0.023,0.479-0.265,0.457-0.54L6.72,27.93
		c0.146-0.663,1.282-5.74,2.131-7.355c0.076-0.145,0.258-0.246,0.499-0.278c0.257-0.033,0.525,0.02,0.722,0.137
		c-0.561,4.382-0.876,5.205-1.272,6.242c-0.192,0.503-0.411,1.072-0.682,2.076c-0.072,0.268,0.086,0.541,0.353,0.613
		c0.043,0.012,0.087,0.018,0.13,0.018c0.221,0,0.423-0.146,0.482-0.369c0.258-0.955,0.457-1.477,0.65-1.98
		c0.172-0.449,0.33-0.864,0.495-1.5l3.585-5.091c0.262-0.081,0.701-0.151,0.926,0.009c0.218,0.157,0.244,0.564,0.233,0.847
		l-3.096,6.256c-0.122,0.247-0.021,0.548,0.227,0.67c0.071,0.035,0.146,0.052,0.222,0.052c0.082,0,0.16-0.027,0.231-0.064
		c0.112,0.081,0.253,0.119,0.398,0.084c0.564-0.124,1.729,0.338,2.608,0.787c-0.247,0.285-0.544,0.681-0.787,1.162
		c-2.32-0.559-4.013-0.398-5.025,0.479C8.7,31.631,8.817,32.941,8.82,32.943c-0.009,0.826,0.259,1.493,0.795,1.98
		c0.795,0.723,1.972,0.828,2.594,0.828c0.238,0,0.396-0.016,0.417-0.018c0.06-0.006,0.117-0.023,0.171-0.05
		c0.932-0.466,2.334-2.312,2.491-2.521c0.088-0.119,0.12-0.271,0.087-0.414c-0.393-1.686,0.973-3.074,1.267-3.349
		c0.085-0.021,0.251-0.043,0.415,0.057c0.2,0.122,0.553,0.519,0.663,1.808c0.006,0.071,0.027,0.141,0.062,0.202
		c0.011,0.019,1.026,1.883-0.313,3.781c-0.021,0.028-0.037,0.058-0.051,0.089c-0.041,0.095-1.007,2.332-1.312,3.902
		c-0.007,0.035-0.761,3.623-4.169,4.836c-0.26,0.092-0.396,0.379-0.303,0.639c0.072,0.205,0.266,0.332,0.471,0.332
		c0.056,0,0.112-0.01,0.168-0.029c0.096-0.034,0.181-0.076,0.273-0.113L12.48,45.369z M14.353,32.739
		c-0.536,0.69-1.408,1.692-1.925,2.007c-0.331,0.02-1.492,0.027-2.141-0.562c-0.32-0.292-0.474-0.694-0.47-1.282
		c-0.003-0.035-0.064-0.869,0.597-1.432c0.432-0.367,1.089-0.553,1.942-0.553c0.596,0,1.286,0.09,2.063,0.27
		C14.301,31.661,14.26,32.184,14.353,32.739z M23.983,45.375c-3.184,0-6.23-0.687-9.074-2.024c1.703-1.694,2.152-3.794,2.177-3.917
		c0.262-1.35,1.091-3.329,1.229-3.652c1.479-2.139,0.627-4.215,0.392-4.699c-0.125-1.281-0.514-2.12-1.156-2.494
		c-0.43-0.25-0.845-0.225-1.107-0.167c-0.577-0.322-2.179-1.143-3.322-1.129l2.792-5.643c0.028-0.058,0.046-0.121,0.051-0.186
		c0.062-0.861-0.155-1.475-0.643-1.825c-0.788-0.566-1.897-0.126-2.021-0.074c-0.087,0.036-0.161,0.096-0.216,0.173l-2.382,3.383
		c0.12-0.756,0.25-1.679,0.395-2.833c0.019-0.146-0.028-0.293-0.129-0.402c-0.411-0.445-1.081-0.668-1.75-0.58
		c-0.567,0.075-1.024,0.368-1.253,0.804c-0.524,0.998-1.123,3.1-1.569,4.855c-0.392-1.7-1.183-1.974-1.526-2.008
		c-0.352-0.109-0.693-0.064-0.996,0.128c-0.785,0.5-1.077,1.95-1.182,2.764c-0.053-0.613-0.087-1.228-0.087-1.847
		c0-11.787,9.59-21.377,21.377-21.377c11.785,0,21.373,9.59,21.373,21.377C45.355,35.787,35.768,45.375,23.983,45.375z"/>
</g>
</svg>
