<?xml version="1.0" encoding="utf-8"?>
<!-- Generator: Adobe Illustrator 16.0.0, SVG Export Plug-In . SVG Version: 6.00 Build 0)  -->
<!DOCTYPE svg PUBLIC "-//W3C//DTD SVG 1.1//EN" "http://www.w3.org/Graphics/SVG/1.1/DTD/svg11.dtd">
<svg version="1.1" id="Layer_1" xmlns="http://www.w3.org/2000/svg" xmlns:xlink="http://www.w3.org/1999/xlink" x="0px" y="0px"
	 width="48px" height="48px" viewBox="0 0 48 48" enable-background="new 0 0 48 48" xml:space="preserve">
<g>
	<path fill="#414042" d="M23.983,10.09c-9.949,0-18.043,8.094-18.043,18.043c0,9.947,8.094,18.041,18.043,18.041
		c9.946,0,18.039-8.094,18.039-18.041C42.021,18.184,33.929,10.09,23.983,10.09z M23.983,45.174
		c-9.397,0-17.043-7.645-17.043-17.041c0-9.397,7.646-17.043,17.043-17.043c9.395,0,17.039,7.646,17.039,17.043
		C41.021,37.529,33.378,45.174,23.983,45.174z"/>
	<path fill="#414042" d="M33.63,32.269c-0.257-0.101-0.547,0.028-0.647,0.285c-0.108,0.28-2.767,6.864-10.864,5.399
		c-0.268-0.049-0.531,0.131-0.581,0.403c-0.049,0.271,0.132,0.532,0.403,0.581c0.86,0.155,1.665,0.226,2.418,0.226
		c7.061,0,9.531-6.18,9.557-6.249C34.015,32.656,33.887,32.368,33.63,32.269z"/>
	<path fill="#414042" d="M22.214,14.14c0.267,0.053,0.535-0.118,0.591-0.389c0.055-0.271-0.119-0.535-0.39-0.59
		c-4.132-0.846-7.26,2.55-7.392,2.695c-0.185,0.205-0.169,0.521,0.035,0.706c0.096,0.087,0.216,0.129,0.336,0.129
		c0.136,0,0.271-0.055,0.37-0.164C15.793,16.496,18.648,13.408,22.214,14.14z"/>
	<path fill="#414042" d="M25.041,13.99c0.044-0.005,4.235-0.335,6.357,2.618c0.098,0.136,0.251,0.208,0.406,0.208
		c0.102,0,0.203-0.03,0.292-0.094c0.224-0.161,0.275-0.474,0.114-0.698c-2.461-3.425-7.07-3.05-7.259-3.031
		c-0.275,0.025-0.478,0.268-0.453,0.542S24.75,14.016,25.041,13.99z"/>
	<path fill="#414042" d="M28.4,17.156c-2.146,0-3.892,2.407-3.892,5.365c0,2.959,1.746,5.365,3.892,5.365s3.893-2.406,3.893-5.365
		C32.293,19.563,30.547,17.156,28.4,17.156z M28.4,26.887c-1.595,0-2.893-1.958-2.893-4.365s1.298-4.365,2.893-4.365
		c0.436,0,0.846,0.157,1.217,0.419c-0.673,0.017-1.217,0.501-1.217,1.105c0,0.611,0.561,1.109,1.25,1.109
		c0.524,0,0.968-0.287,1.153-0.692c0.309,0.694,0.489,1.527,0.489,2.423C31.293,24.929,29.995,26.887,28.4,26.887z"/>
	<path fill="#414042" d="M23.893,22.521c0-2.958-1.746-5.365-3.893-5.365s-3.893,2.407-3.893,5.365c0,2.959,1.746,5.365,3.893,5.365
		S23.893,25.48,23.893,22.521z M20,26.887c-1.595,0-2.893-1.958-2.893-4.365s1.298-4.365,2.893-4.365
		c0.668,0,1.277,0.358,1.767,0.935c-0.158-0.065-0.331-0.106-0.517-0.106c-0.689,0-1.25,0.498-1.25,1.111
		c0,0.611,0.561,1.109,1.25,1.109c0.626,0,1.12-0.416,1.211-0.947c0.268,0.662,0.431,1.432,0.431,2.263
		C22.893,24.929,21.595,26.887,20,26.887z"/>
	<path fill="#414042" d="M23.981,1.826C23.163,1.826,3.94,1.86,3.94,4.783c0,2.876,17.989,2.959,20.041,2.959
		c2.051,0,20.041-0.083,20.041-2.959C44.021,1.86,24.799,1.826,23.981,1.826z M23.981,6.742c-11.151,0-18.153-1.134-18.999-1.958
		c0.848-0.824,7.85-1.958,18.999-1.958c11.149,0,18.151,1.133,18.999,1.958C42.134,5.608,35.132,6.742,23.981,6.742z"/>
</g>
</svg>
