<?xml version="1.0" encoding="utf-8"?>
<!-- Generator: Adobe Illustrator 16.0.0, SVG Export Plug-In . SVG Version: 6.00 Build 0)  -->
<!DOCTYPE svg PUBLIC "-//W3C//DTD SVG 1.1//EN" "http://www.w3.org/Graphics/SVG/1.1/DTD/svg11.dtd">
<svg version="1.1" id="Layer_1" xmlns="http://www.w3.org/2000/svg" xmlns:xlink="http://www.w3.org/1999/xlink" x="0px" y="0px"
	 width="48px" height="48px" viewBox="0 0 48 48" enable-background="new 0 0 48 48" xml:space="preserve">
<g>
	<path fill="#414042" d="M35.817,19.778h-3.063c-0.276,0-0.5,0.224-0.5,0.5s0.224,0.5,0.5,0.5h3.063c0.276,0,0.5-0.224,0.5-0.5
		S36.094,19.778,35.817,19.778z"/>
	<path fill="#414042" d="M24.905,33.437l5.124-4.3c0.038-0.033,0.071-0.07,0.098-0.111c0.028-0.045,0.693-1.095,0.346-2.182
		c-0.146-0.457-0.453-0.834-0.89-1.142l0.113-0.089c0.046-0.036,0.085-0.08,0.115-0.129c0.031-0.049,0.746-1.214,0.328-2.362
		c-0.219-0.603-0.706-1.061-1.423-1.382c0.013-0.022,0.035-0.038,0.044-0.062c0.325-0.955,0.274-1.764-0.15-2.406
		c-0.718-1.083-2.232-1.203-2.296-1.208c-0.142-0.013-0.259,0.032-0.357,0.116l-0.125,0.105c-0.048-0.331-0.159-0.63-0.353-0.89
		c-0.707-0.949-2.118-0.964-2.207-0.964c-0.001,0-0.002,0-0.003,0c-0.115,0-0.226,0.041-0.314,0.113l-6.753,5.531
		c0.217-0.73,0.204-1.361-0.04-1.887c-0.522-1.127-1.869-1.269-1.926-1.274c-0.133-0.016-0.268,0.028-0.369,0.115l-3.944,3.318
		c-3.94,4.448-1.644,10.196-1.544,10.438c0.02,0.049,0.047,0.092,0.08,0.132l2.884,3.438c1.163,1.386,4.909,1.577,6.888,1.577
		c0.598,0,1.034-0.018,1.189-0.025c0.109-0.005,0.214-0.045,0.298-0.116l4.137-3.472c5.653,0.577,7.699,2.936,7.723,2.964
		c0.099,0.12,0.242,0.182,0.386,0.182c0.111,0,0.224-0.037,0.316-0.112c0.214-0.176,0.245-0.49,0.07-0.704
		C32.264,36.542,30.3,34.213,24.905,33.437z M19.205,36.915c-2.352,0.09-6.214-0.152-7.097-1.203l-2.83-3.374
		c-0.236-0.635-1.926-5.582,1.34-9.276l3.711-3.115c0.266,0.067,0.733,0.241,0.929,0.668c0.29,0.635-0.069,1.732-1.013,3.089
		c-0.142,0.205-0.111,0.483,0.072,0.652c0.182,0.17,0.464,0.178,0.655,0.02l8.467-6.936c0.341,0.033,0.95,0.167,1.238,0.553
		c0.203,0.272,0.232,0.67,0.103,1.174l-6.574,5.52c-0.212,0.177-0.239,0.492-0.062,0.704c0.177,0.211,0.491,0.239,0.704,0.062
		l7.581-6.364c0.332,0.06,1.018,0.239,1.347,0.736c0.228,0.344,0.255,0.813,0.081,1.396l-7.717,6.188
		c-0.216,0.172-0.25,0.486-0.077,0.703c0.099,0.123,0.243,0.187,0.39,0.187c0.11,0,0.221-0.036,0.313-0.11l7.133-5.719
		c0.024,0.012,0.043,0.03,0.069,0.039c0.663,0.216,1.077,0.536,1.23,0.952c0.21,0.57-0.088,1.221-0.197,1.428l-0.518,0.407
		c-0.091,0.033-0.165,0.095-0.224,0.175l-5.951,4.673c-0.218,0.171-0.255,0.485-0.085,0.702c0.099,0.126,0.246,0.191,0.394,0.191
		c0.108,0,0.217-0.034,0.309-0.106l5.823-4.572c0.403,0.21,0.668,0.472,0.77,0.787c0.191,0.587-0.169,1.232-0.195,1.279
		L19.205,36.915z"/>
	<path fill="#414042" d="M23.983,1.625c-12.339,0-22.377,10.038-22.377,22.377c0,12.336,10.038,22.373,22.377,22.373
		c12.336,0,22.373-10.037,22.373-22.373C46.355,11.663,36.319,1.625,23.983,1.625z M23.983,45.375
		c-11.787,0-21.377-9.588-21.377-21.373c0-11.787,9.59-21.377,21.377-21.377c11.785,0,21.373,9.59,21.373,21.377
		C45.355,35.787,35.768,45.375,23.983,45.375z"/>
</g>
</svg>
