<?xml version="1.0" encoding="utf-8"?>
<!-- Generator: Adobe Illustrator 16.0.0, SVG Export Plug-In . SVG Version: 6.00 Build 0)  -->
<!DOCTYPE svg PUBLIC "-//W3C//DTD SVG 1.1//EN" "http://www.w3.org/Graphics/SVG/1.1/DTD/svg11.dtd">
<svg version="1.1" id="Layer_1" xmlns="http://www.w3.org/2000/svg" xmlns:xlink="http://www.w3.org/1999/xlink" x="0px" y="0px"
	 width="48px" height="48px" viewBox="0 0 48 48" enable-background="new 0 0 48 48" xml:space="preserve">
<g>
	<ellipse fill="#414042" cx="17.982" cy="18.353" rx="1.586" ry="1.867"/>
	<ellipse fill="#414042" cx="30.087" cy="18.353" rx="1.586" ry="1.867"/>
	<path fill="#414042" d="M23.983,1.625c-12.339,0-22.377,10.038-22.377,22.377c0,12.336,10.038,22.373,22.377,22.373
		c12.336,0,22.373-10.037,22.373-22.373C46.355,11.663,36.319,1.625,23.983,1.625z M23.983,45.375
		c-11.787,0-21.377-9.588-21.377-21.373c0-11.787,9.59-21.377,21.377-21.377c11.785,0,21.373,9.59,21.373,21.377
		C45.355,35.787,35.768,45.375,23.983,45.375z"/>
	<path fill="#414042" d="M29.98,23.718c2.146,0,3.892-2.407,3.892-5.365s-1.746-5.365-3.892-5.365c-2.146,0-3.893,2.407-3.893,5.365
		S27.834,23.718,29.98,23.718z M29.98,13.987c1.595,0,2.892,1.958,2.892,4.365s-1.297,4.365-2.892,4.365s-2.893-1.958-2.893-4.365
		S28.386,13.987,29.98,13.987z"/>
	<path fill="#414042" d="M17.981,23.718c2.146,0,3.892-2.407,3.892-5.365s-1.746-5.365-3.892-5.365
		c-2.146,0-3.893,2.407-3.893,5.365S15.834,23.718,17.981,23.718z M17.981,13.987c1.595,0,2.892,1.958,2.892,4.365
		s-1.297,4.365-2.892,4.365s-2.893-1.958-2.893-4.365S16.386,13.987,17.981,13.987z"/>
	<path fill="#414042" d="M32.459,30.062H15.5c-1.769,0-3.208,1.438-3.208,3.208s1.439,3.208,3.208,3.208h16.958
		c1.769,0,3.208-1.438,3.208-3.208S34.228,30.062,32.459,30.062z M32.459,35.478H15.5c-1.218,0-2.208-0.991-2.208-2.208
		s0.99-2.208,2.208-2.208h16.958c1.218,0,2.208,0.991,2.208,2.208S33.677,35.478,32.459,35.478z"/>
</g>
</svg>
