<?xml version="1.0" encoding="utf-8"?>
<!-- Generator: Adobe Illustrator 16.0.0, SVG Export Plug-In . SVG Version: 6.00 Build 0)  -->
<!DOCTYPE svg PUBLIC "-//W3C//DTD SVG 1.1//EN" "http://www.w3.org/Graphics/SVG/1.1/DTD/svg11.dtd">
<svg version="1.1" id="Layer_1" xmlns="http://www.w3.org/2000/svg" xmlns:xlink="http://www.w3.org/1999/xlink" x="0px" y="0px"
	 width="48px" height="48px" viewBox="0 0 48 48" enable-background="new 0 0 48 48" xml:space="preserve">
<g>
	<path fill="#414042" d="M23.983,1.625c-12.339,0-22.377,10.038-22.377,22.377c0,12.336,10.038,22.373,22.377,22.373
		c12.336,0,22.373-10.037,22.373-22.373C46.355,11.663,36.319,1.625,23.983,1.625z M23.983,45.375
		c-11.787,0-21.377-9.588-21.377-21.373c0-11.787,9.59-21.377,21.377-21.377c11.785,0,21.373,9.59,21.373,21.377
		C45.355,35.787,35.768,45.375,23.983,45.375z"/>
	<path fill="#414042" d="M35.433,11.751c-4.417-2.727-9.474-0.119-9.688-0.006c-0.244,0.129-0.338,0.431-0.209,0.675
		c0.09,0.17,0.264,0.267,0.442,0.267c0.079,0,0.159-0.019,0.233-0.058c0.047-0.024,4.763-2.457,8.695-0.028
		c0.234,0.146,0.542,0.073,0.688-0.163C35.74,12.205,35.668,11.896,35.433,11.751z"/>
	<path fill="#414042" d="M20.242,12.603c0.234,0.145,0.543,0.073,0.688-0.163c0.145-0.235,0.072-0.543-0.163-0.688
		c-4.416-2.729-9.475-0.119-9.688-0.006c-0.244,0.129-0.337,0.431-0.209,0.675c0.09,0.17,0.264,0.268,0.443,0.268
		c0.078,0,0.157-0.019,0.231-0.058C11.593,12.605,16.32,10.179,20.242,12.603z"/>
	<path fill="#414042" d="M27.286,35.104h-6.782c-0.276,0-0.5,0.224-0.5,0.5s0.224,0.5,0.5,0.5h6.782c0.276,0,0.5-0.224,0.5-0.5
		S27.563,35.104,27.286,35.104z"/>
	<path fill="#414042" d="M30.203,14.574c-2.146,0-3.893,2.407-3.893,5.365s1.746,5.365,3.893,5.365s3.893-2.407,3.893-5.365
		S32.35,14.574,30.203,14.574z M31.412,23.892c0.286-0.417,0.465-0.941,0.465-1.52c0-1.344-0.924-2.433-2.066-2.433
		c-1.104,0-1.996,1.021-2.054,2.305c-0.278-0.67-0.446-1.457-0.446-2.305c0-2.407,1.298-4.365,2.893-4.365s2.893,1.958,2.893,4.365
		C33.096,21.693,32.403,23.198,31.412,23.892z"/>
	<path fill="#414042" d="M15.909,14.574c-2.146,0-3.893,2.407-3.893,5.365s1.746,5.365,3.893,5.365s3.893-2.407,3.893-5.365
		S18.055,14.574,15.909,14.574z M16.932,24.009c0.336-0.432,0.546-1.003,0.546-1.637c0-1.344-0.924-2.433-2.065-2.433
		c-1.036,0-1.885,0.899-2.035,2.068c-0.223-0.619-0.361-1.316-0.361-2.068c0-2.407,1.298-4.365,2.893-4.365s2.893,1.958,2.893,4.365
		C18.801,21.801,18.021,23.383,16.932,24.009z"/>
</g>
</svg>
