<?xml version="1.0" encoding="utf-8"?>
<!-- Generator: Adobe Illustrator 16.0.0, SVG Export Plug-In . SVG Version: 6.00 Build 0)  -->
<!DOCTYPE svg PUBLIC "-//W3C//DTD SVG 1.1//EN" "http://www.w3.org/Graphics/SVG/1.1/DTD/svg11.dtd">
<svg version="1.1" id="Layer_1" xmlns="http://www.w3.org/2000/svg" xmlns:xlink="http://www.w3.org/1999/xlink" x="0px" y="0px"
	 width="48px" height="48px" viewBox="0 0 48 48" enable-background="new 0 0 48 48" xml:space="preserve">
<g>
	<path fill="#414042" d="M46.112,12.279c0-5.741-4.67-10.411-10.41-10.411s-10.41,4.67-10.41,10.411
		c0,0.237,0.011,0.474,0.026,0.709c-1.951-0.772-4.069-1.21-6.292-1.21c-9.472,0-17.178,7.707-17.178,17.179
		c0,9.471,7.706,17.175,17.178,17.175c9.47,0,17.175-7.704,17.175-17.175c0-2.224-0.438-4.343-1.211-6.295
		c0.237,0.016,0.474,0.026,0.711,0.026C41.442,22.688,46.112,18.019,46.112,12.279z M19.027,45.132
		c-8.921,0-16.178-7.256-16.178-16.175c0-8.921,7.257-16.179,16.178-16.179c8.918,0,16.175,7.258,16.175,16.179
		C35.202,37.876,27.945,45.132,19.027,45.132z M26.38,13.456c-0.049-0.386-0.088-0.778-0.088-1.176c0-5.189,4.222-9.411,9.41-9.411
		s9.41,4.222,9.41,9.411c0,5.188-4.222,9.409-9.41,9.409c-0.395,0-0.788-0.039-1.178-0.088
		C32.826,18.037,29.943,15.154,26.38,13.456z"/>
	<path fill="#414042" d="M17.813,15.121c0.185-0.206,0.167-0.521-0.038-0.706c-0.205-0.184-0.521-0.167-0.706,0.038
		c-1.988,2.216-6.164,2.248-6.206,2.248c-0.276,0-0.5,0.224-0.5,0.5c0,0.276,0.224,0.5,0.5,0.5
		C11.052,17.701,15.524,17.672,17.813,15.121z"/>
	<path fill="#414042" d="M27.04,16.836c-3.272,0-6.108-2.529-6.136-2.554c-0.204-0.184-0.52-0.169-0.706,0.035
		c-0.186,0.205-0.17,0.521,0.034,0.706c0.127,0.115,3.145,2.813,6.808,2.813c0.276,0,0.5-0.224,0.5-0.5S27.316,16.836,27.04,16.836z
		"/>
	<path fill="#414042" d="M18.859,36.393h-6.313c-0.276,0-0.5,0.224-0.5,0.5s0.224,0.5,0.5,0.5h6.313c0.276,0,0.5-0.224,0.5-0.5
		S19.135,36.393,18.859,36.393z"/>
	<path fill="#414042" d="M36.439,12.947c0.015,0.001,0.027,0.008,0.042,0.008h2.584c0.276,0,0.5-0.224,0.5-0.5s-0.224-0.5-0.5-0.5
		h-2.584c-0.015,0-0.027,0.007-0.042,0.008c-0.074-0.119-0.172-0.216-0.29-0.292V7.539c0-0.276-0.224-0.5-0.5-0.5
		s-0.5,0.224-0.5,0.5v4.131c-0.264,0.168-0.449,0.449-0.449,0.785c0,0.523,0.427,0.947,0.949,0.947
		C35.988,13.402,36.271,13.214,36.439,12.947z"/>
	<path fill="#414042" d="M22.834,18.575c-2.146,0-3.893,2.407-3.893,5.365c0,2.958,1.746,5.365,3.893,5.365s3.892-2.407,3.892-5.365
		C26.727,20.982,24.981,18.575,22.834,18.575z M22.834,28.306c-1.595,0-2.893-1.958-2.893-4.365s1.298-4.365,2.893-4.365
		c0.388,0,0.758,0.12,1.097,0.331c-0.665,0.025-1.199,0.503-1.199,1.102c0,0.611,0.561,1.109,1.25,1.109
		c0.553,0,1.004-0.323,1.169-0.764c0.356,0.726,0.575,1.615,0.575,2.587C25.727,26.348,24.429,28.306,22.834,28.306z"/>
	<path fill="#414042" d="M14.434,29.306c2.146,0,3.893-2.407,3.893-5.365c0-2.958-1.746-5.365-3.893-5.365s-3.893,2.407-3.893,5.365
		C10.542,26.898,12.288,29.306,14.434,29.306z M14.434,19.575c0.414,0,0.806,0.137,1.163,0.375
		c-0.098-0.022-0.192-0.053-0.298-0.053c-0.689,0-1.25,0.496-1.25,1.111c0,0.611,0.561,1.109,1.25,1.109
		c0.691,0,1.248-0.498,1.248-1.109c0-0.017-0.01-0.031-0.011-0.048c0.487,0.782,0.791,1.826,0.791,2.981
		c0,2.407-1.298,4.365-2.893,4.365s-2.893-1.958-2.893-4.365S12.839,19.575,14.434,19.575z"/>
</g>
</svg>
