<?xml version="1.0" encoding="utf-8"?>
<!-- Generator: Adobe Illustrator 16.0.0, SVG Export Plug-In . SVG Version: 6.00 Build 0)  -->
<!DOCTYPE svg PUBLIC "-//W3C//DTD SVG 1.1//EN" "http://www.w3.org/Graphics/SVG/1.1/DTD/svg11.dtd">
<svg version="1.1" id="Layer_1" xmlns="http://www.w3.org/2000/svg" xmlns:xlink="http://www.w3.org/1999/xlink" x="0px" y="0px"
	 width="48px" height="48px" viewBox="0 0 48 48" enable-background="new 0 0 48 48" xml:space="preserve">
<g>
	<ellipse fill="#414042" cx="17.93" cy="17.654" rx="1.295" ry="1.4"/>
	<ellipse fill="#414042" cx="30.031" cy="17.654" rx="1.295" ry="1.4"/>
	<path fill="#414042" d="M23.983,1.625c-12.339,0-22.377,10.038-22.377,22.377c0,12.336,10.038,22.373,22.377,22.373
		c12.336,0,22.373-10.037,22.373-22.373C46.355,11.663,36.319,1.625,23.983,1.625z M23.983,45.375
		c-11.787,0-21.377-9.588-21.377-21.373c0-11.787,9.59-21.377,21.377-21.377c11.785,0,21.373,9.59,21.373,21.377
		C45.355,35.787,35.768,45.375,23.983,45.375z"/>
	<path fill="#414042" d="M27.158,35.095c-8.797,2.157-11.792-5.309-11.915-5.628c-0.1-0.257-0.391-0.383-0.646-0.287
		c-0.258,0.1-0.386,0.389-0.287,0.646c0.029,0.075,2.647,6.656,9.826,6.656c0.997,0,2.083-0.127,3.26-0.417
		c0.269-0.065,0.433-0.337,0.366-0.604C27.698,35.193,27.431,35.027,27.158,35.095z"/>
	<path fill="#414042" d="M29.98,12.17c-2.146,0-3.893,2.407-3.893,5.365S27.834,22.9,29.98,22.9c2.146,0,3.892-2.407,3.892-5.365
		S32.126,12.17,29.98,12.17z M29.98,21.9c-1.595,0-2.893-1.958-2.893-4.365s1.298-4.365,2.893-4.365s2.892,1.958,2.892,4.365
		S31.575,21.9,29.98,21.9z"/>
	<path fill="#414042" d="M17.981,22.9c2.146,0,3.892-2.407,3.892-5.365s-1.746-5.365-3.892-5.365c-2.146,0-3.893,2.407-3.893,5.365
		S15.834,22.9,17.981,22.9z M17.981,13.17c1.595,0,2.892,1.958,2.892,4.365S19.576,21.9,17.981,21.9s-2.893-1.958-2.893-4.365
		S16.386,13.17,17.981,13.17z"/>
</g>
</svg>
