<?xml version="1.0" encoding="utf-8"?>
<!-- Generator: Adobe Illustrator 16.0.0, SVG Export Plug-In . SVG Version: 6.00 Build 0)  -->
<!DOCTYPE svg PUBLIC "-//W3C//DTD SVG 1.1//EN" "http://www.w3.org/Graphics/SVG/1.1/DTD/svg11.dtd">
<svg version="1.1" id="Layer_1" xmlns="http://www.w3.org/2000/svg" xmlns:xlink="http://www.w3.org/1999/xlink" x="0px" y="0px"
	 width="48px" height="48px" viewBox="0 0 48 48" enable-background="new 0 0 48 48" xml:space="preserve">
<g>
	<path fill="#414042" d="M29.981,11.296c-2.146,0-3.893,2.407-3.893,5.365s1.746,5.365,3.893,5.365s3.893-2.407,3.893-5.365
		S32.128,11.296,29.981,11.296z M31.926,19.872c0.073-0.25,0.121-0.513,0.121-0.792c0-1.344-0.924-2.434-2.064-2.434
		c-1.143,0-2.066,1.09-2.066,2.434c0,0.279,0.048,0.543,0.121,0.792c-0.578-0.799-0.948-1.936-0.948-3.21
		c0-2.407,1.298-4.365,2.893-4.365s2.893,1.958,2.893,4.365C32.874,17.935,32.504,19.073,31.926,19.872z"/>
	<path fill="#414042" d="M17.982,11.296c-2.146,0-3.893,2.407-3.893,5.365s1.746,5.365,3.893,5.365s3.893-2.407,3.893-5.365
		S20.128,11.296,17.982,11.296z M19.926,19.872c0.073-0.25,0.122-0.513,0.122-0.792c0-1.344-0.924-2.434-2.064-2.434
		c-1.143,0-2.066,1.09-2.066,2.434c0,0.279,0.048,0.543,0.122,0.792c-0.579-0.799-0.949-1.936-0.949-3.21
		c0-2.407,1.298-4.365,2.893-4.365s2.893,1.958,2.893,4.365C20.875,17.935,20.505,19.073,19.926,19.872z"/>
	<path fill="#414042" d="M46.356,22.931c0-12.339-10.036-22.377-22.373-22.377c-12.339,0-22.377,10.038-22.377,22.377
		c0,10.626,7.521,19.813,17.903,21.919c1.171,1.605,2.741,2.597,4.47,2.597c1.729,0,3.298-0.991,4.47-2.595
		C38.834,42.744,46.356,33.559,46.356,22.931z M23.98,46.446c-3.058,0-5.545-3.841-5.545-8.561v-9.521h11.091v9.521
		C29.526,42.605,27.038,46.446,23.98,46.446z M17.435,34.044c-2.123-1.952-2.92-4.55-3.171-5.68h3.171V34.044z M30.526,28.364h3.256
		c-0.084,1.128-0.567,3.965-3.256,5.938V28.364z M29.193,43.644c0.833-1.604,1.333-3.595,1.333-5.758v-2.375
		c4.386-2.739,4.278-7.464,4.271-7.663c-0.01-0.27-0.23-0.483-0.5-0.483H13.664c-0.143,0-0.279,0.062-0.374,0.169
		c-0.095,0.106-0.14,0.249-0.122,0.391c0.022,0.186,0.589,4.566,4.164,7.367c0.032,0.024,0.068,0.036,0.104,0.052v2.543
		c0,2.162,0.5,4.152,1.332,5.756c-9.425-2.362-16.16-10.886-16.16-20.711c0-11.787,9.59-21.377,21.377-21.377
		c11.785,0,21.373,9.59,21.373,21.377C45.356,32.758,38.62,41.281,29.193,43.644z"/>
</g>
</svg>
