<?xml version="1.0" encoding="utf-8"?>
<!-- Generator: Adobe Illustrator 16.0.0, SVG Export Plug-In . SVG Version: 6.00 Build 0)  -->
<!DOCTYPE svg PUBLIC "-//W3C//DTD SVG 1.1//EN" "http://www.w3.org/Graphics/SVG/1.1/DTD/svg11.dtd">
<svg version="1.1" id="Layer_1" xmlns="http://www.w3.org/2000/svg" xmlns:xlink="http://www.w3.org/1999/xlink" x="0px" y="0px"
	 width="48px" height="48px" viewBox="0 0 48 48" enable-background="new 0 0 48 48" xml:space="preserve">
<g>
	<path fill="#414042" d="M23.984,1.625c-12.339,0-22.377,10.038-22.377,22.377c0,12.336,10.038,22.373,22.377,22.373
		c12.336,0,22.373-10.037,22.373-22.373C46.356,11.663,36.32,1.625,23.984,1.625z M23.984,45.375
		c-11.787,0-21.377-9.588-21.377-21.373c0-11.787,9.59-21.377,21.377-21.377c11.785,0,21.373,9.59,21.373,21.377
		C45.356,35.787,35.769,45.375,23.984,45.375z"/>
	<path fill="#414042" d="M24.41,39.457c-9.16,0-10.313-5.656-10.357-5.898c-0.051-0.27-0.305-0.451-0.581-0.401
		c-0.271,0.05-0.451,0.308-0.403,0.579c0.012,0.066,1.309,6.721,11.342,6.721c0.276,0,0.5-0.224,0.5-0.5S24.686,39.457,24.41,39.457
		z"/>
	<path fill="#414042" d="M33.111,12.613c0.082,0.051,0.173,0.075,0.263,0.075c0.167,0,0.331-0.084,0.426-0.237
		c0.145-0.235,0.072-0.543-0.163-0.688c-4.478-2.768-7.94,0.01-7.975,0.039c-0.214,0.175-0.244,0.491-0.068,0.704
		c0.175,0.214,0.491,0.244,0.703,0.068C26.326,12.55,29.236,10.219,33.111,12.613z"/>
	<path fill="#414042" d="M14.602,12.859c0.029-0.023,2.938-2.354,6.814,0.039c0.082,0.051,0.173,0.075,0.263,0.075
		c0.167,0,0.331-0.084,0.426-0.237c0.145-0.235,0.072-0.543-0.163-0.688c-4.478-2.768-7.941,0.01-7.975,0.039
		c-0.214,0.175-0.244,0.491-0.068,0.704C14.074,13.004,14.39,13.034,14.602,12.859z"/>
	<path fill="#414042" d="M29.981,14.193c-2.146,0-3.893,2.407-3.893,5.365s1.746,5.365,3.893,5.365s3.893-2.407,3.893-5.365
		S32.128,14.193,29.981,14.193z M29.981,23.924c-1.243,0-2.298-1.197-2.705-2.863c0.172,0.079,0.358,0.135,0.564,0.135
		c0.691,0,1.25-0.498,1.25-1.111s-0.559-1.109-1.25-1.109c-0.277,0-0.521,0.096-0.729,0.232c0.121-2.241,1.354-4.014,2.869-4.014
		c1.595,0,2.893,1.958,2.893,4.365S31.576,23.924,29.981,23.924z"/>
	<path fill="#414042" d="M17.982,14.193c-2.146,0-3.893,2.407-3.893,5.365s1.746,5.365,3.893,5.365s3.893-2.407,3.893-5.365
		S20.128,14.193,17.982,14.193z M17.982,23.924c-1.244,0-2.297-1.197-2.705-2.863c0.171,0.079,0.358,0.135,0.564,0.135
		c0.691,0,1.25-0.498,1.25-1.111s-0.559-1.109-1.25-1.109c-0.278,0-0.521,0.096-0.729,0.232c0.121-2.241,1.354-4.014,2.869-4.014
		c1.595,0,2.893,1.958,2.893,4.365S19.577,23.924,17.982,23.924z"/>
</g>
</svg>
