<?xml version="1.0" encoding="utf-8"?>
<!-- Generator: Adobe Illustrator 16.0.0, SVG Export Plug-In . SVG Version: 6.00 Build 0)  -->
<!DOCTYPE svg PUBLIC "-//W3C//DTD SVG 1.1//EN" "http://www.w3.org/Graphics/SVG/1.1/DTD/svg11.dtd">
<svg version="1.1" id="Layer_1" xmlns="http://www.w3.org/2000/svg" xmlns:xlink="http://www.w3.org/1999/xlink" x="0px" y="0px"
	 width="48px" height="48px" viewBox="0 0 48 48" enable-background="new 0 0 48 48" xml:space="preserve">
<g>
	<path fill="#414042" d="M18.978,25.846c0.766,0,1.381-0.627,1.381-1.398c0-0.773-0.615-1.396-1.381-1.396
		c-0.762,0-1.381,0.623-1.381,1.396C17.597,25.219,18.216,25.846,18.978,25.846z"/>
	<ellipse fill="#414042" cx="28.954" cy="24.447" rx="1.381" ry="1.398"/>
	<path fill="#414042" d="M28.187,10.557c-0.013-0.05-0.015-0.104-0.041-0.147c-2.689-9.735-3.903-9.735-4.302-9.735
		c-0.067,0-0.161,0.018-0.223,0.043c-0.194,0.083-0.316,0.279-0.304,0.491c0.145,2.386-1.514,8.042-1.812,9.037
		C12.4,11.464,5.349,19.262,5.349,28.695c0,10.273,8.359,18.631,18.635,18.631c10.273,0,18.63-8.357,18.63-18.631
		C42.614,19.867,36.438,12.47,28.187,10.557z M22.6,10.07c0.432-1.476,1.457-5.17,1.682-7.677c0.526,0.939,1.43,3.047,2.755,7.764
		l-1.883-0.037c-0.389-0.024-0.775-0.06-1.17-0.06c-0.175,0-0.344,0.021-0.518,0.026L22.6,10.07z M23.984,46.326
		c-9.724,0-17.635-7.909-17.635-17.631c0-9.548,7.633-17.33,17.115-17.608l1.698,0.033c9.172,0.611,16.452,8.25,16.452,17.575
		C41.614,38.417,33.705,46.326,23.984,46.326z"/>
	<path fill="#414042" d="M24.469,32.811c-0.046-0.014-0.095-0.021-0.146-0.021h-0.682c-0.051,0-0.1,0.008-0.146,0.021
		c-6.258,0.33-8.417,4.344-8.509,4.521c-0.127,0.244-0.032,0.545,0.212,0.673c0.243,0.128,0.546,0.032,0.675-0.21
		c0.084-0.161,2.111-3.865,8.108-4.002c5.998,0.137,8.026,3.842,8.111,4.002c0.089,0.17,0.264,0.267,0.443,0.267
		c0.078,0,0.157-0.019,0.23-0.058c0.244-0.127,0.339-0.428,0.212-0.672C32.888,37.154,30.727,33.141,24.469,32.811z"/>
	<path fill="#414042" d="M25.644,24.914c0,2.498,1.486,4.531,3.313,4.531c1.856,0,3.311-1.99,3.311-4.531
		c0-2.542-1.454-4.533-3.311-4.533C27.13,20.381,25.644,22.415,25.644,24.914z M31.267,24.914c0,1.914-1.058,3.531-2.311,3.531
		c-1.254,0-2.313-1.617-2.313-3.531c0-1.915,1.059-3.533,2.313-3.533C30.23,21.381,31.267,22.966,31.267,24.914z"/>
	<path fill="#414042" d="M19.009,29.445c1.826,0,3.313-2.033,3.313-4.531c0-2.5-1.486-4.533-3.313-4.533s-3.313,2.034-3.313,4.533
		C15.697,27.412,17.183,29.445,19.009,29.445z M19.009,21.381c1.254,0,2.313,1.618,2.313,3.533c0,1.914-1.059,3.531-2.313,3.531
		s-2.313-1.617-2.313-3.531C16.697,22.999,17.755,21.381,19.009,21.381z"/>
	<path fill="#414042" d="M18.209,18.146c0.114-0.012,2.869-0.08,3.976,2.403c0.083,0.186,0.266,0.296,0.457,0.296
		c0.068,0,0.138-0.014,0.203-0.043c0.253-0.112,0.366-0.408,0.254-0.66c-1.39-3.116-4.789-3.005-4.933-2.995
		c-0.275,0.012-0.487,0.245-0.477,0.52C17.702,17.942,17.928,18.163,18.209,18.146z"/>
	<path fill="#414042" d="M25.229,20.768c0.066,0.029,0.135,0.043,0.203,0.043c0.191,0,0.374-0.111,0.457-0.297
		c1.104-2.488,3.853-2.411,3.969-2.408c0.284,0.025,0.508-0.205,0.519-0.48s-0.202-0.507-0.478-0.519
		c-0.153-0.009-3.542-0.113-4.923,3.002C24.864,20.36,24.978,20.656,25.229,20.768z"/>
</g>
</svg>
