<?xml version="1.0" encoding="utf-8"?>
<!-- Generator: Adobe Illustrator 16.0.0, SVG Export Plug-In . SVG Version: 6.00 Build 0)  -->
<!DOCTYPE svg PUBLIC "-//W3C//DTD SVG 1.1//EN" "http://www.w3.org/Graphics/SVG/1.1/DTD/svg11.dtd">
<svg version="1.1" id="Layer_1" xmlns="http://www.w3.org/2000/svg" xmlns:xlink="http://www.w3.org/1999/xlink" x="0px" y="0px"
	 width="48px" height="48px" viewBox="0 0 48 48" enable-background="new 0 0 48 48" xml:space="preserve">
<g>
	<path fill="#414042" d="M24.737,1.162c-12.298,0-22.303,10.006-22.303,22.305c0,1.438,0.143,2.876,0.415,4.277
		c-0.376,0.062-0.709,0.203-0.995,0.429c-0.896,0.706-0.932,1.948-0.933,2.001c-0.001,0.049,0.028,0.18,0.042,0.228L4.65,43.261
		c0.03,0.105,0.094,0.198,0.182,0.263c0.49,0.365,4.521,3.312,6.938,3.311c0.225,0,0.435-0.025,0.627-0.08l4.313-1.236
		c0.05-0.014,0.097-0.035,0.14-0.064c0.057-0.038,0.449-0.307,0.98-0.783c2.23,0.725,4.551,1.102,6.907,1.102
		c12.298,0,22.304-10.006,22.304-22.305S37.035,1.162,24.737,1.162z M16.353,44.58l-4.231,1.213
		c-1.308,0.377-4.658-1.582-6.558-2.971L1.926,30.129c0.019-0.201,0.112-0.828,0.547-1.171c0.261-0.206,0.628-0.276,1.083-0.226
		l2.271,7.048c0.068,0.212,0.265,0.347,0.476,0.347c0.051,0,0.103-0.008,0.153-0.023c0.263-0.086,0.407-0.367,0.322-0.63
		L4.458,28.27c-0.004-0.099-0.031-0.19-0.086-0.269l-0.203-0.628c0.025-0.234,0.142-0.938,0.635-1.293
		c0.358-0.26,0.881-0.295,1.553-0.102c0.027,0.008,0.053,0.003,0.08,0.006l2.716,8.73c0.066,0.215,0.265,0.352,0.478,0.352
		c0.049,0,0.099-0.008,0.148-0.022c0.264-0.082,0.411-0.362,0.329-0.626l-2.938-9.444c0.181-0.579,0.464-0.953,0.844-1.111
		c0.551-0.231,1.222,0.003,1.53,0.141l2.727,9.518c0.075,0.265,0.35,0.421,0.618,0.343c0.266-0.076,0.419-0.353,0.343-0.618
		l-2.364-8.253c0.175-0.489,0.421-0.802,0.739-0.915c0.454-0.159,1.031,0.066,1.34,0.234l3.141,10.483
		c0.071,0.238,0.295,0.391,0.555,0.351c0.246-0.037,0.427-0.252,0.424-0.501c-0.022-1.653,0.293-2.764,0.889-3.128
		c0.399-0.245,0.886-0.127,1.144-0.033l1.318,4.585C21.069,41.01,16.904,44.184,16.353,44.58z M24.737,44.771
		c-2.074,0-4.117-0.314-6.093-0.903c1.473-1.588,3.237-4.321,2.747-8.004l-0.44-1.535c1.014,0.267,2.089,0.433,3.216,0.493
		c0.051,0.016,0.104,0.025,0.159,0.025h0.822c0.055,0,0.107-0.009,0.156-0.025c7.502-0.389,10.083-5.188,10.193-5.4
		c0.127-0.244,0.032-0.545-0.212-0.673c-0.248-0.13-0.547-0.032-0.675,0.21c-0.103,0.197-2.569,4.719-9.872,4.884
		c-1.473-0.034-2.851-0.258-4.115-0.653l-0.633-2.21c-0.037-0.129-0.124-0.237-0.241-0.302c-0.051-0.027-1.247-0.662-2.31-0.021
		c-0.497,0.301-0.86,0.816-1.089,1.543l-2.505-8.36c-0.032-0.11-0.103-0.205-0.197-0.27c-0.05-0.034-1.24-0.832-2.372-0.437
		c-0.305,0.107-0.565,0.292-0.79,0.54l-0.045-0.157c-0.035-0.125-0.118-0.231-0.231-0.296c-0.056-0.032-1.381-0.78-2.578-0.282
		c-0.712,0.294-1.206,0.937-1.47,1.911c-0.007,0.025,0.004,0.05,0.001,0.075c-0.774-0.134-1.436-0.027-1.954,0.351
		c-0.271,0.197-0.467,0.442-0.616,0.696c-0.097-0.83-0.161-1.665-0.161-2.503c0-11.748,9.557-21.305,21.303-21.305
		c11.747,0,21.304,9.557,21.304,21.305C46.041,35.215,36.483,44.771,24.737,44.771z"/>
	<path fill="#414042" d="M18.225,10.217c-2.722,0.098-4.531,2.886-4.607,3.004c-0.148,0.233-0.08,0.542,0.153,0.69
		c0.083,0.053,0.176,0.079,0.269,0.079c0.165,0,0.326-0.082,0.422-0.231c0.016-0.025,1.597-2.463,3.8-2.543
		c1.348-0.054,2.708,0.817,4.016,2.573c0.166,0.221,0.479,0.266,0.7,0.102c0.222-0.165,0.268-0.478,0.103-0.7
		C21.563,11.156,19.927,10.146,18.225,10.217z"/>
	<path fill="#414042" d="M30.879,10.095c-0.011,0-0.021,0-0.031,0c-2.923,0.02-5.013,2.862-5.101,2.983
		c-0.161,0.223-0.111,0.535,0.112,0.697c0.22,0.161,0.535,0.113,0.697-0.111c0.019-0.025,1.888-2.556,4.302-2.569
		c0.007,0,0.013,0,0.02,0c1.411,0,2.771,0.866,4.043,2.575c0.099,0.131,0.249,0.201,0.401,0.201c0.104,0,0.209-0.032,0.299-0.099
		c0.222-0.165,0.268-0.478,0.103-0.7C34.252,11.097,32.622,10.095,30.879,10.095z"/>
	<path fill="#414042" d="M30.738,14.213c-2.146,0-3.893,2.407-3.893,5.365s1.746,5.365,3.893,5.365c2.146,0,3.891-2.407,3.891-5.365
		S32.884,14.213,30.738,14.213z M30.738,23.943c-1.222,0-2.263-1.152-2.687-2.771c0.112,0.029,0.224,0.062,0.346,0.062
		c0.691,0,1.25-0.498,1.25-1.109c0-0.613-0.559-1.111-1.25-1.111c-0.188,0-0.361,0.042-0.521,0.108
		c0.153-2.19,1.371-3.909,2.862-3.909c1.594,0,2.891,1.958,2.891,4.365S32.332,23.943,30.738,23.943z"/>
	<path fill="#414042" d="M18.739,14.213c-2.146,0-3.893,2.407-3.893,5.365s1.746,5.365,3.893,5.365c2.146,0,3.891-2.407,3.891-5.365
		S20.884,14.213,18.739,14.213z M18.739,23.943c-1.221,0-2.263-1.152-2.686-2.771c0.112,0.029,0.223,0.062,0.345,0.062
		c0.691,0,1.25-0.498,1.25-1.109c0-0.613-0.559-1.111-1.25-1.111c-0.188,0-0.361,0.042-0.521,0.108
		c0.153-2.19,1.371-3.909,2.862-3.909c1.594,0,2.891,1.958,2.891,4.365S20.333,23.943,18.739,23.943z"/>
</g>
</svg>
