<?xml version="1.0" encoding="utf-8"?>
<!-- Generator: Adobe Illustrator 16.0.0, SVG Export Plug-In . SVG Version: 6.00 Build 0)  -->
<!DOCTYPE svg PUBLIC "-//W3C//DTD SVG 1.1//EN" "http://www.w3.org/Graphics/SVG/1.1/DTD/svg11.dtd">
<svg version="1.1" id="Layer_1" xmlns="http://www.w3.org/2000/svg" xmlns:xlink="http://www.w3.org/1999/xlink" x="0px" y="0px"
	 width="48px" height="48px" viewBox="0 0 48 48" enable-background="new 0 0 48 48" xml:space="preserve">
<g>
	<path fill="#414042" d="M39.607,18.806c0-8.617-7.009-15.627-15.624-15.627c-8.617,0-15.628,7.01-15.628,15.627
		c0,8.613,7.011,15.621,15.628,15.621C32.599,34.427,39.607,27.419,39.607,18.806z M23.984,33.427
		c-8.065,0-14.628-6.56-14.628-14.621c0-8.065,6.563-14.627,14.628-14.627c8.063,0,14.624,6.562,14.624,14.627
		C38.607,26.867,32.047,33.427,23.984,33.427z"/>
	<path fill="#414042" d="M31.347,22.194c-0.243-0.125-0.547-0.032-0.674,0.213c-0.018,0.032-1.71,3.179-6.692,3.294
		c-4.946-0.113-6.62-3.164-6.689-3.294c-0.127-0.245-0.432-0.339-0.674-0.213c-0.245,0.127-0.341,0.429-0.213,0.674
		c0.078,0.15,1.898,3.536,7.157,3.817c0,0,0.556,0.019,0.84,0c5.259-0.281,7.08-3.667,7.158-3.817
		C31.688,22.623,31.592,22.321,31.347,22.194z"/>
	<path fill="#414042" d="M20.482,17.378c1.368,0,2.481-1.113,2.481-2.48c0-1.367-1.113-2.479-2.481-2.479s-2.48,1.112-2.48,2.479
		C18.001,16.265,19.114,17.378,20.482,17.378z M20.482,13.419c0.816,0,1.481,0.663,1.481,1.479c0,0.816-0.665,1.48-1.481,1.48
		s-1.48-0.664-1.48-1.48C19.001,14.082,19.666,13.419,20.482,13.419z"/>
	<path fill="#414042" d="M27.481,17.378c1.368,0,2.48-1.113,2.48-2.48c0-1.367-1.112-2.479-2.48-2.479
		c-1.367,0-2.479,1.112-2.479,2.479C25.002,16.265,26.114,17.378,27.481,17.378z M27.481,13.419c0.816,0,1.48,0.663,1.48,1.479
		c0,0.816-0.664,1.48-1.48,1.48c-0.815,0-1.479-0.664-1.479-1.48C26.002,14.082,26.666,13.419,27.481,13.419z"/>
	<path fill="#414042" d="M45.243,29.283c-0.144-0.128-1.441-1.236-2.646-0.752c-0.844,0.339-1.338,1.348-1.468,2.996
		c-0.008,0.096,0.02,0.182,0.06,0.262c-0.195,0.172-0.353,0.388-0.455,0.654C40.712,32.5,40.7,32.561,40.7,32.622v0.991
		c-0.357-0.05-0.737-0.045-1.139,0.021c-0.229-0.822-0.808-2.152-2.199-2.549c-0.043-0.012-0.087-0.018-0.132-0.019
		c-0.146-0.002-1.32,0.009-1.977,0.756c-0.229,0.262-0.483,0.724-0.374,1.481c0.005,0.021,0.513,2.212,0.175,3.616
		c-2.745,2.888-1.562,5.313-1.526,5.374c0.704,1.969,2.448,2.533,4.039,2.533c0.826,0,1.611-0.152,2.188-0.34
		c0.051-0.018,0.099-0.042,0.143-0.074c4.049-3,6.317-6.18,6.742-9.451C47.076,31.605,45.374,29.436,45.243,29.283z M42.969,29.459
		c0.536-0.221,1.364,0.355,1.552,0.511c0.013,0.016,1.052,1.368,1.168,3.532c-0.252-0.475-0.607-0.97-1.111-1.455
		c-0.032-0.031-0.067-0.057-0.106-0.078c-0.146-0.079-1.285-0.68-2.316-0.579C42.269,30.321,42.551,29.629,42.969,29.459z
		 M41.7,33.747v-1.022c0.073-0.148,0.175-0.24,0.321-0.295c0.556-0.205,1.533,0.194,1.912,0.387c1.598,1.575,1.32,3.213,1.307,3.287
		c-0.019,0.096,0,0.188,0.033,0.272c-0.138,0.416-0.311,0.831-0.517,1.244c-0.44-1.253-1.475-3.019-3.085-3.73
		C41.686,33.844,41.7,33.798,41.7,33.747z M39.372,43.561c-0.566,0.165-3.958,1.035-4.927-1.659
		c-0.049-0.101-1.165-2.49,2.459-5.309c0.219-0.169,0.258-0.483,0.088-0.702s-0.485-0.257-0.701-0.087
		c-0.043,0.034-0.077,0.066-0.119,0.101c0.021-1.375-0.299-2.742-0.311-2.785c-0.038-0.273,0.009-0.48,0.143-0.635
		c0.276-0.316,0.872-0.404,1.151-0.416c1.093,0.361,1.437,1.727,1.523,2.187c-0.16,0.266-0.291,0.607-0.28,1.016
		c0.021,0.841,0.597,1.675,1.738,2.495c0.003,0.002,0.084,0.055,0.201,0.149c-1.144,0.104-2.928,0.426-3.958,1.427
		c-0.198,0.192-0.202,0.509-0.01,0.707c0.098,0.101,0.229,0.151,0.358,0.151c0.126,0,0.251-0.047,0.349-0.142
		c1.039-1.012,3.248-1.169,4.028-1.191c0.114,0.243,0.192,0.52,0.189,0.829c-0.002,0.276,0.22,0.501,0.496,0.504
		c0.001,0,0.003,0,0.004,0c0.274,0,0.498-0.222,0.5-0.496c0.014-1.745-1.563-2.746-1.603-2.769
		c-0.826-0.596-1.274-1.176-1.294-1.679c-0.012-0.303,0.14-0.524,0.23-0.628c2.922-0.582,4.195,3.342,4.249,3.512
		c0.06,0.188,0.222,0.313,0.404,0.341C43.225,40.204,41.596,41.903,39.372,43.561z"/>
	<path fill="#414042" d="M12.908,36.921c-0.337-1.404,0.17-3.596,0.184-3.663c0.101-0.711-0.153-1.173-0.383-1.435
		c-0.637-0.725-1.771-0.756-1.962-0.756c-0.072,0.001-0.1,0.005-0.146,0.019c-1.391,0.396-1.97,1.727-2.199,2.549
		C8,33.567,7.62,33.563,7.262,33.612v-0.99c0-0.062-0.012-0.122-0.033-0.179c-0.103-0.266-0.26-0.482-0.455-0.654
		c0.041-0.079,0.068-0.166,0.06-0.262c-0.131-1.648-0.625-2.657-1.469-2.996c-1.207-0.488-2.502,0.624-2.705,0.813
		c-0.072,0.091-1.774,2.261-1.339,5.618c0.425,3.271,2.693,6.451,6.742,9.451c0.044,0.032,0.092,0.057,0.143,0.074
		c0.581,0.189,1.374,0.343,2.207,0.343c1.583,0,3.311-0.556,3.994-2.477C14.467,42.24,15.653,39.81,12.908,36.921z M2.688,36.375
		c0.033-0.085,0.052-0.176,0.034-0.271c-0.013-0.068-0.293-1.709,1.307-3.287c0.378-0.192,1.357-0.592,1.912-0.387
		c0.146,0.055,0.248,0.146,0.321,0.295v1.022c0,0.05,0.015,0.096,0.029,0.142c-1.61,0.712-2.644,2.479-3.085,3.731
		C3,37.206,2.826,36.791,2.688,36.375z M3.383,30.031c0.248-0.219,1.073-0.79,1.61-0.572c0.419,0.17,0.701,0.862,0.815,1.93
		c-1.031-0.102-2.171,0.5-2.317,0.58c-0.039,0.021-0.074,0.047-0.106,0.078c-0.503,0.484-0.857,0.979-1.109,1.451
		C2.394,31.379,3.392,30.031,3.383,30.031z M13.493,41.957c-0.946,2.642-4.337,1.769-4.901,1.604
		c-2.224-1.657-3.854-3.356-4.911-5.079c0.184-0.027,0.345-0.152,0.404-0.341c0.054-0.17,1.321-4.096,4.249-3.512
		c0.09,0.104,0.238,0.32,0.23,0.615c-0.013,0.506-0.46,1.09-1.266,1.672c-0.067,0.042-1.645,1.043-1.631,2.788
		c0.002,0.274,0.226,0.496,0.5,0.496c0.001,0,0.003,0,0.004,0c0.276-0.003,0.498-0.228,0.496-0.504
		c-0.002-0.309,0.077-0.585,0.194-0.83c0.993,0.022,3.068,0.265,4.024,1.192c0.098,0.095,0.223,0.142,0.349,0.142
		c0.13,0,0.261-0.051,0.358-0.151c0.192-0.198,0.188-0.515-0.01-0.707c-1.029-1-2.811-1.321-3.954-1.426
		c0.125-0.103,0.215-0.163,0.226-0.17c1.113-0.801,1.688-1.635,1.71-2.476c0.011-0.409-0.12-0.75-0.281-1.017
		c0.085-0.459,0.424-1.823,1.525-2.186c0.268,0.011,0.87,0.098,1.148,0.414c0.087,0.1,0.196,0.271,0.153,0.59
		c-0.018,0.077-0.339,1.454-0.319,2.832c-0.042-0.034-0.076-0.066-0.12-0.101c-0.218-0.17-0.531-0.132-0.701,0.087
		s-0.131,0.533,0.088,0.702C14.682,39.411,13.566,41.801,13.493,41.957z"/>
	<ellipse fill="#414042" cx="27.602" cy="14.934" rx="0.66" ry="0.649"/>
	<ellipse fill="#414042" cx="20.602" cy="14.934" rx="0.66" ry="0.649"/>
</g>
</svg>
