<?xml version="1.0" encoding="utf-8"?>
<!-- Generator: Adobe Illustrator 16.0.0, SVG Export Plug-In . SVG Version: 6.00 Build 0)  -->
<!DOCTYPE svg PUBLIC "-//W3C//DTD SVG 1.1//EN" "http://www.w3.org/Graphics/SVG/1.1/DTD/svg11.dtd">
<svg version="1.1" id="Layer_1" xmlns="http://www.w3.org/2000/svg" xmlns:xlink="http://www.w3.org/1999/xlink" x="0px" y="0px"
	 width="1024px" height="1024px" viewBox="0 0 1024 1024" enable-background="new 0 0 1024 1024" xml:space="preserve">
<g>
	<path fill="#414042" d="M805.461,662.542c-24.334,0-44.124,19.792-44.124,44.125c0,24.292,19.79,44.042,44.124,44.042
		c24.291,0,44.083-19.75,44.083-44.042C849.544,682.334,829.752,662.542,805.461,662.542z"/>
	<path fill="#414042" d="M220.279,662.542c-24.313,0-44.104,19.792-44.104,44.125c0,24.292,19.792,44.042,44.104,44.042
		c24.322,0,44.114-19.75,44.114-44.042C264.393,682.334,244.601,662.542,220.279,662.542z"/>
	<path fill="#414042" d="M911.585,527.084l-262.133,27.125v0.291c-20.583-52.208-52.917-92.125-87.041-113.041h0.709l-39.74-230.803
		h-27.666l-33.5,230.803h0.5c-34.843,21.583-67.093,62.791-87.666,111.958l0.031-0.292l-262.696-26.041l-60.843,39.75l306.028,70.25
		c5.344,85.916,82.104,176.25,156.936,176.25c74.739,0,146.447-89.834,151.279-175.75l306.676-70.75L911.585,527.084z
		 M426.193,583.959l15.729-35.542c27.136,9.333,44.323,13.125,55.083,14.792l0.104,74.75
		C443.255,631.042,426.193,583.959,426.193,583.959z M526.484,637.834L526.38,562.5c12.886-2.25,33.323-6.833,58.905-16.708
		l11.834,38.167C597.119,583.959,579.785,630.584,526.484,637.834z"/>
</g>
</svg>
