<?xml version="1.0" encoding="utf-8"?>
<!-- Generator: Adobe Illustrator 16.0.0, SVG Export Plug-In . SVG Version: 6.00 Build 0)  -->
<!DOCTYPE svg PUBLIC "-//W3C//DTD SVG 1.1//EN" "http://www.w3.org/Graphics/SVG/1.1/DTD/svg11.dtd">
<svg version="1.1" id="Layer_1" xmlns="http://www.w3.org/2000/svg" xmlns:xlink="http://www.w3.org/1999/xlink" x="0px" y="0px"
	 width="1024px" height="1024px" viewBox="0 0 1024 1024" enable-background="new 0 0 1024 1024" xml:space="preserve">
<path fill="#414042" d="M848.169,282.729h-23.375c-9.333,0-17,9.896-17,22.125v-62.625c0-21.604-17.5-39.083-39.125-39.083
	c-57.457-10.625-110.8-17.334-159.925-21.292c-2.229-11.688-11.584-50.208-39.792-52.688h-57.676h-1.386h-57.667
	c-26.656,2.354-34.322,36.771-36.343,50.438c-103.187,6.458-161.374,23.542-161.374,23.542c-21.583,0-39.103,17.479-39.103,39.083
	v57.417c-1.834-9.646-8.188-16.917-16.156-16.917h-23.417c-9.323,0-16.969,9.896-16.969,22.125v72.021
	c0,12.209,7.646,22.209,16.969,22.209h23.417c7.969,0,14.322-7.354,16.156-17v4.729v369.542c0,21.625,17.52,39.104,39.103,39.104
	c0,0,8.678,2.146,24.896,4.958V878.5c0,6.479,5.25,11.688,11.687,11.688c0,0,29.302,10.459,71.125,0
	c6.469,0,11.719-5.208,11.719-11.688v-67.041c67.53,4.979,163.29,6.604,286.664-4.167V878.5c0,6.479,5.208,11.688,11.687,11.688
	c41.803,10.459,71.136,0,71.136,0c6.458,0,11.667-5.208,11.667-11.688v-81.396c4.583-0.583,8.916-1,13.582-1.646
	c21.625,0,39.125-17.479,39.125-39.104V386.813v-6.646v-3.292c0,12.209,7.667,22.209,17,22.209h23.375
	c9.417,0,16.958-10,16.958-22.209v-72.021C865.127,292.625,857.586,282.729,848.169,282.729z M302.569,739.104
	c-15.552,0-28.208-12.646-28.208-28.167c0-15.583,12.656-28.229,28.208-28.229c15.521,0,28.146,12.646,28.146,28.229
	C330.716,726.459,318.091,739.104,302.569,739.104z M629.952,739.396H391.246c-7.844,0-14.187-6.334-14.187-14.188
	c0-7.834,6.343-14.188,14.187-14.188h238.706c7.833,0,14.167,6.354,14.167,14.188C644.119,733.063,637.785,739.396,629.952,739.396z
	 M629.952,664.354H391.246c-7.844,0-14.187-6.375-14.187-14.188c0-7.875,6.343-14.188,14.187-14.188h238.706
	c7.833,0,14.167,6.313,14.167,14.188C644.119,657.979,637.785,664.354,629.952,664.354z M463.839,541.625l53.062-28.416
	c0.166,0.146,0.219,0.333,0.364,0.458l32.167,26.896C517.817,541.625,489.036,541.959,463.839,541.625z M590.952,538.75
	l-18.396-15.854l-28.749-24.042l114.79-61.438c6.896-3.708,9.521-12.313,5.812-19.208c-3.707-6.959-12.353-9.5-19.228-5.813
	L441.704,521.25c-6.917,3.729-9.52,12.313-5.823,19.25c0.115,0.229,0.365,0.271,0.49,0.5
	c-85.417-2.771-126.655-11.916-126.655-11.916c-19.042,0-34.5-15.479-34.5-34.521V282.75c0-19.041,15.458-34.458,34.5-34.458
	c0,0,141.957-36.917,401.787,0c19,0,34.542,15.417,34.542,34.458v211.813c0,19.042-15.542,34.521-34.542,34.521
	C666.618,533.771,628.057,536.75,590.952,538.75z M726.212,738.834c-15.417,0-27.917-12.542-27.917-27.896
	c0-15.416,12.5-27.916,27.917-27.916c15.333,0,27.833,12.5,27.833,27.916C754.045,726.292,741.545,738.834,726.212,738.834z"/>
</svg>
