<?xml version="1.0" encoding="utf-8"?>
<!-- Generator: Adobe Illustrator 16.0.0, SVG Export Plug-In . SVG Version: 6.00 Build 0)  -->
<!DOCTYPE svg PUBLIC "-//W3C//DTD SVG 1.1//EN" "http://www.w3.org/Graphics/SVG/1.1/DTD/svg11.dtd">
<svg version="1.1" id="Layer_1" xmlns="http://www.w3.org/2000/svg" xmlns:xlink="http://www.w3.org/1999/xlink" x="0px" y="0px"
	 width="1024px" height="1024px" viewBox="0 0 1024 1024" enable-background="new 0 0 1024 1024" xml:space="preserve">
<g>
	<path fill="#414042" d="M291.476,475.042v195.833c0,25.292,20.49,45.792,45.854,45.792h24.813c9.625,0,13.292-1.958,16.823-4.083
		l-11.053-216.042l-68.875-46.583C292.163,457.959,291.476,463.667,291.476,475.042z"/>
	<path fill="#414042" d="M799.627,696h-17.375c-17.749,0-32.124,14.375-32.124,32.084V800l-25.708-28.291
		c-2.5-2.709-6.042-4.292-9.75-4.292h-90.947l6.063-50.083c0.084-0.5-0.146-1-0.146-1.542h5.875l11.583-254.583H376.84
		l11.614,254.583h5.771c0,0.333-0.156,0.583-0.125,0.917l3.563,50.708h-77.624c-3.104,0-6.104,1.125-8.458,3.125l-37.75,31.792
		v-74.25c0-17.709-14.354-32.084-32.052-32.084h-17.385c-17.771,0-32.136,14.375-32.136,32.084v137.125
		c0,17.75,14.365,32.083,32.136,32.083h17.385c17.697,0,32.052-14.333,32.052-32.083v-32.584c3,0,6-1,8.458-3.083l42.553-35.875
		h74.665l0.469,6.5c0.479,6.875,6.198,12.208,13.104,12.208h193.603c6.646,0,12.229-4.958,13.041-11.541l0.854-7.167h88.301
		l31.542,34.667c2.583,2.875,6.125,4.208,9.708,4.208v32.667c0,17.75,14.375,32.083,32.124,32.083h17.375
		c17.667,0,32.084-14.333,32.084-32.083V728.084C831.711,710.375,817.294,696,799.627,696z M597.785,658.375
		c0,11.792-9.563,21.334-21.313,21.334c-11.79,0-21.374-9.542-21.374-21.334c0-11.75,9.584-21.333,21.374-21.333
		C588.223,637.042,597.785,646.625,597.785,658.375z M434.36,513.917c0-7.25,5.875-13.125,13.125-13.125h128.988
		c7.25,0,13.125,5.875,13.125,13.125v78.375c0,7.25-5.875,13.125-13.125,13.125H447.485c-7.25,0-13.125-5.875-13.125-13.125V513.917
		z M447.485,637.042c11.771,0,21.364,9.583,21.364,21.333c0,11.792-9.594,21.334-21.364,21.334
		c-11.739,0-21.301-9.542-21.301-21.334C426.184,646.625,435.746,637.042,447.485,637.042z M597.307,767.417H423.996l-2.719-38.5
		h180.654L597.307,767.417z"/>
	<polygon fill="#414042" points="657.932,477.417 723.17,432.584 768.544,432.042 768.544,393.042 677.722,393.042 622.682,409.959 
		657.557,447.042 	"/>
	<polygon fill="#414042" points="367.913,480.25 367.153,449.959 402.975,411.834 344.069,393.042 253.216,393.042 253.216,432.042 
		298.632,432.584 	"/>
	<path fill="#414042" d="M644.265,713.375l5.917,2.417c10.125,0.958,3,0.875,12.687,0.875h24.76c25.334,0,45.875-20.5,45.875-45.792
		V475.042c0-10.542-3.541-20.25-9.541-28l-67.28,48L644.265,713.375z"/>
	<path fill="#414042" d="M373.58,150.573l38.885,27.375v36.083c-11.031,3.438-18.261,11.146-18.261,20.896v39.656
		c0,9.75,7.229,17.458,18.261,20.875v121.083c0,0.458,0.197,0.875,0.25,1.333l-29.229,32.084h261.779l-56.625-56.917h-62.582
		v-27.083c26.916-2.042,51.582-10.25,51.582-28.5c0-27.667-54.707-29.084-65.687-29.084c-10.948,0-65.645,1.417-65.645,29.084
		c0,21.833,33.75,27.25,53.489,28.625v26.958h-61.083V295.5c11.01-3.416,18.239-11.166,18.239-20.916v-39.656
		c0-9.75-7.229-17.479-18.239-20.896v-42.875c0-4.291-2.073-8.291-5.562-10.75l-44.438-31.271
		c-5.927-4.167-14.104-2.813-18.312,3.146C366.247,138.198,367.663,146.406,373.58,150.573z M483.516,337.459
		c14.083-3.167,42.854-3.125,56.917,0C526.37,340.625,497.599,340.625,483.516,337.459z"/>
	<rect x="503.984" y="527.042" fill="#414042" width="16.386" height="52.125"/>
	<rect x="460.621" y="527.042" fill="#414042" width="17.104" height="52.125"/>
	<rect x="546.641" y="527.042" fill="#414042" width="16.708" height="52.125"/>
</g>
</svg>
