<?xml version="1.0" encoding="utf-8"?>
<!-- Generator: Adobe Illustrator 16.0.0, SVG Export Plug-In . SVG Version: 6.00 Build 0)  -->
<!DOCTYPE svg PUBLIC "-//W3C//DTD SVG 1.1//EN" "http://www.w3.org/Graphics/SVG/1.1/DTD/svg11.dtd">
<svg version="1.1" id="Layer_1" xmlns="http://www.w3.org/2000/svg" xmlns:xlink="http://www.w3.org/1999/xlink" x="0px" y="0px"
	 width="1024px" height="1024px" viewBox="0 0 1024 1024" enable-background="new 0 0 1024 1024" xml:space="preserve">
<g>
	<path fill-rule="evenodd" clip-rule="evenodd" fill="#414042" d="M226.914,403.042v-82.458c0-13.959-8.771-25.271-19.447-25.271
		h-26.781c-10.698,0-19.417,11.313-19.417,25.271v82.458c0,13.958,8.719,25.354,19.417,25.354h26.781
		C218.144,428.396,226.914,417,226.914,403.042z"/>
	<path fill-rule="evenodd" clip-rule="evenodd" fill="#414042" d="M843.336,295.313h-26.792c-10.75,0-19.458,11.313-19.458,25.271
		v82.458c0,13.958,8.708,25.354,19.458,25.354h26.792c10.625,0,19.375-11.396,19.375-25.354v-82.458
		C862.711,306.625,853.961,295.313,843.336,295.313z"/>
	<path fill-rule="evenodd" clip-rule="evenodd" fill="#414042" d="M781.294,734.417h-267.08h-5.396H241.726l-19.259-20.167
		c0,0-24.563,74.25,14.083,91.709h61.958c-1.031,1.938-1.771,4.063-1.771,6.416v56.188c0,14.979,12.208,27.188,27.188,27.188h48.781
		c14.979,0,27.176-12.208,27.176-27.188v-56.188c0-2.354-0.739-4.479-1.771-6.416h108.176h10.459h112.499
		c-1.021,1.938-1.75,4.063-1.75,6.416v56.188c0,14.979,12.146,27.188,27.083,27.188h48.843c15,0,27.167-12.208,27.167-27.188
		v-56.188c0-2.354-0.75-4.479-1.792-6.416h57.707c33.125-16.292,14.084-91.709,14.084-91.709L781.294,734.417z"/>
	<path fill-rule="evenodd" clip-rule="evenodd" fill="#414042" d="M510.516,221.729c112.374,0,260.321,2.917,260.321,2.917v-86.813
		c0,0-110.072-9.584-262.561-9.584h-2.99c-152.467,0-259.581,9.584-259.581,9.584v86.813c0,0,147.967-2.917,260.341-2.917H510.516z"
		/>
	<path fill-rule="evenodd" clip-rule="evenodd" fill="#414042" d="M734.837,239.854H285.872c-26.312,0-33.99,21.042-37.479,35.938
		l-21.479,187.729v236.458c0,18.667,15.468,33.833,34.479,33.833h501.194c19.04,0,34.499-15.166,34.499-33.833l-0.125-236.458
		l-25.499-187.729C768.128,260.896,759.712,239.854,734.837,239.854z M547.411,326.521c0-10.042,8.146-18.188,18.166-18.188h133.468
		c10.083,0,18.25,8.146,18.25,18.188l18.125,112.875c0,10.041-8.125,18.166-18.125,18.166H565.577
		c-10.02,0-18.166-8.125-18.166-18.166V326.521z M308.694,326.521c0-10.042,8.115-18.188,18.167-18.188h133.509
		c10.021,0,18.166,8.146,18.166,18.188v112.875c0,10.041-8.146,18.166-18.166,18.166H308.694c-10.104,0-18.219-8.125-18.219-18.166
		L308.694,326.521z M362.267,665.771c0,7.708-6.239,13.938-13.938,13.938h-45.812c-7.708,0-13.948-6.229-13.948-13.938v-31.063
		c0-7.709,6.24-13.959,13.948-13.959h45.812c7.698,0,13.938,6.25,13.938,13.959V665.771z M353.392,554.729h-55.968
		c-7.708,0-13.948-6.229-13.948-13.938s6.24-13.958,13.948-13.958h55.968c7.708,0,13.938,6.25,13.938,13.958
		S361.1,554.729,353.392,554.729z M597.16,685.625H425.943c-7.708,0-13.947-6.229-13.947-13.938c0-7.708,6.239-13.958,13.947-13.958
		H597.16c7.709,0,13.917,6.25,13.917,13.958C611.077,679.396,604.869,685.625,597.16,685.625z M597.16,620.188H425.943
		c-7.708,0-13.947-6.25-13.947-13.958s6.239-13.938,13.947-13.938H597.16c7.709,0,13.917,6.229,13.917,13.938
		S604.869,620.188,597.16,620.188z M597.16,554.729H425.943c-7.708,0-13.947-6.229-13.947-13.938s6.239-13.958,13.947-13.958H597.16
		c7.709,0,13.917,6.25,13.917,13.958S604.869,554.729,597.16,554.729z M735.962,665.771c0,7.708-6.25,13.938-13.959,13.938h-45.822
		c-7.709,0-13.937-6.229-13.937-13.938v-31.063c0-7.709,6.228-13.959,13.937-13.959h45.822c7.709,0,13.959,6.25,13.959,13.959
		V665.771z M727.045,554.729h-55.927c-7.709,0-13.958-6.229-13.958-13.938s6.249-13.958,13.958-13.958h55.927
		c7.708,0,13.958,6.25,13.958,13.958S734.753,554.729,727.045,554.729z"/>
</g>
</svg>
