<?xml version="1.0" encoding="utf-8"?>
<!-- Generator: Adobe Illustrator 16.0.0, SVG Export Plug-In . SVG Version: 6.00 Build 0)  -->
<!DOCTYPE svg PUBLIC "-//W3C//DTD SVG 1.1//EN" "http://www.w3.org/Graphics/SVG/1.1/DTD/svg11.dtd">
<svg version="1.1" id="Layer_1" xmlns="http://www.w3.org/2000/svg" xmlns:xlink="http://www.w3.org/1999/xlink" x="0px" y="0px"
	 width="1024px" height="1024px" viewBox="0 0 1024 1024" enable-background="new 0 0 1024 1024" xml:space="preserve">
<g>
	<path fill="#414042" d="M845.711,163.969h-48.417c-12.167,0-21.667,10.5-21.667,23.959v65.166c0,1.334,0.459,2.479,0.625,3.74
		l-21.332,33.541l-19.875-101.906c-10.125-50.083-53.75-57.313-53.75-57.313c-62.843-13.833-166.581-13.729-166.581-13.729h-3.209
		c0,0-104.196-0.104-166.477,13.729c0,0-45.583,9.771-53.76,57.313l-20.323,103.906l-23.291-35.666
		c0.188-1.219,0.666-2.323,0.666-3.615v-65.166c0-13.25-9.75-24.042-21.759-24.042h-48.396c-11.979,0-21.719,10.792-21.646,25.625
		l7.625,63.583c0,13.198,9.75,23.948,21.729,23.948h40.688c0.583,0,1.094-0.292,1.646-0.375l35.25,54.083l-0.927,4.625
		c0,0-13.396,46.709-5.928,96.917l27.115,187.917c0,0,2.979,92.375,100.374,99.833c-1.479-30.625,1.697-57.583,9.938-80.208
		c-0.104-1.125-0.344-2.209-0.156-3.375l32.614-205.042c1.063-6.625,6.739-11.5,13.437-11.5H566.39
		c6.563,0,12.188,4.667,13.396,11.125l37.25,202.458c14.375,33.417,15.459,68.625,14.854,86.792
		c101.03-2.708,110.655-100.083,110.655-100.083l27.167-187.917c7.457-50.208-6-96.917-6-96.917l-1.209-6.166l33.333-52.459
		c0.5,0.042,0.958,0.292,1.458,0.292h40.75c12,0,21.75-10.75,21.625-22.344l7.833-66.771
		C867.502,174.469,857.919,163.969,845.711,163.969z M328.236,462.542h-11.073c-10.625,0-19.26-8.625-19.26-19.25
		S306.538,424,317.163,424h11.073c10.625,0,19.26,8.667,19.26,19.292S338.861,462.542,328.236,462.542z M514.422,379.917h-0.739
		l-169.645,4.167c-32.822,1.083-17.978-45.542-17.978-45.542l19.176-96.011c8.469-55.083,46.614-57.188,46.614-57.188
		s47.698-8.5,121.833-6.375h0.739c74.113-2.125,121.863,6.375,121.863,6.375s38.083,2.104,46.552,57.188l19.208,96.011
		c0,0,14.875,46.625-18,45.542L514.422,379.917z M706.962,462.542H695.92c-10.625,0-19.302-8.625-19.302-19.25
		S685.295,424,695.92,424h11.042c10.625,0,19.291,8.667,19.291,19.292S717.587,462.542,706.962,462.542z"/>
	<path fill="#414042" d="M580.285,584.125l-25.207-137H451.527L429.11,588.042c34.792-30.25,76.072-30.542,78.988-30.583
		C537.12,560,561.161,568.959,580.285,584.125z M472.808,511.542c0-17.583,14.312-31.917,31.926-31.917
		c17.604,0,31.927,14.334,31.927,31.917c0,17.625-14.322,31.958-31.927,31.958C487.12,543.5,472.808,529.167,472.808,511.542z"/>
	<path fill="#414042" d="M506.724,584.584c0.479,0.083-39.228,0.291-67.145,30.666c-23,25.042-32.375,63.625-27.812,114.75
		c0.052,0.625-0.188,1.209-0.208,1.792c7.938,5.042,19.177,10.917,33.301,15.625c-0.896,1.792-1.542,3.792-1.542,6v91.625
		c0,33.917,27.604,61.542,61.542,61.542c33.989,0,61.593-27.625,61.593-61.542v-91.625c0-3-1.166-5.625-2.791-7.875
		c12.833-4,26.249-9.167,40.437-16.083c0.188-1.834,7.125-68.584-27.166-110.625C560.599,598.792,536.953,587.25,506.724,584.584z"
		/>
</g>
</svg>
