<?xml version="1.0" encoding="utf-8"?>
<!-- Generator: Adobe Illustrator 16.0.0, SVG Export Plug-In . SVG Version: 6.00 Build 0)  -->
<!DOCTYPE svg PUBLIC "-//W3C//DTD SVG 1.1//EN" "http://www.w3.org/Graphics/SVG/1.1/DTD/svg11.dtd">
<svg version="1.1" id="Layer_1" xmlns="http://www.w3.org/2000/svg" xmlns:xlink="http://www.w3.org/1999/xlink" x="0px" y="0px"
	 width="1024px" height="1024px" viewBox="0 0 1024 1024" enable-background="new 0 0 1024 1024" xml:space="preserve">
<path fill="#414042" d="M931.335,308.959l-67.208,7.938c-5.916,0-10.666,3.75-10.666,8.375v37.021l-42.417,26.854
	c-1.125,0.688-1.875,1.688-2.708,2.583L729.045,274.5c0,0-19.5-29.771-73.322-34.396l-144.27-4.583l-144.217,4.583
	c-53.854,4.625-73.343,34.396-73.343,34.396L216.55,391.354l-46-27.563v-38.521c0-4.625-4.781-8.375-10.708-8.375l-67.177-7.938
	c-5.875,0-10.688,3.729-10.688,8.313V372c0,4.625,4.813,8.417,10.688,8.417h52.042l-0.979,1.646l44.583,26.709l-5.521,3.25
	c0,0-42.864,18.771-53.999,55.438c-11,36.313-6.364,90.333-5.969,126.875c0,0,6.25,70.583,49.917,96.854v80.479
	c0,9.292,7.51,16.813,16.812,16.813h70.375c9.271,0,16.844-7.521,16.844-16.813v-70.583l-1.239-0.167h235.748h0.375h231.977v70.75
	c0,9.292,7.459,16.813,16.75,16.813h70.416c9.25,0,16.833-7.521,16.833-16.813v-79.208c45.833-25.042,52.499-98.125,52.499-98.125
	c0.375-36.542,5-90.563-6-126.875c-9.708-31.938-43.415-50.271-52.04-54.479l-7-4.167l42.54-26.916c0.625-0.396,1-1.021,1.542-1.479
	h52.167c5.875,0,10.666-3.792,10.666-8.417v-54.729C942.001,312.688,937.21,308.959,931.335,308.959z M234.31,537.063
	c-19.146,0-34.718-15.563-34.718-34.688c0-19.104,15.572-34.666,34.718-34.666c19.114,0,34.656,15.563,34.656,34.666
	C268.966,521.5,253.424,537.063,234.31,537.063z M675.764,584.688c0,0-6.896,42.979-44.749,51.584H511.276h-2.365H389.11
	c-37.823-8.604-44.676-51.584-44.676-51.584l-0.136-0.604h331.59L675.764,584.688z M682.67,554.604H337.497l-12-52.229h183.414
	h2.365H694.67L682.67,554.604z M714.795,397.063l-2.833,3.188c-2.834,3.167-6.834,4.959-11.042,4.959
	c-0.583,0-1.167-0.021-1.792-0.125c-62.613-7.709-127.071-11.625-191.539-11.625c-91.593,0-157.02,7.813-180.904,11.146
	c-4.875,0.625-9.761-1.125-13.042-4.813l-3.719-4.167c-4.604-5.166-4.979-12.813-0.948-18.416l29.302-40.625
	c36.072-49.271,76.343-49.854,78.041-49.854h190.363c3.541-0.625,44.208-4.729,77.363,47.375l31.75,44.625
	C719.753,384.334,719.337,391.938,714.795,397.063z M792.086,537.063c-19.125,0-34.666-15.563-34.666-34.688
	c0-19.104,15.541-34.666,34.666-34.666s34.666,15.563,34.666,34.666C826.752,521.5,811.211,537.063,792.086,537.063z"/>
</svg>
