<?xml version="1.0" encoding="utf-8"?>
<!-- Generator: Adobe Illustrator 16.0.0, SVG Export Plug-In . SVG Version: 6.00 Build 0)  -->
<!DOCTYPE svg PUBLIC "-//W3C//DTD SVG 1.1//EN" "http://www.w3.org/Graphics/SVG/1.1/DTD/svg11.dtd">
<svg version="1.1" id="Layer_1" xmlns="http://www.w3.org/2000/svg" xmlns:xlink="http://www.w3.org/1999/xlink" x="0px" y="0px"
	 width="1024px" height="1024px" viewBox="0 0 1024 1024" enable-background="new 0 0 1024 1024" xml:space="preserve">
<g>
	<path fill-rule="evenodd" clip-rule="evenodd" fill="#414042" d="M844.044,421.021l-53.208,6.313c-4.709,0-8.5,2.958-8.5,6.625v24
		c-1.167,0.25-2.375,0.625-3.459,1.291l-0.666,0.417v-0.438V265.063c0-18.938-15.291-34.271-34.291-34.271H280.049
		c-18.917,0-34.25,15.333-34.25,34.271v194.604l-0.667-0.417c-1.083-0.666-2.291-1.063-3.479-1.313v-23.979
		c0-3.667-3.771-6.625-8.459-6.625l-53.187-6.313c-4.645,0-8.478,2.979-8.478,6.604v43.334c0,3.646,3.833,6.625,8.478,6.625h53.187
		c0.292,0,0.542-0.084,0.813-0.125l22.875,14.416l-5.521,3.271c0,0-33.958,14.854-42.77,43.896
		c-8.709,28.729-5.042,71.542-4.709,100.438c0,0,4.959,55.875,39.5,76.688v63.729c0,7.354,5.959,13.313,13.313,13.313h55.75
		c7.334,0,13.313-5.959,13.313-13.313v-56.021h185.665h0.313h183.644v56.021c0,7.354,5.917,13.313,13.292,13.313h55.708
		c7.374,0,13.333-5.959,13.333-13.313v-62.729c36.333-19.813,41.583-77.688,41.583-77.688c0.292-28.896,3.958-71.708-4.75-100.438
		c-7.667-25.313-34.375-39.792-41.167-43.125l-6.499-3.875l23.124-14.583c0.292,0.021,0.542,0.125,0.834,0.125h53.208
		c4.625,0,8.417-2.979,8.417-6.625v-43.334C852.461,424,848.669,421.021,844.044,421.021z M292.132,593.125
		c-14.583,0-26.458-11.875-26.458-26.458s11.875-26.458,26.458-26.458c14.584,0,26.438,11.875,26.438,26.458
		S306.716,593.125,292.132,593.125z M652.077,634.229c-0.125,0.979-6.854,40.542-43.5,48.854l-1.167,0.25l-195.07-0.25
		c-36.562-8.334-43.292-47.875-43.562-49.542l-0.729-3.167h284.924L652.077,634.229z M657.807,609.271
		c-0.396-0.063-0.75-0.229-1.167-0.229H363.153L350.965,556h319.069L657.807,609.271z M671.784,500.167l-2.25,2.521
		c-2.02,2.271-4.916,3.563-7.937,3.563c-0.438,0-0.875-0.041-1.313-0.083c-49.604-6.125-100.687-9.208-151.801-9.208
		c-72.52,0-124.395,6.166-143.332,8.791c-3.479,0.5-7.042-0.791-9.417-3.416l-2.938-3.292c-2.042-2.25-3-5.292-2.667-8.292
		l3.625-32.416c4.334-34.938,43.042-44.125,62.917-44.125l170.904,0.229c0.104-0.041,4.396-0.396,10.521-0.396
		c39.292,0,63.792,13.167,68.958,37.042l7.291,40.083C674.931,494.396,673.993,497.729,671.784,500.167z M660.785,359.042
		l-149.196-3.625l-149.208,3.625c-54.478-3.625-58.041,27.208-58.041,27.208l-26.833,93.396L276.904,480
		c-0.667-0.75-1.334-1.541-2.229-2.125l-10.458-6.583L292.132,381c0,0,4.125-13.833,10.792-21.25h-4.667L297.591,275
		c0,0,140.749-10.125,214.706-9.333c78.572,0.875,143.113,3.125,213.623,9.667l-0.333,84.416h-7.625
		c0,0,14.333,8.875,39.541,112.959l-8.208,5.166c-0.792,0.5-1.333,1.188-1.917,1.834l-28.541-93.459
		C718.837,386.25,710.42,355.417,660.785,359.042z M733.753,593.125c-14.583,0-26.458-11.875-26.458-26.458
		s11.875-26.458,26.458-26.458c14.584,0,26.459,11.875,26.459,26.458S748.337,593.125,733.753,593.125z"/>
	<path fill-rule="evenodd" clip-rule="evenodd" fill="#414042" d="M711.92,285.125c0,0-83.718-6.771-199.644-6.771h-2.271
		c-115.895,0-197.331,6.771-197.331,6.771v61.396c0,0,112.479-2.084,197.894-2.084h3.417c85.426,0,197.936,2.084,197.936,2.084
		V285.125z"/>
</g>
</svg>
