<?xml version="1.0" encoding="utf-8"?>
<!-- Generator: Adobe Illustrator 16.0.0, SVG Export Plug-In . SVG Version: 6.00 Build 0)  -->
<!DOCTYPE svg PUBLIC "-//W3C//DTD SVG 1.1//EN" "http://www.w3.org/Graphics/SVG/1.1/DTD/svg11.dtd">
<svg version="1.1" id="Layer_1" xmlns="http://www.w3.org/2000/svg" xmlns:xlink="http://www.w3.org/1999/xlink" x="0px" y="0px"
	 width="1024px" height="1024px" viewBox="0 0 1024 1024" enable-background="new 0 0 1024 1024" xml:space="preserve">
<g>
	<polygon fill="#414042" points="511.995,631.625 307.538,602.5 291.83,667.167 506.12,734.042 732.128,664.834 716.378,602.5 	"/>
	<path fill="#414042" d="M372.33,741.292c-5.167-2.875-11.667-0.958-14.5,4.208l-59.667,108.792
		c-2.833,5.167-0.916,11.625,4.25,14.458c1.625,0.917,3.375,1.334,5.125,1.334c3.75,0,7.417-2,9.334-5.542l59.666-108.792
		C379.372,750.584,377.497,744.125,372.33,741.292z"/>
	<path fill="#414042" d="M666.452,745.459c-2.834-5.167-9.375-6.959-14.5-4.125c-5.125,2.833-7,9.333-4.125,14.5l60.551,108.75
		c1.959,3.5,5.584,5.5,9.334,5.5c1.75,0,3.541-0.459,5.166-1.375c5.167-2.834,7-9.334,4.125-14.5L666.452,745.459z"/>
	<path fill="#414042" d="M526.536,604.875c-1.083,4.75-5.208,8.125-10.041,8.292c-0.125,0-0.25,0-0.375,0
		c-4.667,0-8.834-3.083-10.209-7.583c-50.666-168.834-204.331-164.959-205.831-165c0,0-1.792-0.292-9.083-0.292l16.625,147.333
		l204.373,28.459l204.342-28.459l16.708-147.333c-6.708-1.042-9.333-1.042-9.333-1.042
		C566.495,439.25,528.078,598.125,526.536,604.875z M376.163,555.417c-11,0-19.916-8.958-19.916-19.917
		c0-10.958,8.916-19.875,19.916-19.875c10.958,0,19.917,8.917,19.917,19.875C396.079,546.459,387.121,555.417,376.163,555.417z
		 M647.91,555.417c-11,0-19.916-8.958-19.916-19.917c0-10.958,8.916-19.875,19.916-19.875c10.959,0,19.917,8.917,19.917,19.875
		C667.827,546.459,658.869,555.417,647.91,555.417z"/>
	<path fill="#414042" d="M716.378,254.803c-7.25-38.542-49.969-48.042-49.969-48.042c-37.04-7.833-71.29-11.75-107.081-13.375
		c-3.917-22.375-23.333-39.458-46.792-39.458c-23.625,0-43.125,17.313-46.875,39.896c-68.833,3.667-112.082,12.938-112.082,12.938
		c-38.5,9.021-43.583,48.042-43.583,48.042l-25.959,124.614l4.459,39.542l10.791,0.291c1.542,0.084,152.916-3.791,216.582,150.584
		C536.703,518,593.785,417.917,723.712,417.917c0,0,10.166,0.167,11.875,0.125l4.375-38.625L716.378,254.803z M480.287,369.209
		c0,9.75-7.916,17.625-17.625,17.625h-99.999c-9.75,0-17.625-7.875-17.625-17.625l12.834-75.042
		c3.833-14.708,10.25-17.583,30.375-17.583h74.416c9.709,0,17.625,7.875,17.625,17.583V369.209z M512.495,223.969
		c-14.459,0-26.167-10.958-26.167-24.5c0-13.541,11.708-24.5,26.167-24.5c14.458,0,26.166,10.959,26.166,24.5
		C538.661,213.011,526.953,223.969,512.495,223.969z M662.16,387.167H561.536c-9.833,0-17.708-7.917-17.708-17.667v-75.541
		c0-9.792,7.875-17.75,17.708-17.75h74.916c20.208,0,26.666,2.916,30.582,17.75l12.834,75.541
		C679.868,379.25,671.951,387.167,662.16,387.167z"/>
</g>
</svg>
