<?xml version="1.0" encoding="utf-8"?>
<!-- Generator: Adobe Illustrator 16.0.0, SVG Export Plug-In . SVG Version: 6.00 Build 0)  -->
<!DOCTYPE svg PUBLIC "-//W3C//DTD SVG 1.1//EN" "http://www.w3.org/Graphics/SVG/1.1/DTD/svg11.dtd">
<svg version="1.1" id="Layer_1" xmlns="http://www.w3.org/2000/svg" xmlns:xlink="http://www.w3.org/1999/xlink" x="0px" y="0px"
	 width="1024px" height="1024px" viewBox="0 0 1024 1024" enable-background="new 0 0 1024 1024" xml:space="preserve">
<g>
	<path fill="#414042" d="M366.923,683.75c-5.167-2.833-11.625-0.958-14.5,4.209l-68.729,125.021
		c-2.833,5.167-0.938,11.646,4.209,14.5c1.646,0.896,3.396,1.313,5.146,1.313c3.75,0,7.396-2,9.354-5.521l68.728-125.021
		C373.965,693.084,372.069,686.604,366.923,683.75z"/>
	<path fill="#414042" d="M671.118,687.938c-2.854-5.166-9.312-6.979-14.499-4.166c-5.146,2.854-7.021,9.333-4.167,14.5
		l69.176,125.021c1.917,3.521,5.584,5.5,9.334,5.5c1.75,0,3.5-0.438,5.166-1.333c5.125-2.854,7-9.334,4.167-14.5L671.118,687.938z"
		/>
	<path fill="#414042" d="M324.569,679.25h9.646h357.329h7.875c25.625,0,46.333-20.75,46.333-46.333L699.42,241.542
		c0-25.583-20.719-46.333-46.301-46.333H370.881c-25.583,0-46.312,20.75-46.312,46.333l-46.333,391.375
		C278.237,658.5,298.986,679.25,324.569,679.25z M682.337,612.167c0,11.583-9.448,21.021-21.03,21.021h-22.209
		c-11.583,0-21.021-9.438-21.021-21.021s9.438-21.021,21.021-21.021h22.209C672.889,591.146,682.337,600.584,682.337,612.167z
		 M489.839,227.959h44.333c17.281,0,31.343,14.063,31.343,31.354c0,17.292-14.062,31.354-31.343,31.354h-44.333
		c-17.271,0-31.333-14.063-31.333-31.354C458.505,242.021,472.568,227.959,489.839,227.959z M379.423,353.417
		c0-14.625,11.854-26.479,26.479-26.479H617.66c14.625,0,26.479,11.854,26.479,26.479l17.646,167.646
		c0,14.604-11.854,26.459-26.458,26.459H388.256c-14.625,0-26.478-11.854-26.478-26.459L379.423,353.417z M362.653,591.146h22.208
		c11.604,0,21.042,9.438,21.042,21.021s-9.438,21.021-21.042,21.021h-22.208c-11.584,0-21-9.438-21-21.021
		S351.069,591.146,362.653,591.146z"/>
	<path fill="#414042" d="M489.839,269.334h44.333c5.531,0,10.011-4.5,10.011-10.021c0-5.521-4.479-10.021-10.011-10.021h-44.333
		c-5.521,0-10,4.5-10,10.021C479.839,264.834,484.318,269.334,489.839,269.334z"/>
</g>
</svg>
