<?xml version="1.0" encoding="utf-8"?>
<!-- Generator: Adobe Illustrator 16.0.0, SVG Export Plug-In . SVG Version: 6.00 Build 0)  -->
<!DOCTYPE svg PUBLIC "-//W3C//DTD SVG 1.1//EN" "http://www.w3.org/Graphics/SVG/1.1/DTD/svg11.dtd">
<svg version="1.1" id="Layer_1" xmlns="http://www.w3.org/2000/svg" xmlns:xlink="http://www.w3.org/1999/xlink" x="0px" y="0px"
	 width="1024px" height="1024px" viewBox="0 0 1024 1024" enable-background="new 0 0 1024 1024" xml:space="preserve">
<g>
	<path fill="#414042" d="M501.161,328.604c0,0.167,0.073,0.208,0.073,0.375l-27.25,0.667c0,0-59.531-0.875-66.375,65.063
		l216.509,0.041c-7.834-65.979-66.166-65.104-66.166-65.104l-30.417-0.729c0.011-0.104,0.063-0.208,0.063-0.313v-47.396
		l12.146-0.396l388.881,64.479l-3.791-135.625l-397.236,41.563v-15.75c0-7.333-5.906-13.229-13.219-13.229
		c-7.302,0-13.219,5.896-13.219,13.229v18.479l-1.646,0.146L110.04,143.417L95.374,295.521l405.787-13.438V328.604z"/>
	<path fill="#414042" d="M797.669,854.146h-26.125c-7.832-8.104-27.374-29.313-48.874-61.188
		c-9.583-14.188-22.333-24.25-35.625-31.584c214.165-42.916,59.042-283.188,59.042-283.188l-9.875-12.354
		c-43.834-55.854-96.093-55.584-96.093-55.584H517.942h-3.958H391.829c0,0-52.229-0.271-96.062,55.584l-9.917,12.354
		c0,0-143.738,236.917,56,282.313c-13.812,7.375-27.166,17.75-37.125,32.459c-21.541,31.875-41.062,53.083-48.884,61.188h-26.125
		c-7.313,0-13.219,5.896-13.219,13.229c0,7.271,5.906,13.209,13.219,13.209h31.603c3.386,0,6.646-1.292,9.104-3.667
		c1.073-0.979,26.656-25.458,56.198-69.125c24.833-36.708,82.363-38.771,82.926-38.771c1.708-0.063,3.292-0.479,4.761-1.084
		c1.063,0,1.989,0.104,3.063,0.104l195.623-0.063c0.041,0,0.104,0,0.166,0c1.459,0.563,3,0.979,4.667,1.042
		c0.563,0,57.957,1.854,82.926,38.708c29.5,43.729,55.125,68.208,56.209,69.25c2.458,2.313,5.708,3.604,9.082,3.604h31.625
		c7.292,0,13.208-5.938,13.208-13.209C810.877,860.042,804.961,854.146,797.669,854.146z M506.067,483.5v108.479H382.996
		c-13.896,0-25.135-11.271-25.135-25.146l15.719-59.688c4.167-15.75,20.667-25.146,34.551-25.146h98.208
		C506.286,482.521,506.067,482.979,506.067,483.5z M654.89,591.979H532.505V483.5c0-0.521-0.219-0.979-0.271-1.5h92.01
		c18.875,0,29.875,10.959,35.333,24.334l17.812,61.021C681.087,582.521,668.784,591.979,654.89,591.979z"/>
</g>
</svg>
