<?xml version="1.0" encoding="utf-8"?>
<!-- Generator: Adobe Illustrator 16.0.0, SVG Export Plug-In . SVG Version: 6.00 Build 0)  -->
<!DOCTYPE svg PUBLIC "-//W3C//DTD SVG 1.1//EN" "http://www.w3.org/Graphics/SVG/1.1/DTD/svg11.dtd">
<svg version="1.1" id="Layer_1" xmlns="http://www.w3.org/2000/svg" xmlns:xlink="http://www.w3.org/1999/xlink" x="0px" y="0px"
	 width="1024px" height="1024px" viewBox="0 0 1024 1024" enable-background="new 0 0 1024 1024" xml:space="preserve">
<g>
	<path fill-rule="evenodd" clip-rule="evenodd" fill="#414042" d="M894.793,874.646l-7.917-4.709
		c-5.25-3.146-10.541-6.166-15.457-9.938c-5.167-3.979-10.042-8.333-15-12.666c-4.542-4.084-9.208-8.167-14.083-12.042
		c-13.042-10.146-27.042-15.854-41.5-16.854c-17.959-1.104-35.374,4.875-52.249,18.729c-5.25,4.292-10.209,8.854-15.209,13.458
		c-3.291,3.084-6.625,6.167-10.083,9.167c-15.167,13.333-30.542,21.875-46.906,26.104c-20.291,5.188-39.999,2.729-60.374-7.584
		c-13.542-6.688-25.042-16.333-34.458-24.854c-7.917-7.271-17.208-15.604-27.374-22.459c-24.469-16.438-51.604-16.688-76.396-0.583
		c-10.604,6.875-19.989,15.083-29.947,23.833c-19.062,16.938-35.573,26.417-53.479,30.771c-23.437,5.479-46.145,1.521-69.301-12.354
		c-10.261-6.125-19.292-14.25-28.854-22.771l-6.813-6.063c-7.094-6.292-14.708-11.834-22.583-16.438
		c-22.271-13.084-45.656-12.875-67.708,0.563c-9.229,5.708-17.729,12.104-25.27,19.104c-10.938,10.313-25.771,23.25-43.417,31.771
		c-6.656,3.25-9.447,11.25-6.228,17.896c3.239,6.708,11.239,9.542,17.895,6.229c20.938-10.084,37.781-24.75,50.062-36.313
		c6.188-5.771,13.239-11.104,20.948-15.813c13.438-8.209,26.572-8.271,40.156-0.313c6.406,3.729,12.563,8.229,18.416,13.396
		l6.688,5.979c10.073,9,20.5,18.313,32.937,25.75c29.052,17.416,59.104,22.5,89.333,15.438
		c22.135-5.396,42.781-17.063,65.801-37.479c8.729-7.646,16.969-14.854,25.948-20.729c15.906-10.354,31.219-10.146,46.854,0.375
		c8.625,5.813,16.709,13.021,24.291,20.042c10.208,9.208,24.042,20.833,40.5,29c17.167,8.688,34.542,13.021,52.042,13.021
		c8.999,0,17.999-1.146,26.988-3.458c20.583-5.333,39.5-15.75,57.875-31.854c3.667-3.146,7.167-6.458,10.667-9.688
		c4.583-4.25,9.125-8.479,13.957-12.416c11.542-9.459,22.375-13.604,33.458-12.709c9.167,0.625,17.959,4.292,26.75,11.146
		c4.459,3.563,8.667,7.271,12.917,11.041c5.417,4.813,10.833,9.625,16.5,13.875c5.708,4.396,11.875,8.104,18.125,11.771l7.374,4.396
		c6.25,3.917,14.542,2,18.458-4.292C903.001,886.854,901.085,878.584,894.793,874.646z"/>
	<path fill-rule="evenodd" clip-rule="evenodd" fill="#414042" d="M142.082,809.292c20.938-10.104,37.781-24.771,50.02-36.292
		c6.365-5.854,13.428-11.188,20.969-15.854c13.511-8.167,26.625-8.271,40.177-0.313c6.406,3.729,12.563,8.229,18.416,13.396
		l6.688,5.979c10.073,9,20.5,18.313,32.937,25.75c29.062,17.416,59.104,22.604,89.302,15.438c28.864-6.959,50.937-24.292,65.27-37
		c8.927-7.813,17.323-15.188,26.51-21.209c15.833-10.25,31.188-10.208,46.854,0.375c8.625,5.813,16.709,13.021,24.291,20.042
		c10.208,9.208,24.042,20.833,40.5,29c17.125,8.625,34.542,12.979,52.042,12.979c8.958,0,17.999-1.167,26.988-3.417
		c20.583-5.333,39.5-15.75,57.875-31.854c3.667-3.146,7.167-6.438,10.667-9.688c4.583-4.25,9.125-8.479,13.957-12.416
		c11.542-9.459,22-13.604,33.417-12.709c9.25,0.688,18.083,4.334,26.791,11.146c4.459,3.563,8.667,7.271,12.917,11.041
		c5.417,4.813,10.833,9.625,16.5,13.875c5.708,4.396,11.875,8.104,18.125,11.771l7.374,4.396c6.25,3.938,14.542,2,18.458-4.292
		c3.875-6.271,1.959-14.541-4.333-18.479l-7.917-4.709c-5.25-3.083-10.541-6.166-15.457-9.938c-5.167-3.979-10.042-8.313-15-12.666
		c-4.542-4.084-9.208-8.167-14.083-12.042c-13-10.104-26.917-15.75-41.5-16.854c-17.959-1.208-35.374,4.875-52.249,18.75
		c-5.25,4.292-10.209,8.834-15.209,13.438c-3.291,3.104-6.625,6.188-10.083,9.167c-15.167,13.354-30.542,21.875-46.906,26.104
		c-20.374,5.188-40.041,2.688-60.374-7.584c-13.542-6.688-25.042-16.333-34.458-24.854c-7.917-7.271-17.208-15.604-27.374-22.459
		c-24.5-16.438-51.656-16.688-76.448-0.563c-10.792,7.063-20.333,15.438-29.864,23.813c-19.25,17-35.75,26.479-53.51,30.771
		c-23.437,5.5-46.145,1.521-69.301-12.354c-10.261-6.125-19.292-14.229-28.854-22.771l-6.813-6.063
		c-7.094-6.292-14.708-11.834-22.583-16.438c-22.219-13.042-45.615-12.834-67.708,0.563c-9.063,5.604-17.531,12-25.27,19.104
		c-10.938,10.313-25.771,23.25-43.417,31.771c-6.656,3.25-9.447,11.271-6.228,17.896
		C127.426,809.75,135.425,812.584,142.082,809.292z"/>
	<path fill-rule="evenodd" clip-rule="evenodd" fill="#414042" d="M324.028,713.396h-0.042
		c22.948,12.291,47.281,16.813,73.479,10.563c22.927-5.479,41.822-18.313,59.27-33.75c9.073-7.959,18.229-16.021,28.333-22.604
		c20.354-13.25,41.448-13.083,61.656,0.479c9.167,6.166,17.584,13.646,25.791,21.188c11.583,10.458,23.625,20.104,37.542,27
		c22.166,11.208,45.375,14.708,69.665,8.541c6.74-1.791,13.156-4.083,19.323-6.958l-0.042-0.063
		c1.834-83.75,66.791-163.354,66.791-163.354c13.958-14.063,9.042-34.375-9.791-40.666c-17.166-5.75-34.333-11.563-51.541-17.063
		c-3.667-1.146-4.667-2.813-4.667-6.479c0.167-48.771,0.042-97.5,0.042-146.292c0-1.666,0-3.396,0-5.604
		c-15.917,0-31.322,0-47.072,0c0-15.792,0-71.542,0-87.334c-31.458,0-140.426,0-171.78,0c0-1.896,0-3.354,0-4.833
		c0-21.5,0.052-91.542-0.052-113.104c0-11.979-6.49-20.354-18.021-23.646c-0.489-0.104-0.916-0.479-1.385-0.729
		c-18.313,0-7.167,0-25.51,0c-15.677,4.917-19.969,15.063-19.604,29.25c0.573,20.042,0.156,88.563,0.156,108.646
		c0,1.375,0,2.833,0,4.563c-31.563,0-13.969,0-45.426,0c0,15.75,0,71.541,0,87.458c-15.938,0-31.354,0-47.051,0
		c0,2.104,0,3.708,0,5.292c0,48.875-0.053,97.771,0.104,146.646c0,3.604-1.177,5.021-4.563,6.125
		c-17.094,5.542-34.114,11.292-51.187,16.958c-19.646,6.479-24.396,26.646-9.708,41.292
		C258.737,554.917,320.31,620.292,324.028,713.396z M626.223,481.854c-1.375-0.417-2.5-0.625-3.625-1
		c-32.375-10.833-64.749-21.667-97.176-32.396v-45l100.801,0.041C626.223,429.771,626.223,455.625,626.223,481.854z
		 M438.922,317.563H585.14c7.417,0,13.375,5.979,13.375,13.396c0,7.375-5.958,13.396-13.375,13.396H438.922
		c-7.406,0-13.406-6.021-13.406-13.396C425.517,323.542,431.517,317.563,438.922,317.563z M397.725,403.396l100.896,0.063v45
		c-32.437,10.729-64.896,21.563-97.333,32.396c-1.072,0.375-2.197,0.583-3.563,0.938
		C397.725,455.584,397.725,429.667,397.725,403.396z"/>
</g>
</svg>
