<?xml version="1.0" encoding="utf-8"?>
<!-- Generator: Adobe Illustrator 16.0.0, SVG Export Plug-In . SVG Version: 6.00 Build 0)  -->
<!DOCTYPE svg PUBLIC "-//W3C//DTD SVG 1.1//EN" "http://www.w3.org/Graphics/SVG/1.1/DTD/svg11.dtd">
<svg version="1.1" id="Layer_1" xmlns="http://www.w3.org/2000/svg" xmlns:xlink="http://www.w3.org/1999/xlink" x="0px" y="0px"
	 width="1024px" height="1024px" viewBox="0 0 1024 1024" enable-background="new 0 0 1024 1024" xml:space="preserve">
<g>
	<path fill="#414042" d="M666.431,777.313h-70.646c-8.063,0-14.583,6.521-14.583,14.584s6.521,14.583,14.583,14.583h70.646
		c8.041,0,14.572-6.521,14.572-14.583S674.472,777.313,666.431,777.313z"/>
	<path fill="#414042" d="M433.059,725.792h-70.593c-8.063,0-14.584,6.521-14.584,14.583s6.521,14.584,14.584,14.584h70.593
		c8.062,0,14.593-6.521,14.593-14.584S441.121,725.792,433.059,725.792z"/>
	<path fill="#414042" d="M794.502,123.959l-95.874,0.25c-27.739,5.416-31.801,41.25-32.031,44.208
		c-8.062,47.833-58.082,79.417-59.02,80c-11.167,7.5-47.604,33.833-47.812,58.271c-1.438,3.854-14.708,10.25-32.573,13.75v-53.291
		l-0.031-0.063c1.771-0.625,3.625-1.084,5.188-1.875l29.041-12.584c2.334-1.541,13.958-10.083,15.875-24.541
		c0.854-6.292,0.063-15.875-8.542-25.834c-15.874-18.375-48.28-19.813-57.821-19.813c-11.709,0-40.677,1.938-58.343,21.667
		c-0.823,1.354-7.969,13.479-4.011,27.563c1.833,6.458,6.719,15.542,19.563,22.042l21.281,10.813
		c0.886,0.479,4.073,2.021,8.636,3.354v52.688c-18.865-3.521-32.365-9.979-33.74-13.646c-0.188-24.667-36.676-51-48.333-58.792
		c-0.489-0.313-50.437-31.563-58.417-78.563c-0.375-4.104-4.406-39.938-34.895-45.604h-93.145c-8.063,0-14.584,6.521-14.584,14.583
		s6.521,14.583,14.584,14.583l90.353-0.25c3.803,0.729,7.834,11.188,8.771,20.375c10.301,61.042,69.52,98.167,71.571,99.417
		c17.365,11.625,34.323,28.417,34.917,34.479c0.229,29.271,40.75,39.479,62.916,42.896v72.5
		c-43.385,1.729-79.552,40.125-79.552,85.729v169.063c0,8.083,6.531,14.583,14.584,14.583c8.062,0,14.593-6.5,14.593-14.583V508.271
		c0-30.313,24.906-56.875,53.333-56.875h26.864c28.417,0,53.354,26.563,53.354,56.875v167.833c0,8.063,6.521,14.583,14.583,14.583
		s14.584-6.521,14.584-14.583V508.271c0-46.646-37.813-86.063-82.521-86.063h-0.656v-72.292
		c21.511-3.417,61.489-13.667,61.697-42.667c0.583-6.083,17.583-22.916,34.458-34.291c2.521-1.542,61.697-38.667,72.155-100.729
		c0.792-8.146,4.875-18.625,5.917-19.104h93.082c8.042,0,14.584-6.521,14.584-14.583S802.544,123.959,794.502,123.959z"/>
	<path fill="#414042" d="M514.141,497.771c-12.438,0-22.646,7.458-22.646,16.646v368.958c0,9.188,10.208,16.667,22.646,16.667
		c12.479,0,22.625-7.479,22.625-16.667V514.417C536.766,505.229,526.62,497.771,514.141,497.771z"/>
</g>
</svg>
