<?xml version="1.0" encoding="utf-8"?>
<!-- Generator: Adobe Illustrator 16.0.0, SVG Export Plug-In . SVG Version: 6.00 Build 0)  -->
<!DOCTYPE svg PUBLIC "-//W3C//DTD SVG 1.1//EN" "http://www.w3.org/Graphics/SVG/1.1/DTD/svg11.dtd">
<svg version="1.1" id="Layer_1" xmlns="http://www.w3.org/2000/svg" xmlns:xlink="http://www.w3.org/1999/xlink" x="0px" y="0px"
	 width="1024px" height="1024px" viewBox="0 0 1024 1024" enable-background="new 0 0 1024 1024" xml:space="preserve">
<g>
	<path fill="#414042" d="M521.442,677.209c-6.372,0.731-12.712,1.302-19,1.431c-0.876,0.018-1.751,0.027-2.625,0.027
		c-5.969,0-31.093-2.875-31.093-2.875c-5.031-0.833-10.177-1.708-14.5-2.792v62.709l-0.063,126.708
		c0,26.583,21.625,48.167,48.187,48.167c26.604,0,48.229-21.584,48.229-48.167V735.709h0.146v-63.584
		c-0.083,0.042-0.166,0.042-0.25,0.084C540.703,674.542,531.058,676.084,521.442,677.209z"/>
	<path fill="#414042" d="M459.599,275.709c0,0,8.615-2.5,36.042-5.25c0,0,26.854-1.25,51.5,2.25l13,3
		c-5-55.406,88.979-52.094,88.979-52.094v-52.021l-65.063-9.666c0,0-16.354-49.104-72.405-48.479h-3.584
		c-56.009-0.625-72.395,48.479-72.395,48.479l-65.051,9.666v52.021C370.622,223.615,464.662,220.303,459.599,275.709z
		 M511.317,151.198c23.865,0,43.303,19.458,43.303,43.354c0,23.916-19.438,43.375-43.303,43.375
		c-23.927,0-43.416-19.459-43.416-43.375C467.902,170.656,487.391,151.198,511.317,151.198z"/>
	<path fill="#414042" d="M366.622,200.469v-3.104c-1.053-7.479-7.594-13.334-15.136-12.604l-68.02,4.188
		c-8.042,0.479-14.135,7.396-13.646,15.417c0.479,7.729,6.875,13.688,14.531,13.688c0.281,0,0.594,0,0.886-0.042l68.01-4.167
		C360.59,213.386,366.017,207.553,366.622,200.469z"/>
	<path fill="#414042" d="M736.545,188.948l-68.03-4.188c-7.875-0.771-14.917,5.646-15.417,13.667
		c-0.479,8.021,5.604,14.938,13.667,15.416l67.988,4.167c0.292,0.042,0.625,0.042,0.875,0.042c7.667,0,14.084-5.959,14.542-13.688
		C750.67,196.344,744.587,189.428,736.545,188.948z"/>
	<path fill="#414042" d="M503.547,529.167c0.052,0.042-23.52,0.667-41.562,20.958c-16.636,18.75-23.583,48.209-20.646,87.75
		c9.5,4.292,29.896,11.667,58.478,11.667c22.073,0,44.99-4.333,68.197-12.833c1.583-17.459,2.875-59.292-17.707-85.25
		C539.474,537.792,524.192,530.5,503.547,529.167z"/>
	<path fill="#414042" d="M512.651,275.709h-2.792c0,0-45.968,2.958-73.562,8.458c0.489,1.708,0.771,3.417,0.604,5.292
		c-0.063,0.625-5.323,66.125,25.541,99.75c10.979,11.958,25.115,18.375,43.125,19.458c18.094-1.083,32.448-7.542,43.761-19.583
		c31.749-33.75,28.02-99.334,27.979-99.959c-0.125-2.291,0.354-4.416,1.166-6.375C550.766,278.125,512.651,275.709,512.651,275.709z
		"/>
	<path fill="#414042" d="M606.557,291.292c0.458,16.583-0.334,79.667-35.896,117.667c-14.312,15.25-32.228,24.541-53.426,27.75
		c-1.823,0.791-3.844,1.25-5.948,1.25H499.88c-2.104,0-4.125-0.459-5.947-1.25c-21.218-3.209-39.031-12.542-53.052-27.875
		c-31.77-34.75-33.968-90.375-33.458-112.459c-17.489,11.375-39.135,33.459-43.52,75.834c0,0-18.886,139.791-10.094,239.25
		c0,0,2.333,101.583,71.281,120.833v-69.958c-3.156-1.584-5.084-2.75-5.375-2.959c-3.75-2.375-6.198-6.333-6.656-10.791
		c-5.406-52.209,3.896-92.042,27.625-118.334c26.906-29.833,62.322-30.166,63.801-30.166c29.938,1.916,52.739,13.125,68.738,33.333
		c34.375,43.583,23.042,113.167,22.542,116.125c-0.833,4.958-4.208,9.125-8.875,11.042c-2.333,0.958-4.667,1.666-7.042,2.541v69.792
		c82.209-17.583,88.874-121.458,88.874-121.458c8.813-99.459-10.082-239.25-10.082-239.25
		C653.494,322.375,624.598,300.417,606.557,291.292z"/>
</g>
</svg>
