<?xml version="1.0" encoding="utf-8"?>
<!-- Generator: Adobe Illustrator 16.0.0, SVG Export Plug-In . SVG Version: 6.00 Build 0)  -->
<!DOCTYPE svg PUBLIC "-//W3C//DTD SVG 1.1//EN" "http://www.w3.org/Graphics/SVG/1.1/DTD/svg11.dtd">
<svg version="1.1" id="Layer_1" xmlns="http://www.w3.org/2000/svg" xmlns:xlink="http://www.w3.org/1999/xlink" x="0px" y="0px"
	 width="1024px" height="1024px" viewBox="0 0 1024 1024" enable-background="new 0 0 1024 1024" xml:space="preserve">
<g>
	<path fill="#414042" d="M729.42,563.396c-34.75,0-62.948,28.146-62.948,62.938c0,34.75,28.198,62.896,62.948,62.896
		s62.957-28.146,62.957-62.896C792.377,591.542,764.17,563.396,729.42,563.396z"/>
	<path fill="#414042" d="M310.716,565.209c-33.75,0-61.125,27.333-61.125,61.125c0,33.75,27.375,61.083,61.125,61.083
		s61.125-27.333,61.125-61.083C371.84,592.542,344.465,565.209,310.716,565.209z"/>
	<path fill="#414042" d="M939.001,334.813H121.03c-12.209-0.854-23.063,18.813-23.063,18.813
		c-1.563,0.959-27.979,145.292-27.979,145.292v111.875c0,14.833,8.292,12.667,16.583,12.667l142.916,0.083
		c1.5-43.708,37.187-78.688,81.229-78.688c44.041,0,79.707,35,81.207,78.708l257.175,0.021c1.5-43.229,36.78-77.834,80.322-77.834
		c43.541,0,78.832,34.625,80.332,77.834l129.249-0.125c8.292,0,15-6.709,15-15V349.813
		C954.001,341.542,947.293,334.813,939.001,334.813z M202.758,497.375h-85.29l13.291-91h72.104L202.758,497.375z M353.361,497.604
		h-98.604v-93.313h98.604V497.604z M459.797,497.604h-85.104v-93.313h85.104V497.604z M566.183,497.604H481.13v-93.313h85.052
		V497.604z M672.597,497.604h-85.082v-93.313h85.082V497.604z M779.252,497.604H693.92v-93.313h85.332V497.604z M899.21,497.604
		h-98.624v-93.313h98.624V497.604z"/>
</g>
</svg>
