<?xml version="1.0" encoding="utf-8"?>
<!-- Generator: Adobe Illustrator 16.0.0, SVG Export Plug-In . SVG Version: 6.00 Build 0)  -->
<!DOCTYPE svg PUBLIC "-//W3C//DTD SVG 1.1//EN" "http://www.w3.org/Graphics/SVG/1.1/DTD/svg11.dtd">
<svg version="1.1" id="Layer_1" xmlns="http://www.w3.org/2000/svg" xmlns:xlink="http://www.w3.org/1999/xlink" x="0px" y="0px"
	 width="1024px" height="1024px" viewBox="0 0 1024 1024" enable-background="new 0 0 1024 1024" xml:space="preserve">
<g>
	<path fill="#414042" d="M632.577,592.625c-92.666,0-167.916,75.209-167.916,167.917S539.911,928.5,632.577,928.5
		c92.801,0,167.884-75.25,167.884-167.958S725.378,592.625,632.577,592.625z M632.827,828.709c-37.75,0-68.375-30.584-68.375-68.375
		c0-37.75,30.625-68.334,68.375-68.334c37.749,0,68.343,30.584,68.343,68.334C701.17,798.125,670.576,828.709,632.827,828.709z"/>
	<path fill="#414042" d="M197.998,728.917c-55.125,0-99.791,44.667-99.791,99.792c0,55.083,44.667,99.791,99.791,99.791
		c55.083,0,99.749-44.708,99.749-99.791C297.747,773.584,253.081,728.917,197.998,728.917z M197.998,858.292
		c-16.375,0-29.625-13.25-29.625-29.625s13.25-29.5,29.625-29.5c16.333,0,29.583,13.125,29.583,29.5
		S214.331,858.292,197.998,858.292z"/>
	<path fill="#414042" d="M596.66,543.084c0,5.875,4.792,10.666,10.667,10.666h128.218c5.875,0,10.667-4.791,10.667-10.666v-162.5
		c0-5.917-4.792-10.667-10.667-10.667c-5.917,0-10.667,4.75-10.667,10.667v151.833H607.327
		C601.452,532.417,596.66,537.167,596.66,543.084z"/>
	<path fill="#414042" d="M446.204,756.375v-77.083l95.125-102.833H741.42l86.749,94.875c3.958,4.375,10.75,4.625,15.083,0.708
		c4.334-4,4.667-10.75,0.667-15.083l-89.916-98.375c-2.041-2.209-4.875-3.459-7.875-3.459H588.327l-0.25-32.166
		c0-3.959-0.917-7.709-2.417-11.125l36.334-28.292c2.416,1.125,4.833,2.208,7.458,3.083c6.25,2.084,12.625,3.125,18.958,3.125
		c18.542,0,33.593-9.25,38.302-23.541c6.541-19.875-8.344-42.084-33.885-50.5c-24.625-8.167-50.958,1.25-57.292,20.416
		c-3.833,11.75-0.125,24.209,8.709,34.209l-34.459,26.791c-2.958-1.083-6.083-1.916-9.457-1.916h-15.25v-128.75
		c8.542-4.834,14.333-15.167,14.333-27.5v-80.375c0-12.344-5.791-22.678-14.333-27.49v-64.188l70.166-52.166
		c4.708-3.521,5.708-10.209,2.208-14.917c-3.583-4.75-10.292-5.708-14.917-2.208l-74.457,55.354
		c-2.708,2.021-4.333,5.188-4.333,8.563v69.5c-8.542,4.792-14.375,15.167-14.375,27.553v80.375c0,12.375,5.833,22.75,14.375,27.541
		v128.709H130.415c-15.333,0-27.75,12.416-27.75,27.75l7.5,59.458c0.75-0.167,1.459-0.458,2.25-0.458h389.08
		c1.666,0,3.208,0.458,4.625,1.166l-18.667,20.167H112.79l7.5,59.458c2.375-1.416,5-2.416,7.959-2.416
		c8.708,0,15.791,7.083,15.791,15.833S136.957,692,128.249,692c-1.542,0-2.959-0.5-4.375-0.875l5.625,44.375
		c19.208-14.166,42.833-22.583,68.5-22.583c36.416,0,68.875,16.875,90.082,43.208c-0.583,1.334-1,2.834-1,4.417
		c0,5.875,4.792,10.667,10.667,10.667h137.957c5.917,0,10.667-4.792,10.667-10.667c0-1.5-0.292-2.917-0.834-4.167H446.204z
		 M615.785,442.834c1.75-5.334,9.042-8.875,18.084-8.875c4.041,0,8.166,0.666,12.291,2c14.917,4.958,22.667,16.375,20.292,23.583
		c-2.168,6.625-13.333,9.833-24.875,7.833c2.292-3.666,2.208-8.5-0.583-12.125c-3.667-4.625-10.375-5.5-14.959-1.833l-4.75,3.667
		C616.66,452.25,614.452,446.875,615.785,442.834z"/>
	<path fill="#414042" d="M895.501,692h-86.707c7.833,20.042,12.292,41.667,12.792,64.375h73.915c16.75,0,30.292-9.458,30.292-21.166
		v-22.084C925.793,701.459,912.251,692,895.501,692z"/>
</g>
</svg>
