<?xml version="1.0" encoding="utf-8"?>
<!-- Generator: Adobe Illustrator 16.0.0, SVG Export Plug-In . SVG Version: 6.00 Build 0)  -->
<!DOCTYPE svg PUBLIC "-//W3C//DTD SVG 1.1//EN" "http://www.w3.org/Graphics/SVG/1.1/DTD/svg11.dtd">
<svg version="1.1" id="Layer_1" xmlns="http://www.w3.org/2000/svg" xmlns:xlink="http://www.w3.org/1999/xlink" x="0px" y="0px"
	 width="1024px" height="1024px" viewBox="0 0 1024 1024" enable-background="new 0 0 1024 1024" xml:space="preserve">
<g>
	<path fill="#414042" d="M308.319,617.584c-44.416,0-80.457,36-80.457,80.416c0,44.459,36.042,80.459,80.457,80.459
		c44.417,0,80.458-36,80.458-80.459C388.777,653.584,352.736,617.584,308.319,617.584z"/>
	<path fill="#414042" d="M763.003,617.584c-44.416,0-80.458,36-80.458,80.416c0,44.459,36.042,80.459,80.458,80.459
		s80.458-36,80.458-80.459C843.461,653.584,807.419,617.584,763.003,617.584z"/>
	<path fill="#414042" d="M180.633,334.709L95.301,503.5v87c3.854-1.083,8.813-1.75,15.563-1.75c10.25,0,18,6.375,18,14.834v8.583
		c0,8.458-7.75,14.833-18,14.833c-6.667,0-11.646-0.5-15.563-1.333v48.5h119.895c10.667-41.667,48.125-72.583,93.124-72.583
		s82.458,30.916,93.124,72.583h42.75V313.375H201.967C195.654,313.375,185.883,320.792,180.633,334.709z M262.987,395.334H363.84
		c11.771,0,21.333,9.541,21.333,21.333v68H198.987l25.792-67.542C234.987,395.334,251.195,395.334,262.987,395.334z"/>
	<path fill="#414042" d="M462.589,245.553l2.938,428.614h204.341c10.677-41.667,48.135-72.583,93.135-72.583
		c44.999,0,82.458,30.916,93.124,72.583h72.583V245.553H462.589z"/>
</g>
</svg>
