<?xml version="1.0" encoding="utf-8"?>
<!-- Generator: Adobe Illustrator 16.0.0, SVG Export Plug-In . SVG Version: 6.00 Build 0)  -->
<!DOCTYPE svg PUBLIC "-//W3C//DTD SVG 1.1//EN" "http://www.w3.org/Graphics/SVG/1.1/DTD/svg11.dtd">
<svg version="1.1" id="Layer_1" xmlns="http://www.w3.org/2000/svg" xmlns:xlink="http://www.w3.org/1999/xlink" x="0px" y="0px"
	 width="1024px" height="1024px" viewBox="0 0 1024 1024" enable-background="new 0 0 1024 1024" xml:space="preserve">
<g>
	<path fill="#414042" d="M732.878,634.292c-39.541,0-71.53,32.042-71.53,71.542c0,39.541,31.989,71.541,71.53,71.541
		c39.499,0,71.499-32,71.499-71.541C804.377,666.334,772.377,634.292,732.878,634.292z"/>
	<path fill="#414042" d="M911.085,607.5H402.318l-0.166,64.292h247.945l16.458-36.333c6.833-15.042,16.864-25.084,38.739-25.084
		h53.083c11.916,0.417,26.541,5.042,37.583,25.084l18.875,36.333h96.04c21.292,0.333,24.417,4.167,24.209-24.208l0.208-15.875
		C936.126,607.5,936.126,607.5,911.085,607.5z"/>
	<rect x="132.571" y="246.615" fill="#414042" width="252.665" height="60.01"/>
	<path fill="#414042" d="M365.194,322.292H140.405c-12.542,0-17.458,8.25-22.667,22.667L88.446,485.542v163.583
		c0,12.5,10.167,22.667,22.667,22.667h67.083l16.417-36.333c6.833-15.042,16.875-25.084,38.75-25.084h53.083
		c11.917,0.417,26.542,5.042,37.584,25.084l18.875,36.333h45.25l-0.292-326.833C387.86,332.417,377.694,322.292,365.194,322.292z
		 M198.404,478.792c0,10.083-8.167,18.25-18.25,18.25h-21.083c-15.125,0-21.958-5.542-18.25-18.25l14.125-95.708
		c3.875-11.084,8.209-18.25,18.25-18.25h6.958c10.083,0,18.25,8.166,18.25,18.25V478.792z M344.653,478.792
		c0,10.083-8.167,18.25-18.25,18.25H264.07c-10.083,0-18.25-8.167-18.25-18.25v-95.708c0-10.084,8.167-18.25,18.25-18.25h62.333
		c10.083,0,18.25,8.166,18.25,18.25V478.792z"/>
	<polygon fill="#414042" points="935.085,412.167 817.169,412.167 817.169,591.584 935.293,591.584 	"/>
	<rect x="679.472" y="412.167" fill="#414042" width="116.364" height="179.417"/>
	<rect x="541.808" y="412.167" fill="#414042" width="116.332" height="179.417"/>
	<polygon fill="#414042" points="520.484,412.167 402.152,412.167 402.11,591.584 520.484,591.584 	"/>
	<path fill="#414042" d="M258.945,634.292c-39.541,0-71.541,32.042-71.541,71.542c0,39.541,32,71.541,71.541,71.541
		c39.5,0,71.5-32,71.5-71.541C330.444,666.334,298.444,634.292,258.945,634.292z"/>
</g>
</svg>
