<?xml version="1.0" encoding="utf-8"?>
<!-- Generator: Adobe Illustrator 16.0.0, SVG Export Plug-In . SVG Version: 6.00 Build 0)  -->
<!DOCTYPE svg PUBLIC "-//W3C//DTD SVG 1.1//EN" "http://www.w3.org/Graphics/SVG/1.1/DTD/svg11.dtd">
<svg version="1.1" id="Layer_1" xmlns="http://www.w3.org/2000/svg" xmlns:xlink="http://www.w3.org/1999/xlink" x="0px" y="0px"
	 width="1024px" height="1024px" viewBox="0 0 1024 1024" enable-background="new 0 0 1024 1024" xml:space="preserve">
<g>
	<path fill="#414042" d="M87.988,610.667c20.583,0,34.958-9.042,34.958-22.042c0-12.958-14.375-22-34.958-22
		c-5.917,0-10.667,4.792-10.667,10.667V600C77.321,605.917,82.071,610.667,87.988,610.667z"/>
	<path fill="#414042" d="M798.211,683.084c-37.999,0-68.916,30.916-68.916,68.916s30.917,68.917,68.916,68.917
		c38,0,68.916-30.917,68.916-68.917S836.211,683.084,798.211,683.084z"/>
	<path fill="#414042" d="M979.625,656.834l-11.624-178.459L710.045,503.75c-0.375,0.042-0.708,0.042-1.083,0.042
		c-0.125,0-0.25-0.042-0.375-0.042c-0.125-0.041-0.209,0.042-0.375,0.042c0,0-0.042,0-0.084,0c-10.5,0-37.635,9.458-42.469,50.292
		l-17.749,141c-0.666,5.333-5.208,9.333-10.583,9.333h-93.082v-202.5h-36.386V272c0-1.833-0.583-3.5-1.417-5l208.645-13.739
		c5.916,0,10.666,4.781,10.666,10.656l-2.458,223.625L962.543,464L952.21,324.625c-6.334-111.989-120.541-117.052-221.29-121.531
		l-434.267,33.375c-8.875,0-21.896,0.209-34.333,5.396l-26.416-0.292c-3.375-0.042-5.333,1.646-6.375,4.25
		c-1.042,2.583-0.396,5.563,1.625,7.479l7.375,6.906c-2.563,2.916-5.25,6.166-8.083,9.666c-10.25,12-24.291,29.584-34.458,47.209
		c-29.75,48.416-60,114.166-67.166,179.458h1.646h184.624l3.771-170.958c-0.042-2.625-0.083-4.917-0.125-7.334l0.583-29
		c0-5.875,4.771-10.666,10.667-10.666l157.29-10.334c-0.417,1.167-0.75,2.417-0.75,3.75v269.917h-76.271v21.333h9.625
		c-2.104,1.959-3.458,4.667-3.458,7.792v133.375h-90.666c-5.896,0-10.666-4.792-10.666-10.667l-0.188-183.166H128.821
		c-0.166,5.375-0.125,18,0.083,23.333c1.396,34.875,9.291,63.625,20.875,87.167c-7.834-1.584-16.25-2.209-25.521-1.417
		c-34.354,2.75-62.353,17.708-78.895,42.167l-0.979,2.416c-0.208,1.25-2.021,12.25,4.709,20.334
		c2.833,3.416,8.291,7.458,18.188,7.458c3.375,0,7.125-0.458,11.166-1.375l1.979-0.833c0.208-0.125,19.625-12.209,43.938-12.209
		c5.25,0,10.292,0.625,15.167,1.75l-2.542,5.167c-4.542-0.958-9.229-1.458-14.042-1.458C84.926,683.084,53.989,714,53.989,752
		s30.937,68.917,68.958,68.917c38,0,68.916-30.917,68.916-68.917c0-25.625-14.187-47.708-34.958-59.625l2.208-4.541
		c6.208,3.875,12.167,8.5,17.625,14.625C177.3,703,190.32,715.959,207.654,725l9.271,4.834v-10.459
		c0-9.041-0.979-18.208-2.854-27.125c25.083,15.542,49.708,21.959,64.292,21.959l145.582,0.958c1,0.333,2.042,0.625,3.146,0.625
		c0.021,0,0.063,0,0.104,0l35.917-0.375l33.375,0.208c0.25,0.042,0.458,0.167,0.708,0.167s0.459-0.125,0.667-0.125L700.92,717
		l2.833-6.416c16.459-37.5,53.542-61.709,94.458-61.709c40.083,0,76.832,23.5,93.665,59.834l2.75,5.625l10.209,0.541
		c4.666,0.209,13.333,0.5,21.5,0.459c12.5,0,17-0.667,19.333-1.209C976.959,707.042,981.542,673.042,979.625,656.834z
		 M163.53,473.792c7.958-47.25,19.27-81.292,31.833-105.917c38.958-72.916,89.916-60.625,89.916-60.625l0.291,166.542H163.53z
		 M264.279,534.834c0,4.166-3.354,7.5-7.5,7.5h-25.875c-4.125,0-7.5-3.334-7.5-7.5v-6c0-4.167,3.375-7.5,7.5-7.5h25.875
		c4.146,0,7.5,3.333,7.5,7.5V534.834z"/>
	<path fill="#414042" d="M252.487,525.667c-3.417,0-6.167,2.792-6.167,6.167c0,3.416,2.75,6.166,6.167,6.166
		c3.396,0,6.167-2.75,6.167-6.166C258.654,528.459,255.882,525.667,252.487,525.667z"/>
</g>
</svg>
