<?xml version="1.0" encoding="utf-8"?>
<!-- Generator: Adobe Illustrator 16.0.0, SVG Export Plug-In . SVG Version: 6.00 Build 0)  -->
<!DOCTYPE svg PUBLIC "-//W3C//DTD SVG 1.1//EN" "http://www.w3.org/Graphics/SVG/1.1/DTD/svg11.dtd">
<svg version="1.1" id="Layer_1" xmlns="http://www.w3.org/2000/svg" xmlns:xlink="http://www.w3.org/1999/xlink" x="0px" y="0px"
	 width="1024px" height="1024px" viewBox="0 0 1024 1024" enable-background="new 0 0 1024 1024" xml:space="preserve">
<g>
	<path fill="#414042" d="M199.581,562.146c-36.479,0-66.02,29.563-66.02,66.021c0,36.5,29.541,66.042,66.02,66.042
		c36.448,0,66.031-29.542,66.031-66.042C265.612,591.709,236.029,562.146,199.581,562.146z"/>
	<path fill="#414042" d="M815.502,564.188c-36.5,0-66.04,29.563-66.04,66.021c0,36.5,29.54,66.041,66.04,66.041
		c36.417,0,65.999-29.541,65.999-66.041C881.501,593.75,851.919,564.188,815.502,564.188z"/>
	<path fill="#414042" d="M1013.709,542.209c-1.292,4.271-5.125,7.458-9.834,7.458h-22.958c-5.75,0-10.457-4.667-10.457-10.458
		c0-5.75,4.707-10.438,10.457-10.438h22.958c1.084,0,2.084,0.313,3.084,0.604c-2.25-6.396-4.334-15.396-5.5-27.875
		c-2.584,5.209-8.709,8.729-16.209,8.729c-10.083,0-17.624-6.25-17.624-14.521v-8.396c0-8.271,7.541-14.521,17.624-14.521
		c6.917,0,12.5,3.125,15.417,7.708c0-8.416,0.375-17.875,1.25-28.604l-118.166-16.313c0,0-83.124-107.834-309.882-107.834
		c-126.186,0-234.727,52.979-315.976,97.5c0,0-42.823,22.209-50.312,25.292c-16.906,6.958-48.083,18.979-72.042,23.542
		c0,0-96.405,15.666-116.863,60.083c0,0-0.677,1.25-1.573,3c0.24,0,0.448-0.125,0.698-0.125h31.333
		c5.792,0,10.448,4.667,10.448,10.438s-4.656,10.438-10.448,10.438H17.802c-2.739,0-5.208-1.125-7.063-2.833
		c-4.208,16.416-6,40.75,7.938,67.875l70.51,7.833h24.5l5.531-2.625c0-43.979,35.666-79.646,79.655-79.646
		c43.843,0,79.364,35.438,79.614,79.208l457.183-5.688l0.333-0.042c3.167-41.063,37.124-73.479,79.041-73.479
		c41.042,0,74.457,31.229,78.791,71.146c32.666-2.167,114.874-11.333,118.54-48.958l3.917-26.104
		C1016.292,544.604,1015.25,543.959,1013.709,542.209z M539.974,445.604c-0.208,0.854-0.125,1.688-0.125,2.521H289.361
		c0,0,130.697-78.416,270.321-82.354L539.974,445.604z M775.961,448.125H560.849l19.791-80.208c0.208-0.833,0.125-1.625,0.125-2.417
		c118.155,1,159.905,18.146,203.029,46.042L775.961,448.125z"/>
</g>
</svg>
