<?xml version="1.0" encoding="utf-8"?>
<!-- Generator: Adobe Illustrator 16.0.0, SVG Export Plug-In . SVG Version: 6.00 Build 0)  -->
<!DOCTYPE svg PUBLIC "-//W3C//DTD SVG 1.1//EN" "http://www.w3.org/Graphics/SVG/1.1/DTD/svg11.dtd">
<svg version="1.1" id="Layer_1" xmlns="http://www.w3.org/2000/svg" xmlns:xlink="http://www.w3.org/1999/xlink" x="0px" y="0px"
	 width="1024px" height="1024px" viewBox="0 0 1024 1024" enable-background="new 0 0 1024 1024" xml:space="preserve">
<g>
	<path fill="#414042" d="M210.436,620.188c-34.667,0-62.792,28.125-62.792,62.792c0,34.708,28.125,62.792,62.792,62.792
		c34.666,0,62.791-28.084,62.791-62.792C273.226,648.313,245.101,620.188,210.436,620.188z"/>
	<path fill="#414042" d="M727.253,619.688c-34.708,0-62.822,28.125-62.822,62.792c0,34.708,28.114,62.792,62.822,62.792
		c34.625,0,62.791-28.084,62.791-62.792C790.044,647.813,761.878,619.688,727.253,619.688z"/>
	<rect x="300.185" y="321.021" fill="#414042" width="166.79" height="59.791"/>
	<path fill="#414042" d="M922.21,278.229H504.224c-13.208,0-23.916,10.667-23.916,23.875v357.167
		c0,13.166,10.708,23.916,23.916,23.916h145.833c0-0.25-0.042-0.479-0.042-0.708c0-42.667,34.572-77.25,77.238-77.25
		c42.625,0,77.249,34.583,77.249,77.25c0,0.229-0.083,0.458-0.083,0.708H922.21c13.208,0,23.875-10.75,23.875-23.916V302.104
		C946.085,288.896,935.418,278.229,922.21,278.229z"/>
	<path fill="#414042" d="M317.643,391.646c-23.75,1.916-42.792,12.416-58.417,42.333l-43.5,99.083h-2.25h-104.04
		c-17.417,0-31.542,14.125-31.542,31.542v38.25c3-1.875,6.625-3.167,10.833-3.167c10.292,0,18,6.375,18,14.834v8.583
		c0,8.458-7.708,14.833-18,14.833c-4.208,0-7.833-1.291-10.833-3.166v17.375c0,17.416,14.125,31.541,31.542,31.541h23.833
		c0-0.229-0.083-0.458-0.083-0.708c0-42.625,34.625-77.25,77.25-77.25c42.666,0,77.249,34.625,77.249,77.25V683l177.707,0.688
		V391.896l-11.625-0.042L317.643,391.646z M402.767,533.063H283.06l20.416-51.291c10.125-19.375,21.209-32.125,41.542-32.125
		l57.75,1.75V533.063z"/>
</g>
</svg>
