<?xml version="1.0" encoding="utf-8"?>
<!-- Generator: Adobe Illustrator 16.0.0, SVG Export Plug-In . SVG Version: 6.00 Build 0)  -->
<!DOCTYPE svg PUBLIC "-//W3C//DTD SVG 1.1//EN" "http://www.w3.org/Graphics/SVG/1.1/DTD/svg11.dtd">
<svg version="1.1" id="Layer_1" xmlns="http://www.w3.org/2000/svg" xmlns:xlink="http://www.w3.org/1999/xlink" x="0px" y="0px"
	 width="1024px" height="1024px" viewBox="0 0 1024 1024" enable-background="new 0 0 1024 1024" xml:space="preserve">
<g>
	<path fill="#414042" d="M975.417,257.042c-243.497-202.948-470.068-1.719-472.318,0.292c-4.375,3.958-4.708,10.708-0.75,15.083
		c4,4.375,10.709,4.708,15.084,0.708c1.495-1.345,8.826-7.844,21.104-16.721V632h400.299V255.497
		c7.609,5.572,15.25,11.53,22.916,17.92c2,1.667,4.417,2.5,6.834,2.5c3.041,0,6.082-1.333,8.165-3.833
		C980.542,267.542,979.917,260.834,975.417,257.042z M725.92,432.834H613.952v-124H725.92V432.834z M859.211,432.834H747.253v-124
		h111.958V432.834z M555.08,245.115c65.79-42.405,209.403-106.773,368.949,0H555.08z"/>
	<path fill="#414042" d="M318.663,244.178l8.209,0.938l-1.084,83.094h42.667l-0.25-83.094l7.792-0.938
		c11.416,0,20.666-9.271,20.666-20.688c0-11.417-9.25-20.667-20.666-20.667h-57.333c-11.416,0-20.666,9.25-20.666,20.667
		C297.997,234.906,307.247,244.178,318.663,244.178z"/>
	<polygon fill="#414042" points="44.75,857.542 102.27,834.667 164.811,690.959 	"/>
	<polygon fill="#414042" points="194.144,798.167 200.623,662.5 134.519,821.875 	"/>
	<path fill="#414042" d="M929.335,642.667H223.039c-11.771,0-21.333,7.792-21.333,29.125v15.375
		c0,11.792,9.563,21.333,21.333,21.333h706.296c11.791,0,21.333-9.541,21.333-21.333v-15.375
		C950.668,642.667,941.126,642.667,929.335,642.667z"/>
	<path fill="#414042" d="M282.268,721.75c-32.708,0-59.229,26.5-59.229,59.209c0,32.708,26.521,59.208,59.229,59.208
		c32.708,0,59.208-26.5,59.208-59.208C341.475,748.25,314.976,721.75,282.268,721.75z"/>
	<path fill="#414042" d="M426.787,721.75c-32.708,0-59.228,26.5-59.228,59.209c0,32.708,26.52,59.208,59.228,59.208
		c32.708,0,59.229-26.5,59.229-59.208C486.016,748.25,459.496,721.75,426.787,721.75z"/>
	<rect x="416.517" y="340.042" fill="#414042" width="100.707" height="291.958"/>
	<rect x="294.435" y="340.042" fill="#414042" width="100.749" height="291.958"/>
	<path fill="#414042" d="M212.561,632h60.541V340.042h-60.541c-35.375,0-64.062,77.125-64.062,145.958
		C148.499,571.5,177.186,632,212.561,632z"/>
	<path fill="#414042" d="M525.099,723.875c-2.541,8.334-3.958,17.167-3.958,26.292c0,49.708,40.187,90,90.02,90
		c49.667,0,90.01-40.292,90.01-90c0-9.125-1.417-17.958-3.958-26.292H525.099z"/>
	<path fill="#414042" d="M753.253,723.875c-2.541,8.334-3.916,17.167-3.916,26.292c0,49.708,40.207,90,89.999,90
		c49.707,0,89.999-40.292,89.999-90c0-9.167-1.459-17.958-4-26.292H753.253z"/>
</g>
</svg>
