<?xml version="1.0" encoding="utf-8"?>
<!-- Generator: Adobe Illustrator 16.0.0, SVG Export Plug-In . SVG Version: 6.00 Build 0)  -->
<!DOCTYPE svg PUBLIC "-//W3C//DTD SVG 1.1//EN" "http://www.w3.org/Graphics/SVG/1.1/DTD/svg11.dtd">
<svg version="1.1" id="Layer_1" xmlns="http://www.w3.org/2000/svg" xmlns:xlink="http://www.w3.org/1999/xlink" x="0px" y="0px"
	 width="1024px" height="1024px" viewBox="0 0 1024 1024" enable-background="new 0 0 1024 1024" xml:space="preserve">
<g>
	<path fill="#414042" d="M355.934,399.729h-30.01c-27.25,0-49.301,21.667-50.187,48.729c24.292-5.354,50.062-8.104,74.738-9.084
		h108.499v-0.354c-5.031-22.479-25.114-39.292-49.134-39.292h-31.208v-30.125l331.414-54.208c6.208-1,10.375-6.854,9.375-13.042
		s-6.75-10.479-13.042-9.354l-327.747,53.604v-20.313c0-6.271-5.072-11.333-11.354-11.333c-6.271,0-11.344,5.063-11.344,11.333
		v19.979L39.093,292.979c-6.354-1.167-12.053,3.125-13.083,9.313c-1.041,6.188,3.125,12.042,9.312,13.083l320.612,53.938V399.729z"
		/>
	<path fill="#414042" d="M998.125,341.396c-0.416-6.229-5.791-10.979-12.083-10.563l-35.957,2.458l7.958-38.667
		c1.292-6.125-2.667-12.125-8.833-13.375c-6.084-1.396-12.125,2.709-13.417,8.813l-8.208,39.959
		c-0.375-0.229-0.625-0.625-1.084-0.834l-34.5-17.708c-5.5-2.792-12.416-0.604-15.25,4.938c-2.875,5.583-0.666,12.438,4.917,15.292
		l34.5,17.688c1.667,0.854,3.417,1.25,5.167,1.25c0.75,0,1.375-0.438,2.125-0.604l-3.834,18.542
		c-1.25,6.146,2.709,12.125,8.875,13.396c0.75,0.167,1.542,0.229,2.292,0.229c5.25,0,10-3.688,11.083-9.063l3.625-17.521
		c0.834,0.229,1.667,0.521,2.584,0.521c0.25,0,0.541,0,0.791-0.021l38.666-2.625C993.834,353.084,998.542,347.667,998.125,341.396z"
		/>
	<path fill="#414042" d="M827.836,445.063H350.475c-86.665,3.354-187.383,26.854-187.383,113.292
		c0,56.083,32.728,86.313,82.52,101.104c-0.458,1.708-0.656,3.458-0.261,5.291l12.042,55.563h-62.125l-40.104-32.708
		c-4.885-3.938-11.989-3.229-15.979,1.625c-3.948,4.875-3.219,12.021,1.635,15.979l43.229,35.271
		c2.021,1.625,4.552,2.542,7.167,2.542h314.299c6.281,0,11.354-5.084,11.354-11.354s-5.073-11.354-11.354-11.354h-91.843
		l12.875-62.271c71.28-25.375,126.822-81.458,126.822-128.208l249.299-26.021h62.083l78.916-115.833h-33.625L827.836,445.063z
		 M265.07,585.584h-84.989c-23.667-99.334,84.989-113.521,84.989-113.521V585.584z M390.475,720.313H280.632l-12.02-55.416
		c24.77,4.771,52.479,6.771,81.863,6.771c17.417,0,34.656-2.396,51.385-6.438L390.475,720.313z M407.371,606.229
		c0,16.146-13.063,29.167-29.167,29.167h-34c-16.114,0-29.156-13.021-29.156-29.167v-95.917c0-16.146,13.042-29.146,29.156-29.146
		h34c16.104,0,29.167,13,29.167,29.146V606.229z"/>
</g>
</svg>
