<?xml version="1.0" encoding="utf-8"?>
<!-- Generator: Adobe Illustrator 16.0.0, SVG Export Plug-In . SVG Version: 6.00 Build 0)  -->
<!DOCTYPE svg PUBLIC "-//W3C//DTD SVG 1.1//EN" "http://www.w3.org/Graphics/SVG/1.1/DTD/svg11.dtd">
<svg version="1.1" id="Layer_1" xmlns="http://www.w3.org/2000/svg" xmlns:xlink="http://www.w3.org/1999/xlink" x="0px" y="0px"
	 width="1024px" height="1024px" viewBox="0 0 1024 1024" enable-background="new 0 0 1024 1024" xml:space="preserve">
<g>
	<path fill="#414042" d="M1007.125,852.084c-3.375-1.834-6.791-3.625-10.208-5.375c-7.083-3.667-13.75-7.125-19.667-11.167
		c-6.624-4.417-12.832-9.292-19.082-14.125c-6.042-4.708-12.083-9.417-18.458-13.833c-17.25-11.917-35.667-18.542-54.917-19.75
		c-23.999-1.584-46.666,5.75-68.999,21.833c-6.833,4.917-13.333,10.167-19.792,15.458c-4.25,3.459-8.5,6.959-13.041,10.417
		c-19.124,14.792-38.499,24.333-59.249,29.042c-25.75,5.791-50.803,3.041-76.635-8.459c-17.438-7.625-32.521-18.875-43.604-27.75
		c-10.916-8.833-22.833-18.083-35.791-25.833c-32.416-19.292-68.354-19.542-101.03-0.667c-14.761,8.417-28.25,18.959-39.083,27.375
		c-24.177,18.875-45.103,29.459-67.75,34.292c-29.916,6.25-58.645,1.75-87.999-13.792c-12.989-6.833-24.563-15.958-36.802-25.583
		l-8.625-6.75c-9.323-7.292-19.344-13.708-29.75-19.083c-29.385-15.25-60.343-15.042-89.499,0.666
		c-12.281,6.625-23.479,14.084-33.301,22.209c-20.531,17.041-37.542,28-55.146,35.541c-10.822,4.625-15.844,17.167-11.197,28
		c4.625,10.834,17.177,15.917,28.009,11.209c27.594-11.834,49.531-28.625,65.552-41.875c7.656-6.334,16.521-12.25,26.322-17.542
		c16.593-9,32.812-9.083,49.656-0.333c8.083,4.166,15.843,9.166,23.167,14.875l8.417,6.583
		c13.208,10.417,26.864,21.167,43.27,29.833c37.948,20.084,77.167,26.084,116.76,17.792c28.968-6.208,56.031-19.667,85.155-42.375
		c10.271-8.042,21.906-17.125,34.062-24.042c19.646-11.291,38.604-11.208,57.979,0.334c10.063,6,19.584,13.25,30.874,22.416
		c13.229,10.584,31.229,23.959,53.125,33.542c22.417,9.958,45.187,14.958,68.03,14.958c11.75,0,23.5-1.291,35.25-3.916
		c26.959-6.167,51.833-18.25,75.874-36.875c4.75-3.625,9.375-7.375,14-11.167c5.792-4.708,11.542-9.458,17.667-13.833
		c14.292-10.292,27.291-14.709,41.541-13.917c11.458,0.708,22.333,4.75,33.208,12.25c5.667,3.917,11.083,8.167,16.542,12.417
		c7.083,5.5,14.125,10.958,21.458,15.833c7.875,5.375,16,9.583,23.874,13.667c3.125,1.625,6.25,3.25,9.333,4.916
		c10.375,5.709,23.292,1.875,28.959-8.458C1021.25,870.709,1017.459,857.75,1007.125,852.084z"/>
	<path fill="#414042" d="M35.478,787.667c27.406-11.708,49.437-28.5,65.583-41.833c7.656-6.334,16.521-12.25,26.322-17.542
		c16.593-8.958,32.812-9.083,49.656-0.333c8.042,4.166,15.823,9.125,23.135,14.833l8.198,6.417
		c13.281,10.5,27.02,21.333,43.541,30.041c38.052,20.084,77.312,26.125,116.739,17.792c29.103-6.25,56.176-19.708,85.571-42.75
		c11.344-8.75,22.053-17.042,33.646-23.667c4.67-2.685,9.301-4.718,13.909-6.115l25.459-1.129c6.185,1.344,12.376,3.864,18.61,7.578
		c10.792,6.416,21.146,14.541,30.958,22.5c13.333,10.625,31.438,24,53.041,33.458c22.417,9.958,45.187,14.958,68.03,14.958
		c11.75,0,23.5-1.291,35.25-3.916c26.959-6.167,51.833-18.25,75.833-36.834c4.875-3.708,9.583-7.541,14.333-11.416
		c5.667-4.667,11.333-9.292,17.375-13.625c14.333-10.292,27.541-14.792,41.624-13.917c11.375,0.708,22.208,4.708,33.125,12.25
		c5.667,3.917,11.083,8.167,16.542,12.417c7.083,5.5,14.125,10.958,21.5,15.875c7.833,5.333,15.958,9.541,23.832,13.625
		c3.125,1.625,6.25,3.25,9.333,4.916c10.375,5.709,23.292,1.875,28.959-8.458c5.666-10.333,1.875-23.292-8.459-28.958
		c-3.375-1.834-6.75-3.584-10.166-5.375c-7.084-3.667-13.792-7.167-19.709-11.167c-6.624-4.417-12.832-9.292-19.082-14.125
		c-6.042-4.708-12.083-9.417-18.458-13.833c-9.467-6.548-19.299-11.484-29.395-14.813l48.561-172.604
		c1.834-6.417,0.542-13.333-3.5-18.667c-4.041-5.333-10.333-8.458-17-8.458H60.687c-7.938,0-15.219,4.417-18.906,11.458
		c-3.678,7.042-3.146,15.542,1.385,22.042l111.434,160.54c-15.99-0.392-31.976,3.579-47.455,11.918
		c-12.281,6.625-23.479,14.084-33.281,22.209c-13.917,11.5-32.761,25.916-55.135,35.458c-10.833,4.625-15.875,17.167-11.25,28
		S24.646,792.292,35.478,787.667z M359.788,755.292c-29.759,6.25-58.531,1.75-87.968-13.792c-3.673-1.932-7.225-4.06-10.717-6.315
		l156.763-6.953C397.755,742.599,379.465,751.081,359.788,755.292z M782.961,727.292c-19.124,14.792-38.499,24.333-59.249,29.042
		c-25.75,5.791-50.803,3.041-76.635-8.459c-17.104-7.5-31.729-18.25-43.563-27.666c-0.081-0.066-0.166-0.134-0.247-0.2
		l199.836-8.863c-2.279,1.832-4.548,3.674-6.81,5.521C791.961,720.209,787.627,723.75,782.961,727.292z"/>
	<path fill="#414042" d="M849.252,400.292c0-11.792-9.583-21.333-21.333-21.333H247.768c-9.271,0-17.479,5.958-20.312,14.791
		l-14.719,48.667h636.515V400.292z"/>
	<path fill="#414042" d="M793.877,309.042c0-11.792-9.583-21.333-21.333-21.333h-87.707V133.178c0-5.375-2.5-10.542-6.865-14.167
		c-4.333-3.667-10.125-5.458-16.124-5.083l-105.312,7.333c-11.104,0.792-19.688,9.167-19.688,19.292v147.156H335.142
		c-9.562,0-17.948,6.375-20.542,15.583l-9.281,33h488.558V309.042z"/>
</g>
</svg>
