<?xml version="1.0" encoding="utf-8"?>
<!-- Generator: Adobe Illustrator 16.0.0, SVG Export Plug-In . SVG Version: 6.00 Build 0)  -->
<!DOCTYPE svg PUBLIC "-//W3C//DTD SVG 1.1//EN" "http://www.w3.org/Graphics/SVG/1.1/DTD/svg11.dtd">
<svg version="1.1" id="Layer_1" xmlns="http://www.w3.org/2000/svg" xmlns:xlink="http://www.w3.org/1999/xlink" x="0px" y="0px"
	 width="1024px" height="1024px" viewBox="0 0 1024 1024" enable-background="new 0 0 1024 1024" xml:space="preserve">
<path fill="#414042" d="M800.002,449.104c-31.833,0-61.499,9.125-86.832,24.667l-68.885-97.917
	c-0.041-0.063-0.125-0.083-0.166-0.125c-0.334-0.5-0.834-0.854-1.292-1.292l22.707-62.083c0.875-2.458,0.709-5-0.125-7.25h58.594
	c5.875,0,10.667-4.792,10.667-10.667c0-5.916-4.792-10.666-10.667-10.666H583.535c-5.916,0-10.666,4.75-10.666,10.666
	c0,5.875,4.75,10.667,10.666,10.667h61.917l-23.458,64.208l-268.352-37.333l9.417-22.646l45.353,22.688
	c1.542,0.75,3.167,1.125,4.771,1.125c3.916,0,7.688-2.167,9.563-5.896c2.625-5.271,0.5-11.688-4.792-14.313l-46.667-23.333
	c-2.288-5.167-1.788-9.917-0.85-14.104c0.375-1.813,2.526-4.963,2.938-5.625c4.5-7.25,10.625-6.75,15.684-6.708l52.728,17.854
	c5.521,1.916,11.625-1.104,13.5-6.688c1.896-5.563-1.083-11.625-6.666-13.521l-55.125-18.666c-1.417-0.459-2.875-0.667-4.334-0.521
	c-2.375,0.209-23.375,2.479-34.875,18.875c-5.75,8.188-7.729,18.146-6.291,29.5l-69.999,168.25c-16.959-5.833-35.084-9.146-54-9.146
	c-91.917,0-166.666,74.75-166.666,166.667c0,91.875,74.749,166.666,166.666,166.666c91.874,0,166.664-74.791,166.664-166.666
	c0-65.438-38-122.021-92.999-149.292l31.625-76.042l152.499,206.417c-12.791,12.833-20.708,30.5-20.708,50
	c0,39.083,31.833,70.875,70.917,70.875c0.083,0,0.208,0,0.333,0c0.833-0.021,4.042-0.167,8.375-0.75l6.708,23.75l-21.416,6.146
	c-5.667,1.625-8.959,7.521-7.334,13.188c1.334,4.688,5.625,7.729,10.25,7.729c0.959,0,1.959-0.146,2.959-0.417l31.625-9.063
	c5.624-1.625,8.915-7.5,7.332-13.166l-9.5-33.646c2.625-1.146,5.25-2.438,7.583-4.063l79.334-23.083
	c26.207,57.75,84.301,98.083,151.758,98.083c91.874,0,166.666-74.791,166.666-166.666
	C966.668,523.854,891.876,449.104,800.002,449.104z M369.33,615.771c0,80.125-65.208,145.333-145.332,145.333
	c-80.146,0-145.333-65.208-145.333-145.333c0-80.146,65.187-145.334,145.333-145.334c16,0,31.375,2.709,45.791,7.5l-55.645,133.729
	c-2.271,5.438,0.313,11.688,5.75,13.938c1.333,0.563,2.729,0.833,4.104,0.833c4.166,0,8.125-2.479,9.833-6.583l55.625-133.667
	C336.747,510.188,369.33,559.188,369.33,615.771z M707.92,503.417l57.333,81.479l-106.134-4.292
	C666.784,549.875,684.17,522.938,707.92,503.417z M533.578,696.25c-0.542,0.021-1.208,0.125-1.667,0.146
	c-2.041,0-3.958-0.354-5.916-0.584c-1.334-0.166-2.75-0.166-4.042-0.438c-1.917-0.396-3.667-1.104-5.5-1.708
	c-1.25-0.417-2.583-0.688-3.792-1.188c-1.583-0.667-3-1.604-4.458-2.417c-1.333-0.75-2.708-1.333-3.958-2.166
	c-1.167-0.792-2.125-1.792-3.209-2.667c-1.416-1.125-2.875-2.125-4.125-3.396c-0.833-0.854-1.5-1.875-2.291-2.771
	c-1.292-1.5-2.625-2.916-3.75-4.563c-0.75-1.146-1.292-2.438-1.959-3.646c-0.916-1.583-1.875-3.083-2.583-4.75
	c-0.708-1.604-1.083-3.333-1.583-5.021c-0.417-1.438-1-2.792-1.334-4.271c-0.625-3.229-1-6.563-1-9.958
	c0-12.438,4.792-23.688,12.375-32.396l27.417,37.146l12.583,44.521C534.37,696.146,533.995,696.229,533.578,696.25z
	 M533.245,612.188l-4.125-14.583c0.958-0.083,1.875-0.292,2.875-0.292c2.208,0,4.333,0.375,6.458,0.646L533.245,612.188z
	 M531.995,575.979c-3,0-5.834,0.5-8.709,0.875l-6.75-23.896l21.417-6.146c5.667-1.625,8.917-7.541,7.292-13.188
	c-1.625-5.646-7.459-8.938-13.167-7.313l-31.625,9.084c-5.667,1.604-8.917,7.5-7.333,13.125l9.583,33.958
	c-1.25,0.583-2.375,1.313-3.583,1.958L338.872,367.479l6.291-15.167l269.332,37.5l-68.041,186.25l-2.458-0.083H531.995z
	 M555.328,690.292l-12.167-43.021l15.375-42.104c13.791,8.813,22.999,24.146,22.999,41.688
	C581.535,665.688,570.827,681.896,555.328,690.292z M595.66,677.438c4.459-9.291,7.209-19.583,7.209-30.583
	c0-18.542-7.334-35.292-19-47.938l50.208,2.021c-0.458,4.896-0.75,9.834-0.75,14.834c0,16.896,2.542,33.208,7.25,48.583
	L595.66,677.438z M637.327,579.729l-68.5-2.75l65.25-178.542l61.593,87.542C666.659,509.334,645.66,542.167,637.327,579.729z
	 M654.66,615.771c0-4.709,0.25-9.375,0.709-13.959l125.3,5.042l9.792,13.917l-129.384,37.625
	C656.91,644.896,654.66,630.604,654.66,615.771z M800.002,761.104c-57.749,0-107.582-33.917-131.009-82.792l133.968-38.979
	c1.833-0.521,3.5-1.563,4.833-2.938c10.542-11.271,11.125-21.209,9.75-27.542c-3.125-14.583-18.417-21.292-20.125-22
	c-1.167-0.5-2.417-0.75-3.667-0.813l-1.666-0.063l-66.624-94.75c21.833-13.125,47.249-20.792,74.54-20.792
	c80.124,0,145.333,65.188,145.333,145.334C945.335,695.896,880.126,761.104,800.002,761.104z"/>
</svg>
