<?xml version="1.0" encoding="utf-8"?>
<!-- Generator: Adobe Illustrator 16.0.0, SVG Export Plug-In . SVG Version: 6.00 Build 0)  -->
<!DOCTYPE svg PUBLIC "-//W3C//DTD SVG 1.1//EN" "http://www.w3.org/Graphics/SVG/1.1/DTD/svg11.dtd">
<svg version="1.1" id="Layer_1" xmlns="http://www.w3.org/2000/svg" xmlns:xlink="http://www.w3.org/1999/xlink" x="0px" y="0px"
	 width="1024px" height="1024px" viewBox="0 0 1024 1024" enable-background="new 0 0 1024 1024" xml:space="preserve">
<g>
	<path fill="#414042" d="M974.251,690.625c-1.1-7.467-26.818-173.769-146.967-217.125h52.301c23.583,0,42.666-19.104,42.666-42.666
		v-8c0-23.563,2.25-64-21.333-64h-140.54l-53.333,21.333H511.589c-23.542,0-42.667,19.104-42.667,42.667v8
		c0,23.563,19.125,42.666,42.667,42.666h24.938c-1.136,2.787-1.071,5.951,0.28,8.688c11.458,23.396,37.54,90.146,20.958,117.709
		c-4.708,7.854-13.125,11.875-25.386,12.271H399.256c-13.708-11.104-83.04-76.25-63.541-245.646l7.625-11.938
		c0.746-1.165,1.233-2.422,1.485-3.703c7.071-5.179,12.829-12.048,16.658-20.017l66.439,25.283c1.25,0.458,2.5,0.688,3.792,0.688
		c4.291,0,8.333-2.625,9.958-6.875c2.083-5.5-0.667-11.667-6.167-13.771l-68.845-26.197c0.029-0.716,0.055-1.433,0.055-2.156V302.5
		c0-5.818-0.949-11.416-2.678-16.661l54.01-33.984c5-3.125,6.5-9.708,3.333-14.708c-3.125-4.979-9.708-6.479-14.708-3.334
		l-53.251,33.507c-9.78-11.119-24.097-18.153-40.04-18.153h-42.666c-4.167,0-7.959,2.417-9.709,6.188
		c-0.791,1.792-19.916,44.271-0.333,98.75c1.5,4.229,5.542,7.063,10.042,7.063h41.294c-23.463,32.89-69.287,102.073-81.668,156.792
		c81.999,19.916,116.707,105.166,116.707,183.854v2.042l616.662-1.021c3.083,0,6.041-1.354,8.041-3.688
		C973.792,696.792,974.71,693.688,974.251,690.625z M870.126,646.25c-0.125-0.021-0.291-0.021-0.416,0H669.472
		c-4.5,0-8.499-2.791-10.04-7c-11.792-32.208-11.334-57.708,1.291-75.813c16.833-24.063,47.947-24.75,51.447-24.75
		c5.25-0.313,10.875-0.479,16.292-0.479c116.874,0,145.706,74.75,150.789,91.854c0.959,1.604,1.542,3.5,1.542,5.521
		C880.793,641.479,876.001,646.25,870.126,646.25z"/>
	<path fill="#414042" d="M710.962,550.084c-0.917,0-25.959,4.666-37.615,23.958c-8.25,13.625-6.166,34.313,1.292,61.521h190.28
		C853.419,606.125,826.127,540.834,710.962,550.084z"/>
	<path fill="#414042" d="M791.044,791.834c48.5,0,89.041-32.896,101.666-77.417H689.378
		C701.962,758.938,742.545,791.834,791.044,791.834z"/>
	<path fill="#414042" d="M178.363,528.792c-55.062,4.417-100.02,28.396-126.541,67.646l-1.583,3.854
		c-0.354,1.958-3.25,19.646,7.563,32.604c4.542,5.458,13.313,11.979,29.167,11.979c5.416,0,11.458-0.729,17.938-2.208l3.146-1.313
		c0.313-0.208,31.479-19.604,70.479-19.604c5.904,0,11.669,0.449,17.296,1.339l-6.836,14.554c-3.842-0.403-7.737-0.621-11.689-0.621
		c-43.875,0-78.958,21.833-79.292,22.063l-3.583,1.458c-6.083,1.417-11.75,2.083-17,2.313c-1.792,7.646-2.917,15.521-2.917,23.688
		c0,58.063,47.208,105.292,105.291,105.292c55.792,0,101.166-41.396,104.624-96.354c-7.458-6.271-12.125-10.875-12.542-11.292
		c-18.172-20.391-38.694-34.912-61.43-42.082l6.296-13.405c16.737,6.452,32.033,17.396,45.801,32.862
		c0.917,0.875,21.792,21.688,49.583,36.167l14.896,7.771v-16.791C327.028,608.042,280.569,520.25,178.363,528.792z"/>
</g>
</svg>
