<?xml version="1.0" encoding="utf-8"?>
<!-- Generator: Adobe Illustrator 16.0.0, SVG Export Plug-In . SVG Version: 6.00 Build 0)  -->
<!DOCTYPE svg PUBLIC "-//W3C//DTD SVG 1.1//EN" "http://www.w3.org/Graphics/SVG/1.1/DTD/svg11.dtd">
<svg version="1.1" id="Layer_1" xmlns="http://www.w3.org/2000/svg" xmlns:xlink="http://www.w3.org/1999/xlink" x="0px" y="0px"
	 width="1024px" height="1024px" viewBox="0 0 1024 1024" enable-background="new 0 0 1024 1024" xml:space="preserve">
<g>
	<path fill="#414042" d="M842.086,489.563c-72.624,0-134.874,48.917-152.291,119.125l-11.386,0.542l-73.665,13.583
		c-14.125-25.458-27.104-55.458-33.167-87.166c-19.332-101.459-161.134-135.625-222.841-135.625
		c-22.833,0-46.479-26.959-56.167-64.084c-8.75-33.458-5.688-76.125,29.104-95.625c4.479-2.541,6.542-7.875,4.875-12.75
		c-1.646-4.875-6.646-7.875-11.646-7.125c-5.313,0.792-130.521,21.25-164.916,201.417c-0.583,3,0.167,6.125,2.042,8.542
		c1.896,2.416,4.75,3.916,7.791,4.083c3.959,0.25,47.667,3.542,94.291,29.75c-2.667,0.958-4.958,2.875-6.188,5.667l-13.146,29.458
		c-16.875-6.208-35.042-9.792-54.042-9.792c-86.624,0-157.081,70.459-157.081,157.084c0,86.583,70.457,157.041,157.081,157.041
		c86.583,0,157.041-70.458,157.041-157.041c0-60.042-33.875-112.25-83.499-138.709l13.125-29.375
		c0.854-1.916,0.916-3.916,0.625-5.833c53.5,35.333,106.062,103.125,102.874,233.25c-0.042,2.875,1.041,5.667,3.041,7.708
		c2,2.084,4.75,3.25,7.625,3.25h269.3c4.25,0,8.125-2.541,9.791-6.458c1.709-3.917,0.896-8.417-2-11.542
		c-0.333-0.333-14.166-15.25-30.958-39.333l48.166,22.208c1.063,0.5,2.208,0.792,3.375,0.917l10.344,1.083
		c16.958,69.709,80.332,119.875,152.499,119.875c86.582,0,157.039-70.458,157.039-157.041
		C999.125,560.021,928.668,489.563,842.086,489.563z M173.905,411.729c1.333-45.333,28-73.333,28-73.333
		c-1.459,44.291,8,82.666,8,82.666C200.57,411.729,173.905,411.729,173.905,411.729z M295.111,646.646
		c0,63.041-51.312,114.375-114.374,114.375c-63.082,0-114.416-51.334-114.416-114.375c0-63.084,51.333-114.417,114.416-114.417
		c12.813,0,24.938,2.625,36.458,6.5l-22.166,49.708c-4.625-1.125-9.354-1.916-14.292-1.916c-33.167,0-60.124,26.958-60.124,60.125
		c0,33.125,26.958,60.083,60.124,60.083c33.125,0,60.083-26.958,60.083-60.083c0-20.625-10.416-38.792-26.27-49.625l22.104-49.542
		C271.362,567.146,295.111,603.979,295.111,646.646z M176.383,656.354c1.396,0.667,2.896,0.958,4.333,0.958
		c4.083,0,7.979-2.375,9.75-6.333l15.104-33.875c8.438,7.125,13.917,17.667,13.917,29.542c0,21.375-17.375,38.75-38.75,38.75
		c-21.375,0-38.792-17.375-38.792-38.75s17.417-38.792,38.792-38.792c1.833,0,3.583,0.292,5.375,0.542l-15.125,33.875
		C168.571,647.646,170.988,653.979,176.383,656.354z M451.818,649.896c0,5.916-4.75,10.666-10.666,10.666
		c-5.875,0-10.667-4.75-10.667-10.666v-96c0-5.875,4.792-10.667,10.667-10.667c5.916,0,10.666,4.792,10.666,10.667V649.896z
		 M554.349,529.688c-1.979,1.625-4.354,2.375-6.729,2.375c-3.084,0-6.167-1.333-8.292-3.916c-25.177-30.959-48.427-25.292-49.386-25
		c-5.625,1.5-11.5-1.834-13.083-7.417c-1.542-5.625,1.583-11.417,7.167-13.083c1.541-0.459,37.291-10.459,71.884,32.041
		C559.62,519.271,558.911,525.979,554.349,529.688z M842.086,761.021c-47.292,0-89.374-29.542-106.374-72.417l72.582,7.5
		c10,6.875,21.542,10.625,33.792,10.625c8,0,15.833-1.583,23.25-4.667c0,0,0-0.041,0.041-0.041l44.958,4.666
		c0.375,0.042,0.708,0.042,1.083,0.042c3.417,0,6.625-1.625,8.667-4.417c29.875-41.416,15.625-83.541,3.916-100.041
		c-2.083-2.959-5.708-4.875-9.208-4.5l-36.125,1.75c-0.625-0.667-1.125-1.417-1.917-2c-21.332-15.084-52.082-14.125-72.415,2.333
		c-1.209,0.958-2.125,2.125-2.792,3.417l-66.332,3.208c16.541-44.25,58.415-74.25,106.874-74.25
		c63.04,0,114.374,51.333,114.374,114.417C956.46,709.688,905.126,761.021,842.086,761.021z"/>
	<path fill="#414042" d="M313.611,346.438c2.042,1.834,4.583,2.709,7.125,2.709c2.917,0,5.833-1.167,7.938-3.5l62.937-69.959h65.625
		c5.875,0,10.667-4.75,10.667-10.666c0-5.875-4.792-10.667-10.667-10.667H386.86c-3.042,0-5.917,1.292-7.937,3.542l-66.104,73.458
		C308.882,335.729,309.236,342.479,313.611,346.438z"/>
	<path fill="#414042" d="M937.293,397.188l9.5-41.916l46.416-16.334c5.541-1.916,8.5-8.041,6.541-13.583
		c-1.958-5.583-8.083-8.5-13.625-6.542l-36.999,13l-176.332,55.5c-59.957,49.334-115.925,47.334-134.717,44.875
		c-4.125,12.084-19.208,33.5-73.27,39.209c11.728,16.583,20.624,35.125,24.687,56.416c5.083,26.667,14.208,52.334,25.041,75.834
		l39-101.167c0,0,70.718-6,129.717-57.333l137.916-33.959l60.082,77.25c2.125,2.709,5.25,4.125,8.417,4.125
		c2.292,0,4.625-0.708,6.542-2.25c4.666-3.625,5.5-10.291,1.875-14.958L937.293,397.188z"/>
	<path fill="#414042" d="M340.944,385.188c1.209,0.125,2.417,0.542,3.625,0.542c52,0,150.958,20.167,214.092,73.917
		c79.874-7.209,72.333-37.75,72.333-37.75c-36-8-78.624-95.209-78.624-95.209C412.09,298.146,355.403,363.688,340.944,385.188z"/>
</g>
</svg>
