<?xml version="1.0" encoding="utf-8"?>
<!-- Generator: Adobe Illustrator 16.0.0, SVG Export Plug-In . SVG Version: 6.00 Build 0)  -->
<!DOCTYPE svg PUBLIC "-//W3C//DTD SVG 1.1//EN" "http://www.w3.org/Graphics/SVG/1.1/DTD/svg11.dtd">
<svg version="1.1" id="Layer_1" xmlns="http://www.w3.org/2000/svg" xmlns:xlink="http://www.w3.org/1999/xlink" x="0px" y="0px"
	 width="1024px" height="1024px" viewBox="0 0 1024 1024" enable-background="new 0 0 1024 1024" xml:space="preserve">
<path fill="#414042" d="M806.377,493.646c-4.541-10.104-14.625-16.625-25.708-16.625H663.806V244.146
	c0-15.5-12.624-28.125-28.124-28.125H388.309c-15.531,0-28.167,12.625-28.167,28.125v232.875H243.289
	c-11.156,0-21.259,6.583-25.75,16.771c-4.458,10.125-2.583,21.958,5.417,30.854l267.893,273.771
	c5.303,6.083,13.011,9.563,21.146,9.563c8.052,0,15.719-3.438,20.313-8.667l269.236-275.25
	C809.002,515.834,810.919,503.959,806.377,493.646z"/>
</svg>
