<?xml version="1.0" encoding="utf-8"?>
<!-- Generator: Adobe Illustrator 16.0.0, SVG Export Plug-In . SVG Version: 6.00 Build 0)  -->
<!DOCTYPE svg PUBLIC "-//W3C//DTD SVG 1.1//EN" "http://www.w3.org/Graphics/SVG/1.1/DTD/svg11.dtd">
<svg version="1.1" id="Layer_1" xmlns="http://www.w3.org/2000/svg" xmlns:xlink="http://www.w3.org/1999/xlink" x="0px" y="0px"
	 width="1024px" height="1024px" viewBox="0 0 1024 1024" enable-background="new 0 0 1024 1024" xml:space="preserve">
<path fill="#414042" d="M779.836,360.209H546.995V243.323c0-11-6.479-21.063-16.844-25.792c-9.917-4.375-21.5-2.875-30.813,5.459
	L225.331,491.084c-5.927,5.333-9.323,12.958-9.323,20.958c0,8.125,3.49,15.833,8.667,20.292l275.424,269.458
	c5.156,4.583,11.792,7.083,18.688,7.083c3.928,0,7.75-0.791,11.428-2.416c10.197-4.459,16.781-14.584,16.781-25.709V663.875h232.841
	c15.541,0,28.166-12.666,28.166-28.166V388.334C808.002,372.834,795.377,360.209,779.836,360.209z"/>
</svg>
