<?xml version="1.0" encoding="utf-8"?>
<!-- Generator: Adobe Illustrator 16.0.0, SVG Export Plug-In . SVG Version: 6.00 Build 0)  -->
<!DOCTYPE svg PUBLIC "-//W3C//DTD SVG 1.1//EN" "http://www.w3.org/Graphics/SVG/1.1/DTD/svg11.dtd">
<svg version="1.1" id="Layer_1" xmlns="http://www.w3.org/2000/svg" xmlns:xlink="http://www.w3.org/1999/xlink" x="0px" y="0px"
	 width="1024px" height="1024px" viewBox="0 0 1024 1024" enable-background="new 0 0 1024 1024" xml:space="preserve">
<path fill="#414042" d="M799.336,491.709l-275.519-269.5c-8.114-7.125-19.344-9.292-30.322-4.521
	c-10.021,4.584-16.5,14.646-16.5,25.646v116.875H244.164c-15.531,0-28.166,12.625-28.166,28.125v247.375
	c0,15.521,12.635,28.166,28.166,28.166h232.832V780.75c0,11.146,6.583,21.25,16.895,25.792c3.594,1.542,7.406,2.333,11.313,2.333
	c6.844,0,13.458-2.479,19.458-7.791l273.883-268c6-5.313,9.458-12.979,9.458-21.042
	C808.002,504.125,804.669,496.521,799.336,491.709z"/>
</svg>
