<?xml version="1.0" encoding="utf-8"?>
<!-- Generator: Adobe Illustrator 16.0.0, SVG Export Plug-In . SVG Version: 6.00 Build 0)  -->
<!DOCTYPE svg PUBLIC "-//W3C//DTD SVG 1.1//EN" "http://www.w3.org/Graphics/SVG/1.1/DTD/svg11.dtd">
<svg version="1.1" id="Layer_1" xmlns="http://www.w3.org/2000/svg" xmlns:xlink="http://www.w3.org/1999/xlink" x="0px" y="0px"
	 width="1024px" height="1024px" viewBox="0 0 1024 1024" enable-background="new 0 0 1024 1024" xml:space="preserve">
<path fill="#414042" d="M695.503,306.646c-23.489-30.542-53.301-50.709-88.468-59.896c-21.25-5.729-60.249-8.396-122.665-8.396
	H314.476c-11.781,0-21.333,9.542-21.333,21.333v504.625c0,11.792,9.552,21.334,21.333,21.334h130.895
	c11.781,0,21.333-9.542,21.333-21.334V608.979h22.125c46.688,0,80.416-2.375,106.499-7.583
	c21.625-4.729,42.875-14.271,63.167-28.354c21.165-14.729,38.718-34.938,52.093-60.042c13.458-25.291,20.25-55.916,20.25-91.063
	C730.837,375.896,718.962,337.104,695.503,306.646z M585.869,461.375c-7.521,10.959-17.938,19.063-31.021,24.188
	c-13.063,5.021-38.572,7.542-75.916,7.542h-33.563c-11.781,0-21.333-9.542-21.333-21.333v-96.5c0-11.792,9.553-21.334,21.333-21.334
	h27.5c34.634,0,57.125,1.063,68.75,3.25c15.791,2.834,29.207,10.167,39.665,21.75c10.459,11.542,15.792,26.438,15.792,44.25
	C597.077,437.584,593.307,450.417,585.869,461.375z"/>
</svg>
