<?xml version="1.0" encoding="utf-8"?>
<!-- Generator: Adobe Illustrator 16.0.0, SVG Export Plug-In . SVG Version: 6.00 Build 0)  -->
<!DOCTYPE svg PUBLIC "-//W3C//DTD SVG 1.1//EN" "http://www.w3.org/Graphics/SVG/1.1/DTD/svg11.dtd">
<svg version="1.1" id="Layer_1" xmlns="http://www.w3.org/2000/svg" xmlns:xlink="http://www.w3.org/1999/xlink" x="0px" y="0px"
	 width="1024px" height="1024px" viewBox="0 0 1024 1024" enable-background="new 0 0 1024 1024" xml:space="preserve">
<path fill="#414042" d="M738.545,406.042L570.932,241.115c-4.521-4.084-10.354-6.354-16.437-6.354c-2.979,0-7.188,0.896-9.917,2.104
	c-8.813,3.916-14.5,12.688-14.5,22.344v75.333h-37.021c-118.572,0-215.04,97.333-215.04,217.042v216.333
	c0,11.792,9.551,21.333,21.333,21.333h135.333c11.781,0,21.333-9.541,21.333-21.333V551.584c0-21.542,16.614-39.042,37.042-39.042
	h37.021v75.375c0,9.625,5.688,18.375,14.5,22.292c2.729,1.208,6.938,2.083,9.917,2.083c6.082,0,11.916-2.25,17.04-6.917
	L737.42,442.084c5.417-4.625,8.542-11.375,8.542-18.542S742.837,409.584,738.545,406.042z"/>
</svg>
