<?xml version="1.0" encoding="utf-8"?>
<!-- Generator: Adobe Illustrator 16.0.0, SVG Export Plug-In . SVG Version: 6.00 Build 0)  -->
<!DOCTYPE svg PUBLIC "-//W3C//DTD SVG 1.1//EN" "http://www.w3.org/Graphics/SVG/1.1/DTD/svg11.dtd">
<svg version="1.1" id="Layer_1" xmlns="http://www.w3.org/2000/svg" xmlns:xlink="http://www.w3.org/1999/xlink" x="0px" y="0px"
	 width="1024px" height="1024px" viewBox="0 0 1024 1024" enable-background="new 0 0 1024 1024" xml:space="preserve">
<path fill="#414042" d="M530.933,334.542h-37.021v-75.333c0-9.656-5.688-18.428-14.5-22.344c-2.729-1.209-6.938-2.104-9.927-2.104
	c-6.083,0-11.917,2.25-17.031,6.938L286.591,404.959c-5.448,4.625-8.573,11.416-8.573,18.583s3.125,13.917,7.417,17.5
	l167.624,164.917c4.51,4.083,10.344,6.333,16.427,6.333c2.989,0,7.198-0.875,9.927-2.083c8.812-3.917,14.5-12.667,14.5-22.292
	v-75.375h37.021c20.438,0,37.04,17.5,37.04,39.042v216.333c0,11.792,9.563,21.333,21.334,21.333h135.321
	c11.792,0,21.334-9.541,21.334-21.333V551.584C745.962,431.875,649.494,334.542,530.933,334.542z"/>
</svg>
