<?xml version="1.0" encoding="utf-8"?>
<!-- Generator: Adobe Illustrator 16.0.0, SVG Export Plug-In . SVG Version: 6.00 Build 0)  -->
<!DOCTYPE svg PUBLIC "-//W3C//DTD SVG 1.1//EN" "http://www.w3.org/Graphics/SVG/1.1/DTD/svg11.dtd">
<svg version="1.1" id="Layer_1" xmlns="http://www.w3.org/2000/svg" xmlns:xlink="http://www.w3.org/1999/xlink" x="0px" y="0px"
	 width="1024px" height="1024px" viewBox="0 0 1024 1024" enable-background="new 0 0 1024 1024" xml:space="preserve">
<path fill="#414042" d="M551.245,205.75c-119.666,0-217.04,96.459-217.04,215.042v202.917h-54c-9.771,0-18.583,5.813-22.208,14.271
	c-4.084,8.875-2.479,19.313,4.688,27.167l141.769,144.291c4.604,5.604,11.438,8.813,18.75,8.813s14.145-3.208,17.52-7.438
	l143.561-146.25c6.604-7.271,8.229-17.708,4.354-26.041c-3.854-9-12.646-14.813-22.395-14.813h-54.042V420.792
	c0-20.396,17.521-37,39.042-37c21.478,0,38.957,16.604,38.957,37v181.583c0,11.792,9.542,21.334,21.333,21.334h135.343
	c11.792,0,21.334-9.542,21.334-21.334V420.792C768.212,302.209,670.868,205.75,551.245,205.75z"/>
</svg>
