<?xml version="1.0" encoding="utf-8"?>
<!-- Generator: Adobe Illustrator 16.0.0, SVG Export Plug-In . SVG Version: 6.00 Build 0)  -->
<!DOCTYPE svg PUBLIC "-//W3C//DTD SVG 1.1//EN" "http://www.w3.org/Graphics/SVG/1.1/DTD/svg11.dtd">
<svg version="1.1" id="Layer_1" xmlns="http://www.w3.org/2000/svg" xmlns:xlink="http://www.w3.org/1999/xlink" x="0px" y="0px"
	 width="1024px" height="1024px" viewBox="0 0 1024 1024" enable-background="new 0 0 1024 1024" xml:space="preserve">
<path fill="#414042" d="M766.208,638.521c-3.875-9-12.667-14.813-22.459-14.813h-54.041V420.792
	c0-118.583-97.343-215.042-216.988-215.042c-119.645,0-216.998,96.459-216.998,215.042v181.583c0,11.792,9.542,21.334,21.334,21.334
	h135.332c11.792,0,21.333-9.542,21.333-21.334V420.792c0-20.396,17.5-37,39-37c21.5,0,39,16.604,39,37v202.917h-54
	c-9.771,0-18.583,5.813-22.208,14.271c-4.104,8.875-2.479,19.313,4.687,27.167l141.769,144.291
	c4.604,5.604,11.438,8.813,18.75,8.813c6.979,0,13.438-2.854,18-7.916l143.114-145.771
	C768.458,657.292,770.083,646.854,766.208,638.521z"/>
</svg>
