<?xml version="1.0" encoding="utf-8"?>
<!-- Generator: Adobe Illustrator 16.0.0, SVG Export Plug-In . SVG Version: 6.00 Build 0)  -->
<!DOCTYPE svg PUBLIC "-//W3C//DTD SVG 1.1//EN" "http://www.w3.org/Graphics/SVG/1.1/DTD/svg11.dtd">
<svg version="1.1" id="Layer_1" xmlns="http://www.w3.org/2000/svg" xmlns:xlink="http://www.w3.org/1999/xlink" x="0px" y="0px"
	 width="1024px" height="1024px" viewBox="0 0 1024 1024" enable-background="new 0 0 1024 1024" xml:space="preserve">
<path fill="#414042" d="M884.001,417.125L717.378,231.969c-0.458-0.521-0.958-1.041-1.5-1.521c-7.166-6.5-17.458-8.167-26.333-4.25
	c-8.833,3.917-14.511,12.688-14.511,22.333v75.344h-36.999c-46.25,0-95.582,26.459-125.832,56.417
	c-30.042-30.083-80.187-56.417-126.249-56.417h-37.042v-75.344c0-9.646-5.688-18.416-14.5-22.333
	c-8.896-3.896-19.229-2.25-26.958,4.833L141.852,394.125c-5.604,4.584-8.813,11.417-8.813,18.75c0,7.292,3.209,14.125,7.417,17.5
	L308.06,595.292c7.166,6.5,17.521,8.208,26.354,4.25c8.812-3.917,14.5-12.667,14.5-22.292v-75.375h37.042
	c15.917,0,37.042,34.417,37.042,60.375v216.334c0,11.791,9.541,21.333,21.333,21.333H579.66c11.792,0,21.334-9.542,21.334-21.333
	V562.25c0-25.958,21.125-60.375,37.041-60.375h36.999v75.375c0,9.625,5.678,18.375,14.511,22.292
	c8.792,3.917,19.167,2.25,25.875-3.833l167.206-143.167c5.292-4.625,8.334-11.333,8.334-18.333
	C890.96,427.792,888.418,421.667,884.001,417.125z"/>
</svg>
