<?xml version="1.0" encoding="utf-8"?>
<!-- Generator: Adobe Illustrator 16.0.0, SVG Export Plug-In . SVG Version: 6.00 Build 0)  -->
<!DOCTYPE svg PUBLIC "-//W3C//DTD SVG 1.1//EN" "http://www.w3.org/Graphics/SVG/1.1/DTD/svg11.dtd">
<svg version="1.1" id="Layer_1" xmlns="http://www.w3.org/2000/svg" xmlns:xlink="http://www.w3.org/1999/xlink" x="0px" y="0px"
	 width="1024px" height="1024px" viewBox="0 0 1024 1024" enable-background="new 0 0 1024 1024" xml:space="preserve">
<path fill="#414042" d="M745.128,315.75L640.16,208.834c-4.458-5.229-11-8.229-17.916-8.229c-5.709,0-12.917,3.063-16.917,7.146
	L498.88,316.229c-6.229,6.75-7.958,16.604-4.177,25.667c3.813,8.458,12.271,13.916,21.563,13.916h34.521v119.375l-107.583,0.167
	v-50.25c0-9.667-5.761-18.25-14.854-21.917c-8.041-3.208-19.125-1.041-25.271,5L280.778,528.667
	c-5.468,4.458-8.604,11.104-8.604,18.229c0,5.708,3.063,12.896,7.146,16.916l124.249,122.209c6.646,6.166,17.646,7.916,25.792,4.166
	c8.406-3.833,13.843-12.271,13.843-21.5v-50.333h85.135c12.094,0,21.927,10.5,21.927,23.417v160.291
	c0,11.792,9.563,21.334,21.332,21.334h100.791c11.781,0,21.323-9.542,21.323-21.334v-446.25h34.5c9.291,0,17.75-5.458,21.708-14.271
	C753.628,332.917,751.878,322.917,745.128,315.75z"/>
</svg>
