<?xml version="1.0" encoding="utf-8"?>
<!-- Generator: Adobe Illustrator 16.0.0, SVG Export Plug-In . SVG Version: 6.00 Build 0)  -->
<!DOCTYPE svg PUBLIC "-//W3C//DTD SVG 1.1//EN" "http://www.w3.org/Graphics/SVG/1.1/DTD/svg11.dtd">
<svg version="1.1" id="Layer_1" xmlns="http://www.w3.org/2000/svg" xmlns:xlink="http://www.w3.org/1999/xlink" x="0px" y="0px"
	 width="1024px" height="1024px" viewBox="0 0 1024 1024" enable-background="new 0 0 1024 1024" xml:space="preserve">
<path fill="#414042" d="M744.67,530v-0.021L620.535,407.834c-6.333-5.938-16.916-7.834-25-4.625
	c-8.833,3.541-14.771,12.333-14.771,21.896v50.25l-107.561-0.167V355.813h34.52c9.281,0,17.74-5.458,21.688-14.271
	c3.625-8.479,2-18.354-4.771-25.792L419.818,209.021c-4.458-5.354-11.052-8.417-18.094-8.417c-5.729,0-12.906,3.063-16.916,7.146
	L278.518,316.104c-6.396,6.813-8.146,16.813-4.292,25.792c3.813,8.458,12.26,13.916,21.542,13.916h34.5v446.25
	c0,11.792,9.551,21.334,21.333,21.334h100.791c11.781,0,21.333-9.542,21.333-21.334V641.771c0-12.917,9.834-23.417,21.917-23.417
	h85.124v50.333c0,9.271,5.479,17.729,13.938,21.542c8.229,3.688,19.813,1.604,26.188-4.667l122.905-120.938
	c5.083-4.479,8-10.938,8-17.729C751.795,541.125,748.878,534.292,744.67,530z"/>
</svg>
