<?xml version="1.0" encoding="utf-8"?>
<!-- Generator: Adobe Illustrator 16.0.0, SVG Export Plug-In . SVG Version: 6.00 Build 0)  -->
<!DOCTYPE svg PUBLIC "-//W3C//DTD SVG 1.1//EN" "http://www.w3.org/Graphics/SVG/1.1/DTD/svg11.dtd">
<svg version="1.1" id="Layer_1" xmlns="http://www.w3.org/2000/svg" xmlns:xlink="http://www.w3.org/1999/xlink" x="0px" y="0px"
	 width="1024px" height="1024px" viewBox="0 0 1024 1024" enable-background="new 0 0 1024 1024" xml:space="preserve">
<path fill="#414042" d="M934.793,849.688L530.266,148.979c-7.625-13.208-29.333-13.208-36.958,0L86.874,852.938
	c-3.803,6.584-3.803,14.709,0,21.334c3.813,6.583,10.854,10.666,18.479,10.666H918.21c0.125-0.041,0.291-0.041,0.416,0
	c11.792,0,21.334-9.541,21.334-21.333C939.96,858.271,938.001,853.438,934.793,849.688z M722.42,773.229c-0.125,0-0.25,0-0.417,0
	H301.56c-7.625,0-14.667-4.083-18.479-10.667c-3.801-6.625-3.801-14.75,0-21.333l210.228-364.125
	c7.625-13.208,29.333-13.208,36.958,0l208.321,360.875c3.25,3.75,5.166,8.583,5.166,13.917
	C743.753,763.688,734.212,773.229,722.42,773.229z"/>
</svg>
