<?xml version="1.0" encoding="utf-8"?>
<!-- Generator: Adobe Illustrator 16.0.0, SVG Export Plug-In . SVG Version: 6.00 Build 0)  -->
<!DOCTYPE svg PUBLIC "-//W3C//DTD SVG 1.1//EN" "http://www.w3.org/Graphics/SVG/1.1/DTD/svg11.dtd">
<svg version="1.1" id="Layer_1" xmlns="http://www.w3.org/2000/svg" xmlns:xlink="http://www.w3.org/1999/xlink" x="0px" y="0px"
	 width="1024px" height="1024px" viewBox="0 0 1024 1024" enable-background="new 0 0 1024 1024" xml:space="preserve">
<g>
	<path fill="#414042" d="M511.974,49.771c-125.299,0-239.111,50.12-322.446,131.366c-0.955,0.672-1.879,1.41-2.738,2.259
		c-0.896,0.88-1.677,1.831-2.384,2.818C101.239,269.842,49.77,385.029,49.77,512.021c0,254.854,207.342,462.208,462.204,462.208
		c254.904,0,462.236-207.354,462.236-462.208C974.21,257.125,766.878,49.771,511.974,49.771z M819.88,796.726L540.745,512.889
		l279.979-284.682c68.771,74.76,110.818,174.468,110.818,283.814C931.543,621.806,889.151,721.873,819.88,796.726z M790.3,198.299
		L510.827,482.467L232.449,199.4c74.259-66.482,172.253-106.963,279.525-106.963C618.67,92.438,716.187,132.469,790.3,198.299z
		 M202.135,229.421l278.772,283.467l-277.94,282.609c-68.599-74.718-110.53-174.291-110.53-283.477
		C92.437,403.267,134.028,304.044,202.135,229.421z M233.364,825.434l277.461-282.122l278.536,283.227
		c-73.998,65.33-171.141,105.024-277.388,105.024C405.143,931.563,307.512,891.422,233.364,825.434z"/>
	<path fill="#414042" d="M215.727,527.75c7.261,0,10.74,1.167,12.198,1.875c1.396,0.667,4.364,2.625,8.604,8.188
		c2.697,3.542,8.021,11.792,18.072,31.125l24.709,46.979h51.176l-36.625-69.667c-5.167-9.854-11.239-18.938-18.073-27.041
		c8-3.729,14.718-8.813,20.104-15.209c9.427-11.229,14.208-25.771,14.208-43.271c0-13.042-2.739-24.813-8.166-35.021
		c-5.636-10.521-13.104-18.229-22.208-22.917c-8.791-4.521-21.302-6.729-38.25-6.729h-82.853v219.854h42.875V527.75H215.727z
		 M201.498,439.334h40.791c8.615,0,14.896,1.875,18.678,5.583c3.76,3.667,5.594,8.896,5.594,15.979
		c0,5.063-1.031,9.271-3.156,12.896c-1.948,3.333-4.479,5.708-7.75,7.229c-2.584,1.208-7.906,2.646-18.511,2.646h-35.645V439.334z"
		/>
	<path fill="#414042" d="M837.877,546.25c-5.166-9.854-11.25-18.938-18.083-27.041c8-3.729,14.708-8.813,20.083-15.209
		c9.459-11.229,14.209-25.771,14.209-43.271c0-13.042-2.709-24.813-8.167-35.021c-5.625-10.521-13.083-18.229-22.208-22.917
		c-8.792-4.521-21.292-6.729-38.25-6.729h-82.833v219.854h42.875V527.75h14.209c7.291,0,10.75,1.167,12.207,1.875
		c1.417,0.667,4.375,2.625,8.625,8.188c2.667,3.542,8,11.792,18.042,31.125l24.708,46.979h51.207L837.877,546.25z M807.419,473.792
		c-1.958,3.333-4.5,5.708-7.75,7.229c-2.583,1.208-7.917,2.646-18.542,2.646h-35.624v-44.333h40.791
		c8.625,0,14.875,1.875,18.667,5.583c3.75,3.667,5.583,8.896,5.583,15.979C810.544,465.959,809.544,470.167,807.419,473.792z"/>
</g>
</svg>
