<?xml version="1.0" encoding="utf-8"?>
<!-- Generator: Adobe Illustrator 16.0.0, SVG Export Plug-In . SVG Version: 6.00 Build 0)  -->
<!DOCTYPE svg PUBLIC "-//W3C//DTD SVG 1.1//EN" "http://www.w3.org/Graphics/SVG/1.1/DTD/svg11.dtd">
<svg version="1.1" id="Layer_1" xmlns="http://www.w3.org/2000/svg" xmlns:xlink="http://www.w3.org/1999/xlink" x="0px" y="0px"
	 width="1024px" height="1024px" viewBox="0 0 1024 1024" enable-background="new 0 0 1024 1024" xml:space="preserve">
<path fill="#414042" d="M941.001,325.459L698.503,83c-4-4-9.416-6.25-15.083-6.25H340.559c-5.656,0-11.083,2.25-15.083,6.25
	L82.999,325.459c-4,4-6.25,9.416-6.25,15.083v342.875c0,5.667,2.25,11.083,6.25,15.083L325.476,941c4,4,9.427,6.25,15.083,6.25
	H683.42c5.667,0,11.083-2.25,15.083-6.25l242.498-242.5c4-4,6.25-9.416,6.25-15.083V340.542
	C947.251,334.875,945.001,329.459,941.001,325.459z M838.419,638.334c0,5.666-2.25,11.083-6.25,15.083l-178.737,178.75
	c-4,4-9.417,6.25-15.084,6.25H385.642c-5.656,0-11.083-2.25-15.083-6.25l-178.728-178.75c-4-4-6.25-9.417-6.25-15.083V385.625
	c0-5.666,2.25-11.083,6.25-15.083l178.728-178.708c4-4,9.427-6.25,15.083-6.25h252.706c5.667,0,11.084,2.25,15.084,6.25
	l178.737,178.708c4,4,6.25,9.417,6.25,15.083V638.334z"/>
</svg>
