<?xml version="1.0" encoding="utf-8"?>
<!-- Generator: Adobe Illustrator 16.0.0, SVG Export Plug-In . SVG Version: 6.00 Build 0)  -->
<!DOCTYPE svg PUBLIC "-//W3C//DTD SVG 1.1//EN" "http://www.w3.org/Graphics/SVG/1.1/DTD/svg11.dtd">
<svg version="1.1" id="Layer_1" xmlns="http://www.w3.org/2000/svg" xmlns:xlink="http://www.w3.org/1999/xlink" x="0px" y="0px"
	 width="1024px" height="1024px" viewBox="0 0 1024 1024" enable-background="new 0 0 1024 1024" xml:space="preserve">
<g>
	<path fill="#414042" d="M974.21,512.021c0-254.896-207.332-462.25-462.215-462.25c-108.458,0-208.305,37.554-287.236,100.335
		c-0.63,0.401-1.247,0.835-1.845,1.31c-0.638,0.508-1.23,1.05-1.794,1.613C116.647,237.85,49.77,367.266,49.77,512.021
		c0,254.854,207.353,462.208,462.225,462.208c107.573,0,206.677-36.937,285.298-98.789c0.496-0.332,0.983-0.687,1.459-1.065
		c0.408-0.324,0.783-0.674,1.161-1.021C906.075,788.591,974.21,658.113,974.21,512.021z M92.437,512.021
		c0-124.466,54.478-236.448,140.837-313.356l521.818,655.112c-68.629,48.957-152.559,77.785-243.097,77.785
		C280.653,931.563,92.437,743.354,92.437,512.021z M788.528,827.271L266.531,171.935c69.064-49.994,153.883-79.497,245.464-79.497
		c231.342,0,419.548,188.229,419.548,419.584C931.543,637.521,876.147,750.321,788.528,827.271z"/>
	<path fill="#414042" d="M806.377,493.604c-4.5-10.104-14.625-16.625-25.666-16.625H663.847V244.146
		c0-15.521-12.624-28.167-28.165-28.167H388.309c-13.823,0-24.812,10.208-27.187,23.333l322.673,405.125l117.916-120.541
		C809.002,515.709,810.877,503.917,806.377,493.604z"/>
	<path fill="#414042" d="M360.142,409.313v67.667H243.289c-11.156,0-21.259,6.583-25.801,16.896c-4.333,10-2.5,21.75,5.469,30.771
		l268.091,274c5.333,5.938,12.958,9.333,20.948,9.333c7.896,0,15.489-3.354,20.313-8.667l76.332-78.041L360.142,409.313z"/>
</g>
</svg>
