<?xml version="1.0" encoding="utf-8"?>
<!-- Generator: Adobe Illustrator 16.0.0, SVG Export Plug-In . SVG Version: 6.00 Build 0)  -->
<!DOCTYPE svg PUBLIC "-//W3C//DTD SVG 1.1//EN" "http://www.w3.org/Graphics/SVG/1.1/DTD/svg11.dtd">
<svg version="1.1" id="Layer_1" xmlns="http://www.w3.org/2000/svg" xmlns:xlink="http://www.w3.org/1999/xlink" x="0px" y="0px"
	 width="1024px" height="1024px" viewBox="0 0 1024 1024" enable-background="new 0 0 1024 1024" xml:space="preserve">
<g>
	<path fill="#414042" d="M974.21,512.021c0-254.896-207.332-462.25-462.215-462.25c-108.461,0-208.312,37.557-287.245,100.342
		c-0.627,0.399-1.241,0.832-1.836,1.304c-0.638,0.508-1.23,1.05-1.794,1.613C116.647,237.85,49.77,367.266,49.77,512.021
		c0,254.854,207.353,462.208,462.225,462.208c107.573,0,206.677-36.937,285.298-98.789c0.496-0.332,0.983-0.687,1.459-1.065
		c0.408-0.324,0.783-0.674,1.161-1.021C906.075,788.591,974.21,658.113,974.21,512.021z M92.437,512.021
		c0-124.466,54.478-236.448,140.837-313.356l521.818,655.112c-68.629,48.957-152.559,77.785-243.097,77.785
		C280.653,931.563,92.437,743.354,92.437,512.021z M788.528,827.271L266.531,171.935c69.064-49.994,153.883-79.497,245.464-79.497
		c231.342,0,419.548,188.229,419.548,419.584C931.543,637.521,876.147,750.321,788.528,827.271z"/>
	<path fill="#414042" d="M801.002,499.354L533.036,225.459c-10.688-12.063-32.458-11.084-41.354-0.771l-78.396,80.125
		l250.54,314.542v-72.375h116.884c11.041,0,21.125-6.521,25.75-16.771C810.919,520.042,809.002,508.167,801.002,499.354z"/>
	<path fill="#414042" d="M338.122,381.667L222.32,500.042c-7.364,8.208-9.239,20.042-4.781,30.167
		c4.49,10.188,14.593,16.771,25.75,16.771h116.854v232.875c0,15.5,12.636,28.125,28.167,28.125h247.373
		c12.479,0,22.75-8.313,26.416-19.583L338.122,381.667z"/>
</g>
</svg>
