<?xml version="1.0" encoding="utf-8"?>
<!-- Generator: Adobe Illustrator 16.0.0, SVG Export Plug-In . SVG Version: 6.00 Build 0)  -->
<!DOCTYPE svg PUBLIC "-//W3C//DTD SVG 1.1//EN" "http://www.w3.org/Graphics/SVG/1.1/DTD/svg11.dtd">
<svg version="1.1" id="Layer_1" xmlns="http://www.w3.org/2000/svg" xmlns:xlink="http://www.w3.org/1999/xlink" x="0px" y="0px"
	 width="1024px" height="1024px" viewBox="0 0 1024 1024" enable-background="new 0 0 1024 1024" xml:space="preserve">
<g>
	<path fill="#414042" d="M974.21,512.021c0-254.896-207.332-462.25-462.194-462.25c-108.483,0-208.35,37.566-287.291,100.365
		c-0.611,0.392-1.208,0.818-1.79,1.28c-0.613,0.488-1.188,1.008-1.732,1.548C116.682,237.783,49.77,367.229,49.77,512.021
		c0,254.854,207.353,462.208,462.246,462.208c107.593,0,206.715-36.956,285.343-98.838c0.474-0.319,0.94-0.654,1.394-1.017
		c0.379-0.302,0.724-0.629,1.076-0.95C906.037,788.663,974.21,658.154,974.21,512.021z M92.437,512.021
		c0-124.47,54.484-236.454,140.852-313.362l521.805,655.12c-68.625,48.955-152.549,77.783-243.078,77.783
		C280.663,931.563,92.437,743.354,92.437,512.021z M788.53,827.272L266.547,171.93c69.065-49.991,153.886-79.492,245.468-79.492
		c231.321,0,419.527,188.229,419.527,419.584C931.543,637.521,876.146,750.322,788.53,827.272z"/>
	<path fill="#414042" d="M779.836,360.188H546.974V243.313c0-11-6.479-21.063-16.771-25.771c-9.958-4.354-21.688-2.813-30.854,5.438
		l-84.999,83.167l284.903,357.708h80.583c15.5,0,28.125-12.646,28.125-28.167V388.313
		C807.961,372.813,795.336,360.188,779.836,360.188z"/>
	<path fill="#414042" d="M337.725,381.125L225.456,490.959c-6,5.313-9.438,13-9.438,21.063c0,8.208,3.542,15.958,8.667,20.291
		l275.351,269.396c5.146,4.604,11.813,7.146,18.75,7.146c3.959,0,7.792-0.792,11.417-2.396c10.188-4.5,16.771-14.584,16.771-25.729
		V663.854h15.938L337.725,381.125z"/>
</g>
</svg>
