<?xml version="1.0" encoding="utf-8"?>
<!-- Generator: Adobe Illustrator 16.0.0, SVG Export Plug-In . SVG Version: 6.00 Build 0)  -->
<!DOCTYPE svg PUBLIC "-//W3C//DTD SVG 1.1//EN" "http://www.w3.org/Graphics/SVG/1.1/DTD/svg11.dtd">
<svg version="1.1" id="Layer_1" xmlns="http://www.w3.org/2000/svg" xmlns:xlink="http://www.w3.org/1999/xlink" x="0px" y="0px"
	 width="1024px" height="1024px" viewBox="0 0 1024 1024" enable-background="new 0 0 1024 1024" xml:space="preserve">
<g>
	<path fill="#414042" d="M974.21,512.021c0-254.896-207.332-462.25-462.194-462.25c-108.483,0-208.35,37.566-287.29,100.365
		c-0.611,0.392-1.209,0.819-1.79,1.281c-0.613,0.488-1.188,1.008-1.732,1.548C116.682,237.783,49.77,367.229,49.77,512.021
		c0,254.854,207.353,462.208,462.246,462.208c107.593,0,206.715-36.956,285.343-98.838c0.474-0.319,0.94-0.654,1.394-1.017
		c0.379-0.302,0.724-0.629,1.076-0.95C906.037,788.663,974.21,658.154,974.21,512.021z M92.437,512.021
		c0-124.47,54.484-236.454,140.852-313.362l521.805,655.12c-68.625,48.955-152.549,77.783-243.078,77.783
		C280.663,931.563,92.437,743.354,92.437,512.021z M788.53,827.272L266.547,171.93c69.065-49.991,153.886-79.492,245.468-79.492
		c231.321,0,419.527,188.229,419.527,419.584C931.543,637.521,876.146,750.322,788.53,827.272z"/>
	<path fill="#414042" d="M799.336,491.646l-275.508-269.5c-8.083-7.104-19.271-9.334-30.313-4.521
		c-10.02,4.584-16.5,14.646-16.5,25.646v116.875h-19.646L684.17,644.917l114.374-111.896c6-5.313,9.458-12.979,9.458-21.042
		C808.002,504.063,804.669,496.459,799.336,491.646z"/>
	<path fill="#414042" d="M321.018,360.146h-76.833c-15.521,0-28.167,12.625-28.167,28.125v247.416
		c0,15.5,12.646,28.125,28.167,28.125h232.831v116.875c0,11.146,6.583,21.25,16.895,25.792c3.604,1.542,7.396,2.333,11.313,2.333
		c6.854,0,13.459-2.479,19.459-7.791l82.874-81.104L321.018,360.146z"/>
</g>
</svg>
