<?xml version="1.0" encoding="utf-8"?>
<!-- Generator: Adobe Illustrator 16.0.0, SVG Export Plug-In . SVG Version: 6.00 Build 0)  -->
<!DOCTYPE svg PUBLIC "-//W3C//DTD SVG 1.1//EN" "http://www.w3.org/Graphics/SVG/1.1/DTD/svg11.dtd">
<svg version="1.1" id="Layer_1" xmlns="http://www.w3.org/2000/svg" xmlns:xlink="http://www.w3.org/1999/xlink" x="0px" y="0px"
	 width="1024px" height="1024px" viewBox="0 0 1024 1024" enable-background="new 0 0 1024 1024" xml:space="preserve">
<g>
	<path fill="#414042" d="M974.21,512.021c0-254.896-207.332-462.25-462.236-462.25c-108.426,0-208.249,37.539-287.169,100.296
		c-0.653,0.413-1.292,0.858-1.911,1.35c-0.655,0.521-1.26,1.082-1.837,1.661C116.622,237.899,49.77,367.294,49.77,512.021
		c0,254.854,207.353,462.208,462.204,462.208c107.57,0,206.668-36.928,285.288-98.768c0.508-0.338,1.005-0.7,1.49-1.087
		c0.404-0.322,0.775-0.67,1.149-1.015C906.072,788.597,974.21,658.117,974.21,512.021z M92.437,512.021
		c0-124.462,54.472-236.441,140.823-313.35L755.09,853.775c-68.633,48.958-152.568,77.787-243.116,77.787
		C280.643,931.563,92.437,743.354,92.437,512.021z M788.526,827.27l-522.011-655.33c69.061-49.997,153.878-79.502,245.458-79.502
		c231.363,0,419.569,188.229,419.569,419.584C931.543,637.52,876.148,750.32,788.526,827.27z"/>
	<path fill="#414042" d="M607.035,257.667c-21.25-5.729-60.249-8.396-122.665-8.396H369.017l92.062,115.583h11.792
		c34.625,0,57.125,1.063,68.75,3.25c15.791,2.833,29.207,10.167,39.665,21.75c10.459,11.542,15.792,26.438,15.792,44.25
		c0,14.396-3.771,27.229-11.208,38.188c-5.896,8.583-14.042,14.854-23.374,19.875l80.77,101.396
		c5.125-2.916,10.208-6.125,15.229-9.604c21.165-14.729,38.718-34.938,52.093-60.042c13.458-25.292,20.25-55.917,20.25-91.063
		c0-46.042-11.875-84.833-35.334-115.292C672.014,287.021,642.202,266.854,607.035,257.667z"/>
	<path fill="#414042" d="M430.975,498.25c-0.979-0.916-1.666-2.021-2.479-3.104L293.143,325.209v450.021
		c0,11.792,9.563,21.333,21.333,21.333h130.895c11.791,0,21.333-9.541,21.333-21.333V619.896h22.125c14,0,26.708-0.25,38.5-0.688
		L430.975,498.25z"/>
</g>
</svg>
