<?xml version="1.0" encoding="utf-8"?>
<!-- Generator: Adobe Illustrator 16.0.0, SVG Export Plug-In . SVG Version: 6.00 Build 0)  -->
<!DOCTYPE svg PUBLIC "-//W3C//DTD SVG 1.1//EN" "http://www.w3.org/Graphics/SVG/1.1/DTD/svg11.dtd">
<svg version="1.1" id="Layer_1" xmlns="http://www.w3.org/2000/svg" xmlns:xlink="http://www.w3.org/1999/xlink" x="0px" y="0px"
	 width="1024px" height="1024px" viewBox="0 0 1024 1024" enable-background="new 0 0 1024 1024" xml:space="preserve">
<g>
	<path fill="#414042" d="M974.251,512.021c0-254.896-207.373-462.25-462.256-462.25c-108.457,0-208.304,37.554-287.235,100.335
		c-0.631,0.401-1.248,0.835-1.846,1.311c-0.638,0.508-1.23,1.05-1.794,1.613C116.647,237.85,49.77,367.266,49.77,512.021
		c0,254.854,207.353,462.208,462.225,462.208c107.543,0,206.628-36.915,285.247-98.736c0.527-0.347,1.046-0.719,1.552-1.118
		c0.474-0.377,0.914-0.78,1.347-1.188C906.193,788.419,974.251,658.017,974.251,512.021z M92.437,512.021
		c0-124.466,54.478-236.448,140.837-313.356l521.823,655.119c-68.635,48.952-152.567,77.778-243.102,77.778
		C280.653,931.563,92.437,743.354,92.437,512.021z M788.536,827.281L266.531,171.935c69.064-49.994,153.883-79.497,245.464-79.497
		c231.342,0,419.59,188.229,419.59,419.584C931.585,637.525,876.173,750.33,788.536,827.281z"/>
	<path fill="#414042" d="M745.628,384.688L577.994,219.771c-4.521-4.084-10.354-6.354-16.437-6.354
		c-2.979,0-7.188,0.896-9.938,2.104c-8.792,3.916-14.5,12.688-14.5,22.333v75.333h-37.021c-24.687,0-48.322,4.438-70.426,12.188
		l180.925,227.146L744.462,420.75c5.458-4.625,8.583-11.396,8.583-18.563C753.045,395.021,749.92,388.25,745.628,384.688z"/>
	<path fill="#414042" d="M285.06,530.229v216.333c0,11.792,9.552,21.334,21.333,21.334h135.332c11.781,0,21.334-9.542,21.334-21.334
		V538.5L340.767,384.979C306.278,423.5,285.06,474.334,285.06,530.229z"/>
</g>
</svg>
