<?xml version="1.0" encoding="utf-8"?>
<!-- Generator: Adobe Illustrator 16.0.0, SVG Export Plug-In . SVG Version: 6.00 Build 0)  -->
<!DOCTYPE svg PUBLIC "-//W3C//DTD SVG 1.1//EN" "http://www.w3.org/Graphics/SVG/1.1/DTD/svg11.dtd">
<svg version="1.1" id="Layer_1" xmlns="http://www.w3.org/2000/svg" xmlns:xlink="http://www.w3.org/1999/xlink" x="0px" y="0px"
	 width="1024px" height="1024px" viewBox="0 0 1024 1024" enable-background="new 0 0 1024 1024" xml:space="preserve">
<g>
	<path fill="#414042" d="M974.21,512.021c0-254.896-207.332-462.25-462.215-462.25c-108.456,0-208.301,37.553-287.231,100.332
		c-0.632,0.402-1.251,0.837-1.85,1.314c-0.638,0.508-1.23,1.05-1.794,1.613C116.647,237.85,49.77,367.266,49.77,512.021
		c0,254.854,207.353,462.208,462.225,462.208c107.582,0,206.692-36.942,285.316-98.805c0.49-0.328,0.972-0.676,1.44-1.05
		c0.392-0.312,0.749-0.648,1.112-0.981C906.055,788.631,974.21,658.136,974.21,512.021z M92.437,512.021
		c0-124.466,54.478-236.448,140.837-313.356l521.818,655.112c-68.629,48.957-152.559,77.785-243.097,77.785
		C280.653,931.563,92.437,743.354,92.437,512.021z M788.528,827.271L266.531,171.935c69.064-49.994,153.883-79.497,245.464-79.497
		c231.342,0,419.548,188.229,419.548,419.584C931.543,637.521,876.147,750.321,788.528,827.271z"/>
	<path fill="#414042" d="M529.776,335.438h-37.021v-75.333c0-9.646-5.688-18.417-14.5-22.333c-2.729-1.209-6.938-2.104-9.927-2.104
		c-6.083,0-11.917,2.25-17.031,6.938l-49.083,48.313l342.58,430.125V552.479C744.795,432.792,648.348,335.438,529.776,335.438z"/>
	<path fill="#414042" d="M285.435,405.875c-5.448,4.625-8.573,11.396-8.573,18.563c0,7.167,3.125,13.938,7.417,17.5l167.624,164.917
		c4.51,4.104,10.344,6.354,16.427,6.354c2.989,0,7.198-0.896,9.927-2.104c8.812-3.917,14.5-12.667,14.5-22.292v-13.021
		L325.778,366.167L285.435,405.875z"/>
	<path fill="#414042" d="M566.808,668.771v100.041c0,11.792,9.562,21.334,21.332,21.334h75.354L566.808,668.771z"/>
</g>
</svg>
