<?xml version="1.0" encoding="utf-8"?>
<!-- Generator: Adobe Illustrator 16.0.0, SVG Export Plug-In . SVG Version: 6.00 Build 0)  -->
<!DOCTYPE svg PUBLIC "-//W3C//DTD SVG 1.1//EN" "http://www.w3.org/Graphics/SVG/1.1/DTD/svg11.dtd">
<svg version="1.1" id="Layer_1" xmlns="http://www.w3.org/2000/svg" xmlns:xlink="http://www.w3.org/1999/xlink" x="0px" y="0px"
	 width="1024px" height="1024px" viewBox="0 0 1024 1024" enable-background="new 0 0 1024 1024" xml:space="preserve">
<g>
	<path fill="#414042" d="M974.21,512.021c0-254.896-207.332-462.25-462.215-462.25c-108.461,0-208.312,37.557-287.245,100.342
		c-0.627,0.399-1.241,0.831-1.836,1.303c-0.638,0.508-1.23,1.05-1.794,1.613C116.647,237.85,49.77,367.266,49.77,512.021
		c0,254.854,207.353,462.208,462.225,462.208c107.573,0,206.677-36.937,285.298-98.789c0.496-0.332,0.983-0.687,1.459-1.065
		c0.408-0.324,0.783-0.674,1.161-1.021C906.075,788.591,974.21,658.113,974.21,512.021z M92.437,512.021
		c0-124.466,54.478-236.448,140.837-313.356l521.818,655.112c-68.629,48.957-152.559,77.785-243.097,77.785
		C280.653,931.563,92.437,743.354,92.437,512.021z M788.528,827.271L266.531,171.935c69.064-49.994,153.883-79.497,245.464-79.497
		c231.342,0,419.548,188.229,419.548,419.584C931.543,637.521,876.147,750.321,788.528,827.271z"/>
	<path fill="#414042" d="M551.266,206.646c-63.438,0-120.405,27.25-160.135,70.375L512.203,429v-7.313c0-20.396,17.521-37,39.063-37
		c21.457,0,38.957,16.604,38.957,37v105.25l77.792,97.667h78.863c11.792,0,21.334-9.542,21.334-21.333V421.688
		C768.212,303.104,670.889,206.646,551.266,206.646z"/>
	<path fill="#414042" d="M531.63,624.604h-19.427v-24.396L338.122,381.667c-2.479,12.979-3.917,26.333-3.917,40.021v202.917h-54
		c-9.771,0-18.583,5.813-22.208,14.271c-4.084,8.875-2.479,19.313,4.688,27.167l141.769,144.292
		c4.604,5.604,11.438,8.813,18.75,8.813s14.145-3.209,17.52-7.438l132.458-134.938L531.63,624.604z"/>
</g>
</svg>
