<?xml version="1.0" encoding="utf-8"?>
<!-- Generator: Adobe Illustrator 16.0.0, SVG Export Plug-In . SVG Version: 6.00 Build 0)  -->
<!DOCTYPE svg PUBLIC "-//W3C//DTD SVG 1.1//EN" "http://www.w3.org/Graphics/SVG/1.1/DTD/svg11.dtd">
<svg version="1.1" id="Layer_1" xmlns="http://www.w3.org/2000/svg" xmlns:xlink="http://www.w3.org/1999/xlink" x="0px" y="0px"
	 width="1024px" height="1024px" viewBox="0 0 1024 1024" enable-background="new 0 0 1024 1024" xml:space="preserve">
<g>
	<path fill="#414042" d="M974.251,512.021c0-254.896-207.373-462.25-462.256-462.25c-108.46,0-208.309,37.556-287.241,100.339
		c-0.629,0.4-1.244,0.833-1.84,1.307c-0.638,0.508-1.23,1.05-1.794,1.613C116.647,237.85,49.77,367.266,49.77,512.021
		c0,254.854,207.353,462.208,462.225,462.208c107.543,0,206.628-36.915,285.247-98.736c0.527-0.347,1.046-0.719,1.552-1.118
		c0.474-0.377,0.914-0.78,1.347-1.188C906.193,788.419,974.251,658.017,974.251,512.021z M92.437,512.021
		c0-124.466,54.478-236.448,140.837-313.356l521.823,655.119c-68.635,48.952-152.567,77.778-243.102,77.778
		C280.653,931.563,92.437,743.354,92.437,512.021z M788.536,827.281L266.531,171.935c69.064-49.994,153.883-79.497,245.464-79.497
		c231.342,0,419.59,188.229,419.59,419.584C931.585,637.525,876.173,750.33,788.536,827.281z"/>
	<path fill="#414042" d="M742.628,624.604h-54.041V421.688c0-118.583-97.385-215.041-217.029-215.041
		c-40.896,0-79.042,11.479-111.739,31.041l117.53,147.563c18.74,2.667,33.208,17.917,33.208,36.438v5.25l216.945,272.334
		l33.209-33.813c6.582-7.271,8.207-17.709,4.333-26.042C761.212,630.417,752.378,624.604,742.628,624.604z"/>
	<path fill="#414042" d="M510.558,598.146v26.458h-54c-9.771,0-18.584,5.813-22.208,14.271c-4.104,8.875-2.479,19.313,4.687,27.167
		l141.791,144.292c4.583,5.604,11.417,8.813,18.75,8.813c6.958,0,13.417-2.854,18-7.917l34.625-35.271L510.558,598.146z"/>
	<path fill="#414042" d="M432.559,500.209L284.111,313.854c-18.667,31.75-29.551,68.521-29.551,107.833v181.584
		c0,11.791,9.541,21.333,21.333,21.333h135.332c11.792,0,21.334-9.542,21.334-21.333V500.209z"/>
</g>
</svg>
