<?xml version="1.0" encoding="utf-8"?>
<!-- Generator: Adobe Illustrator 16.0.0, SVG Export Plug-In . SVG Version: 6.00 Build 0)  -->
<!DOCTYPE svg PUBLIC "-//W3C//DTD SVG 1.1//EN" "http://www.w3.org/Graphics/SVG/1.1/DTD/svg11.dtd">
<svg version="1.1" id="Layer_1" xmlns="http://www.w3.org/2000/svg" xmlns:xlink="http://www.w3.org/1999/xlink" x="0px" y="0px"
	 width="1024px" height="1024px" viewBox="0 0 1024 1024" enable-background="new 0 0 1024 1024" xml:space="preserve">
<g>
	<path fill="#414042" d="M974.21,512.021c0-254.896-207.332-462.25-462.215-462.25c-108.458,0-208.305,37.554-287.236,100.335
		c-0.63,0.401-1.247,0.835-1.845,1.31c-0.638,0.508-1.23,1.05-1.794,1.613C116.647,237.85,49.77,367.266,49.77,512.021
		c0,254.854,207.353,462.208,462.225,462.208c107.582,0,206.692-36.942,285.316-98.805c0.49-0.328,0.972-0.676,1.44-1.05
		c0.392-0.312,0.749-0.648,1.112-0.981C906.055,788.631,974.21,658.136,974.21,512.021z M92.437,512.021
		c0-124.466,54.478-236.448,140.837-313.356l521.818,655.112c-68.629,48.957-152.559,77.785-243.097,77.785
		C280.653,931.563,92.437,743.354,92.437,512.021z M788.528,827.271L266.531,171.935c69.064-49.994,153.883-79.497,245.464-79.497
		c231.342,0,419.548,188.229,419.548,419.584C931.543,637.521,876.147,750.321,788.528,827.271z"/>
	<path fill="#414042" d="M884.001,421.438L717.378,236.271c-0.458-0.521-0.958-1.042-1.5-1.521c-7.166-6.5-17.458-8.166-26.333-4.25
		c-8.833,3.917-14.511,12.688-14.511,22.334v75.333h-36.999c-46.25,0-95.582,26.458-125.832,56.438
		c-18.25-18.292-43.968-35.104-71.635-45.542l164.301,206.271c6.813-20.313,21.396-39.167,33.166-39.167h36.999v75.375
		c0,9.625,5.678,18.375,14.511,22.292c8.792,3.916,19.167,2.271,25.875-3.834l167.206-143.146
		c5.292-4.646,8.334-11.333,8.334-18.354C890.96,432.104,888.418,425.979,884.001,421.438z"/>
	<path fill="#414042" d="M259.32,282.729L141.852,398.417c-5.604,4.604-8.813,11.438-8.813,18.75s3.209,14.146,7.417,17.5
		L308.06,599.584c7.166,6.521,17.521,8.208,26.354,4.25c8.812-3.917,14.5-12.667,14.5-22.292v-75.375h37.042
		c15.917,0,37.042,34.417,37.042,60.375v216.333c0,11.792,9.541,21.334,21.333,21.334H579.66c11.792,0,21.334-9.542,21.334-21.334
		v-71.188L259.32,282.729z"/>
</g>
</svg>
