<?xml version="1.0" encoding="utf-8"?>
<!-- Generator: Adobe Illustrator 16.0.0, SVG Export Plug-In . SVG Version: 6.00 Build 0)  -->
<!DOCTYPE svg PUBLIC "-//W3C//DTD SVG 1.1//EN" "http://www.w3.org/Graphics/SVG/1.1/DTD/svg11.dtd">
<svg version="1.1" id="Layer_1" xmlns="http://www.w3.org/2000/svg" xmlns:xlink="http://www.w3.org/1999/xlink" x="0px" y="0px"
	 width="1024px" height="1024px" viewBox="0 0 1024 1024" enable-background="new 0 0 1024 1024" xml:space="preserve">
<g>
	<path fill="#414042" d="M974.21,512.021c0-254.896-207.332-462.25-462.215-462.25c-108.458,0-208.305,37.554-287.236,100.335
		c-0.63,0.401-1.247,0.835-1.845,1.31c-0.638,0.508-1.23,1.05-1.794,1.613C116.647,237.85,49.77,367.266,49.77,512.021
		c0,254.854,207.353,462.208,462.225,462.208c107.573,0,206.677-36.937,285.298-98.789c0.496-0.332,0.983-0.687,1.459-1.065
		c0.408-0.324,0.783-0.674,1.161-1.021C906.075,788.591,974.21,658.113,974.21,512.021z M92.437,512.021
		c0-124.466,54.478-236.448,140.837-313.356l521.818,655.112c-68.629,48.957-152.559,77.785-243.097,77.785
		C280.653,931.563,92.437,743.354,92.437,512.021z M788.528,827.271L266.531,171.935c69.064-49.994,153.883-79.497,245.464-79.497
		c231.342,0,419.548,188.229,419.548,419.584C931.543,637.521,876.147,750.321,788.528,827.271z"/>
	<path fill="#414042" d="M387.318,443.438h-5.447v-6.854l-44.563-55.938L219.445,496.75c-5.469,4.459-8.604,11.104-8.604,18.229
		c0,5.708,3.063,12.896,7.146,16.917l124.249,122.208c6.646,6.167,17.646,7.917,25.792,4.167c8.406-3.834,13.844-12.271,13.844-21.5
		v-50.334h85.134c12.094,0,21.927,10.5,21.927,23.417v160.292c0,11.791,9.552,21.333,21.333,21.333h100.791
		c11.791,0,21.333-9.542,21.333-21.333v-19.042L387.318,443.438z"/>
	<path fill="#414042" d="M578.848,176.917c-4.458-5.229-11-8.229-17.915-8.229c-5.729,0-12.917,3.063-16.938,7.146L437.547,284.313
		c-6.229,6.75-7.958,16.604-4.176,25.667c3.813,8.458,12.27,13.917,21.562,13.917h34.509v76.521L632.39,579.896v-256h34.5
		c9.291,0,17.738-5.459,21.697-14.271c3.708-8.625,1.958-18.625-4.792-25.791L578.848,176.917z"/>
</g>
</svg>
