<?xml version="1.0" encoding="utf-8"?>
<!-- Generator: Adobe Illustrator 16.0.0, SVG Export Plug-In . SVG Version: 6.00 Build 0)  -->
<!DOCTYPE svg PUBLIC "-//W3C//DTD SVG 1.1//EN" "http://www.w3.org/Graphics/SVG/1.1/DTD/svg11.dtd">
<svg version="1.1" id="Layer_1" xmlns="http://www.w3.org/2000/svg" xmlns:xlink="http://www.w3.org/1999/xlink" x="0px" y="0px"
	 width="1024px" height="1024px" viewBox="0 0 1024 1024" enable-background="new 0 0 1024 1024" xml:space="preserve">
<g>
	<path fill="#414042" d="M802.902,153.056c-0.57-0.572-1.17-1.124-1.816-1.639c-0.606-0.481-1.233-0.919-1.873-1.325
		C720.287,87.32,620.448,49.771,511.995,49.771c-254.873,0-462.225,207.354-462.225,462.25c0,146.053,68.105,276.5,174.222,361.265
		c0.4,0.372,0.8,0.743,1.235,1.089c0.496,0.395,1.004,0.763,1.523,1.106c78.616,61.829,177.7,98.748,285.246,98.748
		c254.883,0,462.215-207.354,462.215-462.208C974.21,367.281,907.353,237.876,802.902,153.056z M92.437,512.021
		c0-231.354,188.217-419.584,419.559-419.584c91.579,0,176.396,29.502,245.456,79.495L235.465,827.278
		C147.839,750.328,92.437,637.524,92.437,512.021z M511.995,931.563c-90.535,0-174.463-28.826-243.092-77.779l521.805-655.12
		c86.358,76.908,140.835,188.891,140.835,313.358C931.543,743.354,743.337,931.563,511.995,931.563z"/>
	<path fill="#414042" d="M357.09,323.896h34.5v256l142.946-179.438v-76.563h34.499c9.292,0,17.75-5.459,21.709-14.271
		c3.625-8.479,1.979-18.354-4.792-25.791L481.141,177.104c-4.458-5.354-11.052-8.417-18.094-8.417
		c-5.729,0-12.906,3.063-16.917,7.146L339.84,284.188c-6.396,6.813-8.146,16.813-4.292,25.792
		C339.361,318.438,347.809,323.896,357.09,323.896z"/>
	<path fill="#414042" d="M805.961,498.084l0.041-0.021L686.67,380.667l-44.593,55.958v6.813h-5.417L391.59,751.125v19.021
		c0,11.791,9.552,21.333,21.333,21.333h100.791c11.781,0,21.322-9.542,21.322-21.333V609.854c0-12.917,9.834-23.417,21.917-23.417
		h85.124v50.334c0,9.271,5.5,17.729,13.958,21.541c8.208,3.688,19.791,1.604,26.177-4.666l122.915-120.938
		c5.084-4.479,8-10.938,8-17.729C813.127,509.209,810.169,502.375,805.961,498.084z"/>
</g>
</svg>
