<?xml version="1.0" encoding="utf-8"?>
<!-- Generator: Adobe Illustrator 16.0.0, SVG Export Plug-In . SVG Version: 6.00 Build 0)  -->
<!DOCTYPE svg PUBLIC "-//W3C//DTD SVG 1.1//EN" "http://www.w3.org/Graphics/SVG/1.1/DTD/svg11.dtd">
<svg version="1.1" id="Layer_1" xmlns="http://www.w3.org/2000/svg" xmlns:xlink="http://www.w3.org/1999/xlink" x="0px" y="0px"
	 width="1024px" height="1024px" viewBox="0 0 1024 1024" enable-background="new 0 0 1024 1024" xml:space="preserve">
<g>
	<path fill="#414042" d="M604.91,91.479H419.079c-57.292,0-103.916,46.625-103.916,103.917v633.208
		c0,57.292,46.625,103.917,103.916,103.917H604.91c57.292,0,103.927-46.625,103.927-103.917V195.396
		C708.837,138.104,662.202,91.479,604.91,91.479z M514.578,840.979c-50,0-90.666-40.667-90.666-90.667s40.667-90.666,90.666-90.666
		c49.999,0,90.666,40.666,90.666,90.666S564.577,840.979,514.578,840.979z M514.578,606.979c-50,0-90.666-40.667-90.666-90.667
		s40.667-90.666,90.666-90.666c49.999,0,90.666,40.666,90.666,90.666S564.577,606.979,514.578,606.979z M514.578,372.979
		c-50,0-90.666-40.667-90.666-90.667s40.667-90.666,90.666-90.666c49.999,0,90.666,40.666,90.666,90.666
		S564.577,372.979,514.578,372.979z"/>
	<path fill="#414042" d="M514.578,681.646c-38.229,0-69.333,31.104-69.333,69.333s31.104,69.333,69.333,69.333
		c38.229,0,69.332-31.104,69.332-69.333S552.808,681.646,514.578,681.646z"/>
</g>
</svg>
