<?xml version="1.0" encoding="utf-8"?>
<!-- Generator: Adobe Illustrator 16.0.0, SVG Export Plug-In . SVG Version: 6.00 Build 0)  -->
<!DOCTYPE svg PUBLIC "-//W3C//DTD SVG 1.1//EN" "http://www.w3.org/Graphics/SVG/1.1/DTD/svg11.dtd">
<svg version="1.1" id="Layer_1" xmlns="http://www.w3.org/2000/svg" xmlns:xlink="http://www.w3.org/1999/xlink" x="0px" y="0px"
	 width="48px" height="48px" viewBox="0 0 48 48" enable-background="new 0 0 48 48" xml:space="preserve">
<path fill="#414042" d="M44.266,19.496c-0.754-1.049-1.998-1.438-2.971-1.58H12.553c-2.044-0.139-2.517,1.449-2.536,1.518
	c-0.011,0.039-0.025,0.078-0.041,0.117L5.303,31v-5.75l2.764-6.666c0.343-1.133,1.691-3.117,4.514-2.914l22.884-0.002
	c0.672-0.15,1.176-0.746,1.176-1.463c0-0.828-0.672-1.5-1.5-1.5H21.829c-0.833-2.104-3.289-3.545-5.513-3.545H8.155
	c-2.743,0-5.811,2.17-5.811,5.074v18.16c0,2.799,2.277,5.076,5.076,5.076h28.355c2.972,0,3.899-2.473,4.334-3.633L44.618,22.5
	C44.99,21.396,44.865,20.33,44.266,19.496z"/>
</svg>
