<?xml version="1.0" encoding="utf-8"?>
<!-- Generator: Adobe Illustrator 16.0.0, SVG Export Plug-In . SVG Version: 6.00 Build 0)  -->
<!DOCTYPE svg PUBLIC "-//W3C//DTD SVG 1.1//EN" "http://www.w3.org/Graphics/SVG/1.1/DTD/svg11.dtd">
<svg version="1.1" id="Layer_1" xmlns="http://www.w3.org/2000/svg" xmlns:xlink="http://www.w3.org/1999/xlink" x="0px" y="0px"
	 width="48px" height="48px" viewBox="0 0 48 48" enable-background="new 0 0 48 48" xml:space="preserve">
<g>
	<path fill="#414042" d="M43.671,30.482h-3.918v-3.918c0-1.011-0.819-1.83-1.831-1.83c-1.01,0-1.83,0.819-1.83,1.83v3.918h-3.918
		c-1.012,0-1.83,0.82-1.83,1.831s0.818,1.831,1.83,1.831h3.918v3.918c0,1.011,0.82,1.83,1.83,1.83c1.012,0,1.831-0.819,1.831-1.83
		v-3.918h3.918c1.011,0,1.831-0.82,1.831-1.831S44.682,30.482,43.671,30.482z"/>
	<path fill="#414042" d="M32.174,27.482h0.918v-0.918c0-2.663,2.167-4.83,4.83-4.83c2.082,0,3.844,1.33,4.521,3.18l1.924-4.836
		c0.371-1.104,0.246-2.17-0.353-3.004c-0.754-1.049-1.999-1.438-2.972-1.58H12.302c-2.044-0.139-2.517,1.449-2.536,1.518
		c-0.012,0.039-0.025,0.078-0.041,0.117L5.051,28.578v-5.75l2.765-6.666c0.343-1.133,1.691-3.117,4.515-2.914l22.883-0.002
		c0.672-0.15,1.176-0.746,1.176-1.463c0-0.828-0.672-1.5-1.5-1.5H21.578c-0.834-2.104-3.289-3.545-5.514-3.545H7.903
		c-2.743,0-5.811,2.17-5.811,5.074v18.16c0,2.799,2.277,5.076,5.076,5.076h21.03c-0.537-0.779-0.855-1.72-0.855-2.735
		C27.344,29.65,29.51,27.482,32.174,27.482z"/>
</g>
</svg>
