<?xml version="1.0" encoding="utf-8"?>
<!-- Generator: Adobe Illustrator 16.0.0, SVG Export Plug-In . SVG Version: 6.00 Build 0)  -->
<!DOCTYPE svg PUBLIC "-//W3C//DTD SVG 1.1//EN" "http://www.w3.org/Graphics/SVG/1.1/DTD/svg11.dtd">
<svg version="1.1" id="Layer_1" xmlns="http://www.w3.org/2000/svg" xmlns:xlink="http://www.w3.org/1999/xlink" x="0px" y="0px"
	 width="48px" height="48px" viewBox="0 0 48 48" enable-background="new 0 0 48 48" xml:space="preserve">
<g>
	<path fill="#414042" d="M43.794,33.903H32.298c-1.012,0-1.83,0.819-1.83,1.831c0,1.01,0.818,1.83,1.83,1.83h11.496
		c1.012,0,1.832-0.82,1.832-1.83C45.626,34.723,44.806,33.903,43.794,33.903z"/>
	<path fill="#414042" d="M32.298,30.903h8.989l3.379-8.496c0.371-1.104,0.246-2.17-0.352-3.004
		c-0.754-1.049-1.999-1.438-2.972-1.579H12.601c-2.044-0.139-2.517,1.449-2.536,1.517c-0.011,0.04-0.025,0.079-0.041,0.118
		L5.351,30.907v-5.75l2.764-6.666c0.343-1.133,1.691-3.117,4.514-2.914l22.884-0.002c0.672-0.149,1.175-0.746,1.175-1.463
		c0-0.828-0.671-1.5-1.5-1.5H21.877c-0.833-2.104-3.289-3.545-5.513-3.545H8.203c-2.743,0-5.811,2.17-5.811,5.074v18.16
		c0,2.799,2.277,5.077,5.076,5.077h20.307c-0.188-0.517-0.308-1.065-0.308-1.645C27.468,33.07,29.635,30.903,32.298,30.903z"/>
</g>
</svg>
