<?xml version="1.0" encoding="utf-8"?>
<!-- Generator: Adobe Illustrator 16.0.0, SVG Export Plug-In . SVG Version: 6.00 Build 0)  -->
<!DOCTYPE svg PUBLIC "-//W3C//DTD SVG 1.1//EN" "http://www.w3.org/Graphics/SVG/1.1/DTD/svg11.dtd">
<svg version="1.1" id="Layer_1" xmlns="http://www.w3.org/2000/svg" xmlns:xlink="http://www.w3.org/1999/xlink" x="0px" y="0px"
	 width="48px" height="48px" viewBox="0 0 48 48" enable-background="new 0 0 48 48" xml:space="preserve">
<g>
	<path fill="#414042" d="M42.627,34.031l2.771-2.77c0.715-0.715,0.715-1.874-0.002-2.589c-0.713-0.714-1.873-0.715-2.588,0
		l-2.77,2.771l-2.771-2.771c-0.715-0.715-1.873-0.714-2.588,0c-0.715,0.715-0.717,1.873,0,2.589l2.77,2.77l-2.77,2.771
		c-0.715,0.715-0.715,1.874-0.002,2.589c0.717,0.715,1.875,0.715,2.59,0l2.771-2.771l2.77,2.771c0.715,0.715,1.875,0.715,2.59,0
		s0.713-1.874,0-2.589L42.627,34.031z"/>
	<path fill="#414042" d="M31.143,29.967c0-1.29,0.504-2.503,1.416-3.415s2.125-1.415,3.416-1.415c1.289,0,2.502,0.503,3.414,1.415
		l0.65,0.648l0.648-0.648c0.559-0.558,1.238-0.941,1.971-1.172l2.123-5.336c0.371-1.104,0.246-2.17-0.352-3.004
		c-0.754-1.049-1.998-1.438-2.971-1.58H12.716c-2.045-0.139-2.518,1.449-2.536,1.518c-0.011,0.039-0.024,0.078-0.041,0.117
		L5.466,28.544v-5.75l2.764-6.667c0.344-1.133,1.691-3.117,4.514-2.914l22.885-0.002c0.672-0.15,1.174-0.746,1.174-1.463
		c0-0.828-0.67-1.5-1.5-1.5H21.992c-0.833-2.104-3.289-3.545-5.513-3.545H8.318c-2.742,0-5.811,2.17-5.811,5.074v18.16
		c0,2.799,2.277,5.076,5.076,5.076h24.704c0.092-0.11,0.168-0.229,0.271-0.333l0.648-0.65l-0.648-0.647
		C31.645,32.472,31.143,31.257,31.143,29.967z"/>
</g>
</svg>
