<?xml version="1.0" encoding="utf-8"?>
<!-- Generator: Adobe Illustrator 16.0.0, SVG Export Plug-In . SVG Version: 6.00 Build 0)  -->
<!DOCTYPE svg PUBLIC "-//W3C//DTD SVG 1.1//EN" "http://www.w3.org/Graphics/SVG/1.1/DTD/svg11.dtd">
<svg version="1.1" id="Layer_1" xmlns="http://www.w3.org/2000/svg" xmlns:xlink="http://www.w3.org/1999/xlink" x="0px" y="0px"
	 width="48px" height="48px" viewBox="0 0 48 48" enable-background="new 0 0 48 48" xml:space="preserve">
<g>
	<path fill="#414042" d="M44.741,30.507c-0.029-0.04-0.075-0.056-0.106-0.094c-0.018-0.033-0.023-0.07-0.047-0.101
		c-0.112-0.155-0.267-0.25-0.432-0.318c-0.687-0.402-1.573-0.377-2.245,0.134l-5.232,3.998l-1.746-2.09
		c-0.712-0.854-1.984-0.973-2.842-0.257c-0.855,0.716-0.972,1.987-0.257,2.844l2.984,3.573c0.398,0.477,0.972,0.726,1.551,0.726
		c0.428,0,0.857-0.136,1.224-0.416l6.771-5.171C45.248,32.658,45.417,31.394,44.741,30.507z"/>
	<path fill="#414042" d="M33.382,28.311c1.444,0,2.805,0.614,3.757,1.688l2.957-2.26c0.471-0.357,0.992-0.617,1.542-0.789l2.346-5.9
		c0.371-1.104,0.246-2.17-0.352-3.004c-0.754-1.049-1.999-1.438-2.972-1.58H11.918c-2.044-0.139-2.517,1.449-2.536,1.518
		c-0.011,0.039-0.025,0.078-0.041,0.117L4.668,29.55V23.8l2.764-6.666c0.343-1.133,1.691-3.117,4.514-2.914l22.884-0.002
		c0.672-0.15,1.175-0.746,1.175-1.463c0-0.828-0.671-1.5-1.5-1.5H21.194c-0.833-2.104-3.289-3.544-5.513-3.544H7.52
		c-2.743,0-5.811,2.169-5.811,5.074v18.161c0,2.798,2.277,5.075,5.076,5.075h22.39c-1.338-2.095-0.965-4.907,0.993-6.545
		C31.069,28.725,32.211,28.311,33.382,28.311z"/>
</g>
</svg>
