<?xml version="1.0" encoding="utf-8"?>
<!-- Generator: Adobe Illustrator 16.0.0, SVG Export Plug-In . SVG Version: 6.00 Build 0)  -->
<!DOCTYPE svg PUBLIC "-//W3C//DTD SVG 1.1//EN" "http://www.w3.org/Graphics/SVG/1.1/DTD/svg11.dtd">
<svg version="1.1" id="Layer_1" xmlns="http://www.w3.org/2000/svg" xmlns:xlink="http://www.w3.org/1999/xlink" x="0px" y="0px"
	 width="48px" height="48px" viewBox="0 0 48 48" enable-background="new 0 0 48 48" xml:space="preserve">
<g>
	<path fill="#414042" d="M45.438,31.071c-0.059-0.181-0.215-0.313-0.404-0.34l-4.756-0.687l-2.125-4.299
		c-0.084-0.173-0.258-0.28-0.447-0.28s-0.363,0.107-0.447,0.277l-2.133,4.302l-4.756,0.687c-0.188,0.027-0.344,0.159-0.404,0.34
		c-0.059,0.182-0.01,0.381,0.127,0.514l3.445,3.358l-0.811,4.729c-0.031,0.188,0.045,0.377,0.199,0.489
		c0.086,0.063,0.189,0.095,0.293,0.095c0.08,0,0.16-0.019,0.232-0.057l4.254-2.229l4.256,2.229c0.168,0.088,0.373,0.074,0.525-0.038
		c0.154-0.112,0.23-0.303,0.199-0.49l-0.82-4.729l3.445-3.357C45.447,31.452,45.496,31.253,45.438,31.071z"/>
	<path fill="#414042" d="M29.941,27.763l3.195-0.462l1.432-2.887c0.594-1.202,1.795-1.948,3.137-1.948
		c1.344,0,2.547,0.75,3.137,1.95l0.77,1.558l2.49-6.26c0.371-1.104,0.246-2.17-0.352-3.003c-0.754-1.049-2-1.438-2.973-1.581H12.036
		c-2.044-0.139-2.517,1.449-2.535,1.518c-0.012,0.039-0.025,0.078-0.041,0.117L4.786,28.214v-5.75l2.764-6.666
		c0.344-1.133,1.691-3.117,4.515-2.914l22.883-0.002c0.672-0.15,1.176-0.746,1.176-1.463c0-0.828-0.672-1.5-1.5-1.5H21.312
		c-0.833-2.104-3.289-3.545-5.513-3.545H7.637c-2.742,0-5.811,2.17-5.811,5.074v18.161c0,2.799,2.277,5.076,5.076,5.076h22.07
		l-0.979-0.955c-0.957-0.935-1.295-2.308-0.879-3.595C27.533,28.863,28.615,27.954,29.941,27.763z"/>
</g>
</svg>
