<?xml version="1.0" encoding="utf-8"?>
<!-- Generator: Adobe Illustrator 16.0.0, SVG Export Plug-In . SVG Version: 6.00 Build 0)  -->
<!DOCTYPE svg PUBLIC "-//W3C//DTD SVG 1.1//EN" "http://www.w3.org/Graphics/SVG/1.1/DTD/svg11.dtd">
<svg version="1.1" id="Layer_1" xmlns="http://www.w3.org/2000/svg" xmlns:xlink="http://www.w3.org/1999/xlink" x="0px" y="0px"
	 width="48px" height="48px" viewBox="0 0 48 48" enable-background="new 0 0 48 48" xml:space="preserve">
<g>
	<path fill="#414042" d="M45.016,30.404h-2.123v-1.197c0-2.717-2.211-4.927-4.928-4.927s-4.926,2.21-4.926,4.927v1.197h-2.211
		c-0.238,0-0.43,0.193-0.43,0.432v8.848c0,0.238,0.191,0.432,0.43,0.432h14.188c0.24,0,0.434-0.193,0.434-0.432v-8.848
		C45.449,30.598,45.256,30.404,45.016,30.404z M41.596,30.404h-7.26v-1.197c0-2.002,1.627-3.631,3.629-3.631
		s3.631,1.629,3.631,3.631V30.404z"/>
	<path fill="#414042" d="M37.965,21.28c2,0,3.824,0.749,5.221,1.976l1.352-3.4c0.371-1.104,0.246-2.17-0.352-3.003
		c-0.754-1.049-2-1.438-2.973-1.581H12.471c-2.044-0.139-2.517,1.449-2.535,1.518c-0.012,0.039-0.025,0.078-0.041,0.117
		L5.221,28.355v-5.75l2.764-6.666c0.344-1.133,1.691-3.117,4.515-2.914l22.883-0.002c0.672-0.15,1.176-0.746,1.176-1.463
		c0-0.828-0.672-1.5-1.5-1.5H21.748c-0.833-2.104-3.289-3.545-5.513-3.545H8.073c-2.742,0-5.811,2.17-5.811,5.074v18.16
		c0,2.799,2.277,5.076,5.076,5.076h20.06v-3.99c0-1.689,1.227-3.098,2.836-3.379C31.033,23.926,34.195,21.28,37.965,21.28z"/>
</g>
</svg>
