<?xml version="1.0" encoding="utf-8"?>
<!-- Generator: Adobe Illustrator 16.0.0, SVG Export Plug-In . SVG Version: 6.00 Build 0)  -->
<!DOCTYPE svg PUBLIC "-//W3C//DTD SVG 1.1//EN" "http://www.w3.org/Graphics/SVG/1.1/DTD/svg11.dtd">
<svg version="1.1" id="Layer_1" xmlns="http://www.w3.org/2000/svg" xmlns:xlink="http://www.w3.org/1999/xlink" x="0px" y="0px"
	 width="48px" height="48px" viewBox="0 0 48 48" enable-background="new 0 0 48 48" xml:space="preserve">
<g>
	<path fill="#414042" d="M45.808,11.419l-4.813-1.938c-0.92-0.369-1.972,0.076-2.342,0.998c-0.371,0.922,0.075,1.971,0.998,2.342
		l1.007,0.407c-4.294,2.603-9.09,7.482-7.724,14.218c0.173,0.854,0.923,1.443,1.762,1.443c0.118,0,0.239-0.011,0.359-0.037
		c0.975-0.197,1.604-1.146,1.406-2.121c-1.022-5.047,2.896-8.467,5.793-10.254l-0.308,1.037c-0.282,0.953,0.261,1.955,1.214,2.238
		c0.171,0.05,0.343,0.074,0.513,0.074c0.776,0,1.493-0.506,1.725-1.289l1.463-4.938C47.125,12.71,46.669,11.766,45.808,11.419z"/>
	<path fill="#414042" d="M40.628,21.737c-0.981,1.229-1.569,2.703-1.227,4.396c0.256,1.257,0.007,2.538-0.702,3.607
		c-0.708,1.068-1.79,1.797-3.046,2.052c-0.314,0.063-0.637,0.097-0.957,0.097c-2.273,0-4.251-1.619-4.702-3.848
		c-0.578-2.85-0.268-5.677,0.83-8.315H11.406c-2.044-0.139-2.517,1.449-2.536,1.517c-0.012,0.04-0.025,0.079-0.041,0.118
		L4.155,32.81v-5.749l2.765-6.667c0.343-1.133,1.691-3.117,4.515-2.914l20.546-0.002c0.631-1.021,1.383-2.006,2.262-2.938
		c-0.081-0.014-0.164-0.025-0.249-0.025H20.682c-0.833-2.104-3.288-3.545-5.513-3.545H7.008c-2.743,0-5.811,2.17-5.811,5.074v18.16
		c0,2.799,2.277,5.076,5.076,5.076h28.354c2.972,0,3.899-2.473,4.335-3.633l4.508-11.338c0.172-0.51,0.226-1.01,0.188-1.484
		c-0.454-0.001-0.906-0.066-1.351-0.197C41.675,22.44,41.108,22.133,40.628,21.737z"/>
</g>
</svg>
