<?xml version="1.0" encoding="utf-8"?>
<!-- Generator: Adobe Illustrator 16.0.0, SVG Export Plug-In . SVG Version: 6.00 Build 0)  -->
<!DOCTYPE svg PUBLIC "-//W3C//DTD SVG 1.1//EN" "http://www.w3.org/Graphics/SVG/1.1/DTD/svg11.dtd">
<svg version="1.1" id="Layer_1" xmlns="http://www.w3.org/2000/svg" xmlns:xlink="http://www.w3.org/1999/xlink" x="0px" y="0px"
	 width="48px" height="48px" viewBox="0 0 48 48" enable-background="new 0 0 48 48" xml:space="preserve">
<g>
	<path fill="#414042" d="M45.609,11.876c-7.043-0.725-11.993,4.721-14.588,9.415l-0.449-0.996c-0.409-0.915-1.512-1.268-2.462-0.791
		c-0.949,0.476-1.385,1.605-0.977,2.517l2.142,4.77c0.384,0.853,1.379,1.228,2.297,0.864l5.1-2.014
		c0.808-0.316,1.315-1.107,1.294-1.91c-0.004-0.175-0.033-0.349-0.091-0.52c-0.319-0.955-1.375-1.412-2.359-1.025l-1.071,0.424
		c1.783-3.172,5.237-7.563,10.515-7.021c1.02,0.104,1.99-0.643,2.171-1.667c0.022-0.126,0.032-0.253,0.028-0.376
		C47.137,12.681,46.503,11.967,45.609,11.876z"/>
	<path fill="#414042" d="M42.59,18.769c-1.082,0.322-2.05,0.967-2.892,1.775c0.45,0.48,0.803,1.061,1.021,1.712
		c0.152,0.455,0.234,0.928,0.245,1.395c0.056,2.09-1.229,4.012-3.191,4.78l-5.098,2.013c-0.584,0.232-1.195,0.35-1.817,0.35
		c-1.865,0-3.561-1.088-4.319-2.774l-2.144-4.771c-0.822-1.836-0.397-3.914,0.922-5.331H11.606
		c-2.044-0.139-2.517,1.449-2.535,1.518c-0.012,0.039-0.025,0.078-0.041,0.117L4.356,31v-5.75l2.764-6.666
		c0.344-1.133,1.691-3.117,4.515-2.914l19.604-0.002c0.83-1.002,1.805-2.023,2.93-2.963H20.883C20.05,10.602,17.594,9.16,15.37,9.16
		H7.208c-2.742,0-5.811,2.17-5.811,5.074v18.16c0,2.799,2.277,5.076,5.076,5.076h28.355c2.972,0,3.899-2.473,4.334-3.633
		L43.672,22.5c0.372-1.104,0.247-2.17-0.353-3.004C43.109,19.204,42.859,18.968,42.59,18.769z"/>
</g>
</svg>
