<?xml version="1.0" encoding="utf-8"?>
<!-- Generator: Adobe Illustrator 16.0.0, SVG Export Plug-In . SVG Version: 6.00 Build 0)  -->
<!DOCTYPE svg PUBLIC "-//W3C//DTD SVG 1.1//EN" "http://www.w3.org/Graphics/SVG/1.1/DTD/svg11.dtd">
<svg version="1.1" id="Layer_1" xmlns="http://www.w3.org/2000/svg" xmlns:xlink="http://www.w3.org/1999/xlink" x="0px" y="0px"
	 width="48px" height="48px" viewBox="0 0 48 48" enable-background="new 0 0 48 48" xml:space="preserve">
<g>
	<path fill="#414042" d="M35.4,16.088H19.771c-0.025-2.11-2.514-3.816-4.642-3.816H6.341c-2.139,0-4.642,1.725-4.642,3.851v3.817
		v1.047h37.554v-1.047C39.253,17.813,37.528,16.088,35.4,16.088z"/>
	<path fill="#414042" d="M1.699,35.675c0,2.128,1.722,3.852,3.851,3.852H35.4c2.128,0,3.853-1.724,3.853-3.852V22.708H1.699V35.675z
		"/>
	<path fill="#414042" d="M41.428,10.922H25.799c-0.024-2.111-2.513-3.816-4.641-3.816h-8.789c-1.692,0-3.607,1.08-4.335,2.584h7.096
		c2.546,0,5.328,1.481,6.566,3.815H35.4c1.98,0,3.755,0.901,4.938,2.314h4.943v-1.046C45.281,12.646,43.556,10.922,41.428,10.922z"
		/>
	<path fill="#414042" d="M41.836,19.939v14.379c1.934-0.206,3.445-1.822,3.445-3.811V17.541h-3.913
		C41.667,18.283,41.836,19.092,41.836,19.939z"/>
</g>
</svg>
