<?xml version="1.0" encoding="utf-8"?>
<!-- Generator: Adobe Illustrator 16.0.0, SVG Export Plug-In . SVG Version: 6.00 Build 0)  -->
<!DOCTYPE svg PUBLIC "-//W3C//DTD SVG 1.1//EN" "http://www.w3.org/Graphics/SVG/1.1/DTD/svg11.dtd">
<svg version="1.1" id="Layer_1" xmlns="http://www.w3.org/2000/svg" xmlns:xlink="http://www.w3.org/1999/xlink" x="0px" y="0px"
	 width="48px" height="48px" viewBox="0 0 48 48" enable-background="new 0 0 48 48" xml:space="preserve">
<g>
	<path fill="#414042" d="M44.32,28.723l-4.736-4.305c-0.553-0.502-1.461-0.502-2.018,0l-4.734,4.305
		c-0.611,0.557-0.656,1.508-0.101,2.119c0.534,0.588,1.528,0.635,2.119,0.102l2.226-2.023v8.848c0,0.828,0.674,1.5,1.5,1.5
		c0.828,0,1.5-0.672,1.5-1.5V28.92l2.227,2.023c0.588,0.533,1.582,0.488,2.119-0.102C44.977,30.229,44.932,29.279,44.32,28.723z"/>
	<path fill="#414042" d="M30.512,32.859c-1.668-1.836-1.533-4.686,0.303-6.357l4.742-4.311c0.82-0.742,1.894-1.15,3.02-1.15
		c1.131,0,2.205,0.412,3.025,1.156l1.572,1.43l1.1-2.766c0.372-1.104,0.247-2.17-0.352-3.004c-0.754-1.049-1.998-1.438-2.971-1.58
		H12.209c-2.044-0.139-2.517,1.449-2.536,1.518c-0.011,0.039-0.025,0.078-0.041,0.117L4.958,29.361v-5.75l2.764-6.666
		c0.343-1.133,1.691-3.117,4.514-2.914l22.884-0.002c0.672-0.15,1.175-0.746,1.175-1.463c0-0.828-0.671-1.5-1.5-1.5H21.485
		c-0.833-2.104-3.289-3.545-5.513-3.545H7.811C5.068,7.521,2,9.691,2,12.596v18.16c0,2.799,2.277,5.076,5.076,5.076h27v-1.523
		c-0.076,0.004-0.152,0.006-0.229,0.006C32.567,34.314,31.352,33.783,30.512,32.859z"/>
</g>
</svg>
