<?xml version="1.0" encoding="utf-8"?>
<!-- Generator: Adobe Illustrator 16.0.0, SVG Export Plug-In . SVG Version: 6.00 Build 0)  -->
<!DOCTYPE svg PUBLIC "-//W3C//DTD SVG 1.1//EN" "http://www.w3.org/Graphics/SVG/1.1/DTD/svg11.dtd">
<svg version="1.1" id="Layer_1" xmlns="http://www.w3.org/2000/svg" xmlns:xlink="http://www.w3.org/1999/xlink" x="0px" y="0px"
	 width="48px" height="48px" viewBox="0 0 48 48" enable-background="new 0 0 48 48" xml:space="preserve">
<g>
	<path fill="#414042" d="M44.615,31.719c-0.537-0.59-1.531-0.636-2.119-0.102l-2.227,2.023v-8.849c0-0.827-0.672-1.5-1.5-1.5
		c-0.826,0-1.5,0.673-1.5,1.5v8.849l-2.226-2.023c-0.591-0.534-1.585-0.487-2.119,0.102c-0.556,0.611-0.511,1.563,0.101,2.119
		l4.734,4.304c0.557,0.502,1.465,0.502,2.018,0l4.736-4.304C45.125,33.281,45.17,32.331,44.615,31.719z"/>
	<path fill="#414042" d="M30.703,29.702c0.842-0.926,2.058-1.457,3.337-1.457c0.077,0,0.153,0.002,0.229,0.006v-3.459
		c0-2.481,2.02-4.5,4.5-4.5c2.436,0,4.414,1.947,4.486,4.365l1.212-3.047c0.372-1.104,0.247-2.17-0.353-3.004
		c-0.754-1.049-1.998-1.438-2.971-1.58H12.403c-2.044-0.139-2.517,1.449-2.536,1.518c-0.011,0.039-0.025,0.078-0.041,0.117
		L5.152,30.11v-5.75l2.764-6.666c0.343-1.133,1.691-3.117,4.514-2.914l22.884-0.002c0.672-0.15,1.176-0.746,1.176-1.463
		c0-0.828-0.672-1.5-1.5-1.5H21.679c-0.833-2.104-3.289-3.545-5.513-3.545H8.004c-2.743,0-5.811,2.17-5.811,5.074v18.16
		c0,2.799,2.277,5.076,5.076,5.076h24.313l-0.577-0.524C29.172,34.387,29.037,31.535,30.703,29.702z"/>
</g>
</svg>
