<?xml version="1.0" encoding="utf-8"?>
<!-- Generator: Adobe Illustrator 16.0.0, SVG Export Plug-In . SVG Version: 6.00 Build 0)  -->
<!DOCTYPE svg PUBLIC "-//W3C//DTD SVG 1.1//EN" "http://www.w3.org/Graphics/SVG/1.1/DTD/svg11.dtd">
<svg version="1.1" id="Layer_1" xmlns="http://www.w3.org/2000/svg" xmlns:xlink="http://www.w3.org/1999/xlink" x="0px" y="0px"
	 width="48px" height="48px" viewBox="0 0 48 48" enable-background="new 0 0 48 48" xml:space="preserve">
<g>
	<path fill="#414042" d="M30.55,28.254l5.356-0.027c0.49,0,0.971,0.073,1.426,0.213c0.486-0.167,1.003-0.256,1.533-0.259
		l1.817-0.009l2.798-7.036c0.371-1.104,0.246-2.17-0.352-3.004c-0.754-1.049-1.999-1.438-2.972-1.58H11.416
		c-2.044-0.139-2.517,1.449-2.536,1.518c-0.011,0.039-0.025,0.078-0.041,0.117L4.165,29.636v-5.75l2.764-6.666
		c0.343-1.133,1.691-3.117,4.514-2.914l22.884-0.002c0.672-0.15,1.175-0.746,1.175-1.463c0-0.828-0.671-1.5-1.5-1.5H20.691
		c-0.833-2.104-3.289-3.545-5.513-3.545H7.017c-2.743,0-5.811,2.17-5.811,5.074v18.16c0,2.799,2.277,5.076,5.076,5.076h19.545
		l-0.018-2.997c-0.027-1.29,0.455-2.507,1.35-3.417C28.061,28.768,29.268,28.257,30.55,28.254z"/>
	<path fill="#414042" d="M46.351,32.918c-0.009-0.476-0.203-0.921-0.546-1.252c-0.338-0.33-0.783-0.512-1.266-0.512l-5.659,0.026
		c-0.478,0.003-0.923,0.193-1.255,0.534c-0.087,0.089-0.162,0.187-0.227,0.29c-0.066-0.096-0.141-0.185-0.225-0.267
		c-0.34-0.33-0.787-0.512-1.268-0.512l-5.342,0.027c-0.477,0.001-0.922,0.189-1.254,0.53c-0.333,0.339-0.511,0.789-0.5,1.26
		l0.024,4.187c0.011,0.515,0.245,1.003,0.646,1.34c0.324,0.272,0.736,0.423,1.16,0.423l5.348-0.028
		c0.477-0.002,0.922-0.19,1.254-0.53c0.091-0.093,0.168-0.194,0.234-0.302c0.092,0.134,0.195,0.259,0.321,0.366
		c0.323,0.271,0.733,0.42,1.153,0.42l5.67-0.026c0.477-0.002,0.922-0.19,1.254-0.53s0.511-0.79,0.502-1.261L46.351,32.918z
		 M33.928,35.944c0.204,0.169,0.465,0.263,0.736,0.263h0.002l1.453-0.011c-0.205,0.21-0.322,0.508-0.365,0.764l-4.911,0.025
		L30.82,33.26l4.914-0.024c0.057,0.259,0.207,0.496,0.412,0.662l-1.479,0.01c-0.63,0.007-1.146,0.524-1.15,1.152
		C33.516,35.403,33.665,35.726,33.928,35.944z M37.412,36.324c-0.039-0.048-0.078-0.095-0.123-0.136l0.227-0.002
		C37.477,36.229,37.443,36.276,37.412,36.324z M37.264,33.889c0.039-0.03,0.084-0.048,0.12-0.085
		c0.019-0.02,0.026-0.046,0.044-0.066c0.053,0.061,0.12,0.103,0.185,0.149L37.264,33.889z M39.135,36.911
		c-0.056-0.26-0.201-0.532-0.406-0.733l1.918-0.014c0.629-0.005,1.145-0.521,1.15-1.152c0.001-0.307-0.116-0.595-0.332-0.811
		c-0.215-0.217-0.502-0.336-0.816-0.336l-2.004,0.015c0.053-0.038,0.109-0.063,0.156-0.111c0.158-0.161,0.268-0.368,0.313-0.581
		l5.229-0.026l0.022,3.726L39.135,36.911z"/>
</g>
</svg>
