<?xml version="1.0" encoding="utf-8"?>
<!-- Generator: Adobe Illustrator 16.0.0, SVG Export Plug-In . SVG Version: 6.00 Build 0)  -->
<!DOCTYPE svg PUBLIC "-//W3C//DTD SVG 1.1//EN" "http://www.w3.org/Graphics/SVG/1.1/DTD/svg11.dtd">
<svg version="1.1" id="Layer_1" xmlns="http://www.w3.org/2000/svg" xmlns:xlink="http://www.w3.org/1999/xlink" x="0px" y="0px"
	 width="48px" height="48px" viewBox="0 0 48 48" enable-background="new 0 0 48 48" xml:space="preserve">
<g>
	<path fill="#414042" d="M41.628,34.704c0.915-1.025,1.478-2.372,1.478-3.851c0-3.197-2.602-5.797-5.797-5.797
		c-3.197,0-5.797,2.6-5.797,5.797c0,3.195,2.6,5.796,5.797,5.796c0.847,0,1.648-0.187,2.374-0.515l2.866,3.566
		c0.237,0.296,0.588,0.45,0.941,0.45c0.265,0,0.531-0.087,0.755-0.266c0.52-0.418,0.603-1.177,0.185-1.697L41.628,34.704z
		 M37.309,34.235c-1.865,0-3.383-1.517-3.383-3.382s1.518-3.383,3.383-3.383s3.383,1.518,3.383,3.383S39.174,34.235,37.309,34.235z"
		/>
	<path fill="#414042" d="M44.665,16.974c-0.754-1.049-1.999-1.438-2.972-1.58H12.952c-2.044-0.139-2.517,1.449-2.536,1.518
		c-0.011,0.039-0.025,0.078-0.041,0.117L5.702,28.478v-5.75l2.764-6.666c0.343-1.133,1.691-3.117,4.514-2.914l22.883-0.002
		c0.672-0.15,1.176-0.746,1.176-1.463c0-0.828-0.672-1.5-1.5-1.5H22.228c-0.833-2.104-3.289-3.545-5.513-3.545H8.554
		c-2.743,0-5.811,2.17-5.811,5.074v18.16c0,2.799,2.277,5.076,5.076,5.076h21.71c-0.646-1.225-1.018-2.616-1.018-4.095
		c0-4.851,3.946-8.797,8.797-8.797c2.297,0,4.384,0.892,5.952,2.339l1.757-4.418C45.389,18.874,45.264,17.808,44.665,16.974z"/>
</g>
</svg>
