<?xml version="1.0" encoding="utf-8"?>
<!-- Generator: Adobe Illustrator 16.0.0, SVG Export Plug-In . SVG Version: 6.00 Build 0)  -->
<!DOCTYPE svg PUBLIC "-//W3C//DTD SVG 1.1//EN" "http://www.w3.org/Graphics/SVG/1.1/DTD/svg11.dtd">
<svg version="1.1" id="Layer_1" xmlns="http://www.w3.org/2000/svg" xmlns:xlink="http://www.w3.org/1999/xlink" x="0px" y="0px"
	 width="48px" height="48px" viewBox="0 0 48 48" enable-background="new 0 0 48 48" xml:space="preserve">
<g>
	<path fill="#414042" d="M45.125,33.1l-1.36-0.785c0-0.209-0.004-0.387-0.007-0.568c-0.002-0.113-0.004-0.23-0.006-0.355
		l1.373-0.793c0.396-0.234,0.531-0.748,0.302-1.146l-1.27-2.199c-0.223-0.389-0.769-0.533-1.15-0.309l-1.36,0.785
		c-0.113-0.066-0.213-0.125-0.31-0.182c-0.157-0.094-0.309-0.182-0.496-0.287v-1.561c0-0.465-0.377-0.842-0.841-0.842h-2.54
		c-0.465,0-0.843,0.377-0.843,0.842v1.461c-0.303,0.219-0.612,0.428-0.821,0.566l-1.336-0.771c-0.392-0.229-0.93-0.08-1.15,0.307
		l-1.272,2.201c-0.23,0.4-0.093,0.916,0.312,1.15l1.269,0.719c-0.002,0.387-0.001,0.785,0,1.045l-1.269,0.73
		c-0.399,0.234-0.536,0.748-0.306,1.148l1.272,2.207c0.225,0.381,0.759,0.527,1.147,0.303l1.341-0.773
		c0.302,0.191,0.612,0.367,0.825,0.484v1.531c0,0.465,0.377,0.842,0.841,0.842h2.541c0.464,0,0.842-0.377,0.842-0.842V36.48
		c0.2-0.107,0.49-0.275,0.826-0.496l1.335,0.771c0.386,0.223,0.924,0.078,1.147-0.309l1.273-2.201
		C45.664,33.844,45.525,33.328,45.125,33.1z M38.694,34.195c-1.289,0-2.333-1.045-2.333-2.33c0-1.289,1.044-2.334,2.333-2.334
		c1.287,0,2.331,1.045,2.331,2.334C41.025,33.15,39.981,34.195,38.694,34.195z"/>
	<path fill="#414042" d="M34.094,23.848c0.655-1.186,1.919-1.99,3.366-1.99H40c1.443,0,2.703,0.801,3.359,1.98
		c0.017,0,0.034,0,0.051,0c0.216,0,0.427,0.023,0.635,0.059l1.041-2.617c0.371-1.104,0.246-2.17-0.353-3.004
		c-0.754-1.049-1.998-1.438-2.971-1.58H13.021c-2.044-0.139-2.517,1.449-2.536,1.518c-0.011,0.039-0.024,0.078-0.041,0.117
		L5.771,29.779v-5.75l2.764-6.666c0.344-1.133,1.691-3.117,4.515-2.914l22.884-0.002c0.672-0.15,1.175-0.746,1.175-1.463
		c0-0.828-0.671-1.5-1.5-1.5H22.297c-0.834-2.104-3.289-3.545-5.514-3.545H8.622c-2.742,0-5.811,2.17-5.811,5.074v18.16
		c0,2.799,2.277,5.076,5.076,5.076h21.842l-0.286-0.496c-0.714-1.24-0.653-2.725,0.037-3.885c-0.696-1.16-0.762-2.654-0.04-3.906
		l1.264-2.188c0.679-1.189,1.961-1.928,3.348-1.928C34.065,23.848,34.08,23.848,34.094,23.848z"/>
</g>
</svg>
