<?xml version="1.0" encoding="utf-8"?>
<!-- Generator: Adobe Illustrator 16.0.0, SVG Export Plug-In . SVG Version: 6.00 Build 0)  -->
<!DOCTYPE svg PUBLIC "-//W3C//DTD SVG 1.1//EN" "http://www.w3.org/Graphics/SVG/1.1/DTD/svg11.dtd">
<svg version="1.1" id="Layer_1" xmlns="http://www.w3.org/2000/svg" xmlns:xlink="http://www.w3.org/1999/xlink" x="0px" y="0px"
	 width="48px" height="48px" viewBox="0 0 48 48" enable-background="new 0 0 48 48" xml:space="preserve">
<g>
	<path fill="#414042" d="M44.997,30.126l-0.023-0.148c-0.028-0.183-0.058-0.365-0.103-0.546c-0.253-1.011-0.768-1.83-1.529-2.435
		c-0.512-0.406-1.076-0.662-1.68-0.761c-0.465-0.075-0.951-0.086-1.443-0.032c-0.536,0.06-1.033,0.221-1.48,0.479
		c-0.258,0.15-0.484,0.323-0.683,0.501c-0.257-0.229-0.515-0.411-0.788-0.558c-0.457-0.246-0.973-0.394-1.537-0.438
		c-0.451-0.032-0.858-0.021-1.25,0.041c-0.716,0.113-1.365,0.434-1.928,0.95c-0.742,0.68-1.215,1.58-1.405,2.677l-0.056,0.372
		c-0.008,0.048-0.011,0.096-0.011,0.145v0.816c0,0.071,0.009,0.146,0.026,0.22c0.056,0.493,0.184,0.989,0.385,1.513
		c0.001,0.004,0,0.007,0.001,0.01c0.003,0.008,0.007,0.015,0.009,0.022c0.002,0.005,0.003,0.009,0.004,0.013l0.003,0.004
		c0.199,0.555,0.489,1.003,0.511,1.034l0.104,0.168c0.082,0.134,0.164,0.268,0.252,0.396c0.603,0.889,1.355,1.728,2.37,2.642
		c0.772,0.697,1.647,1.389,2.681,2.117c0.192,0.134,0.408,0.201,0.625,0.201c0.219,0,0.438-0.067,0.639-0.204
		c0.652-0.464,1.229-0.899,1.764-1.333c0.943-0.77,1.717-1.502,2.363-2.238c0.526-0.6,0.949-1.183,1.293-1.78
		c0.057-0.097,0.337-0.593,0.483-0.981c0.001-0.002,0.003-0.004,0.004-0.006c0.001-0.004,0.003-0.008,0.004-0.012
		s0.003-0.008,0.005-0.012l0.001-0.005c0.177-0.457,0.296-0.882,0.376-1.384l0.035-0.236c0.008-0.049,0.012-0.099,0.012-0.148
		v-0.816C45.029,30.296,45.017,30.207,44.997,30.126z"/>
	<path fill="#414042" d="M28.125,29.785l0.056-0.371c0.003-0.023,0.007-0.046,0.011-0.068c0.302-1.742,1.109-3.256,2.332-4.375
		c0.991-0.91,2.197-1.499,3.491-1.704c0.406-0.063,0.813-0.095,1.247-0.095c0.221,0,0.447,0.008,0.702,0.026
		c0.737,0.058,1.439,0.222,2.091,0.487c0.579-0.236,1.194-0.393,1.839-0.464c0.312-0.034,0.627-0.052,0.937-0.052
		c0.441,0,0.883,0.035,1.316,0.105c0.242,0.04,0.479,0.099,0.713,0.164l1.129-2.841c0.372-1.104,0.247-2.17-0.352-3.004
		c-0.754-1.049-1.998-1.438-2.971-1.58H11.924c-2.044-0.139-2.517,1.449-2.536,1.518c-0.011,0.039-0.025,0.078-0.041,0.117
		L4.673,29.099v-5.75l2.764-6.666c0.343-1.133,1.691-3.117,4.514-2.914l22.884-0.002c0.672-0.15,1.175-0.746,1.175-1.463
		c0-0.828-0.671-1.5-1.5-1.5H21.2c-0.833-2.104-3.289-3.545-5.513-3.545H7.525c-2.743,0-5.811,2.17-5.811,5.074v18.16
		c0,2.799,2.277,5.076,5.076,5.076h22.668c-0.154-0.245-0.482-0.8-0.742-1.5c-0.008-0.017-0.014-0.033-0.02-0.05
		c-0.002-0.006-0.004-0.011-0.006-0.016c-0.003-0.006-0.005-0.012-0.008-0.018c-0.012-0.033-0.023-0.067-0.035-0.102
		c-0.254-0.685-0.421-1.344-0.506-2.007c-0.041-0.229-0.062-0.46-0.062-0.688v-0.816C28.081,30.174,28.096,29.973,28.125,29.785z"/>
</g>
</svg>
