<?xml version="1.0" encoding="utf-8"?>
<!-- Generator: Adobe Illustrator 16.0.0, SVG Export Plug-In . SVG Version: 6.00 Build 0)  -->
<!DOCTYPE svg PUBLIC "-//W3C//DTD SVG 1.1//EN" "http://www.w3.org/Graphics/SVG/1.1/DTD/svg11.dtd">
<svg version="1.1" id="Layer_1" xmlns="http://www.w3.org/2000/svg" xmlns:xlink="http://www.w3.org/1999/xlink" x="0px" y="0px"
	 width="48px" height="48px" viewBox="0 0 48 48" enable-background="new 0 0 48 48" xml:space="preserve">
<g>
	<path fill="#414042" d="M38.318,31.733c0.961,0.017,1.729-0.766,1.728-1.684c-0.001-0.931-0.748-1.687-1.683-1.692
		c-0.93-0.005-1.688,0.749-1.691,1.684C36.666,30.956,37.417,31.719,38.318,31.733z"/>
	<path fill="#414042" d="M44.439,26.443H32.338c-0.467,0-0.848,0.378-0.848,0.842v10.836c0,0.464,0.381,0.841,0.848,0.841h12.102
		c0.467,0,0.848-0.377,0.848-0.841V27.285C45.287,26.821,44.906,26.443,44.439,26.443z M43.75,35.379h-2.551v-1.143
		c0-1.219-0.967-2.21-2.154-2.21h-1.379c-1.188,0-2.154,0.991-2.154,2.21v1.143h-2.484v-7.452H43.75V35.379z"/>
	<path fill="#414042" d="M43.213,23.443l0.906-2.276c0.371-1.104,0.246-2.17-0.353-3.004c-0.754-1.049-1.999-1.438-2.972-1.58
		H12.054c-2.044-0.139-2.517,1.449-2.536,1.518c-0.011,0.039-0.025,0.078-0.041,0.117L4.803,29.667v-5.75l2.764-6.666
		c0.343-1.133,1.691-3.117,4.514-2.914l22.883-0.002c0.672-0.15,1.176-0.746,1.176-1.463c0-0.828-0.672-1.5-1.5-1.5H21.33
		c-0.833-2.104-3.289-3.545-5.513-3.545H7.655c-2.743,0-5.811,2.17-5.811,5.074v18.16c0,2.799,2.277,5.076,5.076,5.076H28.49v-8.853
		c0-2.118,1.727-3.842,3.848-3.842H43.213z"/>
</g>
</svg>
