<?xml version="1.0" encoding="utf-8"?>
<!-- Generator: Adobe Illustrator 16.0.0, SVG Export Plug-In . SVG Version: 6.00 Build 0)  -->
<!DOCTYPE svg PUBLIC "-//W3C//DTD SVG 1.1//EN" "http://www.w3.org/Graphics/SVG/1.1/DTD/svg11.dtd">
<svg version="1.1" id="Layer_1" xmlns="http://www.w3.org/2000/svg" xmlns:xlink="http://www.w3.org/1999/xlink" x="0px" y="0px"
	 width="48px" height="48px" viewBox="0 0 48 48" enable-background="new 0 0 48 48" xml:space="preserve">
<g>
	<rect x="30.143" y="31.586" fill="#414042" width="11.341" height="7.393"/>
	<circle fill="#414042" cx="32.92" cy="28.43" r="2.364"/>
	<circle fill="#414042" cx="38.799" cy="28.43" r="2.363"/>
	<rect x="42.079" y="33.275" fill="#414042" width="1.216" height="4.016"/>
	<path fill="#414042" d="M44.581,32.443l-0.679,0.615v4.596l0.679,0.615c0.771,0.629,1.051,0.881,1.855,0.881v-7.736
		C45.662,31.414,45.231,31.865,44.581,32.443z"/>
	<path fill="#414042" d="M40.032,16.395H11.291c-2.045-0.139-2.518,1.449-2.537,1.518c-0.011,0.039-0.024,0.078-0.041,0.117
		L4.04,29.479v-5.75l2.765-6.666c0.343-1.133,1.691-3.117,4.514-2.914l22.884-0.002c0.672-0.15,1.175-0.746,1.175-1.463
		c0-0.828-0.671-1.5-1.5-1.5H20.566c-0.834-2.104-3.289-3.545-5.514-3.545h-8.16c-2.743,0-5.811,2.17-5.811,5.074v18.16
		c0,2.799,2.277,5.076,5.076,5.076h20.984v-4.363c0-0.676,0.232-1.293,0.61-1.795c-0.115-0.438-0.196-0.889-0.196-1.361
		c0-2.957,2.406-5.363,5.364-5.363c1.086,0,2.094,0.33,2.939,0.887c0.846-0.557,1.854-0.887,2.939-0.887
		c1.236,0,2.362,0.438,3.271,1.145l1.285-3.232c0.371-1.104,0.246-2.17-0.352-3.004C42.25,16.926,41.005,16.537,40.032,16.395z"/>
</g>
</svg>
