<?xml version="1.0" encoding="utf-8"?>
<!-- Generator: Adobe Illustrator 16.0.0, SVG Export Plug-In . SVG Version: 6.00 Build 0)  -->
<!DOCTYPE svg PUBLIC "-//W3C//DTD SVG 1.1//EN" "http://www.w3.org/Graphics/SVG/1.1/DTD/svg11.dtd">
<svg version="1.1" id="Layer_1" xmlns="http://www.w3.org/2000/svg" xmlns:xlink="http://www.w3.org/1999/xlink" x="0px" y="0px"
	 width="48px" height="48px" viewBox="0 0 48 48" enable-background="new 0 0 48 48" xml:space="preserve">
<g>
	<path fill="#414042" d="M41.384,36.379c0,0.193-0.156,0.348-0.351,0.348s-0.351-0.154-0.351-0.348v-5.658h-1.462v5.658
		c0,0.193-0.157,0.348-0.352,0.348c-0.195,0-0.351-0.154-0.351-0.348v-5.658h-1.335v5.658c0,0.193-0.157,0.348-0.353,0.348
		c-0.191,0-0.35-0.154-0.35-0.348v-5.658H35v7.361c0,0.211,0.171,0.383,0.381,0.383h7.023c0.211,0,0.381-0.172,0.381-0.383v-7.361
		h-1.401V36.379z"/>
	<path fill="#414042" d="M43.357,27.91h-2.324v-1.477c0-0.195-0.157-0.352-0.351-0.352h-3.499c-0.193,0-0.353,0.156-0.353,0.352
		v1.477h-2.403c-0.193,0-0.352,0.156-0.352,0.352v0.672c0,0.193,0.158,0.352,0.352,0.352h8.93c0.193,0,0.352-0.158,0.352-0.352
		v-0.672C43.709,28.066,43.551,27.91,43.357,27.91z M39.601,27.953h-1.415c-0.194,0-0.352-0.156-0.352-0.35
		c0-0.195,0.157-0.352,0.352-0.352h1.415c0.193,0,0.352,0.156,0.352,0.352C39.952,27.797,39.794,27.953,39.601,27.953z"/>
	<path fill="#414042" d="M44.633,18.66c-0.754-1.049-1.999-1.438-2.972-1.58H12.92c-2.045-0.139-2.518,1.449-2.537,1.518
		c-0.011,0.039-0.024,0.078-0.041,0.117L5.669,30.164v-5.75l2.765-6.666c0.343-1.133,1.691-3.117,4.514-2.914l22.884-0.002
		c0.672-0.15,1.175-0.746,1.175-1.463c0-0.828-0.671-1.5-1.5-1.5H22.195c-0.834-2.104-3.289-3.545-5.514-3.545h-8.16
		c-2.743,0-5.811,2.17-5.811,5.074v18.16c0,2.799,2.277,5.076,5.076,5.076H32V31.23c-0.568-0.6-0.924-1.406-0.924-2.297v-0.672
		c0-1.77,1.378-3.223,3.117-3.344c0.555-1.088,1.687-1.836,2.99-1.836h3.499c1.306,0,2.438,0.75,2.991,1.842
		c0.005,0.002,0.009,0.002,0.014,0.004l1.297-3.264C45.355,20.561,45.23,19.494,44.633,18.66z"/>
</g>
</svg>
