<?xml version="1.0" encoding="utf-8"?>
<!-- Generator: Adobe Illustrator 16.0.0, SVG Export Plug-In . SVG Version: 6.00 Build 0)  -->
<!DOCTYPE svg PUBLIC "-//W3C//DTD SVG 1.1//EN" "http://www.w3.org/Graphics/SVG/1.1/DTD/svg11.dtd">
<svg version="1.1" id="Layer_1" xmlns="http://www.w3.org/2000/svg" xmlns:xlink="http://www.w3.org/1999/xlink" x="0px" y="0px"
	 width="48px" height="48px" viewBox="0 0 48 48" enable-background="new 0 0 48 48" xml:space="preserve">
<g>
	<path fill="#414042" d="M43.489,26.941h-7.068c-0.276,0-0.5,0.223-0.5,0.5v12.434c0,0.217,0.141,0.41,0.348,0.477
		c0.051,0.016,0.102,0.023,0.152,0.023c0.159,0,0.313-0.076,0.407-0.211l3.126-4.4l3.128,4.4c0.126,0.176,0.349,0.252,0.56,0.188
		c0.207-0.066,0.348-0.26,0.348-0.477V27.441C43.989,27.164,43.766,26.941,43.489,26.941z"/>
	<path fill="#414042" d="M44.826,16.75c-0.754-1.049-1.999-1.438-2.972-1.58H13.113c-2.045-0.139-2.518,1.449-2.537,1.518
		c-0.011,0.039-0.024,0.078-0.041,0.117L5.862,28.254v-5.75l2.765-6.666c0.343-1.133,1.691-3.117,4.514-2.914l22.884-0.002
		c0.672-0.15,1.175-0.746,1.175-1.463c0-0.828-0.671-1.5-1.5-1.5H22.389c-0.834-2.104-3.289-3.545-5.514-3.545h-8.16
		c-2.743,0-5.811,2.17-5.811,5.074v18.16c0,2.799,2.277,5.076,5.076,5.076h24.94v-7.283c0-1.93,1.57-3.5,3.5-3.5h7.068
		c0.008,0,0.015,0.002,0.022,0.002l1.666-4.189C45.549,18.65,45.424,17.584,44.826,16.75z"/>
</g>
</svg>
