<?xml version="1.0" encoding="utf-8"?>
<!-- Generator: Adobe Illustrator 16.0.0, SVG Export Plug-In . SVG Version: 6.00 Build 0)  -->
<!DOCTYPE svg PUBLIC "-//W3C//DTD SVG 1.1//EN" "http://www.w3.org/Graphics/SVG/1.1/DTD/svg11.dtd">
<svg version="1.1" id="Layer_1" xmlns="http://www.w3.org/2000/svg" xmlns:xlink="http://www.w3.org/1999/xlink" x="0px" y="0px"
	 width="48px" height="48px" viewBox="0 0 48 48" enable-background="new 0 0 48 48" xml:space="preserve">
<g>
	<path fill="#414042" d="M32.334,39.271c-0.047,0.17,0.008,0.352,0.142,0.468c0.085,0.074,0.193,0.113,0.303,0.113
		c0.062,0,0.122-0.012,0.181-0.036l3.828-1.631c0.002-0.001,0.004-0.003,0.006-0.004c0.004-0.003,0.008-0.007,0.013-0.01
		l-3.354-3.02L32.334,39.271z"/>
	<polygon fill="#414042" points="34.656,33.758 38.094,36.851 43.754,30.826 40.315,27.732 	"/>
	<path fill="#414042" d="M46.193,26.54c-0.428-0.985-1.461-1.729-2.402-1.729c-0.471,0-0.895,0.181-1.225,0.523
		c-0.32,0.333-0.521,0.54-0.639,0.686l-0.002-0.002l-0.348,0.37l3.438,3.094l0.277-0.297c0,0,0.188-0.197,0.641-0.685
		C46.416,27.984,46.511,27.27,46.193,26.54z"/>
	<path fill="#414042" d="M38.129,25.679c0.221-0.236,0.479-0.414,0.748-0.562c0.133-0.282,0.297-0.551,0.515-0.782l0.323-0.346
		c0.166-0.19,0.361-0.393,0.628-0.67l0.06-0.063c0.896-0.932,2.099-1.445,3.389-1.445c0.018,0,0.035,0.004,0.053,0.004l0.43-1.081
		c0.372-1.104,0.247-2.17-0.352-3.004c-0.754-1.049-1.998-1.438-2.971-1.58H12.209c-2.044-0.139-2.517,1.449-2.536,1.518
		c-0.011,0.039-0.025,0.078-0.041,0.117L4.958,29.234v-5.75l2.764-6.666c0.343-1.133,1.691-3.117,4.514-2.914l22.884-0.002
		c0.672-0.15,1.175-0.746,1.175-1.463c0-0.828-0.671-1.5-1.5-1.5H21.485c-0.833-2.104-3.289-3.545-5.513-3.545H7.811
		C5.068,7.395,2,9.564,2,12.469v18.16c0,2.799,2.277,5.076,5.076,5.076h23.117l0.363-1.339c0.205-0.758,0.696-1.393,1.353-1.785
		c0.137-0.319,0.318-0.619,0.561-0.877L38.129,25.679z"/>
</g>
</svg>
