<?xml version="1.0" encoding="utf-8"?>
<!-- Generator: Adobe Illustrator 16.0.0, SVG Export Plug-In . SVG Version: 6.00 Build 0)  -->
<!DOCTYPE svg PUBLIC "-//W3C//DTD SVG 1.1//EN" "http://www.w3.org/Graphics/SVG/1.1/DTD/svg11.dtd">
<svg version="1.1" id="Layer_1" xmlns="http://www.w3.org/2000/svg" xmlns:xlink="http://www.w3.org/1999/xlink" x="0px" y="0px"
	 width="48px" height="48px" viewBox="0 0 48 48" enable-background="new 0 0 48 48" xml:space="preserve">
<g>
	<path fill="#414042" d="M44.223,32.779c-0.552,0-1,0.447-1,1c0,2.164-1.761,3.926-3.926,3.926c-2.164,0-3.925-1.762-3.925-3.926
		c0-1.73,1.132-3.186,2.687-3.707l-0.504,0.885c-0.272,0.48-0.105,1.09,0.375,1.363c0.156,0.09,0.326,0.131,0.494,0.131
		c0.348,0,0.686-0.182,0.869-0.504l1.518-2.664c0.131-0.23,0.165-0.504,0.095-0.76s-0.239-0.475-0.47-0.605l-2.664-1.516
		c-0.48-0.273-1.092-0.105-1.364,0.375s-0.105,1.09,0.374,1.363l0.273,0.156c-2.158,0.887-3.683,3.008-3.683,5.482
		c0,3.268,2.658,5.926,5.925,5.926c3.268,0,5.926-2.658,5.926-5.926C45.223,33.227,44.775,32.779,44.223,32.779z"/>
	<path fill="#414042" d="M33.798,25.299c0.708-1.25,2.042-2.027,3.479-2.027c0.691,0,1.375,0.182,1.977,0.523l2.663,1.514
		c0.317,0.182,0.595,0.418,0.85,0.676l2.028-5.102c0.372-1.104,0.247-2.17-0.352-3.004c-0.754-1.049-1.998-1.438-2.971-1.58H12.73
		c-2.044-0.139-2.517,1.449-2.536,1.518c-0.011,0.039-0.025,0.078-0.041,0.117L5.48,29.383v-5.75l2.764-6.666
		c0.343-1.133,1.691-3.117,4.514-2.914l22.884-0.002c0.672-0.15,1.175-0.746,1.175-1.463c0-0.828-0.671-1.5-1.5-1.5H22.006
		c-0.833-2.104-3.289-3.545-5.513-3.545H8.332c-2.743,0-5.811,2.17-5.811,5.074v18.16c0,2.799,2.277,5.076,5.076,5.076h23.027
		c-0.159-0.668-0.253-1.359-0.253-2.074c0-2.564,1.084-4.934,2.905-6.592C33.289,26.545,33.458,25.895,33.798,25.299z"/>
</g>
</svg>
