<?xml version="1.0" encoding="utf-8"?>
<!-- Generator: Adobe Illustrator 16.0.0, SVG Export Plug-In . SVG Version: 6.00 Build 0)  -->
<!DOCTYPE svg PUBLIC "-//W3C//DTD SVG 1.1//EN" "http://www.w3.org/Graphics/SVG/1.1/DTD/svg11.dtd">
<svg version="1.1" id="Layer_1" xmlns="http://www.w3.org/2000/svg" xmlns:xlink="http://www.w3.org/1999/xlink" x="0px" y="0px"
	 width="48px" height="48px" viewBox="0 0 48 48" enable-background="new 0 0 48 48" xml:space="preserve">
<g>
	<path fill="#414042" d="M43.828,27.309l-8.814-0.713c-0.278-0.014-0.554,0.072-0.759,0.262c-0.206,0.189-0.322,0.455-0.322,0.734
		v4.285v3.355c-0.135-0.023-0.271-0.043-0.413-0.043c-1.331,0-2.414,1.082-2.414,2.414c0,1.33,1.083,2.414,2.414,2.414
		c1.33,0,2.413-1.084,2.413-2.414c0-0.059-0.013-0.111-0.017-0.168c0.002-0.029,0.017-0.055,0.017-0.084v-4.391l6.815,0.553v2.432
		c-0.135-0.023-0.272-0.041-0.414-0.041c-1.331,0-2.414,1.082-2.414,2.414c0,1.33,1.083,2.412,2.414,2.412s2.414-1.082,2.414-2.412
		c0-0.059-0.014-0.111-0.018-0.168c0.003-0.029,0.018-0.055,0.018-0.084V32.59v-4.283C44.748,27.785,44.348,27.352,43.828,27.309z
		 M42.748,31.506l-6.815-0.551v-2.279l6.815,0.553V31.506z"/>
	<path fill="#414042" d="M34.957,23.594c0.067,0,0.136,0.002,0.204,0.006c0.031,0,0.063,0.004,0.095,0.006l7.596,0.615l1.735-4.365
		c0.372-1.104,0.247-2.17-0.353-3.004c-0.754-1.049-1.998-1.438-2.971-1.58H12.522c-2.044-0.139-2.517,1.449-2.536,1.518
		c-0.011,0.039-0.025,0.078-0.041,0.117L5.271,28.355v-5.75l2.764-6.666c0.343-1.133,1.691-3.117,4.514-2.914l22.884-0.002
		c0.672-0.15,1.176-0.746,1.176-1.463c0-0.828-0.672-1.5-1.5-1.5H21.798c-0.833-2.104-3.289-3.545-5.513-3.545H8.124
		c-2.743,0-5.811,2.17-5.811,5.074v18.16c0,2.799,2.277,5.076,5.076,5.076h21.486c0.498-0.828,1.208-1.514,2.058-1.977v-0.973
		v-4.285c0-1.113,0.47-2.186,1.292-2.943C32.965,23.969,33.935,23.594,34.957,23.594z"/>
</g>
</svg>
