<?xml version="1.0" encoding="utf-8"?>
<!-- Generator: Adobe Illustrator 16.0.0, SVG Export Plug-In . SVG Version: 6.00 Build 0)  -->
<!DOCTYPE svg PUBLIC "-//W3C//DTD SVG 1.1//EN" "http://www.w3.org/Graphics/SVG/1.1/DTD/svg11.dtd">
<svg version="1.1" id="Layer_1" xmlns="http://www.w3.org/2000/svg" xmlns:xlink="http://www.w3.org/1999/xlink" x="0px" y="0px"
	 width="48px" height="48px" viewBox="0 0 48 48" enable-background="new 0 0 48 48" xml:space="preserve">
<g>
	<path fill="#414042" d="M29.605,26.301h-1.027v-1.02h0.84c0.553,0,1-0.408,1-0.912v-0.051v-4.861v-0.279
		c0-0.527-0.447-0.953-1-0.953h-3.625c-0.553,0-1,0.426-1,0.953v0.279v4.861v0.051c0,0.504,0.447,0.912,1,0.912h0.785v1.02h-0.973
		c-0.553,0-1,0.408-1,0.912c0,0.015,0.008,0.026,0.009,0.04c0,0.015-0.009,0.027-0.009,0.042c0,0.527,0.447,0.953,1,0.953h0.973
		v1.225h-0.973c-0.553,0-1,0.408-1,0.912c0,0.04,0.02,0.073,0.025,0.111c-0.005,0.04-0.025,0.076-0.025,0.117
		c0,0.527,0.447,0.955,1,0.955h0.973v1.078h-0.973c-0.553,0-1,0.406-1,0.91c0,0.065,0.026,0.123,0.041,0.185
		c-0.014,0.063-0.041,0.124-0.041,0.192c0,0.527,0.447,0.953,1,0.953h0.973v1.434v0.504c0,0.527,0.447,0.955,1,0.955
		s1-0.428,1-0.955V36.32v-1.434h1.027c0.553,0,1-0.426,1-0.953c0-0.068-0.026-0.129-0.041-0.192
		c0.015-0.062,0.041-0.119,0.041-0.185c0-0.504-0.447-0.91-1-0.91h-1.027v-1.078h1.027c0.553,0,1-0.428,1-0.955
		c0-0.041-0.02-0.077-0.025-0.117c0.006-0.038,0.025-0.071,0.025-0.111c0-0.504-0.447-0.912-1-0.912h-1.027v-1.225h1.027
		c0.553,0,1-0.426,1-0.953c0-0.015-0.008-0.027-0.009-0.042c0.001-0.014,0.009-0.025,0.009-0.04
		C30.605,26.709,30.158,26.301,29.605,26.301z M26.793,23.363v-2.994h1.625v2.994H26.793z"/>
	<path fill="#414042" d="M21.605,33.934c0-0.594,0.132-1.154,0.37-1.66c-0.237-0.504-0.37-1.066-0.37-1.66
		c0-0.592,0.132-1.154,0.37-1.66c-0.237-0.504-0.37-1.066-0.37-1.658c0-0.615,0.142-1.197,0.396-1.715
		c-0.135-0.396-0.208-0.82-0.208-1.262v-5.141c0-0.33,0.054-0.646,0.131-0.953h-8.719c-2.044-0.139-2.517,1.449-2.536,1.518
		c-0.011,0.039-0.025,0.078-0.041,0.117L5.955,31.309v-5.75l2.764-6.666c0.343-1.133,1.691-3.117,4.514-2.914l10.231-0.002
		c0.657-0.469,1.458-0.752,2.329-0.752h3.625c0.871,0,1.67,0.283,2.328,0.752h4.371c0.672-0.15,1.175-0.746,1.175-1.463
		c0-0.828-0.671-1.5-1.5-1.5H22.481c-0.833-2.104-3.289-3.545-5.513-3.545H8.807c-2.743,0-5.811,2.17-5.811,5.074v18.16
		c0,2.799,2.277,5.076,5.076,5.076h15.64c-0.035-0.139-0.078-0.273-0.098-0.418C22.415,36.678,21.605,35.398,21.605,33.934z"/>
	<path fill="#414042" d="M44.918,19.805c-0.754-1.049-1.998-1.438-2.971-1.58h-8.66c0.077,0.307,0.131,0.623,0.131,0.953v5.141
		c0,0.441-0.073,0.865-0.209,1.262c0.254,0.518,0.396,1.1,0.396,1.715c0,0.592-0.133,1.154-0.369,1.658
		c0.236,0.506,0.369,1.068,0.369,1.66c0,0.594-0.133,1.156-0.369,1.66c0.236,0.506,0.369,1.066,0.369,1.66
		c0,1.488-0.836,2.787-2.068,3.461c-0.02,0.133-0.061,0.256-0.094,0.385h4.983c2.972,0,3.899-2.473,4.335-3.633l4.508-11.338
		C45.642,21.705,45.517,20.639,44.918,19.805z"/>
</g>
</svg>
