<?xml version="1.0" encoding="utf-8"?>
<!-- Generator: Adobe Illustrator 16.0.0, SVG Export Plug-In . SVG Version: 6.00 Build 0)  -->
<!DOCTYPE svg PUBLIC "-//W3C//DTD SVG 1.1//EN" "http://www.w3.org/Graphics/SVG/1.1/DTD/svg11.dtd">
<svg version="1.1" id="Layer_1" xmlns="http://www.w3.org/2000/svg" xmlns:xlink="http://www.w3.org/1999/xlink" x="0px" y="0px"
	 width="48px" height="48px" viewBox="0 0 48 48" enable-background="new 0 0 48 48" xml:space="preserve">
<g>
	<path fill="#414042" d="M38.774,25.979c-3.897,0-7.068,3.172-7.068,7.068c0,3.898,3.171,7.068,7.068,7.068s7.068-3.17,7.068-7.068
		C45.843,29.15,42.672,25.979,38.774,25.979z M34.306,33.047c0-2.463,2.005-4.469,4.469-4.469c0.729,0,1.409,0.193,2.019,0.505
		l-6.029,5.897C34.479,34.394,34.306,33.742,34.306,33.047z M38.774,37.516c-0.821,0-1.582-0.238-2.243-0.626l6.132-5.999
		c0.358,0.643,0.58,1.371,0.58,2.156C43.243,35.512,41.238,37.516,38.774,37.516z"/>
	<path fill="#414042" d="M38.774,22.979c1.478,0,2.878,0.328,4.144,0.902l1.355-3.409c0.371-1.104,0.246-2.17-0.352-3.004
		c-0.754-1.049-1.999-1.438-2.972-1.58H12.208c-2.044-0.139-2.517,1.449-2.536,1.518c-0.011,0.039-0.025,0.078-0.041,0.117
		L4.958,28.972v-5.75l2.764-6.666c0.343-1.133,1.691-3.117,4.514-2.914L35.12,13.64c0.672-0.15,1.175-0.746,1.175-1.463
		c0-0.828-0.671-1.5-1.5-1.5H21.484c-0.833-2.104-3.289-3.545-5.513-3.545H7.81C5.067,7.132,2,9.302,2,12.206v18.16
		c0,2.799,2.277,5.076,5.076,5.076h21.93c-0.188-0.77-0.3-1.569-0.3-2.396C28.706,27.495,33.223,22.979,38.774,22.979z"/>
</g>
</svg>
