<?xml version="1.0" encoding="utf-8"?>
<!-- Generator: Adobe Illustrator 16.0.0, SVG Export Plug-In . SVG Version: 6.00 Build 0)  -->
<!DOCTYPE svg PUBLIC "-//W3C//DTD SVG 1.1//EN" "http://www.w3.org/Graphics/SVG/1.1/DTD/svg11.dtd">
<svg version="1.1" id="Layer_1" xmlns="http://www.w3.org/2000/svg" xmlns:xlink="http://www.w3.org/1999/xlink" x="0px" y="0px"
	 width="48px" height="48px" viewBox="0 0 48 48" enable-background="new 0 0 48 48" xml:space="preserve">
<path fill="#414042" d="M47.141,19.173L25.27,2.421c-0.384-0.294-0.801-0.443-1.24-0.443c-0.753,0-1.28,0.443-1.312,0.473
	L0.828,19.216c-0.494,0.389-0.971,1.304-0.265,2.231l2.4,3.157c0.05,0.072,0.509,0.706,1.226,0.706c0.321,0,0.625-0.126,0.875-0.351
	l1.009-0.773l0,19.647c-0.006,0.112-0.041,1.116,0.611,1.807c0.373,0.396,0.879,0.597,1.505,0.597l0.14-0.004l10.042,0.003
	c0.128,0,0.251-0.052,0.342-0.143c0.09-0.091,0.142-0.214,0.142-0.343l0.005-20.526c0-0.576,0.467-1.044,1.042-1.044h8.222
	c0.572,0,1.038,0.468,1.038,1.043l-0.013,20.527c0,0.129,0.051,0.252,0.142,0.343c0.09,0.091,0.213,0.143,0.342,0.143l10.194-0.002
	c0.981,0,2.128-0.56,2.128-2.137V24.187l0.931,0.713c0.045,0.04,0.451,0.384,0.997,0.384c0.302,0,0.742-0.106,1.129-0.612
	l2.405-3.173c0.056-0.05,0.538-0.51,0.489-1.166C47.873,19.881,47.607,19.485,47.141,19.173z M46.709,20.845l-2.466,3.238
	c-0.176,0.232-0.314,0.232-0.36,0.232c-0.155,0-0.314-0.105-0.385-0.164l-1.732-1.329c-0.146-0.112-0.343-0.131-0.508-0.049
	c-0.165,0.082-0.27,0.25-0.27,0.435v20.891c0,1.016-0.706,1.132-1.225,1.166l-9.648,0.003l0.014-20.042
	c0-1.11-0.899-2.014-2.005-2.014h-8.222c-1.107,0-2.008,0.904-2.008,2.014L17.89,45.267l-9.586-0.002L8.19,45.268
	c-0.353,0-0.614-0.095-0.8-0.29c-0.377-0.396-0.351-1.086-0.35-1.117V23.207c0-0.185-0.105-0.353-0.27-0.435
	c-0.067-0.034-0.141-0.05-0.214-0.05c-0.104,0-0.208,0.034-0.293,0.1l-1.813,1.391c-0.307,0.273-0.591-0.019-0.706-0.178
	l-2.413-3.175c-0.339-0.445-0.045-0.767,0.088-0.877L23.325,3.204c0.003-0.002,0.308-0.257,0.704-0.257
	c0.226,0,0.439,0.08,0.654,0.245l21.896,16.77c0.129,0.087,0.349,0.259,0.364,0.44C46.956,20.561,46.814,20.735,46.709,20.845z"/>
</svg>
