<?xml version="1.0" encoding="utf-8"?>
<!-- Generator: Adobe Illustrator 16.0.0, SVG Export Plug-In . SVG Version: 6.00 Build 0)  -->
<!DOCTYPE svg PUBLIC "-//W3C//DTD SVG 1.1//EN" "http://www.w3.org/Graphics/SVG/1.1/DTD/svg11.dtd">
<svg version="1.1" id="Layer_1" xmlns="http://www.w3.org/2000/svg" xmlns:xlink="http://www.w3.org/1999/xlink" x="0px" y="0px"
	 width="48px" height="48px" viewBox="0 0 48 48" enable-background="new 0 0 48 48" xml:space="preserve">
<g>
	<path fill="#414042" d="M45.486,23.607h-5.642C39.584,15.26,32.876,8.531,24.556,8.269V2.607c0-0.276-0.223-0.5-0.499-0.5
		s-0.498,0.224-0.498,0.5v5.661C15.24,8.53,8.534,15.26,8.272,23.607H2.629c-0.275,0-0.499,0.224-0.499,0.5s0.223,0.5,0.499,0.5
		h5.643c0.261,8.348,6.968,15.077,15.287,15.339v5.661c0,0.276,0.223,0.5,0.498,0.5s0.499-0.224,0.499-0.5v-5.661
		c8.32-0.263,15.028-6.992,15.289-15.339h5.642c0.275,0,0.498-0.224,0.498-0.5S45.762,23.607,45.486,23.607z M24.556,38.946v-1.999
		c0-0.276-0.223-0.5-0.499-0.5s-0.498,0.224-0.498,0.5v1.999c-7.77-0.261-14.03-6.542-14.29-14.339h1.991
		c0.275,0,0.498-0.224,0.498-0.5s-0.223-0.5-0.498-0.5H9.27c0.26-7.796,6.52-14.078,14.29-14.339v1.999c0,0.276,0.223,0.5,0.498,0.5
		s0.499-0.224,0.499-0.5V9.269c7.771,0.261,14.032,6.542,14.292,14.339h-1.993c-0.275,0-0.498,0.224-0.498,0.5s0.223,0.5,0.498,0.5
		h1.993C38.588,32.403,32.327,38.686,24.556,38.946z"/>
	<path fill="#414042" d="M24.059,19.711c-2.417,0-4.383,1.972-4.383,4.396c0,2.425,1.966,4.398,4.383,4.398
		c2.417,0,4.383-1.974,4.383-4.398C28.441,21.684,26.476,19.711,24.059,19.711z M24.059,27.506c-1.867,0-3.386-1.524-3.386-3.398
		c0-1.873,1.519-3.396,3.386-3.396s3.387,1.523,3.387,3.396C27.445,25.981,25.926,27.506,24.059,27.506z"/>
</g>
</svg>
