<?xml version="1.0" encoding="utf-8"?>
<!-- Generator: Adobe Illustrator 16.0.0, SVG Export Plug-In . SVG Version: 6.00 Build 0)  -->
<!DOCTYPE svg PUBLIC "-//W3C//DTD SVG 1.1//EN" "http://www.w3.org/Graphics/SVG/1.1/DTD/svg11.dtd">
<svg version="1.1" id="Layer_1" xmlns="http://www.w3.org/2000/svg" xmlns:xlink="http://www.w3.org/1999/xlink" x="0px" y="0px"
	 width="48px" height="48px" viewBox="0 0 48 48" enable-background="new 0 0 48 48" xml:space="preserve">
<g>
	<path fill="#414042" d="M41.659,7.81H6.955V4.584c0-1.601,1.298-2.903,2.895-2.903h31.81c0.275,0,0.498-0.224,0.498-0.5
		s-0.223-0.5-0.498-0.5H9.849c-2.146,0-3.891,1.751-3.891,3.903V8.31v38.724c0,0.276,0.223,0.5,0.499,0.5h35.203
		c0.275,0,0.498-0.224,0.498-0.5V8.31C42.157,8.033,41.935,7.81,41.659,7.81z M41.161,46.533H6.955V8.81h34.207V46.533z"/>
	<path fill="#414042" d="M14.683,40.867c0.245,0.033,0.427,0.05,0.593,0.05h0c0.172,0,0.332-0.018,0.513-0.056
		c3.232-0.67,4.647-3.899,4.974-5.703c0.079-0.443-0.006-0.989-0.019-1.063c-0.022-0.115-0.272-1.174-2.136-2.623l-0.018-0.016
		c2.898-5.067,7.146-6.927,8.383-7.378c1.287,2.027,2.237,2.35,2.769,2.35c0.002,0,0.005,0,0.008,0
		c4.359-0.233,5.966-2.693,6.454-3.74c0.402-0.859,0.098-1.886,0.033-2.073c-1.014-2.032-2.844-3.106-5.291-3.106
		c-2.184,0-4.098,0.844-4.165,0.874C16.238,22.724,13.264,30.23,13.15,30.53c-1.576,3.683-1.865,6.515-0.861,8.416
		C13.135,40.551,14.594,40.851,14.683,40.867z M14.073,30.907c0.028-0.074,2.964-7.431,13.101-11.604
		c0.018-0.008,1.808-0.793,3.773-0.793c2.074,0,3.554,0.859,4.369,2.479c0.064,0.209,0.188,0.846-0.014,1.276
		c-0.412,0.884-1.784,2.961-5.62,3.168c-0.007-0.001-0.773-0.05-2.064-2.21c-0.114-0.192-0.346-0.282-0.559-0.225
		c-0.24,0.066-5.925,1.693-9.534,8.323c-0.11,0.203-0.068,0.455,0.103,0.61l0.341,0.308c1.561,1.215,1.794,2.033,1.795,2.033
		c0.019,0.119,0.06,0.479,0.019,0.71c-0.031,0.171-0.798,4.197-4.197,4.901c-0.115,0.024-0.207,0.035-0.309,0.035h0
		c-0.129,0-0.27-0.016-0.428-0.036c-0.043-0.009-1.076-0.238-1.69-1.425C12.58,37.34,12.268,35.127,14.073,30.907z"/>
</g>
</svg>
