<?xml version="1.0" encoding="utf-8"?>
<!-- Generator: Adobe Illustrator 16.0.0, SVG Export Plug-In . SVG Version: 6.00 Build 0)  -->
<!DOCTYPE svg PUBLIC "-//W3C//DTD SVG 1.1//EN" "http://www.w3.org/Graphics/SVG/1.1/DTD/svg11.dtd">
<svg version="1.1" id="Layer_1" xmlns="http://www.w3.org/2000/svg" xmlns:xlink="http://www.w3.org/1999/xlink" x="0px" y="0px"
	 width="48px" height="48px" viewBox="0 0 48 48" enable-background="new 0 0 48 48" xml:space="preserve">
<g>
	<path fill="#414042" d="M41.659,7.808H6.955V4.584c0-1.601,1.298-2.903,2.895-2.903h31.81c0.275,0,0.498-0.224,0.498-0.5
		s-0.223-0.5-0.498-0.5H9.849c-2.146,0-3.891,1.751-3.891,3.903v3.724v38.725c0,0.276,0.223,0.5,0.499,0.5h35.203
		c0.275,0,0.498-0.224,0.498-0.5V8.308C42.157,8.032,41.935,7.808,41.659,7.808z M41.161,46.533H6.955V8.808h34.207V46.533z"/>
	<path fill="#414042" d="M13.11,39.14h21.895c0.275,0,0.498-0.224,0.498-0.5V35.98c-0.107-3.407-6.437-4.341-7.943-4.515
		c-0.196-0.632-0.358-1.973-0.445-3.715c0.485-0.729,0.844-1.633,1.023-2.652c0.481-0.673,0.679-1.342,0.588-1.99
		c-0.093-0.653-0.453-1.09-0.666-1.298c-0.571-2.492-2.279-4.218-4.196-4.218c-2.052,0-3.834,1.962-4.288,4.692
		c-0.224,0.23-0.607,0.719-0.631,1.385c-0.02,0.548,0.205,1.068,0.669,1.549c0.229,1.191,0.713,2.203,1.35,2.973
		c-0.122,1.954-0.287,2.862-0.413,3.274c-1.509,0.175-7.833,1.11-7.94,4.53v2.644C12.611,38.916,12.834,39.14,13.11,39.14z
		 M20.417,24.61c-0.325-0.306-0.484-0.608-0.477-0.898c0.013-0.449,0.415-0.792,0.416-0.792c0.097-0.079,0.162-0.192,0.179-0.317
		c0.333-2.323,1.732-4.01,3.328-4.01c1.481,0,2.821,1.475,3.256,3.585c0.024,0.117,0.093,0.224,0.187,0.297
		c0.165,0.129,0.937,0.835-0.036,2.12c-0.05,0.065-0.082,0.142-0.096,0.223c-0.362,2.251-1.755,3.885-3.311,3.885
		c-1.532,0-2.918-1.604-3.296-3.813C20.549,24.782,20.496,24.684,20.417,24.61z M13.608,36.012c0.074-2.41,5.324-3.402,7.341-3.582
		c0.171-0.015,0.322-0.118,0.4-0.271c0.246-0.487,0.424-1.487,0.552-3.096c0.594,0.404,1.259,0.641,1.962,0.641
		c0.85,0,1.64-0.339,2.316-0.912c0.122,1.703,0.317,2.839,0.584,3.367c0.078,0.154,0.229,0.257,0.4,0.271
		c2.018,0.179,7.267,1.169,7.342,3.566v2.144H13.608V36.012z"/>
</g>
</svg>
