<?xml version="1.0" encoding="utf-8"?>
<!-- Generator: Adobe Illustrator 16.0.0, SVG Export Plug-In . SVG Version: 6.00 Build 0)  -->
<!DOCTYPE svg PUBLIC "-//W3C//DTD SVG 1.1//EN" "http://www.w3.org/Graphics/SVG/1.1/DTD/svg11.dtd">
<svg version="1.1" id="Layer_1" xmlns="http://www.w3.org/2000/svg" xmlns:xlink="http://www.w3.org/1999/xlink" x="0px" y="0px"
	 width="48px" height="48px" viewBox="0 0 48 48" enable-background="new 0 0 48 48" xml:space="preserve">
<g>
	<path fill="#414042" d="M24.333,25.574c-1.815,0-3.292,1.482-3.292,3.305c0,1.675,1.254,3.048,2.868,3.259v8.868
		c0,0.276,0.223,0.5,0.499,0.5s0.498-0.224,0.498-0.5v-8.883c1.542-0.274,2.72-1.621,2.72-3.244
		C27.626,27.057,26.148,25.574,24.333,25.574z M24.333,31.181c-1.266,0-2.295-1.032-2.295-2.302c0-1.271,1.029-2.305,2.295-2.305
		s2.296,1.034,2.296,2.305C26.629,30.148,25.599,31.181,24.333,31.181z"/>
	<path fill="#414042" d="M43.686,18.869h-5.444h-0.226v-3.601c0-7.656-6.209-13.885-13.841-13.885
		c-7.631,0-13.839,6.229-13.839,13.885v3.601H4.43c-0.934,0-1.694,0.763-1.694,1.7V45.13c0,0.938,0.76,1.701,1.694,1.701h39.256
		c0.935,0,1.694-0.763,1.694-1.701V20.569C45.38,19.632,44.62,18.869,43.686,18.869z M24.175,2.383
		c7.082,0,12.844,5.78,12.844,12.885v3.601H11.333v-3.601C11.333,8.164,17.094,2.383,24.175,2.383z M44.384,45.13
		c0,0.387-0.313,0.701-0.698,0.701H4.43c-0.385,0-0.698-0.314-0.698-0.701V20.569c0-0.386,0.313-0.7,0.698-0.7h6.405h27.407h5.444
		c0.385,0,0.698,0.314,0.698,0.7V45.13z"/>
</g>
</svg>
