<?xml version="1.0" encoding="utf-8"?>
<!-- Generator: Adobe Illustrator 16.0.0, SVG Export Plug-In . SVG Version: 6.00 Build 0)  -->
<!DOCTYPE svg PUBLIC "-//W3C//DTD SVG 1.1//EN" "http://www.w3.org/Graphics/SVG/1.1/DTD/svg11.dtd">
<svg version="1.1" id="Layer_1" xmlns="http://www.w3.org/2000/svg" xmlns:xlink="http://www.w3.org/1999/xlink" x="0px" y="0px"
	 width="48px" height="48px" viewBox="0 0 48 48" enable-background="new 0 0 48 48" xml:space="preserve">
<g>
	<path fill="#414042" d="M43.859,18.828h-5.493H11.214v-3.637c0-7.17,5.814-13.004,12.962-13.004c4.205,0,8.168,2.063,10.6,5.517
		c0.158,0.225,0.47,0.279,0.695,0.12c0.225-0.159,0.278-0.471,0.119-0.697c-2.619-3.719-6.886-5.94-11.414-5.94
		c-7.697,0-13.958,6.282-13.958,14.004v3.637h-5.96c-0.94,0-1.706,0.768-1.706,1.712v24.777c0,0.942,0.765,1.71,1.706,1.71h39.603
		c0.939,0,1.705-0.768,1.705-1.71V20.54C45.564,19.596,44.799,18.828,43.859,18.828z M44.567,45.317c0,0.392-0.317,0.71-0.708,0.71
		H4.257c-0.391,0-0.709-0.318-0.709-0.71V20.54c0-0.393,0.318-0.712,0.709-0.712h6.459h27.65h5.493c0.391,0,0.708,0.319,0.708,0.712
		V45.317z"/>
	<path fill="#414042" d="M24.408,25.726c-1.815,0-3.292,1.482-3.292,3.304c0,1.676,1.255,3.049,2.869,3.26v8.868
		c0,0.276,0.223,0.5,0.498,0.5s0.499-0.224,0.499-0.5v-8.884c1.542-0.273,2.719-1.62,2.719-3.244
		C27.701,27.208,26.224,25.726,24.408,25.726z M24.408,31.332c-1.266,0-2.294-1.033-2.294-2.303c0-1.271,1.029-2.304,2.294-2.304
		c1.267,0,2.297,1.033,2.297,2.304C26.705,30.299,25.675,31.332,24.408,31.332z"/>
</g>
</svg>
