<?xml version="1.0" encoding="utf-8"?>
<!-- Generator: Adobe Illustrator 16.0.0, SVG Export Plug-In . SVG Version: 6.00 Build 0)  -->
<!DOCTYPE svg PUBLIC "-//W3C//DTD SVG 1.1//EN" "http://www.w3.org/Graphics/SVG/1.1/DTD/svg11.dtd">
<svg version="1.1" id="Layer_1" xmlns="http://www.w3.org/2000/svg" xmlns:xlink="http://www.w3.org/1999/xlink" x="0px" y="0px"
	 width="48px" height="48px" viewBox="0 0 48 48" enable-background="new 0 0 48 48" xml:space="preserve">
<path fill="#414042" d="M30.598,1.918c-8.753,0-15.874,7.143-15.874,15.922c0,4.062,1.537,7.762,4.041,10.577L1.797,45.442
	c-0.194,0.195-0.194,0.512,0,0.707c0.098,0.098,0.225,0.146,0.353,0.146s0.255-0.049,0.353-0.146l16.939-16.996
	c2.869,2.849,6.811,4.612,11.156,4.612c8.749,0,15.867-7.145,15.867-15.925C46.465,9.061,39.347,1.918,30.598,1.918z M30.598,32.766
	c-8.203,0-14.877-6.695-14.877-14.925c0-8.228,6.674-14.922,14.877-14.922c8.199,0,14.87,6.694,14.87,14.922
	C45.468,26.07,38.797,32.766,30.598,32.766z"/>
</svg>
