<?xml version="1.0" encoding="utf-8"?>
<!-- Generator: Adobe Illustrator 16.0.0, SVG Export Plug-In . SVG Version: 6.00 Build 0)  -->
<!DOCTYPE svg PUBLIC "-//W3C//DTD SVG 1.1//EN" "http://www.w3.org/Graphics/SVG/1.1/DTD/svg11.dtd">
<svg version="1.1" id="Layer_1" xmlns="http://www.w3.org/2000/svg" xmlns:xlink="http://www.w3.org/1999/xlink" x="0px" y="0px"
	 width="48px" height="48px" viewBox="0 0 48 48" enable-background="new 0 0 48 48" xml:space="preserve">
<g>
	<path fill="#414042" d="M36.806,17.416h-5.788v-5.984c0-0.276-0.223-0.5-0.498-0.5s-0.498,0.224-0.498,0.5v5.984h-5.787
		c-0.275,0-0.499,0.224-0.499,0.5s0.223,0.5,0.499,0.5h5.787v5.979c0,0.276,0.223,0.5,0.498,0.5s0.498-0.224,0.498-0.5v-5.979h5.788
		c0.275,0,0.498-0.224,0.498-0.5S37.081,17.416,36.806,17.416z"/>
	<path fill="#414042" d="M30.52,2.174c-8.651,0-15.689,7.062-15.689,15.742c0,4.014,1.518,7.669,3.991,10.453L2.055,45.188
		c-0.195,0.195-0.195,0.512,0,0.707c0.097,0.098,0.225,0.146,0.352,0.146s0.255-0.049,0.353-0.146l16.739-16.792
		c2.835,2.813,6.728,4.555,11.021,4.555c8.65,0,15.688-7.062,15.688-15.742S39.17,2.174,30.52,2.174z M30.52,32.657
		c-8.102,0-14.692-6.613-14.692-14.742S22.418,3.174,30.52,3.174c8.101,0,14.69,6.613,14.69,14.742S38.62,32.657,30.52,32.657z"/>
</g>
</svg>
