<?xml version="1.0" encoding="utf-8"?>
<!-- Generator: Adobe Illustrator 16.0.0, SVG Export Plug-In . SVG Version: 6.00 Build 0)  -->
<!DOCTYPE svg PUBLIC "-//W3C//DTD SVG 1.1//EN" "http://www.w3.org/Graphics/SVG/1.1/DTD/svg11.dtd">
<svg version="1.1" id="Layer_1" xmlns="http://www.w3.org/2000/svg" xmlns:xlink="http://www.w3.org/1999/xlink" x="0px" y="0px"
	 width="48px" height="48px" viewBox="0 0 48 48" enable-background="new 0 0 48 48" xml:space="preserve">
<g>
	<path fill="#414042" d="M34.577,17.016h-9.655c-0.275,0-0.498,0.224-0.498,0.5s0.223,0.5,0.498,0.5h9.655
		c0.275,0,0.499-0.224,0.499-0.5S34.853,17.016,34.577,17.016z"/>
	<path fill="#414042" d="M29.448,2.747c-8.119,0-14.725,6.625-14.725,14.769c0,4.495,2.019,8.521,5.187,11.231L4.097,44.614
		c-0.195,0.195-0.195,0.512,0,0.707c0.097,0.098,0.225,0.146,0.352,0.146s0.255-0.049,0.353-0.146L20.7,29.369
		c2.449,1.823,5.47,2.917,8.748,2.917c8.114,0,14.716-6.626,14.716-14.771C44.164,9.372,37.563,2.747,29.448,2.747z M29.448,31.286
		c-7.57,0-13.728-6.178-13.728-13.771c0-7.592,6.158-13.769,13.728-13.769c7.564,0,13.72,6.177,13.72,13.769
		C43.168,25.108,37.013,31.286,29.448,31.286z"/>
</g>
</svg>
