<?xml version="1.0" encoding="utf-8"?>
<!-- Generator: Adobe Illustrator 16.0.0, SVG Export Plug-In . SVG Version: 6.00 Build 0)  -->
<!DOCTYPE svg PUBLIC "-//W3C//DTD SVG 1.1//EN" "http://www.w3.org/Graphics/SVG/1.1/DTD/svg11.dtd">
<svg version="1.1" id="Layer_1" xmlns="http://www.w3.org/2000/svg" xmlns:xlink="http://www.w3.org/1999/xlink" x="0px" y="0px"
	 width="48px" height="48px" viewBox="0 0 48 48" enable-background="new 0 0 48 48" xml:space="preserve">
<g>
	<path fill="#414042" d="M41.345,19.798c-0.001-0.001-0.002-0.002-0.002-0.003s0-0.001-0.001-0.002c0,0,0,0-0.001,0v0v0
		c-0.001-0.001,0-0.001-0.001-0.002c0-0.001-0.001-0.001-0.001-0.002c-0.05-0.09-0.123-0.159-0.208-0.203l-6.411-3.445
		c-0.242-0.13-0.545-0.038-0.675,0.205s-0.038,0.546,0.204,0.677l5.596,3.006l-15.454,8.291l-16.05-7.836l5.513-2.766
		c0.246-0.124,0.346-0.424,0.223-0.671c-0.123-0.247-0.423-0.347-0.669-0.224l-6.413,3.217c-0.092,0.045-0.172,0.119-0.223,0.217
		c-0.006,0.011-0.011,0.022-0.016,0.034c-0.029,0.068-0.042,0.139-0.041,0.208v16.084c0,0.186,0.103,0.355,0.266,0.442l17.187,9.081
		c0.072,0.038,0.152,0.058,0.232,0.058c0.085,0,0.17-0.022,0.247-0.065l16.501-9.423c0.155-0.089,0.251-0.255,0.251-0.435V20.037
		C41.401,19.957,41.384,19.874,41.345,19.798z M7.712,21.286l16.19,7.905v15.642l-16.19-8.554V21.286z M40.403,35.948l-15.504,8.854
		V29.178l15.504-8.316V35.948z"/>
	<path fill="#414042" d="M30.933,33.059c0.081,0,0.163-0.021,0.239-0.063l4.583-2.531c0.24-0.133,0.329-0.437,0.196-0.679
		c-0.134-0.242-0.436-0.33-0.678-0.197l-4.582,2.531c-0.241,0.134-0.329,0.438-0.196,0.68
		C30.586,32.965,30.757,33.059,30.933,33.059z"/>
	<path fill="#414042" d="M23.564,22.91c0.09,0.121,0.229,0.195,0.38,0.201c0.007,0,0.013,0,0.02,0c0.143,0,0.28-0.062,0.375-0.17
		l8.756-10.031c0.129-0.148,0.16-0.357,0.079-0.536s-0.259-0.293-0.454-0.293h-3.589V2.553c0-0.276-0.223-0.5-0.498-0.5h-8.756
		c-0.275,0-0.499,0.224-0.499,0.5v8.722h-3.44c-0.188,0-0.361,0.106-0.445,0.275c-0.085,0.169-0.067,0.371,0.045,0.523L23.564,22.91
		z M19.877,12.275c0.275,0,0.498-0.224,0.498-0.5V3.053h7.76v9.527c0,0.276,0.223,0.5,0.498,0.5h2.988l-7.625,8.736l-7.066-9.541
		H19.877z"/>
</g>
</svg>
