<?xml version="1.0" encoding="utf-8"?>
<!-- Generator: Adobe Illustrator 16.0.0, SVG Export Plug-In . SVG Version: 6.00 Build 0)  -->
<!DOCTYPE svg PUBLIC "-//W3C//DTD SVG 1.1//EN" "http://www.w3.org/Graphics/SVG/1.1/DTD/svg11.dtd">
<svg version="1.1" id="Layer_1" xmlns="http://www.w3.org/2000/svg" xmlns:xlink="http://www.w3.org/1999/xlink" x="0px" y="0px"
	 width="48px" height="48px" viewBox="0 0 48 48" enable-background="new 0 0 48 48" xml:space="preserve">
<path fill="#414042" d="M45.014,13.385c-0.01-0.043-0.021-0.086-0.027-0.14c-0.024-0.167-0.044-0.334-0.064-0.502
	c-0.039-0.339-0.08-0.679-0.151-1.013c-0.622-2.981-2.116-5.474-4.44-7.411c-1.842-1.534-3.977-2.487-6.344-2.831
	c-0.318-0.047-0.639-0.089-1.054-0.138h-1.677c-0.034,0-0.067,0.003-0.1,0.01l-0.152,0.036c-0.212,0.035-0.425,0.064-0.638,0.094
	c-0.46,0.063-0.936,0.129-1.405,0.245c-5.531,1.37-9.468,6.138-9.796,11.864c-0.119,2.057,0.268,4.077,1.146,6.006
	c0.001,0.001,0,0.002,0.001,0.004c0.048,0.125,0.931,2.328,3.268,4.396l-7.084,7.096c-4.459,4.466-8.984,8.997-13.268,13.298
	c-0.195,0.195-0.195,0.512,0,0.707c0.097,0.098,0.225,0.146,0.352,0.146s0.255-0.049,0.353-0.146c1.21-1.215,2.442-2.45,3.684-3.695
	l5.274,5.307c0.097,0.098,0.225,0.146,0.353,0.146c0.127,0,0.254-0.049,0.352-0.146c0.195-0.195,0.195-0.512,0.001-0.707
	L8.32,40.705c2.108-2.114,4.242-4.252,6.38-6.393l4.59,4.591c0.097,0.097,0.224,0.146,0.352,0.146c0.128,0,0.256-0.049,0.353-0.146
	c0.194-0.196,0.194-0.513-0.001-0.707l-4.589-4.59c0.598-0.599,1.197-1.198,1.793-1.796l7.152-7.165
	c0.687,0.522,1.474,1.021,2.375,1.456c0.001,0.001,0.003,0,0.004,0.001c0.001,0,0.002,0.002,0.003,0.002
	c1.75,0.813,3.549,1.22,5.374,1.22c0.852,0,1.71-0.089,2.571-0.267c3.091-0.644,5.653-2.237,7.613-4.738
	c1.408-1.792,2.283-3.85,2.601-6.112l0.143-1.081v-1.591C45.035,13.497,45.022,13.422,45.014,13.385z M43.906,16.063
	c-0.293,2.088-1.1,3.985-2.397,5.637c-1.812,2.311-4.178,3.783-7.031,4.377c-2.491,0.513-4.954,0.218-7.319-0.878
	c-4.374-2.111-5.903-5.915-5.918-5.953c-0.002-0.005-0.006-0.008-0.008-0.013s-0.001-0.01-0.003-0.015
	c-0.819-1.788-1.178-3.659-1.069-5.562c0.303-5.286,3.936-9.686,9.04-10.951c0.419-0.103,0.849-0.163,1.303-0.226
	c0.221-0.03,0.441-0.061,0.679-0.1l1.722-0.03c0.312,0.041,0.625,0.081,0.938,0.127c2.186,0.318,4.153,1.196,5.853,2.611
	c2.146,1.789,3.526,4.092,4.103,6.847c0.063,0.305,0.1,0.615,0.137,0.924c0.021,0.176,0.042,0.352,0.065,0.516
	c0.008,0.064,0.021,0.129,0.04,0.215l0.005,1.464L43.906,16.063z"/>
</svg>
