<?xml version="1.0" encoding="utf-8"?>
<!-- Generator: Adobe Illustrator 16.0.0, SVG Export Plug-In . SVG Version: 6.00 Build 0)  -->
<!DOCTYPE svg PUBLIC "-//W3C//DTD SVG 1.1//EN" "http://www.w3.org/Graphics/SVG/1.1/DTD/svg11.dtd">
<svg version="1.1" id="Layer_1" xmlns="http://www.w3.org/2000/svg" xmlns:xlink="http://www.w3.org/1999/xlink" x="0px" y="0px"
	 width="48px" height="48px" viewBox="0 0 48 48" enable-background="new 0 0 48 48" xml:space="preserve">
<g>
	<path fill="#414042" d="M43.954,15.036h-8.106v-6.31c0-0.276-0.223-0.5-0.498-0.5H12.458c-0.276,0-0.499,0.224-0.499,0.5v6.31
		H4.161c-1.291,0-2.341,1.055-2.341,2.351V31.26c0,1.295,1.05,2.35,2.341,2.35h5.789L8.562,39.37
		c-0.036,0.15-0.001,0.308,0.094,0.429c0.095,0.119,0.238,0.189,0.391,0.189c0.001,0,0.002,0,0.003,0l29.593-0.189
		c0.151-0.001,0.295-0.071,0.389-0.191c0.094-0.119,0.128-0.275,0.094-0.424l-1.316-5.59c0.026,0.004,0.049,0.016,0.076,0.016h6.069
		c1.291,0,2.342-1.055,2.342-2.35V17.387C46.296,16.091,45.245,15.036,43.954,15.036z M12.956,9.227h21.896v5.81H12.956V9.227z
		 M37.923,24.832c-0.014-0.001-0.024-0.008-0.038-0.008H10.383c-0.014,0-0.025,0.007-0.039,0.008v-3.746
		c0-0.745,0.604-1.35,1.345-1.35h24.89c0.741,0,1.344,0.605,1.344,1.35V24.832z M10.344,31.969v-6.152
		c0.014,0.001,0.025,0.008,0.039,0.008h1.441L10.344,31.969z M9.68,38.984l3.169-13.16h22.106l3.056,12.979L9.68,38.984z
		 M37.601,32.71l-1.621-6.886h1.905c0.014,0,0.024-0.007,0.038-0.008v6.793h-0.038C37.776,32.609,37.683,32.651,37.601,32.71z
		 M45.299,31.26c0,0.744-0.604,1.35-1.345,1.35H38.92V21.086c0-1.296-1.051-2.35-2.341-2.35h-24.89c-1.291,0-2.342,1.054-2.342,2.35
		v11.523H4.161c-0.741,0-1.344-0.605-1.344-1.35V17.387c0-0.745,0.603-1.351,1.344-1.351h39.793c0.741,0,1.345,0.606,1.345,1.351
		V31.26z"/>
	<path fill="#414042" d="M41.957,20.809c-0.466,0-0.846,0.415-0.846,0.924s0.38,0.924,0.846,0.924c0.464,0,0.843-0.415,0.843-0.924
		S42.421,20.809,41.957,20.809z"/>
	<path fill="#414042" d="M16.313,30.495h15.35c0.275,0,0.498-0.224,0.498-0.5s-0.223-0.5-0.498-0.5h-15.35
		c-0.275,0-0.498,0.224-0.498,0.5S16.037,30.495,16.313,30.495z"/>
	<path fill="#414042" d="M32.905,35.396H15.069c-0.275,0-0.499,0.224-0.499,0.5s0.223,0.5,0.499,0.5h17.836
		c0.276,0,0.499-0.224,0.499-0.5S33.182,35.396,32.905,35.396z"/>
</g>
</svg>
