<?xml version="1.0" encoding="utf-8"?>
<!-- Generator: Adobe Illustrator 16.0.0, SVG Export Plug-In . SVG Version: 6.00 Build 0)  -->
<!DOCTYPE svg PUBLIC "-//W3C//DTD SVG 1.1//EN" "http://www.w3.org/Graphics/SVG/1.1/DTD/svg11.dtd">
<svg version="1.1" id="Layer_1" xmlns="http://www.w3.org/2000/svg" xmlns:xlink="http://www.w3.org/1999/xlink" x="0px" y="0px"
	 width="48px" height="48px" viewBox="0 0 48 48" enable-background="new 0 0 48 48" xml:space="preserve">
<g>
	<path fill="#414042" d="M33.601,23.559c-0.786-1.449-2.447-1.606-3.125-1.606h-0.544v-2.872c0-0.276-0.223-0.5-0.498-0.5
		s-0.498,0.224-0.498,0.5v2.872h-8.52v-2.872c0-0.276-0.223-0.5-0.498-0.5c-0.276,0-0.499,0.224-0.499,0.5v2.872h-1.932
		c-0.964,0-2.284,0.409-3.104,1.571L7.664,33.807c-0.053,0.081-0.082,0.177-0.082,0.274v7.694c0,1.018,0.826,1.846,1.841,1.846
		h29.112c1.016,0,1.842-0.828,1.842-1.846v-7.95c0-0.099-0.029-0.196-0.084-0.278L33.601,23.559z M39.382,41.775
		c0,0.466-0.38,0.846-0.846,0.846H9.424c-0.466,0-0.845-0.38-0.845-0.846V34.23l6.627-10.143c0.762-1.08,2.033-1.134,2.28-1.134
		h12.989c0.499,0,1.719,0.105,2.273,1.124l6.633,9.9V41.775z"/>
	<path fill="#414042" d="M23.98,27.029c-3.455,0-6.264,2.82-6.264,6.287s2.81,6.287,6.264,6.287s6.265-2.82,6.265-6.287
		S27.435,27.029,23.98,27.029z M23.98,38.604c-2.904,0-5.268-2.372-5.268-5.287s2.363-5.287,5.268-5.287
		c2.905,0,5.268,2.372,5.268,5.287S26.885,38.604,23.98,38.604z"/>
	<path fill="#414042" d="M45.869,12.468c-2.186-4.073-7.977-5.725-8.206-5.788c-4.401-1.384-8.801-2.086-13.077-2.086
		c-8.718,0-13.911,2.868-14.11,2.98c-5.275,2.704-8.275,5.641-8.918,8.729c-0.532,2.553,0.794,4.213,0.87,4.305
		c0.434,0.471,0.727,0.742,1.219,1.007c1.188,0.633,2.476,0.955,3.831,0.955h0c3.664,0,6.553-2.273,7.096-2.73
		c0.486-0.412,0.887-1.091,0.936-1.177c0.081-0.146,0.767-1.532,0.012-4.932l-0.033-0.234c3.085-1.18,6.264-1.779,9.455-1.779
		c4.009,0,6.909,0.963,7.854,1.324c-0.415,3.987,0.489,5.078,0.796,5.326c1.553,1.563,4.266,2.495,7.267,2.495
		c1.442,0,2.735-0.22,3.548-0.603c1.219-0.576,1.833-2.058,1.871-2.155C46.932,16.086,46.793,14.19,45.869,12.468z M45.346,17.762
		c-0.005,0.012-0.496,1.186-1.361,1.594c-0.663,0.313-1.86,0.508-3.123,0.508c-2.756,0-5.217-0.831-6.634-2.267
		c-0.009-0.008-0.874-0.834-0.396-4.816c0.026-0.216-0.091-0.425-0.289-0.515c-0.139-0.063-3.459-1.547-8.598-1.547
		c-3.443,0-6.871,0.67-10.188,1.992c-0.214,0.085-0.342,0.306-0.31,0.534l0.094,0.665c0.678,3.055,0.101,4.261,0.102,4.261
		c-0.097,0.166-0.413,0.652-0.711,0.905c-1.369,1.151-3.881,2.495-6.455,2.495c-1.189,0-2.321-0.282-3.361-0.836
		c-0.342-0.184-0.539-0.35-0.938-0.782c-0.011-0.013-1.082-1.354-0.646-3.444c0.398-1.91,2.177-4.855,8.414-8.052
		c0.051-0.029,5.179-2.862,13.64-2.862c4.174,0,8.473,0.686,12.794,2.045c0.056,0.016,5.625,1.602,7.61,5.303
		C45.781,14.415,45.896,16.048,45.346,17.762z"/>
</g>
</svg>
