<?xml version="1.0" encoding="utf-8"?>
<!-- Generator: Adobe Illustrator 16.0.0, SVG Export Plug-In . SVG Version: 6.00 Build 0)  -->
<!DOCTYPE svg PUBLIC "-//W3C//DTD SVG 1.1//EN" "http://www.w3.org/Graphics/SVG/1.1/DTD/svg11.dtd">
<svg version="1.1" id="Layer_1" xmlns="http://www.w3.org/2000/svg" xmlns:xlink="http://www.w3.org/1999/xlink" x="0px" y="0px"
	 width="48px" height="48px" viewBox="0 0 48 48" enable-background="new 0 0 48 48" xml:space="preserve">
<g>
	<path fill="#414042" d="M42.609,33.571L30.584,21.154l6.884-12.381c0.407,0.253,0.882,0.406,1.396,0.406
		c1.473,0,2.672-1.201,2.672-2.677c0-1.478-1.199-2.68-2.672-2.68c-1.471,0-2.667,1.202-2.667,2.68c0,0.544,0.164,1.049,0.443,1.472
		l-11.267,6.982L12.77,1.245c-0.18-0.196-0.482-0.215-0.687-0.044c-6.275,5.282-4.924,17.302,3.013,26.795
		c4.803,5.743,11.928,9.311,18.596,9.311c3.452,0,6.421-0.963,8.559-2.765l0.297-0.219c0.116-0.086,0.189-0.218,0.201-0.361
		C42.761,33.817,42.71,33.676,42.609,33.571z M38.863,4.822c0.924,0,1.676,0.753,1.676,1.68c0,0.925-0.752,1.677-1.676,1.677
		c-0.921,0-1.671-0.752-1.671-1.677C37.192,5.576,37.942,4.822,38.863,4.822z M33.691,36.307c-6.381,0-13.214-3.431-17.833-8.953
		C8.434,18.472,6.931,7.368,12.368,2.283l12.551,13.654c0.161,0.176,0.426,0.212,0.628,0.086l10.295-6.38l-6.31,11.349
		c-0.107,0.193-0.075,0.434,0.078,0.592l11.894,12.281C39.533,35.463,36.836,36.307,33.691,36.307z"/>
	<path fill="#414042" d="M13.601,32.516c-0.116-0.089-0.265-0.123-0.406-0.091c-0.143,0.03-0.264,0.121-0.333,0.25L5.426,46.392
		c-0.084,0.155-0.081,0.343,0.01,0.494c0.089,0.152,0.252,0.245,0.428,0.245h16.425c0.168,0,0.326-0.086,0.418-0.227
		c1.052-1.619,2.39-5.271-0.116-7.529L13.601,32.516z M22.006,46.131H6.702l6.757-12.467l8.497,6.48
		C24.072,42.055,22.499,45.255,22.006,46.131z"/>
</g>
</svg>
