<?xml version="1.0" encoding="utf-8"?>
<!-- Generator: Adobe Illustrator 16.0.0, SVG Export Plug-In . SVG Version: 6.00 Build 0)  -->
<!DOCTYPE svg PUBLIC "-//W3C//DTD SVG 1.1//EN" "http://www.w3.org/Graphics/SVG/1.1/DTD/svg11.dtd">
<svg version="1.1" id="Layer_1" xmlns="http://www.w3.org/2000/svg" xmlns:xlink="http://www.w3.org/1999/xlink" x="0px" y="0px"
	 width="48px" height="48px" viewBox="0 0 48 48" enable-background="new 0 0 48 48" xml:space="preserve">
<path fill="#414042" d="M24.056,1.59c-12.374,0-22.44,10.102-22.44,22.519c0,4.892,1.567,9.42,4.218,13.117
	c0.009,0.016,0.02,0.028,0.03,0.043c4.08,5.662,10.712,9.356,18.192,9.356c12.376,0,22.444-10.101,22.444-22.516
	C46.5,11.692,36.432,1.59,24.056,1.59z M19.549,5.222c-0.003,0-0.007,0-0.01-0.001c-0.244-0.064-0.497,0.067-0.588,0.303L18.766,6
	c-0.084,0.218,0.018,0.477,0.21,0.609c0.002,0.001,0.004,0.003,0.006,0.004c0.234,0.165,0.495,0.438,0.522,0.703
	c0.017,0.18-0.076,0.379-0.277,0.59c-0.414,0.174-2.276,0.922-3.643,0.922c-0.589,0-0.894-0.138-1.057-0.284
	c0.396-0.353,0.92-1.01,0.886-1.988c-0.106-0.534-0.317-1.294-0.705-1.784c1.251-0.612,2.568-1.103,3.941-1.462
	C18.755,3.847,18.996,4.646,19.549,5.222z M13.715,5.269c0.036,0.008,0.069,0.022,0.107,0.022c0.143,0.053,0.443,0.604,0.605,1.386
	c0.024,0.812-0.775,1.287-0.809,1.306c-0.207,0.12-0.299,0.37-0.221,0.596c0.197,0.57,0.735,1.249,2.186,1.249
	c1.745,0,4.032-1,4.128-1.042c0.054-0.023,0.103-0.057,0.145-0.097c0.589-0.568,0.673-1.11,0.64-1.471
	c-0.046-0.444-0.283-0.802-0.507-1.043c0.365-0.12,0.666-0.381,0.834-0.555c0.115-0.117,0.164-0.284,0.132-0.445
	c-0.031-0.162-0.14-0.297-0.29-0.363c-0.638-0.279-0.932-1.145-1.047-1.751c1.433-0.304,2.915-0.469,4.437-0.469
	c11.826,0,21.448,9.653,21.448,21.519c0,0.025-0.004,0.049-0.004,0.074c-0.023-0.003-0.045-0.014-0.07-0.014
	c-0.244-0.111-1.105-1.168-2.475-3.628c-0.012-0.021-0.05-0.086-0.064-0.105c-0.65-0.854-1.349-1.287-2.078-1.287
	c-1.112,0-1.884,1.006-2.201,1.512c-2.547,1.811-3.87,3.098-3.933,3.827c-0.004,0.051-0.001,0.106,0.011,0.161l-0.004,0
	c0.397,2.406-0.902,4.201-0.957,4.286c-0.218,0.411-0.363,0.51-0.366,0.53c-0.093-0.058-0.266-0.365-0.352-0.684
	c-0.02-0.071-0.055-0.137-0.102-0.193c-0.866-1.02-1.757-4.463-2.035-5.74c-0.642-2.174-0.682-2.972-0.679-3.165
	c0.003-0.186-0.098-0.358-0.26-0.447c-0.161-0.089-0.361-0.079-0.515,0.023c-0.288,0.192-0.573,0.29-0.849,0.29
	c-0.621,0-1.032-0.492-1.041-0.503c-1.82-2.207-4.274-2.582-4.585-2.621c-1.432-0.09-4.144-2.081-5.436-3.168
	c-0.68-1.236-1.248-1.788-1.835-1.788c-1.114,0-1.24,1.88-1.238,1.885c-0.489,3.156,1.453,4.723,2.677,5.151
	c0.085,0.03,0.178,0.036,0.267,0.017c0.187-0.04,0.375-0.06,0.562-0.06c1.751,0,2.113,2.31,2.182,3.02
	c-2.674,2.563-4.777,3.106-6.079,3.106c-1.09,0-1.685-0.369-1.689-0.369h0c-1.86-1.459-3.299-9.977-3.815-14.39
	c0.017-0.138-0.034-0.277-0.133-0.388C9.948,7.79,11.729,6.371,13.715,5.269z M4.681,14.947l0.645,6.855
	c0.052,0.229,1.297,5.613,4.039,6.883c0.065,0.03,0.114,0.042,0.211,0.046c0.608,0.005,2.617,0.155,3.146,0.899
	c0.09,0.126,0.193,0.343,0.049,0.754c-0.008,0.024-0.015,0.049-0.02,0.074c-0.051,0.088-0.425,0.623-2.399,1.574
	c-0.362,0.25-3.107,2.185-4.18,3.919c-2.244-3.399-3.56-7.469-3.56-11.843C2.612,20.83,3.368,17.731,4.681,14.947z M24.056,45.625
	c-7.062,0-13.319-3.458-17.228-8.76c0.44-1.155,2.677-3.032,4.021-3.97c2.196-1.05,2.801-1.779,2.88-2.235
	c0.245-0.754,0.031-1.29-0.197-1.61c-0.846-1.191-3.226-1.308-3.843-1.317c-1.854-0.963-3.074-4.749-3.381-6.087l-0.779-8.323
	c0.611-1.053,1.296-2.057,2.07-2.987c0.363,2.972,1.731,12.778,4.181,14.697c0.143,0.093,0.923,0.556,2.266,0.556
	c1.511,0,3.941-0.614,6.877-3.494c0.141-0.098,0.222-0.287,0.214-0.459c-0.072-1.55-0.826-4.173-3.194-4.173
	c-0.205,0-0.412,0.018-0.618,0.053c-0.528-0.224-2.337-1.209-1.899-4.045c0.034-0.378,0.186-0.923,0.237-1.002
	c0.013,0.003,0.333,0.089,1.068,1.424c0.019,0.022,0.051,0.057,0.073,0.076c0.652,0.554,4.014,3.326,6.05,3.453
	c0.234,0.03,2.33,0.352,3.896,2.25c0.007,0.009,0.689,0.878,1.82,0.878c0.229,0,0.464-0.038,0.695-0.112
	c0.086,0.553,0.268,1.396,0.642,2.66c0.103,0.472,1.02,4.576,2.17,6.053c0.128,0.413,0.495,1.315,1.264,1.315
	c0.705,0,1.128-0.8,1.215-0.984c0.016-0.02,1.554-2.1,1.124-4.914c0.082-0.179,0.6-1.033,3.59-3.149
	c0.058-0.041,0.112-0.105,0.149-0.169c0.004-0.005,0.007-0.01,0.009-0.014c0.318-0.524,0.848-1.084,1.383-1.084
	c0.501,0,0.976,0.486,1.272,0.88c2.298,4.127,2.951,4.127,3.265,4.127c0.035,0,0.068-0.013,0.103-0.02
	C44.912,36.521,35.536,45.625,24.056,45.625z"/>
</svg>
