<?xml version="1.0" encoding="utf-8"?>
<!-- Generator: Adobe Illustrator 16.0.0, SVG Export Plug-In . SVG Version: 6.00 Build 0)  -->
<!DOCTYPE svg PUBLIC "-//W3C//DTD SVG 1.1//EN" "http://www.w3.org/Graphics/SVG/1.1/DTD/svg11.dtd">
<svg version="1.1" id="Layer_1" xmlns="http://www.w3.org/2000/svg" xmlns:xlink="http://www.w3.org/1999/xlink" x="0px" y="0px"
	 width="48px" height="48px" viewBox="0 0 48 48" enable-background="new 0 0 48 48" xml:space="preserve">
<path fill="#414042" d="M46.394,9.435c0.01-0.037,0.009-0.074,0.01-0.112c0.001-0.025,0.006-0.05,0.002-0.076
	c-0.005-0.037-0.02-0.07-0.033-0.106c-0.009-0.024-0.01-0.049-0.022-0.072c-0.002-0.003-0.005-0.005-0.007-0.008
	c-0.002-0.003-0.002-0.007-0.004-0.01c-0.011-0.017-0.026-0.027-0.038-0.042c-0.007-0.009-0.007-0.02-0.014-0.028
	s-0.019-0.009-0.026-0.017c-0.017-0.016-0.029-0.036-0.048-0.05c-0.025-0.02-0.056-0.03-0.085-0.043
	c-0.027-0.014-0.053-0.032-0.082-0.04c-0.033-0.009-0.068-0.007-0.103-0.009c-0.029-0.002-0.057-0.009-0.085-0.006
	c-0.019,0.002-0.035,0.012-0.053,0.016c-0.01,0.002-0.021-0.003-0.03,0L2.064,21.489c-0.188,0.055-0.327,0.214-0.355,0.408
	c-0.028,0.194,0.06,0.387,0.224,0.493l9.542,6.143l2.351,10.481c0.014,0.061,0.039,0.115,0.071,0.164
	c0.002,0.003,0.002,0.006,0.004,0.009c0.005,0.008,0.014,0.01,0.019,0.017c0.039,0.051,0.085,0.091,0.139,0.123
	c0.017,0.01,0.031,0.02,0.049,0.027c0.063,0.029,0.129,0.05,0.202,0.05c0,0,0.002,0,0.002,0s0,0,0,0l0,0h0
	c0.095,0,0.181-0.032,0.258-0.08c0.007-0.004,0.016-0.002,0.023-0.007l8.509-5.854c0.007-0.005,0.01-0.012,0.016-0.017l9.909,5.888
	c0.124,0.074,0.273,0.091,0.409,0.045c0.137-0.045,0.247-0.146,0.304-0.278L46.371,9.507c0.003-0.007,0-0.015,0.003-0.023
	C46.38,9.467,46.389,9.452,46.394,9.435z M16.343,28.589c-0.025,0.017-0.041,0.042-0.062,0.063
	c-0.019,0.019-0.039,0.034-0.054,0.055c-0.035,0.046-0.058,0.097-0.075,0.15c-0.004,0.013-0.014,0.021-0.017,0.034l-1.814,7.778
	l-1.837-8.19l23.314-12.969L16.343,28.589z M41.818,11.017L11.935,27.641l-8.539-5.496L41.818,11.017z M15.09,37.763l1.861-7.98
	l5.226,3.105L15.09,37.763z M33.047,38.184l-15.492-9.205l27.237-18.312L33.047,38.184z"/>
</svg>
