<?xml version="1.0" encoding="utf-8"?>
<!-- Generator: Adobe Illustrator 16.0.0, SVG Export Plug-In . SVG Version: 6.00 Build 0)  -->
<!DOCTYPE svg PUBLIC "-//W3C//DTD SVG 1.1//EN" "http://www.w3.org/Graphics/SVG/1.1/DTD/svg11.dtd">
<svg version="1.1" id="Layer_1" xmlns="http://www.w3.org/2000/svg" xmlns:xlink="http://www.w3.org/1999/xlink" x="0px" y="0px"
	 width="48px" height="48px" viewBox="0 0 48 48" enable-background="new 0 0 48 48" xml:space="preserve">
<g>
	<path fill="#414042" d="M24.058,29.358c0.275,0,0.499-0.224,0.499-0.5V18.311c0-0.276-0.223-0.5-0.499-0.5s-0.498,0.224-0.498,0.5
		v10.548C23.56,29.135,23.782,29.358,24.058,29.358z"/>
	<path fill="#414042" d="M24.058,32.751c-0.838,0-1.52,0.684-1.52,1.525c0,0.84,0.682,1.523,1.52,1.523
		c0.837,0,1.519-0.684,1.519-1.523C25.576,33.435,24.895,32.751,24.058,32.751z M24.058,34.8c-0.289,0-0.523-0.235-0.523-0.523
		c0-0.29,0.235-0.525,0.523-0.525c0.288,0,0.522,0.235,0.522,0.525C24.58,34.564,24.345,34.8,24.058,34.8z"/>
	<path fill="#414042" d="M45.923,39.967l-19.57-34.01c-0.63-1.006-1.361-1.517-2.174-1.517c-1.383,0-2.363,1.542-2.414,1.624
		L2.28,39.93c-0.619,1.042-0.734,1.92-0.343,2.61c0.669,1.181,2.542,1.215,2.754,1.215l39.273,0.02c0.155,0,1.533-0.029,2.159-1.035
		C46.552,42.051,46.49,41.128,45.923,39.967z M45.279,42.208c-0.285,0.46-1.047,0.564-1.314,0.566l-39.276-0.02
		c-0.385,0-1.559-0.131-1.886-0.709c-0.25-0.441,0.043-1.116,0.337-1.61L22.619,6.58c0.185-0.296,0.868-1.14,1.56-1.14
		c0.446,0,0.895,0.353,1.32,1.033l19.544,33.963C45.311,40.985,45.569,41.738,45.279,42.208z"/>
</g>
</svg>
