<?xml version="1.0" encoding="utf-8"?>
<!-- Generator: Adobe Illustrator 16.0.0, SVG Export Plug-In . SVG Version: 6.00 Build 0)  -->
<!DOCTYPE svg PUBLIC "-//W3C//DTD SVG 1.1//EN" "http://www.w3.org/Graphics/SVG/1.1/DTD/svg11.dtd">
<svg version="1.1" id="Layer_1" xmlns="http://www.w3.org/2000/svg" xmlns:xlink="http://www.w3.org/1999/xlink" x="0px" y="0px"
	 width="48px" height="48px" viewBox="0 0 48 48" enable-background="new 0 0 48 48" xml:space="preserve">
<path fill="#414042" d="M24.056,1.963c-12.167,0-22.065,9.936-22.065,22.149c0,12.208,9.898,22.138,22.065,22.138
	c12.169,0,22.069-9.931,22.069-22.138C46.125,11.899,36.225,1.963,24.056,1.963z M2.987,24.113c0-11.662,9.452-21.149,21.068-21.149
	c5.665,0,10.805,2.267,14.596,5.929c-0.092,0.02-0.181,0.056-0.252,0.127L9.02,38.5c-0.071,0.071-0.107,0.161-0.126,0.253
	C5.245,34.95,2.987,29.795,2.987,24.113z M24.056,45.251c-5.659,0-10.793-2.262-14.583-5.917c0.092-0.02,0.18-0.056,0.251-0.127
	l29.38-29.48c0.07-0.071,0.106-0.16,0.126-0.251c3.644,3.803,5.897,8.957,5.897,14.637C45.128,35.769,35.676,45.251,24.056,45.251z"
	/>
</svg>
