<?xml version="1.0" encoding="utf-8"?>
<!-- Generator: Adobe Illustrator 16.0.0, SVG Export Plug-In . SVG Version: 6.00 Build 0)  -->
<!DOCTYPE svg PUBLIC "-//W3C//DTD SVG 1.1//EN" "http://www.w3.org/Graphics/SVG/1.1/DTD/svg11.dtd">
<svg version="1.1" id="Layer_1" xmlns="http://www.w3.org/2000/svg" xmlns:xlink="http://www.w3.org/1999/xlink" x="0px" y="0px"
	 width="48px" height="48px" viewBox="0 0 48 48" enable-background="new 0 0 48 48" xml:space="preserve">
<path fill="#414042" d="M44.257,13.104l-12.272-9.61c-2.021-1.583-4.95-1.222-6.528,0.807L3.055,33.101
	c-0.765,0.981-1.102,2.204-0.95,3.441c0.152,1.236,0.775,2.34,1.754,3.106l6.477,5.072c0.826,0.646,1.821,0.987,2.852,0.987
	c0.191,0,0.385-0.012,0.579-0.035c1.232-0.152,2.332-0.777,3.096-1.76l19.182-24.659c0.71-0.912,0.549-2.233-0.36-2.947
	l-4.714-3.691c-0.44-0.344-0.99-0.496-1.543-0.428c-0.556,0.069-1.051,0.351-1.394,0.793L11.458,34.287
	c-0.169,0.218-0.131,0.532,0.086,0.702c0.217,0.169,0.529,0.13,0.699-0.087l16.574-21.306c0.181-0.232,0.439-0.379,0.729-0.416
	c0.293-0.038,0.577,0.044,0.809,0.224l4.713,3.69c0.477,0.374,0.562,1.066,0.189,1.543L16.076,43.298
	c-0.6,0.771-1.464,1.263-2.433,1.382c-0.967,0.123-1.925-0.146-2.694-0.747L4.472,38.86c-0.77-0.603-1.258-1.47-1.378-2.441
	s0.146-1.932,0.746-2.703L26.242,4.917c1.239-1.594,3.54-1.878,5.129-0.634l12.272,9.61c1.587,1.244,1.87,3.552,0.631,5.145
	L28.313,39.559c-0.17,0.218-0.131,0.532,0.086,0.702c0.217,0.169,0.529,0.13,0.699-0.087L45.06,19.653
	C46.638,17.625,46.277,14.688,44.257,13.104z"/>
</svg>
