<?xml version="1.0" encoding="utf-8"?>
<!-- Generator: Adobe Illustrator 16.0.0, SVG Export Plug-In . SVG Version: 6.00 Build 0)  -->
<!DOCTYPE svg PUBLIC "-//W3C//DTD SVG 1.1//EN" "http://www.w3.org/Graphics/SVG/1.1/DTD/svg11.dtd">
<svg version="1.1" id="Layer_1" xmlns="http://www.w3.org/2000/svg" xmlns:xlink="http://www.w3.org/1999/xlink" x="0px" y="0px"
	 width="48px" height="48px" viewBox="0 0 48 48" enable-background="new 0 0 48 48" xml:space="preserve">
<path fill="#414042" d="M43.823,13.158c-0.098-0.316-2.49-7.786-11.709-10.469c-7.437-2.166-14.267,0.917-14.506,1.03
	c-0.117,0.04-11.8,4.163-14.042,18.041c-0.07,0.351-1.667,8.681,3.108,15.702c3.065,4.508,8.048,7.4,14.806,8.599
	c0.139,0.026,1.352,0.24,3.219,0.24c3.619,0,9.696-0.805,15.182-5.344c0.212-0.176,0.242-0.49,0.067-0.704
	c-0.175-0.213-0.488-0.243-0.702-0.067c-7.947,6.576-17.491,4.908-17.588,4.892c-6.484-1.15-11.246-3.898-14.155-8.17
	c-4.54-6.668-2.976-14.869-2.956-14.969C6.693,8.652,17.816,4.704,17.976,4.647c0.067-0.03,6.787-3.055,13.861-0.998
	c8.684,2.528,11.012,9.732,11.051,9.851c0.022,0.052,2.166,5.282-0.016,12.111c-2.187,6.85-8.054,7.759-8.277,7.792
	c-2.473,0.218-4.161-0.25-5.013-1.396c-1.422-1.915-0.149-5.189-0.131-5.236l4.819-13.295c0.095-0.259-0.039-0.546-0.298-0.641
	c-0.259-0.093-0.544,0.04-0.639,0.299l-1.102,3.04c-0.18-0.64-0.482-1.325-1.014-1.945c-1.05-1.223-2.673-1.858-4.824-1.89
	c-6.542-0.125-10.413,9.758-10.577,10.188c-0.092,0.257-2.222,6.341,0.079,9.627c0.931,1.33,2.433,2.007,4.45,2.012
	c0.009,0.001,0.026,0.001,0.051,0.001c0.503,0,4.145-0.195,7.534-5.075c-0.08,1.146,0.068,2.457,0.85,3.511
	c1.072,1.445,3.056,2.053,5.926,1.794c0.067-0.01,6.73-1.015,9.114-8.48C46.114,18.737,43.901,13.337,43.823,13.158z M20.365,33.167
	c-1.689-0.005-2.918-0.538-3.651-1.586c-2.006-2.862,0.021-8.659,0.038-8.707c0.037-0.096,3.717-9.536,9.549-9.536
	c0.026,0,0.053,0,0.079,0c1.85,0.027,3.222,0.544,4.077,1.536c1.18,1.368,1.022,3.229,1,3.438l-2.595,7.157
	C25.229,33.205,20.411,33.179,20.365,33.167z"/>
</svg>
