<?xml version="1.0" encoding="utf-8"?>
<!-- Generator: Adobe Illustrator 16.0.0, SVG Export Plug-In . SVG Version: 6.00 Build 0)  -->
<!DOCTYPE svg PUBLIC "-//W3C//DTD SVG 1.1//EN" "http://www.w3.org/Graphics/SVG/1.1/DTD/svg11.dtd">
<svg version="1.1" id="Layer_1" xmlns="http://www.w3.org/2000/svg" xmlns:xlink="http://www.w3.org/1999/xlink" x="0px" y="0px"
	 width="48px" height="48px" viewBox="0 0 48 48" enable-background="new 0 0 48 48" xml:space="preserve">
<path fill="#414042" d="M45.065,12.206l-8.638-8.658c-0.933-0.84-2.512-0.739-3.316,0.156l-10.104,10.05l-11.266,0.005
	c-0.201,0-0.383,0.122-0.46,0.309c-0.077,0.187-0.035,0.401,0.107,0.544l10.414,10.476L2.534,44.42
	c-0.194,0.195-0.194,0.512,0,0.707c0.098,0.098,0.225,0.146,0.353,0.146s0.255-0.049,0.353-0.146l19.267-19.331l10.756,10.82
	c0.095,0.096,0.223,0.146,0.353,0.146c0.056,0,0.113-0.009,0.167-0.028c0.182-0.065,0.31-0.229,0.329-0.422l1.072-10.8l9.835-9.834
	c0.416-0.464,0.673-1.095,0.705-1.731C45.759,13.239,45.519,12.614,45.065,12.206z M44.296,14.99l-9.942,9.941
	c-0.082,0.081-0.133,0.189-0.145,0.304l-0.985,9.926L12.942,14.759l10.271-0.004c0.131,0,0.257-0.052,0.351-0.145L33.832,4.394
	c0.485-0.54,1.412-0.567,1.911-0.121l8.637,8.657c0.33,0.298,0.36,0.734,0.349,0.967C44.708,14.302,44.539,14.718,44.296,14.99z"/>
</svg>
