<?xml version="1.0" encoding="utf-8"?>
<!-- Generator: Adobe Illustrator 16.0.0, SVG Export Plug-In . SVG Version: 6.00 Build 0)  -->
<!DOCTYPE svg PUBLIC "-//W3C//DTD SVG 1.1//EN" "http://www.w3.org/Graphics/SVG/1.1/DTD/svg11.dtd">
<svg version="1.1" id="Layer_1" xmlns="http://www.w3.org/2000/svg" xmlns:xlink="http://www.w3.org/1999/xlink" x="0px" y="0px"
	 width="48px" height="48px" viewBox="0 0 48 48" enable-background="new 0 0 48 48" xml:space="preserve">
<g>
	<path fill="#414042" d="M34.452,3.984c-0.939-0.822-2.469-1.228-4.678-1.243c-1.225,0.006-2.302,0.11-2.717,0.163l0.028-0.001
		c-0.271,0.034-0.473,0.282-0.44,0.554c0.032,0.271,0.26,0.473,0.543,0.436c0.001,0,0.021-0.002,0.021-0.002h-0.016
		c0.299-0.038,1.339-0.162,2.575-0.153c1.958,0.013,3.275,0.338,4.027,0.997c0.458,0.399,0.688,0.901,0.682,1.494
		c-0.006,0.733-0.415,1.386-1.216,1.938c-0.639,0.443-1.493,0.818-2.398,1.215c-1.787,0.783-3.782,1.672-4.958,3.35l-1.429-2.5
		l2.758-3.215c0.126-0.148,0.155-0.355,0.073-0.532c-0.08-0.176-0.257-0.29-0.451-0.29h-8.875c-0.194,0-0.372,0.113-0.452,0.29
		c-0.082,0.177-0.052,0.384,0.074,0.532l2.757,3.215l-1.427,2.499c-1.172-1.676-3.169-2.565-4.958-3.349
		c-0.905-0.396-1.759-0.771-2.4-1.215c-0.799-0.552-1.208-1.204-1.214-1.938c-0.006-0.593,0.224-1.095,0.681-1.495
		c0.752-0.658,2.069-0.984,4.028-0.997c1.21,0.01,2.276,0.116,2.575,0.153c0.001,0,0.021,0.002,0.021,0.002
		c0.283,0.037,0.51-0.164,0.543-0.436c0.032-0.272-0.169-0.52-0.44-0.554c-0.401-0.051-1.474-0.162-2.705-0.162
		c-2.208,0.015-3.738,0.421-4.677,1.242c-0.677,0.59-1.029,1.37-1.021,2.253c0.01,1.077,0.562,2.001,1.643,2.748
		c0.719,0.498,1.616,0.891,2.566,1.308c1.813,0.794,3.867,1.694,4.808,3.411c0.086,0.157,0.165,0.322,0.23,0.491
		c0.022,0.059,0.048,0.116,0.078,0.171c0.308,1.098-0.015,2.509-0.018,2.523c-0.035,0.148,0,0.304,0.094,0.423
		c0.094,0.119,0.238,0.188,0.39,0.188h6.523c0.152,0,0.296-0.07,0.391-0.188c0.094-0.119,0.129-0.275,0.094-0.423
		c-0.002-0.008-0.113-0.51-0.142-1.143h2.559v1.256c0,0.275,0.223,0.498,0.498,0.498c0.274,0,0.497-0.223,0.497-0.498v-3.505
		c0-0.275-0.223-0.498-0.497-0.498c-0.275,0-0.498,0.222-0.498,0.498v1.253h-2.515c0.021-0.13,0.045-0.26,0.08-0.385
		c0.029-0.055,0.056-0.111,0.077-0.167c0.065-0.173,0.145-0.338,0.221-0.477c0.008-0.013,0.015-0.026,0.021-0.04
		c0.941-1.7,2.989-2.598,4.798-3.39c0.95-0.417,1.847-0.81,2.565-1.308c1.081-0.748,1.634-1.672,1.644-2.748
		C35.481,5.354,35.128,4.574,34.452,3.984z M25.252,13.931c-0.018,0.032-0.032,0.066-0.042,0.101
		c-0.261,0.868-0.201,1.854-0.119,2.473h-5.342c0.083-0.619,0.142-1.604-0.118-2.473c-0.01-0.035-0.069-0.159-0.087-0.191
		c-0.011-0.028-0.027-0.055-0.038-0.082l1.895-3.337c0.104-0.183,0.083-0.411-0.054-0.571l-2.281-2.66h6.71l-2.282,2.66
		c-0.137,0.16-0.158,0.388-0.054,0.571l1.902,3.321c-0.014,0.034-0.032,0.064-0.046,0.099C25.296,13.843,25.252,13.93,25.252,13.931
		z"/>
	<path fill="#414042" d="M24.692,19.396h-4.456c-4.391,0-7.962,3.549-7.962,7.911v18.547c0,0.275,0.223,0.498,0.498,0.498h19.386
		c0.274,0,0.497-0.223,0.497-0.498V27.307C32.654,22.945,29.083,19.396,24.692,19.396z M31.659,45.356H13.27v-18.05
		c0-3.813,3.125-6.916,6.967-6.916h4.456c3.841,0,6.967,3.102,6.967,6.916V45.356z"/>
	<path fill="#414042" d="M22.243,23.332c-1.701,0-3.088,0.526-4.124,1.565c-1.676,1.684-1.725,4.102-1.725,4.372v12.903
		c0,0.274,0.223,0.497,0.498,0.497c0.275,0,0.498-0.223,0.498-0.497V29.269c0-0.229,0.04-2.269,1.436-3.67
		c0.841-0.844,1.991-1.272,3.418-1.272c0.275,0,0.498-0.223,0.498-0.498S22.519,23.332,22.243,23.332z"/>
</g>
</svg>
