<?xml version="1.0" encoding="utf-8"?>
<!-- Generator: Adobe Illustrator 16.0.0, SVG Export Plug-In . SVG Version: 6.00 Build 0)  -->
<!DOCTYPE svg PUBLIC "-//W3C//DTD SVG 1.1//EN" "http://www.w3.org/Graphics/SVG/1.1/DTD/svg11.dtd">
<svg version="1.1" id="Layer_1" xmlns="http://www.w3.org/2000/svg" xmlns:xlink="http://www.w3.org/1999/xlink" x="0px" y="0px"
	 width="48px" height="48px" viewBox="0 0 48 48" enable-background="new 0 0 48 48" xml:space="preserve">
<path fill="#414042" d="M41.269,20.817H33V11.63c0-5.87-3.433-9.814-8.5-9.814c-5.067,0-8.5,3.944-8.5,9.814v9.187H6.385
	c-0.275,0-0.498,0.224-0.498,0.5v25c0,0.276,0.223,0.5,0.498,0.5h34.884c0.275,0,0.498-0.224,0.498-0.5v-25
	C41.767,21.041,41.544,20.817,41.269,20.817z M17,11.63c0-4.387,2.336-8.814,7.5-8.814S32,7.243,32,11.63v9.187H17V11.63z
	 M40.771,45.817H6.883v-24H16v0.828c-0.54,0.213-0.925,0.738-0.925,1.354c0,0.804,0.651,1.457,1.45,1.457
	c0.801,0,1.453-0.653,1.453-1.457c0-0.635-0.411-1.172-0.978-1.371v-0.812h15v0.812c-0.567,0.198-0.978,0.735-0.978,1.371
	c0,0.804,0.65,1.457,1.45,1.457c0.801,0,1.452-0.653,1.452-1.457c0-0.616-0.385-1.141-0.925-1.354v-0.829h7.771V45.817z"/>
</svg>
