<?xml version="1.0" encoding="utf-8"?>
<!-- Generator: Adobe Illustrator 16.0.0, SVG Export Plug-In . SVG Version: 6.00 Build 0)  -->
<!DOCTYPE svg PUBLIC "-//W3C//DTD SVG 1.1//EN" "http://www.w3.org/Graphics/SVG/1.1/DTD/svg11.dtd">
<svg version="1.1" id="Layer_1" xmlns="http://www.w3.org/2000/svg" xmlns:xlink="http://www.w3.org/1999/xlink" x="0px" y="0px"
	 width="48px" height="48px" viewBox="0 0 48 48" enable-background="new 0 0 48 48" xml:space="preserve">
<g>
	<path fill="#414042" d="M21.176,32.968l-6.625,6.644c-1.186,1.249-3.166,1.297-4.412,0.107L3.75,33.612
		c-1.247-1.189-1.295-3.177-0.108-4.43l13.105-13.806c1.188-1.251,3.168-1.299,4.416-0.107l6.391,6.105
		c0.603,0.577,0.946,1.355,0.967,2.192s-0.285,1.631-0.86,2.236c-0.189,0.2-0.183,0.517,0.017,0.707
		c0.201,0.191,0.516,0.185,0.705-0.017c0.759-0.799,1.161-1.846,1.135-2.951c-0.026-1.104-0.479-2.13-1.275-2.892l-6.391-6.105
		c-1.643-1.572-4.255-1.508-5.824,0.141L2.919,28.494c-1.566,1.652-1.501,4.273,0.143,5.843l6.389,6.105
		c0.797,0.762,1.822,1.139,2.843,1.139c1.085,0,2.168-0.427,2.97-1.271l6.617-6.635c0.195-0.195,0.195-0.512,0-0.707
		S21.371,32.772,21.176,32.968z"/>
	<path fill="#414042" d="M45.051,13.878l-6.388-6.106c-1.645-1.568-4.255-1.506-5.814,0.134l-6.652,6.708
		c-0.194,0.196-0.193,0.512,0.002,0.707c0.196,0.195,0.512,0.194,0.704-0.002l6.66-6.715c1.188-1.248,3.166-1.295,4.414-0.107
		l6.388,6.106c0.604,0.578,0.948,1.356,0.97,2.193c0.021,0.836-0.285,1.63-0.861,2.236L31.367,32.838
		c-1.187,1.248-3.168,1.297-4.415,0.108l-6.39-6.104c-1.246-1.195-1.294-3.182-0.107-4.431l0.598-0.631
		c0.19-0.2,0.182-0.517-0.018-0.707c-0.2-0.19-0.515-0.182-0.704,0.018l-0.597,0.63c-1.566,1.646-1.503,4.268,0.141,5.844
		l6.391,6.105c0.796,0.758,1.817,1.134,2.839,1.134c1.089,0,2.175-0.428,2.983-1.278l13.106-13.807
		c0.76-0.799,1.163-1.847,1.136-2.951S45.849,14.639,45.051,13.878z"/>
</g>
</svg>
