<?xml version="1.0" encoding="utf-8"?>
<!-- Generator: Adobe Illustrator 16.0.0, SVG Export Plug-In . SVG Version: 6.00 Build 0)  -->
<!DOCTYPE svg PUBLIC "-//W3C//DTD SVG 1.1//EN" "http://www.w3.org/Graphics/SVG/1.1/DTD/svg11.dtd">
<svg version="1.1" id="Layer_1" xmlns="http://www.w3.org/2000/svg" xmlns:xlink="http://www.w3.org/1999/xlink" x="0px" y="0px"
	 width="48px" height="48px" viewBox="0 0 48 48" enable-background="new 0 0 48 48" xml:space="preserve">
<g>
	<path fill="#414042" d="M24.022,8.674c-2.534,0-4.596,2.029-4.596,4.522c0,2.493,2.062,4.521,4.596,4.521
		c2.534,0,4.597-2.028,4.597-4.521C28.619,10.703,26.557,8.674,24.022,8.674z M24.022,16.717c-1.984,0-3.599-1.579-3.599-3.521
		c0-1.942,1.615-3.522,3.599-3.522c1.985,0,3.6,1.58,3.6,3.522C27.622,15.138,26.008,16.717,24.022,16.717z"/>
	<path fill="#414042" d="M33.866,9.516c-2.632-6.355-8.405-6.677-9.535-6.677l-0.309,0.004l-0.238-0.004
		c-1.131,0-6.904,0.322-9.535,6.677c-2.333,5.634,1.35,10.079,1.522,10.282c2.91,3.151,5.008,8.094,7.755,25.157
		c0.039,0.242,0.248,0.42,0.492,0.42h0.076c0.244,0,0.453-0.178,0.492-0.42c2.751-17.067,4.848-22.008,7.771-25.173
		C32.517,19.595,36.198,15.15,33.866,9.516z M31.613,19.118c-2.875,3.112-4.979,7.809-7.557,22.936
		c-2.576-15.124-4.678-19.82-7.54-22.919c-0.035-0.041-3.448-4.16-1.346-9.234c2.328-5.624,7.182-6.061,8.614-6.061l0.221,0.004
		l0.326-0.004c1.432,0,6.286,0.437,8.614,6.061C35.04,14.958,31.739,18.967,31.613,19.118z"/>
</g>
</svg>
