<?xml version="1.0" encoding="utf-8"?>
<!-- Generator: Adobe Illustrator 16.0.0, SVG Export Plug-In . SVG Version: 6.00 Build 0)  -->
<!DOCTYPE svg PUBLIC "-//W3C//DTD SVG 1.1//EN" "http://www.w3.org/Graphics/SVG/1.1/DTD/svg11.dtd">
<svg version="1.1" id="Layer_1" xmlns="http://www.w3.org/2000/svg" xmlns:xlink="http://www.w3.org/1999/xlink" x="0px" y="0px"
	 width="48px" height="48px" viewBox="0 0 48 48" enable-background="new 0 0 48 48" xml:space="preserve">
<g>
	<path fill="#414042" d="M38.038,16.391l-0.031-0.546C36.921,9.155,31.058,4.3,24.065,4.3c-7.244,0-13.261,5.297-13.999,12.374v0.22
		c-0.1,11.783,13.51,26.735,13.647,26.874c0.093,0.095,0.221,0.148,0.354,0.148c0.003,0,0.007,0,0.011,0
		c0.136-0.003,0.266-0.063,0.358-0.163C25.011,43.119,38.502,28.123,38.038,16.391z M24.067,42.66
		c-2.155-2.481-13.09-15.587-13.004-25.763l-0.003-0.172C11.742,10.212,17.333,5.3,24.065,5.3c6.501,0,11.95,4.502,12.951,10.652
		l0.025,0.485C37.448,26.698,26.258,40.133,24.067,42.66z"/>
	<path fill="#414042" d="M24.051,11.028c-3.936,0-7.138,3.217-7.138,7.172c0,3.955,3.202,7.172,7.138,7.172
		c3.943,0,7.151-3.217,7.151-7.172C31.202,14.246,27.994,11.028,24.051,11.028z M24.051,24.373c-3.387,0-6.142-2.769-6.142-6.172
		s2.755-6.172,6.142-6.172c3.394,0,6.154,2.769,6.154,6.172S27.444,24.373,24.051,24.373z"/>
</g>
</svg>
