<?xml version="1.0" encoding="utf-8"?>
<!-- Generator: Adobe Illustrator 16.0.0, SVG Export Plug-In . SVG Version: 6.00 Build 0)  -->
<!DOCTYPE svg PUBLIC "-//W3C//DTD SVG 1.1//EN" "http://www.w3.org/Graphics/SVG/1.1/DTD/svg11.dtd">
<svg version="1.1" id="Layer_1" xmlns="http://www.w3.org/2000/svg" xmlns:xlink="http://www.w3.org/1999/xlink" x="0px" y="0px"
	 width="48px" height="48px" viewBox="0 0 48 48" enable-background="new 0 0 48 48" xml:space="preserve">
<path fill="#414042" d="M42.808,15.729H27.806c7.261-2.403,8.098-5.543,8.13-5.68c0.445-1.637-0.141-3.959-1.426-5.647
	c-1.48-1.946-3.633-2.749-5.85-2.155c-2.664,0.712-3.975,3.325-4.603,6.107c-0.627-2.782-1.938-5.395-4.603-6.107
	c-2.217-0.593-4.369,0.209-5.85,2.155c-1.285,1.688-1.871,4.011-1.429,5.631c0.035,0.151,0.872,3.293,8.133,5.696H5.308
	c-0.275,0-0.498,0.224-0.498,0.5v6.125c0,0.276,0.223,0.5,0.498,0.5h3.738v22.813c0,0.276,0.223,0.5,0.499,0.5h29.028
	c0.275,0,0.498-0.224,0.498-0.5V22.854h3.737c0.275,0,0.498-0.224,0.498-0.5v-6.125C43.306,15.953,43.083,15.729,42.808,15.729z
	 M28.918,3.212c0.404-0.108,0.807-0.163,1.195-0.163c1.363,0,2.644,0.696,3.604,1.959c1.091,1.434,1.619,3.443,1.254,4.786
	c-0.01,0.036-1.062,3.555-10.399,5.814c-0.004-0.077-0.009-0.178-0.013-0.268c0.036-0.721,0.062-1.796,0.003-3.029
	C24.734,8.82,25.592,4.102,28.918,3.212z M13.142,9.785c-0.364-1.334,0.165-3.343,1.255-4.777c0.961-1.263,2.242-1.959,3.605-1.959
	c0.388,0,0.791,0.055,1.196,0.163c3.326,0.89,4.183,5.606,4.354,9.098c-0.059,1.235-0.033,2.313,0.004,3.034
	c-0.004,0.089-0.008,0.189-0.013,0.265C14.205,13.349,13.154,9.83,13.142,9.785z M23.56,22.854V33.51H10.042V22.854H23.56z
	 M10.042,34.51H23.56v10.656H10.042V34.51z M24.556,45.166V34.51h13.517v10.656H24.556z M38.073,33.51H24.556V22.854h13.517V33.51z
	 M42.31,21.854H5.806v-5.125H42.31V21.854z"/>
</svg>
