<?xml version="1.0" encoding="utf-8"?>
<!-- Generator: Adobe Illustrator 16.0.0, SVG Export Plug-In . SVG Version: 6.00 Build 0)  -->
<!DOCTYPE svg PUBLIC "-//W3C//DTD SVG 1.1//EN" "http://www.w3.org/Graphics/SVG/1.1/DTD/svg11.dtd">
<svg version="1.1" id="Layer_1" xmlns="http://www.w3.org/2000/svg" xmlns:xlink="http://www.w3.org/1999/xlink" x="0px" y="0px"
	 width="48px" height="48px" viewBox="0 0 48 48" enable-background="new 0 0 48 48" xml:space="preserve">
<g>
	<path fill="#414042" d="M26.54,32.168L16,40.726c-0.544,0.415-1.217,0.594-1.896,0.498c-0.68-0.094-1.282-0.448-1.697-0.999
		L3.925,28.99c-0.854-1.131-0.631-2.749,0.496-3.607l10.343-7.86c0.219-0.167,0.263-0.48,0.096-0.7
		c-0.166-0.221-0.479-0.264-0.698-0.097l-10.344,7.86c-1.565,1.192-1.874,3.438-0.688,5.007l8.482,11.234
		c0.575,0.764,1.413,1.256,2.356,1.387c0.165,0.022,0.329,0.034,0.492,0.034c0.772,0,1.52-0.252,2.154-0.736l10.552-8.567
		c0.214-0.174,0.247-0.489,0.074-0.703C27.068,32.027,26.754,31.994,26.54,32.168z"/>
	<path fill="#414042" d="M45.458,21.35L40.313,8.233c-0.349-0.888-1.021-1.587-1.894-1.969c-0.873-0.382-1.841-0.399-2.727-0.05
		l-12.073,4.767c-0.256,0.101-0.382,0.392-0.281,0.648c0.102,0.257,0.392,0.381,0.646,0.282l12.073-4.767
		c0.639-0.252,1.335-0.238,1.963,0.036C38.65,7.456,39.135,7.96,39.386,8.6l5.146,13.117c0.252,0.64,0.24,1.34-0.033,1.97
		c-0.273,0.63-0.775,1.117-1.399,1.364l-12.782,4.575c-0.259,0.093-0.394,0.379-0.302,0.639c0.073,0.205,0.265,0.332,0.47,0.332
		c0.055,0,0.111-0.009,0.167-0.029l12.797-4.58c0.887-0.352,1.584-1.026,1.964-1.901C45.791,23.209,45.808,22.238,45.458,21.35z"/>
</g>
</svg>
