<?xml version="1.0" encoding="utf-8"?>
<!-- Generator: Adobe Illustrator 16.0.0, SVG Export Plug-In . SVG Version: 6.00 Build 0)  -->
<!DOCTYPE svg PUBLIC "-//W3C//DTD SVG 1.1//EN" "http://www.w3.org/Graphics/SVG/1.1/DTD/svg11.dtd">
<svg version="1.1" id="Layer_1" xmlns="http://www.w3.org/2000/svg" xmlns:xlink="http://www.w3.org/1999/xlink" x="0px" y="0px"
	 width="48px" height="48px" viewBox="0 0 48 48" enable-background="new 0 0 48 48" xml:space="preserve">
<g>
	<path fill="#414042" d="M24.444,28.381c-0.209,0.181-0.232,0.496-0.053,0.705c0.389,0.453,0.579,1.03,0.534,1.626
		c-0.043,0.597-0.317,1.141-0.77,1.531l-12.41,10.728c-0.932,0.805-2.345,0.701-3.149-0.234l-5.124-5.971
		c-0.388-0.452-0.578-1.029-0.533-1.626c0.044-0.597,0.317-1.139,0.767-1.528l12.413-10.73c0.452-0.39,1.03-0.579,1.625-0.535
		c0.593,0.045,1.134,0.319,1.521,0.772c0.179,0.21,0.495,0.235,0.703,0.054c0.209-0.18,0.233-0.496,0.054-0.705
		c-0.561-0.655-1.343-1.053-2.202-1.118c-0.86-0.064-1.696,0.21-2.351,0.774L3.056,32.854c-0.653,0.563-1.047,1.349-1.112,2.212
		c-0.063,0.863,0.211,1.699,0.773,2.353l5.124,5.972c0.639,0.741,1.542,1.122,2.449,1.122c0.747,0,1.497-0.258,2.105-0.783
		l12.41-10.728c0.654-0.564,1.05-1.352,1.114-2.215c0.063-0.862-0.211-1.698-0.773-2.353C24.965,28.224,24.65,28.201,24.444,28.381z
		"/>
	<path fill="#414042" d="M45.398,10.792l-5.125-5.965c-1.161-1.354-3.203-1.507-4.553-0.342L23.307,15.213
		c-1.347,1.169-1.498,3.219-0.336,4.57c0.179,0.209,0.493,0.231,0.703,0.052c0.208-0.18,0.231-0.496,0.052-0.705
		c-0.803-0.934-0.698-2.352,0.233-3.16L36.371,5.243c0.932-0.804,2.345-0.699,3.146,0.237l5.125,5.964
		c0.803,0.937,0.697,2.354-0.234,3.158l-12.412,10.73c-0.931,0.806-2.344,0.7-3.149-0.236c-0.181-0.21-0.496-0.233-0.703-0.052
		c-0.208,0.18-0.231,0.496-0.052,0.705c0.64,0.742,1.543,1.124,2.451,1.124c0.746,0,1.495-0.258,2.103-0.783l12.412-10.73
		C46.406,14.196,46.559,12.147,45.398,10.792z"/>
	<path fill="#414042" d="M17.163,29.682c0.099,0.118,0.24,0.179,0.382,0.179c0.113,0,0.226-0.038,0.32-0.117l12.481-10.507
		c0.211-0.177,0.238-0.493,0.062-0.704c-0.176-0.211-0.489-0.239-0.702-0.062L17.225,28.978
		C17.014,29.155,16.986,29.471,17.163,29.682z"/>
</g>
</svg>
