<?xml version="1.0" encoding="utf-8"?>
<!-- Generator: Adobe Illustrator 16.0.0, SVG Export Plug-In . SVG Version: 6.00 Build 0)  -->
<!DOCTYPE svg PUBLIC "-//W3C//DTD SVG 1.1//EN" "http://www.w3.org/Graphics/SVG/1.1/DTD/svg11.dtd">
<svg version="1.1" id="Layer_1" xmlns="http://www.w3.org/2000/svg" xmlns:xlink="http://www.w3.org/1999/xlink" x="0px" y="0px"
	 width="48px" height="48px" viewBox="0 0 48 48" enable-background="new 0 0 48 48" xml:space="preserve">
<g>
	<path fill="#414042" d="M43.898,2.727c-0.144-0.235-0.451-0.31-0.685-0.165L32.946,8.879c-0.148,0.091-0.238,0.252-0.238,0.426
		v20.424c0,6.525-4.23,6.525-6.504,6.525H4.642c-0.275,0-0.499,0.224-0.499,0.5s0.223,0.5,0.499,0.5h21.563
		c2.245,0,7.501,0,7.501-7.525V9.585l10.029-6.171C43.969,3.27,44.043,2.962,43.898,2.727z"/>
	<path fill="#414042" d="M10.276,39.763c-1.638,0-2.971,1.339-2.971,2.984c0,1.644,1.333,2.98,2.971,2.98
		c1.638,0,2.97-1.337,2.97-2.98C13.247,41.102,11.914,39.763,10.276,39.763z M10.276,44.728c-1.088,0-1.974-0.889-1.974-1.98
		c0-1.095,0.886-1.984,1.974-1.984c1.088,0,1.974,0.89,1.974,1.984C12.25,43.839,11.364,44.728,10.276,44.728z"/>
	<path fill="#414042" d="M24.99,39.763c-1.638,0-2.971,1.339-2.971,2.984c0,1.644,1.333,2.98,2.971,2.98s2.97-1.337,2.97-2.98
		C27.96,41.102,26.628,39.763,24.99,39.763z M24.99,44.728c-1.088,0-1.974-0.889-1.974-1.98c0-1.095,0.886-1.984,1.974-1.984
		s1.974,0.89,1.974,1.984C26.964,43.839,26.078,44.728,24.99,44.728z"/>
</g>
</svg>
