<?xml version="1.0" encoding="utf-8"?>
<!-- Generator: Adobe Illustrator 16.0.0, SVG Export Plug-In . SVG Version: 6.00 Build 0)  -->
<!DOCTYPE svg PUBLIC "-//W3C//DTD SVG 1.1//EN" "http://www.w3.org/Graphics/SVG/1.1/DTD/svg11.dtd">
<svg version="1.1" id="Layer_1" xmlns="http://www.w3.org/2000/svg" xmlns:xlink="http://www.w3.org/1999/xlink" x="0px" y="0px"
	 width="48px" height="48px" viewBox="0 0 48 48" enable-background="new 0 0 48 48" xml:space="preserve">
<g>
	<path fill="#414042" d="M46.632,2.727c-0.144-0.235-0.451-0.31-0.686-0.165L35.679,8.879c-0.147,0.091-0.237,0.252-0.237,0.426
		v20.424c0,6.525-4.231,6.525-6.504,6.525H7.725L2.378,21.337c-0.095-0.26-0.379-0.395-0.638-0.301
		c-0.259,0.094-0.393,0.38-0.3,0.64l5.466,15.249c0.072,0.198,0.259,0.33,0.469,0.33h21.563c2.244,0,7.5,0,7.5-7.525V9.585
		l10.03-6.171C46.702,3.27,46.775,2.962,46.632,2.727z"/>
	<path fill="#414042" d="M13.009,39.763c-1.638,0-2.971,1.339-2.971,2.984c0,1.644,1.333,2.98,2.971,2.98s2.97-1.337,2.97-2.98
		C15.979,41.102,14.647,39.763,13.009,39.763z M13.009,44.728c-1.088,0-1.974-0.889-1.974-1.98c0-1.095,0.886-1.984,1.974-1.984
		c1.088,0,1.974,0.89,1.974,1.984C14.983,43.839,14.097,44.728,13.009,44.728z"/>
	<path fill="#414042" d="M27.723,39.763c-1.638,0-2.97,1.339-2.97,2.984c0,1.644,1.333,2.98,2.97,2.98
		c1.639,0,2.971-1.337,2.971-2.98C30.693,41.102,29.361,39.763,27.723,39.763z M27.723,44.728c-1.088,0-1.974-0.889-1.974-1.98
		c0-1.095,0.886-1.984,1.974-1.984s1.974,0.89,1.974,1.984C29.696,43.839,28.811,44.728,27.723,44.728z"/>
	<path fill="#414042" d="M13.91,7.741c0.11,0,0.222-0.037,0.314-0.113l4.382-3.588v15.417c0,0.276,0.223,0.5,0.498,0.5
		s0.499-0.224,0.499-0.5V4.041l4.382,3.587c0.092,0.076,0.204,0.113,0.314,0.113c0.145,0,0.288-0.063,0.386-0.184
		c0.174-0.214,0.143-0.529-0.071-0.703L19.42,2.601c-0.013-0.011-0.029-0.014-0.043-0.023c-0.02-0.013-0.038-0.028-0.06-0.038
		c-0.015-0.007-0.03-0.012-0.046-0.018c-0.024-0.009-0.048-0.014-0.073-0.019c-0.023-0.004-0.046-0.009-0.07-0.01
		c-0.008,0-0.015-0.005-0.023-0.005s-0.015,0.004-0.023,0.005c-0.024,0.001-0.046,0.006-0.07,0.01
		c-0.025,0.005-0.049,0.01-0.073,0.019c-0.016,0.006-0.031,0.011-0.046,0.018c-0.021,0.01-0.04,0.025-0.059,0.038
		c-0.014,0.009-0.03,0.012-0.043,0.023l-5.195,4.253c-0.214,0.174-0.245,0.489-0.071,0.703C13.622,7.678,13.766,7.741,13.91,7.741z"
		/>
</g>
</svg>
