<?xml version="1.0" encoding="utf-8"?>
<!-- Generator: Adobe Illustrator 16.0.0, SVG Export Plug-In . SVG Version: 6.00 Build 0)  -->
<!DOCTYPE svg PUBLIC "-//W3C//DTD SVG 1.1//EN" "http://www.w3.org/Graphics/SVG/1.1/DTD/svg11.dtd">
<svg version="1.1" id="Layer_1" xmlns="http://www.w3.org/2000/svg" xmlns:xlink="http://www.w3.org/1999/xlink" x="0px" y="0px"
	 width="48px" height="48px" viewBox="0 0 48 48" enable-background="new 0 0 48 48" xml:space="preserve">
<path fill="#414042" d="M45.499,9.42c-1.405-3.652-4.421-5.582-8.72-5.582c-3.861,0-7.392,1.522-7.524,1.581
	C10.624,12.825,5.085,26.342,5.039,26.46c-2.823,6.384-3.4,11.286-1.717,14.571c1.383,2.699,3.787,3.224,3.918,3.25
	c0.398,0.058,0.729,0.096,1.051,0.096c0.259,0,0.501-0.024,0.785-0.079c5.54-1.082,8.032-6.605,8.631-9.699
	c0.143-0.738-0.002-1.694-0.01-1.746c-0.034-0.191-0.426-1.94-3.616-4.484l-0.256-0.237c5.583-9.701,13.903-12.86,15.686-13.442
	c2.419,3.751,3.999,4.256,4.604,4.301v0.003c4.812,0.543,10.13-3.911,11.265-6.272C46.057,11.314,45.534,9.531,45.499,9.42z
	 M44.482,12.286c-0.949,1.975-5.403,5.752-9.541,5.752c-0.239,0-0.479-0.013-0.789-0.042c-0.015,0-1.447-0.083-4.003-4.162
	c-0.116-0.185-0.337-0.272-0.548-0.218c-0.421,0.11-10.38,2.833-16.84,14.367c-0.113,0.202-0.073,0.455,0.097,0.612l0.574,0.531
	c2.922,2.332,3.28,3.89,3.281,3.89c0.002,0.009,0.125,0.826,0.015,1.392c-0.552,2.848-2.824,7.928-7.842,8.908
	c-0.213,0.041-0.396,0.061-0.595,0.061c-0.225,0-0.488-0.024-0.879-0.08c-0.021-0.004-2.037-0.445-3.204-2.723
	C3.15,38.51,2.594,34.456,5.958,26.848c0.053-0.132,5.456-13.261,23.679-20.506c0.035-0.015,3.495-1.504,7.143-1.504
	c3.906,0,6.527,1.663,7.778,4.905C44.562,9.758,44.988,11.234,44.482,12.286z"/>
</svg>
