<?xml version="1.0" encoding="utf-8"?>
<!-- Generator: Adobe Illustrator 16.0.0, SVG Export Plug-In . SVG Version: 6.00 Build 0)  -->
<!DOCTYPE svg PUBLIC "-//W3C//DTD SVG 1.1//EN" "http://www.w3.org/Graphics/SVG/1.1/DTD/svg11.dtd">
<svg version="1.1" id="Layer_1" xmlns="http://www.w3.org/2000/svg" xmlns:xlink="http://www.w3.org/1999/xlink" x="0px" y="0px"
	 width="48px" height="48px" viewBox="0 0 48 48" enable-background="new 0 0 48 48" xml:space="preserve">
<g>
	<path fill="#414042" d="M26.617,35.92h-9.498l3.214-3.274c0.192-0.196,0.19-0.514-0.005-0.707
		c-0.198-0.194-0.512-0.192-0.705,0.005l-4.049,4.125c-0.018,0.019-0.026,0.042-0.041,0.063c-0.023,0.031-0.049,0.062-0.064,0.099
		c0,0.001-0.001,0.002-0.002,0.004c-0.012,0.03-0.013,0.063-0.019,0.096c-0.003,0.02-0.01,0.039-0.011,0.059
		c0,0.011-0.006,0.021-0.006,0.032c0,0.001,0,0.002,0,0.003c0,0.026,0.011,0.052,0.016,0.079c0.006,0.036,0.007,0.073,0.021,0.107
		c0,0.001,0.001,0.002,0.001,0.003c0.025,0.061,0.062,0.116,0.108,0.161l0.001,0.002c0,0,0,0.001,0.001,0.001
		s0.001,0.001,0.001,0.001l4.045,4.059c0.097,0.098,0.225,0.146,0.352,0.146s0.255-0.049,0.353-0.146
		c0.194-0.195,0.194-0.512,0-0.707l-3.199-3.209h9.485c0.275,0,0.498-0.224,0.498-0.5S26.893,35.92,26.617,35.92z"/>
	<path fill="#414042" d="M45.051,9.506c-0.891-2.272-2.395-3.856-4.467-4.708c-4.92-2.024-11.293,0.764-11.546,0.877
		C10.763,13.086,5.409,26.42,5.364,26.535c-2.733,6.302-3.269,11.13-1.589,14.352c1.38,2.648,3.752,3.148,3.882,3.174
		c0.396,0.054,0.704,0.086,1,0.086c0.262,0,0.514-0.024,0.808-0.082c2.233-0.454,4.139-1.65,5.663-3.558
		c0.172-0.216,0.138-0.53-0.077-0.703c-0.214-0.172-0.529-0.137-0.701,0.077c-1.375,1.72-3.084,2.798-5.08,3.202
		c-0.451,0.089-0.755,0.085-1.447-0.008c-0.082-0.018-2.028-0.446-3.178-2.676c-1.043-2.022-1.607-6,1.639-13.482
		c0.05-0.13,5.246-13.063,23.141-20.321c0.062-0.028,6.249-2.736,10.779-0.873c1.812,0.745,3.129,2.141,3.905,4.114
		c0.005,0.014,0.438,1.458-0.053,2.49c-0.929,1.963-5.68,6.136-10.115,5.681c-0.014,0-1.421-0.074-3.957-4.061
		c-0.116-0.184-0.338-0.271-0.549-0.214c-0.414,0.111-10.194,2.856-16.466,14.25c-0.111,0.202-0.07,0.455,0.1,0.61l0.567,0.52
		c1.138,0.895,2.019,1.775,2.617,2.618c0.16,0.226,0.471,0.278,0.695,0.117c0.224-0.16,0.276-0.473,0.117-0.697
		c-0.653-0.921-1.6-1.871-2.784-2.801l-0.247-0.227c5.415-9.564,13.559-12.728,15.318-13.317c2.57,3.926,4.18,4.243,4.598,4.202
		c4.697,0.472,9.863-3.832,11.008-6.252C45.617,11.368,45.086,9.615,45.051,9.506z"/>
</g>
</svg>
