<?xml version="1.0" encoding="utf-8"?>
<!-- Generator: Adobe Illustrator 16.0.0, SVG Export Plug-In . SVG Version: 6.00 Build 0)  -->
<!DOCTYPE svg PUBLIC "-//W3C//DTD SVG 1.1//EN" "http://www.w3.org/Graphics/SVG/1.1/DTD/svg11.dtd">
<svg version="1.1" id="Layer_1" xmlns="http://www.w3.org/2000/svg" xmlns:xlink="http://www.w3.org/1999/xlink" x="0px" y="0px"
	 width="48px" height="48px" viewBox="0 0 48 48" enable-background="new 0 0 48 48" xml:space="preserve">
<g>
	<path fill="#414042" d="M27.389,35.611H16.101c-0.275,0-0.499,0.224-0.499,0.5s0.223,0.5,0.499,0.5h11.288
		c0.275,0,0.498-0.224,0.498-0.5S27.664,35.611,27.389,35.611z"/>
	<path fill="#414042" d="M44.928,9.592c-0.887-2.258-2.381-3.833-4.44-4.68C35.597,2.9,29.259,5.67,29.007,5.783
		C10.841,13.153,5.518,26.405,5.474,26.521c-2.717,6.264-3.248,11.063-1.579,14.266c1.373,2.633,3.732,3.131,3.861,3.155
		c0.395,0.056,0.703,0.088,0.999,0.088c0.259,0,0.509-0.025,0.8-0.083c3.072-0.622,5.131-2.854,5.874-3.786
		c0.172-0.216,0.137-0.53-0.078-0.703c-0.215-0.172-0.528-0.137-0.701,0.078c-0.675,0.846-2.541,2.874-5.291,3.431
		c-0.445,0.088-0.747,0.086-1.437-0.009c-0.082-0.018-2.015-0.443-3.157-2.658c-1.037-2.009-1.597-5.961,1.629-13.397
		c0.05-0.129,5.214-12.981,23-20.198c0.063-0.027,6.213-2.718,10.714-0.867c1.799,0.74,3.108,2.126,3.879,4.086
		c0.124,0.397,0.354,1.617-0.052,2.476c-0.924,1.949-5.646,6.09-10.051,5.645c-0.014,0-1.413-0.075-3.933-4.036
		c-0.116-0.184-0.338-0.272-0.549-0.214c-0.411,0.111-10.133,2.839-16.369,14.163c-0.111,0.201-0.071,0.453,0.098,0.609l0.566,0.521
		c2.411,1.896,3.047,3.27,3.185,3.646c0.095,0.259,0.381,0.393,0.64,0.297c0.258-0.095,0.391-0.383,0.296-0.642
		c-0.206-0.563-0.959-2.086-3.475-4.062L14.098,28.1c5.381-9.499,13.469-12.644,15.223-13.231c2.555,3.903,4.155,4.199,4.571,4.176
		c4.671,0.467,9.806-3.812,10.944-6.216C45.491,11.444,44.963,9.7,44.928,9.592z"/>
</g>
</svg>
