<?xml version="1.0" encoding="utf-8"?>
<!-- Generator: Adobe Illustrator 16.0.0, SVG Export Plug-In . SVG Version: 6.00 Build 0)  -->
<!DOCTYPE svg PUBLIC "-//W3C//DTD SVG 1.1//EN" "http://www.w3.org/Graphics/SVG/1.1/DTD/svg11.dtd">
<svg version="1.1" id="Layer_1" xmlns="http://www.w3.org/2000/svg" xmlns:xlink="http://www.w3.org/1999/xlink" x="0px" y="0px"
	 width="48px" height="48px" viewBox="0 0 48 48" enable-background="new 0 0 48 48" xml:space="preserve">
<g>
	<path fill="#414042" d="M21.657,38.873l3.638-3.649c0.195-0.195,0.195-0.512,0-0.707c-0.194-0.195-0.51-0.195-0.704,0l-3.638,3.649
		l-3.639-3.651c-0.194-0.195-0.51-0.195-0.705,0s-0.195,0.512,0,0.707l3.639,3.651l-3.639,3.65c-0.195,0.195-0.195,0.512,0,0.707
		c0.097,0.098,0.225,0.146,0.353,0.146s0.255-0.049,0.352-0.146l3.639-3.65l3.639,3.65c0.097,0.098,0.225,0.146,0.352,0.146
		s0.255-0.049,0.352-0.146c0.195-0.195,0.195-0.512,0-0.707L21.657,38.873z"/>
	<path fill="#414042" d="M45.499,9.42c-0.891-2.313-2.406-3.932-4.505-4.812c-4.987-2.091-11.481,0.697-11.739,0.811
		C10.624,12.825,5.085,26.342,5.039,26.46c-2.823,6.384-3.4,11.286-1.717,14.571c1.383,2.699,3.787,3.224,3.918,3.25
		c0.417,0.061,0.738,0.096,1.048,0.096c0.255,0,0.503-0.024,0.788-0.079c2.769-0.541,5.109-2.264,6.766-4.98
		c0.144-0.236,0.07-0.544-0.164-0.688c-0.236-0.146-0.542-0.07-0.686,0.165c-1.529,2.507-3.584,4.028-6.106,4.521
		c-0.454,0.087-0.764,0.083-1.474-0.02c-0.021-0.004-2.037-0.445-3.204-2.723c-1.058-2.064-1.615-6.118,1.75-13.728
		c0.052-0.131,5.428-13.249,23.68-20.505C29.7,6.313,36.014,3.603,40.61,5.531c1.838,0.771,3.171,2.201,3.947,4.213
		c0.122,0.409,0.348,1.663-0.075,2.542c-0.956,1.99-5.828,6.212-10.33,5.71c-0.015,0-1.447-0.083-4.003-4.162
		c-0.116-0.185-0.337-0.272-0.548-0.218c-0.421,0.11-10.38,2.833-16.84,14.367c-0.113,0.202-0.073,0.455,0.097,0.612l0.574,0.531
		c1.203,0.96,2.116,1.897,2.716,2.786c0.155,0.229,0.464,0.289,0.692,0.134c0.228-0.154,0.288-0.466,0.133-0.694
		c-0.657-0.973-1.64-1.985-2.894-2.984l-0.256-0.237c5.583-9.701,13.903-12.86,15.686-13.442c2.57,3.987,4.182,4.308,4.632,4.308
		c0.004,0,0.007,0,0.011,0c4.771,0.521,10.05-3.826,11.227-6.276C46.057,11.314,45.534,9.531,45.499,9.42z"/>
</g>
</svg>
