<?xml version="1.0" encoding="utf-8"?>
<!-- Generator: Adobe Illustrator 16.0.0, SVG Export Plug-In . SVG Version: 6.00 Build 0)  -->
<!DOCTYPE svg PUBLIC "-//W3C//DTD SVG 1.1//EN" "http://www.w3.org/Graphics/SVG/1.1/DTD/svg11.dtd">
<svg version="1.1" id="Layer_1" xmlns="http://www.w3.org/2000/svg" xmlns:xlink="http://www.w3.org/1999/xlink" x="0px" y="0px"
	 width="48px" height="48px" viewBox="0 0 48 48" enable-background="new 0 0 48 48" xml:space="preserve">
<g>
	<path fill="#414042" d="M9.178,31.031h14.753c0.275,0,0.499-0.224,0.499-0.5v-1.872c-0.073-2.466-4.16-3.154-5.405-3.308
		c-0.128-0.374-0.211-0.886-0.244-1.476c0.313-0.505,0.55-1.11,0.674-1.797c0.342-0.407,0.501-0.843,0.474-1.298
		c-0.033-0.554-0.34-0.962-0.527-1.162c-0.412-1.828-1.594-3.044-2.978-3.044c-1.477,0-2.713,1.383-3.045,3.385
		c-0.162,0.189-0.403,0.549-0.419,1.025c-0.01,0.287,0.063,0.711,0.448,1.155c0.156,0.816,0.475,1.515,0.892,2.059
		c-0.036,0.445-0.104,0.843-0.215,1.153c-1.242,0.152-5.331,0.842-5.404,3.322v1.857C8.68,30.808,8.903,31.031,9.178,31.031z
		 M13.955,21.025c0.006-0.255,0.221-0.459,0.221-0.459c0.09-0.079,0.148-0.188,0.165-0.307c0.216-1.556,1.092-2.685,2.083-2.685
		c0.918,0,1.754,0.984,2.034,2.394c0.021,0.109,0.083,0.212,0.167,0.285c0.003,0.002,0.293,0.258,0.311,0.594
		c0.011,0.21-0.093,0.434-0.309,0.663c-0.069,0.074-0.115,0.167-0.13,0.267c-0.233,1.507-1.104,2.601-2.071,2.601
		c-0.949,0-1.815-1.074-2.06-2.553c-0.017-0.103-0.065-0.197-0.138-0.271C14.042,21.37,13.951,21.191,13.955,21.025z M9.677,28.688
		c0.046-1.578,3.569-2.26,4.799-2.374c0.173-0.016,0.326-0.122,0.402-0.278c0.14-0.289,0.244-0.634,0.318-1.021
		c0.379,0.227,0.791,0.362,1.227,0.362c0.528,0,1.025-0.183,1.463-0.505c0.069,0.407,0.176,0.818,0.342,1.162
		c0.076,0.157,0.229,0.264,0.402,0.279c1.231,0.114,4.756,0.796,4.803,2.359v1.357H9.677V28.688z"/>
	<path fill="#414042" d="M42.168,13.12H5.948c-0.275,0-0.499,0.224-0.499,0.5v20.976c0,0.276,0.223,0.5,0.499,0.5h36.22
		c0.275,0,0.498-0.224,0.498-0.5V13.62C42.666,13.343,42.443,13.12,42.168,13.12z M41.67,34.096H6.446V14.12H41.67V34.096z"/>
	<path fill="#414042" d="M26.326,26.035h11.021c0.275,0,0.499-0.224,0.499-0.5s-0.224-0.5-0.499-0.5H26.326
		c-0.275,0-0.498,0.224-0.498,0.5S26.051,26.035,26.326,26.035z"/>
	<path fill="#414042" d="M26.326,19.02h11.021c0.275,0,0.499-0.224,0.499-0.5s-0.224-0.5-0.499-0.5H26.326
		c-0.275,0-0.498,0.224-0.498,0.5S26.051,19.02,26.326,19.02z"/>
</g>
</svg>
