<?xml version="1.0" encoding="utf-8"?>
<!-- Generator: Adobe Illustrator 16.0.0, SVG Export Plug-In . SVG Version: 6.00 Build 0)  -->
<!DOCTYPE svg PUBLIC "-//W3C//DTD SVG 1.1//EN" "http://www.w3.org/Graphics/SVG/1.1/DTD/svg11.dtd">
<svg version="1.1" id="Layer_1" xmlns="http://www.w3.org/2000/svg" xmlns:xlink="http://www.w3.org/1999/xlink" x="0px" y="0px"
	 width="48px" height="48px" viewBox="0 0 48 48" enable-background="new 0 0 48 48" xml:space="preserve">
<g>
	<path fill="#414042" d="M42.343,13.45H5.773c-0.275,0-0.498,0.224-0.498,0.5v20.315c0,0.276,0.223,0.5,0.498,0.5h36.57
		c0.275,0,0.498-0.224,0.498-0.5V13.95C42.841,13.673,42.618,13.45,42.343,13.45z M41.844,33.765H6.271V14.45h35.572V33.765z"/>
	<path fill="#414042" d="M11.292,19.189h11.282c0.275,0,0.499-0.224,0.499-0.5s-0.223-0.5-0.499-0.5H11.292
		c-0.276,0-0.499,0.224-0.499,0.5S11.016,19.189,11.292,19.189z"/>
	<path fill="#414042" d="M11.292,26.188h11.282c0.275,0,0.499-0.224,0.499-0.5s-0.223-0.5-0.499-0.5H11.292
		c-0.276,0-0.499,0.224-0.499,0.5S11.016,26.188,11.292,26.188z"/>
	<path fill="#414042" d="M30.9,25.494h7.171c0.275,0,0.499-0.224,0.499-0.5v-6.785c0-0.276-0.224-0.5-0.499-0.5H30.9
		c-0.275,0-0.498,0.224-0.498,0.5v6.785C30.402,25.271,30.625,25.494,30.9,25.494z M31.398,18.709h6.175v5.785h-6.175V18.709z"/>
</g>
</svg>
