<?xml version="1.0" encoding="utf-8"?>
<!-- Generator: Adobe Illustrator 16.0.0, SVG Export Plug-In . SVG Version: 6.00 Build 0)  -->
<!DOCTYPE svg PUBLIC "-//W3C//DTD SVG 1.1//EN" "http://www.w3.org/Graphics/SVG/1.1/DTD/svg11.dtd">
<svg version="1.1" id="Layer_1" xmlns="http://www.w3.org/2000/svg" xmlns:xlink="http://www.w3.org/1999/xlink" x="0px" y="0px"
	 width="48px" height="48px" viewBox="0 0 48 48" enable-background="new 0 0 48 48" xml:space="preserve">
<g>
	<path fill="#414042" d="M44.03,11.706H8.456c-0.275,0-0.499,0.224-0.499,0.5v1.188c0,0.276,0.223,0.5,0.499,0.5
		s0.499-0.224,0.499-0.5v-0.688h34.578v19.315h-0.313c-0.275,0-0.499,0.224-0.499,0.5s0.224,0.5,0.499,0.5h0.812
		c0.275,0,0.498-0.224,0.498-0.5V12.206C44.528,11.93,44.306,11.706,44.03,11.706z"/>
	<path fill="#414042" d="M40.654,15.193H4.085c-0.275,0-0.499,0.224-0.499,0.5v20.315c0,0.276,0.223,0.5,0.499,0.5h36.569
		c0.275,0,0.499-0.224,0.499-0.5V15.693C41.153,15.417,40.93,15.193,40.654,15.193z M40.156,35.509H4.583V16.193h35.573V35.509z"/>
	<path fill="#414042" d="M9.604,20.932h11.283c0.275,0,0.498-0.224,0.498-0.5s-0.223-0.5-0.498-0.5H9.604
		c-0.275,0-0.499,0.224-0.499,0.5S9.329,20.932,9.604,20.932z"/>
	<path fill="#414042" d="M9.604,27.932h11.283c0.275,0,0.498-0.224,0.498-0.5s-0.223-0.5-0.498-0.5H9.604
		c-0.275,0-0.499,0.224-0.499,0.5S9.329,27.932,9.604,27.932z"/>
	<path fill="#414042" d="M29.213,27.238h7.171c0.275,0,0.498-0.224,0.498-0.5v-6.785c0-0.276-0.223-0.5-0.498-0.5h-7.171
		c-0.275,0-0.499,0.224-0.499,0.5v6.785C28.714,27.015,28.938,27.238,29.213,27.238z M29.711,20.454h6.175v5.785h-6.175V20.454z"/>
</g>
</svg>
