<?xml version="1.0" encoding="utf-8"?>
<!-- Generator: Adobe Illustrator 16.0.0, SVG Export Plug-In . SVG Version: 6.00 Build 0)  -->
<!DOCTYPE svg PUBLIC "-//W3C//DTD SVG 1.1//EN" "http://www.w3.org/Graphics/SVG/1.1/DTD/svg11.dtd">
<svg version="1.1" id="Layer_1" xmlns="http://www.w3.org/2000/svg" xmlns:xlink="http://www.w3.org/1999/xlink" x="0px" y="0px"
	 width="48px" height="48px" viewBox="0 0 48 48" enable-background="new 0 0 48 48" xml:space="preserve">
<g>
	<path fill="#414042" d="M23.799,2.449c-11.966,0-21.701,9.735-21.701,21.701c0,11.966,9.735,21.701,21.701,21.701
		S45.5,36.116,45.5,24.15C45.5,12.184,35.765,2.449,23.799,2.449z M23.799,44.852c-11.415,0-20.701-9.286-20.701-20.701
		c0-11.415,9.286-20.701,20.701-20.701c11.415,0,20.701,9.287,20.701,20.701C44.5,35.565,35.214,44.852,23.799,44.852z"/>
	<path fill="#414042" d="M38.799,23.65h-1.822c-0.111-2.971-1.214-5.801-3.143-8.061l2.271-4.063
		c0.112-0.201,0.073-0.453-0.096-0.609c-0.168-0.158-0.421-0.178-0.614-0.054l-3.919,2.557c-2.112-1.515-4.575-2.355-7.177-2.452
		V9.15c0-0.276-0.224-0.5-0.5-0.5s-0.5,0.224-0.5,0.5v1.824c-6.879,0.26-12.416,5.796-12.676,12.676H8.799
		c-0.276,0-0.5,0.224-0.5,0.5s0.224,0.5,0.5,0.5h1.822c0.111,2.938,1.193,5.745,3.089,7.995l-2.214,3.962
		c-0.112,0.201-0.073,0.452,0.095,0.609c0.095,0.089,0.218,0.135,0.341,0.135c0.095,0,0.189-0.026,0.273-0.081l3.798-2.479
		c2.139,1.571,4.643,2.441,7.295,2.539v1.819c0,0.276,0.224,0.5,0.5,0.5s0.5-0.224,0.5-0.5v-1.824
		c6.88-0.26,12.416-5.796,12.676-12.676h1.824c0.276,0,0.5-0.224,0.5-0.5S39.075,23.65,38.799,23.65z M26.689,26.321l-0.462-0.475
		l-0.868-0.893c0.126-0.242,0.203-0.513,0.203-0.804c0-0.972-0.791-1.763-1.764-1.763c-0.273,0-0.529,0.068-0.76,0.18l-1.456-1.497
		l10.133-6.612c0.001,0,0.001-0.001,0.002-0.001l2.523-1.646L26.689,26.321z M23.062,24.027l0.842,0.866
		c-0.036,0.005-0.068,0.021-0.105,0.021c-0.42,0-0.762-0.343-0.762-0.764C23.037,24.106,23.055,24.069,23.062,24.027z
		 M23.846,23.397c0.391,0.025,0.702,0.339,0.713,0.733L23.846,23.397z M11.598,24.15c0-6.728,5.474-12.201,12.201-12.201
		c2.442,0,4.768,0.715,6.774,2.061l-10.046,6.555c-0.001,0.001-0.002,0.003-0.004,0.004c-0.025,0.017-0.04,0.043-0.062,0.063
		c-0.032,0.031-0.067,0.06-0.09,0.098c-0.002,0.004-0.007,0.006-0.01,0.011l-6.128,10.967C12.535,29.558,11.598,26.905,11.598,24.15
		z M20.908,21.813l1.389,1.428c-0.162,0.266-0.26,0.575-0.26,0.909c0,0.973,0.791,1.764,1.762,1.764
		c0.317,0,0.611-0.091,0.868-0.237l1.35,1.387l-12.658,8.26L20.908,21.813z M23.799,36.352c-2.496,0-4.863-0.744-6.897-2.146
		l10.171-6.637c0.001-0.001,0.002-0.003,0.003-0.003c0.019-0.013,0.029-0.032,0.046-0.047c0.04-0.035,0.08-0.071,0.107-0.117
		c0.002-0.003,0.005-0.005,0.007-0.008l6.075-10.869C35.043,18.685,36,21.361,36,24.15C36,30.878,30.526,36.352,23.799,36.352z"/>
</g>
</svg>
