<?xml version="1.0" encoding="utf-8"?>
<!-- Generator: Adobe Illustrator 16.0.0, SVG Export Plug-In . SVG Version: 6.00 Build 0)  -->
<!DOCTYPE svg PUBLIC "-//W3C//DTD SVG 1.1//EN" "http://www.w3.org/Graphics/SVG/1.1/DTD/svg11.dtd">
<svg version="1.1" id="Layer_1" xmlns="http://www.w3.org/2000/svg" xmlns:xlink="http://www.w3.org/1999/xlink" x="0px" y="0px"
	 width="48px" height="48px" viewBox="0 0 48 48" enable-background="new 0 0 48 48" xml:space="preserve">
<g>
	<path fill="#414042" d="M42.314,13.451H6.74c-0.276,0-0.499,0.224-0.499,0.5v1.189c0,0.276,0.223,0.5,0.499,0.5
		c0.275,0,0.498-0.224,0.498-0.5v-0.689h34.579v19.316h-0.313c-0.276,0-0.499,0.224-0.499,0.5s0.223,0.5,0.499,0.5h0.812
		c0.275,0,0.498-0.224,0.498-0.5V13.951C42.813,13.675,42.59,13.451,42.314,13.451z"/>
	<path fill="#414042" d="M45.663,9.961H9.093c-0.276,0-0.499,0.224-0.499,0.5v0.804c0,0.276,0.223,0.5,0.499,0.5
		c0.275,0,0.498-0.224,0.498-0.5v-0.304h35.574v19.316h-0.313c-0.275,0-0.498,0.224-0.498,0.5s0.223,0.5,0.498,0.5h0.811
		c0.275,0,0.499-0.224,0.499-0.5V10.461C46.162,10.185,45.938,9.961,45.663,9.961z"/>
	<path fill="#414042" d="M39.021,16.939H2.452c-0.275,0-0.499,0.224-0.499,0.5v20.314c0,0.276,0.223,0.5,0.499,0.5h36.569
		c0.275,0,0.498-0.224,0.498-0.5V17.439C39.52,17.163,39.297,16.939,39.021,16.939z M38.523,37.254H2.951V17.939h35.573V37.254z"/>
	<path fill="#414042" d="M7.971,22.678h11.283c0.275,0,0.499-0.224,0.499-0.5s-0.223-0.5-0.499-0.5H7.971
		c-0.275,0-0.498,0.224-0.498,0.5S7.695,22.678,7.971,22.678z"/>
	<path fill="#414042" d="M7.971,29.678h11.283c0.275,0,0.499-0.224,0.499-0.5s-0.223-0.5-0.499-0.5H7.971
		c-0.275,0-0.498,0.224-0.498,0.5S7.695,29.678,7.971,29.678z"/>
	<path fill="#414042" d="M27.579,28.984h7.172c0.275,0,0.498-0.224,0.498-0.5v-6.785c0-0.276-0.223-0.5-0.498-0.5h-7.172
		c-0.275,0-0.498,0.224-0.498,0.5v6.785C27.081,28.761,27.304,28.984,27.579,28.984z M28.077,22.199h6.175v5.785h-6.175V22.199z"/>
</g>
</svg>
