<?xml version="1.0" encoding="utf-8"?>
<!-- Generator: Adobe Illustrator 16.0.0, SVG Export Plug-In . SVG Version: 6.00 Build 0)  -->
<!DOCTYPE svg PUBLIC "-//W3C//DTD SVG 1.1//EN" "http://www.w3.org/Graphics/SVG/1.1/DTD/svg11.dtd">
<svg version="1.1" id="Layer_1" xmlns="http://www.w3.org/2000/svg" xmlns:xlink="http://www.w3.org/1999/xlink" x="0px" y="0px"
	 width="48px" height="48px" viewBox="0 0 48 48" enable-background="new 0 0 48 48" xml:space="preserve">
<g>
	<path fill="#414042" d="M23.823,21.395l0.101,0.001c1.608,0,3.121-0.63,4.259-1.774c1.131-1.137,1.752-2.631,1.75-4.209
		c-0.005-3.295-2.677-5.99-5.988-6.006c-3.271,0-5.943,2.68-5.958,5.975C17.971,18.642,20.588,21.339,23.823,21.395z M23.973,10.331
		c2.774,0.014,5.034,2.294,5.039,5.083c0.001,1.33-0.524,2.592-1.48,3.553c-0.965,0.97-2.246,1.503-3.607,1.503l-0.086,0
		c-2.731-0.047-4.943-2.328-4.929-5.084C18.922,12.598,21.181,10.331,23.973,10.331z"/>
	<path fill="#414042" d="M44.566,4.06H3.549c-0.903,0-1.637,0.729-1.637,1.624v36.847c0,0.895,0.734,1.623,1.637,1.623h41.017
		c0.902,0,1.637-0.729,1.637-1.623V5.684C46.203,4.789,45.469,4.06,44.566,4.06z M3.549,4.985h41.017
		c0.394,0,0.714,0.314,0.714,0.699v28.375h-9.934c-0.001-1.445-0.012-5.688-0.053-5.944c-0.477-3.016-2.939-5.123-5.989-5.125
		c-0.111,0-11.18,0.004-11.57,0.061c-2.993,0.438-5.167,2.96-5.169,5.997c-0.002,1.387-0.001,3.968,0,5.012h-9.73V5.684
		C2.835,5.299,3.155,4.985,3.549,4.985z M13.488,29.049c0.002-2.616,1.803-4.707,4.367-5.082c0.401-0.035,7.558-0.052,11.45-0.052
		c2.586,0.001,4.674,1.787,5.077,4.329c0.027,0.294,0.044,4.414,0.044,5.814H13.487C13.487,33.007,13.485,30.429,13.488,29.049z
		 M44.566,43.229H3.549c-0.394,0-0.714-0.313-0.714-0.698v-7.548h10.191h21.859H45.28v7.548
		C45.28,42.916,44.96,43.229,44.566,43.229z"/>
</g>
</svg>
