<?xml version="1.0" encoding="utf-8"?>
<!-- Generator: Adobe Illustrator 16.0.0, SVG Export Plug-In . SVG Version: 6.00 Build 0)  -->
<!DOCTYPE svg PUBLIC "-//W3C//DTD SVG 1.1//EN" "http://www.w3.org/Graphics/SVG/1.1/DTD/svg11.dtd">
<svg version="1.1" id="Layer_1" xmlns="http://www.w3.org/2000/svg" xmlns:xlink="http://www.w3.org/1999/xlink" x="0px" y="0px"
	 width="48px" height="48px" viewBox="0 0 48 48" enable-background="new 0 0 48 48" xml:space="preserve">
<g>
	<path fill="#414042" d="M46.856,13.77H1.259c-0.275,0-0.498,0.224-0.498,0.5v19.676c0,0.276,0.223,0.5,0.498,0.5h45.598
		c0.275,0,0.498-0.224,0.498-0.5V14.27C47.354,13.993,47.132,13.77,46.856,13.77z M46.357,33.445h-44.6V14.77h44.6V33.445z"/>
	<path fill="#414042" d="M18.736,28.486c0.007,0.03,0.008,0.063,0.02,0.091c0,0.001,0,0.002,0.001,0.003
		c0.001,0.004,0.005,0.005,0.007,0.008c0.035,0.076,0.092,0.137,0.159,0.187c0.017,0.013,0.032,0.023,0.05,0.033
		c0.072,0.042,0.151,0.071,0.241,0.071c0,0,0,0,0,0l0,0c0.004,0,0.008-0.003,0.013-0.003c0.065-0.002,0.127-0.014,0.184-0.038
		c0.001-0.001,0.002,0,0.003-0.001l9.688-4.272c0.016-0.007,0.025-0.02,0.04-0.028c0.02-0.011,0.035-0.024,0.054-0.038
		c0.063-0.048,0.113-0.104,0.147-0.173c0.004-0.007,0.012-0.01,0.015-0.017c0.001-0.003,0.001-0.006,0.002-0.009
		c0.016-0.038,0.021-0.079,0.026-0.12c0.004-0.024,0.013-0.048,0.013-0.072s-0.009-0.048-0.013-0.072
		c-0.006-0.041-0.011-0.082-0.026-0.12c-0.001-0.003-0.001-0.006-0.002-0.009c-0.009-0.021-0.026-0.035-0.038-0.054
		c-0.021-0.034-0.039-0.068-0.067-0.097c-0.027-0.027-0.06-0.044-0.092-0.064c-0.021-0.013-0.036-0.031-0.059-0.042l-9.688-4.271
		c-0.001,0-0.002,0-0.003,0c-0.038-0.017-0.082-0.02-0.124-0.027c-0.023-0.003-0.045-0.014-0.068-0.014
		c-0.002,0-0.003-0.001-0.005-0.001c-0.031,0-0.059,0.012-0.088,0.018c-0.033,0.006-0.066,0.007-0.097,0.02
		c-0.034,0.014-0.061,0.037-0.09,0.057c-0.024,0.017-0.05,0.028-0.071,0.048c-0.032,0.031-0.053,0.07-0.076,0.109
		c-0.01,0.017-0.025,0.029-0.034,0.048c0,0.001,0,0.002-0.001,0.003c-0.012,0.028-0.013,0.06-0.02,0.09
		c-0.008,0.035-0.021,0.07-0.021,0.104c0,0.001,0,0.002,0,0.003v8.542c0,0.001,0,0.002,0,0.003
		C18.716,28.417,18.729,28.451,18.736,28.486z M19.711,20.603l7.952,3.505l-7.952,3.505V20.603z"/>
	<path fill="#414042" d="M1.259,12.399h6.146c0.275,0,0.499-0.224,0.499-0.5V7.066c0-0.276-0.223-0.5-0.499-0.5H1.259
		c-0.275,0-0.498,0.224-0.498,0.5v4.833C0.761,12.176,0.983,12.399,1.259,12.399z M1.757,7.566h5.149v3.833H1.757V7.566z"/>
	<path fill="#414042" d="M11.122,12.399h6.146c0.275,0,0.498-0.224,0.498-0.5V7.066c0-0.276-0.223-0.5-0.498-0.5h-6.146
		c-0.275,0-0.499,0.224-0.499,0.5v4.833C10.624,12.176,10.847,12.399,11.122,12.399z M11.62,7.566h5.149v3.833H11.62V7.566z"/>
	<path fill="#414042" d="M20.985,12.399h6.146c0.275,0,0.498-0.224,0.498-0.5V7.066c0-0.276-0.223-0.5-0.498-0.5h-6.146
		c-0.275,0-0.498,0.224-0.498,0.5v4.833C20.487,12.176,20.709,12.399,20.985,12.399z M21.483,7.566h5.148v3.833h-5.148V7.566z"/>
	<path fill="#414042" d="M30.848,12.399h6.146c0.275,0,0.498-0.224,0.498-0.5V7.066c0-0.276-0.223-0.5-0.498-0.5h-6.146
		c-0.275,0-0.498,0.224-0.498,0.5v4.833C30.35,12.176,30.572,12.399,30.848,12.399z M31.347,7.566h5.148v3.833h-5.148V7.566z"/>
	<path fill="#414042" d="M46.856,6.566h-6.146c-0.275,0-0.499,0.224-0.499,0.5v4.833c0,0.276,0.224,0.5,0.499,0.5h6.146
		c0.275,0,0.498-0.224,0.498-0.5V7.066C47.354,6.79,47.132,6.566,46.856,6.566z M46.357,11.399h-5.148V7.566h5.148V11.399z"/>
	<path fill="#414042" d="M7.404,35.815H1.259c-0.275,0-0.498,0.224-0.498,0.5v4.834c0,0.276,0.223,0.5,0.498,0.5h6.146
		c0.275,0,0.499-0.224,0.499-0.5v-4.834C7.903,36.039,7.68,35.815,7.404,35.815z M6.906,40.649H1.757v-3.834h5.149V40.649z"/>
	<path fill="#414042" d="M17.268,35.815h-6.146c-0.275,0-0.499,0.224-0.499,0.5v4.834c0,0.276,0.223,0.5,0.499,0.5h6.146
		c0.275,0,0.498-0.224,0.498-0.5v-4.834C17.766,36.039,17.543,35.815,17.268,35.815z M16.769,40.649H11.62v-3.834h5.149V40.649z"/>
	<path fill="#414042" d="M27.131,35.815h-6.146c-0.275,0-0.498,0.224-0.498,0.5v4.834c0,0.276,0.223,0.5,0.498,0.5h6.146
		c0.275,0,0.498-0.224,0.498-0.5v-4.834C27.629,36.039,27.406,35.815,27.131,35.815z M26.632,40.649h-5.148v-3.834h5.148V40.649z"/>
	<path fill="#414042" d="M36.994,35.815h-6.146c-0.275,0-0.498,0.224-0.498,0.5v4.834c0,0.276,0.223,0.5,0.498,0.5h6.146
		c0.275,0,0.498-0.224,0.498-0.5v-4.834C37.492,36.039,37.27,35.815,36.994,35.815z M36.495,40.649h-5.148v-3.834h5.148V40.649z"/>
	<path fill="#414042" d="M46.856,35.815h-6.146c-0.275,0-0.499,0.224-0.499,0.5v4.834c0,0.276,0.224,0.5,0.499,0.5h6.146
		c0.275,0,0.498-0.224,0.498-0.5v-4.834C47.354,36.039,47.132,35.815,46.856,35.815z M46.357,40.649h-5.148v-3.834h5.148V40.649z"/>
</g>
</svg>
