<?xml version="1.0" encoding="utf-8"?>
<!-- Generator: Adobe Illustrator 16.0.0, SVG Export Plug-In . SVG Version: 6.00 Build 0)  -->
<!DOCTYPE svg PUBLIC "-//W3C//DTD SVG 1.1//EN" "http://www.w3.org/Graphics/SVG/1.1/DTD/svg11.dtd">
<svg version="1.1" id="Layer_1" xmlns="http://www.w3.org/2000/svg" xmlns:xlink="http://www.w3.org/1999/xlink" x="0px" y="0px"
	 width="48px" height="48px" viewBox="0 0 48 48" enable-background="new 0 0 48 48" xml:space="preserve">
<path fill="#414042" d="M39.318,31.507c-2.71,0-5.058,1.559-6.214,3.826l-17.819-8.675c0.313-0.795,0.491-1.657,0.491-2.562
	c0-0.717-0.109-1.409-0.309-2.061l17.809-8.836c1.207,2.094,3.46,3.51,6.042,3.51c3.842,0,6.968-3.139,6.968-6.997
	s-3.126-6.997-6.968-6.997c-3.849,0-6.979,3.139-6.979,6.997c0,0.915,0.181,1.786,0.5,2.587l-17.741,8.804
	c-1.12-2.363-3.514-4.005-6.289-4.005c-3.848,0-6.979,3.139-6.979,6.998c0,3.857,3.131,6.996,6.979,6.996
	c2.586,0,4.844-1.426,6.046-3.532l17.861,8.695c-0.24,0.707-0.377,1.462-0.377,2.249c0,3.857,3.131,6.995,6.979,6.995
	c3.842,0,6.968-3.138,6.968-6.995C46.286,34.646,43.16,31.507,39.318,31.507z M39.318,3.716c3.292,0,5.971,2.69,5.971,5.997
	s-2.679,5.997-5.971,5.997c-3.299,0-5.982-2.69-5.982-5.997S36.02,3.716,39.318,3.716z M8.809,30.092
	c-3.299,0-5.982-2.689-5.982-5.996c0-3.307,2.684-5.998,5.982-5.998c3.292,0,5.971,2.691,5.971,5.998
	C14.78,27.402,12.101,30.092,8.809,30.092z M39.318,44.499c-3.299,0-5.982-2.689-5.982-5.995c0-3.307,2.684-5.997,5.982-5.997
	c3.292,0,5.971,2.69,5.971,5.997C45.289,41.81,42.61,44.499,39.318,44.499z"/>
</svg>
