<?xml version="1.0" encoding="utf-8"?>
<!-- Generator: Adobe Illustrator 16.0.0, SVG Export Plug-In . SVG Version: 6.00 Build 0)  -->
<!DOCTYPE svg PUBLIC "-//W3C//DTD SVG 1.1//EN" "http://www.w3.org/Graphics/SVG/1.1/DTD/svg11.dtd">
<svg version="1.1" id="Layer_1" xmlns="http://www.w3.org/2000/svg" xmlns:xlink="http://www.w3.org/1999/xlink" x="0px" y="0px"
	 width="1024px" height="1024px" viewBox="0 0 1024 1024" enable-background="new 0 0 1024 1024" xml:space="preserve">
<g>
	<path fill="#414042" d="M748.208,288.923h-25.646c4.729-16.104,5.896-27.792,6-29.146c0.521-6.521-1.708-12.979-6.167-17.771
		c-4.416-4.813-10.666-7.563-17.229-7.563H532.688c-5.458-0.041-53.354-1.708-55.5-40.771V38.818c0-12.604-9.958-23-22.583-23.458
		c-0.292-0.021-2.75-0.021-3.042-0.021c-15.542,0-95.771,3-149.938,62.646c-39.083,43.063-55.104,104.229-47.438,183.167
		c0.667,4.354,17.5,106.396,110.083,131.875c46.959,12.938,37.792,64.333,36.604,70.021c-0.271,1.146-0.417,2.333-0.5,3.458
		l-28.25,427.396c-0.063,0.875-0.063,1.791-0.021,2.688c1.833,37.291,27.979,107.563,112.833,116.541
		c2.063,0.604,4.25,0.917,6.542,0.917h9.104c0.167,0,0.292,0,0.479,0c2.375,0,4.667-0.313,6.813-1
		c84.25-9.292,110.25-79.292,112.083-116.458c0.042-0.896,0.042-1.813-0.021-2.688l-28.271-427.396
		c-0.063-0.813-0.188-1.813-0.334-2.625c-0.938-5.458-7.896-53.916,38.604-71.541c33.958-12.917,56.271-34.479,70.938-56.5h47.333
		c12.959,0,23.459-10.521,23.459-23.438C771.667,299.423,761.167,288.923,748.208,288.923z M496,923.61
		c-37.813,0-37.813-58.667,0-58.667C533.833,864.943,533.833,923.61,496,923.61z M555.729,335.84h-8.375
		c-7.917,0-14.584-4.167-18.813-10.146c-4.271,5.979-10.917,10.146-18.813,10.146h-10.209c-7.791,0-14.333-4.021-18.625-9.854
		c-4.25,5.833-10.813,9.854-18.583,9.854h-9.229c-12.979,0-23.458-10.521-23.458-23.438c0-12.979,10.479-23.479,23.458-23.479h9.229
		c7.771,0,14.333,4.042,18.583,9.875c4.292-5.833,10.834-9.875,18.625-9.875h10.209c7.896,0,14.541,4.167,18.813,10.167
		c4.229-6,10.896-10.167,18.813-10.167h8.375c12.958,0,23.458,10.5,23.458,23.479C579.188,325.318,568.688,335.84,555.729,335.84z"
		/>
	<path fill="#414042" d="M537.271,203.756c6.25,7.125,17.834,15.75,38.375,16.459h121.271c11.771,0,21.333-11.354,21.333-23.146
		c0-0.896-0.063-1.791-0.167-2.688C703.438,79.235,603.771,48.506,545.875,48.506c-0.021,0-0.021,0-0.021,0
		C534.25,48.777,525,58.256,525,69.84l0.104,95.104C524.875,167.235,523.333,187.84,537.271,203.756z"/>
</g>
</svg>
