<?xml version="1.0" encoding="utf-8"?>
<!-- Generator: Adobe Illustrator 16.0.0, SVG Export Plug-In . SVG Version: 6.00 Build 0)  -->
<!DOCTYPE svg PUBLIC "-//W3C//DTD SVG 1.1//EN" "http://www.w3.org/Graphics/SVG/1.1/DTD/svg11.dtd">
<svg version="1.1" id="Layer_1" xmlns="http://www.w3.org/2000/svg" xmlns:xlink="http://www.w3.org/1999/xlink" x="0px" y="0px"
	 width="1024px" height="1024px" viewBox="0 0 1024 1024" enable-background="new 0 0 1024 1024" xml:space="preserve">
<path fill="#414042" d="M727,513.693c6-9.938,7.333-19.479,7.083-26.938c-1.291-32.208-34-53.688-40.541-57.625
	c-6.667-4.063-14.875-4.521-21.917-1.313l-7.542,3.459l-13.25-41.271c21.063-22.563,34.584-49.875,34.584-79.375
	c0-3.708-0.875-7.271-2.5-10.5c0.208-3-0.167-6.021-1.167-9L593.542,31.36c-3.209-9.5-12.125-15.917-22.167-15.917h-45.583
	c-2.375-0.75-4.875-1.188-7.459-1.188h-65.666c-10.042,0-18.959,6.375-22.167,15.875l-88.208,259.813
	c-1.584,4.75-1.584,9.646-0.292,14.104c-0.604,2.104-0.938,4.313-0.938,6.583c0,28.5,12.604,54.979,32.479,77.063l-13.604,42.396
	l-7.542-3.438c-5.896-2.667-12.646-2.813-18.646-0.354c-3.542,1.458-34.896,15.167-41.875,45.521
	c-2.229,9.771-2.396,23.584,6.063,39.688c-42.271,43.834-148.729,184.209-103.063,450.417c0.583,3.563,2,6.938,4.167,9.833
	c2.583,3.563,26.708,35.042,71.333,41.167c35.083,4.729,71.625-7.458,108.604-36.583c7.729-6.084,10.813-16.417,7.729-25.771
	c-0.75-2.208-70-216.646,25.979-370.5c13.771,2.709,32.771,3.438,50.979-5.729c14.146-7.084,32.563-22.959,40.313-58.167
	c2.354-10.771-3.104-21.75-13.146-26.333l-20-9.125l12.5-32.229c0.021-0.063,0.042-0.146,0.084-0.188
	c19.208,3.563,37.791,3.729,56.979,0.458c0.084,0.313,0.209,0.604,0.313,0.875l12.5,32.292l-19.958,9.146
	c-8.292,3.729-13.667,11.979-13.708,21.063c-0.334,33.834,14.125,51.125,26.313,59.667c20.896,14.667,47.75,12.979,65.375,9.438
	c96.313,153.792,26.875,368.271,26.104,370.5c-3.083,9.375,0,19.688,7.771,25.813c31.729,24.979,63.188,37.583,93.625,37.583
	c5.021,0,9.979-0.333,14.958-1.041c44.604-6.146,68.729-37.584,71.313-41.167c2.146-2.896,3.583-6.271,4.167-9.833
	C874.125,700.84,770.75,559.985,727,513.693z M405.938,248.193l63.5-187.104h19.188v122L405.938,248.193z M512,355.048
	c-37.708,0-37.708-58.521,0-58.521C549.75,296.527,549.75,355.048,512,355.048z M535.438,181.193V62.298h19.146l62.084,182.854
	L535.438,181.193z"/>
</svg>
