<?xml version="1.0" encoding="utf-8"?>
<!-- Generator: Adobe Illustrator 16.0.0, SVG Export Plug-In . SVG Version: 6.00 Build 0)  -->
<!DOCTYPE svg PUBLIC "-//W3C//DTD SVG 1.1//EN" "http://www.w3.org/Graphics/SVG/1.1/DTD/svg11.dtd">
<svg version="1.1" id="Layer_1" xmlns="http://www.w3.org/2000/svg" xmlns:xlink="http://www.w3.org/1999/xlink" x="0px" y="0px"
	 width="1024px" height="1024px" viewBox="0 0 1024 1024" enable-background="new 0 0 1024 1024" xml:space="preserve">
<path fill="#414042" d="M939.688,541.152h-65.813c-14.229,0-26.708,7.166-34.188,17.958l-25.333,0.042v-98.448
	c3.771-5.021,6.458-10.917,6.458-17.688c0-16.583-13.5-30.063-30.063-30.063c-16.542,0-30.021,13.479-30.021,30.063
	c0,6.729,2.666,12.646,6.416,17.667v98.552l-116.5,0.167v-7.292c0-5.417-1.875-10.625-5.25-14.833l-5.083-6.292l5.896-113.198
	c3.729-33.75-6.271-65.75-28.146-90.125c-24.042-26.916-59.917-41.708-100.958-41.708H172.646
	c-40.958,0-76.854,14.792-100.916,41.667c-21.875,24.375-31.875,56.375-28.292,88.479l5,123.678
	c0.063,1.458,0.292,2.958,0.604,4.416c2.333,10,24.583,97.834,82.771,99.042c6.271-0.042,12.479-2.292,17-6.75
	c4.5-4.417,7.083-10.5,7.083-16.833v-85l1.834-89.781c0-23.438,19.063-42.521,41.833-42.542l142.396,4.313
	c0.813,0.063,1.604,0.104,2.396,0.104l148.854,0.188c23.438,0,42.521,19.021,42.521,42.708l0.708,80.844l-6.104,9.125
	c-2.625,3.875-4.063,8.458-4.063,13.167v5.416H197.458c-13.021,0-23.583,10.542-23.583,23.584c0,13.083,10.563,23.625,23.583,23.625
	h329.188c1.959,31,32.459,52.416,60.167,52.416c33.875,0,60.542-22.208,63.292-51.25l117.041-0.125v92.021
	c-3.125,4.646-5.416,9.938-5.416,15.916c0,16.021,13.041,29.063,29.021,29.063c16.021,0,29.021-13.041,29.021-29.063
	c0-6.021-2.25-11.313-5.416-15.916V606.36l25.375-0.042c7.5,10.834,19.958,17.959,34.146,17.959h65.813
	c22.938,0,41.583-18.667,41.583-41.584C981.271,559.777,962.625,541.152,939.688,541.152z"/>
</svg>
