<?xml version="1.0" encoding="utf-8"?>
<!-- Generator: Adobe Illustrator 16.0.0, SVG Export Plug-In . SVG Version: 6.00 Build 0)  -->
<!DOCTYPE svg PUBLIC "-//W3C//DTD SVG 1.1//EN" "http://www.w3.org/Graphics/SVG/1.1/DTD/svg11.dtd">
<svg version="1.1" id="Layer_1" xmlns="http://www.w3.org/2000/svg" xmlns:xlink="http://www.w3.org/1999/xlink" x="0px" y="0px"
	 width="1024px" height="1024px" viewBox="0 0 1024 1024" enable-background="new 0 0 1024 1024" xml:space="preserve">
<path fill="#414042" d="M633.521,881.548l-0.041-211.75c0.958-40.167-21.667-57.583-35.209-61.583
	c-1.166-0.354-2.375-0.584-3.604-0.709c-14.792-1.625-18.5-4.583-18.646-4.583c-0.063-0.167-0.291-0.958-0.291-2.896
	c0-3.313,6.021-10.875,15.938-10.875c1.875,0,3.688-0.25,5.438-0.709c8.104-1.583,15.5-5.708,21.333-12.041
	c6.833-7.438,14.583-21.375,12.583-45.5c-0.083-0.792-0.166-1.563-0.333-2.334l-0.375-1.833
	c-1.125-22.313-18.625-40.083-39.958-40.083h-57.334V41.756c0-11.646-9.416-21.083-21.041-21.083c-11.604,0-21,9.438-21,21.083
	v444.896h-59.25c-23.75,0-41.542,25.313-41.542,47.979c0,32.021,17.333,47.792,34.333,52.209c1.959,0.583,4.021,0.916,6.167,0.916
	c10.333,0,17.5,9.209,17.542,12.271c0,1.396-0.084,2.25-0.042,2.438c-1.125,0.791-5.708,3.208-19.5,5.125
	c-1.042,0.125-2.063,0.333-3.083,0.625c-13.521,4-36.125,21.458-35.167,61.083L390.5,879.59
	c-0.188,2.166-4.542,53.604,29.875,91.396c21.833,23.917,53.375,36.583,93.813,37.625c0.563,0.063,1.146,0.104,1.75,0.104
	c1.271-0.042,2.521,0,3.813,0c0.688,0,1.354-0.063,2.021-0.125c34.729-1.125,62.292-12.667,81.979-34.209
	C638.271,936.485,633.646,881.902,633.521,881.548z M481.708,910.881c0,11.604-9.396,21.042-21.021,21.042
	c-11.583,0-21.021-9.438-21.021-21.042V678.965c0-11.604,9.438-21.021,21.021-21.021c11.625,0,21.021,9.417,21.021,21.021V910.881z
	 M587.521,910.881c0,11.604-9.416,21.042-21.041,21.042c-11.584,0-21.021-9.438-21.021-21.042V678.965
	c0-11.604,9.438-21.021,21.021-21.021c11.625,0,21.041,9.417,21.041,21.021V910.881z"/>
</svg>
