<?xml version="1.0" encoding="utf-8"?>
<!-- Generator: Adobe Illustrator 16.0.0, SVG Export Plug-In . SVG Version: 6.00 Build 0)  -->
<!DOCTYPE svg PUBLIC "-//W3C//DTD SVG 1.1//EN" "http://www.w3.org/Graphics/SVG/1.1/DTD/svg11.dtd">
<svg version="1.1" id="Layer_1" xmlns="http://www.w3.org/2000/svg" xmlns:xlink="http://www.w3.org/1999/xlink" x="0px" y="0px"
	 width="1024px" height="1024px" viewBox="0 0 1024 1024" enable-background="new 0 0 1024 1024" xml:space="preserve">
<g>
	<rect x="611.333" y="257.35" fill="#414042" width="27.979" height="43.813"/>
	<rect x="611.333" y="321.142" fill="#414042" width="27.979" height="43.833"/>
	<path fill="#414042" d="M890.625,255.829l46.25-38.354c15.083-12.896,11.667-25.583,9.5-30.458
		c-5.479-12.25-19.208-16.854-41.667-14.021l-387.958,0.063c-16.333-1.459-28.5,8.729-32.75,12.896l-5.042,4.063
		c-5.125-4.75-11.916-7.688-19.416-7.688h-40.375c-11.084,0-20.584,6.333-25.417,15.5l-45.917,4.313
		c-9.75,0-42.125,16.771-42.125,35.458v13.25H60c-11.042,0-19.958,8.938-19.958,19.959c0,11.021,8.916,19.958,19.958,19.958h245.708
		V314.1c0,14.646,25.292,35.375,39,38.417v0.125l48.5,7.646c4.667,9.709,14.479,16.5,25.959,16.5h40.375
		c7.666,0,14.625-3.083,19.791-7.979c7.584,9.604,16.084,27.125,20.875,44.938c0.292,1.063,0.667,2.166,1.167,3.208
		c14.458,31.271,50.25,35.104,70.417,32.375l70.5-0.042c3.375-0.25,6.104-0.229,9.166-0.333
		c4.209,10.125,17.334,46.448,0.334,70.698c-3.709,5.333-4.646,12.166-2.396,18.291c2.229,6.125,7.313,10.75,13.563,12.417
		l67.125,17.958c1.167,0.334,2.25,0.375,3.417,0.459c1.583,11.125,3.917,22.541,7.292,31.708c4.25,24.542,21.708,49.167,50.541,47.5
		c25.459-2.042,46.084,52.563,51.792,79.729c17.083,70.625,38.208,111.458,64.583,124.875c6.959,3.541,13.167,4.625,18.084,4.625
		c2.333,0,4.375-0.25,6.125-0.584c18.166-0.75,25.541-9.416,28.521-16.75c5.438-13.5-2.563-25.458-7.563-31.125
		c-40.583-73.583-33.188-140.625-31.292-153.271c3.521-5.167,15.125-6.917,19.417-6.958c10.583-0.084,20.042-4.042,27.333-11.459
		c14.792-15.083,15.292-39.25,15.25-42.916C989.833,444.184,916.833,301.767,890.625,255.829z M390.333,319.434l-36.458-5.771
		c-2.292-1.583-5.708-4.333-8.25-6.646v-61.063c2.208-1.542,4.833-3.208,6.667-4.208l38.041-3.542V319.434z M448.458,336.85H430.25
		V222.246h18.208V336.85z M532.292,225.496c22.708,0,22.708,35.229,0,35.229C509.583,260.725,509.583,225.496,532.292,225.496z
		 M550.25,402.204c-22.729,0-22.729-35.25,0-35.25C572.958,366.954,572.958,402.204,550.25,402.204z M660,365.246
		c0,10.063-8.167,18.25-18.188,18.25h-31.5c-10.042,0-18.229-8.188-18.229-18.25V254.162c0-10.041,8.188-18.208,18.229-18.208h31.5
		c10.021,0,18.188,8.167,18.188,18.208V365.246z M696.25,517.943c6.979-23.875,3.208-48.177-1.583-65.531
		c10.875,3.104,14.604,7.188,15.458,8.459c-0.958,31.489,6.667,52.031,14.229,64.614L696.25,517.943z M811.792,566.818
		c-22.709,0-22.709-35.25,0-35.25C834.542,531.568,834.542,566.818,811.792,566.818z M831.938,256.329
		c-22.729,0-22.729-35.229,0-35.229S854.667,256.329,831.938,256.329z M882.063,718.965c-1.354-6.459-8.979-40.542-26.771-69.229
		l26.791,0.083c-1.5,9.834-4.333,35.271,0.104,69.688C882.125,719.34,882.083,719.131,882.063,718.965z M879.25,423.684
		c-22.708,0-22.708-35.229,0-35.229C901.979,388.454,901.979,423.684,879.25,423.684z"/>
</g>
</svg>
