<?xml version="1.0" encoding="utf-8"?>
<!-- Generator: Adobe Illustrator 16.0.0, SVG Export Plug-In . SVG Version: 6.00 Build 0)  -->
<!DOCTYPE svg PUBLIC "-//W3C//DTD SVG 1.1//EN" "http://www.w3.org/Graphics/SVG/1.1/DTD/svg11.dtd">
<svg version="1.1" id="Layer_1" xmlns="http://www.w3.org/2000/svg" xmlns:xlink="http://www.w3.org/1999/xlink" x="0px" y="0px"
	 width="1024px" height="1024px" viewBox="0 0 1024 1024" enable-background="new 0 0 1024 1024" xml:space="preserve">
<g>
	<path fill="#414042" d="M577.396,549.485l-0.291-37.667c-0.459-51.125-1.375-157.479,0.166-250.291
		c2.167-127.396-77.666-184.938-81.041-187.292l-37.709-26.563l0.125,500.542L577.396,549.485z"/>
	<path fill="#414042" d="M601.063,883.881c-12.375-29.666-2.375-66.958-2.25-67.375c14.708-52.625-5.833-98.833-6.104-99.416
		c-0.291-0.75-6.521-18.979,4.104-48.438c10.104-28.313,9.958-52.417-0.542-71.542c-12.625-23.063-35.083-28.729-37.583-29.354
		l-112.646-0.541l-5.854,3.666c-3.833,2.396-23.083,15.625-22.729,37.417c0.188,9.292,3.917,22.458,20.604,33.313
		c0.583,3.292,0.792,277.167,0.792,277.167c-0.542,6.563-0.229,21.958,11.791,36.625c13.334,16.25,35.709,24.958,64.417,25.771
		c0,0,3.958,0.542,10.208,0.542c37.209,0,65.25-17.188,75.667-46.042C606.771,924.256,609.854,905.131,601.063,883.881z"/>
</g>
</svg>
