<?xml version="1.0" encoding="utf-8"?>
<!-- Generator: Adobe Illustrator 16.0.0, SVG Export Plug-In . SVG Version: 6.00 Build 0)  -->
<!DOCTYPE svg PUBLIC "-//W3C//DTD SVG 1.1//EN" "http://www.w3.org/Graphics/SVG/1.1/DTD/svg11.dtd">
<svg version="1.1" id="Layer_1" xmlns="http://www.w3.org/2000/svg" xmlns:xlink="http://www.w3.org/1999/xlink" x="0px" y="0px"
	 width="1024px" height="1024px" viewBox="0 0 1024 1024" enable-background="new 0 0 1024 1024" xml:space="preserve">
<g>
	<path fill="#414042" d="M793.5,154.537c-3.042-9.521-12.521-15.25-22.375-13.896c-27.479,4.167-56.604,6.25-86.583,6.25
		c-201.959,0-392.542-94.625-394.459-95.604c-9.625-4.875-21.416-1.313-26.791,8.063c-4.396,7.667-106.834,190.209,0.208,368.042
		c3.021,4.979,8,8.417,13.729,9.521c1.229,0.188,2.479,0.334,3.708,0.334c4.479,0,8.917-1.5,12.5-4.292
		c98.188-76.458,288.188-87.854,392.688-87.854c51.25,0,86.083,2.709,86.417,2.75c8.229,0.5,15.979-3.688,19.729-11
		C828.646,265.767,794.958,159.017,793.5,154.537z"/>
	<path fill="#414042" d="M744.5,395.871c-0.583-10.792-9.5-19.229-20.292-19.229h-91.5c-10.813,0-19.708,8.438-20.333,19.229
		l-30.5,543.76c-0.375,6.521,2.417,12.792,7.5,16.896c2.979,2.479,30.729,23.75,81.667,23.75c29.041,0,59.916-7,91.791-20.875
		c7.792-3.396,12.667-11.271,12.209-19.771L744.5,395.871z"/>
</g>
</svg>
