<?xml version="1.0" encoding="utf-8"?>
<!-- Generator: Adobe Illustrator 16.0.0, SVG Export Plug-In . SVG Version: 6.00 Build 0)  -->
<!DOCTYPE svg PUBLIC "-//W3C//DTD SVG 1.1//EN" "http://www.w3.org/Graphics/SVG/1.1/DTD/svg11.dtd">
<svg version="1.1" id="Layer_1" xmlns="http://www.w3.org/2000/svg" xmlns:xlink="http://www.w3.org/1999/xlink" x="0px" y="0px"
	 width="1024px" height="1024px" viewBox="0 0 1024 1024" enable-background="new 0 0 1024 1024" xml:space="preserve">
<g>
	<path fill="#414042" d="M722.375,72.277h-38.25c-1.729-0.313-3.667-0.5-5.875-0.5c-15.333,0-33.042,9.041-52.125,26.458
		c-0.563,0.5-2.354,2.021-7.167,2.021c-4.708,0-9.813-1.438-13.479-2.75c-6.854-10.146-19.834-25.229-41.688-25.229l-46.479,0.104
		l-57.188-0.104c-21.729,0-34.813,15.063-41.667,25.188c-3.666,1.354-8.75,2.791-13.458,2.791c-4.792,0-6.542-1.521-6.667-1.625
		c-19.604-17.813-37.291-26.854-52.646-26.854c-2.146,0-4.125,0.188-5.792,0.5h-38.271c-34.688,0-62.917,28.208-62.917,62.896
		v125.833c0,34.667,28.229,62.896,62.917,62.896h39.688c6.063,0.416,31.896,1.291,52.646-21.229
		c5.896-2.146,12.292-2.104,16.417-1.188c11.958,22.146,34.625,22.146,44.958,22.146l48.209,0.146l65.021-0.146
		c10.417,0,33.104,0,45.042-22.125c4.188-1,10.563-0.979,16.438,1.167c17.625,19.167,39.75,21.333,48.833,21.333
		c1.583,0,2.875-0.041,3.771-0.104h39.729c34.708,0,62.917-28.229,62.917-62.896V135.173
		C785.292,100.485,757.083,72.277,722.375,72.277z"/>
	<path fill="#414042" d="M589.75,374.298c-0.583-11.125-9.813-19.813-20.938-19.813h-94.354c-11.125,0-20.313,8.688-20.916,19.813
		l-31.459,541.375c-0.416,6.708,2.459,13.208,7.709,17.438c3.083,2.521,31.688,24.5,84.208,24.5c29.938,0,61.813-7.25,94.646-21.542
		c8.063-3.5,13.063-11.666,12.563-20.396L589.75,374.298z"/>
</g>
</svg>
