<?xml version="1.0" encoding="utf-8"?>
<!-- Generator: Adobe Illustrator 16.0.0, SVG Export Plug-In . SVG Version: 6.00 Build 0)  -->
<!DOCTYPE svg PUBLIC "-//W3C//DTD SVG 1.1//EN" "http://www.w3.org/Graphics/SVG/1.1/DTD/svg11.dtd">
<svg version="1.1" id="Layer_1" xmlns="http://www.w3.org/2000/svg" xmlns:xlink="http://www.w3.org/1999/xlink" x="0px" y="0px"
	 width="1024px" height="1024px" viewBox="0 0 1024 1024" enable-background="new 0 0 1024 1024" xml:space="preserve">
<g>
	<path fill="#414042" d="M754.333,76.735H698.75c-25.438,0-37.458,20.958-48.083,39.438l-3.979,7.104
		c-0.167,0.354-0.438,0.791-0.708,1.188h-18.354c-3.021-2.646-8.083-9.75-11.854-17.021c-5.063-8.396-18.5-30.708-44.791-30.708
		l-106.396,0.042c-6.104,0.25-149.791,7.625-211.458,121.833c-10.104,18.729-27.896,67-29.896,72.458
		c-3.104,8.417-0.375,17.917,6.708,23.438c7.063,5.542,16.938,5.896,24.396,0.875c0.604-0.396,60.688-40.438,122.604-40.438
		c4.729,0,9.438,0.209,13.063,0.584c0.625,0.125,13.75,2.729,24.229,18.083l8.916,16.583c8.375,16.542,17.854,35.25,45.354,35.25
		h107.167c22.438,0,41.833-16.041,49.229-40.188l6.313-18.313c0.146-0.229,0.292-0.416,0.438-0.583h10.771
		c2.666,3.5,6.375,11.333,8.375,17.938c0.333,1.271,0.833,2.479,1.458,3.646l2.146,4.521c5.021,10.854,13.438,29,44.354,29h55.583
		c26.729,0,47.709-25.104,47.709-57.188V133.985C802.042,101.881,781.063,76.735,754.333,76.735z"/>
	<path fill="#414042" d="M593.875,369.443c-0.625-11-9.708-19.583-20.729-19.583h-93.333c-11.021,0-20.104,8.583-20.729,19.583
		l-31.104,541.709c-0.375,6.646,2.458,13.083,7.625,17.271c3.041,2.479,31.354,24.229,83.313,24.229
		c29.625,0,61.125-7.167,93.625-21.313c7.958-3.459,12.938-11.542,12.438-20.188L593.875,369.443z"/>
</g>
</svg>
