<?xml version="1.0" encoding="utf-8"?>
<!-- Generator: Adobe Illustrator 16.0.0, SVG Export Plug-In . SVG Version: 6.00 Build 0)  -->
<!DOCTYPE svg PUBLIC "-//W3C//DTD SVG 1.1//EN" "http://www.w3.org/Graphics/SVG/1.1/DTD/svg11.dtd">
<svg version="1.1" id="Layer_1" xmlns="http://www.w3.org/2000/svg" xmlns:xlink="http://www.w3.org/1999/xlink" x="0px" y="0px"
	 width="1024px" height="1024px" viewBox="0 0 1024 1024" enable-background="new 0 0 1024 1024" xml:space="preserve">
<path fill="#414042" d="M625.938,712.027c-2.792-0.354-5.625-0.604-8.458-0.688l-62-166.917c15.271-11.208,24.5-22.5,24.854-23.021
	c88.604-101.604,160.084-291.167,144.354-382.709c-4.583-26.646-16.125-45.313-34.25-55.541c-5.271-2.959-11.438-3.5-17.146-1.625
	c-5.646,1.958-10.229,6.208-12.563,11.708l-145.75,342.229L385.5,86.777c-2.063-5.667-6.438-10.104-12.042-12.292
	c-5.563-2.167-11.813-1.896-17.166,0.792c-19.646,9.896-32,30.708-36.604,61.813c-15.25,102.688,55.292,314.063,128.25,383.563
	c8.208,7.541,16.542,15.958,21.563,21.666l-69.813,163.917c-2.771,0.042-5.688,0.042-8.542,0.25
	c-56.979,4.604-98.958,63.208-93.583,130.667c5.229,64.688,52.063,114.416,106.125,114.396c2.333,0,4.688-0.083,7.042-0.271
	c28.458-2.25,53.875-17.688,71.563-43.417c16.771-24.375,24.583-55.354,22.063-87.208c-3.521-44.334-27.042-83.667-61.375-102.646
	c-0.667-0.396-1.375-0.75-2.084-1.021l64.271-150.896c4.291-0.625,8.333-1.75,12.354-2.854l58.25,156.833l-2.125,1
	c-35.125,17.334-60.458,55.5-66.083,99.625c-4.042,31.729,2.313,63.084,17.958,88.188c16.459,26.542,41.084,43.146,69.417,46.729
	c3.792,0.458,7.625,0.75,11.396,0.75c24.354,0,47.979-9.938,67.542-28.563c21.438-20.417,35.396-49.146,39.458-80.854
	c4.021-31.75-2.313-63.041-17.938-88.166C678.938,732.235,654.271,715.652,625.938,712.027z M462.354,823.965
	c1.791,22.291-3.459,43.625-14.75,60.021c-10.375,15.083-24.667,24.083-40.209,25.292c-33.875,2.729-64.291-31.167-67.854-75.479
	c-3.5-44.313,21.146-82.583,54.938-85.313c1.229-0.104,2.479-0.125,3.75-0.125c3.416,0,6.833,0.354,10.146,1.083
	c0.583,0.146,1.146,0.25,1.729,0.313c1.291,0.854,2.666,1.563,4.166,2.146l9.542,3.646C445.271,768.048,460,794.131,462.354,823.965
	z M671.542,841.61c-2.813,22.167-12.313,41.938-26.75,55.708c-13.229,12.604-28.917,18.417-44.542,16.5
	c-15.479-1.979-29.333-11.604-38.938-27.146c-10.542-16.938-14.792-38.479-11.958-60.646c3.875-30.292,20.291-56.042,42.625-67.063
	l9.75-4.604c1.666,0.125,3.291,0,4.958-0.25c4.625-0.813,9.354-0.896,13.917-0.333c15.541,1.979,29.375,11.646,39.041,27.188
	C670.146,797.902,674.375,819.443,671.542,841.61z"/>
</svg>
