<?xml version="1.0" encoding="utf-8"?>
<!-- Generator: Adobe Illustrator 16.0.0, SVG Export Plug-In . SVG Version: 6.00 Build 0)  -->
<!DOCTYPE svg PUBLIC "-//W3C//DTD SVG 1.1//EN" "http://www.w3.org/Graphics/SVG/1.1/DTD/svg11.dtd">
<svg version="1.1" id="Layer_1" xmlns="http://www.w3.org/2000/svg" xmlns:xlink="http://www.w3.org/1999/xlink" x="0px" y="0px"
	 width="1024px" height="1024px" viewBox="0 0 1024 1024" enable-background="new 0 0 1024 1024" xml:space="preserve">
<g>
	<path fill="#414042" d="M602.938,19.1c-12.583,0-22.771,10.167-22.771,22.75v203.813c0,12.584-10.229,22.771-22.813,22.771h-22.584
		V41.85c0-12.583-10.188-22.75-22.75-22.75c-12.625,0-22.833,10.167-22.833,22.75v226.584h-22.563
		c-12.583,0-22.75-10.188-22.75-22.771V41.85c0-12.583-10.208-22.75-22.813-22.75c-12.583,0-22.792,10.167-22.792,22.75v203.813
		c0,37.709,30.667,68.354,68.354,68.354h90.729c37.708,0,68.354-30.646,68.354-68.354V41.85C625.708,29.267,615.5,19.1,602.938,19.1
		z"/>
	<path fill="#414042" d="M547.542,896.006h-9.063V347.475c0-12.583-10.209-22.791-22.834-22.791
		c-12.583,0-22.771,10.208-22.771,22.791v548.531h-7.813c-31.542,0-57.167,25.625-57.167,57.125
		c0,31.521,25.625,57.167,57.167,57.167h62.479c31.521,0,57.146-25.646,57.146-57.167
		C604.688,921.631,579.063,896.006,547.542,896.006z M547.542,964.735h-62.479c-6.396,0-11.625-5.208-11.625-11.604
		c0-6.375,5.229-11.604,11.625-11.604h62.479c6.375,0,11.563,5.229,11.563,11.604C559.104,959.527,553.917,964.735,547.542,964.735z
		"/>
</g>
</svg>
