<?xml version="1.0" encoding="utf-8"?>
<!-- Generator: Adobe Illustrator 16.0.0, SVG Export Plug-In . SVG Version: 6.00 Build 0)  -->
<!DOCTYPE svg PUBLIC "-//W3C//DTD SVG 1.1//EN" "http://www.w3.org/Graphics/SVG/1.1/DTD/svg11.dtd">
<svg version="1.1" id="Layer_1" xmlns="http://www.w3.org/2000/svg" xmlns:xlink="http://www.w3.org/1999/xlink" x="0px" y="0px"
	 width="1024px" height="1024px" viewBox="0 0 1024 1024" enable-background="new 0 0 1024 1024" xml:space="preserve">
<g>
	<path fill="#414042" d="M949.875,693.11h-12.729c-8.583,0-15.958,5.25-19.125,12.708H673.396v-24.541
		c0-8.063-4.708-15.417-12.041-18.834l-27.709-12.791l-0.166-143.834c0.416-10.916,0-21.75-0.896-32.427l46.354-18.542
		c6.438-2.541,11.167-8.146,12.625-14.916c1.417-6.792-0.625-13.834-5.479-18.792c-77.604-79.521-83.021-114.354-83.146-114.354
		l-0.042,0.021c0.167-5.854-2.188-11.5-6.416-15.521c-4.25-4.041-10.042-5.979-15.834-5.625l-31.875,2.375
		c-3.438,0.292-6.458,1.542-9.208,3.25c-54.083-47.313-124.917-74.229-198.25-74.229c-158.75,0-287.917,129.188-287.917,287.927
		c0,158.75,129.167,287.938,287.917,287.938h311.354c11.458,0,20.729-9.292,20.729-20.771v-24.896h255.729v44.354
		c0,11.438,9.271,20.729,20.75,20.729c11.438,0,20.729-9.292,20.729-20.729V713.84C970.604,702.402,961.313,693.11,949.875,693.11z
		 M348.625,687.34c-100.646,0-182.521-81.813-182.521-182.438c0-100.636,81.875-182.553,182.521-182.553
		c100.625,0,182.5,81.917,182.5,182.553C531.125,605.527,449.25,687.34,348.625,687.34z"/>
	<path fill="#414042" d="M348.625,363.85c-77.771,0-141.021,63.292-141.021,141.053c0,77.75,63.25,140.958,141.021,140.958
		c77.75,0,141.021-63.208,141.021-140.958C489.646,427.142,426.375,363.85,348.625,363.85z"/>
</g>
</svg>
