<?xml version="1.0" encoding="utf-8"?>
<!-- Generator: Adobe Illustrator 16.0.0, SVG Export Plug-In . SVG Version: 6.00 Build 0)  -->
<!DOCTYPE svg PUBLIC "-//W3C//DTD SVG 1.1//EN" "http://www.w3.org/Graphics/SVG/1.1/DTD/svg11.dtd">
<svg version="1.1" id="Layer_1" xmlns="http://www.w3.org/2000/svg" xmlns:xlink="http://www.w3.org/1999/xlink" x="0px" y="0px"
	 width="48px" height="48px" viewBox="0 0 48 48" enable-background="new 0 0 48 48" xml:space="preserve">
<g>
	<path fill="#414042" d="M32.646,37.861L15.9,42.013c-0.536,0.133-0.863,0.675-0.73,1.211c0.113,0.456,0.521,0.76,0.97,0.76
		c0.08,0,0.161-0.01,0.241-0.029l16.747-4.151c0.535-0.133,0.863-0.675,0.73-1.211C33.723,38.054,33.172,37.732,32.646,37.861z"/>
	<path fill="#414042" d="M33.471,18.712c-2.744,0-4.975,2.229-4.975,4.971c0,2.744,2.23,4.977,4.975,4.977
		c2.742,0,4.973-2.232,4.973-4.977C38.443,20.941,36.213,18.712,33.471,18.712z"/>
	<path fill="#414042" d="M40.863,10.88l-0.006-4.999c0.057-1.029-0.342-1.656-0.688-2.001c-0.797-0.796-1.939-0.755-2.063-0.747
		c-0.043,0.002-0.086,0.007-0.127,0.015L17.119,7.039c-0.234,0.044-0.445,0.17-0.595,0.355l-5.203,6.453
		c-1.785,0.48-3.108,2.098-3.108,4.031v1.535c-0.155,0.083-0.298,0.191-0.395,0.353c-4.022,6.703-2.579,10.375-1.36,11.968
		c1.767,2.31,5.103,3.114,8.698,2.092c3.246-0.916,5.298-0.253,6.458,0.469l-6.971,1.729c-0.257,0.064-0.479,0.228-0.615,0.455
		s-0.178,0.5-0.114,0.757l0.871,3.501c0.113,0.455,0.521,0.759,0.97,0.759c0.08,0,0.161-0.01,0.242-0.029
		c0.536-0.134,0.862-0.676,0.729-1.212l-0.63-2.53l7.84-1.945c0.004-0.001,0.009-0.002,0.013-0.003l6.856-1.701l0.666,2.687
		c0.133,0.536,0.678,0.857,1.213,0.729c0.535-0.134,0.861-0.676,0.729-1.212l-0.908-3.656c-0.133-0.536-0.678-0.86-1.211-0.729
		l-7.268,1.803c-1.057-1.117-3.954-3.335-9.413-1.794c-2.75,0.777-5.328,0.234-6.565-1.384c-1.215-1.587-1.125-4.117,0.166-7.138
		v1.33c0,2.313,1.881,4.193,4.193,4.193h13.471l3.318-0.624c-1.234-1.149-2.012-2.782-2.012-4.599c0-3.465,2.82-6.282,6.287-6.282
		c3.465,0,6.285,2.817,6.285,6.282c0,0.979-0.232,1.904-0.633,2.732l4.023-0.757V14.593C43.146,12.972,42.213,11.578,40.863,10.88z
		 M37.404,10.581l-20.735,2.572l1.944-2.594c0.149-0.186,0.361-0.313,0.596-0.356l16.097-3.002c0.041-0.008,0.084-0.013,0.127-0.015
		c0.172-0.016,1.096-0.028,1.768,0.643C37.404,8.033,37.426,9.43,37.404,10.581z"/>
</g>
</svg>
