<?xml version="1.0" encoding="utf-8"?>
<!-- Generator: Adobe Illustrator 16.0.0, SVG Export Plug-In . SVG Version: 6.00 Build 0)  -->
<!DOCTYPE svg PUBLIC "-//W3C//DTD SVG 1.1//EN" "http://www.w3.org/Graphics/SVG/1.1/DTD/svg11.dtd">
<svg version="1.1" id="Layer_1" xmlns="http://www.w3.org/2000/svg" xmlns:xlink="http://www.w3.org/1999/xlink" x="0px" y="0px"
	 width="48px" height="48px" viewBox="0 0 48 48" enable-background="new 0 0 48 48" xml:space="preserve">
<path fill="#414042" d="M44.943,18.163c0.019-0.077,0.047-0.151,0.047-0.234V12.95c0-2.171-1.767-3.938-3.938-3.938h-4.924l2,2
	h2.924c1.069,0,1.938,0.869,1.938,1.938v3.81c-0.215-0.048-0.437-0.077-0.666-0.077h-0.428L30.668,4.402
	c-0.373-0.408-1.008-0.434-1.413-0.063c-0.407,0.373-0.436,1.006-0.063,1.413l9.994,10.931H6.309c-0.229,0-0.451,0.029-0.667,0.077
	v-3.81c0-1.068,0.869-1.938,1.938-1.938h25.423l-2-2H7.58c-2.172,0-3.938,1.767-3.938,3.938v4.732c0,0.146,0.034,0.281,0.089,0.405
	c-0.313,0.481-0.5,1.054-0.5,1.671v20.201c0,1.697,1.381,3.076,3.078,3.076h36.016c1.697,0,3.078-1.379,3.078-3.076V19.758
	C45.402,19.172,45.229,18.629,44.943,18.163z M9.316,21.069h15.26c-0.001,0.019-0.011,0.034-0.011,0.053v3.551
	c0,0.019,0.01,0.034,0.011,0.053H9.316V21.069z M13.566,36.92c-2.623,0-4.75-2.127-4.75-4.748c0-2.625,2.127-4.752,4.75-4.752
	s4.75,2.127,4.75,4.752C18.316,34.793,16.189,36.92,13.566,36.92z M27.973,36.037H23.16c-0.553,0-1-0.447-1-1s0.447-1,1-1h4.813
	c0.553,0,1,0.447,1,1S28.525,36.037,27.973,36.037z M28.565,31.537h-5.999c-0.553,0-1-0.447-1-1s0.447-1,1-1h5.999
	c0.553,0,1,0.447,1,1S29.118,31.537,28.565,31.537z M35.315,34.482c-1.277,0-2.313-1.033-2.313-2.311s1.036-2.314,2.313-2.314
	s2.313,1.037,2.313,2.314S36.593,34.482,35.315,34.482z M41.059,24.725H26.555c0.001-0.019,0.011-0.034,0.011-0.053v-3.551
	c0-0.019-0.01-0.034-0.011-0.053h14.504V24.725z"/>
</svg>
