<?xml version="1.0" encoding="utf-8"?>
<!-- Generator: Adobe Illustrator 16.0.0, SVG Export Plug-In . SVG Version: 6.00 Build 0)  -->
<!DOCTYPE svg PUBLIC "-//W3C//DTD SVG 1.1//EN" "http://www.w3.org/Graphics/SVG/1.1/DTD/svg11.dtd">
<svg version="1.1" id="Layer_1" xmlns="http://www.w3.org/2000/svg" xmlns:xlink="http://www.w3.org/1999/xlink" x="0px" y="0px"
	 width="48px" height="48px" viewBox="0 0 48 48" enable-background="new 0 0 48 48" xml:space="preserve">
<path fill="#414042" d="M41.724,12.407h-36.5c-0.553,0-1,0.448-1,1v20.3c0,0.552,0.447,1,1,1h36.5c0.553,0,1-0.448,1-1v-20.3
	C42.724,12.854,42.276,12.407,41.724,12.407z M30.316,18.646h2.143c0.553,0,1,0.448,1,1s-0.447,1-1,1h-2.143c-0.553,0-1-0.448-1-1
	S29.764,18.646,30.316,18.646z M30.316,22.371h2.143c0.553,0,1,0.448,1,1s-0.447,1-1,1h-2.143c-0.553,0-1-0.448-1-1
	S29.764,22.371,30.316,22.371z M25.05,28.508H9.481V18.233H25.05V28.508z M38.045,29.6h-7.729c-0.553,0-1-0.447-1-1
	c0-0.552,0.447-1,1-1h7.729c0.553,0,1,0.448,1,1C39.045,29.152,38.598,29.6,38.045,29.6z M38.045,24.371h-2.141
	c-0.553,0-1-0.448-1-1s0.447-1,1-1h2.141c0.553,0,1,0.448,1,1S38.598,24.371,38.045,24.371z M38.045,20.646h-2.141
	c-0.553,0-1-0.448-1-1s0.447-1,1-1h2.141c0.553,0,1,0.448,1,1S38.598,20.646,38.045,20.646z"/>
</svg>
