<?xml version="1.0" encoding="utf-8"?>
<!-- Generator: Adobe Illustrator 16.0.0, SVG Export Plug-In . SVG Version: 6.00 Build 0)  -->
<!DOCTYPE svg PUBLIC "-//W3C//DTD SVG 1.1//EN" "http://www.w3.org/Graphics/SVG/1.1/DTD/svg11.dtd">
<svg version="1.1" id="Layer_1" xmlns="http://www.w3.org/2000/svg" xmlns:xlink="http://www.w3.org/1999/xlink" x="0px" y="0px"
	 width="48px" height="48px" viewBox="0 0 48 48" enable-background="new 0 0 48 48" xml:space="preserve">
<g>
	<path fill="#414042" d="M42.365,32.78H4.897c-0.553,0-1,0.447-1,1c0,0.552,0.447,1,1,1h37.468c0.553,0,1-0.448,1-1
		C43.365,33.228,42.918,32.78,42.365,32.78z"/>
	<path fill="#414042" d="M5.421,30.248h34.688c0,0,2.596,0,2.871-2.297V13.467c0,0-0.281-1.248-2.111-1.125L23.07,13.535
		c0,0-2.009-0.133-3.735,1.361h-2.112l-4.959,4.854h1.8l-9.468,8.754C4.595,28.505,3.494,29.882,5.421,30.248z M16.349,23.174
		c0,0,3.674-4.592,7.254-5.418l12.948-0.553l-0.297,5.858c0,0-0.299,2.33-3.469,2.315h-2.363v-1.328
		c0-0.607-0.492-1.102-1.102-1.102h-4.588c-0.607,0-1.102,0.494-1.102,1.102v1.328h-4.895
		C18.736,25.377,15.707,25.377,16.349,23.174z"/>
</g>
</svg>
