<?xml version="1.0" encoding="utf-8"?>
<!-- Generator: Adobe Illustrator 16.0.0, SVG Export Plug-In . SVG Version: 6.00 Build 0)  -->
<!DOCTYPE svg PUBLIC "-//W3C//DTD SVG 1.1//EN" "http://www.w3.org/Graphics/SVG/1.1/DTD/svg11.dtd">
<svg version="1.1" id="Layer_1" xmlns="http://www.w3.org/2000/svg" xmlns:xlink="http://www.w3.org/1999/xlink" x="0px" y="0px"
	 width="48px" height="48px" viewBox="0 0 48 48" enable-background="new 0 0 48 48" xml:space="preserve">
<g>
	<path fill="#414042" d="M6.93,19.06c0-9.296,7.563-16.859,16.857-16.859c9.296,0,16.859,7.563,16.859,16.859
		c0,3.911-1.369,7.722-3.854,10.73c-0.352,0.426-0.291,1.056,0.135,1.407c0.186,0.154,0.412,0.229,0.637,0.229
		c0.287,0,0.572-0.124,0.771-0.363c2.779-3.366,4.311-7.63,4.311-12.004c0-10.399-8.461-18.859-18.859-18.859
		C13.389,0.201,4.93,8.661,4.93,19.06c0,4.057,1.267,7.921,3.664,11.174c0.328,0.444,0.953,0.538,1.398,0.212
		c0.445-0.328,0.539-0.953,0.212-1.398C8.062,26.14,6.93,22.686,6.93,19.06z"/>
	<path fill="#414042" d="M16.186,26.877c-0.002-0.551-0.449-0.995-1-0.995c-2.257,0-4.025,2.823-4.025,6.429
		s1.769,6.429,4.025,6.429h0.059c0.007-0.001,0.013-0.001,0.02,0c0.553,0,1-0.448,1-1c0-0.07-0.008-0.14-0.021-0.205L16.186,26.877z
		"/>
	<path fill="#414042" d="M30.951,26.178c-0.188,0.189-0.291,0.445-0.289,0.711l0.082,10.857c0.004,0.55,0.451,0.993,1,0.993
		c2.248,0,3.941-2.764,3.941-6.429c0-3.605-1.768-6.429-4.023-6.429C31.395,25.882,31.141,25.988,30.951,26.178z"/>
	<path fill="#414042" d="M41.646,28.412c-0.553,0-1,0.448-1,1v10.65c-0.102,0.459-0.744,2.932-2.906,3.1H26.057
		c-0.119,0-0.229,0.03-0.332,0.068c-0.469-0.643-1.268-1.068-2.177-1.068c-1.439,0-2.609,1.066-2.609,2.375
		c0,1.311,1.17,2.375,2.609,2.375c1.201,0,2.205-0.744,2.507-1.75h0.002l11.762-0.002c3.184-0.246,4.541-3.264,4.813-4.825
		c0.01-0.058,0.016-0.114,0.016-0.173v-10.75C42.646,28.86,42.199,28.412,41.646,28.412z"/>
</g>
</svg>
