<?xml version="1.0" encoding="utf-8"?>
<!-- Generator: Adobe Illustrator 16.0.0, SVG Export Plug-In . SVG Version: 6.00 Build 0)  -->
<!DOCTYPE svg PUBLIC "-//W3C//DTD SVG 1.1//EN" "http://www.w3.org/Graphics/SVG/1.1/DTD/svg11.dtd">
<svg version="1.1" id="Layer_1" xmlns="http://www.w3.org/2000/svg" xmlns:xlink="http://www.w3.org/1999/xlink" x="0px" y="0px"
	 width="48px" height="48px" viewBox="0 0 48 48" enable-background="new 0 0 48 48" xml:space="preserve">
<g>
	<path fill="#414042" d="M11.221,41.225h25.911c2.836,0,5.137-2.302,5.137-5.139V20.24c0-2.308-1.531-4.237-3.623-4.887l2.908-7.062
		c0.721-0.186,1.258-0.836,1.258-1.615c0-0.923-0.751-1.674-1.674-1.674s-1.674,0.751-1.674,1.674c0,0.313,0.092,0.602,0.241,0.852
		l-1.902,4.619l-2.144-7.101c0.281-0.311,0.457-0.711,0.457-1.154c0-0.978-0.83-1.773-1.85-1.773c-1.021,0-1.852,0.795-1.852,1.773
		c0,0.799,0.558,1.467,1.316,1.689l2.873,9.518H11.221c-2.839,0-5.14,2.302-5.14,5.141v15.846
		C6.081,38.923,8.382,41.225,11.221,41.225z M10.122,22.4c0-2.777,1.269-3.739,4.203-3.739h19.704c2.548,0,4.256,0.436,4.256,3.739
		v11.525c0,2.724-1.212,3.737-4.256,3.737H14.325c-2.328,0-4.203-0.645-4.203-3.737V22.4z"/>
	<path fill="#414042" d="M41.661,42.994H6.081c-0.553,0-1,0.447-1,1s0.447,1,1,1h35.58c0.552,0,1-0.447,1-1
		S42.213,42.994,41.661,42.994z"/>
</g>
</svg>
