<?xml version="1.0" encoding="utf-8"?>
<!-- Generator: Adobe Illustrator 16.0.0, SVG Export Plug-In . SVG Version: 6.00 Build 0)  -->
<!DOCTYPE svg PUBLIC "-//W3C//DTD SVG 1.1//EN" "http://www.w3.org/Graphics/SVG/1.1/DTD/svg11.dtd">
<svg version="1.1" id="Layer_1" xmlns="http://www.w3.org/2000/svg" xmlns:xlink="http://www.w3.org/1999/xlink" x="0px" y="0px"
	 width="48px" height="48px" viewBox="0 0 48 48" enable-background="new 0 0 48 48" xml:space="preserve">
<g>
	<path fill="#414042" d="M39.979,18.67c-3.914-8.093-9.43-13.745-13.414-13.745c-0.605,0-1.174,0.126-1.687,0.375
		c-2.029,0.98-2.965,3.72-2.633,7.713c0.038,0.451,0.092,0.914,0.159,1.386c-0.742,3.161-2.608,6.74-5.323,10.1
		c-2.086,2.576-4.527,4.717-7.062,6.189l-0.257,0.15c-1.225-0.631-2.711-0.719-4.05-0.081l-0.687,0.328
		c-2.274,1.081-3.241,3.803-2.156,6.082l1.152,2.42c1.086,2.273,3.809,3.24,6.084,2.156l0.688-0.328
		c1.295-0.617,2.146-1.771,2.455-3.065l0.412-0.21c2.291-1.169,4.979-2.03,7.773-2.492c4.507-0.747,8.8-0.604,11.912,0.369
		c2.135,2.007,4.244,3.167,6.043,3.167c0.605,0,1.174-0.127,1.689-0.375C45.068,36.878,44.596,28.221,39.979,18.67z M40.207,37.008
		c-2.373,1.151-8.018-3.307-12.434-12.44c-1.994-4.126-3.25-8.289-3.536-11.721c-0.251-3.02,0.313-5.168,1.508-5.746
		c0.244-0.118,0.512-0.175,0.818-0.175c2.672,0,7.65,4.421,11.613,12.615C42.438,28.352,42.666,35.818,40.207,37.008z"/>
	<path fill="#414042" d="M32.324,18.462c-0.283-0.556-0.848-0.901-1.473-0.901c-0.262,0-0.521,0.063-0.744,0.176l-3.633,1.741
		l0.107,0.401c0.045,0.165,1.117,4.084,3.871,8.202l0.256,0.385l3.793-2.125c0.813-0.414,1.135-1.412,0.721-2.226L32.324,18.462z"/>
</g>
</svg>
