<?xml version="1.0" encoding="utf-8"?>
<!-- Generator: Adobe Illustrator 16.0.0, SVG Export Plug-In . SVG Version: 6.00 Build 0)  -->
<!DOCTYPE svg PUBLIC "-//W3C//DTD SVG 1.1//EN" "http://www.w3.org/Graphics/SVG/1.1/DTD/svg11.dtd">
<svg version="1.1" id="Layer_1" xmlns="http://www.w3.org/2000/svg" xmlns:xlink="http://www.w3.org/1999/xlink" x="0px" y="0px"
	 width="48px" height="48px" viewBox="0 0 48 48" enable-background="new 0 0 48 48" xml:space="preserve">
<path fill="#414042" d="M40.327,13.194H8.194c-2.756,0-4.996,2.241-4.996,4.996v11.32c0,0.289,0.125,0.563,0.342,0.754l3.912,3.41
	c0.182,0.158,0.416,0.246,0.656,0.246h32.385c0.238,0,0.467-0.084,0.646-0.238l3.83-3.246c0.225-0.189,0.354-0.469,0.354-0.762
	V18.19C45.323,15.435,43.081,13.194,40.327,13.194z M3.905,21.566h40.721v2H3.905V21.566z M41.128,30.029c0,0.553-0.447,1-1,1
	s-1-0.447-1-1v-0.354c0-0.553,0.447-1,1-1s1,0.447,1,1V30.029z M44.726,28.23H3.919v-2h40.807V28.23z"/>
</svg>
