<?xml version="1.0" encoding="utf-8"?>
<!-- Generator: Adobe Illustrator 16.0.0, SVG Export Plug-In . SVG Version: 6.00 Build 0)  -->
<!DOCTYPE svg PUBLIC "-//W3C//DTD SVG 1.1//EN" "http://www.w3.org/Graphics/SVG/1.1/DTD/svg11.dtd">
<svg version="1.1" id="Layer_1" xmlns="http://www.w3.org/2000/svg" xmlns:xlink="http://www.w3.org/1999/xlink" x="0px" y="0px"
	 width="48px" height="48px" viewBox="0 0 48 48" enable-background="new 0 0 48 48" xml:space="preserve">
<g>
	<path fill="#414042" d="M38.82,40.561H7.639c-0.553,0-1,0.447-1,1s0.447,1,1,1h5.268v1.701c0,0.553,0.447,1,1,1s1-0.447,1-1v-1.701
		h17v1.701c0,0.553,0.447,1,1,1s1-0.447,1-1v-1.701h4.914c0.553,0,1-0.447,1-1S39.373,40.561,38.82,40.561z"/>
	<path fill="#414042" d="M39.346,24.115c-0.072-0.807-0.752-1.441-1.578-1.441H27.482c-0.836,0-1.521,0.65-1.58,1.472l-0.758,4.187
		H9.846c-1.131,0-1.887,0.635-2.691,1.611l-1.35,1.734c-0.137,0.176-0.211,0.391-0.211,0.613v5.59c0,1.227,1,2.225,2.227,2.225
		h30.531c1.227,0,2.225-0.998,2.225-2.225v-8.346c0-0.076-0.008-0.152-0.025-0.227L39.346,24.115z M13.713,36.082
		c-1.119,0-2.029-0.91-2.029-2.029c0-1.117,0.91-2.027,2.029-2.027c1.117,0,2.027,0.91,2.027,2.027
		C15.74,35.172,14.83,36.082,13.713,36.082z"/>
	<path fill="#414042" d="M40.242,6.19H39.51c-0.83-2.533-3.484-4.339-6.521-4.339c-3.07,0-5.697,1.798-6.521,4.339h-0.732
		c-0.553,0-1,0.447-1,1s0.447,1,1,1h14.508c0.553,0,1-0.447,1-1S40.795,6.19,40.242,6.19z M28.633,6.19
		c0.771-1.38,2.463-2.339,4.355-2.339c1.908,0,3.59,0.946,4.359,2.339H28.633z"/>
	<path fill="#414042" d="M29.67,21.57h6.48c1.568,0,2.039-1.169,2.271-2.115l1.688-9.542c0.053-0.291-0.027-0.59-0.217-0.816
		c-0.191-0.227-0.471-0.357-0.768-0.357H26.85c-0.293,0-0.57,0.129-0.76,0.352c-0.191,0.223-0.273,0.518-0.227,0.808l1.539,9.57
		C27.734,21.206,28.818,21.57,29.67,21.57z M31.043,12.035c0.557-0.079,1.055,0.302,1.133,0.848L32.84,17.5
		c0.078,0.547-0.301,1.054-0.848,1.133c-0.049,0.007-0.096,0.01-0.143,0.01c-0.49,0-0.918-0.359-0.99-0.857l-0.664-4.617
		C30.117,12.621,30.496,12.114,31.043,12.035z"/>
</g>
</svg>
