<?xml version="1.0" encoding="utf-8"?>
<!-- Generator: Adobe Illustrator 16.0.0, SVG Export Plug-In . SVG Version: 6.00 Build 0)  -->
<!DOCTYPE svg PUBLIC "-//W3C//DTD SVG 1.1//EN" "http://www.w3.org/Graphics/SVG/1.1/DTD/svg11.dtd">
<svg version="1.1" id="Layer_1" xmlns="http://www.w3.org/2000/svg" xmlns:xlink="http://www.w3.org/1999/xlink" x="0px" y="0px"
	 width="48px" height="48px" viewBox="0 0 48 48" enable-background="new 0 0 48 48" xml:space="preserve">
<g>
	<path fill="#414042" d="M38.141,9.431c-1.742-1.74-4.057-2.699-6.518-2.699s-4.775,0.959-6.518,2.699
		c-1.74,1.74-2.697,4.054-2.697,6.516s0.959,4.776,2.699,6.518s4.055,2.7,6.516,2.7s4.775-0.958,6.518-2.7
		c1.74-1.741,2.699-4.056,2.699-6.517S39.881,11.172,38.141,9.431z"/>
	<path fill="#414042" d="M21.283,20.297L10.061,33.213c-0.957,0.959-1.137,2.342-0.592,3.447l-0.236-0.248L6.66,38.623
		c-0.42,0.359-0.467,0.992-0.107,1.41c0.199,0.23,0.479,0.348,0.76,0.348c0.23,0,0.463-0.078,0.65-0.242l2.598-2.232
		c1.137,0.75,2.762,0.637,3.746-0.348l12.969-11.268c-1.322-0.557-2.537-1.368-3.582-2.413S21.838,21.619,21.283,20.297z"/>
</g>
</svg>
