<?xml version="1.0" encoding="utf-8"?>
<!-- Generator: Adobe Illustrator 16.0.0, SVG Export Plug-In . SVG Version: 6.00 Build 0)  -->
<!DOCTYPE svg PUBLIC "-//W3C//DTD SVG 1.1//EN" "http://www.w3.org/Graphics/SVG/1.1/DTD/svg11.dtd">
<svg version="1.1" id="Layer_1" xmlns="http://www.w3.org/2000/svg" xmlns:xlink="http://www.w3.org/1999/xlink" x="0px" y="0px"
	 width="48px" height="48px" viewBox="0 0 48 48" enable-background="new 0 0 48 48" xml:space="preserve">
<g>
	<path fill="#414042" d="M24.068,14.507c-2.547,0-4.617,2.072-4.617,4.619s2.07,4.619,4.617,4.619c2.546,0,4.617-2.072,4.617-4.619
		S26.614,14.507,24.068,14.507z M24.068,21.171c-1.127,0-2.045-0.917-2.045-2.045c0-1.127,0.918-2.043,2.045-2.043
		s2.045,0.916,2.045,2.043C26.113,20.254,25.195,21.171,24.068,21.171z"/>
	<path fill="#414042" d="M32.396,8.558H15.741c-1.138,0-2.063,0.926-2.063,2.064v25.514c0,1.138,0.926,2.063,2.063,2.063h16.654
		c1.138,0,2.063-0.925,2.063-2.063V10.622C34.459,9.483,33.533,8.558,32.396,8.558z M23.866,34.321
		c-1.905,0-3.456-1.551-3.456-3.457c0-1.905,1.551-3.455,3.456-3.455c1.906,0,3.457,1.55,3.457,3.455
		C27.323,32.771,25.772,34.321,23.866,34.321z M24.068,25.745c-3.649,0-6.617-2.97-6.617-6.619s2.968-6.619,6.617-6.619
		c3.648,0,6.617,2.97,6.617,6.619S27.717,25.745,24.068,25.745z"/>
	<circle fill="#414042" cx="23.866" cy="30.865" r="1.456"/>
	<circle fill="#414042" cx="37.09" cy="32.216" r="0.943"/>
	<path fill="#414042" d="M40.21,24.613c0-1.649-1.341-2.991-2.99-2.991c-0.436,0-0.847,0.099-1.22,0.267v2.21
		c0.201-0.475,0.672-0.809,1.221-0.809c0.729,0,1.324,0.594,1.324,1.323c0,0.73-0.595,1.324-1.324,1.324
		c-0.549,0-1.02-0.334-1.221-0.809v2.21c0.373,0.168,0.784,0.267,1.22,0.267C38.869,27.605,40.21,26.263,40.21,24.613z"/>
	<path fill="#414042" d="M42.613,17.77H36v2.756c0.389-0.116,0.793-0.198,1.22-0.198c2.363,0,4.286,1.923,4.286,4.286
		s-1.923,4.286-4.286,4.286c-0.427,0-0.831-0.082-1.22-0.198v1.572c0.324-0.183,0.691-0.295,1.089-0.295
		c1.235,0,2.239,1.003,2.239,2.237c0,1.233-1.004,2.238-2.239,2.238c-0.397,0-0.765-0.113-1.089-0.295v2.806h6.613
		c0.736,0,1.336-0.599,1.336-1.336V19.106C43.949,18.369,43.35,17.77,42.613,17.77z"/>
	<circle fill="#414042" cx="10.859" cy="32.216" r="0.943"/>
	<path fill="#414042" d="M7.739,24.613c0,1.649,1.341,2.992,2.99,2.992c0.436,0,0.847-0.099,1.22-0.267v-2.21
		c-0.201,0.475-0.672,0.809-1.221,0.809c-0.729,0-1.324-0.594-1.324-1.324c0-0.729,0.595-1.323,1.324-1.323
		c0.549,0,1.02,0.334,1.221,0.809v-2.21c-0.373-0.168-0.784-0.267-1.22-0.267C9.08,21.622,7.739,22.964,7.739,24.613z"/>
	<path fill="#414042" d="M4,19.106v16.522c0,0.737,0.6,1.336,1.336,1.336h6.613v-2.806c-0.324,0.182-0.691,0.295-1.089,0.295
		c-1.235,0-2.239-1.005-2.239-2.238c0-1.234,1.004-2.237,2.239-2.237c0.397,0,0.765,0.112,1.089,0.295v-1.572
		c-0.389,0.116-0.793,0.198-1.22,0.198c-2.363,0-4.286-1.923-4.286-4.286s1.923-4.286,4.286-4.286c0.427,0,0.831,0.082,1.22,0.198
		V17.77H5.336C4.6,17.77,4,18.369,4,19.106z"/>
</g>
</svg>
