<?xml version="1.0" encoding="utf-8"?>
<!-- Generator: Adobe Illustrator 16.0.0, SVG Export Plug-In . SVG Version: 6.00 Build 0)  -->
<!DOCTYPE svg PUBLIC "-//W3C//DTD SVG 1.1//EN" "http://www.w3.org/Graphics/SVG/1.1/DTD/svg11.dtd">
<svg version="1.1" id="Layer_1" xmlns="http://www.w3.org/2000/svg" xmlns:xlink="http://www.w3.org/1999/xlink" x="0px" y="0px"
	 width="48px" height="48px" viewBox="0 0 48 48" enable-background="new 0 0 48 48" xml:space="preserve">
<g>
	<path fill="#414042" d="M34.517,13.574c-0.553,0-1,0.447-1,1v14.075c0,2.036-2.215,3.615-4.121,3.615H19.012
		c-1.93,0-4.261-1.613-4.261-3.615V14.574c0-0.553-0.447-1-1-1s-1,0.447-1,1v14.075c0,3.214,3.306,5.615,6.261,5.615h4.192v8.559
		H19.61c-0.553,0-1,0.447-1,1s0.447,1,1,1h9.188c0.553,0,1-0.447,1-1s-0.447-1-1-1h-3.594v-8.559h4.191
		c3.261,0,6.121-2.624,6.121-5.615V14.574C35.517,14.021,35.069,13.574,34.517,13.574z"/>
	<path fill="#414042" d="M31.473,4.265c0-1.286-2.046-2.332-3.332-2.332h-8.873c-1.286,0-2.332,1.046-2.332,2.332v4.957h14.537
		V4.265z"/>
	<path fill="#414042" d="M19.268,30.215h9.873c1.286,0,2.332-1.047,2.332-2.333V11.555H16.936v16.327
		C16.936,29.168,17.981,30.215,19.268,30.215z"/>
</g>
</svg>
