<?xml version="1.0" encoding="utf-8"?>
<!-- Generator: Adobe Illustrator 16.0.0, SVG Export Plug-In . SVG Version: 6.00 Build 0)  -->
<!DOCTYPE svg PUBLIC "-//W3C//DTD SVG 1.1//EN" "http://www.w3.org/Graphics/SVG/1.1/DTD/svg11.dtd">
<svg version="1.1" id="Layer_1" xmlns="http://www.w3.org/2000/svg" xmlns:xlink="http://www.w3.org/1999/xlink" x="0px" y="0px"
	 width="48px" height="48px" viewBox="0 0 48 48" enable-background="new 0 0 48 48" xml:space="preserve">
<g>
	<path fill="#414042" d="M24.043,18.711c-3.4,0-6.167,2.767-6.167,6.167s2.767,6.168,6.167,6.168s6.168-2.768,6.168-6.168
		S27.443,18.711,24.043,18.711z M24.043,29.046c-2.297,0-4.167-1.87-4.167-4.168s1.87-4.167,4.167-4.167
		c2.299,0,4.168,1.869,4.168,4.167S26.342,29.046,24.043,29.046z"/>
	<path fill="#414042" d="M41.543,11.94l-21.998,0.063c0-0.898-1.166-2.688-2.063-2.688H9.98c-0.898,0-2.063,1.727-2.063,2.625H7.043
		c-1.656,0-3,1.343-3,3v19.5c0,1.656,1.344,3,3,3h34.5c1.656,0,3-1.344,3-3v-19.5C44.543,13.283,43.199,11.94,41.543,11.94z
		 M24.043,33.629c-4.832,0-8.75-3.917-8.75-8.751c0-4.832,3.918-8.75,8.75-8.75c4.834,0,8.75,3.918,8.75,8.75
		C32.793,29.712,28.877,33.629,24.043,33.629z M39.354,17.409h-3.281c-0.639,0-1.155-0.518-1.155-1.156s0.517-1.156,1.155-1.156
		h3.281c0.64,0,1.157,0.518,1.157,1.156S39.994,17.409,39.354,17.409z"/>
</g>
</svg>
