<?xml version="1.0" encoding="utf-8"?>
<!-- Generator: Adobe Illustrator 16.0.0, SVG Export Plug-In . SVG Version: 6.00 Build 0)  -->
<!DOCTYPE svg PUBLIC "-//W3C//DTD SVG 1.1//EN" "http://www.w3.org/Graphics/SVG/1.1/DTD/svg11.dtd">
<svg version="1.1" id="Layer_1" xmlns="http://www.w3.org/2000/svg" xmlns:xlink="http://www.w3.org/1999/xlink" x="0px" y="0px"
	 width="48px" height="48px" viewBox="0 0 48 48" enable-background="new 0 0 48 48" xml:space="preserve">
<path fill="#414042" d="M43.729,19.241H22.551c-1.678,0-3.043,1.364-3.043,3.041v2.602H17.15v-6.401
	c0.907-1.412,1.44-3.086,1.44-4.885c0-5.002-4.069-9.07-9.07-9.07s-9.07,4.068-9.07,9.07c0,1.799,0.533,3.474,1.44,4.885v21.046
	c0,1.488,1.21,2.699,2.698,2.699h9.863c1.488,0,2.698-1.211,2.698-2.699v-7.933h2.357v3.317c0,1.677,1.365,3.04,3.043,3.04h21.179
	c1.678,0,3.043-1.363,3.043-3.04V22.282C46.772,20.605,45.407,19.241,43.729,19.241z M9.521,10.737c1.577,0,2.86,1.283,2.86,2.86
	s-1.283,2.861-2.86,2.861s-2.86-1.284-2.86-2.861S7.943,10.737,9.521,10.737z M11.405,31.485H6.517c-0.552,0-1-0.448-1-1
	c0-0.553,0.448-1,1-1h4.889c0.552,0,1,0.447,1,1C12.405,31.037,11.958,31.485,11.405,31.485z M19.508,29.597H17.15v-2.713h2.357
	V29.597z M33.131,21.806c2.158,0.01,3.9,1.759,3.906,3.899c0.001,1.03-0.404,2.003-1.143,2.741
	c-0.741,0.742-1.727,1.151-2.773,1.151c-0.006,0-0.061,0-0.065,0c-2.114-0.035-3.823-1.789-3.812-3.911
	C29.254,23.547,30.998,21.806,33.131,21.806z M39.878,36.882l-13.479-0.003v-2.791c0.001-1.97,1.417-3.605,3.365-3.889
	c0.25-0.036,4.409-0.04,6.187-0.04c1.951,0.002,3.588,1.398,3.895,3.322C39.891,33.755,39.881,36.691,39.878,36.882z"/>
</svg>
