<?xml version="1.0" encoding="utf-8"?>
<!-- Generator: Adobe Illustrator 16.0.0, SVG Export Plug-In . SVG Version: 6.00 Build 0)  -->
<!DOCTYPE svg PUBLIC "-//W3C//DTD SVG 1.1//EN" "http://www.w3.org/Graphics/SVG/1.1/DTD/svg11.dtd">
<svg version="1.1" id="Layer_1" xmlns="http://www.w3.org/2000/svg" xmlns:xlink="http://www.w3.org/1999/xlink" x="0px" y="0px"
	 width="48px" height="48px" viewBox="0 0 48 48" enable-background="new 0 0 48 48" xml:space="preserve">
<path fill="#414042" d="M41.635,14.486c-0.768-1.016-2.224-1.03-2.285-1.03l0,0c-0.117,0-0.23,0.037-0.323,0.105
	c-0.467,0.342-0.578,0.852-0.661,1.229l-0.186,0.891l-0.334,0.242c-0.131,0.096-0.219,0.242-0.242,0.401
	c-0.02,0.129,0.033,0.34,0.109,0.446v0.001c-2.386,2.464-2.256,9.375-2.247,9.623c-0.73,7.604-6.088,9.392-8.403,9.813v-0.908
	c2.241-0.939,7.949-4.193,6.826-12.66c-0.475-1.849-1.363-6.847-0.193-9.044c0.1,0.063,0.237,0.117,0.339,0.117
	c0.145,0,0.364-0.1,0.459-0.209l0.198-0.228l0.846-0.028c0.217,0,0.401-0.004,0.564-0.027c0.328-0.048,0.586-0.171,0.809-0.39
	c0.088-0.085,0.145-0.197,0.16-0.318c0.14-1.051-0.074-1.865-0.637-2.422c-0.905-0.896-2.348-0.701-2.409-0.692h-0.001
	c-0.114,0.017-0.221,0.069-0.304,0.15c-0.413,0.405-0.45,0.926-0.479,1.311l-0.054,0.862l-0.324,0.373
	c-0.104,0.122-0.156,0.285-0.143,0.445c0.011,0.129,0.109,0.322,0.207,0.407l0.001,0.001c-1.77,2.939-0.086,9.643-0.021,9.882
	c0.983,7.429-3.629,10.404-5.846,11.395V6.037c0-0.553-0.447-1-1-1H6.459c-0.552,0-1,0.447-1,1v34.682c0,0.552,0.448,1,1,1h19.603
	c0.553,0,1-0.448,1-1v-3.512c2.465-0.444,8.599-2.389,9.4-10.776c-0.045-1.908,0.215-6.981,1.854-8.857
	c0.11,0.11,0.298,0.208,0.438,0.208c0.105,0,0.27-0.054,0.355-0.115l0.377-0.273l0.808,0.09c0.214,0.031,0.397,0.054,0.563,0.054
	c0.331,0,0.604-0.086,0.855-0.27c0.099-0.072,0.17-0.175,0.203-0.292C42.207,15.954,42.111,15.117,41.635,14.486z M13.423,33.075
	c0,0.553-0.448,1-1,1s-1-0.447-1-1v-1.382c0-0.553,0.448-1,1-1s1,0.447,1,1V33.075z M16.917,37.258h-1.383c-0.552,0-1-0.447-1-1
	c0-0.552,0.448-1,1-1h1.383c0.552,0,1,0.448,1,1C17.917,36.811,17.469,37.258,16.917,37.258z M16.261,34.372
	c-1.076,0-1.951-0.875-1.951-1.952c0-1.076,0.875-1.952,1.951-1.952s1.951,0.876,1.951,1.952
	C18.212,33.497,17.337,34.372,16.261,34.372z M14.606,28.582c0-0.552,0.448-1,1-1h1.382c0.552,0,1,0.448,1,1c0,0.553-0.448,1-1,1
	h-1.382C15.054,29.582,14.606,29.135,14.606,28.582z M21.099,33.147c0,0.552-0.448,1-1,1s-1-0.448-1-1v-1.383c0-0.552,0.448-1,1-1
	s1,0.448,1,1V33.147z M22.409,22.764c0,0.276-0.224,0.5-0.5,0.5H10.723c-0.276,0-0.5-0.224-0.5-0.5V11.577
	c0-0.276,0.224-0.5,0.5-0.5h11.186c0.276,0,0.5,0.224,0.5,0.5V22.764z"/>
</svg>
