<?xml version="1.0" encoding="utf-8"?>
<!-- Generator: Adobe Illustrator 16.0.0, SVG Export Plug-In . SVG Version: 6.00 Build 0)  -->
<!DOCTYPE svg PUBLIC "-//W3C//DTD SVG 1.1//EN" "http://www.w3.org/Graphics/SVG/1.1/DTD/svg11.dtd">
<svg version="1.1" id="Layer_1" xmlns="http://www.w3.org/2000/svg" xmlns:xlink="http://www.w3.org/1999/xlink" x="0px" y="0px"
	 width="48px" height="48px" viewBox="0 0 48 48" enable-background="new 0 0 48 48" xml:space="preserve">
<g>
	<path fill="#414042" d="M41.877,19.059c0-9.896-8.052-17.947-17.948-17.947c-9.896,0-17.946,8.052-17.946,17.947
		c0,9.559,7.517,17.373,16.946,17.896v6.688h-8.637c-0.552,0-1,0.448-1,1c0,0.553,0.448,1,1,1h19.272c0.553,0,1-0.447,1-1
		c0-0.552-0.447-1-1-1h-8.636v-6.688C34.359,36.432,41.877,28.617,41.877,19.059z M7.982,19.059c0-8.793,7.153-15.947,15.946-15.947
		c8.794,0,15.948,7.154,15.948,15.947c0,8.794-7.154,15.947-15.948,15.947C15.136,35.006,7.982,27.853,7.982,19.059z"/>
	<path fill="#414042" d="M24.044,32.064c0.538-0.001,0.979-0.427,0.999-0.964l0.365-10.124L36.43,23
		c0.526,0.093,1.031-0.246,1.149-0.766c0.72-3.216-0.032-7.029-1.727-9.857c-0.276-0.461-0.868-0.621-1.339-0.362l-9.206,5.632
		c0.324,0.261,0.632,0.612,0.754,1.025c0.161,0.541,0.102,1.114-0.169,1.611c-0.135,0.25-0.322,0.458-0.538,0.631
		c-0.212,0.173-0.452,0.311-0.723,0.391c-0.195,0.058-0.399,0.088-0.603,0.088c-0.932,0-1.767-0.625-2.03-1.52
		c-0.029-0.097-0.031-0.194-0.043-0.292c-0.134-1.014,0.739-1.854,1.758-2.156c0.546-0.161,1.117-0.034,1.594,0.222l-3.396-9.824
		c-0.176-0.505-0.717-0.78-1.229-0.631c-3.159,0.937-6.092,2.842-7.737,5.698c-0.268,0.466-0.12,1.061,0.335,1.347l8.471,5.31
		l-6.594,7.628c-0.35,0.403-0.319,1.012,0.068,1.379c2.387,2.265,5.513,3.512,8.804,3.512H24.044z"/>
</g>
</svg>
