<?xml version="1.0" encoding="utf-8"?>
<!-- Generator: Adobe Illustrator 16.0.0, SVG Export Plug-In . SVG Version: 6.00 Build 0)  -->
<!DOCTYPE svg PUBLIC "-//W3C//DTD SVG 1.1//EN" "http://www.w3.org/Graphics/SVG/1.1/DTD/svg11.dtd">
<svg version="1.1" id="Layer_1" xmlns="http://www.w3.org/2000/svg" xmlns:xlink="http://www.w3.org/1999/xlink" x="0px" y="0px"
	 width="48px" height="48px" viewBox="0 0 48 48" enable-background="new 0 0 48 48" xml:space="preserve">
<g>
	<path fill="#414042" d="M24.089,21.749c-4.492,0-8.152,3.595-8.275,8.058c0.454-0.743,1.093-1.439,1.988-1.826
		c1.198-0.519,2.567-0.368,4.082,0.444c0.453-0.818,1.24-1.813,2.488-2.133c1.545-0.394,3.26,0.354,5.097,2.223
		c0.365,0.371,0.368,0.95,0.038,1.34c0.869-0.046,1.821,0.146,2.85,0.575c0.006-0.132,0.02-0.261,0.02-0.394
		C32.376,25.467,28.658,21.749,24.089,21.749z"/>
	<path fill="#414042" d="M39.248,1.469H8.93c-1.186,0-2.15,0.965-2.15,2.151v39.516c0,1.187,0.965,2.151,2.15,2.151h30.318
		c1.186,0,2.15-0.965,2.15-2.151V3.62C41.398,2.434,40.434,1.469,39.248,1.469z M36.369,7.94c0.971,0,1.761,0.789,1.761,1.76
		s-0.79,1.761-1.761,1.761c-0.97,0-1.76-0.79-1.76-1.761S35.399,7.94,36.369,7.94z M27.299,5.425h2.013c0.553,0,1,0.447,1,1
		s-0.447,1-1,1h-2.013c-0.552,0-1-0.447-1-1S26.747,5.425,27.299,5.425z M30.466,10.497c0,0.553-0.447,1-1,1h-2.012
		c-0.553,0-1-0.447-1-1s0.447-1,1-1h2.012C30.019,9.497,30.466,9.944,30.466,10.497z M11.054,8.013c0-0.221,0.086-0.413,0.206-0.579
		c0.593-1.75,2.708-3.018,5.321-3.018c2.793,0,5.02,1.447,5.419,3.387c0.011,0.059,0.035,0.113,0.035,0.175v0.088
		c0.015,0.119,0.048,0.233,0.048,0.355c0,0.084-0.028,0.159-0.048,0.237v3.367c0,0.553-0.448,1-1,1h-8.981c-0.553,0-1-0.447-1-1
		V8.013z M24.089,40.324c-5.672,0-10.287-4.615-10.287-10.288c0-5.672,4.615-10.287,10.287-10.287s10.287,4.615,10.287,10.287
		C34.376,35.709,29.761,40.324,24.089,40.324z M40.859,17.133c-5.218,2.709-14.802-0.082-15.208-0.202
		c-12.783-2.587-16.76,8.831-16.924,9.318c-0.141,0.418-0.529,0.683-0.948,0.683c-0.104,0-0.212-0.017-0.317-0.052
		c-0.523-0.175-0.807-0.742-0.631-1.266c0.046-0.137,4.725-13.571,19.303-10.623c0.178,0.05,9.303,2.707,13.804,0.366
		c0.49-0.255,1.094-0.063,1.349,0.427C41.54,16.274,41.35,16.878,40.859,17.133z"/>
	<path fill="#414042" d="M20.035,8.16c-0.231-0.871-1.577-1.744-3.454-1.744c-2.064,0-3.502,1.057-3.502,2.005
		c0,0.045-0.02,0.083-0.025,0.126v2.479h6.981V8.16z M17.546,9.39c0,0.553-0.447,1-1,1s-1-0.447-1-1V8.197c0-0.553,0.447-1,1-1
		s1,0.447,1,1V9.39z"/>
	<path fill="#414042" d="M28.87,32.005c-0.854,0.35-1.157,1.17-1.17,1.205c-0.146,0.408-0.534,0.667-0.946,0.667
		c-0.107,0-0.217-0.018-0.323-0.055c-0.518-0.18-0.797-0.736-0.624-1.256c0.058-0.171,0.605-1.693,2.263-2.394
		c0.076-0.032,0.154-0.053,0.232-0.08c-0.092-0.048-0.184-0.099-0.26-0.176c-1.264-1.285-2.394-1.886-3.17-1.688
		c-0.893,0.225-1.438,1.47-1.572,1.931c-0.09,0.31-0.325,0.559-0.629,0.665c-0.305,0.106-0.643,0.063-0.906-0.123
		c-1.32-0.926-2.389-1.222-3.17-0.885c-1.206,0.521-1.754,2.543-1.85,3.21c-0.024,0.167-0.1,0.31-0.192,0.438
		c1.307,2.862,4.189,4.86,7.536,4.86c3.727,0,6.886-2.475,7.924-5.866c-0.008-0.004-0.017-0.003-0.024-0.007
		C30.705,31.833,29.657,31.685,28.87,32.005z"/>
</g>
</svg>
