<?xml version="1.0" encoding="utf-8"?>
<!-- Generator: Adobe Illustrator 16.0.0, SVG Export Plug-In . SVG Version: 6.00 Build 0)  -->
<!DOCTYPE svg PUBLIC "-//W3C//DTD SVG 1.1//EN" "http://www.w3.org/Graphics/SVG/1.1/DTD/svg11.dtd">
<svg version="1.1" id="Layer_1" xmlns="http://www.w3.org/2000/svg" xmlns:xlink="http://www.w3.org/1999/xlink" x="0px" y="0px"
	 width="48px" height="48px" viewBox="0 0 48 48" enable-background="new 0 0 48 48" xml:space="preserve">
<g>
	<path fill="#414042" d="M29.887,9.558c-0.75-0.354-1.645-0.033-1.998,0.716s-0.033,1.644,0.717,1.997
		c0.018,0.009,1.813,0.931,1.883,3.554c-0.068,2.675-1.828,3.605-1.883,3.634c-0.75,0.354-1.07,1.248-0.717,1.997
		c0.256,0.542,0.795,0.859,1.357,0.859c0.215,0,0.434-0.046,0.641-0.144c0.143-0.067,3.482-1.697,3.6-6.347
		C33.369,11.255,30.029,9.625,29.887,9.558z"/>
	<path fill="#414042" d="M34.361,5.956c-0.666-0.487-1.598-0.343-2.088,0.319c-0.492,0.662-0.352,1.601,0.307,2.096
		c0.141,0.105,3.428,2.63,3.262,7.441c0,0.034,0,0.069,0,0.104c0.166,4.811-3.121,7.336-3.254,7.436
		c-0.668,0.489-0.813,1.429-0.324,2.097c0.295,0.401,0.75,0.613,1.211,0.613c0.309,0,0.619-0.095,0.887-0.29
		c0.191-0.141,4.678-3.504,4.48-9.907C39.039,9.458,34.553,6.097,34.361,5.956z"/>
	<path fill="#414042" d="M38.205,2.717c-0.678-0.473-1.607-0.31-2.084,0.364S35.805,4.69,36.477,5.17
		c0.207,0.147,5.053,3.688,4.852,10.737c0.201,6.961-4.645,10.502-4.846,10.646c-0.678,0.476-0.844,1.411-0.367,2.09
		c0.291,0.416,0.756,0.639,1.229,0.639c0.299,0,0.6-0.088,0.861-0.271c0.26-0.183,6.371-4.569,6.121-13.103
		C44.576,7.285,38.465,2.899,38.205,2.717z"/>
	<path fill="#414042" d="M18.902,21.472c0.361-0.735,0.057-1.63-0.674-2.004c-0.074-0.038-1.833-0.969-1.903-3.564
		c0.069-2.648,1.797-3.587,1.901-3.642c0.736-0.359,1.049-1.246,0.697-1.988c-0.354-0.75-1.25-1.069-1.997-0.716
		c-0.142,0.067-3.479,1.697-3.601,6.346c0.121,4.57,3.459,6.2,3.601,6.268c0.206,0.097,0.421,0.143,0.634,0.143
		C18.113,22.313,18.641,22.002,18.902,21.472z"/>
	<path fill="#414042" d="M14.229,23.352c-0.035-0.025-3.424-2.566-3.256-7.436c0.001-0.034,0.001-0.069,0-0.104
		c-0.166-4.805,3.113-7.329,3.262-7.441c0.662-0.49,0.805-1.425,0.316-2.092c-0.488-0.668-1.43-0.814-2.096-0.323
		c-0.191,0.141-4.679,3.502-4.482,9.908c-0.196,6.404,4.291,9.767,4.482,9.907c0.268,0.196,0.577,0.29,0.885,0.29
		c0.462,0,0.918-0.213,1.211-0.613C15.041,24.779,14.896,23.841,14.229,23.352z"/>
	<path fill="#414042" d="M10.332,26.553c-0.051-0.035-5.048-3.623-4.845-10.731C5.286,8.857,10.131,5.317,10.338,5.17
		c0.674-0.477,0.836-1.409,0.361-2.086c-0.475-0.678-1.41-0.843-2.09-0.367c-0.26,0.183-6.37,4.568-6.121,13.104
		C2.239,24.44,8.35,28.827,8.609,29.01c0.263,0.184,0.563,0.271,0.86,0.271c0.473,0,0.938-0.223,1.229-0.639
		C11.175,27.964,11.011,27.029,10.332,26.553z"/>
	<path fill="#414042" d="M26.664,15.864c0-1.777-1.461-3.224-3.256-3.224c-1.796,0-3.256,1.446-3.256,3.224
		c0,1.557,1.12,2.858,2.605,3.157l-4.162,25.289h9.623L23.83,19.045C25.424,18.838,26.664,17.498,26.664,15.864z"/>
</g>
</svg>
