<?xml version="1.0" encoding="utf-8"?>
<!-- Generator: Adobe Illustrator 16.0.0, SVG Export Plug-In . SVG Version: 6.00 Build 0)  -->
<!DOCTYPE svg PUBLIC "-//W3C//DTD SVG 1.1//EN" "http://www.w3.org/Graphics/SVG/1.1/DTD/svg11.dtd">
<svg version="1.1" id="Layer_1" xmlns="http://www.w3.org/2000/svg" xmlns:xlink="http://www.w3.org/1999/xlink" x="0px" y="0px"
	 width="1024px" height="1024px" viewBox="0 0 1024 1024" enable-background="new 0 0 1024 1024" xml:space="preserve">
<path fill="#414042" d="M997.959,415.313l-466.354-356c-22.011-16.791-41.927,0.625-41.927,0.625L23.053,416.146
	c0,0-18.178,14.313-3.823,33.083l51.458,67.448c0,0,13.719,19.802,30.104,5.208l38.052-29.021v438.947
	c0,0-2.313,42.334,37.803,40.104L390.792,972l0.104-436.26c0-17.938,14.552-32.49,32.5-32.49h175.322
	c17.896,0,32.438,14.553,32.438,32.49L630.875,972l216-0.083c0,0,36.459,2.458,36.459-35.083V492.865l36.938,28.239
	c0,0,16.583,14.594,30.333-3.364l52.563-68.844C1003.167,448.896,1022.25,431.594,997.959,415.313z"/>
</svg>
