<?xml version="1.0" encoding="utf-8"?>
<!-- Generator: Adobe Illustrator 16.0.0, SVG Export Plug-In . SVG Version: 6.00 Build 0)  -->
<!DOCTYPE svg PUBLIC "-//W3C//DTD SVG 1.1//EN" "http://www.w3.org/Graphics/SVG/1.1/DTD/svg11.dtd">
<svg version="1.1" id="Layer_1" xmlns="http://www.w3.org/2000/svg" xmlns:xlink="http://www.w3.org/1999/xlink" x="0px" y="0px"
	 width="1024px" height="1024px" viewBox="0 0 1024 1024" enable-background="new 0 0 1024 1024" xml:space="preserve">
<g>
	<path fill="#414042" d="M970.646,490.678H860.435c-10.631-175.536-151.537-316.468-327.08-327.101V53.344
		c0-11.791-9.542-21.333-21.333-21.333c-11.792,0-21.334,9.542-21.334,21.333v110.233C315.142,174.21,174.2,315.142,163.566,490.678
		H53.354c-11.792,0-21.333,9.541-21.333,21.333s9.541,21.333,21.333,21.333h110.212C174.2,708.881,315.142,849.841,490.688,860.476
		v110.191c0,11.792,9.542,21.333,21.334,21.333c11.791,0,21.333-9.541,21.333-21.333V860.476
		c175.543-10.635,316.449-151.594,327.08-327.132h110.212c11.791,0,21.333-9.541,21.333-21.333S982.438,490.678,970.646,490.678z
		 M533.354,817.704v-31.787c0-11.792-9.542-21.333-21.333-21.333c-11.792,0-21.334,9.541-21.334,21.333v31.787
		c-152.012-10.504-273.846-132.34-284.349-284.36h31.766c11.792,0,21.333-9.541,21.333-21.333s-9.541-21.333-21.333-21.333h-31.766
		c10.505-151.992,132.338-273.825,284.349-284.329v31.745c0,11.792,9.542,21.334,21.334,21.334c11.791,0,21.333-9.542,21.333-21.334
		v-31.745c152.007,10.503,273.807,132.337,284.308,284.329h-31.766c-11.75,0-21.292,9.541-21.292,21.333s9.542,21.333,21.292,21.333
		h31.767C807.163,685.364,685.362,807.2,533.354,817.704z"/>
	<path fill="#414042" d="M512.021,407.542c-57.604,0-104.459,46.886-104.459,104.469c0,57.625,46.854,104.511,104.459,104.511
		c57.604,0,104.479-46.886,104.479-104.511C616.5,454.428,569.625,407.542,512.021,407.542z M512.021,573.844
		c-34.063,0-61.792-27.75-61.792-61.833s27.729-61.802,61.792-61.802c34.083,0,61.813,27.719,61.813,61.802
		S546.104,573.844,512.021,573.844z"/>
</g>
</svg>
