<?xml version="1.0" encoding="utf-8"?>
<!-- Generator: Adobe Illustrator 16.0.0, SVG Export Plug-In . SVG Version: 6.00 Build 0)  -->
<!DOCTYPE svg PUBLIC "-//W3C//DTD SVG 1.1//EN" "http://www.w3.org/Graphics/SVG/1.1/DTD/svg11.dtd">
<svg version="1.1" id="Layer_1" xmlns="http://www.w3.org/2000/svg" xmlns:xlink="http://www.w3.org/1999/xlink" x="0px" y="0px"
	 width="1024px" height="1024px" viewBox="0 0 1024 1024" enable-background="new 0 0 1024 1024" xml:space="preserve">
<g>
	<rect x="456.729" y="318.209" fill-rule="evenodd" clip-rule="evenodd" fill="#414042" width="221.313" height="110.614"/>
	<path fill-rule="evenodd" clip-rule="evenodd" fill="#414042" d="M851.438,23.584c-0.666-0.688-1.25-1.5-1.813-2.303
		c-228.646,0-457.25,0-685.875,0c-56.604,0-50.354,43.417-50.354,43.417c-0.042,64.927-0.042,199.354-0.042,202.198
		c-15.167,0-29.938,0-44.604,0c-17.708,0-16.583,14.885-16.583,14.885c0,51.375,0,102.74,0,154.167c0,0-1.875,14.917,15.563,14.917
		c14.979,0,30.063,0,45.271,0c0,40.708,0,81.156,0,122.291c-12.563,0-25.125,0-37.688,0c0,0-23.146,0-23.146,22.261
		c0,47,0,94.021,0,141.063c0,22.979,21.625,20.688,21.625,20.688c13.063,0,26.229,0,39.563,0c0,3.25,0,135.729,0.042,199.646
		c0,0-3.709,45.917,50.875,45.917c269.188,0,538.396,0,807.625,0c0-286.375,0-572.771,0-859.136
		C932.542,104.229,890.834,62.979,851.438,23.584z M150.25,326.365h113.917c16.271,0,29.417,13.177,29.417,29.427
		c0,16.261-13.146,29.448-29.417,29.448H150.25c-16.271,0-29.416-13.188-29.416-29.448
		C120.834,339.542,133.979,326.365,150.25,326.365z M264.209,695.104H150.25c-16.271,0-29.416-13.188-29.416-29.438
		s13.146-29.417,29.416-29.417h113.959c16.271,0,29.438,13.167,29.438,29.417S280.479,695.104,264.209,695.104z M736.917,458.24
		c0,16.25-13.167,29.427-29.417,29.427H427.313c-16.271,0-29.416-13.177-29.416-29.427V288.792c0-16.25,13.146-29.417,29.416-29.417
		H707.5c16.25,0,29.417,13.167,29.417,29.417V458.24z"/>
</g>
</svg>
