<?xml version="1.0" encoding="utf-8"?>
<!-- Generator: Adobe Illustrator 16.0.0, SVG Export Plug-In . SVG Version: 6.00 Build 0)  -->
<!DOCTYPE svg PUBLIC "-//W3C//DTD SVG 1.1//EN" "http://www.w3.org/Graphics/SVG/1.1/DTD/svg11.dtd">
<svg version="1.1" id="Layer_1" xmlns="http://www.w3.org/2000/svg" xmlns:xlink="http://www.w3.org/1999/xlink" x="0px" y="0px"
	 width="1024px" height="1024px" viewBox="0 0 1024 1024" enable-background="new 0 0 1024 1024" xml:space="preserve">
<path fill="#414042" d="M195.229,189.928c0.427-2.031,0.719-4.104,0.719-6.281v-72.094c0-20.115,16.438-36.469,36.646-36.469h620.74
	c16.313,0,29.541-13.188,29.541-29.417c0-16.25-13.229-29.386-29.541-29.386h-620.74c-52.771,0-95.719,42.729-95.719,95.271v72.094
	c0,2.51,0.417,4.854,0.99,7.177v816.906h749.26V189.928H195.229z M764.438,493.156c-12.739,27.084-47.322,68.615-128.364,72.896
	c0,0-20.417,3.906-53.927-51.74c0,0-120.928,32.969-196.438,170.667l6.614,5.979c38.344,29.625,42.177,49.583,42.177,49.583
	s1.823,10.729,0.375,18.604c-5.063,27.688-29.51,97.958-97.541,111.979c-6.479,1.313-11.042,1.188-20.021,0
	c0,0-103.541-20-24.302-203.688c0,0,61.646-159.947,284.448-250.906c0,0,136.25-60.333,187.75,42.042
	C765.209,458.573,771.459,478.24,764.438,493.156z"/>
</svg>
