<?xml version="1.0" encoding="utf-8"?>
<!-- Generator: Adobe Illustrator 16.0.0, SVG Export Plug-In . SVG Version: 6.00 Build 0)  -->
<!DOCTYPE svg PUBLIC "-//W3C//DTD SVG 1.1//EN" "http://www.w3.org/Graphics/SVG/1.1/DTD/svg11.dtd">
<svg version="1.1" id="Layer_1" xmlns="http://www.w3.org/2000/svg" xmlns:xlink="http://www.w3.org/1999/xlink" x="0px" y="0px"
	 width="1024px" height="1024px" viewBox="0 0 1024 1024" enable-background="new 0 0 1024 1024" xml:space="preserve">
<g>
	<path fill="#414042" d="M572.272,615.138c0.007-0.01,0.014-0.02,0.021-0.029c0-0.002-0.002-0.002-0.002-0.004L572.272,615.138z"/>
	<path fill="#414042" d="M189.084,189.75c0.458-2,0.719-4.072,0.719-6.208v-72.177c0-20.136,16.771-36.511,37.354-36.511h632.761
		c16.604,0,30.104-13.156,30.104-29.406c0-16.239-13.5-29.417-30.104-29.417H227.156c-53.802,0-97.552,42.792-97.552,95.334v72.177
		c0,2.479,0.406,4.864,1.011,7.167v817.271h763.781V189.75H189.084z M413.021,500.365c4.854-4.146,6.688,0,6.688,0
		c8.51-57.344,45.031-100.448,88.864-100.448c41.167,0,75.938,38.073,87.011,90.188c0,0,1.708,0.552,3.531,2.458
		c0,0,19.729,19.115,4.188,54.979c-3.063,6.969-6.344,6.386-6.344,6.386c-3.927,23.648-12.642,44.688-24.665,61.181
		c0.003,0.037,0.04,0.041,0.04,0.121c-0.084,0.042-0.146,0.063-0.188,0.125l0.126-0.217c-0.092,0.126-0.18,0.258-0.272,0.384
		l-7.083,8.625c-0.083,0.083-0.167,0.208-0.292,0.333c0.063-0.083,0.125-0.125,0.188-0.167l-0.385,0.459
		c-17.719,17.521-36.719,26.229-55.979,25.896c-29.625-0.583-51.594-21.813-54.177-24.417
		c-16.521-17.197-28.719-41.916-33.803-70.572c0,0-2.438,1.271-4.188-1.75C398.438,522.99,413.021,500.365,413.021,500.365z
		 M453.656,625.646c-0.208-0.167-0.458-0.292-0.646-0.438c0-0.063,0-0.104,0-0.188C453.011,625.021,453.261,625.313,453.656,625.646
		z M767.5,833.542H258.604v-59.854c2.417-76.646,181.177-92.021,181.177-92.021c6.292-12.167,9.761-14,11.667-28.083
		c10.198,8.438,30.552,21.979,56.583,22.521c0.521,0,1.021,0,1.531,0c22.469,0,43.896-9.875,64.178-29.771
		c1.938,16.958,5.572,21.958,12.552,35.333c0,0,178.771,15.375,181.208,92.021V833.542z"/>
</g>
</svg>
