<?xml version="1.0" encoding="utf-8"?>
<!-- Generator: Adobe Illustrator 16.0.0, SVG Export Plug-In . SVG Version: 6.00 Build 0)  -->
<!DOCTYPE svg PUBLIC "-//W3C//DTD SVG 1.1//EN" "http://www.w3.org/Graphics/SVG/1.1/DTD/svg11.dtd">
<svg version="1.1" id="Layer_1" xmlns="http://www.w3.org/2000/svg" xmlns:xlink="http://www.w3.org/1999/xlink" x="0px" y="0px"
	 width="1024px" height="1024px" viewBox="0 0 1024 1024" enable-background="new 0 0 1024 1024" xml:space="preserve">
<path fill-rule="evenodd" clip-rule="evenodd" fill="#414042" d="M948.729,401.594H815.354v-73.708
	c0-167.271-136.083-303.333-303.354-303.333c-167.271,0-303.313,136.063-303.313,303.333v73.708H75.292
	c-14.667,0-26.604,11.917-26.604,26.594v544.688c0,14.667,11.938,26.584,26.604,26.584h873.438
	c14.667,0,26.583-11.917,26.583-26.584V428.188C975.313,413.511,963.396,401.594,948.729,401.594z M538.625,692.417v190.917h-53.208
	V692.542c-22-10.146-37.438-32.167-37.438-57.958c0-35.365,28.729-64.063,64.042-64.063s64.021,28.697,64.021,64.063
	C576.042,660.375,560.625,682.292,538.625,692.417z M735.521,401.594H288.5v-73.708c0-123.239,100.25-223.521,223.5-223.521
	s223.521,100.281,223.521,223.521V401.594z"/>
</svg>
