<?xml version="1.0" encoding="utf-8"?>
<!-- Generator: Adobe Illustrator 16.0.0, SVG Export Plug-In . SVG Version: 6.00 Build 0)  -->
<!DOCTYPE svg PUBLIC "-//W3C//DTD SVG 1.1//EN" "http://www.w3.org/Graphics/SVG/1.1/DTD/svg11.dtd">
<svg version="1.1" id="Layer_1" xmlns="http://www.w3.org/2000/svg" xmlns:xlink="http://www.w3.org/1999/xlink" x="0px" y="0px"
	 width="1024px" height="1024px" viewBox="0 0 1024 1024" enable-background="new 0 0 1024 1024" xml:space="preserve">
<path fill="#414042" d="M647.021,35.678c-191.604,0-347.459,155.854-347.459,347.396c0,81.875,28.646,157.114,76.25,216.583
	L38.459,937.084c-11.729,11.708-11.729,30.75,0,42.458c5.875,5.875,13.541,8.792,21.25,8.792c7.666,0,15.375-2.917,21.229-8.792
	l336.438-336.458c61.292,54.229,141.584,87.416,229.646,87.416c191.479,0,347.313-155.875,347.313-347.427
	C994.334,191.531,838.5,35.678,647.021,35.678z M647.021,670.417c-158.479,0-287.396-128.927-287.396-287.344
	c0-158.458,128.917-287.344,287.396-287.344c158.354,0,287.229,128.886,287.229,287.344
	C934.25,541.49,805.375,670.417,647.021,670.417z"/>
</svg>
