<?xml version="1.0" encoding="utf-8"?>
<!-- Generator: Adobe Illustrator 16.0.0, SVG Export Plug-In . SVG Version: 6.00 Build 0)  -->
<!DOCTYPE svg PUBLIC "-//W3C//DTD SVG 1.1//EN" "http://www.w3.org/Graphics/SVG/1.1/DTD/svg11.dtd">
<svg version="1.1" id="Layer_1" xmlns="http://www.w3.org/2000/svg" xmlns:xlink="http://www.w3.org/1999/xlink" x="0px" y="0px"
	 width="1024px" height="1024px" viewBox="0 0 1024 1024" enable-background="new 0 0 1024 1024" xml:space="preserve">
<g>
	<path fill="#414042" d="M775.021,355H675.011V251.344c0-16.375-13.271-29.677-29.667-29.677c-16.396,0-29.646,13.302-29.646,29.677
		V355H515.678c-16.396,0-29.667,13.303-29.667,29.678s13.271,29.656,29.667,29.656h100.021v103.541
		c0,16.375,13.25,29.636,29.646,29.636c16.396,0,29.667-13.261,29.667-29.636V414.334h100.011c16.354,0,29.646-13.281,29.646-29.656
		S791.375,355,775.021,355z"/>
	<path fill="#414042" d="M645.344,41.594c-189.166,0-343.063,153.917-343.063,343.084c0,80.906,28.292,155.197,75.292,213.896
		L44.365,931.75c-11.604,11.625-11.604,30.375,0,41.959c5.791,5.833,13.375,8.708,20.958,8.708c7.604,0,15.208-2.875,20.979-8.708
		l332.313-332.229c60.521,53.479,139.791,86.271,226.729,86.271c189.115,0,342.99-153.864,342.99-343.072
		C988.334,195.511,834.459,41.594,645.344,41.594z M645.344,668.417c-156.438,0-283.75-127.281-283.75-283.739
		c0-156.459,127.313-283.75,283.75-283.75c156.406,0,283.698,127.291,283.698,283.75
		C929.042,541.136,801.75,668.417,645.344,668.417z"/>
</g>
</svg>
