<?xml version="1.0" encoding="utf-8"?>
<!-- Generator: Adobe Illustrator 16.0.0, SVG Export Plug-In . SVG Version: 6.00 Build 0)  -->
<!DOCTYPE svg PUBLIC "-//W3C//DTD SVG 1.1//EN" "http://www.w3.org/Graphics/SVG/1.1/DTD/svg11.dtd">
<svg version="1.1" id="Layer_1" xmlns="http://www.w3.org/2000/svg" xmlns:xlink="http://www.w3.org/1999/xlink" x="0px" y="0px"
	 width="1024px" height="1024px" viewBox="0 0 1024 1024" enable-background="new 0 0 1024 1024" xml:space="preserve">
<g>
	<path fill="#414042" d="M727.167,350.084h-197.5c-15.208,0-27.5,12.322-27.5,27.552c0,15.198,12.292,27.531,27.5,27.531h197.5
		c15.25,0,27.542-12.333,27.542-27.531C754.709,362.406,742.417,350.084,727.167,350.084z"/>
	<path fill="#414042" d="M622.25,59.178c-175.666,0-318.541,142.833-318.541,318.406c0,90.208,37.875,171.625,98.333,229.614
		L91.417,917.834c-10.75,10.75-10.75,28.166,0,38.958c5.375,5.396,12.417,8.042,19.458,8.042c7.042,0,14.084-2.646,19.459-8.042
		l314.708-314.708c50.708,34.083,111.667,54,177.208,54c175.521,0,318.396-142.875,318.396-318.5
		C940.646,202.011,797.771,59.178,622.25,59.178z M622.25,641.042c-145.291,0-263.458-118.208-263.458-263.458
		c0-145.209,118.167-263.334,263.458-263.334c145.219,0,263.313,118.125,263.313,263.334
		C885.563,522.834,767.469,641.042,622.25,641.042z"/>
</g>
</svg>
