<?xml version="1.0" encoding="utf-8"?>
<!-- Generator: Adobe Illustrator 16.0.0, SVG Export Plug-In . SVG Version: 6.00 Build 0)  -->
<!DOCTYPE svg PUBLIC "-//W3C//DTD SVG 1.1//EN" "http://www.w3.org/Graphics/SVG/1.1/DTD/svg11.dtd">
<svg version="1.1" id="Layer_1" xmlns="http://www.w3.org/2000/svg" xmlns:xlink="http://www.w3.org/1999/xlink" x="0px" y="0px"
	 width="1024px" height="1024px" viewBox="0 0 1024 1024" enable-background="new 0 0 1024 1024" xml:space="preserve">
<path fill="#414042" d="M967.104,286.521c0-0.053-0.438-2.063-0.438-2.104c-0.5-3.271-0.896-6.563-1.25-9.864
	c-0.938-7.615-1.875-15.271-3.438-22.75C948.063,185.5,914.688,130,862.792,86.886c-41.208-34.177-88.917-55.417-141.75-63.052
	c-5.948-0.906-11.917-1.698-17.875-2.469l-2.989-0.375c-1.344-0.178-2.688-0.271-4.042-0.271h-34.792
	c-2.239,0-4.489,0.229-6.677,0.729l-1.875,0.511c-4.313,0.708-8.646,1.291-12.969,1.875c-9.979,1.396-20.302,2.833-31.042,5.489
	C485.178,59.834,397.188,165.99,389.854,293.511c-2.646,45.375,5.875,89.917,25.011,132.448c0.063,0.156,0.083,0.344,0.146,0.5
	c0.969,2.51,17.011,42.291,57.521,83.708L344.084,638.459C250.406,731.959,155.25,826.896,65.198,917
	c-12.104,12.125-12.104,31.75,0.011,43.917c6.052,6,13.989,9.042,21.927,9.042s15.886-3.042,21.938-9.084
	c20.344-20.333,41-40.979,61.771-61.771l94.813,95.083c6.063,6.063,14.011,9.104,21.959,9.104c7.927,0,15.854-3,21.906-9.063
	c12.135-12.083,12.156-31.75,0.063-43.854l-94.854-95.125c34.177-34.125,68.594-68.5,103.146-102.979l80.636,80.354
	c6.063,6.021,13.979,9.063,21.906,9.063c7.948,0,15.906-3.041,21.969-9.125c12.083-12.166,12.052-31.791-0.073-43.875
	l-80.521-80.291c8.698-8.646,17.438-17.396,26.114-26.042l132.49-132.313c11.552,7.771,24.156,15.125,38.031,21.802
	c0.072,0.021,0.146,0.021,0.208,0.073c0.083,0.042,0.136,0.094,0.208,0.114c39.063,18.084,79.25,27.156,120.053,27.156
	c19.094,0,38.344-2,57.656-5.979c69.01-14.271,126.219-49.781,169.969-105.396c31.5-39.969,51.083-85.864,58.208-136.188
	c0.604-4.208,1.167-8.447,1.729-12.666l1.104-8.386c0.209-1.417,0.313-2.875,0.313-4.323v-32.875
	C967.875,291.063,967.625,288.761,967.104,286.521z M905.834,324.209l-2.521,18.541c-5.563,39.521-20.875,75.428-45.521,106.678
	c-34.5,43.875-79.542,71.781-133.792,83.031c-47.197,9.729-93.896,4.114-138.864-16.636
	c-82.333-39.656-111.833-110.667-112.364-111.989c-0.104-0.24-0.281-0.479-0.396-0.75c-0.114-0.271-0.156-0.553-0.281-0.813
	c-15.552-33.865-22.396-69.271-20.313-105.188c5.771-100.188,74.844-183.615,171.834-207.553c7.583-1.875,15.896-3.01,24.708-4.208
	c4.823-0.698,9.646-1.344,15.489-2.333l30.303-0.24l1,0.136c5.594,0.739,11.197,1.458,16.906,2.302
	c41.5,6.031,78.875,22.636,111.146,49.448c41.438,34.375,66.958,76.886,78.104,129.948c1.188,5.688,1.833,11.5,2.521,17.271
	c0.458,3.823,0.917,7.636,1.354,10.739c0.166,1.334,0.416,2.636,0.688,4.125V324.209z"/>
</svg>
