<?xml version="1.0" encoding="utf-8"?>
<!-- Generator: Adobe Illustrator 16.0.0, SVG Export Plug-In . SVG Version: 6.00 Build 0)  -->
<!DOCTYPE svg PUBLIC "-//W3C//DTD SVG 1.1//EN" "http://www.w3.org/Graphics/SVG/1.1/DTD/svg11.dtd">
<svg version="1.1" id="Layer_1" xmlns="http://www.w3.org/2000/svg" xmlns:xlink="http://www.w3.org/1999/xlink" x="0px" y="0px"
	 width="1024px" height="1024px" viewBox="0 0 1024 1024" enable-background="new 0 0 1024 1024" xml:space="preserve">
<g>
	<rect x="256.125" y="177.594" fill="#414042" width="504.959" height="111.584"/>
	<path fill="#414042" d="M950.854,327.25H73.125c-22.458,0-40.646,18.271-40.646,40.688V673c0,22.459,18.188,40.667,40.646,40.667
		h152.729l-31.458,132.75l642.146-0.875l-32.854-131.875h147.167c22.438,0,40.667-18.208,40.667-40.667V367.938
		C991.521,345.521,973.292,327.25,950.854,327.25z M231.604,689.375h-33.083V553.136h65.375L231.604,689.375z M707.188,767.292
		H313.729c-7.583,0-13.729-6.125-13.729-13.708c0-7.584,6.146-13.709,13.729-13.709h393.458c7.584,0,13.709,6.125,13.709,13.709
		C720.896,761.167,714.771,767.292,707.188,767.292z M354.875,625.209c0-7.584,6.146-13.75,13.729-13.75h283.708
		c7.584,0,13.729,6.166,13.729,13.75c0,7.583-6.146,13.708-13.729,13.708H368.604C361.021,638.917,354.875,632.792,354.875,625.209z
		 M828.834,689.375h-31.188L763.75,553.136h65.084V689.375z M828.834,531.803H198.521v-82.5c0-22.459,18.208-40.667,40.666-40.667
		h549c22.459,0,40.646,18.208,40.646,40.667V531.803z M917.146,491.469c-11.667,0-21.125-9.51-21.125-21.114
		c0-11.636,9.458-21.094,21.125-21.094c11.625,0,21.083,9.458,21.083,21.094C938.229,481.959,928.771,491.469,917.146,491.469z"/>
	<path fill="#414042" d="M745.688,448.688H281.209c-19,0-34.438,14.073-34.438,31.365v8.469h533.291v-8.469
		C780.063,462.761,764.688,448.688,745.688,448.688z"/>
</g>
</svg>
