<?xml version="1.0" encoding="utf-8"?>
<!-- Generator: Adobe Illustrator 16.0.0, SVG Export Plug-In . SVG Version: 6.00 Build 0)  -->
<!DOCTYPE svg PUBLIC "-//W3C//DTD SVG 1.1//EN" "http://www.w3.org/Graphics/SVG/1.1/DTD/svg11.dtd">
<svg version="1.1" id="Layer_1" xmlns="http://www.w3.org/2000/svg" xmlns:xlink="http://www.w3.org/1999/xlink" x="0px" y="0px"
	 width="1024px" height="1024px" viewBox="0 0 1024 1024" enable-background="new 0 0 1024 1024" xml:space="preserve">
<g>
	<path fill="#414042" d="M651.25,476.886c0,0,0-0.042,0-0.083v-71.646c0-13.563-10.979-24.583-24.563-24.583
		c-13.604,0-24.583,11.021-24.583,24.583v71.646H448.313v-71.646c0-13.563-10.979-24.583-24.583-24.583
		c-13.583,0-24.563,11.021-24.563,24.583v71.646h-27.271c-15.854,0-41.479,6.271-57.313,28.625L171.292,723.979V887.5
		c0,15.834,12.875,28.667,28.667,28.667H820.75c15.834,0,28.667-12.833,28.667-28.667V718.563L706.209,505.428
		C693.667,482.386,667.375,477.303,651.25,476.886z M510.375,830.729c-67.916,0-122.979-55.104-122.979-122.979
		c0-67.958,55.063-123.01,122.979-123.01c67.959,0,122.979,55.052,122.979,123.01C633.354,775.625,578.334,830.729,510.375,830.729z
		"/>
	<path fill="#414042" d="M798.959,151.698c-345.834-108.417-571.75,18.333-571.75,18.333
		C-42.083,307.615,58.542,430.386,58.542,430.386c9.25,10.021,14.458,14.583,23.188,19.271
		c92.396,49.125,188.542-9.125,221.188-36.5c9.25-7.813,17.521-22.021,17.521-22.021s14.875-26.917-0.958-98.208l-1.875-13.313
		c220.479-87.584,392.313-9.646,392.313-9.646c-11.583,96.146,12.542,112.063,12.542,112.063
		c58.063,58.959,178.083,57.854,219.041,38.584c22.542-10.604,34.292-39.459,34.292-39.459
		C1029.334,215.594,798.959,151.698,798.959,151.698z"/>
</g>
</svg>
