<?xml version="1.0" encoding="utf-8"?>
<!-- Generator: Adobe Illustrator 16.0.0, SVG Export Plug-In . SVG Version: 6.00 Build 0)  -->
<!DOCTYPE svg PUBLIC "-//W3C//DTD SVG 1.1//EN" "http://www.w3.org/Graphics/SVG/1.1/DTD/svg11.dtd">
<svg version="1.1" id="Layer_1" xmlns="http://www.w3.org/2000/svg" xmlns:xlink="http://www.w3.org/1999/xlink" x="0px" y="0px"
	 width="1024px" height="1024px" viewBox="0 0 1024 1024" enable-background="new 0 0 1024 1024" xml:space="preserve">
<g>
	<path fill="#414042" d="M640.521,448.886l159.646-286.188L537.313,325.063L253.417,17.261
		c-133.875,112.344-103.563,368.896,67.75,573.042C492.438,794.5,770.834,844.729,904.709,732.375v-11L640.521,448.886z"/>
	<path fill="#414042" d="M836.563,173.146c26.417,0,47.896-21.448,47.896-47.865c0-26.469-21.479-47.896-47.896-47.896
		c-26.416,0-47.813,21.427-47.813,47.896C788.75,151.698,810.146,173.146,836.563,173.146z"/>
	<path fill="#414042" d="M471.292,856.125L273.146,705.438c0,0-222.938,276.584-132.104,301.313h330.25
		C471.292,1006.75,533.209,911.834,471.292,856.125z"/>
</g>
</svg>
