<?xml version="1.0" encoding="utf-8"?>
<!-- Generator: Adobe Illustrator 16.0.0, SVG Export Plug-In . SVG Version: 6.00 Build 0)  -->
<!DOCTYPE svg PUBLIC "-//W3C//DTD SVG 1.1//EN" "http://www.w3.org/Graphics/SVG/1.1/DTD/svg11.dtd">
<svg version="1.1" id="Layer_1" xmlns="http://www.w3.org/2000/svg" xmlns:xlink="http://www.w3.org/1999/xlink" x="0px" y="0px"
	 width="1024px" height="1024px" viewBox="0 0 1024 1024" enable-background="new 0 0 1024 1024" xml:space="preserve">
<path fill="#414042" d="M511.979,15.553c-273.708,0-496.396,222.697-496.396,496.469c0,273.729,222.688,496.438,496.396,496.438
	s496.438-222.709,496.438-496.438C1008.417,238.25,785.688,15.553,511.979,15.553z M318.459,143.406
	c-0.167-0.666-1.709-8.531-4.438-17.052c31.291-16.177,64.729-28.521,99.833-36.688c4.417,9.875,11.208,19.583,22.063,24.333
	c-2.604,2.604-10.292,9.813-18.188,9.813c-1.188,0-2.271-0.041-3.354-0.447l-0.75-0.146l-3.958,10.042l0.625,0.323
	c0.188,0.156,14.313,9.229,15.729,22.666c0.708,7.49-2.792,15.094-10.375,22.334c-2.896,1.271-48.875,21.125-83.25,21.125
	c-19.75,0-31.938-6.511-36.354-19.24C299.896,178.219,319.125,165.49,318.459,143.406z M511.979,945.938
	c-149.792,0-282.063-76.313-360.063-192.083c27.083-32.208,75.542-65.688,75.542-65.688c55.833-26.583,55.271-40,55.271-40
	c17.313-49.469-77.771-49.052-77.771-49.052c-54.042-24.938-79.709-138.198-79.709-138.198l-11.375-121
	c16.042-36.948,37-71.25,62.146-102.073c9.563,70.75,37.854,250.698,81.479,284.813c0.709,0.49,15.459,10.053,42.292,10.053
	c30.146,0,78.792-12.542,139.5-71.792l0.292-0.136v-0.427c-0.042-0.739-3-78.188-57.188-78.188c-4.396,0-9.167,0.438-14.084,1.469
	c-4.021-1.386-61.375-22.688-49.771-97.229c0-0.333,3-30.885,15.792-30.885c8.063,0,18.271,11.396,30.5,33.854l0.271,0.313
	c3.208,2.74,80.354,67.906,122.688,70.542c0.5,0.073,51.917,5.813,89.729,51.573c0.438,0.563,11.916,14.438,30.208,14.438
	c7.875,0,16-2.678,23.833-7.938c-0.063,5.416,0.959,23.197,14.834,70.083c0.854,3.958,21.479,97.271,45.188,125.136
	c0.708,2.438,6.5,22.229,17.25,22.229c5.666,0,11.646-5.666,17.521-16.813c0.333-0.416,30.583-41.5,21.396-97.26
	c-0.083-0.084-4.063-15.428,80.667-75.167l0.167-0.364c0.25-0.25,15.75-28.375,38.541-28.375c12.042,0,24.084,7.864,35.688,23.041
	c1.375,2.396,24.521,44.479,42.917,67.667c0.021,1.198,0.167,2.354,0.167,3.542C945.896,751.292,751.271,945.938,511.979,945.938z"
	/>
</svg>
