<?xml version="1.0" encoding="utf-8"?>
<!-- Generator: Adobe Illustrator 16.0.0, SVG Export Plug-In . SVG Version: 6.00 Build 0)  -->
<!DOCTYPE svg PUBLIC "-//W3C//DTD SVG 1.1//EN" "http://www.w3.org/Graphics/SVG/1.1/DTD/svg11.dtd">
<svg version="1.1" id="Layer_1" xmlns="http://www.w3.org/2000/svg" xmlns:xlink="http://www.w3.org/1999/xlink" x="0px" y="0px"
	 width="1024px" height="1024px" viewBox="0 0 1024 1024" enable-background="new 0 0 1024 1024" xml:space="preserve">
<path fill="#414042" d="M970.771,855.709l-418.678-725.24c-39.375-62.708-79.916,1.948-79.916,1.948L55.031,855.042
	C15.761,920.917,97.469,920.5,97.469,920.5l840.615,0.417C938.084,920.917,1002.709,921.042,970.771,855.709z M490.678,412.094
	c0-11.75,9.541-21.333,21.333-21.333c11.771,0,21.333,9.583,21.333,21.333v219.781c0,11.792-9.563,21.334-21.333,21.334
	c-11.792,0-21.333-9.542-21.333-21.334V412.094z M512.011,789.667c-21.583,0-39.146-17.583-39.146-39.125
	c0-21.625,17.563-39.125,39.146-39.125s39.125,17.5,39.125,39.125C551.136,772.084,533.594,789.667,512.011,789.667z"/>
</svg>
