<?xml version="1.0" encoding="utf-8"?>
<!-- Generator: Adobe Illustrator 16.0.0, SVG Export Plug-In . SVG Version: 6.00 Build 0)  -->
<!DOCTYPE svg PUBLIC "-//W3C//DTD SVG 1.1//EN" "http://www.w3.org/Graphics/SVG/1.1/DTD/svg11.dtd">
<svg version="1.1" id="Layer_1" xmlns="http://www.w3.org/2000/svg" xmlns:xlink="http://www.w3.org/1999/xlink" x="0px" y="0px"
	 width="1024px" height="1024px" viewBox="0 0 1024 1024" enable-background="new 0 0 1024 1024" xml:space="preserve">
<path fill="#414042" d="M511.979,44.928c-257.479,0-466.958,209.552-466.958,467.156c0,257.521,209.479,467,466.958,467
	c257.542,0,467-209.479,467-467C978.979,254.479,769.521,44.928,511.979,44.928z M109.021,512.084
	c0-222.323,180.771-403.156,402.958-403.156c99.667,0,190.833,36.572,261.271,96.76L205.729,773.313
	C145.563,702.896,109.021,611.75,109.021,512.084z M511.979,915.084c-99.542,0-190.625-36.479-261-96.521l567.458-567.625
	c60.042,70.438,96.542,161.531,96.542,261.146C914.979,734.313,734.229,915.084,511.979,915.084z"/>
</svg>
