<?xml version="1.0" encoding="utf-8"?>
<!-- Generator: Adobe Illustrator 16.0.0, SVG Export Plug-In . SVG Version: 6.00 Build 0)  -->
<!DOCTYPE svg PUBLIC "-//W3C//DTD SVG 1.1//EN" "http://www.w3.org/Graphics/SVG/1.1/DTD/svg11.dtd">
<svg version="1.1" id="Layer_1" xmlns="http://www.w3.org/2000/svg" xmlns:xlink="http://www.w3.org/1999/xlink" x="0px" y="0px"
	 width="1024px" height="1024px" viewBox="0 0 1024 1024" enable-background="new 0 0 1024 1024" xml:space="preserve">
<path fill="#414042" d="M909.417,237.854L733.771,101.917c-113.084-85.146-201,3.25-229.917,32.292
	c-0.896,0.916-1.75,1.896-2.542,2.916L210.459,510.271c-0.021,0.021-0.021,0.041-0.021,0.041L77.063,681.417
	c-32.5,41.833-38.375,105.25,14.25,146.229l156.209,112.75c1.021,0.75,2.083,1.458,3.208,2.041
	c20.417,11.313,38.708,15.75,54.917,15.75c47.125,0,76.438-37.583,88.063-52.5l275.625-353.625l91.688-108.604
	c31.166-40.021,7.896-83.729-8.771-101.25c-1.333-1.375-2.791-2.688-4.354-3.813l-60.417-43.959
	c-2.917-2.104-6.167-3.729-9.604-4.75c-43.979-13.271-70.604-1.333-99.229,22.188c-1.729,1.417-3.292,3-4.688,4.75L271.021,695.854
	c-11.042,13.792-8.792,33.917,5.041,44.958c13.813,11.021,33.938,8.792,44.959-5.041L621.813,359.25
	c14.625-11.708,20.084-13.041,32.584-9.729l52.791,38.416c2.542,3.271,7.542,10.813,4.25,15.104l-83.833,98.375L343.229,866.334
	c-26.083,33.438-38.625,32.521-59.875,21.041L129.709,776.459c-26.938-21-6.479-50.146-2.146-55.729l133.334-171.042
	c0,0,0.021-0.041,0.041-0.063l289.625-371.604c55.834-55.563,95.167-62.271,144.375-25.229l174.188,134.75
	c60.125,51.125,44.167,95.292-4.083,154.875L590.146,796.771c-10.834,13.916-8.292,34.063,5.666,44.875
	c5.834,4.541,12.75,6.708,19.584,6.708c9.563,0,19-4.25,25.313-12.375l274.458-353.813
	C943.584,447.084,1030.084,340.354,909.417,237.854z"/>
</svg>
