<?xml version="1.0" encoding="utf-8"?>
<!-- Generator: Adobe Illustrator 16.0.0, SVG Export Plug-In . SVG Version: 6.00 Build 0)  -->
<!DOCTYPE svg PUBLIC "-//W3C//DTD SVG 1.1//EN" "http://www.w3.org/Graphics/SVG/1.1/DTD/svg11.dtd">
<svg version="1.1" id="Layer_1" xmlns="http://www.w3.org/2000/svg" xmlns:xlink="http://www.w3.org/1999/xlink" x="0px" y="0px"
	 width="1024px" height="1024px" viewBox="0 0 1024 1024" enable-background="new 0 0 1024 1024" xml:space="preserve">
<path fill="#414042" d="M938.334,279.823c-6-18.104-62.104-171.406-254.729-227.261C529.834,7.886,388.021,66.959,371,74.469
	c-23.5,8.396-254.688,98.021-301.229,385.125c-1.5,7.563-36,186.823,67.208,338.053c66.375,97.291,173.5,159.604,318.125,185.166
	c3,0.563,29.229,5.188,69.583,5.188c77.938,0,208.563-17.25,326.188-114.271c13.646-11.229,15.584-31.417,4.334-45.042
	s-31.417-15.583-45.042-4.333c-154.917,127.75-341.604,95.833-343.646,95.5c-127.021-22.458-220-75.521-276.334-157.771
	c-88.104-128.584-57.958-288.354-57.458-291.053c41.917-258.281,251.583-333.458,260.396-336.489
	c1.021-0.354,2.063-0.781,3.021-1.229c1.333-0.594,132.583-59.094,269.625-19.302c166.271,48.25,210.146,180.729,211.896,186.208
	c0.292,0.938,0.688,1.99,1.063,2.886c0.417,1.031,41.021,102.011-0.958,233c-40.479,126.417-148.375,144-151.229,144.5
	c-29.458,2.583-67.708,1.271-83.521-19.833c-18.104-24.167-5.792-71.386,0.25-86.844l99-272.209
	c6.041-16.604-2.521-34.958-19.125-41c-16.604-6.063-34.979,2.531-41,19.125l-5.979,16.448c-0.208-0.271-0.333-0.521-0.542-0.781
	c-25.771-29.938-64.563-45.521-115.271-46.271c-149.75-2.209-234.292,213.188-238.042,223.021
	c-5.125,14.281-48.458,141.844,4.292,216.969c16.083,22.917,48.167,50.292,108.458,50.438c0.229,0,0.667,0.021,1.292,0.021
	c10.25,0,73.688-3.291,139.438-71.958c3.5,10.771,8.5,21.333,15.813,31.146c26.854,36.084,74.208,51.479,142.146,45.313
	c6.167-0.854,151.875-22.791,204.979-188.572C985.854,408.511,944.271,294.74,938.334,279.823z M590.771,531.115
	c-67.438,142.656-150.542,144.572-154.5,144.572c-41-0.125-53.25-17.479-57.25-23.208c-28.667-40.667-6.479-130.469,3.291-157.989
	c19.375-50.615,88.584-181.261,175.854-181.261c0.417,0,0.833,0,1.25,0.011c31.375,0.469,54.042,8.438,67.396,23.688
	c16.084,18.333,16.146,43.896,15.709,51.854L590.771,531.115z"/>
</svg>
