<?xml version="1.0" encoding="utf-8"?>
<!-- Generator: Adobe Illustrator 16.0.0, SVG Export Plug-In . SVG Version: 6.00 Build 0)  -->
<!DOCTYPE svg PUBLIC "-//W3C//DTD SVG 1.1//EN" "http://www.w3.org/Graphics/SVG/1.1/DTD/svg11.dtd">
<svg version="1.1" id="Layer_1" xmlns="http://www.w3.org/2000/svg" xmlns:xlink="http://www.w3.org/1999/xlink" x="0px" y="0px"
	 width="1024px" height="1024px" viewBox="0 0 1024 1024" enable-background="new 0 0 1024 1024" xml:space="preserve">
<path fill="#414042" d="M970.75,248.667L785.875,63.969c-19.947-17.938-53.739-15.739-70.947,3.323L498.656,281.709l-241.146,0.094
	c-4.313,0-8.208,2.625-9.854,6.594c-1.646,3.979-0.75,8.563,2.292,11.625l215.363,215.928L45.344,935.917
	c-8.333,8.333-8.333,21.833,0,30.188c4.167,4.146,9.625,6.229,15.084,6.229c5.458,0,10.916-2.084,15.083-6.229l419.928-419.948
	l222.697,223.281c2.042,2.042,4.771,3.125,7.563,3.125c1.208,0,2.417-0.208,3.583-0.625c3.875-1.375,6.625-4.875,7.021-8.979
	l22.958-230.396L969.75,322.771c8.917-9.886,14.417-23.375,15.084-36.928C985.584,270.709,980.459,257.386,970.75,248.667z"/>
</svg>
