<?xml version="1.0" encoding="utf-8"?>
<!-- Generator: Adobe Illustrator 16.0.0, SVG Export Plug-In . SVG Version: 6.00 Build 0)  -->
<!DOCTYPE svg PUBLIC "-//W3C//DTD SVG 1.1//EN" "http://www.w3.org/Graphics/SVG/1.1/DTD/svg11.dtd">
<svg version="1.1" id="Layer_1" xmlns="http://www.w3.org/2000/svg" xmlns:xlink="http://www.w3.org/1999/xlink" x="0px" y="0px"
	 width="1024px" height="1024px" viewBox="0 0 1024 1024" enable-background="new 0 0 1024 1024" xml:space="preserve">
<g>
	<path fill="#414042" d="M704.104,828.5c0,14.959-12.083,27.084-27.042,27.084c-14.916,0-27.041-12.125-27.041-27.084V392.209
		h-112.75V828.5c0,14.959-12.125,27.084-27.084,27.084c-14.938,0-27.063-12.125-27.063-27.084V392.209H380.229V828.5
		c0,14.959-12.104,27.084-27.063,27.084c-14.938,0-27.063-12.125-27.063-27.084V392.209h-114.25v567.75
		c0,16.291,13.167,29.458,29.438,29.458h541.479c16.229,0,29.396-13.167,29.396-29.458v-567.75H704.104V828.5z"/>
	<path fill="#414042" d="M856.292,175.584H677.063V61.656c0-14.947-12.125-27.063-27.041-27.063H380.229
		c-14.917,0-27.063,12.115-27.063,27.063v113.928H167.75c-14.938,0-27.083,12.094-27.083,27.052v51.917
		c0,14.927,12.146,27.052,27.083,27.052h688.542c14.917,0,27.042-12.125,27.042-27.052v-51.917
		C883.334,187.678,871.209,175.584,856.292,175.584z M566.604,178.959H457.479c-14.958,0-27.063-12.104-27.063-27.063
		c0-14.959,12.104-27.073,27.063-27.073h109.125c14.958,0,27.083,12.114,27.083,27.073
		C593.688,166.854,581.563,178.959,566.604,178.959z"/>
</g>
</svg>
