<?xml version="1.0" encoding="utf-8"?>
<!-- Generator: Adobe Illustrator 16.0.0, SVG Export Plug-In . SVG Version: 6.00 Build 0)  -->
<!DOCTYPE svg PUBLIC "-//W3C//DTD SVG 1.1//EN" "http://www.w3.org/Graphics/SVG/1.1/DTD/svg11.dtd">
<svg version="1.1" id="Layer_1" xmlns="http://www.w3.org/2000/svg" xmlns:xlink="http://www.w3.org/1999/xlink" x="0px" y="0px"
	 width="1024px" height="1024px" viewBox="0 0 1024 1024" enable-background="new 0 0 1024 1024" xml:space="preserve">
<g>
	<path fill="#333333" d="M557.632,428.548h-89.487c-82.772,0-149.895,66.652-149.895,148.851v372.471h389.275V577.398
		C707.525,495.2,640.405,428.548,557.632,428.548z M508.447,527.561c-25.899,0-46.607,7.611-61.577,22.621
		c-25.606,25.693-25.899,64.963-25.899,66.604v259.152c0,11.009-8.938,19.985-19.985,19.985S381,886.945,381,875.938V616.784
		c0-5.854,1.054-58.162,37.571-94.825c22.736-22.796,52.97-34.371,89.877-34.371c11.047,0,19.985,8.939,19.985,19.986
		S519.494,527.561,508.447,527.561z"/>
	<path fill="#333333" d="M760.184,101.563c-20.746-18.151-53.595-27.129-100.554-27.432h-1.991
		c-25.488-0.01-47.173,2.254-55.74,3.337c-0.021,0-0.078,0.01-0.099,0.01v0.01c-10.852,1.425-17.78,11.262-16.453,22.143
		c1.327,10.92,11.008,18.708,21.685,17.478c5.836-0.732,26.992-3.074,50.492-3.006h1.971c36.322,0.244,61.344,6.138,74.399,17.556
		c6.891,6.011,10.325,13.525,10.247,22.396c-0.039,4.206-0.137,17.02-20.084,30.789c-12.101,8.383-28.808,15.721-46.489,23.46
		c-40.284,17.663-85.896,37.649-110.177,80.46c-0.215,0.352-0.43,0.722-0.604,1.054c-0.078,0.156-0.137,0.263-0.215,0.419
		l-2.107-0.02l-22.367-58.347l69.326-65.218H412.578l69.326,65.218l-22.113,57.723h-0.371l-8.744-9.866
		c-24.981-36.351-66.808-55.02-104.242-71.424c-17.683-7.739-34.39-15.077-46.511-23.479c-19.927-13.75-20.024-26.554-20.063-30.779
		c-0.078-8.861,3.357-16.375,10.267-22.406c13.037-11.398,38.059-17.292,74.361-17.537c23.558-0.068,44.538,2.254,50.939,3.074
		c10.676,1.229,20.63-6.548,21.957-17.468s-6.597-20.874-17.507-22.24c-8.275-1.063-30.682-3.318-55.645-3.337
		c-46.822,0.303-79.67,9.281-100.397,27.412c-15.634,13.643-24.144,32.409-23.948,52.863c0.156,17.244,6.753,42.226,37.298,63.285
		c15.263,10.598,33.687,18.688,53.204,27.227c36.636,16.043,74.537,32.672,91.343,63.314c0.194,0.4,0.409,0.791,0.645,1.171
		c1.444,2.674,2.771,5.465,3.825,8.217c0.469,1.22,0.976,2.391,1.542,3.533c4.177,16.063,0.956,37.62-0.703,44.753
		c-1.386,5.953,0,12.199,3.787,16.98c3.786,4.801,9.563,7.592,15.672,7.592h131c6.09,0,11.848-2.811,15.634-7.563
		c3.786-4.782,5.191-11.037,3.825-16.971c-0.526-2.264-1.19-6.128-1.756-10.686h30.563v15.233c0,11.027,8.939,19.986,19.986,19.986
		s19.986-8.958,19.986-19.986v-70.39c0-11.037-8.939-19.986-19.986-19.986s-19.986,8.949-19.986,19.986v15.185h-26.973
		c0.878-2.059,1.776-4.001,2.537-5.416c0.272-0.439,0.527-0.888,0.762-1.347c17.272-31.062,55.021-47.603,91.518-63.607
		c19.518-8.539,37.941-16.629,53.186-27.198c30.564-21.127,37.161-46.09,37.317-63.305
		C784.308,133.952,775.798,115.186,760.184,101.563z"/>
</g>
</svg>
