<?xml version="1.0" encoding="utf-8"?>
<!-- Generator: Adobe Illustrator 16.0.0, SVG Export Plug-In . SVG Version: 6.00 Build 0)  -->
<!DOCTYPE svg PUBLIC "-//W3C//DTD SVG 1.1//EN" "http://www.w3.org/Graphics/SVG/1.1/DTD/svg11.dtd">
<svg version="1.1" id="Layer_1" xmlns="http://www.w3.org/2000/svg" xmlns:xlink="http://www.w3.org/1999/xlink" x="0px" y="0px"
	 width="1024px" height="1024px" viewBox="0 0 1024 1024" enable-background="new 0 0 1024 1024" xml:space="preserve">
<path fill="#414042" d="M709.271,450.375V244.906C709.271,118,636.396,32.74,527.938,32.74
	c-108.458,0-181.333,85.26-181.333,212.166v205.469H133.417v540.896h757.167V450.375H709.271z M367.938,244.906
	c0-115.916,62.813-190.833,160-190.833s160,74.917,160,190.833v205.469h-320V244.906z M357.25,536.313
	c-17.354,0-31.5-14.125-31.5-31.489c0-17.406,14.146-31.531,31.5-31.531c17.375,0,31.542,14.125,31.542,31.531
	C388.792,522.188,374.625,536.313,357.25,536.313z M698.584,538.386c-17.354,0-31.479-14.114-31.479-31.511
	c0-17.396,14.125-31.5,31.479-31.5c17.375,0,31.521,14.104,31.521,31.5C730.104,524.271,715.959,538.386,698.584,538.386z"/>
</svg>
