<?xml version="1.0" encoding="utf-8"?>
<!-- Generator: Adobe Illustrator 16.0.0, SVG Export Plug-In . SVG Version: 6.00 Build 0)  -->
<!DOCTYPE svg PUBLIC "-//W3C//DTD SVG 1.1//EN" "http://www.w3.org/Graphics/SVG/1.1/DTD/svg11.dtd">
<svg version="1.1" id="Layer_1" xmlns="http://www.w3.org/2000/svg" xmlns:xlink="http://www.w3.org/1999/xlink" x="0px" y="0px"
	 width="1024px" height="1024px" viewBox="0 0 1024 1024" enable-background="new 0 0 1024 1024" xml:space="preserve">
<g>
	<path fill="#414042" d="M430.042,685.334L301.438,813.521c-16.021,16.813-42.75,17.5-59.604,1.458L110.938,690.292
		c-16.833-16-17.479-42.771-1.458-59.604l268.5-281.938c16.042-16.833,42.833-17.458,59.646-1.458l130.917,124.729
		c8.146,7.75,12.771,18.229,13.042,29.479c0.271,11.271-3.834,21.979-11.396,29.875l-30.958,31.854
		c-12.313,12.688-12.021,32.938,0.667,45.25c12.646,12.333,32.938,12.083,45.25-0.646l31.166-32.063
		c19.563-20.542,29.959-47.438,29.25-75.834c-0.688-28.333-12.375-54.729-32.896-74.25L481.75,300.959
		c-42.375-40.354-109.729-38.709-150.104,3.666L63.125,586.542C22.771,629,24.438,696.375,66.834,736.646l130.875,124.688
		c20.583,19.583,47.041,29.271,73.375,29.271c27.896,0,55.646-10.854,76.104-32.333l128.021-127.604
		c12.521-12.479,12.563-32.771,0.083-45.271S442.521,672.854,430.042,685.334z"/>
	<path fill="#414042" d="M990.042,361.625c-0.688-28.354-12.396-54.75-32.958-74.291L826.188,162.646
		c-42.375-40.313-109.708-38.646-149.563,3.166l-128.396,129c-12.458,12.542-12.417,32.771,0.104,45.25
		c12.541,12.459,32.813,12.417,45.271-0.104l128.875-129.5c16.021-16.834,42.802-17.438,59.614-1.459l130.886,124.688
		c8.146,7.771,12.813,18.25,13.083,29.5c0.271,11.271-3.854,21.959-11.625,30.125L645.959,675.229
		c-16.042,16.792-42.834,17.458-59.667,1.5L455.417,552.063c-16.854-16.083-17.521-42.833-1.438-59.688l29.313-30.916
		c12.167-12.834,11.646-33.084-1.188-45.25c-12.792-12.104-33.063-11.646-45.229,1.208l-29.271,30.833
		c-40.354,42.334-38.729,109.667,3.646,150.146l130.938,124.708c20.5,19.458,46.834,29.125,73.146,29.125
		c28.063,0,56.083-11,76.938-32.833l268.5-281.959C980.334,416.896,990.729,389.979,990.042,361.625z"/>
</g>
</svg>
