<?xml version="1.0" encoding="utf-8"?>
<!-- Generator: Adobe Illustrator 16.0.0, SVG Export Plug-In . SVG Version: 6.00 Build 0)  -->
<!DOCTYPE svg PUBLIC "-//W3C//DTD SVG 1.1//EN" "http://www.w3.org/Graphics/SVG/1.1/DTD/svg11.dtd">
<svg version="1.1" id="Layer_1" xmlns="http://www.w3.org/2000/svg" xmlns:xlink="http://www.w3.org/1999/xlink" x="0px" y="0px"
	 width="1024px" height="1024px" viewBox="0 0 1024 1024" enable-background="new 0 0 1024 1024" xml:space="preserve">
<path fill="#414042" d="M732.459,173.542C673.979,32.771,548.334,22.688,513.25,23.917h-2.5
	c-35.125-1.229-160.729,8.854-219.208,149.625c-52.875,127.313,33.667,229.188,33.667,229.188
	c74.396,80.333,123.208,209.604,185.875,597.458h1.791c62.709-387.854,111.479-517.125,185.938-597.458
	C698.813,402.729,785.334,300.854,732.459,173.542z M511.167,350.042c-53.375,0-96.646-42.313-96.646-94.5
	c0-52.229,43.271-94.563,96.646-94.563c53.396,0,96.646,42.333,96.646,94.563C607.813,307.729,564.563,350.042,511.167,350.042z"/>
</svg>
