<?xml version="1.0" encoding="utf-8"?>
<!-- Generator: Adobe Illustrator 16.0.0, SVG Export Plug-In . SVG Version: 6.00 Build 0)  -->
<!DOCTYPE svg PUBLIC "-//W3C//DTD SVG 1.1//EN" "http://www.w3.org/Graphics/SVG/1.1/DTD/svg11.dtd">
<svg version="1.1" id="Layer_1" xmlns="http://www.w3.org/2000/svg" xmlns:xlink="http://www.w3.org/1999/xlink" x="0px" y="0px"
	 width="1024px" height="1024px" viewBox="0 0 1024 1024" enable-background="new 0 0 1024 1024" xml:space="preserve">
<g>
	<path fill="#414042" d="M551.678,667.375L326.594,849.521c-7.125,5.416-15.916,7.729-24.771,6.479
		c-8.896-1.208-16.771-5.854-22.229-13.041L98.031,603.25c-11.188-14.729-8.271-35.833,6.479-47.021l221.417-167.688
		c14.083-10.688,16.833-30.75,6.166-44.833c-10.666-14.084-30.708-16.854-44.833-6.188L65.844,505.229
		c-42.875,32.542-51.291,93.854-18.833,136.688l181.542,239.667c15.75,20.833,38.666,34.271,64.541,37.833
		c4.479,0.604,8.959,0.938,13.438,0.938c21.188,0,41.771-6.958,59.542-20.479l225.854-182.75c13.75-11.083,15.875-31.25,4.75-45
		C585.553,658.354,565.386,656.292,551.678,667.375z"/>
	<path fill="#414042" d="M989.875,445.354L879.75,165.521c-19.708-50.084-76.458-74.771-126.531-55.084L494.803,212.125
		c-16.459,6.459-24.542,25.042-18.084,41.5c6.479,16.438,25.042,24.521,41.5,18.063L776.636,170
		c8.302-3.291,17.448-3.125,25.698,0.479c8.229,3.583,14.563,10.104,17.833,18.5l110.167,279.854
		c3.291,8.333,3.125,17.458-0.438,25.666c-3.584,8.25-10.167,14.584-17.563,17.521l-273.573,97.604
		c-16.646,5.938-25.333,24.25-19.375,40.875c4.667,13.104,16.979,21.271,30.125,21.271c3.583,0,7.208-0.604,10.75-1.875
		l274.573-97.959c24.25-9.583,43.354-28.021,53.75-51.896C999,496.104,999.438,469.584,989.875,445.354z"/>
</g>
</svg>
