<?xml version="1.0" encoding="utf-8"?>
<!-- Generator: Adobe Illustrator 16.0.0, SVG Export Plug-In . SVG Version: 6.00 Build 0)  -->
<!DOCTYPE svg PUBLIC "-//W3C//DTD SVG 1.1//EN" "http://www.w3.org/Graphics/SVG/1.1/DTD/svg11.dtd">
<svg version="1.1" id="Layer_1" xmlns="http://www.w3.org/2000/svg" xmlns:xlink="http://www.w3.org/1999/xlink" x="0px" y="0px"
	 width="1024px" height="1024px" viewBox="0 0 1024 1024" enable-background="new 0 0 1024 1024" xml:space="preserve">
<g>
	<path fill="#414042" d="M502.886,579.229c-15.333,12.938-17.063,35.688-3.896,50.792c7.146,8.208,6.208,20.583-2.104,27.604
		L240.428,875.438c-8.292,7.021-20.917,6.104-28.084-2.063L106.469,752.188c-3.458-3.958-5.166-9-4.771-14.25
		c0.396-5.166,2.813-9.916,6.833-13.333l256.521-217.792c4.063-3.416,9.5-5.083,14.458-4.688c5.292,0.375,10.104,2.771,13.542,6.709
		c13.166,15.083,36.208,16.875,51.541,3.854c15.334-12.958,17.084-35.688,3.917-50.791c-16.167-18.563-38.708-29.813-63.5-31.667
		c-24.625-1.813-48.792,5.958-67.667,21.958L60.761,670.021c-18.792,15.958-30.167,38.208-32,62.583
		c-1.833,24.438,6.083,48.125,22.271,66.625l105.938,121.25c18.375,20.938,44.375,31.667,70.542,31.667
		c21.5,0,43.083-7.229,60.625-22.084l256.5-217.813c38.854-32.938,43.25-90.916,9.833-129.229
		C541.303,567.959,518.219,566.209,502.886,579.229z"/>
	<path fill="#414042" d="M973,224.875L867.084,103.771c-16.209-18.584-38.75-29.792-63.542-31.625
		c-24.604-1.896-48.761,5.958-67.614,21.938L479.344,311.959c-38.791,33-43.166,91-9.688,129.229
		c13.188,15.063,36.271,16.75,51.563,3.75c15.313-13,17-35.75,3.834-50.813c-7.167-8.188-6.209-20.583,2.083-27.604l256.531-217.813
		c4-3.417,9.104-5.021,14.417-4.688c5.291,0.396,10.125,2.791,13.583,6.771l105.917,121.104c7.125,8.188,6.208,20.563-2.084,27.604
		L658.928,517.334c-8.271,7.063-20.834,6.125-28.042-2.104c-13.188-15.063-36.25-16.75-51.583-3.729
		c-15.292,13-16.979,35.75-3.792,50.834c18.396,21,44.417,31.771,70.563,31.771c21.5,0,43.104-7.292,60.604-22.188l256.531-217.792
		C1002.042,321.209,1006.5,263.25,973,224.875z"/>
	<path fill="#414042" d="M353.781,641.896c7.229,8.479,17.604,12.854,28.042,12.854c8.292,0,16.646-2.729,23.479-8.438l258-213.291
		c15.458-12.792,17.479-35.542,4.5-50.792c-12.959-15.229-36.042-17.25-51.5-4.438l-258,213.333
		C342.844,603.896,340.803,626.646,353.781,641.896z"/>
</g>
</svg>
