<?xml version="1.0" encoding="utf-8"?>
<!-- Generator: Adobe Illustrator 16.0.0, SVG Export Plug-In . SVG Version: 6.00 Build 0)  -->
<!DOCTYPE svg PUBLIC "-//W3C//DTD SVG 1.1//EN" "http://www.w3.org/Graphics/SVG/1.1/DTD/svg11.dtd">
<svg version="1.1" id="Layer_1" xmlns="http://www.w3.org/2000/svg" xmlns:xlink="http://www.w3.org/1999/xlink" x="0px" y="0px"
	 width="1024px" height="1024px" viewBox="0 0 1024 1024" enable-background="new 0 0 1024 1024" xml:space="preserve">
<g>
	<path fill="#414042" d="M954.854,60.74c-9.229-15.094-28.917-19.803-44-10.553L691.094,184.959
		c-9.479,5.791-15.271,16.146-15.271,27.25v435.729c0,117.896-68.125,117.896-117.875,117.896H96.406c-17.666,0-32,14.333-32,32
		c0,17.666,14.334,32,32,32h461.542c44.979,0,181.875,0,181.875-181.896V230.125l204.489-125.396
		C959.375,95.49,964.104,75.792,954.854,60.74z"/>
	<path fill="#414042" d="M217.011,872.646c-29.208,0-52.917,23.688-52.917,53c0,29.25,23.709,52.916,52.917,52.916
		c29.25,0,52.917-23.666,52.917-52.916C269.928,896.334,246.261,872.646,217.011,872.646z"/>
	<path fill="#414042" d="M531.948,872.646c-29.25,0-52.917,23.688-52.917,53c0,29.25,23.667,52.916,52.917,52.916
		c29.208,0,52.917-23.666,52.917-52.916C584.865,896.334,561.156,872.646,531.948,872.646z"/>
</g>
</svg>
