<?xml version="1.0" encoding="utf-8"?>
<!-- Generator: Adobe Illustrator 16.0.0, SVG Export Plug-In . SVG Version: 6.00 Build 0)  -->
<!DOCTYPE svg PUBLIC "-//W3C//DTD SVG 1.1//EN" "http://www.w3.org/Graphics/SVG/1.1/DTD/svg11.dtd">
<svg version="1.1" id="Layer_1" xmlns="http://www.w3.org/2000/svg" xmlns:xlink="http://www.w3.org/1999/xlink" x="0px" y="0px"
	 width="1024px" height="1024px" viewBox="0 0 1024 1024" enable-background="new 0 0 1024 1024" xml:space="preserve">
<g>
	<path fill="#414042" d="M994.917,65c-9.417-14.927-29.208-19.322-44.125-9.947L739.469,188.428
		c-9.291,5.875-14.916,16.083-14.916,27.063v431.239c0,116.292-64.792,116.292-112.104,116.292H191.344l-105-300.469
		c-5.813-16.667-24.041-25.417-40.771-19.615c-16.688,5.823-25.479,24.053-19.646,40.75l112.5,321.896
		c4.479,12.833,16.604,21.438,30.208,21.438h443.813c43.563,0,176.094,0,176.094-180.292V233.146l196.417-123.969
		C999.875,99.709,1004.375,79.969,994.917,65z"/>
	<path fill="#414042" d="M284.615,869.104c-28.084,0-50.896,23.438-50.896,52.438c0,28.938,22.813,52.354,50.896,52.354
		c28.125,0,50.875-23.417,50.875-52.354C335.49,892.542,312.74,869.104,284.615,869.104z"/>
	<path fill="#414042" d="M587.448,869.104c-28.125,0-50.875,23.438-50.875,52.438c0,28.938,22.75,52.354,50.875,52.354
		c28.083,0,50.896-23.417,50.896-52.354C638.344,892.542,615.531,869.104,587.448,869.104z"/>
	<path fill="#414042" d="M303.178,203.928c7.25,0,14.563-2.459,20.563-7.5l54.333-45.646v279.084c0,17.666,14.333,32,32,32
		s32-14.334,32-32V150.761l54.354,45.667c6,5.041,13.313,7.5,20.563,7.5c9.125,0,18.188-3.865,24.521-11.417
		c11.375-13.521,9.604-33.708-3.917-45.083L430.656,57.594c-0.125-0.072-0.25-0.146-0.375-0.25c-0.438-0.364-0.916-0.666-1.375-1
		c-0.771-0.563-1.563-1.063-2.375-1.541c-0.541-0.334-1.041-0.709-1.583-1c-0.458-0.25-0.938-0.417-1.396-0.625
		c-0.834-0.396-1.688-0.709-2.584-1.042c-0.604-0.208-1.188-0.5-1.791-0.688c-0.5-0.146-1-0.229-1.5-0.333
		c-0.875-0.229-1.771-0.375-2.667-0.5c-0.625-0.104-1.229-0.271-1.833-0.313c-0.604-0.084-1.229-0.042-1.834-0.063
		c-0.438-0.021-0.833-0.125-1.271-0.125c-0.479,0-0.917,0.104-1.375,0.125c-0.521,0.021-1.063-0.021-1.604,0.063
		c-0.688,0.041-1.375,0.208-2.063,0.313c-0.896,0.156-1.771,0.313-2.646,0.531c-0.438,0.094-0.875,0.156-1.313,0.281
		c-0.667,0.197-1.313,0.5-1.979,0.76c-0.875,0.281-1.729,0.615-2.563,1.042c-0.416,0.188-0.854,0.323-1.291,0.563
		c-0.563,0.281-1.084,0.677-1.646,1.011c-0.813,0.5-1.604,1-2.375,1.563c-0.458,0.354-0.916,0.614-1.333,0.979
		c-0.125,0.084-0.271,0.178-0.396,0.25l-106.917,89.834c-13.542,11.375-15.292,31.563-3.917,45.083
		C284.99,200.063,294.053,203.928,303.178,203.928z"/>
</g>
</svg>
