<?xml version="1.0" encoding="utf-8"?>
<!-- Generator: Adobe Illustrator 16.0.0, SVG Export Plug-In . SVG Version: 6.00 Build 0)  -->
<!DOCTYPE svg PUBLIC "-//W3C//DTD SVG 1.1//EN" "http://www.w3.org/Graphics/SVG/1.1/DTD/svg11.dtd">
<svg version="1.1" id="Layer_1" xmlns="http://www.w3.org/2000/svg" xmlns:xlink="http://www.w3.org/1999/xlink" x="0px" y="0px"
	 width="1024px" height="1024px" viewBox="0 0 1024 1024" enable-background="new 0 0 1024 1024" xml:space="preserve">
<g>
	<path fill="#414042" d="M205.021,985.125c63.125-15.688,197.646-49.25,260.813-65c-1.209-0.875-324.688-195.916-326.021-196.541
		C155.584,786.709,189.292,922,205.021,985.125z"/>
	<path fill="#414042" d="M872.75,224.667L569.646,42.521c-10.417-6.271-20.604-4.25-26.021,4.813L473.25,163.854l338.875,204.479
		l69.625-115.938C887.209,243.354,883.167,230.938,872.75,224.667z"/>
	<path fill="#414042" d="M519,261.854c-40.104-24.208-71.166-42.979-79.375-47.917C359.521,347.354,248.167,537.292,168,670.709
		c8.104,4.875,38.459,23.125,77.688,46.688L519,261.854z"/>
	<path fill="#414042" d="M646.125,338.625c-23.833-14.396-48.416-29.229-72.333-43.688l-273.25,455.396
		c23.938,14.375,48.583,29.208,72.438,43.541L646.125,338.625z"/>
	<path fill="#414042" d="M427.834,826.834c38.25,22.958,67.666,40.666,75.541,45.396C583.75,738.5,698.417,551.688,778.479,418.542
		c-8.021-4.813-38.271-23.083-77.563-46.833L427.834,826.834z"/>
</g>
</svg>
