<?xml version="1.0" encoding="utf-8"?>
<!-- Generator: Adobe Illustrator 16.0.0, SVG Export Plug-In . SVG Version: 6.00 Build 0)  -->
<!DOCTYPE svg PUBLIC "-//W3C//DTD SVG 1.1//EN" "http://www.w3.org/Graphics/SVG/1.1/DTD/svg11.dtd">
<svg version="1.1" id="Layer_1" xmlns="http://www.w3.org/2000/svg" xmlns:xlink="http://www.w3.org/1999/xlink" x="0px" y="0px"
	 width="1024px" height="1024px" viewBox="0 0 1024 1024" enable-background="new 0 0 1024 1024" xml:space="preserve">
<g>
	<path fill="#414042" d="M997.292,75.136c-8.958-14.573-28-19.114-42.542-10.198L742.021,195.396
		c-9.167,5.635-14.75,15.625-14.75,26.385v421.823c0,114.125-66,114.125-114.146,114.125H188.063L82.167,463.313
		c-5.792-16.094-23.479-24.333-39.563-18.614c-16.083,5.781-24.417,23.5-18.625,39.573l113.25,314.875
		c4.417,12.271,16.042,20.458,29.104,20.458h446.791c43.521,0,176,0,176-176v-404.5l197.959-121.458
		C1001.667,108.74,1006.209,89.688,997.292,75.136z"/>
	<path fill="#414042" d="M283.063,861.125c-28.271,0-51.208,22.917-51.208,51.271c0,28.354,22.938,51.25,51.208,51.25
		c28.334,0,51.25-22.896,51.25-51.25C334.313,884.042,311.396,861.125,283.063,861.125z"/>
	<path fill="#414042" d="M587.959,861.125c-28.313,0-51.229,22.917-51.229,51.271c0,28.354,22.917,51.25,51.229,51.25
		c28.271,0,51.229-22.896,51.229-51.25C639.188,884.042,616.229,861.125,587.959,861.125z"/>
	<path fill="#414042" d="M282.209,367.573l107.625,87.886c0.083,0.021,0.188,0.041,0.271,0.125c0.375,0.291,0.792,0.552,1.188,0.864
		c1.104,0.802,2.313,1.479,3.542,2.156c0.666,0.354,1.313,0.75,2,1.052c0.583,0.281,1.188,0.469,1.791,0.709
		c0.521,0.188,1.021,0.302,1.542,0.458c0.417,0.136,0.813,0.292,1.229,0.386c0.5,0.146,1,0.354,1.521,0.479
		c2.063,0.438,4.229,0.678,6.417,0.678l0.041,0.021h0.021c0,0,0,0,0.021,0l0.021-0.021c2.209,0,4.375-0.24,6.438-0.678
		c0.479-0.094,0.938-0.313,1.396-0.427c0.458-0.114,0.916-0.281,1.375-0.438c0.521-0.156,1-0.271,1.5-0.458
		c0.604-0.219,1.229-0.428,1.833-0.709c0.646-0.302,1.271-0.677,1.917-1.031c1.25-0.697,2.479-1.375,3.625-2.208
		c0.375-0.281,0.771-0.542,1.166-0.833c0.084-0.084,0.167-0.104,0.25-0.125l107.646-87.886
		c13.229-10.802,15.208-30.302,4.416-43.521c-10.791-13.209-30.291-15.219-43.521-4.406l-57.167,46.656V91.292
		c0-17.083-13.854-30.927-30.916-30.927c-17.084,0-30.938,13.844-30.938,30.927v275.011l-57.146-46.656
		c-13.229-10.813-32.729-8.803-43.521,4.406C267,337.271,268.979,356.771,282.209,367.573z"/>
</g>
</svg>
