<?xml version="1.0" encoding="utf-8"?>
<!-- Generator: Adobe Illustrator 16.0.0, SVG Export Plug-In . SVG Version: 6.00 Build 0)  -->
<!DOCTYPE svg PUBLIC "-//W3C//DTD SVG 1.1//EN" "http://www.w3.org/Graphics/SVG/1.1/DTD/svg11.dtd">
<svg version="1.1" id="Layer_1" xmlns="http://www.w3.org/2000/svg" xmlns:xlink="http://www.w3.org/1999/xlink" x="0px" y="0px"
	 width="1024px" height="1024px" viewBox="0 0 1024 1024" enable-background="new 0 0 1024 1024" xml:space="preserve">
<path fill="#414042" d="M961,202.511c-74.291-192.271-333.833-79.292-333.833-79.292c-399.125,158.125-512.5,443.271-512.5,443.271
	c-145.229,327.364,38.896,365.344,38.896,365.344c16.063,2.313,24.167,2.666,35.729,0.438
	c121.625-23.688,166.688-148.959,176.313-198.5c2.729-14.084-0.25-33.334-0.25-33.334s-6.417-35.833-74.146-89.688l-11.688-10.813
	c137.625-245.01,353.833-301.427,353.833-301.427c61.063,97.083,95.104,93.75,95.104,93.75
	c97.375,10.938,207.041-79.583,230.333-127.854C971.625,237.823,961,202.511,961,202.511z"/>
</svg>
