<?xml version="1.0" encoding="utf-8"?>
<!-- Generator: Adobe Illustrator 16.0.0, SVG Export Plug-In . SVG Version: 6.00 Build 0)  -->
<!DOCTYPE svg PUBLIC "-//W3C//DTD SVG 1.1//EN" "http://www.w3.org/Graphics/SVG/1.1/DTD/svg11.dtd">
<svg version="1.1" id="Layer_1" xmlns="http://www.w3.org/2000/svg" xmlns:xlink="http://www.w3.org/1999/xlink" x="0px" y="0px"
	 width="1024px" height="1024px" viewBox="0 0 1024 1024" enable-background="new 0 0 1024 1024" xml:space="preserve">
<g>
	<path fill="#414042" d="M608.021,790.854c-0.75-1.833-1.959-3.354-2.959-5.021c-1.166-2.042-1.916-4.167-3.458-6.042
		l-72.208-84.313c-13.834-16.167-38.167-18.042-54.334-4.229c-16.166,13.792-18.041,38.125-4.208,54.292l17.833,20.813H324.729
		c-21.25,0-38.5,17.271-38.5,38.5c0,21.271,17.25,38.542,38.5,38.542h162.167l-15.625,17.666
		c-14.084,15.938-12.584,40.313,3.333,54.375c7.333,6.459,16.417,9.646,25.5,9.646c10.667,0,21.25-4.375,28.875-12.979l72.208-81.75
		c1.75-1.958,2.667-4.271,3.917-6.5c0.958-1.625,2.167-2.958,2.833-4.708c1.834-4.542,2.875-9.334,2.875-14.125
		c0-0.063,0.042-0.104,0.042-0.167c0-0.542-0.292-1.021-0.333-1.563C610.354,799.042,609.604,794.896,608.021,790.854z"/>
	<path fill="#414042" d="M961,202.511c-74.25-192.271-333.833-79.292-333.833-79.292c-399.125,158.125-512.5,443.271-512.5,443.271
		c-145.229,327.364,38.896,365.344,38.896,365.344c16.063,2.313,24.167,2.666,35.729,0.438
		c33.604-6.542,61.167-20.959,83.958-39.313c-30.354-17.792-51.021-50.438-51.021-88.104c0-56.521,46-102.5,102.5-102.5h40.875
		c-0.125-1.125-0.25-1.917-0.25-1.917s-6.417-35.833-74.146-89.688l-11.688-10.813c137.625-245.01,353.833-301.427,353.833-301.427
		c61.063,97.083,95.104,93.75,95.104,93.75c97.375,10.938,207.083-79.583,230.333-127.854C971.625,237.823,961,202.511,961,202.511z
		"/>
</g>
</svg>
