<?xml version="1.0" encoding="utf-8"?>
<!-- Generator: Adobe Illustrator 16.0.0, SVG Export Plug-In . SVG Version: 6.00 Build 0)  -->
<!DOCTYPE svg PUBLIC "-//W3C//DTD SVG 1.1//EN" "http://www.w3.org/Graphics/SVG/1.1/DTD/svg11.dtd">
<svg version="1.1" id="Layer_1" xmlns="http://www.w3.org/2000/svg" xmlns:xlink="http://www.w3.org/1999/xlink" x="0px" y="0px"
	 width="1024px" height="1024px" viewBox="0 0 1024 1024" enable-background="new 0 0 1024 1024" xml:space="preserve">
<g>
	<path fill="#414042" d="M549.042,766.354H385.084l17.833-20.813c13.833-16.167,11.958-40.5-4.208-54.292
		c-16.167-13.813-40.5-11.938-54.334,4.229l-72.208,84.313c-1.542,1.875-2.292,4-3.458,6.042c-1,1.666-2.209,3.188-2.959,5.021
		c-1.583,4.042-2.333,8.188-2.5,12.438c-0.041,0.542-0.333,1.021-0.333,1.563c0,0.063,0.042,0.104,0.042,0.167
		c0,4.791,1.041,9.583,2.875,14.125c0.666,1.75,1.875,3.083,2.833,4.708c1.25,2.229,2.167,4.542,3.917,6.5l72.208,81.75
		c7.625,8.604,18.208,12.979,28.875,12.979c9.083,0,18.167-3.188,25.5-9.646c15.917-14.063,17.417-38.438,3.333-54.375
		l-15.625-17.666h162.167c21.25,0,38.5-17.271,38.5-38.542C587.542,783.625,570.292,766.354,549.042,766.354z"/>
	<path fill="#414042" d="M961,202.531C886.729,10.25,627.167,123.24,627.167,123.24c-399.125,158.135-512.5,443.281-512.5,443.281
		c-145.229,327.313,38.896,365.313,38.896,365.313c16.063,2.291,24.167,2.666,35.729,0.438
		c24.833-4.854,46.313-14.063,65.104-25.834l-29.417-33.313c-5.958-6.604-9.521-12.938-11.396-16.521
		c-1.875-2.875-4.792-7.625-7.25-13.875c-2.584-6.458-4.5-13.083-5.729-19.729l-1.688-3.541v-14.604
		c0-3.479,0.271-6.875,0.813-10.271c0.938-9.479,3.146-18.688,6.792-27.979c2.291-5.583,4.854-9.875,6.688-12.771
		c1.708-3.396,4.833-9.042,10.333-15.646l72.25-84.396c6.583-7.667,14.208-14.104,22.521-19.438
		c-7.75-7.417-16.604-15.292-27.104-23.604l-11.688-10.813c137.625-244.979,353.833-301.406,353.833-301.406
		c61.063,97.094,95.104,93.761,95.104,93.761c97.375,10.927,207.063-79.583,230.333-127.864
		C971.625,237.834,961,202.531,961,202.531z"/>
</g>
</svg>
