<?xml version="1.0" encoding="utf-8"?>
<!-- Generator: Adobe Illustrator 16.0.0, SVG Export Plug-In . SVG Version: 6.00 Build 0)  -->
<!DOCTYPE svg PUBLIC "-//W3C//DTD SVG 1.1//EN" "http://www.w3.org/Graphics/SVG/1.1/DTD/svg11.dtd">
<svg version="1.1" id="Layer_1" xmlns="http://www.w3.org/2000/svg" xmlns:xlink="http://www.w3.org/1999/xlink" x="0px" y="0px"
	 width="1024px" height="1024px" viewBox="0 0 1024 1024" enable-background="new 0 0 1024 1024" xml:space="preserve">
<g>
	<path fill="#414042" d="M592.396,719.354h-83.584v-83.583c0-21.563-17.5-39.042-39.083-39.042
		c-21.542,0-39.042,17.479-39.042,39.042v83.583h-83.583c-21.583,0-39.042,17.479-39.042,39.083
		c0,21.542,17.459,39.021,39.042,39.021h83.583v83.583c0,21.563,17.5,39.042,39.042,39.042c21.583,0,39.083-17.479,39.083-39.042
		v-83.583h83.584c21.541,0,39.041-17.479,39.041-39.021C631.438,736.834,613.938,719.354,592.396,719.354z"/>
	<path fill="#414042" d="M961,202.511c-74.291-192.271-333.833-79.292-333.833-79.292c-399.125,158.125-512.5,443.271-512.5,443.271
		c-145.229,327.364,38.896,365.344,38.896,365.344c16.063,2.313,24.167,2.666,35.729,0.438
		c54.833-10.667,93.979-42.042,121.458-77.75c-38.854-14.771-66.688-52.104-66.688-96.084c0-54.104,41.979-98.063,94.979-102.271
		c-10.917-12.896-26.229-28.229-47.833-45.417l-11.688-10.813c137.625-245.01,353.833-301.427,353.833-301.427
		c61.063,97.083,95.104,93.75,95.104,93.75c97.375,10.938,207.041-79.583,230.333-127.854C971.625,237.823,961,202.511,961,202.511z
		"/>
</g>
</svg>
