<?xml version="1.0" encoding="utf-8"?>
<!-- Generator: Adobe Illustrator 16.0.0, SVG Export Plug-In . SVG Version: 6.00 Build 0)  -->
<!DOCTYPE svg PUBLIC "-//W3C//DTD SVG 1.1//EN" "http://www.w3.org/Graphics/SVG/1.1/DTD/svg11.dtd">
<svg version="1.1" id="Layer_1" xmlns="http://www.w3.org/2000/svg" xmlns:xlink="http://www.w3.org/1999/xlink" x="0px" y="0px"
	 width="1024px" height="1024px" viewBox="0 0 1024 1024" enable-background="new 0 0 1024 1024" xml:space="preserve">
<g>
	<path fill="#414042" d="M559.729,794.792h-245.25c-21.583,0-39.042,17.5-39.042,39.063s17.459,39.083,39.042,39.083h245.25
		c21.583,0,39.083-17.521,39.083-39.083S581.313,794.792,559.729,794.792z"/>
	<path fill="#414042" d="M961,202.531C886.729,10.25,627.167,123.24,627.167,123.24c-399.125,158.135-512.5,443.281-512.5,443.281
		c-145.229,327.313,38.896,365.313,38.896,365.313c16.063,2.291,24.167,2.666,35.729,0.438
		c21.542-4.209,40.583-11.709,57.542-21.292c-21.5-18.875-35.396-46.292-35.396-77.125c0-56.813,46.229-103.063,103.042-103.063
		h51.542c1.854-13.667-0.667-30.375-0.667-30.375s-6.417-35.813-74.146-89.667l-11.688-10.813
		c137.625-244.979,353.833-301.406,353.833-301.406c61.063,97.094,95.104,93.761,95.104,93.761
		c97.375,10.927,207.063-79.583,230.333-127.864C971.625,237.834,961,202.531,961,202.531z"/>
</g>
</svg>
