<?xml version="1.0" encoding="utf-8"?>
<!-- Generator: Adobe Illustrator 16.0.0, SVG Export Plug-In . SVG Version: 6.00 Build 0)  -->
<!DOCTYPE svg PUBLIC "-//W3C//DTD SVG 1.1//EN" "http://www.w3.org/Graphics/SVG/1.1/DTD/svg11.dtd">
<svg version="1.1" id="Layer_1" xmlns="http://www.w3.org/2000/svg" xmlns:xlink="http://www.w3.org/1999/xlink" x="0px" y="0px"
	 width="1024px" height="1024px" viewBox="0 0 1024 1024" enable-background="new 0 0 1024 1024" xml:space="preserve">
<g>
	<path fill="#414042" d="M545.678,794.771l59.083-59.084c15.25-15.291,15.25-40.021-0.021-55.291
		c-15.229-15.229-39.979-15.229-55.229,0l-59.083,59.125l-59.125-59.125c-15.25-15.229-39.959-15.229-55.209,0
		c-15.25,15.271-15.271,40,0,55.25l59.084,59.125l-59.084,59.083c-15.25,15.25-15.25,39.979,0,55.229s39.979,15.25,55.25,0
		l59.084-59.104l59.125,59.104c15.208,15.229,39.958,15.25,55.208,0s15.25-39.979,0-55.229L545.678,794.771z"/>
	<path fill="#414042" d="M961,202.511c-74.291-192.271-333.822-79.292-333.822-79.292c-399.125,158.125-512.5,443.271-512.5,443.271
		c-145.25,327.364,38.875,365.344,38.875,365.344c16.083,2.313,24.166,2.666,35.75,0.438c49.458-9.646,86.083-36.146,112.979-67.459
		c3.438-21.188,13.104-40.75,28.563-56.229l13.834-13.813l-13.834-13.875c-38.188-38.188-39.625-98.896-5.208-139.354
		c-9.229-9.417-20.458-19.688-34.417-30.792l-11.708-10.813c137.625-245.01,353.833-301.427,353.833-301.427
		c61.084,97.083,95.125,93.75,95.125,93.75c97.365,10.938,207.031-79.583,230.323-127.854C971.625,237.823,961,202.511,961,202.511z
		"/>
</g>
</svg>
