<?xml version="1.0" encoding="utf-8"?>
<!-- Generator: Adobe Illustrator 16.0.0, SVG Export Plug-In . SVG Version: 6.00 Build 0)  -->
<!DOCTYPE svg PUBLIC "-//W3C//DTD SVG 1.1//EN" "http://www.w3.org/Graphics/SVG/1.1/DTD/svg11.dtd">
<svg version="1.1" id="Layer_1" xmlns="http://www.w3.org/2000/svg" xmlns:xlink="http://www.w3.org/1999/xlink" x="0px" y="0px"
	 width="1024px" height="1024px" viewBox="0 0 1024 1024" enable-background="new 0 0 1024 1024" xml:space="preserve">
<path fill="#414042" d="M121.854,295.969v432.073h780.292V295.969H121.854z M518.563,644.334c0,5.104-4.125,9.271-9.271,9.271
	H191.438c-5.125,0-9.271-4.167-9.271-9.271v-38.303c1.563-50.896,90.833-64.666,116.146-67.521c2.5-6.646,4.104-15.229,4.917-24.854
	c-9.021-11.146-15.917-25.625-19.292-42.531c-6.646-7.26-9.875-15.135-9.583-23.427c0.375-9.792,5.625-17.114,9-20.833
	c6.958-40.178,33.583-69.042,64.188-69.042c28.667,0,54.146,25.375,62.771,62.094c3.875,3.917,10.584,12.219,11.292,23.656
	c0.583,9.239-2.854,18.083-10.167,26.313c-2.646,14.229-7.791,26.864-14.583,37.25c0.75,12.813,2.625,23.563,5.542,31.375
	C427.75,541.406,517,555.115,518.563,605.74V644.334z M813.521,549.781H573.563c-11.791,0-21.333-9.541-21.333-21.333
	c0-11.771,9.542-21.333,21.333-21.333h239.959c11.791,0,21.333,9.563,21.333,21.333C834.854,540.24,825.313,549.781,813.521,549.781
	z M813.521,420.448H573.563c-11.791,0-21.333-9.542-21.333-21.333c0-11.792,9.542-21.334,21.333-21.334h239.959
	c11.791,0,21.333,9.542,21.333,21.334C834.854,410.906,825.313,420.448,813.521,420.448z"/>
</svg>
