<?xml version="1.0" encoding="utf-8"?>
<!-- Generator: Adobe Illustrator 16.0.0, SVG Export Plug-In . SVG Version: 6.00 Build 0)  -->
<!DOCTYPE svg PUBLIC "-//W3C//DTD SVG 1.1//EN" "http://www.w3.org/Graphics/SVG/1.1/DTD/svg11.dtd">
<svg version="1.1" id="Layer_1" xmlns="http://www.w3.org/2000/svg" xmlns:xlink="http://www.w3.org/1999/xlink" x="0px" y="0px"
	 width="1024px" height="1024px" viewBox="0 0 1024 1024" enable-background="new 0 0 1024 1024" xml:space="preserve">
<path fill="#414042" d="M121.417,295.719v432.573h781.167V295.719H121.417z M486.084,597.344H219.417
	c-11.792,0-21.333-9.563-21.333-21.333c0-11.792,9.541-21.333,21.333-21.333h266.667c11.791,0,21.333,9.541,21.333,21.333
	C507.417,587.781,497.875,597.344,486.084,597.344z M486.084,448.011H219.417c-11.792,0-21.333-9.563-21.333-21.333
	c0-11.792,9.541-21.334,21.333-21.334h266.667c11.791,0,21.333,9.542,21.333,21.334
	C507.417,438.448,497.875,448.011,486.084,448.011z M822.438,533.344c0,5.136-4.146,9.261-9.271,9.261H660
	c-5.125,0-9.291-4.125-9.291-9.261V388.886c0-5.125,4.166-9.271,9.291-9.271h153.167c5.125,0,9.271,4.146,9.271,9.271V533.344z"/>
</svg>
