<?xml version="1.0" encoding="utf-8"?>
<!-- Generator: Adobe Illustrator 16.0.0, SVG Export Plug-In . SVG Version: 6.00 Build 0)  -->
<!DOCTYPE svg PUBLIC "-//W3C//DTD SVG 1.1//EN" "http://www.w3.org/Graphics/SVG/1.1/DTD/svg11.dtd">
<svg version="1.1" id="Layer_1" xmlns="http://www.w3.org/2000/svg" xmlns:xlink="http://www.w3.org/1999/xlink" x="0px" y="0px"
	 width="1024px" height="1024px" viewBox="0 0 1024 1024" enable-background="new 0 0 1024 1024" xml:space="preserve">
<g>
	<polygon fill="#414042" points="154.125,253.344 154.125,276.844 923.542,276.844 923.542,697.667 947.042,697.667 
		947.042,253.344 	"/>
	<path fill="#414042" d="M76.959,770.667h781.166V338.084H76.959V770.667z M606.25,431.25c0-5.114,4.167-9.271,9.292-9.271H768.75
		c5.125,0,9.271,4.156,9.271,9.271v144.459c0,5.114-4.146,9.281-9.271,9.281H615.542c-5.125,0-9.292-4.167-9.292-9.281V431.25z
		 M174.959,447.709h266.666c11.792,0,21.334,9.531,21.334,21.333c0,11.771-9.542,21.333-21.334,21.333H174.959
		c-11.792,0-21.334-9.563-21.334-21.333C153.625,457.24,163.167,447.709,174.959,447.709z M174.959,597.053h266.666
		c11.792,0,21.334,9.521,21.334,21.344c0,11.771-9.542,21.333-21.334,21.333H174.959c-11.792,0-21.334-9.563-21.334-21.333
		C153.625,606.573,163.167,597.053,174.959,597.053z"/>
</g>
</svg>
