<?xml version="1.0" encoding="utf-8"?>
<!-- Generator: Adobe Illustrator 16.0.0, SVG Export Plug-In . SVG Version: 6.00 Build 0)  -->
<!DOCTYPE svg PUBLIC "-//W3C//DTD SVG 1.1//EN" "http://www.w3.org/Graphics/SVG/1.1/DTD/svg11.dtd">
<svg version="1.1" id="Layer_1" xmlns="http://www.w3.org/2000/svg" xmlns:xlink="http://www.w3.org/1999/xlink" x="0px" y="0px"
	 width="1024px" height="1024px" viewBox="0 0 1024 1024" enable-background="new 0 0 1024 1024" xml:space="preserve">
<g>
	<path fill="#414042" d="M709.125,349.261L576.417,545.698l-13.583-13.979c1.5-4.625,2.521-9.51,2.521-14.625
		c0-26.625-21.646-48.281-48.271-48.281c-4.688,0-9.104,0.865-13.396,2.125l-17.229-17.719l186.479-132.656
		c-1.75-0.708-3.563-1.302-5.146-2.5c-43.646-33.094-95.75-50.594-150.708-50.594c-137.646,0-249.625,111.959-249.625,249.625
		c0,61.261,22.416,120.156,63.104,165.865c0.938,1.041,1.354,2.333,2.042,3.5L457.75,484.917l14.396,14.802
		c-2.084,5.417-3.354,11.209-3.354,17.375c0,26.625,21.667,48.292,48.292,48.292c5.666,0,11.021-1.167,16.063-2.958l14.563,14.958
		L360.167,718.25c4.771-0.375,9.688,0.563,13.938,3.5c42.021,29.438,91.458,44.959,142.979,44.959
		c137.646,0,249.625-112,249.625-249.615c0-56.541-18.438-109.875-53.334-154.239C710.209,358.803,709.021,354.011,709.125,349.261z
		"/>
	<path fill="#414042" d="M512.021,38.386c-261.167,0-473.625,212.469-473.625,473.625c0,261.177,212.458,473.614,473.625,473.614
		c261.166,0,473.583-212.438,473.583-473.614C985.604,250.854,773.188,38.386,512.021,38.386z M901.042,538.428h-90.667
		c-0.688,0-1.291-0.334-1.958-0.417c-10.313,144.552-125.854,260.114-270.396,270.448c0.104,0.688,0.396,1.25,0.396,1.958v90.667
		c0,11.813-9.542,21.333-21.333,21.333c-11.792,0-21.334-9.521-21.334-21.333v-90.667c0-0.667,0.313-1.208,0.375-1.833
		c-0.771-0.084-1.541-0.188-2.313-0.25c-4.666-0.375-9.25-0.875-13.833-1.459c-4.063-0.5-8.083-1.166-12.083-1.833
		c-5.875-1-11.688-2.125-17.438-3.5c-5.188-1.208-10.375-2.5-15.479-3.958c-3.438-1.042-6.833-2.125-10.208-3.25
		c-5.396-1.792-10.709-3.729-15.979-5.854c-2.313-0.938-4.688-1.688-6.958-2.729c-7.271-3.125-14.375-6.583-21.375-10.291
		c-2.271-1.188-4.479-2.5-6.729-3.792c-5.458-3.083-10.854-6.313-16.146-9.792c-1.854-1.25-3.771-2.416-5.604-3.646
		c-0.771-0.521-1.563-0.979-2.333-1.521c-0.375-0.229-0.563-0.667-0.917-0.896c-6.542-4.625-13-9.438-19.125-14.604L271.5,784.896
		l38.334-61.771c-3.459-3.458-6.604-7.188-9.875-10.833c-0.396-0.375-0.896-0.542-1.271-0.938c-1.333-1.521-2.5-3.104-3.791-4.625
		c-2.396-2.813-4.729-5.646-7.021-8.583c-3.063-3.875-6.021-7.854-8.854-11.854c-2.396-3.333-4.75-6.708-7-10.146
		c-2.25-3.479-4.334-7.021-6.417-10.563c-2.5-4.25-5.042-8.459-7.333-12.834c-0.771-1.416-1.417-2.938-2.167-4.458
		c-13.458-26.646-22.854-55.614-27.625-86.156c-0.021-0.156-0.042-0.333-0.063-0.489c-1.208-7.803-2.146-15.636-2.708-23.636
		c-0.667,0.083-1.271,0.417-1.959,0.417h-90.666c-11.792,0-21.334-9.531-21.334-21.334c0-11.802,9.542-21.333,21.334-21.333h90.666
		c0.688,0,1.292,0.292,1.959,0.375C236.021,351.584,351.604,236,496.146,225.719c-0.104-0.666-0.396-1.291-0.396-1.958v-90.667
		c0-11.802,9.542-21.333,21.334-21.333c11.791,0,21.333,9.531,21.333,21.333v90.667c0,0.667-0.313,1.208-0.375,1.886
		c0.5,0.052,1,0.114,1.5,0.114c5.438,0.417,10.813,1.042,16.188,1.75c3.146,0.417,6.25,0.917,9.375,1.406
		c4.854,0.844,9.708,1.594,14.479,2.625c7.229,1.563,14.375,3.427,21.438,5.511c3.291,1.01,6.5,2.166,9.729,3.26
		c5.104,1.709,10.167,3.531,15.167,5.584c2.896,1.156,5.813,2.322,8.667,3.583c6.104,2.698,12.125,5.614,18.063,8.698
		c1.5,0.791,3.063,1.5,4.541,2.344c7.292,3.938,14.375,8.322,21.354,12.947c2.063,1.375,4.021,2.834,6.021,4.25
		c3.021,2.125,6.084,4.136,9.021,6.334c0.375,0.291,0.521,0.75,0.854,1.041c4.521,3.469,8.979,7.011,13.292,10.709l72.208-51.375
		l-49.521,73.302c5.417,5.761,10.646,11.708,15.563,17.906c0.292,0.313,0.667,0.458,0.938,0.823
		c3.854,4.927,7.458,9.969,10.958,15.063c0.604,0.864,1.271,1.656,1.854,2.552c4.729,6.979,9.042,14.239,13.125,21.511
		c1.292,2.385,2.479,4.822,3.708,7.188c2.709,5.229,5.292,10.489,7.625,15.854c1.292,2.928,2.563,5.854,3.771,8.803
		c2.083,5.166,3.958,10.416,5.75,15.666c1.104,3.292,2.313,6.5,3.313,9.844c2.041,6.906,3.854,13.865,5.396,20.959
		c1.125,5.072,1.958,10.239,2.813,15.447c0.458,2.75,0.896,5.553,1.271,8.334c0.792,5.75,1.417,11.541,1.854,17.375
		c0.042,0.375,0.104,0.708,0.125,1.083c0.667-0.083,1.229-0.375,1.896-0.375h90.667c11.792,0,21.333,9.531,21.333,21.333
		C922.375,528.896,912.834,538.428,901.042,538.428z"/>
</g>
</svg>
