<?xml version="1.0" encoding="utf-8"?>
<!-- Generator: Adobe Illustrator 16.0.0, SVG Export Plug-In . SVG Version: 6.00 Build 0)  -->
<!DOCTYPE svg PUBLIC "-//W3C//DTD SVG 1.1//EN" "http://www.w3.org/Graphics/SVG/1.1/DTD/svg11.dtd">
<svg version="1.1" id="Layer_1" xmlns="http://www.w3.org/2000/svg" xmlns:xlink="http://www.w3.org/1999/xlink" x="0px" y="0px"
	 width="1024px" height="1024px" viewBox="0 0 1024 1024" enable-background="new 0 0 1024 1024" xml:space="preserve">
<g>
	<polygon fill="#414042" points="189.396,220.219 189.396,243.729 958.813,243.729 958.813,664.542 982.313,664.542 
		982.313,220.219 	"/>
	<polygon fill="#414042" points="118.854,309.99 888.271,309.99 888.271,730.813 911.771,730.813 911.771,286.469 118.854,286.469 	
		"/>
	<path fill="#414042" d="M41.688,803.792h781.167V371.219H41.688V803.792z M570.979,464.375c0-5.094,4.167-9.25,9.292-9.25h153.208
		c5.125,0,9.271,4.156,9.271,9.25v144.448c0,5.177-4.146,9.323-9.271,9.323H580.271c-5.125,0-9.292-4.146-9.292-9.323V464.375z
		 M139.688,480.823h266.667c11.792,0,21.333,9.563,21.333,21.333c0,11.792-9.541,21.334-21.333,21.334H139.688
		c-11.791,0-21.333-9.542-21.333-21.334C118.354,490.386,127.896,480.823,139.688,480.823z M139.688,630.188h266.667
		c11.792,0,21.333,9.563,21.333,21.334c0,11.791-9.541,21.333-21.333,21.333H139.688c-11.791,0-21.333-9.542-21.333-21.333
		C118.354,639.75,127.896,630.188,139.688,630.188z"/>
</g>
</svg>
