<?xml version="1.0" encoding="utf-8"?>
<!-- Generator: Adobe Illustrator 16.0.0, SVG Export Plug-In . SVG Version: 6.00 Build 0)  -->
<!DOCTYPE svg PUBLIC "-//W3C//DTD SVG 1.1//EN" "http://www.w3.org/Graphics/SVG/1.1/DTD/svg11.dtd">
<svg version="1.1" id="Layer_1" xmlns="http://www.w3.org/2000/svg" xmlns:xlink="http://www.w3.org/1999/xlink" x="0px" y="0px"
	 width="1024px" height="1024px" viewBox="0 0 1024 1024" enable-background="new 0 0 1024 1024" xml:space="preserve">
<g>
	<path fill="#414042" d="M510.053,178.678c-71.334-0.375-129.469,57.438-129.803,129.083
		c-0.364,70.25,57.188,128.719,126.396,129.896c73.719,1.229,132.614-58.75,132.51-129.177
		C639.042,237.021,581.75,179.053,510.053,178.678z"/>
	<path fill="#414042" d="M976.25,70.073H47.688c-14.677,0-26.583,11.729-26.583,26.239v831.396
		c0,14.479,11.906,26.229,26.583,26.229H976.25c14.75,0,26.646-11.75,26.646-26.229V96.313
		C1002.896,81.803,991,70.073,976.25,70.073z M961.667,755.75H766.292H766V629.667c0-72.5-56.833-131.219-126.916-131.219H379.823
		c-70.104,0-126.948,58.719-126.948,131.219V755.75H62.323V131.198c0-13.261,10.938-24.021,24.344-24.021h850.604
		c13.5,0,24.396,10.76,24.396,24.021V755.75z"/>
</g>
</svg>
