<?xml version="1.0" encoding="utf-8"?>
<!-- Generator: Adobe Illustrator 16.0.0, SVG Export Plug-In . SVG Version: 6.00 Build 0)  -->
<!DOCTYPE svg PUBLIC "-//W3C//DTD SVG 1.1//EN" "http://www.w3.org/Graphics/SVG/1.1/DTD/svg11.dtd">
<svg version="1.1" id="Layer_1" xmlns="http://www.w3.org/2000/svg" xmlns:xlink="http://www.w3.org/1999/xlink" x="0px" y="0px"
	 width="1024px" height="1024px" viewBox="0 0 1024 1024" enable-background="new 0 0 1024 1024" xml:space="preserve">
<g>
	<path fill="#414042" d="M24.896,725.459h974.208V299.803H24.896V725.459z M428.063,432.281l215.063,86.292l-215.063,86.271V432.281
		z"/>
	<rect x="24.896" y="145.761" fill="#414042" width="127.604" height="106.896"/>
	<rect x="194.229" y="145.761" fill="#414042" width="127.604" height="106.896"/>
	<rect x="871.5" y="145.761" fill="#414042" width="127.604" height="106.896"/>
	<rect x="702.209" y="145.761" fill="#414042" width="127.563" height="106.896"/>
	<rect x="532.875" y="145.761" fill="#414042" width="127.604" height="106.896"/>
	<rect x="363.563" y="145.761" fill="#414042" width="127.604" height="106.896"/>
	<rect x="24.896" y="771.375" fill="#414042" width="127.604" height="106.875"/>
	<rect x="194.229" y="771.375" fill="#414042" width="127.604" height="106.875"/>
	<rect x="871.5" y="771.375" fill="#414042" width="127.604" height="106.875"/>
	<rect x="702.209" y="771.375" fill="#414042" width="127.563" height="106.875"/>
	<rect x="532.875" y="771.375" fill="#414042" width="127.604" height="106.875"/>
	<rect x="363.563" y="771.375" fill="#414042" width="127.604" height="106.875"/>
</g>
</svg>
