<?xml version="1.0" encoding="utf-8"?>
<!-- Generator: Adobe Illustrator 16.0.0, SVG Export Plug-In . SVG Version: 6.00 Build 0)  -->
<!DOCTYPE svg PUBLIC "-//W3C//DTD SVG 1.1//EN" "http://www.w3.org/Graphics/SVG/1.1/DTD/svg11.dtd">
<svg version="1.1" id="Layer_1" xmlns="http://www.w3.org/2000/svg" xmlns:xlink="http://www.w3.org/1999/xlink" x="0px" y="0px"
	 width="1024px" height="1024px" viewBox="0 0 1024 1024" enable-background="new 0 0 1024 1024" xml:space="preserve">
<path fill="#414042" d="M977.354,639.084l-122.042-70.459l-0.166-0.291c0.646-46.031-0.959-69.625-0.875-113.375l122.666-70.834
	c12.375-7.146,16.563-22.958,9.479-35.322L890,182c-7.146-12.406-22.958-16.625-35.313-9.458l-121.896,70.396l-0.333-0.229
	c-40.292-22.719-57.063-33.917-98.709-56.74V45.417c0-14.25-11.583-25.823-25.896-25.823H415.25
	c-14.313,0-25.896,11.573-25.896,25.823V175.49c-44.771,33.302-98.875,68.063-98.875,68.063l-121.688-70.261
	c-12.354-7.167-28.167-2.917-35.313,9.511L37.188,349.511c-7.166,12.417-2.896,28.239,9.459,35.364l115.458,65.459
	c-0.438,54.666,0,123.083,0,123.083L47.063,639.792c-12.354,7.167-16.583,23-9.458,35.375L133.896,842
	c7.146,12.375,23,16.584,35.375,9.417l122-70.375l0.125,0.25c42.791,29.5,98.833,58.375,98.833,58.375V978.5
	c0,14.334,11.583,25.917,25.917,25.917h192.583c14.313,0,25.896-11.583,25.896-25.917V839.667c0,0,43.834-20.917,98.813-59.25
	l121.709,70.292c12.354,7.125,28.166,2.875,35.333-9.5l96.333-166.75C993.979,662.084,989.729,646.209,977.354,639.084z
	 M508.813,689.5c-97.625,0-176.708-79.188-176.708-176.781c0-97.635,79.083-176.802,176.708-176.802
	c97.646,0,176.75,79.167,176.75,176.802C685.563,610.313,606.459,689.5,508.813,689.5z"/>
</svg>
