<?xml version="1.0" encoding="utf-8"?>
<!-- Generator: Adobe Illustrator 16.0.0, SVG Export Plug-In . SVG Version: 6.00 Build 0)  -->
<!DOCTYPE svg PUBLIC "-//W3C//DTD SVG 1.1//EN" "http://www.w3.org/Graphics/SVG/1.1/DTD/svg11.dtd">
<svg version="1.1" id="Layer_1" xmlns="http://www.w3.org/2000/svg" xmlns:xlink="http://www.w3.org/1999/xlink" x="0px" y="0px"
	 width="48px" height="48px" viewBox="0 0 48 48" enable-background="new 0 0 48 48" xml:space="preserve">
<g>
	<path fill="#414042" d="M27.703,25.162c-0.125-0.061-0.27-0.066-0.398-0.016c-1.979,0.764-3.337,0.856-3.399,0.859
		c-0.152,0-1.019-0.036-3.071-0.741c-0.247-0.085-0.515,0.033-0.619,0.271l-0.748,1.689c-0.051,0.115-0.057,0.245-0.016,0.363
		c0.353,1.031,1.732,2.979,4.536,2.979h0.001c0.002,0,0.064,0.001,0.066,0.001c2.703,0,4.102-1.947,4.465-2.976
		c0.035-0.102,0.037-0.212,0.006-0.313l-0.563-1.814C27.922,25.332,27.828,25.223,27.703,25.162z M20.467,27.435l0.478-1.079
		c1.273,0.415,2.073,0.566,2.542,0.621l0.007,2.557C21.536,29.354,20.697,27.936,20.467,27.435z M24.493,29.529l-0.007-2.582
		c0.528-0.076,1.467-0.257,2.679-0.684l0.352,1.139C27.301,27.876,26.463,29.329,24.493,29.529z"/>
	<path fill="#414042" d="M37.945,31.245c-1.109,0-2.012,0.902-2.012,2.012c0,1.108,0.902,2.01,2.012,2.01s2.012-0.901,2.012-2.01
		C39.957,32.147,39.055,31.245,37.945,31.245z M37.945,34.267c-0.557,0-1.012-0.453-1.012-1.01c0-0.558,0.455-1.012,1.012-1.012
		c0.559,0,1.012,0.454,1.012,1.012C38.957,33.813,38.504,34.267,37.945,34.267z"/>
	<path fill="#414042" d="M10.141,31.245c-1.109,0-2.012,0.902-2.012,2.012c0,1.108,0.902,2.01,2.012,2.01s2.012-0.901,2.012-2.01
		C12.152,32.147,11.25,31.245,10.141,31.245z M10.141,34.267c-0.558,0-1.012-0.453-1.012-1.01c0-0.558,0.454-1.012,1.012-1.012
		s1.012,0.454,1.012,1.012C11.152,33.813,10.698,34.267,10.141,34.267z"/>
	<path fill="#414042" d="M46.154,26.193l-2.893-1.885c-0.096-0.062-0.213-0.089-0.324-0.079L31.07,25.438
		c-0.077,0.008-0.146,0.036-0.209,0.075c-0.964-2.285-2.4-4.132-3.991-5.179L24.438,9.58c-0.051-0.229-0.254-0.39-0.487-0.39
		c-0.001,0-0.002,0-0.004,0c-0.234,0.001-0.437,0.167-0.485,0.396l-2.271,10.76c-1.591,1.057-3.056,2.911-4.046,5.169
		c-0.063-0.04-0.134-0.07-0.213-0.078L5.064,24.229c-0.114-0.01-0.229,0.017-0.324,0.079l-2.893,1.885
		c-0.168,0.109-0.255,0.311-0.219,0.508c0.036,0.199,0.188,0.355,0.384,0.399l14.181,3.146c0.169,1.76,0.899,3.609,2.13,5.208
		c1.626,2.111,3.794,3.372,5.797,3.372c1.93,0,3.924-1.139,5.473-3.124c1.283-1.646,2.036-3.588,2.192-5.451l14.204-3.151
		c0.195-0.044,0.348-0.2,0.383-0.399C46.41,26.504,46.322,26.303,46.154,26.193z M23.968,12.032l1.74,7.694
		c-0.561-0.22-1.13-0.341-1.694-0.341c-0.552,0-1.114,0.124-1.671,0.348L23.968,12.032z M5.139,25.24l11.643,1.187
		c-0.158,0.433-0.303,0.874-0.423,1.329c-0.123,0.466-0.177,0.958-0.195,1.46L3.39,26.382L5.139,25.24z M28.805,35.088
		c-1.357,1.74-3.064,2.739-4.684,2.739c-1.695,0-3.566-1.115-5.005-2.983c-1.651-2.143-2.338-4.761-1.791-6.832
		c0.81-3.071,2.629-5.717,4.556-6.925c0.018-0.01,0.034-0.021,0.05-0.032c0.696-0.427,1.404-0.669,2.083-0.669
		c2.318,0,5.434,2.851,6.635,7.621C31.201,30.208,30.494,32.922,28.805,35.088z M31.81,29.223c-0.021-0.5-0.073-0.992-0.19-1.461
		c-0.115-0.458-0.255-0.9-0.406-1.334l11.65-1.188l1.75,1.142L31.81,29.223z"/>
</g>
</svg>
