<?xml version="1.0" encoding="utf-8"?>
<!-- Generator: Adobe Illustrator 16.0.0, SVG Export Plug-In . SVG Version: 6.00 Build 0)  -->
<!DOCTYPE svg PUBLIC "-//W3C//DTD SVG 1.1//EN" "http://www.w3.org/Graphics/SVG/1.1/DTD/svg11.dtd">
<svg version="1.1" id="Layer_1" xmlns="http://www.w3.org/2000/svg" xmlns:xlink="http://www.w3.org/1999/xlink" x="0px" y="0px"
	 width="48px" height="48px" viewBox="0 0 48 48" enable-background="new 0 0 48 48" xml:space="preserve">
<g>
	<path fill="#414042" d="M35.147,8.885c-0.004,0-0.006,0-0.01,0c-4.273-0.608-8.396-0.917-12.255-0.917
		c-6.203,0-9.661,0.788-10.169,0.912c-1.301,0.034-2.349,1.103-2.349,2.411v11.75c0,1.313,1.053,2.382,2.358,2.413
		c0.453,0.095,3.617,0.705,9.82,0.706c0.001,0,0.001,0,0.002,0c3.852,0,8.083-0.238,12.522-0.705c1.332,0,2.416-1.083,2.416-2.414
		v-11.75C37.483,9.964,36.405,8.885,35.147,8.885z M22.543,25.16c-0.308,0-0.602-0.003-0.895-0.006l2.698-1.444
		c0.03,0.063,0.071,0.122,0.128,0.169l1.457,1.217c-1.155,0.038-2.291,0.063-3.386,0.063C22.544,25.16,22.544,25.16,22.543,25.16z
		 M36.483,23.042c0,0.779-0.635,1.415-1.467,1.417c-2.676,0.279-5.241,0.465-7.702,0.578c-0.029-0.076-0.071-0.147-0.138-0.203
		l-1.923-1.609l6.745-3.608c0.244-0.129,0.336-0.434,0.205-0.677c-0.131-0.244-0.436-0.333-0.678-0.205l-11.291,6.042
		c-0.137,0.074-0.219,0.203-0.247,0.345c-4.733-0.145-7.075-0.647-7.102-0.653c-0.035-0.008-0.072-0.012-0.108-0.012
		c-0.779,0-1.414-0.635-1.414-1.415v-11.75c0-0.779,0.635-1.412,1.414-1.412c0.042,0,0.085-0.006,0.126-0.016
		c0.034-0.009,3.529-0.895,9.978-0.895c3.812,0,7.888,0.305,12.185,0.911c0.781,0,1.416,0.633,1.416,1.412V23.042z"/>
	<path fill="#414042" d="M35.884,33.553c-0.82,0-1.49,0.668-1.49,1.49c0,0.821,0.67,1.49,1.49,1.49s1.486-0.669,1.486-1.49
		C37.37,34.221,36.704,33.553,35.884,33.553z M35.884,35.533c-0.27,0-0.49-0.221-0.49-0.49c0-0.271,0.221-0.49,0.49-0.49
		s0.486,0.219,0.486,0.49C36.37,35.313,36.153,35.533,35.884,35.533z"/>
	<path fill="#414042" d="M12.382,33.553c-0.821,0-1.49,0.668-1.49,1.49c0,0.821,0.669,1.49,1.49,1.49
		c0.819,0,1.486-0.669,1.486-1.49C13.869,34.221,13.202,33.553,12.382,33.553z M12.382,35.533c-0.271,0-0.49-0.221-0.49-0.49
		c0-0.271,0.22-0.49,0.49-0.49c0.269,0,0.486,0.219,0.486,0.49C12.869,35.313,12.651,35.533,12.382,35.533z"/>
	<path fill="#414042" d="M30.544,31.172H17.302c-0.276,0-0.5,0.223-0.5,0.5c0,0.275,0.224,0.5,0.5,0.5h13.242
		c0.277,0,0.5-0.225,0.5-0.5C31.044,31.395,30.821,31.172,30.544,31.172z"/>
	<path fill="#414042" d="M30.544,35.336H17.302c-0.276,0-0.5,0.223-0.5,0.5c0,0.275,0.224,0.5,0.5,0.5h13.242
		c0.277,0,0.5-0.225,0.5-0.5C31.044,35.559,30.821,35.336,30.544,35.336z"/>
	<path fill="#414042" d="M42.651,10.79h-1.299c-0.155,0-0.302,0.037-0.441,0.091V9.043c0-1.468-1.189-2.662-2.566-2.662
		c-0.004,0-0.01,0-0.014,0c-3.027-0.56-5.861-0.924-8.485-1.148c-0.162-0.729-0.789-2.798-2.685-2.963h-3.203
		c-0.013,0-0.024,0.006-0.037,0.007c-0.013-0.001-0.024-0.007-0.037-0.007l-3.243,0.002c-1.759,0.154-2.297,1.994-2.453,2.835
		c-5.026,0.348-8.053,1.132-8.544,1.267C8.206,6.413,7.046,7.596,7.046,9.043v1.818C6.92,10.819,6.789,10.79,6.65,10.79H5.351
		c-0.795,0-1.441,0.774-1.441,1.727v3.996c0,0.955,0.646,1.733,1.441,1.733H6.65c0.138,0,0.27-0.031,0.396-0.075v19.395
		c0,1.451,1.164,2.636,2.607,2.669c0.125,0.029,0.448,0.101,0.943,0.191v3.915c0,0.604,0.468,1.101,1.059,1.146
		c0.231,0.07,0.945,0.261,1.98,0.261c0.607,0,1.327-0.065,2.124-0.259c0.602-0.036,1.081-0.537,1.081-1.148V41.15
		c1.641,0.108,3.544,0.183,5.725,0.183c2.665,0,5.729-0.109,9.177-0.396v3.402c0,0.611,0.48,1.112,1.082,1.148
		c0.797,0.193,1.516,0.259,2.123,0.259c1.035,0,1.75-0.19,1.98-0.261c0.592-0.046,1.059-0.543,1.059-1.146v-4.074
		c0.085-0.011,0.166-0.02,0.252-0.031c1.475,0,2.672-1.198,2.672-2.67V18.153c0.14,0.055,0.286,0.092,0.441,0.092h1.299
		c0.795,0,1.441-0.778,1.441-1.733v-3.996C44.093,11.548,43.46,10.79,42.651,10.79z M20.685,3.27h3.199
		c0.013,0,0.024-0.006,0.037-0.007c0.013,0.001,0.024,0.007,0.037,0.007l3.16-0.001c1.009,0.088,1.478,1.217,1.671,1.882
		c-3.651-0.264-6.864-0.252-9.563-0.107C19.382,4.38,19.766,3.353,20.685,3.27z M6.65,17.245H5.351
		c-0.208,0-0.441-0.313-0.441-0.732v-3.996c0-0.416,0.233-0.727,0.441-0.727H6.65c0.208,0,0.441,0.311,0.441,0.727v3.996
		C7.091,16.931,6.858,17.245,6.65,17.245z M15.841,44.34c0,0.124-0.149,0.135-0.271,0.164c-2.129,0.531-3.644,0.019-3.658,0.014
		c-0.131-0.046-0.314-0.039-0.314-0.178v-3.746c1.027,0.159,2.444,0.341,4.244,0.484V44.34z M36.987,44.34
		c0,0.139-0.184,0.132-0.314,0.178c-0.014,0.006-1.527,0.52-3.658-0.014c-0.121-0.028-0.271-0.039-0.271-0.164v-3.493
		c1.357-0.123,2.772-0.274,4.244-0.456V44.34z M39.911,37.564c0,0.92-0.75,1.67-1.736,1.674C19.744,41.684,9.936,39.273,9.839,39.25
		c-0.04-0.011-0.081-0.016-0.123-0.016c-0.921,0-1.67-0.75-1.67-1.67V17.063c0-0.028-0.012-0.053-0.016-0.08
		c0.036-0.151,0.061-0.307,0.061-0.471v-3.996c0-0.166-0.024-0.322-0.06-0.473c0.004-0.024,0.015-0.046,0.015-0.072V9.043
		c0-0.92,0.749-1.67,1.67-1.67c0.048,0,0.096-0.006,0.142-0.021c0.109-0.032,11.063-3.176,28.381,0.021
		c0.922,0,1.672,0.75,1.672,1.67v2.928c0,0.062,0.015,0.12,0.035,0.174c-0.021,0.12-0.035,0.243-0.035,0.371v3.996
		c0,0.128,0.014,0.253,0.036,0.374c-0.021,0.056-0.036,0.114-0.036,0.177V37.564z M43.093,16.512c0,0.419-0.232,0.732-0.441,0.732
		h-1.299c-0.207,0-0.441-0.313-0.441-0.732v-3.996c0-0.416,0.234-0.727,0.441-0.727h1.299c0.209,0,0.441,0.311,0.441,0.727V16.512z"
		/>
</g>
</svg>
