<?xml version="1.0" encoding="utf-8"?>
<!-- Generator: Adobe Illustrator 16.0.0, SVG Export Plug-In . SVG Version: 6.00 Build 0)  -->
<!DOCTYPE svg PUBLIC "-//W3C//DTD SVG 1.1//EN" "http://www.w3.org/Graphics/SVG/1.1/DTD/svg11.dtd">
<svg version="1.1" id="Layer_1" xmlns="http://www.w3.org/2000/svg" xmlns:xlink="http://www.w3.org/1999/xlink" x="0px" y="0px"
	 width="48px" height="48px" viewBox="0 0 48 48" enable-background="new 0 0 48 48" xml:space="preserve">
<g>
	<path fill="#414042" d="M39.921,33.511H38.96c-1.256,0-2.277,1.021-2.277,2.277v4.83l-1.094-1.201
		c-0.096-0.105-0.23-0.164-0.371-0.164h-5.414l0.439-3.646h0.594c0.152,0,0.284-0.073,0.376-0.181
		c0.36,0.146,0.743,0.229,1.138,0.229h1.375c1.676,0,3.037-1.361,3.037-3.035V21.784c0-0.613-0.188-1.191-0.526-1.694l2.026-0.241
		c0.25-0.03,0.439-0.243,0.439-0.497v-2.107c0-0.276-0.223-0.5-0.5-0.5h-5.029c-0.051,0-0.102,0.008-0.15,0.023l-3.494,1.107
		c-0.012,0.004-0.02,0.013-0.031,0.017l-0.881-0.982c-0.096-0.105-0.23-0.166-0.373-0.166h-3.728
		c0.023-0.057,0.037-0.119,0.037-0.184v-1.026c1.42-0.078,2.857-0.464,2.857-1.367c0-1.021-1.836-1.383-3.41-1.383
		c-1.572,0-3.408,0.362-3.408,1.383c0,0.925,1.508,1.306,2.961,1.37v1.023c0,0.065,0.014,0.126,0.037,0.184h-3.832
		c-0.129,0-0.249,0.056-0.342,0.144v-5.562c0.655-0.114,1.115-0.505,1.115-1.002V8.13c0-0.497-0.46-0.888-1.115-1.002V4.601
		c0-0.163-0.079-0.315-0.212-0.409l-2.459-1.734c-0.226-0.158-0.538-0.105-0.696,0.121c-0.159,0.226-0.105,0.538,0.12,0.697
		l2.247,1.585v2.309c-0.548,0.151-0.906,0.51-0.906,0.961v2.195c0,0.443,0.363,0.804,0.906,0.958v6.628
		c-0.022-0.011-0.04-0.027-0.063-0.035l-3.494-1.107c-0.049-0.016-0.101-0.023-0.151-0.023H9.677c-0.276,0-0.5,0.224-0.5,0.5v2.107
		c0,0.253,0.189,0.466,0.44,0.497l2.193,0.261c-0.328,0.494-0.515,1.073-0.515,1.674V32.62c0,1.674,1.362,3.035,3.037,3.035h1.375
		c0.378,0,0.745-0.078,1.092-0.213c0.091,0.1,0.218,0.164,0.363,0.164h0.571l0.257,3.646h-4.617c-0.118,0-0.232,0.041-0.322,0.117
		l-1.732,1.461v-5.043c0-1.256-1.021-2.277-2.275-2.277H8.082c-1.256,0-2.277,1.021-2.277,2.277v7.59
		c0,1.254,1.021,2.273,2.277,2.273h0.963c1.255,0,2.275-1.02,2.275-2.273v-1.237l2.237-1.888h21.44l1.686,1.851v1.274
		c0,1.254,1.021,2.273,2.277,2.273h0.961c1.256,0,2.277-1.02,2.277-2.273v-7.59C42.198,34.532,41.177,33.511,39.921,33.511z
		 M24,13.786c1.175,0,1.97,0.214,2.292,0.382c-0.322,0.168-1.119,0.383-2.292,0.383c-1.172,0-1.968-0.215-2.291-0.383
		C22.031,14,22.828,13.786,24,13.786z M33.726,34.655h-1.375c-0.349,0-0.678-0.106-0.979-0.274l0.389-8.513
		c0.021,0.049,0.046,0.098,0.085,0.139l1.41,1.506c0.1,0.105,0.232,0.158,0.365,0.158c0.123,0,0.246-0.045,0.342-0.135
		c0.201-0.189,0.213-0.506,0.023-0.707l-1.41-1.506c-0.188-0.201-0.504-0.213-0.707-0.023c-0.039,0.036-0.064,0.081-0.089,0.125
		l0.105-2.314c0.019-0.011,0.041-0.006,0.058-0.02l0.094-0.072c0.014,0.02,0.021,0.042,0.037,0.061l1.182,1.262
		c0.1,0.105,0.232,0.158,0.365,0.158c0.123,0,0.246-0.045,0.342-0.135c0.201-0.188,0.213-0.505,0.023-0.707l-1.164-1.243
		l2.497-1.919c0.009,0.015,0.012,0.032,0.022,0.046c0.275,0.358,0.422,0.789,0.422,1.243v2.338
		c-0.012-0.093-0.042-0.185-0.107-0.262c-0.18-0.208-0.494-0.231-0.705-0.053l-1.504,1.295c-0.209,0.18-0.232,0.496-0.053,0.705
		c0.1,0.115,0.238,0.174,0.379,0.174c0.117,0,0.232-0.041,0.326-0.121l1.504-1.295c0.092-0.079,0.142-0.187,0.16-0.298v2.896
		c-0.02-0.049-0.042-0.098-0.078-0.14c-0.18-0.209-0.498-0.232-0.705-0.053l-1.502,1.295c-0.209,0.18-0.232,0.496-0.053,0.705
		c0.1,0.115,0.238,0.174,0.379,0.174c0.117,0,0.232-0.041,0.326-0.121l1.502-1.295c0.062-0.054,0.102-0.12,0.131-0.191v2.645
		c-0.019-0.038-0.033-0.078-0.063-0.111c-0.182-0.209-0.496-0.232-0.705-0.053l-1.504,1.297c-0.209,0.18-0.232,0.496-0.053,0.705
		c0.1,0.115,0.238,0.174,0.379,0.174c0.117,0,0.232-0.041,0.326-0.121l1.504-1.297c0.05-0.043,0.087-0.094,0.115-0.148v1.992
		C35.763,33.741,34.849,34.655,33.726,34.655z M33.251,17.745h4.451v1.164l-2.184,0.26c-0.09,0.011-0.174,0.045-0.246,0.1
		l-3.329,2.56l0.036-0.788c0.005-0.125-0.04-0.243-0.119-0.338c-0.006-0.11-0.04-0.22-0.119-0.309l-1.516-1.689L33.251,17.745z
		 M19.98,17.745h8.041l2.487,2.771H17.493L19.98,17.745z M19.531,8.208v2.039c-0.022,0.015-0.073,0.031-0.115,0.048V8.16
		C19.458,8.177,19.508,8.193,19.531,8.208z M10.177,17.745h4.452l3.12,0.989l-1.489,1.66c-0.08,0.088-0.114,0.198-0.12,0.309
		c-0.079,0.095-0.125,0.213-0.119,0.338l0.041,0.883l-3.456-2.655c-0.071-0.055-0.156-0.089-0.245-0.1l-2.185-0.26V17.745z
		 M14.333,34.655c-1.123,0-2.037-0.914-2.037-2.035V21.784c0-0.432,0.143-0.846,0.393-1.191l2.554,1.962l-0.993,1.057
		c-0.189,0.201-0.18,0.517,0.021,0.706c0.097,0.091,0.22,0.136,0.343,0.136c0.133,0,0.266-0.053,0.364-0.158l1.061-1.129
		l0.083,0.063l0.088,1.927c-0.185-0.073-0.403-0.034-0.547,0.121l-1.412,1.506c-0.189,0.201-0.179,0.518,0.022,0.707
		c0.097,0.09,0.219,0.135,0.342,0.135c0.133,0,0.267-0.053,0.364-0.158l1.274-1.358l0.107,2.341
		c-0.008-0.01-0.012-0.021-0.021-0.029c-0.199-0.189-0.517-0.18-0.706,0.023l-1.383,1.473c-0.189,0.201-0.18,0.518,0.022,0.705
		c0.096,0.092,0.219,0.137,0.342,0.137c0.133,0,0.266-0.053,0.364-0.158l1.383-1.473c0.012-0.013,0.017-0.029,0.027-0.044
		l0.243,5.323c-0.288,0.149-0.597,0.248-0.923,0.248H14.333z M17.044,21.517h13.912l-0.596,13.09H29.8H18.201h-0.56L17.044,21.517z
		 M29.237,35.606L28.8,39.228h-9.807l-0.256-3.621H29.237z M9.044,44.651H8.082c-0.704,0-1.277-0.572-1.277-1.273v-7.59
		c0-0.705,0.573-1.277,1.277-1.277h0.963c0.703,0,1.275,0.572,1.275,1.277v6.078v0.001v1.511
		C10.32,44.079,9.748,44.651,9.044,44.651z M41.198,43.378c0,0.701-0.572,1.273-1.277,1.273H38.96c-0.703,0-1.277-0.572-1.277-1.273
		v-7.59c0-0.705,0.574-1.277,1.277-1.277h0.961c0.705,0,1.277,0.572,1.277,1.277V43.378z"/>
	<path fill="#414042" d="M20.431,28.772h7.138c0.277,0,0.5-0.225,0.5-0.5v-4.338c0-0.276-0.223-0.5-0.5-0.5h-7.138
		c-0.276,0-0.5,0.224-0.5,0.5v4.338C19.931,28.548,20.155,28.772,20.431,28.772z M23.33,24.435h1.361v3.223
		c0,0.041,0.014,0.077,0.023,0.115H23.3c0.015-0.048,0.03-0.096,0.03-0.148V24.435z M27.069,27.772h-1.4
		c0.01-0.038,0.023-0.074,0.023-0.115v-3.223h1.377V27.772z M20.931,24.435h1.398v3.189c0,0.053,0.015,0.101,0.03,0.148h-1.428
		V24.435z"/>
	<circle fill="#414042" cx="27.569" cy="31.929" r="0.955"/>
	<circle fill="#414042" cx="20.431" cy="31.929" r="0.955"/>
	<path fill="#414042" d="M33.257,30.644c0.098,0.105,0.23,0.158,0.363,0.158c0.123,0,0.246-0.045,0.342-0.135
		c0.201-0.189,0.213-0.506,0.023-0.707l-1.381-1.473c-0.188-0.203-0.506-0.211-0.707-0.023c-0.201,0.189-0.211,0.506-0.021,0.707
		L33.257,30.644z"/>
	<path fill="#414042" d="M32.618,31.534c-0.191-0.203-0.508-0.211-0.707-0.023C31.71,31.7,31.7,32.017,31.89,32.218l1.383,1.473
		c0.098,0.105,0.23,0.158,0.363,0.158c0.123,0,0.246-0.045,0.342-0.137c0.203-0.188,0.213-0.504,0.023-0.705L32.618,31.534z"/>
	<path fill="#414042" d="M14.136,25.815c0.095,0.082,0.21,0.121,0.326,0.121c0.141,0,0.28-0.059,0.379-0.174
		c0.181-0.209,0.156-0.525-0.053-0.705l-1.502-1.293c-0.209-0.18-0.524-0.155-0.705,0.053c-0.181,0.209-0.156,0.525,0.053,0.705
		L14.136,25.815z"/>
	<path fill="#414042" d="M14.107,28.979c0.095,0.082,0.211,0.121,0.326,0.121c0.141,0,0.28-0.059,0.379-0.174
		c0.181-0.209,0.156-0.525-0.053-0.705l-1.504-1.293c-0.21-0.18-0.525-0.156-0.705,0.053c-0.181,0.209-0.156,0.525,0.053,0.705
		L14.107,28.979z"/>
	<path fill="#414042" d="M14.796,31.974c0.18-0.209,0.156-0.525-0.053-0.705l-1.502-1.295c-0.207-0.18-0.524-0.158-0.705,0.053
		c-0.18,0.209-0.156,0.523,0.053,0.705l1.502,1.295c0.094,0.08,0.21,0.121,0.326,0.121C14.558,32.147,14.698,32.089,14.796,31.974z"
		/>
	<path fill="#414042" d="M16.324,31.466c-0.201-0.188-0.518-0.178-0.706,0.023l-1.381,1.473c-0.189,0.201-0.179,0.518,0.022,0.707
		c0.097,0.09,0.219,0.135,0.342,0.135c0.133,0,0.267-0.053,0.364-0.158l1.381-1.473C16.536,31.972,16.525,31.655,16.324,31.466z"/>
</g>
</svg>
