<?xml version="1.0" encoding="utf-8"?>
<!-- Generator: Adobe Illustrator 16.0.0, SVG Export Plug-In . SVG Version: 6.00 Build 0)  -->
<!DOCTYPE svg PUBLIC "-//W3C//DTD SVG 1.1//EN" "http://www.w3.org/Graphics/SVG/1.1/DTD/svg11.dtd">
<svg version="1.1" id="Layer_1" xmlns="http://www.w3.org/2000/svg" xmlns:xlink="http://www.w3.org/1999/xlink" x="0px" y="0px"
	 width="48px" height="48px" viewBox="0 0 48 48" enable-background="new 0 0 48 48" xml:space="preserve">
<g>
	<path fill="#414042" d="M15.746,25.692h16.738c0.369,0,0.67-0.304,0.666-0.749l-0.998-6.847c0-0.373-0.299-0.676-0.666-0.676
		h-14.74c-0.367,0-0.666,0.303-0.661,0.605l-1.005,6.989C15.08,25.389,15.378,25.692,15.746,25.692z M17.033,18.421h14.162
		l0.912,6.273H16.131L17.033,18.421z"/>
	<path fill="#414042" d="M36.72,39.108h-2.787h-3.646H17.894h-3.646H11.3c-0.276,0-0.5,0.224-0.5,0.5s0.224,0.5,0.5,0.5h2.447v2.225
		c0,0.63,0.512,1.143,1.141,1.143h2.365c0.629,0,1.141-0.513,1.141-1.143v-2.225h11.392v2.225c0,0.63,0.512,1.143,1.139,1.143h2.367
		c0.629,0,1.141-0.513,1.141-1.143v-2.225h2.287c0.277,0,0.5-0.224,0.5-0.5S36.997,39.108,36.72,39.108z M17.394,42.333
		c0,0.079-0.063,0.143-0.141,0.143h-2.365c-0.077,0-0.141-0.063-0.141-0.143v-2.225h2.646V42.333z M33.433,42.333
		c0,0.077-0.064,0.143-0.141,0.143h-2.367c-0.078,0-0.139-0.063-0.139-0.143v-2.225h2.646V42.333z"/>
	<path fill="#414042" d="M38.944,17.831h-1.14c0.002-0.037,0.011-0.072,0.011-0.109V6.75c0-1.219-0.99-2.209-2.209-2.209H12.462
		c-1.218,0-2.209,0.99-2.209,2.209v10.971c0,0.038,0.009,0.072,0.011,0.109H9.058c-0.795,0-1.441,0.775-1.441,1.727v3.996
		c0,0.954,0.646,1.729,1.441,1.729h1.299c0.238,0,0.459-0.076,0.657-0.198l-0.194,1.212v8.854c0,1.122,0.914,2.035,2.037,2.035
		h22.31c1.123,0,2.037-0.913,2.037-2.036l-0.012-8.93l-0.175-1.116c0.19,0.111,0.402,0.18,0.628,0.18h1.299
		c0.795,0,1.441-0.775,1.441-1.729v-3.996C40.386,18.588,39.753,17.831,38.944,17.831z M11.253,6.75
		c0-0.667,0.542-1.208,1.209-1.208h23.144c0.668,0,1.209,0.542,1.209,1.208v10.971c0,0.333-0.135,0.636-0.354,0.855
		c0,0,0,0-0.001,0.001c-0.118,0.119-0.264,0.206-0.423,0.268l-0.48-3.071c-0.385-1.758-1.492-2.02-2.117-2.02H14.664
		c-1.122,0-1.848,0.678-2.164,2.048l-0.486,3.039c-0.444-0.179-0.76-0.611-0.76-1.12V6.75z M10.798,23.554
		c0,0.417-0.233,0.73-0.441,0.73H9.058c-0.208,0-0.441-0.313-0.441-0.73v-3.996c0-0.416,0.233-0.727,0.441-0.727h1.299
		c0.208,0,0.441,0.311,0.441,0.727V23.554z M11.798,19.819c0.019,0.006,0.037,0.012,0.055,0.017l-0.055,0.346V19.819z
		 M35.167,36.185h-22.31c-0.572,0-1.037-0.464-1.037-1.035l-0.006-8.774l1.076-6.698c0.042-0.073,0.073-0.154,0.073-0.245
		c0-0.033-0.013-0.062-0.019-0.093l0.537-3.346c0.203-0.88,0.546-1.239,1.183-1.239H33.44c0.373,0,0.898,0.128,1.135,1.204
		l0.539,3.435c-0.001,0.014-0.008,0.025-0.008,0.039c0,0.074,0.018,0.142,0.046,0.205l1.046,6.66l0.006,8.853
		C36.204,35.721,35.739,36.185,35.167,36.185z M36.194,19.843c0.003-0.001,0.007-0.002,0.01-0.003v0.064L36.194,19.843z
		 M39.386,23.554c0,0.417-0.232,0.73-0.441,0.73h-1.299c-0.207,0-0.441-0.313-0.441-0.73v-3.996c0-0.18,0.049-0.333,0.115-0.458
		c0.048-0.059,0.097-0.116,0.139-0.18c0.061-0.052,0.124-0.089,0.188-0.089h1.299c0.209,0,0.441,0.311,0.441,0.727V23.554z"/>
	<path fill="#414042" d="M28.269,29.737h-8.306c-0.276,0-0.5,0.224-0.5,0.5s0.224,0.5,0.5,0.5h8.306c0.277,0,0.5-0.224,0.5-0.5
		S28.546,29.737,28.269,29.737z"/>
	<path fill="#414042" d="M28.269,32.728h-8.306c-0.276,0-0.5,0.224-0.5,0.5s0.224,0.5,0.5,0.5h8.306c0.277,0,0.5-0.224,0.5-0.5
		S28.546,32.728,28.269,32.728z"/>
	<path fill="#414042" d="M32.421,29.288h-0.666c-0.582,0-1.057,0.476-1.057,1.059c0,0.581,0.475,1.055,1.057,1.055h0.666
		c0.584,0,1.057-0.474,1.057-1.055C33.478,29.764,33.005,29.288,32.421,29.288z"/>
	<path fill="#414042" d="M15.919,29.288h-0.666c-0.583,0-1.057,0.476-1.057,1.059c0,0.581,0.474,1.055,1.057,1.055h0.666
		c0.583,0,1.057-0.474,1.057-1.055C16.976,29.764,16.502,29.288,15.919,29.288z"/>
</g>
</svg>
