<?xml version="1.0" encoding="utf-8"?>
<!-- Generator: Adobe Illustrator 16.0.0, SVG Export Plug-In . SVG Version: 6.00 Build 0)  -->
<!DOCTYPE svg PUBLIC "-//W3C//DTD SVG 1.1//EN" "http://www.w3.org/Graphics/SVG/1.1/DTD/svg11.dtd">
<svg version="1.1" id="Layer_1" xmlns="http://www.w3.org/2000/svg" xmlns:xlink="http://www.w3.org/1999/xlink" x="0px" y="0px"
	 width="48px" height="48px" viewBox="0 0 48 48" enable-background="new 0 0 48 48" xml:space="preserve">
<g>
	<path fill="#414042" d="M39.924,13.364h-1.299c-0.724,0-1.319,0.644-1.421,1.478l-0.276-2.035
		c-0.109-0.489-0.274-0.864-0.468-1.157c0.802,0.016,1.288,0.026,1.308,0.026c0.004,0,0.008,0,0.012,0
		c0.131,0,0.256-0.052,0.35-0.143c0.096-0.094,0.15-0.223,0.15-0.357V6.258c0-0.259-0.197-0.475-0.455-0.498
		c-0.059-0.006-5.951-0.543-13.966-0.543H23.7c-8.015,0-13.754,0.537-13.812,0.543C9.632,5.785,9.436,6,9.436,6.258v4.918
		c0,0.134,0.054,0.263,0.15,0.357c0.097,0.094,0.222,0.141,0.36,0.143c0.018,0,0.437-0.009,1.118-0.022
		c-0.208,0.322-0.374,0.719-0.487,1.206l-0.125,1.092c-0.264-0.358-0.646-0.588-1.076-0.588H8.079c-0.795,0-1.441,0.774-1.441,1.726
		v3.996c0,0.955,0.646,1.731,1.441,1.731h1.299c0.102,0,0.202-0.014,0.298-0.038L9.534,22.02v11.463c0,0.07,0.014,0.137,0.021,0.205
		c-0.094-0.048-0.195-0.077-0.3-0.058c-0.162,0.025-0.302,0.131-0.372,0.279c-0.045,0.096-1.096,2.35-0.432,3.937
		c0.262,0.626,0.738,1.063,1.418,1.3c0.053,0.02,0.109,0.028,0.165,0.028h3.563v2.484c0,0.629,0.512,1.141,1.141,1.141h2.365
		c0.63,0,1.143-0.512,1.143-1.141v-2.484h11.39v2.484c0,0.629,0.51,1.141,1.139,1.141h2.367c0.629,0,1.141-0.512,1.141-1.141v-2.484
		h3.039c0.055,0,0.111-0.009,0.164-0.028c0.68-0.236,1.156-0.674,1.418-1.3c0.664-1.587-0.387-3.841-0.432-3.937
		c-0.06-0.126-0.174-0.21-0.306-0.251c0.006-0.06,0.019-0.116,0.019-0.177l-0.012-11.53l-0.18-1.318
		c0.192,0.113,0.405,0.183,0.633,0.183h1.299c0.795,0,1.441-0.776,1.441-1.731V15.09C41.365,14.138,40.719,13.364,39.924,13.364z
		 M9.377,19.817H8.079c-0.208,0-0.441-0.312-0.441-0.73V15.09c0-0.416,0.233-0.727,0.441-0.727h1.299
		c0.208,0,0.441,0.311,0.441,0.727v3.996C9.819,19.505,9.585,19.817,9.377,19.817z M17.245,41.659c0,0.077-0.063,0.141-0.143,0.141
		h-2.365c-0.077,0-0.141-0.063-0.141-0.141v-2.225h2.648V41.659z M33.281,41.659c0,0.076-0.064,0.141-0.141,0.141h-2.367
		c-0.076,0-0.139-0.063-0.139-0.141v-2.225h2.646V41.659z M37.178,22.02l0.006,11.463c0,0.629-0.527,1.141-1.174,1.141H11.706
		c-0.646,0-1.172-0.512-1.172-1.141l-0.003-11.406l1.03-9.046c0.227-0.961,0.612-1.354,1.332-1.354h21.771
		c0.422,0,1.016,0.139,1.279,1.307L37.178,22.02z M10.436,6.717c1.498-0.125,6.583-0.5,13.264-0.5h0.158
		c6.697,0,11.9,0.377,13.421,0.5v3.949c-1.84-0.037-8.277-0.158-13.302-0.158h-0.238c-5.024,0-11.463,0.121-13.303,0.158V6.717z
		 M37.98,37.461c-0.141,0.335-0.387,0.568-0.75,0.714H10.124c-0.364-0.145-0.609-0.378-0.75-0.712
		c-0.29-0.691-0.089-1.703,0.144-2.425L9.93,35.47c0.095,0.099,0.225,0.154,0.361,0.154h1.414H36.01h1.051
		c0.137,0,0.266-0.056,0.361-0.153l0.416-0.435C38.07,35.756,38.271,36.766,37.98,37.461z M40.365,19.086
		c0,0.418-0.234,0.73-0.441,0.73h-1.299c-0.209,0-0.441-0.312-0.441-0.73V15.09c0-0.416,0.232-0.727,0.441-0.727h1.299
		c0.207,0,0.441,0.311,0.441,0.727V19.086z"/>
	<path fill="#414042" d="M27.988,28.438h-8.304c-0.276,0-0.5,0.224-0.5,0.5s0.224,0.5,0.5,0.5h8.304c0.275,0,0.5-0.224,0.5-0.5
		S28.264,28.438,27.988,28.438z"/>
	<path fill="#414042" d="M27.988,25.265h-8.304c-0.276,0-0.5,0.224-0.5,0.5s0.224,0.5,0.5,0.5h8.304c0.275,0,0.5-0.224,0.5-0.5
		S28.264,25.265,27.988,25.265z"/>
	<path fill="#414042" d="M16.167,25.265h-2.713c-0.276,0-0.5,0.224-0.5,0.5s0.224,0.5,0.5,0.5h2.713c0.276,0,0.5-0.224,0.5-0.5
		S16.443,25.265,16.167,25.265z"/>
	<path fill="#414042" d="M34.287,25.265h-2.713c-0.277,0-0.5,0.224-0.5,0.5s0.223,0.5,0.5,0.5h2.713c0.275,0,0.5-0.224,0.5-0.5
		S34.563,25.265,34.287,25.265z"/>
	<path fill="#414042" d="M27.988,31.612h-8.304c-0.276,0-0.5,0.224-0.5,0.5s0.224,0.5,0.5,0.5h8.304c0.275,0,0.5-0.224,0.5-0.5
		S28.264,31.612,27.988,31.612z"/>
	<path fill="#414042" d="M34.041,29.819H31.82c-0.277,0-0.5,0.224-0.5,0.5v1.506c0,0.276,0.223,0.5,0.5,0.5h2.221
		c0.275,0,0.5-0.224,0.5-0.5v-1.506C34.541,30.043,34.316,29.819,34.041,29.819z M33.541,31.325H32.32v-0.506h1.221V31.325z"/>
	<path fill="#414042" d="M15.92,29.819H13.7c-0.276,0-0.5,0.224-0.5,0.5v1.506c0,0.276,0.224,0.5,0.5,0.5h2.221
		c0.276,0,0.5-0.224,0.5-0.5v-1.506C16.42,30.043,16.197,29.819,15.92,29.819z M15.42,31.325H14.2v-0.506h1.221V31.325z"/>
	<path fill="#414042" d="M13.999,22.231h7.355c0.762,0,1.381-0.62,1.381-1.381v-5.473c0-0.762-0.619-1.383-1.381-1.383h-6.475
		c-0.762,0-1.381,0.621-1.374,1.303l-0.89,5.552C12.616,21.611,13.236,22.231,13.999,22.231z M14.499,15.377
		c0-0.211,0.171-0.383,0.381-0.383h6.475c0.21,0,0.381,0.172,0.381,0.383v5.473c0,0.21-0.171,0.381-0.381,0.381h-7.355
		c-0.211,0-0.383-0.17-0.39-0.302L14.499,15.377z"/>
	<path fill="#414042" d="M32.93,13.995h-6.473c-0.762,0-1.381,0.621-1.381,1.383v5.473c0,0.761,0.619,1.381,1.381,1.381h7.355
		c0.762,0,1.381-0.62,1.373-1.46l-0.873-5.393C34.313,14.615,33.691,13.995,32.93,13.995z M33.813,21.231h-7.355
		c-0.211,0-0.381-0.17-0.381-0.381v-5.473c0-0.211,0.17-0.383,0.381-0.383h6.473c0.211,0,0.383,0.172,0.389,0.462l0.875,5.394
		C34.193,21.061,34.021,21.231,33.813,21.231z"/>
</g>
</svg>
