<?xml version="1.0" encoding="utf-8"?>
<!-- Generator: Adobe Illustrator 16.0.0, SVG Export Plug-In . SVG Version: 6.00 Build 0)  -->
<!DOCTYPE svg PUBLIC "-//W3C//DTD SVG 1.1//EN" "http://www.w3.org/Graphics/SVG/1.1/DTD/svg11.dtd">
<svg version="1.1" id="Layer_1" xmlns="http://www.w3.org/2000/svg" xmlns:xlink="http://www.w3.org/1999/xlink" x="0px" y="0px"
	 width="48px" height="48px" viewBox="0 0 48 48" enable-background="new 0 0 48 48" xml:space="preserve">
<g>
	<path fill="#414042" d="M33.157,18.108c0.676,0,1.047-0.313,1.236-0.574c0.625-0.854,0.184-2.32,0.146-2.432l-1.014-5.054
		c-0.5-3.26-2.807-3.437-2.865-3.437h-0.002c-0.082-0.015-2.072-0.365-5.271-0.365c-0.407,0-0.831,0.006-1.283,0.019
		c-3.937-0.11-6.457,0.33-6.482,0.338c-0.099,0.005-2.428,0.169-2.927,3.422l-1,5.023c-0.053,0.165-0.493,1.632,0.131,2.486
		c0.19,0.261,0.56,0.573,1.304,0.573c0.002,0,0.003,0,0.005,0l8.981-0.221l8.962,0.22C33.085,18.107,33.151,18.108,33.157,18.108z
		 M24.078,16.886l-9.016,0.222c-0.309,0-0.395-0.119-0.428-0.163c-0.258-0.352-0.102-1.226,0.028-1.647L15.68,10.2
		c0.375-2.443,1.937-2.593,2.058-2.604c0.02-0.004,1.991-0.349,5.095-0.349c0.396,0,0.812,0.006,1.312,0.018
		c3.822-0.112,6.312,0.325,6.394,0.337c0.066,0.005,1.625,0.155,2.004,2.62l1.031,5.129c0.115,0.369,0.271,1.242,0.014,1.594
		c-0.033,0.044-0.119,0.164-0.43,0.164v0.5l-0.049-0.501L24.078,16.886z"/>
	<path fill="#414042" d="M25.087,24.346c0-0.811-0.661-1.469-1.47-1.469c-0.811,0-1.47,0.658-1.47,1.469
		c0,0.809,0.659,1.469,1.47,1.469C24.426,25.814,25.087,25.154,25.087,24.346z M23.617,24.816c-0.259,0-0.47-0.211-0.47-0.471
		c0-0.259,0.211-0.469,0.47-0.469s0.469,0.21,0.469,0.469C24.085,24.605,23.875,24.816,23.617,24.816z"/>
	<path fill="#414042" d="M41.644,6.191h-2.561c-0.521,0-0.928,0.46-0.928,1.047v3.445c0,0.088,0.025,0.167,0.043,0.248l-0.902,1.434
		l-1.014-5.198c-0.598-2.953-3.143-3.406-3.225-3.418c-3.332-0.735-8.691-0.73-8.913-0.738h-0.169
		c-0.219,0.012-5.598,0.002-8.906,0.738c-0.112,0.024-2.744,0.619-3.228,3.422l-1.039,5.322L9.8,10.929
		c0.018-0.081,0.044-0.158,0.044-0.245V7.238c0-0.58-0.418-1.051-0.931-1.051H6.356c-0.513,0-0.931,0.471-0.927,1.11l0.403,3.387
		c0,0.578,0.418,1.049,0.931,1.049h2.15c0.066,0,0.125-0.028,0.187-0.042l1.426,2.224l-0.192,0.982
		c-0.03,0.105-0.734,2.602-0.328,5.331l1.428,9.874c0.002,0.057,0.245,5.517,6.048,5.777c0.003,0.041,0.003,0.079,0.006,0.12
		c0.014,0.154,0.099,0.293,0.229,0.377c0.06,0.038,1.089,0.663,2.871,1.053v4.543c0,1.674,1.361,3.035,3.034,3.035
		c1.676,0,3.04-1.361,3.04-3.035V37.38c1.029-0.22,2.067-0.539,3.109-0.964c0.17-0.068,0.287-0.224,0.309-0.404
		c0.002-0.014,0.007-0.063,0.013-0.129c5.954,0.012,6.587-5.69,6.589-5.726l1.436-9.928c0.406-2.73-0.301-5.229-0.32-5.29
		l-0.223-1.14l1.326-2.107c0.061,0.014,0.116,0.041,0.182,0.041h2.152c0.514,0,0.932-0.471,0.928-0.99l0.41-3.504
		C42.573,6.651,42.165,6.191,41.644,6.191z M6.356,7.187l2.488,0.051l-0.02,3.495l-1.973,0.029L6.356,7.187z M25.663,41.971
		c0,1.122-0.917,2.035-2.04,2.035c-1.122,0-2.034-0.913-2.034-2.035v-4.37c0.565,0.077,1.169,0.134,1.844,0.134c0,0,0,0,0.001,0
		c0.734,0,1.479-0.076,2.229-0.188V41.971z M29.11,35.604c-1.928,0.75-3.836,1.131-5.676,1.131c-0.001,0-0.001,0-0.001,0
		c-2.623,0-4.388-0.785-4.97-1.088c-0.19-2.629,0.327-4.633,1.541-5.96c1.534-1.677,3.682-1.696,3.736-1.698
		c1.663,0.146,2.961,0.781,3.864,1.89C29.183,31.814,29.163,34.688,29.11,35.604z M19.305,28.976l1.312-8.255h5.845l1.49,8.102
		c-1.046-1.048-2.42-1.68-4.175-1.832C23.506,26.99,21.099,27.051,19.305,28.976z M37.128,20.085l-1.438,9.954
		c-0.02,0.201-0.519,4.84-5.561,4.845c-0.008-1.017-0.147-2.572-0.789-4.043V30.84l-1.971-10.71
		c-0.045-0.237-0.252-0.409-0.492-0.409H20.19c-0.246,0-0.455,0.179-0.494,0.421L17.973,30.98c-0.01,0.062-0.004,0.121,0.007,0.179
		c-0.392,1.063-0.578,2.303-0.553,3.717c-4.769-0.278-4.987-4.616-4.999-4.861l-1.434-9.933c-0.373-2.509,0.293-4.886,0.31-4.951
		l1.521-7.778c0.368-2.138,2.37-2.607,2.457-2.626c3.184-0.709,8.58-0.715,8.691-0.715h0.001h0.171c0.052,0.006,5.455,0,8.72,0.719
		c0.08,0.015,1.979,0.375,2.436,2.632l1.525,7.81C36.833,15.197,37.503,17.574,37.128,20.085z M41.171,10.625
		c-0.002,0.013-0.014,0.068-0.02,0.105l-1.996-0.047l-0.072-3.492l2.494-0.012L41.171,10.625z"/>
	<path fill="#414042" d="M34.308,19.936h-0.584c-0.441,0-0.801,0.359-0.801,0.8c0,0.44,0.359,0.799,0.801,0.799h0.584
		c0.441,0,0.801-0.359,0.801-0.799C35.108,20.294,34.749,19.936,34.308,19.936z"/>
	<path fill="#414042" d="M14.288,19.936h-0.585c-0.441,0-0.8,0.359-0.8,0.8c0,0.44,0.358,0.799,0.8,0.799h0.585
		c0.441,0,0.8-0.359,0.8-0.799C15.087,20.294,14.729,19.936,14.288,19.936z"/>
</g>
</svg>
