<?xml version="1.0" encoding="utf-8"?>
<!-- Generator: Adobe Illustrator 16.0.0, SVG Export Plug-In . SVG Version: 6.00 Build 0)  -->
<!DOCTYPE svg PUBLIC "-//W3C//DTD SVG 1.1//EN" "http://www.w3.org/Graphics/SVG/1.1/DTD/svg11.dtd">
<svg version="1.1" id="Layer_1" xmlns="http://www.w3.org/2000/svg" xmlns:xlink="http://www.w3.org/1999/xlink" x="0px" y="0px"
	 width="48px" height="48px" viewBox="0 0 48 48" enable-background="new 0 0 48 48" xml:space="preserve">
<g>
	<path fill="#414042" d="M37.268,22.108c-0.797,0-1.445,0.648-1.445,1.445c0,0.796,0.648,1.443,1.445,1.443
		c0.795,0,1.443-0.647,1.443-1.443C38.711,22.757,38.063,22.108,37.268,22.108z M37.268,23.997c-0.244,0-0.445-0.199-0.445-0.443
		c0-0.246,0.201-0.445,0.445-0.445s0.443,0.2,0.443,0.445C37.711,23.798,37.512,23.997,37.268,23.997z"/>
	<path fill="#414042" d="M10.849,22.108c-0.797,0-1.445,0.648-1.445,1.445c0,0.796,0.648,1.443,1.445,1.443
		c0.796,0,1.443-0.647,1.443-1.443C12.292,22.757,11.645,22.108,10.849,22.108z M10.849,23.997c-0.245,0-0.445-0.199-0.445-0.443
		c0-0.246,0.2-0.445,0.445-0.445c0.244,0,0.443,0.2,0.443,0.445C11.292,23.798,11.093,23.997,10.849,23.997z"/>
	<path fill="#414042" d="M31.982,15.691c-1.52-2.387-3.369-2.178-3.482-2.153h-9.031c-0.076,0-1.887,0.026-3.535,2.28l-1.387,1.924
		c-0.138,0.19-0.124,0.451,0.032,0.625l0.176,0.198c0.111,0.125,0.277,0.188,0.442,0.162c1.135-0.159,4.244-0.53,8.596-0.53
		c3.062,0,6.123,0.186,9.095,0.552c0.02,0.003,0.041,0.004,0.061,0.004c0.141,0,0.275-0.059,0.371-0.165l0.137-0.15
		c0.156-0.174,0.172-0.434,0.035-0.625L31.982,15.691z M23.793,17.197c-3.633,0-6.418,0.255-7.936,0.437l0.885-1.228
		c1.329-1.816,2.675-1.867,2.727-1.868l9.146-0.007c0.014-0.002,0.055-0.006,0.119-0.006c0.396,0,1.426,0.166,2.42,1.726l1,1.406
		C29.412,17.352,26.604,17.197,23.793,17.197z"/>
	<path fill="#414042" d="M32.654,23.054H15.168c-0.152,0-0.296,0.069-0.392,0.188c-0.095,0.119-0.13,0.275-0.096,0.424l0.89,3.863
		c0.016,0.097,0.403,2.374,2.499,2.852c0.037,0.009,0.074,0.013,0.111,0.013h11.458c0.037,0,0.074-0.004,0.111-0.013
		c2.098-0.478,2.486-2.755,2.494-2.818l0.896-3.896c0.035-0.148,0-0.305-0.096-0.424S32.807,23.054,32.654,23.054z M29.58,29.394
		h-5.614h-5.726c-1.388-0.354-1.671-1.955-1.688-2.056l-0.026-0.114h14.628c0.053,0,0.102-0.015,0.15-0.03l-0.041,0.178
		C31.262,27.388,30.982,29.036,29.58,29.394z M31.495,26.361c-0.089-0.084-0.208-0.138-0.341-0.138H16.296l-0.5-2.17h16.229
		L31.495,26.361z"/>
	<path fill="#414042" d="M43.811,13.895c-0.002,0-0.006,0-0.008,0l-3.123,0.374c-0.564,0-1.006,0.394-1.006,0.896v2.213
		c0,0.03,0.016,0.055,0.019,0.083l-1.067,0.672l-0.178-0.106l-3.75-5.541c-0.043-0.066-1.086-1.616-3.873-1.854l-6.81-0.215
		c-0.029-0.003-0.06-0.003-0.089,0l-6.824,0.217c-2.76,0.237-3.805,1.787-3.847,1.852l-3.634,5.49l-0.254,0.151l-1.056-0.665
		c0.003-0.029,0.019-0.054,0.019-0.084v-2.213c0-0.5-0.438-0.893-0.941-0.893c-0.002,0-0.005,0-0.007,0l-3.24-0.381
		c-0.555,0-1.006,0.401-1.006,0.895v2.592c0,0.496,0.451,0.898,1.006,0.898h3.182c0.111,0,0.214-0.027,0.314-0.057l0.765,0.482
		l-0.193,0.115c-0.092,0.04-2.248,1.003-2.836,2.938c-0.442,1.458-0.381,3.456-0.332,5.062c0.013,0.39,0.023,0.759,0.029,1.135
		c0.123,1.382,0.779,3.65,2.362,4.795v3.56c0,0.715,0.581,1.297,1.296,1.297h3.334c0.715,0,1.297-0.582,1.297-1.297v-2.85h21.111
		v2.85c0,0.715,0.58,1.297,1.295,1.297H39.1c0.715,0,1.297-0.582,1.297-1.297v-3.469c1.675-1.114,2.36-3.478,2.488-4.925
		c0.002-0.339,0.014-0.709,0.025-1.099c0.049-1.604,0.109-3.602-0.332-5.059c-0.512-1.689-2.213-2.635-2.686-2.865l-0.304-0.181
		l0.777-0.489c0.101,0.03,0.202,0.057,0.313,0.057h3.182c0.555,0,1.006-0.403,1.006-0.898v-2.592
		C44.867,14.295,44.42,13.895,43.811,13.895z M4.135,17.267v-2.372l3.129,0.371c0.011,0.001,0.04,0.006,0.065,0.009v2.002
		c-0.002,0-0.005,0-0.007,0L4.135,17.267z M12.36,36.306c0,0.164-0.133,0.297-0.297,0.297H8.729c-0.163,0-0.296-0.133-0.296-0.297
		v-3.044c0.369,0.121,0.77,0.194,1.214,0.194h2.713V36.306z M39.396,36.306c0,0.164-0.133,0.297-0.297,0.297h-3.334
		c-0.166,0-0.295-0.131-0.295-0.297v-2.85h2.836c0.394,0,0.756-0.056,1.09-0.152V36.306z M41.621,22.045
		c0.395,1.301,0.336,3.206,0.291,4.738c-0.014,0.397-0.023,0.774-0.025,1.079c-0.004,0.046-0.455,4.594-3.58,4.594H23.985H9.647
		c-3.127,0-3.576-4.547-3.578-4.555c-0.004-0.344-0.016-0.72-0.027-1.115c-0.047-1.533-0.105-3.44,0.289-4.741
		c0.452-1.489,2.263-2.305,2.334-2.34l0.744-0.441c0.02,0.002,0.038,0.017,0.057,0.017c0.166,0,0.328-0.083,0.423-0.233
		c0.018-0.027,0.022-0.059,0.033-0.088l0.308-0.182c0.065-0.039,0.12-0.091,0.162-0.154l3.698-5.588
		c0.009-0.012,0.853-1.211,3.07-1.403l6.8-0.216l6.806,0.215c2.246,0.193,3.064,1.359,3.1,1.411l3.816,5.639
		c0.041,0.061,0.094,0.111,0.158,0.149l0.246,0.147c0.011,0.023,0.014,0.049,0.027,0.071c0.096,0.151,0.258,0.233,0.424,0.233
		c0.014,0,0.026-0.011,0.041-0.012l0.838,0.5C39.713,19.914,41.215,20.709,41.621,22.045z M43.867,17.276c-0.002,0-0.004,0-0.006,0
		l-3.188-0.01v-1.993c0.029-0.004,0.064-0.008,0.064-0.008l3.129-0.358V17.276z"/>
</g>
</svg>
