<?xml version="1.0" encoding="utf-8"?>
<!-- Generator: Adobe Illustrator 16.0.0, SVG Export Plug-In . SVG Version: 6.00 Build 0)  -->
<!DOCTYPE svg PUBLIC "-//W3C//DTD SVG 1.1//EN" "http://www.w3.org/Graphics/SVG/1.1/DTD/svg11.dtd">
<svg version="1.1" id="Layer_1" xmlns="http://www.w3.org/2000/svg" xmlns:xlink="http://www.w3.org/1999/xlink" x="0px" y="0px"
	 width="48px" height="48px" viewBox="0 0 48 48" enable-background="new 0 0 48 48" xml:space="preserve">
<g>
	<path fill="#414042" d="M36.681,25.729c-0.773,0-1.402,0.63-1.402,1.404c0,0.773,0.629,1.402,1.402,1.402s1.402-0.629,1.402-1.402
		C38.083,26.359,37.454,25.729,36.681,25.729z M36.681,27.536c-0.221,0-0.402-0.181-0.402-0.402c0-0.224,0.182-0.404,0.402-0.404
		c0.223,0,0.402,0.181,0.402,0.404C37.083,27.355,36.903,27.536,36.681,27.536z"/>
	<path fill="#414042" d="M11.429,25.729c-0.773,0-1.402,0.63-1.402,1.404c0,0.773,0.629,1.402,1.402,1.402s1.402-0.629,1.402-1.402
		C12.832,26.359,12.203,25.729,11.429,25.729z M11.429,27.536c-0.222,0-0.402-0.181-0.402-0.402c0-0.224,0.181-0.404,0.402-0.404
		s0.402,0.181,0.402,0.404C11.832,27.355,11.651,27.536,11.429,27.536z"/>
	<path fill="#414042" d="M28.927,18.518c-0.352,0-0.596,0.021-0.602,0.023l-9.775-0.014c-1.103,0-3.251,0.506-3.487,2.424
		l-0.209,1.853c-0.016,0.143,0.03,0.286,0.127,0.393l0.17,0.188c0.11,0.122,0.278,0.183,0.439,0.16
		c1.082-0.152,4.047-0.506,8.207-0.506c2.93,0,5.856,0.178,8.698,0.528c0.02,0.002,0.041,0.004,0.061,0.004
		c0.143,0,0.277-0.061,0.373-0.167l0.129-0.145c0.104-0.115,0.146-0.271,0.119-0.423l-0.418-2.286
		C32.476,19.24,31.114,18.518,28.927,18.518z M23.797,22.039c-3.748,0-6.549,0.284-7.901,0.456l0.16-1.425
		c0.187-1.515,2.472-1.541,2.493-1.541l5.458,0.013l4.373-0.003c0.012-0.001,0.227-0.021,0.547-0.021
		c0.777,0,2.613,0.122,2.852,1.229l0.322,1.765C29.382,22.198,26.591,22.039,23.797,22.039z"/>
	<path fill="#414042" d="M32.271,26.634H15.56c-0.152,0-0.296,0.069-0.391,0.188c-0.096,0.119-0.131,0.275-0.097,0.424l0.849,3.693
		c0.016,0.093,0.388,2.284,2.407,2.742c0.036,0.008,0.073,0.013,0.11,0.013H29.39c0.037,0,0.074-0.005,0.111-0.013
		c2.021-0.458,2.395-2.648,2.404-2.709l0.854-3.727c0.033-0.148-0.002-0.305-0.098-0.424C32.567,26.703,32.423,26.634,32.271,26.634
		z M29.331,32.694h-5.363h-5.47c-1.311-0.335-1.579-1.851-1.596-1.946l-0.019-0.083h13.955c0.042,0,0.079-0.014,0.117-0.023
		l-0.031,0.138C30.913,30.844,30.644,32.359,29.331,32.694z M31.152,29.784c-0.086-0.071-0.192-0.119-0.313-0.119H16.654
		l-0.466-2.031h15.456L31.152,29.784z"/>
	<path fill="#414042" d="M42.935,17.882c-0.002,0-0.004,0-0.008,0l-2.982,0.357c-0.079,0-0.149,0.024-0.223,0.04V9.891
		c0-1.356-1.104-2.459-2.459-2.459H10.74c-1.355,0-2.459,1.103-2.459,2.459v8.382c-0.052-0.009-0.102-0.031-0.155-0.031
		c-0.003,0-0.005,0-0.007,0l-3.1-0.363c-0.543,0-0.984,0.394-0.984,0.877v2.477c0,0.485,0.441,0.88,0.984,0.88H8.06
		c0.078,0,0.148-0.024,0.221-0.04v0.265c0,0.188,0.108,0.345,0.261,0.431c-0.636,0.353-1.936,1.223-2.366,2.639
		c-0.425,1.402-0.365,3.32-0.317,4.861c0.012,0.365,0.022,0.714,0.028,1.07c0.117,1.322,0.744,3.491,2.256,4.592v3.394
		c0,0.694,0.566,1.26,1.262,1.26h3.188c0.694,0,1.26-0.565,1.26-1.26v-2.703h20.136v2.703c0,0.694,0.566,1.26,1.26,1.26h3.186
		c0.695,0,1.262-0.565,1.262-1.26V36.02c1.601-1.073,2.255-3.333,2.377-4.719c0.004-0.322,0.016-0.674,0.025-1.045
		c0.047-1.537,0.105-3.449-0.318-4.848c-0.384-1.265-1.454-2.088-2.123-2.496c0.039-0.071,0.066-0.149,0.066-0.236v-0.603
		c0.073,0.016,0.144,0.041,0.223,0.041h3.041c0.543,0,0.982-0.396,0.982-0.88v-2.477C43.968,18.275,43.532,17.882,42.935,17.882z
		 M10.74,8.432h26.523c0.805,0,1.459,0.655,1.459,1.459v11.572l-0.742,0.467l-0.084-0.05l-1.586-5.19
		c-0.012-0.044-0.198-0.628-0.817-1.146c0.108-0.014,0.212-0.055,0.29-0.131c0.096-0.094,0.148-0.223,0.148-0.357v-3.51
		c0-0.261-0.199-0.478-0.459-0.499c-0.049-0.004-4.881-0.388-11.455-0.388h-0.131c-6.571,0-11.277,0.385-11.324,0.389
		c-0.26,0.021-0.459,0.237-0.459,0.498v3.51c0,0.134,0.054,0.263,0.149,0.357c0.036,0.035,0.083,0.057,0.128,0.079
		c-0.656,0.545-0.737,1.19-0.733,1.191l-1.48,5.149l-0.156,0.093l-0.731-0.46V9.891C9.281,9.087,9.935,8.432,10.74,8.432z
		 M34.931,14.546c-1.619-0.028-6.773-0.11-10.816-0.11h-0.195c-4.041,0-9.197,0.082-10.816,0.11v-2.537
		c1.329-0.095,5.432-0.35,10.783-0.35h0.131c5.369,0,9.564,0.258,10.914,0.352V14.546z M5.035,18.884l3.01,0.354v1.875l-3.01-0.006
		V18.884z M12.851,39.325c0,0.144-0.116,0.26-0.26,0.26H9.404c-0.145,0-0.262-0.116-0.262-0.26v-2.88
		c0.347,0.111,0.724,0.177,1.139,0.177h2.57V39.325z M38.694,39.325c0,0.144-0.117,0.26-0.262,0.26h-3.186
		c-0.145,0-0.26-0.114-0.26-0.26v-2.703h2.688c0.368,0,0.706-0.052,1.02-0.141V39.325z M40.821,25.699
		c0.377,1.24,0.32,3.063,0.277,4.526c-0.012,0.378-0.023,0.737-0.025,1.026c-0.004,0.043-0.424,4.37-3.398,4.37H23.986H10.281
		c-2.969,0-3.395-4.327-3.396-4.332c-0.004-0.324-0.015-0.679-0.026-1.052c-0.046-1.469-0.103-3.295,0.274-4.539
		c0.429-1.412,2.15-2.189,2.222-2.224l0.7-0.416c0.018,0.002,0.035,0.015,0.053,0.015c0.166,0,0.328-0.083,0.423-0.233
		c0.017-0.026,0.021-0.056,0.032-0.083l0.287-0.17c0.109-0.065,0.19-0.168,0.226-0.292l1.55-5.408
		c0.008-0.047,0.206-1.142,2.328-1.142c0.146,0,0.3,0.005,0.508,0.018l8.505-0.208l8.582,0.207c2.322-0.168,2.785,1.144,2.803,1.204
		l1.646,5.389c0.037,0.119,0.115,0.22,0.223,0.283l0.229,0.137c0.01,0.021,0.013,0.045,0.025,0.065
		c0.094,0.151,0.256,0.234,0.422,0.234c0.013,0,0.024-0.01,0.037-0.011l0.797,0.476C39.009,23.677,40.437,24.431,40.821,25.699z
		 M42.968,21.114l-3.01-0.006v-1.885c0.008,0.009,0.021,0.013,0.045,0.013l2.965-0.343V21.114z"/>
</g>
</svg>
