<?xml version="1.0" encoding="utf-8"?>
<!-- Generator: Adobe Illustrator 16.0.0, SVG Export Plug-In . SVG Version: 6.00 Build 0)  -->
<!DOCTYPE svg PUBLIC "-//W3C//DTD SVG 1.1//EN" "http://www.w3.org/Graphics/SVG/1.1/DTD/svg11.dtd">
<svg version="1.1" id="Layer_1" xmlns="http://www.w3.org/2000/svg" xmlns:xlink="http://www.w3.org/1999/xlink" x="0px" y="0px"
	 width="48px" height="48px" viewBox="0 0 48 48" enable-background="new 0 0 48 48" xml:space="preserve">
<g>
	<circle fill="#414042" cx="32.224" cy="25.43" r="1.058"/>
	<circle fill="#414042" cx="15.783" cy="25.43" r="1.058"/>
	<path fill="#414042" d="M36.851,29.361c-0.005-0.018-0.017-0.03-0.022-0.047c0.016-0.04,0.031-0.081,0.036-0.125l1.428-13.147
		c0.004-0.049,0.002-0.099-0.006-0.148l-1.428-7.538c-0.496-2.626-3.287-3.275-3.412-3.303c-2.246-0.476-4.444-0.74-6.875-0.837
		c-0.404-1.008-1.386-1.724-2.537-1.724c-1.159,0-2.146,0.727-2.545,1.746c-4.346,0.208-7.064,0.79-7.188,0.817
		c-2.635,0.617-3.004,3.217-3.012,3.291l-1.57,7.539c-0.011,0.052-0.014,0.104-0.008,0.157l1.43,13.147
		c0.004,0.04,0.019,0.076,0.033,0.113c-0.009,0.022-0.024,0.04-0.03,0.063l-0.949,3.91c-0.062,0.257,0.086,0.517,0.337,0.595
		l12.963,4.047c0.049,0.016,0.1,0.023,0.149,0.023s0.099-0.008,0.146-0.021l13.675-4.188c0.256-0.078,0.404-0.343,0.338-0.602
		L36.851,29.361z M24.035,3.492c0.956,0,1.736,0.779,1.736,1.738c0,0.957-0.78,1.734-1.736,1.734c-0.958,0-1.738-0.778-1.738-1.734
		C22.296,4.271,23.077,3.492,24.035,3.492z M12.274,8.516c0.012-0.083,0.305-2.03,2.248-2.484c0.027-0.006,2.653-0.567,6.776-0.782
		c0.011,1.499,1.233,2.716,2.736,2.716c1.509,0,2.736-1.227,2.736-2.735c0-0.001,0-0.002,0-0.003
		c2.277,0.103,4.354,0.356,6.463,0.803c0.092,0.022,2.27,0.541,2.643,2.512l1.414,7.465l-0.27,2.478
		c-7.856,0.244-11.512,6.676-12.744,9.526c-3.332-8.64-11.466-9.412-13.288-9.473l-0.275-2.526L12.274,8.516z M11.098,19.539
		c1.983,0.069,9.918,0.912,12.675,10.089c0.063,0.212,0.258,0.356,0.479,0.356c0.207,0.019,0.418-0.146,0.48-0.359
		c0.119-0.408,2.974-9.775,12.181-10.145l-1,9.204l-11.878,1.377l-11.942-1.377L11.098,19.539z M23.645,36.918l-12.367-3.861
		l0.817-3.366l11.882,1.37c0.02,0.003,0.038,0.004,0.058,0.004s0.038-0.001,0.058-0.004l11.811-1.369l0.814,3.224L23.645,36.918z"/>
	<path fill="#414042" d="M15.48,38.007c-0.24-0.132-0.546-0.046-0.679,0.198l-3.609,6.58c-0.133,0.242-0.044,0.546,0.198,0.679
		c0.076,0.042,0.158,0.062,0.24,0.062c0.176,0,0.348-0.094,0.438-0.26l3.609-6.58C15.811,38.443,15.722,38.14,15.48,38.007z"/>
	<path fill="#414042" d="M33.222,38.202c-0.135-0.243-0.441-0.327-0.68-0.194c-0.242,0.135-0.328,0.439-0.193,0.681l3.662,6.58
		c0.09,0.164,0.262,0.257,0.436,0.257c0.084,0,0.166-0.02,0.244-0.063c0.24-0.135,0.328-0.439,0.193-0.681L33.222,38.202z"/>
	<path fill="#414042" d="M14.964,16.937h6.051c0.865,0,1.568-0.702,1.568-1.564v-4.541c0-0.863-0.703-1.564-1.568-1.564h-4.502
		c-1.318,0-2.003,0.215-2.331,1.481L13.4,15.373C13.4,16.235,14.102,16.937,14.964,16.937z M15.159,10.958
		c0.139-0.53,0.181-0.69,1.354-0.69h4.502c0.313,0,0.568,0.252,0.568,0.564v4.541c0,0.311-0.255,0.564-0.568,0.564h-6.051
		c-0.312,0-0.564-0.254-0.571-0.48L15.159,10.958z"/>
	<path fill="#414042" d="M26.999,16.959h6.088c0.867,0,1.572-0.706,1.566-1.655l-0.787-4.615c-0.326-1.228-1.014-1.444-2.336-1.444
		h-4.531c-0.867,0-1.572,0.706-1.572,1.573v4.57C25.427,16.253,26.132,16.959,26.999,16.959z M26.427,10.818
		c0-0.316,0.258-0.573,0.572-0.573h4.531c1.184,0,1.227,0.163,1.359,0.656l0.77,4.487c0,0.314-0.256,0.57-0.572,0.57h-6.088
		c-0.314,0-0.572-0.256-0.572-0.57V10.818z"/>
</g>
</svg>
