<?xml version="1.0" encoding="utf-8"?>
<!-- Generator: Adobe Illustrator 16.0.0, SVG Export Plug-In . SVG Version: 6.00 Build 0)  -->
<!DOCTYPE svg PUBLIC "-//W3C//DTD SVG 1.1//EN" "http://www.w3.org/Graphics/SVG/1.1/DTD/svg11.dtd">
<svg version="1.1" id="Layer_1" xmlns="http://www.w3.org/2000/svg" xmlns:xlink="http://www.w3.org/1999/xlink" x="0px" y="0px"
	 width="48px" height="48px" viewBox="0 0 48 48" enable-background="new 0 0 48 48" xml:space="preserve">
<g>
	<path fill="#414042" d="M16.99,26.823h14.001c1.104,0,2-0.897,1.998-2.051l-0.998-9.448c0-1.104-0.896-2-2-2H17.99
		c-1.103,0-2,0.896-1.997,1.947l-1.003,9.553C14.99,25.926,15.887,26.823,16.99,26.823z M16.99,15.325c0-0.551,0.448-1,1-1h12.001
		c0.553,0,1,0.448,1.004,1.052l0.996,9.448c0,0.55-0.447,0.998-1,0.998H16.99c-0.552,0-1-0.448-1.003-0.947L16.99,15.325z"/>
	<path fill="#414042" d="M16.798,28.899h-1.258c-0.599,0-1.086,0.487-1.086,1.088c0,0.599,0.487,1.086,1.086,1.086h1.258
		c0.6,0,1.088-0.487,1.088-1.086C17.886,29.387,17.398,28.899,16.798,28.899z M16.798,30.073h-1.258
		c-0.048,0-0.086-0.038-0.086-0.086s0.038-0.088,0.086-0.088h1.258c0.049,0,0.088,0.04,0.088,0.088S16.847,30.073,16.798,30.073z"/>
	<path fill="#414042" d="M32.464,28.899h-1.258c-0.598,0-1.086,0.487-1.086,1.088c0,0.599,0.488,1.086,1.086,1.086h1.258
		c0.6,0,1.088-0.487,1.088-1.086C33.552,29.387,33.063,28.899,32.464,28.899z M32.464,30.073h-1.258
		c-0.047,0-0.086-0.038-0.086-0.086s0.039-0.088,0.086-0.088h1.258c0.049,0,0.088,0.04,0.088,0.088S32.513,30.073,32.464,30.073z"/>
	<path fill="#414042" d="M22.748,11.665h2.513c0.922,0,1.67-0.75,1.67-1.672c0-0.922-0.748-1.672-1.67-1.672h-2.513
		c-0.922,0-1.672,0.75-1.672,1.672C21.076,10.915,21.826,11.665,22.748,11.665z M22.748,9.321h2.513c0.369,0,0.67,0.3,0.67,0.671
		c0,0.37-0.301,0.672-0.67,0.672h-2.513c-0.37,0-0.672-0.302-0.672-0.672C22.076,9.622,22.377,9.321,22.748,9.321z"/>
	<path fill="#414042" d="M32.929,34.331c-0.01-0.018-0.025-0.027-0.036-0.043h1.733c1.723,0,3.125-1.401,3.121-3.184l-2.621-22.12
		c0-1.723-1.402-3.125-3.125-3.125H16.005c-1.723,0-3.125,1.402-3.121,3.066l-2.629,22.237c0,1.724,1.402,3.125,3.125,3.125h1.708
		c-0.012,0.016-0.028,0.026-0.038,0.044l-3.895,7.084c-0.133,0.242-0.044,0.547,0.197,0.68c0.077,0.041,0.159,0.062,0.241,0.062
		c0.176,0,0.347-0.094,0.438-0.259l3.895-7.084c0.095-0.173,0.073-0.375-0.033-0.526h16.192c-0.106,0.151-0.128,0.354-0.033,0.527
		l3.92,7.084c0.092,0.165,0.262,0.258,0.438,0.258c0.082,0,0.166-0.021,0.242-0.063c0.242-0.134,0.33-0.438,0.195-0.68
		L32.929,34.331z M11.251,31.222L13.88,8.985c0-1.172,0.953-2.125,2.125-2.125h15.996c1.172,0,2.125,0.953,2.129,2.183l2.621,22.12
		c0,1.172-0.953,2.125-2.125,2.125H13.38C12.208,33.288,11.255,32.335,11.251,31.222z"/>
</g>
</svg>
