<?xml version="1.0" encoding="utf-8"?>
<!-- Generator: Adobe Illustrator 16.0.0, SVG Export Plug-In . SVG Version: 6.00 Build 0)  -->
<!DOCTYPE svg PUBLIC "-//W3C//DTD SVG 1.1//EN" "http://www.w3.org/Graphics/SVG/1.1/DTD/svg11.dtd">
<svg version="1.1" id="Layer_1" xmlns="http://www.w3.org/2000/svg" xmlns:xlink="http://www.w3.org/1999/xlink" x="0px" y="0px"
	 width="48px" height="48px" viewBox="0 0 48 48" enable-background="new 0 0 48 48" xml:space="preserve">
<g>
	<path fill="#414042" d="M44.58,9.135c-0.004-0.139-0.066-0.271-0.172-0.362c-0.104-0.092-0.242-0.136-0.381-0.122l-19.431,2.033
		V9.711c0-0.276-0.224-0.5-0.5-0.5s-0.5,0.224-0.5,0.5v1.18L4.499,5.46C4.356,5.419,4.202,5.444,4.08,5.527S3.878,5.745,3.864,5.892
		l-0.588,6.1c-0.014,0.144,0.035,0.286,0.134,0.391c0.095,0.1,0.227,0.157,0.364,0.157c0.006,0,0.011,0,0.017,0l19.738-0.652
		c0.024-0.001,0.044-0.011,0.067-0.015v2.071h-1.521c-0.063,0.003-1.574-0.015-2.706,1.121c-0.707,0.708-1.077,1.702-1.141,2.93
		h-0.291c-0.117,0-2.904,0.034-5.217,2.981l-0.536,0.674c-0.177,0.291-4.306,7.194-1.771,11.7c0.976,1.733,2.802,2.842,5.423,3.33
		c-0.793,0.364-1.586,0.912-2.153,1.749c-1.137,1.679-2.163,2.778-2.525,3.147H9.778c-0.276,0-0.5,0.224-0.5,0.5s0.224,0.5,0.5,0.5
		h1.588c0.128,0,0.252-0.049,0.345-0.138c0.054-0.051,1.325-1.269,2.802-3.449c1.296-1.914,4.269-2.019,4.298-2.019
		c0.017,0,0.031-0.009,0.047-0.011c0.124,0.002,0.237,0.013,0.364,0.013l9.837-0.002c0.068,0,0.129-0.006,0.197-0.007
		c0.01,0.001,0.019,0.007,0.029,0.007c0.029,0,3.004,0.104,4.301,2.018c1.473,2.181,2.746,3.4,2.799,3.451
		c0.094,0.088,0.217,0.137,0.346,0.137h1.588c0.275,0,0.5-0.224,0.5-0.5s-0.225-0.5-0.5-0.5h-1.383
		c-0.361-0.369-1.389-1.469-2.521-3.147c-0.544-0.803-1.298-1.34-2.059-1.704c2.897-0.474,4.866-1.636,5.869-3.477
		c2.459-4.516-1.879-11.323-2.094-11.651l-0.494-0.618c-2.316-2.95-5.104-2.984-5.221-2.984h-0.298
		c-0.084-1.244-0.472-2.247-1.192-2.956c-1.123-1.106-2.588-1.097-2.639-1.094h-1.691v-2.249l19.55,3.242
		c0.027,0.004,0.055,0.006,0.082,0.006c0.119,0,0.236-0.043,0.328-0.123c0.113-0.097,0.176-0.241,0.172-0.39L44.58,9.135z
		 M4.327,11.521l0.476-4.936l15.497,4.409L4.327,11.521z M34.854,21.6l0.467,0.58c0.041,0.065,4.203,6.59,2.025,10.589
		c-1.156,2.125-3.943,3.201-8.293,3.201l-9.832,0.002c-4.103,0-6.772-1.048-7.936-3.112C9.036,28.865,13,22.235,13.001,22.222
		l0.502-0.625c2.011-2.562,4.337-2.601,4.435-2.602h12.478C30.514,18.996,32.84,19.035,34.854,21.6z M26.291,14.944c0,0,0,0,0.002,0
		c0.021,0,1.129,0.008,1.941,0.815c0.521,0.521,0.811,1.28,0.887,2.235h-9.896c0.059-0.944,0.332-1.697,0.844-2.216
		c0.839-0.849,1.987-0.837,1.998-0.835h1.932h0.354H26.291z M28.326,11.3l15.27-1.598l0.115,4.149L28.326,11.3z"/>
	<path fill="#414042" d="M16.537,23.235l-0.789,3c-0.011,0.041-0.017,0.084-0.017,0.127c0,0.973,0.791,1.764,1.764,1.764h13.664
		c0.557,0,1.068-0.229,1.371-0.613c0.27-0.343,0.355-0.783,0.24-1.264l-0.912-3.116c-0.406-0.987-1.201-1.532-2.24-1.532H18.756
		C17.891,21.6,16.82,22.172,16.537,23.235z M30.914,23.461l0.889,3.045c0.039,0.159,0.02,0.286-0.061,0.387
		c-0.111,0.143-0.336,0.231-0.584,0.231h-6.316V22.6h4.775C30.24,22.6,30.684,22.907,30.914,23.461z M18.756,22.6h5.086v4.525
		h-6.348c-0.402,0-0.732-0.313-0.762-0.707l0.771-2.927C17.65,22.941,18.268,22.6,18.756,22.6z"/>
</g>
</svg>
