<?xml version="1.0" encoding="utf-8"?>
<!-- Generator: Adobe Illustrator 16.0.0, SVG Export Plug-In . SVG Version: 6.00 Build 0)  -->
<!DOCTYPE svg PUBLIC "-//W3C//DTD SVG 1.1//EN" "http://www.w3.org/Graphics/SVG/1.1/DTD/svg11.dtd">
<svg version="1.1" id="Layer_1" xmlns="http://www.w3.org/2000/svg" xmlns:xlink="http://www.w3.org/1999/xlink" x="0px" y="0px"
	 width="48px" height="48px" viewBox="0 0 48 48" enable-background="new 0 0 48 48" xml:space="preserve">
<g>
	<path fill="#414042" d="M13.619,36.075c-0.018,0.276,0.192,0.514,0.468,0.531c0.292,0.018,0.513-0.193,0.53-0.469
		c0.354-5.652-3.392-9.696-3.562-9.876c-0.242-0.243-0.347-0.528-0.287-0.78c0.06-0.25,0.278-0.454,0.602-0.561l0.649-0.216
		c0.678-0.227,1.355-0.453,2.036-0.673c0.388-0.128,0.584-0.396,0.584-0.799c-0.007-2.137-0.006-4.276-0.006-6.414v-1.063h1.971
		c0.276,0,0.5-0.224,0.5-0.5v-4.09h1.885c0.276,0,0.5-0.224,0.5-0.5l0.003-1.371c0.005-1.506,0.012-3.781-0.011-4.588
		c-0.016-0.589,0.14-0.856,0.609-1.021h1.141c0.021,0.009,0.04,0.016,0.055,0.02c0.393,0.111,0.584,0.36,0.584,0.764
		c0.005,0.867,0.003,3.229,0.002,4.793v1.395c0,0.276,0.224,0.5,0.5,0.5h8.519v4.086c0,0.276,0.223,0.5,0.5,0.5h1.975v1.989
		c0,1.828,0.002,3.655-0.002,5.485c0,0.416,0.197,0.691,0.592,0.821c0.846,0.267,1.691,0.551,2.535,0.835l0.164,0.054
		c0.305,0.102,0.516,0.307,0.576,0.56c0.059,0.251-0.035,0.523-0.293,0.785c-0.172,0.212-4.211,5.232-3.547,10.206
		c0.033,0.252,0.248,0.434,0.494,0.434c0.023,0,0.045-0.001,0.068-0.004c0.273-0.037,0.465-0.288,0.428-0.562
		c-0.605-4.542,3.293-9.394,3.299-9.405c0.475-0.477,0.664-1.09,0.523-1.686c-0.143-0.596-0.592-1.062-1.232-1.276l-0.162-0.055
		c-0.811-0.272-1.621-0.545-2.445-0.807c0.004-1.796,0.002-3.591,0.002-5.385v-2.49c0-0.276-0.225-0.5-0.5-0.5h-1.975v-4.085
		c0-0.277-0.225-0.5-0.5-0.5h-8.519V9.263c0.001-1.566,0.003-3.931-0.002-4.796c0-0.847-0.49-1.49-1.296-1.729
		c-0.069-0.035-0.146-0.053-0.224-0.053h-1.34c-0.051,0-0.101,0.008-0.149,0.023c-0.956,0.299-1.407,0.961-1.38,2.026
		c0.022,0.792,0.016,3.058,0.011,4.557l-0.002,0.875h-1.886c-0.276,0-0.5,0.224-0.5,0.5v4.09h-1.971c-0.276,0-0.5,0.224-0.5,0.5
		v1.562c0,2.095-0.001,4.189,0.005,6.297c-0.646,0.209-1.291,0.425-1.937,0.641l-0.646,0.216c-0.658,0.218-1.117,0.683-1.26,1.276
		c-0.143,0.598,0.059,1.225,0.542,1.708C10.374,26.995,13.944,30.865,13.619,36.075z"/>
	<path fill="#414042" d="M4.491,39.785c1.074-0.521,1.942-1.274,2.577-1.871c0.342-0.318,0.724-0.606,1.132-0.856
		c0.775-0.473,1.533-0.479,2.318-0.02c0.344,0.202,0.679,0.446,0.996,0.729l0.339,0.301c0.527,0.471,1.071,0.957,1.712,1.342
		c1.478,0.886,3.002,1.152,4.537,0.787c1.127-0.271,2.185-0.871,3.331-1.889c0.456-0.399,0.928-0.813,1.425-1.137
		c0.895-0.586,1.797-0.578,2.687,0.019c0.428,0.288,0.826,0.636,1.297,1.069c0.521,0.473,1.23,1.07,2.08,1.494
		c0.873,0.439,1.756,0.659,2.643,0.659c0.455,0,0.91-0.058,1.365-0.175c1.049-0.27,2.016-0.804,2.955-1.629
		c0.189-0.163,0.373-0.333,0.557-0.502c0.242-0.225,0.484-0.45,0.744-0.66c0.646-0.531,1.242-0.758,1.896-0.716
		c0.527,0.04,1.025,0.247,1.52,0.632c0.238,0.188,0.465,0.389,0.691,0.59c0.279,0.246,0.559,0.493,0.85,0.715
		c0.309,0.238,0.639,0.432,0.957,0.619l0.369,0.219c0.232,0.145,0.541,0.072,0.688-0.163c0.145-0.235,0.07-0.544-0.164-0.688
		l-0.387-0.23c-0.305-0.178-0.592-0.348-0.855-0.551c-0.275-0.209-0.535-0.439-0.795-0.67c-0.24-0.213-0.482-0.426-0.736-0.627
		c-0.648-0.504-1.342-0.788-2.066-0.842c-0.898-0.058-1.756,0.246-2.598,0.938c-0.273,0.221-0.533,0.461-0.793,0.701
		c-0.176,0.162-0.35,0.324-0.533,0.482c-0.822,0.722-1.656,1.185-2.549,1.414c-1.111,0.286-2.195,0.152-3.309-0.41
		c-0.744-0.37-1.385-0.91-1.855-1.338c-0.5-0.462-0.932-0.836-1.412-1.16c-1.239-0.831-2.549-0.84-3.792-0.027
		c-0.557,0.363-1.055,0.801-1.545,1.23c-1.03,0.913-1.924,1.426-2.896,1.66c-1.285,0.307-2.525,0.087-3.79-0.672
		c-0.56-0.336-1.045-0.771-1.56-1.23l-0.344-0.305c-0.364-0.324-0.753-0.607-1.153-0.841c-1.097-0.644-2.251-0.635-3.344,0.028
		c-0.467,0.285-0.901,0.613-1.295,0.98c-0.584,0.549-1.378,1.238-2.331,1.701c-0.248,0.121-0.352,0.42-0.231,0.668
		C3.944,39.803,4.244,39.905,4.491,39.785z"/>
	<path fill="#414042" d="M29.998,23.278c0.105,0,0.211-0.035,0.299-0.1c0.127-0.095,0.201-0.243,0.201-0.401v-4.115
		c0-0.276-0.225-0.5-0.5-0.5L18,18.161c-0.133,0-0.26,0.053-0.354,0.146S17.5,18.528,17.5,18.661v4.115
		c0,0.154,0.109,0.289,0.23,0.384c0.12,0.095,0.313,0.119,0.467,0.081c0.055-0.012,0.104-0.026,0.148-0.042l0.893-0.298
		c1.422-0.475,2.844-0.949,4.262-1.419v0.453v10.282c0,0.277,0.224,0.5,0.5,0.5s0.5-0.223,0.5-0.5V21.934v-0.449
		c1.247,0.413,2.493,0.827,3.738,1.243l1.406,0.47c0.045,0.015,0.092,0.028,0.141,0.04l0.213-0.46l-0.143,0.48
		C29.902,23.271,29.949,23.278,29.998,23.278z M18.922,21.953L18.5,22.093v-2.933l5.106,0.001c-0.063,0.083-0.106,0.182-0.106,0.294
		v0.976C21.973,20.935,20.448,21.443,18.922,21.953z M29.498,22.095l-0.943-0.315c-1.353-0.451-2.702-0.901-4.054-1.349v-0.976
		c0-0.112-0.044-0.21-0.106-0.294l5.104,0.001V22.095z"/>
	<path fill="#414042" d="M27.84,15.356c0.275,0,0.5-0.224,0.5-0.5c0-0.276-0.225-0.5-0.5-0.5h-7.677c-0.276,0-0.5,0.224-0.5,0.5
		c0,0.276,0.224,0.5,0.5,0.5H27.84z"/>
	<path fill="#414042" d="M43.994,43.575c-0.135-0.084-0.27-0.163-0.404-0.242c-0.287-0.17-0.574-0.337-0.84-0.541
		c-0.275-0.209-0.535-0.439-0.795-0.67c-0.24-0.213-0.482-0.426-0.734-0.625c-0.652-0.511-1.348-0.795-2.068-0.844
		c-0.9-0.06-1.758,0.246-2.6,0.937c-0.275,0.224-0.535,0.465-0.797,0.706c-0.174,0.16-0.348,0.321-0.527,0.479
		c-0.822,0.722-1.656,1.185-2.547,1.414c-1.119,0.283-2.201,0.15-3.311-0.412c-0.744-0.37-1.385-0.91-1.855-1.338
		c-0.406-0.373-0.885-0.801-1.412-1.16c-1.237-0.832-2.546-0.842-3.792-0.028c-0.558,0.362-1.057,0.802-1.545,1.232
		c-1.029,0.911-1.924,1.423-2.898,1.659c-1.281,0.308-2.522,0.088-3.789-0.67c-0.56-0.336-1.045-0.771-1.56-1.23l-0.343-0.305
		c-0.358-0.319-0.747-0.603-1.153-0.84c-1.101-0.648-2.258-0.639-3.345,0.027c-0.477,0.291-0.912,0.62-1.295,0.979
		c-0.583,0.549-1.375,1.24-2.33,1.701c-0.248,0.119-0.353,0.418-0.232,0.667c0.121,0.249,0.42,0.353,0.668,0.233
		c1.077-0.521,1.944-1.275,2.579-1.873c0.332-0.311,0.713-0.598,1.132-0.854c0.776-0.474,1.533-0.479,2.317-0.019
		c0.351,0.205,0.685,0.449,0.996,0.729l0.339,0.301c0.527,0.471,1.071,0.957,1.713,1.342c1.479,0.885,3.002,1.15,4.537,0.785
		c1.128-0.273,2.185-0.873,3.331-1.887c0.455-0.401,0.926-0.816,1.424-1.139c0.895-0.586,1.799-0.58,2.685,0.018
		c0.471,0.32,0.916,0.719,1.299,1.07c0.521,0.473,1.23,1.07,2.08,1.494c0.871,0.439,1.754,0.66,2.643,0.66
		c0.455,0,0.91-0.058,1.365-0.174c1.049-0.27,2.016-0.804,2.957-1.63c0.186-0.162,0.367-0.329,0.549-0.497
		c0.244-0.227,0.488-0.453,0.75-0.666c0.645-0.529,1.244-0.762,1.898-0.713c0.523,0.035,1.021,0.242,1.518,0.631
		c0.238,0.188,0.465,0.389,0.691,0.59c0.279,0.246,0.559,0.493,0.852,0.715c0.303,0.233,0.625,0.424,0.938,0.607
		c0.129,0.076,0.258,0.151,0.385,0.23c0.232,0.145,0.541,0.074,0.688-0.162C44.301,44.028,44.229,43.72,43.994,43.575z"/>
</g>
</svg>
