<?xml version="1.0" encoding="utf-8"?>
<!-- Generator: Adobe Illustrator 16.0.0, SVG Export Plug-In . SVG Version: 6.00 Build 0)  -->
<!DOCTYPE svg PUBLIC "-//W3C//DTD SVG 1.1//EN" "http://www.w3.org/Graphics/SVG/1.1/DTD/svg11.dtd">
<svg version="1.1" id="Layer_1" xmlns="http://www.w3.org/2000/svg" xmlns:xlink="http://www.w3.org/1999/xlink" x="0px" y="0px"
	 width="48px" height="48px" viewBox="0 0 48 48" enable-background="new 0 0 48 48" xml:space="preserve">
<g>
	<path fill="#414042" d="M31.997,37.621h-3.656c-0.275,0-0.5,0.224-0.5,0.5s0.225,0.5,0.5,0.5h3.656c0.277,0,0.5-0.224,0.5-0.5
		S32.274,37.621,31.997,37.621z"/>
	<path fill="#414042" d="M19.916,34.955h-3.656c-0.276,0-0.5,0.224-0.5,0.5s0.224,0.5,0.5,0.5h3.656c0.276,0,0.5-0.224,0.5-0.5
		S20.192,34.955,19.916,34.955z"/>
	<path fill="#414042" d="M38.628,3.796l-4.916,0.009c-1.252,0.246-1.441,1.928-1.453,2.083c-0.438,2.593-3.123,4.283-3.166,4.31
		c-0.393,0.264-2.354,1.636-2.365,2.819c-0.002,0.379-1.021,0.821-2.197,1.001v-3.061c0-0.061-0.015-0.118-0.035-0.171
		c0.164-0.038,0.318-0.094,0.458-0.167l1.463-0.628c0.064-0.042,0.625-0.437,0.713-1.09c0.035-0.275-0.002-0.694-0.385-1.139
		c-0.596-0.689-1.839-0.935-2.803-0.935c-0.572,0-1.985,0.091-2.801,0.999c-0.037,0.059-0.355,0.601-0.181,1.222
		c0.081,0.287,0.3,0.689,0.883,0.984l1.109,0.563c0.033,0.019,0.266,0.14,0.61,0.206c-0.017,0.05-0.032,0.101-0.032,0.156v3.065
		c-1.22-0.179-2.253-0.624-2.256-1.006c-0.01-1.182-1.972-2.555-2.381-2.829c-0.026-0.016-2.71-1.696-3.145-4.261
		c-0.018-0.192-0.205-1.875-1.553-2.129H9.375c-0.276,0-0.5,0.224-0.5,0.5c0,0.276,0.224,0.5,0.5,0.5l4.727-0.01
		c0.412,0.082,0.617,0.864,0.657,1.267c0.515,3.046,3.485,4.907,3.596,4.975c0.925,0.62,1.918,1.569,1.921,1.995
		c0.012,1.419,2.322,1.879,3.256,2.006v4.209h-0.1c-2.177,0-4.016,1.923-4.016,4.201v8.752c0,0.276,0.224,0.5,0.5,0.5
		s0.5-0.224,0.5-0.5v-8.752c0-1.705,1.409-3.202,3.016-3.202h1.389c1.611,0,3.021,1.497,3.021,3.202v8.688
		c0,0.276,0.225,0.5,0.5,0.5c0.277,0,0.5-0.224,0.5-0.5v-8.688c0-2.278-1.84-4.201-4.021-4.201h-0.289v-4.215
		c0.924-0.131,3.189-0.596,3.197-1.999c0.004-0.425,0.998-1.375,1.904-1.986c0.127-0.078,3.098-1.939,3.617-5.021
		c0.035-0.367,0.242-1.149,0.559-1.221h4.82c0.277,0,0.5-0.224,0.5-0.5C39.128,4.02,38.905,3.796,38.628,3.796z M22.295,9.14
		c-0.206-0.105-0.331-0.226-0.371-0.36c-0.052-0.175,0.037-0.37,0.025-0.371c0.339-0.355,1.117-0.584,1.992-0.584
		c0.904,0,1.747,0.243,2.045,0.589c0.17,0.196,0.156,0.313,0.15,0.351c-0.02,0.155-0.168,0.308-0.25,0.375l-1.357,0.573
		c-0.169,0.087-0.35,0.131-0.538,0.131c-0.317,0-0.555-0.124-0.569-0.132L22.295,9.14z"/>
	<path fill="#414042" d="M24.111,22.394c-0.938,0-1.672,0.599-1.672,1.363v19.1c0,0.765,0.734,1.363,1.672,1.363
		c0.939,0,1.673-0.599,1.673-1.363v-19.1C25.784,22.993,25.05,22.394,24.111,22.394z M24.783,42.857
		c0,0.148-0.262,0.363-0.672,0.363c-0.404,0-0.672-0.219-0.672-0.363v-19.1c0-0.145,0.268-0.363,0.672-0.363
		c0.41,0,0.672,0.215,0.672,0.363V42.857z"/>
</g>
</svg>
