<?xml version="1.0" encoding="utf-8"?>
<!-- Generator: Adobe Illustrator 16.0.0, SVG Export Plug-In . SVG Version: 6.00 Build 0)  -->
<!DOCTYPE svg PUBLIC "-//W3C//DTD SVG 1.1//EN" "http://www.w3.org/Graphics/SVG/1.1/DTD/svg11.dtd">
<svg version="1.1" id="Layer_1" xmlns="http://www.w3.org/2000/svg" xmlns:xlink="http://www.w3.org/1999/xlink" x="0px" y="0px"
	 width="48px" height="48px" viewBox="0 0 48 48" enable-background="new 0 0 48 48" xml:space="preserve">
<g>
	<path fill="#414042" d="M23.964,7.066c-0.854,0-1.549,0.694-1.549,1.547c0,0.855,0.694,1.551,1.549,1.551s1.549-0.696,1.549-1.551
		C25.514,7.76,24.819,7.066,23.964,7.066z M23.964,9.164c-0.303,0-0.549-0.247-0.549-0.551c0-0.302,0.246-0.547,0.549-0.547
		s0.549,0.245,0.549,0.547C24.513,8.917,24.267,9.164,23.964,9.164z"/>
	<path fill="#414042" d="M35.081,8.558l-3.744-0.207c-0.011-0.001-0.02,0.004-0.03,0.003V7.475c0-0.248-0.182-0.458-0.426-0.494
		l-2.945-0.438c-0.449-0.987-1.682-2.455-3.895-2.455c-0.019,0-0.038,0-0.057,0h-0.172c-0.02,0-0.038,0-0.057,0
		c-2.217,0-3.45,1.467-3.9,2.455L16.911,6.98c-0.245,0.036-0.427,0.247-0.427,0.494v0.928c-0.073-0.035-0.152-0.058-0.239-0.052
		L12.87,8.558c-0.276,0.017-0.485,0.254-0.469,0.53c0.017,0.265,0.236,0.469,0.499,0.469c0.01,0,0.021,0,0.03-0.001l3.375-0.207
		c0.064-0.004,0.124-0.022,0.179-0.048v0.756c0,0.136,0.056,0.265,0.152,0.359c0.098,0.095,0.225,0.146,0.365,0.14
		c0.703-0.027,2.737,0.102,3.553,0.965c0.239,0.253,0.349,0.557,0.348,0.919c-0.386,0.056-0.752,0.12-1.054,0.192
		c-0.032,0.008-3.289,0.814-3.693,4.732c-0.039,0.286-0.94,7.05-0.505,11.953c0.047,2.303,1.524,6.657,5.538,6.657
		c0.059,0,0.113-0.015,0.166-0.033v5.82c0,1.195,0.973,2.168,2.168,2.168c1.196,0,2.17-0.973,2.17-2.168v-5.81
		c0.036,0.009,0.071,0.022,0.11,0.022c5.656,0,6.474-6.571,6.476-6.624c0.438-4.936-0.463-11.7-0.5-11.97
		c-0.406-3.935-3.664-4.74-3.693-4.748c-0.34-0.081-0.758-0.151-1.195-0.213c0.003-0.353,0.113-0.65,0.348-0.898
		c0.816-0.863,2.85-0.985,3.553-0.965c0.137,0.008,0.268-0.045,0.365-0.14c0.098-0.094,0.152-0.224,0.152-0.359V9.351l3.708,0.205
		c0.011,0,0.021,0.001,0.032,0.001c0.292,0,0.535-0.204,0.555-0.469C35.619,8.812,35.387,8.575,35.081,8.558z M23.894,13.141
		l0.107-0.001c0.023,0.002,2.17,0.14,3.499,0.393c-0.017,0.051-0.033,0.103-0.035,0.16c-0.008,0.225-0.227,5.399-3.783,5.66
		c-3.546-0.261-3.774-5.435-3.782-5.661c0-0.01-0.005-0.018-0.006-0.028c0.101-0.035,0.169-0.054,0.185-0.058
		C21.333,13.307,23.9,13.142,23.894,13.141z M23.396,31.42c-1.586,0-2.684-0.444-3.115-0.656c-0.176-2.093,0.186-3.657,1.075-4.655
		c0.966-1.08,2.22-1.106,2.238-1.107c1.092,0.071,1.904,0.461,2.482,1.189c1.129,1.426,0.996,3.74,0.912,4.529
		C25.766,31.185,24.559,31.42,23.396,31.42z M23.521,42.93c-0.644,0-1.168-0.524-1.168-1.168v-9.406
		c0.326,0.037,0.667,0.064,1.042,0.064c0.001,0,0.001,0,0.001,0c0.427,0,0.86-0.038,1.295-0.095v9.437
		C24.691,42.405,24.167,42.93,23.521,42.93z M30.785,17.499c0.008,0.069,0.924,6.941,0.496,11.778
		c-0.016,0.232-0.753,5.698-5.479,5.698c-0.039,0-0.074,0.014-0.11,0.022v-2.849c0.645-0.146,1.293-0.344,1.943-0.609
		c0.16-0.065,0.275-0.208,0.305-0.38c0.023-0.142,0.57-3.502-1.076-5.586c-0.754-0.952-1.83-1.48-3.237-1.571
		c-0.07,0-1.73,0.016-3.001,1.424c-1.133,1.256-1.575,3.175-1.314,5.702c0.016,0.151,0.1,0.288,0.229,0.37
		c0.04,0.025,0.69,0.421,1.813,0.686v2.824c-0.052-0.019-0.107-0.033-0.166-0.033c-4.037,0-4.533-5.446-4.54-5.712
		c-0.428-4.823,0.488-11.695,0.499-11.779c0.185-1.786,1.04-2.776,1.78-3.309c0.186,2.213,1.252,5.692,4.23,6.229
		c0.072,0.044,0.155,0.069,0.243,0.069h0.564c0.089,0,0.172-0.025,0.243-0.069c3.131-0.564,4.148-4.381,4.25-6.559
		C29.248,14.242,30.55,15.23,30.785,17.499z M30.307,9.562c-0.918,0.035-2.816,0.236-3.795,1.271
		c-0.389,0.41-0.59,0.905-0.618,1.466c-0.952-0.101-1.783-0.154-1.861-0.159l-0.17,0.001c-0.064,0.004-0.963,0.063-1.966,0.173
		c-0.025-0.567-0.225-1.067-0.617-1.481c-0.979-1.035-2.878-1.236-3.796-1.271V7.906l2.802-0.417c0.185-0.027,0.34-0.158,0.4-0.334
		c0.029-0.085,0.733-2.074,3.12-2.066h0.184c2.417-0.01,3.086,1.98,3.114,2.064c0.061,0.179,0.215,0.309,0.402,0.336l2.801,0.417
		V9.562z"/>
</g>
</svg>
