<?xml version="1.0" encoding="utf-8"?>
<!-- Generator: Adobe Illustrator 16.0.0, SVG Export Plug-In . SVG Version: 6.00 Build 0)  -->
<!DOCTYPE svg PUBLIC "-//W3C//DTD SVG 1.1//EN" "http://www.w3.org/Graphics/SVG/1.1/DTD/svg11.dtd">
<svg version="1.1" id="Layer_1" xmlns="http://www.w3.org/2000/svg" xmlns:xlink="http://www.w3.org/1999/xlink" x="0px" y="0px"
	 width="48px" height="48px" viewBox="0 0 48 48" enable-background="new 0 0 48 48" xml:space="preserve">
<g>
	<path fill="#414042" d="M31.652,20.237c-0.27-0.037-0.527,0.149-0.566,0.425l-1.863,13c-0.039,0.273,0.15,0.525,0.424,0.565
		c0.025,0.003,0.049,0.005,0.072,0.005c0.244,0,0.459-0.18,0.494-0.43l1.863-13C32.115,20.53,31.926,20.277,31.652,20.237z"/>
	<path fill="#414042" d="M16.956,20.235c-0.274,0.03-0.473,0.278-0.442,0.553l1.439,12.999c0.028,0.256,0.245,0.445,0.496,0.445
		c0.019,0,0.037-0.001,0.056-0.003c0.274-0.03,0.473-0.278,0.442-0.552l-1.439-13C17.477,20.402,17.223,20.205,16.956,20.235z"/>
	<path fill="#414042" d="M39.377,14.864l-6.343-2.526c-0.029-0.104-0.081-0.202-0.171-0.268c-0.683-0.502-1.114-1.302-1.39-2.174
		c0.064-0.008,0.129-0.029,0.188-0.064c0.252-0.148,0.584-0.351,0.938-0.591l1.629,1.708c0.098,0.101,0.229,0.155,0.363,0.155
		c0.055,0,0.109-0.009,0.164-0.027l3.473-1.203c0.145-0.05,0.258-0.165,0.309-0.31l1.129-3.271c0.055-0.158,0.025-0.334-0.076-0.467
		c-0.104-0.133-0.271-0.212-0.432-0.194l-4.734,0.334c-0.137,0.009-0.264,0.075-0.352,0.181c-0.088,0.106-0.127,0.243-0.109,0.379
		c0.033,0.269-0.639,0.941-1.561,1.622c-0.027,0.016-0.053,0.034-0.076,0.056c-0.34,0.247-0.714,0.491-1.095,0.718
		c-0.334-1.769-0.173-3.513-0.171-3.542c0.021-0.2-0.08-0.393-0.256-0.489c-1.947-1.066-4.08-1.606-6.342-1.606H24.35h-0.632
		c-2.262,0-4.395,0.54-6.339,1.606c-0.176,0.097-0.277,0.289-0.257,0.489c0.003,0.03,0.173,1.854-0.194,3.665
		c-0.026-0.025-0.049-0.054-0.082-0.073c-0.406-0.239-0.803-0.5-1.164-0.763c-0.027-0.025-0.057-0.047-0.088-0.064
		c-0.92-0.679-1.588-1.348-1.554-1.617c0.018-0.136-0.022-0.273-0.109-0.38c-0.088-0.105-0.215-0.172-0.352-0.181L8.844,5.63
		c-0.171-0.018-0.33,0.061-0.432,0.194C8.31,5.958,8.282,6.134,8.336,6.292l1.129,3.271c0.05,0.145,0.164,0.259,0.309,0.31
		l3.473,1.203c0.054,0.019,0.109,0.027,0.164,0.027c0.134,0,0.266-0.054,0.361-0.155l1.631-1.708
		c0.355,0.24,0.687,0.444,0.938,0.591c0.116,0.068,0.25,0.083,0.373,0.053c-0.275,0.876-0.709,1.681-1.396,2.186
		c-0.089,0.066-0.141,0.161-0.171,0.264l-6.519,2.527c-0.258,0.1-0.386,0.39-0.285,0.647c0.076,0.198,0.266,0.319,0.466,0.319
		c0.061,0,0.121-0.011,0.181-0.034l6.245-2.42l0.353,2.573c0.021,0.156,0.114,0.292,0.251,0.369l8.018,4.475
		c0.076,0.042,0.16,0.063,0.244,0.063s0.168-0.021,0.244-0.063l8-4.475c0.137-0.077,0.229-0.213,0.25-0.369l0.352-2.568l6.063,2.414
		c0.061,0.024,0.123,0.035,0.186,0.035c0.197,0,0.387-0.119,0.465-0.315C39.76,15.257,39.635,14.966,39.377,14.864z M34.885,6.934
		l3.588-0.253L37.67,9.008l-2.939,1.018l-1.316-1.381C34.072,8.121,34.676,7.515,34.885,6.934z M13.271,10.026l-2.939-1.018
		L9.529,6.681l3.591,0.253c0.208,0.581,0.811,1.187,1.469,1.711L13.271,10.026z M31.637,15.564L24.1,19.781l-7.556-4.216
		l-0.395-2.879c2.132-1.85,2.065-5.868,1.993-7.069c1.719-0.885,3.593-1.333,5.575-1.333l0.112,0l0.632,0
		c1.983,0,3.858,0.448,5.579,1.333c-0.072,1.201-0.141,5.219,1.99,7.069L31.637,15.564z"/>
	<path fill="#414042" d="M27.617,21.268l-3.509,2.014l-3.087-1.773c-0.16-0.092-0.358-0.089-0.515,0.01
		c-0.156,0.098-0.246,0.274-0.233,0.458l0.551,7.982c0.011,0.165,0.115,0.296,0.253,0.378v10.805c0,3.223,2.269,3.533,2.681,3.563
		c0.065,0.012,0.195,0.03,0.344,0.03c0.096,0,0.198-0.008,0.298-0.029c0.933-0.088,2.699-0.945,2.699-3.563l0.04-10.805
		c0.131-0.078,0.231-0.199,0.251-0.355l0.975-8.222c0.021-0.188-0.063-0.372-0.221-0.477C27.986,21.181,27.781,21.175,27.617,21.268
		z M26.098,41.141c0,2.305-1.613,2.549-1.848,2.577c-0.133,0.027-0.28,0.009-0.323,0.001c-0.031-0.008-0.068-0.012-0.101-0.012
		c-0.18-0.004-1.749-0.105-1.749-2.566V30.679c0.808,0.225,1.493,0.354,1.8,0.407c0.056,0.021,0.116,0.033,0.179,0.033h0.063
		c0.007,0.001,0.015,0,0.02,0c0.068,0,0.133-0.014,0.191-0.037c0.328-0.057,1.014-0.187,1.808-0.404L26.098,41.141z M26.434,29.549
		c-1.051,0.332-2.019,0.506-2.345,0.559c-0.318-0.053-1.253-0.225-2.29-0.553l-0.463-6.713l2.523,1.449
		c0.154,0.089,0.344,0.089,0.498,0l2.897-1.661L26.434,29.549z"/>
	<path fill="#414042" d="M27.594,12.503c-0.004,0-0.008,0-0.012,0l-3.232,0.605l-3.32-0.614c-0.952,0-1.459,1.1-1.459,1.895v0.15
		c0,0.615,0.747,0.973,1.879,1.516l2.385,1.202c0.07,0.036,0.147,0.054,0.227,0.054h0.58c0.079,0,0.156-0.019,0.227-0.054
		l2.388-1.202c1.131-0.542,1.879-0.9,1.879-1.516v-0.15C29.135,13.598,28.631,12.503,27.594,12.503z M28.135,14.436
		c-0.199,0.185-0.889,0.514-1.313,0.717l-2.301,1.158h-0.34l-2.299-1.158c-0.424-0.203-1.112-0.533-1.312-0.717v-0.047
		c0-0.409,0.249-0.895,0.367-0.903l3.321,0.623c0.104,0.025,0.221,0.017,0.315-0.025l3.099-0.589c0.211,0,0.461,0.485,0.461,0.895
		V14.436z"/>
</g>
</svg>
