<?xml version="1.0" encoding="utf-8"?>
<!-- Generator: Adobe Illustrator 16.0.0, SVG Export Plug-In . SVG Version: 6.00 Build 0)  -->
<!DOCTYPE svg PUBLIC "-//W3C//DTD SVG 1.1//EN" "http://www.w3.org/Graphics/SVG/1.1/DTD/svg11.dtd">
<svg version="1.1" id="Layer_1" xmlns="http://www.w3.org/2000/svg" xmlns:xlink="http://www.w3.org/1999/xlink" x="0px" y="0px"
	 width="48px" height="48px" viewBox="0 0 48 48" enable-background="new 0 0 48 48" xml:space="preserve">
<g>
	<path fill="#414042" d="M46.207,15.28c-0.088-0.163-0.256-0.264-0.441-0.264h-3.545c-0.117,0-0.232,0.041-0.322,0.117l-8.592,7.24
		c-0.623-0.085-1.885-0.121-4.494-0.197l-3.402-0.15c0.029-0.048,0.055-0.1,0.066-0.158l0.555-2.745
		c0.029-0.146-0.008-0.299-0.104-0.415c-0.094-0.116-0.236-0.183-0.387-0.183h-1.597c-0.104,0-0.207,0.032-0.292,0.094l-4.36,3.137
		l-9.415-0.415c-0.292,0-1.851,0.077-4.032,1.578c-0.602,0.242-3.913,1.667-4.101,3.879c-0.101,1.195,0.724,2.326,2.445,3.357
		c0.081,0.051,2.076,1.239,9.666,1.532l0.17-0.001c1.064,0.054,2.207,0.081,3.398,0.081c1.138,0,2.292-0.025,3.443-0.069
		c0.033,0.018,0.063,0.04,0.1,0.051l4.396,1.232c0.045,0.012,0.09,0.019,0.135,0.019h2.48c0.229,0,0.428-0.154,0.484-0.374
		c0.057-0.221-0.043-0.453-0.242-0.563l-1.349-0.748c6.453-0.561,11.664-1.445,11.78-1.467l2.084-0.625
		c0.031-0.01,0.063-0.023,0.094-0.039c0.299-0.161,1.209-0.65,1.072-1.45c-0.145-0.858-1.555-1.333-2.613-1.57l6.893-10.372
		C46.285,15.639,46.293,15.442,46.207,15.28z M24.105,19.526h0.825l-0.434,2.145c-0.023,0.113,0.001,0.222,0.049,0.318l-3.641-0.161
		L24.105,19.526z M6.264,23.83c0.036-0.015,0.071-0.033,0.104-0.056c1.65-1.146,2.85-1.373,3.314-1.418l-1.083,2.161l-4.017,0.188
		C5.222,24.295,5.874,23.982,6.264,23.83z M25.516,31.705l0.531,0.296h-0.48l-1.642-0.46c0.461-0.03,0.918-0.063,1.372-0.098
		C25.337,31.551,25.408,31.646,25.516,31.705z M38.039,26.238c-0.094,0.141-0.109,0.321-0.041,0.477
		c0.068,0.156,0.211,0.267,0.379,0.293c1.189,0.189,2.426,0.63,2.541,0.863c0,0.001-0.055,0.152-0.52,0.41l-1.975,0.596
		c-0.109,0.02-11.148,1.892-21,1.892c-1.174,0-2.301-0.026-3.373-0.08l-0.176,0.001c-7.199-0.279-9.145-1.375-9.165-1.387
		c-1.372-0.822-2.035-1.637-1.97-2.42c0.036-0.421,0.288-0.823,0.632-1.197c0.07,0.037,0.146,0.063,0.229,0.063
		c0.008,0,0.016,0,0.023-0.001L8.938,25.5c0.181-0.008,0.343-0.113,0.424-0.275l1.426-2.843l8.654,0.382c0,0,0.001,0,0.002,0
		s0,0,0.001,0l9.331,0.413c3.498,0.102,4.322,0.169,4.512,0.193c0.094,0.034,0.197,0.041,0.297,0.015
		c0.078-0.021,0.148-0.059,0.205-0.108l8.615-7.259h2.43L38.039,26.238z"/>
	<path fill="#414042" d="M13.081,24.75h-0.305c-0.276,0-0.5,0.223-0.5,0.499v0.34c0,0.276,0.224,0.5,0.5,0.5h0.305
		c0.276,0,0.5-0.224,0.5-0.5v-0.34C13.581,24.974,13.357,24.75,13.081,24.75z"/>
	<path fill="#414042" d="M16.417,24.75h-0.305c-0.276,0-0.5,0.223-0.5,0.499v0.34c0,0.276,0.224,0.5,0.5,0.5h0.305
		c0.276,0,0.5-0.224,0.5-0.5v-0.34C16.917,24.974,16.693,24.75,16.417,24.75z"/>
	<path fill="#414042" d="M25.59,24.75h-0.307c-0.275,0-0.5,0.223-0.5,0.499v0.34c0,0.276,0.224,0.5,0.5,0.5h0.307
		c0.277,0,0.5-0.224,0.5-0.5v-0.34C26.09,24.974,25.867,24.75,25.59,24.75z"/>
	<path fill="#414042" d="M28.926,24.75h-0.305c-0.275,0-0.5,0.223-0.5,0.499v0.34c0,0.276,0.225,0.5,0.5,0.5h0.305
		c0.277,0,0.5-0.224,0.5-0.5v-0.34C29.426,24.974,29.203,24.75,28.926,24.75z"/>
	<path fill="#414042" d="M32.262,24.75h-0.305c-0.275,0-0.5,0.223-0.5,0.499v0.34c0,0.276,0.225,0.5,0.5,0.5h0.305
		c0.277,0,0.5-0.224,0.5-0.5v-0.34C32.762,24.974,32.539,24.75,32.262,24.75z"/>
	<path fill="#414042" d="M20.741,23.718c-1.218,0-2.199,0.956-2.234,2.173l-0.043,1.554c-0.032,1.231,0.942,2.263,2.174,2.298
		c0.005,0,0.057,0.001,0.061,0.001c1.221,0,2.203-0.956,2.238-2.177l0.043-1.552C23.011,24.786,22.037,23.754,20.741,23.718z
		 M21.936,27.539c-0.02,0.676-0.563,1.205-1.238,1.205v0.5l-0.032-0.501c-0.682-0.019-1.221-0.59-1.202-1.271l0.043-1.552
		c0.019-0.674,0.561-1.2,1.27-1.2c0.001,0,0.001,0,0.001,0c0.682,0.019,1.221,0.588,1.202,1.27L21.936,27.539z"/>
</g>
</svg>
