<?xml version="1.0" encoding="utf-8"?>
<!-- Generator: Adobe Illustrator 16.0.0, SVG Export Plug-In . SVG Version: 6.00 Build 0)  -->
<!DOCTYPE svg PUBLIC "-//W3C//DTD SVG 1.1//EN" "http://www.w3.org/Graphics/SVG/1.1/DTD/svg11.dtd">
<svg version="1.1" id="Layer_1" xmlns="http://www.w3.org/2000/svg" xmlns:xlink="http://www.w3.org/1999/xlink" x="0px" y="0px"
	 width="48px" height="48px" viewBox="0 0 48 48" enable-background="new 0 0 48 48" xml:space="preserve">
<g>
	<path fill="#414042" d="M44.018,15.102L5.708,15.103c-0.88-0.048-1.442,0.94-1.552,1.141l0.012,0.007
		c-0.175,0.396-0.418,1.718-1.387,7.045v5.243c0,0.381,0.096,0.66,0.292,0.85c0.272,0.266,0.614,0.258,0.867,0.248l0.118-0.004
		l5.933,0.003c0.001,0,0.002,0.001,0.003,0.001s0.002-0.001,0.003-0.001l0.953,0.001c0.189,1.838,1.729,3.281,3.617,3.281
		c1.855,0,3.375-1.396,3.605-3.189l12.415-0.006c0.229,1.797,1.749,3.195,3.608,3.195c1.886,0,3.425-1.442,3.614-3.279l6.208-0.006
		c0.662,0,1.203-0.539,1.203-1.205V16.305C45.221,15.641,44.68,15.102,44.018,15.102z M5.522,23.732h3.973v4.902l-3.973-0.002
		V23.732z M9.495,22.732H5.618l0.596-3.373h3.281V22.732z M14.567,31.917c-1.464,0-2.654-1.189-2.654-2.652
		c0-1.461,1.19-2.65,2.654-2.65c1.463,0,2.652,1.189,2.652,2.65C17.219,30.728,16.03,31.917,14.567,31.917z M34.195,31.917
		c-1.465,0-2.654-1.189-2.654-2.652c0-1.461,1.189-2.65,2.654-2.65c1.463,0,2.652,1.189,2.652,2.65
		C36.848,30.728,35.658,31.917,34.195,31.917z M44.221,28.427c0,0.113-0.092,0.205-0.203,0.205l-6.233,0.006
		c-0.3-1.713-1.79-3.023-3.589-3.023c-1.829,0-3.334,1.354-3.6,3.107l-12.431,0.006c-0.263-1.756-1.769-3.113-3.598-3.113
		c-1.799,0-3.29,1.31-3.59,3.021h-0.482v-5.403v-4.373c0-0.276-0.224-0.5-0.5-0.5H5.793c-0.242,0-0.45,0.174-0.492,0.413
		L4.53,23.146c-0.002,0.014,0.003,0.026,0.001,0.04c-0.001,0.016-0.009,0.03-0.009,0.047v5.399H4.059l-0.147,0.004
		c-0.038,0-0.084,0.002-0.125,0.002c-0.003-0.025-0.005-0.057-0.005-0.1l-0.008-5.153c0.433-2.364,1.147-6.195,1.277-6.692
		c0.172-0.296,0.453-0.597,0.623-0.591h38.343c0.111,0,0.203,0.091,0.203,0.203V28.427z"/>
	<path fill="#414042" d="M42.152,18.359H11.944c-0.276,0-0.5,0.224-0.5,0.5v4.373c0,0.276,0.224,0.5,0.5,0.5h30.208
		c0.275,0,0.5-0.224,0.5-0.5v-4.373C42.652,18.583,42.428,18.359,42.152,18.359z M22.555,19.359h3.986v3.373h-3.986V19.359z
		 M21.555,22.732h-3.99v-3.373h3.99V22.732z M27.541,19.359h3.988v3.373h-3.988V19.359z M32.529,19.359h4v3.373h-4V19.359z
		 M12.444,19.359h4.121v3.373h-4.121V19.359z M41.652,22.732h-4.123v-3.373h4.123V22.732z"/>
</g>
</svg>
