<?xml version="1.0" encoding="utf-8"?>
<!-- Generator: Adobe Illustrator 16.0.0, SVG Export Plug-In . SVG Version: 6.00 Build 0)  -->
<!DOCTYPE svg PUBLIC "-//W3C//DTD SVG 1.1//EN" "http://www.w3.org/Graphics/SVG/1.1/DTD/svg11.dtd">
<svg version="1.1" id="Layer_1" xmlns="http://www.w3.org/2000/svg" xmlns:xlink="http://www.w3.org/1999/xlink" x="0px" y="0px"
	 width="48px" height="48px" viewBox="0 0 48 48" enable-background="new 0 0 48 48" xml:space="preserve">
<g>
	<path fill="#414042" d="M29.667,31.694c-2.043,0-3.705,1.662-3.705,3.703c0,2.043,1.662,3.705,3.705,3.705s3.703-1.662,3.703-3.705
		C33.37,33.356,31.71,31.694,29.667,31.694z M29.667,38.103c-1.49,0-2.705-1.213-2.705-2.705c0-1.49,1.215-2.703,2.705-2.703
		s2.703,1.213,2.703,2.703C32.37,36.89,31.157,38.103,29.667,38.103z"/>
	<path fill="#414042" d="M9.281,37.362c-0.685,0-1.242,0.557-1.242,1.24c0,0.686,0.558,1.242,1.242,1.242s1.242-0.557,1.242-1.242
		C10.523,37.919,9.965,37.362,9.281,37.362z M9.039,38.603c0-0.131,0.108-0.24,0.242-0.24s0.242,0.109,0.242,0.24
		C9.523,38.87,9.039,38.87,9.039,38.603z"/>
	<path fill="#414042" d="M41.979,31.694h-4.835c-1.372-2.754-4.209-4.656-7.491-4.656c-4.446,0-8.084,3.489-8.345,7.869h-8.412
		c-0.934-0.914-2.208-1.482-3.616-1.482c-0.997,0-1.919,0.297-2.71,0.786l-0.198-1.56c0.072,0.013,0.139,0.043,0.214,0.043
		c0.685,0,1.242-0.555,1.242-1.24S7.272,30.21,6.587,30.21c-0.182,0-0.353,0.044-0.509,0.115l-0.29-2.287H22.86l-2.313,2.514
		c-0.187,0.203-0.174,0.52,0.029,0.707c0.205,0.188,0.521,0.176,0.707-0.029l4.096-4.451h2.205c0.002,0,0.004,0,0.004,0h7.166
		l4.068,4.449c0.1,0.107,0.234,0.162,0.369,0.162c0.121,0,0.242-0.043,0.338-0.131c0.203-0.186,0.219-0.502,0.031-0.705
		l-4.217-4.611c-0.094-0.104-0.229-0.164-0.369-0.164h-6.895l-0.003-0.27c0.092,0.121,0.23,0.205,0.394,0.205h6.008
		c0.277,0,0.5-0.223,0.5-0.5v-7.616c0-0.276-0.223-0.5-0.5-0.5c-0.275,0-0.5,0.224-0.5,0.5v7.117h-5.508
		c-0.167,0-0.308,0.087-0.398,0.213l-0.006-0.655c0-0.324-0.093-0.624-0.242-0.886c0.013-0.008,0.03-0.005,0.043-0.015l1.27-0.954
		c0.118,0.058,0.241,0.109,0.369,0.151c0.293,0.097,0.592,0.146,0.889,0.146c0.869,0,1.576-0.433,1.799-1.104
		c0.305-0.933-0.395-1.972-1.592-2.367c-1.156-0.382-2.387,0.06-2.684,0.957c-0.154,0.468-0.053,0.998,0.281,1.453
		c0.034,0.046,0.077,0.087,0.115,0.131l-1.047,0.786c-0.052,0.039-0.092,0.086-0.123,0.138c-0.262-0.147-0.559-0.238-0.879-0.238
		h-0.794c0.047-0.076,0.081-0.161,0.081-0.258v-5.278c0.399-0.225,0.672-0.71,0.672-1.291v-3.766c0-0.579-0.272-1.063-0.672-1.289
		V7.455l3.279-2.31c0.225-0.159,0.279-0.47,0.121-0.697c-0.16-0.226-0.471-0.279-0.697-0.121l-3.493,2.459
		c-0.133,0.094-0.212,0.246-0.212,0.408v3.395c-0.401,0.225-0.674,0.71-0.674,1.291v3.766c0,0.582,0.273,1.067,0.674,1.292v5.276
		c0,0.097,0.035,0.182,0.082,0.258H6.113c-0.993,0-1.801,0.808-1.797,1.863l1.301,10.3c0.011,0.088,0.05,0.163,0.099,0.229
		c-0.989,0.943-1.613,2.267-1.613,3.737c0,2.855,2.322,5.178,5.178,5.178s5.178-2.322,5.178-5.178c0-0.99-0.294-1.907-0.778-2.695
		h7.628c0.261,4.384,3.899,7.873,8.345,7.873c4.515,0,8.193-3.593,8.355-8.068h3.971c1.076,0,1.92-0.654,1.92-1.492v-1.035
		C43.899,32.351,43.056,31.694,41.979,31.694z M6.587,31.21c0.134,0,0.242,0.109,0.242,0.244c0,0.266-0.484,0.266-0.484,0
		C6.345,31.319,6.454,31.21,6.587,31.21z M29.007,21.065c-0.082-0.112-0.209-0.333-0.139-0.548c0.084-0.249,0.424-0.417,0.848-0.417
		c0.189,0,0.383,0.032,0.574,0.095c0.699,0.231,1.064,0.769,0.953,1.104c-0.103,0.311-0.624,0.46-1.167,0.369
		c0.105-0.17,0.105-0.393-0.022-0.563c-0.166-0.221-0.48-0.265-0.699-0.1l-0.229,0.171C29.089,21.139,29.037,21.106,29.007,21.065z
		 M6.113,23.473h20.154c0.441,0,0.801,0.359,0.801,0.806l0.013,1.5h-1.921c-0.139,0-0.275,0.059-0.37,0.162l-1.061,1.153
		c-0.067-0.033-0.14-0.056-0.219-0.056H5.662l-0.35-2.765C5.312,23.832,5.671,23.473,6.113,23.473z M9.281,42.78
		c-2.304,0-4.178-1.873-4.178-4.178c0-2.303,1.874-4.178,4.178-4.178s4.178,1.875,4.178,4.178
		C13.458,40.907,11.584,42.78,9.281,42.78z M29.653,42.78c-4.063,0-7.371-3.307-7.371-7.373c0-4.063,3.308-7.369,7.371-7.369
		c4.064,0,7.371,3.307,7.371,7.369C37.024,39.474,33.718,42.78,29.653,42.78z M42.899,34.22c0,0.229-0.4,0.492-0.92,0.492h-3.99
		c-0.059-0.701-0.204-1.376-0.425-2.018h4.415c0.52,0,0.92,0.264,0.92,0.49V34.22z"/>
</g>
</svg>
