<?xml version="1.0" encoding="utf-8"?>
<!-- Generator: Adobe Illustrator 16.0.0, SVG Export Plug-In . SVG Version: 6.00 Build 0)  -->
<!DOCTYPE svg PUBLIC "-//W3C//DTD SVG 1.1//EN" "http://www.w3.org/Graphics/SVG/1.1/DTD/svg11.dtd">
<svg version="1.1" id="Layer_1" xmlns="http://www.w3.org/2000/svg" xmlns:xlink="http://www.w3.org/1999/xlink" x="0px" y="0px"
	 width="48px" height="48px" viewBox="0 0 48 48" enable-background="new 0 0 48 48" xml:space="preserve">
<g>
	<path fill="#414042" d="M43.534,11.019H21.685c-0.133,0-0.261,0.053-0.354,0.148c-0.094,0.094-0.146,0.223-0.146,0.355l0.02,2.867
		c-0.092-0.113-0.226-0.189-0.383-0.189H9.468c-0.57,0-1.174,0.543-1.446,1.274l-4,7.912c-0.035,0.069-0.054,0.146-0.054,0.226
		v7.999c0,0.276,0.224,0.5,0.5,0.5h5.776c-0.03,0.203-0.063,0.406-0.063,0.617c0,2.355,1.916,4.271,4.271,4.271
		c2.355,0,4.271-1.916,4.271-4.271c0-0.211-0.033-0.414-0.063-0.617h3.16h9.736c-0.03,0.203-0.063,0.406-0.063,0.617
		c0,2.355,1.916,4.271,4.271,4.271s4.271-1.916,4.271-4.271c0-0.211-0.032-0.414-0.063-0.617h3.559c0.277,0,0.5-0.224,0.5-0.5
		v-20.09C44.034,11.243,43.812,11.019,43.534,11.019z M14.453,35.998c-1.804,0-3.271-1.468-3.271-3.271
		c0-1.803,1.467-3.27,3.271-3.27s3.271,1.467,3.271,3.27C17.724,34.53,16.256,35.998,14.453,35.998z M14.453,28.457
		c-1.782,0-3.308,1.099-3.948,2.652H4.968v-1.747c0.074,0.017,0.146,0.036,0.229,0.036c0.481,0,0.844-0.299,0.844-0.695v-0.402
		c0-0.396-0.362-0.695-0.844-0.695c-0.082,0-0.155,0.02-0.229,0.036V23.73l3.968-7.855c0.178-0.47,0.464-0.664,0.532-0.676h11.354
		c0.16,0,0.295-0.079,0.387-0.196l0.109,16.106h-2.917C17.762,29.556,16.235,28.457,14.453,28.457z M35.767,35.998
		c-1.803,0-3.271-1.468-3.271-3.271c0-1.803,1.469-3.27,3.271-3.27c1.805,0,3.271,1.467,3.271,3.27
		C39.038,34.53,37.571,35.998,35.767,35.998z M43.034,31.109h-3.319c-0.639-1.554-2.166-2.652-3.948-2.652s-3.31,1.099-3.948,2.652
		h-9.5l-0.131-19.09h20.846V31.109z"/>
	<path fill="#414042" d="M17.056,18.041h-4.729c-0.569,0-1.631,0-2.258,1.343l-1.209,3.166c-0.059,0.153-0.038,0.326,0.055,0.462
		c0.094,0.135,0.248,0.217,0.412,0.217h8.729c0.276,0,0.5-0.224,0.5-0.5v-3.188C18.556,18.714,17.883,18.041,17.056,18.041z
		 M17.556,22.228h-7.503l0.937-2.454c0.344-0.734,0.805-0.734,1.338-0.734h4.729c0.275,0,0.5,0.224,0.5,0.5V22.228z"/>
</g>
</svg>
