<?xml version="1.0" encoding="utf-8"?>
<!-- Generator: Adobe Illustrator 16.0.0, SVG Export Plug-In . SVG Version: 6.00 Build 0)  -->
<!DOCTYPE svg PUBLIC "-//W3C//DTD SVG 1.1//EN" "http://www.w3.org/Graphics/SVG/1.1/DTD/svg11.dtd">
<svg version="1.1" id="Layer_1" xmlns="http://www.w3.org/2000/svg" xmlns:xlink="http://www.w3.org/1999/xlink" x="0px" y="0px"
	 width="48px" height="48px" viewBox="0 0 48 48" enable-background="new 0 0 48 48" xml:space="preserve">
<g>
	<path fill="#414042" d="M15.511,17.214h-2.922c-0.747,0-1.355,0.608-1.355,1.355v4.486c0,0.748,0.608,1.355,1.355,1.355h2.922
		c0.747,0,1.355-0.608,1.355-1.355v-4.486C16.867,17.822,16.258,17.214,15.511,17.214z M15.867,23.056
		c0,0.196-0.159,0.355-0.355,0.355h-2.922c-0.196,0-0.355-0.159-0.355-0.355v-4.486c0-0.195,0.159-0.355,0.355-0.355h2.922
		c0.196,0,0.355,0.16,0.355,0.355V23.056z"/>
	<path fill="#414042" d="M8.656,17.214H8.33c-0.911,0-1.203,0.835-1.351,1.283l-0.647,4.418c-0.15,0.516-0.014,0.847,0.127,1.035
		c0.232,0.311,0.628,0.461,1.209,0.461h0.988c0.747,0,1.355-0.608,1.355-1.355v-4.486C10.011,17.822,9.403,17.214,8.656,17.214z
		 M9.011,23.056c0,0.196-0.159,0.355-0.355,0.355H7.667c-0.281,0-0.384-0.049-0.399-0.049c-0.001,0-0.001,0.001-0.001,0.001
		c-0.002-0.017-0.003-0.076,0.04-0.234l0.639-4.395c0.183-0.521,0.28-0.521,0.384-0.521h0.326c0.196,0,0.355,0.16,0.355,0.355
		V23.056z"/>
	<path fill="#414042" d="M12.347,30.429c-1.803,0-3.27,1.467-3.27,3.27c0,1.805,1.467,3.271,3.27,3.271s3.27-1.467,3.27-3.271
		C15.617,31.896,14.15,30.429,12.347,30.429z M12.347,35.97c-1.251,0-2.27-1.02-2.27-2.271s1.019-2.27,2.27-2.27
		s2.27,1.018,2.27,2.27S13.598,35.97,12.347,35.97z"/>
	<path fill="#414042" d="M33.909,30.429c-1.803,0-3.271,1.467-3.271,3.27c0,1.805,1.469,3.271,3.271,3.271s3.27-1.467,3.27-3.271
		C37.179,31.896,35.712,30.429,33.909,30.429z M33.909,35.97c-1.252,0-2.271-1.02-2.271-2.271s1.02-2.27,2.271-2.27
		s2.27,1.018,2.27,2.27S35.161,35.97,33.909,35.97z"/>
	<path fill="#414042" d="M42.972,16.286c0.109-0.68-0.117-1.111-0.346-1.363c-0.572-0.631-1.654-0.68-2.352-0.634
		c-0.02-0.139-0.068-0.268-0.164-0.382c-0.258-0.31-0.637-0.29-1.041-0.271c-0.758,0.037-2.014,0.102-3.846-1.431
		c-3.316-2.774-7.744,0.204-8.883,1.064c-3.263-1.646-6.659,0.734-7.843,1.709v-2.166c0-0.276-0.224-0.5-0.5-0.5H6.154
		c-0.276,0-0.5,0.224-0.5,0.5v2.908c0,0.024,0.01,0.045,0.014,0.069c-0.207,0.281-0.331,0.616-0.427,0.892l-1.373,6.592
		c-0.007,0.033-0.011,0.067-0.011,0.102v7.668c0,0.861,0.701,1.561,1.563,1.561h3.145c0.196,0,0.375-0.115,0.456-0.293l0.769-1.703
		c0.254-0.559,0.559-0.883,1.361-0.883h2.471c0.366,0.014,0.903,0.121,1.336,0.906l0.885,1.703c0.086,0.166,0.257,0.27,0.443,0.27
		h2.121c0.008,0.002,0.016,0,0.02,0h11.603c0.197,0,0.375-0.115,0.455-0.293l0.771-1.703c0.254-0.559,0.559-0.883,1.361-0.883h2.471
		c0.367,0.014,0.904,0.121,1.336,0.906l0.885,1.703c0.086,0.166,0.258,0.27,0.443,0.27h4.502c0.902,0,1.635-0.732,1.635-1.629
		l0.01-0.75l-0.01-9.354C44.641,18.327,43.51,16.824,42.972,16.286z M42.89,21.312l0.007,7.405
		c-0.195-0.082-0.409-0.128-0.634-0.128H37.86v-7.277H42.89z M26.138,14.296c0.182,0.106,0.41,0.088,0.572-0.047
		c0.047-0.04,4.758-3.884,7.871-1.279c2.131,1.784,3.693,1.708,4.537,1.664c0.047-0.002,0.098-0.004,0.145-0.006
		c-0.006,0.032-0.014,0.07-0.025,0.112c-0.039,0.165,0.008,0.338,0.125,0.46c0.115,0.122,0.281,0.179,0.453,0.148
		c0.516-0.096,1.701-0.159,2.07,0.248c0.049,0.054,0.199,0.22,0.053,0.728c-0.057,0.199,0.018,0.414,0.182,0.539
		c0.062,0.047,1.419,1.146,0.868,3.449H18.896l-0.003-3.529c0-0.247-0.063-0.478-0.166-0.686c0.008-0.006,0.018-0.008,0.025-0.016
		C18.791,16.042,22.737,12.313,26.138,14.296z M24.953,28.589v-7.277h5.453v7.277H24.953z M18.903,28.589l-0.007-7.277h5.057v7.277
		H18.903z M6.654,13.312h10.844v1.908H17.33H6.792H6.654V13.312z M15.837,30.159c-0.506-0.92-1.24-1.402-2.199-1.436H11.15
		c-1.438,0-1.985,0.838-2.272,1.471l-0.637,1.408H5.419c-0.311,0-0.563-0.252-0.563-0.561v-7.617l1.344-6.473
		c0.252-0.698,0.383-0.732,0.592-0.732H17.33c0.311,0,0.563,0.253,0.563,0.563l0.014,14.819h-1.317L15.837,30.159z M30.345,30.192
		l-0.639,1.41H18.905l-0.001-2.014h11.792C30.544,29.79,30.433,30.001,30.345,30.192z M31.405,28.589v-7.277h5.455v7.277H31.405z
		 M42.253,31.603h-4.197l-0.752-1.443c-0.117-0.215-0.246-0.404-0.389-0.57h5.348c0.35,0,0.635,0.285,0.635,0.629l0,0l-0.01,0.75
		C42.888,31.317,42.603,31.603,42.253,31.603z"/>
</g>
</svg>
