<?xml version="1.0" encoding="utf-8"?>
<!-- Generator: Adobe Illustrator 16.0.0, SVG Export Plug-In . SVG Version: 6.00 Build 0)  -->
<!DOCTYPE svg PUBLIC "-//W3C//DTD SVG 1.1//EN" "http://www.w3.org/Graphics/SVG/1.1/DTD/svg11.dtd">
<svg version="1.1" id="Layer_1" xmlns="http://www.w3.org/2000/svg" xmlns:xlink="http://www.w3.org/1999/xlink" x="0px" y="0px"
	 width="48px" height="48px" viewBox="0 0 48 48" enable-background="new 0 0 48 48" xml:space="preserve">
<g>
	<path fill="#414042" d="M4.045,27.852c0.965,0,1.639-0.425,1.639-1.033c0-0.598-0.689-1.031-1.639-1.031
		c-0.276,0-0.5,0.224-0.5,0.5v1.064C3.545,27.628,3.769,27.852,4.045,27.852z"/>
	<path fill="#414042" d="M5.375,31.246c-1.781,0-3.23,1.449-3.23,3.23s1.449,3.23,3.23,3.23c1.782,0,3.232-1.449,3.232-3.23
		S7.157,31.246,5.375,31.246z M5.375,36.707c-1.229,0-2.23-1.001-2.23-2.23s1.001-2.23,2.23-2.23c1.231,0,2.232,1.001,2.232,2.23
		S6.606,36.707,5.375,36.707z"/>
	<path fill="#414042" d="M37.337,31.246c-1.781,0-3.23,1.449-3.23,3.23s1.449,3.23,3.23,3.23s3.23-1.449,3.23-3.23
		S39.118,31.246,37.337,31.246z M37.337,36.707c-1.229,0-2.23-1.001-2.23-2.23s1.002-2.23,2.23-2.23c1.23,0,2.23,1.001,2.23,2.23
		S38.567,36.707,37.337,36.707z"/>
	<path fill="#414042" d="M45.841,30.017l-0.371-8.016c-0.006-0.112-0.047-0.219-0.121-0.304l-0.266-0.308l-0.527-4.945
		c-0.297-5.25-5.65-5.487-10.373-5.696l-20.355-0.438c-0.167,0-0.336,0.013-0.514,0.041l-3.736-0.041
		c-0.222-0.009-0.393,0.122-0.47,0.313s-0.029,0.41,0.121,0.551l1.179,1.11c-1.91,2.536-4.623,7.458-4.443,11.97
		c0.077,1.927,0.58,3.449,1.287,4.647C6.653,28.695,6.02,28.57,5.359,28.57c-0.871,0-1.709,0.188-2.491,0.558
		c-0.25,0.118-0.356,0.416-0.238,0.666c0.119,0.25,0.417,0.354,0.666,0.238c0.647-0.307,1.342-0.462,2.063-0.462
		c2.41,0,4.475,1.797,4.804,4.18c0.034,0.251,0.249,0.432,0.494,0.432c0.023,0,0.046-0.001,0.069-0.005
		c0.273-0.037,0.465-0.29,0.427-0.563c-0.075-0.543-0.245-1.048-0.458-1.53c0.904,0.435,1.736,0.622,2.274,0.622l6.828,0.045
		c0.046,0.015,0.093,0.029,0.144,0.029c0.048,0,0.091-0.015,0.135-0.027l12.373,0.082h0.002c0.199,0,0.379-0.117,0.459-0.299
		c0.771-1.757,2.51-2.893,4.428-2.893c1.879,0,3.602,1.101,4.391,2.806c0.061,0.133,0.184,0.229,0.324,0.268
		c0.055,0.015,0.109,0.02,0.168,0.016c0.156,0.008,0.658,0.027,1.123,0.027c0.586,0,0.797-0.031,0.906-0.057
		C45.716,32.368,45.931,30.776,45.841,30.017z M34.138,11.747c4.719,0.208,9.174,0.406,9.422,4.779l0.547,5.125
		c0.005,0.053,0.04,0.095,0.062,0.143l-10.343,0.323v-6.914c0-0.276-0.223-0.5-0.5-0.5H15.191c-0.047,0-0.09,0.015-0.134,0.027
		c-1.414-1.368-3.205-1.458-4.199-1.374c0.39-0.548,0.757-1.011,1.069-1.357c1.069-0.635,1.51-0.688,1.89-0.688l19.649,0.406
		L34.138,11.747z M29.31,31.813l-5.582-0.037V15.703h9.097v6.448c-1.031,0.129-2.445,0.834-2.693,2.927L29.3,31.684
		C29.294,31.729,29.304,31.771,29.31,31.813z M10.146,14.427c0.079,0.02,0.16,0.026,0.241,0.004c0.049-0.013,3.011-0.22,4.188,1.229
		c0.033,0.04,0.076,0.064,0.116,0.091v6.75H7.039C7.382,19.55,8.791,16.576,10.146,14.427z M22.728,23.25
		c-0.055-0.021-0.112-0.035-0.174-0.035h-3.482c-0.276,0-0.5,0.224-0.5,0.5s0.224,0.5,0.5,0.5h3.482
		c0.062,0,0.119-0.015,0.174-0.035v1.548c-0.089-0.138-0.236-0.233-0.412-0.233h-2.375c-0.276,0-0.5,0.224-0.5,0.5v5.754
		l-3.75-0.025v-16.02h7.037V23.25z M20.441,26.494h1.875c0.176,0,0.323-0.096,0.412-0.233v5.509l-2.287-0.015V26.494z
		 M10.846,11.324l0.341,0.004c-0.048,0.054-0.101,0.116-0.152,0.175L10.846,11.324z M6.964,24.214
		c-0.009-0.238-0.003-0.479,0.003-0.72c0.013,0.001,0.023,0.007,0.036,0.007h7.688v8.215l-1.719-0.012
		C12.033,31.705,7.209,30.403,6.964,24.214z M44.028,31.728c-0.023,0.005-0.17,0.031-0.686,0.031c-0.307,0-0.629-0.009-0.85-0.017
		c-1.006-1.894-2.996-3.1-5.156-3.1c-2.203,0-4.209,1.241-5.201,3.189l-1.848-0.013c0.001-0.004,0.003-0.007,0.004-0.011
		l0.832-6.609c0.252-2.125,1.979-2.078,2.166-2.067c0.006,0,0.012-0.003,0.019-0.002c0.006,0,0.011,0.003,0.017,0.003
		s0.012,0,0.016,0L44.3,22.791c0.073-0.002,0.142-0.022,0.204-0.052l0.341,7.356C44.851,30.152,44.987,31.509,44.028,31.728z"/>
	<path fill="#414042" d="M10.886,19.781h0.875c0.264,0,0.482-0.205,0.499-0.468l0.186-2.928c0.015-0.239-0.142-0.456-0.373-0.516
		c-0.231-0.058-0.474,0.052-0.577,0.269c-0.021,0.042-0.508,1.072-1.088,2.999c-0.046,0.151-0.018,0.315,0.077,0.442
		C10.58,19.707,10.728,19.781,10.886,19.781z"/>
</g>
</svg>
