<?xml version="1.0" encoding="utf-8"?>
<!-- Generator: Adobe Illustrator 16.0.0, SVG Export Plug-In . SVG Version: 6.00 Build 0)  -->
<!DOCTYPE svg PUBLIC "-//W3C//DTD SVG 1.1//EN" "http://www.w3.org/Graphics/SVG/1.1/DTD/svg11.dtd">
<svg version="1.1" id="Layer_1" xmlns="http://www.w3.org/2000/svg" xmlns:xlink="http://www.w3.org/1999/xlink" x="0px" y="0px"
	 width="48px" height="48px" viewBox="0 0 48 48" enable-background="new 0 0 48 48" xml:space="preserve">
<g>
	<path fill="#414042" d="M46.644,25.539c-0.005-0.007-0.687-0.614-0.439-3.694c0.021-0.246-0.153-0.463-0.397-0.496l-5.053-0.699
		c-0.745-0.945-4.744-5.39-14.046-5.39c-6.771,0-10.741,2.477-14.602,4.886c-0.724,0.508-1.614,1.102-1.791,1.174
		c-0.575,0.237-2.03,0.813-3.093,1.015c-0.185,0.031-4.535,0.76-5.508,2.879c-0.05,0.082-1.223,2.046-0.016,4.395
		c0.07,0.138,0.206,0.231,0.36,0.249l3.18,0.351h0.928c0.273,1.449,1.543,2.55,3.071,2.55c1.568,0,2.858-1.163,3.083-2.669
		l21.614-0.269c0.003,0,0.005-0.002,0.008-0.002c0.1,1.636,1.448,2.939,3.11,2.939c1.685,0,3.055-1.343,3.116-3.015l0.194,0.002
		c0.62-0.014,6.069-0.195,6.301-2.598l0.175-1.158C46.868,25.799,46.813,25.634,46.644,25.539z M9.238,31.83
		c-1.215,0-2.202-0.986-2.202-2.201s0.987-2.202,2.202-2.202c1.214,0,2.202,0.987,2.202,2.202S10.453,31.83,9.238,31.83z
		 M37.053,31.83c-1.215,0-2.203-0.986-2.203-2.201s0.988-2.202,2.203-2.202c1.213,0,2.201,0.987,2.201,2.202
		S38.266,31.83,37.053,31.83z M40.359,28.816l-0.3-0.003c-0.361-1.329-1.566-2.314-3.007-2.314c-1.479,0-2.711,1.03-3.038,2.408
		c-0.03-0.005-0.06-0.016-0.092-0.013L12.32,29.162c-0.228-1.504-1.516-2.663-3.082-2.663c-1.607,0-2.919,1.222-3.094,2.782
		l-0.853,0.003l-2.874-0.32c-0.435-0.979-0.37-1.845-0.217-2.451h1.263c0.256,0,0.463-0.208,0.463-0.464
		c0-0.257-0.207-0.465-0.463-0.465H2.578c0.724-1.384,3.689-2.154,4.806-2.336c1.118-0.213,2.539-0.763,3.286-1.072
		c0.353-0.145,1.596-1.009,1.949-1.256c3.729-2.327,7.584-4.732,14.09-4.732c9.673,0,13.374,5.111,13.412,5.162
		c0.072,0.104,0.188,0.176,0.316,0.193l4.813,0.665c-0.012,0.203-0.014,0.38-0.018,0.564c-0.073-0.018-0.146-0.036-0.229-0.036
		c-0.447,0-0.783,0.277-0.783,0.645v0.373c0,0.368,0.336,0.644,0.783,0.644c0.105,0,0.202-0.018,0.292-0.046
		c0.044,0.346,0.104,0.628,0.175,0.866h-0.657c-0.257,0-0.465,0.208-0.465,0.464c0,0.257,0.208,0.465,0.465,0.465h1.018
		c0.018,0,0.032-0.008,0.049-0.01l-0.136,0.897C45.625,28.299,42.056,28.782,40.359,28.816z"/>
	<path fill="#414042" d="M26.596,17.507c-6.427,0-12.459,3.583-12.713,3.737c-0.178,0.107-0.263,0.32-0.207,0.521
		c0.055,0.2,0.238,0.339,0.446,0.339h21.596c0.22,0,0.407-0.152,0.454-0.366l0.348-1.622c0.041-0.189-0.039-0.383-0.202-0.488
		C34.143,18.223,32.045,17.508,26.596,17.507z M26.001,18.462l-0.669,2.715H16C18.107,20.161,21.979,18.608,26.001,18.462z
		 M35.342,21.177h-9.056l0.677-2.74c5.146,0.035,6.924,0.761,8.582,1.798L35.342,21.177z"/>
</g>
</svg>
