<?xml version="1.0" encoding="utf-8"?>
<!-- Generator: Adobe Illustrator 16.0.0, SVG Export Plug-In . SVG Version: 6.00 Build 0)  -->
<!DOCTYPE svg PUBLIC "-//W3C//DTD SVG 1.1//EN" "http://www.w3.org/Graphics/SVG/1.1/DTD/svg11.dtd">
<svg version="1.1" id="Layer_1" xmlns="http://www.w3.org/2000/svg" xmlns:xlink="http://www.w3.org/1999/xlink" x="0px" y="0px"
	 width="48px" height="48px" viewBox="0 0 48 48" enable-background="new 0 0 48 48" xml:space="preserve">
<g>
	<path fill="#414042" d="M13.582,25.496h5.611c0.276,0,0.5-0.224,0.5-0.499v-3.828c0-0.27-0.215-0.491-0.484-0.5l-2.723-0.083
		c-1.289,0-1.932,0.896-2.412,1.821l-0.957,2.407c-0.061,0.152-0.042,0.326,0.051,0.464C13.261,25.414,13.416,25.496,13.582,25.496z
		 M14.982,22.823c0.478-0.914,0.871-1.237,1.488-1.237l2.223,0.068v2.844h-4.375L14.982,22.823z"/>
	<path fill="#414042" d="M42.919,12.55H23.324c-0.894,0-1.621,0.727-1.621,1.62v0.894h-7.863c-0.276,0-0.5,0.224-0.5,0.5v2.802
		c0,0.042,0.014,0.08,0.024,0.119c-0.525,0.373-0.968,0.919-1.357,1.667l-1.907,4.346H5.443c-1.091,0-1.979,0.885-1.979,1.975v4.105
		c0,1.091,0.888,1.979,1.979,1.979h1.338c0.002,0,0.004-0.001,0.007-0.001c0.258,1.645,1.673,2.911,3.39,2.911
		c1.727,0,3.147-1.282,3.393-2.942l10.012,0.032c0.001,0,0.001,0,0.002,0c0.044,0,0.085-0.015,0.126-0.025h6.679
		c0.26,1.645,1.676,2.91,3.392,2.91s3.131-1.266,3.39-2.91h5.749c0.893,0,1.619-0.727,1.619-1.619V14.17
		C44.538,13.277,43.812,12.55,42.919,12.55z M14.339,16.064h7.363V17.9c-0.039-0.01-0.076-0.024-0.118-0.024l-6.422-0.009
		c-0.294,0.024-0.565,0.079-0.823,0.155V16.064z M4.464,30.578v-0.669c0.003,0,0.005,0.001,0.008,0.001
		c0.481,0,0.844-0.299,0.844-0.695v-0.4c0-0.396-0.362-0.695-0.844-0.695c-0.003,0-0.005,0.001-0.008,0.001v-1.647
		c0-0.539,0.438-0.977,0.979-0.977h4.982c0.198,0,0.378-0.117,0.458-0.299l2.024-4.613c0.592-1.135,1.269-1.633,2.294-1.718
		l6.381,0.01h0.001c0.042,0,0.08-0.014,0.119-0.024v12.06c0,0.227,0.048,0.442,0.133,0.639l-8.265-0.026
		c-0.244-1.661-1.666-2.944-3.393-2.944c-1.739,0-3.166,1.3-3.396,2.977c0,0,0,0,0,0H5.443C4.903,31.557,4.464,31.117,4.464,30.578z
		 M10.177,34.467c-1.348,0-2.443-1.096-2.443-2.443s1.096-2.443,2.443-2.443s2.443,1.096,2.443,2.443S11.525,34.467,10.177,34.467z
		 M33.78,34.441c-1.348,0-2.445-1.096-2.445-2.443s1.098-2.443,2.445-2.443s2.443,1.096,2.443,2.443S35.128,34.441,33.78,34.441z
		 M43.538,30.912c0,0.342-0.277,0.619-0.619,0.619h-5.742c-0.23-1.677-1.658-2.977-3.396-2.977s-3.167,1.3-3.398,2.977h-7.058
		c-0.343,0-0.621-0.277-0.621-0.619V18.367v-2.802V14.17c0-0.342,0.278-0.62,0.621-0.62h19.595c0.342,0,0.619,0.277,0.619,0.62
		V30.912z"/>
</g>
</svg>
