<?xml version="1.0" encoding="utf-8"?>
<!-- Generator: Adobe Illustrator 16.0.0, SVG Export Plug-In . SVG Version: 6.00 Build 0)  -->
<!DOCTYPE svg PUBLIC "-//W3C//DTD SVG 1.1//EN" "http://www.w3.org/Graphics/SVG/1.1/DTD/svg11.dtd">
<svg version="1.1" id="Layer_1" xmlns="http://www.w3.org/2000/svg" xmlns:xlink="http://www.w3.org/1999/xlink" x="0px" y="0px"
	 width="48px" height="48px" viewBox="0 0 48 48" enable-background="new 0 0 48 48" xml:space="preserve">
<g>
	<path fill="#414042" d="M45.975,11.809c-11.414-9.515-22.036-0.082-22.142,0.014c-0.205,0.186-0.22,0.502-0.034,0.707
		c0.186,0.204,0.503,0.219,0.706,0.033c0.013-0.012,0.184-0.163,0.492-0.4v3.036h-6.986c0.002-0.019,0.011-0.036,0.011-0.056
		l-0.011-3.445c0.747-0.069,1.333-0.698,1.333-1.462c0-0.81-0.659-1.469-1.469-1.469h-2.688c-0.81,0-1.469,0.659-1.469,1.469
		c0,0.787,0.622,1.432,1.348,1.464l-0.045,3.438c0,0.021,0.009,0.04,0.012,0.061h-4.818c-2.064,0-3.504,3.869-3.504,7.342
		c0,3.502,1,6.21,2.485,7.06L1.943,39.663c-0.13,0.18-0.126,0.424,0.011,0.6c0.097,0.125,0.244,0.193,0.395,0.193
		c0.063,0,0.125-0.012,0.185-0.035l7.004-2.783c0.183-0.074,0.306-0.246,0.314-0.441l0.208-4.379
		c0.196,0.095,0.414,0.152,0.646,0.152h13.901c-0.277,0.61-0.427,1.272-0.427,1.953c0,2.602,2.118,4.719,4.72,4.719
		s4.719-2.117,4.719-4.719c0-0.681-0.151-1.343-0.429-1.953h2.114c-0.278,0.61-0.428,1.272-0.428,1.953
		c0,2.602,2.117,4.719,4.721,4.719c2.602,0,4.719-2.117,4.719-4.719c0-0.687-0.155-1.349-0.436-1.96
		c0.795-0.035,1.434-0.689,1.434-1.493v-0.721c0-0.914-0.203-1.392-0.555-1.635V12.126c0.191,0.149,0.383,0.291,0.574,0.451
		c0.094,0.078,0.207,0.116,0.32,0.116c0.143,0,0.285-0.061,0.383-0.18C46.215,12.301,46.186,11.985,45.975,11.809z M43.76,28.884
		H25.998V11.749H43.76V28.884z M24.997,28.884h-4.762c0-0.011,0.006-0.019,0.006-0.029V16.198h4.756V28.884z M14.054,16.198h5.188
		v12.656c0,0.011,0.005,0.019,0.006,0.029h-5.199c0-0.011,0.006-0.019,0.006-0.029V16.198z M15.631,10.752l-0.442-0.048
		c-0.259,0-0.469-0.21-0.469-0.469c0-0.258,0.21-0.469,0.469-0.469h2.688c0.259,0,0.469,0.211,0.469,0.469
		c0,0.258-0.21,0.469-0.53,0.473l-0.365,0.045c-0.251,0.031-0.439,0.245-0.438,0.498l0.012,3.895c0,0.019,0.009,0.035,0.011,0.053
		h-1.021c0.002-0.017,0.01-0.031,0.01-0.048l0.051-3.895C16.076,11,15.886,10.782,15.631,10.752z M7.712,22.54
		c0-3.356,1.4-6.342,2.504-6.342h2.838v12.656c0,0.011,0.005,0.019,0.006,0.029h-2.844C9.012,28.884,7.712,26.458,7.712,22.54z
		 M7.24,34.024l-1.674,4.033c-0.012,0.029-0.011,0.059-0.017,0.088l-1.793,0.713L7.24,34.024z M6.823,37.64l2.267-5.462
		l-0.222,4.649L6.823,37.64z M32.619,34.923c0,2.049-1.668,3.719-3.719,3.719s-3.719-1.67-3.719-3.719
		c0-0.696,0.197-1.365,0.56-1.953h6.314C32.419,33.557,32.619,34.227,32.619,34.923z M39.598,38.642
		c-2.053,0-3.721-1.67-3.721-3.719c0-0.696,0.198-1.366,0.563-1.953h6.311c0.364,0.587,0.566,1.253,0.566,1.953
		C43.316,36.972,41.648,38.642,39.598,38.642z M44.314,31.47c0,0.275-0.225,0.5-0.5,0.5H10.706c-0.275,0-0.5-0.225-0.5-0.5v-0.721
		c0-0.865,0.363-0.865,0.5-0.865h14.792h18.318c0.432,0,0.498,0,0.498,0.865V31.47z M27.166,10.749
		c3.257-1.811,9.139-3.813,15.581,0H27.166z"/>
	<path fill="#414042" d="M29.033,20.548h11.496c0.275,0,0.5-0.224,0.5-0.5v-5.813c0-0.276-0.225-0.5-0.5-0.5H29.033
		c-0.277,0-0.5,0.224-0.5,0.5v5.813C28.533,20.324,28.756,20.548,29.033,20.548z M40.029,19.548h-4.748v-4.813h4.748V19.548z
		 M29.533,14.735h4.748v4.813h-4.748V14.735z"/>
	<path fill="#414042" d="M13.483,33.091c-1.808,0-3.277,1.469-3.277,3.275c0,1.805,1.47,3.275,3.277,3.275
		c1.806,0,3.275-1.471,3.275-3.275C16.759,34.56,15.289,33.091,13.483,33.091z M13.483,38.642c-1.256,0-2.277-1.021-2.277-2.275
		c0-1.256,1.021-2.275,2.277-2.275c1.255,0,2.275,1.02,2.275,2.275C15.759,37.62,14.738,38.642,13.483,38.642z"/>
	<path fill="#414042" d="M20.257,33.091c-1.806,0-3.275,1.469-3.275,3.275c0,1.805,1.47,3.275,3.275,3.275s3.275-1.471,3.275-3.275
		C23.532,34.56,22.063,33.091,20.257,33.091z M20.257,38.642c-1.255,0-2.275-1.021-2.275-2.275c0-1.256,1.021-2.275,2.275-2.275
		s2.275,1.02,2.275,2.275C22.532,37.62,21.512,38.642,20.257,38.642z"/>
</g>
</svg>
