<?xml version="1.0" encoding="utf-8"?>
<!-- Generator: Adobe Illustrator 16.0.0, SVG Export Plug-In . SVG Version: 6.00 Build 0)  -->
<!DOCTYPE svg PUBLIC "-//W3C//DTD SVG 1.1//EN" "http://www.w3.org/Graphics/SVG/1.1/DTD/svg11.dtd">
<svg version="1.1" id="Layer_1" xmlns="http://www.w3.org/2000/svg" xmlns:xlink="http://www.w3.org/1999/xlink" x="0px" y="0px"
	 width="48px" height="48px" viewBox="0 0 48 48" enable-background="new 0 0 48 48" xml:space="preserve">
<g>
	<path fill="#414042" d="M45.81,30.309H2.679c-0.276,0-0.5,0.224-0.5,0.5s0.224,0.5,0.5,0.5h43.13c0.275,0,0.5-0.224,0.5-0.5
		S46.085,30.309,45.81,30.309z"/>
	<path fill="#414042" d="M44.925,28.877c0.764,0,1.385-0.62,1.383-1.414l-0.514-8.37c0-0.763-0.621-1.384-1.385-1.384h-5.33
		l-0.854-0.854c-0.094-0.094-0.221-0.146-0.354-0.146h-5c-0.133,0-0.26,0.053-0.354,0.146l-0.854,0.854h-8.837l-0.854-0.854
		c-0.094-0.094-0.221-0.146-0.354-0.146h-4.793c-0.133,0-0.26,0.053-0.354,0.146l-0.854,0.854l-1.389,0.007l-0.414-0.003
		c-1.127,0-2.841,0.187-4.714,1.805L2.66,25.234c-0.137,0.142-1.325,1.414-0.859,2.512c0.322,0.761,1.268,1.131,2.89,1.131H44.925z
		 M2.721,27.356c-0.149-0.351,0.304-1.06,0.63-1.4l6.411-5.686c1.598-1.38,3.006-1.556,4.055-1.556l0.414,0.003l1.599-0.008
		c0.132,0,0.259-0.053,0.352-0.146l0.854-0.853h4.379l0.854,0.853c0.094,0.094,0.221,0.146,0.354,0.146h9.251
		c0.133,0,0.26-0.053,0.354-0.146l0.854-0.853h4.586l0.854,0.853c0.094,0.094,0.221,0.146,0.354,0.146h5.537
		c0.213,0,0.385,0.172,0.385,0.416l0.516,8.37c0,0.211-0.172,0.383-0.385,0.383H4.69C3.069,27.877,2.773,27.479,2.721,27.356z"/>
	<path fill="#414042" d="M8.496,25.191h8.75c0.276,0,0.5-0.223,0.5-0.498v-2.999c0-0.276-0.224-0.5-0.5-0.5h-5.326
		c-0.121,0-0.238,0.044-0.329,0.124l-3.424,2.998c-0.157,0.137-0.212,0.357-0.139,0.552C8.101,25.063,8.288,25.191,8.496,25.191z
		 M12.107,22.195h4.639v1.999h-6.92L12.107,22.195z"/>
	<path fill="#414042" d="M19.892,25.191h6c0.277,0,0.5-0.223,0.5-0.498v-2.999c0-0.276-0.223-0.5-0.5-0.5h-6
		c-0.276,0-0.5,0.223-0.5,0.5v2.999C19.392,24.969,19.616,25.191,19.892,25.191z M20.392,22.195h5v1.999h-5V22.195z"/>
	<path fill="#414042" d="M28.435,25.191h6c0.275,0,0.5-0.223,0.5-0.498v-2.999c0-0.276-0.225-0.5-0.5-0.5h-6
		c-0.275,0-0.5,0.223-0.5,0.5v2.999C27.935,24.969,28.159,25.191,28.435,25.191z M28.935,22.195h5v1.999h-5V22.195z"/>
	<path fill="#414042" d="M36.978,25.191h5.998c0.277,0,0.5-0.223,0.5-0.498v-2.999c0-0.276-0.223-0.5-0.5-0.5h-5.998
		c-0.277,0-0.5,0.223-0.5,0.5v2.999C36.478,24.969,36.7,25.191,36.978,25.191z M37.478,22.195h4.998v1.999h-4.998V22.195z"/>
</g>
</svg>
