<?xml version="1.0" encoding="utf-8"?>
<!-- Generator: Adobe Illustrator 16.0.0, SVG Export Plug-In . SVG Version: 6.00 Build 0)  -->
<!DOCTYPE svg PUBLIC "-//W3C//DTD SVG 1.1//EN" "http://www.w3.org/Graphics/SVG/1.1/DTD/svg11.dtd">
<svg version="1.1" id="Layer_1" xmlns="http://www.w3.org/2000/svg" xmlns:xlink="http://www.w3.org/1999/xlink" x="0px" y="0px"
	 width="48px" height="48px" viewBox="0 0 48 48" enable-background="new 0 0 48 48" xml:space="preserve">
<g>
	<path fill="#414042" d="M44.879,16.03l-1.583,0.106l0.351-1.703c0.055-0.27-0.119-0.534-0.389-0.589
		c-0.268-0.054-0.535,0.117-0.59,0.388l-0.363,1.762c-0.017-0.012-0.028-0.028-0.047-0.038l-1.52-0.779
		c-0.246-0.126-0.547-0.029-0.674,0.217c-0.125,0.246-0.027,0.547,0.217,0.673l1.52,0.779c0.074,0.037,0.152,0.054,0.229,0.054
		c0.033,0,0.062-0.02,0.094-0.026l-0.168,0.816c-0.025,0.127,0.003,0.251,0.063,0.354h-0.485c-0.102,0-0.201,0.032-0.285,0.09
		l-3.494,2.423l-15.64,0c-0.322-1.162-1.396-1.996-2.613-1.996h-1.374v-0.821c0.049,0.016,0.1,0.027,0.153,0.027
		c0.028,0,0.056-0.002,0.084-0.006l14.362-2.417c0.271-0.046,0.455-0.304,0.41-0.576c-0.047-0.272-0.309-0.451-0.576-0.41
		l-14.362,2.416c-0.026,0.004-0.047,0.019-0.071,0.027V15.83c0-0.276-0.224-0.5-0.5-0.5s-0.5,0.223-0.5,0.5v0.88L3.172,14.362
		c-0.266-0.04-0.53,0.138-0.576,0.41s0.138,0.53,0.41,0.576l14.121,2.376v0.84h-1.322c-1.419,0-2.573,1.096-2.694,2.482
		c-3.238,0.797-4.978,2.514-4.978,5.003c0,3.081,2.075,4.433,4.279,5.025c0.001,0.02-0.004,0.038-0.001,0.058l0.385,2.05H10.05
		l-1.765-1.44c-0.213-0.175-0.529-0.143-0.704,0.072c-0.174,0.213-0.143,0.528,0.071,0.703l1.903,1.553
		c0.09,0.072,0.201,0.112,0.316,0.112h13.843c0.276,0,0.5-0.224,0.5-0.5s-0.224-0.5-0.5-0.5h-4.051l0.384-2.05
		c0.006-0.032-0.001-0.063-0.001-0.095c3.335-1.048,5.926-3.568,6.244-5.792l10.512-1.098h2.734c0.164,0,0.32-0.082,0.412-0.218
		l3.477-5.102c0.104-0.153,0.115-0.352,0.029-0.516c-0.088-0.164-0.258-0.267-0.443-0.267h-0.138
		c0.027-0.046,0.049-0.097,0.06-0.153l0.159-0.771c0.037,0.009,0.074,0.022,0.114,0.022c0.012,0,0.023,0,0.035,0l1.705-0.116
		c0.275-0.019,0.482-0.256,0.465-0.532C45.395,16.219,45.156,16.024,44.879,16.03z M15.805,19.564h3.696
		c0.67,0,1.254,0.409,1.533,0.997h-4.167c-0.985,0.038-1.887,0.132-2.714,0.273C14.352,20.105,15.013,19.564,15.805,19.564z
		 M20.063,29.965c-1.008,0.359-2.088,0.575-3.176,0.575c-0.85,0-1.619-0.041-2.324-0.115v-8.651
		c0.775-0.117,1.565-0.185,2.324-0.214h3.198c-0.009,0.037-0.022,0.072-0.022,0.111V29.965z M13.563,21.957v5.74H9.439
		c-0.202-0.485-0.306-1.031-0.306-1.646C9.133,23.656,11.152,22.492,13.563,21.957z M10.085,28.696h3.478v1.592
		C11.961,30.005,10.812,29.479,10.085,28.696z M18.647,33.183h-4.833L13.46,31.3c1.369,0.235,2.67,0.24,3.427,0.24
		c0.72,0,1.425-0.087,2.111-0.229L18.647,33.183z M39.271,23.149l-2.521,0.001l-10.979,1.145c-0.254,0.026-0.447,0.241-0.447,0.497
		c0,1.615-1.811,3.588-4.261,4.752v-7.874c0-0.04-0.014-0.075-0.022-0.111h16.87c0.102,0,0.201-0.031,0.285-0.089l3.494-2.425h0.377
		L39.271,23.149z"/>
	<path fill="#414042" d="M17.833,23.394h-0.948c-0.725,0-1.314,0.59-1.314,1.315v2.675c0,0.724,0.59,1.313,1.314,1.313h0.948
		c0.725,0,1.313-0.589,1.313-1.313v-2.675C19.147,23.984,18.558,23.394,17.833,23.394z M18.147,27.384
		c0,0.173-0.141,0.313-0.313,0.313h-0.948c-0.174,0-0.314-0.14-0.314-0.313v-2.675c0-0.173,0.141-0.314,0.314-0.314h0.948
		c0.173,0,0.313,0.142,0.313,0.314V27.384z"/>
</g>
</svg>
