<?xml version="1.0" encoding="utf-8"?>
<!-- Generator: Adobe Illustrator 16.0.0, SVG Export Plug-In . SVG Version: 6.00 Build 0)  -->
<!DOCTYPE svg PUBLIC "-//W3C//DTD SVG 1.1//EN" "http://www.w3.org/Graphics/SVG/1.1/DTD/svg11.dtd">
<svg version="1.1" id="Layer_1" xmlns="http://www.w3.org/2000/svg" xmlns:xlink="http://www.w3.org/1999/xlink" x="0px" y="0px"
	 width="48px" height="48px" viewBox="0 0 48 48" enable-background="new 0 0 48 48" xml:space="preserve">
<path fill="#414042" d="M37.502,21.061c-1.492,0-2.884,0.428-4.07,1.157l-3.229-4.59c-0.002-0.003-0.005-0.004-0.007-0.007
	c-0.017-0.023-0.041-0.039-0.061-0.058l1.063-2.912c0.042-0.115,0.032-0.233-0.007-0.34h2.747c0.275,0,0.5-0.224,0.5-0.5
	c0-0.276-0.225-0.5-0.5-0.5h-6.584c-0.277,0-0.5,0.224-0.5,0.5c0,0.276,0.223,0.5,0.5,0.5h2.903l-1.101,3.012l-12.58-1.751
	l0.441-1.061l2.126,1.063c0.072,0.035,0.148,0.053,0.224,0.053c0.183,0,0.359-0.102,0.447-0.276
	c0.123-0.248,0.023-0.548-0.224-0.671l-2.188-1.095l0.068-0.164c0.075-0.181,0.032-0.378-0.089-0.517
	c0.016-0.034,0.02-0.075,0.041-0.105c0.197-0.286,0.596-0.413,0.813-0.454l2.471,0.837c0.262,0.088,0.546-0.053,0.634-0.313
	c0.089-0.262-0.052-0.545-0.313-0.634l-2.583-0.875c-0.065-0.023-0.136-0.032-0.204-0.025c-0.11,0.01-1.095,0.116-1.634,0.886
	c-0.27,0.384-0.362,0.85-0.295,1.382l-3.282,7.886c-0.795-0.273-1.645-0.429-2.531-0.429c-4.308,0-7.813,3.504-7.813,7.812
	s3.505,7.813,7.813,7.813s7.813-3.505,7.813-7.813c0-3.066-1.781-5.719-4.359-6.996l1.483-3.564l7.147,9.675
	c-0.599,0.602-0.97,1.43-0.97,2.343c0,1.834,1.491,3.326,3.323,3.326c0.14,0,0.273-0.024,0.409-0.041l0.315,1.115l-1.005,0.289
	c-0.266,0.076-0.419,0.354-0.343,0.619c0.063,0.219,0.263,0.361,0.48,0.361c0.046,0,0.092-0.006,0.138-0.02l1.484-0.426
	c0.264-0.076,0.418-0.352,0.344-0.616l-0.448-1.588c0.104-0.048,0.202-0.105,0.3-0.163l3.778-1.1
	c1.229,2.707,3.95,4.598,7.112,4.598c4.307,0,7.813-3.505,7.813-7.813S41.809,21.061,37.502,21.061z M17.313,28.872
	c0,3.756-3.056,6.813-6.813,6.813s-6.813-3.057-6.813-6.813S6.744,22.06,10.5,22.06c0.75,0,1.471,0.127,2.147,0.352l-2.609,6.269
	c-0.105,0.254,0.015,0.547,0.27,0.652c0.063,0.027,0.128,0.039,0.192,0.039c0.195,0,0.382-0.115,0.462-0.309l2.607-6.265
	C15.787,23.924,17.313,26.221,17.313,28.872z M30.689,28.872c0-0.221,0.013-0.438,0.033-0.653l5.874,0.237l0.458,0.65l-6.065,1.764
	C30.795,30.238,30.689,29.567,30.689,28.872z M30.899,27.225c0.359-1.44,1.172-2.704,2.286-3.618l2.687,3.819L30.899,27.225z
	 M29.879,27.183l-3.211-0.13l3.057-8.367l2.887,4.104C31.252,23.884,30.269,25.422,29.879,27.183z M25.242,28.037l-0.244,0.667
	l-0.193-0.684c0.045-0.003,0.087-0.014,0.133-0.014C25.042,28.007,25.142,28.024,25.242,28.037z M26.034,32.367l-0.57-2.019
	l0.721-1.973c0.646,0.413,1.077,1.132,1.077,1.953C27.262,31.213,26.761,31.975,26.034,32.367z M16.181,16.525l12.625,1.757
	l-3.189,8.728l-0.096-0.004c-0.073-0.002-0.143,0.013-0.206,0.038c-0.125-0.015-0.248-0.038-0.377-0.038
	c-0.14,0-0.273,0.024-0.408,0.041l-0.317-1.119l1.005-0.287c0.266-0.076,0.418-0.353,0.342-0.617
	c-0.076-0.267-0.35-0.419-0.619-0.345l-1.482,0.425c-0.265,0.076-0.418,0.352-0.344,0.616l0.45,1.592
	c-0.059,0.026-0.111,0.061-0.168,0.091l-7.512-10.168L16.181,16.525z M24.938,32.655c-1.281,0-2.323-1.043-2.323-2.326
	c0-0.583,0.223-1.109,0.579-1.518l1.287,1.741l0.591,2.089C25.026,32.645,24.984,32.655,24.938,32.655z M27.925,31.762
	c0.209-0.436,0.337-0.917,0.337-1.433c0-0.868-0.343-1.653-0.89-2.246l2.353,0.095c-0.021,0.229-0.035,0.46-0.035,0.694
	c0,0.792,0.12,1.557,0.341,2.277L27.925,31.762z M37.502,35.685c-2.707,0-5.041-1.59-6.14-3.88l6.278-1.827
	c0.086-0.025,0.164-0.073,0.227-0.139c0.494-0.527,0.521-0.994,0.457-1.291c-0.146-0.682-0.863-0.996-0.943-1.03
	c-0.055-0.022-0.113-0.035-0.172-0.038l-0.078-0.003l-3.124-4.441c1.023-0.615,2.216-0.976,3.495-0.976
	c3.756,0,6.813,3.056,6.813,6.812S41.258,35.685,37.502,35.685z"/>
</svg>
