<?xml version="1.0" encoding="utf-8"?>
<!-- Generator: Adobe Illustrator 16.0.0, SVG Export Plug-In . SVG Version: 6.00 Build 0)  -->
<!DOCTYPE svg PUBLIC "-//W3C//DTD SVG 1.1//EN" "http://www.w3.org/Graphics/SVG/1.1/DTD/svg11.dtd">
<svg version="1.1" id="Layer_1" xmlns="http://www.w3.org/2000/svg" xmlns:xlink="http://www.w3.org/1999/xlink" x="0px" y="0px"
	 width="48px" height="48px" viewBox="0 0 48 48" enable-background="new 0 0 48 48" xml:space="preserve">
<g>
	<path fill="#414042" d="M40.037,22.704h1.353c1.379,0,2.5-1.122,2.5-2.5v-0.639c0.008-1,0.016-2.244-0.605-2.87
		c-0.236-0.239-0.547-0.365-0.895-0.365h-6.588c-0.064,0-0.127,0.012-0.186,0.035l-2.412,0.964h-9.066c-1.379,0-2.5,1.122-2.5,2.5
		v0.375c0,1.378,1.121,2.5,2.5,2.5h1.226c0.555,1.161,1.699,4.163,0.94,5.424c-0.221,0.369-0.615,0.558-1.189,0.576h-6.241
		c-0.644-0.52-3.889-3.578-2.976-11.519c0.213-0.336,0.345-0.539,0.352-0.549c0.039-0.06,0.063-0.125,0.074-0.19
		c0.328-0.242,0.592-0.561,0.771-0.931l3.123,1.19c0.059,0.022,0.118,0.033,0.178,0.033c0.201,0,0.392-0.123,0.467-0.322
		c0.099-0.258-0.03-0.547-0.289-0.646l-3.234-1.232c0.001-0.034,0.01-0.065,0.01-0.099v-0.25c0-0.272-0.055-0.529-0.135-0.774
		l2.542-1.6c0.233-0.146,0.304-0.456,0.156-0.689c-0.147-0.234-0.456-0.302-0.689-0.157l-2.505,1.577
		c-0.458-0.521-1.122-0.856-1.869-0.856h-2c-0.195,0-0.372,0.113-0.454,0.29c-0.038,0.083-0.935,2.075-0.017,4.629
		c0.071,0.198,0.26,0.331,0.471,0.331h2c0.008,0,0.016-0.002,0.024-0.002c-1.064,1.692-3.36,5.494-3.822,7.513
		c-0.038,0.168,0.02,0.329,0.128,0.446c-0.822-0.273-1.723-0.377-2.681-0.3c-2.707,0.219-4.915,1.399-6.218,3.324
		c-0.039,0.058-0.065,0.122-0.078,0.189c-0.02,0.11-0.178,1.09,0.486,1.726c0.304,0.292,0.724,0.432,1.231,0.449
		c-0.238,0.589-0.366,1.21-0.366,1.857c0,2.748,2.236,4.984,4.984,4.984s4.984-2.236,4.984-4.984c0-0.093-0.021-0.183-0.026-0.274
		c0.417,0.327,0.954,0.707,1.566,1.026c0.036,0.02,0.076,0.035,0.118,0.046c0.04,0.01,0.08,0.015,0.121,0.015
		c0.003,0,0.007,0,0.01,0h17.033c0.395,2.37,2.446,4.172,4.896,4.172c2.448,0,4.5-1.802,4.894-4.172h3.2
		c0.145,0,0.283-0.063,0.377-0.173c0.096-0.11,0.139-0.256,0.117-0.399C45.779,32.056,44.728,25.277,40.037,22.704z M22.638,20.204
		v-0.375c0-0.827,0.673-1.5,1.5-1.5h9.164c0.063,0,0.127-0.012,0.186-0.036l2.41-0.964h6.492c0.096,0,0.143,0.028,0.186,0.07
		c0.328,0.331,0.32,1.475,0.314,2.159v0.646c0,0.828-0.674,1.5-1.5,1.5H24.138C23.311,21.704,22.638,21.031,22.638,20.204z
		 M13.209,15.938c-0.439-1.485-0.177-2.713-0.012-3.25h1.649c0.827,0,1.5,0.673,1.5,1.5v0.25c0,0.828-0.673,1.5-1.5,1.5H13.209z
		 M8.536,36.126c-2.197,0-3.984-1.787-3.984-3.984c0-0.611,0.135-1.197,0.4-1.742c0.04-0.082,0.048-0.168,0.042-0.253
		c0.015-0.008,0.033-0.011,0.047-0.02c0.169-0.106,4.022-2.465,7.219,0.623c0.167,0.444,0.261,0.91,0.261,1.392
		C12.521,34.339,10.733,36.126,8.536,36.126z M13.36,30.435c-0.09-0.102-0.184-0.182-0.275-0.274
		c-0.031-0.042-0.065-0.076-0.105-0.105c-3.469-3.399-7.744-1.19-8.39-0.821c-0.573,0.119-1.001,0.078-1.209-0.117
		c-0.213-0.201-0.217-0.566-0.206-0.734c1.139-1.611,3.052-2.6,5.401-2.789c1.621-0.131,3.001,0.314,4.089,1.318
		c1.154,1.066,1.907,2.757,2.091,4.639C13.933,30.999,13.361,30.435,13.36,30.435z M37.239,36.126c-1.903,0-3.508-1.358-3.888-3.172
		h7.771C40.744,34.768,39.141,36.126,37.239,36.126z M15.788,31.954c-0.109-2.346-0.986-4.431-2.445-5.777
		c-0.524-0.484-1.116-0.856-1.759-1.123c0.208-0.021,0.391-0.166,0.439-0.381c0.318-1.386,1.649-3.806,2.734-5.63
		c-0.301,7.865,3.5,10.466,3.675,10.58c0.081,0.053,0.177,0.081,0.273,0.081h6.424c1.174-0.037,1.754-0.598,2.031-1.061
		c0.941-1.564-0.047-4.397-0.617-5.752h11.174c4.918,1.065,6.6,7.152,7.01,9.063H15.788z"/>
	<path fill="#414042" d="M34.306,25.238c-0.256,0-0.518,0.008-0.766,0.022c-0.164,0-1.623,0.033-2.41,1.16
		c-0.592,0.848-0.613,2.043-0.061,3.553c0.072,0.197,0.26,0.328,0.471,0.328h9.387c0.008,0,0.014,0,0.02,0
		c0.275,0,0.5-0.224,0.5-0.5c0-0.095-0.027-0.184-0.072-0.259C41.136,28.741,39.782,25.238,34.306,25.238z M31.897,29.302
		c-0.322-1.021-0.305-1.795,0.051-2.307c0.504-0.724,1.582-0.734,1.621-0.735c4.576-0.259,6.16,1.939,6.658,3.042H31.897z"/>
</g>
</svg>
