<?xml version="1.0" encoding="utf-8"?>
<!-- Generator: Adobe Illustrator 16.0.0, SVG Export Plug-In . SVG Version: 6.00 Build 0)  -->
<!DOCTYPE svg PUBLIC "-//W3C//DTD SVG 1.1//EN" "http://www.w3.org/Graphics/SVG/1.1/DTD/svg11.dtd">
<svg version="1.1" id="Layer_1" xmlns="http://www.w3.org/2000/svg" xmlns:xlink="http://www.w3.org/1999/xlink" x="0px" y="0px"
	 width="48px" height="48px" viewBox="0 0 48 48" enable-background="new 0 0 48 48" xml:space="preserve">
<g>
	<path fill="#414042" d="M20.43,25.722c-0.276,0-0.5,0.224-0.5,0.5v4.5c0,0.276,0.224,0.5,0.5,0.5s0.5-0.224,0.5-0.5v-4.5
		C20.93,25.945,20.707,25.722,20.43,25.722z"/>
	<path fill="#414042" d="M46.535,22.54l-2.422-3.1l0.768-3.461c0,0,0,0,0,0l0.795-0.264c0.262-0.087,0.402-0.371,0.316-0.632
		c-0.088-0.262-0.367-0.404-0.633-0.317l-9.541,3.174c-0.059,0.02-0.113,0.049-0.16,0.088c-2.583,2.124-4.947,2.109-5.829,2.008
		c-0.005-0.042-0.006-0.088-0.015-0.124c-0.047-0.183-0.191-0.325-0.377-0.366c-1.057-0.234-2.611-2.697-3.344-4.194
		c-0.068-0.139-0.197-0.239-0.35-0.27c-8.092-1.649-10.552,3.122-10.653,3.325c-0.032,0.064-0.047,0.132-0.05,0.199
		c-0.39-0.29-0.75-0.722-1.045-1.261l4.097-4.164h3.089c0.276,0,0.5-0.224,0.5-0.5c0-0.277-0.224-0.5-0.5-0.5h-3.299
		c-0.134,0-0.263,0.054-0.356,0.149l-3.954,4.019c-0.037-0.115-0.079-0.227-0.11-0.346c-0.409-1.568-0.265-3.567,1.365-4.481
		c0.211-0.117,0.307-0.369,0.229-0.597c-0.078-0.228-0.302-0.364-0.547-0.333c-0.249,0.037-6.118,0.997-7.73,9.44
		c-0.027,0.142,0.009,0.288,0.097,0.401c0.089,0.113,0.222,0.183,0.365,0.192c0.186,0.011,2.242,0.161,4.433,1.392
		c-0.13,0.042-0.244,0.133-0.304,0.269l-0.821,1.838c-0.729-0.264-1.511-0.416-2.33-0.416c-3.783,0-6.861,3.078-6.861,6.861
		c0,3.784,3.078,6.863,6.861,6.863c3.784,0,6.863-3.079,6.863-6.863c0-2.61-1.466-4.883-3.617-6.042l0.818-1.833
		c0.042-0.094,0.043-0.193,0.027-0.287c2.508,1.652,4.974,4.83,4.825,10.945c-0.003,0.135,0.048,0.266,0.143,0.361
		c0.094,0.098,0.223,0.151,0.357,0.151h12.625c0.199,0,0.379-0.118,0.459-0.302c0.078-0.184,0.041-0.396-0.096-0.541
		c-0.015-0.016-0.666-0.715-1.453-1.846l2.262,1.043c0.049,0.023,0.102,0.037,0.156,0.043l1.032,0.107
		c0.806,2.95,3.511,5.063,6.601,5.063c3.783,0,6.863-3.079,6.863-6.863c0-3.783-3.08-6.861-6.863-6.861
		c-3.119,0-5.794,2.072-6.606,5.058l-1.065,0.052l-2.64,0.484l1.839-5.031c2.521-0.362,5.434-2.214,5.953-2.556l6.675-1.593
		l2.37,3.034c0.1,0.126,0.246,0.192,0.395,0.192c0.107,0,0.217-0.035,0.307-0.106C46.668,23.071,46.707,22.757,46.535,22.54z
		 M14.084,30.567c0,3.233-2.63,5.863-5.863,5.863c-3.232,0-5.861-2.63-5.861-5.863c0-3.231,2.629-5.861,5.861-5.861
		c0.674,0,1.318,0.12,1.921,0.33L8.891,27.84c-0.215-0.053-0.438-0.089-0.669-0.089c-1.553,0-2.816,1.264-2.816,2.816
		c0,1.554,1.264,2.818,2.816,2.818c1.554,0,2.818-1.265,2.818-2.818c0-0.965-0.489-1.817-1.232-2.325l1.25-2.801
		C12.86,26.442,14.084,28.364,14.084,30.567z M8.017,31.023c0.066,0.03,0.136,0.044,0.204,0.044c0.191,0,0.374-0.11,0.457-0.296
		l0.708-1.587c0.396,0.334,0.653,0.826,0.653,1.383c0,1.003-0.815,1.818-1.818,1.818c-1.002,0-1.816-0.815-1.816-1.818
		c0-1.001,0.814-1.816,1.816-1.816c0.086,0,0.168,0.014,0.251,0.025l-0.708,1.587C7.652,30.615,7.765,30.911,8.017,31.023z
		 M15.988,18.85c0.021-0.043,2.165-4.194,9.319-2.834c0.441,0.86,1.922,3.568,3.451,4.337c-0.01,0.013-0.02,0.027-0.029,0.041
		c-0.248,0.312-1.217,1.038-4.904,0.98c-0.003,0-0.006,0-0.008,0c-0.019,0-0.034,0.008-0.052,0.01
		c-2.437-1.715-5.817-2.375-7.667-2.375c-0.07,0-0.14-0.02-0.21-0.03C15.926,18.941,15.963,18.901,15.988,18.85z M18.144,32.862
		c0.013-10.785-8.036-12.813-10.273-13.167c0.99-4.47,3.267-6.501,4.912-7.41c-0.553,1.087-0.674,2.487-0.286,3.97
		c0.108,0.414,0.256,0.795,0.422,1.157c0.008,0.023,0.019,0.044,0.031,0.067c0.724,1.53,1.912,2.53,3.148,2.53
		c2.932,0,8.716,1.626,9.462,5.544c0.611,3.199,2.549,5.974,3.617,7.309H18.144z M39.223,24.707c3.232,0,5.863,2.629,5.863,5.861
		c0,3.233-2.631,5.863-5.863,5.863c-2.507,0-4.718-1.63-5.523-3.952l3.939,0.408c0.469,0.321,1.011,0.499,1.584,0.499
		c0.379,0,0.746-0.075,1.091-0.222l2.108,0.219c0.018,0.002,0.035,0.003,0.053,0.003c0.158,0,0.311-0.076,0.404-0.208
		c1.402-1.941,0.734-3.916,0.184-4.689c-0.098-0.139-0.246-0.223-0.432-0.209l-1.692,0.082c-0.027-0.033-0.052-0.068-0.089-0.095
		c-0.998-0.706-2.443-0.663-3.396,0.109c-0.056,0.045-0.099,0.101-0.129,0.16l-3.644,0.177
		C34.474,26.336,36.669,24.707,39.223,24.707z M31.666,29.807l10.711-0.514c0.248,0.486,0.689,1.704-0.15,3.064l-10.451-1.084
		l-2.301-1.061L31.666,29.807z M36.385,20.762c-0.059,0.013-0.113,0.038-0.162,0.071c-0.033,0.022-3.355,2.244-5.883,2.479
		c-0.191,0.018-0.357,0.145-0.424,0.327l-2.001,5.475c-0.589-1.116-1.114-2.396-1.372-3.746c-0.227-1.192-0.814-2.185-1.612-3.005
		c2.386-0.075,3.931-0.524,4.583-1.348c0.003-0.004,0.005-0.008,0.008-0.012c0.211,0.032,0.519,0.065,0.926,0.065
		c1.297,0,3.473-0.346,5.773-2.208l7.554-2.512l-0.62,2.8L36.385,20.762z"/>
</g>
</svg>
