<?xml version="1.0" encoding="utf-8"?>
<!-- Generator: Adobe Illustrator 16.0.0, SVG Export Plug-In . SVG Version: 6.00 Build 0)  -->
<!DOCTYPE svg PUBLIC "-//W3C//DTD SVG 1.1//EN" "http://www.w3.org/Graphics/SVG/1.1/DTD/svg11.dtd">
<svg version="1.1" id="Layer_1" xmlns="http://www.w3.org/2000/svg" xmlns:xlink="http://www.w3.org/1999/xlink" x="0px" y="0px"
	 width="48px" height="48px" viewBox="0 0 48 48" enable-background="new 0 0 48 48" xml:space="preserve">
<path fill="#414042" d="M37.346,23.352c-0.135-0.293-0.428-0.482-0.748-0.482h-5.979V11.454c0-0.451-0.367-0.819-0.818-0.819H18.203
	c-0.452,0-0.82,0.368-0.82,0.819V22.87h-5.979c-0.324,0-0.618,0.192-0.749,0.488c-0.13,0.296-0.075,0.64,0.153,0.895l12.575,12.849
	c0.152,0.178,0.377,0.28,0.616,0.28c0.235,0,0.458-0.101,0.596-0.256l12.611-12.89C37.422,23.997,37.477,23.652,37.346,23.352z
	 M24.001,36.305L11.832,23.87h6.051c0.276,0,0.5-0.224,0.5-0.5V11.636h11.236V23.37c0,0.276,0.223,0.5,0.5,0.5h6.049L24.001,36.305z
	"/>
</svg>
