<?xml version="1.0" encoding="utf-8"?>
<!-- Generator: Adobe Illustrator 16.0.0, SVG Export Plug-In . SVG Version: 6.00 Build 0)  -->
<!DOCTYPE svg PUBLIC "-//W3C//DTD SVG 1.1//EN" "http://www.w3.org/Graphics/SVG/1.1/DTD/svg11.dtd">
<svg version="1.1" id="Layer_1" xmlns="http://www.w3.org/2000/svg" xmlns:xlink="http://www.w3.org/1999/xlink" x="0px" y="0px"
	 width="48px" height="48px" viewBox="0 0 48 48" enable-background="new 0 0 48 48" xml:space="preserve">
<path fill="#414042" d="M37.193,23.756l-12.58-12.857c-0.311-0.35-0.949-0.323-1.207-0.018L10.794,23.772
	c-0.214,0.239-0.269,0.583-0.139,0.878c0.131,0.297,0.425,0.488,0.749,0.488h5.979v11.416c0,0.451,0.368,0.818,0.82,0.818h11.597
	c0.451,0,0.818-0.367,0.818-0.818V25.139h5.979c0.32,0,0.613-0.189,0.75-0.488C37.477,24.356,37.422,24.011,37.193,23.756z
	 M30.119,24.139c-0.277,0-0.5,0.224-0.5,0.5v11.734H18.383V24.639c0-0.276-0.224-0.5-0.5-0.5h-6.05l12.167-12.437L36.17,24.139
	H30.119z"/>
</svg>
