<?xml version="1.0" encoding="utf-8"?>
<!-- Generator: Adobe Illustrator 16.0.0, SVG Export Plug-In . SVG Version: 6.00 Build 0)  -->
<!DOCTYPE svg PUBLIC "-//W3C//DTD SVG 1.1//EN" "http://www.w3.org/Graphics/SVG/1.1/DTD/svg11.dtd">
<svg version="1.1" id="Layer_1" xmlns="http://www.w3.org/2000/svg" xmlns:xlink="http://www.w3.org/1999/xlink" x="0px" y="0px"
	 width="48px" height="48px" viewBox="0 0 48 48" enable-background="new 0 0 48 48" xml:space="preserve">
<path fill="#414042" d="M36.558,17.393H25.142v-5.979c0-0.32-0.19-0.613-0.49-0.75c-0.291-0.128-0.634-0.08-0.895,0.155
	L10.901,23.397c-0.175,0.154-0.274,0.378-0.274,0.613c0,0.239,0.103,0.464,0.256,0.594l12.891,12.611
	c0.15,0.135,0.344,0.208,0.546,0.208c0.115,0,0.228-0.023,0.334-0.07c0.296-0.13,0.489-0.425,0.489-0.749v-5.979h11.416
	c0.451,0,0.818-0.367,0.818-0.82V18.211C37.376,17.76,37.009,17.393,36.558,17.393z M36.376,29.625H24.64
	c-0.276,0-0.5,0.225-0.5,0.5v6.051L11.704,24.01L24.14,11.842v6.05c0,0.276,0.224,0.5,0.5,0.5h11.736V29.625z"/>
</svg>
