<?xml version="1.0" encoding="utf-8"?>
<!-- Generator: Adobe Illustrator 16.0.0, SVG Export Plug-In . SVG Version: 6.00 Build 0)  -->
<!DOCTYPE svg PUBLIC "-//W3C//DTD SVG 1.1//EN" "http://www.w3.org/Graphics/SVG/1.1/DTD/svg11.dtd">
<svg version="1.1" id="Layer_1" xmlns="http://www.w3.org/2000/svg" xmlns:xlink="http://www.w3.org/1999/xlink" x="0px" y="0px"
	 width="48px" height="48px" viewBox="0 0 48 48" enable-background="new 0 0 48 48" xml:space="preserve">
<path fill="#414042" d="M37.121,23.414L24.225,10.799c-0.237-0.208-0.567-0.27-0.884-0.133c-0.293,0.134-0.481,0.428-0.481,0.748
	v5.979H11.446c-0.452,0-0.82,0.367-0.82,0.818v11.594c0,0.453,0.368,0.82,0.82,0.82H22.86v5.979c0,0.324,0.191,0.619,0.49,0.75
	c0.106,0.047,0.218,0.07,0.332,0.07c0.199,0,0.393-0.074,0.563-0.225l12.857-12.578c0.174-0.155,0.275-0.377,0.275-0.612
	C37.377,23.779,37.279,23.557,37.121,23.414z M23.86,36.178v-6.053c0-0.275-0.224-0.5-0.5-0.5H11.625V18.392H23.36
	c0.276,0,0.5-0.223,0.5-0.5v-6.051l12.439,12.168L23.86,36.178z"/>
</svg>
