<?xml version="1.0" encoding="utf-8"?>
<!-- Generator: Adobe Illustrator 16.0.0, SVG Export Plug-In . SVG Version: 6.00 Build 0)  -->
<!DOCTYPE svg PUBLIC "-//W3C//DTD SVG 1.1//EN" "http://www.w3.org/Graphics/SVG/1.1/DTD/svg11.dtd">
<svg version="1.1" id="Layer_1" xmlns="http://www.w3.org/2000/svg" xmlns:xlink="http://www.w3.org/1999/xlink" x="0px" y="0px"
	 width="48px" height="48px" viewBox="0 0 48 48" enable-background="new 0 0 48 48" xml:space="preserve">
<g>
	<path fill="#414042" d="M32.208,14.688c-1.031-1.342-2.338-2.227-3.881-2.63c-0.953-0.257-2.738-0.375-5.622-0.375h-7.964
		c-0.276,0-0.5,0.223-0.5,0.5v23.653c0,0.276,0.224,0.5,0.5,0.5h6.136c0.276,0,0.5-0.224,0.5-0.5v-7.781h1.537
		c2.127,0,3.723-0.112,4.887-0.344c0.949-0.208,1.887-0.628,2.781-1.251c0.928-0.646,1.697-1.532,2.287-2.638
		c0.592-1.112,0.891-2.469,0.891-4.033C33.761,17.743,33.239,16.027,32.208,14.688z M31.987,23.352
		c-0.514,0.965-1.178,1.732-1.975,2.285c-0.787,0.549-1.604,0.917-2.416,1.095c-1.09,0.217-2.623,0.322-4.682,0.322h-2.037
		c-0.276,0-0.5,0.224-0.5,0.5v7.781h-5.136V12.682h7.464c2.717,0,4.52,0.115,5.366,0.343c1.326,0.347,2.451,1.111,3.344,2.273
		c0.893,1.16,1.346,2.67,1.346,4.49C32.761,21.187,32.501,22.385,31.987,23.352z"/>
	<path fill="#414042" d="M25.298,17.244c-0.508-0.096-1.561-0.144-3.131-0.144h-1.289c-0.276,0-0.5,0.224-0.5,0.5v4.523
		c0,0.276,0.224,0.5,0.5,0.5h1.573c1.665,0,2.833-0.11,3.378-0.319c0.525-0.206,0.926-0.516,1.223-0.949
		c0.295-0.435,0.439-0.929,0.439-1.509c0-0.707-0.207-1.292-0.613-1.739C26.464,17.648,25.931,17.357,25.298,17.244z M26.226,20.792
		c-0.182,0.265-0.424,0.449-0.758,0.58c-0.154,0.059-0.828,0.252-3.017,0.252h-1.073V18.1h0.789c1.979,0,2.694,0.079,2.952,0.127
		c0.426,0.076,0.748,0.25,1.02,0.551c0.24,0.265,0.354,0.605,0.354,1.068C26.491,20.226,26.405,20.526,26.226,20.792z"/>
</g>
</svg>
