<?xml version="1.0" encoding="utf-8"?>
<!-- Generator: Adobe Illustrator 16.0.0, SVG Export Plug-In . SVG Version: 6.00 Build 0)  -->
<!DOCTYPE svg PUBLIC "-//W3C//DTD SVG 1.1//EN" "http://www.w3.org/Graphics/SVG/1.1/DTD/svg11.dtd">
<svg version="1.1" id="Layer_1" xmlns="http://www.w3.org/2000/svg" xmlns:xlink="http://www.w3.org/1999/xlink" x="0px" y="0px"
	 width="48px" height="48px" viewBox="0 0 48 48" enable-background="new 0 0 48 48" xml:space="preserve">
<path fill="#414042" d="M34.272,19.398l-7.844-7.717c-0.119-0.108-0.273-0.168-0.434-0.168c-0.07,0-0.199,0.027-0.262,0.056
	c-0.232,0.104-0.383,0.335-0.383,0.59v4.031h-2.238c-5.282,0-9.58,4.34-9.58,9.673v10.141c0,0.276,0.224,0.5,0.5,0.5h6.344
	c0.276,0,0.5-0.224,0.5-0.5V25.863c0-1.284,1.003-2.33,2.236-2.33h2.238v4.033c0,0.254,0.15,0.484,0.383,0.588
	c0.064,0.028,0.191,0.056,0.262,0.056c0.16,0,0.314-0.06,0.447-0.182l7.803-7.678c0.143-0.122,0.225-0.3,0.225-0.488
	C34.47,19.673,34.388,19.495,34.272,19.398z M26.351,26.718v-3.684c0-0.276-0.225-0.5-0.5-0.5h-2.738
	c-1.784,0-3.236,1.493-3.236,3.329v9.641h-5.344v-9.641c0-4.782,3.849-8.673,8.58-8.673h2.738c0.275,0,0.5-0.224,0.5-0.5v-3.683
	l6.969,6.854L26.351,26.718z"/>
</svg>
