<?xml version="1.0" encoding="utf-8"?>
<!-- Generator: Adobe Illustrator 16.0.0, SVG Export Plug-In . SVG Version: 6.00 Build 0)  -->
<!DOCTYPE svg PUBLIC "-//W3C//DTD SVG 1.1//EN" "http://www.w3.org/Graphics/SVG/1.1/DTD/svg11.dtd">
<svg version="1.1" id="Layer_1" xmlns="http://www.w3.org/2000/svg" xmlns:xlink="http://www.w3.org/1999/xlink" x="0px" y="0px"
	 width="48px" height="48px" viewBox="0 0 48 48" enable-background="new 0 0 48 48" xml:space="preserve">
<path fill="#414042" d="M24.888,16.19h-2.235v-4.031c0-0.255-0.15-0.486-0.383-0.59c-0.064-0.028-0.192-0.056-0.262-0.056
	c-0.161,0-0.314,0.06-0.448,0.182l-7.802,7.678c-0.144,0.122-0.226,0.3-0.226,0.489c0,0.188,0.082,0.367,0.198,0.463l7.844,7.716
	c0.119,0.108,0.272,0.168,0.434,0.168c0.069,0,0.198-0.027,0.262-0.056c0.232-0.104,0.383-0.334,0.383-0.588v-4.033h2.235
	c1.236,0,2.238,1.045,2.238,2.33v10.141c0,0.276,0.225,0.5,0.5,0.5h6.344c0.277,0,0.5-0.224,0.5-0.5V25.863
	C34.47,20.53,30.173,16.19,24.888,16.19z M33.47,35.504h-5.344v-9.641c0-1.836-1.451-3.329-3.238-3.329h-2.735
	c-0.276,0-0.5,0.223-0.5,0.5v3.683l-6.969-6.854l6.969-6.857v3.684c0,0.276,0.224,0.5,0.5,0.5h2.735
	c4.734,0,8.582,3.891,8.582,8.673V35.504z"/>
</svg>
