<?xml version="1.0" encoding="utf-8"?>
<!-- Generator: Adobe Illustrator 16.0.0, SVG Export Plug-In . SVG Version: 6.00 Build 0)  -->
<!DOCTYPE svg PUBLIC "-//W3C//DTD SVG 1.1//EN" "http://www.w3.org/Graphics/SVG/1.1/DTD/svg11.dtd">
<svg version="1.1" id="Layer_1" xmlns="http://www.w3.org/2000/svg" xmlns:xlink="http://www.w3.org/1999/xlink" x="0px" y="0px"
	 width="48px" height="48px" viewBox="0 0 48 48" enable-background="new 0 0 48 48" xml:space="preserve">
<path fill="#414042" d="M25.841,10.154c-5.333,0-9.673,4.298-9.673,9.58v10.01h-3.031c-0.258,0-0.49,0.153-0.587,0.379
	c-0.107,0.232-0.064,0.508,0.123,0.713l6.674,6.797c0.121,0.146,0.301,0.23,0.493,0.23s0.372-0.084,0.464-0.199l6.717-6.842
	c0.174-0.191,0.217-0.467,0.115-0.688c-0.104-0.237-0.334-0.391-0.592-0.391h-3.033v-10.01c0-1.232,1.045-2.234,2.33-2.234
	c1.283,0,2.326,1.002,2.326,2.234v8.51c0,0.276,0.225,0.5,0.5,0.5h6.344c0.277,0,0.5-0.224,0.5-0.5v-8.51
	C35.511,14.452,31.173,10.154,25.841,10.154z M34.511,27.744h-5.344v-8.01c0-1.783-1.492-3.234-3.326-3.234
	c-1.835,0-3.33,1.451-3.33,3.234v10.51c0,0.276,0.224,0.5,0.5,0.5h2.685l-5.856,5.967l-5.858-5.967h2.686c0.276,0,0.5-0.224,0.5-0.5
	v-10.51c0-4.731,3.891-8.58,8.673-8.58c4.781,0,8.67,3.849,8.67,8.58V27.744z"/>
</svg>
