<?xml version="1.0" encoding="utf-8"?>
<!-- Generator: Adobe Illustrator 16.0.0, SVG Export Plug-In . SVG Version: 6.00 Build 0)  -->
<!DOCTYPE svg PUBLIC "-//W3C//DTD SVG 1.1//EN" "http://www.w3.org/Graphics/SVG/1.1/DTD/svg11.dtd">
<svg version="1.1" id="Layer_1" xmlns="http://www.w3.org/2000/svg" xmlns:xlink="http://www.w3.org/1999/xlink" x="0px" y="0px"
	 width="48px" height="48px" viewBox="0 0 48 48" enable-background="new 0 0 48 48" xml:space="preserve">
<path fill="#414042" d="M35.459,30.135c-0.104-0.237-0.336-0.391-0.594-0.391h-3.033v-10.01c0-5.282-4.338-9.58-9.671-9.58
	c-5.333,0-9.672,4.298-9.672,9.58v8.51c0,0.276,0.224,0.5,0.5,0.5h6.344c0.276,0,0.5-0.224,0.5-0.5v-8.51
	c0-1.232,1.044-2.234,2.328-2.234s2.328,1.002,2.328,2.234v10.01h-3.031c-0.258,0-0.49,0.153-0.587,0.379
	c-0.107,0.232-0.064,0.508,0.123,0.713l6.674,6.797c0.121,0.146,0.301,0.23,0.492,0.23c0.201,0,0.387-0.09,0.465-0.199l6.719-6.842
	C35.518,30.631,35.561,30.355,35.459,30.135z M28.164,36.713l-5.861-5.969h2.686c0.277,0,0.5-0.224,0.5-0.5v-10.51
	c0-1.783-1.493-3.234-3.328-3.234s-3.328,1.451-3.328,3.234v8.01h-5.344v-8.01c0-4.731,3.891-8.58,8.672-8.58
	c4.781,0,8.671,3.849,8.671,8.58v10.51c0,0.276,0.225,0.5,0.5,0.5h2.688L28.164,36.713z"/>
</svg>
