<?xml version="1.0" encoding="utf-8"?>
<!-- Generator: Adobe Illustrator 16.0.0, SVG Export Plug-In . SVG Version: 6.00 Build 0)  -->
<!DOCTYPE svg PUBLIC "-//W3C//DTD SVG 1.1//EN" "http://www.w3.org/Graphics/SVG/1.1/DTD/svg11.dtd">
<svg version="1.1" id="Layer_1" xmlns="http://www.w3.org/2000/svg" xmlns:xlink="http://www.w3.org/1999/xlink" x="0px" y="0px"
	 width="48px" height="48px" viewBox="0 0 48 48" enable-background="new 0 0 48 48" xml:space="preserve">
<path fill="#414042" d="M41.088,19.919l-7.865-8.739c-0.189-0.172-0.463-0.215-0.695-0.112c-0.232,0.104-0.383,0.335-0.383,0.59
	v4.031H29.91c-2.166,0-4.619,1.402-5.904,2.88c-1.241-1.458-3.722-2.88-5.914-2.88h-2.236v-4.031c0-0.255-0.15-0.486-0.383-0.59
	c-0.233-0.104-0.506-0.061-0.71,0.126l-7.795,7.674c-0.147,0.121-0.231,0.3-0.231,0.493c0,0.193,0.084,0.373,0.198,0.464
	l7.843,7.717c0.189,0.172,0.462,0.215,0.695,0.112c0.232-0.104,0.383-0.334,0.383-0.588v-4.033h2.236
	c1.109,0,2.236,1.938,2.236,3.33v10.141c0,0.276,0.224,0.5,0.5,0.5h6.345c0.275,0,0.5-0.224,0.5-0.5V26.363
	c0-1.393,1.127-3.33,2.236-3.33h2.234v4.033c0,0.254,0.15,0.484,0.383,0.588c0.232,0.103,0.506,0.06,0.684-0.103l7.834-6.707
	c0.141-0.122,0.221-0.299,0.221-0.484C41.266,20.176,41.186,20,41.088,19.919z M33.145,26.294v-3.761c0-0.276-0.225-0.5-0.5-0.5
	H29.91c-1.877,0-3.236,2.587-3.236,4.33v9.641h-5.345v-9.641c0-1.743-1.359-4.33-3.236-4.33h-2.736c-0.276,0-0.5,0.224-0.5,0.5
	v3.684l-6.968-6.854l6.968-6.857v3.684c0,0.276,0.224,0.5,0.5,0.5h2.736c2.076,0,4.588,1.553,5.469,2.952
	c0.049,0.089,0.125,0.164,0.218,0.21c0.199,0.1,0.44,0.056,0.593-0.109c0.032-0.036,0.06-0.076,0.08-0.117
	c0.951-1.4,3.4-2.936,5.458-2.936h2.734c0.275,0,0.5-0.224,0.5-0.5v-3.604l6.969,7.742L33.145,26.294z"/>
</svg>
