<?xml version="1.0" encoding="utf-8"?>
<!-- Generator: Adobe Illustrator 16.0.0, SVG Export Plug-In . SVG Version: 6.00 Build 0)  -->
<!DOCTYPE svg PUBLIC "-//W3C//DTD SVG 1.1//EN" "http://www.w3.org/Graphics/SVG/1.1/DTD/svg11.dtd">
<svg version="1.1" id="Layer_1" xmlns="http://www.w3.org/2000/svg" xmlns:xlink="http://www.w3.org/1999/xlink" x="0px" y="0px"
	 width="48px" height="48px" viewBox="0 0 48 48" enable-background="new 0 0 48 48" xml:space="preserve">
<path fill="#414042" d="M34.571,15.16l-4.939-5.033c-0.113-0.137-0.283-0.214-0.463-0.214c-0.135,0-0.344,0.088-0.438,0.185
	l-4.975,5.071c-0.164,0.174-0.209,0.431-0.11,0.662c0.098,0.217,0.315,0.357,0.556,0.357h2.118v6.595l-6.043,0.009v-2.856
	c0-0.241-0.148-0.466-0.385-0.565c-0.198-0.075-0.497-0.015-0.646,0.129l-5.771,5.68c-0.136,0.113-0.217,0.287-0.217,0.464
	c0,0.134,0.091,0.343,0.187,0.437l5.81,5.715c0.166,0.157,0.467,0.205,0.673,0.107c0.212-0.101,0.349-0.316,0.349-0.55v-2.859h4.49
	c0.842,0,1.53,0.717,1.53,1.598v7.514c0,0.276,0.223,0.5,0.5,0.5h4.725c0.275,0,0.5-0.224,0.5-0.5V16.188h2.117
	c0.238,0,0.455-0.141,0.557-0.366C34.79,15.6,34.745,15.343,34.571,15.16z M31.521,15.188c-0.277,0-0.5,0.224-0.5,0.5v21.417h-3.725
	v-7.014c0-1.433-1.135-2.598-2.53-2.598h-4.99c-0.276,0-0.5,0.224-0.5,0.5v2.421l-4.85-4.771l4.85-4.771v2.42
	c0,0.133,0.053,0.26,0.146,0.354s0.221,0.146,0.354,0.146h0.001l7.042-0.012c0.275-0.001,0.5-0.225,0.5-0.5v-7.594
	c0-0.276-0.225-0.5-0.5-0.5h-1.682l4.029-4.109l4.031,4.109H31.521z"/>
</svg>
