<?xml version="1.0" encoding="utf-8"?>
<!-- Generator: Adobe Illustrator 16.0.0, SVG Export Plug-In . SVG Version: 6.00 Build 0)  -->
<!DOCTYPE svg PUBLIC "-//W3C//DTD SVG 1.1//EN" "http://www.w3.org/Graphics/SVG/1.1/DTD/svg11.dtd">
<svg version="1.1" id="Layer_1" xmlns="http://www.w3.org/2000/svg" xmlns:xlink="http://www.w3.org/1999/xlink" x="0px" y="0px"
	 width="48px" height="48px" viewBox="0 0 48 48" enable-background="new 0 0 48 48" xml:space="preserve">
<path fill="#414042" d="M34.558,25.207l-5.811-5.716c-0.158-0.147-0.441-0.198-0.643-0.117c-0.227,0.091-0.379,0.316-0.379,0.563
	v2.856l-6.042-0.009v-6.595H23.8c0.238,0,0.456-0.141,0.558-0.366c0.093-0.218,0.055-0.463-0.121-0.662l-4.941-5.033
	c-0.113-0.137-0.283-0.214-0.464-0.214c-0.134,0-0.341,0.088-0.435,0.185l-4.975,5.071c-0.165,0.174-0.21,0.431-0.111,0.662
	c0.098,0.217,0.315,0.357,0.554,0.357h2.117v21.416c0,0.276,0.224,0.5,0.5,0.5h4.725c0.276,0,0.5-0.224,0.5-0.5v-7.514
	c0-0.881,0.686-1.598,1.527-1.598h4.492v2.859c0,0.238,0.141,0.456,0.359,0.554c0.078,0.035,0.162,0.053,0.248,0.053
	c0.131,0,0.328-0.08,0.422-0.172l5.791-5.695c0.127-0.116,0.197-0.275,0.197-0.448C34.743,25.51,34.653,25.301,34.558,25.207z
	 M28.726,30.414v-2.421c0-0.276-0.225-0.5-0.5-0.5h-4.992c-1.394,0-2.527,1.165-2.527,2.598v7.014h-3.725V15.688
	c0-0.276-0.224-0.5-0.5-0.5h-1.679l4.028-4.108l4.033,4.108h-1.682c-0.276,0-0.5,0.224-0.5,0.5v7.594c0,0.275,0.224,0.499,0.499,0.5
	l7.042,0.012h0.002c0.133,0,0.26-0.053,0.354-0.146s0.146-0.221,0.146-0.354v-2.422l4.852,4.771L28.726,30.414z"/>
</svg>
