<?xml version="1.0" encoding="utf-8"?>
<!-- Generator: Adobe Illustrator 16.0.0, SVG Export Plug-In . SVG Version: 6.00 Build 0)  -->
<!DOCTYPE svg PUBLIC "-//W3C//DTD SVG 1.1//EN" "http://www.w3.org/Graphics/SVG/1.1/DTD/svg11.dtd">
<svg version="1.1" id="Layer_1" xmlns="http://www.w3.org/2000/svg" xmlns:xlink="http://www.w3.org/1999/xlink" x="0px" y="0px"
	 width="48px" height="48px" viewBox="0 0 48 48" enable-background="new 0 0 48 48" xml:space="preserve">
<g>
	<path fill="#414042" d="M43.417,40.145L24.423,7.25c-0.178-0.31-0.688-0.31-0.865,0L4.506,40.248c-0.09,0.156-0.09,0.346,0,0.5
		c0.089,0.156,0.254,0.25,0.433,0.25h38.105c0.008,0.002,0.016,0,0.02,0c0.277,0,0.5-0.223,0.5-0.5
		C43.563,40.359,43.509,40.234,43.417,40.145z M5.805,39.998L23.991,8.501l18.188,31.497H5.805z"/>
	<path fill="#414042" d="M23.558,17.944l-9.854,17.068c-0.09,0.156-0.09,0.346,0,0.5c0.089,0.156,0.254,0.25,0.433,0.25h19.71
		c0.008,0.002,0.016,0,0.02,0c0.277,0,0.5-0.223,0.5-0.5c0-0.139-0.055-0.264-0.146-0.354l-9.796-16.964
		C24.246,17.634,23.736,17.634,23.558,17.944z M32.981,34.762H15.002l8.988-15.567L32.981,34.762z"/>
</g>
</svg>
