<?xml version="1.0" encoding="utf-8"?>
<!-- Generator: Adobe Illustrator 16.0.0, SVG Export Plug-In . SVG Version: 6.00 Build 0)  -->
<!DOCTYPE svg PUBLIC "-//W3C//DTD SVG 1.1//EN" "http://www.w3.org/Graphics/SVG/1.1/DTD/svg11.dtd">
<svg version="1.1" id="Layer_1" xmlns="http://www.w3.org/2000/svg" xmlns:xlink="http://www.w3.org/1999/xlink" x="0px" y="0px"
	 width="48px" height="48px" viewBox="0 0 48 48" enable-background="new 0 0 48 48" xml:space="preserve">
<g>
	<path fill="#414042" d="M45.169,24.011c0-11.672-9.496-21.168-21.169-21.168c-5.755,0-10.974,2.316-14.793,6.056
		c-0.033,0.02-0.069,0.035-0.098,0.064c-0.02,0.02-0.029,0.044-0.045,0.066c-3.846,3.835-6.229,9.135-6.229,14.982
		c0,11.669,9.495,21.164,21.166,21.164c5.729,0,10.925-2.296,14.741-6.005c0.016-0.012,0.033-0.018,0.048-0.031
		c0.01-0.01,0.013-0.021,0.021-0.032C42.729,35.264,45.169,29.919,45.169,24.011z M44.169,24.011c0,5.464-2.192,10.42-5.735,14.055
		L24.649,24.05L38.473,9.996C41.991,13.628,44.169,18.566,44.169,24.011z M37.754,9.301L23.947,23.337L10.192,9.352
		C13.804,5.947,18.656,3.843,24,3.843C29.317,3.843,34.146,5.926,37.754,9.301z M3.833,24.011c0-5.417,2.158-10.332,5.645-13.958
		L23.246,24.05L9.516,38.008C6.006,34.378,3.833,29.446,3.833,24.011z M10.234,38.705l13.713-13.942l13.764,13.994
		c-3.603,3.351-8.414,5.418-13.711,5.418C18.676,44.175,13.842,42.086,10.234,38.705z"/>
	<path fill="#414042" d="M9.925,23.338c0.412,0,0.734,0.056,0.963,0.167c0.23,0.111,0.467,0.327,0.711,0.647
		c0.246,0.322,0.609,0.943,1.09,1.865l1.24,2.361h1.549l-1.625-3.09c-0.279-0.53-0.602-1.013-0.969-1.447
		c-0.18-0.212-0.443-0.423-0.789-0.631c0.852-0.144,1.5-0.482,1.947-1.014c0.445-0.531,0.67-1.225,0.67-2.082
		c0-0.649-0.133-1.22-0.395-1.714c-0.264-0.492-0.602-0.845-1.012-1.056c-0.41-0.211-1.047-0.317-1.908-0.317H7.271v11.35h1.23
		v-5.041H9.925z M8.501,18.283h2.943c0.66,0,1.158,0.164,1.494,0.492c0.336,0.327,0.504,0.777,0.504,1.351
		c0,0.397-0.088,0.746-0.264,1.044c-0.176,0.3-0.414,0.52-0.713,0.658c-0.299,0.14-0.738,0.209-1.316,0.209H8.501V18.283z"/>
	<path fill="#414042" d="M36.899,17.029h-4.127v11.35h1.23v-5.041h1.424c0.412,0,0.734,0.056,0.963,0.167
		c0.23,0.111,0.467,0.327,0.711,0.647c0.246,0.322,0.609,0.943,1.09,1.865l1.24,2.361h1.549l-1.625-3.09
		c-0.279-0.53-0.602-1.013-0.969-1.447c-0.18-0.212-0.443-0.423-0.789-0.631c0.852-0.144,1.5-0.482,1.947-1.014
		c0.445-0.531,0.67-1.225,0.67-2.082c0-0.649-0.133-1.22-0.395-1.714c-0.264-0.492-0.602-0.845-1.012-1.056
		C38.397,17.135,37.761,17.029,36.899,17.029z M38.681,21.17c-0.176,0.3-0.414,0.52-0.713,0.658
		c-0.299,0.14-0.738,0.209-1.316,0.209h-2.648v-3.754h2.943c0.66,0,1.158,0.164,1.494,0.492c0.336,0.327,0.504,0.777,0.504,1.351
		C38.944,20.523,38.856,20.872,38.681,21.17z"/>
</g>
</svg>
