<?xml version="1.0" encoding="utf-8"?>
<!-- Generator: Adobe Illustrator 16.0.0, SVG Export Plug-In . SVG Version: 6.00 Build 0)  -->
<!DOCTYPE svg PUBLIC "-//W3C//DTD SVG 1.1//EN" "http://www.w3.org/Graphics/SVG/1.1/DTD/svg11.dtd">
<svg version="1.1" id="Layer_1" xmlns="http://www.w3.org/2000/svg" xmlns:xlink="http://www.w3.org/1999/xlink" x="0px" y="0px"
	 width="48px" height="48px" viewBox="0 0 48 48" enable-background="new 0 0 48 48" xml:space="preserve">
<g>
	<path fill="#414042" d="M43.758,15.619L32.391,4.253c-0.094-0.094-0.221-0.146-0.354-0.146H15.963c-0.133,0-0.26,0.053-0.354,0.146
		L4.245,15.619c-0.094,0.094-0.146,0.221-0.146,0.354v16.071c0,0.133,0.053,0.26,0.146,0.354L15.61,43.764
		c0.094,0.094,0.221,0.146,0.354,0.146h16.074c0.133,0,0.26-0.053,0.354-0.146l11.367-11.367c0.094-0.094,0.146-0.221,0.146-0.354
		V15.972C43.904,15.84,43.852,15.712,43.758,15.619z M42.904,31.836L31.83,42.91H16.17L5.098,31.836V16.18L16.17,5.107h15.66
		L42.904,16.18V31.836z"/>
	<path fill="#414042" d="M29.924,9.208H18.077c-0.133,0-0.26,0.053-0.354,0.146l-8.377,8.377C9.252,17.826,9.2,17.953,9.2,18.085
		V29.93c0,0.133,0.053,0.26,0.146,0.354l8.377,8.379c0.094,0.094,0.221,0.146,0.354,0.146h11.847c0.133,0,0.26-0.053,0.354-0.146
		l8.379-8.379c0.094-0.094,0.146-0.221,0.146-0.354V18.085c0-0.133-0.053-0.259-0.146-0.353l-8.379-8.377
		C30.184,9.261,30.057,9.208,29.924,9.208z M37.803,29.723l-8.086,8.086H18.284L10.2,29.723v-11.43l8.084-8.083h11.433l8.086,8.083
		V29.723z"/>
</g>
</svg>
