<?xml version="1.0" encoding="utf-8"?>
<!-- Generator: Adobe Illustrator 16.0.0, SVG Export Plug-In . SVG Version: 6.00 Build 0)  -->
<!DOCTYPE svg PUBLIC "-//W3C//DTD SVG 1.1//EN" "http://www.w3.org/Graphics/SVG/1.1/DTD/svg11.dtd">
<svg version="1.1" id="Layer_1" xmlns="http://www.w3.org/2000/svg" xmlns:xlink="http://www.w3.org/1999/xlink" x="0px" y="0px"
	 width="48px" height="48px" viewBox="0 0 48 48" enable-background="new 0 0 48 48" xml:space="preserve">
<path fill="#414042" d="M45.169,24.011c0-11.672-9.494-21.168-21.168-21.168c-4.968,0-9.532,1.732-13.146,4.608
	c-0.031,0.016-0.064,0.025-0.093,0.047c-0.021,0.017-0.032,0.04-0.05,0.06c-4.799,3.884-7.877,9.813-7.877,16.454
	c0,11.669,9.495,21.164,21.167,21.164c4.934,0,9.468-1.71,13.072-4.55c0.02-0.012,0.043-0.007,0.062-0.021
	c0.023-0.019,0.036-0.045,0.056-0.066C42.045,36.655,45.169,30.695,45.169,24.011z M3.833,24.011c0-6.172,2.793-11.698,7.175-15.401
	l6.374,8.001v6.257h-5.978c-0.325,0-0.619,0.191-0.751,0.49c-0.128,0.297-0.076,0.632,0.155,0.895L23.391,37.11
	c0.154,0.173,0.377,0.271,0.609,0.271c0.23,0,0.451-0.099,0.595-0.256l5.033-5.143l6.471,8.123
	c-3.375,2.542-7.557,4.068-12.098,4.068C12.88,44.175,3.833,35.129,3.833,24.011z M30.12,23.868h6.051l-6.467,6.608L18.382,16.264
	v-4.63H29.62v11.734C29.62,23.645,29.843,23.868,30.12,23.868z M29,31.195l-5,5.109l-12.17-12.437h6.052c0.276,0,0.5-0.223,0.5-0.5
	v-5.5L29,31.195z M36.894,39.5l-6.562-8.236l6.878-7.029c0.215-0.243,0.268-0.579,0.137-0.883c-0.133-0.293-0.426-0.484-0.748-0.484
	H30.62V11.454c0-0.453-0.367-0.82-0.82-0.82H18.203c-0.452,0-0.82,0.368-0.82,0.82v3.554l-5.588-7.015
	C15.188,5.401,19.411,3.843,24,3.843c11.122,0,20.168,9.047,20.168,20.168C44.169,30.23,41.335,35.799,36.894,39.5z"/>
</svg>
