<?xml version="1.0" encoding="utf-8"?>
<!-- Generator: Adobe Illustrator 16.0.0, SVG Export Plug-In . SVG Version: 6.00 Build 0)  -->
<!DOCTYPE svg PUBLIC "-//W3C//DTD SVG 1.1//EN" "http://www.w3.org/Graphics/SVG/1.1/DTD/svg11.dtd">
<svg version="1.1" id="Layer_1" xmlns="http://www.w3.org/2000/svg" xmlns:xlink="http://www.w3.org/1999/xlink" x="0px" y="0px"
	 width="48px" height="48px" viewBox="0 0 48 48" enable-background="new 0 0 48 48" xml:space="preserve">
<path fill="#414042" d="M45.169,24.011c0-11.672-9.494-21.168-21.168-21.168c-4.968,0-9.532,1.732-13.146,4.608
	c-0.031,0.016-0.064,0.025-0.093,0.047c-0.021,0.017-0.032,0.04-0.05,0.06c-4.799,3.884-7.877,9.813-7.877,16.454
	c0,11.669,9.495,21.164,21.167,21.164c4.934,0,9.468-1.71,13.072-4.55c0.02-0.012,0.043-0.007,0.062-0.021
	c0.023-0.019,0.036-0.045,0.056-0.066C42.045,36.655,45.169,30.695,45.169,24.011z M3.833,24.011c0-6.172,2.793-11.698,7.175-15.401
	l6.566,8.243l-6.78,6.93c-0.215,0.239-0.27,0.584-0.14,0.879c0.131,0.296,0.426,0.486,0.75,0.486h5.978v11.416
	c0,0.451,0.368,0.818,0.82,0.818H29.8c0.453,0,0.82-0.367,0.82-0.818v-3.334l5.479,6.877c-3.375,2.542-7.557,4.068-12.098,4.068
	C12.88,44.175,3.833,35.129,3.833,24.011z M29.62,24.649v5.721L18.905,16.92L24,11.712l12.169,12.437H30.12
	C29.843,24.149,29.62,24.373,29.62,24.649z M29.62,31.974v4.408H18.382V24.649c0-0.277-0.224-0.5-0.5-0.5h-6.049l6.368-6.51
	L29.62,31.974z M36.894,39.5l-6.273-7.874v-6.479h5.979c0.322,0,0.615-0.189,0.75-0.486c0.129-0.296,0.074-0.642-0.156-0.895
	L24.612,10.909c-0.311-0.35-0.939-0.327-1.206-0.018l-5.127,5.241l-6.484-8.139C15.188,5.401,19.411,3.843,24,3.843
	c11.122,0,20.168,9.047,20.168,20.168C44.169,30.23,41.335,35.799,36.894,39.5z"/>
</svg>
