<?xml version="1.0" encoding="utf-8"?>
<!-- Generator: Adobe Illustrator 16.0.0, SVG Export Plug-In . SVG Version: 6.00 Build 0)  -->
<!DOCTYPE svg PUBLIC "-//W3C//DTD SVG 1.1//EN" "http://www.w3.org/Graphics/SVG/1.1/DTD/svg11.dtd">
<svg version="1.1" id="Layer_1" xmlns="http://www.w3.org/2000/svg" xmlns:xlink="http://www.w3.org/1999/xlink" x="0px" y="0px"
	 width="48px" height="48px" viewBox="0 0 48 48" enable-background="new 0 0 48 48" xml:space="preserve">
<path fill="#414042" d="M45.169,24.011c0-11.672-9.494-21.168-21.167-21.168c-4.968,0-9.533,1.732-13.147,4.608
	c-0.031,0.016-0.064,0.025-0.092,0.047c-0.021,0.017-0.032,0.04-0.049,0.059c-4.8,3.884-7.879,9.814-7.879,16.455
	c0,11.669,9.496,21.164,21.168,21.164c4.934,0,9.467-1.71,13.071-4.55c0.02-0.012,0.043-0.007,0.062-0.021
	c0.023-0.019,0.036-0.044,0.056-0.066C42.045,36.656,45.169,30.695,45.169,24.011z M3.833,24.011c0-6.172,2.793-11.699,7.175-15.401
	l6.573,8.251l-6.681,6.536c-0.175,0.154-0.274,0.378-0.274,0.614c0,0.238,0.103,0.463,0.256,0.593l12.891,12.611
	c0.15,0.135,0.344,0.209,0.546,0.209c0.115,0,0.228-0.023,0.334-0.07c0.296-0.131,0.489-0.425,0.489-0.749v-5.979h3.405l7.552,9.48
	c-3.375,2.542-7.556,4.068-12.097,4.068C12.88,44.175,3.833,35.129,3.833,24.011z M24.64,18.393h11.736v11.233h-7.349L18.926,16.944
	l5.214-5.102v6.051C24.14,18.169,24.364,18.393,24.64,18.393z M27.75,29.626h-3.11c-0.276,0-0.5,0.224-0.5,0.5v6.05L11.704,24.011
	l6.504-6.364L27.75,29.626z M36.894,39.5l-7.069-8.874h6.733c0.451,0,0.818-0.368,0.818-0.82V18.211
	c0-0.451-0.367-0.818-0.818-0.818H25.142v-5.979c0-0.32-0.19-0.614-0.49-0.751c-0.291-0.129-0.634-0.08-0.895,0.155l-5.458,5.34
	l-6.504-8.165c3.393-2.592,7.616-4.151,12.206-4.151c11.121,0,20.167,9.047,20.167,20.168C44.169,30.23,41.335,35.799,36.894,39.5z"
	/>
</svg>
