<?xml version="1.0" encoding="utf-8"?>
<!-- Generator: Adobe Illustrator 16.0.0, SVG Export Plug-In . SVG Version: 6.00 Build 0)  -->
<!DOCTYPE svg PUBLIC "-//W3C//DTD SVG 1.1//EN" "http://www.w3.org/Graphics/SVG/1.1/DTD/svg11.dtd">
<svg version="1.1" id="Layer_1" xmlns="http://www.w3.org/2000/svg" xmlns:xlink="http://www.w3.org/1999/xlink" x="0px" y="0px"
	 width="48px" height="48px" viewBox="0 0 48 48" enable-background="new 0 0 48 48" xml:space="preserve">
<path fill="#414042" d="M45.169,24.011c0-11.672-9.494-21.168-21.167-21.168c-4.968,0-9.533,1.732-13.147,4.608
	c-0.031,0.016-0.064,0.025-0.092,0.047c-0.021,0.017-0.032,0.04-0.049,0.059c-4.8,3.884-7.879,9.814-7.879,16.455
	c0,11.669,9.496,21.164,21.168,21.164c4.934,0,9.467-1.71,13.071-4.55c0.02-0.012,0.043-0.007,0.062-0.021
	c0.023-0.019,0.036-0.044,0.056-0.066C42.045,36.656,45.169,30.695,45.169,24.011z M3.833,24.011c0-6.172,2.793-11.699,7.175-15.401
	l6.995,8.782h-6.557c-0.452,0-0.82,0.368-0.82,0.819v11.596c0,0.451,0.368,0.818,0.82,0.818h11.414v5.979
	c0,0.324,0.191,0.618,0.49,0.75c0.106,0.046,0.218,0.069,0.332,0.069c0.199,0,0.393-0.073,0.563-0.224l5.36-5.243l6.493,8.151
	c-3.375,2.542-7.556,4.068-12.097,4.068C12.88,44.175,3.833,35.129,3.833,24.011z M28.979,31.169l-5.119,5.008v-6.053
	c0-0.276-0.224-0.5-0.5-0.5H11.626V18.392h7.174L28.979,31.169z M20.078,18.392h3.283c0.276,0,0.5-0.224,0.5-0.5v-6.052L36.3,24.008
	l-6.603,6.459L20.078,18.392z M36.894,39.5l-6.57-8.247l6.781-6.633c0.174-0.154,0.273-0.377,0.273-0.611
	c0-0.231-0.098-0.452-0.256-0.596L24.226,10.798c-0.236-0.208-0.566-0.27-0.884-0.134c-0.293,0.134-0.481,0.428-0.481,0.749v5.978
	h-3.58l-7.486-9.397c3.393-2.592,7.616-4.151,12.206-4.151c11.121,0,20.167,9.047,20.167,20.168
	C44.169,30.23,41.335,35.799,36.894,39.5z"/>
</svg>
