<?xml version="1.0" encoding="utf-8"?>
<!-- Generator: Adobe Illustrator 16.0.0, SVG Export Plug-In . SVG Version: 6.00 Build 0)  -->
<!DOCTYPE svg PUBLIC "-//W3C//DTD SVG 1.1//EN" "http://www.w3.org/Graphics/SVG/1.1/DTD/svg11.dtd">
<svg version="1.1" id="Layer_1" xmlns="http://www.w3.org/2000/svg" xmlns:xlink="http://www.w3.org/1999/xlink" x="0px" y="0px"
	 width="48px" height="48px" viewBox="0 0 48 48" enable-background="new 0 0 48 48" xml:space="preserve">
<path fill="#414042" d="M45.169,24.011c0-11.672-9.496-21.168-21.169-21.168c-4.966,0-9.529,1.731-13.144,4.606
	c-0.032,0.016-0.066,0.026-0.095,0.049c-0.022,0.017-0.033,0.041-0.051,0.061c-4.797,3.884-7.875,9.813-7.875,16.452
	c0,11.669,9.495,21.164,21.166,21.164c4.934,0,9.467-1.71,13.071-4.549c0.02-0.012,0.045-0.008,0.063-0.022
	c0.024-0.02,0.038-0.046,0.058-0.068C42.046,36.653,45.169,30.693,45.169,24.011z M3.833,24.011c0-6.172,2.793-11.698,7.174-15.4
	l3.234,4.06v23.165c0,0.276,0.224,0.5,0.5,0.5h6.135c0.276,0,0.5-0.224,0.5-0.5v-7.779h1.537c1.37,0,2.502-0.053,3.465-0.149
	l9.72,12.2c-3.375,2.542-7.557,4.068-12.099,4.068C12.88,44.175,3.833,35.129,3.833,24.011z M21.376,20.023V18.1h0.789
	c1.978,0,2.695,0.079,2.953,0.127c0.426,0.076,0.748,0.25,1.02,0.551c0.24,0.264,0.352,0.605,0.352,1.07
	c0,0.377-0.084,0.678-0.264,0.941c-0.182,0.266-0.424,0.451-0.76,0.582c-0.147,0.058-0.794,0.238-2.816,0.25L21.376,20.023z
	 M25.827,22.304c0.527-0.206,0.928-0.517,1.225-0.95c0.295-0.434,0.438-0.926,0.438-1.506c0-0.718-0.199-1.289-0.611-1.741
	c-0.414-0.459-0.947-0.75-1.58-0.864c-0.509-0.095-1.563-0.143-3.132-0.143h-1.289c-0.276,0-0.5,0.224-0.5,0.5v1.167l-4.848-6.085
	h7.176c2.716,0,4.519,0.115,5.367,0.343c1.324,0.347,2.449,1.11,3.344,2.273c0.893,1.161,1.346,2.672,1.346,4.49
	c0,1.397-0.26,2.597-0.775,3.564c-0.512,0.962-1.176,1.73-1.973,2.285c-0.789,0.549-1.605,0.918-2.414,1.094
	c-0.237,0.047-0.504,0.086-0.781,0.123l-3.382-4.246C24.579,22.571,25.4,22.469,25.827,22.304z M20.376,20.371v1.753
	c0,0.276,0.224,0.5,0.5,0.5h1.294l3.465,4.349c-0.785,0.055-1.687,0.083-2.722,0.083h-2.037c-0.276,0-0.5,0.224-0.5,0.5v7.779
	h-5.135v-21.41L20.376,20.371z M36.893,39.5l-9.358-11.748c0.086-0.015,0.186-0.025,0.268-0.042
	c0.949-0.207,1.885-0.628,2.783-1.252c0.928-0.646,1.695-1.533,2.283-2.637c0.592-1.113,0.893-2.47,0.893-4.033
	c0-2.043-0.521-3.76-1.553-5.101c-1.033-1.34-2.34-2.225-3.881-2.629c-0.953-0.257-2.74-0.375-5.623-0.375h-7.963
	c-0.003,0-0.005,0.001-0.008,0.001l-2.939-3.69C15.187,5.402,19.41,3.843,24,3.843c11.123,0,20.169,9.047,20.169,20.168
	C44.169,30.23,41.335,35.798,36.893,39.5z"/>
</svg>
