<?xml version="1.0" encoding="utf-8"?>
<!-- Generator: Adobe Illustrator 16.0.0, SVG Export Plug-In . SVG Version: 6.00 Build 0)  -->
<!DOCTYPE svg PUBLIC "-//W3C//DTD SVG 1.1//EN" "http://www.w3.org/Graphics/SVG/1.1/DTD/svg11.dtd">
<svg version="1.1" id="Layer_1" xmlns="http://www.w3.org/2000/svg" xmlns:xlink="http://www.w3.org/1999/xlink" x="0px" y="0px"
	 width="48px" height="48px" viewBox="0 0 48 48" enable-background="new 0 0 48 48" xml:space="preserve">
<path fill="#414042" d="M45.169,24.011c0-11.672-9.496-21.168-21.169-21.168c-4.966,0-9.529,1.731-13.144,4.606
	c-0.032,0.016-0.066,0.026-0.095,0.049c-0.022,0.017-0.033,0.041-0.051,0.061c-4.797,3.884-7.875,9.813-7.875,16.452
	c0,11.669,9.495,21.164,21.166,21.164c4.934,0,9.467-1.71,13.071-4.549c0.02-0.012,0.045-0.008,0.063-0.022
	c0.024-0.02,0.038-0.046,0.058-0.068C42.046,36.653,45.169,30.693,45.169,24.011z M3.833,24.011c0-6.172,2.793-11.698,7.174-15.4
	l7.158,8.985c-2.771,1.697-4.633,4.763-4.633,8.267v10.141c0,0.276,0.224,0.5,0.5,0.5h6.344c0.276,0,0.5-0.224,0.5-0.5V25.862
	c0-1.212,0.898-2.2,2.036-2.308l2.436,3.058v0.953c0,0.254,0.15,0.484,0.383,0.588c0.064,0.028,0.193,0.056,0.262,0.056
	c0.162,0,0.314-0.06,0.449-0.182l0.019-0.019l9.638,12.098c-3.375,2.542-7.557,4.068-12.099,4.068
	C12.88,44.175,3.833,35.129,3.833,24.011z M25.349,25.009l-1.175-1.475h1.175V25.009z M26.349,26.264v-3.23
	c0-0.276-0.223-0.5-0.5-0.5h-2.472l-3.682-4.622c1.048-0.462,2.203-0.722,3.417-0.722h2.736c0.277,0,0.5-0.224,0.5-0.5v-3.683
	l6.969,6.854l-6.767,6.657L26.349,26.264z M22.216,22.68c-1.347,0.403-2.34,1.669-2.34,3.182v9.641h-5.344v-9.641
	c0-3.188,1.716-5.973,4.26-7.48L22.216,22.68z M36.893,39.5l-9.715-12.195l7.073-6.959c0.139-0.123,0.219-0.298,0.219-0.483
	c0-0.186-0.08-0.363-0.197-0.464l-7.846-7.717c-0.119-0.108-0.271-0.168-0.434-0.168c-0.068,0-0.197,0.027-0.262,0.056
	c-0.232,0.104-0.383,0.335-0.383,0.59v4.031h-2.236c-1.451,0-2.822,0.337-4.055,0.922l-7.264-9.118
	C15.187,5.402,19.41,3.843,24,3.843c11.123,0,20.169,9.047,20.169,20.168C44.169,30.23,41.335,35.798,36.893,39.5z"/>
</svg>
