<?xml version="1.0" encoding="utf-8"?>
<!-- Generator: Adobe Illustrator 16.0.0, SVG Export Plug-In . SVG Version: 6.00 Build 0)  -->
<!DOCTYPE svg PUBLIC "-//W3C//DTD SVG 1.1//EN" "http://www.w3.org/Graphics/SVG/1.1/DTD/svg11.dtd">
<svg version="1.1" id="Layer_1" xmlns="http://www.w3.org/2000/svg" xmlns:xlink="http://www.w3.org/1999/xlink" x="0px" y="0px"
	 width="48px" height="48px" viewBox="0 0 48 48" enable-background="new 0 0 48 48" xml:space="preserve">
<path fill="#414042" d="M45.169,24.011c0-11.672-9.494-21.168-21.167-21.168c-4.968,0-9.533,1.732-13.147,4.608
	c-0.031,0.016-0.064,0.025-0.092,0.047c-0.021,0.017-0.032,0.04-0.049,0.059c-4.8,3.884-7.879,9.814-7.879,16.455
	c0,11.669,9.496,21.164,21.168,21.164c4.934,0,9.467-1.71,13.071-4.55c0.02-0.012,0.043-0.007,0.062-0.021
	c0.023-0.019,0.036-0.044,0.056-0.066C42.045,36.656,45.169,30.695,45.169,24.011z M3.833,24.011c0-6.172,2.793-11.699,7.175-15.401
	l6.014,7.55l-3.271,3.218c-0.14,0.122-0.22,0.299-0.22,0.485c0,0.185,0.08,0.361,0.198,0.463l7.845,7.715
	c0.119,0.108,0.272,0.168,0.434,0.168c0.069,0,0.197-0.027,0.262-0.056c0.232-0.104,0.383-0.334,0.383-0.588v-4.032h0.243
	l4.229,5.309v7.16c0,0.276,0.225,0.5,0.5,0.5h5.603l2.87,3.604c-3.375,2.542-7.556,4.068-12.097,4.068
	C12.88,44.175,3.833,35.129,3.833,24.011z M22.154,17.19h2.734c4.734,0,8.582,3.891,8.582,8.672v9.341l-5.344-6.709v-2.632
	c0-1.835-1.451-3.328-3.238-3.328h-1.51l-5.013-6.293l3.289-3.236v3.685C21.654,16.966,21.877,17.19,22.154,17.19z M28.126,30.098
	l4.306,5.405h-4.306V30.098z M27.126,27.239l-2.952-3.706h0.714c1.236,0,2.238,1.045,2.238,2.329V27.239z M22.108,22.543
	c-0.254,0.024-0.455,0.23-0.455,0.49v3.682l-6.969-6.854l2.964-2.917L22.108,22.543z M36.894,39.5l-2.54-3.188
	c0.069-0.086,0.116-0.19,0.116-0.31V25.862c0-5.332-4.297-9.672-9.582-9.672h-2.234v-4.031c0-0.255-0.15-0.486-0.383-0.59
	c-0.064-0.028-0.192-0.056-0.262-0.056c-0.161,0-0.314,0.06-0.448,0.182l-3.822,3.76l-5.944-7.461
	c3.393-2.592,7.616-4.151,12.206-4.151c11.121,0,20.167,9.047,20.167,20.168C44.169,30.23,41.335,35.799,36.894,39.5z"/>
</svg>
