<?xml version="1.0" encoding="utf-8"?>
<!-- Generator: Adobe Illustrator 16.0.0, SVG Export Plug-In . SVG Version: 6.00 Build 0)  -->
<!DOCTYPE svg PUBLIC "-//W3C//DTD SVG 1.1//EN" "http://www.w3.org/Graphics/SVG/1.1/DTD/svg11.dtd">
<svg version="1.1" id="Layer_1" xmlns="http://www.w3.org/2000/svg" xmlns:xlink="http://www.w3.org/1999/xlink" x="0px" y="0px"
	 width="48px" height="48px" viewBox="0 0 48 48" enable-background="new 0 0 48 48" xml:space="preserve">
<path fill="#414042" d="M45.169,24.011c0-11.672-9.496-21.168-21.169-21.168c-4.966,0-9.529,1.731-13.144,4.606
	c-0.032,0.016-0.066,0.026-0.095,0.049c-0.022,0.017-0.033,0.041-0.051,0.061c-4.797,3.884-7.875,9.813-7.875,16.452
	c0,11.669,9.495,21.164,21.166,21.164c4.934,0,9.467-1.71,13.071-4.549c0.02-0.012,0.045-0.008,0.063-0.022
	c0.024-0.02,0.038-0.046,0.058-0.068C42.046,36.653,45.169,30.693,45.169,24.011z M3.833,24.011c0-6.172,2.793-11.698,7.174-15.4
	l5.913,7.422c-0.484,1.139-0.752,2.39-0.752,3.701v10.01h-3.033c-0.258,0-0.49,0.153-0.587,0.378
	c-0.107,0.234-0.064,0.509,0.123,0.715l6.664,6.781c0.119,0.156,0.304,0.245,0.505,0.245c0.192,0,0.372-0.084,0.464-0.198
	l6.719-6.842c0.174-0.192,0.217-0.467,0.115-0.688c-0.104-0.238-0.336-0.392-0.594-0.392h-3.033v-5.437l12.587,15.8
	c-3.375,2.542-7.557,4.068-12.099,4.068C12.88,44.175,3.833,35.129,3.833,24.011z M25.841,16.499c-1.836,0-3.33,1.451-3.33,3.234
	v1.714L18.092,15.9c1.426-2.81,4.359-4.748,7.749-4.748c4.781,0,8.672,3.849,8.672,8.581v8.01h-5.344v-8.01
	C29.169,17.95,27.677,16.499,25.841,16.499z M22.511,23.051v7.192c0,0.276,0.224,0.5,0.5,0.5h2.687l-5.858,5.968l-5.86-5.968h2.688
	c0.276,0,0.5-0.224,0.5-0.5v-10.51c0-0.977,0.174-1.913,0.479-2.789L22.511,23.051z M36.893,39.5L23.511,22.703v-2.969
	c0-1.233,1.044-2.235,2.33-2.235c1.285,0,2.328,1.002,2.328,2.235v8.51c0,0.276,0.225,0.5,0.5,0.5h6.344c0.277,0,0.5-0.224,0.5-0.5
	v-8.51c0-5.282-4.338-9.58-9.672-9.58c-3.615,0-6.768,1.977-8.428,4.894l-5.619-7.053C15.187,5.402,19.41,3.843,24,3.843
	c11.123,0,20.169,9.047,20.169,20.168C44.169,30.23,41.335,35.798,36.893,39.5z"/>
</svg>
