<?xml version="1.0" encoding="utf-8"?>
<!-- Generator: Adobe Illustrator 16.0.0, SVG Export Plug-In . SVG Version: 6.00 Build 0)  -->
<!DOCTYPE svg PUBLIC "-//W3C//DTD SVG 1.1//EN" "http://www.w3.org/Graphics/SVG/1.1/DTD/svg11.dtd">
<svg version="1.1" id="Layer_1" xmlns="http://www.w3.org/2000/svg" xmlns:xlink="http://www.w3.org/1999/xlink" x="0px" y="0px"
	 width="48px" height="48px" viewBox="0 0 48 48" enable-background="new 0 0 48 48" xml:space="preserve">
<path fill="#414042" d="M45.169,24.011c0-11.672-9.494-21.168-21.167-21.168c-4.968,0-9.533,1.732-13.147,4.608
	c-0.031,0.016-0.064,0.025-0.092,0.047c-0.021,0.017-0.032,0.04-0.049,0.059c-4.8,3.884-7.879,9.814-7.879,16.455
	c0,11.669,9.496,21.164,21.168,21.164c4.934,0,9.467-1.71,13.071-4.55c0.02-0.012,0.043-0.007,0.062-0.021
	c0.023-0.019,0.036-0.044,0.056-0.066C42.045,36.656,45.169,30.695,45.169,24.011z M3.833,24.011c0-6.172,2.793-11.699,7.175-15.401
	l3.862,4.849c-1.479,1.683-2.381,3.875-2.381,6.275v8.51c0,0.276,0.224,0.5,0.5,0.5h6.344c0.276,0,0.5-0.224,0.5-0.5v-8.51
	c0-0.014,0.004-0.026,0.004-0.04l4.652,5.84v4.21h-3.031c-0.258,0-0.49,0.153-0.587,0.378c-0.107,0.234-0.064,0.509,0.123,0.715
	l6.676,6.795c0.121,0.147,0.301,0.231,0.492,0.231c0.201,0,0.387-0.089,0.465-0.198l3.051-3.106l4.42,5.549
	c-3.375,2.542-7.556,4.068-12.097,4.068C12.88,44.175,3.833,35.129,3.833,24.011z M31.335,30.743h2.688l-2.266,2.31l-6.266-7.866
	v-5.453c0-1.784-1.495-3.234-3.33-3.234c-1.058,0-1.992,0.492-2.602,1.242l-3.362-4.221c1.556-1.463,3.653-2.368,5.964-2.368
	c4.783,0,8.673,3.849,8.673,8.581v10.51C30.835,30.52,31.06,30.743,31.335,30.743z M25.491,30.243V26.79l5.561,6.981l-2.885,2.94
	l-5.863-5.969h2.686C25.269,30.743,25.491,30.52,25.491,30.243z M24.49,23.93l-4.291-5.387c0.413-0.625,1.136-1.044,1.963-1.044
	c1.284,0,2.328,1.002,2.328,2.235V23.93z M19.03,18.679c-0.119,0.333-0.197,0.683-0.197,1.054v8.01H13.49v-8.01
	c0-2.085,0.757-3.997,2.011-5.485L19.03,18.679z M36.894,39.5l-4.51-5.66l2.963-3.018c0.174-0.192,0.217-0.467,0.115-0.688
	c-0.104-0.238-0.336-0.392-0.594-0.392h-3.033v-10.01c0-5.282-4.338-9.58-9.673-9.58c-2.546,0-4.858,0.987-6.587,2.585l-3.779-4.745
	c3.393-2.592,7.616-4.151,12.206-4.151c11.121,0,20.167,9.047,20.167,20.168C44.169,30.23,41.335,35.799,36.894,39.5z"/>
</svg>
