<?xml version="1.0" encoding="utf-8"?>
<!-- Generator: Adobe Illustrator 16.0.0, SVG Export Plug-In . SVG Version: 6.00 Build 0)  -->
<!DOCTYPE svg PUBLIC "-//W3C//DTD SVG 1.1//EN" "http://www.w3.org/Graphics/SVG/1.1/DTD/svg11.dtd">
<svg version="1.1" id="Layer_1" xmlns="http://www.w3.org/2000/svg" xmlns:xlink="http://www.w3.org/1999/xlink" x="0px" y="0px"
	 width="48px" height="48px" viewBox="0 0 48 48" enable-background="new 0 0 48 48" xml:space="preserve">
<path fill="#414042" d="M45.169,24.011c0-11.672-9.494-21.168-21.168-21.168c-4.968,0-9.532,1.732-13.146,4.608
	c-0.031,0.016-0.064,0.025-0.093,0.047c-0.021,0.017-0.032,0.04-0.05,0.06c-4.799,3.884-7.877,9.813-7.877,16.454
	c0,11.669,9.495,21.164,21.167,21.164c4.934,0,9.468-1.71,13.072-4.55c0.02-0.012,0.043-0.007,0.062-0.021
	c0.023-0.019,0.036-0.045,0.056-0.066C42.045,36.655,45.169,30.695,45.169,24.011z M3.833,24.011c0-6.172,2.793-11.698,7.175-15.401
	l2.805,3.521l-6.851,6.742c-0.144,0.123-0.226,0.3-0.226,0.489c0,0.188,0.082,0.367,0.198,0.464l7.844,7.715
	c0.189,0.172,0.463,0.215,0.695,0.112c0.232-0.104,0.383-0.334,0.383-0.588v-4.032h2.235c1.109,0,2.236,1.937,2.236,3.329v10.141
	c0,0.276,0.224,0.5,0.5,0.5h6.346c0.275,0,0.5-0.224,0.5-0.5v-6.971l8.424,10.574c-3.375,2.542-7.557,4.068-12.098,4.068
	C12.88,44.175,3.833,35.129,3.833,24.011z M15.857,14.697l0.792,0.994h-0.792V14.697z M14.857,13.441v2.749
	c0,0.277,0.224,0.5,0.5,0.5h2.088l9.23,11.586v7.727h-5.346v-9.641c0-1.742-1.359-4.329-3.236-4.329h-2.735
	c-0.276,0-0.5,0.224-0.5,0.5v3.682l-6.969-6.853l6.551-6.446L14.857,13.441z M32.646,22.034h-2.734
	c-1.877,0-3.236,2.586-3.236,4.329v0.311l-7.906-9.924c1.922,0.279,4.015,1.649,4.798,2.902c0.037,0.066,0.091,0.125,0.158,0.17
	c0.196,0.129,0.455,0.108,0.625-0.057c0.041-0.04,0.074-0.085,0.099-0.135c0.949-1.4,3.4-2.939,5.462-2.939h2.734
	c0.277,0,0.5-0.223,0.5-0.5v-3.605l6.971,7.741l-6.971,5.966v-3.758C33.146,22.257,32.923,22.034,32.646,22.034z M36.894,39.5
	l-9.219-11.571v-1.566c0-1.392,1.127-3.329,2.236-3.329h2.234v4.032c0,0.254,0.15,0.484,0.383,0.588
	c0.232,0.103,0.506,0.06,0.686-0.103l7.826-6.701c0.145-0.121,0.227-0.299,0.227-0.488s-0.082-0.367-0.178-0.442l-7.865-8.738
	c-0.189-0.172-0.461-0.215-0.695-0.113c-0.232,0.104-0.383,0.335-0.383,0.59v4.031h-2.234c-2.168,0-4.619,1.402-5.904,2.88
	c-1.241-1.458-3.723-2.88-5.915-2.88h-0.167l-2.069-2.597v-1.434c0-0.255-0.15-0.486-0.383-0.59c-0.234-0.104-0.506-0.06-0.71,0.126
	l-0.235,0.231l-2.734-3.433C15.188,5.401,19.411,3.843,24,3.843c11.122,0,20.168,9.047,20.168,20.168
	C44.169,30.23,41.335,35.799,36.894,39.5z"/>
</svg>
