<?xml version="1.0" encoding="utf-8"?>
<!-- Generator: Adobe Illustrator 16.0.0, SVG Export Plug-In . SVG Version: 6.00 Build 0)  -->
<!DOCTYPE svg PUBLIC "-//W3C//DTD SVG 1.1//EN" "http://www.w3.org/Graphics/SVG/1.1/DTD/svg11.dtd">
<svg version="1.1" id="Layer_1" xmlns="http://www.w3.org/2000/svg" xmlns:xlink="http://www.w3.org/1999/xlink" x="0px" y="0px"
	 width="48px" height="48px" viewBox="0 0 48 48" enable-background="new 0 0 48 48" xml:space="preserve">
<path fill="#414042" d="M45.169,24.011c0-11.672-9.494-21.168-21.168-21.168c-4.968,0-9.532,1.732-13.146,4.608
	c-0.031,0.016-0.064,0.025-0.093,0.047c-0.021,0.017-0.032,0.04-0.05,0.06c-4.799,3.884-7.877,9.813-7.877,16.454
	c0,11.669,9.495,21.164,21.167,21.164c4.934,0,9.468-1.71,13.072-4.55c0.02-0.012,0.043-0.007,0.062-0.021
	c0.023-0.019,0.036-0.045,0.056-0.066C42.045,36.655,45.169,30.695,45.169,24.011z M3.833,24.011c0-6.172,2.793-11.698,7.175-15.401
	l10.101,12.681L17.4,21.296v-2.854c0-0.251-0.148-0.472-0.358-0.556c-0.198-0.089-0.515-0.035-0.672,0.117l-5.763,5.675
	c-0.143,0.114-0.224,0.286-0.224,0.471c0,0.134,0.09,0.342,0.186,0.437l5.815,5.719c0.159,0.145,0.44,0.193,0.638,0.113
	c0.227-0.09,0.378-0.316,0.378-0.562v-2.859h4.491c0.842,0,1.527,0.717,1.527,1.598v7.514c0,0.276,0.224,0.5,0.5,0.5h4.727
	c0.275,0,0.5-0.224,0.5-0.5v-4.73l6.953,8.729c-3.375,2.542-7.557,4.068-12.098,4.068C12.88,44.175,3.833,35.129,3.833,24.011z
	 M23.943,13.692h-1.681l4.032-4.109l4.031,4.109h-1.68c-0.277,0-0.5,0.223-0.5,0.5V28.52l-4.965-6.232l0.763-0.001
	c0.275,0,0.499-0.225,0.499-0.5v-7.594C24.443,13.916,24.219,13.692,23.943,13.692z M28.146,30.123v5.485h-3.727v-7.014
	c0-1.433-1.134-2.598-2.527-2.598H16.9c-0.276,0-0.5,0.224-0.5,0.5v2.421l-4.85-4.769l4.85-4.773v2.421
	c0,0.133,0.053,0.26,0.146,0.354s0.221,0.146,0.354,0.146h0.001l5.004-0.008L28.146,30.123z M36.894,39.5l-7.748-9.726V14.692h2.117
	c0.238,0,0.455-0.141,0.557-0.366c0.096-0.222,0.051-0.478-0.121-0.662l-4.947-5.041c-0.115-0.13-0.281-0.206-0.455-0.206
	c-0.135,0-0.344,0.089-0.438,0.185l-4.978,5.071c-0.163,0.174-0.208,0.421-0.11,0.662c0.098,0.217,0.315,0.357,0.555,0.357h2.118
	v6.595l-1.058,0.001L11.794,7.994C15.188,5.401,19.411,3.843,24,3.843c11.122,0,20.168,9.047,20.168,20.168
	C44.169,30.23,41.335,35.799,36.894,39.5z"/>
</svg>
