<?xml version="1.0" encoding="utf-8"?>
<!-- Generator: Adobe Illustrator 16.0.0, SVG Export Plug-In . SVG Version: 6.00 Build 0)  -->
<!DOCTYPE svg PUBLIC "-//W3C//DTD SVG 1.1//EN" "http://www.w3.org/Graphics/SVG/1.1/DTD/svg11.dtd">
<svg version="1.1" id="Layer_1" xmlns="http://www.w3.org/2000/svg" xmlns:xlink="http://www.w3.org/1999/xlink" x="0px" y="0px"
	 width="48px" height="48px" viewBox="0 0 48 48" enable-background="new 0 0 48 48" xml:space="preserve">
<path fill="#414042" d="M37.291,7.557c-0.018-0.02-0.028-0.042-0.05-0.06c-0.028-0.023-0.063-0.033-0.094-0.048
	C33.532,4.574,28.969,2.842,24,2.842c-11.672,0-21.167,9.497-21.167,21.168c0,6.685,3.125,12.646,7.981,16.527
	c0.019,0.021,0.032,0.047,0.055,0.065c0.018,0.014,0.042,0.01,0.061,0.021c3.603,2.84,8.137,4.55,13.07,4.55
	c11.674,0,21.168-9.495,21.168-21.164C45.169,17.371,42.091,11.441,37.291,7.557z M3.833,24.011C3.833,12.89,12.88,3.843,24,3.843
	c4.591,0,8.815,1.559,12.208,4.151l-10.59,13.294l-1.06-0.001v-6.595h2.119c0.24,0,0.459-0.141,0.564-0.375
	c0.09-0.223,0.045-0.471-0.127-0.653l-4.943-5.032c-0.113-0.136-0.283-0.215-0.464-0.215c-0.134,0-0.342,0.089-0.436,0.185
	l-4.975,5.071c-0.165,0.175-0.21,0.432-0.111,0.662c0.098,0.217,0.315,0.357,0.554,0.357h2.117v15.083L11.109,39.5
	C6.667,35.799,3.833,30.23,3.833,24.011z M31.103,25.997h-4.99c-1.397,0-2.531,1.165-2.531,2.598v7.014h-3.725v-5.485l6.241-7.834
	l5.005,0.008c0.133,0,0.26-0.053,0.354-0.146s0.146-0.22,0.146-0.354v-2.421l4.852,4.772l-4.852,4.77v-2.421
	C31.603,26.221,31.38,25.997,31.103,25.997z M19.857,28.52V14.192c0-0.276-0.224-0.5-0.5-0.5h-1.679l4.028-4.109l4.035,4.109h-1.683
	c-0.276,0-0.5,0.223-0.5,0.5v7.594c0,0.275,0.224,0.5,0.499,0.5l0.765,0.001L19.857,28.52z M24,44.175
	c-4.541,0-8.722-1.526-12.096-4.068l6.953-8.728v4.729c0,0.276,0.224,0.5,0.5,0.5h4.725c0.276,0,0.5-0.224,0.5-0.5v-7.514
	c0-0.881,0.687-1.598,1.531-1.598h4.49v2.859c0,0.243,0.15,0.469,0.361,0.556c0.078,0.034,0.16,0.051,0.246,0.051
	c0.131,0,0.33-0.08,0.424-0.172l5.787-5.693c0.129-0.117,0.199-0.276,0.199-0.448c0-0.134-0.09-0.343-0.186-0.437l-5.816-5.722
	c-0.158-0.145-0.443-0.195-0.643-0.111c-0.227,0.093-0.373,0.313-0.373,0.563v2.854l-3.709-0.006L36.995,8.61
	c4.381,3.703,7.174,9.229,7.174,15.4C44.169,35.129,35.122,44.175,24,44.175z"/>
</svg>
