<?xml version="1.0" encoding="utf-8"?>
<!-- Generator: Adobe Illustrator 16.0.0, SVG Export Plug-In . SVG Version: 6.00 Build 0)  -->
<!DOCTYPE svg PUBLIC "-//W3C//DTD SVG 1.1//EN" "http://www.w3.org/Graphics/SVG/1.1/DTD/svg11.dtd">
<svg version="1.1" id="Layer_1" xmlns="http://www.w3.org/2000/svg" xmlns:xlink="http://www.w3.org/1999/xlink" x="0px" y="0px"
	 width="48px" height="48px" viewBox="0 0 48 48" enable-background="new 0 0 48 48" xml:space="preserve">
<g>
	<path fill="#414042" d="M28.357,4.798h-8.712c-2.41,0-4.371,1.96-4.371,4.371v29.68c0,2.41,1.961,4.371,4.371,4.371h8.712
		c2.41,0,4.371-1.961,4.371-4.371V9.169C32.729,6.758,30.768,4.798,28.357,4.798z M31.729,38.849c0,1.858-1.514,3.371-3.371,3.371
		h-8.712c-1.858,0-3.371-1.513-3.371-3.371V9.169c0-1.86,1.513-3.372,3.371-3.372h8.712c1.857,0,3.371,1.512,3.371,3.372V38.849z"/>
	<path fill="#414042" d="M24.122,8.993c-2.344,0-4.25,1.906-4.25,4.25c0,2.343,1.906,4.25,4.25,4.25c2.345,0,4.251-1.907,4.251-4.25
		C28.373,10.899,26.467,8.993,24.122,8.993z M24.122,16.493c-1.792,0-3.25-1.458-3.25-3.25c0-1.792,1.458-3.25,3.25-3.25
		c1.792,0,3.251,1.458,3.251,3.25C27.373,15.035,25.914,16.493,24.122,16.493z"/>
	<path fill="#414042" d="M24.122,19.962c-2.344,0-4.25,1.906-4.25,4.25c0,2.341,1.906,4.249,4.25,4.249
		c2.345,0,4.251-1.907,4.251-4.249C28.373,21.868,26.467,19.962,24.122,19.962z"/>
	<path fill="#414042" d="M24.122,30.929c-2.344,0-4.25,1.907-4.25,4.25s1.906,4.25,4.25,4.25c2.345,0,4.251-1.907,4.251-4.25
		S26.467,30.929,24.122,30.929z M24.122,38.429c-1.792,0-3.25-1.458-3.25-3.25s1.458-3.25,3.25-3.25c1.792,0,3.251,1.458,3.251,3.25
		S25.914,38.429,24.122,38.429z"/>
</g>
</svg>
