<?xml version="1.0" encoding="utf-8"?>
<!-- Generator: Adobe Illustrator 16.0.0, SVG Export Plug-In . SVG Version: 6.00 Build 0)  -->
<!DOCTYPE svg PUBLIC "-//W3C//DTD SVG 1.1//EN" "http://www.w3.org/Graphics/SVG/1.1/DTD/svg11.dtd">
<svg version="1.1" id="Layer_1" xmlns="http://www.w3.org/2000/svg" xmlns:xlink="http://www.w3.org/1999/xlink" x="0px" y="0px"
	 width="1024px" height="1024px" viewBox="0 0 1024 1024" enable-background="new 0 0 1024 1024" xml:space="preserve">
<g>
	<path fill="#414042" d="M214.109,336.375h99.395v-67.542c-0.542-11.708-1.188-65.041,30.791-99
		c16.291-17.375,38.291-26.583,63.582-26.583c36.895,0,59.415,16.125,71.79,29.625c30.062,32.708,30.124,80.542,29.249,96.125
		v67.375h190.59c16.333,0,29.583-10.792,29.583-24.083v-241.5c0-13.292-13.25-24.042-29.583-24.042H214.109
		c-16.312,0-29.562,10.75-29.562,24.042v241.5C184.548,325.583,197.798,336.375,214.109,336.375z"/>
	<path fill="#414042" d="M850.086,504.583c-8.708-9.333-20.166-13.916-35.04-13.916l-1.917,0.041
		c-32.416,0.834-48.999,20.5-53.749,63.792l0.042,92.458v0.334c0,5.166-4.167,9.333-9.333,9.333c-5.167,0-9.375-4.167-9.375-9.333
		c0-8.125,0-124.209,0-124.209c0.083-1.125,2.625-33.666-15.833-53.75c-9.958-10.791-24.583-16.291-43.541-16.291l-2.75,0.041
		c-45.541,1.209-57.207,32.5-58.999,58.542v113.083v0.042v0.5c0,5.167-4.166,9.375-9.333,9.375c-5.166,0-9.375-4.208-9.375-9.375
		v-149c0.042-0.5,0.417-28.542-16.833-46.208c-9.624-9.792-23.249-14.792-40.499-14.792c-51.176,0.125-57.676,57.917-57.926,60.333
		l0.5,128.792c0.021,3.25-1.646,6.25-4.396,7.958c-2.75,1.667-6.188,1.834-9.083,0.459c-3.188-1.584-6.396-5.459-6.396-9V267.667
		c0.063-1.25,3.334-42.709-17.999-65.959c-9.75-10.625-22.958-15.791-40.374-15.791c-13.583,0-24.208,4.291-32.479,13.083
		c-21.708,23.083-19.25,68.208-19.229,68.667l0.021,399.375c0,4.583-3.313,8.458-7.813,9.208s-8.896-1.875-10.375-6.208
		L297.649,550.75c-5.813-22.625-28.166-79.625-63.79-79.625c-5,0-10.313,1.083-15.729,3.208
		c-14.542,5.667-24.125,14.584-29.291,27.125c-12.208,29.792,5.354,69.667,5.541,70.084
		c1.292,3.375,107.456,286.833,117.456,312.083c1.208,4.333,23,81.708,123.727,81.708l283.15,0.042
		c24.958,0,149.539-6.5,149.539-134.958V571.292C868.294,570.167,871.169,527.292,850.086,504.583z"/>
</g>
</svg>
