<?xml version="1.0" encoding="utf-8"?>
<!-- Generator: Adobe Illustrator 16.0.0, SVG Export Plug-In . SVG Version: 6.00 Build 0)  -->
<!DOCTYPE svg PUBLIC "-//W3C//DTD SVG 1.1//EN" "http://www.w3.org/Graphics/SVG/1.1/DTD/svg11.dtd">
<svg version="1.1" id="Layer_1" xmlns="http://www.w3.org/2000/svg" xmlns:xlink="http://www.w3.org/1999/xlink" x="0px" y="0px"
	 width="1024px" height="1024px" viewBox="0 0 1024 1024" enable-background="new 0 0 1024 1024" xml:space="preserve">
<g>
	<path fill="#414042" d="M472.459,180.417c3.875,3,8.458,4.458,12.999,4.458c6.396,0,12.729-2.875,16.917-8.333l55.509-72.042
		c7.167-9.333,5.458-22.75-3.875-29.917c-9.374-7.25-22.78-5.458-29.926,3.875L468.584,150.5
		C461.396,159.833,463.126,173.25,472.459,180.417z"/>
	<path fill="#414042" d="M416.397,157.375c0.042,0,0.104,0,0.146,0c11.792-0.083,21.271-9.708,21.188-21.458l-0.646-90.959
		c-0.083-11.708-9.624-21.166-21.332-21.166c-0.042,0-0.104,0-0.146,0c-11.791,0.083-21.271,9.708-21.187,21.458l0.646,90.958
		C395.147,147.917,404.689,157.375,416.397,157.375z"/>
	<path fill="#414042" d="M328.295,170.208c4.208,5.334,10.458,8.084,16.75,8.084c4.625,0,9.312-1.5,13.229-4.584
		c9.229-7.333,10.791-20.75,3.479-30l-56.458-71.25c-7.312-9.25-20.749-10.833-29.979-3.5c-9.229,7.334-10.791,20.75-3.479,30
		L328.295,170.208z"/>
	<path fill="#414042" d="M208.298,216.708l88.394,21.334c1.667,0.416,3.354,0.625,5.021,0.625c9.625,0,18.354-6.584,20.708-16.334
		c2.771-11.458-4.271-23-15.729-25.75l-88.395-21.333c-11.396-2.792-22.958,4.292-25.729,15.75S196.839,213.958,208.298,216.708z"/>
	<path fill="#414042" d="M502.354,233.042c2.479,9.625,11.146,16.041,20.646,16.041c1.771,0,3.563-0.208,5.334-0.666l88.092-22.709
		c11.416-2.916,18.291-14.583,15.374-25.958c-2.958-11.417-14.666-18.208-25.999-15.375l-88.092,22.708
		C506.291,210,499.416,221.667,502.354,233.042z"/>
	<path fill="#414042" d="M838.878,540.458c-8.416-9.125-19.583-13.541-34.041-13.541h-1.833
		c-31.499,0.833-47.666,19.958-52.29,62.041l0.041,89.834c0,0,0,0.25,0,0.375c0,5-4.041,9.083-9.041,9.083
		c-5.042,0-9.125-4.083-9.125-9.083c0-7.917,0-120.75,0-120.75c0.083-1.084,2.583-32.75-15.375-52.25
		c-9.666-10.5-23.916-15.834-42.332-15.834l-2.708,0.042c-44.208,1.167-55.583,31.583-57.333,56.917v109.333v0.5
		c0,5.042-4.083,9.125-9.041,9.125c-5.083,0-9.083-4.083-9.083-9.125V512.917c0-0.5,0.375-27.792-16.417-44.959
		c-9.333-9.541-22.541-14.375-39.332-14.375c-49.76,0.125-56.093,56.292-56.343,58.667l0.521,124c0,3.125-1.604,6.083-4.271,7.708
		c-2.708,1.625-6.041,1.792-8.833,0.459c-3.125-1.542-6.25-5.292-6.25-8.75V310.125c0.083-1.167,3.25-41.5-17.479-64.083
		c-9.479-10.334-22.333-15.334-39.249-15.334c-13.188,0-23.521,4.125-31.563,12.667c-21.104,22.458-18.708,66.333-18.687,66.792
		l0.021,388.208c0,4.417-3.208,8.208-7.604,8.917c-4.375,0.75-8.646-1.792-10.084-6.042l-39.228-115.917
		c-5.625-22-27.375-77.416-61.999-77.416c-4.854,0-10,1.041-15.291,3.125c-14.146,5.5-23.458,14.166-28.479,26.375
		c-11.854,28.916,5.209,67.708,5.396,68.083c1.25,3.292,104.456,278.833,114.164,303.375c1.208,4.208,22.354,79.417,120.269,79.417
		l275.192,0.041c24.333,0,145.372-6.333,145.372-131.208V605.292C856.586,604.167,859.378,562.5,838.878,540.458z"/>
</g>
</svg>
