<?xml version="1.0" encoding="utf-8"?>
<!-- Generator: Adobe Illustrator 16.0.0, SVG Export Plug-In . SVG Version: 6.00 Build 0)  -->
<!DOCTYPE svg PUBLIC "-//W3C//DTD SVG 1.1//EN" "http://www.w3.org/Graphics/SVG/1.1/DTD/svg11.dtd">
<svg version="1.1" id="Layer_1" xmlns="http://www.w3.org/2000/svg" xmlns:xlink="http://www.w3.org/1999/xlink" x="0px" y="0px"
	 width="1024px" height="1024px" viewBox="0 0 1024 1024" enable-background="new 0 0 1024 1024" xml:space="preserve">
<g id="_x32_03_1_">
	<path fill="#414042" d="M893.752,501.271C884.919,491.667,873.128,487,857.92,487l-1.917,0.021
		c-33.208,0.875-50.249,21-55.082,65.354l0.041,94.646c0,0.146,0,0.25,0,0.375c0,5.292-4.249,9.563-9.541,9.563
		s-9.625-4.271-9.625-9.563c0-8.313,0-127.188,0-127.188c0.125-1.166,2.709-34.5-16.166-55.041
		c-10.208-11.084-25.25-16.709-44.624-16.709l-2.875,0.042c-46.541,1.229-58.541,33.292-60.374,59.958v137.667v0.542
		c0,5.291-4.291,9.604-9.541,9.604c-5.334,0-9.583-4.313-9.583-9.604V472.25c0-0.521,0.416-29.271-17.25-47.333
		c-9.833-10.063-23.791-15.146-41.458-15.146c-52.467,0.125-59.092,59.271-59.342,61.771l0.541,132.916
		c0,3.334-1.708,6.417-4.541,8.146c-2.792,1.729-6.333,1.896-9.292,0.458c-3.25-1.604-6.583-5.542-6.583-9.188v-345.25
		c0.083-1.25,3.458-43.708-18.416-67.521c-9.958-10.875-23.5-16.146-41.333-16.146c-13.874,0-24.791,4.334-33.291,13.354
		c-22.208,23.646-19.708,69.875-19.666,70.354v408.958c0,4.667-3.375,8.667-7.958,9.396c-4.625,0.792-9.125-1.875-10.625-6.354
		l-41.332-122.125c-5.917-23.146-28.833-81.563-65.332-81.563c-5.084,0-10.542,1.125-16.083,3.291
		c-14.917,5.813-24.708,14.938-30,27.813c-12.499,30.459,5.459,71.313,5.667,71.729c1.333,3.438,110.039,293.729,120.289,319.583
		c1.25,4.438,23.541,83.667,126.706,83.667l289.921,0.042c25.624,0,153.164-6.646,153.164-138.209V569.563
		C912.46,568.417,915.377,524.5,893.752,501.271z"/>
	<path fill="#414042" d="M345.336,332.021V259.5c-0.5-12.938-0.583-66.5,31.291-100.458c16.5-17.5,38.75-26.75,64.332-26.75
		c37.416,0,60.249,16.291,72.749,29.958c30.593,33.25,30.635,81.583,29.677,97.771v69.938
		c37.999-29.813,62.498-76.041,62.498-128.083C605.883,111.917,532.957,39,443.001,39c-89.957,0-162.872,72.917-162.872,162.875
		C280.129,255.146,305.795,302.292,345.336,332.021z"/>
	<path fill="#414042" d="M231.13,430.542c10.542-4.125,21.208-6.229,31.625-6.229c39.332,0,65.79,27.708,82.581,55.896v-39.229
		c-21.208-30.334-56.332-50.209-96.164-50.209c-64.791,0-117.331,52.521-117.331,117.334c0,44.063,24.333,82.396,60.207,102.458
		c-0.083-0.313-0.208-0.646-0.333-0.958l-9.209-24.563c-5.666-13.604-22.624-60.938-5.291-103.167
		C183.965,465.417,198.798,443.146,231.13,430.542z"/>
</g>
</svg>
