<?xml version="1.0" encoding="utf-8"?>
<!-- Generator: Adobe Illustrator 16.0.0, SVG Export Plug-In . SVG Version: 6.00 Build 0)  -->
<!DOCTYPE svg PUBLIC "-//W3C//DTD SVG 1.1//EN" "http://www.w3.org/Graphics/SVG/1.1/DTD/svg11.dtd">
<svg version="1.1" id="Layer_1" xmlns="http://www.w3.org/2000/svg" xmlns:xlink="http://www.w3.org/1999/xlink" x="0px" y="0px"
	 width="1024px" height="1024px" viewBox="0 0 1024 1024" enable-background="new 0 0 1024 1024" xml:space="preserve">
<path fill="#414042" d="M667.965,857.125H848.42c45.332-66.167,18.666-109.208,3.875-128h-184.33
	c-5.916,0-10.666-4.792-10.666-10.667c0-5.916,4.75-10.666,10.666-10.666H852.92c32.791-53.375,4.625-103.709-11.25-123.125H667.965
	c-5.916,0-10.666-4.75-10.666-10.667c0-5.875,4.75-10.667,10.666-10.667h172.788c65.499-90.291-15.249-138.208-15.249-138.208
	H560.843c0,0-54.468,6.25-36.969-49.333c21.302-67.625,70.551-200.584,70.551-200.584c32.666-90.416-47.957-122-47.957-122
	c-77.426-25-139.258,101.625-139.258,101.625C382.961,240.708,123.841,559.25,123.841,559.25v293.542
	c0,0,178.205,120.625,314.535,152.041h359.128c0,0,67.374-44.041,44.708-126.375H667.965c-5.916,0-10.666-4.791-10.666-10.666
	C657.299,861.875,662.049,857.125,667.965,857.125z"/>
</svg>
