<?xml version="1.0" encoding="utf-8"?>
<!-- Generator: Adobe Illustrator 16.0.0, SVG Export Plug-In . SVG Version: 6.00 Build 0)  -->
<!DOCTYPE svg PUBLIC "-//W3C//DTD SVG 1.1//EN" "http://www.w3.org/Graphics/SVG/1.1/DTD/svg11.dtd">
<svg version="1.1" id="Layer_1" xmlns="http://www.w3.org/2000/svg" xmlns:xlink="http://www.w3.org/1999/xlink" x="0px" y="0px"
	 width="1024px" height="1024px" viewBox="0 0 1024 1024" enable-background="new 0 0 1024 1024" xml:space="preserve">
<path fill="#414042" d="M665.799,448.75h173.746c15.875-19.375,44.041-69.75,11.208-123.083H665.799
	c-5.875,0-10.667-4.792-10.667-10.667c0-5.917,4.792-10.667,10.667-10.667h184.329c14.833-18.833,41.458-61.875-3.833-128H665.799
	c-5.875,0-10.667-4.791-10.667-10.666c0-5.917,4.792-10.667,10.667-10.667h174.288c22.666-82.375-44.708-126.417-44.708-126.417
	H436.251c-136.33,31.459-314.556,152.084-314.556,152.084v293.541c0,0,259.119,318.5,283.369,404.417
	c0,0,61.853,126.583,139.278,101.625c0,0,80.623-31.583,47.957-122.042c0,0-49.249-132.958-70.551-200.541
	c-17.499-55.584,36.927-49.334,36.927-49.334h264.661c0,0,80.79-47.916,15.291-138.25H665.799c-5.875,0-10.667-4.75-10.667-10.666
	C655.132,453.542,659.924,448.75,665.799,448.75z"/>
</svg>
