<?xml version="1.0" encoding="utf-8"?>
<!-- Generator: Adobe Illustrator 16.0.0, SVG Export Plug-In . SVG Version: 6.00 Build 0)  -->
<!DOCTYPE svg PUBLIC "-//W3C//DTD SVG 1.1//EN" "http://www.w3.org/Graphics/SVG/1.1/DTD/svg11.dtd">
<svg version="1.1" id="Layer_1" xmlns="http://www.w3.org/2000/svg" xmlns:xlink="http://www.w3.org/1999/xlink" x="0px" y="0px"
	 width="1024px" height="1024px" viewBox="0 0 1024 1024" enable-background="new 0 0 1024 1024" xml:space="preserve">
<path fill="#414042" d="M894.919,277.292c-9.333-9.479-21.583-13.563-37.083-12.917c-40.166,2.042-53.665,32.354-57.498,97.042
	l0.041,178.791c0,5.875-4.75,10.646-10.625,10.667h-0.041c-5.875,0-10.625-4.729-10.667-10.604c-0.125-22.625,0-333.791,0-333.791
	c0.084-1.292,2.709-34.459-16.624-54.646c-11.042-11.563-27.833-17.313-49.499-16c-18.292,0.792-32.5,6.896-42.208,18.167
	c-11.625,13.521-15.124,31.896-15.999,44.708v15.042v0.188l0.083,311.833c0,0.021,0,0.042,0,0.042v0.542
	c0,5.896-4.792,10.666-10.667,10.666c-5.916,0-10.666-4.771-10.666-10.666V189c0.167-2.125,4.917-89.875-22.958-119.396
	c-11.458-12.125-25.083-19.021-43.374-19.459c-16.041-0.333-28.458,4.459-38.218,14.792c-28.125,29.896-23.041,93.583-22.979,94.208
	l0.541,348.709c0.021,3.771-1.979,7.271-5.229,9.188c-3.229,1.916-7.271,2-10.563,0.188c-3.417-1.875-6.833-6.167-6.833-10.063
	V375.792c0.063-1.375,3.708-49.438-20.229-75.438c-10.292-11.146-24-16.563-41.938-16.563c-0.791,0-1.583-0.084-2.354-0.271
	c-0.084,0.063-46.374-5.625-182.288,91.688c25.812,23.75,43.562,62.938,51.374,82.75l57.29-32.646
	c3.271-1.917,7.313-1.875,10.625,0.042c3.271,1.896,5.292,5.396,5.313,9.188l0.771,201.833c0.021,5.083-3.541,9.479-8.521,10.5
	c-4.938,1.125-9.979-1.625-11.979-6.292l-68.915-162.854c-0.25-0.542-0.417-1.084-0.584-1.646
	c-8.188-23.875-33.832-81.896-65.853-96.188c-9.604-4.291-18.979-4.271-28.688-0.041c-64.478,28.208-28.832,113.083-27.291,116.688
	c1.459,4.021,122.186,341.666,133.519,371.791c1.354,5.084,26.104,97.417,140.435,97.417c0.021,0,0.042,0,0.063,0H743.38
	c1.167-0.042,79.665,2.313,129.914-46.146c28.416-27.375,42.833-66.063,42.833-115V355.188
	C916.168,353.938,919.377,302.146,894.919,277.292z"/>
</svg>
