<?xml version="1.0" encoding="utf-8"?>
<!-- Generator: Adobe Illustrator 16.0.0, SVG Export Plug-In . SVG Version: 6.00 Build 0)  -->
<!DOCTYPE svg PUBLIC "-//W3C//DTD SVG 1.1//EN" "http://www.w3.org/Graphics/SVG/1.1/DTD/svg11.dtd">
<svg version="1.1" id="Layer_1" xmlns="http://www.w3.org/2000/svg" xmlns:xlink="http://www.w3.org/1999/xlink" x="0px" y="0px"
	 width="1024px" height="1024px" viewBox="0 0 1024 1024" enable-background="new 0 0 1024 1024" xml:space="preserve">
<path fill="#414042" d="M856.461,379.854c-9.708-4.229-19.083-4.25-28.707,0.041c-32,14.292-57.666,72.313-65.832,96.188
	c-0.167,0.563-0.334,1.104-0.584,1.646l-68.915,162.854c-2,4.667-7.041,7.417-12,6.292c-4.958-1.021-8.541-5.417-8.499-10.5
	l0.75-201.833c0.041-3.792,2.041-7.292,5.333-9.188c3.291-1.917,7.333-1.959,10.625-0.042l57.29,32.646
	c7.791-19.813,25.541-59,51.374-82.75c-135.914-97.313-182.205-91.625-182.288-91.688c-0.792,0.188-1.583,0.271-2.375,0.271
	c-17.916,0-31.624,5.416-41.916,16.563c-23.958,26-20.291,74.063-20.249,75.438v131.375c0,3.896-3.417,8.188-6.833,10.063
	c-3.292,1.813-7.334,1.729-10.553-0.188c-3.25-1.917-5.249-5.417-5.229-9.188l0.542-348.709c0.063-0.625,5.155-64.313-22.979-94.208
	c-9.749-10.333-22.166-15.125-38.207-14.792c-18.291,0.438-32.458,6.834-43.374,19.459c-29,33.521-23.125,117.271-22.958,119.396
	v337.354c0,5.896-4.771,10.666-10.667,10.666c-5.896,0-10.666-4.771-10.666-10.666v-0.542c0,0,0-0.021,0-0.042l0.063-311.833
	l0.021-0.188v-15.042c-0.896-12.813-4.375-31.188-16.021-44.708c-9.688-11.271-23.896-17.375-42.187-18.167
	c-21.666-1.313-38.457,4.438-49.52,16c-19.313,20.188-16.688,53.354-16.604,54.646c0,0,0.125,311.166,0,333.791
	c-0.042,5.875-4.792,10.604-10.667,10.604h-0.042c-5.874-0.021-10.624-4.792-10.624-10.667l0.021-178.791
	c-3.813-64.688-17.313-95-57.478-97.042c-15.5-0.646-27.75,3.438-37.104,12.917c-24.438,24.854-21.25,76.646-21.188,77.896v449.417
	c0,48.938,14.416,87.625,42.812,115c50.27,48.458,128.747,46.104,129.914,46.146h318.774c0.042,0,0.042,0,0.084,0
	c114.331,0,139.08-92.333,140.414-97.417c11.333-30.125,132.08-367.771,133.538-371.791
	C885.294,492.938,920.918,408.063,856.461,379.854z"/>
</svg>
