<?xml version="1.0" encoding="utf-8"?>
<!-- Generator: Adobe Illustrator 16.0.0, SVG Export Plug-In . SVG Version: 6.00 Build 0)  -->
<!DOCTYPE svg PUBLIC "-//W3C//DTD SVG 1.1//EN" "http://www.w3.org/Graphics/SVG/1.1/DTD/svg11.dtd">
<svg version="1.1" id="Layer_1" xmlns="http://www.w3.org/2000/svg" xmlns:xlink="http://www.w3.org/1999/xlink" x="0px" y="0px"
	 width="1024px" height="1024px" viewBox="0 0 1024 1024" enable-background="new 0 0 1024 1024" xml:space="preserve">
<path fill="#414042" d="M888.211,296.375c-9.75-10.5-22.458-15.604-38.75-15.604c-0.166,0.021-2.249,0.042-2.541,0.042
	c-2.417,0-60.624,1-60.624,87.896v213.209c0,5.896-4.791,10.666-10.666,10.666c-5.917,0-10.667-4.771-10.667-10.666V228.833
	c0.042-1.291,3.042-41.583-19.166-65.666c-11.25-12.188-27.499-18.375-48.374-18.375l-3.208,0.041
	c-51.666,1.459-64.957,38.979-66.999,70.188v344.063v0.021v0.604c0,5.896-4.75,10.667-10.666,10.667
	c-5.875,0-10.667-4.771-10.667-10.667V150.229c0.125-1.584,4.833-50.875-19.749-78.084c-10.958-12.125-25.916-18.021-45.708-18.021
	c-17.364,0-29.968,6.542-41.488,17.104c-29.875,27.438-24.208,98.271-24.146,98.938l0.583,368.854c0,3.771-1.958,7.25-5.188,9.167
	c-3.229,1.958-7.229,2.042-10.521,0.25c-3.458-1.854-7.021-6.208-7.021-10.146V197.458c0.083-1.396,3.938-52.5-21.562-80.188
	c-11-11.938-25.646-17.729-44.813-17.729c-14.833,0-26.562,4.771-35.832,14.563c-25.75,27.229-22.958,82.938-22.938,83.5
	l0.021,407.896c0,5.25-3.813,9.729-9,10.542c-5.375,0.75-10.208-2.292-11.813-7.271l-45.895-142.208
	c-6.604-27.021-32.041-95.188-72.499-95.188c-5.625,0-11.604,1.271-17.729,3.792c-16.229,6.646-27.041,17-33.021,31.666
	c-14.771,36.167,5.709,84.625,5.917,85.125c1.479,4.021,122.331,342.084,133.664,372.25c1.375,5.084,26.146,97.542,140.643,97.542
	l322.087,0.042c28.417,0,170.08-7.792,170.08-161.459V377.5C910.044,376.208,913.418,323.375,888.211,296.375z"/>
</svg>
