<?xml version="1.0" encoding="utf-8"?>
<!-- Generator: Adobe Illustrator 16.0.0, SVG Export Plug-In . SVG Version: 6.00 Build 0)  -->
<!DOCTYPE svg PUBLIC "-//W3C//DTD SVG 1.1//EN" "http://www.w3.org/Graphics/SVG/1.1/DTD/svg11.dtd">
<svg version="1.1" id="Layer_1" xmlns="http://www.w3.org/2000/svg" xmlns:xlink="http://www.w3.org/1999/xlink" x="0px" y="0px"
	 width="1024px" height="1024px" viewBox="0 0 1024 1024" enable-background="new 0 0 1024 1024" xml:space="preserve">
<g>
	<path fill="#414042" d="M943.585,798.646l-72.374-145.688c-0.458-1.021-13.541-31.479-33.791-31.479
		c-4.125,0-8.541,1.229-13.125,3.666c-11.041,5.834-20.874,15.75-10.124,45.021l25.582,51.354c0,0,0,0.042,0.042,0.063l0.083,0.167
		c2.584,5.271,0.459,11.688-4.833,14.313c-5.208,2.583-11.666,0.458-14.291-4.813l-0.084-0.146
		c-2.208-4.479-34.582-69.646-34.582-69.646c-0.459-1.083-10.25-25.021-30.041-25.021c-5.458,0-11.458,1.729-17.917,5.146
		c-17.749,9.417-22.624,24.042-14.541,43.459l31.249,62.791c2.584,5.271,0.542,11.834-4.749,14.459
		c-5.292,2.646-11.584,0.625-14.25-4.646l-41.416-83.416C694.215,673.813,684.59,654,666.924,654c-4.792,0-9.959,1.396-15.417,4.125
		c-24.166,12.063-14.416,40.875-13.249,44.125l35.707,71.104c1.667,3.291,1.5,7.229-0.458,10.375c-4.083,6.604-16,6.104-19.5-0.854
		l-93.539-188.354c-0.5-1.146-12.75-31.313-34.572-31.313c-4.563,0-9.479,1.292-14.604,3.834
		c-6.396,3.188-10.375,7.604-12.166,13.521c-5.083,16.792,7.813,39.958,7.938,40.188L618.758,845.5
		c2.292,4.688,0.917,10.354-3.333,13.396c-4.25,3.042-10.083,2.563-13.75-1.083l-55.999-55.771
		c-7.083-8.188-27.78-27.896-44.635-27.896c-5.583,0-10.166,2.209-14.437,6.938c-5.688,6.229-8.188,12.729-7.688,19.854
		c1.083,14.979,15.479,29.979,20.937,34.5c1.917,1.75,140.695,131.375,153.32,142.729c1.625,1.708,18.75,20.583,48.457,20.583
		c12.375,0,25.375-3.354,38.624-9.917l157.705-78.354c0.709-0.334,39.583-18.375,51.749-52.771
		C956.126,839.625,954.084,819.75,943.585,798.646z"/>
	<path fill="#414042" d="M449.896,887.958c-26.541,0-45.791-11.271-45.791-26.791c0-14.625,17.208-25.334,41.438-26.521
		c-4.604-8.854-8.313-19.063-9.167-30.5c-0.417-5.563,0.063-10.979,0.979-16.313H204.943c-5.896,0-10.667-4.771-10.667-10.666v-616
		c0-5.896,4.771-10.667,10.667-10.667h559.979c5.916,0,10.666,4.771,10.666,10.667v435.771c3.667,1.063,7.25,2.313,10.5,3.938
		c6.416-6.458,13.208-10.792,18.249-13.438c10.792-5.729,21.917-8.625,33.083-8.625c21.958,0,38.416,10.688,50.166,22.813V161.167
		c0-67.646-54.999-122.667-122.664-122.667H204.943c-67.645,0-122.664,55.021-122.664,122.667v672
		c0,67.646,55.02,122.666,122.664,122.666h361.482c-25.541-23.771-53.697-50.041-72.801-67.875H449.896z"/>
</g>
</svg>
