<?xml version="1.0" encoding="utf-8"?>
<!-- Generator: Adobe Illustrator 16.0.0, SVG Export Plug-In . SVG Version: 6.00 Build 0)  -->
<!DOCTYPE svg PUBLIC "-//W3C//DTD SVG 1.1//EN" "http://www.w3.org/Graphics/SVG/1.1/DTD/svg11.dtd">
<svg version="1.1" id="Layer_1" xmlns="http://www.w3.org/2000/svg" xmlns:xlink="http://www.w3.org/1999/xlink" x="0px" y="0px"
	 width="1024px" height="1024px" viewBox="0 0 1024 1024" enable-background="new 0 0 1024 1024" xml:space="preserve">
<path fill="#414042" d="M927.668,427.146c-9.916-10.646-22.916-15.833-39.832-15.833l-2.167,0.042
	c-36.874,0.938-55.749,23.333-61.165,72.625l0.083,105.104c0,0.146,0,0.271,0,0.271c0,6.041-4.792,10.813-10.666,10.813
	c-5.917,0-10.667-4.771-10.667-10.667c0-9.25,0-141.333,0-141.333c0.042-1.292,2.917-38.292-18.041-61.125
	c-11.333-12.313-27.958-18.542-49.499-18.542l-3.167,0.042c-51.749,1.396-65.04,36.958-67.082,66.563l0.042,131.625
	c0,0.021,0,0.041,0,0.041v0.604c0,5.896-4.792,10.667-10.666,10.667c-5.917,0-10.667-4.771-10.667-10.667V394.917
	c0-0.584,0.458-32.521-19.208-52.604c-10.916-11.167-26.374-16.813-45.999-16.813c-58.259,0.146-65.655,65.833-65.946,68.625
	l0.604,152.417c0.021,3.708-1.896,7.146-5.041,9.104c-3.125,1.938-7.104,2.125-10.396,0.479c-3.604-1.813-7.313-6.208-7.313-10.25
	V189.354h225.006l-82.623,79.291c-4.25,4.063-4.375,10.834-0.292,15.084c2.083,2.166,4.875,3.271,7.708,3.271
	c2.667,0,5.292-0.979,7.375-2.979l101.456-97.375c1-0.958,1.75-2.229,2.334-3.604c0.583-1.334,0.958-2.792,0.958-4.354
	c0-0.063-0.042-0.104-0.042-0.146l0.042-0.146c0-2.896-1.208-5.688-3.292-7.688L648.049,73.375c-4.25-4.125-11-3.958-15.083,0.313
	c-4.083,4.25-3.958,11,0.333,15.063l82.582,79.271H490.875V157.5c0.083-1.396,3.813-48.583-20.458-75.021
	c-11.083-12.063-26.104-17.938-45.916-17.938c-15.416,0-27.479,4.854-36.895,14.854c-24.708,26.229-21.896,77.625-21.875,78.146
	l0,10.499l-227.141-0.021l82.623-79.271c4.271-4.063,4.396-10.813,0.313-15.063c-4.063-4.271-10.813-4.417-15.063-0.313
	l-101.456,97.333c-1.063,1-1.875,2.334-2.438,3.792c-0.542,1.292-0.854,2.708-0.854,4.188l0.021,0.125l-0.021,0.146
	c0,2.896,1.188,5.688,3.271,7.688l101.456,97.375c2.083,2,4.729,2.979,7.396,2.979c2.792,0,5.604-1.104,7.688-3.271
	c4.083-4.25,3.958-11.021-0.292-15.084l-82.623-79.291l227.122,0.02l0.02,422.605c0,5.229-3.792,9.688-8.938,10.521
	c-5.333,0.917-10.167-2.146-11.833-7.104l-45.874-135.729c-6.625-25.771-32.104-90.604-72.624-90.604
	c-5.666,0-11.688,1.208-17.854,3.625c-16.563,6.479-27.458,16.604-33.312,30.958c-13.896,34.084,6.083,79.167,6.291,79.625
	c1.479,3.896,122.269,326.375,133.685,355.104c1.396,4.979,26.166,92.979,140.706,92.979l322.212,0.041
	c28.416,0,170.121-7.396,170.121-153.541V503.021C948.376,501.75,951.668,452.958,927.668,427.146z"/>
</svg>
