<?xml version="1.0" encoding="utf-8"?>
<!-- Generator: Adobe Illustrator 16.0.0, SVG Export Plug-In . SVG Version: 6.00 Build 0)  -->
<!DOCTYPE svg PUBLIC "-//W3C//DTD SVG 1.1//EN" "http://www.w3.org/Graphics/SVG/1.1/DTD/svg11.dtd">
<svg version="1.1" id="Layer_1" xmlns="http://www.w3.org/2000/svg" xmlns:xlink="http://www.w3.org/1999/xlink" x="0px" y="0px"
	 width="1024px" height="1024px" viewBox="0 0 1024 1024" enable-background="new 0 0 1024 1024" xml:space="preserve">
<path fill="#414042" d="M913.752,436.854c-9.875-10.646-22.916-15.834-39.833-15.834l-2.125,0.042
	c-36.916,0.938-55.748,23.333-61.165,72.625l0.042,105.104c0,0,0,0.271,0,0.416c0,5.896-4.75,10.667-10.667,10.667
	c-5.875,0-10.666-4.771-10.666-10.667c0-9.25,0-141.333,0-141.333c0.083-1.292,2.958-38.292-18.042-61.125
	c-11.291-12.313-27.957-18.542-49.499-18.542l-3.166,0.042c-51.707,1.396-64.999,36.979-67.04,66.583v131.604v0.042v0.604
	c0,5.896-4.75,10.667-10.667,10.667c-5.875,0-10.666-4.771-10.666-10.667V404.625c0-0.583,0.458-32.521-19.208-52.583
	c-10.917-11.167-26.375-16.813-45.958-16.813c-57.967,0.125-65.676,65.833-65.967,68.625l0.583,152.396
	c0.021,3.688-1.875,7.104-4.979,9.063c-3.125,1.979-7.063,2.188-10.334,0.583c-3.687-1.791-7.437-6.208-7.437-10.291V167.208
	c0.083-1.396,3.813-48.583-20.458-75.021c-11.083-12.063-26.083-17.938-45.916-17.938c-15.416,0-27.479,4.854-36.874,14.854
	c-24.708,26.229-21.916,77.625-21.875,78.146v10.5h-225.37l82.623-79.25c4.25-4.083,4.375-10.833,0.313-15.083
	c-4.083-4.271-10.833-4.396-15.083-0.334L92.862,180.396c-1.063,1.021-1.875,2.375-2.438,3.854
	c-0.542,1.271-0.833,2.688-0.833,4.167l0.021,0.125l-0.021,0.146c0,2.896,1.166,5.688,3.271,7.688l101.456,97.354
	c2.063,2,4.729,2.979,7.396,2.979c2.792,0,5.584-1.104,7.688-3.291c4.063-4.25,3.938-11-0.313-15.063l-82.603-79.271h225.35v422.604
	c0,5.229-3.771,9.688-8.916,10.521c-5.209,0.813-10.167-2.146-11.833-7.104l-45.874-135.709
	c-6.625-25.771-32.104-90.625-72.624-90.625c-5.666,0-11.688,1.229-17.854,3.646c-16.563,6.479-27.438,16.563-33.291,30.875
	c-13.896,33.916,6.063,79.229,6.271,79.688c1.458,3.896,122.247,326.396,133.664,355.104c1.417,4.979,26.166,92.979,140.727,92.979
	l322.232,0.042c28.375,0,170.08-7.396,170.08-153.521V512.729C934.501,511.458,937.751,462.667,913.752,436.854z"/>
</svg>
