<?xml version="1.0" encoding="utf-8"?>
<!-- Generator: Adobe Illustrator 16.0.0, SVG Export Plug-In . SVG Version: 6.00 Build 0)  -->
<!DOCTYPE svg PUBLIC "-//W3C//DTD SVG 1.1//EN" "http://www.w3.org/Graphics/SVG/1.1/DTD/svg11.dtd">
<svg version="1.1" id="Layer_1" xmlns="http://www.w3.org/2000/svg" xmlns:xlink="http://www.w3.org/1999/xlink" x="0px" y="0px"
	 width="1024px" height="1024px" viewBox="0 0 1024 1024" enable-background="new 0 0 1024 1024" xml:space="preserve">
<path fill="#414042" d="M899.794,455.708c-9.875-10.646-22.916-15.833-39.791-15.833l-2.167,0.042
	c-36.916,0.938-55.749,23.333-61.165,72.625l0.042,105.083c0,0.146,0,0.271,0,0.417c0,5.896-4.75,10.666-10.667,10.666
	c-5.875,0-10.666-4.771-10.666-10.666c0-9.25,0-141.313,0-141.313c0.083-1.292,2.958-38.292-18.042-61.125
	c-11.291-12.313-27.957-18.542-49.457-18.542l-3.208,0.042c-51.707,1.375-64.999,36.958-67.04,66.563v131.625
	c0,0.021,0,0.021,0,0.041v0.584c0,5.896-4.75,10.666-10.667,10.666c-5.875,0-10.666-4.771-10.666-10.666v-378h226.412
	l-82.624,79.271c-4.25,4.063-4.375,10.813-0.291,15.063c2.083,2.188,4.875,3.292,7.708,3.292c2.625,0,5.291-0.979,7.375-2.979
	l101.456-97.333c2.083-2,3.292-4.792,3.292-7.688c0-0.042-0.042-0.104-0.042-0.146c0-0.063,0.042-0.104,0.042-0.146
	c0-1.5-0.334-2.917-0.875-4.208c-0.584-1.438-1.375-2.771-2.417-3.771L774.88,101.938c-4.25-4.104-11-3.958-15.083,0.313
	c-4.084,4.25-3.959,11,0.291,15.063l82.624,79.271H616.3v-71.791c0-0.584,0.458-32.5-19.167-52.584
	c-10.916-11.146-26.374-16.791-45.999-16.791c-57.967,0.104-65.676,65.833-65.967,68.625l0.583,451.063
	c0,3.666-1.854,7.063-4.938,9.021c-3.104,1.958-6.938,2.208-10.271,0.646c-3.729-1.75-7.541-6.188-7.541-10.313V186.042
	c0.083-1.396,3.812-48.563-20.458-75c-11.083-12.063-26.083-17.938-45.916-17.938c-15.416,0-27.479,4.854-36.874,14.854
	c-24.708,26.229-21.917,77.625-21.875,78.146v454.438c0,5.229-3.771,9.688-8.916,10.521c-5.229,0.958-10.167-2.146-11.833-7.104
	L271.255,508.25c-6.625-25.771-32.104-90.625-72.624-90.625c-5.666,0-11.688,1.229-17.854,3.646
	c-16.542,6.459-27.438,16.563-33.291,30.854c-13.896,33.917,6.063,79.25,6.271,79.708c1.458,3.896,122.247,326.375,133.664,355.104
	c1.417,4.979,26.166,92.979,140.727,92.979l322.232,0.041c28.375,0,170.08-7.396,170.08-153.541V531.563
	C920.543,530.292,923.793,481.5,899.794,455.708z"/>
</svg>
