<?xml version="1.0" encoding="utf-8"?>
<!-- Generator: Adobe Illustrator 16.0.0, SVG Export Plug-In . SVG Version: 6.00 Build 0)  -->
<!DOCTYPE svg PUBLIC "-//W3C//DTD SVG 1.1//EN" "http://www.w3.org/Graphics/SVG/1.1/DTD/svg11.dtd">
<svg version="1.1" id="Layer_1" xmlns="http://www.w3.org/2000/svg" xmlns:xlink="http://www.w3.org/1999/xlink" x="0px" y="0px"
	 width="1024px" height="1024px" viewBox="0 0 1024 1024" enable-background="new 0 0 1024 1024" xml:space="preserve">
<g>
	<path fill="#414042" d="M962.001,271.271c-6.833-27.688-25.916-50.771-56.666-68.583L616.425,35.354
		c-0.875-0.542-24.416-16.209-46.499-16.209c-13.75,0-23.25,5.959-29.791,18.771c-10.115,19.688-7.136,38.063,38.832,68.813
		l116.081,67.188c5.083,2.938,6.833,9.458,3.917,14.541c-2.959,5.104-9.459,6.875-14.542,3.938
		C669.84,184.063,469.792,68.104,469.792,68.104c-0.958-0.604-15.083-10.334-30.999-10.334c-14.75,0-26.271,8.334-35.208,25.438
		c-11.521,22.042-5.604,41.25,17.583,57.125l210.715,122c0,0,10.958,5.459,3.625,15.459c-5.584,7.604-14.292,3-14.292,3
		L421.188,164.958c-0.104,0-5.396-2.479-12.062-7.021l-4.75-2.729c-1.5-1.021-40.374-30.188-74.228-30.188
		c-15.938,0-27.729,6.604-36.063,20.188c-5.749,9.417-7.208,18.521-4.416,27.854c6.979,23.25,38.874,42.625,50.582,48.125
		l224.548,129.625c3.291,1.917,5.333,5.458,5.333,9.271c-0.042,3.834-2.083,7.354-5.417,9.25c-3.291,1.834-8.291,2.396-11.541,0.479
		l-84.426-48.896c-0.229-0.125-13.083-7.479-32.499-7.479c-16.729,0-33.374,5.313-49.457,15.792
		c-0.417,0.271-38.041,27.771-24.75,155.75c1.896,4.104,10.5,18.313,32.875,15.875l2.708-0.021c5.688,0,24.708-1.438,30.979-20
		l19.708-58.416c1.021-3.021,3.354-5.438,6.313-6.563c3.021-1.104,6.333-0.854,9.104,0.729l130.028,74.688
		c4.417,2.521,6.417,7.792,4.834,12.584c-1.584,4.813-6.458,7.791-11.375,7.271l-47.416-5.521
		c-1.166-0.209-18.947-3.959-39.301-3.959c-23,0-51.416,4.729-56.104,27.25c-2.354,11.354-0.646,20.875,5.271,29.104
		c13.459,18.75,45.958,26.458,57.333,27.854c2.688,0.521,182.423,37.875,205.798,41.791c1.25,0.292,9.916,2.688,22.666,2.688
		c26.166,0,62.957-9.625,89.415-55.416l118.747-204.938C944.168,369.167,974.209,320.479,962.001,271.271z"/>
	<path fill="#414042" d="M704.131,669.458c-5.75-1-16.708-3.146-30.999-6V837.75c0,5.208-4.208,9.438-9.417,9.438H167.735
		c-5.229,0-9.437-4.229-9.437-9.438V292.188c0-5.208,4.208-9.438,9.437-9.438h193.809l-41.332-23.854
		c-11.333-5.646-58.749-31.375-71.395-73.563c-0.167-0.541-0.292-1.208-0.458-1.771h-80.624
		c-59.895,0-108.644,48.729-108.644,108.625v595.167c0,59.896,48.749,108.625,108.644,108.625h495.979
		c59.874,0,108.623-48.729,108.623-108.625V668.208c-11.75,3.125-24.041,4.792-36.874,4.792
		C724.506,673,713.923,671.792,704.131,669.458z M446.751,935.854h-62.082c-23.5,0-40.541-9.959-40.541-23.709
		c0-13.729,17.041-23.688,40.541-23.688h62.082c23.499,0,40.541,9.959,40.541,23.688
		C487.292,925.896,470.25,935.854,446.751,935.854z"/>
	<path fill="#414042" d="M430.46,726.75c0.583,5.5,5.208,9.583,10.624,9.583c0.354,0,0.709-0.021,1.084-0.063
		c60.103-6.146,112.425-39.729,143.549-90.604c-7.333-1.5-14.75-3.042-22.166-4.563c-28,41.583-72.718,68.75-123.55,73.958
		C434.126,715.646,429.876,720.896,430.46,726.75z"/>
	<path fill="#414042" d="M425.835,638.229c-5.854,0.583-10.125,5.833-9.542,11.688c0.584,5.5,5.208,9.583,10.625,9.583
		c0.333,0,0.708-0.021,1.083-0.063c25.646-2.604,49.146-14.313,66.749-32.354c-5.875-1.083-14.666-3.166-24.625-6.625
		C457.417,630.208,442.209,636.563,425.835,638.229z"/>
	<path fill="#414042" d="M323.337,502.958l-1.709-3.708c-10.396,19.083-15.124,41.063-12.874,63.063
		c0.583,5.5,5.208,9.583,10.625,9.583c0.354,0,0.708-0.021,1.083-0.063c5.875-0.604,10.125-5.833,9.541-11.688
		c-1.438-13.833,0.375-27.396,5.125-39.896C330.087,514.75,326.065,508.833,323.337,502.958z"/>
	<path fill="#414042" d="M317.17,412.958c0.521-10,1.417-19.25,2.584-27.729c-1.084,0.291-2.167,0.646-3.167,1.313
		c-59.249,39.541-91.54,108.063-84.29,178.813c0.583,5.5,5.208,9.583,10.625,9.583c0.354,0,0.708-0.021,1.083-0.063
		c5.875-0.604,10.125-5.833,9.542-11.688C247.567,505.063,271.921,448.917,317.17,412.958z"/>
</g>
</svg>
