<?xml version="1.0" encoding="utf-8"?>
<!-- Generator: Adobe Illustrator 16.0.0, SVG Export Plug-In . SVG Version: 6.00 Build 0)  -->
<!DOCTYPE svg PUBLIC "-//W3C//DTD SVG 1.1//EN" "http://www.w3.org/Graphics/SVG/1.1/DTD/svg11.dtd">
<svg version="1.1" id="Layer_1" xmlns="http://www.w3.org/2000/svg" xmlns:xlink="http://www.w3.org/1999/xlink" x="0px" y="0px"
	 width="48px" height="48px" viewBox="0 0 48 48" enable-background="new 0 0 48 48" xml:space="preserve">
<path fill="#414042" d="M40.587,21.904c0.009-0.169,0.014-0.339,0.014-0.509c0-3.634-1.998-6.805-4.949-8.489
	c-1.736-3.056-4.973-4.953-8.491-4.953c-4.033,0-7.62,2.458-9.088,6.17c-0.695-0.246-1.515-0.362-2.529-0.362
	c-3.22,0-5.956,2.209-6.652,5.309c-4.532,0.324-8.025,4.045-8.025,8.642c0,3.252,1.784,6.173,4.658,7.674
	c1.449,2.766,4.343,4.66,7.674,4.66h24.662c5.114,0,9.275-4.161,9.275-9.275C47.135,26.681,44.463,23.092,40.587,21.904z
	 M1.865,27.713c0-4.186,3.274-7.55,7.455-7.662c0.239-0.007,0.44-0.183,0.479-0.419c0.463-2.822,2.879-4.87,5.743-4.87
	c1.115,0,1.941,0.15,2.6,0.474c0.129,0.062,0.28,0.068,0.414,0.012c0.133-0.056,0.235-0.166,0.281-0.303
	c1.195-3.584,4.54-5.992,8.322-5.992c2.628,0,5.07,1.189,6.719,3.163c-0.961-0.316-1.984-0.494-3.051-0.494
	c-4.033,0-7.619,2.458-9.086,6.17c-0.696-0.246-1.517-0.362-2.531-0.362c-3.221,0-5.956,2.21-6.651,5.31
	c-4.532,0.324-8.025,4.045-8.025,8.641c0,0.837,0.125,1.645,0.348,2.411C3,32.358,1.865,30.145,1.865,27.713z M37.859,39.047H13.197
	c-4.226,0-7.663-3.438-7.663-7.666c0-4.185,3.274-7.55,7.455-7.661c0.239-0.006,0.441-0.182,0.479-0.419
	c0.462-2.822,2.877-4.871,5.742-4.871c1.116,0,1.942,0.15,2.601,0.475c0.129,0.062,0.279,0.068,0.414,0.012
	c0.133-0.056,0.235-0.166,0.281-0.303c1.195-3.584,4.539-5.992,8.321-5.992c4.837,0,8.772,3.935,8.772,8.773
	c0,0.28-0.014,0.559-0.041,0.831c-0.021,0.211,0.093,0.41,0.284,0.501c0.041,0.02,0.084,0.034,0.128,0.041
	c3.631,0.955,6.163,4.241,6.163,8.004C46.135,35.335,42.423,39.047,37.859,39.047z"/>
</svg>
