<?xml version="1.0" encoding="utf-8"?>
<!-- Generator: Adobe Illustrator 16.0.0, SVG Export Plug-In . SVG Version: 6.00 Build 0)  -->
<!DOCTYPE svg PUBLIC "-//W3C//DTD SVG 1.1//EN" "http://www.w3.org/Graphics/SVG/1.1/DTD/svg11.dtd">
<svg version="1.1" id="Layer_1" xmlns="http://www.w3.org/2000/svg" xmlns:xlink="http://www.w3.org/1999/xlink" x="0px" y="0px"
	 width="48px" height="48px" viewBox="0 0 48 48" enable-background="new 0 0 48 48" xml:space="preserve">
<path fill="#414042" d="M47.004,20.336l-4.436-1.242c-0.066-0.019-0.134-0.022-0.198-0.014c0.03-0.31,0.062-0.62,0.062-0.942
	c0-0.873-0.142-1.711-0.396-2.5c0.059,0.023,0.113,0.059,0.178,0.059c0.046,0,0.094-0.007,0.141-0.021l4.421-1.296
	c0.265-0.078,0.417-0.356,0.339-0.621c-0.077-0.265-0.353-0.419-0.62-0.339l-4.421,1.297c-0.129,0.038-0.23,0.125-0.292,0.233
	c-0.47-1.099-1.179-2.067-2.055-2.855c0.131-0.005,0.261-0.058,0.354-0.164l3.061-3.443c0.184-0.206,0.164-0.522-0.042-0.706
	c-0.205-0.185-0.523-0.166-0.706,0.042l-3.061,3.443c-0.103,0.116-0.136,0.265-0.113,0.407c-0.924-0.706-1.997-1.22-3.169-1.479
	c0.056-0.066,0.101-0.143,0.116-0.234l0.772-4.541c0.046-0.272-0.137-0.531-0.409-0.577c-0.266-0.041-0.53,0.137-0.577,0.409
	L35.18,9.792c-0.016,0.092,0.003,0.18,0.034,0.261c-0.303-0.034-0.61-0.056-0.923-0.056c-0.872,0-1.707,0.125-2.491,0.356
	l-1.747-4.251c-0.105-0.256-0.397-0.375-0.653-0.272c-0.255,0.105-0.377,0.397-0.272,0.652l1.733,4.217
	c-1.106,0.48-2.077,1.19-2.844,2.101l-3.445-2.469c-0.223-0.162-0.536-0.11-0.697,0.115c-0.161,0.224-0.109,0.537,0.115,0.697
	l3.443,2.468c-0.204,0.319-0.384,0.658-0.543,1.013c-3.988,0.06-7.521,2.51-8.978,6.192c-0.698-0.246-1.521-0.362-2.544-0.362
	c-3.231,0-5.977,2.218-6.676,5.33C4.14,26.11,0.631,29.85,0.631,34.466c0,4.797,3.902,8.699,8.699,8.699h24.771
	c5.136,0,9.314-4.178,9.314-9.313c0-3.691-2.167-6.968-5.427-8.463c0.812-0.365,1.523-0.851,2.129-1.44l2.915,3.197
	c0.099,0.108,0.233,0.163,0.369,0.163c0.12,0,0.241-0.043,0.337-0.131c0.204-0.186,0.219-0.502,0.032-0.706L40.787,23.2
	c0.7-0.905,1.188-1.979,1.437-3.182c0.025,0.012,0.047,0.031,0.075,0.039l4.436,1.242c0.045,0.013,0.091,0.019,0.135,0.019
	c0.219,0,0.42-0.145,0.481-0.365C47.425,20.687,47.27,20.411,47.004,20.336z M42.416,33.853c0,4.584-3.729,8.313-8.314,8.313H9.33
	c-4.245,0-7.699-3.454-7.699-7.699c0-4.186,3.259-7.556,7.43-7.699c0.002,0,0.004,0,0.006,0c0.297,0.019,0.492-0.161,0.534-0.417
	c0.465-2.837,2.891-4.895,5.768-4.895c1.125,0,1.955,0.15,2.613,0.475c0.13,0.062,0.28,0.068,0.413,0.012
	c0.134-0.056,0.236-0.166,0.282-0.303c1.203-3.601,4.563-6.02,8.362-6.02c4.859,0,8.813,3.954,8.813,8.814
	c0,0.283-0.014,0.562-0.041,0.834c-0.02,0.192,0.075,0.378,0.24,0.479c0.052,0.03,0.107,0.052,0.164,0.063
	C39.868,26.764,42.416,30.067,42.416,33.853z M37.258,24.635c-0.003,0.001-0.005,0.004-0.009,0.005
	c-0.209,0.088-0.338,0.128-0.405,0.14c0.004-0.115,0.009-0.23,0.009-0.348c0-5.092-3.898-9.288-8.866-9.766
	c1.186-2.271,3.537-3.669,6.305-3.669c3.938,0,7.141,3.203,7.141,7.141C41.432,21.191,39.871,23.62,37.258,24.635z"/>
</svg>
