<?xml version="1.0" encoding="utf-8"?>
<!-- Generator: Adobe Illustrator 16.0.0, SVG Export Plug-In . SVG Version: 6.00 Build 0)  -->
<!DOCTYPE svg PUBLIC "-//W3C//DTD SVG 1.1//EN" "http://www.w3.org/Graphics/SVG/1.1/DTD/svg11.dtd">
<svg version="1.1" id="Layer_1" xmlns="http://www.w3.org/2000/svg" xmlns:xlink="http://www.w3.org/1999/xlink" x="0px" y="0px"
	 width="48px" height="48px" viewBox="0 0 48 48" enable-background="new 0 0 48 48" xml:space="preserve">
<path fill="#414042" d="M46.996,15.231c-0.131-0.135-0.324-0.188-0.507-0.13c-0.563,0.174-1.149,0.262-1.739,0.262
	c-3.259,0-5.91-2.651-5.91-5.911c0-0.65,0.11-1.299,0.329-1.928c0.062-0.178,0.018-0.375-0.113-0.511
	c-0.131-0.135-0.323-0.185-0.507-0.131c-2.916,0.898-4.875,3.552-4.875,6.605c0,0.475,0.048,0.938,0.14,1.386
	c-1.728-1.492-3.971-2.401-6.427-2.401c-4.069,0-7.687,2.48-9.165,6.226c-0.703-0.249-1.53-0.366-2.556-0.366
	c-3.248,0-6.007,2.229-6.707,5.356c-4.571,0.326-8.096,4.079-8.096,8.714c0,4.818,3.919,8.738,8.735,8.738h24.881
	c5.157,0,9.354-4.195,9.354-9.353c0-4.127-2.696-7.747-6.606-8.944c0.009-0.171,0.014-0.343,0.014-0.516
	c0-1.086-0.184-2.129-0.51-3.108c1.102,0.743,2.428,1.177,3.854,1.177c2.942,0,5.565-1.871,6.525-4.655
	C47.171,15.564,47.127,15.367,46.996,15.231z M42.833,31.787c0,4.605-3.747,8.353-8.354,8.353H9.599
	c-4.266,0-7.735-3.472-7.735-7.738c0-4.225,3.306-7.621,7.525-7.733c0.239-0.007,0.441-0.183,0.479-0.419
	c0.468-2.849,2.905-4.917,5.798-4.917c1.127,0,1.961,0.152,2.625,0.479c0.13,0.064,0.28,0.069,0.413,0.013
	c0.134-0.056,0.236-0.166,0.282-0.303c1.206-3.618,4.582-6.048,8.4-6.048c4.882,0,8.854,3.973,8.854,8.856
	c0,0.282-0.014,0.564-0.041,0.838c-0.02,0.193,0.075,0.378,0.241,0.478c0.051,0.03,0.106,0.052,0.163,0.063
	C40.272,24.667,42.833,27.986,42.833,31.787z M40.584,19.397c-3.259,0-5.91-2.651-5.91-5.91c0-2.289,1.287-4.315,3.285-5.298
	c-0.079,0.418-0.119,0.84-0.119,1.263c0,3.811,3.1,6.911,6.91,6.911c0.347,0,0.692-0.026,1.034-0.078
	C44.768,18.178,42.78,19.397,40.584,19.397z"/>
</svg>
