<?xml version="1.0" encoding="utf-8"?>
<!-- Generator: Adobe Illustrator 16.0.0, SVG Export Plug-In . SVG Version: 6.00 Build 0)  -->
<!DOCTYPE svg PUBLIC "-//W3C//DTD SVG 1.1//EN" "http://www.w3.org/Graphics/SVG/1.1/DTD/svg11.dtd">
<svg version="1.1" id="Layer_1" xmlns="http://www.w3.org/2000/svg" xmlns:xlink="http://www.w3.org/1999/xlink" x="0px" y="0px"
	 width="48px" height="48px" viewBox="0 0 48 48" enable-background="new 0 0 48 48" xml:space="preserve">
<g>
	<path fill="#414042" d="M38.781,12.951c0.009-0.169,0.014-0.34,0.014-0.51c0-5.4-4.393-9.793-9.791-9.793
		c-4.04,0-7.634,2.463-9.105,6.184c-0.698-0.247-1.52-0.364-2.536-0.364c-3.225,0-5.966,2.214-6.664,5.321
		c-4.541,0.324-8.041,4.052-8.041,8.658c0,4.788,3.894,8.683,8.68,8.683H36.05c5.124,0,9.293-4.169,9.293-9.292
		C45.343,17.737,42.665,14.141,38.781,12.951z M36.05,30.13H11.337c-4.234,0-7.68-3.447-7.68-7.683c0-4.194,3.281-7.566,7.471-7.678
		c0.239-0.007,0.44-0.182,0.479-0.419c0.465-2.829,2.886-4.882,5.755-4.882c1.117,0,1.945,0.151,2.605,0.476
		c0.13,0.064,0.28,0.069,0.413,0.013c0.134-0.056,0.236-0.166,0.282-0.303c1.199-3.592,4.552-6.006,8.341-6.006
		c4.848,0,8.791,3.944,8.791,8.793c0,0.28-0.014,0.561-0.041,0.834c-0.021,0.21,0.094,0.409,0.285,0.5
		c0.039,0.019,0.079,0.032,0.12,0.04c3.643,0.955,6.184,4.25,6.184,8.023C44.343,26.41,40.623,30.13,36.05,30.13z"/>
	<path fill="#414042" d="M9.8,33.305c-0.244-0.121-0.547-0.016-0.667,0.233l-1.625,3.375c-0.12,0.249-0.016,0.548,0.233,0.667
		c0.069,0.034,0.144,0.05,0.217,0.05c0.186,0,0.364-0.104,0.45-0.283l1.625-3.375C10.153,33.723,10.049,33.424,9.8,33.305z"/>
	<path fill="#414042" d="M22.815,33.305c-0.248-0.121-0.547-0.016-0.667,0.233l-1.623,3.375c-0.12,0.249-0.016,0.548,0.233,0.667
		c0.07,0.034,0.144,0.05,0.217,0.05c0.186,0,0.364-0.104,0.45-0.283l1.623-3.375C23.169,33.723,23.064,33.424,22.815,33.305z"/>
	<path fill="#414042" d="M35.832,33.305c-0.244-0.121-0.547-0.016-0.667,0.233l-1.627,3.375c-0.12,0.248-0.016,0.547,0.233,0.667
		c0.069,0.034,0.144,0.05,0.217,0.05c0.186,0,0.364-0.104,0.45-0.283l1.627-3.375C36.186,33.724,36.081,33.425,35.832,33.305z"/>
	<path fill="#414042" d="M13.351,41.025c-0.248-0.122-0.547-0.016-0.667,0.233l-1.625,3.377c-0.12,0.249-0.016,0.548,0.233,0.667
		c0.07,0.034,0.144,0.05,0.217,0.05c0.186,0,0.364-0.104,0.45-0.283l1.625-3.377C13.704,41.443,13.6,41.145,13.351,41.025z"/>
	<path fill="#414042" d="M26.365,41.025c-0.249-0.122-0.547-0.016-0.667,0.233l-1.624,3.377c-0.12,0.249-0.016,0.548,0.233,0.667
		c0.07,0.034,0.144,0.05,0.217,0.05c0.186,0,0.364-0.104,0.45-0.283l1.624-3.377C26.719,41.443,26.614,41.145,26.365,41.025z"/>
	<path fill="#414042" d="M39.382,41.025c-0.245-0.122-0.547-0.016-0.667,0.233l-1.627,3.377c-0.12,0.249-0.016,0.548,0.233,0.667
		c0.069,0.034,0.144,0.05,0.217,0.05c0.186,0,0.364-0.104,0.45-0.283l1.627-3.377C39.735,41.443,39.631,41.145,39.382,41.025z"/>
</g>
</svg>
