<?xml version="1.0" encoding="utf-8"?>
<!-- Generator: Adobe Illustrator 16.0.0, SVG Export Plug-In . SVG Version: 6.00 Build 0)  -->
<!DOCTYPE svg PUBLIC "-//W3C//DTD SVG 1.1//EN" "http://www.w3.org/Graphics/SVG/1.1/DTD/svg11.dtd">
<svg version="1.1" id="Layer_1" xmlns="http://www.w3.org/2000/svg" xmlns:xlink="http://www.w3.org/1999/xlink" x="0px" y="0px"
	 width="48px" height="48px" viewBox="0 0 48 48" enable-background="new 0 0 48 48" xml:space="preserve">
<g>
	<path fill="#414042" d="M38.782,12.461c0.009-0.169,0.014-0.339,0.014-0.51c0-5.4-4.393-9.793-9.791-9.793
		c-4.04,0-7.634,2.464-9.106,6.185c-0.696-0.246-1.518-0.362-2.536-0.362c-3.226,0-5.966,2.214-6.664,5.321
		c-4.541,0.324-8.041,4.053-8.041,8.657c0,4.787,3.894,8.681,8.68,8.681H36.05c5.124,0,9.293-4.168,9.293-9.291
		C45.343,17.248,42.666,13.651,38.782,12.461z M36.05,29.64H11.337c-4.234,0-7.68-3.446-7.68-7.681c0-4.194,3.281-7.566,7.471-7.677
		c0.239-0.006,0.44-0.182,0.479-0.419c0.465-2.829,2.885-4.882,5.755-4.882c1.12,0,1.948,0.15,2.605,0.474
		c0.13,0.064,0.28,0.068,0.413,0.013c0.134-0.056,0.236-0.166,0.282-0.303c1.2-3.593,4.553-6.006,8.342-6.006
		c4.848,0,8.791,3.944,8.791,8.793c0,0.283-0.015,0.562-0.041,0.836c-0.02,0.209,0.096,0.409,0.286,0.499
		c0.039,0.018,0.079,0.031,0.119,0.039c3.642,0.955,6.183,4.25,6.183,8.025C44.343,25.92,40.623,29.64,36.05,29.64z"/>
	<path fill="#414042" d="M14.08,35.271c-0.19-1.335-0.3-2.719-0.302-2.732c-0.003-0.04-0.013-0.086-0.025-0.125
		c-0.052-0.155-0.177-0.275-0.334-0.321c-0.155-0.046-0.327-0.013-0.454,0.09c-0.011,0.009-1.095,0.881-2.2,1.657
		c-0.8,0.567-1.584,1.916-1.458,3.107c0.084,0.793,0.559,1.413,1.334,1.746c0.314,0.136,0.629,0.205,0.935,0.205
		c0.618,0,1.186-0.278,1.642-0.805C13.847,37.366,14.21,36.179,14.08,35.271z M12.461,37.438c-0.401,0.463-0.872,0.572-1.427,0.336
		c-0.447-0.192-0.688-0.498-0.733-0.934c-0.084-0.793,0.481-1.789,1.04-2.185c0.557-0.391,1.107-0.806,1.524-1.126
		c0.053,0.522,0.129,1.208,0.225,1.882C13.169,35.961,12.955,36.869,12.461,37.438z"/>
	<path fill="#414042" d="M25.721,35.271c-0.188-1.335-0.3-2.72-0.302-2.733c-0.003-0.04-0.013-0.086-0.025-0.124
		c-0.052-0.155-0.177-0.275-0.334-0.321c-0.156-0.046-0.327-0.013-0.454,0.09c-0.011,0.009-1.095,0.881-2.198,1.657
		c-0.8,0.566-1.586,1.915-1.46,3.106c0.084,0.794,0.558,1.414,1.334,1.747c0.314,0.136,0.629,0.205,0.935,0.205
		c0.618,0,1.187-0.278,1.643-0.804C25.488,37.367,25.851,36.18,25.721,35.271z M24.103,37.438c-0.4,0.463-0.869,0.573-1.428,0.336
		c-0.447-0.192-0.688-0.498-0.733-0.934c-0.084-0.794,0.482-1.789,1.043-2.185c0.555-0.392,1.105-0.806,1.522-1.127
		c0.053,0.523,0.129,1.209,0.224,1.883C24.81,35.961,24.596,36.869,24.103,37.438z"/>
	<path fill="#414042" d="M37.361,35.271c-0.188-1.335-0.3-2.72-0.302-2.733c-0.003-0.04-0.013-0.086-0.025-0.124
		c-0.052-0.155-0.177-0.275-0.334-0.321c-0.156-0.046-0.326-0.013-0.454,0.09c-0.011,0.009-1.095,0.881-2.198,1.657
		c-0.8,0.566-1.586,1.915-1.46,3.107c0.083,0.793,0.557,1.413,1.332,1.746c0.315,0.136,0.63,0.205,0.936,0.205
		c0.62,0,1.189-0.279,1.646-0.807C37.131,37.364,37.492,36.177,37.361,35.271z M35.745,37.437c-0.402,0.465-0.875,0.575-1.43,0.338
		c-0.447-0.192-0.688-0.498-0.733-0.934c-0.084-0.794,0.482-1.789,1.043-2.185c0.555-0.392,1.105-0.806,1.522-1.127
		c0.053,0.523,0.129,1.209,0.224,1.883C36.45,35.96,36.238,36.867,35.745,37.437z"/>
	<path fill="#414042" d="M17.454,39.48c-0.005-0.063-0.024-0.13-0.053-0.188c-0.067-0.135-0.192-0.232-0.34-0.265
		c-0.15-0.033-0.303,0.003-0.421,0.099c-0.011,0.009-1.095,0.879-2.198,1.655c-0.8,0.567-1.586,1.917-1.46,3.107
		c0.084,0.794,0.558,1.414,1.335,1.748c0.313,0.136,0.628,0.204,0.933,0.204c0.618,0,1.187-0.278,1.643-0.804
		c0.631-0.727,0.993-1.915,0.863-2.824C17.567,40.879,17.456,39.494,17.454,39.48z M16.138,44.383
		c-0.265,0.305-0.563,0.459-0.888,0.459c-0.168,0-0.351-0.041-0.54-0.122c-0.447-0.193-0.688-0.498-0.733-0.935
		c-0.084-0.793,0.483-1.789,1.043-2.186c0.555-0.392,1.105-0.806,1.522-1.126c0.053,0.523,0.129,1.208,0.224,1.882
		C16.845,42.904,16.631,43.813,16.138,44.383z"/>
	<path fill="#414042" d="M29.095,39.48c-0.005-0.063-0.024-0.13-0.053-0.188c-0.067-0.135-0.192-0.232-0.34-0.265
		c-0.15-0.033-0.303,0.003-0.421,0.099c-0.011,0.009-1.095,0.879-2.198,1.655c-0.8,0.568-1.586,1.918-1.46,3.108
		c0.083,0.793,0.557,1.413,1.333,1.747c0.314,0.136,0.628,0.204,0.934,0.204c0.62,0,1.189-0.279,1.646-0.807
		c0.63-0.728,0.991-1.914,0.86-2.821C29.208,40.879,29.097,39.494,29.095,39.48z M27.78,44.381
		c-0.266,0.306-0.564,0.461-0.891,0.461c-0.169,0-0.35-0.041-0.539-0.122c-0.447-0.193-0.688-0.498-0.733-0.935
		c-0.084-0.793,0.483-1.789,1.043-2.186c0.555-0.392,1.105-0.806,1.522-1.126c0.053,0.523,0.129,1.208,0.224,1.882
		C28.485,42.904,28.273,43.812,27.78,44.381z"/>
	<path fill="#414042" d="M40.737,39.481c-0.009-0.119-0.064-0.234-0.148-0.318c-0.18-0.179-0.468-0.197-0.667-0.036
		c-0.011,0.009-1.095,0.879-2.199,1.656c-0.8,0.568-1.585,1.918-1.458,3.108c0.084,0.793,0.558,1.413,1.334,1.746
		c0.313,0.136,0.628,0.204,0.933,0.204c0.62,0,1.188-0.278,1.646-0.806c0.63-0.728,0.991-1.915,0.86-2.822
		C40.849,40.879,40.739,39.495,40.737,39.481z M39.421,44.381c-0.265,0.306-0.564,0.461-0.89,0.461c-0.168,0-0.35-0.041-0.538-0.122
		c-0.447-0.193-0.688-0.498-0.734-0.934c-0.084-0.793,0.482-1.789,1.042-2.187c0.556-0.392,1.106-0.806,1.523-1.127
		c0.052,0.523,0.128,1.209,0.223,1.883C40.126,42.904,39.914,43.812,39.421,44.381z"/>
</g>
</svg>
