<?xml version="1.0" encoding="utf-8"?>
<!-- Generator: Adobe Illustrator 16.0.0, SVG Export Plug-In . SVG Version: 6.00 Build 0)  -->
<!DOCTYPE svg PUBLIC "-//W3C//DTD SVG 1.1//EN" "http://www.w3.org/Graphics/SVG/1.1/DTD/svg11.dtd">
<svg version="1.1" id="Layer_1" xmlns="http://www.w3.org/2000/svg" xmlns:xlink="http://www.w3.org/1999/xlink" x="0px" y="0px"
	 width="48px" height="48px" viewBox="0 0 48 48" enable-background="new 0 0 48 48" xml:space="preserve">
<path fill="#414042" d="M46.38,23.533l-9.531-0.014l5.853-5.409c0.202-0.188,0.215-0.504,0.027-0.707
	c-0.188-0.202-0.502-0.215-0.707-0.027l-6.644,6.141l-4.737-0.007c-0.152-2.077-1.255-3.893-2.88-5.007l2.372-4.094l8.395-2.456
	c0.265-0.078,0.417-0.355,0.339-0.621c-0.077-0.264-0.353-0.418-0.62-0.339l-7.386,2.161l4.79-8.266
	c0.139-0.239,0.057-0.544-0.182-0.683s-0.545-0.058-0.684,0.182l-4.778,8.245l-1.759-7.772c-0.06-0.269-0.327-0.44-0.598-0.377
	c-0.27,0.061-0.438,0.329-0.377,0.598l1.997,8.824l-2.377,4.102c-0.877-0.425-1.856-0.67-2.894-0.67
	c-1.032,0-2.006,0.243-2.879,0.663l-2.362-4.106l2.07-8.495c0.065-0.268-0.099-0.539-0.367-0.604
	c-0.262-0.064-0.538,0.1-0.604,0.368l-1.822,7.475l-4.763-8.28c-0.139-0.24-0.446-0.321-0.683-0.184
	c-0.239,0.138-0.322,0.443-0.185,0.683l4.752,8.261L9.547,10.75c-0.269-0.083-0.545,0.065-0.626,0.329
	c-0.082,0.264,0.065,0.544,0.329,0.626l8.642,2.684l2.36,4.103c-1.628,1.111-2.734,2.925-2.892,5l-4.734-0.008l-6.323-6.04
	c-0.201-0.191-0.518-0.184-0.707,0.016c-0.191,0.2-0.184,0.517,0.016,0.707l5.563,5.315l-9.553-0.015c0,0,0,0,0,0
	c-0.276,0-0.5,0.223-0.5,0.499c0,0.276,0.223,0.501,0.499,0.501l9.53,0.015l-5.853,5.41c-0.202,0.188-0.215,0.504-0.027,0.707
	c0.099,0.106,0.232,0.16,0.367,0.16c0.121,0,0.243-0.044,0.34-0.133l6.645-6.142l4.738,0.007c0.153,2.077,1.255,3.892,2.879,5.007
	l-2.373,4.095l-8.393,2.455c-0.265,0.077-0.417,0.354-0.339,0.62c0.077,0.264,0.352,0.417,0.62,0.339l7.385-2.161l-4.79,8.267
	c-0.139,0.239-0.057,0.545,0.182,0.684c0.079,0.046,0.165,0.067,0.251,0.067c0.172,0,0.34-0.089,0.433-0.249l4.778-8.245
	l1.759,7.772c0.052,0.232,0.259,0.39,0.487,0.39c0.036,0,0.073-0.004,0.11-0.013c0.27-0.061,0.438-0.328,0.377-0.598l-1.997-8.823
	l2.377-4.102c0.876,0.425,1.856,0.67,2.894,0.67c1.032,0,2.006-0.242,2.879-0.663l2.361,4.105l-2.069,8.497
	c-0.065,0.269,0.099,0.539,0.367,0.604c0.04,0.01,0.079,0.015,0.118,0.015c0.226,0,0.43-0.153,0.485-0.382l1.822-7.477l4.763,8.28
	c0.093,0.161,0.261,0.251,0.434,0.251c0.085,0,0.171-0.021,0.249-0.066c0.239-0.138,0.322-0.443,0.185-0.683l-4.752-8.261
	l7.61,2.364c0.269,0.083,0.544-0.066,0.626-0.329c0.082-0.264-0.065-0.544-0.329-0.626l-8.641-2.685l-2.36-4.104
	c1.627-1.11,2.733-2.924,2.892-4.998l4.735,0.007l6.322,6.04c0.097,0.093,0.222,0.139,0.346,0.139c0.132,0,0.264-0.052,0.361-0.154
	c0.191-0.2,0.184-0.517-0.016-0.707l-5.563-5.315l9.553,0.015c0.001,0,0.001,0,0.001,0c0.275,0,0.5-0.224,0.5-0.499
	C46.879,23.758,46.656,23.533,46.38,23.533z M24,29.666c-3.124,0-5.666-2.542-5.666-5.666c0-3.124,2.542-5.666,5.666-5.666
	s5.665,2.542,5.665,5.666C29.665,27.124,27.124,29.666,24,29.666z"/>
</svg>
