<?xml version="1.0" encoding="utf-8"?>
<!-- Generator: Adobe Illustrator 16.0.0, SVG Export Plug-In . SVG Version: 6.00 Build 0)  -->
<!DOCTYPE svg PUBLIC "-//W3C//DTD SVG 1.1//EN" "http://www.w3.org/Graphics/SVG/1.1/DTD/svg11.dtd">
<svg version="1.1" id="Layer_1" xmlns="http://www.w3.org/2000/svg" xmlns:xlink="http://www.w3.org/1999/xlink" x="0px" y="0px"
	 width="48px" height="48px" viewBox="0 0 48 48" enable-background="new 0 0 48 48" xml:space="preserve">
<g>
	<path fill="#414042" d="M38.554,12.219c0.009-0.164,0.013-0.33,0.013-0.495c0-5.318-4.325-9.645-9.643-9.645
		c-3.978,0-7.515,2.422-8.964,6.082c-0.687-0.241-1.493-0.355-2.491-0.355c-3.177,0-5.875,2.179-6.564,5.237
		c-4.47,0.322-7.914,3.993-7.914,8.527c0,4.714,3.835,8.55,8.55,8.55h6.115l-4.891,6.956c-0.102,0.146-0.119,0.334-0.046,0.495
		s0.227,0.271,0.402,0.29l2.975,0.314l-4.596,6.97c-0.152,0.23-0.089,0.541,0.142,0.692c0.085,0.057,0.181,0.083,0.275,0.083
		c0.162,0,0.321-0.079,0.417-0.225l5.049-7.656c0.097-0.146,0.109-0.331,0.035-0.489c-0.074-0.157-0.226-0.265-0.399-0.283
		l-2.946-0.312l4.807-6.836h4.568c0.276,0,0.5-0.224,0.5-0.5s-0.224-0.5-0.5-0.5H11.54c-4.163,0-7.55-3.388-7.55-7.55
		c0-4.123,3.226-7.438,7.344-7.547c0.239-0.006,0.44-0.182,0.479-0.419c0.456-2.78,2.835-4.798,5.655-4.798
		c1.099,0,1.912,0.148,2.562,0.466c0.13,0.064,0.279,0.068,0.413,0.013c0.133-0.056,0.235-0.167,0.281-0.303
		c1.178-3.53,4.473-5.902,8.199-5.902c4.766,0,8.643,3.878,8.643,8.645c0,0.274-0.013,0.55-0.039,0.817
		c-0.021,0.21,0.093,0.41,0.284,0.5c0.039,0.019,0.079,0.032,0.12,0.04c3.581,0.938,6.078,4.177,6.078,7.887
		c0,4.495-3.657,8.152-8.152,8.152c-0.276,0-0.5,0.224-0.5,0.5s0.224,0.5,0.5,0.5c5.047,0,9.152-4.105,9.152-9.152
		C45.01,16.932,42.376,13.393,38.554,12.219z"/>
	<path fill="#414042" d="M33.346,32.416l-5.348-0.563l8.769-12.461c0.158-0.227,0.104-0.538-0.121-0.697
		c-0.227-0.158-0.538-0.104-0.697,0.121L26.69,31.973c-0.102,0.146-0.119,0.333-0.046,0.495c0.073,0.161,0.227,0.271,0.402,0.29
		l5.376,0.566l-7.796,11.821c-0.152,0.23-0.089,0.541,0.142,0.692c0.085,0.057,0.181,0.083,0.275,0.083
		c0.162,0,0.321-0.079,0.417-0.225l8.249-12.508c0.097-0.146,0.109-0.331,0.035-0.489C33.671,32.542,33.519,32.435,33.346,32.416z"
		/>
</g>
</svg>
