<?xml version="1.0" encoding="utf-8"?>
<!-- Generator: Adobe Illustrator 16.0.0, SVG Export Plug-In . SVG Version: 6.00 Build 0)  -->
<!DOCTYPE svg PUBLIC "-//W3C//DTD SVG 1.1//EN" "http://www.w3.org/Graphics/SVG/1.1/DTD/svg11.dtd">
<svg version="1.1" id="Layer_1" xmlns="http://www.w3.org/2000/svg" xmlns:xlink="http://www.w3.org/1999/xlink" x="0px" y="0px"
	 width="48px" height="48px" viewBox="0 0 48 48" enable-background="new 0 0 48 48" xml:space="preserve">
<path fill="#414042" d="M45.876,23.453h-7.149c-0.085-2.286-0.68-4.442-1.692-6.35l6.183-3.568c0.262-0.151,0.351-0.484,0.2-0.746
	c-0.149-0.26-0.482-0.352-0.745-0.2l-6.192,3.574c-1.183-1.875-2.771-3.463-4.646-4.645l3.575-6.191
	c0.15-0.261,0.062-0.595-0.2-0.746c-0.263-0.153-0.595-0.06-0.745,0.2l-3.57,6.183c-1.907-1.014-4.064-1.608-6.351-1.692
	l0.002-7.147c0-0.301-0.244-0.545-0.546-0.546c-0.302,0-0.546,0.245-0.546,0.546l-0.002,7.148c-2.286,0.085-4.443,0.68-6.351,1.694
	l-3.566-6.185c-0.149-0.26-0.482-0.353-0.745-0.2c-0.262,0.15-0.351,0.484-0.2,0.745l3.572,6.195
	c-1.875,1.182-3.462,2.771-4.644,4.646l-6.19-3.578c-0.264-0.151-0.596-0.06-0.746,0.2c-0.15,0.261-0.062,0.595,0.199,0.746
	l6.182,3.573c-1.013,1.908-1.607,4.064-1.691,6.35l-7.147-0.004h0c-0.301,0-0.545,0.244-0.546,0.546
	c0,0.301,0.244,0.546,0.545,0.546l7.149,0.004c0.085,2.286,0.68,4.442,1.694,6.35l-6.185,3.565c-0.261,0.15-0.351,0.484-0.2,0.745
	c0.101,0.176,0.284,0.273,0.474,0.273c0.092,0,0.186-0.023,0.271-0.073l6.195-3.571c1.182,1.875,2.77,3.461,4.645,4.643l-3.58,6.19
	c-0.15,0.261-0.062,0.595,0.199,0.746c0.086,0.05,0.181,0.073,0.272,0.073c0.188,0,0.372-0.098,0.474-0.272l3.575-6.183
	c1.907,1.013,4.063,1.606,6.348,1.691l-0.004,7.149c0,0.301,0.244,0.546,0.546,0.546c0.301,0,0.546-0.244,0.546-0.546l0.004-7.149
	c2.286-0.085,4.442-0.68,6.35-1.693l3.565,6.184c0.101,0.176,0.284,0.273,0.474,0.273c0.092,0,0.186-0.023,0.271-0.073
	c0.262-0.15,0.351-0.484,0.2-0.745l-3.571-6.193c1.875-1.182,3.463-2.771,4.645-4.646l6.188,3.579
	c0.086,0.05,0.181,0.073,0.272,0.073c0.188,0,0.372-0.098,0.474-0.272c0.15-0.261,0.062-0.595-0.199-0.746l-6.181-3.574
	c1.013-1.906,1.606-4.062,1.691-6.347h7.149c0.302,0,0.546-0.244,0.546-0.546S46.178,23.453,45.876,23.453z M24.001,37.662
	c-7.535,0-13.665-6.129-13.665-13.663c0-7.534,6.13-13.663,13.665-13.663c7.533,0,13.661,6.129,13.661,13.663
	C37.662,31.533,31.534,37.662,24.001,37.662z"/>
</svg>
