<?xml version="1.0" encoding="utf-8"?>
<!-- Generator: Adobe Illustrator 16.0.0, SVG Export Plug-In . SVG Version: 6.00 Build 0)  -->
<!DOCTYPE svg PUBLIC "-//W3C//DTD SVG 1.1//EN" "http://www.w3.org/Graphics/SVG/1.1/DTD/svg11.dtd">
<svg version="1.1" id="Layer_1" xmlns="http://www.w3.org/2000/svg" xmlns:xlink="http://www.w3.org/1999/xlink" x="0px" y="0px"
	 width="48px" height="48px" viewBox="0 0 48 48" enable-background="new 0 0 48 48" xml:space="preserve">
<path fill="#414042" d="M45.425,30.243c-0.13-0.135-0.323-0.188-0.507-0.13c-2.02,0.623-4.116,0.938-6.231,0.938
	c-11.672,0-21.168-9.498-21.168-21.171c0-2.332,0.396-4.656,1.178-6.906c0.062-0.178,0.018-0.375-0.113-0.511
	c-0.13-0.135-0.322-0.185-0.507-0.131C8.721,5.212,2.435,13.727,2.435,23.521c0,12.225,9.945,22.17,22.169,22.17
	c9.438,0,17.852-6.003,20.934-14.937C45.6,30.576,45.556,30.379,45.425,30.243z M24.604,44.69c-11.673,0-21.169-9.497-21.169-21.17
	c0-9.024,5.59-16.913,14.009-19.925c-0.614,2.058-0.926,4.167-0.926,6.285c0,12.225,9.944,22.171,22.168,22.171
	c1.883,0,3.751-0.239,5.567-0.711C41.068,39.365,33.291,44.69,24.604,44.69z"/>
</svg>
