<?xml version="1.0" encoding="utf-8"?>
<!-- Generator: Adobe Illustrator 16.0.0, SVG Export Plug-In . SVG Version: 6.00 Build 0)  -->
<!DOCTYPE svg PUBLIC "-//W3C//DTD SVG 1.1//EN" "http://www.w3.org/Graphics/SVG/1.1/DTD/svg11.dtd">
<svg version="1.1" id="Layer_1" xmlns="http://www.w3.org/2000/svg" xmlns:xlink="http://www.w3.org/1999/xlink" x="0px" y="0px"
	 width="1024px" height="1024px" viewBox="0 0 1024 1024" enable-background="new 0 0 1024 1024" xml:space="preserve">
<g>
	<path fill="#414042" d="M848.867,679.345c-59.535,38.707-93.651,28.556-140.853,14.5c-15.228-4.51-30.98-9.201-47.928-12.477
		c-73.046-17.817-89.629-15.208-118.548-3.155c-12.861,5.339-28.857,12.013-64.471,16.946c-36.604,4.368-60.548-4.489-88.253-14.701
		c-26.978-9.95-57.514-21.315-100.832-18.707c-38.666,2.306-65.36,20.224-88.94,36.037c-31.245,20.972-53.833,36.119-99.82,17.736
		c-10.597-4.187-22.67,0.93-26.917,11.547c-4.227,10.617,0.93,22.671,11.547,26.917c20.062,8.009,37.534,11.264,53.085,11.264
		c35.937-0.02,61.66-17.27,85.2-33.084c21.031-14.116,40.891-27.442,68.272-29.081c34.622-2.022,58.647,6.835,84.087,16.219
		c29.97,11.083,60.912,22.528,107.869,16.946c41.297-5.742,60.833-13.872,75.089-19.817c18.747-7.807,26.513-11.002,93.773,5.379
		c15.916,3.094,30.699,7.482,44.977,11.729c51.245,15.248,99.658,29.606,175.231-19.455c9.585-6.229,12.315-19.05,6.088-28.655
		C871.296,675.867,858.474,673.137,848.867,679.345z"/>
	<path fill="#414042" d="M753.76,492.646c-14.137-8.756-45.584-28.837-59.537-84.653c34.501-2.69,79.072-0.667,99.275,14.843
		c6.209,4.773,9.343,10.153,10.171,17.473c1.174,10.578,10.152,18.404,20.548,18.404c0.768,0,1.536-0.041,2.324-0.143
		c11.366-1.274,19.557-11.506,18.262-22.872c-2.042-18.362-11.061-34.156-26.046-45.684c-31.145-23.923-83.116-25.945-117.9-24.085
		c10.759-20.992,29.524-43.803,51.083-56.462c18.282-10.719,34.581-12.215,48.414-4.49c10.031,5.602,22.608,2.002,28.189-7.968
		c5.582-9.99,2.002-22.609-7.966-28.19c-26.816-14.965-58.667-13.226-89.59,4.934c-28.189,16.543-53.428,45.745-68.028,75.412
		c-44.33-48.515-113.957-75.371-188.702-69.628c-11.385,0.89-19.939,10.84-19.07,22.246c0.89,11.386,10.476,19.899,22.246,19.05
		c56.18-4.409,108.72,12.821,144.697,45.279c-67.828-1.314-128.661,17.695-174.566,55.978c-8.776,7.341-9.97,20.385-2.649,29.182
		c7.32,8.736,20.385,9.93,29.182,2.628c40.547-33.813,88.657-44.773,129.669-46.472c-18.18,15.451-35.207,35.552-41.558,59.698
		c-6.471,24.43-0.85,49.526,16.219,72.54c4.065,5.48,10.314,8.372,16.663,8.372c4.289,0,8.597-1.314,12.297-4.064
		c9.181-6.836,11.122-19.778,4.308-28.98c-9.566-12.881-12.66-25.076-9.464-37.25c5.945-22.649,31.566-42.974,52.579-55.937
		c18.746,69.708,62.186,96.788,78.891,107.122c47.847,27.745,172.057,114.987,172.057,184.353c0,11.446,9.262,20.708,20.707,20.708
		c11.447,0,20.709-9.262,20.709-20.708C947.172,607.897,774.205,504.538,753.76,492.646z"/>
	<path fill="#414042" d="M406.651,653.035l48.778-75.979c-129.286,45.381-323.244-49.909-323.244-49.909l71.427,125.888
		C203.612,653.035,289.439,599.424,406.651,653.035z"/>
	<path fill="#414042" d="M279.611,567.311c11.163,0,20.142-8.898,20.547-19.981c26.937-8.615,72.661-16.117,89.708,24.228
		c22.428-95.776-52.984-177.517-90.397-211.188c-1.981-9.364-9.909-16.563-19.858-16.563c-11.447,0-20.708,9.282-20.708,20.708
		v182.088C258.903,558.027,268.164,567.311,279.611,567.311z"/>
</g>
</svg>
