<?xml version="1.0" encoding="utf-8"?>
<!-- Generator: Adobe Illustrator 16.0.0, SVG Export Plug-In . SVG Version: 6.00 Build 0)  -->
<!DOCTYPE svg PUBLIC "-//W3C//DTD SVG 1.1//EN" "http://www.w3.org/Graphics/SVG/1.1/DTD/svg11.dtd">
<svg version="1.1" id="Layer_1" xmlns="http://www.w3.org/2000/svg" xmlns:xlink="http://www.w3.org/1999/xlink" x="0px" y="0px"
	 width="1024px" height="1024px" viewBox="0 0 1024 1024" enable-background="new 0 0 1024 1024" xml:space="preserve">
<g>
	<path fill="#414042" d="M754.63,423.585c-14.157-8.736-45.583-28.757-59.497-84.613c33.853-2.589,78.99-0.647,99.214,14.803
		c6.229,4.813,9.425,10.192,10.232,17.514c1.214,10.596,10.152,18.402,20.548,18.402c0.768,0,1.577-0.041,2.346-0.121
		c11.365-1.294,19.535-11.568,18.281-22.933c-2.104-18.403-11.163-34.217-26.25-45.745c-31.103-23.823-83.439-25.724-117.777-23.903
		c10.757-21.032,29.524-43.884,51.083-56.543c18.28-10.718,34.581-12.214,48.414-4.49c10.029,5.582,22.608,2.022,28.19-7.967
		c5.581-9.991,1.98-22.61-7.969-28.191c-26.855-15.005-58.687-13.226-89.588,4.934c-28.189,16.542-53.389,45.704-67.988,75.391
		c-44.289-48.535-113.775-75.351-188.723-69.607c-11.405,0.889-19.94,10.839-19.05,22.245s10.678,19.94,22.246,19.05
		c56.099-4.328,108.638,12.822,144.635,45.259c-67.788-1.294-128.66,17.715-174.566,56.018c-8.776,7.32-9.95,20.385-2.628,29.161
		c7.36,8.818,20.385,9.95,29.162,2.63c40.568-33.813,88.699-44.774,129.711-46.514c-18.161,15.451-35.188,35.552-41.579,59.698
		c-6.431,24.47-0.81,49.547,16.259,72.601c4.044,5.46,10.314,8.373,16.623,8.373c4.287,0,8.615-1.335,12.337-4.086
		c9.181-6.795,11.122-19.778,4.287-28.959c-9.546-12.902-12.659-25.117-9.465-37.292c5.946-22.649,31.588-42.994,52.579-55.937
		c18.728,69.77,62.167,96.788,78.87,107.102c47.849,27.787,172.057,115.109,172.057,184.393c0,11.447,9.264,20.709,20.709,20.709
		c11.446,0,20.709-9.262,20.709-20.709C948.042,538.856,775.055,435.477,754.63,423.585z"/>
	<path fill="#414042" d="M573.512,651.255c-8.736-7.441-21.801-6.39-29.202,2.306l-58.161,68.07H391.06V528.906h187.791
		L368.733,412.341L180.174,528.906h169.468v192.725h-41.578c-3.155,0-6.026,0.81-8.695,2.023c-0.162,0.08-0.405,0.039-0.567,0.161
		l-82.186,41.094c-10.233,5.096-14.358,17.553-9.262,27.786c3.64,7.239,10.961,11.445,18.565,11.445
		c3.074,0,6.269-0.688,9.222-2.184l52.216-26.128v37.736c0,11.405,9.262,20.708,20.708,20.708s20.708-9.303,20.708-20.708v-50.518
		h20.83v50.518c0,11.405,9.303,20.708,20.708,20.708c11.447,0,20.708-9.303,20.708-20.708v-50.518h82.592v50.518
		c0,11.405,9.262,20.708,20.707,20.708c11.448,0,20.71-9.303,20.71-20.708v-61.964l60.75-71.144
		C583.219,671.762,582.208,658.697,573.512,651.255z"/>
	<path fill="#414042" d="M291.805,611.092c7.321,1.133,14.48,2.711,21.234,4.732c10.961,3.195,22.488-2.992,25.765-13.953
		c3.235-11.002-3.033-22.488-13.995-25.764c-8.535-2.509-17.513-4.53-26.654-5.945c-38.262-5.906-68.192,5.945-94.563,16.42
		c-34.945,13.914-60.225,23.944-101.317-3.762c-9.464-6.39-22.367-3.883-28.757,5.623c-6.391,9.464-3.883,22.326,5.622,28.716
		c27.22,18.403,51.002,24.713,72.438,24.713c25.076,0,46.958-8.696,67.302-16.785C242.461,615.744,264.625,606.887,291.805,611.092z
		"/>
	<path fill="#414042" d="M849.717,592.326c-59.455,38.666-93.552,28.555-140.832,14.479c-15.209-4.53-30.982-9.182-47.928-12.498
		c-73.046-17.797-89.629-15.167-118.548-3.154c-12.861,5.378-28.878,12.013-64.472,16.987c-16.987,2.021-32.356,1.334-48.333-2.104
		c-11.163-2.427-22.164,4.691-24.591,15.895c-2.386,11.164,4.691,22.164,15.895,24.592c20.263,4.367,40.527,5.299,62.328,2.669
		c41.295-5.743,60.83-13.872,75.068-19.778c18.727-7.805,26.492-11.041,93.794,5.339c15.936,3.115,30.699,7.523,45.017,11.771
		c24.551,7.32,48.494,14.438,75.108,14.438c28.797,0,60.79-8.372,100.062-33.934c9.586-6.229,12.337-19.05,6.109-28.636
		C872.164,588.807,859.344,586.097,849.717,592.326z"/>
</g>
</svg>
