<?xml version="1.0" encoding="utf-8"?>
<!-- Generator: Adobe Illustrator 16.0.0, SVG Export Plug-In . SVG Version: 6.00 Build 0)  -->
<!DOCTYPE svg PUBLIC "-//W3C//DTD SVG 1.1//EN" "http://www.w3.org/Graphics/SVG/1.1/DTD/svg11.dtd">
<svg version="1.1" id="Layer_1" xmlns="http://www.w3.org/2000/svg" xmlns:xlink="http://www.w3.org/1999/xlink" x="0px" y="0px"
	 width="1024px" height="1024px" viewBox="0 0 1024 1024" enable-background="new 0 0 1024 1024" xml:space="preserve">
<g>
	<path fill="#414042" d="M848.867,679.386c-59.576,38.666-93.673,28.515-140.873,14.479c-15.207-4.53-30.98-9.222-47.887-12.497
		c-73.046-17.797-89.669-15.168-118.547-3.155c-12.862,5.379-28.86,12.013-64.473,16.987c-36.542,4.327-60.547-4.489-88.232-14.723
		c-26.998-9.949-57.696-21.274-100.853-18.686c-38.666,2.265-65.38,20.223-88.94,36.037c-31.265,20.95-53.833,36.118-99.82,17.715
		c-10.617-4.166-22.67,0.931-26.917,11.568c-4.247,10.596,0.931,22.649,11.548,26.896c20.041,8.008,37.514,11.243,53.085,11.243
		c35.896,0,61.64-17.27,85.179-33.044c21.031-14.115,40.911-27.463,68.292-29.081c34.743-1.981,58.647,6.836,84.087,16.22
		c29.971,11.042,60.892,22.487,107.849,16.905c41.316-5.742,60.851-13.872,75.089-19.777c18.727-7.806,26.531-11.001,93.753,5.339
		c15.937,3.114,30.698,7.522,45.017,11.77c51.286,15.249,99.66,29.606,175.212-19.454c9.585-6.27,12.297-19.091,6.066-28.677
		C871.275,675.867,858.453,673.156,848.867,679.386z"/>
	<path fill="#414042" d="M753.78,492.646c-14.157-8.736-45.623-28.837-59.497-84.653c34.42-2.669,79.032-0.647,99.254,14.884
		c6.148,4.691,9.385,10.273,10.192,17.473c1.214,10.556,10.153,18.363,20.548,18.363c0.768,0,1.577-0.041,2.346-0.122
		c11.365-1.295,19.535-11.527,18.282-22.893c-2.104-18.362-11.124-34.136-26.13-45.663c-31.142-23.944-83.116-25.966-117.858-24.066
		c10.759-21.032,29.485-43.803,51.043-56.463c18.241-10.758,34.54-12.255,48.414-4.489c9.989,5.582,22.608,1.982,28.19-8.008
		c5.581-9.99,1.98-22.609-8.009-28.15c-26.855-15.005-58.688-13.266-89.587,4.935c-28.15,16.542-53.389,45.744-67.991,75.391
		c-44.328-48.454-113.976-75.27-188.68-69.607c-11.406,0.85-19.94,10.799-19.07,22.205c0.869,11.406,11.042,19.98,22.225,19.091
		c56.361-4.368,108.8,12.821,144.716,45.259c-67.827-1.334-128.679,17.675-174.605,55.977c-8.776,7.321-9.97,20.385-2.629,29.162
		c7.3,8.777,20.344,9.99,29.162,2.669c40.547-33.854,88.657-44.774,129.711-46.473c-18.161,15.41-35.188,35.552-41.579,59.698
		c-6.431,24.43-0.85,49.506,16.259,72.519c4.045,5.501,10.314,8.373,16.624,8.373c4.286,0,8.614-1.335,12.336-4.085
		c9.181-6.795,11.082-19.778,4.287-28.959c-9.586-12.903-12.659-25.077-9.464-37.251c5.945-22.65,31.587-42.994,52.578-55.937
		c18.687,69.688,62.125,96.746,78.87,107.142c47.849,27.745,172.058,114.946,172.058,184.352c0,11.406,9.263,20.709,20.709,20.709
		c11.445,0,20.708-9.303,20.708-20.709C947.192,607.918,774.205,504.579,753.78,492.646z"/>
	<path fill="#414042" d="M206.444,430.845c-18.544-8.453-41.538-9.423-51.042-9.423c-11.426,0-20.668,9.262-20.688,20.708
		c-0.021,11.406,9.242,20.709,20.647,20.709c14.581,0.04,32.316,3.599,37.008,7.28c2.953,7.927,10.537,13.185,19.111,13.347
		c0.121,0,0.223,0,0.344,0c8.958,0,16.966-5.906,19.737-14.48c1.354-4.125,9.323-24.672,35.37-24.672c0.284,0,0.566,0,0.87,0
		c11.487-0.04,20.85-8.897,21.052-20.344c0.182-11.446-8.918-20.87-20.364-21.072C239.367,402.25,218.861,415.92,206.444,430.845z"
		/>
	<path fill="#414042" d="M148.707,391.33c4.996,0,12.64,1.051,16.361,2.346c3.56,5.985,10.091,9.788,17.331,9.989
		c0.202,0,0.404,0.041,0.586,0.041c8.797,0,16.745-5.824,19.657-14.156c1.274-3.601,5.036-9.425,14.157-9.464
		c10.92-0.162,20.85-8.979,21.031-20.385c0.182-11.447-8.938-20.87-20.385-21.032c-17.755-0.323-30.941,6.754-39.859,15.451
		c-10.698-3.56-22.083-4.207-28.878-4.207c-11.445,0-20.708,9.262-20.708,20.709C127.999,382.067,137.262,391.33,148.707,391.33z"/>
	<path fill="#414042" d="M307.62,418.59c4.327,24.592-12.58,40.487-27.747,40.567c-0.403-0.041-0.789-0.041-1.152-0.041
		c-16.967,0-26.634,3.115-32.356,6.876c5.035,41.942,40.325,74.541,83.622,74.541c46.736,0,84.613-37.857,84.613-84.612
		c0-46.715-37.877-84.613-84.613-84.613c-19.252,0-36.805,6.674-51.022,17.473c2.569,0.364,5.076,0.485,7.746,1.173
		C295.85,392.381,305.011,403.706,307.62,418.59z"/>
</g>
</svg>
