<?xml version="1.0" encoding="utf-8"?>
<!-- Generator: Adobe Illustrator 16.0.0, SVG Export Plug-In . SVG Version: 6.00 Build 0)  -->
<!DOCTYPE svg PUBLIC "-//W3C//DTD SVG 1.1//EN" "http://www.w3.org/Graphics/SVG/1.1/DTD/svg11.dtd">
<svg version="1.1" id="Layer_1" xmlns="http://www.w3.org/2000/svg" xmlns:xlink="http://www.w3.org/1999/xlink" x="0px" y="0px"
	 width="1024px" height="1024px" viewBox="0 0 1024 1024" enable-background="new 0 0 1024 1024" xml:space="preserve">
<g>
	<path fill="#414042" d="M848.849,679.345c-59.517,38.667-93.654,28.556-140.834,14.521c-15.228-4.53-30.98-9.222-47.907-12.497
		c-72.984-17.797-89.689-15.208-118.589-3.155c-12.862,5.339-28.857,12.013-64.45,16.946c-36.826,4.328-60.548-4.489-88.253-14.682
		c-26.998-9.99-57.939-21.396-100.852-18.727c-38.667,2.306-65.381,20.224-88.94,36.037c-31.205,20.952-53.733,36.159-99.761,17.756
		c-10.536-4.206-22.669,0.891-26.916,11.527c-4.247,10.637,0.93,22.69,11.547,26.938c20.041,8.008,37.494,11.243,53.065,11.243
		c35.896,0,61.619-17.27,85.159-33.084c21.032-14.116,40.891-27.423,68.273-29.081c34.662-1.981,58.667,6.835,84.087,16.219
		c29.97,11.083,60.952,22.528,107.87,16.946c41.296-5.742,60.831-13.872,75.088-19.817c18.747-7.807,26.513-11.002,93.794,5.379
		c15.916,3.114,30.699,7.482,44.977,11.729c51.266,15.289,99.638,29.606,175.212-19.455c9.586-6.229,12.316-19.05,6.086-28.636
		C871.275,675.867,858.413,673.156,848.849,679.345z"/>
	<path fill="#414042" d="M753.76,492.646c-14.137-8.736-45.603-28.837-59.517-84.653c34.439-2.71,79.052-0.688,99.233,14.843
		c6.209,4.773,9.343,10.153,10.152,17.473c1.193,10.597,10.153,18.404,20.567,18.404c0.768,0,1.537-0.041,2.326-0.122
		c11.364-1.295,19.554-11.527,18.28-22.893c-2.063-18.362-11.082-34.136-26.088-45.704c-31.123-23.903-83.074-25.925-117.858-24.065
		c10.759-20.992,29.506-43.762,51.062-56.462c18.283-10.719,34.542-12.215,48.436-4.49c9.989,5.582,22.608,1.981,28.171-7.968
		c5.581-9.99,2.002-22.609-7.989-28.19c-26.855-15.006-58.667-13.226-89.608,4.975c-28.169,16.542-53.389,45.704-67.968,75.391
		c-44.27-48.535-113.775-75.432-188.682-69.648c-11.406,0.89-19.94,10.84-19.071,22.246c0.87,11.365,10.961,19.94,22.226,19.05
		c56.363-4.327,108.799,12.821,144.697,45.259c-67.849-1.294-128.661,17.715-174.586,56.017c-8.777,7.321-9.97,20.345-2.65,29.162
		c7.341,8.777,20.345,9.95,29.182,2.628c40.548-33.813,88.678-44.773,129.69-46.472c-18.18,15.451-35.188,35.552-41.558,59.698
		c-6.45,24.43-0.85,49.547,16.219,72.56c4.065,5.461,10.335,8.373,16.663,8.373c4.289,0,8.615-1.335,12.316-4.085
		c9.182-6.836,11.103-19.778,4.308-28.959c-9.565-12.903-12.68-25.117-9.483-37.251c5.964-22.69,31.587-42.994,52.579-55.937
		c18.707,69.688,62.164,96.787,78.869,107.101c47.868,27.745,172.058,114.987,172.058,184.353c0,11.446,9.261,20.708,20.709,20.708
		c11.445,0,20.709-9.262,20.709-20.708C947.153,607.918,774.184,504.538,753.76,492.646z"/>
	<path fill="#414042" d="M269.601,612.893c0,0,60.062-11.811,160.489,39.92c0,0,41.417,14.034,69.891,0
		c0,0,75.069-56.342,230.382,6.229c0,0,54.763,22.164,93.854-17.676c0,0-97.495-85.018-130.62-105.928l-150.58,80.73
		C433.75,531.191,294.151,503.123,294.151,503.123c-84.997,20.506-212.523,134.28-212.523,134.28S128.201,684.967,269.601,612.893z"
		/>
</g>
</svg>
