<?xml version="1.0" encoding="utf-8"?>
<!-- Generator: Adobe Illustrator 16.0.0, SVG Export Plug-In . SVG Version: 6.00 Build 0)  -->
<!DOCTYPE svg PUBLIC "-//W3C//DTD SVG 1.1//EN" "http://www.w3.org/Graphics/SVG/1.1/DTD/svg11.dtd">
<svg version="1.1" id="Layer_1" xmlns="http://www.w3.org/2000/svg" xmlns:xlink="http://www.w3.org/1999/xlink" x="0px" y="0px"
	 width="1024px" height="1024px" viewBox="0 0 1024 1024" enable-background="new 0 0 1024 1024" xml:space="preserve">
<g>
	<path fill="#414042" d="M848.867,685.108c-59.535,38.667-93.673,28.515-140.831,14.479c-15.249-4.529-31.022-9.221-47.971-12.497
		c-73.004-17.796-89.627-15.167-118.547-3.155c-12.862,5.38-28.837,12.013-64.471,16.987c-36.603,4.368-60.547-4.489-88.252-14.723
		c-26.978-9.949-57.596-21.355-100.873-18.686c-38.626,2.266-65.36,20.183-88.9,36.037c-31.225,20.952-53.793,36.159-99.821,17.716
		c-10.556-4.166-22.649,0.931-26.896,11.567c-4.247,10.597,0.93,22.649,11.527,26.896c20.062,8.008,37.534,11.244,53.105,11.244
		c35.876,0,61.64-17.271,85.179-33.044c21.032-14.116,40.891-27.464,68.273-29.081c34.662-1.981,58.646,6.835,84.087,16.219
		c29.97,11.042,60.992,22.488,107.87,16.907c41.296-5.744,60.831-13.874,75.108-19.778c18.727-7.807,26.492-11.042,93.753,5.339
		c15.937,3.113,30.698,7.522,45.017,11.77c51.246,15.248,99.618,29.606,175.212-19.455c9.585-6.269,12.297-19.091,6.066-28.676
		C871.275,681.59,858.453,678.881,848.867,685.108z"/>
	<path fill="#414042" d="M753.78,498.41c-14.157-8.777-45.623-28.838-59.537-84.694c34.46-2.669,79.072-0.647,99.255,14.884
		c6.188,4.773,9.343,10.153,10.152,17.433c1.172,10.596,10.15,18.402,20.546,18.402c0.768,0,1.577-0.041,2.345-0.121
		c11.366-1.254,19.535-11.527,18.282-22.893c-2.063-18.322-11.081-34.137-26.087-45.664
		c-31.145-23.944-83.077-25.966-117.859-24.066c10.758-21.031,29.485-43.803,51.083-56.462
		c18.241-10.759,34.581-12.255,48.414-4.489c9.989,5.582,22.608,1.981,28.15-8.008c5.581-9.991,2.021-22.61-7.969-28.15
		c-26.815-15.006-58.646-13.226-89.587,4.934c-28.192,16.543-53.431,45.704-68.031,75.392
		c-44.288-48.495-113.896-75.392-188.681-69.608c-11.406,0.85-19.939,10.84-19.05,22.205c0.849,11.406,10.556,19.859,22.205,19.091
		c56.181-4.368,108.72,12.821,144.718,45.259c-67.828-1.294-128.661,17.716-174.606,55.978c-8.777,7.32-9.95,20.385-2.63,29.161
		c7.321,8.777,20.345,9.99,29.162,2.669c40.568-33.813,88.698-44.774,129.71-46.472c-18.159,15.41-35.188,35.552-41.577,59.698
		c-6.431,24.43-0.85,49.506,16.218,72.52c4.086,5.5,10.313,8.373,16.665,8.373c4.287,0,8.615-1.335,12.335-4.086
		c9.182-6.795,11.083-19.778,4.288-28.959c-9.586-12.902-12.66-25.076-9.464-37.251c5.945-22.649,31.587-42.953,52.579-55.937
		c18.726,69.729,62.164,96.787,78.869,107.142c47.889,27.745,172.058,114.947,172.058,184.353c0,11.406,9.303,20.708,20.709,20.708
		c11.445,0,20.709-9.302,20.709-20.708C947.153,613.641,774.205,510.301,753.78,498.41z"/>
	<path fill="#414042" d="M274.98,462.414c24.065,0,43.641-19.576,43.641-43.682c0-24.066-19.576-43.642-43.641-43.642
		c-24.106,0-43.682,19.576-43.682,43.642C231.298,442.837,250.874,462.414,274.98,462.414z"/>
	<path fill="#414042" d="M254.271,516.368v47.362c0,11.445,9.262,20.708,20.709,20.708c11.406,0,20.708-9.263,20.708-20.708v-47.362
		c0-11.446-9.302-20.708-20.708-20.708C263.533,495.66,254.271,504.922,254.271,516.368z"/>
	<path fill="#414042" d="M343.333,520.534c4.045,4.044,9.343,6.106,14.682,6.106c5.259,0,10.557-2.021,14.602-6.025
		c8.089-8.089,8.13-21.193,0.081-29.283l-16.745-16.825c-8.048-8.13-21.193-8.171-29.282-0.081
		c-8.09,8.089-8.13,21.153-0.082,29.282L343.333,520.534z"/>
	<path fill="#414042" d="M351.867,418.732c0,11.446,9.263,20.708,20.708,20.708h47.403c11.406,0,20.708-9.262,20.708-20.708
		c0-11.406-9.302-20.709-20.708-20.709h-47.403C361.13,398.023,351.867,407.326,351.867,418.732z"/>
	<path fill="#414042" d="M345.315,373.148c5.298,0,10.556-2.021,14.601-6.026l16.825-16.704c8.089-8.09,8.129-21.194,0.081-29.324
		c-8.089-8.089-21.193-8.13-29.282-0.081l-16.826,16.704c-8.089,8.09-8.13,21.194-0.081,29.324
		C334.678,371.086,340.017,373.148,345.315,373.148z"/>
	<path fill="#414042" d="M274.98,341.884c11.406,0,20.708-9.302,20.708-20.708v-47.443c0-11.406-9.302-20.709-20.708-20.709
		c-11.447,0-20.709,9.303-20.709,20.709v47.443C254.271,332.582,263.533,341.884,274.98,341.884z"/>
	<path fill="#414042" d="M193.966,362.997c4.044,4.085,9.383,6.107,14.682,6.107c5.299,0,10.557-2.022,14.601-6.027
		c8.13-8.089,8.17-21.193,0.081-29.282l-16.704-16.826c-8.089-8.129-21.193-8.129-29.283-0.081
		c-8.129,8.089-8.169,21.193-0.081,29.283L193.966,362.997z"/>
	<path fill="#414042" d="M129.981,439.44h47.361c11.446,0,20.709-9.262,20.709-20.708c0-11.406-9.263-20.709-20.709-20.709h-47.361
		c-11.447,0-20.709,9.303-20.709,20.709C109.272,430.178,118.535,439.44,129.981,439.44z"/>
	<path fill="#414042" d="M190.003,470.381l-16.826,16.704c-8.089,8.09-8.129,21.194-0.081,29.283
		c4.044,4.085,9.383,6.107,14.682,6.107c5.299,0,10.557-1.981,14.601-5.986l16.826-16.744c8.129-8.049,8.17-21.154,0.081-29.283
		C211.196,462.373,198.132,462.292,190.003,470.381z"/>
</g>
</svg>
