<?xml version="1.0" encoding="utf-8"?>
<!-- Generator: Adobe Illustrator 16.0.0, SVG Export Plug-In . SVG Version: 6.00 Build 0)  -->
<!DOCTYPE svg PUBLIC "-//W3C//DTD SVG 1.1//EN" "http://www.w3.org/Graphics/SVG/1.1/DTD/svg11.dtd">
<svg version="1.1" id="Layer_1" xmlns="http://www.w3.org/2000/svg" xmlns:xlink="http://www.w3.org/1999/xlink" x="0px" y="0px"
	 width="1024px" height="1024px" viewBox="0 0 1024 1024" enable-background="new 0 0 1024 1024" xml:space="preserve">
<path fill="#414042" d="M971.804,676.353c-5.54-0.77-10.678-1.537-15.652-2.306c-17.615-102.368-178.853-194.748-198.631-205.749
	c-14.823-9.222-47.889-30.375-62.327-89.305c31.75-2.548,81.417-2.225,104.514,15.45c6.592,5.057,10.05,11.002,10.92,18.768
	c1.214,10.557,10.15,18.362,20.546,18.362c0.789,0,1.577-0.04,2.366-0.121c11.366-1.294,19.535-11.527,18.262-22.892
	c-2.145-18.888-11.446-35.147-26.897-46.999c-32.519-24.875-87.849-26.573-123.359-24.591c11-22.286,30.778-46.594,54.196-60.346
	c19.172-11.244,36.362-12.821,51.004-4.611c9.989,5.582,22.608,1.982,28.19-8.008c5.581-9.99,2.002-22.569-7.969-28.15
	c-27.623-15.41-60.345-13.63-92.175,5.056c-29.527,17.311-55.857,48.009-70.861,79.072c-45.786-50.76-118.244-78.95-196.185-72.883
	c-11.386,0.889-19.919,10.839-19.05,22.245c0.869,11.406,10.779,19.899,22.245,19.05c59.274-4.611,114.745,13.874,152.341,48.617
	c-71.085-1.739-134.828,17.958-182.796,57.959c-8.797,7.321-9.971,20.385-2.629,29.162c7.341,8.817,20.405,9.99,29.162,2.629
	c43.014-35.916,94.24-47.079,137.476-48.576c-19.414,16.138-37.897,37.413-44.672,63.096c-6.634,25.158-0.87,50.962,16.703,74.705
	c4.086,5.46,10.313,8.372,16.665,8.372c4.287,0,8.615-1.335,12.315-4.086c9.181-6.795,11.103-19.778,4.308-28.958
	c-10.112-13.631-13.347-26.493-9.971-39.394c6.331-24.106,33.772-45.623,55.877-59.132c19.171,72.803,64.269,100.953,80.001,110.701
	c0.284,0.202,1.881,1.173,2.185,1.335c43.763,24.268,148.963,94.926,173.372,160.813c-9.282-2.022-18.545-4.165-28.535-6.471
	c-26.31-6.107-59.052-13.672-110.256-23.015c-118.062-21.517-262.008,24.551-307.611,44.167l-27.18,11.852
	c-8.11-3.519-15.754-6.795-24.45-10.436c-2.366-1.011-4.814-1.375-7.22-1.456c12.68-185.525-58.87-322.557-58.87-322.557h-0.667
	c0,0-68.576,133.067-58.323,314.428c-4.854-0.284-9.586-0.324-13.893,0c-68.476,4.004-123.967,25.035-182.694,47.28
	c-16.057,6.067-32.397,12.256-49.445,18.281c-10.779,3.803-16.441,15.613-12.66,26.412c3.014,8.494,10.981,13.833,19.535,13.833
	c2.286,0,4.591-0.405,6.876-1.174c17.351-6.106,34.035-12.457,50.355-18.646c58.101-22.003,108.294-41.012,170.581-44.652
	c2.912-0.202,5.986-0.202,9.161,0c2.043,0.162,3.903-0.323,5.804-0.769c0.768,6.351,1.314,12.579,2.285,19.05l2.649,17.635
	c-20.991,5.905-41.679,9.627-54.117,6.957c-11.103-2.387-22.205,4.691-24.591,15.896c-2.407,11.163,4.711,22.164,15.896,24.591
	c5.46,1.173,11.445,1.698,17.755,1.698c45.037,0,106.495-26.532,114.139-29.89l115.514-50.314
	c39.476-16.987,176.305-61.033,283.769-41.457c50.193,9.182,81.074,16.34,108.314,22.649c30.617,7.079,54.805,12.7,92.823,17.837
	c11.245,1.537,21.762-6.39,23.297-17.715C991.057,688.324,983.13,677.889,971.804,676.353z M367.985,722.501l-18.828,8.211
	c-6.41,2.831-14.216,5.945-22.589,9.02V559.261c0-11.446,9.263-20.708,20.708-20.708c11.447,0,20.709,9.262,20.709,20.708V722.501z"
	/>
</svg>
