<?xml version="1.0" encoding="utf-8"?>
<!-- Generator: Adobe Illustrator 16.0.0, SVG Export Plug-In . SVG Version: 6.00 Build 0)  -->
<!DOCTYPE svg PUBLIC "-//W3C//DTD SVG 1.1//EN" "http://www.w3.org/Graphics/SVG/1.1/DTD/svg11.dtd">
<svg version="1.1" id="Layer_1" xmlns="http://www.w3.org/2000/svg" xmlns:xlink="http://www.w3.org/1999/xlink" x="0px" y="0px"
	 width="1024px" height="1024px" viewBox="0 0 1024 1024" enable-background="new 0 0 1024 1024" xml:space="preserve">
<path fill="#414042" d="M767.127,384.555c-2.144-150.297-117.436-271.878-258.855-271.878
	c-142.228,0-257.923,123.846-257.823,278.066c4.833,50.84,26.937,154.463,120.489,277.378c0.324,0.404,30.719,39.678,42.853,64.835
	l22.973,57.434c-1.941,1.093-3.883,2.265-5.399,3.964c-3.923,4.368-5.784,10.232-5.116,16.097l9.363,82.51
	c1.174,10.476,10.031,18.363,20.567,18.363h106.9c10.456,0,19.271-7.807,20.546-18.16l10.173-82.51
	c0.729-5.865-1.112-11.811-5.035-16.259c-1.78-2.023-4.004-3.52-6.37-4.693l20.931-56.381c9.868-20.749,34.136-53.874,43.075-65.36
	c90.294-118.588,113.955-219.136,119.8-271.676c0.89-2.305,1.375-4.813,1.375-7.442C767.571,387.386,767.431,385.93,767.127,384.555
	z M539.073,787.438h-58.892l-15.429-38.586c2.325-0.566,4.732-1.294,7.24-2.144c8.857,2.831,22.447,5.218,36.725,0.243
	c9.262,2.75,21.316,3.963,33.551,0.08c3.255,1.133,6.876,2.104,10.759,2.791L539.073,787.438z M618.508,657.039
	c-8.573,17.23-17.412,35.229-24.247,49.344c-6.471-3.478-14.317-3.519-20.709,0.486c-9.383,5.824-20.425-0.162-20.628-0.243
	c-1.231-0.728-2.566-1.173-3.883-1.658c8.961-19.132,25.785-53.065,31.894-65.32c65.987-154.221,79.737-280.938,40.363-375.582
	c-27.665-66.453-74.035-96.706-92.317-106.535v549.984c-5.136,1.335-10.638-1.092-10.656-1.133
	c-6.594-3.721-14.724-3.559-21.155,0.405c-2.931,1.86-6.592,1.779-9.604,1.173V157.41c-18.424,9.788-65.22,40.244-92.966,107.789
	c-38.807,94.522-24.914,220.875,41.255,375.541c0.526,0.971,18.747,38.181,29.91,64.351c-0.789,0.242-1.617,0.121-2.366,0.484
	c-9.504,4.328-14.945,4.126-16.724,3.559c-6.673-6.146-16.744-7.279-24.692-2.466c-0.223,0.161-0.344,0.364-0.567,0.524
	c-10.395-23.094-22.994-48.817-23.176-49.182c-71.468-166.96-85.26-304.518-41.416-409.839
	c41.477-99.619,119.8-131.652,123.098-132.986c6.188-2.427,12.659-1.416,17.998,1.739c3.094-1.861,6.492-3.195,10.354-3.195
	c3.823,0,7.201,1.334,10.274,3.115c5.318-3.074,11.77-4.045,17.897-1.659c3.297,1.334,81.62,33.368,123.076,132.986
	C703.364,353.492,689.571,491.049,618.508,657.039z"/>
</svg>
