<?xml version="1.0" encoding="utf-8"?>
<!-- Generator: Adobe Illustrator 16.0.0, SVG Export Plug-In . SVG Version: 6.00 Build 0)  -->
<!DOCTYPE svg PUBLIC "-//W3C//DTD SVG 1.1//EN" "http://www.w3.org/Graphics/SVG/1.1/DTD/svg11.dtd">
<svg version="1.1" id="Layer_1" xmlns="http://www.w3.org/2000/svg" xmlns:xlink="http://www.w3.org/1999/xlink" x="0px" y="0px"
	 width="1024px" height="1024px" viewBox="0 0 1024 1024" enable-background="new 0 0 1024 1024" xml:space="preserve">
<g>
	<path fill="#414042" d="M508.393,439.763c0.406,0,0.81,0,1.214,0c19.374,0,34.927-2.224,46.897-4.893
		c52.136-159.398,52.054-278.875,50.619-313.073c-18.586-12.437-49.606-27.098-94.301-28.251c-0.565-0.041-1.132-0.061-1.718-0.061
		c-0.163,0-0.385-0.021-0.546,0h-3.095c-0.082,0-0.182,0-0.264,0c-0.87,0-1.355,0.02-2.002,0.061
		c-43.783,1.132-74.4,15.207-93.127,27.503c1.092,26.25,8.292,148.194,48.657,313.659
		C472.781,437.458,488.636,439.763,508.393,439.763z"/>
	<path fill="#414042" d="M577.374,437.579c29.566,23.357,58.041,28.271,78.323,27.483
		c123.644-153.694,117.759-271.21,114.118-299.198c-30.171-27.079-83.602-56.706-141.783-40.972
		C629.51,165.136,627.911,281.539,577.374,437.579z"/>
	<path fill="#414042" d="M930.831,261.68c-0.262-1.172-0.606-2.305-1.071-3.417c-13.933-33.591-59.395-90.377-138.628-88.496
		c3.883,39.576,1.819,153.755-113.815,301.08c22.023,20.101,45.198,29.91,64.956,34.358l-173.453,181.4
		c-8.391,3.822-17.491-1.092-17.634-1.173c-6.573-3.924-14.742-3.903-21.315,0.02c-5.357,3.175-12.456-0.283-12.477-0.263
		c-6.592-3.721-14.683-3.579-21.153,0.425c-5.603,3.498-14.238-0.587-14.257-0.587c-5.704-3.135-12.62-3.396-18.525-0.667
		c-8.715,3.943-13.731,3.984-15.632,3.539L275.323,505.205c19.617-4.327,42.509-13.772,64.391-33.409
		c-96.383-113.39-107.587-257.802-108.598-301.747c-81.782-4.146-128.659,54.016-142.855,88.192
		c-0.444,1.133-0.809,2.266-1.092,3.438c-0.323,1.456-30.456,146.455,128.861,241.058l202.027,213.879
		c0.728,0.85,3.64,3.964,8.696,6.917c1.739,7.158,3.6,23.519-2.386,51.648c-14.277,12.923-23.418,37.292-23.418,67.545
		c0,41.861,17.432,72.722,42.063,76.807c0.526,0.264,0.89,0.708,1.416,0.931c1.617,0.606,27.28,10.03,64.917,10.03
		c19.373,0,41.941-2.649,66.008-10.111c27.544-0.04,47.564-32.68,47.564-77.656c0-32.377-10.456-58.121-26.533-70.174
		c-4.268-15.086-7.786-37.291-3.964-51.71c0.061-0.021,0.121-0.062,0.182-0.101c1.456-0.891,2.791-1.982,3.985-3.236L801.91,502.778
		C961.268,408.155,931.176,263.136,930.831,261.68z M448.513,874.659c-2.872-5.945-6.147-16.725-6.147-31.933
		c0-15.248,3.276-26.006,6.147-31.952c2.871,5.946,6.147,16.704,6.147,31.952C454.661,857.935,451.384,868.714,448.513,874.659z
		 M487.989,887.682c5.157-12.437,8.108-27.786,8.108-44.955c0-13.428-1.962-25.562-5.196-36.239h42.063
		c-3.234,10.678-5.196,22.812-5.196,36.239c0,16.785,2.791,31.872,7.726,44.167C517.13,889.523,500.83,889.199,487.989,887.682z
		 M468.311,765.07c2.124-16.037,2.002-28.838,0.87-38.828c0.991-0.304,1.86-0.404,2.872-0.768c8.696,2.79,21.922,5.035,35.775,0.242
		c8.999,2.67,20.79,3.842,32.66,0.08c2.832,0.971,5.987,1.779,9.303,2.428c-0.788,12.941,0.385,25.905,2.388,36.846H468.311z
		 M575.332,874.659c-2.872-5.945-6.148-16.725-6.148-31.933c0-15.248,3.276-26.006,6.148-31.952
		c2.892,5.946,6.167,16.704,6.167,31.952C581.499,857.935,578.224,868.714,575.332,874.659z"/>
	<path fill="#414042" d="M440.221,437.943c-38.868-159.842-47.079-279.502-48.656-312.566
		c-56.503-16.017-108.799,10.981-139.781,37.393c0.243,29.586,6.876,186.961,109.528,302.232
		C381.494,465.972,410.292,461.361,440.221,437.943z"/>
</g>
</svg>
