<?xml version="1.0" encoding="utf-8"?>
<!-- Generator: Adobe Illustrator 16.0.0, SVG Export Plug-In . SVG Version: 6.00 Build 0)  -->
<!DOCTYPE svg PUBLIC "-//W3C//DTD SVG 1.1//EN" "http://www.w3.org/Graphics/SVG/1.1/DTD/svg11.dtd">
<svg version="1.1" id="Layer_1" xmlns="http://www.w3.org/2000/svg" xmlns:xlink="http://www.w3.org/1999/xlink" x="0px" y="0px"
	 width="1024px" height="1024px" viewBox="0 0 1024 1024" enable-background="new 0 0 1024 1024" xml:space="preserve">
<g>
	<path fill="#414042" d="M599.317,470.28H418.684c-11.566,0-20.97,9.343-20.97,20.87v353.66c0,11.567,9.404,20.951,20.97,20.951
		h180.634c11.566,0,20.991-9.384,20.991-20.951V491.15C620.309,479.623,610.884,470.28,599.317,470.28z"/>
	<path fill="#414042" d="M632.886,323.501h-33.771V127.743c2.77-0.971,5.561-1.9,8.09-3.599c9.262-2.427,24.328-8.494,22.548-25.319
		c-2.103-20.021-23.033-20.021-33.064-20.021H425.398c-18.808,0-29.323,6.633-31.325,19.657
		c-2.649,17.27,13.124,24.186,21.254,26.937c1.497,0.809,3.397,1.456,5.46,2.063v196.041h-35.673
		c-44.733,0-81.135,36.401-81.135,81.134v421.73c0,28.353,14.682,53.268,36.766,67.787c-0.445,1.658-1.031,3.276-1.031,5.097v25.238
		c0,11.446,9.282,20.708,20.708,20.708s20.708-9.262,20.708-20.708v-17.393c1.355,0.082,2.608,0.405,3.984,0.405h247.771
		c1.377,0,2.63-0.323,3.985-0.405v17.393c0,11.446,9.282,20.708,20.707,20.708c11.427,0,20.709-9.262,20.709-20.708V899.25
		c0-1.82-0.586-3.438-1.031-5.097c22.084-14.52,36.766-39.435,36.766-67.787v-421.73
		C714.021,359.903,677.62,323.501,632.886,323.501z M462.204,130.332c2.993,0.688,6.31,1.254,10.071,1.254
		c6.875,0,13.306-1.78,18.808-5.096c3.62,1.86,9.504,4.044,17.109,4.044c6.997,0,13.933-1.779,19.494-4.611
		c0.71,0.485,1.457,0.89,2.227,1.254c2.184,1.012,10.029,4.409,19.696,4.409c2.791,0,5.46-0.485,8.09-1.052v192.968h-95.494V130.332
		z M650.237,826.609c0,33.206-27.017,60.184-60.224,60.184H428.007c-33.227,0-60.244-26.978-60.244-60.184V509.391
		c0-33.166,27.018-60.143,60.244-60.143h162.007c33.207,0,60.224,26.977,60.224,60.143V826.609z"/>
</g>
</svg>
