<?xml version="1.0" encoding="utf-8"?>
<!-- Generator: Adobe Illustrator 16.0.0, SVG Export Plug-In . SVG Version: 6.00 Build 0)  -->
<!DOCTYPE svg PUBLIC "-//W3C//DTD SVG 1.1//EN" "http://www.w3.org/Graphics/SVG/1.1/DTD/svg11.dtd">
<svg version="1.1" id="Layer_1" xmlns="http://www.w3.org/2000/svg" xmlns:xlink="http://www.w3.org/1999/xlink" x="0px" y="0px"
	 width="1024px" height="1024px" viewBox="0 0 1024 1024" enable-background="new 0 0 1024 1024" xml:space="preserve">
<g>
	<path fill="#414042" d="M769.312,769.095l-53.51-273.941c-5.3-26.209-30.82-43.135-57.029-37.796l-25.238,4.348l76.119,369.029
		v-0.121l21.88-4.449C757.742,820.865,774.65,795.283,769.312,769.095z"/>
	<path fill="#414042" d="M613.432,438.692c-7.198-35.309-41.578-58.162-76.928-50.962l-95.736,19.414l-60.709-291.211
		c-2.306-11.123-13.226-18.423-24.309-16.077l-91.367,18.119c-11.204,2.225-18.484,13.104-16.259,24.328
		c2.184,11.245,13.064,18.565,24.308,16.28l71.266-14.116l136.06,652.211c2.023,9.768,10.638,16.481,20.224,16.481
		c1.417,0,2.831-0.141,4.247-0.444c0.282-0.061,0.445-0.242,0.688-0.303c4.044-0.364,58.202-4.167,72.076,48.211l117.333-23.984
		l-12.861-63.743L613.432,438.692z"/>
	<path fill="#414042" d="M516.887,824.344c-27.624,0-50.071,22.407-50.071,50.112c0,27.604,22.448,50.112,50.071,50.112
		c27.665,0,50.113-22.508,50.113-50.112C567,846.751,544.552,824.344,516.887,824.344z"/>
</g>
</svg>
