<?xml version="1.0" encoding="utf-8"?>
<!-- Generator: Adobe Illustrator 16.0.0, SVG Export Plug-In . SVG Version: 6.00 Build 0)  -->
<!DOCTYPE svg PUBLIC "-//W3C//DTD SVG 1.1//EN" "http://www.w3.org/Graphics/SVG/1.1/DTD/svg11.dtd">
<svg version="1.1" id="Layer_1" xmlns="http://www.w3.org/2000/svg" xmlns:xlink="http://www.w3.org/1999/xlink" x="0px" y="0px"
	 width="1024px" height="1024px" viewBox="0 0 1024 1024" enable-background="new 0 0 1024 1024" xml:space="preserve">
<g>
	<path fill="#414042" d="M703.262,203.862C563.198,118.46,531.489,361.48,531.489,361.48c-1.092,25.319-1.983,48.737-3.601,70.659
		c28.354-31.265,67.625-52.944,117.374-64.592l5.987-28.959c2.305-11.204,13.266-18.322,24.469-16.098
		c11.204,2.346,18.403,13.267,16.098,24.47l-6.835,33.004c16.623,23.176,64.511,94.846,75.594,164.736
		C808.18,447.266,854.127,295.877,703.262,203.862z"/>
	<path fill="#414042" d="M546.332,475.215c-37.818,55.815-25.277,123.076-25.156,123.765c2.184,11.203-5.139,22.083-16.342,24.268
		c-6.106,1.173-11.973-0.567-16.502-4.045c-2.387,6.269-4.449,12.093-6.552,18.038c-3.155-17.067-5.582-32.356-7.199-46.067
		c-2.994,0.283-6.067,0.081-9.101-1.012c-10.719-3.883-16.259-15.732-12.417-26.451c2.225-6.188,51.043-148.598-99.214-216.264
		c-28.636,29.202-111.752,122.591-86.069,199.318l20.385,34.137c5.865,9.828,2.669,22.568-7.159,28.393
		c-3.316,1.981-6.997,2.952-10.597,2.952c-1.456,0-2.912-0.243-4.328-0.566c9.262,55.694,10.718,97.435,10.718,97.435
		s5.42,145.727,107.95,134.928c29.89-3.154,52.459-12.66,69.203-26.371c0.081,0.283,0.202,0.526,0.202,0.526
		c11.163,30.739,36.725,56.18,81.581,69.77c98.727,29.849,131.367-112.238,131.367-112.238s9.91-43.397,30.74-98.85
		c-4.247-0.404-8.414-1.86-11.852-4.894c-8.533-7.604-9.303-20.708-1.699-29.243l26.855-30.213
		c34.663-53.591-23.66-157.456-57.108-204.738C605.02,419.358,568.819,442.008,546.332,475.215z"/>
	<path fill="#414042" d="M328.611,314.037l-0.445-30.658c-0.202-11.406,8.939-20.83,20.385-20.991
		c11.163-0.405,20.83,8.938,21.032,20.385l0.404,26.653c55.613,24.753,88.859,58.444,108.274,93.552
		c2.508-23.297,5.582-48.171,9.585-75.229c0,0,14.521-244.597-139.093-187.083c-160.49,60.123-147.871,223.283-120.731,330.99
		C247.76,398.287,308.429,333.856,328.611,314.037z"/>
</g>
</svg>
