<?xml version="1.0" encoding="utf-8"?>
<!-- Generator: Adobe Illustrator 16.0.0, SVG Export Plug-In . SVG Version: 6.00 Build 0)  -->
<!DOCTYPE svg PUBLIC "-//W3C//DTD SVG 1.1//EN" "http://www.w3.org/Graphics/SVG/1.1/DTD/svg11.dtd">
<svg version="1.1" id="Layer_1" xmlns="http://www.w3.org/2000/svg" xmlns:xlink="http://www.w3.org/1999/xlink" x="0px" y="0px"
	 width="1024px" height="1024px" viewBox="0 0 1024 1024" enable-background="new 0 0 1024 1024" xml:space="preserve">
<g>
	<path fill="#414042" d="M951.439,754.149c-9-7.037-22.004-5.46-29.061,3.56l-2.002,2.568L809.575,476.448
		c-0.688-1.8-1.902-3.216-3.013-4.712c0.403-1.557,0.667-2.527,0.667-2.527c-162.411-78.951-297.724-284.173-297.724-284.173h-1.092
		l157.254,582.704c0,0-36.401-39.091-66.533,29.425h-89.71l-1.011-612.129c0,0-129.508,196.243-287.045,278.713
		c-7.2,1.052-13.711,5.582-16.461,12.862L97.32,759.894l-1.658-2.144c-6.997-9.04-20.062-10.678-29.041-3.661
		c-9.06,7.018-10.678,20.042-3.66,29.061l26.068,33.571c4.084,5.257,10.192,8.008,16.38,8.008c4.429,0,8.897-1.416,12.68-4.349
		c5.804-4.509,8.19-11.486,7.543-18.302l101.438-267.104c21.133,87.929,55.128,240.106,53.551,303.991h228.884v-0.384h78.142
		l-0.039,0.384h149.649c-1.538-62.792,31.305-210.845,52.499-299.381l102.53,262.615c-0.606,6.775,1.76,13.672,7.523,18.141
		c3.762,2.952,8.251,4.389,12.698,4.389c6.17,0,12.256-2.73,16.341-7.969l26.19-33.569
		C962.077,774.17,960.459,761.147,951.439,754.149z"/>
	<path fill="#414042" d="M635.091,733.219L518.646,302.085l58.223,485.15C576.869,787.235,605.646,703.127,635.091,733.219z"/>
</g>
</svg>
