<?xml version="1.0" encoding="utf-8"?>
<!-- Generator: Adobe Illustrator 16.0.0, SVG Export Plug-In . SVG Version: 6.00 Build 0)  -->
<!DOCTYPE svg PUBLIC "-//W3C//DTD SVG 1.1//EN" "http://www.w3.org/Graphics/SVG/1.1/DTD/svg11.dtd">
<svg version="1.1" id="Layer_1" xmlns="http://www.w3.org/2000/svg" xmlns:xlink="http://www.w3.org/1999/xlink" x="0px" y="0px"
	 width="1024px" height="1024px" viewBox="0 0 1024 1024" enable-background="new 0 0 1024 1024" xml:space="preserve">
<path fill="#414042" d="M784.64,130.958c-66.878,0-122.309,49.264-132.318,113.391H119.91c-8.251,0-15.734,4.914-19.01,12.498
	c-3.276,7.564-1.739,16.381,3.923,22.387l326.642,347.512v224.88H352.19c-11.445,0-20.708,9.262-20.708,20.708
	s9.263,20.709,20.708,20.709h200.188c11.448,0,20.709-9.263,20.709-20.709s-9.261-20.708-20.709-20.708h-79.496V626.968
	l236.165-251.23c22.164,15.167,48.332,23.479,75.593,23.479c73.995,0,134.179-60.184,134.179-134.18
	C918.818,191.102,858.635,130.958,784.64,130.958z M737.157,185.884l21.01,58.464h-63.66
	C700.21,219.515,715.923,198.686,737.157,185.884z M660.633,366.778H243.958l-76.16-81.013h568.975L660.633,366.778z
	 M784.64,357.799c-16.623,0-32.579-4.63-46.654-12.862l40.608-43.196l19.676,54.684C793.78,357.092,789.312,357.799,784.64,357.799z
	 M776.61,173.184c2.69-0.243,5.278-0.809,8.029-0.809c37.515,0,69.709,22.448,84.31,54.521l-67.464,15.511L776.61,173.184z
	 M836.916,341.561l-21.538-59.84l61.782-14.217C876.331,298.223,860.679,325.281,836.916,341.561z"/>
</svg>
