<?xml version="1.0" encoding="utf-8"?>
<!-- Generator: Adobe Illustrator 16.0.0, SVG Export Plug-In . SVG Version: 6.00 Build 0)  -->
<!DOCTYPE svg PUBLIC "-//W3C//DTD SVG 1.1//EN" "http://www.w3.org/Graphics/SVG/1.1/DTD/svg11.dtd">
<svg version="1.1" id="Layer_1" xmlns="http://www.w3.org/2000/svg" xmlns:xlink="http://www.w3.org/1999/xlink" x="0px" y="0px"
	 width="1024px" height="1024px" viewBox="0 0 1024 1024" enable-background="new 0 0 1024 1024" xml:space="preserve">
<g id="_x34_34">
	<path fill="#414042" d="M509.041,533.558c-11.447,0-20.709,9.263-20.709,20.709v300.796c0,30.052-24.45,54.521-54.521,54.521
		c-30.092,0-54.583-24.47-54.583-54.521c0-11.446-9.262-20.709-20.708-20.709c-11.446,0-20.709,9.263-20.709,20.709
		c0,52.904,43.055,95.938,96,95.938c52.903,0,95.938-43.033,95.938-95.938V554.267C529.749,542.82,520.487,533.558,509.041,533.558z
		"/>
	<path fill="#414042" d="M509.041,178.685c11.446,0,20.708-9.262,20.708-20.708V93.708c0-11.446-9.262-20.708-20.708-20.708
		c-11.447,0-20.709,9.262-20.709,20.708v64.269C488.332,169.422,497.594,178.685,509.041,178.685z"/>
	<path fill="#414042" d="M363.375,565.551c-50.012-179.985,59.859-329.352,109.285-385.046
		C281.35,198.827,131.68,359.883,131.68,556.005l15.713,16.22c21.355-38.748,62.671-64.998,110.114-64.998
		C302.078,507.227,341.048,530.523,363.375,565.551z"/>
	<path fill="#414042" d="M511.448,199.636C472.538,241.902,352.474,390.339,405.56,562.8c0.141,0.485,0.041,1.012,0.141,1.497
		c22.711-32.721,60.366-54.279,103.219-54.279c43.439,0,81.661,22.044,104.229,55.412l7.36,3.315
		c-0.183-1.698-0.525-3.397-0.243-5.177C652.221,354.503,550.397,236.361,511.448,199.636z"/>
	<path fill="#414042" d="M552.096,181.313c49.466,51.083,137.576,173.474,110.681,376.472
		c22.892-30.698,59.517-50.558,100.832-50.558c47.564,0,88.88,26.331,110.235,65.28l12.498-16.502
		C886.342,362.188,740.148,202.71,552.096,181.313z"/>
</g>
</svg>
