<?xml version="1.0" encoding="utf-8"?>
<!-- Generator: Adobe Illustrator 16.0.0, SVG Export Plug-In . SVG Version: 6.00 Build 0)  -->
<!DOCTYPE svg PUBLIC "-//W3C//DTD SVG 1.1//EN" "http://www.w3.org/Graphics/SVG/1.1/DTD/svg11.dtd">
<svg version="1.1" id="Layer_1" xmlns="http://www.w3.org/2000/svg" xmlns:xlink="http://www.w3.org/1999/xlink" x="0px" y="0px"
	 width="1024px" height="1024px" viewBox="0 0 1024 1024" enable-background="new 0 0 1024 1024" xml:space="preserve">
<path fill="#414042" d="M871.842,515.337c0,0-56.786-54.137-199.157-43.541l32.357,83.016c-5.864-0.485-11.83-0.688-17.797-0.85
	c-17.37-48.96-48.777-129.872-75.876-158.306c0,0-25.642-36.947-63.702-31.466c-17.877,2.568-51.002-11.204-51.002-11.204
	c-163.483-29.667-166.658,118.81-166.658,118.81l-4.086,160.085c-9.929-0.323-15.632-1.577-15.632-1.577l1.436-95.918l-38.848,2.347
	c0,0-200.855,27.665-134.847,93.146c0,0,93.956,74.259,265.973,32.053c0,0,24.065-7.826,61.782-18.402
	c7.927-2.144,12.942-3.579,13.792-3.822c10.981-3.014,22.893-6.168,35.491-9.403c83.077-20.587,181.968-36.664,185.122-37.17
	c29.324-3.843,58.101-6.371,84.855-6.795C785.044,586.34,951.197,589.394,871.842,515.337z"/>
</svg>
