<?xml version="1.0" encoding="utf-8"?>
<!-- Generator: Adobe Illustrator 16.0.0, SVG Export Plug-In . SVG Version: 6.00 Build 0)  -->
<!DOCTYPE svg PUBLIC "-//W3C//DTD SVG 1.1//EN" "http://www.w3.org/Graphics/SVG/1.1/DTD/svg11.dtd">
<svg version="1.1" id="Layer_1" xmlns="http://www.w3.org/2000/svg" xmlns:xlink="http://www.w3.org/1999/xlink" x="0px" y="0px"
	 width="1024px" height="1024px" viewBox="0 0 1024 1024" enable-background="new 0 0 1024 1024" xml:space="preserve">
<path fill="#414042" d="M918.314,421.684c-1.295-1.435-2.994-2.466-4.813-2.992c-135.574-38.768-274.87-58.424-414.006-58.424
	c-237.095,0-394.146,58.101-395.723,58.687c-1.537,0.567-2.872,1.517-4.004,2.73c-2.467,2.71-24.146,27.362-22.205,52.136
	c0.809,10.313,5.703,19.313,14.115,26.067c1.618,1.274,3.519,2.042,5.582,2.225c0.162,0.02,17.918,1.861,18.403,11.406
	c-0.121,2.649-2.993,65.3,38.747,109.285c25.724,27.14,62.368,40.911,109.608,40.911c0,0,0.041,0,0.081,0
	c1.577-0.102,156.445-11.709,206.153-181.926c0.243-0.748,6.512-18.646,39.193-18.646c31.872,0,38.141,17.897,38.343,18.544
	c49.749,170.318,204.616,181.926,206.193,182.027c0.202,0.021,0.405,0.021,0.648,0.021c46.594,0,83.277-13.772,109.041-40.911
	c41.7-43.985,38.869-106.656,38.748-108.314c0.444-10.536,18.201-12.377,18.362-12.397c2.022-0.182,3.964-0.951,5.541-2.225
	c8.412-6.754,13.306-15.774,14.155-26.088C942.419,449.025,920.781,424.414,918.314,421.684z"/>
</svg>
