<?xml version="1.0" encoding="utf-8"?>
<!-- Generator: Adobe Illustrator 16.0.0, SVG Export Plug-In . SVG Version: 6.00 Build 0)  -->
<!DOCTYPE svg PUBLIC "-//W3C//DTD SVG 1.1//EN" "http://www.w3.org/Graphics/SVG/1.1/DTD/svg11.dtd">
<svg version="1.1" id="Layer_1" xmlns="http://www.w3.org/2000/svg" xmlns:xlink="http://www.w3.org/1999/xlink" x="0px" y="0px"
	 width="1024px" height="1024px" viewBox="0 0 1024 1024" enable-background="new 0 0 1024 1024" xml:space="preserve">
<g>
	<path fill="#414042" d="M509,136.661c-11.446,0-20.707,9.263-20.707,20.709v709.26c0,11.446,9.261,20.709,20.707,20.709
		c11.448,0,20.709-9.263,20.709-20.709V157.37C529.709,145.924,520.447,136.661,509,136.661z"/>
	<path fill="#414042" d="M936.716,306.454l-82.832-69.021c-1.861-1.557-4.207-2.406-6.634-2.406H571.125
		c-5.722,0-10.354,4.631-10.354,10.354v138.043c0,5.723,4.632,10.354,10.354,10.354H847.25c2.427,0,4.772-0.85,6.634-2.406
		l82.832-69.021c2.348-1.961,3.722-4.873,3.722-7.947S939.063,308.415,936.716,306.454z"/>
	<path fill="#414042" d="M446.875,297.151H170.75c-2.427,0-4.773,0.85-6.633,2.406l-82.833,69.021
		c-2.346,1.961-3.721,4.874-3.721,7.948s1.375,5.986,3.721,7.947l82.833,69.021c1.86,1.557,4.207,2.406,6.633,2.406h276.125
		c5.723,0,10.354-4.631,10.354-10.354V307.505C457.229,301.782,452.598,297.151,446.875,297.151z"/>
</g>
</svg>
