<?xml version="1.0" encoding="utf-8"?>
<!-- Generator: Adobe Illustrator 16.0.0, SVG Export Plug-In . SVG Version: 6.00 Build 0)  -->
<!DOCTYPE svg PUBLIC "-//W3C//DTD SVG 1.1//EN" "http://www.w3.org/Graphics/SVG/1.1/DTD/svg11.dtd">
<svg version="1.1" id="Layer_1" xmlns="http://www.w3.org/2000/svg" xmlns:xlink="http://www.w3.org/1999/xlink" x="0px" y="0px"
	 width="1024px" height="1024px" viewBox="0 0 1024 1024" enable-background="new 0 0 1024 1024" xml:space="preserve">
<path fill="#414042" d="M928.647,310.862c-2.507-4.268-69.931-116.525-194.565-170.743c-6.45-3.498-13.934-6.613-21.477-8.857
	c-24.772-7.381-48.797-5.278-69.506,6.168c-26.795,14.784-46.452,43.965-58.403,86.737L454.981,712.863l15.979-526.918
	c0.769-44.39-9.707-77.98-31.184-99.821c-16.563-16.845-38.99-25.764-64.855-25.764c-7.847,0-15.916,0.829-23.095,2.366
	C216.879,79.066,120.213,167.38,116.593,170.757c-35.107,29.121-77.596,78.688-41.781,171.774L218.639,785.9
	c18.079,58.788,47.261,126.252,112.803,126.252c6.977,0,14.298-0.789,21.78-2.346c30.258-6.285,54.785-15.972,71.956-35.729
	c6.191,36.935,30.483,58.521,65.52,77.408c6.734,3.64,13.529,6.471,20.203,8.474c62.813,18.726,110.054-37.575,144.189-88.759
	l264.498-383.792C980.521,408.458,953.948,348.801,928.647,310.862z M350.613,240.972c0-5.724,4.632-10.354,10.354-10.354
	s10.354,4.631,10.354,10.354v177.739c0,5.724-4.632,10.354-10.354,10.354s-10.354-4.631-10.354-10.354V240.972z M250.187,265.34
	c5.703-1.112,11.082,2.487,12.214,8.09l33.651,166.273c1.133,5.622-2.487,11.083-8.089,12.215c-0.708,0.141-1.395,0.202-2.083,0.202
	c-4.813,0-9.14-3.397-10.131-8.292l-33.651-166.273C240.965,271.933,244.585,266.473,250.187,265.34z M219.185,493.152
	c-1.051,0.344-2.124,0.506-3.175,0.506c-4.389,0-8.454-2.791-9.849-7.18L154.39,325.261c-1.759-5.46,1.233-11.284,6.673-13.023
	c5.419-1.799,11.305,1.234,13.024,6.673l51.771,161.218C227.617,485.589,224.625,491.413,219.185,493.152z M406.955,636.917
	l-5.157,96.161c-2.446,56.887-28.15,73.834-65.988,81.68c-4.57,0.951-9.04,1.437-13.287,1.437c-41.153,0-57.817-42.995-71.347-87.04
	l-10.374-32.276c-17.573-45.563,9.748-68.151,18.727-75.572c1.051-1.012,36.563-33.287,92.682-40.103
	c2.791-0.606,6.431-0.991,9.99-0.991c12.073,0,22.609,4.207,30.436,12.194C402.465,602.396,407.278,617.362,406.955,636.917z
	 M613.675,475.7l50.801-170.339c1.617-5.46,7.381-8.595,12.881-6.957c5.46,1.618,8.596,7.402,6.958,12.883l-50.78,170.338
	c-1.638,5.481-7.401,8.595-12.903,6.937C615.171,486.944,612.058,481.18,613.675,475.7z M659.277,779.57l-19.172,27.968
	c-25.541,38.343-53.792,74.766-93.248,63.016c-4.064-1.214-8.19-2.953-12.315-5.177c-34.015-18.322-53.814-41.923-39.879-97.131
	l22.509-93.612c5.297-18.849,14.196-31.791,26.451-38.565c9.787-5.42,21.092-6.451,32.659-2.993
	c3.397,1.011,6.775,2.427,9.282,3.802c51.832,22.549,76.646,63.642,77.373,64.915C669.39,711.46,689.126,740.924,659.277,779.57z
	 M686.013,532.122c-0.667-0.182-1.295-0.445-1.941-0.788c-5.035-2.67-6.958-8.96-4.246-14.015l79.759-149.731
	c2.669-5.035,8.857-6.937,13.993-4.268c5.057,2.71,6.958,8.959,4.289,14.035l-79.78,149.71
	C695.739,531.494,690.624,533.497,686.013,532.122z M848.261,448.136l-95.675,139.7c-2.588,3.781-7.28,5.319-11.485,4.065
	c-1.013-0.304-1.983-0.77-2.894-1.396c-4.711-3.235-5.925-9.646-2.669-14.379l95.675-139.701c3.196-4.732,9.707-5.965,14.379-2.689
	C850.323,436.953,851.518,443.403,848.261,448.136z"/>
</svg>
