<?xml version="1.0" encoding="utf-8"?>
<!-- Generator: Adobe Illustrator 16.0.0, SVG Export Plug-In . SVG Version: 6.00 Build 0)  -->
<!DOCTYPE svg PUBLIC "-//W3C//DTD SVG 1.1//EN" "http://www.w3.org/Graphics/SVG/1.1/DTD/svg11.dtd">
<svg version="1.1" id="Layer_1" xmlns="http://www.w3.org/2000/svg" xmlns:xlink="http://www.w3.org/1999/xlink" x="0px" y="0px"
	 width="48px" height="48px" viewBox="0 0 48 48" enable-background="new 0 0 48 48" xml:space="preserve">
<g>
	<path fill="#414042" d="M40.686,32.513c-3.067,1.993-4.898,1.45-7.218,0.759c-0.724-0.215-1.472-0.438-2.289-0.596
		c-3.54-0.864-4.182-0.688-5.415-0.177c-0.646,0.27-1.452,0.605-3.245,0.855c-1.891,0.221-3.155-0.245-4.493-0.739
		c-1.319-0.486-2.683-0.994-4.668-0.873c-1.73,0.103-2.96,0.928-4.045,1.656c-1.514,1.015-2.818,1.891-5.285,0.906
		c-0.256-0.104-0.547,0.022-0.649,0.278c-0.103,0.257,0.021,0.548,0.278,0.649c0.901,0.36,1.682,0.508,2.377,0.508
		c1.584,0,2.724-0.765,3.837-1.512c1.073-0.721,2.088-1.401,3.546-1.488c1.776-0.11,2.983,0.342,4.263,0.813
		c1.391,0.514,2.831,1.046,4.968,0.792c1.931-0.269,2.839-0.647,3.502-0.923c0.981-0.409,1.43-0.597,4.816,0.229
		c0.792,0.154,1.517,0.369,2.218,0.578c2.361,0.702,4.591,1.366,8.048-0.88c0.231-0.15,0.297-0.46,0.146-0.691
		C41.227,32.427,40.915,32.363,40.686,32.513z"/>
	<path fill="#414042" d="M35.558,23.502c-0.717-0.443-2.596-1.62-3.229-4.957c1.627-0.186,4.433-0.222,5.717,0.766
		c0.404,0.311,0.627,0.698,0.682,1.183c0.029,0.255,0.245,0.444,0.496,0.444c0.019,0,0.038-0.001,0.057-0.003
		c0.274-0.031,0.472-0.278,0.441-0.553c-0.085-0.758-0.443-1.386-1.065-1.864c-1.632-1.255-4.727-1.135-6.168-0.997
		c0.423-1.289,1.56-2.879,2.993-3.721c0.718-0.422,1.793-0.804,2.834-0.222c0.239,0.132,0.545,0.049,0.681-0.193
		c0.135-0.241,0.048-0.545-0.192-0.68c-1.153-0.643-2.476-0.562-3.829,0.233c-1.488,0.874-2.833,2.581-3.394,4.142
		c-1.979-2.614-5.466-4.086-9.218-3.795c-0.275,0.021-0.481,0.262-0.46,0.537c0.021,0.276,0.274,0.471,0.536,0.46
		c3.352-0.26,6.453,0.996,8.246,3.252c-3.65-0.346-6.935,0.523-9.33,2.521c-0.212,0.177-0.24,0.492-0.063,0.704
		c0.177,0.212,0.491,0.239,0.704,0.063c2.6-2.167,5.795-2.484,8.096-2.344c-1.146,0.73-2.628,1.941-3.038,3.494
		c-0.274,1.043-0.039,2.078,0.702,3.077c0.098,0.132,0.249,0.202,0.401,0.202c0.104,0,0.208-0.032,0.298-0.098
		c0.222-0.165,0.269-0.479,0.104-0.7c-0.558-0.752-0.733-1.48-0.538-2.225c0.417-1.584,2.385-2.819,3.354-3.344
		c0.743,3.654,2.851,4.968,3.729,5.511c0.086,0.049,8.558,5.013,8.558,9.335c0,0.276,0.224,0.5,0.5,0.5s0.5-0.224,0.5-0.5
		C44.66,28.84,35.974,23.746,35.558,23.502z"/>
	<path fill="#414042" d="M8.819,31.069c0.092,0.162,0.261,0.253,0.435,0.253c0.084,0,0.169-0.021,0.247-0.065
		c0.24-0.136,0.324-0.441,0.188-0.682L6.99,25.818c2.647,1.102,8.508,3.164,13.297,2.164l-1.649,2.569
		c-0.149,0.232-0.082,0.542,0.15,0.691s0.541,0.081,0.691-0.15l2.355-3.669c0.115-0.18,0.104-0.413-0.028-0.58
		c-0.132-0.168-0.354-0.232-0.559-0.162c-5.97,2.098-15.131-2.342-15.223-2.387C5.828,24.197,5.591,24.24,5.44,24.4
		c-0.15,0.16-0.179,0.399-0.07,0.589L8.819,31.069z"/>
	<path fill="#414042" d="M12.455,25.836c0.008,0.023,0.016,0.047,0.027,0.069c0.006,0.012,0.007,0.024,0.014,0.036
		c0.012,0.02,0.03,0.032,0.044,0.05c0.017,0.021,0.032,0.042,0.053,0.061c0.026,0.023,0.056,0.041,0.086,0.058
		c0.022,0.013,0.042,0.028,0.065,0.037c0.056,0.021,0.116,0.035,0.176,0.035c0.001,0,0.002,0.001,0.003,0.001
		c0.011,0,0.02-0.005,0.03-0.006c0.045-0.003,0.09-0.007,0.134-0.022c0.013-0.004,1.216-0.416,2.471-0.416
		c0.962,0,1.678,0.236,2.127,0.7c0.096,0.099,0.226,0.152,0.359,0.152c0.044,0,0.089-0.006,0.133-0.019
		c0.177-0.049,0.313-0.189,0.354-0.367c1.498-6.397-5.324-9.734-5.394-9.767c-0.002-0.001-0.005,0-0.008-0.001
		c-0.063-0.029-0.133-0.047-0.207-0.047c-0.276,0-0.5,0.224-0.5,0.5v8.793c0,0.014,0.007,0.025,0.008,0.039
		C12.435,25.761,12.442,25.798,12.455,25.836z M17.695,25.207c-0.573-0.312-1.289-0.469-2.137-0.469
		c-0.427,0-0.844,0.041-1.221,0.098c0.746-1.038,1.126-2.15,1.133-3.321c0.006-1.033-0.281-1.969-0.65-2.742
		C16.338,20.07,18.058,22.232,17.695,25.207z M13.424,24.387v-6.036c0.509,0.772,1.057,1.89,1.047,3.166
		C14.463,22.519,14.111,23.48,13.424,24.387z"/>
</g>
</svg>
