<?xml version="1.0" encoding="utf-8"?>
<!-- Generator: Adobe Illustrator 16.0.0, SVG Export Plug-In . SVG Version: 6.00 Build 0)  -->
<!DOCTYPE svg PUBLIC "-//W3C//DTD SVG 1.1//EN" "http://www.w3.org/Graphics/SVG/1.1/DTD/svg11.dtd">
<svg version="1.1" id="Layer_1" xmlns="http://www.w3.org/2000/svg" xmlns:xlink="http://www.w3.org/1999/xlink" x="0px" y="0px"
	 width="48px" height="48px" viewBox="0 0 48 48" enable-background="new 0 0 48 48" xml:space="preserve">
<g>
	<path fill="#414042" d="M40.685,32.512c-3.07,1.994-4.901,1.45-7.219,0.76c-0.724-0.215-1.472-0.438-2.289-0.596
		c-3.537-0.864-4.179-0.689-5.413-0.177c-0.647,0.27-1.453,0.605-3.246,0.855c-1.884,0.221-3.151-0.244-4.492-0.739
		c-1.319-0.486-2.683-0.994-4.668-0.873c-1.731,0.103-2.961,0.928-4.046,1.656C7.8,34.413,6.494,35.29,4.027,34.305
		c-0.256-0.104-0.547,0.022-0.649,0.278c-0.103,0.257,0.021,0.548,0.278,0.649c0.901,0.36,1.681,0.508,2.376,0.508
		c1.584-0.001,2.724-0.765,3.836-1.512c1.074-0.721,2.089-1.401,3.548-1.488c1.776-0.11,2.983,0.342,4.264,0.813
		c1.391,0.514,2.825,1.046,4.966,0.792c1.931-0.269,2.84-0.647,3.503-0.923c0.982-0.41,1.433-0.595,4.814,0.229
		c0.792,0.154,1.518,0.369,2.219,0.578c2.358,0.702,4.591,1.366,8.048-0.881c0.231-0.15,0.297-0.46,0.146-0.691
		C41.225,32.426,40.915,32.362,40.685,32.512z"/>
	<path fill="#414042" d="M35.556,23.501c-0.716-0.444-2.594-1.623-3.226-4.956c1.627-0.186,4.431-0.223,5.716,0.765
		c0.405,0.312,0.629,0.699,0.684,1.185c0.029,0.255,0.245,0.444,0.496,0.444c0.02,0,0.038-0.001,0.058-0.003
		c0.274-0.031,0.472-0.279,0.44-0.553c-0.086-0.759-0.445-1.386-1.068-1.865c-1.633-1.254-4.726-1.133-6.166-0.996
		c0.422-1.288,1.558-2.879,2.99-3.721c0.718-0.423,1.794-0.804,2.835-0.223c0.239,0.132,0.545,0.049,0.681-0.193
		c0.135-0.241,0.048-0.546-0.192-0.68c-1.154-0.644-2.476-0.561-3.83,0.233c-1.487,0.875-2.83,2.581-3.391,4.142
		c-1.978-2.612-5.452-4.084-9.22-3.796c-0.275,0.021-0.481,0.261-0.46,0.537c0.021,0.276,0.274,0.472,0.536,0.46
		c3.354-0.256,6.453,0.998,8.246,3.253c-3.65-0.346-6.936,0.523-9.331,2.521c-0.212,0.177-0.24,0.492-0.063,0.704
		c0.176,0.212,0.491,0.239,0.704,0.063c2.6-2.167,5.796-2.484,8.097-2.344c-1.146,0.73-2.627,1.94-3.037,3.494
		c-0.274,1.043-0.038,2.078,0.703,3.077c0.098,0.133,0.249,0.202,0.401,0.202c0.104,0,0.208-0.032,0.298-0.099
		c0.222-0.165,0.269-0.478,0.104-0.699c-0.559-0.752-0.734-1.48-0.539-2.224c0.417-1.584,2.386-2.82,3.355-3.344
		c0.739,3.65,2.847,4.966,3.727,5.511c0.086,0.049,8.558,5.013,8.558,9.335c0,0.276,0.224,0.5,0.5,0.5s0.5-0.224,0.5-0.5
		C44.66,28.84,35.975,23.746,35.556,23.501z"/>
	<path fill="#414042" d="M15.355,17.716c1.978,0,3.586,1.609,3.586,3.586c0,1.979-1.608,3.588-3.586,3.588
		c-1.979,0-3.588-1.609-3.588-3.588c0-0.276-0.224-0.5-0.5-0.5s-0.5,0.224-0.5,0.5c0,2.53,2.059,4.588,4.588,4.588
		c2.528,0,4.586-2.058,4.586-4.588c0-2.529-2.058-4.586-4.586-4.586c-0.276,0-0.5,0.224-0.5,0.5S15.079,17.716,15.355,17.716z"/>
	<path fill="#414042" d="M9.412,18.634c0,0.276,0.224,0.5,0.5,0.5c0.49,0,1.085,0.133,1.172,0.247
		c0.061,0.212,0.253,0.357,0.474,0.36c0.003,0,0.005,0,0.008,0c0.217,0,0.411-0.143,0.477-0.351c0.026-0.083,0.28-0.799,1.141-0.799
		c0.011,0,0.019,0.001,0.034,0c0.272,0,0.495-0.218,0.5-0.492c0.005-0.276-0.216-0.504-0.492-0.508c-0.014,0-0.028,0-0.043,0
		c-0.842,0-1.406,0.412-1.742,0.844c-0.532-0.271-1.243-0.301-1.527-0.301C9.636,18.134,9.412,18.357,9.412,18.634z"/>
	<path fill="#414042" d="M6.328,16.53c0.49,0,1.085,0.133,1.172,0.247c0.061,0.214,0.256,0.362,0.478,0.363c0.001,0,0.002,0,0.003,0
		c0.222,0,0.417-0.146,0.479-0.358c0.01-0.033,0.245-0.795,1.137-0.795c0.011,0,0.02,0,0.034,0c0.272,0,0.495-0.218,0.5-0.492
		c0.005-0.276-0.216-0.504-0.492-0.508c-0.014,0-0.028,0-0.043,0c-0.841,0-1.404,0.411-1.74,0.844
		C7.323,15.56,6.612,15.53,6.328,15.53c-0.276,0-0.5,0.224-0.5,0.5S6.052,16.53,6.328,16.53z"/>
</g>
</svg>
