<?xml version="1.0" encoding="utf-8"?>
<!-- Generator: Adobe Illustrator 16.0.0, SVG Export Plug-In . SVG Version: 6.00 Build 0)  -->
<!DOCTYPE svg PUBLIC "-//W3C//DTD SVG 1.1//EN" "http://www.w3.org/Graphics/SVG/1.1/DTD/svg11.dtd">
<svg version="1.1" id="Layer_1" xmlns="http://www.w3.org/2000/svg" xmlns:xlink="http://www.w3.org/1999/xlink" x="0px" y="0px"
	 width="48px" height="48px" viewBox="0 0 48 48" enable-background="new 0 0 48 48" xml:space="preserve">
<g>
	<path fill="#414042" d="M40.924,32.513c-3.068,1.993-4.898,1.45-7.218,0.759c-0.724-0.215-1.472-0.438-2.288-0.596
		c-3.54-0.864-4.182-0.688-5.415-0.177c-0.647,0.27-1.453,0.605-3.246,0.855c-1.883,0.221-3.151-0.244-4.492-0.739
		c-1.319-0.486-2.686-0.994-4.668-0.873c-1.731,0.103-2.961,0.928-4.046,1.656c-1.511,1.014-2.817,1.891-5.282,0.906
		c-0.256-0.104-0.547,0.022-0.649,0.278s0.021,0.547,0.278,0.649c0.9,0.36,1.681,0.508,2.375,0.508c1.584,0,2.723-0.765,3.835-1.512
		c1.074-0.721,2.089-1.401,3.548-1.488c1.772-0.11,2.984,0.342,4.264,0.813c1.391,0.514,2.826,1.046,4.966,0.792
		c1.931-0.269,2.839-0.647,3.503-0.923c0.982-0.409,1.43-0.597,4.816,0.229c0.792,0.154,1.517,0.369,2.217,0.578
		c2.361,0.702,4.591,1.366,8.048-0.88c0.231-0.15,0.297-0.46,0.146-0.691C41.465,32.427,41.154,32.363,40.924,32.513z"/>
	<path fill="#414042" d="M35.797,23.502c-0.716-0.443-2.595-1.621-3.228-4.957c1.627-0.185,4.433-0.221,5.715,0.766
		c0.403,0.311,0.627,0.698,0.681,1.183c0.028,0.255,0.245,0.444,0.496,0.444c0.019,0,0.038-0.001,0.057-0.003
		c0.274-0.031,0.472-0.278,0.441-0.553c-0.085-0.758-0.443-1.385-1.065-1.864c-1.629-1.255-4.724-1.135-6.166-0.997
		c0.422-1.287,1.556-2.877,2.988-3.72c0.72-0.422,1.798-0.805,2.838-0.224c0.239,0.132,0.545,0.049,0.681-0.193
		c0.135-0.241,0.048-0.546-0.192-0.68c-1.152-0.643-2.477-0.562-3.833,0.235c-1.487,0.875-2.83,2.582-3.389,4.142
		c-1.979-2.615-5.463-4.088-9.219-3.797c-0.275,0.021-0.481,0.262-0.46,0.537c0.021,0.276,0.291,0.482,0.536,0.46
		c3.346-0.256,6.45,0.996,8.244,3.251c-3.646-0.345-6.932,0.525-9.329,2.521c-0.212,0.177-0.24,0.492-0.063,0.705
		s0.491,0.238,0.704,0.064c2.601-2.167,5.789-2.479,8.097-2.344c-1.146,0.73-2.627,1.94-3.037,3.494
		c-0.274,1.043-0.038,2.079,0.703,3.078c0.098,0.132,0.249,0.202,0.401,0.202c0.104,0,0.208-0.032,0.298-0.099
		c0.222-0.165,0.269-0.478,0.104-0.699c-0.559-0.753-0.734-1.481-0.539-2.225c0.416-1.584,2.386-2.82,3.355-3.344
		c0.74,3.654,2.849,4.968,3.727,5.511c0.086,0.049,8.558,5.013,8.558,9.335c0,0.276,0.224,0.5,0.5,0.5s0.5-0.224,0.5-0.5
		C44.899,28.84,36.214,23.746,35.797,23.502z"/>
	<path fill="#414042" d="M3.936,30.44c0.06-0.054,6.002-5.324,9.939-6.344c0.877,0.194,6.935,1.634,11.702,5.339
		c0.156,0.122,0.368,0.14,0.543,0.046l7.271-3.897c0.243-0.131,0.335-0.434,0.204-0.677c-0.13-0.244-0.434-0.333-0.677-0.205
		l-6.987,3.745c-5.264-3.973-11.691-5.299-11.967-5.354c-0.07-0.014-0.146-0.013-0.216,0.004c-4.18,1.008-10.224,6.37-10.479,6.597
		c-0.206,0.184-0.224,0.5-0.04,0.706c0.099,0.11,0.235,0.167,0.373,0.167C3.721,30.567,3.84,30.525,3.936,30.44z"/>
</g>
</svg>
