<?xml version="1.0" encoding="utf-8"?>
<!-- Generator: Adobe Illustrator 16.0.0, SVG Export Plug-In . SVG Version: 6.00 Build 0)  -->
<!DOCTYPE svg PUBLIC "-//W3C//DTD SVG 1.1//EN" "http://www.w3.org/Graphics/SVG/1.1/DTD/svg11.dtd">
<svg version="1.1" id="Layer_1" xmlns="http://www.w3.org/2000/svg" xmlns:xlink="http://www.w3.org/1999/xlink" x="0px" y="0px"
	 width="48px" height="48px" viewBox="0 0 48 48" enable-background="new 0 0 48 48" xml:space="preserve">
<g>
	<path fill="#414042" d="M40.687,32.514c-3.068,1.992-4.897,1.45-7.215,0.761c-0.726-0.216-1.475-0.438-2.293-0.597
		c-3.539-0.864-4.181-0.69-5.413-0.178c-0.647,0.27-1.454,0.604-3.248,0.854c-1.891,0.219-3.154-0.244-4.494-0.737
		c-1.318-0.487-2.681-0.991-4.667-0.873c-1.73,0.102-2.961,0.927-4.046,1.655c-1.512,1.016-2.819,1.889-5.283,0.905
		c-0.256-0.104-0.547,0.022-0.649,0.278s0.021,0.547,0.278,0.649c0.901,0.361,1.682,0.508,2.377,0.508
		c1.583,0,2.723-0.764,3.835-1.511c1.074-0.721,2.088-1.401,3.547-1.487c1.777-0.112,2.984,0.342,4.263,0.813
		c1.393,0.514,2.835,1.045,4.967,0.79c1.933-0.269,2.842-0.646,3.505-0.923c0.982-0.408,1.432-0.595,4.815,0.231
		c0.794,0.154,1.52,0.37,2.222,0.578c2.361,0.703,4.59,1.364,8.045-0.881c0.231-0.15,0.297-0.46,0.146-0.691
		C41.228,32.428,40.916,32.363,40.687,32.514z"/>
	<path fill="#414042" d="M35.561,23.503c-0.717-0.443-2.597-1.619-3.23-4.958c1.14-0.124,4.269-0.343,5.712,0.763
		c0.407,0.312,0.631,0.699,0.686,1.186c0.029,0.255,0.245,0.444,0.496,0.444c0.019,0,0.038-0.001,0.057-0.003
		c0.274-0.031,0.472-0.278,0.441-0.553c-0.086-0.761-0.446-1.389-1.071-1.868c-1.648-1.262-4.725-1.136-6.162-0.994
		c0.423-1.289,1.56-2.879,2.993-3.721c0.718-0.422,1.794-0.804,2.834-0.222c0.239,0.132,0.545,0.049,0.681-0.193
		c0.135-0.241,0.048-0.545-0.192-0.68c-1.154-0.643-2.475-0.562-3.829,0.233c-1.488,0.874-2.832,2.58-3.393,4.141
		c-1.978-2.609-5.453-4.077-9.22-3.793c-0.275,0.021-0.481,0.261-0.46,0.537c0.021,0.276,0.274,0.479,0.536,0.46
		c3.359-0.251,6.456,0.999,8.247,3.252c-3.65-0.348-6.935,0.522-9.332,2.52c-0.212,0.177-0.24,0.492-0.063,0.705
		c0.176,0.212,0.491,0.238,0.704,0.064c2.603-2.169,5.803-2.485,8.098-2.343c-1.146,0.73-2.628,1.939-3.038,3.493
		c-0.275,1.043-0.039,2.079,0.702,3.078c0.098,0.133,0.249,0.202,0.401,0.202c0.104,0,0.208-0.032,0.298-0.099
		c0.222-0.164,0.269-0.478,0.104-0.699c-0.559-0.753-0.734-1.481-0.538-2.225c0.417-1.584,2.386-2.819,3.354-3.342
		c0.743,3.656,2.853,4.968,3.729,5.509c0.086,0.049,8.558,5.015,8.558,9.335c0,0.276,0.224,0.5,0.5,0.5s0.5-0.224,0.5-0.5
		C44.661,28.842,35.976,23.746,35.561,23.503z"/>
	<path fill="#414042" d="M12.7,21.839c1.438,0,2.608-1.17,2.608-2.607s-1.17-2.607-2.608-2.607s-2.608,1.17-2.608,2.607
		S11.262,21.839,12.7,21.839z M12.7,17.624c0.887,0,1.608,0.721,1.608,1.607s-0.722,1.607-1.608,1.607s-1.608-0.721-1.608-1.607
		S11.813,17.624,12.7,17.624z"/>
	<path fill="#414042" d="M12.2,23.44v2.043c0,0.276,0.224,0.5,0.5,0.5s0.5-0.224,0.5-0.5V23.44c0-0.276-0.224-0.5-0.5-0.5
		S12.2,23.164,12.2,23.44z"/>
	<path fill="#414042" d="M15.207,21.91c-0.195,0.194-0.197,0.511-0.002,0.707l0.72,0.727c0.099,0.099,0.227,0.148,0.355,0.148
		c0.127,0,0.255-0.048,0.353-0.145c0.195-0.194,0.197-0.511,0.002-0.707l-0.72-0.727C15.72,21.717,15.404,21.715,15.207,21.91z"/>
	<path fill="#414042" d="M16.408,19.231c0,0.276,0.224,0.5,0.5,0.5h2.044c0.276,0,0.5-0.224,0.5-0.5s-0.224-0.5-0.5-0.5h-2.044
		C16.632,18.731,16.408,18.955,16.408,19.231z"/>
	<path fill="#414042" d="M15.734,16.872c0.128,0,0.255-0.048,0.353-0.146l0.725-0.721c0.196-0.195,0.196-0.511,0.002-0.707
		c-0.195-0.196-0.512-0.196-0.707-0.002l-0.725,0.721c-0.196,0.195-0.196,0.511-0.002,0.707
		C15.478,16.823,15.606,16.872,15.734,16.872z"/>
	<path fill="#414042" d="M12.7,15.522c0.276,0,0.5-0.224,0.5-0.5v-2.043c0-0.276-0.224-0.5-0.5-0.5s-0.5,0.224-0.5,0.5v2.043
		C12.2,15.299,12.424,15.522,12.7,15.522z"/>
	<path fill="#414042" d="M9.486,16.551c0.098,0.098,0.226,0.147,0.354,0.147c0.128,0,0.255-0.048,0.353-0.146
		c0.196-0.195,0.196-0.511,0.002-0.707l-0.721-0.725c-0.195-0.196-0.511-0.197-0.707-0.002c-0.196,0.195-0.196,0.511-0.002,0.707
		L9.486,16.551z"/>
	<path fill="#414042" d="M6.448,19.731h2.044c0.276,0,0.5-0.224,0.5-0.5s-0.224-0.5-0.5-0.5H6.448c-0.276,0-0.5,0.224-0.5,0.5
		S6.172,19.731,6.448,19.731z"/>
	<path fill="#414042" d="M9.313,21.736l-0.725,0.721c-0.196,0.195-0.196,0.511-0.002,0.707c0.098,0.098,0.227,0.147,0.354,0.147
		s0.255-0.048,0.353-0.146l0.725-0.721c0.196-0.195,0.196-0.511,0.002-0.707C9.825,21.542,9.509,21.542,9.313,21.736z"/>
</g>
</svg>
