<?xml version="1.0" encoding="utf-8"?>
<!-- Generator: Adobe Illustrator 16.0.0, SVG Export Plug-In . SVG Version: 6.00 Build 0)  -->
<!DOCTYPE svg PUBLIC "-//W3C//DTD SVG 1.1//EN" "http://www.w3.org/Graphics/SVG/1.1/DTD/svg11.dtd">
<svg version="1.1" id="Layer_1" xmlns="http://www.w3.org/2000/svg" xmlns:xlink="http://www.w3.org/1999/xlink" x="0px" y="0px"
	 width="48px" height="48px" viewBox="0 0 48 48" enable-background="new 0 0 48 48" xml:space="preserve">
<path fill="#414042" d="M46.282,32.44c-0.414-0.057-0.792-0.114-1.149-0.174c-0.48-4.929-8.979-9.711-9.394-9.944
	c-0.747-0.463-2.71-1.693-3.364-5.182c1.164-0.127,4.455-0.365,5.968,0.794c0.428,0.327,0.663,0.735,0.721,1.246
	c0.029,0.255,0.245,0.444,0.496,0.444c0.02,0,0.038-0.001,0.057-0.003c0.274-0.031,0.472-0.279,0.441-0.553
	c-0.089-0.785-0.461-1.433-1.106-1.928c-1.715-1.313-4.936-1.172-6.414-1.025c0.434-1.349,1.623-3.022,3.126-3.904
	c0.75-0.44,1.875-0.837,2.96-0.229c0.238,0.132,0.546,0.049,0.681-0.193c0.135-0.241,0.049-0.545-0.192-0.68
	c-1.189-0.663-2.557-0.58-3.954,0.24c-1.557,0.913-2.957,2.703-3.528,4.331c-2.048-2.729-5.665-4.269-9.581-3.965
	c-0.275,0.021-0.481,0.262-0.46,0.537c0.021,0.276,0.282,0.481,0.536,0.46c3.505-0.269,6.742,1.049,8.604,3.417
	c-3.805-0.371-7.225,0.532-9.716,2.612c-0.212,0.177-0.24,0.492-0.063,0.704c0.177,0.212,0.491,0.239,0.704,0.063
	c2.728-2.276,6.083-2.594,8.481-2.437c-1.193,0.753-2.766,2.018-3.196,3.648c-0.285,1.078-0.041,2.148,0.726,3.182
	c0.098,0.132,0.249,0.202,0.401,0.202c0.104,0,0.208-0.032,0.298-0.098c0.222-0.165,0.269-0.478,0.104-0.7
	c-0.583-0.788-0.768-1.549-0.563-2.329c0.439-1.666,2.517-2.958,3.518-3.496c0.763,3.804,2.953,5.172,3.875,5.743
	c0.085,0.047,8.08,4.538,8.81,8.855c-0.729-0.145-1.408-0.301-2.17-0.478c-1.266-0.294-2.841-0.659-5.301-1.107
	c-5.586-1.018-12.405,1.171-14.565,2.101l-1.511,0.658c-0.369-0.16-0.717-0.309-1.075-0.46c0.831-9.293-2.696-16.163-2.856-16.467
	c-0.173-0.331-0.748-0.33-0.919,0.002c-0.155,0.3-3.497,6.907-2.844,15.912c-0.055,0.002-0.117-0.003-0.169,0
	c-3.23,0.189-5.875,1.191-8.675,2.252c-0.778,0.295-1.572,0.596-2.398,0.887c-0.261,0.092-0.397,0.377-0.306,0.638
	c0.072,0.206,0.266,0.334,0.472,0.334c0.055,0,0.111-0.009,0.166-0.028c0.834-0.294,1.636-0.598,2.421-0.895
	c2.726-1.033,5.301-2.009,8.382-2.189c0.062-0.004,0.131,0.001,0.195,0c0.05,0.481,0.101,0.963,0.176,1.456l0.21,1.397
	c-0.871,0.21-1.722,0.33-2.306,0.204c-0.271-0.053-0.536,0.114-0.595,0.384c-0.058,0.271,0.114,0.536,0.384,0.595
	c0.231,0.049,0.486,0.071,0.756,0.071c2.107,0,5.166-1.34,5.309-1.403l5.581-2.43c2.082-0.895,8.654-3.007,13.989-2.033
	c2.437,0.443,3.934,0.791,5.255,1.098c1.465,0.34,2.623,0.607,4.437,0.854c0.277,0.049,0.526-0.153,0.563-0.428
	C46.747,32.729,46.556,32.478,46.282,32.44z M16.691,34.938v-8.646c0-0.276-0.224-0.5-0.5-0.5s-0.5,0.224-0.5,0.5v8.845
	c0,0.07,0.015,0.137,0.041,0.197c-0.413,0.159-0.899,0.33-1.423,0.491l-0.193-1.279c-1.196-7.902,1.07-14.449,2.056-16.812
	c0.985,2.329,3.231,8.735,2.142,16.499L16.691,34.938z"/>
</svg>
