<?xml version="1.0" encoding="utf-8"?>
<!-- Generator: Adobe Illustrator 16.0.0, SVG Export Plug-In . SVG Version: 6.00 Build 0)  -->
<!DOCTYPE svg PUBLIC "-//W3C//DTD SVG 1.1//EN" "http://www.w3.org/Graphics/SVG/1.1/DTD/svg11.dtd">
<svg version="1.1" id="Layer_1" xmlns="http://www.w3.org/2000/svg" xmlns:xlink="http://www.w3.org/1999/xlink" x="0px" y="0px"
	 width="48px" height="48px" viewBox="0 0 48 48" enable-background="new 0 0 48 48" xml:space="preserve">
<path fill="#414042" d="M30.249,31.236c4.396-5.771,5.464-10.622,5.705-13.049c0.011-0.041,0.025-0.081,0.025-0.126
	c0-7.078-5.384-12.836-12.002-12.836c-6.592,0-11.955,5.756-11.955,12.832c0,0.008,0.004,0.015,0.004,0.022
	c0,0.009-0.003,0.016-0.002,0.025c0.229,2.402,1.276,7.302,5.717,13.135c0.015,0.02,1.529,1.976,2.132,3.236l1.332,3.332H21.01
	c-0.143,0-0.278,0.061-0.373,0.167s-0.14,0.248-0.124,0.39l0.452,3.983c0.029,0.253,0.243,0.443,0.497,0.443h5.162
	c0.253,0,0.466-0.188,0.496-0.438l0.491-3.983c0.018-0.143-0.026-0.285-0.121-0.393c-0.096-0.107-0.231-0.169-0.375-0.169h-0.236
	l1.227-3.308C28.699,33.244,30.23,31.26,30.249,31.236z M34.976,17.985c-0.001,0.01-0.008,0.019-0.009,0.029
	c-0.217,2.293-1.221,6.982-5.51,12.613c-0.064,0.083-1.476,1.912-2.162,3.263c-0.366,0.188-0.733,0.169-1.004,0.102
	c0.349-0.744,1.064-2.198,1.551-3.176c3.376-7.886,4.041-14.397,1.979-19.355c-1.048-2.518-2.59-4.095-3.803-5.022
	C31.089,7.466,34.941,12.244,34.976,17.985z M22.612,33.888c-0.492-1.225-1.553-3.392-1.59-3.466
	c-3.258-7.613-3.926-13.854-1.984-18.55c1.268-3.065,3.364-4.632,4.44-5.271v27.341C23.141,34.045,22.799,33.957,22.612,33.888z
	 M24.478,6.604c1.073,0.635,3.148,2.187,4.419,5.241c1.956,4.699,1.291,10.949-1.962,18.551c-0.15,0.3-1.353,2.716-1.7,3.502
	c-0.28,0.117-0.561,0.088-0.757,0.033V6.604z M13.023,18.037c0.009-5.756,3.845-10.555,8.9-11.595
	c-1.212,0.929-2.751,2.504-3.798,5.02c-2.063,4.957-1.398,11.469,1.986,19.378c0.011,0.021,0.936,1.907,1.455,3.135
	c-0.515,0.141-0.771,0.024-0.839-0.019c-0.671-1.353-2.134-3.246-2.195-3.324C14.263,25.02,13.247,20.341,13.023,18.037z
	 M26.182,41.792h-4.273l-0.339-2.983h4.98L26.182,41.792z M22.282,37.809l-1.105-2.765c0.292-0.007,0.639-0.072,1.046-0.233
	c0.354,0.135,1.059,0.319,1.765,0.01c0.347,0.131,0.985,0.283,1.64,0.002c0.265,0.11,0.697,0.248,1.213,0.217l-1.027,2.77H22.282z"
	/>
</svg>
