<?xml version="1.0" encoding="utf-8"?>
<!-- Generator: Adobe Illustrator 16.0.0, SVG Export Plug-In . SVG Version: 6.00 Build 0)  -->
<!DOCTYPE svg PUBLIC "-//W3C//DTD SVG 1.1//EN" "http://www.w3.org/Graphics/SVG/1.1/DTD/svg11.dtd">
<svg version="1.1" id="Layer_1" xmlns="http://www.w3.org/2000/svg" xmlns:xlink="http://www.w3.org/1999/xlink" x="0px" y="0px"
	 width="48px" height="48px" viewBox="0 0 48 48" enable-background="new 0 0 48 48" xml:space="preserve">
<path fill="#414042" d="M27.773,33.854c0.035-0.022,0.067-0.049,0.096-0.078l9.954-10.41c7.468-4.386,6.075-11.079,6.034-11.229
	c-0.02-0.047-2.007-4.66-7.189-3.882c-0.804-0.801-3.937-3.565-7.565-1.999c-0.604-0.543-2.21-1.701-4.947-1.767
	c-0.018-0.002-0.035-0.003-0.053-0.003c-0.01,0-0.016,0-0.023,0h-0.155c-0.004,0-0.008,0-0.012,0c-0.02,0-0.043,0.001-0.064,0.003
	c-2.737,0.065-4.341,1.223-4.945,1.767c-3.629-1.563-6.765,1.197-7.568,1.999C6.14,7.475,4.165,12.091,4.119,12.22
	c-0.015,0.067-1.408,6.76,6.06,11.146l9.812,10.388c0.031,0.038,0.188,0.186,0.453,0.303c0.107,0.28,0.369,1.244-0.088,3.192
	c-0.006,0.004-0.014,0.005-0.02,0.01c-0.002,0.002-0.003,0.004-0.005,0.006c-0.792,0.466-1.337,1.361-1.337,2.4v1.119
	c0,1.163,0.677,2.153,1.626,2.553c0.006,0.003,0.01,0.009,0.017,0.012c0.015,0.006,0.029,0.004,0.044,0.009
	c0.271,0.105,0.558,0.173,0.862,0.173h5.115c0.287,0,0.559-0.063,0.816-0.157c0.04-0.006,0.081-0.008,0.12-0.024
	c0.018-0.008,0.03-0.022,0.047-0.031c0.919-0.415,1.566-1.394,1.566-2.533v-1.119c0-1.011-0.515-1.886-1.271-2.362
	c-0.014-0.014-0.021-0.031-0.036-0.044c-0.02-0.017-0.044-0.021-0.065-0.034c-0.206-0.605-0.614-2.282-0.223-3.287
	C27.667,33.909,27.72,33.888,27.773,33.854z M42.907,12.438c0.014,0.061,1.261,6.042-5.58,10.064
	c-0.423,0.061-2.659,0.265-4.556-1.767c4.397-5.105,4.408-9.947,4.269-11.508C41.28,8.728,42.865,12.357,42.907,12.438z
	 M36.011,9.009c0.105,0.83,0.532,5.99-4.199,11.314c-0.454,0.134-2.23,0.48-4.084-1.332c2.102-7.387,1.988-10.71,1.83-11.827
	C32.745,5.836,35.462,8.431,36.011,9.009z M24.001,5.488c2.737,0.026,4.177,1.254,4.531,1.604c0.104,0.496,0.544,3.534-1.785,11.695
	c-0.384,0.144-1.311,0.423-2.717,0.423c-0.02,0.001-0.039,0-0.059,0c-1.418,0-2.348-0.285-2.723-0.427
	c-2.317-8.119-1.894-11.167-1.788-11.68C19.785,6.777,21.217,5.514,24.001,5.488z M18.439,7.161
	C18.28,8.275,18.166,11.6,20.27,18.998c-1.873,1.825-3.647,1.456-4.086,1.323c-4.718-5.31-4.306-10.455-4.199-11.304
	C12.519,8.453,15.242,5.839,18.439,7.161z M5.068,12.522c0.067-0.162,1.663-3.792,5.888-3.297c-0.14,1.561-0.13,6.405,4.273,11.514
	c-1.9,2.039-4.117,1.83-4.554,1.764C3.86,18.498,5.042,12.684,5.068,12.522z M11.703,23.524c1.144-0.083,2.851-0.526,4.354-2.203
	c0.802,0.196,2.834,0.415,4.894-1.582c0.501,0.183,1.521,0.512,3.05,0.469c1.501,0.011,2.55-0.286,3.053-0.469
	c2.06,2,4.092,1.781,4.893,1.582c1.503,1.673,3.202,2.116,4.345,2.2l-9.098,9.515c-0.677,0.386-1.385-0.018-1.412-0.034
	c-0.158-0.096-0.356-0.096-0.515,0c-0.515,0.308-1.087,0.004-1.106-0.006c-0.16-0.091-0.355-0.087-0.512,0.01
	c-0.527,0.329-1.188-0.013-1.191-0.014c-0.139-0.075-0.304-0.082-0.448-0.017c-0.924,0.42-1.26,0.126-1.274,0.111L11.703,23.524z
	 M19.994,39.665c0-0.511,0.199-0.967,0.51-1.286c0.3,0.619,0.691,1.905,0.074,3.76c-0.354-0.32-0.584-0.805-0.584-1.354V39.665z
	 M21.544,42.53c-0.015,0-0.029-0.005-0.044-0.005c0.753-2.2,0.289-3.784-0.102-4.59c0.049-0.005,0.096-0.017,0.146-0.017h5.115
	c0.06,0,0.116,0.013,0.175,0.02c-0.391,0.807-0.853,2.388-0.102,4.583c-0.025,0.002-0.049,0.009-0.073,0.009H21.544z M28.209,40.784
	c0,0.537-0.221,1.012-0.561,1.333c-0.6-1.824-0.227-3.096,0.071-3.719c0.3,0.318,0.489,0.767,0.489,1.267V40.784z M26.708,36.919
	h-0.049h-5.115h-0.095c0.248-1.319,0.18-2.2,0.06-2.755c0.213-0.032,0.442-0.085,0.705-0.188c0.351,0.134,1.037,0.311,1.718,0.009
	c0.341,0.126,0.959,0.272,1.599,0.003c0.225,0.093,0.575,0.202,0.985,0.211C26.353,35.161,26.54,36.242,26.708,36.919z"/>
</svg>
