<?xml version="1.0" encoding="utf-8"?>
<!-- Generator: Adobe Illustrator 16.0.0, SVG Export Plug-In . SVG Version: 6.00 Build 0)  -->
<!DOCTYPE svg PUBLIC "-//W3C//DTD SVG 1.1//EN" "http://www.w3.org/Graphics/SVG/1.1/DTD/svg11.dtd">
<svg version="1.1" id="Layer_1" xmlns="http://www.w3.org/2000/svg" xmlns:xlink="http://www.w3.org/1999/xlink" x="0px" y="0px"
	 width="48px" height="48px" viewBox="0 0 48 48" enable-background="new 0 0 48 48" xml:space="preserve">
<path fill="#414042" d="M29.983,15.681h-2.131V5.352c0.274-0.032,0.538-0.133,0.727-0.302c0.21-0.134,0.455-0.419,0.452-0.78
	c-0.002-0.234-0.107-0.577-0.601-0.878c-0.078-0.048-0.169-0.074-0.261-0.074h-8.271c-0.128,0-0.252,0.049-0.345,0.138
	c-0.069,0.066-0.413,0.419-0.385,0.899c0.013,0.203,0.097,0.497,0.372,0.693c0.071,0.072,0.301,0.213,0.699,0.225v10.408h-2.223
	c-1.885,0-3.418,1.533-3.418,3.418v20.365c0,1.37,0.815,2.546,1.981,3.091c-0.15,0.086-0.255,0.241-0.255,0.427V44.2
	c0,0.276,0.224,0.5,0.5,0.5s0.5-0.224,0.5-0.5v-1.219c0-0.064-0.015-0.125-0.037-0.182c0.235,0.051,0.479,0.082,0.729,0.082h11.965
	c0.251,0,0.493-0.031,0.729-0.082c-0.022,0.057-0.037,0.117-0.037,0.182V44.2c0,0.276,0.224,0.5,0.5,0.5s0.5-0.224,0.5-0.5v-1.219
	c0-0.186-0.105-0.341-0.256-0.427c1.166-0.545,1.981-1.721,1.981-3.091V19.099C33.401,17.214,31.868,15.681,29.983,15.681z
	 M26.178,4.317c-0.053,0.036-0.082,0.063-0.081,0.064c-0.076,0.052-0.293,0.016-0.393-0.019c-0.021-0.016-0.042-0.031-0.063-0.046
	H26.178z M22.443,4.317C22.39,4.354,22.36,4.38,22.36,4.382c-0.122,0.084-0.301,0.011-0.389-0.019
	c-0.021-0.016-0.042-0.032-0.063-0.046H22.443z M21.241,5.116c0.074,0.005,0.107,0.029,0.119,0.04
	c0.039,0.037,0.083,0.068,0.132,0.091c0.035,0.017,0.357,0.165,0.736,0.165c0.263,0,0.496-0.068,0.753-0.25
	c0.001-0.001,0.082-0.06,0.153-0.06c0.021,0,0.056,0.005,0.12,0.053c0.047,0.034,0.305,0.206,0.708,0.206
	c0.271,0,0.546-0.077,0.771-0.205c0.029-0.012,0.125-0.044,0.22-0.044s0.126,0.031,0.14,0.043c0.039,0.037,0.083,0.068,0.132,0.091
	c0.036,0.017,0.357,0.165,0.737,0.165c0.263,0,0.497-0.068,0.757-0.251c0,0,0.068-0.045,0.134-0.053v10.573h-5.611V5.116z
	 M18.058,40.251V25.507c0-0.889,0.723-1.611,1.611-1.611h8.662c0.889,0,1.612,0.723,1.612,1.611v14.744
	c0,0.89-0.724,1.613-1.612,1.613h-8.662C18.78,41.864,18.058,41.141,18.058,40.251z M32.401,39.464c0,1.194-0.872,2.183-2.012,2.377
	c0.342-0.442,0.554-0.989,0.554-1.59V25.507c0-1.44-1.172-2.611-2.612-2.611h-8.662c-1.439,0-2.611,1.171-2.611,2.611v14.744
	c0,0.601,0.212,1.147,0.554,1.59c-1.139-0.195-2.011-1.184-2.011-2.377V19.099c0-1.333,1.085-2.418,2.418-2.418h9.188
	c0.047,0.015,0.094,0.029,0.146,0.029s0.099-0.015,0.146-0.029h2.485c1.333,0,2.418,1.084,2.418,2.418V39.464z"/>
</svg>
