<?xml version="1.0" encoding="utf-8"?>
<!-- Generator: Adobe Illustrator 16.0.0, SVG Export Plug-In . SVG Version: 6.00 Build 0)  -->
<!DOCTYPE svg PUBLIC "-//W3C//DTD SVG 1.1//EN" "http://www.w3.org/Graphics/SVG/1.1/DTD/svg11.dtd">
<svg version="1.1" id="Layer_1" xmlns="http://www.w3.org/2000/svg" xmlns:xlink="http://www.w3.org/1999/xlink" x="0px" y="0px"
	 width="48px" height="48px" viewBox="0 0 48 48" enable-background="new 0 0 48 48" xml:space="preserve">
<path fill="#414042" d="M36.193,36.509l-2.585-13.232c-0.15-0.744-0.581-1.384-1.214-1.802c-0.632-0.419-1.387-0.567-2.123-0.416
	L29.516,21.2l-0.19-0.936c-0.403-1.974-2.338-3.25-4.305-2.851l-5.039,1.021L17.154,4.879c-0.056-0.268-0.312-0.441-0.587-0.388
	l-4.412,0.875c-0.271,0.054-0.446,0.316-0.393,0.587c0.053,0.271,0.315,0.45,0.588,0.393l3.926-0.778l7.075,33.917
	c-0.723,0.341-1.227,1.071-1.227,1.922c0,1.174,0.954,2.129,2.128,2.129s2.129-0.955,2.129-2.129c0-0.005-0.001-0.01-0.002-0.015
	l3.07-0.627c0.016-0.002,0.031-0.002,0.046-0.005l4.481-0.91c0.742-0.15,1.381-0.58,1.8-1.212S36.343,37.248,36.193,36.509z
	 M24.252,42.536c-0.622,0-1.128-0.507-1.128-1.129s0.506-1.129,1.128-1.129s1.129,0.507,1.129,1.129S24.874,42.536,24.252,42.536z
	 M24.331,39.286l-4.145-19.872l5.034-1.021c1.44-0.292,2.833,0.638,3.125,2.071l0.286,1.407c0,0.001,0,0.002,0,0.003
	s0.001,0.002,0.001,0.003l3.521,17.314l-6.025,1.231C25.783,39.769,25.113,39.315,24.331,39.286z M34.942,38.086
	c-0.271,0.409-0.684,0.688-1.164,0.784l-0.644,0.131l-3.42-16.821l0.748-0.14c0.479-0.096,0.972-0.002,1.38,0.269
	c0.409,0.271,0.688,0.686,0.784,1.164l2.585,13.232C35.31,37.186,35.214,37.677,34.942,38.086z"/>
</svg>
