<?xml version="1.0" encoding="utf-8"?>
<!-- Generator: Adobe Illustrator 16.0.0, SVG Export Plug-In . SVG Version: 6.00 Build 0)  -->
<!DOCTYPE svg PUBLIC "-//W3C//DTD SVG 1.1//EN" "http://www.w3.org/Graphics/SVG/1.1/DTD/svg11.dtd">
<svg version="1.1" id="Layer_1" xmlns="http://www.w3.org/2000/svg" xmlns:xlink="http://www.w3.org/1999/xlink" x="0px" y="0px"
	 width="48px" height="48px" viewBox="0 0 48 48" enable-background="new 0 0 48 48" xml:space="preserve">
<path fill="#414042" d="M33.643,8.703c-1.701-1.037-3.26-1.229-4.636-0.57c-3.481,1.667-4.379,8.264-4.42,8.586
	c-0.083,1.917-0.21,3.677-0.376,5.241c-0.621,1.093-0.939,2.215-1.093,3.219c0.158-1.182,0.192-2.807-0.32-4.49
	c0.028-0.056,0.047-0.117,0.053-0.183c0.13-1.598,0.34-3.389,0.628-5.364c0.017-0.282,0.374-6.928-2.731-9.221
	c-1.228-0.906-2.795-1.011-4.66-0.313C9.495,8.08,7.52,14.687,10.526,24.213c0.023,0.075,0.079,0.126,0.129,0.179
	c0.016,0.661,0.122,1.324,0.357,1.978l0.457,0.766c-0.002,0.041-0.008,0.082,0.001,0.124c0.71,3.393,0.816,6.257,0.817,6.286
	c0.007,0.166,0.177,4.08,2.387,5.997c0.788,0.684,1.731,1.027,2.811,1.027c0.186,0,0.375-0.01,0.568-0.03
	c1.216-0.128,2.227-0.487,3.07-1.023c0.728,1.468,2.104,2.544,4.024,3.126c0.487,0.147,0.962,0.221,1.422,0.221
	c0.736,0,1.435-0.188,2.086-0.567c2.53-1.468,3.431-5.278,3.468-5.44c0.007-0.028,0.65-2.824,1.985-6.024
	c0.018-0.042,0.02-0.085,0.025-0.128l0.838-0.946c0.488-0.721,0.713-1.542,0.772-2.404c0.047-0.04,0.098-0.076,0.129-0.134
	C40.496,18.654,39.746,12.425,33.643,8.703z M29.438,9.034c1.049-0.503,2.289-0.328,3.683,0.522c5.351,3.263,6.171,8.487,2.51,15.94
	c-0.598-3.399-3.049-6.911-3.666-7.749l0.373-1.808c0.057-0.271-0.118-0.535-0.389-0.591c-0.264-0.053-0.535,0.118-0.59,0.389
	l-0.354,1.713c-2.403,0.509-4.295,1.502-5.647,2.959c0.094-1.138,0.171-2.342,0.225-3.604C25.591,16.742,26.441,10.469,29.438,9.034
	z M16.438,6.545c1.526-0.571,2.778-0.511,3.714,0.18c2.671,1.97,2.332,8.293,2.332,8.314c-0.197,1.346-0.357,2.619-0.481,3.814
	c-0.939-1.626-2.548-3.172-5.21-4.295l-0.024-1.61c-0.004-0.274-0.228-0.493-0.5-0.493c-0.002,0-0.005,0-0.008,0
	c-0.275,0.004-0.496,0.231-0.492,0.507l0.025,1.695c-0.734,0.701-3.835,3.829-4.832,7.429C9.421,16.101,9.446,9.166,16.438,6.545z
	 M17.948,39.546c-1.048,0.106-1.901-0.138-2.616-0.757c-1.882-1.63-2.043-5.244-2.044-5.279c-0.004-0.104-0.086-2.32-0.6-5.217
	c0.016-0.008,0.033-0.005,0.048-0.014c0.236-0.142,0.314-0.449,0.173-0.686l-0.996-1.648c-1.503-4.193,3.244-9.248,4.438-10.431
	c0.034-0.004,0.067-0.012,0.099-0.022c3.728,1.585,5.165,4.045,5.623,6.256c-0.051,0.067-0.092,0.142-0.104,0.231
	c-0.224,1.628-0.366,3.005-0.225,4.883c0,0.008,0.001,0.015,0.001,0.022c0.097,1.273,0.322,2.775,0.745,4.749
	c0.531,2.483,0.275,4.604-0.718,5.975C20.972,38.711,19.686,39.362,17.948,39.546z M34.184,29.145l-1.345,1.512
	c-0.167,0.188-0.158,0.463,0,0.65c-1.13,2.896-1.666,5.221-1.69,5.325c-0.008,0.036-0.837,3.547-2.995,4.8
	c-0.819,0.475-1.709,0.557-2.717,0.254c-1.748-0.529-2.918-1.473-3.497-2.794c0.229-0.218,0.455-0.438,0.643-0.696
	c1.489-2.054,1.304-4.815,0.887-6.771c-0.404-1.887-0.623-3.316-0.722-4.518c0.076-0.24,0.253-0.861,0.369-1.717
	c-0.275,1.804-0.017,3.211,0.001,3.306c0.054,0.271,0.321,0.448,0.587,0.396c0.271-0.053,0.448-0.315,0.396-0.587
	c-0.007-0.034-0.651-3.487,1.29-6.351c1.21-1.785,3.169-2.974,5.827-3.535C32.161,19.733,36.364,25.922,34.184,29.145z"/>
</svg>
