<?xml version="1.0" encoding="utf-8"?>
<!-- Generator: Adobe Illustrator 16.0.0, SVG Export Plug-In . SVG Version: 6.00 Build 0)  -->
<!DOCTYPE svg PUBLIC "-//W3C//DTD SVG 1.1//EN" "http://www.w3.org/Graphics/SVG/1.1/DTD/svg11.dtd">
<svg version="1.1" id="Layer_1" xmlns="http://www.w3.org/2000/svg" xmlns:xlink="http://www.w3.org/1999/xlink" x="0px" y="0px"
	 width="48px" height="48px" viewBox="0 0 48 48" enable-background="new 0 0 48 48" xml:space="preserve">
<path fill="#414042" d="M44.434,35.805c0.11-0.253-0.005-0.548-0.258-0.658c-0.247-0.107-0.548,0.003-0.658,0.258l-0.002,0.005
	l-7.015-13.264c-0.044-0.118-0.126-0.222-0.246-0.28C30.03,18.84,24.729,10.879,24.676,10.799c-0.013-0.02-0.037-0.027-0.053-0.044
	c-0.021-0.024-0.034-0.058-0.06-0.077c-0.049-0.038-0.104-0.066-0.165-0.084c-0.061-0.017-0.125-0.023-0.189-0.017
	c-0.052,0.005-0.101,0.018-0.146,0.038c-0.008,0.003-0.013,0.011-0.021,0.015c-0.098,0.034-0.188,0.084-0.244,0.169
	c-0.053,0.08-5.352,8.039-11.578,11.067c-0.017,0.008-0.028,0.021-0.043,0.031c-0.024,0.015-0.046,0.03-0.067,0.048
	c-0.031,0.027-0.055,0.058-0.078,0.091c-0.009,0.013-0.021,0.021-0.029,0.035L4.5,35.438l-0.015-0.034
	c-0.11-0.253-0.404-0.365-0.658-0.258c-0.253,0.11-0.368,0.405-0.258,0.658l0.485,1.11c0.082,0.188,0.266,0.3,0.458,0.3
	c0.067,0,0.135-0.014,0.2-0.042c0.223-0.098,0.329-0.337,0.278-0.566l7.27-12.954c0.73,2.942,2.513,10.442,2.443,13.278
	c-0.003,0.135,0.048,0.266,0.143,0.362c0.094,0.096,0.223,0.15,0.357,0.15h8.191h0.017h9.855c0.135,0,0.264-0.055,0.357-0.15
	c0.095-0.097,0.146-0.227,0.143-0.361c-0.067-2.817,1.691-10.233,2.431-13.217l6.814,12.884c-0.056,0.231,0.051,0.476,0.276,0.574
	c0.064,0.028,0.133,0.042,0.2,0.042c0.192,0,0.376-0.111,0.458-0.3l0.089-0.203c0-0.001,0.001-0.002,0.001-0.003L44.434,35.805z
	 M25.766,36.443h-1.836l0.537-16.416L25.766,36.443z M25.264,17.434l2.992,10.274l1.837,6.938c-0.934-0.278-1.819-0.138-1.87-0.13
	c-0.1,0.017-0.191,0.063-0.265,0.134l-1.236,1.196L25.264,17.434z M13.023,22.582c4.817-2.492,8.917-7.535,10.684-9.925
	l-0.779,23.787H15.7C15.576,32.782,13.515,24.509,13.023,22.582z M32.771,36.443h-5.229l0.988-0.956
	c0.363-0.031,1.349-0.052,2.012,0.501c0.166,0.14,0.406,0.156,0.589,0.038c0.184-0.117,0.271-0.339,0.215-0.55L29.22,27.44
	l-3.912-13.424l-0.155-0.845c1.934,2.541,5.803,7.085,10.299,9.411C34.96,24.509,32.897,32.782,32.771,36.443z"/>
</svg>
