<?xml version="1.0" encoding="utf-8"?>
<!-- Generator: Adobe Illustrator 16.0.0, SVG Export Plug-In . SVG Version: 6.00 Build 0)  -->
<!DOCTYPE svg PUBLIC "-//W3C//DTD SVG 1.1//EN" "http://www.w3.org/Graphics/SVG/1.1/DTD/svg11.dtd">
<svg version="1.1" id="Layer_1" xmlns="http://www.w3.org/2000/svg" xmlns:xlink="http://www.w3.org/1999/xlink" x="0px" y="0px"
	 width="48px" height="48px" viewBox="0 0 48 48" enable-background="new 0 0 48 48" xml:space="preserve">
<path fill="#414042" d="M38.146,7.197c-0.928,0-1.782,0.301-2.486,0.802c-0.013,0.007-0.027,0.009-0.039,0.018
	c-0.023,0.017-0.036,0.041-0.056,0.061c-0.916,0.691-1.536,1.733-1.677,2.928H6.046c-0.199,0-0.38,0.119-0.459,0.302
	s-0.042,0.396,0.095,0.541L20.69,27.8v10.204h-3.137c-0.088,0-0.174,0.023-0.25,0.067c-0.078,0.045-0.765,0.462-0.825,1.205
	c-0.042,0.505,0.212,0.986,0.754,1.431c0.09,0.073,0.202,0.113,0.317,0.113h9.082c0.123,0,0.242-0.045,0.334-0.128
	c0.578-0.518,0.68-1.024,0.663-1.359c-0.036-0.729-0.629-1.184-0.696-1.232c-0.085-0.063-0.188-0.097-0.295-0.097h-3.133V27.8
	l12.083-12.845c0.739,0.549,1.624,0.863,2.558,0.863c2.377,0,4.312-1.935,4.312-4.313C42.457,9.13,40.522,7.197,38.146,7.197z
	 M40.751,9.488l-2.459,1.367l-1.65-2.279c0.453-0.234,0.96-0.378,1.504-0.378C39.208,8.197,40.145,8.708,40.751,9.488z
	 M35.825,9.153l1.341,1.853h-2.278C34.998,10.287,35.329,9.642,35.825,9.153z M36.988,12.006l-4.62,4.912H11.825l-4.622-4.912
	H36.988z M22.641,27.259c-0.087,0.093-0.136,0.216-0.136,0.343v10.902c0,0.276,0.224,0.5,0.5,0.5h3.438
	c0.081,0.089,0.181,0.229,0.188,0.383c0.006,0.153-0.091,0.308-0.204,0.434h-8.688c-0.18-0.174-0.272-0.334-0.264-0.461
	c0.01-0.133,0.134-0.27,0.236-0.355h3.479c0.276,0,0.5-0.224,0.5-0.5V27.602c0-0.127-0.049-0.25-0.136-0.343l-8.789-9.341h18.661
	L22.641,27.259z M36.273,14.227l1.816-1.931l1.556,2.147c-0.453,0.232-0.958,0.376-1.5,0.376
	C37.468,14.818,36.822,14.605,36.273,14.227z M40.462,13.867c-0.002-0.002-0.002-0.006-0.004-0.008l-1.582-2.184l2.364-1.314
	c0.134,0.358,0.217,0.741,0.217,1.146C41.457,12.431,41.074,13.266,40.462,13.867z"/>
</svg>
