<?xml version="1.0" encoding="utf-8"?>
<!-- Generator: Adobe Illustrator 16.0.0, SVG Export Plug-In . SVG Version: 6.00 Build 0)  -->
<!DOCTYPE svg PUBLIC "-//W3C//DTD SVG 1.1//EN" "http://www.w3.org/Graphics/SVG/1.1/DTD/svg11.dtd">
<svg version="1.1" id="Layer_1" xmlns="http://www.w3.org/2000/svg" xmlns:xlink="http://www.w3.org/1999/xlink" x="0px" y="0px"
	 width="48px" height="48px" viewBox="0 0 48 48" enable-background="new 0 0 48 48" xml:space="preserve">
<path fill="#414042" d="M24.503,7.938V5.309c0-0.276-0.224-0.5-0.5-0.5s-0.5,0.224-0.5,0.5v2.629
	C13.412,8.206,5.28,16.479,5.28,26.633c0,0.13,0.051,0.254,0.141,0.348l0.758,0.783c0.109,0.113,0.263,0.17,0.426,0.148
	c0.157-0.021,0.295-0.115,0.371-0.254c0.98-1.777,2.851-2.881,4.881-2.881c1.997,0,3.852,1.078,4.841,2.814
	c0.063,0.109,0.164,0.191,0.284,0.229l0.744,0.234c0.049,0.016,0.1,0.023,0.15,0.023c0.012,0,0.023,0,0.035-0.002l0.82-0.059
	c0.168-0.012,0.318-0.106,0.4-0.254c0.906-1.612,2.551-2.653,4.371-2.816v14.127c0,1.729-1.405,3.135-3.133,3.135
	c-1.729,0-3.137-1.406-3.137-3.135c0-0.276-0.224-0.5-0.5-0.5s-0.5,0.224-0.5,0.5c0,2.28,1.855,4.135,4.137,4.135
	c2.279,0,4.133-1.854,4.133-4.135V24.945c1.657,0.151,3.17,1.028,4.113,2.423c0.052,0.076,0.124,0.138,0.208,0.175l0.932,0.422
	c0.082,0.037,0.175,0.053,0.266,0.041l1.033-0.125c0.159-0.02,0.299-0.113,0.377-0.252c0.983-1.759,2.847-2.852,4.864-2.852
	c2.033,0,3.905,1.109,4.884,2.895c0.082,0.148,0.233,0.246,0.402,0.258c0.175,0.018,0.333-0.062,0.436-0.197l0.604-0.799
	c0.065-0.086,0.101-0.191,0.101-0.301C42.722,16.479,34.592,8.206,24.503,7.938z M11.856,23.777c-2.17,0-4.186,1.069-5.405,2.83
	l-0.17-0.176c0.102-9.127,7.143-16.612,16.083-17.437c-2.349,2.081-6.686,7.419-5.165,17.552
	C15.976,24.83,13.99,23.777,11.856,23.777z M23.997,23.914c-2.283,0-4.403,1.191-5.599,3.125l-0.11,0.008
	c-2.074-12.046,4.321-17.129,5.714-18.079c1.387,0.945,7.72,5.983,5.742,17.895l-0.383-0.173
	C28.13,24.949,26.135,23.914,23.997,23.914z M41.656,26.551c-1.223-1.727-3.215-2.773-5.36-2.773c-2.248,0-4.33,1.155-5.531,3.033
	c1.638-10.304-2.754-15.717-5.123-17.816c8.95,0.826,15.995,8.329,16.079,17.472L41.656,26.551z"/>
</svg>
