<?xml version="1.0" encoding="utf-8"?>
<!-- Generator: Adobe Illustrator 16.0.0, SVG Export Plug-In . SVG Version: 6.00 Build 0)  -->
<!DOCTYPE svg PUBLIC "-//W3C//DTD SVG 1.1//EN" "http://www.w3.org/Graphics/SVG/1.1/DTD/svg11.dtd">
<svg version="1.1" id="Layer_1" xmlns="http://www.w3.org/2000/svg" xmlns:xlink="http://www.w3.org/1999/xlink" x="0px" y="0px"
	 width="48px" height="48px" viewBox="0 0 48 48" enable-background="new 0 0 48 48" xml:space="preserve">
<path fill="#414042" d="M41.892,22.987c-0.123-0.136-3.1-3.286-11.387-2.299c-0.367-0.639-0.753-1.207-1.146-1.618
	c-0.038-0.058-0.977-1.42-3.435-1.738c-0.046-0.005-0.597-0.058-1.454-0.007c-0.046-0.142-0.147-0.265-0.3-0.319
	c-3.771-1.35-6.137,0.344-6.179,0.381c-2.162,1.18-2.549,2.784-2.542,2.784c0,0,0,0,0.001,0c-0.335,0.815-0.542,2.096-0.669,3.488
	c-0.075-0.03-0.155-0.048-0.24-0.036l-2.012,0.238c-1.123,0.154-6.764,1.039-7.503,3.252c-0.159,0.479-0.166,1.229,0.75,2.133
	c0.149,0.118,2.963,2.282,8.168,2.282c1.514,0,3.229-0.184,5.14-0.652c0.108-0.035,10.87-3.509,18.237-3.626
	c0.817,0.008,4.938,0.004,5.635-1.718C43.259,24.784,42.892,23.917,41.892,22.987z M6.438,28.499
	c-0.616-0.61-0.501-0.956-0.464-1.068c0.423-1.265,4.328-2.253,6.682-2.578l2.002-0.236c0.018-0.002,0.032-0.012,0.049-0.016
	c-0.166,2.544-0.106,5.181-0.084,5.909C9.331,30.689,6.442,28.499,6.438,28.499z M18.811,29.915
	c-1.139,0.279-2.197,0.439-3.188,0.526c-0.034-1.243-0.158-7.677,0.778-9.971c0.003-0.012,0.321-1.25,2.124-2.24
	c0.071-0.051,1.523-1.059,3.963-0.637c-0.683,0.145-1.434,0.354-2.229,0.664c-0.257,0.1-0.385,0.39-0.284,0.647
	s0.392,0.386,0.647,0.285c2.849-1.107,5.17-0.865,5.182-0.864c1.973,0.254,2.698,1.263,2.778,1.369
	c1.481,1.553,2.911,5.574,3.403,7.054C25.587,27.727,19.13,29.811,18.811,29.915z M42.029,25.156
	c-0.323,0.799-2.979,1.131-4.707,1.094c-1.37,0.021-2.84,0.153-4.332,0.353c-0.289-0.889-1.034-3.065-1.978-4.963
	c7.426-0.774,10.114,1.994,10.168,2.049C41.846,24.31,42.155,24.845,42.029,25.156z"/>
</svg>
