<?xml version="1.0" encoding="utf-8"?>
<!-- Generator: Adobe Illustrator 16.0.0, SVG Export Plug-In . SVG Version: 6.00 Build 0)  -->
<!DOCTYPE svg PUBLIC "-//W3C//DTD SVG 1.1//EN" "http://www.w3.org/Graphics/SVG/1.1/DTD/svg11.dtd">
<svg version="1.1" id="Layer_1" xmlns="http://www.w3.org/2000/svg" xmlns:xlink="http://www.w3.org/1999/xlink" x="0px" y="0px"
	 width="48px" height="48px" viewBox="0 0 48 48" enable-background="new 0 0 48 48" xml:space="preserve">
<g>
	<path fill="#414042" d="M19.886,37.03c-0.419,0-0.76,0.342-0.76,0.762s0.341,0.762,0.76,0.762c0.42,0,0.762-0.342,0.762-0.762
		S20.306,37.03,19.886,37.03z M19.647,37.792c0-0.132,0.106-0.238,0.238-0.238c0.133,0,0.24,0.106,0.24,0.238
		C20.127,38.055,19.647,38.057,19.647,37.792z"/>
	<path fill="#414042" d="M24.567,32.978c-0.42,0-0.762,0.342-0.762,0.762s0.342,0.762,0.762,0.762s0.761-0.342,0.761-0.762
		S24.987,32.978,24.567,32.978z M24.328,33.739c0-0.132,0.107-0.238,0.239-0.238s0.238,0.106,0.238,0.238
		C24.806,34.003,24.328,34.003,24.328,33.739z"/>
	<path fill="#414042" d="M20.886,30.072c-0.419,0-0.76,0.342-0.76,0.762s0.341,0.762,0.76,0.762c0.42,0,0.762-0.342,0.762-0.762
		S21.306,30.072,20.886,30.072z M20.647,30.834c0-0.132,0.106-0.238,0.238-0.238c0.133,0,0.24,0.106,0.24,0.238
		C21.126,31.097,20.648,31.099,20.647,30.834z"/>
	<path fill="#414042" d="M26.626,26.156c-0.42,0-0.762,0.342-0.762,0.762s0.342,0.762,0.762,0.762s0.761-0.342,0.761-0.762
		S27.046,26.156,26.626,26.156z M26.387,26.918c0-0.131,0.107-0.238,0.239-0.238s0.238,0.107,0.238,0.238
		C26.864,27.181,26.387,27.181,26.387,26.918z"/>
	<path fill="#414042" d="M20.387,24.054c0-0.42-0.341-0.762-0.761-0.762s-0.762,0.342-0.762,0.762s0.342,0.762,0.762,0.762
		S20.387,24.474,20.387,24.054z M19.387,24.054c0-0.131,0.107-0.238,0.239-0.238s0.238,0.107,0.238,0.238
		C19.864,24.316,19.387,24.316,19.387,24.054z"/>
	<path fill="#414042" d="M24.647,20.792c0-0.42-0.342-0.762-0.762-0.762c-0.419,0-0.76,0.342-0.76,0.762s0.341,0.762,0.76,0.762
		C24.306,21.554,24.647,21.212,24.647,20.792z M23.647,20.792c0-0.131,0.106-0.238,0.238-0.238c0.133,0,0.24,0.107,0.24,0.238
		C24.127,21.054,23.647,21.056,23.647,20.792z"/>
	<path fill="#414042" d="M32.118,11.941c-0.929,0-1.781,0.302-2.485,0.8c-0.013,0.008-0.027,0.009-0.04,0.018
		c-0.019,0.014-0.029,0.034-0.046,0.049c-0.877,0.655-1.486,1.632-1.664,2.769H17.571l-5.05-10.261
		c-0.122-0.248-0.421-0.349-0.669-0.228c-0.248,0.122-0.35,0.422-0.228,0.669l4.833,9.819H13.62c-0.143,0-0.278,0.061-0.373,0.167
		s-0.14,0.248-0.124,0.39l3,26.401c0.029,0.253,0.243,0.443,0.497,0.443h1.074h8.1h3.326c0.254,0,0.468-0.19,0.497-0.443
		l2.497-21.975c0.001,0,0.003,0,0.004,0c2.377,0,4.312-1.934,4.312-4.312C36.43,13.874,34.495,11.941,32.118,11.941z M34.723,14.231
		l-2.459,1.367l-1.65-2.281c0.453-0.233,0.96-0.376,1.505-0.376C33.181,12.941,34.117,13.453,34.723,14.231z M29.797,13.895
		l1.218,1.684h-2.128C29.021,14.924,29.341,14.343,29.797,13.895z M28.674,41.979h-2.88h-8.1h-0.628L14.18,16.578h17.381
		l-0.386,3.396c0,0.001-0.001,0.001-0.001,0.002s0,0.002,0,0.003L28.674,41.979z M32.453,17.579l1.165,1.607
		c-0.421,0.216-0.889,0.348-1.389,0.365L32.453,17.579z M34.435,18.61c-0.002-0.002-0.002-0.006-0.004-0.008l-1.582-2.184
		l2.364-1.314c0.134,0.358,0.217,0.742,0.217,1.146C35.43,17.174,35.047,18.009,34.435,18.61z"/>
</g>
</svg>
