<?xml version="1.0" encoding="utf-8"?>
<!-- Generator: Adobe Illustrator 16.0.0, SVG Export Plug-In . SVG Version: 6.00 Build 0)  -->
<!DOCTYPE svg PUBLIC "-//W3C//DTD SVG 1.1//EN" "http://www.w3.org/Graphics/SVG/1.1/DTD/svg11.dtd">
<svg version="1.1" id="Layer_1" xmlns="http://www.w3.org/2000/svg" xmlns:xlink="http://www.w3.org/1999/xlink" x="0px" y="0px"
	 width="48px" height="48px" viewBox="0 0 48 48" enable-background="new 0 0 48 48" xml:space="preserve">
<path fill="#414042" d="M43.766,19.647c-0.063-0.069-0.144-0.119-0.232-0.145c-6.547-1.872-13.272-2.821-19.991-2.821
	c-11.45,0-19.033,2.806-19.108,2.834c-0.074,0.028-0.141,0.073-0.194,0.131c-0.119,0.132-1.167,1.321-1.072,2.518
	c0.039,0.498,0.274,0.934,0.682,1.259c0.077,0.062,0.171,0.099,0.269,0.108c0.009,0.001,0.866,0.09,0.89,0.551
	C5,24.209,4.863,27.236,6.877,29.359c1.242,1.311,3.013,1.976,5.293,1.976c0.001,0,0.003,0,0.005,0
	c0.075-0.005,7.554-0.565,9.955-8.785c0.012-0.037,0.313-0.901,1.892-0.901c1.539,0,1.842,0.865,1.853,0.895
	c2.402,8.225,9.881,8.786,9.956,8.791c0.011,0.001,0.021,0.001,0.031,0.001c2.251,0,4.022-0.665,5.266-1.976
	c2.015-2.124,1.878-5.151,1.872-5.23c0.021-0.509,0.879-0.598,0.886-0.599c0.098-0.009,0.191-0.046,0.269-0.108
	c0.407-0.326,0.643-0.761,0.683-1.259C44.931,20.968,43.885,19.779,43.766,19.647z M43.623,22.558
	c-0.625,0.106-1.58,0.526-1.623,1.576c0.001,0.027,0.115,2.737-1.604,4.543c-1.044,1.097-2.564,1.655-4.518,1.658
	c-0.442-0.033-6.874-0.639-9.045-8.069c-0.019-0.066-0.489-1.617-2.851-1.617c-2.325,0-2.794,1.552-2.812,1.615
	c-2.201,7.536-8.781,8.054-9.028,8.072c-1.963,0-3.488-0.558-4.535-1.658c-1.719-1.807-1.604-4.517-1.604-4.592
	c-0.045-1.006-1.001-1.422-1.626-1.528c-0.131-0.134-0.2-0.286-0.215-0.47c-0.048-0.59,0.461-1.341,0.738-1.678
	c0.988-0.348,8.14-2.728,18.64-2.728c6.576,0,13.16,0.922,19.571,2.741c0.279,0.343,0.772,1.082,0.726,1.664
	C43.824,22.271,43.755,22.423,43.623,22.558z"/>
</svg>
