<?xml version="1.0" encoding="utf-8"?>
<!-- Generator: Adobe Illustrator 16.0.0, SVG Export Plug-In . SVG Version: 6.00 Build 0)  -->
<!DOCTYPE svg PUBLIC "-//W3C//DTD SVG 1.1//EN" "http://www.w3.org/Graphics/SVG/1.1/DTD/svg11.dtd">
<svg version="1.1" id="Layer_1" xmlns="http://www.w3.org/2000/svg" xmlns:xlink="http://www.w3.org/1999/xlink" x="0px" y="0px"
	 width="48px" height="48px" viewBox="0 0 48 48" enable-background="new 0 0 48 48" xml:space="preserve">
<path fill="#414042" d="M42.655,14.083l-4-3.333c-0.09-0.075-0.203-0.116-0.32-0.116H24.501v-3.75c0-0.276-0.224-0.5-0.5-0.5
	s-0.5,0.224-0.5,0.5v6.75H9.667c-0.117,0-0.23,0.041-0.32,0.116l-4,3.333c-0.113,0.095-0.18,0.236-0.18,0.384
	s0.066,0.289,0.18,0.384l4,3.333c0.09,0.075,0.203,0.116,0.32,0.116h13.834v19.834c0,0.276,0.224,0.5,0.5,0.5s0.5-0.224,0.5-0.5
	V18.3h13.834c0.117,0,0.23-0.041,0.32-0.116l4-3.333c0.113-0.095,0.18-0.236,0.18-0.384S42.769,14.178,42.655,14.083z M9.848,20.3
	l-3.399-2.833l3.399-2.833h13.653V20.3H9.848z M38.154,17.3H24.501v-5.666h13.653l3.399,2.833L38.154,17.3z"/>
</svg>
