<?xml version="1.0" encoding="utf-8"?>
<!-- Generator: Adobe Illustrator 16.0.0, SVG Export Plug-In . SVG Version: 6.00 Build 0)  -->
<!DOCTYPE svg PUBLIC "-//W3C//DTD SVG 1.1//EN" "http://www.w3.org/Graphics/SVG/1.1/DTD/svg11.dtd">
<svg version="1.1" id="Layer_1" xmlns="http://www.w3.org/2000/svg" xmlns:xlink="http://www.w3.org/1999/xlink" x="0px" y="0px"
	 width="48px" height="48px" viewBox="0 0 48 48" enable-background="new 0 0 48 48" xml:space="preserve">
<g>
	<path fill="#414042" d="M16.836,19.996c0.276,0,0.5-0.224,0.5-0.5v-8.583c0-0.276-0.224-0.5-0.5-0.5s-0.5,0.224-0.5,0.5v8.583
		C16.336,19.772,16.56,19.996,16.836,19.996z"/>
	<path fill="#414042" d="M12.721,20.708c0.048,0.237,0.257,0.401,0.489,0.401c0.033,0,0.066-0.003,0.101-0.01
		c0.271-0.055,0.445-0.319,0.391-0.589l-1.625-8.029c-0.055-0.271-0.316-0.445-0.59-0.391c-0.271,0.055-0.445,0.319-0.391,0.589
		L12.721,20.708z"/>
	<path fill="#414042" d="M7.812,14.677c-0.083-0.263-0.367-0.406-0.629-0.323C6.92,14.438,6.775,14.72,6.86,14.982l2.5,7.785
		c0.067,0.212,0.264,0.347,0.476,0.347c0.051,0,0.103-0.008,0.153-0.024c0.263-0.084,0.407-0.366,0.322-0.629L7.812,14.677z"/>
	<path fill="#414042" d="M16.896,27.294c-0.172,0-0.348,0.019-0.482,0.048c-2.71,0.33-4.425,1.889-4.476,1.938
		c-0.434,0.358-1.753,1.449-0.904,3.649l0.501,1.559c0.653,2.127,1.458,4.203,3.445,4.203c0.205,0,0.421-0.023,0.642-0.069
		c1.827-0.379,3.068-1.197,3.187-3.944l0.249-4.644c0.016-0.944-0.217-1.668-0.691-2.15C17.987,27.498,17.479,27.294,16.896,27.294z
		 M17.809,34.623c-0.093,2.164-0.845,2.698-2.391,3.02c-1.49,0.312-2.168-0.978-2.931-3.455l-0.512-1.592
		c-0.526-1.366-0.023-2.031,0.619-2.563c0.015-0.015,1.562-1.409,3.98-1.704c0.108-0.022,0.216-0.034,0.32-0.034
		c0.313,0,0.568,0.098,0.757,0.29c0.275,0.28,0.416,0.775,0.405,1.414L17.809,34.623z"/>
	<path fill="#414042" d="M29.428,22.867c0.047,0.014,0.095,0.02,0.141,0.02c0.217,0,0.416-0.141,0.479-0.359l2.415-8.236
		c0.078-0.265-0.074-0.542-0.339-0.621c-0.27-0.079-0.544,0.074-0.62,0.339l-2.415,8.236C29.011,22.512,29.163,22.789,29.428,22.867
		z"/>
	<path fill="#414042" d="M36.786,16.786c-0.242-0.128-0.547-0.035-0.676,0.209l-3.818,7.247c-0.129,0.244-0.035,0.546,0.209,0.675
		c0.074,0.039,0.154,0.058,0.233,0.058c0.18,0,0.353-0.097,0.442-0.267l3.818-7.247C37.124,17.217,37.03,16.915,36.786,16.786z"/>
	<path fill="#414042" d="M39.584,20.301l-4.589,6.768c-0.154,0.229-0.095,0.539,0.134,0.695c0.086,0.058,0.184,0.086,0.28,0.086
		c0.16,0,0.317-0.077,0.414-0.22l4.589-6.768c0.154-0.229,0.095-0.54-0.134-0.695C40.051,20.014,39.739,20.072,39.584,20.301z"/>
	<path fill="#414042" d="M44.276,14.24c-0.137-0.229-3.417-5.635-9.411-8.206c-0.79-0.42-1.631-0.643-2.432-0.643
		c-1.31,0-3.674,0.612-4.801,4.722l-6.269,23.988l0.784-25.846c0.037-2.144-0.469-3.765-1.506-4.82
		c-0.8-0.814-1.883-1.244-3.132-1.244c-0.379,0-0.769,0.041-1.115,0.114C9.878,3.094,5.21,7.359,5.035,7.522
		c-1.695,1.407-3.747,3.8-2.018,8.295l6.945,21.411c0.873,2.839,2.282,6.097,5.447,6.097c0.337,0,0.69-0.038,1.052-0.113
		c1.544-0.32,2.775-0.829,3.609-1.896c0.254,1.902,1.432,3,3.186,3.937c0.716,0.382,1.435,0.575,2.136,0.575
		c1.951,0,3.735-1.385,5.781-4.483l12.675-18.577C46.789,18.918,45.492,16.044,44.276,14.24z M16.259,42.232
		c-2.447,0.501-4.036-1.059-5.343-5.307L3.96,15.483c-1.482-3.854,0.034-5.798,1.734-7.209c0.046-0.042,4.623-4.225,10.862-4.982
		c0.321-0.066,0.642-0.1,0.953-0.1c0.68,0,1.651,0.164,2.419,0.945c0.842,0.856,1.252,2.236,1.219,4.096l-0.836,28.313l-0.042,0.639
		C20.116,40.778,18.799,41.704,16.259,42.232z M43.038,22.181L30.344,40.785c-2.455,3.718-4.383,4.776-6.616,3.583
		c-2.288-1.221-3.292-2.479-2.427-5.982l7.298-28.014c0.714-2.604,2.04-3.98,3.835-3.98c0.638,0,1.316,0.182,1.999,0.543
		c5.727,2.458,8.953,7.765,8.999,7.841C44.651,16.586,45.561,18.878,43.038,22.181z"/>
	<path fill="#414042" d="M27.805,30.055c-0.359-0.191-0.745-0.292-1.114-0.292c-0.611,0-1.711,0.274-2.22,2.129l-1.062,4.499
		c-0.661,2.679,0.3,3.813,1.946,4.693c0.436,0.232,0.871,0.35,1.297,0.35c1.567,0,2.73-1.565,3.784-3.162l0.907-1.338
		c1.448-1.895,0.49-3.313,0.189-3.757C31.483,33.093,30.276,31.115,27.805,30.055z M30.532,36.349l-0.927,1.366
		c-1.407,2.135-2.409,3.216-3.779,2.486c-1.394-0.744-1.965-1.468-1.444-3.58l1.058-4.481c0.172-0.628,0.529-1.377,1.251-1.377
		c0.207,0,0.43,0.061,0.683,0.192c2.2,0.946,3.292,2.719,3.317,2.759C31.143,34.383,31.438,35.163,30.532,36.349z"/>
</g>
</svg>
