<?xml version="1.0" encoding="utf-8"?>
<!-- Generator: Adobe Illustrator 16.0.0, SVG Export Plug-In . SVG Version: 6.00 Build 0)  -->
<!DOCTYPE svg PUBLIC "-//W3C//DTD SVG 1.1//EN" "http://www.w3.org/Graphics/SVG/1.1/DTD/svg11.dtd">
<svg version="1.1" id="Layer_1" xmlns="http://www.w3.org/2000/svg" xmlns:xlink="http://www.w3.org/1999/xlink" x="0px" y="0px"
	 width="48px" height="48px" viewBox="0 0 48 48" enable-background="new 0 0 48 48" xml:space="preserve">
<g>
	<path fill="#414042" d="M34.171,32.867c-2.203,0-3.996,1.794-3.996,3.998c0,2.203,1.793,3.994,3.996,3.994s3.996-1.791,3.996-3.994
		C38.167,34.661,36.374,32.867,34.171,32.867z M34.171,39.859c-1.652,0-2.996-1.343-2.996-2.994c0-1.652,1.344-2.998,2.996-2.998
		s2.996,1.346,2.996,2.998C37.167,38.517,35.823,39.859,34.171,39.859z"/>
	<path fill="#414042" d="M12.616,32.867c-2.203,0-3.996,1.794-3.996,3.998c0,2.203,1.793,3.994,3.996,3.994s3.996-1.791,3.996-3.994
		C16.612,34.661,14.819,32.867,12.616,32.867z M12.616,39.859c-1.652,0-2.996-1.343-2.996-2.994c0-1.652,1.344-2.998,2.996-2.998
		s2.996,1.346,2.996,2.998C15.612,38.517,14.269,39.859,12.616,39.859z"/>
	<path fill="#414042" d="M7.332,24.864c-0.021,0.11-0.106,0.682,0.227,1.083c0.129,0.156,0.367,0.34,0.786,0.34
		c0.001,0,0.001,0,0.001,0l7.191-0.005c0.023,0.003,0.146,0.011,0.169,0.011c0.363,0,0.686-0.128,0.906-0.36
		c0.234-0.247,0.343-0.585,0.322-0.98l-0.006-5.184c0.01-0.058,0.093-0.574-0.251-0.986c-0.165-0.198-0.524-0.419-1.112-0.43
		c0,0-0.598-0.046-1.419-0.046c-1.146,0-2.119,0.086-2.894,0.256c-0.034,0.007-0.068,0.019-0.101,0.034
		C11.006,18.663,7.555,20.294,7.332,24.864z M11.524,19.526c0.688-0.144,1.592-0.22,2.622-0.22c0.771,0,1.334,0.043,1.343,0.043
		c0.012,0.003,0.106,0,0.119,0c0.175,0,0.27,0.038,0.3,0.073c0.036,0.041,0.04,0.135,0.028,0.257l-0.001,5.299
		c0.008,0.151-0.02,0.237-0.048,0.267s-0.101,0.049-0.182,0.049l-0.098-0.006l-7.277,0.025C8.308,25.273,8.3,25.137,8.322,24.98
		C8.512,21.191,11.131,19.726,11.524,19.526z"/>
	<path fill="#414042" d="M13.174,11.669c0,0.689,0.561,1.25,1.25,1.25h3.128c0.689,0,1.25-0.561,1.25-1.281l0.004-0.144
		c0.014-0.326,0.034-0.818-0.306-1.172c-0.182-0.189-0.427-0.297-0.73-0.322V8.847c0-0.941-0.799-1.707-1.781-1.707
		s-1.781,0.766-1.781,1.707v1.167c-1.069,0.143-1.044,1.159-1.035,1.507L13.174,11.669z M14.502,10.991l0.283-0.045
		c0.243-0.039,0.422-0.248,0.422-0.494V8.847c0-0.39,0.351-0.707,0.781-0.707s0.781,0.317,0.781,0.707v1.605
		c0,0.246,0.179,0.455,0.422,0.494l0.282,0.045c0.025,0.004,0.132,0.002,0.16,0.004c0.102,0,0.141,0.018,0.144,0.018
		c0.045,0.063,0.034,0.328,0.029,0.44l-0.005,0.216c0,0.138-0.112,0.25-0.25,0.25h-3.128c-0.138,0-0.25-0.112-0.25-0.281
		l-0.002-0.143C14.159,11.004,14.186,11.004,14.502,10.991z"/>
	<path fill="#414042" d="M35.362,21.8h-3.25v-3.25c0-0.276-0.224-0.5-0.5-0.5s-0.5,0.224-0.5,0.5v3.25h-3.25
		c-0.276,0-0.5,0.224-0.5,0.5s0.224,0.5,0.5,0.5h3.25v3.249c0,0.277,0.224,0.5,0.5,0.5s0.5-0.223,0.5-0.5V22.8h3.25
		c0.276,0,0.5-0.224,0.5-0.5S35.639,21.8,35.362,21.8z"/>
	<path fill="#414042" d="M42.663,14.409H20.582c-0.01,0-0.018,0.005-0.028,0.005c-0.009,0-0.018-0.005-0.028-0.005h-9.596
		c-1.039,0-1.975,0.764-1.979,0.77c-0.22,0.151-5.385,3.772-5.725,9.064v8.933c-0.001,0.084,0.004,0.831,0.593,1.43
		c0.445,0.453,1.085,0.684,1.9,0.684c0.216,0,0.453-0.017,0.714-0.053c0.199-0.028,0.363-0.174,0.414-0.368
		c0.589-2.237,3.166-4.058,5.745-4.058c2.556,0,5.031,1.791,5.635,4.077c0.058,0.22,0.257,0.372,0.483,0.372h1.774
		c0.014,0,0.025-0.007,0.039-0.008c0.02,0.002,0.038,0.012,0.058,0.012h7.657c0.231,0,0.433-0.158,0.486-0.384
		c0.567-2.389,2.909-4.19,5.445-4.19c2.528,0,4.87,1.803,5.447,4.192c0.055,0.224,0.256,0.382,0.486,0.382h2.559
		c1.164,0,2.111-0.947,2.111-2.113v-16.63C44.774,15.356,43.827,14.409,42.663,14.409z M19.986,34.26h-0.904
		c-0.873-2.561-3.59-4.449-6.489-4.449c-2.928,0-5.757,1.938-6.611,4.469c-0.092,0.006-0.179,0.01-0.262,0.01
		c-1.413,0-1.492-0.918-1.493-1.105l-0.001-8.908c0.308-4.771,5.244-8.239,5.328-8.299c0.007-0.006,0.705-0.567,1.377-0.567h9.095
		L19.986,34.26z M43.774,33.15c0,0.614-0.499,1.113-1.111,1.113h-2.179c-0.832-2.672-3.424-4.574-6.313-4.574
		c-2.898,0-5.49,1.902-6.313,4.574h-6.871l0.039-18.854h21.638c0.612,0,1.111,0.499,1.111,1.111V33.15z"/>
</g>
</svg>
