<?xml version="1.0" encoding="utf-8"?>
<!-- Generator: Adobe Illustrator 16.0.0, SVG Export Plug-In . SVG Version: 6.00 Build 0)  -->
<!DOCTYPE svg PUBLIC "-//W3C//DTD SVG 1.1//EN" "http://www.w3.org/Graphics/SVG/1.1/DTD/svg11.dtd">
<svg version="1.1" id="Layer_1" xmlns="http://www.w3.org/2000/svg" xmlns:xlink="http://www.w3.org/1999/xlink" x="0px" y="0px"
	 width="48px" height="48px" viewBox="0 0 48 48" enable-background="new 0 0 48 48" xml:space="preserve">
<g>
	<path fill="#414042" d="M40.448,16.063H7.554c-1.971,0-3.574,1.604-3.574,3.574v18.341c0,1.973,1.604,3.576,3.574,3.576h32.895
		c1.971,0,3.573-1.604,3.573-3.576V19.638C44.021,17.667,42.419,16.063,40.448,16.063z M43.021,37.979
		c0,1.421-1.154,2.576-2.573,2.576H7.554c-1.419,0-2.574-1.155-2.574-2.576V19.638c0-1.419,1.155-2.574,2.574-2.574h32.895
		c1.419,0,2.573,1.155,2.573,2.574V37.979z"/>
	<path fill="#414042" d="M16.817,14.015c0.276,0,0.5-0.224,0.5-0.5v-3.496c0-1.419,1.155-2.574,2.574-2.574h8.876
		c1.419,0,2.573,1.155,2.573,2.574v3.496c0,0.276,0.224,0.5,0.5,0.5s0.5-0.224,0.5-0.5v-3.496c0-1.971-1.603-3.574-3.573-3.574
		h-8.876c-1.971,0-3.574,1.604-3.574,3.574v3.496C16.317,13.791,16.541,14.015,16.817,14.015z"/>
	<path fill="#414042" d="M29.626,27.928h-4.797v-4.796c0-0.276-0.224-0.5-0.5-0.5s-0.5,0.224-0.5,0.5v4.796h-4.797
		c-0.276,0-0.5,0.225-0.5,0.5c0,0.277,0.224,0.5,0.5,0.5h4.797v4.797c0,0.277,0.224,0.5,0.5,0.5s0.5-0.223,0.5-0.5v-4.797h4.797
		c0.276,0,0.5-0.223,0.5-0.5C30.126,28.152,29.902,27.928,29.626,27.928z"/>
</g>
</svg>
