<?xml version="1.0" encoding="utf-8"?>
<!-- Generator: Adobe Illustrator 16.0.0, SVG Export Plug-In . SVG Version: 6.00 Build 0)  -->
<!DOCTYPE svg PUBLIC "-//W3C//DTD SVG 1.1//EN" "http://www.w3.org/Graphics/SVG/1.1/DTD/svg11.dtd">
<svg version="1.1" id="Layer_1" xmlns="http://www.w3.org/2000/svg" xmlns:xlink="http://www.w3.org/1999/xlink" x="0px" y="0px"
	 width="48px" height="48px" viewBox="0 0 48 48" enable-background="new 0 0 48 48" xml:space="preserve">
<path fill="#414042" d="M40.94,15.017c-0.152-0.23-0.462-0.293-0.692-0.142c-0.021,0.013-0.937,0.605-2.449,1.167
	c-0.021-0.095-0.059-0.186-0.134-0.258l-5.704-5.48c0.581-1.612,1.219-2.6,1.229-2.617c0.152-0.23,0.089-0.541-0.142-0.692
	c-0.23-0.153-0.541-0.089-0.692,0.141c-0.084,0.127-2.057,3.156-2.308,7.489c-0.016,0.275,0.194,0.512,0.47,0.528
	c0.01,0,0.02,0.001,0.029,0.001c0.264,0,0.483-0.205,0.499-0.471c0.071-1.229,0.296-2.35,0.573-3.32l5.206,5.003
	c-1.855,0.561-4.32,0.952-7.048,0.425c-2.629-0.508-5.489,0.047-7.875,1.439c-0.074,0.024-0.145,0.061-0.203,0.122
	c0,0,0,0.001-0.001,0.002c-0.541,0.33-1.064,0.689-1.543,1.106c-0.9,0.783-1.637,1.672-2.203,2.639
	c-0.007,0.007-0.017,0.009-0.024,0.017c-0.071,0.074-0.106,0.166-0.123,0.261c-0.862,1.585-1.279,3.364-1.181,5.233l0.027,0.551
	c0.014,0.267,0.234,0.473,0.499,0.473c0.009,0,0.018,0,0.026,0c0.276-0.016,0.487-0.25,0.473-0.526l-0.027-0.552
	c-0.079-1.499,0.216-2.934,0.831-4.242l6.383,6.129c-1.169,0.57-2.604,0.961-4.325,0.869c-5.379-0.285-9.069-0.029-11.274,0.795
	c-0.038,0.01-0.074,0.021-0.109,0.039c-1.023,0.399-1.715,0.927-2.088,1.587c-0.136,0.241-0.051,0.546,0.189,0.682
	c0.078,0.044,0.162,0.064,0.246,0.064c0.174,0,0.344-0.091,0.436-0.254c0.236-0.417,0.681-0.771,1.33-1.06l6.637,6.373
	c-0.309,0.799-0.696,1.35-1.168,1.617c-0.24,0.136-0.325,0.44-0.189,0.681c0.093,0.163,0.262,0.254,0.436,0.254
	c0.084,0,0.169-0.021,0.246-0.064c1.52-0.859,2.313-3.258,2.496-7.545c0.012-0.275-0.203-0.509-0.479-0.521
	c-0.008-0.001-0.015-0.001-0.021-0.001c-0.267,0-0.488,0.211-0.5,0.479c-0.07,1.635-0.239,2.966-0.494,4.025l-5.9-5.664
	c2.113-0.57,5.506-0.735,10.155-0.488c2.786,0.141,5.415-0.852,7.454-2.805c2.253-2.158,3.581-5.309,3.553-8.427
	c-0.003-0.275-0.226-0.496-0.5-0.496c-0.001,0-0.003,0-0.005,0c-0.275,0.002-0.498,0.229-0.495,0.504
	c0.015,1.676-0.408,3.357-1.171,4.862L22.9,18.809c2.073-1.069,4.476-1.467,6.689-1.038c6.183,1.197,11.008-1.928,11.21-2.062
	C41.029,15.557,41.093,15.247,40.94,15.017z M28.613,25.68c0.06,0.057,0.131,0.09,0.204,0.112c-0.453,0.725-0.981,1.4-1.596,1.989
	c-0.417,0.4-0.942,0.817-1.553,1.199c-0.02-0.094-0.058-0.186-0.133-0.257L18.951,22.4c0.494-0.795,1.11-1.534,1.862-2.188
	c0.373-0.325,0.775-0.611,1.19-0.878L28.613,25.68z"/>
</svg>
