<?xml version="1.0" encoding="utf-8"?>
<!-- Generator: Adobe Illustrator 16.0.0, SVG Export Plug-In . SVG Version: 6.00 Build 0)  -->
<!DOCTYPE svg PUBLIC "-//W3C//DTD SVG 1.1//EN" "http://www.w3.org/Graphics/SVG/1.1/DTD/svg11.dtd">
<svg version="1.1" id="Layer_1" xmlns="http://www.w3.org/2000/svg" xmlns:xlink="http://www.w3.org/1999/xlink" x="0px" y="0px"
	 width="48px" height="48px" viewBox="0 0 48 48" enable-background="new 0 0 48 48" xml:space="preserve">
<g>
	<path fill="#414042" d="M44.272,27.95L37.429,24l6.844-3.951c0.239-0.138,0.321-0.444,0.183-0.683L38.241,8.602
		c-0.065-0.115-0.175-0.199-0.303-0.233c-0.129-0.034-0.266-0.016-0.38,0.05l-6.844,3.952V4.469c0-0.276-0.224-0.5-0.5-0.5H17.786
		c-0.276,0-0.5,0.224-0.5,0.5v7.901l-6.844-3.951c-0.115-0.065-0.25-0.084-0.38-0.05C9.935,8.403,9.825,8.487,9.76,8.602
		L3.546,19.365c-0.139,0.239-0.057,0.545,0.183,0.683L10.571,24L3.729,27.95c-0.239,0.138-0.321,0.444-0.183,0.683L9.76,39.396
		c0.137,0.239,0.442,0.32,0.683,0.184l6.844-3.951v7.902c0,0.275,0.224,0.5,0.5,0.5h12.429c0.276,0,0.5-0.225,0.5-0.5v-7.902
		l6.844,3.951c0.24,0.138,0.546,0.057,0.683-0.184l6.214-10.764c0.066-0.114,0.085-0.251,0.051-0.379
		C44.471,28.126,44.388,28.017,44.272,27.95z M37.626,38.464l-7.161-4.134c-0.154-0.089-0.346-0.089-0.5,0
		c-0.154,0.09-0.25,0.254-0.25,0.434v8.268H18.286v-8.268c0-0.18-0.096-0.344-0.25-0.434c-0.154-0.089-0.346-0.089-0.5,0
		l-7.161,4.134l-5.714-9.897l7.16-4.134c0.154-0.089,0.25-0.254,0.25-0.433c0-0.179-0.096-0.343-0.25-0.433l-7.16-4.134l5.714-9.897
		l7.161,4.134c0.154,0.089,0.346,0.089,0.5,0c0.154-0.089,0.25-0.254,0.25-0.433V4.969h11.429v8.268c0,0.179,0.096,0.344,0.25,0.433
		c0.154,0.089,0.346,0.089,0.5,0l7.161-4.135l5.714,9.897l-7.16,4.134c-0.154,0.09-0.25,0.254-0.25,0.433
		c0,0.179,0.096,0.344,0.25,0.433l7.16,4.134L37.626,38.464z"/>
	<path fill="#414042" d="M26.674,12.061c-0.355-0.104-0.701-0.105-0.976-0.02c-0.418-0.008-1.012-0.001-1.669,0.065v-0.981
		c0-0.138-0.056-0.263-0.146-0.353c0.559-0.158,0.978-0.651,0.978-1.26c0-0.734-0.598-1.332-1.332-1.332s-1.332,0.598-1.332,1.332
		c0,0.609,0.419,1.102,0.978,1.26c-0.09,0.09-0.146,0.215-0.146,0.353v1.132c-0.866,0.175-1.719,0.479-2.295,1.013
		c-0.499,0.462-0.753,1.039-0.75,1.661c-0.009,0.085-0.171,1.975,3.045,2.689v4.146c-1.044,0.401-2.834,1.288-2.712,2.632
		c-0.022,0.18-0.016,0.509,0.226,0.876c0.389,0.593,1.227,1.013,2.486,1.256v2.642c-1.447,0.52-2.25,1.282-2.225,2.141
		c0.018,0.59,0.446,1.365,2.225,1.881v2.554c-0.373,0.182-0.806,0.375-1.329,0.583c-0.257,0.102-0.382,0.393-0.28,0.649
		c0.078,0.196,0.267,0.315,0.465,0.315c0.062,0,0.124-0.012,0.185-0.036c0.343-0.137,0.662-0.271,0.96-0.406v2.005
		c0,0.275,0.224,0.5,0.5,0.5s0.5-0.225,0.5-0.5v-2.503c1.429-0.78,2.086-1.535,2.021-2.319c-0.063-0.744-0.801-1.326-2.021-1.615
		v-2.516c2.025-0.578,3.024-1.346,2.956-2.287c-0.076-1.052-1.513-1.717-2.956-1.937V22.47c2.615-1.042,3.124-2.261,3.216-2.61
		c0.084-0.201,0.271-0.788-0.067-1.444c-0.421-0.815-1.484-1.362-3.148-1.631v-3.67c0.411-0.045,0.816-0.071,1.175-0.077
		c0.142,0.315,0.477,0.596,0.967,0.738c0.192,0.056,0.391,0.086,0.573,0.086c0.491,0,0.847-0.213,0.952-0.573
		C27.838,12.792,27.408,12.276,26.674,12.061z M23.529,9.18c0.183,0,0.332,0.149,0.332,0.332s-0.149,0.332-0.332,0.332
		s-0.332-0.149-0.332-0.332S23.347,9.18,23.529,9.18z M21.408,24.766c-0.099-0.128-0.101-0.219-0.104-0.219
		c0,0-0.001,0.001-0.001,0.003c0.02-0.069,0.024-0.143,0.014-0.215c-0.072-0.478,0.778-1.063,1.713-1.482v2.655
		C21.969,25.277,21.558,24.959,21.408,24.766z M21.804,31.28c-0.007-0.234,0.336-0.654,1.226-1.034v1.9
		C22.102,31.831,21.81,31.474,21.804,31.28z M25.053,34.117c0.005,0.059-0.013,0.438-1.023,1.079v-1.738
		C24.665,33.649,25.036,33.922,25.053,34.117z M25.988,27.688c0.015,0.2-0.401,0.686-1.959,1.169v-2.165
		C25.258,26.906,25.968,27.398,25.988,27.688z M26.281,18.86c0.174,0.32,0.045,0.607,0.043,0.611
		c-0.019,0.035-0.036,0.093-0.045,0.132c-0.003,0.01-0.259,0.898-2.25,1.778v-3.58C25.621,18.085,26.129,18.579,26.281,18.86z
		 M23.029,16.589c-1.634-0.42-2.068-1.182-2.048-1.605c0-0.39,0.142-0.71,0.432-0.979c0.379-0.351,0.971-0.576,1.616-0.723V16.589z"
		/>
</g>
</svg>
