<?xml version="1.0" encoding="utf-8"?>
<!-- Generator: Adobe Illustrator 16.0.0, SVG Export Plug-In . SVG Version: 6.00 Build 0)  -->
<!DOCTYPE svg PUBLIC "-//W3C//DTD SVG 1.1//EN" "http://www.w3.org/Graphics/SVG/1.1/DTD/svg11.dtd">
<svg version="1.1" id="Layer_1" xmlns="http://www.w3.org/2000/svg" xmlns:xlink="http://www.w3.org/1999/xlink" x="0px" y="0px"
	 width="48px" height="48px" viewBox="0 0 48 48" enable-background="new 0 0 48 48" xml:space="preserve">
<path fill="#414042" d="M34.138,39.42c-0.083-0.095-5.237-5.943-9.563-12.049c2.537-3.646,4.757-7.345,5.492-10.001
	c0.86-3.121,0.637-5.572-0.667-7.284c-1.501-1.971-3.922-2.316-5.316-2.336c-0.025,0-0.054-0.001-0.08-0.001s-0.054,0-0.08,0.001
	c-2.205,0.03-4.033,0.838-5.159,2.282c-1.339,1.716-1.617,4.182-0.827,7.327c0.671,2.671,2.868,6.371,5.404,10.012
	c-4.317,6.103-9.397,11.957-9.479,12.051c-0.182,0.209-0.159,0.524,0.049,0.705c0.095,0.083,0.212,0.123,0.328,0.123
	c0.14,0,0.278-0.058,0.377-0.171c0.33-0.379,5.133-5.914,9.342-11.833c4.224,5.926,9.098,11.457,9.433,11.836
	c0.183,0.206,0.499,0.225,0.705,0.043C34.302,39.941,34.321,39.626,34.138,39.42z M18.907,17.116
	c-0.712-2.832-0.494-5.008,0.645-6.469c1.27-1.628,3.313-1.891,4.452-1.898c1.194,0.007,3.33,0.276,4.6,1.943
	c1.104,1.451,1.272,3.608,0.499,6.412c-0.68,2.453-2.745,5.917-5.146,9.386C21.563,23.031,19.524,19.576,18.907,17.116z"/>
</svg>
