<?xml version="1.0" encoding="utf-8"?>
<!-- Generator: Adobe Illustrator 16.0.0, SVG Export Plug-In . SVG Version: 6.00 Build 0)  -->
<!DOCTYPE svg PUBLIC "-//W3C//DTD SVG 1.1//EN" "http://www.w3.org/Graphics/SVG/1.1/DTD/svg11.dtd">
<svg version="1.1" id="Layer_1" xmlns="http://www.w3.org/2000/svg" xmlns:xlink="http://www.w3.org/1999/xlink" x="0px" y="0px"
	 width="48px" height="48px" viewBox="0 0 48 48" enable-background="new 0 0 48 48" xml:space="preserve">
<path fill="#414042" d="M24.435,10.331l3.765,3.641c0.094,0.09,0.218,0.141,0.348,0.141c9.891,0,14.342-3.064,14.526-3.195
	c0.218-0.154,0.277-0.451,0.134-0.676c-0.144-0.226-0.438-0.297-0.669-0.167c-0.171,0.097-0.396,0.146-0.67,0.146
	c-0.001,0-0.001,0-0.001,0c-1.231,0-3.154-0.932-5.19-1.919c-2.101-1.019-4.273-2.073-6.149-2.345
	c-2.359-0.343-3.675-0.079-4.063,0.826c-0.277,0.646,0.014,1.461,0.875,2.436c-0.485,0.14-1.537,0.25-2.559,0.255
	c-0.146,0-0.265,0.079-0.357,0.184V5.245c0-0.125-0.05-0.234-0.125-0.322c0.528-0.163,0.919-0.638,0.919-1.219
	c0-0.713-0.58-1.293-1.294-1.293s-1.295,0.58-1.295,1.293c0,0.581,0.392,1.056,0.92,1.219c-0.075,0.088-0.125,0.198-0.125,0.322
	v4.29c-0.064-0.03-0.129-0.063-0.203-0.063c-1.021-0.004-2.073-0.115-2.559-0.255c0.859-0.969,1.154-1.787,0.875-2.436
	c-0.388-0.902-1.698-1.167-4.064-0.826c-1.875,0.272-4.047,1.326-6.147,2.344c-2.036,0.987-3.959,1.92-5.191,1.92
	c-0.274,0-0.5-0.049-0.67-0.146c-0.232-0.132-0.526-0.06-0.669,0.167c-0.144,0.225-0.084,0.522,0.134,0.676
	c0.185,0.13,4.635,3.195,14.525,3.195c0.13,0,0.254-0.05,0.348-0.141l3.622-3.503v10.024c-3.433-0.706-3.83-2.278-3.845-2.34
	c-0.01-0.035-0.092-0.346,0.245-0.511c0.181-0.089,0.281-0.272,0.276-0.461c0.052,0.01,0.103,0.021,0.165,0.021
	c0.329,0,0.762-0.168,1.188-0.461c0.28-0.193,0.522-0.42,0.682-0.639c0.352-0.483,0.223-0.818,0.114-0.975
	c-0.074-0.108-0.252-0.29-0.603-0.29c-0.33,0-0.763,0.168-1.187,0.461c-0.672,0.463-0.99,0.975-0.888,1.396
	c-0.064,0.004-0.128,0.02-0.189,0.049c-0.875,0.431-0.881,1.297-0.774,1.638c0.014,0.083,0.352,1.77,3.319,2.75
	c-2.572,0.951-2.612,2.289-2.604,2.411c-0.01,0.093-0.178,2.115,3.28,3.541c-0.969,0.515-2.104,1.357-2.146,2.506
	c-0.038,0.992,0.729,1.914,2.314,2.801c-0.917,0.431-2.138,1.221-2.14,2.377c-0.001,0.868,0.687,1.65,2.103,2.39
	c-0.58,0.339-1.165,0.846-1.232,1.546c-0.069,0.725,0.416,1.41,1.444,2.077l-1.568,0.927c-0.237,0.141-0.316,0.447-0.176,0.685
	c0.094,0.157,0.26,0.245,0.431,0.245c0.087,0,0.175-0.021,0.255-0.069l1.534-0.907v3.428c0,0.277,0.224,0.5,0.5,0.5
	s0.5-0.223,0.5-0.5v-3.44l1.556,0.92c0.08,0.048,0.168,0.069,0.255,0.069c0.171,0,0.337-0.088,0.431-0.245
	c0.141-0.237,0.062-0.544-0.176-0.685l-1.569-0.928c1.033-0.671,1.514-1.354,1.445-2.076c-0.066-0.701-0.653-1.208-1.226-1.544
	c1.403-0.731,2.098-1.518,2.096-2.392c-0.002-1.157-1.223-1.945-2.139-2.377c1.585-0.887,2.352-1.809,2.313-2.801
	c-0.043-1.148-1.177-1.99-2.147-2.505c3.46-1.429,3.292-3.443,3.285-3.468c0.006-0.183-0.035-1.532-2.607-2.484
	c2.968-0.98,3.303-2.661,3.306-2.693c0.12-0.398,0.114-1.265-0.761-1.696c-0.061-0.029-0.123-0.044-0.187-0.048
	c0.104-0.417-0.215-0.931-0.89-1.397c-0.425-0.293-0.856-0.461-1.187-0.461c-0.351,0-0.528,0.182-0.602,0.288
	c-0.101,0.144-0.137,0.325-0.104,0.51c0.091,0.5,0.658,0.939,0.898,1.105c0.201,0.138,0.721,0.46,1.187,0.46c0,0,0,0,0.001,0
	c0.063,0,0.112-0.011,0.164-0.021c-0.004,0.188,0.096,0.372,0.276,0.461c0.291,0.143,0.277,0.387,0.233,0.559
	c-0.004,0.017-0.4,1.594-3.854,2.297V10.31C24.429,10.316,24.429,10.325,24.435,10.331z M28.45,9.581
	c0.057-0.133,0.15-0.481-0.197-0.848c-0.836-0.881-0.94-1.394-0.87-1.557c0.072-0.168,0.484-0.364,1.408-0.364
	c0.447,0,0.983,0.045,1.593,0.133c1.723,0.25,3.824,1.27,5.856,2.255c1.596,0.773,3.124,1.515,4.405,1.844
	c-0.548,0.229-1.228,0.479-2.027,0.723c-0.044-0.035-0.091-0.067-0.146-0.086l-3.43-1.201c-0.261-0.094-0.546,0.046-0.637,0.307
	c-0.092,0.26,0.046,0.546,0.307,0.637l2.242,0.785c-0.841,0.198-1.776,0.377-2.819,0.524c-0.052-0.051-0.112-0.095-0.186-0.121
	l-3.431-1.199c-0.261-0.09-0.546,0.047-0.637,0.307c-0.092,0.261,0.046,0.546,0.307,0.637l1.752,0.613
	c-0.996,0.08-2.044,0.138-3.191,0.143l-2.771-2.679C28.149,10.285,28.37,9.768,28.45,9.581z M19.251,13.112
	c-1.146-0.005-2.193-0.063-3.19-0.144l1.75-0.612c0.261-0.091,0.398-0.376,0.307-0.637c-0.09-0.26-0.375-0.398-0.637-0.307
	l-3.431,1.199c-0.073,0.025-0.133,0.068-0.184,0.119c-1.04-0.147-1.974-0.327-2.813-0.525l2.235-0.783
	c0.261-0.091,0.398-0.376,0.307-0.637c-0.091-0.261-0.376-0.4-0.637-0.307l-3.43,1.201c-0.054,0.019-0.098,0.05-0.141,0.083
	c-0.799-0.244-1.478-0.492-2.025-0.721c1.279-0.329,2.806-1.069,4.397-1.842c2.032-0.985,4.134-2.005,5.855-2.255
	c0.61-0.088,1.146-0.133,1.594-0.133c0.924,0,1.337,0.196,1.409,0.364c0.07,0.164-0.034,0.675-0.87,1.556
	c-0.349,0.367-0.255,0.715-0.198,0.848c0.08,0.188,0.301,0.705,2.473,0.852L19.251,13.112z M23.923,3.411
	c0.162,0,0.294,0.131,0.294,0.293c0,0.163-0.132,0.295-0.294,0.295c-0.163,0-0.295-0.132-0.295-0.295
	C23.628,3.542,23.76,3.411,23.923,3.411z M20.32,23.579c-0.001-0.012,0.165-1.141,3.103-1.85v4.603
	C20.27,25.191,20.317,23.655,20.32,23.579z M21.456,29.627c0.027-0.742,1.104-1.42,1.967-1.829v3.814
	C21.716,30.7,21.442,30,21.456,29.627z M21.632,34.769c0.001-0.494,0.704-1.108,1.791-1.574v3.197
	C21.83,35.613,21.631,35.008,21.632,34.769z M22.498,38.799c0.029-0.309,0.444-0.629,0.925-0.878v1.975
	C22.551,39.31,22.487,38.921,22.498,38.799z M25.368,38.799c0.012,0.121-0.053,0.513-0.945,1.109v-2.001
	C24.903,38.152,25.338,38.48,25.368,38.799z M26.234,34.77c0.001,0.241-0.206,0.858-1.812,1.636v-3.22
	C25.523,33.652,26.233,34.271,26.234,34.77z M26.41,29.628c0.014,0.373-0.264,1.078-1.987,1.996v-3.836
	C25.291,28.197,26.383,28.88,26.41,29.628z M27.549,23.642c0.001,0.017,0.048,1.555-3.126,2.696v-4.615
	C27.433,22.442,27.546,23.592,27.549,23.642z"/>
</svg>
