<?xml version="1.0" encoding="utf-8"?>
<!-- Generator: Adobe Illustrator 16.0.0, SVG Export Plug-In . SVG Version: 6.00 Build 0)  -->
<!DOCTYPE svg PUBLIC "-//W3C//DTD SVG 1.1//EN" "http://www.w3.org/Graphics/SVG/1.1/DTD/svg11.dtd">
<svg version="1.1" id="Layer_1" xmlns="http://www.w3.org/2000/svg" xmlns:xlink="http://www.w3.org/1999/xlink" x="0px" y="0px"
	 width="48px" height="48px" viewBox="0 0 48 48" enable-background="new 0 0 48 48" xml:space="preserve">
<path fill="#414042" d="M31.093,4.036H16.909c-1.06,0-1.922,0.862-1.922,1.922c0,1.059,0.862,1.92,1.922,1.92h0.695v31.878
	c0,2.32,1.888,4.207,4.209,4.207h4.186c2.32,0,4.208-1.887,4.208-4.207V7.878h0.886c1.059,0,1.92-0.861,1.92-1.92
	C33.013,4.898,32.151,4.036,31.093,4.036z M25.999,42.963h-4.186c-1.77,0-3.209-1.438-3.209-3.207V18.099h10.603v21.657
	C29.207,41.525,27.768,42.963,25.999,42.963z M31.093,6.878h-1.386c-0.276,0-0.5,0.224-0.5,0.5v9.721H18.604V7.378
	c0-0.276-0.224-0.5-0.5-0.5h-1.195c-0.509,0-0.922-0.413-0.922-0.92c0-0.508,0.413-0.922,0.922-0.922h14.184
	c0.507,0,0.92,0.414,0.92,0.922C32.013,6.465,31.6,6.878,31.093,6.878z"/>
</svg>
