<?xml version="1.0" encoding="utf-8"?>
<!-- Generator: Adobe Illustrator 16.0.0, SVG Export Plug-In . SVG Version: 6.00 Build 0)  -->
<!DOCTYPE svg PUBLIC "-//W3C//DTD SVG 1.1//EN" "http://www.w3.org/Graphics/SVG/1.1/DTD/svg11.dtd">
<svg version="1.1" id="Layer_1" xmlns="http://www.w3.org/2000/svg" xmlns:xlink="http://www.w3.org/1999/xlink" x="0px" y="0px"
	 width="48px" height="48px" viewBox="0 0 48 48" enable-background="new 0 0 48 48" xml:space="preserve">
<path fill="#414042" d="M41.102,28.861c0-2.377-1.935-4.312-4.313-4.312s-4.313,1.935-4.313,4.312c0,2.193,1.65,3.988,3.771,4.258
	c-0.688,3.662-2.171,6.254-4.42,7.692c-3.106,1.986-6.663,1.078-6.688,1.072c-7.129-2.077-7.292-8.126-7.296-8.376l0.009-7.927
	c1.329-0.058,3.759-0.384,5.746-1.86c2.298-1.704,3.224-3.849,3.238-3.891c1.323-2.378,0.905-8.436,0.888-8.656
	c0-1.057-0.35-1.885-1.04-2.46c-1.451-1.21-3.877-0.784-3.979-0.765c-0.02,0.003-0.035,0.016-0.054,0.021V5.399
	c0-0.276-0.224-0.5-0.5-0.5s-0.5,0.224-0.5,0.5v6.079c0,0.276,0.224,0.5,0.5,0.5s0.5-0.224,0.5-0.5V8.913
	c0.074,0.023,0.152,0.035,0.233,0.02c0.571-0.104,2.25-0.208,3.16,0.549c0.457,0.382,0.68,0.935,0.681,1.728
	c0.005,0.06,0.417,6.014-0.785,8.182c-0.009,0.02-0.868,1.992-2.938,3.527c-2.091,1.554-4.853,1.675-5.649,1.675
	c-0.002,0-0.003,0.001-0.005,0.001s-0.003-0.001-0.005-0.001c-0.797,0-3.561-0.121-5.649-1.675
	c-2.069-1.535-2.931-3.508-2.962-3.574c-1.177-2.119-0.765-8.075-0.759-8.17c0-0.756,0.222-1.309,0.678-1.69
	c1.089-0.91,3.141-0.555,3.163-0.551c0.05,0.009,0.098,0.002,0.146-0.004v2.55c0,0.276,0.224,0.5,0.5,0.5s0.5-0.224,0.5-0.5V5.399
	c0-0.276-0.224-0.5-0.5-0.5s-0.5,0.224-0.5,0.5v2.544c-0.226-0.04-2.538-0.406-3.947,0.77c-0.69,0.576-1.04,1.403-1.039,2.424
	c-0.019,0.257-0.438,6.314,0.86,8.645c0.038,0.09,0.966,2.234,3.263,3.938c1.991,1.48,4.429,1.803,5.755,1.86l-0.009,7.931
	c0.001,0.07,0.157,7.042,8.026,9.335c0.078,0.021,0.994,0.258,2.31,0.258c1.438,0,3.355-0.283,5.175-1.443
	c2.536-1.616,4.187-4.489,4.912-8.535C39.418,32.885,41.102,31.077,41.102,28.861z M36.789,32.174c-1.826,0-3.313-1.485-3.313-3.313
	c0-1.826,1.486-3.313,3.313-3.313s3.313,1.486,3.313,3.313C40.102,30.688,38.615,32.174,36.789,32.174z"/>
</svg>
