<?xml version="1.0" encoding="utf-8"?>
<!-- Generator: Adobe Illustrator 16.0.0, SVG Export Plug-In . SVG Version: 6.00 Build 0)  -->
<!DOCTYPE svg PUBLIC "-//W3C//DTD SVG 1.1//EN" "http://www.w3.org/Graphics/SVG/1.1/DTD/svg11.dtd">
<svg version="1.1" id="Layer_1" xmlns="http://www.w3.org/2000/svg" xmlns:xlink="http://www.w3.org/1999/xlink" x="0px" y="0px"
	 width="48px" height="48px" viewBox="0 0 48 48" enable-background="new 0 0 48 48" xml:space="preserve">
<path fill="#414042" d="M37.69,10.312c-1.532-1.533-3.569-2.377-5.737-2.377c-2.167,0-4.205,0.844-5.737,2.377l-7.95,7.948
	c-0.001,0.001-0.003,0.001-0.004,0.003s-0.001,0.003-0.003,0.004l-7.949,7.948c-3.164,3.164-3.164,8.312,0,11.475
	c1.532,1.533,3.569,2.377,5.737,2.377c2.167,0,4.205-0.844,5.737-2.377L37.69,21.784c1.533-1.532,2.377-3.569,2.377-5.736
	S39.224,11.844,37.69,10.312z M21.077,36.982c-1.344,1.344-3.13,2.084-5.03,2.084s-3.687-0.74-5.03-2.084
	c-2.773-2.773-2.773-7.286,0-10.061l7.6-7.598l10.061,10.06L21.077,36.982z M36.983,21.077l-7.6,7.6l-10.061-10.06l7.6-7.599
	c1.344-1.344,3.131-2.084,5.03-2.084c1.9,0,3.687,0.74,5.03,2.084c1.344,1.343,2.084,3.129,2.084,5.029S38.327,19.734,36.983,21.077
	z"/>
</svg>
