<?xml version="1.0" encoding="utf-8"?>
<!-- Generator: Adobe Illustrator 16.0.0, SVG Export Plug-In . SVG Version: 6.00 Build 0)  -->
<!DOCTYPE svg PUBLIC "-//W3C//DTD SVG 1.1//EN" "http://www.w3.org/Graphics/SVG/1.1/DTD/svg11.dtd">
<svg version="1.1" id="Layer_1" xmlns="http://www.w3.org/2000/svg" xmlns:xlink="http://www.w3.org/1999/xlink" x="0px" y="0px"
	 width="48px" height="48px" viewBox="0 0 48 48" enable-background="new 0 0 48 48" xml:space="preserve">
<g>
	<path fill="#414042" d="M41.381,7.227c-0.024-0.068-0.063-0.132-0.118-0.187c-0.048-0.048-0.097-0.095-0.146-0.14
		c-0.05-0.055-0.102-0.109-0.154-0.163c-0.056-0.056-0.121-0.096-0.191-0.12c-0.704-0.515-1.55-0.793-2.438-0.793c0,0,0,0-0.001,0
		c-1.106,0-2.148,0.432-2.932,1.216L15.281,27.159c-0.078,0.063-1.919,1.585-2.56,4.513c-0.087,0.682-0.379,1.779-0.796,2.121
		l-5.631,5.631c-0.626,0.628-0.626,1.65,0.002,2.281c0.314,0.313,0.728,0.47,1.141,0.469c0.413,0,0.826-0.156,1.14-0.471l5.667-5.67
		c0.303-0.377,1.402-0.668,2.13-0.764c2.882-0.633,4.401-2.474,4.43-2.514l20.158-20.155C42.423,11.139,42.563,8.848,41.381,7.227z
		 M13.503,35.363L7.87,40.996c-0.238,0.238-0.628,0.238-0.866,0.002c-0.238-0.24-0.238-0.63-0.001-0.869l5.447-5.445l0.145-0.15
		c0.298-0.24,0.52-0.624,0.685-1.028l1.211,1.21C14.096,34.874,13.727,35.084,13.503,35.363z M40.255,11.894L20.062,32.088
		c-0.013,0.017-1.358,1.646-3.857,2.197c-0.109,0.014-0.369,0.053-0.683,0.121c-0.024-0.069-0.059-0.136-0.115-0.191l-1.623-1.621
		c-0.056-0.056-0.122-0.091-0.191-0.114c0.065-0.301,0.103-0.544,0.114-0.638c0.555-2.527,2.19-3.894,2.244-3.941L36.106,7.747
		c0.595-0.595,1.385-0.923,2.225-0.923c0.001,0,0.001,0,0.001,0c0.771,0,1.499,0.276,2.073,0.782
		C41.479,8.841,41.428,10.72,40.255,11.894z"/>
	<path fill="#414042" d="M36.596,10.696l-1.899,1.899l-0.457-0.458c-0.195-0.195-0.512-0.195-0.707,0
		c-0.195,0.195-0.195,0.512,0,0.707l0.457,0.458l-4.299,4.299l-0.457-0.457c-0.195-0.194-0.512-0.195-0.707,0s-0.195,0.512,0,0.708
		l0.457,0.456l-4.299,4.299l-0.457-0.457c-0.195-0.195-0.512-0.195-0.707,0s-0.195,0.512,0,0.707l0.457,0.457l-4.297,4.297
		l-0.458-0.458c-0.195-0.195-0.512-0.195-0.707,0s-0.195,0.512,0,0.707l0.458,0.458l-2.024,2.024c-0.195,0.195-0.195,0.512,0,0.707
		c0.098,0.098,0.226,0.146,0.354,0.146s0.256-0.049,0.354-0.146l2.024-2.024l0.458,0.458c0.098,0.098,0.226,0.146,0.354,0.146
		s0.256-0.049,0.354-0.146c0.195-0.194,0.195-0.512,0-0.707l-0.458-0.458l4.298-4.297l0.458,0.458
		c0.098,0.098,0.226,0.146,0.354,0.146s0.256-0.049,0.354-0.146c0.195-0.195,0.195-0.512,0-0.707l-0.458-0.458l4.3-4.299
		l0.459,0.458c0.098,0.097,0.226,0.146,0.354,0.146s0.256-0.049,0.354-0.146c0.195-0.195,0.195-0.512,0-0.708l-0.458-0.458
		l4.298-4.298l0.458,0.458c0.098,0.098,0.226,0.146,0.354,0.146s0.256-0.049,0.354-0.146c0.195-0.195,0.195-0.512,0-0.707
		l-0.458-0.458l1.899-1.899c0.195-0.195,0.195-0.512,0-0.707S36.791,10.501,36.596,10.696z"/>
</g>
</svg>
