<?xml version="1.0" encoding="utf-8"?>
<!-- Generator: Adobe Illustrator 16.0.0, SVG Export Plug-In . SVG Version: 6.00 Build 0)  -->
<!DOCTYPE svg PUBLIC "-//W3C//DTD SVG 1.1//EN" "http://www.w3.org/Graphics/SVG/1.1/DTD/svg11.dtd">
<svg version="1.1" id="Layer_1" xmlns="http://www.w3.org/2000/svg" xmlns:xlink="http://www.w3.org/1999/xlink" x="0px" y="0px"
	 width="48px" height="48px" viewBox="0 0 48 48" enable-background="new 0 0 48 48" xml:space="preserve">
<g>
	<path fill="#414042" d="M29.278,34.632c-0.261-0.089-0.546,0.05-0.636,0.312c-1.7,4.98-6.383,8.326-11.649,8.326
		c-6.787,0-12.309-5.521-12.309-12.309c0-4.529,2.476-8.68,6.46-10.832c0.159-0.086,0.26-0.25,0.263-0.431l0.151-8.408
		c0.002-0.134-0.049-0.264-0.144-0.359c-0.094-0.096-0.223-0.149-0.356-0.149H7.941c-0.276,0-0.5,0.224-0.5,0.5s0.224,0.5,0.5,0.5
		h2.608l-0.138,7.611c-4.157,2.365-6.728,6.77-6.728,11.569c0,7.338,5.97,13.309,13.309,13.309c5.694,0,10.757-3.618,12.597-9.003
		C29.679,35.006,29.539,34.721,29.278,34.632z"/>
	<path fill="#414042" d="M44.296,37.496c-0.081-0.264-0.357-0.416-0.625-0.332l-6.839,2.091l-5.174-13.321
		c-0.074-0.192-0.26-0.318-0.466-0.318H19.344c-0.012,0-0.022,0-0.034,0c-2.173,0-2.475-2.675-2.49-2.818l-0.647-4.002h9.239
		c0.276,0,0.5-0.224,0.5-0.5s-0.224-0.5-0.5-0.5h-9.4l-0.951-5.882c0.855,0.822,2.011,1.333,3.288,1.333
		c2.624,0,4.759-2.135,4.759-4.76c0-2.623-2.135-4.756-4.759-4.756s-4.759,2.133-4.759,4.756c0,0.162,0.032,0.316,0.048,0.474
		c-0.026,0.076-0.042,0.157-0.027,0.242l2.219,13.723c0.127,1.282,1.018,3.689,3.473,3.689c0.017,0,0.033,0,0.05,0h11.5
		l5.218,13.435c0.076,0.196,0.265,0.319,0.466,0.319c0.049,0,0.098-0.008,0.146-0.022l7.283-2.227
		C44.228,38.039,44.376,37.76,44.296,37.496z M18.348,4.73c2.072,0,3.759,1.685,3.759,3.756c0,2.073-1.687,3.76-3.759,3.76
		s-3.759-1.687-3.759-3.76C14.589,6.416,16.275,4.73,18.348,4.73z"/>
</g>
</svg>
