<?xml version="1.0" encoding="utf-8"?>
<!-- Generator: Adobe Illustrator 16.0.0, SVG Export Plug-In . SVG Version: 6.00 Build 0)  -->
<!DOCTYPE svg PUBLIC "-//W3C//DTD SVG 1.1//EN" "http://www.w3.org/Graphics/SVG/1.1/DTD/svg11.dtd">
<svg version="1.1" id="Layer_1" xmlns="http://www.w3.org/2000/svg" xmlns:xlink="http://www.w3.org/1999/xlink" x="0px" y="0px"
	 width="48px" height="48px" viewBox="0 0 48 48" enable-background="new 0 0 48 48" xml:space="preserve">
<g>
	<path fill="#414042" d="M33.325,40.657V19.635c0-3.33-3.15-4.399-4.665-4.914c-0.25-0.085-0.463-0.156-0.54-0.182
		c-0.13-0.088-0.276-0.259-0.271-0.348c0.004-0.059,0.105-0.199,0.408-0.371h0.161c0.908,0,1.646-0.738,1.646-1.645
		c0-0.498-0.227-0.938-0.576-1.241V6.582c0-1.107-0.901-2.008-2.01-2.008h-6.961c-1.107,0-2.008,0.901-2.008,2.008v4.352
		c-0.351,0.302-0.578,0.744-0.578,1.242c0,0.885,0.705,1.604,1.583,1.638c0.282,0.203,0.394,0.373,0.392,0.467
		c-0.004,0.15-0.233,0.345-0.278,0.377c-1.229,0.314-4.966,1.271-4.966,4.977v21.023c0,0.901,0.253,1.609,0.752,2.104
		c0.646,0.639,1.448,0.664,1.568,0.664c0.003,0,0.006,0,0.008,0h13.438c1.03,0,1.81-0.297,2.318-0.88
		C33.46,41.727,33.33,40.657,33.325,40.657z M28.489,6.582v3.954c-0.023-0.001-0.046-0.007-0.07-0.007h-1.998V5.574h1.059
		C28.036,5.574,28.489,6.026,28.489,6.582z M22.718,10.529V5.574h2.703v4.955H22.718z M19.511,6.582
		c0-0.556,0.452-1.008,1.008-1.008h1.199v4.955h-2.139c-0.023,0-0.045,0.006-0.068,0.007V6.582z M18.933,12.176
		c0-0.356,0.29-0.646,0.646-0.646h8.84c0.356,0,0.646,0.29,0.646,0.646c0,0.355-0.29,0.645-0.646,0.645h-8.84
		C19.223,12.82,18.933,12.531,18.933,12.176z M19.922,15.615c0.042-0.011,0.082-0.027,0.119-0.048
		c0.086-0.048,0.841-0.49,0.866-1.253c0.005-0.17-0.039-0.334-0.105-0.494h6.12c-0.037,0.103-0.065,0.208-0.071,0.318
		c-0.038,0.718,0.641,1.185,0.791,1.274c0.173,0.077,0.414,0.159,0.697,0.255c1.491,0.506,3.986,1.354,3.986,3.967v0.604H15.663
		v-0.604C15.663,17.038,17.915,16.129,19.922,15.615z M31.993,41.889c-0.311,0.356-0.836,0.537-1.564,0.537H16.99
		c-0.222-0.002-1.327-0.098-1.327-1.768v-19.42h16.662l0.004,14.375H16.165c-0.276,0-0.5,0.223-0.5,0.5c0,0.275,0.224,0.5,0.5,0.5
		h16.164l0.001,4.113C32.331,40.732,32.411,41.409,31.993,41.889z"/>
	<path fill="#414042" d="M20.042,28.592h3.457v3.459c0,0.275,0.224,0.5,0.5,0.5s0.5-0.225,0.5-0.5v-3.459h3.459
		c0.276,0,0.5-0.225,0.5-0.5c0-0.277-0.224-0.5-0.5-0.5h-3.459v-3.455c0-0.276-0.224-0.5-0.5-0.5s-0.5,0.224-0.5,0.5v3.455h-3.457
		c-0.276,0-0.5,0.223-0.5,0.5C19.542,28.367,19.766,28.592,20.042,28.592z"/>
</g>
</svg>
