<?xml version="1.0" encoding="utf-8"?>
<!-- Generator: Adobe Illustrator 16.0.0, SVG Export Plug-In . SVG Version: 6.00 Build 0)  -->
<!DOCTYPE svg PUBLIC "-//W3C//DTD SVG 1.1//EN" "http://www.w3.org/Graphics/SVG/1.1/DTD/svg11.dtd">
<svg version="1.1" id="Layer_1" xmlns="http://www.w3.org/2000/svg" xmlns:xlink="http://www.w3.org/1999/xlink" x="0px" y="0px"
	 width="48px" height="48px" viewBox="0 0 48 48" enable-background="new 0 0 48 48" xml:space="preserve">
<g>
	<path fill="#414042" d="M32.599,40.375V21.083c0-2.75-1.355-5.322-3.532-6.926c0.588-0.252,1.001-0.835,1.001-1.514
		c0-0.498-0.228-0.938-0.578-1.24V7.052c0-1.108-0.9-2.01-2.008-2.01h-6.961c-1.108,0-2.01,0.901-2.01,2.01v4.353
		c-0.35,0.302-0.576,0.742-0.576,1.239c0,0.669,0.402,1.243,0.977,1.501c-2.195,1.608-3.52,4.173-3.52,6.938v19.292
		c0,0.84,0.236,1.5,0.702,1.961c0.604,0.598,1.356,0.621,1.469,0.621c0.003,0,0.005,0,0.007,0h12.332
		c0.957,0,1.683-0.275,2.156-0.82C32.723,41.373,32.603,40.375,32.599,40.375z M28.419,13.29h-8.838
		c-0.356,0-0.646-0.29-0.646-0.646c0-0.355,0.29-0.645,0.646-0.645h8.838c0.357,0,0.648,0.289,0.648,0.645
		C29.067,13,28.776,13.29,28.419,13.29z M19.511,7.052c0-0.557,0.453-1.01,1.01-1.01h6.961c0.556,0,1.008,0.453,1.008,1.01v3.954
		c-0.023-0.001-0.046-0.007-0.07-0.007h-8.838c-0.024,0-0.046,0.006-0.07,0.007V7.052z M31.298,41.486
		c-0.276,0.313-0.746,0.471-1.396,0.471H17.569c-0.196-0.002-1.178-0.09-1.178-1.582V21.083c0-2.794,1.529-5.357,3.992-6.689
		c0.049-0.027,0.088-0.065,0.125-0.104h6.888c2.554,1.282,4.202,3.934,4.202,6.793l0.004,19.357
		C31.604,40.447,31.675,41.061,31.298,41.486z"/>
	<path fill="#414042" d="M23.047,26.84h0.17c0.369,0,0.67-0.295,0.67-0.655s-0.301-0.654-0.67-0.654s-0.67,0.294-0.67,0.654v0.155
		C22.547,26.615,22.771,26.84,23.047,26.84z M23.047,25.889v0.451h0.465c-0.13,0.271-0.625,0.17-0.625-0.155
		C22.887,26.059,22.951,25.949,23.047,25.889z"/>
	<path fill="#414042" d="M20.863,26.981c-0.027,0.146-0.14,0.892,0.282,1.202c0.011,0.012,0.242,0.279,0.34,0.816
		c0.167,0.919,1.238,1.984,2.387,2.021c0.01,0,0.021,0,0.031,0c0.01,0,0.02,0,0.029,0c0.011,0,0.021,0,0.031,0
		c1.148-0.037,2.22-1.103,2.387-2.021c0.09-0.494,0.294-0.761,0.28-0.761c0,0,0,0-0.001,0.001c0.481-0.375,0.37-1.113,0.343-1.259
		c-0.025-0.138-0.117-0.239-0.228-0.312c0.992-1.268,0.24-2.833,0.205-2.902c-0.728-1.456-2.681-1.435-3.032-1.416
		c-0.354-0.018-2.304-0.041-3.031,1.413c-0.036,0.071-0.786,1.637,0.205,2.904C20.98,26.742,20.889,26.844,20.863,26.981z
		 M21.78,24.216c0.476-0.952,2.043-0.87,2.112-0.864c0.034,0.002,0.067,0.001,0.102-0.002c0.286-0.004,1.628-0.002,2.062,0.866
		c0.025,0.05,0.597,1.233-0.239,2.022c-0.123,0.115-0.165,0.277-0.144,0.433c-0.003,0.022-0.014,0.042-0.014,0.064
		c-0.001,0.06,0.008,0.37,0.24,0.606c0.025,0.025,0.055,0.052,0.09,0.078c-0.007,0.034-0.018,0.064-0.033,0.085
		c-0.045,0.048-0.438,0.487-0.59,1.316c-0.085,0.471-0.766,1.19-1.448,1.2c-0.671-0.01-1.365-0.74-1.448-1.2
		c-0.151-0.829-0.545-1.269-0.616-1.333c-0.007-0.014-0.012-0.036-0.015-0.063c0.038-0.028,0.07-0.057,0.098-0.084
		c0.232-0.236,0.241-0.547,0.24-0.606c0-0.023-0.01-0.045-0.014-0.067c0.021-0.154-0.021-0.314-0.144-0.43
		C21.185,25.449,21.756,24.266,21.78,24.216z"/>
	<path fill="#414042" d="M24.588,26.84h0.182c0.276,0,0.5-0.225,0.5-0.5v-0.165c0-0.366-0.306-0.665-0.682-0.665
		s-0.683,0.299-0.683,0.665S24.212,26.84,24.588,26.84z M24.77,26.34V25.9c0.082,0.061,0.136,0.16,0.136,0.274
		c0,0.311-0.46,0.416-0.595,0.165H24.77z"/>
	<path fill="#414042" d="M23.515,27.938c-0.234,0.234-0.246,0.616-0.023,0.871c0.05,0.057,0.138,0.113,0.229,0.153
		c0.07,0.037,0.15,0.058,0.234,0.058h0.01c0.092,0,0.179-0.024,0.253-0.068c0.086-0.041,0.168-0.096,0.213-0.148
		c0.221-0.258,0.209-0.629-0.029-0.868l-0.09-0.089c-0.188-0.184-0.52-0.184-0.706,0.002L23.515,27.938z"/>
	<path fill="#414042" d="M29.142,29.758c0.035-0.309,0.021-0.708-0.199-1.018c-0.128-0.182-0.374-0.401-0.818-0.417
		c-0.274-0.017-0.488,0.204-0.498,0.479s0.225,0.505,0.501,0.516c0.037,0.055,0.038,0.232,0.009,0.409l-4.218,2.357L19.7,29.728
		c-0.03-0.177-0.032-0.352-0.005-0.397c0,0,0.015-0.006,0.053-0.008c0.276-0.01,0.492-0.242,0.482-0.518s-0.239-0.508-0.518-0.481
		c-0.444,0.016-0.69,0.235-0.818,0.417c-0.22,0.31-0.234,0.709-0.199,1.018c-0.271,0.151-0.472,0.355-0.598,0.607
		c-0.25,0.499-0.091,0.98-0.071,1.033c0.072,0.205,0.266,0.332,0.471,0.332c0.056,0,0.112-0.009,0.168-0.029
		c0.26-0.092,0.396-0.378,0.303-0.639c0,0-0.034-0.135,0.024-0.25c0.045-0.09,0.139-0.151,0.24-0.201l3.661,2.047l-2.658,1.485
		c-0.272-0.139-0.306-0.317-0.265-0.458c0.087-0.258-0.048-0.537-0.305-0.63c-0.261-0.093-0.547,0.042-0.64,0.302
		c-0.02,0.054-0.179,0.534,0.07,1.033c0.126,0.253,0.326,0.457,0.599,0.609c-0.035,0.308-0.021,0.707,0.199,1.018
		c0.128,0.182,0.374,0.4,0.818,0.416c0.006,0,0.012,0,0.018,0c0.268,0,0.472-0.209,0.48-0.479c0.01-0.276-0.225-0.505-0.501-0.515
		c-0.038-0.055-0.038-0.232-0.009-0.41l3.218-1.799l3.217,1.798c0.026,0.175,0.019,0.355-0.046,0.406
		c-0.276,0.01-0.492,0.241-0.482,0.517c0.01,0.271,0.231,0.482,0.5,0.482c0.006,0,0.012,0,0.018,0
		c0.444-0.016,0.69-0.234,0.818-0.416c0.22-0.311,0.234-0.71,0.199-1.018c0.272-0.152,0.473-0.356,0.599-0.609
		c0.249-0.499,0.09-0.979,0.07-1.033c-0.091-0.254-0.364-0.383-0.626-0.299c-0.257,0.084-0.397,0.366-0.319,0.626
		c0.042,0.14,0.009,0.319-0.264,0.459l-2.658-1.485l3.658-2.045c0.272,0.139,0.307,0.318,0.268,0.449
		c-0.093,0.261,0.043,0.547,0.303,0.639c0.056,0.021,0.112,0.029,0.168,0.029c0.205,0,0.398-0.127,0.471-0.332
		c0.02-0.053,0.179-0.534-0.071-1.033C29.613,30.113,29.413,29.909,29.142,29.758z"/>
</g>
</svg>
