<?xml version="1.0" encoding="utf-8"?>
<!-- Generator: Adobe Illustrator 16.0.0, SVG Export Plug-In . SVG Version: 6.00 Build 0)  -->
<!DOCTYPE svg PUBLIC "-//W3C//DTD SVG 1.1//EN" "http://www.w3.org/Graphics/SVG/1.1/DTD/svg11.dtd">
<svg version="1.1" id="Layer_1" xmlns="http://www.w3.org/2000/svg" xmlns:xlink="http://www.w3.org/1999/xlink" x="0px" y="0px"
	 width="48px" height="48px" viewBox="0 0 48 48" enable-background="new 0 0 48 48" xml:space="preserve">
<g>
	<path fill="#414042" d="M36.363,7.321h-6.788c-0.038,0-0.071,0.014-0.107,0.021l-0.542-0.841c-0.092-0.143-0.25-0.229-0.42-0.229
		h-1.535c0.019-0.135,0.028-0.271,0.028-0.408c0-1.647-1.34-2.987-2.987-2.987s-2.987,1.34-2.987,2.987
		c0,0.136,0.01,0.272,0.028,0.408h-1.541c-0.169,0-0.327,0.085-0.419,0.228l-0.534,0.821H11.64c-1.145,0-2.076,0.931-2.076,2.076
		v33.65c0,1.145,0.932,2.076,2.076,2.076h24.724c1.144,0,2.073-0.932,2.073-2.076V9.397C38.437,8.252,37.507,7.321,36.363,7.321z
		 M19.783,7.272h1.914c0.165,0,0.319-0.081,0.412-0.217c0.094-0.136,0.113-0.309,0.055-0.462c-0.093-0.24-0.14-0.485-0.14-0.729
		c0-1.096,0.892-1.987,1.987-1.987s1.987,0.892,1.987,1.987c0,0.25-0.046,0.493-0.138,0.724c-0.061,0.154-0.042,0.328,0.052,0.465
		c0.093,0.137,0.247,0.219,0.413,0.219h1.907l1.854,2.876H17.915L19.783,7.272z M27.619,40.643l-0.042-5.178l5.808,0.039
		L27.619,40.643z M33.856,34.508l-6.779-0.047c-0.002,0-0.003,0-0.004,0c-0.133,0-0.26,0.053-0.354,0.146
		c-0.095,0.095-0.147,0.224-0.146,0.357l0.049,6.064H14.739c-0.374,0-0.678-0.305-0.678-0.678V11.827
		c0-0.374,0.304-0.679,0.678-0.679h2.886h12.753h2.801c0.374,0,0.678,0.305,0.678,0.679V34.508z M37.437,43.047
		c0,0.594-0.481,1.076-1.073,1.076H11.64c-0.594,0-1.076-0.482-1.076-1.076V9.397c0-0.593,0.482-1.076,1.076-1.076h6.27
		l-1.087,1.674c-0.03,0.045-0.032,0.101-0.045,0.153h-2.038c-0.925,0-1.678,0.753-1.678,1.679v28.525
		c0,0.926,0.753,1.678,1.678,1.678h12.387c0.007,0,0.015,0.001,0.02,0c0.042,0,0.078-0.014,0.117-0.023
		c0.037,0.009,0.074,0.023,0.112,0.023c0.118,0,0.237-0.042,0.333-0.127l6.981-6.219c0.154-0.139,0.203-0.351,0.14-0.536
		c0.013-0.045,0.027-0.089,0.027-0.137V11.827c0-0.926-0.753-1.679-1.678-1.679h-1.955c-0.014-0.052-0.016-0.106-0.045-0.152
		l-1.08-1.675h6.265c0.592,0,1.073,0.483,1.073,1.076V43.047z"/>
	<path fill="#414042" d="M29.66,23.979h-5.201V18.78c0-0.276-0.224-0.5-0.5-0.5s-0.5,0.224-0.5,0.5v5.198h-5.201
		c-0.276,0-0.5,0.224-0.5,0.5s0.224,0.5,0.5,0.5h5.201v5.201c0,0.276,0.224,0.5,0.5,0.5s0.5-0.224,0.5-0.5v-5.201h5.201
		c0.276,0,0.5-0.224,0.5-0.5S29.937,23.979,29.66,23.979z"/>
</g>
</svg>
