<?xml version="1.0" encoding="utf-8"?>
<!-- Generator: Adobe Illustrator 16.0.0, SVG Export Plug-In . SVG Version: 6.00 Build 0)  -->
<!DOCTYPE svg PUBLIC "-//W3C//DTD SVG 1.1//EN" "http://www.w3.org/Graphics/SVG/1.1/DTD/svg11.dtd">
<svg version="1.1" id="Layer_1" xmlns="http://www.w3.org/2000/svg" xmlns:xlink="http://www.w3.org/1999/xlink" x="0px" y="0px"
	 width="48px" height="48px" viewBox="0 0 48 48" enable-background="new 0 0 48 48" xml:space="preserve">
<path fill="#414042" d="M39.99,17.284h-9.273V8.003c0-2.149-1.75-3.898-3.901-3.898h-5.631c-2.154,0-3.907,1.749-3.907,3.898v9.281
	H8.004c-2.151,0-3.901,1.75-3.901,3.9v5.634c0,2.152,1.75,3.902,3.901,3.902h9.273v9.277c0,2.148,1.753,3.896,3.907,3.896h5.631
	c2.151,0,3.901-1.748,3.901-3.896v-9.277h9.273c2.154,0,3.907-1.75,3.907-3.902v-5.634C43.897,19.034,42.145,17.284,39.99,17.284z
	 M42.897,26.818c0,1.602-1.304,2.902-2.907,2.902h-9.773c-0.276,0-0.5,0.225-0.5,0.5v9.777c0,1.598-1.302,2.896-2.901,2.896h-5.631
	c-1.604,0-2.907-1.299-2.907-2.896v-9.777c0-0.275-0.224-0.5-0.5-0.5H8.004c-1.6,0-2.901-1.301-2.901-2.902v-5.634
	c0-1.599,1.302-2.9,2.901-2.9h9.773c0.276,0,0.5-0.224,0.5-0.5V8.003c0-1.598,1.304-2.898,2.907-2.898h5.631
	c1.6,0,2.901,1.3,2.901,2.898v9.781c0,0.276,0.224,0.5,0.5,0.5h9.773c1.604,0,2.907,1.301,2.907,2.9V26.818z"/>
</svg>
