<?xml version="1.0" encoding="utf-8"?>
<!-- Generator: Adobe Illustrator 16.0.0, SVG Export Plug-In . SVG Version: 6.00 Build 0)  -->
<!DOCTYPE svg PUBLIC "-//W3C//DTD SVG 1.1//EN" "http://www.w3.org/Graphics/SVG/1.1/DTD/svg11.dtd">
<svg version="1.1" id="Layer_1" xmlns="http://www.w3.org/2000/svg" xmlns:xlink="http://www.w3.org/1999/xlink" x="0px" y="0px"
	 width="48px" height="48px" viewBox="0 0 48 48" enable-background="new 0 0 48 48" xml:space="preserve">
<g>
	<path fill="#414042" d="M31.158,41.924V26.064c0-2.246-1.085-4.344-2.832-5.682c0.444-0.247,0.749-0.715,0.749-1.258
		c0-0.421-0.186-0.797-0.475-1.061v-3.537c0-0.96-0.78-1.742-1.739-1.742h-0.754V5.65c0-0.984-0.801-1.785-1.786-1.785h-0.643
		c-0.985,0-1.787,0.801-1.787,1.785v7.135H21.14c-0.96,0-1.74,0.782-1.74,1.742v3.536c-0.29,0.264-0.475,0.64-0.475,1.062
		c0,0.537,0.298,1.001,0.733,1.25c-1.761,1.345-2.824,3.435-2.824,5.69v15.859c0,0.716,0.203,1.279,0.605,1.676
		c0.519,0.514,1.166,0.535,1.267,0.535c0.003,0,0.006,0,0.008,0h10.137c0.814,0,1.434-0.238,1.841-0.706
		C31.262,42.773,31.166,41.947,31.158,41.924z M20.366,19.568c-0.243,0-0.441-0.199-0.441-0.443c0-0.243,0.198-0.441,0.441-0.441
		h7.266c0.244,0,0.443,0.198,0.443,0.441c0,0.244-0.199,0.443-0.443,0.443H20.366z M22.892,5.65c0-0.433,0.354-0.785,0.787-0.785
		h0.643c0.434,0,0.786,0.352,0.786,0.785v7.135h-2.216V5.65z M21.14,13.785h5.722c0.407,0,0.739,0.333,0.739,0.742v3.156h-7.201
		v-3.156C20.399,14.118,20.731,13.785,21.14,13.785z M29.938,42.771c-0.209,0.24-0.575,0.363-1.087,0.363H18.707
		c-0.004,0-0.327-0.012-0.565-0.246c-0.204-0.201-0.308-0.526-0.308-0.965V26.064c0-2.265,1.239-4.344,3.235-5.426
		c0.034-0.018,0.057-0.046,0.084-0.07h5.615c2.061,1.038,3.39,3.181,3.39,5.496l0.005,15.928
		C30.163,41.996,30.213,42.456,29.938,42.771z"/>
	<path fill="#414042" d="M27.254,30.479h-2.755v-2.752c0-0.277-0.224-0.5-0.5-0.5s-0.5,0.223-0.5,0.5v2.752h-2.752
		c-0.276,0-0.5,0.223-0.5,0.5c0,0.275,0.224,0.5,0.5,0.5h2.752v2.752c0,0.275,0.224,0.5,0.5,0.5s0.5-0.225,0.5-0.5v-2.752h2.755
		c0.276,0,0.5-0.225,0.5-0.5C27.754,30.701,27.53,30.479,27.254,30.479z"/>
</g>
</svg>
