<?xml version="1.0" encoding="utf-8"?>
<!-- Generator: Adobe Illustrator 16.0.0, SVG Export Plug-In . SVG Version: 6.00 Build 0)  -->
<!DOCTYPE svg PUBLIC "-//W3C//DTD SVG 1.1//EN" "http://www.w3.org/Graphics/SVG/1.1/DTD/svg11.dtd">
<svg version="1.1" id="Layer_1" xmlns="http://www.w3.org/2000/svg" xmlns:xlink="http://www.w3.org/1999/xlink" x="0px" y="0px"
	 width="48px" height="48px" viewBox="0 0 48 48" enable-background="new 0 0 48 48" xml:space="preserve">
<g>
	<path fill="#414042" d="M27.603,11.279h0.611c0.276,0,0.5-0.224,0.5-0.5s-0.224-0.5-0.5-0.5h-8.42c-0.276,0-0.5,0.224-0.5,0.5
		s0.224,0.5,0.5,0.5h0.438c-1.22,1.992-2.69,7.162-2.69,11.798v17.852c0,0.093,0.025,0.183,0.074,0.262
		c0.067,0.109,1.696,2.679,6.145,2.801c0.095,0.003,0.188,0.004,0.281,0.003c4.244,0,6.235-2.654,6.319-2.771
		c0.063-0.085,0.097-0.188,0.097-0.295V23.078C30.464,18.185,28.802,13.306,27.603,11.279z M29.458,40.751
		c-0.424,0.489-2.259,2.345-5.67,2.24c-3.431-0.093-4.912-1.772-5.246-2.219V23.077c0-5.674,2.12-11.166,2.813-11.684
		c0.065-0.026,0.12-0.066,0.167-0.114h4.885c0.732,0.761,3.058,6.042,3.05,11.798V40.751z"/>
	<path fill="#414042" d="M20.335,9.5c0.276,0,0.5-0.224,0.5-0.5V5.617c0-0.337,0.274-0.611,0.611-0.611h5.117
		c0.335,0,0.607,0.274,0.607,0.611V9c0,0.276,0.224,0.5,0.5,0.5s0.5-0.224,0.5-0.5V5.617c0-0.889-0.721-1.611-1.607-1.611h-5.117
		c-0.889,0-1.611,0.723-1.611,1.611V9C19.835,9.276,20.059,9.5,20.335,9.5z"/>
	<path fill="#414042" d="M24.503,25.739v-2.41c0-0.276-0.224-0.5-0.5-0.5s-0.5,0.224-0.5,0.5v2.41h-2.408
		c-0.276,0-0.5,0.224-0.5,0.5s0.224,0.5,0.5,0.5h2.408v2.408c0,0.276,0.224,0.5,0.5,0.5s0.5-0.224,0.5-0.5v-2.408h2.41
		c0.276,0,0.5-0.224,0.5-0.5s-0.224-0.5-0.5-0.5H24.503z"/>
</g>
</svg>
