<?xml version="1.0" encoding="utf-8"?>
<!-- Generator: Adobe Illustrator 16.0.0, SVG Export Plug-In . SVG Version: 6.00 Build 0)  -->
<!DOCTYPE svg PUBLIC "-//W3C//DTD SVG 1.1//EN" "http://www.w3.org/Graphics/SVG/1.1/DTD/svg11.dtd">
<svg version="1.1" id="Layer_1" xmlns="http://www.w3.org/2000/svg" xmlns:xlink="http://www.w3.org/1999/xlink" x="0px" y="0px"
	 width="48px" height="48px" viewBox="0 0 48 48" enable-background="new 0 0 48 48" xml:space="preserve">
<path fill="#414042" d="M35.729,39.25l-7.395-7.992l7.396-8.107c0.187-0.204,0.172-0.52-0.032-0.706
	c-0.203-0.186-0.52-0.172-0.706,0.032l-7.339,8.045L17.493,19.541h1.732c3.206,0,5.814-2.608,5.814-5.814
	c0-3.207-2.608-5.815-5.814-5.815h-6.586c-0.276,0-0.5,0.224-0.5,0.5v21.147c0,0.276,0.224,0.5,0.5,0.5s0.5-0.224,0.5-0.5V19.541
	h3.166c0.003,0.117,0.042,0.233,0.127,0.326l10.545,11.396l-7.287,7.989c-0.187,0.204-0.172,0.52,0.032,0.707
	c0.096,0.087,0.217,0.13,0.337,0.13c0.136,0,0.271-0.055,0.369-0.163l7.23-7.927l7.336,7.929c0.099,0.107,0.232,0.161,0.367,0.161
	c0.121,0,0.243-0.044,0.34-0.133C35.903,39.769,35.916,39.452,35.729,39.25z M13.139,8.911h6.086c2.654,0,4.814,2.16,4.814,4.815
	c0,2.655-2.16,4.814-4.814,4.814h-6.086V8.911z"/>
</svg>
