<?xml version="1.0" encoding="utf-8"?>
<!-- Generator: Adobe Illustrator 16.0.0, SVG Export Plug-In . SVG Version: 6.00 Build 0)  -->
<!DOCTYPE svg PUBLIC "-//W3C//DTD SVG 1.1//EN" "http://www.w3.org/Graphics/SVG/1.1/DTD/svg11.dtd">
<svg version="1.1" id="Layer_1" xmlns="http://www.w3.org/2000/svg" xmlns:xlink="http://www.w3.org/1999/xlink" x="0px" y="0px"
	 width="48px" height="48px" viewBox="0 0 48 48" enable-background="new 0 0 48 48" xml:space="preserve">
<path fill="#414042" d="M38.152,7.498c-0.669-1.566-1.764-2.632-3.205-3.148c-0.051-0.024-1.257-0.601-3.106-0.601
	c-1.938,0-4.821,0.652-7.777,3.643c-0.002,0.001-0.004,0.002-0.006,0.003c-0.008,0.006-0.049,0.043-0.083,0.073
	c-1.134-1.023-4.623-3.883-8.172-3.883c-0.903,0-1.754,0.188-2.527,0.56c-2.496,1.198-3.942,4.26-4.182,8.854
	c-0.356,6.837,2.114,15.543,4.982,17.869c-0.565,1.374-2.188,6.188-0.372,12.623c0.063,0.224,0.276,0.373,0.505,0.363
	c0.231-0.01,0.426-0.18,0.469-0.408c0.019-0.102,1.903-10.078,6.238-13.243c1.763-0.066,3.824,0.025,5.854,0.284l0.288,0.178
	c4.435,3.05,6.362,13.239,6.382,13.342c0.042,0.229,0.236,0.398,0.47,0.408c0.007,0.001,0.015,0.001,0.021,0.001
	c0.224,0,0.422-0.149,0.482-0.366c1.86-6.734,0.037-11.635-0.428-12.714C34.862,29.315,41.112,14.432,38.152,7.498z M33.928,41.638
	c-0.848-3.302-2.827-9.407-6.322-11.811l-0.4-0.248c-0.061-0.038-0.129-0.062-0.199-0.071c-1.674-0.217-3.324-0.327-4.906-0.327
	c-0.423,0-0.828,0.008-1.217,0.022c-0.138-0.032-0.277-0.004-0.393,0.075c-3.489,2.399-5.464,8.523-6.307,11.819
	c-1.044-5.988,0.939-10.133,0.962-10.178c0.114-0.232,0.033-0.512-0.187-0.647c-2.438-1.501-5.236-10.122-4.866-17.222
	c0.152-2.933,0.904-6.703,3.616-8.004c0.637-0.306,1.342-0.461,2.094-0.461c3.095,0,6.303,2.569,7.427,3.561
	c-0.733,0.688-1.76,1.712-2.266,2.497c-0.149,0.232-0.082,0.542,0.15,0.691c0.084,0.054,0.178,0.08,0.271,0.08
	c0.164,0,0.325-0.081,0.421-0.229c0.508-0.791,1.672-1.91,2.363-2.543c0.075-0.027,0.145-0.066,0.2-0.126
	c2.859-3.112,5.642-3.766,7.473-3.766c1.605,0,2.66,0.496,2.718,0.521c1.236,0.445,2.11,1.303,2.674,2.621
	c2.941,6.89-4.178,23.083-4.25,23.245c-0.06,0.135-0.057,0.289,0.008,0.422C33.012,31.602,34.94,35.678,33.928,41.638z"/>
</svg>
