<?xml version="1.0" encoding="utf-8"?>
<!-- Generator: Adobe Illustrator 16.0.0, SVG Export Plug-In . SVG Version: 6.00 Build 0)  -->
<!DOCTYPE svg PUBLIC "-//W3C//DTD SVG 1.1//EN" "http://www.w3.org/Graphics/SVG/1.1/DTD/svg11.dtd">
<svg version="1.1" id="Layer_1" xmlns="http://www.w3.org/2000/svg" xmlns:xlink="http://www.w3.org/1999/xlink" x="0px" y="0px"
	 width="48px" height="48px" viewBox="0 0 48 48" enable-background="new 0 0 48 48" xml:space="preserve">
<path fill="#414042" d="M36.774,44.39c-0.977-3.32-5.758-3.726-5.945-3.739c-2.248-0.244-3.789-0.932-4.578-2.044
	c-0.535-0.754-0.592-1.522-0.569-1.968h1.088c0.615,0,1.115-0.5,1.115-1.115v-1.665c0.142-0.169,0.236-0.378,0.236-0.614
	c0-0.189-0.068-0.355-0.163-0.505c1.207-0.843,1.937-2.209,1.937-3.718l-0.005-9.562c0.007-0.053,0.04-0.444-0.155-0.837
	c0.084-0.074,0.146-0.17,0.171-0.3c0.046-0.233-0.061-0.455-0.277-0.594c-0.655-0.785-2.439-2.813-3.778-3.325v-3.658
	c0-0.052-0.015-0.099-0.029-0.146h3.912c0.276,0,0.5-0.224,0.5-0.5s-0.224-0.5-0.5-0.5H12.205V3.469c0-0.276-0.224-0.5-0.5-0.5
	s-0.5,0.224-0.5,0.5v40.563c0,0.275,0.224,0.5,0.5,0.5s0.5-0.225,0.5-0.5V10.6h12.674c-0.015,0.047-0.029,0.094-0.029,0.146v3.608
	c-1.557,0.433-3.533,2.927-3.944,3.465c-0.066,0.087-0.103,0.194-0.103,0.304c0,0.117,0.038,0.28,0.2,0.427
	c-0.111,0.203-0.2,0.471-0.2,0.842v9.631c0,1.495,0.734,2.875,1.94,3.72c-0.093,0.149-0.161,0.314-0.161,0.503
	c0,0.235,0.095,0.443,0.234,0.611v1.668c0,0.615,0.5,1.115,1.115,1.115h0.75c-0.021,0.609,0.078,1.582,0.74,2.527
	c0.959,1.368,2.742,2.201,5.315,2.479c0.043,0.003,4.294,0.36,5.078,3.026c0.063,0.218,0.263,0.359,0.479,0.359
	c0.047,0,0.094-0.007,0.141-0.021C36.701,44.933,36.853,44.654,36.774,44.39z M22.143,18.85h6.154c0.171,0,0.397,0.026,0.509,0.149
	c0.11,0.123,0.093,0.329,0.089,0.392v5.975h-7.092v-5.975C21.803,18.956,21.991,18.856,22.143,18.85z M25.285,15.282
	c0.549,0,1.944,1.243,3.126,2.567h-0.113h-0.001h-6.135C23.176,16.64,24.583,15.282,25.285,15.282z M21.803,29.021v-2.656h7.092
	v2.656c0,1.369-0.767,2.592-2,3.191c-0.032,0.016-0.055,0.041-0.082,0.063h-2.993c-0.041-0.053-0.093-0.099-0.155-0.133
	C22.516,31.521,21.803,30.326,21.803,29.021z M23.816,35.523v-1.311h3.068v1.311c0,0.064-0.052,0.115-0.115,0.115h-2.838
	C23.869,35.639,23.816,35.586,23.816,35.523z"/>
</svg>
