<?xml version="1.0" encoding="utf-8"?>
<!-- Generator: Adobe Illustrator 16.0.0, SVG Export Plug-In . SVG Version: 6.00 Build 0)  -->
<!DOCTYPE svg PUBLIC "-//W3C//DTD SVG 1.1//EN" "http://www.w3.org/Graphics/SVG/1.1/DTD/svg11.dtd">
<svg version="1.1" id="Layer_1" xmlns="http://www.w3.org/2000/svg" xmlns:xlink="http://www.w3.org/1999/xlink" x="0px" y="0px"
	 width="48px" height="48px" viewBox="0 0 48 48" enable-background="new 0 0 48 48" xml:space="preserve">
<path fill="#414042" d="M40.203,39.459l-9.901-13.355V7.877h0.885c1.059,0,1.92-0.861,1.92-1.92c0-1.06-0.861-1.922-1.92-1.922
	H17.003c-1.059,0-1.92,0.862-1.92,1.922c0,1.059,0.861,1.92,1.92,1.92h0.695V25.98l-9.903,13.48
	c-0.063,0.086-0.097,0.189-0.097,0.297c0,2.319,1.888,4.207,4.209,4.207h24.188c2.319,0,4.207-1.888,4.207-4.207
	C40.302,39.65,40.268,39.546,40.203,39.459z M17.003,6.877c-0.507,0-0.92-0.413-0.92-0.92c0-0.508,0.413-0.922,0.92-0.922h14.184
	c0.507,0,0.92,0.414,0.92,0.922c0,0.507-0.413,0.92-0.92,0.92h-1.385c-0.276,0-0.5,0.224-0.5,0.5V17.1H18.698V7.377
	c0-0.276-0.224-0.5-0.5-0.5H17.003z M36.095,42.965H11.907c-1.716,0-3.122-1.354-3.205-3.049l9.899-13.477
	c0.063-0.086,0.097-0.189,0.097-0.295V18.1h10.604v8.17c0,0.107,0.034,0.211,0.099,0.297l9.897,13.351
	C39.214,41.611,37.81,42.965,36.095,42.965z"/>
</svg>
