<?xml version="1.0" encoding="utf-8"?>
<!-- Generator: Adobe Illustrator 16.0.0, SVG Export Plug-In . SVG Version: 6.00 Build 0)  -->
<!DOCTYPE svg PUBLIC "-//W3C//DTD SVG 1.1//EN" "http://www.w3.org/Graphics/SVG/1.1/DTD/svg11.dtd">
<svg version="1.1" id="Layer_1" xmlns="http://www.w3.org/2000/svg" xmlns:xlink="http://www.w3.org/1999/xlink" x="0px" y="0px"
	 width="48px" height="48px" viewBox="0 0 48 48" enable-background="new 0 0 48 48" xml:space="preserve">
<g>
	<path fill="#414042" d="M28.345,12.633c-0.579-0.556-1.567-0.536-2.121,0.041c-0.379,0.392-0.638,1.036-0.629,1.567
		c0.006,0.345,0.122,0.637,0.336,0.844l0.444,0.428L16.216,25.57c-0.472,0.497-0.456,1.285,0.036,1.758l4.626,4.453
		c0.232,0.222,0.538,0.344,0.86,0.344c0.336,0,0.663-0.139,0.887-0.371l10.164-10.07l0.455,0.438
		c0.216,0.207,0.52,0.316,0.877,0.316c0.554,0,1.216-0.271,1.574-0.644c0.28-0.289,0.43-0.67,0.422-1.072
		c-0.008-0.401-0.172-0.775-0.461-1.052L28.345,12.633z M34.976,21.101c-0.154,0.16-0.542,0.338-0.854,0.338
		c-0.118,0-0.173-0.027-0.184-0.037l-0.747-0.72c-0.014-0.018-0.028-0.034-0.045-0.051c-0.194-0.196-0.515-0.192-0.711,0.001
		l-10.521,10.42c-0.167,0.172-0.271,0.075-0.343,0.007l-4.625-4.451c-0.099-0.094-0.101-0.246-0.016-0.336l10.52-10.416
		c0.001-0.001,0.001-0.002,0.002-0.002c0.039-0.039,0.07-0.082,0.094-0.127v0v-0.001c-0.001,0.002,0.001,0,0.001-0.001l0.001-0.001
		v0c0-0.001,0.001-0.001,0.001-0.002c0,0,0,0,0,0v-0.001h0.001c0,0,0-0.001,0-0.001c0.089-0.185,0.055-0.412-0.1-0.566
		c-0.022-0.022-0.046-0.042-0.071-0.059l-0.752-0.727c-0.012-0.011-0.03-0.058-0.031-0.141c-0.005-0.292,0.176-0.677,0.349-0.856
		c0.186-0.193,0.517-0.199,0.709-0.014l7.312,7.038c0.097,0.092,0.151,0.216,0.153,0.35C35.12,20.876,35.07,21.003,34.976,21.101z"
		/>
	<path fill="#414042" d="M43.205,11.429l-7.312-7.035c-0.579-0.559-1.57-0.536-2.121,0.04l-0.146,0.144
		c-0.378,0.363-0.948,0.913-0.934,1.605c0.005,0.249,0.093,0.618,0.47,0.951l1.055,1.014l-3.009,3.128
		c-0.191,0.199-0.186,0.516,0.014,0.707l4.491,4.322c0.093,0.09,0.218,0.14,0.347,0.14c0.003,0,0.007,0,0.01,0
		c0.133-0.002,0.259-0.058,0.351-0.153l3.008-3.129l1.083,1.04c0.306,0.243,0.638,0.367,0.985,0.367
		c0.778,0,1.378-0.626,1.751-1.017c0.277-0.287,0.427-0.666,0.419-1.066C43.659,12.084,43.495,11.708,43.205,11.429z M42.474,12.915
		c-0.234,0.245-0.627,0.654-0.978,0.654c-0.118,0-0.237-0.049-0.328-0.119l-1.356-1.306c-0.014-0.018-0.029-0.035-0.046-0.05
		c-0.2-0.192-0.52-0.18-0.71,0.017l-3.01,3.127l-3.771-3.629l2.999-3.12c0.006-0.005,0.012-0.011,0.017-0.016
		c0.031-0.032,0.057-0.068,0.077-0.105c0.107-0.194,0.071-0.44-0.096-0.599c0,0,0,0,0,0v0c-0.008-0.007-0.017-0.014-0.024-0.021
		c-0.01-0.008-0.02-0.016-0.029-0.023l-1.378-1.325c-0.146-0.13-0.148-0.211-0.149-0.237c-0.005-0.255,0.407-0.651,0.628-0.864
		l0.174-0.171c0.184-0.194,0.512-0.201,0.707-0.013l7.312,7.035c0.098,0.094,0.152,0.22,0.155,0.355
		C42.669,12.637,42.62,12.763,42.474,12.915z"/>
	<path fill="#414042" d="M15.489,30.051c-0.19-0.183-0.488-0.186-0.682-0.01c-0.093,0.083-2.272,2.058-3.345,3.572l-3.427,5.572
		c-0.065,0.104-0.084,0.225-0.066,0.34l-3.499,3.656c-0.19,0.199-0.184,0.516,0.016,0.707c0.097,0.092,0.222,0.139,0.346,0.139
		c0.132,0,0.263-0.053,0.361-0.154l3.501-3.659c0.02,0.002,0.038,0.011,0.057,0.011c0.091,0,0.182-0.025,0.263-0.074l5.592-3.451
		c1.102-0.807,3.432-3.277,3.53-3.383c0.186-0.197,0.181-0.507-0.013-0.697L15.489,30.051z M14.049,35.871l-4.513,2.782l2.761-4.489
		c0.752-1.062,2.185-2.451,2.84-3.065l1.937,1.886C16.385,33.701,14.816,35.307,14.049,35.871z"/>
</g>
</svg>
