<?xml version="1.0" encoding="utf-8"?>
<!-- Generator: Adobe Illustrator 16.0.0, SVG Export Plug-In . SVG Version: 6.00 Build 0)  -->
<!DOCTYPE svg PUBLIC "-//W3C//DTD SVG 1.1//EN" "http://www.w3.org/Graphics/SVG/1.1/DTD/svg11.dtd">
<svg version="1.1" id="Layer_1" xmlns="http://www.w3.org/2000/svg" xmlns:xlink="http://www.w3.org/1999/xlink" x="0px" y="0px"
	 width="48px" height="48px" viewBox="0 0 48 48" enable-background="new 0 0 48 48" xml:space="preserve">
<g>
	<path fill="#414042" d="M15.582,35.88l-1.206,3.549c-0.052,0.152-0.026,0.321,0.067,0.452s0.245,0.209,0.406,0.209h9.357
		c0.166,0,0.322-0.084,0.415-0.221c0.093-0.139,0.11-0.314,0.048-0.469l-1.399-3.441h12.679c0.276,0,0.5-0.225,0.5-0.5V31.83
		c0-0.277-0.224-0.5-0.5-0.5H21.88c-0.052,0-2.848-0.018-4.616-1.826c-1.028-1.051-1.524-2.518-1.477-4.375
		c-0.002-0.227,0.036-5.434,6.945-6.268c0.135,0.81,0.573,2.363,2.006,3.45v3.293c0,0.275,0.224,0.5,0.5,0.5h2.678h0.16h2.678
		c0.276,0,0.5-0.225,0.5-0.5v-3.293c1.976-1.498,2.063-3.881,2.066-3.998v-7.809c0-0.346-0.123-0.642-0.357-0.857
		c-0.432-0.396-1.081-0.357-1.109-0.352h-0.6v-4.34c0-0.276-0.224-0.5-0.5-0.5h-2.678h-0.16h-2.678c-0.276,0-0.5,0.224-0.5,0.5
		v4.342L24.217,9.3c-0.071-0.01-0.709-0.094-1.156,0.292c-0.176,0.152-0.387,0.434-0.387,0.912v2.819
		c-2.353,0.176-12.286,1.508-12.65,11.412C9.834,29.924,11.805,33.867,15.582,35.88z M23.179,14.297
		c0.274-0.003,0.495-0.226,0.495-0.5v-3.293c0-0.055,0.007-0.125,0.039-0.154c0.068-0.061,0.257-0.073,0.43-0.055h1.096
		c0.276,0,0.5-0.224,0.5-0.5v-4.34h2.178h0.16h2.178v4.34c0,0.276,0.224,0.5,0.5,0.5l1.141-0.001
		c0.081-0.008,0.306,0.01,0.392,0.089c0.01,0.01,0.034,0.032,0.034,0.122v7.793c-0.001,0.021-0.091,2.155-1.847,3.343
		c-0.138,0.093-0.22,0.248-0.22,0.414v3.049h-2.178h-0.16h-2.178v-3.049c0-0.166-0.082-0.321-0.22-0.414
		c-1.754-1.188-1.845-3.322-1.845-3.343c-0.005-0.137-0.065-0.267-0.168-0.358c-0.102-0.091-0.235-0.139-0.375-0.125
		c-8.303,0.723-8.345,7.256-8.344,7.305c-0.056,2.127,0.54,3.84,1.769,5.092c2.08,2.119,5.168,2.117,5.327,2.119h13.566v2.629
		H22.527c-0.166,0-0.322,0.082-0.415,0.221c-0.093,0.138-0.11,0.313-0.048,0.467l1.399,3.443h-7.916l1.01-2.973
		c0.127-0.078,0.185-0.195,0.211-0.283c0.123-0.416-0.25-0.602-0.45-0.7c-3.646-1.803-5.478-5.386-5.295-10.361
		C11.399,14.548,22.698,14.302,23.179,14.297z"/>
	<path fill="#414042" d="M24.143,2.148h7.904c0.276,0,0.5-0.224,0.5-0.5s-0.224-0.5-0.5-0.5h-7.904c-0.276,0-0.5,0.224-0.5,0.5
		S23.866,2.148,24.143,2.148z"/>
	<path fill="#414042" d="M26.318,27.898c-0.276,0-0.5,0.223-0.5,0.5c0,0.275,0.224,0.5,0.5,0.5h3.193c0.276,0,0.5-0.225,0.5-0.5
		c0-0.277-0.224-0.5-0.5-0.5H26.318z"/>
	<path fill="#414042" d="M27.971,18.771c0.014,0,0.051,0,0.065-0.002c0.684-0.057,1.976-0.509,1.976-1.813v-3.021
		c0-0.276-0.224-0.5-0.5-0.5H26.32c-0.276,0-0.5,0.224-0.5,0.5l0.004,3.08C25.896,17.623,26.436,18.771,27.971,18.771z
		 M26.82,14.436h2.191v2.521c0,0.71-1.019,0.813-1.022,0.814l-0.019,0.5v-0.5c-0.98,0-1.134-0.731-1.15-0.814V14.436z"/>
	<path fill="#414042" d="M19.416,37.393c0.434,0,0.787-0.354,0.787-0.787c0-0.435-0.354-0.787-0.787-0.787s-0.787,0.353-0.787,0.787
		C18.629,37.039,18.982,37.393,19.416,37.393z M19.416,36.393c0.117,0,0.213,0.096,0.213,0.213c0,0.234-0.426,0.234-0.426,0
		C19.203,36.488,19.299,36.393,19.416,36.393z"/>
	<path fill="#414042" d="M37.49,42.346H13.525c-0.276,0-0.5,0.223-0.5,0.5v3.506c0,0.275,0.224,0.5,0.5,0.5H37.49
		c0.276,0,0.5-0.225,0.5-0.5v-3.506C37.99,42.568,37.767,42.346,37.49,42.346z M36.99,45.852H14.025v-2.506H36.99V45.852z"/>
</g>
</svg>
