<?xml version="1.0" encoding="utf-8"?>
<!-- Generator: Adobe Illustrator 16.0.0, SVG Export Plug-In . SVG Version: 6.00 Build 0)  -->
<!DOCTYPE svg PUBLIC "-//W3C//DTD SVG 1.1//EN" "http://www.w3.org/Graphics/SVG/1.1/DTD/svg11.dtd">
<svg version="1.1" id="Layer_1" xmlns="http://www.w3.org/2000/svg" xmlns:xlink="http://www.w3.org/1999/xlink" x="0px" y="0px"
	 width="48px" height="48px" viewBox="0 0 48 48" enable-background="new 0 0 48 48" xml:space="preserve">
<path fill="#414042" d="M45.236,15.154c-0.041-0.236-0.078-0.474-0.114-0.712c-0.081-0.529-0.165-1.076-0.298-1.616
	c-0.717-2.862-2.158-5.17-4.283-6.859c-1.373-1.094-2.875-1.78-4.463-2.038c-1.353-0.219-2.772-0.25-4.222-0.091
	c-1.456,0.161-2.795,0.592-3.981,1.282c-1.495,0.869-2.649,2.068-3.488,3.017L24,8.578c-0.265-0.301-0.524-0.596-0.79-0.884
	c-1.144-1.244-2.214-2.111-3.367-2.729c-1.239-0.666-2.596-1.049-4.149-1.171c-1.332-0.104-2.534-0.066-3.664,0.114
	c-1.9,0.302-3.638,1.163-5.164,2.561c-2.115,1.94-3.412,4.435-3.964,7.628c-0.049,0.286-0.089,0.574-0.13,0.861l-0.056,0.426v2.84
	c0,0.059,0.022,0.112,0.042,0.167c0.155,1.588,0.556,3.195,1.228,4.912l0,0c0,0,0,0,0,0.001c0.002,0.006,0.004,0.012,0.006,0.018
	c0,0,0,0.001,0.001,0.001c0.582,1.668,1.494,3.056,1.526,3.105l0.357,0.578c0.269,0.438,0.536,0.875,0.824,1.303
	c1.96,2.886,4.431,5.636,7.778,8.654c2.587,2.332,5.542,4.663,9.03,7.125c0.163,0.117,0.327,0.176,0.491,0.176
	c0.16,0,0.32-0.057,0.48-0.168c2.201-1.557,4.156-3.035,5.979-4.517c3.139-2.56,5.712-4.994,7.864-7.444
	c1.702-1.942,3.063-3.813,4.16-5.715c0.043-0.076,1.066-1.856,1.497-3.034c0.001-0.001,0.002-0.001,0.002-0.002
	c0.555-1.414,0.922-2.713,1.121-3.971l0.179-1.19v-2.84C45.284,15.334,45.25,15.2,45.236,15.154z M44.117,19.256
	c-0.188,1.185-0.535,2.417-1.064,3.762c-0.001,0.002,0,0.005-0.001,0.007c-0.001,0.002-0.002,0.003-0.003,0.004
	c-0.399,1.096-1.42,2.872-1.431,2.89c-1.063,1.846-2.387,3.663-4.045,5.555c-2.115,2.408-4.648,4.806-7.744,7.329
	c-1.774,1.443-3.679,2.884-5.828,4.406c-3.421-2.418-6.317-4.705-8.852-6.989c-3.286-2.964-5.708-5.656-7.62-8.473
	c-0.279-0.414-0.539-0.84-0.8-1.265L6.36,25.887c-0.009-0.014-0.892-1.357-1.43-2.911c-0.001-0.003-0.004-0.005-0.005-0.008
	c-0.001-0.003,0-0.007-0.002-0.011c-0.642-1.636-1.024-3.161-1.172-4.673c-0.007-0.059-0.021-0.11-0.036-0.154l-0.005-2.673
	l0.051-0.359c0.039-0.277,0.078-0.556,0.126-0.832c0.512-2.966,1.707-5.276,3.653-7.06c1.379-1.263,2.941-2.04,4.646-2.311
	c1.049-0.168,2.172-0.203,3.43-0.104c1.411,0.111,2.639,0.456,3.754,1.056c1.052,0.563,2.038,1.366,3.104,2.525
	c0.269,0.291,0.53,0.589,0.797,0.892l0.357,0.405c0.095,0.107,0.231,0.168,0.374,0.168h0.001c0.144,0,0.28-0.063,0.375-0.17
	l0.757-0.867c0.79-0.892,1.872-2.018,3.242-2.815c1.065-0.619,2.273-1.006,3.589-1.152c1.359-0.15,2.688-0.122,3.952,0.084
	c1.416,0.23,2.763,0.847,4,1.833c1.95,1.549,3.273,3.676,3.936,6.318c0.122,0.495,0.199,0.996,0.28,1.526
	c0.037,0.244,0.075,0.487,0.119,0.743c0.008,0.038,0.018,0.074,0.031,0.122l0.006,2.688L44.117,19.256z"/>
</svg>
