<?xml version="1.0" encoding="utf-8"?>
<!-- Generator: Adobe Illustrator 16.0.0, SVG Export Plug-In . SVG Version: 6.00 Build 0)  -->
<!DOCTYPE svg PUBLIC "-//W3C//DTD SVG 1.1//EN" "http://www.w3.org/Graphics/SVG/1.1/DTD/svg11.dtd">
<svg version="1.1" id="Layer_1" xmlns="http://www.w3.org/2000/svg" xmlns:xlink="http://www.w3.org/1999/xlink" x="0px" y="0px"
	 width="48px" height="48px" viewBox="0 0 48 48" enable-background="new 0 0 48 48" xml:space="preserve">
<path fill="#414042" d="M45.236,15.154c-0.04-0.231-0.075-0.463-0.111-0.696c-0.082-0.535-0.167-1.087-0.301-1.632
	c-0.716-2.862-2.157-5.17-4.283-6.86c-1.373-1.094-2.874-1.78-4.462-2.038c-1.353-0.22-2.772-0.25-4.223-0.091
	c-1.454,0.161-2.794,0.592-3.981,1.282c-1.495,0.869-2.649,2.068-3.489,3.017l-0.385,0.441c-0.265-0.301-0.524-0.596-0.79-0.885
	c-1.146-1.244-2.216-2.111-3.367-2.729c-1.239-0.666-2.596-1.049-4.149-1.171c-1.338-0.104-2.536-0.066-3.664,0.114
	C10.129,4.209,8.392,5.07,6.866,6.468c-2.115,1.94-3.412,4.435-3.964,7.628c-0.05,0.293-0.092,0.588-0.134,0.882l-0.053,0.405v2.84
	c0,0.059,0.022,0.112,0.043,0.167c0.153,1.584,0.555,3.19,1.227,4.912c0,0,0,0,0,0.001c0.001,0.003,0.002,0.006,0.004,0.01
	c0.001,0.003,0.002,0.006,0.003,0.009l0,0c0.583,1.668,1.496,3.057,1.528,3.105l0.343,0.556c0.272,0.445,0.546,0.891,0.839,1.326
	c1.96,2.886,4.431,5.636,7.778,8.654c2.581,2.327,5.536,4.658,9.029,7.125c0.163,0.117,0.327,0.176,0.491,0.176
	c0.16,0,0.32-0.057,0.48-0.168c2.199-1.556,4.155-3.033,5.98-4.517c3.142-2.563,5.714-4.997,7.864-7.444
	c1.7-1.94,3.061-3.81,4.159-5.715c0.043-0.075,1.054-1.834,1.489-3.012c0,0,0-0.001,0-0.001c0.003-0.007,0.006-0.014,0.008-0.021
	c0.001-0.001,0.002-0.001,0.002-0.002c0.556-1.417,0.923-2.716,1.122-3.971l0.149-0.966l0.028-3.063
	C45.284,15.338,45.248,15.198,45.236,15.154z M41.618,25.92c-1.064,1.848-2.388,3.666-4.044,5.555
	c-2.112,2.404-4.646,4.803-7.744,7.328c-1.777,1.445-3.682,2.886-5.829,4.407c-3.426-2.422-6.321-4.709-8.851-6.989
	c-3.286-2.964-5.708-5.656-7.62-8.474c-0.285-0.421-0.55-0.854-0.814-1.286l-0.354-0.574c-0.007-0.011-0.591-0.907-1.1-2.077
	c1.233,0.315,3.903,0.271,5.137,0.231c0.067-0.002,0.134-0.019,0.195-0.047c1.671-0.78,3.798-0.143,3.829-0.134
	c0.041,0.011,1.01,0.279,2.572,0.012c1.233-0.212,2.454-4.916,3.304-9.113l2.29,20.179c0.026,0.227,0.202,0.408,0.429,0.438
	c0.023,0.003,0.046,0.005,0.068,0.005c0.201,0,0.386-0.121,0.463-0.312c0.147-0.36,3.602-8.852,4.025-10.756
	c0.019-0.083,0.059-0.181,0.216-0.269c0.881-0.489,3.497,0.129,4.942,0.633c0.091,0.031,0.186,0.036,0.279,0.015l4.443-1.04
	c0.584,0.135,3.099,0.661,5.203,0.291C42.202,24.905,41.626,25.906,41.618,25.92z M44.118,19.256
	c-0.177,1.117-0.503,2.281-0.985,3.543c-2.153,0.683-5.521-0.137-5.556-0.146c-0.076-0.019-0.155-0.019-0.235-0.001l-4.419,1.033
	c-0.811-0.271-4.173-1.317-5.619-0.515c-0.374,0.209-0.617,0.528-0.706,0.926c-0.289,1.3-2.17,6.093-3.237,8.765l-2.442-21.519
	c-0.028-0.247-0.233-0.436-0.482-0.444c-0.24-0.01-0.466,0.169-0.507,0.414c-0.91,5.216-2.372,11.129-3.104,11.574
	c-1.312,0.226-2.117,0.015-2.118,0.015c-0.1-0.03-2.435-0.735-4.44,0.144C8.185,23.11,5.73,23.033,5.342,22.8
	c-0.148-0.109-0.333-0.117-0.492-0.05c-0.594-1.562-0.958-3.024-1.098-4.479c-0.008-0.054-0.021-0.102-0.036-0.143l-0.005-2.673
	l0.048-0.337c0.041-0.285,0.081-0.57,0.13-0.854c0.512-2.966,1.707-5.276,3.653-7.06c1.378-1.263,2.94-2.04,4.646-2.311
	c1.05-0.168,2.171-0.202,3.429-0.104c1.412,0.111,2.64,0.456,3.754,1.056c1.051,0.563,2.037,1.365,3.104,2.525
	c0.269,0.291,0.53,0.589,0.797,0.892l0.357,0.405c0.095,0.107,0.231,0.168,0.374,0.168c0.001,0,0.001,0,0.002,0
	c0.144,0,0.28-0.063,0.375-0.171l0.755-0.867c0.79-0.892,1.872-2.018,3.242-2.815c1.066-0.62,2.274-1.007,3.589-1.152
	c1.359-0.15,2.688-0.122,3.953,0.084c1.416,0.23,2.762,0.847,3.999,1.833c1.951,1.549,3.274,3.676,3.936,6.318
	c0.123,0.5,0.201,1.006,0.283,1.542c0.036,0.238,0.073,0.477,0.116,0.727c0.007,0.036,0.017,0.071,0.031,0.121l0.006,2.689
	L44.118,19.256z"/>
</svg>
