<?xml version="1.0" encoding="utf-8"?>
<!-- Generator: Adobe Illustrator 16.0.0, SVG Export Plug-In . SVG Version: 6.00 Build 0)  -->
<!DOCTYPE svg PUBLIC "-//W3C//DTD SVG 1.1//EN" "http://www.w3.org/Graphics/SVG/1.1/DTD/svg11.dtd">
<svg version="1.1" id="Layer_1" xmlns="http://www.w3.org/2000/svg" xmlns:xlink="http://www.w3.org/1999/xlink" x="0px" y="0px"
	 width="48px" height="48px" viewBox="0 0 48 48" enable-background="new 0 0 48 48" xml:space="preserve">
<g>
	<path fill="#414042" d="M35.675,19.147C29.858,11.14,24.483,2.612,24.43,2.527c-0.182-0.291-0.678-0.291-0.859,0
		c-0.054,0.085-5.429,8.613-11.245,16.621c-3.323,4.574-4.855,13.046-1.667,19.304c1.687,3.311,5.369,7.256,13.335,7.256h0.014
		c7.966,0,11.648-3.945,13.335-7.256C40.53,32.193,38.998,23.722,35.675,19.147z M36.45,37.997c-2.236,4.39-6.539,6.71-12.443,6.71
		h-0.014c-5.904,0-10.207-2.32-12.443-6.71c-3.015-5.916-1.563-13.931,1.584-18.262C18.036,12.986,22.624,5.872,24,3.715
		c1.376,2.157,5.964,9.271,10.866,16.021C38.013,24.066,39.465,32.081,36.45,37.997z"/>
	<path fill="#414042" d="M26.207,13.435c-0.091-0.146-0.259-0.234-0.431-0.234c-0.276,0-0.496,0.224-0.496,0.5
		c0,0.115,0.039,0.22,0.104,0.305c0.303,0.479,3.384,5.334,6.708,9.909c1.547,2.129,2.233,5.472,1.709,8.318
		c-0.281,1.525-1.047,3.625-3.098,4.961c-0.231,0.151-0.296,0.461-0.146,0.692c0.096,0.147,0.256,0.228,0.419,0.228
		c0.094,0,0.188-0.027,0.273-0.082c1.857-1.211,3.08-3.153,3.534-5.617c0.571-3.099-0.186-6.75-1.884-9.087
		C29.438,18.561,26.239,13.485,26.207,13.435z"/>
</g>
</svg>
