<?xml version="1.0" encoding="utf-8"?>
<!-- Generator: Adobe Illustrator 16.0.0, SVG Export Plug-In . SVG Version: 6.00 Build 0)  -->
<!DOCTYPE svg PUBLIC "-//W3C//DTD SVG 1.1//EN" "http://www.w3.org/Graphics/SVG/1.1/DTD/svg11.dtd">
<svg version="1.1" id="Layer_1" xmlns="http://www.w3.org/2000/svg" xmlns:xlink="http://www.w3.org/1999/xlink" x="0px" y="0px"
	 width="48px" height="48px" viewBox="0 0 48 48" enable-background="new 0 0 48 48" xml:space="preserve">
<path fill="#414042" d="M44.064,3.715c-0.051-0.123-0.148-0.22-0.271-0.271c-0.061-0.025-0.125-0.039-0.19-0.039H28.379
	c-0.276,0-0.5,0.224-0.5,0.5s0.224,0.5,0.5,0.5h14.017L24.447,22.354c-2.282-1.789-5.121-2.78-8.058-2.78
	c-3.727,0-7.197,1.58-9.522,4.333c-2.168,2.566-3.207,5.823-2.925,9.169s1.851,6.383,4.418,8.549
	c2.266,1.914,5.146,2.969,8.107,2.969c0.001,0,0.001,0,0.001,0c3.715,0,7.219-1.627,9.612-4.463
	c4.417-5.231,3.994-12.643-0.872-17.125L43.103,5.113v13.35c0,0.276,0.224,0.5,0.5,0.5s0.5-0.224,0.5-0.5V3.906
	C44.103,3.841,44.09,3.776,44.064,3.715z M25.317,39.486c-2.204,2.61-5.429,4.107-8.849,4.107h-0.001
	c-2.727,0-5.377-0.971-7.463-2.732c-2.362-1.994-3.807-4.789-4.066-7.869c-0.259-3.08,0.697-6.077,2.692-8.439
	c2.135-2.529,5.327-3.979,8.759-3.979c2.856,0,5.619,1.004,7.778,2.826C28.988,27.473,29.494,34.539,25.317,39.486z"/>
</svg>
