<?xml version="1.0" encoding="utf-8"?>
<!-- Generator: Adobe Illustrator 16.0.0, SVG Export Plug-In . SVG Version: 6.00 Build 0)  -->
<!DOCTYPE svg PUBLIC "-//W3C//DTD SVG 1.1//EN" "http://www.w3.org/Graphics/SVG/1.1/DTD/svg11.dtd">
<svg version="1.1" id="Layer_1" xmlns="http://www.w3.org/2000/svg" xmlns:xlink="http://www.w3.org/1999/xlink" x="0px" y="0px"
	 width="48px" height="48px" viewBox="0 0 48 48" enable-background="new 0 0 48 48" xml:space="preserve">
<path fill="#414042" d="M35.228,13.483c-0.253-2.999-1.658-5.72-3.958-7.662c-2.03-1.715-4.609-2.659-7.263-2.659
	c-3.329,0-6.47,1.457-8.615,3.998c-1.942,2.3-2.872,5.218-2.619,8.217s1.659,5.72,3.959,7.661c1.903,1.607,4.291,2.526,6.768,2.637
	v12.166H18.96c-0.276,0-0.5,0.223-0.5,0.5c0,0.275,0.224,0.5,0.5,0.5h4.539v5.496c0,0.275,0.224,0.5,0.5,0.5s0.5-0.225,0.5-0.5
	v-5.496h4.54c0.276,0,0.5-0.225,0.5-0.5c0-0.277-0.224-0.5-0.5-0.5h-4.54V25.67c3.139-0.14,6.073-1.559,8.109-3.972
	C34.551,19.399,35.481,16.482,35.228,13.483z M31.845,21.053c-1.956,2.316-4.816,3.645-7.85,3.645c-2.418,0-4.769-0.861-6.619-2.423
	c-2.096-1.77-3.376-4.249-3.607-6.981c-0.23-2.733,0.617-5.393,2.387-7.488c1.956-2.316,4.817-3.644,7.852-3.644
	c2.417,0,4.768,0.86,6.618,2.422c2.095,1.77,3.376,4.25,3.606,6.982C34.462,16.3,33.614,18.958,31.845,21.053z"/>
</svg>
