<?xml version="1.0" encoding="utf-8"?>
<!-- Generator: Adobe Illustrator 16.0.0, SVG Export Plug-In . SVG Version: 6.00 Build 0)  -->
<!DOCTYPE svg PUBLIC "-//W3C//DTD SVG 1.1//EN" "http://www.w3.org/Graphics/SVG/1.1/DTD/svg11.dtd">
<svg version="1.1" id="Layer_1" xmlns="http://www.w3.org/2000/svg" xmlns:xlink="http://www.w3.org/1999/xlink" x="0px" y="0px"
	 width="48px" height="48px" viewBox="0 0 48 48" enable-background="new 0 0 48 48" xml:space="preserve">
<g>
	<path fill="#414042" d="M32.953,32.785H13.454c-0.689,0-1.249,0.559-1.249,1.248c0,0.691,0.56,1.248,1.249,1.248h19.499
		c0.689,0,1.248-0.557,1.248-1.248C34.201,33.344,33.643,32.785,32.953,32.785z"/>
	<path fill="#414042" d="M13.461,17.102c-0.689,0-1.248,0.559-1.248,1.248c0,0.691,0.559,1.248,1.248,1.248h19.492
		c0.689,0,1.248-0.557,1.248-1.248c0-0.689-0.559-1.248-1.248-1.248H13.461z"/>
	<path fill="#414042" d="M13.466,27.205h19.485c0.689,0,1.25-0.559,1.25-1.248s-0.561-1.248-1.25-1.248H13.466
		c-0.689,0-1.248,0.559-1.248,1.248S12.776,27.205,13.466,27.205z"/>
	<path fill="#414042" d="M42.861,10.77c-0.013-0.029-0.037-0.049-0.051-0.074c-0.064-0.123-0.141-0.238-0.242-0.334
		c-0.006-0.006-0.008-0.014-0.016-0.021l-8.381-8.362c-0.006-0.005-0.079-0.096-0.084-0.102c-0.01-0.012-0.025-0.018-0.037-0.029
		c-0.084-0.091-0.186-0.158-0.293-0.221c-0.04-0.025-0.072-0.061-0.115-0.08c-0.155-0.068-0.324-0.111-0.506-0.111H7.171
		c-2.417,0-3.294,2.049-3.294,3.426l0.005,37.217c-0.015,0.158-0.119,1.582,0.846,2.643c0.427,0.469,1.22,1.029,2.574,1.029h31.846
		c0.014,0,0.027,0,0.041,0c1.518-0.049,3.777-1.094,3.777-3.771V11.268v-0.002C42.967,11.088,42.928,10.922,42.861,10.77z
		 M34.385,5.719l4.299,4.299h-4.299V5.719z M40.471,41.979c0,1.068-0.932,1.248-1.355,1.275H7.302c-0.24,0-0.562-0.037-0.723-0.207
		c-0.183-0.195-0.221-0.59-0.206-0.852V4.861c0-0.346,0.104-0.93,0.797-0.93h24.718v7.334c0,0.689,0.559,1.248,1.248,1.248h7.334
		V41.979z"/>
</g>
</svg>
