<?xml version="1.0" encoding="utf-8"?>
<!-- Generator: Adobe Illustrator 16.0.0, SVG Export Plug-In . SVG Version: 6.00 Build 0)  -->
<!DOCTYPE svg PUBLIC "-//W3C//DTD SVG 1.1//EN" "http://www.w3.org/Graphics/SVG/1.1/DTD/svg11.dtd">
<svg version="1.1" id="Layer_1" xmlns="http://www.w3.org/2000/svg" xmlns:xlink="http://www.w3.org/1999/xlink" x="0px" y="0px"
	 width="48px" height="48px" viewBox="0 0 48 48" enable-background="new 0 0 48 48" xml:space="preserve">
<g>
	<path fill="#414042" d="M30.359,30.964c0-0.625-0.508-1.132-1.133-1.132H11.538c-0.625,0-1.133,0.507-1.133,1.132
		c0,0.626,0.508,1.132,1.133,1.132h17.689C29.852,32.096,30.359,31.59,30.359,30.964z"/>
	<path fill="#414042" d="M29.177,15.604H11.544c-0.625,0-1.132,0.506-1.132,1.132s0.507,1.132,1.132,1.132h17.632
		c0.626,0,1.132-0.506,1.132-1.132S29.803,15.604,29.177,15.604z"/>
	<path fill="#414042" d="M29.172,22.505H11.548c-0.625,0-1.132,0.507-1.132,1.132c0,0.626,0.507,1.133,1.132,1.133h17.624
		c0.625,0,1.133-0.507,1.133-1.133C30.305,23.012,29.797,22.505,29.172,22.505z"/>
	<path fill="#414042" d="M43.068,36.385H39.15v-3.919c0-1.011-0.82-1.83-1.831-1.83s-1.831,0.819-1.831,1.83v3.919H31.57
		c-1.011,0-1.83,0.819-1.83,1.83s0.819,1.831,1.83,1.831h3.918v3.918c0,1.011,0.82,1.83,1.831,1.83s1.831-0.819,1.831-1.83v-3.918
		h3.918c1.011,0,1.83-0.82,1.83-1.831S44.079,36.385,43.068,36.385z"/>
	<path fill="#414042" d="M5.957,39.329c-0.218,0-0.51-0.034-0.656-0.188c-0.166-0.177-0.2-0.535-0.187-0.772V4.501
		c0-0.314,0.094-0.844,0.724-0.844h22.423v6.652c0,0.626,0.507,1.133,1.132,1.133h6.652v16.386c0.408-0.111,0.83-0.192,1.274-0.192
		c0.34,0,0.671,0.037,0.991,0.104V10.312c0-0.002,0-0.002,0-0.002c0-0.16-0.036-0.313-0.096-0.451
		c-0.012-0.025-0.033-0.043-0.046-0.066c-0.06-0.111-0.128-0.217-0.22-0.303c-0.006-0.005-0.008-0.012-0.014-0.02l-7.604-7.584
		c-0.005-0.007-0.072-0.087-0.076-0.094c-0.01-0.011-0.023-0.016-0.033-0.025c-0.076-0.084-0.168-0.144-0.266-0.2
		c-0.037-0.023-0.066-0.056-0.105-0.073c-0.141-0.063-0.295-0.1-0.459-0.1H5.838c-2.193,0-2.988,1.858-2.988,3.108l0.005,33.76
		c-0.014,0.145-0.108,1.436,0.767,2.397c0.388,0.427,1.107,0.935,2.335,0.935h22.17c-0.605-0.617-1.037-1.396-1.244-2.264H5.957z
		 M30.525,5.278l3.899,3.899h-3.899V5.278z"/>
</g>
</svg>
