<?xml version="1.0" encoding="utf-8"?>
<!-- Generator: Adobe Illustrator 16.0.0, SVG Export Plug-In . SVG Version: 6.00 Build 0)  -->
<!DOCTYPE svg PUBLIC "-//W3C//DTD SVG 1.1//EN" "http://www.w3.org/Graphics/SVG/1.1/DTD/svg11.dtd">
<svg version="1.1" id="Layer_1" xmlns="http://www.w3.org/2000/svg" xmlns:xlink="http://www.w3.org/1999/xlink" x="0px" y="0px"
	 width="48px" height="48px" viewBox="0 0 48 48" enable-background="new 0 0 48 48" xml:space="preserve">
<g>
	<path fill="#414042" d="M29.185,31.934h-17.69c-0.625,0-1.133,0.506-1.133,1.133c0,0.625,0.508,1.131,1.133,1.131h17.69
		c0.625,0,1.131-0.506,1.131-1.131C30.315,32.439,29.81,31.934,29.185,31.934z"/>
	<path fill="#414042" d="M29.185,17.704H11.5c-0.625,0-1.132,0.507-1.132,1.133s0.507,1.132,1.132,1.132h17.684
		c0.625,0,1.131-0.506,1.131-1.132S29.81,17.704,29.185,17.704z"/>
	<path fill="#414042" d="M29.183,24.604H11.505c-0.625,0-1.132,0.508-1.132,1.133c0,0.628,0.507,1.133,1.132,1.133h17.678
		c0.625,0,1.133-0.505,1.133-1.133C30.315,25.112,29.808,24.604,29.183,24.604z"/>
	<path fill="#414042" d="M44.015,38.641H32.519c-1.012,0-1.83,0.819-1.83,1.831c0,1.011,0.818,1.83,1.83,1.83h11.496
		c1.012,0,1.832-0.819,1.832-1.83C45.847,39.46,45.026,38.641,44.015,38.641z"/>
	<path fill="#414042" d="M5.913,41.43c-0.218,0-0.51-0.033-0.656-0.188c-0.166-0.176-0.2-0.535-0.187-0.772V6.601
		c0-0.315,0.094-0.844,0.723-0.844h22.424v6.654c0,0.625,0.508,1.131,1.133,1.131h6.652v22.099h2.266V12.411v0
		c0-0.162-0.037-0.314-0.098-0.452c-0.01-0.025-0.031-0.044-0.045-0.066c-0.059-0.113-0.127-0.217-0.219-0.304
		c-0.006-0.004-0.008-0.013-0.014-0.019l-7.605-7.584c-0.004-0.007-0.07-0.088-0.076-0.094c-0.008-0.011-0.023-0.015-0.033-0.025
		c-0.076-0.084-0.168-0.144-0.266-0.201c-0.035-0.023-0.064-0.056-0.105-0.073c-0.139-0.063-0.293-0.101-0.457-0.101H5.794
		c-2.193,0-2.988,1.858-2.988,3.109l0.005,33.761c-0.014,0.145-0.108,1.437,0.767,2.398c0.388,0.425,1.107,0.934,2.335,0.934h23.034
		c-0.569-0.631-0.987-1.4-1.162-2.265H5.913z M30.481,7.378l3.9,3.9h-3.9V7.378z"/>
</g>
</svg>
