<?xml version="1.0" encoding="utf-8"?>
<!-- Generator: Adobe Illustrator 16.0.0, SVG Export Plug-In . SVG Version: 6.00 Build 0)  -->
<!DOCTYPE svg PUBLIC "-//W3C//DTD SVG 1.1//EN" "http://www.w3.org/Graphics/SVG/1.1/DTD/svg11.dtd">
<svg version="1.1" id="Layer_1" xmlns="http://www.w3.org/2000/svg" xmlns:xlink="http://www.w3.org/1999/xlink" x="0px" y="0px"
	 width="48px" height="48px" viewBox="0 0 48 48" enable-background="new 0 0 48 48" xml:space="preserve">
<g>
	<path fill="#414042" d="M30.093,16.005H12.351c-0.627,0-1.135,0.509-1.135,1.137s0.508,1.136,1.135,1.136h17.742
		c0.627,0,1.136-0.508,1.136-1.136S30.72,16.005,30.093,16.005z"/>
	<path fill="#414042" d="M30.091,22.929H12.355c-0.628,0-1.136,0.51-1.136,1.136c0,0.628,0.508,1.138,1.136,1.138h17.735
		c0.628,0,1.138-0.51,1.138-1.138C31.229,23.438,30.719,22.929,30.091,22.929z"/>
	<path fill="#414042" d="M40.624,39.545l2.771-2.771c0.715-0.715,0.715-1.872-0.001-2.589c-0.714-0.714-1.873-0.715-2.588,0
		l-2.771,2.771l-2.771-2.771c-0.716-0.716-1.874-0.714-2.589,0.001c-0.715,0.716-0.716,1.873,0,2.588l2.771,2.771l-2.771,2.771
		c-0.715,0.715-0.715,1.875-0.001,2.588c0.716,0.716,1.875,0.716,2.59,0.001l2.771-2.771l2.771,2.771
		c0.714,0.715,1.874,0.715,2.589,0.001c0.715-0.715,0.714-1.875,0-2.59L40.624,39.545z"/>
	<path fill="#414042" d="M6.087,39.62c-0.166-0.178-0.2-0.536-0.188-0.774V4.865c0-0.315,0.095-0.846,0.727-0.846h22.498v6.675
		c0,0.627,0.508,1.135,1.136,1.135h6.675v19.864c0.153,0.12,0.312,0.231,0.451,0.371l0.649,0.649l0.649-0.649
		c0.162-0.161,0.343-0.294,0.522-0.43V10.695v-0.001v0c0-0.162-0.035-0.314-0.096-0.453c-0.012-0.025-0.034-0.044-0.047-0.066
		c-0.059-0.113-0.128-0.219-0.22-0.306c-0.006-0.004-0.008-0.013-0.015-0.019l-7.628-7.61c-0.006-0.006-0.072-0.088-0.077-0.092
		c-0.009-0.012-0.022-0.016-0.033-0.027c-0.076-0.083-0.169-0.144-0.267-0.2c-0.037-0.023-0.066-0.056-0.105-0.074
		c-0.141-0.063-0.295-0.101-0.46-0.101H6.626c-2.2,0-2.998,1.864-2.998,3.119l0.004,33.874c-0.014,0.145-0.107,1.439,0.771,2.405
		c0.389,0.428,1.11,0.938,2.343,0.938h22.664c0.229-0.689,0.599-1.341,1.146-1.888l0.386-0.385H6.745
		C6.526,39.81,6.233,39.775,6.087,39.62z M31.396,5.645l3.913,3.913h-3.913V5.645z"/>
	<path fill="#414042" d="M30.093,30.28H12.345c-0.627,0-1.137,0.509-1.137,1.137s0.51,1.136,1.137,1.136h17.748
		c0.026,0,0.048-0.014,0.073-0.015c0.125-0.162,0.243-0.328,0.39-0.475c0.201-0.201,0.422-0.373,0.65-0.533
		c0.004-0.039,0.022-0.074,0.022-0.113C31.229,30.789,30.72,30.28,30.093,30.28z"/>
</g>
</svg>
