<?xml version="1.0" encoding="utf-8"?>
<!-- Generator: Adobe Illustrator 16.0.0, SVG Export Plug-In . SVG Version: 6.00 Build 0)  -->
<!DOCTYPE svg PUBLIC "-//W3C//DTD SVG 1.1//EN" "http://www.w3.org/Graphics/SVG/1.1/DTD/svg11.dtd">
<svg version="1.1" id="Layer_1" xmlns="http://www.w3.org/2000/svg" xmlns:xlink="http://www.w3.org/1999/xlink" x="0px" y="0px"
	 width="48px" height="48px" viewBox="0 0 48 48" enable-background="new 0 0 48 48" xml:space="preserve">
<g>
	<path fill="#414042" d="M28.443,29.275H10.768c-0.625,0-1.132,0.508-1.132,1.132c0,0.625,0.507,1.131,1.132,1.131h17.676
		c0.625,0,1.132-0.506,1.132-1.131C29.575,29.783,29.068,29.275,28.443,29.275z"/>
	<path fill="#414042" d="M28.443,15.059H10.774c-0.625,0-1.131,0.507-1.131,1.132c0,0.625,0.506,1.131,1.131,1.131h17.669
		c0.625,0,1.132-0.506,1.132-1.131C29.575,15.566,29.068,15.059,28.443,15.059z"/>
	<path fill="#414042" d="M10.778,24.218h17.664c0.625,0,1.132-0.507,1.132-1.133c0-0.624-0.507-1.131-1.132-1.131H10.778
		c-0.625,0-1.131,0.507-1.131,1.131C9.647,23.711,10.153,24.218,10.778,24.218z"/>
	<path fill="#414042" d="M45.257,37.144c-0.06-0.181-0.216-0.312-0.404-0.34l-4.757-0.687l-2.123-4.299
		c-0.084-0.173-0.258-0.28-0.448-0.28h-0.001c-0.189,0-0.363,0.107-0.447,0.277l-2.133,4.302l-4.754,0.687
		c-0.189,0.028-0.346,0.159-0.404,0.34c-0.059,0.182-0.01,0.381,0.126,0.514l3.446,3.358l-0.812,4.729
		c-0.032,0.188,0.045,0.377,0.198,0.489c0.088,0.064,0.191,0.095,0.295,0.095c0.079,0,0.158-0.019,0.231-0.057l4.253-2.229
		l4.256,2.229c0.168,0.088,0.373,0.074,0.526-0.038s0.23-0.303,0.198-0.49l-0.818-4.729l3.445-3.357
		C45.267,37.524,45.315,37.325,45.257,37.144z"/>
	<path fill="#414042" d="M27.088,38.766H5.191c-0.218,0-0.509-0.034-0.655-0.188c-0.166-0.176-0.2-0.535-0.187-0.772V3.962
		c0-0.312,0.094-0.842,0.723-0.842h22.407v6.649c0,0.625,0.507,1.13,1.131,1.13h6.648V29.37c0.619-0.527,1.412-0.831,2.264-0.832
		V9.771V9.769c0-0.163-0.036-0.313-0.097-0.451c-0.011-0.026-0.032-0.043-0.045-0.067c-0.06-0.112-0.128-0.216-0.22-0.304
		c-0.006-0.005-0.008-0.013-0.014-0.019l-7.599-7.58c-0.005-0.006-0.071-0.087-0.075-0.092c-0.01-0.012-0.023-0.016-0.034-0.026
		c-0.076-0.083-0.167-0.144-0.265-0.2c-0.037-0.022-0.066-0.055-0.105-0.072c-0.141-0.063-0.294-0.102-0.459-0.102H5.072
		c-2.191,0-2.986,1.857-2.986,3.105l0.005,33.737c-0.014,0.144-0.108,1.434,0.767,2.396c0.387,0.426,1.106,0.934,2.333,0.934h23.881
		l-1.256-1.224C27.504,39.5,27.265,39.146,27.088,38.766z M29.741,4.739l3.897,3.897h-3.897V4.739z"/>
</g>
</svg>
