<?xml version="1.0" encoding="utf-8"?>
<!-- Generator: Adobe Illustrator 16.0.0, SVG Export Plug-In . SVG Version: 6.00 Build 0)  -->
<!DOCTYPE svg PUBLIC "-//W3C//DTD SVG 1.1//EN" "http://www.w3.org/Graphics/SVG/1.1/DTD/svg11.dtd">
<svg version="1.1" id="Layer_1" xmlns="http://www.w3.org/2000/svg" xmlns:xlink="http://www.w3.org/1999/xlink" x="0px" y="0px"
	 width="48px" height="48px" viewBox="0 0 48 48" enable-background="new 0 0 48 48" xml:space="preserve">
<g>
	<path fill="#414042" d="M29.014,29.885H11.337c-0.625,0-1.132,0.508-1.132,1.133s0.507,1.131,1.132,1.131h17.676
		c0.625,0,1.131-0.506,1.131-1.131S29.639,29.885,29.014,29.885z"/>
	<path fill="#414042" d="M29.014,15.668H11.344c-0.625,0-1.131,0.508-1.131,1.133c0,0.625,0.506,1.131,1.131,1.131h17.669
		c0.625,0,1.131-0.506,1.131-1.131C30.145,16.176,29.639,15.668,29.014,15.668z"/>
	<path fill="#414042" d="M11.348,24.828h17.664c0.625,0,1.133-0.508,1.133-1.133s-0.508-1.131-1.133-1.131H11.348
		c-0.625,0-1.131,0.506-1.131,1.131S10.723,24.828,11.348,24.828z"/>
	<path fill="#414042" d="M45.183,36.01H43.06v-1.197c0-2.717-2.21-4.928-4.927-4.928c-2.718,0-4.927,2.211-4.927,4.928v1.197h-2.21
		c-0.238,0-0.431,0.193-0.431,0.432v8.848c0,0.238,0.192,0.432,0.431,0.432h14.187c0.241,0,0.434-0.193,0.434-0.432v-8.848
		C45.616,36.203,45.424,36.01,45.183,36.01z M41.763,36.01h-7.26v-1.197c0-2.002,1.628-3.631,3.63-3.631
		c2.001,0,3.63,1.629,3.63,3.631V36.01z"/>
	<path fill="#414042" d="M5.105,39.188c-0.166-0.176-0.2-0.535-0.187-0.771V4.572c0-0.312,0.094-0.842,0.723-0.842h22.407v6.648
		c0,0.625,0.506,1.131,1.131,1.131h6.648v15.725c0.717-0.219,1.476-0.344,2.263-0.348V10.381v-0.002
		c0-0.162-0.036-0.313-0.097-0.451c-0.01-0.025-0.032-0.043-0.045-0.066c-0.059-0.114-0.128-0.217-0.22-0.304
		c-0.006-0.004-0.007-0.012-0.014-0.018l-7.599-7.58c-0.004-0.006-0.07-0.088-0.075-0.092c-0.009-0.012-0.023-0.016-0.034-0.027
		c-0.076-0.083-0.167-0.143-0.265-0.199c-0.036-0.024-0.065-0.055-0.105-0.073c-0.14-0.062-0.294-0.102-0.458-0.102H5.642
		c-2.191,0-2.986,1.857-2.986,3.105l0.005,33.736c-0.014,0.145-0.108,1.434,0.767,2.396c0.387,0.426,1.106,0.934,2.333,0.934h21.805
		v-2.264H5.761C5.543,39.375,5.251,39.342,5.105,39.188z M30.311,5.35l3.897,3.896h-3.897V5.35z"/>
</g>
</svg>
