<?xml version="1.0" encoding="utf-8"?>
<!-- Generator: Adobe Illustrator 16.0.0, SVG Export Plug-In . SVG Version: 6.00 Build 0)  -->
<!DOCTYPE svg PUBLIC "-//W3C//DTD SVG 1.1//EN" "http://www.w3.org/Graphics/SVG/1.1/DTD/svg11.dtd">
<svg version="1.1" id="Layer_1" xmlns="http://www.w3.org/2000/svg" xmlns:xlink="http://www.w3.org/1999/xlink" x="0px" y="0px"
	 width="48px" height="48px" viewBox="0 0 48 48" enable-background="new 0 0 48 48" xml:space="preserve">
<g>
	<path fill="#414042" d="M11.678,31.895h17.676c0.625,0,1.132-0.506,1.132-1.131s-0.507-1.131-1.132-1.131H11.678
		c-0.624,0-1.132,0.506-1.132,1.131S11.054,31.895,11.678,31.895z"/>
	<path fill="#414042" d="M29.354,15.416H11.685c-0.625,0-1.131,0.506-1.131,1.131s0.506,1.131,1.131,1.131h17.669
		c0.625,0,1.132-0.506,1.132-1.131S29.979,15.416,29.354,15.416z"/>
	<path fill="#414042" d="M11.688,24.575h17.664c0.625,0,1.132-0.506,1.132-1.133c0-0.624-0.507-1.131-1.132-1.131H11.688
		c-0.625,0-1.131,0.508-1.131,1.131C10.558,24.068,11.063,24.575,11.688,24.575z"/>
	<path fill="#414042" d="M44.166,40.262c-0.008-0.197-0.044-0.393-0.117-0.582c-0.035-0.086-0.092-0.156-0.139-0.234
		c-0.055-0.096-0.09-0.197-0.163-0.283l-3.385-3.955c-0.647-0.756-1.788-0.846-2.546-0.197c-0.758,0.646-0.846,1.789-0.197,2.547
		l0.836,0.975H30.77c-0.996,0-1.805,0.809-1.805,1.805c0,0.998,0.809,1.805,1.805,1.805h7.602l-0.733,0.83
		c-0.66,0.748-0.589,1.889,0.157,2.549c0.344,0.303,0.77,0.453,1.195,0.453c0.5,0,0.996-0.207,1.354-0.611l3.385-3.83
		c0.081-0.092,0.125-0.201,0.184-0.305c0.045-0.076,0.102-0.139,0.133-0.221c0.086-0.213,0.134-0.438,0.134-0.662
		c0-0.002,0.002-0.004,0.002-0.008C44.181,40.311,44.167,40.289,44.166,40.262z"/>
	<path fill="#414042" d="M6.101,39.123c-0.217,0-0.509-0.035-0.654-0.188c-0.166-0.178-0.2-0.535-0.188-0.773V4.318
		c0-0.312,0.094-0.841,0.723-0.841h22.407v6.647c0,0.625,0.507,1.131,1.131,1.131h6.648v21.259c0.668-0.486,1.443-0.793,2.264-0.889
		v-21.5v-0.002c0-0.162-0.036-0.313-0.097-0.451c-0.011-0.025-0.032-0.043-0.045-0.066c-0.06-0.111-0.128-0.217-0.22-0.303
		c-0.006-0.006-0.008-0.014-0.014-0.02l-7.599-7.58c-0.005-0.006-0.071-0.086-0.075-0.092c-0.01-0.012-0.023-0.016-0.034-0.025
		c-0.076-0.084-0.167-0.145-0.265-0.201c-0.037-0.021-0.066-0.055-0.105-0.072c-0.141-0.063-0.294-0.102-0.459-0.102H5.981
		c-2.19,0-2.985,1.857-2.985,3.105l0.005,33.736c-0.014,0.145-0.107,1.436,0.767,2.396c0.388,0.426,1.106,0.934,2.333,0.934h19.987
		c-0.076-0.338-0.123-0.688-0.123-1.049c0-0.422,0.072-0.824,0.175-1.213H6.101z M30.651,5.096l3.897,3.898h-3.897V5.096z"/>
</g>
</svg>
