<?xml version="1.0" encoding="utf-8"?>
<!-- Generator: Adobe Illustrator 16.0.0, SVG Export Plug-In . SVG Version: 6.00 Build 0)  -->
<!DOCTYPE svg PUBLIC "-//W3C//DTD SVG 1.1//EN" "http://www.w3.org/Graphics/SVG/1.1/DTD/svg11.dtd">
<svg version="1.1" id="Layer_1" xmlns="http://www.w3.org/2000/svg" xmlns:xlink="http://www.w3.org/1999/xlink" x="0px" y="0px"
	 width="48px" height="48px" viewBox="0 0 48 48" enable-background="new 0 0 48 48" xml:space="preserve">
<g>
	<path fill="#414042" d="M30.438,30.764c0-0.625-0.507-1.131-1.132-1.131H11.631c-0.625,0-1.132,0.506-1.132,1.131
		s0.507,1.131,1.132,1.131h17.676C29.932,31.895,30.438,31.389,30.438,30.764z"/>
	<path fill="#414042" d="M29.307,15.416H11.638c-0.625,0-1.132,0.506-1.132,1.131s0.507,1.131,1.132,1.131h17.669
		c0.625,0,1.132-0.506,1.132-1.131S29.932,15.416,29.307,15.416z"/>
	<path fill="#414042" d="M29.306,22.311H11.642c-0.625,0-1.132,0.508-1.132,1.131c0,0.626,0.507,1.133,1.132,1.133h17.664
		c0.625,0,1.132-0.506,1.132-1.133C30.438,22.818,29.931,22.311,29.306,22.311z"/>
	<path fill="#414042" d="M43.328,38.531h-7.686l0.836-0.975c0.648-0.758,0.561-1.9-0.197-2.547
		c-0.758-0.648-1.898-0.559-2.546,0.197l-3.385,3.955c-0.073,0.086-0.108,0.188-0.163,0.283c-0.047,0.078-0.104,0.148-0.139,0.234
		c-0.073,0.189-0.109,0.385-0.117,0.582c-0.001,0.027-0.015,0.049-0.015,0.074c0,0.004,0.002,0.006,0.002,0.008
		c0,0.225,0.048,0.449,0.134,0.662c0.031,0.082,0.088,0.145,0.133,0.221c0.059,0.104,0.103,0.213,0.184,0.305l3.385,3.83
		c0.357,0.404,0.854,0.611,1.354,0.611c0.426,0,0.852-0.15,1.195-0.453c0.746-0.66,0.817-1.801,0.157-2.549l-0.733-0.83h7.602
		c0.996,0,1.805-0.807,1.805-1.805C45.133,39.34,44.324,38.531,43.328,38.531z"/>
	<path fill="#414042" d="M26.952,39.869c0.024-0.254,0.073-0.502,0.137-0.746H6.055c-0.219,0-0.51-0.035-0.656-0.188
		c-0.165-0.178-0.199-0.535-0.186-0.773V4.318c0-0.312,0.094-0.841,0.723-0.841h22.406v6.647c0,0.625,0.507,1.131,1.131,1.131h6.648
		v20.441c0.772,0.168,1.501,0.512,2.107,1.031c0.057,0.049,0.102,0.107,0.156,0.158v-22.76v-0.002c0-0.162-0.036-0.313-0.097-0.451
		c-0.011-0.025-0.032-0.043-0.045-0.066c-0.06-0.111-0.128-0.217-0.22-0.303c-0.006-0.006-0.008-0.014-0.014-0.02l-7.599-7.58
		c-0.005-0.006-0.071-0.086-0.075-0.092c-0.01-0.012-0.023-0.016-0.034-0.025c-0.076-0.084-0.167-0.145-0.265-0.201
		C30,1.365,29.971,1.332,29.932,1.314c-0.141-0.063-0.294-0.102-0.459-0.102H5.936c-2.191,0-2.986,1.857-2.986,3.105l0.005,33.736
		c-0.014,0.145-0.108,1.436,0.767,2.396c0.387,0.426,1.105,0.934,2.334,0.934h20.999c-0.015-0.066-0.045-0.133-0.058-0.199
		l-0.079-0.164v-0.686C26.917,40.18,26.929,40.023,26.952,39.869z M30.604,5.096l3.897,3.898h-3.897V5.096z"/>
</g>
</svg>
