<?xml version="1.0" encoding="utf-8"?>
<!-- Generator: Adobe Illustrator 16.0.0, SVG Export Plug-In . SVG Version: 6.00 Build 0)  -->
<!DOCTYPE svg PUBLIC "-//W3C//DTD SVG 1.1//EN" "http://www.w3.org/Graphics/SVG/1.1/DTD/svg11.dtd">
<svg version="1.1" id="Layer_1" xmlns="http://www.w3.org/2000/svg" xmlns:xlink="http://www.w3.org/1999/xlink" x="0px" y="0px"
	 width="48px" height="48px" viewBox="0 0 48 48" enable-background="new 0 0 48 48" xml:space="preserve">
<g>
	<path fill="#414042" d="M28.843,34.724H11.167c-0.625,0-1.132,0.506-1.132,1.131c0,0.626,0.507,1.132,1.132,1.132h17.676
		c0.625,0,1.132-0.506,1.132-1.132C29.975,35.229,29.468,34.724,28.843,34.724z"/>
	<path fill="#414042" d="M11.174,20.507c-0.625,0-1.132,0.506-1.132,1.131s0.507,1.131,1.132,1.131h17.669
		c0.625,0,1.132-0.506,1.132-1.131s-0.507-1.131-1.132-1.131H11.174z"/>
	<path fill="#414042" d="M11.178,29.665h17.664c0.625,0,1.132-0.506,1.132-1.133c0-0.623-0.507-1.13-1.132-1.13H11.178
		c-0.625,0-1.132,0.507-1.132,1.13C10.046,29.159,10.553,29.665,11.178,29.665z"/>
	<path fill="#414042" d="M44.404,9.171c-0.011-0.025-0.032-0.043-0.045-0.066c-0.06-0.111-0.128-0.217-0.22-0.303
		c-0.006-0.005-0.008-0.013-0.014-0.019l-7.599-7.58c-0.005-0.006-0.071-0.087-0.075-0.093c-0.01-0.011-0.023-0.016-0.034-0.025
		c-0.076-0.084-0.167-0.143-0.265-0.2c-0.037-0.022-0.066-0.056-0.105-0.073c-0.141-0.063-0.294-0.101-0.459-0.101H12.052
		c-2.191,0-2.986,1.857-2.986,3.105l0.001,2.488H5.472c-2.191,0-2.986,1.857-2.986,3.106L2.49,43.146
		c-0.014,0.145-0.108,1.436,0.767,2.396c0.387,0.427,1.105,0.934,2.334,0.934H34.46c0.012,0,0.023,0,0.035,0
		c1.377-0.044,3.426-0.992,3.426-3.418v-2.176h3.119c0.012,0,0.023,0,0.035,0c1.377-0.044,3.426-0.992,3.426-3.418V9.624V9.623v0
		C44.501,9.461,44.465,9.31,44.404,9.171z M36.721,4.594l3.897,3.897h-3.897V4.594z M35.657,43.058c0,0.969-0.844,1.131-1.229,1.156
		H5.591c-0.219,0-0.51-0.034-0.656-0.188c-0.165-0.177-0.199-0.535-0.186-0.772V9.411c0-0.314,0.094-0.843,0.723-0.843h22.406v6.649
		c0,0.625,0.507,1.13,1.131,1.13h6.648V43.058z M30.141,14.085v-3.897l3.897,3.897H30.141z M42.237,37.464
		c0,0.97-0.844,1.131-1.229,1.156h-3.088V15.218v-0.001v0c0-0.162-0.036-0.313-0.097-0.451c-0.011-0.026-0.032-0.043-0.045-0.066
		c-0.06-0.112-0.128-0.217-0.22-0.303c-0.006-0.005-0.008-0.013-0.014-0.02l-7.599-7.579c-0.005-0.006-0.071-0.087-0.075-0.093
		c-0.01-0.01-0.023-0.016-0.034-0.025c-0.076-0.084-0.167-0.144-0.265-0.2c-0.037-0.022-0.066-0.056-0.105-0.073
		c-0.141-0.063-0.294-0.101-0.459-0.101h-17.68V3.816c0-0.313,0.094-0.843,0.723-0.843h22.406v6.648
		c0,0.625,0.507,1.131,1.131,1.131h6.648V37.464z"/>
</g>
</svg>
