<?xml version="1.0" encoding="utf-8"?>
<!-- Generator: Adobe Illustrator 16.0.0, SVG Export Plug-In . SVG Version: 6.00 Build 0)  -->
<!DOCTYPE svg PUBLIC "-//W3C//DTD SVG 1.1//EN" "http://www.w3.org/Graphics/SVG/1.1/DTD/svg11.dtd">
<svg version="1.1" id="Layer_1" xmlns="http://www.w3.org/2000/svg" xmlns:xlink="http://www.w3.org/1999/xlink" x="0px" y="0px"
	 width="48px" height="48px" viewBox="0 0 48 48" enable-background="new 0 0 48 48" xml:space="preserve">
<g>
	<path fill="#414042" d="M11.978,34.059h18.936c0.669,0,1.211-0.541,1.211-1.213c0-0.67-0.542-1.211-1.211-1.211H11.978
		c-0.669,0-1.212,0.541-1.212,1.211C10.766,33.518,11.309,34.059,11.978,34.059z"/>
	<path fill="#414042" d="M30.914,16.404H11.985c-0.669,0-1.211,0.541-1.211,1.211c0,0.672,0.542,1.213,1.211,1.213h18.929
		c0.67,0,1.211-0.541,1.211-1.213C32.125,16.945,31.584,16.404,30.914,16.404z"/>
	<path fill="#414042" d="M11.99,26.217h18.922c0.67,0,1.213-0.545,1.213-1.213c0-0.67-0.543-1.213-1.213-1.213H11.99
		c-0.67,0-1.212,0.543-1.212,1.213C10.777,25.672,11.32,26.217,11.99,26.217z"/>
	<path fill="#414042" d="M6.004,41.801c-0.233,0-0.545-0.037-0.701-0.201c-0.178-0.189-0.214-0.574-0.2-0.828V4.518
		c0-0.336,0.101-0.902,0.774-0.902H29.88v7.122c0,0.669,0.542,1.212,1.212,1.212h7.121v17.213c0.686-0.443,1.723-0.404,2.424,0.088
		V10.738v-0.001c0-0.172-0.037-0.334-0.102-0.482c-0.012-0.028-0.035-0.047-0.049-0.071c-0.063-0.121-0.138-0.232-0.236-0.326
		c-0.006-0.004-0.008-0.012-0.014-0.02l-8.141-8.119c-0.004-0.006-0.076-0.094-0.08-0.1c-0.01-0.012-0.025-0.015-0.036-0.027
		c-0.082-0.09-0.181-0.154-0.284-0.215c-0.039-0.025-0.07-0.059-0.113-0.078c-0.15-0.066-0.314-0.107-0.49-0.107H5.876
		c-2.347,0-3.199,1.988-3.199,3.326l0.005,36.141c-0.015,0.154-0.116,1.535,0.821,2.566c0.415,0.455,1.185,1,2.5,1h26.896
		l-0.001-2.424H6.004z M32.304,5.352l4.175,4.173h-4.175V5.352z"/>
	<path fill="#414042" d="M44.977,36.664l-4.736-4.305c-0.572-0.52-1.445-0.52-2.018,0l-4.734,4.305
		c-0.613,0.557-0.658,1.506-0.101,2.119s1.507,0.658,2.118,0.102l2.227-2.023v8.848c0,0.828,0.672,1.5,1.5,1.5
		c0.829,0,1.5-0.672,1.5-1.5v-8.848l2.227,2.023c0.287,0.26,0.648,0.389,1.008,0.389c0.408,0,0.814-0.164,1.11-0.49
		C45.635,38.17,45.59,37.221,44.977,36.664z"/>
</g>
</svg>
