<?xml version="1.0" encoding="utf-8"?>
<!-- Generator: Adobe Illustrator 16.0.0, SVG Export Plug-In . SVG Version: 6.00 Build 0)  -->
<!DOCTYPE svg PUBLIC "-//W3C//DTD SVG 1.1//EN" "http://www.w3.org/Graphics/SVG/1.1/DTD/svg11.dtd">
<svg version="1.1" id="Layer_1" xmlns="http://www.w3.org/2000/svg" xmlns:xlink="http://www.w3.org/1999/xlink" x="0px" y="0px"
	 width="48px" height="48px" viewBox="0 0 48 48" enable-background="new 0 0 48 48" xml:space="preserve">
<g>
	<path fill="#414042" d="M30.824,30.803H11.888c-0.669,0-1.212,0.541-1.212,1.211c0,0.672,0.543,1.213,1.212,1.213h18.936
		c0.669,0,1.211-0.541,1.211-1.213C32.035,31.344,31.493,30.803,30.824,30.803z"/>
	<path fill="#414042" d="M30.824,15.572H11.895c-0.669,0-1.211,0.541-1.211,1.211c0,0.672,0.542,1.213,1.211,1.213h18.929
		c0.67,0,1.211-0.541,1.211-1.213C32.035,16.113,31.494,15.572,30.824,15.572z"/>
	<path fill="#414042" d="M11.9,25.385h18.922c0.67,0,1.213-0.545,1.213-1.213c0-0.67-0.543-1.213-1.213-1.213H11.9
		c-0.67,0-1.212,0.543-1.212,1.213C10.688,24.84,11.23,25.385,11.9,25.385z"/>
	<path fill="#414042" d="M5.914,40.969c-0.233,0-0.545-0.037-0.701-0.201c-0.178-0.189-0.214-0.574-0.2-0.828V3.686
		c0-0.336,0.101-0.902,0.774-0.902H29.79v7.121c0,0.67,0.542,1.213,1.212,1.213h7.121v16.934c0.828-0.475,1.611-0.453,2.313,0.039
		l0.111-18.184V9.904c0-0.172-0.037-0.334-0.102-0.482c-0.012-0.027-0.035-0.047-0.049-0.07c-0.063-0.122-0.138-0.233-0.236-0.327
		c-0.006-0.004-0.008-0.012-0.014-0.02l-8.141-8.119c-0.004-0.006-0.076-0.094-0.08-0.1C31.916,0.775,31.9,0.771,31.89,0.76
		c-0.082-0.089-0.181-0.154-0.284-0.215c-0.039-0.025-0.07-0.059-0.113-0.078c-0.15-0.066-0.314-0.107-0.49-0.107H5.787
		c-2.347,0-3.199,1.988-3.199,3.326l0.005,36.141c-0.015,0.154-0.116,1.535,0.821,2.566c0.415,0.455,1.185,1,2.5,1H30.81
		l-0.001-2.424H5.914z M32.214,4.52l4.175,4.173h-4.175V4.52z"/>
	<path fill="#414042" d="M45.14,39.229c-0.296-0.326-0.702-0.49-1.11-0.49c-0.359,0-0.721,0.129-1.008,0.389l-2.227,2.023v-8.848
		c0-0.828-0.671-1.5-1.5-1.5c-0.828,0-1.5,0.672-1.5,1.5v8.848l-2.227-2.023c-0.611-0.557-1.561-0.512-2.118,0.102
		s-0.513,1.563,0.101,2.119l4.734,4.305c0.572,0.52,1.445,0.52,2.018,0l4.736-4.305C45.652,40.791,45.697,39.842,45.14,39.229z"/>
</g>
</svg>
