<?xml version="1.0" encoding="utf-8"?>
<!-- Generator: Adobe Illustrator 16.0.0, SVG Export Plug-In . SVG Version: 6.00 Build 0)  -->
<!DOCTYPE svg PUBLIC "-//W3C//DTD SVG 1.1//EN" "http://www.w3.org/Graphics/SVG/1.1/DTD/svg11.dtd">
<svg version="1.1" id="Layer_1" xmlns="http://www.w3.org/2000/svg" xmlns:xlink="http://www.w3.org/1999/xlink" x="0px" y="0px"
	 width="48px" height="48px" viewBox="0 0 48 48" enable-background="new 0 0 48 48" xml:space="preserve">
<g>
	<path fill="#414042" d="M11.075,34.33h18.937c0.668,0,1.211-0.541,1.211-1.213c0-0.67-0.543-1.211-1.211-1.211H11.075
		c-0.669,0-1.212,0.541-1.212,1.211C9.863,33.789,10.406,34.33,11.075,34.33z"/>
	<path fill="#414042" d="M30.012,16.676h-18.93c-0.669,0-1.211,0.542-1.211,1.212c0,0.671,0.542,1.213,1.211,1.213h18.93
		c0.669,0,1.211-0.542,1.211-1.213C31.223,17.218,30.681,16.676,30.012,16.676z"/>
	<path fill="#414042" d="M11.087,26.488H30.01c0.669,0,1.212-0.543,1.212-1.213s-0.543-1.213-1.212-1.213H11.087
		c-0.67,0-1.212,0.543-1.212,1.213S10.417,26.488,11.087,26.488z"/>
	<path fill="#414042" d="M5.101,42.072c-0.233,0-0.545-0.036-0.701-0.201c-0.178-0.189-0.214-0.573-0.2-0.827V4.789
		c0-0.335,0.101-0.901,0.774-0.901h24.003v7.121c0,0.67,0.543,1.213,1.212,1.213h7.122v19.934c0.92-0.05,1.416,0.029,2.313,0.039
		l0.111-21.184V11.01v-0.001c0-0.173-0.037-0.335-0.103-0.482c-0.012-0.028-0.035-0.047-0.048-0.071
		c-0.063-0.121-0.139-0.232-0.236-0.325c-0.006-0.005-0.008-0.013-0.015-0.021l-8.14-8.119c-0.004-0.005-0.076-0.094-0.08-0.1
		c-0.011-0.012-0.025-0.016-0.037-0.027c-0.082-0.09-0.18-0.153-0.283-0.214c-0.04-0.025-0.071-0.06-0.113-0.078
		c-0.15-0.067-0.314-0.108-0.491-0.108H4.974c-2.347,0-3.199,1.989-3.199,3.326L1.78,40.93c-0.015,0.154-0.116,1.535,0.821,2.566
		c0.415,0.456,1.185,1,2.5,1h18.896l0-2.424H5.101z M31.4,5.623l4.176,4.174H31.4V5.623z"/>
	<path fill="#414042" d="M46.789,39.362c-0.008-0.476-0.203-0.921-0.545-1.252c-0.338-0.33-0.783-0.512-1.266-0.512l-5.66,0.026
		c-0.477,0.003-0.923,0.193-1.254,0.534c-0.088,0.089-0.162,0.187-0.228,0.29c-0.065-0.096-0.14-0.185-0.225-0.267
		c-0.339-0.33-0.786-0.512-1.268-0.512l-5.341,0.027c-0.477,0.001-0.923,0.189-1.254,0.53c-0.334,0.339-0.512,0.789-0.501,1.26
		l0.024,4.187c0.011,0.515,0.246,1.003,0.646,1.34c0.324,0.272,0.736,0.423,1.16,0.423l5.347-0.027
		c0.478-0.003,0.923-0.191,1.255-0.531c0.09-0.093,0.167-0.194,0.234-0.301c0.092,0.133,0.194,0.258,0.32,0.365
		c0.324,0.271,0.734,0.42,1.153,0.42l5.671-0.026c0.477-0.002,0.922-0.19,1.254-0.53s0.51-0.79,0.501-1.261L46.789,39.362z
		 M34.367,42.389c0.203,0.169,0.465,0.263,0.735,0.263h0.002l1.454-0.011c-0.205,0.21-0.322,0.508-0.366,0.764l-4.911,0.025
		l-0.021-3.726l4.914-0.024c0.056,0.259,0.206,0.496,0.412,0.662l-1.479,0.01c-0.631,0.007-1.146,0.524-1.15,1.152
		C33.955,41.848,34.104,42.17,34.367,42.389z M37.851,42.769c-0.038-0.048-0.078-0.095-0.122-0.136l0.226-0.002
		C37.915,42.674,37.883,42.721,37.851,42.769z M37.703,40.333c0.039-0.03,0.084-0.048,0.119-0.085
		c0.02-0.02,0.026-0.046,0.044-0.066c0.053,0.061,0.12,0.103,0.185,0.149L37.703,40.333z M39.574,43.355
		c-0.057-0.26-0.202-0.532-0.406-0.733l1.917-0.014c0.63-0.005,1.146-0.521,1.15-1.152c0.001-0.307-0.116-0.595-0.331-0.811
		c-0.215-0.217-0.502-0.336-0.817-0.336l-2.003,0.015c0.052-0.038,0.109-0.063,0.156-0.111c0.157-0.161,0.268-0.368,0.313-0.581
		l5.229-0.026l0.023,3.726L39.574,43.355z"/>
</g>
</svg>
