<?xml version="1.0" encoding="utf-8"?>
<!-- Generator: Adobe Illustrator 16.0.0, SVG Export Plug-In . SVG Version: 6.00 Build 0)  -->
<!DOCTYPE svg PUBLIC "-//W3C//DTD SVG 1.1//EN" "http://www.w3.org/Graphics/SVG/1.1/DTD/svg11.dtd">
<svg version="1.1" id="Layer_1" xmlns="http://www.w3.org/2000/svg" xmlns:xlink="http://www.w3.org/1999/xlink" x="0px" y="0px"
	 width="48px" height="48px" viewBox="0 0 48 48" enable-background="new 0 0 48 48" xml:space="preserve">
<g>
	<path fill="#414042" d="M12.616,33.799h19.499c0.689,0,1.248-0.558,1.248-1.248c0-0.689-0.559-1.248-1.248-1.248H12.616
		c-0.689,0-1.249,0.559-1.249,1.248C11.368,33.241,11.927,33.799,12.616,33.799z"/>
	<path fill="#414042" d="M32.115,15.619H12.624c-0.689,0-1.248,0.559-1.248,1.248c0,0.69,0.559,1.248,1.248,1.248h19.492
		c0.689,0,1.248-0.558,1.248-1.248C33.363,16.178,32.805,15.619,32.115,15.619z"/>
	<path fill="#414042" d="M12.628,25.723h19.485c0.689,0,1.25-0.559,1.25-1.249c0-0.688-0.561-1.248-1.25-1.248H12.628
		c-0.689,0-1.248,0.56-1.248,1.248C11.38,25.164,11.938,25.723,12.628,25.723z"/>
	<path fill="#414042" d="M44.758,46.484L41.956,43c0.915-1.025,1.478-2.372,1.478-3.851c0-3.197-2.602-5.797-5.797-5.797
		c-3.197,0-5.797,2.6-5.797,5.797c0,3.195,2.6,5.796,5.797,5.796c0.847,0,1.648-0.187,2.374-0.515l2.866,3.566
		c0.237,0.296,0.588,0.45,0.941,0.45c0.265,0,0.531-0.086,0.755-0.266C45.093,47.764,45.176,47.005,44.758,46.484z M37.637,42.531
		c-1.865,0-3.383-1.517-3.383-3.382s1.518-3.383,3.383-3.383s3.383,1.518,3.383,3.383S39.502,42.531,37.637,42.531z"/>
	<path fill="#414042" d="M6.464,41.771c-0.24,0-0.562-0.037-0.723-0.207c-0.183-0.195-0.221-0.59-0.206-0.852V3.379
		c0-0.346,0.104-0.93,0.797-0.93h24.718v7.334c0,0.689,0.559,1.248,1.248,1.248h7.334V30.59c0.893,0.208,1.73,0.553,2.496,1.011
		V9.786V9.784V9.783c0-0.178-0.039-0.345-0.105-0.497c-0.013-0.028-0.037-0.048-0.051-0.073c-0.064-0.124-0.141-0.239-0.242-0.334
		c-0.006-0.005-0.008-0.014-0.016-0.021l-8.381-8.361c-0.006-0.007-0.079-0.097-0.084-0.103c-0.01-0.012-0.025-0.017-0.037-0.028
		c-0.084-0.092-0.186-0.158-0.293-0.221c-0.04-0.025-0.072-0.061-0.115-0.08c-0.155-0.069-0.324-0.111-0.506-0.111H6.333
		c-2.417,0-3.294,2.048-3.294,3.425l0.005,37.216c-0.015,0.159-0.119,1.582,0.846,2.643c0.427,0.47,1.22,1.03,2.574,1.03h24.032
		c-0.541-0.754-0.974-1.591-1.257-2.496H6.464z M33.547,4.237l4.299,4.298h-4.299V4.237z"/>
</g>
</svg>
