<?xml version="1.0" encoding="utf-8"?>
<!-- Generator: Adobe Illustrator 16.0.0, SVG Export Plug-In . SVG Version: 6.00 Build 0)  -->
<!DOCTYPE svg PUBLIC "-//W3C//DTD SVG 1.1//EN" "http://www.w3.org/Graphics/SVG/1.1/DTD/svg11.dtd">
<svg version="1.1" id="Layer_1" xmlns="http://www.w3.org/2000/svg" xmlns:xlink="http://www.w3.org/1999/xlink" x="0px" y="0px"
	 width="48px" height="48px" viewBox="0 0 48 48" enable-background="new 0 0 48 48" xml:space="preserve">
<g>
	<path fill="#414042" d="M12.439,34.334h19.5c0.689,0,1.248-0.559,1.248-1.248s-0.559-1.248-1.248-1.248h-19.5
		c-0.689,0-1.249,0.559-1.249,1.248S11.75,34.334,12.439,34.334z"/>
	<path fill="#414042" d="M31.938,16.154H12.446c-0.689,0-1.248,0.559-1.248,1.248s0.559,1.248,1.248,1.248h19.492
		c0.689,0,1.248-0.559,1.248-1.248S32.628,16.154,31.938,16.154z"/>
	<path fill="#414042" d="M12.451,26.258h19.486c0.689,0,1.249-0.559,1.249-1.25c0-0.687-0.56-1.248-1.249-1.248H12.451
		c-0.689,0-1.248,0.561-1.248,1.248C11.203,25.699,11.761,26.258,12.451,26.258z"/>
	<path fill="#414042" d="M28.611,42.307H6.287c-0.24,0-0.562-0.037-0.723-0.207c-0.183-0.195-0.221-0.59-0.206-0.852V3.914
		c0-0.345,0.104-0.929,0.797-0.929h24.718v7.333c0,0.689,0.559,1.248,1.248,1.248h7.333V30.92h0.173
		c0.874,0,1.678,0.297,2.324,0.791v-21.39v-0.002c0-0.178-0.04-0.346-0.106-0.498c-0.012-0.028-0.036-0.047-0.05-0.073
		c-0.064-0.125-0.142-0.24-0.242-0.336c-0.007-0.004-0.008-0.014-0.016-0.02l-8.382-8.361c-0.005-0.008-0.078-0.098-0.083-0.104
		c-0.011-0.012-0.026-0.016-0.037-0.027c-0.084-0.092-0.186-0.158-0.293-0.221c-0.04-0.025-0.072-0.061-0.116-0.08
		c-0.154-0.07-0.324-0.111-0.505-0.111H6.156c-2.417,0-3.294,2.049-3.294,3.426l0.005,37.215c-0.015,0.16-0.119,1.582,0.846,2.643
		c0.427,0.471,1.22,1.031,2.574,1.031h22.778C28.617,44.018,28.479,43.139,28.611,42.307z M33.37,4.771l4.299,4.299H33.37V4.771z"/>
	<path fill="#414042" d="M44.753,42.162l-1.36-0.785c0-0.209-0.004-0.387-0.007-0.568c-0.002-0.113-0.004-0.23-0.006-0.355
		l1.373-0.793c0.396-0.234,0.531-0.748,0.302-1.146l-1.27-2.199c-0.223-0.389-0.769-0.533-1.15-0.309l-1.36,0.785
		c-0.113-0.066-0.213-0.125-0.31-0.182c-0.157-0.094-0.309-0.182-0.496-0.287v-1.561c0-0.465-0.377-0.842-0.841-0.842h-2.54
		c-0.465,0-0.843,0.377-0.843,0.842v1.461c-0.303,0.219-0.612,0.428-0.821,0.566l-1.336-0.771c-0.392-0.229-0.93-0.08-1.15,0.307
		l-1.272,2.201c-0.23,0.4-0.093,0.916,0.312,1.15l1.269,0.719c-0.002,0.387-0.001,0.785,0,1.045l-1.269,0.73
		c-0.399,0.234-0.536,0.748-0.306,1.148l1.272,2.207c0.225,0.381,0.759,0.527,1.147,0.303l1.341-0.773
		c0.302,0.191,0.612,0.367,0.825,0.484v1.531c0,0.465,0.377,0.842,0.841,0.842h2.541c0.464,0,0.842-0.377,0.842-0.842v-1.527
		c0.2-0.107,0.49-0.275,0.826-0.496l1.335,0.771c0.386,0.223,0.924,0.078,1.147-0.309l1.273-2.201
		C45.292,42.906,45.153,42.391,44.753,42.162z M38.322,43.258c-1.289,0-2.333-1.045-2.333-2.33c0-1.289,1.044-2.334,2.333-2.334
		c1.287,0,2.331,1.045,2.331,2.334C40.653,42.213,39.609,43.258,38.322,43.258z"/>
</g>
</svg>
