<?xml version="1.0" encoding="utf-8"?>
<!-- Generator: Adobe Illustrator 16.0.0, SVG Export Plug-In . SVG Version: 6.00 Build 0)  -->
<!DOCTYPE svg PUBLIC "-//W3C//DTD SVG 1.1//EN" "http://www.w3.org/Graphics/SVG/1.1/DTD/svg11.dtd">
<svg version="1.1" id="Layer_1" xmlns="http://www.w3.org/2000/svg" xmlns:xlink="http://www.w3.org/1999/xlink" x="0px" y="0px"
	 width="48px" height="48px" viewBox="0 0 48 48" enable-background="new 0 0 48 48" xml:space="preserve">
<g>
	<path fill="#414042" d="M45.652,38.159l-0.023-0.148c-0.029-0.183-0.059-0.365-0.103-0.546c-0.253-1.011-0.769-1.83-1.529-2.435
		c-0.512-0.406-1.076-0.662-1.68-0.761c-0.466-0.075-0.951-0.086-1.444-0.032c-0.535,0.06-1.033,0.221-1.48,0.479
		c-0.258,0.15-0.483,0.323-0.682,0.501c-0.258-0.229-0.516-0.411-0.789-0.558c-0.457-0.246-0.973-0.394-1.536-0.438
		c-0.451-0.032-0.858-0.021-1.251,0.041c-0.715,0.113-1.365,0.434-1.928,0.95c-0.742,0.68-1.215,1.581-1.404,2.677l-0.057,0.372
		c-0.007,0.048-0.01,0.096-0.01,0.145v0.816c0,0.071,0.009,0.146,0.025,0.22c0.057,0.493,0.184,0.989,0.385,1.513
		c0.002,0.004,0,0.007,0.002,0.01c0.002,0.008,0.006,0.015,0.009,0.022c0.001,0.006,0.003,0.009,0.004,0.013
		c0.001,0.002,0.002,0.002,0.003,0.004c0.199,0.556,0.488,1.003,0.51,1.034l0.104,0.168c0.082,0.134,0.164,0.268,0.252,0.396
		c0.604,0.889,1.356,1.728,2.371,2.643c0.771,0.696,1.647,1.388,2.68,2.116c0.193,0.134,0.408,0.201,0.626,0.201
		s0.438-0.067,0.638-0.204c0.653-0.463,1.23-0.899,1.765-1.333c0.943-0.77,1.716-1.502,2.362-2.238c0.527-0.6,0.95-1.183,1.294-1.78
		c0.056-0.097,0.337-0.593,0.483-0.981c0-0.002,0.002-0.004,0.004-0.006c0.001-0.004,0.002-0.008,0.004-0.012
		c0.001-0.004,0.003-0.008,0.004-0.012l0.002-0.005c0.176-0.457,0.296-0.882,0.375-1.384l0.036-0.236
		c0.007-0.049,0.011-0.099,0.011-0.148v-0.816C45.684,38.329,45.672,38.24,45.652,38.159z"/>
	<path fill="#414042" d="M32.648,33.435c0-0.688-0.559-1.248-1.248-1.248h-19.5c-0.689,0-1.249,0.56-1.249,1.248
		c0,0.69,0.56,1.248,1.249,1.248h19.5C32.09,34.683,32.648,34.125,32.648,33.435z"/>
	<path fill="#414042" d="M31.4,16.503H11.908c-0.689,0-1.248,0.559-1.248,1.248c0,0.69,0.559,1.248,1.248,1.248H31.4
		c0.689,0,1.248-0.558,1.248-1.248C32.648,17.062,32.09,16.503,31.4,16.503z"/>
	<path fill="#414042" d="M31.398,24.109H11.913c-0.689,0-1.248,0.56-1.248,1.248c0,0.69,0.559,1.249,1.248,1.249h19.486
		c0.689,0,1.249-0.559,1.249-1.249C32.647,24.669,32.088,24.109,31.398,24.109z"/>
	<path fill="#414042" d="M30.223,43.781l-0.096-0.157c-0.108-0.17-0.316-0.52-0.523-0.969H5.749c-0.24,0-0.562-0.037-0.723-0.208
		c-0.183-0.194-0.221-0.589-0.206-0.851V4.263c0-0.346,0.104-0.93,0.797-0.93h24.718v7.334c0,0.689,0.559,1.248,1.248,1.248h7.333
		V31.65c0.52-0.192,1.062-0.331,1.632-0.396c0.287-0.031,0.578-0.044,0.865-0.047V10.669v-0.001v-0.001
		c0-0.178-0.04-0.345-0.106-0.497c-0.013-0.029-0.036-0.048-0.05-0.074c-0.064-0.124-0.142-0.239-0.242-0.335
		C41.009,9.757,41.008,9.748,41,9.741L32.618,1.38c-0.005-0.007-0.079-0.097-0.083-0.103c-0.011-0.012-0.026-0.017-0.037-0.028
		c-0.084-0.092-0.186-0.158-0.293-0.22c-0.041-0.026-0.072-0.061-0.116-0.081c-0.155-0.069-0.324-0.111-0.505-0.111H5.618
		c-2.417,0-3.294,2.049-3.294,3.426l0.005,37.216c-0.015,0.159-0.119,1.582,0.846,2.643c0.427,0.47,1.22,1.03,2.574,1.03h25.435
		c-0.225-0.284-0.438-0.571-0.637-0.864C30.434,44.12,30.326,43.947,30.223,43.781z M32.832,5.12l4.299,4.299h-4.299V5.12z"/>
</g>
</svg>
