<?xml version="1.0" encoding="utf-8"?>
<!-- Generator: Adobe Illustrator 16.0.0, SVG Export Plug-In . SVG Version: 6.00 Build 0)  -->
<!DOCTYPE svg PUBLIC "-//W3C//DTD SVG 1.1//EN" "http://www.w3.org/Graphics/SVG/1.1/DTD/svg11.dtd">
<svg version="1.1" id="Layer_1" xmlns="http://www.w3.org/2000/svg" xmlns:xlink="http://www.w3.org/1999/xlink" x="0px" y="0px"
	 width="48px" height="48px" viewBox="0 0 48 48" enable-background="new 0 0 48 48" xml:space="preserve">
<g>
	<path fill="#414042" d="M37.201,39.365c0.962,0.017,1.729-0.766,1.729-1.684c-0.002-0.931-0.748-1.687-1.684-1.692
		c-0.93-0.005-1.688,0.749-1.691,1.684C35.55,38.588,36.301,39.351,37.201,39.365z"/>
	<path fill="#414042" d="M43.322,34.075H31.221c-0.467,0-0.847,0.378-0.847,0.842v10.836c0,0.464,0.38,0.841,0.847,0.841h12.102
		c0.468,0,0.848-0.377,0.848-0.841V34.917C44.17,34.453,43.79,34.075,43.322,34.075z M42.633,43.011h-2.551v-1.143
		c0-1.219-0.966-2.21-2.154-2.21h-1.379c-1.188,0-2.154,0.991-2.154,2.21v1.143h-2.483v-7.452h10.722V43.011z"/>
	<path fill="#414042" d="M32.888,17.473H13.396c-0.689,0-1.248,0.559-1.248,1.248c0,0.69,0.559,1.248,1.248,1.248h19.492
		c0.689,0,1.248-0.558,1.248-1.248C34.136,18.031,33.577,17.473,32.888,17.473z"/>
	<path fill="#414042" d="M32.886,25.079H13.4c-0.689,0-1.248,0.56-1.248,1.248c0,0.69,0.559,1.249,1.248,1.249h19.486
		c0.689,0,1.249-0.559,1.249-1.249C34.135,25.639,33.575,25.079,32.886,25.079z"/>
	<path fill="#414042" d="M27.874,43.625H7.236c-0.24,0-0.562-0.037-0.723-0.207c-0.183-0.195-0.221-0.59-0.206-0.852V5.232
		c0-0.346,0.104-0.93,0.797-0.93h24.717v7.334c0,0.689,0.56,1.248,1.248,1.248h7.334v18.69H42.9V11.639v-0.001v-0.001
		c0-0.178-0.039-0.345-0.105-0.497c-0.012-0.028-0.036-0.048-0.05-0.073c-0.065-0.124-0.142-0.239-0.243-0.335
		c-0.006-0.005-0.008-0.014-0.015-0.021L34.105,2.35c-0.005-0.007-0.078-0.097-0.084-0.103c-0.01-0.012-0.025-0.017-0.037-0.028
		C33.9,2.127,33.8,2.061,33.692,1.998c-0.04-0.025-0.073-0.061-0.116-0.08c-0.154-0.069-0.324-0.111-0.506-0.111H7.105
		c-2.417,0-3.294,2.049-3.294,3.426l0.005,37.215c-0.015,0.16-0.119,1.583,0.846,2.644c0.427,0.47,1.22,1.03,2.574,1.03h20.675
		c-0.014-0.123-0.037-0.242-0.037-0.368V43.625z M34.318,6.09l4.299,4.299h-4.299V6.09z"/>
	<path fill="#414042" d="M12.14,34.404c0,0.69,0.56,1.248,1.249,1.248h14.486v-0.735c0-0.647,0.194-1.248,0.515-1.761h-15
		C12.699,33.156,12.14,33.715,12.14,34.404z"/>
</g>
</svg>
