<?xml version="1.0" encoding="utf-8"?>
<!-- Generator: Adobe Illustrator 16.0.0, SVG Export Plug-In . SVG Version: 6.00 Build 0)  -->
<!DOCTYPE svg PUBLIC "-//W3C//DTD SVG 1.1//EN" "http://www.w3.org/Graphics/SVG/1.1/DTD/svg11.dtd">
<svg version="1.1" id="Layer_1" xmlns="http://www.w3.org/2000/svg" xmlns:xlink="http://www.w3.org/1999/xlink" x="0px" y="0px"
	 width="48px" height="48px" viewBox="0 0 48 48" enable-background="new 0 0 48 48" xml:space="preserve">
<g>
	<path fill="#414042" d="M30.487,18.807c0.689,0,1.248-0.557,1.248-1.248c0-0.689-0.559-1.248-1.248-1.248H10.995
		c-0.689,0-1.248,0.559-1.248,1.248c0,0.691,0.559,1.248,1.248,1.248H30.487z"/>
	<path fill="#414042" d="M10.999,26.414h19.486c0.689,0,1.249-0.559,1.249-1.248s-0.56-1.248-1.249-1.248H10.999
		c-0.689,0-1.248,0.559-1.248,1.248S10.31,26.414,10.999,26.414z"/>
	<rect x="30.249" y="40.191" fill="#414042" width="11.341" height="7.393"/>
	<circle fill="#414042" cx="33.027" cy="37.035" r="2.363"/>
	<circle fill="#414042" cx="38.906" cy="37.035" r="2.363"/>
	<rect x="42.186" y="41.881" fill="#414042" width="1.216" height="4.016"/>
	<path fill="#414042" d="M44.688,41.049l-0.679,0.615v4.596l0.679,0.615c0.771,0.629,1.051,0.881,1.855,0.881V40.02
		C45.769,40.02,45.338,40.471,44.688,41.049z"/>
	<path fill="#414042" d="M4.113,42.256c-0.183-0.195-0.221-0.59-0.206-0.852V4.07c0-0.346,0.104-0.93,0.797-0.93h24.719v7.334
		c0,0.689,0.559,1.248,1.248,1.248h7.333v18.809c0.438-0.119,0.896-0.189,1.371-0.189c0.389,0,0.762,0.057,1.126,0.137V10.477
		v-0.002c0-0.178-0.04-0.344-0.106-0.496c-0.013-0.029-0.036-0.049-0.05-0.074c-0.064-0.123-0.142-0.238-0.242-0.334
		c-0.007-0.006-0.008-0.014-0.016-0.021l-8.382-8.361c-0.005-0.006-0.079-0.096-0.083-0.101c-0.011-0.012-0.026-0.018-0.037-0.03
		c-0.084-0.092-0.186-0.158-0.293-0.221c-0.041-0.025-0.072-0.061-0.116-0.08c-0.155-0.068-0.324-0.111-0.505-0.111H4.704
		c-2.416,0-3.293,2.049-3.293,3.426l0.005,37.217c-0.015,0.158-0.119,1.582,0.846,2.643c0.427,0.469,1.22,1.029,2.574,1.029h22.413
		v-2.496H4.836C4.596,42.463,4.274,42.426,4.113,42.256z M31.919,4.928l4.299,4.299h-4.299V4.928z"/>
	<path fill="#414042" d="M30.487,31.994h-19.5c-0.688,0-1.248,0.559-1.248,1.248c0,0.691,0.56,1.248,1.248,1.248h17.348
		c0.581-1.066,1.493-1.928,2.621-2.4C30.811,32.029,30.653,31.994,30.487,31.994z"/>
</g>
</svg>
