<?xml version="1.0" encoding="utf-8"?>
<!-- Generator: Adobe Illustrator 16.0.0, SVG Export Plug-In . SVG Version: 6.00 Build 0)  -->
<!DOCTYPE svg PUBLIC "-//W3C//DTD SVG 1.1//EN" "http://www.w3.org/Graphics/SVG/1.1/DTD/svg11.dtd">
<svg version="1.1" id="Layer_1" xmlns="http://www.w3.org/2000/svg" xmlns:xlink="http://www.w3.org/1999/xlink" x="0px" y="0px"
	 width="48px" height="48px" viewBox="0 0 48 48" enable-background="new 0 0 48 48" xml:space="preserve">
<g>
	<path fill="#414042" d="M42.782,43.689c0,0.193-0.156,0.349-0.351,0.349s-0.351-0.155-0.351-0.349v-5.658h-1.462v5.658
		c0,0.193-0.157,0.349-0.352,0.349c-0.195,0-0.351-0.155-0.351-0.349v-5.658h-1.335v5.658c0,0.193-0.157,0.349-0.353,0.349
		c-0.191,0-0.35-0.155-0.35-0.349v-5.658h-1.481v7.362c0,0.21,0.171,0.382,0.381,0.382h7.023c0.211,0,0.381-0.172,0.381-0.382
		v-7.362h-1.401V43.689z"/>
	<path fill="#414042" d="M44.756,35.221h-2.324v-1.477c0-0.194-0.157-0.352-0.351-0.352h-3.499c-0.193,0-0.353,0.157-0.353,0.352
		v1.477h-2.403c-0.193,0-0.352,0.158-0.352,0.352v0.674c0,0.191,0.158,0.35,0.352,0.35h8.93c0.193,0,0.352-0.158,0.352-0.35v-0.674
		C45.107,35.379,44.949,35.221,44.756,35.221z M40.999,35.264h-1.415c-0.194,0-0.352-0.156-0.352-0.35
		c0-0.195,0.157-0.352,0.352-0.352h1.415c0.193,0,0.352,0.156,0.352,0.352C41.351,35.107,41.192,35.264,40.999,35.264z"/>
	<path fill="#414042" d="M31.895,17.709H12.402c-0.689,0-1.248,0.559-1.248,1.248c0,0.69,0.559,1.248,1.248,1.248h19.492
		c0.689,0,1.248-0.558,1.248-1.248C33.143,18.268,32.584,17.709,31.895,17.709z"/>
	<path fill="#414042" d="M31.893,25.315H12.406c-0.689,0-1.248,0.56-1.248,1.248c0,0.69,0.559,1.249,1.248,1.249h19.486
		c0.689,0,1.249-0.559,1.249-1.249C33.142,25.875,32.582,25.315,31.893,25.315z"/>
	<path fill="#414042" d="M33.398,43.861H6.243c-0.24,0-0.562-0.037-0.723-0.207c-0.183-0.195-0.221-0.59-0.206-0.852V5.469
		c0-0.346,0.104-0.93,0.797-0.93H30.83v7.334c0,0.689,0.559,1.248,1.248,1.248h7.333v17.271h2.497V11.875v-0.001v-0.001
		c0-0.178-0.04-0.344-0.106-0.497c-0.013-0.028-0.036-0.048-0.05-0.073c-0.064-0.124-0.142-0.239-0.242-0.335
		c-0.007-0.005-0.008-0.014-0.016-0.021l-8.382-8.361c-0.005-0.007-0.079-0.097-0.083-0.103c-0.011-0.012-0.026-0.017-0.037-0.028
		c-0.084-0.092-0.186-0.158-0.293-0.221c-0.041-0.025-0.072-0.061-0.116-0.08c-0.155-0.069-0.324-0.111-0.505-0.111H6.111
		c-2.416,0-3.293,2.049-3.293,3.426l0.005,37.216c-0.015,0.159-0.119,1.582,0.846,2.643c0.427,0.47,1.22,1.03,2.574,1.03h27.313
		c-0.093-0.308-0.157-0.627-0.157-0.964V43.861z M33.326,6.326l4.299,4.299h-4.299V6.326z"/>
	<path fill="#414042" d="M31.895,33.393h-19.5c-0.688,0-1.248,0.559-1.248,1.248c0,0.69,0.56,1.248,1.248,1.248h19.5
		c0.213,0,0.404-0.067,0.58-0.16v-0.156c0-0.59,0.164-1.139,0.433-1.621C32.683,33.622,32.323,33.393,31.895,33.393z"/>
</g>
</svg>
