<?xml version="1.0" encoding="utf-8"?>
<!-- Generator: Adobe Illustrator 16.0.0, SVG Export Plug-In . SVG Version: 6.00 Build 0)  -->
<!DOCTYPE svg PUBLIC "-//W3C//DTD SVG 1.1//EN" "http://www.w3.org/Graphics/SVG/1.1/DTD/svg11.dtd">
<svg version="1.1" id="Layer_1" xmlns="http://www.w3.org/2000/svg" xmlns:xlink="http://www.w3.org/1999/xlink" x="0px" y="0px"
	 width="48px" height="48px" viewBox="0 0 48 48" enable-background="new 0 0 48 48" xml:space="preserve">
<g>
	<path fill="#414042" d="M44.084,32.725h-7.068c-0.276,0-0.5,0.223-0.5,0.5v12.434c0,0.217,0.141,0.41,0.348,0.477
		c0.051,0.016,0.102,0.023,0.152,0.023c0.159,0,0.313-0.076,0.407-0.211l3.126-4.4l3.128,4.4c0.126,0.176,0.349,0.252,0.56,0.188
		c0.207-0.066,0.348-0.26,0.348-0.477V33.225C44.584,32.947,44.36,32.725,44.084,32.725z"/>
	<path fill="#414042" d="M32.391,31.592h-19.5c-0.688,0-1.248,0.559-1.248,1.248c0,0.691,0.56,1.248,1.248,1.248h19.5
		c0.689,0,1.248-0.557,1.248-1.248C33.639,32.15,33.08,31.592,32.391,31.592z"/>
	<path fill="#414042" d="M32.391,15.908H12.898c-0.689,0-1.248,0.559-1.248,1.248c0,0.692,0.559,1.249,1.248,1.249h19.492
		c0.689,0,1.248-0.557,1.248-1.249C33.639,16.467,33.08,15.908,32.391,15.908z"/>
	<path fill="#414042" d="M12.902,26.012h19.486c0.689,0,1.249-0.559,1.249-1.248s-0.56-1.248-1.249-1.248H12.902
		c-0.689,0-1.248,0.559-1.248,1.248S12.213,26.012,12.902,26.012z"/>
	<path fill="#414042" d="M6.017,41.854c-0.183-0.195-0.221-0.59-0.206-0.852V3.668c0-0.346,0.104-0.93,0.797-0.93h24.719v7.334
		c0,0.689,0.559,1.249,1.248,1.249h7.333v18.404h2.497v-19.65v-0.002c0-0.178-0.04-0.344-0.106-0.496
		c-0.013-0.029-0.036-0.049-0.05-0.074c-0.064-0.123-0.142-0.238-0.242-0.334c-0.007-0.006-0.008-0.014-0.016-0.021l-8.382-8.361
		c-0.005-0.006-0.079-0.096-0.083-0.102c-0.011-0.012-0.026-0.018-0.037-0.029c-0.084-0.092-0.186-0.158-0.293-0.221
		c-0.041-0.025-0.072-0.061-0.116-0.08c-0.155-0.068-0.324-0.111-0.505-0.111H6.607c-2.416,0-3.293,2.049-3.293,3.426l0.005,37.217
		c-0.015,0.158-0.119,1.582,0.846,2.643c0.427,0.469,1.22,1.029,2.574,1.029h26.776v-2.496H6.739
		C6.499,42.061,6.178,42.023,6.017,41.854z M33.822,4.525l4.299,4.299h-4.299V4.525z"/>
</g>
</svg>
