<?xml version="1.0" encoding="utf-8"?>
<!-- Generator: Adobe Illustrator 16.0.0, SVG Export Plug-In . SVG Version: 6.00 Build 0)  -->
<!DOCTYPE svg PUBLIC "-//W3C//DTD SVG 1.1//EN" "http://www.w3.org/Graphics/SVG/1.1/DTD/svg11.dtd">
<svg version="1.1" id="Layer_1" xmlns="http://www.w3.org/2000/svg" xmlns:xlink="http://www.w3.org/1999/xlink" x="0px" y="0px"
	 width="48px" height="48px" viewBox="0 0 48 48" enable-background="new 0 0 48 48" xml:space="preserve">
<g>
	<path fill="#414042" d="M30.773,45.317c-0.047,0.17,0.008,0.352,0.142,0.468c0.085,0.074,0.193,0.113,0.303,0.113
		c0.062,0,0.122-0.012,0.181-0.036l3.828-1.631c0.002-0.001,0.004-0.003,0.006-0.003c0.004-0.004,0.008-0.008,0.013-0.011
		l-3.354-3.02L30.773,45.317z"/>
	<polygon fill="#414042" points="33.096,39.804 36.533,42.896 42.193,36.872 38.755,33.778 	"/>
	<path fill="#414042" d="M44.633,32.586c-0.428-0.985-1.461-1.729-2.402-1.729c-0.471,0-0.895,0.181-1.225,0.523
		c-0.32,0.333-0.521,0.54-0.639,0.686l-0.002-0.002l-0.348,0.37l3.438,3.095l0.277-0.298c0,0,0.188-0.197,0.641-0.685
		C44.855,34.03,44.95,33.315,44.633,32.586z"/>
	<path fill="#414042" d="M11.804,34.61h19.5c0.688,0,1.248-0.558,1.248-1.248c0-0.689-0.56-1.248-1.248-1.248h-19.5
		c-0.689,0-1.249,0.559-1.249,1.248C10.556,34.053,11.115,34.61,11.804,34.61z"/>
	<path fill="#414042" d="M31.304,16.431H11.812c-0.689,0-1.248,0.559-1.248,1.248c0,0.691,0.559,1.248,1.248,1.248h19.492
		c0.689,0,1.248-0.557,1.248-1.248C32.552,16.989,31.993,16.431,31.304,16.431z"/>
	<path fill="#414042" d="M11.816,26.534h19.486c0.689,0,1.249-0.559,1.249-1.249c0-0.688-0.56-1.248-1.249-1.248H11.816
		c-0.689,0-1.248,0.559-1.248,1.248C10.568,25.976,11.126,26.534,11.816,26.534z"/>
	<path fill="#414042" d="M4.93,42.376c-0.183-0.195-0.221-0.59-0.206-0.852V4.19c0-0.346,0.104-0.93,0.797-0.93h24.717v7.334
		c0,0.689,0.56,1.248,1.248,1.248h7.334v17.484l0.021-0.023c0.68-0.708,1.537-1.171,2.475-1.356V10.597v-0.001v-0.001
		c0-0.178-0.039-0.345-0.105-0.497c-0.012-0.028-0.036-0.048-0.05-0.073C41.096,9.9,41.02,9.786,40.918,9.689
		c-0.006-0.005-0.008-0.014-0.015-0.021l-8.382-8.361c-0.005-0.007-0.078-0.097-0.084-0.103c-0.01-0.012-0.025-0.017-0.037-0.028
		c-0.084-0.092-0.185-0.158-0.292-0.221c-0.04-0.025-0.073-0.06-0.116-0.08c-0.154-0.069-0.324-0.111-0.506-0.111H5.521
		c-2.417,0-3.294,2.049-3.294,3.426l0.005,37.216c-0.015,0.159-0.119,1.582,0.846,2.643c0.427,0.47,1.22,1.03,2.574,1.03h22.127
		c0.02-0.183,0.049-0.367,0.099-0.548l0.528-1.948H5.652C5.412,42.583,5.09,42.546,4.93,42.376z M32.734,5.048l4.299,4.299h-4.299
		V5.048z"/>
</g>
</svg>
