<?xml version="1.0" encoding="utf-8"?>
<!-- Generator: Adobe Illustrator 16.0.0, SVG Export Plug-In . SVG Version: 6.00 Build 0)  -->
<!DOCTYPE svg PUBLIC "-//W3C//DTD SVG 1.1//EN" "http://www.w3.org/Graphics/SVG/1.1/DTD/svg11.dtd">
<svg version="1.1" id="Layer_1" xmlns="http://www.w3.org/2000/svg" xmlns:xlink="http://www.w3.org/1999/xlink" x="0px" y="0px"
	 width="48px" height="48px" viewBox="0 0 48 48" enable-background="new 0 0 48 48" xml:space="preserve">
<g>
	<path fill="#414042" d="M43.969,39.584c-0.553,0-1,0.447-1,1c0,2.165-1.762,3.926-3.926,3.926c-2.165,0-3.926-1.761-3.926-3.926
		c0-1.729,1.131-3.185,2.688-3.705l-0.504,0.883c-0.273,0.48-0.105,1.091,0.374,1.364c0.156,0.089,0.326,0.131,0.493,0.131
		c0.348,0,0.686-0.182,0.871-0.505l1.516-2.664c0.132-0.23,0.166-0.504,0.096-0.76s-0.239-0.474-0.47-0.604l-2.665-1.516
		c-0.48-0.273-1.091-0.105-1.363,0.375c-0.273,0.479-0.105,1.09,0.375,1.363l0.273,0.155c-2.158,0.887-3.684,3.009-3.684,5.482
		c0,3.268,2.658,5.926,5.926,5.926s5.926-2.658,5.926-5.926C44.969,40.031,44.521,39.584,43.969,39.584z"/>
	<path fill="#414042" d="M31.425,31.502h-19.5c-0.689,0-1.249,0.559-1.249,1.248c0,0.69,0.56,1.248,1.249,1.248h19.5
		c0.688,0,1.248-0.558,1.248-1.248C32.673,32.061,32.113,31.502,31.425,31.502z"/>
	<path fill="#414042" d="M31.425,15.818H11.933c-0.689,0-1.248,0.559-1.248,1.248c0,0.69,0.559,1.248,1.248,1.248h19.492
		c0.689,0,1.248-0.558,1.248-1.248C32.673,16.377,32.114,15.818,31.425,15.818z"/>
	<path fill="#414042" d="M11.937,25.922h19.486c0.689,0,1.249-0.559,1.249-1.249c0-0.688-0.56-1.248-1.249-1.248H11.937
		c-0.689,0-1.248,0.56-1.248,1.248C10.689,25.363,11.248,25.922,11.937,25.922z"/>
	<path fill="#414042" d="M5.773,41.971c-0.24,0-0.562-0.037-0.723-0.207c-0.183-0.195-0.221-0.59-0.206-0.852V3.578
		c0-0.346,0.104-0.93,0.797-0.93h24.717v7.334c0,0.689,0.56,1.248,1.248,1.248h7.334v19.342c0.02,0.011,0.039,0.018,0.059,0.028
		l2.438,1.387V9.985V9.983V9.982c0-0.178-0.039-0.345-0.105-0.497c-0.012-0.028-0.036-0.048-0.05-0.073
		c-0.065-0.124-0.142-0.239-0.243-0.334c-0.006-0.005-0.008-0.014-0.015-0.021l-8.382-8.361c-0.005-0.007-0.078-0.097-0.084-0.103
		c-0.01-0.012-0.025-0.017-0.037-0.028c-0.084-0.092-0.185-0.158-0.292-0.221c-0.04-0.025-0.073-0.061-0.116-0.08
		c-0.154-0.069-0.324-0.111-0.506-0.111H5.642c-2.417,0-3.294,2.049-3.294,3.425l0.005,37.217c-0.015,0.158-0.119,1.581,0.846,2.642
		c0.427,0.47,1.22,1.03,2.574,1.03h25.245c-0.378-0.776-0.644-1.614-0.782-2.496H5.773z M32.855,4.436l4.299,4.298h-4.299V4.436z"/>
</g>
</svg>
