<?xml version="1.0" encoding="utf-8"?>
<!-- Generator: Adobe Illustrator 16.0.0, SVG Export Plug-In . SVG Version: 6.00 Build 0)  -->
<!DOCTYPE svg PUBLIC "-//W3C//DTD SVG 1.1//EN" "http://www.w3.org/Graphics/SVG/1.1/DTD/svg11.dtd">
<svg version="1.1" id="Layer_1" xmlns="http://www.w3.org/2000/svg" xmlns:xlink="http://www.w3.org/1999/xlink" x="0px" y="0px"
	 width="48px" height="48px" viewBox="0 0 48 48" enable-background="new 0 0 48 48" xml:space="preserve">
<g>
	<path fill="#414042" d="M43.516,33.16L34.7,32.446c-0.278-0.014-0.554,0.073-0.759,0.262c-0.205,0.189-0.322,0.456-0.322,0.735
		v4.285v3.354c-0.135-0.022-0.271-0.042-0.412-0.042c-1.332,0-2.414,1.082-2.414,2.413s1.082,2.414,2.414,2.414
		c1.33,0,2.412-1.083,2.412-2.414c0-0.058-0.013-0.111-0.017-0.168c0.003-0.029,0.017-0.054,0.017-0.084v-4.39l6.816,0.552v2.433
		c-0.136-0.023-0.273-0.042-0.414-0.042c-1.332,0-2.414,1.083-2.414,2.414s1.082,2.413,2.414,2.413c1.33,0,2.414-1.082,2.414-2.413
		c0-0.058-0.014-0.111-0.018-0.168c0.002-0.029,0.018-0.054,0.018-0.084v-5.476v-4.284C44.436,33.637,44.035,33.202,43.516,33.16z
		 M42.436,37.357l-6.816-0.552v-2.278l6.816,0.552V37.357z"/>
	<path fill="#414042" d="M32.229,15.747H12.736c-0.689,0-1.248,0.559-1.248,1.248c0,0.69,0.559,1.248,1.248,1.248h19.492
		c0.689,0,1.248-0.558,1.248-1.248C33.477,16.306,32.918,15.747,32.229,15.747z"/>
	<path fill="#414042" d="M32.227,23.354H12.741c-0.689,0-1.248,0.56-1.248,1.248c0,0.69,0.559,1.249,1.248,1.249h19.486
		c0.689,0,1.249-0.559,1.249-1.249C33.476,23.913,32.916,23.354,32.227,23.354z"/>
	<path fill="#414042" d="M6.577,41.899c-0.24,0-0.562-0.037-0.723-0.207c-0.183-0.195-0.221-0.59-0.206-0.852V3.507
		c0-0.345,0.104-0.929,0.797-0.929h24.718v7.333c0,0.689,0.559,1.248,1.248,1.248h7.333v18.686l2.497,0.202V9.913V9.912V9.911
		c0-0.178-0.04-0.345-0.106-0.497c-0.013-0.028-0.036-0.048-0.05-0.073c-0.064-0.124-0.142-0.239-0.242-0.335
		c-0.007-0.005-0.008-0.014-0.016-0.021l-8.382-8.361c-0.005-0.007-0.079-0.097-0.083-0.103c-0.011-0.012-0.026-0.017-0.037-0.028
		c-0.084-0.092-0.186-0.159-0.293-0.221c-0.041-0.025-0.072-0.061-0.116-0.08c-0.155-0.069-0.324-0.111-0.505-0.111H6.446
		c-2.417,0-3.294,2.049-3.294,3.426l0.005,37.216c-0.015,0.159-0.119,1.582,0.846,2.643c0.427,0.47,1.22,1.031,2.574,1.031H27.88
		c-0.054-0.308-0.087-0.621-0.087-0.942c0-0.541,0.084-1.062,0.232-1.555H6.577z M33.66,4.364l4.299,4.299H33.66V4.364z"/>
	<path fill="#414042" d="M12.729,31.431c-0.689,0-1.249,0.559-1.249,1.248c0,0.69,0.56,1.248,1.249,1.248h17.89v-0.483
		c0-0.715,0.213-1.404,0.568-2.013H12.729z"/>
</g>
</svg>
