<?xml version="1.0" encoding="utf-8"?>
<!-- Generator: Adobe Illustrator 16.0.0, SVG Export Plug-In . SVG Version: 6.00 Build 0)  -->
<!DOCTYPE svg PUBLIC "-//W3C//DTD SVG 1.1//EN" "http://www.w3.org/Graphics/SVG/1.1/DTD/svg11.dtd">
<svg version="1.1" id="Layer_1" xmlns="http://www.w3.org/2000/svg" xmlns:xlink="http://www.w3.org/1999/xlink" x="0px" y="0px"
	 width="48px" height="48px" viewBox="0 0 48 48" enable-background="new 0 0 48 48" xml:space="preserve">
<g>
	<path fill="#414042" d="M20.291,16.84c0,0.008,0.009,0.019,0.002,0.021l0.028,2.475h13.14c0.689,0,1.248-0.558,1.248-1.248
		c0-0.689-0.559-1.248-1.248-1.248H20.291z"/>
	<path fill="#414042" d="M34.708,25.694c0-0.688-0.56-1.248-1.249-1.248H20.291v2.497h13.168
		C34.148,26.943,34.708,26.385,34.708,25.694z"/>
	<path fill="#414042" d="M33.461,32.523H20.266v2.496h13.195c0.689,0,1.248-0.557,1.248-1.248
		C34.709,33.082,34.15,32.523,33.461,32.523z"/>
	<path fill="#414042" d="M43.368,10.553c-0.013-0.029-0.036-0.049-0.05-0.074c-0.064-0.123-0.142-0.238-0.242-0.334
		c-0.007-0.006-0.008-0.014-0.016-0.021l-8.382-8.361C34.674,1.756,34.6,1.666,34.596,1.66c-0.011-0.012-0.026-0.018-0.037-0.029
		c-0.084-0.092-0.186-0.158-0.293-0.221c-0.041-0.025-0.072-0.061-0.116-0.08c-0.155-0.068-0.324-0.111-0.505-0.111H7.678
		c-2.417,0-3.294,2.049-3.294,3.426L4.39,41.861c-0.015,0.158-0.119,1.582,0.846,2.643c0.427,0.469,1.22,1.029,2.574,1.029h31.847
		c0.014,0,0.027,0,0.04,0c1.519-0.049,3.778-1.094,3.778-3.771V11.051v-0.002C43.475,10.871,43.435,10.705,43.368,10.553z
		 M34.893,5.502l4.299,4.299h-4.299V5.502z M14.269,8.033L14.269,8.033h-0.813V3.715h1.625v4.318H14.269z M7.087,42.83
		c-0.183-0.195-0.221-0.59-0.206-0.852V4.645c0-0.346,0.104-0.93,0.797-0.93h3.777v5.318c0,0.553,0.448,1,1,1h0.812l0,1.794h-1.485
		c-0.552,0-1,0.447-1,1s0.448,1,1,1h1.484l0,1.43h-1.484c-0.552,0-1,0.447-1,1s0.448,1,1,1h1.483l0,1.431h-1.482
		c-0.552,0-1,0.447-1,1s0.448,1,1,1h1.482l0,1.43h-1.481c-0.552,0-1,0.447-1,1c0,0.553,0.448,1,1,1h1.48l0,1.43h-1.48
		c-0.552,0-1,0.447-1,1s0.448,1,1,1h1.479l0,1.43h-1.479c-0.552,0-1,0.447-1,1s0.448,1,1,1h1.478l0,1.43h-1.504
		c-0.552,0-1,0.447-1,1s0.448,1,1,1h1.504l0,1.431h-1.476c-0.552,0-1,0.447-1,1s0.448,1,1,1h1.475l0,1.43h-1.502
		c-0.552,0-1,0.447-1,1s0.448,1,1,1h1.501l0,1.771H7.81C7.569,43.037,7.248,43,7.087,42.83z M40.978,41.762
		c0,1.068-0.931,1.248-1.354,1.275H15.255l0-1.771h1.499c0.552,0,1-0.447,1-1s-0.448-1-1-1h-1.498l0-1.43h1.525c0.552,0,1-0.447,1-1
		s-0.448-1-1-1h-1.524l0-1.431h1.496c0.552,0,1-0.447,1-1s-0.448-1-1-1h-1.496l0-1.43h1.522c0.552,0,1-0.447,1-1s-0.448-1-1-1H15.26
		l0-1.43h1.521c0.552,0,1-0.447,1-1s-0.448-1-1-1h-1.52l0-1.43h1.52c0.552,0,1-0.447,1-1c0-0.553-0.448-1-1-1h-1.519l0-1.43h1.518
		c0.552,0,1-0.447,1-1s-0.448-1-1-1h-1.518l0-1.431h1.517c0.552,0,1-0.447,1-1s-0.448-1-1-1h-1.516l0-1.43h1.516
		c0.552,0,1-0.447,1-1s-0.448-1-1-1h-1.515l0-1.794h0.813c0.552,0,1-0.447,1-1V3.715h15.316v7.334c0,0.689,0.559,1.248,1.248,1.248
		h7.333V41.762z"/>
</g>
</svg>
