<?xml version="1.0" encoding="utf-8"?>
<!-- Generator: Adobe Illustrator 16.0.0, SVG Export Plug-In . SVG Version: 6.00 Build 0)  -->
<!DOCTYPE svg PUBLIC "-//W3C//DTD SVG 1.1//EN" "http://www.w3.org/Graphics/SVG/1.1/DTD/svg11.dtd">
<svg version="1.1" id="Layer_1" xmlns="http://www.w3.org/2000/svg" xmlns:xlink="http://www.w3.org/1999/xlink" x="0px" y="0px"
	 width="48px" height="48px" viewBox="0 0 48 48" enable-background="new 0 0 48 48" xml:space="preserve">
<g>
	<path fill="#414042" d="M38.049,33.863c-3.898,0-7.068,3.172-7.068,7.068c0,3.898,3.17,7.068,7.068,7.068
		c3.896,0,7.068-3.17,7.068-7.068C45.117,37.035,41.945,33.863,38.049,33.863z M33.58,40.932c0-2.463,2.004-4.469,4.469-4.469
		c0.729,0,1.408,0.193,2.018,0.505l-6.029,5.897C33.754,42.278,33.58,41.627,33.58,40.932z M38.049,45.4
		c-0.822,0-1.582-0.238-2.244-0.626l6.133-5.999c0.357,0.643,0.58,1.371,0.58,2.156C42.518,43.396,40.512,45.4,38.049,45.4z"/>
	<path fill="#414042" d="M32.09,16.549H12.597c-0.689,0-1.248,0.559-1.248,1.248c0,0.69,0.559,1.248,1.248,1.248H32.09
		c0.689,0,1.248-0.558,1.248-1.248C33.338,17.107,32.779,16.549,32.09,16.549z"/>
	<path fill="#414042" d="M32.088,24.155H12.602c-0.689,0-1.248,0.56-1.248,1.248c0,0.69,0.559,1.249,1.248,1.249h19.486
		c0.689,0,1.248-0.559,1.248-1.249C33.336,24.715,32.777,24.155,32.088,24.155z"/>
	<path fill="#414042" d="M6.438,42.701c-0.24,0-0.562-0.037-0.723-0.207c-0.183-0.195-0.221-0.589-0.206-0.853V4.309
		c0-0.346,0.104-0.93,0.797-0.93h24.718v7.334c0,0.689,0.56,1.248,1.248,1.248h7.333v19.035c0.875,0.137,1.713,0.38,2.497,0.727
		V10.715v0v-0.001c0-0.178-0.04-0.345-0.106-0.497c-0.012-0.028-0.035-0.048-0.049-0.074c-0.065-0.124-0.143-0.239-0.243-0.334
		c-0.007-0.005-0.008-0.014-0.015-0.021l-8.383-8.361c-0.004-0.007-0.078-0.097-0.083-0.103c-0.011-0.011-0.026-0.017-0.037-0.028
		c-0.084-0.092-0.185-0.158-0.292-0.221c-0.041-0.025-0.073-0.061-0.117-0.08c-0.154-0.069-0.324-0.111-0.505-0.111H6.307
		c-2.417,0-3.294,2.049-3.294,3.426l0.005,37.216c-0.015,0.159-0.119,1.582,0.846,2.643c0.427,0.47,1.22,1.03,2.574,1.03h22.503
		c-0.368-0.783-0.64-1.619-0.796-2.496H6.438z M33.521,5.166l4.299,4.299h-4.299V5.166z"/>
	<path fill="#414042" d="M32.09,32.232h-19.5c-0.689,0-1.249,0.559-1.249,1.248c0,0.69,0.56,1.248,1.249,1.248h17.545
		c0.715-0.911,1.583-1.693,2.566-2.313C32.518,32.31,32.316,32.232,32.09,32.232z"/>
</g>
</svg>
