<?xml version="1.0" encoding="utf-8"?>
<!-- Generator: Adobe Illustrator 16.0.0, SVG Export Plug-In . SVG Version: 6.00 Build 0)  -->
<!DOCTYPE svg PUBLIC "-//W3C//DTD SVG 1.1//EN" "http://www.w3.org/Graphics/SVG/1.1/DTD/svg11.dtd">
<svg version="1.1" id="Layer_1" xmlns="http://www.w3.org/2000/svg" xmlns:xlink="http://www.w3.org/1999/xlink" x="0px" y="0px"
	 width="1024px" height="1024px" viewBox="0 0 1024 1024" enable-background="new 0 0 1024 1024" xml:space="preserve">
<path fill="#414042" d="M823.792,433.354l-0.063,0.042c0.646-6.375,0.958-12.917,0.958-19.459
	c0-113.166-91.688-204.875-204.833-204.875c-90.417,0-167.188,58.625-194.334,139.917c-18.541-9.125-40.291-11.583-62.333-11.583
	c-69.333,0-126.854,50.583-137.708,116.875c-97.354,2.541-175.459,82.291-175.459,180.25c0,99.666,80.771,180.416,180.334,180.416
	h544.833c107.063,0,193.875-86.75,193.875-193.833C969.063,530.813,907.375,454.938,823.792,433.354z"/>
</svg>
