<?xml version="1.0" encoding="utf-8"?>
<!-- Generator: Adobe Illustrator 16.0.0, SVG Export Plug-In . SVG Version: 6.00 Build 0)  -->
<!DOCTYPE svg PUBLIC "-//W3C//DTD SVG 1.1//EN" "http://www.w3.org/Graphics/SVG/1.1/DTD/svg11.dtd">
<svg version="1.1" id="Layer_1" xmlns="http://www.w3.org/2000/svg" xmlns:xlink="http://www.w3.org/1999/xlink" x="0px" y="0px"
	 width="1024px" height="1024px" viewBox="0 0 1024 1024" enable-background="new 0 0 1024 1024" xml:space="preserve">
<g>
	<path fill="#414042" d="M863.688,485.896l-0.083,0.041c0.625-6.166,0.916-12.458,0.916-18.791
		c0-109.125-88.458-197.625-197.583-197.625c-87.25,0-161.292,56.541-187.5,134.958c-17.875-8.792-38.875-11.167-60.125-11.167
		c-66.875,0-122.375,48.792-132.875,112.75c-93.917,2.5-169.25,79.375-169.25,173.959c0,96.083,77.917,174,174,174h525.625
		c103.25,0,187-83.709,187-187C1003.813,579.896,944.313,506.729,863.688,485.896z"/>
	<path fill="#414042" d="M244.063,460.188c20.083-67.291,81.875-114.25,153.917-114.25c17.166,0,32,1.459,45.208,4.542
		c36.5-77.708,114.875-128.375,202.417-128.375c22.666,0,44.541,3.458,65.166,9.75c-36.041-38-86.833-61.875-143.333-61.875
		c-87.25,0-161.333,56.583-187.5,135c-17.917-8.792-38.875-11.167-60.125-11.167c-66.917,0-122.375,48.792-132.875,112.75v-0.041
		c-93.917,2.5-169.25,79.416-169.25,173.958c0,52.125,23.042,98.792,59.333,130.667c-4.583-16.75-7.208-34.292-7.208-52.459
		C69.813,556.313,144.854,472.771,244.063,460.188z"/>
</g>
</svg>
