<?xml version="1.0" encoding="utf-8"?>
<!-- Generator: Adobe Illustrator 16.0.0, SVG Export Plug-In . SVG Version: 6.00 Build 0)  -->
<!DOCTYPE svg PUBLIC "-//W3C//DTD SVG 1.1//EN" "http://www.w3.org/Graphics/SVG/1.1/DTD/svg11.dtd">
<svg version="1.1" id="Layer_1" xmlns="http://www.w3.org/2000/svg" xmlns:xlink="http://www.w3.org/1999/xlink" x="0px" y="0px"
	 width="1024px" height="1024px" viewBox="0 0 1024 1024" enable-background="new 0 0 1024 1024" xml:space="preserve">
<g>
	<path fill="#414042" d="M761.438,555.521l-0.083,0.063c0.625-6.125,0.916-12.396,0.916-18.709
		c0-108.625-88.041-196.708-196.625-196.708c-86.833,0-160.541,56.292-186.583,134.354c-17.833-8.771-38.708-11.125-59.854-11.125
		c-66.604,0-121.813,48.563-132.271,112.229v-0.041C93.479,578.084,18.5,654.625,18.5,748.729
		c0,95.646,77.542,173.188,173.167,173.188h523.104c102.792,0,186.125-83.292,186.125-186.104
		C900.896,649.104,841.688,576.25,761.438,555.521z"/>
	<path fill="#414042" d="M989.271,432.042l-82.708-24.417c1.542-9.333,2.583-18.833,2.583-28.625c0-8.979-0.875-17.708-2.166-26.333
		l82.833-23.042c11.333-3.146,17.958-14.896,14.792-26.25c-3.125-11.354-14.917-17.979-26.25-14.833l-82.75,23.042
		c-7.167-17.167-17.125-32.834-29.167-46.688l58.083-63.479c7.959-8.688,7.334-22.167-1.333-30.125
		c-8.708-7.958-22.208-7.333-30.167,1.354l-58.208,63.666c-14.875-10.479-31.417-18.708-49.25-24.125l15.667-84.916
		c2.125-11.584-5.542-22.688-17.125-24.834c-11.584-2.146-22.667,5.542-24.834,17.125l-15.708,85.229c0,0.083,0,0.188,0,0.188
		c-2.917-0.063-5.792-0.354-8.75-0.354c-15.792,0-31,2.271-45.5,6.188c-0.083-0.146-0.042-0.313-0.083-0.479l-31.834-80.604
		c-4.333-10.958-16.75-16.313-27.708-11.979c-10.958,4.313-16.292,16.709-11.958,27.667l31.833,80.604
		c0.125,0.354,0.417,0.604,0.542,0.958c-15.959,8.938-30.584,20.042-42.959,33.375c-0.291-0.25-0.416-0.604-0.75-0.833
		l-69.708-51.479c-9.458-7-22.833-4.979-29.833,4.5s-4.959,22.833,4.5,29.833l69.708,51.479c0.458,0.354,1,0.458,1.5,0.771
		c-0.708,1.229-1.542,2.354-2.208,3.604c121.291,7.417,218.5,105.313,224.333,227.063c4.75,2.042,9.417,4.25,13.958,6.583
		c5-2.75,9.667-5.958,14.334-9.146c0.041,0.063,0.083,0.167,0.125,0.229l57.5,64.875c7.791,8.791,21.25,9.604,30.041,1.791
		c8.834-7.791,9.667-21.291,1.834-30.104l-57.5-64.875c-0.042-0.042-0.084-0.063-0.125-0.104
		c12.166-13.646,22.458-28.979,29.875-45.958l82.5,24.375c11.25,3.333,23.125-3.125,26.458-14.417S1000.563,435.375,989.271,432.042
		z"/>
</g>
</svg>
