<?xml version="1.0" encoding="utf-8"?>
<!-- Generator: Adobe Illustrator 16.0.0, SVG Export Plug-In . SVG Version: 6.00 Build 0)  -->
<!DOCTYPE svg PUBLIC "-//W3C//DTD SVG 1.1//EN" "http://www.w3.org/Graphics/SVG/1.1/DTD/svg11.dtd">
<svg version="1.1" id="Layer_1" xmlns="http://www.w3.org/2000/svg" xmlns:xlink="http://www.w3.org/1999/xlink" x="0px" y="0px"
	 width="1024px" height="1024px" viewBox="0 0 1024 1024" enable-background="new 0 0 1024 1024" xml:space="preserve">
<g>
	<path fill="#414042" d="M767.583,509.271l-0.041,0.083c0.625-6.25,0.916-12.625,0.916-19.042
		c0-110.583-89.625-200.25-200.166-200.25c-88.396,0-163.417,57.292-189.959,136.75c-18.125-8.916-39.375-11.291-60.896-11.291
		c-67.792,0-124,49.416-134.625,114.208v-0.042c-95.146,2.542-171.458,80.459-171.458,176.25
		c0,97.375,78.916,176.292,176.25,176.292h532.5c104.625,0,189.458-84.792,189.458-189.458
		C909.563,604.521,849.271,530.354,767.583,509.271z"/>
	<path fill="#414042" d="M973.313,329.354c-78.146,0-141.417-63.333-141.417-141.417c0-16.208,2.834-31.666,7.854-46.166
		c-57.813,17.791-99.771,71.583-99.771,135.166c0,78.125,63.291,141.417,141.438,141.417c61.916,0,114.416-39.833,133.521-95.25
		C1001.813,327.146,987.792,329.354,973.313,329.354z"/>
</g>
</svg>
