<?xml version="1.0" encoding="utf-8"?>
<!-- Generator: Adobe Illustrator 16.0.0, SVG Export Plug-In . SVG Version: 6.00 Build 0)  -->
<!DOCTYPE svg PUBLIC "-//W3C//DTD SVG 1.1//EN" "http://www.w3.org/Graphics/SVG/1.1/DTD/svg11.dtd">
<svg version="1.1" id="Layer_1" xmlns="http://www.w3.org/2000/svg" xmlns:xlink="http://www.w3.org/1999/xlink" x="0px" y="0px"
	 width="1024px" height="1024px" viewBox="0 0 1024 1024" enable-background="new 0 0 1024 1024" xml:space="preserve">
<g>
	<path fill="#414042" d="M491.979,699.729c-2.834-8.083-8.625-14.583-16.334-18.25c-4.25-2.042-9.041-3.167-13.833-3.167
		c-12.208,0-23.542,7.125-28.833,18.125l-36.625,76.084c-3.709,7.708-4.167,16.416-1.334,24.5
		c2.834,8.041,8.625,14.541,16.334,18.25c4.291,2.041,8.958,3.125,13.833,3.125c12.208,0,23.542-7.125,28.833-18.125l36.625-76.084
		C494.354,716.479,494.813,707.813,491.979,699.729z"/>
	<path fill="#414042" d="M262.313,855.479c-4.25-2.042-9.042-3.167-13.833-3.167c-12.209,0-23.542,7.125-28.834,18.125
		l-36.625,76.084c-3.708,7.708-4.166,16.416-1.333,24.5c2.833,8.041,8.625,14.541,16.333,18.25
		c4.292,2.041,8.959,3.125,13.834,3.125c12.208,0,23.541-7.125,28.833-18.125l36.625-76.084c3.708-7.708,4.167-16.375,1.333-24.458
		C275.813,865.646,270.021,859.146,262.313,855.479z"/>
	<path fill="#414042" d="M824.521,252.979l-0.041,0.042c0.625-6.292,0.958-12.709,0.958-19.209
		c0-111.708-90.542-202.208-202.167-202.208c-89.25,0-165.041,57.833-191.875,138.083c-18.291-9-39.75-11.416-61.5-11.416
		c-68.416,0-125.208,49.916-135.958,115.333v-0.042c-96.042,2.584-173.125,81.25-173.125,178c0,98.334,79.708,178.042,178,178.042
		h537.75c105.667,0,191.333-85.625,191.333-191.333C967.896,349.146,907.021,274.271,824.521,252.979z"/>
	<path fill="#414042" d="M198.688,699.729c-2.833-8.083-8.667-14.583-16.375-18.25c-4.25-2.042-9.042-3.167-13.792-3.167
		c-12.208,0-23.541,7.125-28.833,18.125l-36.625,76.084c-3.708,7.708-4.208,16.416-1.375,24.5
		c2.833,8.041,8.667,14.541,16.375,18.25c4.25,2.041,8.958,3.125,13.833,3.125c12.209,0,23.542-7.125,28.834-18.125l36.583-76.084
		C201.021,716.479,201.521,707.813,198.688,699.729z"/>
	<path fill="#414042" d="M555.646,855.479c-4.25-2.042-9.041-3.167-13.833-3.167c-12.208,0-23.542,7.125-28.833,18.125
		l-36.625,76.084c-3.709,7.708-4.167,16.416-1.334,24.5c2.834,8.041,8.625,14.541,16.334,18.25
		c4.291,2.041,8.958,3.125,13.833,3.125c12.208,0,23.542-7.125,28.833-18.125l36.625-76.084c3.709-7.708,4.167-16.375,1.334-24.458
		C569.146,865.646,563.354,859.146,555.646,855.479z"/>
	<path fill="#414042" d="M785.271,699.729c-2.833-8.083-8.625-14.583-16.333-18.25c-4.25-2.042-9.042-3.167-13.833-3.167
		c-12.209,0-23.542,7.125-28.834,18.125l-36.625,76.084c-3.708,7.708-4.166,16.416-1.333,24.5
		c2.833,8.041,8.625,14.541,16.333,18.25c4.292,2.041,8.959,3.125,13.834,3.125c12.208,0,23.541-7.125,28.833-18.125l36.625-76.084
		C787.646,716.479,788.104,707.813,785.271,699.729z"/>
	<path fill="#414042" d="M848.938,855.479c-4.25-2.042-9.042-3.167-13.833-3.167c-12.209,0-23.542,7.125-28.834,18.125
		l-36.625,76.084c-3.708,7.708-4.166,16.416-1.333,24.5c2.833,8.041,8.625,14.541,16.333,18.25
		c4.292,2.041,8.959,3.125,13.834,3.125c12.208,0,23.541-7.125,28.833-18.125l36.625-76.084c3.708-7.708,4.167-16.375,1.333-24.458
		C862.438,865.646,856.646,859.146,848.938,855.479z"/>
</g>
</svg>
