<?xml version="1.0" encoding="utf-8"?>
<!-- Generator: Adobe Illustrator 16.0.0, SVG Export Plug-In . SVG Version: 6.00 Build 0)  -->
<!DOCTYPE svg PUBLIC "-//W3C//DTD SVG 1.1//EN" "http://www.w3.org/Graphics/SVG/1.1/DTD/svg11.dtd">
<svg version="1.1" id="Layer_1" xmlns="http://www.w3.org/2000/svg" xmlns:xlink="http://www.w3.org/1999/xlink" x="0px" y="0px"
	 width="1024px" height="1024px" viewBox="0 0 1024 1024" enable-background="new 0 0 1024 1024" xml:space="preserve">
<g>
	<path fill="#414042" d="M820.708,272.938l-0.063,0.042c0.625-6.208,0.938-12.542,0.938-18.875c0-109.917-89.063-199-198.896-199
		c-87.833,0-162.375,56.958-188.75,135.875c-18-8.833-39.104-11.25-60.5-11.25c-67.333,0-123.208,49.125-133.75,113.5v-0.042
		c-94.542,2.542-170.375,79.959-170.375,175.125c0,96.75,78.417,175.167,175.146,175.167h529.063
		c103.959,0,188.25-84.25,188.25-188.208C961.771,367.563,901.854,293.896,820.708,272.938z"/>
	<path fill="#414042" d="M292.563,754.771c-4.167-29.25-6.521-59.167-6.521-59.167L286,695.521c0,0-23.417,18.833-47.604,35.875
		c-22.833,16.208-44.958,68-4.666,85.333h0.041C274.063,834.104,296.563,782.604,292.563,754.771z"/>
	<path fill="#414042" d="M541.771,754.771c-4.125-29.25-6.5-59.167-6.5-59.167l-0.041-0.083c0,0-23.417,18.833-47.584,35.875
		c-22.875,16.208-45.021,68-4.688,85.333h0.021C523.271,834.104,545.771,782.604,541.771,754.771z"/>
	<path fill="#414042" d="M791,754.771c-4.146-29.25-6.521-59.167-6.521-59.167l-0.042-0.083c0,0-23.417,18.833-47.583,35.875
		c-22.875,16.208-45,68-4.667,85.333C772.479,834.104,794.979,782.604,791,754.771z"/>
	<path fill="#414042" d="M364.75,844.313l-0.063-0.125c0,0-23.396,18.875-47.583,35.875c-22.854,16.167-45,68-4.667,85.375h0.042
		c40.291,17.334,62.771-34.166,58.791-61.958C367.104,874.188,364.75,844.313,364.75,844.313z"/>
	<path fill="#414042" d="M613.979,844.313l-0.042-0.125c0,0-23.438,18.875-47.604,35.875c-22.854,16.167-45,68-4.666,85.375
		c40.313,17.334,62.813-34.166,58.813-61.958C616.333,874.188,613.979,844.313,613.979,844.313z"/>
	<path fill="#414042" d="M863.188,844.313l-0.042-0.125c0,0-23.416,18.875-47.583,35.875c-22.875,16.167-45.021,68-4.708,85.375
		c40.333,17.334,62.833-34.166,58.833-61.958C865.563,874.188,863.188,844.313,863.188,844.313z"/>
</g>
</svg>
