<?xml version="1.0" encoding="utf-8"?>
<!-- Generator: Adobe Illustrator 16.0.0, SVG Export Plug-In . SVG Version: 6.00 Build 0)  -->
<!DOCTYPE svg PUBLIC "-//W3C//DTD SVG 1.1//EN" "http://www.w3.org/Graphics/SVG/1.1/DTD/svg11.dtd">
<svg version="1.1" id="Layer_1" xmlns="http://www.w3.org/2000/svg" xmlns:xlink="http://www.w3.org/1999/xlink" x="0px" y="0px"
	 width="1024px" height="1024px" viewBox="0 0 1024 1024" enable-background="new 0 0 1024 1024" xml:space="preserve">
<path fill="#414042" d="M982.818,483.979l-146.888-0.221l83.739-77.389c12.818-11.833,13.6-31.8,1.767-44.599
	c-11.833-12.757-31.76-13.578-44.578-1.746L743.126,483.618l-72.929-0.109c-6.994-35.395-25.603-66.657-51.676-89.645l36.494-62.975
	l168.515-49.296c16.721-4.889,26.295-22.413,21.405-39.134c-4.89-16.722-22.392-26.315-39.154-21.427L700.894,251.72l74.401-128.389
	c8.752-15.079,3.596-34.389-11.482-43.12c-15.079-8.73-34.368-3.615-43.119,11.484l-73.618,127.037l-25.172-111.198
	c-3.841-16.989-20.81-27.732-37.736-23.81c-17.01,3.842-27.651,20.749-23.809,37.738l40.181,177.574l-36.58,63.122
	c-16.305-5.563-33.774-8.584-51.938-8.584c-18.014,0-35.348,2.971-51.539,8.446l-36.262-63.028l41.54-170.525
	c4.108-16.948-6.246-34.019-23.193-38.126c-16.948-4.129-33.998,6.265-38.126,23.172l-25.857,106.156L304.602,91.08
	c-8.69-15.099-27.959-20.337-43.078-11.607c-15.12,8.689-20.317,27.979-11.627,43.078l73.218,127.278l-108.88-33.808
	c-16.598-5.115-34.306,4.149-39.482,20.769c-5.177,16.66,4.129,34.327,20.769,39.503L369.4,330.29l36.416,63.304
	c-26.131,22.918-44.817,54.124-51.907,89.478l-72.719-0.114L154.27,361.708c-12.592-12.038-32.56-11.586-44.598,1.027
	c-12.039,12.592-11.586,32.58,1.006,44.619l78.987,75.459l-148.36-0.232c0,0-0.02,0-0.041,0c-17.4,0-31.513,14.093-31.553,31.514
	c-0.042,17.419,14.091,31.573,31.512,31.594l146.842,0.229l-83.735,77.401c-12.798,11.833-13.579,31.8-1.767,44.599
	c6.246,6.717,14.709,10.127,23.193,10.127c7.662,0,15.345-2.773,21.405-8.381l133.718-123.601l72.948,0.114
	c6.997,35.378,25.601,66.627,51.664,89.608l-36.501,63.002l-168.459,49.286c-16.721,4.891-26.315,22.413-21.426,39.135
	c4.89,16.722,22.392,26.356,39.155,21.426l104.865-30.681l-74.38,128.382c-8.751,15.078-3.615,34.388,11.463,43.119
	c4.992,2.896,10.437,4.252,15.798,4.252c10.887,0,21.467-5.628,27.342-15.735l73.609-127.051l25.161,111.213
	c3.328,14.646,16.352,24.589,30.752,24.589c2.321,0,4.663-0.246,7.005-0.78c16.988-3.842,27.649-20.749,23.788-37.737
	L423.48,730.621l36.571-63.123c16.314,5.569,33.795,8.595,51.97,8.595c18.015,0,35.348-2.971,51.537-8.446l36.253,63.02
	l-41.527,170.575c-4.129,16.927,6.244,33.998,23.172,38.106c2.507,0.616,5.033,0.904,7.498,0.904
	c14.215,0,27.137-9.655,30.63-24.097l25.858-106.167l73.979,128.6c5.854,10.147,16.475,15.817,27.403,15.817
	c5.321,0,10.724-1.355,15.695-4.211c15.118-8.689,20.296-27.979,11.627-43.078l-73.221-127.268l108.882,33.819
	c16.64,5.136,34.307-4.129,39.483-20.769s-4.129-34.327-20.788-39.504l-173.873-54.014L618.21,636.08
	c26.126-22.915,44.808-54.116,51.899-89.465l72.716,0.109l126.926,121.255c6.121,5.833,13.97,8.729,21.816,8.729
	c8.3,0,16.598-3.266,22.802-9.757c12.038-12.593,11.587-32.581-1.027-44.619l-78.998-75.471l148.371,0.224c0.021,0,0.021,0,0.062,0
	c17.38,0,31.513-14.093,31.554-31.513C1014.351,498.153,1000.237,483.999,982.818,483.979z M413.868,514.834
	c0-54.131,44.023-98.153,98.152-98.153c54.109,0,98.133,44.022,98.133,98.153c0,54.13-44.023,98.152-98.133,98.152
	C457.891,612.986,413.868,568.964,413.868,514.834z"/>
</svg>
