<?xml version="1.0" encoding="utf-8"?>
<!-- Generator: Adobe Illustrator 16.0.0, SVG Export Plug-In . SVG Version: 6.00 Build 0)  -->
<!DOCTYPE svg PUBLIC "-//W3C//DTD SVG 1.1//EN" "http://www.w3.org/Graphics/SVG/1.1/DTD/svg11.dtd">
<svg version="1.1" id="Layer_1" xmlns="http://www.w3.org/2000/svg" xmlns:xlink="http://www.w3.org/1999/xlink" x="0px" y="0px"
	 width="1024px" height="1024px" viewBox="0 0 1024 1024" enable-background="new 0 0 1024 1024" xml:space="preserve">
<g>
	<path fill="#414042" d="M823.104,257.771l-0.042,0.041c0.625-6.166,0.917-12.541,0.917-18.875c0-109.916-89.042-199-198.917-199
		c-87.792,0-162.375,56.959-188.708,135.917c-18-8.833-39.125-11.25-60.5-11.25c-67.375,0-123.209,49.083-133.792,113.458
		c-94.5,2.5-170.333,79.959-170.333,175.084c0,96.791,78.416,175.166,175.125,175.166h132.291l-118.5,168.5l82.459,8.667
		L233.271,972.063l174.75-195.833l-87.333-14.667l60.167-133.25h125.083h16.25l279.083-341.833l-99.708,314.708l117.25,22.042
		c83.25-19.458,145.375-93.917,145.375-183.125C964.188,352.396,904.313,278.771,823.104,257.771z"/>
	<polygon fill="#414042" points="733.979,411.521 532.521,697.771 667.271,711.979 487.813,984.063 773.354,664.104 
		630.604,640.146 	"/>
</g>
</svg>
