<?xml version="1.0" encoding="utf-8"?>
<!-- Generator: Adobe Illustrator 16.0.0, SVG Export Plug-In . SVG Version: 6.00 Build 0)  -->
<!DOCTYPE svg PUBLIC "-//W3C//DTD SVG 1.1//EN" "http://www.w3.org/Graphics/SVG/1.1/DTD/svg11.dtd">
<svg version="1.1" id="Layer_1" xmlns="http://www.w3.org/2000/svg" xmlns:xlink="http://www.w3.org/1999/xlink" x="0px" y="0px"
	 width="1024px" height="1024px" viewBox="0 0 1024 1024" enable-background="new 0 0 1024 1024" xml:space="preserve">
<path fill="#414042" d="M985.854,490.646H833.179c-2.813-41.815-13.823-81.415-31.442-117.208l132.222-76.314
	c10.209-5.896,13.709-18.938,7.813-29.146c-5.916-10.208-18.979-13.708-29.146-7.813L780.35,336.512
	c-22.79-33.817-51.967-62.988-85.787-85.771l76.396-132.261c5.896-10.208,2.396-23.25-7.813-29.146
	c-10.188-5.917-23.25-2.417-29.146,7.813l-76.368,132.212c-35.79-17.609-75.385-28.61-117.192-31.415l0.04-152.631
	c0-11.771-9.542-21.333-21.334-21.333c-11.771,0-21.333,9.542-21.333,21.333l-0.04,152.639
	c-41.816,2.82-81.415,13.837-117.205,31.461L304.271,97.146c-5.916-10.209-18.979-13.729-29.146-7.813
	c-10.208,5.896-13.708,18.938-7.813,29.146l76.331,132.324c-33.814,22.795-62.98,51.976-85.759,85.8l-132.238-76.437
	c-10.188-5.896-23.25-2.417-29.146,7.813c-5.896,10.188-2.396,23.25,7.813,29.146l132.195,76.412
	c-17.603,35.79-28.597,75.382-31.399,117.188l-152.629-0.079c-0.021,0-0.021,0-0.021,0c-11.771,0-21.333,9.541-21.333,21.313
	c0,11.791,9.542,21.354,21.313,21.354l152.681,0.08c2.823,41.813,13.844,81.408,31.472,117.196l-132.278,76.245
	c-10.208,5.875-13.729,18.916-7.833,29.125c3.938,6.854,11.125,10.688,18.5,10.688c3.604,0,7.271-0.917,10.625-2.854l132.371-76.298
	c22.789,33.8,51.96,62.955,85.771,85.729l-76.455,132.256c-5.896,10.188-2.396,23.229,7.813,29.146
	c3.354,1.938,7.021,2.854,10.646,2.854c7.375,0,14.542-3.813,18.5-10.667l76.429-132.21c35.783,17.603,75.37,28.602,117.171,31.41
	l-0.08,152.654c0,11.792,9.542,21.354,21.313,21.354c0.021,0,0.021,0,0.021,0c11.771,0,21.333-9.542,21.333-21.313l0.079-152.698
	c41.813-2.815,81.41-13.83,117.2-31.453l76.241,132.234c3.938,6.854,11.125,10.688,18.5,10.688c3.604,0,7.271-0.917,10.625-2.854
	c10.209-5.875,13.729-18.938,7.834-29.125l-76.293-132.321c33.815-22.793,62.985-51.973,85.769-85.797l132.17,76.431
	c3.375,1.959,7.042,2.875,10.667,2.875c7.375,0,14.541-3.813,18.479-10.646c5.917-10.208,2.417-23.25-7.771-29.146l-132.173-76.434
	c17.603-35.777,28.603-75.357,31.414-117.15h152.676c11.791,0,21.333-9.541,21.333-21.333S997.646,490.646,985.854,490.646z"/>
</svg>
