<?xml version="1.0" encoding="utf-8"?>
<!-- Generator: Adobe Illustrator 16.0.0, SVG Export Plug-In . SVG Version: 6.00 Build 0)  -->
<!DOCTYPE svg PUBLIC "-//W3C//DTD SVG 1.1//EN" "http://www.w3.org/Graphics/SVG/1.1/DTD/svg11.dtd">
<svg version="1.1" id="Layer_1" xmlns="http://www.w3.org/2000/svg" xmlns:xlink="http://www.w3.org/1999/xlink" x="0px" y="0px"
	 width="1024px" height="1024px" viewBox="0 0 1024 1024" enable-background="new 0 0 1024 1024" xml:space="preserve">
<path fill="#414042" d="M977.417,645.209c-2.771-2.875-6.917-4-10.813-2.771c-43.084,13.292-87.792,20.021-132.917,20.021
	c-249.021,0-451.604-202.625-451.604-451.667c0-49.75,8.459-99.313,25.125-147.333c1.313-3.792,0.375-8.021-2.416-10.917
	c-2.771-2.854-6.896-4.021-10.813-2.771C194.396,111.209,60.313,292.854,60.313,501.792c0,260.792,212.167,472.958,472.938,472.958
	c201.396,0,380.854-128.063,446.583-318.646C981.146,652.313,980.208,648.104,977.417,645.209z"/>
</svg>
