<?xml version="1.0" encoding="utf-8"?>
<!-- Generator: Adobe Illustrator 16.0.0, SVG Export Plug-In . SVG Version: 6.00 Build 0)  -->
<!DOCTYPE svg PUBLIC "-//W3C//DTD SVG 1.1//EN" "http://www.w3.org/Graphics/SVG/1.1/DTD/svg11.dtd">
<svg version="1.1" id="Layer_1" xmlns="http://www.w3.org/2000/svg" xmlns:xlink="http://www.w3.org/1999/xlink" x="0px" y="0px"
	 width="48px" height="48px" viewBox="0 0 48 48" enable-background="new 0 0 48 48" xml:space="preserve">
<g>
	<path fill="#414042" d="M32.601,44.555H18.166c-0.276,0-0.5,0.224-0.5,0.5s0.224,0.5,0.5,0.5h14.435c0.276,0,0.5-0.224,0.5-0.5
		S32.877,44.555,32.601,44.555z"/>
	<path fill="#414042" d="M44.986,22.76H16.582L7.921,2.764c-0.11-0.253-0.402-0.369-0.658-0.26c-0.253,0.11-0.37,0.404-0.26,0.658
		l8.488,19.598h-1.276L3.392,10.495c-0.184-0.207-0.499-0.226-0.706-0.044c-0.207,0.183-0.227,0.499-0.044,0.706L12.881,22.76H4.986
		c-0.133,0-0.26,0.053-0.354,0.146s-0.146,0.221-0.146,0.354c0,0.923,0.067,1.88,0.204,2.867l0.345,1.841
		c0.051,0.215,0.12,0.421,0.177,0.632c0,0.086,0.027,0.163,0.065,0.233C7.76,37.661,15.729,43.76,24.986,43.76
		c9.25,0,17.211-6.087,19.704-14.923c0.04-0.071,0.068-0.149,0.068-0.237c0-0.001-0.001-0.002-0.001-0.003
		c0.059-0.219,0.131-0.43,0.183-0.651l0.345-1.841c0.134-0.959,0.202-1.917,0.202-2.845C45.486,22.983,45.263,22.76,44.986,22.76z
		 M44.479,23.76c-0.02,0.724-0.081,1.46-0.182,2.184l-0.336,1.796c-0.028,0.122-0.07,0.239-0.101,0.36H6.108
		c-0.029-0.114-0.068-0.223-0.095-0.338l-0.337-1.795c-0.103-0.745-0.164-1.486-0.184-2.207H44.479z M24.986,42.76
		c-8.625,0-16.08-5.561-18.597-13.66H43.58C41.055,37.207,33.604,42.76,24.986,42.76z"/>
</g>
</svg>
