<?xml version="1.0" encoding="utf-8"?>
<!-- Generator: Adobe Illustrator 16.0.0, SVG Export Plug-In . SVG Version: 6.00 Build 0)  -->
<!DOCTYPE svg PUBLIC "-//W3C//DTD SVG 1.1//EN" "http://www.w3.org/Graphics/SVG/1.1/DTD/svg11.dtd">
<svg version="1.1" id="Layer_1" xmlns="http://www.w3.org/2000/svg" xmlns:xlink="http://www.w3.org/1999/xlink" x="0px" y="0px"
	 width="48px" height="48px" viewBox="0 0 48 48" enable-background="new 0 0 48 48" xml:space="preserve">
<g>
	<path fill="#414042" d="M46.371,32.735h-5.105l0.143-0.445c0.162-0.907-0.818-2.462-2.221-4.558
		c-0.406-0.607-0.78-1.17-0.964-1.516c0.771-1.785,0.96-3.224,0.568-4.301l1.724-2.053c0.352,0.082,0.892,0.138,1.328-0.14
		c0.253-0.161,0.561-0.494,0.588-1.234c-0.041-0.416-0.323-1.156-1.083-1.421c-0.022-0.275-0.106-0.621-0.347-0.922
		c-0.204-0.256-0.601-0.567-1.35-0.598c-0.077,0-0.767,0.02-1.203,0.56c-0.302,0.374-0.39,0.873-0.251,1.528
		c0.043,0.139,0.109,0.317,0.206,0.485l-2.124,1.903c-0.226-0.031-0.387-0.034-0.417-0.03c-0.904,0.064-1.761,0.269-2.561,0.557
		c-0.03-0.043-0.063-0.085-0.107-0.119c-0.871-0.641-1.451-1.001-1.719-1.159c0.434-1.172,0.48-2.14,0.142-2.895l1.171-1.394
		c0.281,0.055,0.666,0.07,0.994-0.138c0.212-0.135,0.47-0.411,0.492-1.03c-0.031-0.323-0.244-0.888-0.803-1.125
		c-0.028-0.206-0.102-0.447-0.272-0.661c-0.167-0.209-0.488-0.464-1.095-0.489c-0.063,0-0.625,0.017-0.983,0.459
		c-0.17,0.21-0.347,0.589-0.209,1.245c0.027,0.086,0.065,0.19,0.117,0.295l-1.512,1.421c-2.187,0-4.072,1.096-5.413,2.189
		c-6.048-0.496-10.932,2.607-13.566,4.289c-0.715,0.457-1.526,0.974-1.752,0.991c-1.485,0-3.658-0.84-3.68-0.849
		c-0.244-0.095-0.519,0.013-0.632,0.249L2.93,25.027c-0.119,0.246-0.018,0.543,0.227,0.665c0.019,0.01,1.952,0.986,3.857,2.734
		c0.158,0.145,0.344,0.334,0.563,0.557c0.888,0.902,2.4,2.42,4.763,3.752H1.63c-0.276,0-0.5,0.224-0.5,0.5s0.224,0.5,0.5,0.5h12.83
		c0.007,0,0.013,0.004,0.02,0.004c0.005,0,0.008-0.004,0.013-0.004h31.878c0.276,0,0.5-0.224,0.5-0.5S46.647,32.735,46.371,32.735z
		 M39.459,18.518c0.146-0.13,0.201-0.333,0.144-0.52c-0.045-0.147-0.154-0.263-0.294-0.317c-0.047-0.068-0.115-0.212-0.144-0.295
		c-0.043-0.206-0.067-0.485,0.06-0.646c0.137-0.173,0.423-0.19,0.411-0.192c0.278,0.012,0.474,0.085,0.582,0.219
		c0.157,0.193,0.146,0.513,0.129,0.616c-0.026,0.141,0.009,0.286,0.097,0.398c0.089,0.113,0.221,0.183,0.363,0.191
		c0.519,0.032,0.614,0.483,0.629,0.544c-0.007,0.132-0.033,0.302-0.129,0.364c-0.161,0.103-0.552,0.034-0.771-0.054
		c-0.2-0.083-0.434-0.027-0.573,0.141l-1.705,2.03c-0.26-0.284-0.558-0.489-0.855-0.635L39.459,18.518z M32.063,13.94
		c0.141-0.132,0.192-0.334,0.133-0.518c-0.041-0.129-0.133-0.233-0.25-0.292c-0.025-0.045-0.056-0.112-0.066-0.137
		c-0.035-0.171-0.028-0.304,0.019-0.364c0.049-0.063,0.17-0.088,0.189-0.09c0.112,0.005,0.261,0.028,0.329,0.111
		c0.076,0.093,0.077,0.275,0.067,0.342c-0.026,0.141,0.009,0.286,0.098,0.399c0.088,0.113,0.22,0.182,0.363,0.191
		c0.255,0.016,0.32,0.219,0.334,0.259c-0.005,0.104-0.027,0.153-0.033,0.16c-0.05,0.035-0.274,0.016-0.44-0.051
		c-0.201-0.083-0.434-0.026-0.573,0.141l-1.23,1.465c-0.126-0.104-0.256-0.185-0.386-0.256L32.063,13.94z M8.29,28.282
		c-0.234-0.237-0.433-0.439-0.601-0.593c-1.478-1.356-2.943-2.258-3.65-2.657l1.141-2.362c0.757,0.263,2.351,0.758,3.607,0.758
		c0.473,0,1.044-0.352,2.291-1.147c2.39-1.525,6.701-4.277,11.984-4.187c-0.649,0.65-1.037,1.163-1.082,1.223
		c-0.164,0.222-0.117,0.535,0.105,0.7c0.224,0.164,0.535,0.116,0.7-0.105c0.029-0.04,2.963-3.952,6.697-3.953
		c0.008,0,0.859,0.083,1.206,0.769c0.3,0.592,0.335,1.811-1.199,4.258c-0.146,0.234-0.076,0.542,0.158,0.689
		c0.083,0.052,0.175,0.076,0.266,0.076c0.166,0,0.329-0.083,0.424-0.234c0.291-0.464,0.528-0.9,0.735-1.321
		c0.233,0.142,0.634,0.397,1.187,0.793c-3.04,1.451-5.033,3.961-5.145,4.104c-0.17,0.218-0.131,0.531,0.087,0.701
		c0.217,0.168,0.531,0.131,0.702-0.086c0.034-0.044,3.486-4.395,7.996-4.716c0.013,0,1.248,0.016,1.813,0.944
		c0.016,0.085,0.055,0.162,0.112,0.23c0.38,0.891,0.317,2.644-1.806,6.097c-0.145,0.235-0.071,0.543,0.164,0.688
		c0.081,0.051,0.172,0.074,0.262,0.074c0.167,0,0.331-0.085,0.426-0.238c0.318-0.519,0.589-1.009,0.837-1.484
		c0.185,0.29,0.403,0.618,0.65,0.986c0.759,1.135,2.171,3.245,2.085,3.758l-0.165,0.502c-0.021,0.063-0.026,0.126-0.022,0.188
		H14.581C11.299,31.332,9.416,29.426,8.29,28.282z"/>
	<path fill="#414042" d="M36.333,35.478H12.135c-0.276,0-0.5,0.224-0.5,0.5s0.224,0.5,0.5,0.5h24.198c0.276,0,0.5-0.224,0.5-0.5
		S36.609,35.478,36.333,35.478z"/>
</g>
</svg>
