<?xml version="1.0" encoding="utf-8"?>
<!-- Generator: Adobe Illustrator 16.0.0, SVG Export Plug-In . SVG Version: 6.00 Build 0)  -->
<!DOCTYPE svg PUBLIC "-//W3C//DTD SVG 1.1//EN" "http://www.w3.org/Graphics/SVG/1.1/DTD/svg11.dtd">
<svg version="1.1" id="Layer_1" xmlns="http://www.w3.org/2000/svg" xmlns:xlink="http://www.w3.org/1999/xlink" x="0px" y="0px"
	 width="48px" height="48px" viewBox="0 0 48 48" enable-background="new 0 0 48 48" xml:space="preserve">
<path fill="#414042" d="M44.625,32.819c-0.008-0.046-0.186-1.12-1.088-1.649c-0.617-0.36-1.384-0.376-2.329-0.022
	c-0.227,0.11-0.627,0.329-0.92,0.629l-4.084-3.372c-0.001-0.105-0.007-0.199-0.017-0.265c-0.035-0.229-0.108-0.394-0.22-0.491
	c-0.709-0.732-1.193-1.251-1.441-1.545c-0.581-0.688-2.528-3.802-3.463-5.328c-0.058-0.107-5.859-10.695-16.174-10.695l-0.329,0.003
	c-7.205,0.154-9.751,4.179-10.512,5.902c-1.126,2.555-0.87,5.431,0.64,7.157c2.449,2.8,6.547,7.485,12.798,7.485
	c0.774,0,1.571-0.073,2.367-0.217c4.929-0.888,9.067-0.644,12.087,0.706c0.01,0.005,0.02,0.01,0.028,0.014
	c0.064,0.027,0.13,0.038,0.19,0.037c0.164,0,0.318-0.087,0.413-0.23l5.668,4.187c-0.076,0.528-0.122,1.537,0.465,2.21
	c0.246,0.281,0.69,0.594,1.5,0.594c0.122,0,0.252-0.007,0.392-0.022c0.649-0.165,1.786-0.819,1.91-2.168
	c0.438-0.07,1.068-0.261,1.536-0.766C44.529,34.45,44.726,33.733,44.625,32.819z M32.043,30.073
	c-1.899-0.789-4.166-1.188-6.742-1.188c-1.732,0-3.624,0.183-5.624,0.543c-0.738,0.133-1.475,0.201-2.189,0.201
	c-5.797,0-9.708-4.472-12.045-7.144c-1.259-1.44-1.451-3.889-0.478-6.095c0.683-1.548,2.988-5.165,9.618-5.306l0.307-0.003
	c9.709,0,15.238,10.066,15.307,10.192c0.114,0.186,2.791,4.56,3.566,5.477c0.263,0.312,0.745,0.829,1.437,1.542
	c0.018,0.11,0.024,0.313-0.091,0.517c-0.178,0.316-0.604,0.562-1.233,0.707C32.89,29.744,32.347,29.913,32.043,30.073z
	 M43.315,34.289c-0.463,0.505-1.289,0.485-1.289,0.49c-0.141,0.001-0.281,0.053-0.38,0.156c-0.099,0.104-0.147,0.245-0.135,0.388
	c0.11,1.238-1.031,1.58-1.089,1.602c-0.683,0.07-0.893-0.168-0.962-0.246c-0.373-0.426-0.255-1.358-0.185-1.652
	c0.048-0.195-0.026-0.401-0.188-0.521l-5.326-3.934c0.111-0.027,0.209-0.053,0.34-0.083c0.976-0.228,1.494-0.635,1.78-1.054
	l4.222,3.485c0.151,0.125,0.356,0.177,0.531,0.093c0.176-0.085,0.282-0.235,0.278-0.431c0.053-0.117,0.407-0.378,0.687-0.517
	c0.602-0.224,1.081-0.235,1.426-0.036c0.486,0.28,0.607,0.921,0.608,0.921C43.698,33.539,43.591,33.988,43.315,34.289z"/>
</svg>
