<?xml version="1.0" encoding="utf-8"?>
<!-- Generator: Adobe Illustrator 16.0.0, SVG Export Plug-In . SVG Version: 6.00 Build 0)  -->
<!DOCTYPE svg PUBLIC "-//W3C//DTD SVG 1.1//EN" "http://www.w3.org/Graphics/SVG/1.1/DTD/svg11.dtd">
<svg version="1.1" id="Layer_1" xmlns="http://www.w3.org/2000/svg" xmlns:xlink="http://www.w3.org/1999/xlink" x="0px" y="0px"
	 width="48px" height="48px" viewBox="0 0 48 48" enable-background="new 0 0 48 48" xml:space="preserve">
<path fill="#414042" d="M34.118,14.357c-0.494,0-0.982,0.055-1.458,0.164c-1.42-3.51-4.842-5.837-8.659-5.837
	c-3.816,0-7.239,2.327-8.658,5.838c-0.477-0.109-0.965-0.164-1.459-0.164c-3.586,0-6.504,2.917-6.504,6.504s2.917,6.504,6.504,6.504
	c0.164,0,0.321-0.019,0.469-0.042c0.058,1.408,0.092,3.374,0.127,5.44c0.035,2.029,0.073,4.184,0.137,6.085
	c0.009,0.27,0.229,0.483,0.499,0.483l9.333,0.003l8.793-0.003c0.274,0,0.498-0.222,0.5-0.496c0.001-0.071,0.055-6.907-0.09-11.487
	c0.154,0.011,0.31,0.017,0.466,0.017c3.587,0,6.505-2.917,6.505-6.504S37.705,14.357,34.118,14.357z M32.745,38.332l-8.296,0.003
	l-8.848-0.003c-0.031-1.004-0.055-2.068-0.076-3.139h17.227C32.753,36.576,32.748,37.718,32.745,38.332z M34.118,26.365
	c-0.307,0-0.61-0.025-0.901-0.075c-0.147-0.025-0.3,0.017-0.413,0.117c-0.113,0.099-0.176,0.244-0.171,0.395
	c0.081,2.177,0.109,5.018,0.117,7.392H15.506c-0.009-0.486-0.017-0.97-0.025-1.447c-0.041-2.372-0.08-4.613-0.155-6.048
	c-0.008-0.142-0.075-0.273-0.186-0.363s-0.254-0.13-0.394-0.104c-0.099,0.016-0.198,0.036-0.296,0.056
	c-0.185,0.037-0.371,0.078-0.564,0.078c-3.035,0-5.504-2.469-5.504-5.504s2.469-5.504,5.504-5.504c0.553,0,1.098,0.082,1.621,0.242
	c0.257,0.081,0.531-0.06,0.619-0.314c1.165-3.351,4.331-5.602,7.877-5.602c3.547,0,6.713,2.251,7.877,5.602
	c0.09,0.255,0.359,0.395,0.62,0.314c0.521-0.161,1.065-0.242,1.619-0.242c3.035,0,5.505,2.469,5.505,5.504
	S37.153,26.365,34.118,26.365z"/>
</svg>
