<?xml version="1.0" encoding="utf-8"?>
<!-- Generator: Adobe Illustrator 16.0.0, SVG Export Plug-In . SVG Version: 6.00 Build 0)  -->
<!DOCTYPE svg PUBLIC "-//W3C//DTD SVG 1.1//EN" "http://www.w3.org/Graphics/SVG/1.1/DTD/svg11.dtd">
<svg version="1.1" id="Layer_1" xmlns="http://www.w3.org/2000/svg" xmlns:xlink="http://www.w3.org/1999/xlink" x="0px" y="0px"
	 width="48px" height="48px" viewBox="0 0 48 48" enable-background="new 0 0 48 48" xml:space="preserve">
<g>
	<path fill="#414042" d="M25.41,5.938c-2.747,0-4.981,3.12-4.981,6.955c0,3.599,1.968,6.567,4.481,6.919v22.472
		c0,0.276,0.224,0.5,0.5,0.5s0.5-0.224,0.5-0.5V19.812c2.513-0.352,4.48-3.32,4.48-6.919C30.391,9.058,28.156,5.938,25.41,5.938z
		 M25.41,18.847c-2.195,0-3.981-2.671-3.981-5.954c0-3.284,1.786-5.955,3.981-5.955s3.98,2.671,3.98,5.955
		C29.391,16.176,27.605,18.847,25.41,18.847z"/>
	<path fill="#414042" d="M41.813,5.298c-0.158-0.088-0.352-0.083-0.506,0.01c-0.163,0.101-4.004,2.579-4.004,13.038v8.129
		c0,0.276,0.224,0.5,0.499,0.5l3.267,0.003v15.306c0,0.276,0.224,0.5,0.5,0.5s0.5-0.224,0.5-0.5V5.734
		C42.068,5.553,41.971,5.386,41.813,5.298z M41.068,25.978l-2.766-0.002v-7.63c0-6.899,1.729-10.111,2.766-11.417V25.978z"/>
	<path fill="#414042" d="M14.169,5.324c-0.272,0.014-0.483,0.247-0.474,0.519c0.007,0.225,0.002,5.313,0,7.228l-0.001,1.753
		c0,1.867-0.659,3.121-1.641,3.121H8.582c-0.874,0-1.641-1.458-1.641-3.121L6.939,13.08c-0.004-1.922-0.014-7.023,0-7.313
		c0.018-0.275-0.19-0.512-0.465-0.531C6.202,5.226,5.961,5.424,5.942,5.7C5.931,5.869,5.93,8.007,5.939,13.082l0.001,1.743
		c0,2.311,1.16,4.121,2.641,4.121h1.234v23.338c0,0.276,0.224,0.5,0.5,0.5s0.5-0.224,0.5-0.5V18.945h1.238
		c1.314,0,2.641-1.274,2.641-4.121l0.001-1.752c0.006-5.958,0.003-7.205-0.002-7.287C14.674,5.514,14.441,5.307,14.169,5.324z"/>
	<path fill="#414042" d="M10.314,17.088c0.276,0,0.5-0.224,0.5-0.5V5.82c0-0.276-0.224-0.5-0.5-0.5s-0.5,0.224-0.5,0.5v10.768
		C9.814,16.864,10.038,17.088,10.314,17.088z"/>
</g>
</svg>
