<?xml version="1.0" encoding="utf-8"?>
<!-- Generator: Adobe Illustrator 16.0.0, SVG Export Plug-In . SVG Version: 6.00 Build 0)  -->
<!DOCTYPE svg PUBLIC "-//W3C//DTD SVG 1.1//EN" "http://www.w3.org/Graphics/SVG/1.1/DTD/svg11.dtd">
<svg version="1.1" id="Layer_1" xmlns="http://www.w3.org/2000/svg" xmlns:xlink="http://www.w3.org/1999/xlink" x="0px" y="0px"
	 width="48px" height="48px" viewBox="0 0 48 48" enable-background="new 0 0 48 48" xml:space="preserve">
<g>
	<path fill="#414042" d="M24.001,2.932c-11.622,0-21.076,9.456-21.076,21.078c0,11.621,9.455,21.076,21.076,21.076
		s21.076-9.455,21.076-21.076C45.077,12.387,35.623,2.932,24.001,2.932z M24.001,44.086c-11.07,0-20.076-9.006-20.076-20.076
		c0-11.071,9.006-20.078,20.076-20.078s20.076,9.007,20.076,20.078C44.077,35.08,35.071,44.086,24.001,44.086z"/>
	<path fill="#414042" d="M24.001,8.146c-8.747,0-15.863,7.116-15.863,15.863c0,8.746,7.116,15.861,15.863,15.861
		c8.747,0,15.862-7.115,15.862-15.861C39.863,15.263,32.748,8.146,24.001,8.146z M24.001,38.871
		c-8.196,0-14.863-6.667-14.863-14.861c0-8.196,6.667-14.863,14.863-14.863c8.195,0,14.862,6.667,14.862,14.863
		C38.863,32.204,32.196,38.871,24.001,38.871z"/>
</g>
</svg>
