<?xml version="1.0" encoding="utf-8"?>
<!-- Generator: Adobe Illustrator 16.0.0, SVG Export Plug-In . SVG Version: 6.00 Build 0)  -->
<!DOCTYPE svg PUBLIC "-//W3C//DTD SVG 1.1//EN" "http://www.w3.org/Graphics/SVG/1.1/DTD/svg11.dtd">
<svg version="1.1" id="Layer_1" xmlns="http://www.w3.org/2000/svg" xmlns:xlink="http://www.w3.org/1999/xlink" x="0px" y="0px"
	 width="48px" height="48px" viewBox="0 0 48 48" enable-background="new 0 0 48 48" xml:space="preserve">
<g>
	<path fill="#414042" d="M40.041,43.148H7.961c-0.276,0-0.5,0.224-0.5,0.5s0.224,0.5,0.5,0.5h32.08c0.276,0,0.5-0.224,0.5-0.5
		S40.317,43.148,40.041,43.148z"/>
	<path fill="#414042" d="M40.313,36.664c-0.147-0.152-0.355-0.24-0.571-0.24l-0.754,0.001c-0.422-6.27-5.799-11.5-12.786-12.423
		v-2.336c0-0.435-0.354-0.789-0.791-0.789h-3.193c-0.435,0-0.789,0.354-0.789,0.789v2.383c-6.905,1.052-12.031,6.158-12.44,12.376
		H8.261c-0.441,0-0.8,0.358-0.8,0.799v3.182c0,0.44,0.359,0.799,0.8,0.799h31.481c0.44,0,0.799-0.358,0.799-0.799v-3.184
		C40.541,37.008,40.453,36.8,40.313,36.664z M39.541,40.205H8.461v-2.779h1.004c0.271,0,0.493-0.216,0.5-0.487
		c0.157-6.075,5.221-11.105,12.041-11.96c0.149-0.019,0.286-0.064,0.366-0.19c0.08-0.127,0.104-0.244,0.056-0.386v-2.525h2.773
		v2.471c-0.003,0.013-0.005,0.025-0.006,0.035c-0.017,0.133,0.021,0.268,0.104,0.373c0.084,0.105,0.206,0.172,0.34,0.187
		c6.894,0.716,12.212,5.874,12.37,11.996c0.007,0.271,0.229,0.487,0.5,0.487h0.001l1.03-0.002V40.205z"/>
	<path fill="#414042" d="M27.394,18.02c0.095,0.169,0.277,0.272,0.461,0.272c0.079,0,0.157-0.019,0.229-0.059
		c0.241-0.135,0.337-0.418,0.202-0.66c-0.008-0.028-0.013-0.063-0.02-0.1l-0.012-0.125c-0.001-0.098-0.001-0.161,0.019-0.218
		c0.011-0.032,0.019-0.064,0.022-0.098c0.009-0.069,0.067-0.193,0.123-0.313l0.054-0.116c0.043-0.088,0.107-0.173,0.172-0.262
		c0.066-0.091,0.132-0.184,0.191-0.28l0.146-0.16c0.137-0.149,0.278-0.302,0.413-0.469l0.327-0.413
		c0.119-0.153,0.215-0.353,0.298-0.529l0.06-0.126c0.157-0.4,0.251-0.812,0.289-1.267c0.028-0.436,0.015-0.84-0.038-1.168
		c-0.018-0.205-0.056-0.404-0.125-0.682c-0.034-0.149-0.069-0.297-0.106-0.412c-0.091-0.337-0.217-0.648-0.345-0.962
		c-0.127-0.294-0.259-0.565-0.394-0.797c-0.23-0.422-0.5-0.822-0.748-1.114c-0.229-0.289-0.427-0.422-0.464-0.446
		c-0.228-0.148-0.529-0.081-0.682,0.146c-0.151,0.227-0.089,0.535,0.135,0.691c0.001,0,0.1,0.07,0.238,0.244
		c0.125,0.147,0.374,0.467,0.649,0.969c0.121,0.211,0.235,0.448,0.348,0.707c0.104,0.255,0.217,0.527,0.303,0.847
		c0.037,0.112,0.063,0.232,0.091,0.352c0.001,0.004,0.024,0.104,0.025,0.107c0.036,0.142,0.064,0.287,0.082,0.471
		c0.045,0.289,0.057,0.619,0.033,0.973c-0.029,0.348-0.102,0.667-0.208,0.941l-0.047,0.098c-0.058,0.123-0.131,0.276-0.181,0.34
		l-0.319,0.405c-0.119,0.146-0.247,0.284-0.37,0.417l-0.187,0.205c-0.023,0.025-0.044,0.053-0.061,0.083
		c-0.049,0.085-0.108,0.166-0.166,0.244c-0.101,0.14-0.196,0.277-0.267,0.425l-0.053,0.113c-0.083,0.176-0.168,0.356-0.203,0.562
		c-0.061,0.203-0.059,0.382-0.057,0.586c-0.001,0.038,0.02,0.168,0.027,0.206C27.303,17.77,27.325,17.897,27.394,18.02z"/>
	<path fill="#414042" d="M17.941,15.956l0.047,0.1c0.085,0.181,0.174,0.367,0.293,0.523l0.331,0.417
		c0.129,0.157,0.265,0.306,0.398,0.45l0.128,0.125c0.066,0.113,0.143,0.22,0.218,0.324c0.065,0.09,0.131,0.176,0.168,0.254
		l0.06,0.129c0.057,0.12,0.115,0.244,0.145,0.402c0.019,0.059,0.02,0.118,0.02,0.218l0.001,0.071l-0.012,0.061
		c-0.006,0.037-0.011,0.071-0.019,0.099c-0.109,0.243-0.008,0.531,0.232,0.652c0.072,0.036,0.148,0.053,0.223,0.053
		c0.184,0,0.36-0.101,0.448-0.276c0.058-0.115,0.079-0.234,0.118-0.443c0.008-0.041,0.011-0.171,0.009-0.213
		c0-0.133,0.001-0.316-0.049-0.444c-0.031-0.223-0.122-0.417-0.21-0.604l-0.059-0.126c-0.066-0.138-0.163-0.276-0.265-0.417
		c-0.057-0.078-0.116-0.159-0.224-0.323l-0.197-0.216c-0.12-0.131-0.244-0.265-0.354-0.4l-0.321-0.404
		c-0.05-0.066-0.122-0.217-0.179-0.338l-0.037-0.075c-0.122-0.307-0.195-0.625-0.222-0.965c-0.023-0.356-0.013-0.687,0.035-1.009
		c0.015-0.15,0.041-0.294,0.083-0.452l0.023-0.101c0.027-0.119,0.053-0.237,0.098-0.375c0.077-0.288,0.187-0.554,0.294-0.821
		c0.112-0.256,0.226-0.495,0.354-0.717c0.271-0.495,0.519-0.814,0.643-0.959c0.179-0.211,0.153-0.526-0.058-0.705
		c-0.21-0.178-0.525-0.152-0.705,0.058c-0.256,0.302-0.525,0.702-0.752,1.117c-0.139,0.241-0.27,0.514-0.416,0.848
		c-0.116,0.287-0.238,0.591-0.318,0.894c-0.047,0.141-0.082,0.29-0.133,0.519c-0.052,0.192-0.088,0.391-0.106,0.572
		c-0.055,0.368-0.069,0.771-0.04,1.206C17.672,15.109,17.767,15.522,17.941,15.956z"/>
	<polygon fill="#414042" points="23.438,15.879 23.3,15.995 23.064,16.211 	"/>
	<path fill="#414042" d="M23.055,16.201l0.245-0.206l0.501-0.46c-0.051-0.057-0.108-0.121-0.149-0.21
		c-0.073-0.163-0.112-0.319-0.118-0.471c-0.006-0.181-0.003-0.451,0.089-0.738c0.064-0.252,0.178-0.526,0.338-0.819l0.271-0.452
		c0.065-0.095,0.135-0.187,0.206-0.28l0.41-0.606c0.095-0.126,0.13-0.238,0.172-0.362l0.085-0.211
		c0.127-0.373,0.205-0.772,0.223-1.136c0.036-0.421,0.034-0.823-0.006-1.175c-0.028-0.381-0.084-0.766-0.152-1.139
		c-0.068-0.358-0.145-0.707-0.228-1.061L24.834,6.48c-0.048-0.183-0.094-0.358-0.145-0.521c-0.173-0.576-0.329-1.063-0.453-1.383
		c-0.056-0.157-0.106-0.279-0.155-0.397l-0.913,0.408c0.033,0.08,0.077,0.187,0.131,0.336c0.122,0.316,0.269,0.778,0.434,1.327
		c0.047,0.153,0.09,0.316,0.134,0.484l0.106,0.392c0.075,0.318,0.147,0.653,0.213,0.994c0.061,0.334,0.112,0.684,0.139,1.047
		c0.034,0.304,0.036,0.639,0.003,1.014c-0.014,0.286-0.075,0.599-0.177,0.892c-0.027,0.065-0.054,0.129-0.063,0.16
		c-0.018,0.041-0.031,0.08-0.06,0.153l-0.386,0.572c-0.082,0.108-0.163,0.214-0.252,0.347l-0.298,0.495
		c-0.21,0.386-0.354,0.735-0.43,1.039c-0.131,0.404-0.136,0.791-0.128,1.053c0.013,0.283,0.082,0.566,0.208,0.847
		C22.847,15.967,22.982,16.119,23.055,16.201z"/>
</g>
</svg>
