<?xml version="1.0" encoding="utf-8"?>
<!-- Generator: Adobe Illustrator 16.0.0, SVG Export Plug-In . SVG Version: 6.00 Build 0)  -->
<!DOCTYPE svg PUBLIC "-//W3C//DTD SVG 1.1//EN" "http://www.w3.org/Graphics/SVG/1.1/DTD/svg11.dtd">
<svg version="1.1" id="Layer_1" xmlns="http://www.w3.org/2000/svg" xmlns:xlink="http://www.w3.org/1999/xlink" x="0px" y="0px"
	 width="48px" height="48px" viewBox="0 0 48 48" enable-background="new 0 0 48 48" xml:space="preserve">
<g>
	<path fill="#414042" d="M41.4,5.539h-3.252c-0.877,0-1.59,0.697-1.59,1.553v27.195H6.602c-0.276,0-0.5,0.224-0.5,0.5
		s0.224,0.5,0.5,0.5h30.457c0.276,0,0.5-0.224,0.5-0.5V7.092c0-0.305,0.265-0.553,0.59-0.553H41.4c0.276,0,0.5-0.224,0.5-0.5
		S41.677,5.539,41.4,5.539z"/>
	<path fill="#414042" d="M13.788,36.186c-2.431,0-4.408,1.978-4.408,4.408s1.978,4.408,4.408,4.408s4.408-1.978,4.408-4.408
		S16.218,36.186,13.788,36.186z M13.788,44.002c-1.879,0-3.408-1.529-3.408-3.408s1.529-3.408,3.408-3.408s3.408,1.529,3.408,3.408
		S15.667,44.002,13.788,44.002z"/>
	<path fill="#414042" d="M30.148,36.186c-2.432,0-4.41,1.978-4.41,4.408s1.979,4.408,4.41,4.408c2.431,0,4.408-1.978,4.408-4.408
		S32.579,36.186,30.148,36.186z M30.148,44.002c-1.88,0-3.41-1.529-3.41-3.408s1.53-3.408,3.41-3.408
		c1.879,0,3.408,1.529,3.408,3.408S32.027,44.002,30.148,44.002z"/>
	<path fill="#414042" d="M9.163,33.1h25.197c0.408,0,0.74-0.332,0.74-0.74v-2.547c0-0.198-0.077-0.384-0.217-0.523
		s-0.325-0.217-0.524-0.217l-0.511,0.001c-0.385-4.998-4.663-9.159-10.226-9.931v-1.783c0-0.403-0.329-0.73-0.732-0.73h-2.557
		c-0.403,0-0.73,0.328-0.73,0.73v1.824c-5.497,0.873-9.579,4.935-9.952,9.891H9.163c-0.408,0-0.74,0.331-0.74,0.738v2.547
		C8.422,32.768,8.754,33.1,9.163,33.1z M9.422,30.074h0.703c0.271,0,0.493-0.216,0.5-0.487c0.124-4.813,4.14-8.798,9.55-9.476
		c0.144-0.018,0.276-0.064,0.356-0.185c0.081-0.12,0.108-0.236,0.07-0.376v-1.922h2.02l-0.001,1.873
		c-0.022,0.136,0.012,0.275,0.095,0.385c0.084,0.109,0.209,0.18,0.346,0.194c5.468,0.57,9.686,4.656,9.811,9.506
		c0.007,0.271,0.229,0.487,0.5,0.487h0.001l0.726-0.001V32.1H9.422V30.074z"/>
	<path fill="#414042" d="M24.384,14.482c0.093,0.174,0.28,0.282,0.468,0.282c0.075,0,0.15-0.017,0.22-0.054
		c0.243-0.13,0.345-0.41,0.214-0.653c0,0-0.012-0.064-0.021-0.113c0-0.021,0-0.039,0-0.042c-0.001-0.066-0.001-0.108,0.009-0.137
		c0.012-0.033,0.021-0.069,0.024-0.105c0.004-0.036,0.053-0.139,0.085-0.208l0.047-0.102c0.031-0.065,0.081-0.129,0.13-0.196
		c0.063-0.086,0.125-0.175,0.122-0.189l0.167-0.183c0.101-0.109,0.204-0.222,0.311-0.351l0.262-0.333
		c0.11-0.144,0.196-0.329,0.295-0.543c0.133-0.33,0.211-0.671,0.24-1.048c0.023-0.354,0.012-0.684-0.03-0.954
		c-0.017-0.17-0.047-0.335-0.104-0.563c-0.027-0.12-0.056-0.239-0.084-0.324c-0.07-0.262-0.167-0.505-0.28-0.785
		c-0.104-0.239-0.212-0.458-0.319-0.646c-0.229-0.422-0.461-0.73-0.607-0.905c-0.188-0.238-0.349-0.35-0.394-0.379
		c-0.229-0.148-0.527-0.082-0.679,0.142c-0.152,0.225-0.093,0.533,0.127,0.691c0,0,0.07,0.051,0.169,0.176
		c0.125,0.15,0.315,0.403,0.51,0.761c0.096,0.167,0.187,0.354,0.285,0.584c0.078,0.193,0.162,0.397,0.229,0.645
		c0.027,0.084,0.047,0.173,0.067,0.262c0.001,0.006,0.022,0.097,0.023,0.103c0.028,0.107,0.049,0.219,0.063,0.362
		c0.035,0.226,0.043,0.483,0.025,0.758c-0.021,0.268-0.077,0.513-0.172,0.748c-0.05,0.105-0.116,0.25-0.157,0.302l-0.249,0.318
		c-0.087,0.105-0.179,0.203-0.268,0.3l-0.239,0.279c-0.038,0.064-0.083,0.126-0.126,0.186c-0.085,0.118-0.165,0.234-0.226,0.361
		l-0.044,0.096c-0.064,0.135-0.135,0.287-0.166,0.461c-0.05,0.173-0.049,0.327-0.048,0.485c-0.001,0.035,0.016,0.15,0.022,0.185
		C24.305,14.258,24.325,14.372,24.384,14.482z"/>
	<path fill="#414042" d="M16.849,12.895c0.07,0.148,0.15,0.316,0.253,0.452l0.269,0.341c0.1,0.121,0.203,0.233,0.305,0.344
		l0.107,0.104c0.054,0.09,0.116,0.176,0.177,0.26c0.049,0.068,0.1,0.132,0.127,0.188L18.14,14.7c0.032,0.068,0.08,0.169,0.084,0.206
		c0.004,0.035,0.012,0.069,0.023,0.102c0.011,0.031,0.011,0.071,0.01,0.141l0,0.042c-0.008,0.04-0.018,0.092-0.021,0.111
		c-0.099,0.24,0.003,0.52,0.239,0.638c0.072,0.036,0.148,0.053,0.223,0.053c0.184,0,0.36-0.101,0.448-0.276
		c0.052-0.105,0.07-0.208,0.102-0.381c0.006-0.031,0.009-0.145,0.009-0.176c0.001-0.102,0.002-0.252-0.048-0.425
		c-0.03-0.173-0.102-0.324-0.165-0.459l-0.05-0.108c-0.057-0.119-0.139-0.238-0.227-0.358c-0.043-0.059-0.087-0.119-0.18-0.258
		l-0.175-0.194c-0.09-0.099-0.183-0.199-0.26-0.292l-0.257-0.327c-0.038-0.05-0.099-0.178-0.162-0.309
		c-0.094-0.234-0.149-0.478-0.17-0.739c-0.019-0.281-0.01-0.54,0.028-0.794c0.011-0.114,0.031-0.226,0.081-0.423
		c0.021-0.094,0.042-0.186,0.079-0.302c0.06-0.227,0.146-0.435,0.229-0.641c0.09-0.202,0.176-0.39,0.281-0.569
		c0.21-0.387,0.404-0.636,0.501-0.75c0.179-0.21,0.154-0.525-0.056-0.705c-0.208-0.179-0.525-0.154-0.705,0.056
		c-0.212,0.248-0.432,0.576-0.611,0.907c-0.114,0.195-0.219,0.417-0.341,0.694c-0.094,0.232-0.194,0.481-0.258,0.723
		c-0.038,0.117-0.067,0.239-0.107,0.418c-0.042,0.157-0.073,0.323-0.085,0.466c-0.046,0.299-0.057,0.63-0.034,0.99
		c0.029,0.37,0.107,0.71,0.24,1.04C16.81,12.811,16.845,12.885,16.849,12.895z"/>
	<path fill="#414042" d="M20.944,13.066c0.098,0.106,0.232,0.16,0.366,0.16c0.122,0,0.244-0.044,0.34-0.134
		c0.202-0.188,0.214-0.504,0.026-0.707c-0.038-0.041-0.077-0.083-0.104-0.143c-0.052-0.115-0.081-0.233-0.087-0.336
		c-0.006-0.217,0.013-0.387,0.069-0.564c0.049-0.193,0.137-0.405,0.261-0.631l0.216-0.357c0.051-0.076,0.107-0.15,0.165-0.225
		l0.318-0.473c0.089-0.116,0.123-0.222,0.157-0.322l0.069-0.17c0.072-0.214,0.163-0.553,0.181-0.931
		c0.03-0.337,0.028-0.665-0.003-0.956c-0.022-0.309-0.068-0.621-0.123-0.926c-0.056-0.288-0.118-0.567-0.186-0.855L22.529,5.2
		c-0.041-0.154-0.08-0.304-0.122-0.438c-0.139-0.467-0.265-0.858-0.364-1.113c-0.051-0.141-0.095-0.249-0.126-0.325
		c-0.106-0.255-0.398-0.375-0.654-0.269c-0.255,0.106-0.375,0.399-0.269,0.654c0.027,0.065,0.065,0.156,0.112,0.289
		c0.096,0.249,0.212,0.615,0.345,1.057c0.04,0.126,0.074,0.261,0.111,0.399l0.079,0.291c0.059,0.254,0.118,0.521,0.17,0.79
		c0.048,0.264,0.088,0.542,0.11,0.832c0.026,0.243,0.027,0.505,0.001,0.798c-0.01,0.22-0.057,0.461-0.127,0.667
		c-0.025,0.058-0.05,0.118-0.054,0.135c-0.008,0.018-0.04,0.097-0.045,0.115l-0.298,0.443c-0.069,0.091-0.136,0.18-0.21,0.292
		l-0.241,0.399c-0.174,0.316-0.293,0.604-0.354,0.852c-0.082,0.255-0.117,0.539-0.107,0.881c0.013,0.24,0.072,0.478,0.175,0.708
		C20.757,12.864,20.883,13,20.944,13.066z"/>
</g>
</svg>
