<?xml version="1.0" encoding="utf-8"?>
<!-- Generator: Adobe Illustrator 16.0.0, SVG Export Plug-In . SVG Version: 6.00 Build 0)  -->
<!DOCTYPE svg PUBLIC "-//W3C//DTD SVG 1.1//EN" "http://www.w3.org/Graphics/SVG/1.1/DTD/svg11.dtd">
<svg version="1.1" id="Layer_1" xmlns="http://www.w3.org/2000/svg" xmlns:xlink="http://www.w3.org/1999/xlink" x="0px" y="0px"
	 width="48px" height="48px" viewBox="0 0 48 48" enable-background="new 0 0 48 48" xml:space="preserve">
<path fill="#414042" d="M36.953,23.509c-0.646,0-1.242,0.21-1.732,0.56c-0.009,0.005-0.019,0.006-0.027,0.012
	c-0.016,0.012-0.024,0.029-0.039,0.042c-0.599,0.453-1.022,1.119-1.152,1.889h-12.23V24.51c0-5.498-1.738-7.08-3.007-8.235
	c-0.78-0.71-1.251-1.139-1.175-2.272c0.157-2.362-0.163-4.481-0.396-6.029c-0.117-0.77-0.217-1.435-0.228-1.917
	c-0.036-1.725,0.081-2.092,0.092-2.13c0.316-0.356,0.226-0.809-0.02-1.055c-0.262-0.262-0.978-0.395-2.129-0.395
	s-1.867,0.133-2.129,0.395c-0.246,0.246-0.336,0.699-0.045,1.021c0.037,0.071,0.153,0.439,0.117,2.163
	c-0.01,0.482-0.111,1.148-0.227,1.919c-0.233,1.547-0.553,3.666-0.397,6.027c0.076,1.134-0.395,1.563-1.175,2.272
	c-1.269,1.155-3.007,2.738-3.007,8.235l0,17.461c-0.006,0.135-0.039,1.338,0.667,1.941c0.563,0.487,1.88,1.629,6.195,1.629
	s5.633-1.142,6.239-1.667c0.663-0.565,0.63-1.769,0.625-1.882v-8.385l4.188,4.506l-0.014,6.428h-2.418c-0.276,0-0.5,0.224-0.5,0.5
	s0.224,0.5,0.5,0.5h2.917h0.001h2.762c0.276,0,0.5-0.224,0.5-0.5s-0.224-0.5-0.5-0.5h-2.261l0.014-6.552l8.345-8.971
	c0.488,0.321,1.057,0.499,1.648,0.499c1.657,0,3.006-1.349,3.006-3.006C39.959,24.856,38.61,23.509,36.953,23.509z M38.404,25.136
	l-1.306,0.725l-0.875-1.209c0.227-0.089,0.472-0.143,0.729-0.143C37.525,24.509,38.038,24.751,38.404,25.136z M35.417,25.243
	l0.557,0.769h-0.951C35.097,25.725,35.233,25.465,35.417,25.243z M34.928,27.955c-0.018,0.015-0.039,0.022-0.056,0.04
	s-0.023,0.04-0.037,0.06l-1.714,1.843H19.688l-2.682-2.886h18.799L34.928,27.955z M26.402,37.12l-5.784-6.223h11.573L26.402,37.12z
	 M11.726,17.014c0.827-0.752,1.607-1.463,1.5-3.078c-0.149-2.253,0.148-4.227,0.388-5.812c0.122-0.805,0.226-1.5,0.238-2.047
	c0.03-1.46-0.036-2.144-0.172-2.515c0.218-0.042,0.598-0.085,1.229-0.085c0.645,0,1.027,0.045,1.231,0.078
	c-0.138,0.37-0.205,1.053-0.175,2.522c0.012,0.546,0.117,1.241,0.239,2.045c0.239,1.585,0.538,3.559,0.387,5.813
	c-0.107,1.615,0.673,2.326,1.5,3.078c1.068,0.972,2.365,2.165,2.629,6.017C14.5,24.66,10.21,23.454,9.095,23.066
	C9.353,19.187,10.655,17.989,11.726,17.014z M20.449,43.156c-0.479,0.414-1.599,1.385-5.541,1.385s-5.062-0.971-5.589-1.427
	c-0.209-0.179-0.288-0.763-0.274-1.122v-1.257c1.106,0.339,3.496,0.952,6.298,0.952c1.722,0,3.597-0.257,5.429-0.927v1.252
	C20.786,42.352,20.708,42.936,20.449,43.156z M20.772,39.705c-4.879,1.948-10.403,0.405-11.727-0.021V24.51
	c0-0.14,0.005-0.267,0.007-0.401c0.923,0.298,2.789,0.77,5.448,0.77c1.762,0,3.877-0.228,6.263-0.833
	c0.003,0.155,0.009,0.303,0.009,0.465v1.502h-4.913c-0.199,0-0.379,0.118-0.458,0.3c-0.079,0.183-0.043,0.395,0.092,0.541
	l5.289,5.689c-0.002,0.017-0.01,0.031-0.01,0.048L20.772,39.705z M36.003,28.269l0.898-0.966l0.778,1.074
	c-0.226,0.088-0.47,0.141-0.727,0.141C36.617,28.518,36.294,28.426,36.003,28.269z M38.489,27.787l-0.804-1.109l1.202-0.667
	c0.042,0.161,0.071,0.327,0.071,0.501C38.959,26.998,38.778,27.439,38.489,27.787z"/>
</svg>
