<?xml version="1.0" encoding="utf-8"?>
<!-- Generator: Adobe Illustrator 16.0.0, SVG Export Plug-In . SVG Version: 6.00 Build 0)  -->
<!DOCTYPE svg PUBLIC "-//W3C//DTD SVG 1.1//EN" "http://www.w3.org/Graphics/SVG/1.1/DTD/svg11.dtd">
<svg version="1.1" id="Layer_1" xmlns="http://www.w3.org/2000/svg" xmlns:xlink="http://www.w3.org/1999/xlink" x="0px" y="0px"
	 width="48px" height="48px" viewBox="0 0 48 48" enable-background="new 0 0 48 48" xml:space="preserve">
<g>
	<path fill="#414042" d="M41.055,24.009l1.811-8.205c0.028-0.13,0.004-0.267-0.068-0.378c-0.071-0.112-0.186-0.191-0.315-0.219
		c-0.193-0.041-0.396-0.062-0.603-0.062c-2.574,0-5.551,3.292-6.564,4.51c-2.206-2.104-5.823-4.461-11.162-4.844l1.425-2.961
		c0.081-0.168,0.062-0.367-0.05-0.516c-0.11-0.149-0.29-0.223-0.48-0.194c-4.318,0.699-7.169,3.639-7.757,4.294
		c-0.883,0.23-1.709,0.515-2.495,0.829c-0.015,0.005-0.029,0.01-0.043,0.017c-6.222,2.506-9.394,7.228-9.543,7.455
		c-0.109,0.167-0.109,0.382,0,0.549c0.168,0.255,4.175,6.238,12.081,8.298c0.589,0.656,3.439,3.598,7.757,4.296
		c0.027,0.005,0.054,0.007,0.08,0.007c0.156,0,0.306-0.073,0.4-0.201c0.111-0.148,0.131-0.348,0.05-0.516l-1.425-2.963
		c5.337-0.383,8.955-2.739,11.162-4.843c1.014,1.219,3.99,4.511,6.564,4.511c0.206,0,0.409-0.021,0.603-0.062
		c0.13-0.028,0.244-0.106,0.315-0.219c0.072-0.112,0.097-0.248,0.068-0.378L41.055,24.009z M6.241,24.009
		c0.733-0.988,3.518-4.405,8.222-6.516v13.029C9.759,28.412,6.974,24.997,6.241,24.009z M35.754,27.314
		c-0.088-0.115-0.221-0.187-0.365-0.195c-0.146-0.011-0.285,0.045-0.388,0.148c-2.125,2.158-5.871,4.774-11.642,4.978
		c-0.169,0.006-0.323,0.097-0.41,0.241c-0.087,0.145-0.096,0.323-0.023,0.476l1.311,2.725c-3.831-0.992-6.263-3.841-6.289-3.872
		c-0.068-0.08-0.159-0.138-0.261-0.163c-0.781-0.197-1.52-0.439-2.224-0.711V17.075c0.704-0.271,1.443-0.513,2.224-0.71
		c0.102-0.026,0.193-0.083,0.261-0.164c0.026-0.031,2.447-2.877,6.289-3.87l-1.311,2.723c-0.073,0.152-0.064,0.331,0.023,0.475
		c0.087,0.145,0.241,0.235,0.41,0.241c5.773,0.204,9.517,2.821,11.642,4.98c0.102,0.103,0.226,0.157,0.388,0.148
		c0.144-0.009,0.277-0.08,0.365-0.195c0.955-1.246,3.864-4.444,6.012-4.555l-1.711,7.752c-0.016,0.071-0.016,0.145,0,0.216
		l1.711,7.752C39.618,31.758,36.709,28.56,35.754,27.314z"/>
	<circle fill="#414042" cx="10.667" cy="23.925" r="0.875"/>
</g>
</svg>
