<?xml version="1.0" encoding="utf-8"?>
<!-- Generator: Adobe Illustrator 16.0.0, SVG Export Plug-In . SVG Version: 6.00 Build 0)  -->
<!DOCTYPE svg PUBLIC "-//W3C//DTD SVG 1.1//EN" "http://www.w3.org/Graphics/SVG/1.1/DTD/svg11.dtd">
<svg version="1.1" id="Layer_1" xmlns="http://www.w3.org/2000/svg" xmlns:xlink="http://www.w3.org/1999/xlink" x="0px" y="0px"
	 width="48px" height="48px" viewBox="0 0 48 48" enable-background="new 0 0 48 48" xml:space="preserve">
<path fill="#414042" d="M34.354,33.719c3.669-0.558,7.331-4.604,6.941-9.711v-3.887c0-0.276-0.224-0.5-0.5-0.5H26.809
	c-0.673,0-1.221,0.548-1.221,1.221v1.97c-1.55-1.451-3.197-2.498-3.792-2.854L20.598,7.782c-0.041-1.877,0.088-2.27,0.108-2.317
	c0.325-0.366,0.232-0.832,0.013-1.048c-0.073-0.089-0.766-0.868-2.594-0.868c-1.799,0-2.737,0.737-2.816,0.805
	c-0.252,0.252-0.345,0.718-0.041,1.056c0.041,0.076,0.169,0.468,0.13,2.317L14.45,19.96c-1.044,0.626-5.213,3.283-6.561,6.568
	c-0.002,0.006-0.005,0.012-0.007,0.018c-2.331,5.717-0.728,11.316,0.134,14.325c0.157,0.549,0.285,0.995,0.35,1.32
	c0.025,0.13,0.102,0.244,0.212,0.317c0.119,0.08,2.998,1.96,9.548,1.96c6.551,0,9.428-1.88,9.547-1.96
	c0.11-0.073,0.187-0.188,0.212-0.317c0.064-0.324,0.193-0.769,0.35-1.315c0.536-1.874,1.391-4.892,1.323-8.327
	c0.935,0.638,1.989,1.062,3.129,1.195c0.03,0.003,0.131,0.012,0.269,0.02v9.705h-2.98c-0.276,0-0.5,0.224-0.5,0.5s0.224,0.5,0.5,0.5
	h6.965c0.276,0,0.5-0.224,0.5-0.5s-0.224-0.5-0.5-0.5h-2.984v-9.7C34.096,33.759,34.231,33.743,34.354,33.719z M26.588,20.842
	c0-0.122,0.099-0.221,0.221-0.221h13.486l0.001,2.486L26.588,23.1V20.842z M15.174,20.695c0.145-0.082,0.24-0.23,0.252-0.396
	l0.97-12.522c0.037-1.723-0.051-2.434-0.226-2.798c0.305-0.162,0.959-0.43,1.955-0.43c0.97,0,1.49,0.265,1.715,0.423
	c-0.186,0.355-0.28,1.06-0.24,2.87l1.226,12.467c0.016,0.162,0.11,0.306,0.251,0.386c0.026,0.015,2.561,1.462,4.51,3.523v0.106
	c0,0.827,0.094,1.627,0.258,2.393c-7.362,0.711-14.577-0.102-16.756-0.391C10.751,23.225,15.127,20.722,15.174,20.695z
	 M27.273,40.601c-0.133,0.463-0.245,0.857-0.32,1.173c-0.676,0.371-3.463,1.695-8.828,1.695c-5.363,0-8.151-1.323-8.828-1.695
	c-0.075-0.316-0.188-0.713-0.321-1.177c-0.063-0.224-0.132-0.461-0.202-0.713c2.621,0.275,12.47,1.182,18.712-0.036
	C27.412,40.116,27.34,40.367,27.273,40.601z M27.774,38.767c-6.327,1.402-17.482,0.274-19.278,0.081
	c-0.754-2.962-1.462-7.244,0.172-11.569c1.816,0.251,9.556,1.201,17.431,0.419c0.498,1.586,1.341,2.967,2.426,4.013
	C28.707,34.379,28.254,36.857,27.774,38.767z M26.588,24.324V24.1l13.713,0.007c0.31,4.5-2.959,8.153-6.107,8.625
	c-0.009,0.001-0.017,0.002-0.025,0.004c-0.39,0.079-1.135,0.034-1.377,0.013C29.313,32.342,26.588,28.641,26.588,24.324z"/>
</svg>
