<?xml version="1.0" encoding="utf-8"?>
<!-- Generator: Adobe Illustrator 16.0.0, SVG Export Plug-In . SVG Version: 6.00 Build 0)  -->
<!DOCTYPE svg PUBLIC "-//W3C//DTD SVG 1.1//EN" "http://www.w3.org/Graphics/SVG/1.1/DTD/svg11.dtd">
<svg version="1.1" id="Layer_1" xmlns="http://www.w3.org/2000/svg" xmlns:xlink="http://www.w3.org/1999/xlink" x="0px" y="0px"
	 width="48px" height="48px" viewBox="0 0 48 48" enable-background="new 0 0 48 48" xml:space="preserve">
<path fill="#414042" d="M43.415,36.305c-0.072-0.266-0.344-0.419-0.613-0.354l-3.274,0.877l-2.839-10.591
	c0.176-0.058,0.307-0.104,0.346-0.119c4.199-1.672,6.303-6.897,4.894-12.156l-0.198-0.733c-0.003-0.015-0.006-0.03-0.011-0.044
	c-0.004-0.016-0.009-0.031-0.015-0.046l-1.003-3.702c-0.072-0.265-0.342-0.423-0.611-0.352l-15.875,4.244
	c-0.083,0.022-0.153,0.071-0.214,0.13c-0.061-0.059-0.131-0.108-0.214-0.13L7.912,9.084C7.649,9.013,7.373,9.17,7.3,9.437
	L6.297,13.14c-0.005,0.015-0.01,0.029-0.014,0.044c-0.004,0.014-0.007,0.028-0.01,0.042l-0.199,0.737
	c-1.409,5.257,0.694,10.482,4.903,12.159c0.035,0.013,0.165,0.06,0.337,0.116L8.475,36.829l-3.276-0.878
	c-0.264-0.064-0.541,0.088-0.612,0.354c-0.071,0.268,0.087,0.541,0.354,0.613l3.756,1.007c0.001,0,0.001,0.001,0.002,0.001
	s0.002,0,0.004,0l3.759,1.008c0.043,0.011,0.087,0.017,0.13,0.017c0.221,0,0.423-0.147,0.482-0.37
	c0.071-0.268-0.087-0.541-0.354-0.613l-3.279-0.879l2.837-10.584c0.168,0.034,0.334,0.062,0.48,0.07
	c0.256,0.028,0.517,0.043,0.78,0.043c3.943,0,8.491-3.223,9.477-8.477l0.114-0.427c0.001-0.002,0.001-0.004,0.002-0.007
	c0-0.002,0.001-0.004,0.002-0.007l0.867-3.238l0.86,3.208c0.002,0.012,0.005,0.024,0.008,0.037s0.007,0.024,0.011,0.036l0.097,0.36
	c0.996,5.291,5.546,8.516,9.47,8.516c0.26,0,0.518-0.015,0.771-0.043c0.155-0.01,0.329-0.038,0.505-0.074l2.837,10.586l-3.28,0.879
	c-0.267,0.072-0.425,0.346-0.354,0.613c0.061,0.223,0.263,0.37,0.483,0.37c0.043,0,0.086-0.006,0.13-0.017l3.758-1.007
	c0.002-0.001,0.004-0.001,0.006-0.001c0.001,0,0.002-0.001,0.003-0.002l3.755-1.006C43.328,36.846,43.486,36.572,43.415,36.305z
	 M12.846,25.578c-0.452-0.028-1.251-0.294-1.51-0.39c-3.666-1.46-5.553-6.277-4.296-10.965l0.081-0.297l14.919,4.005
	C21.089,22.943,16.448,25.991,12.846,25.578z M22.296,16.965L7.382,12.961l0.753-2.782l14.91,3.986L22.296,16.965z M24.957,14.166
	l14.91-3.986l0.754,2.782l-14.914,4.003L24.957,14.166z M35.131,25.58c-3.566,0.412-8.195-2.623-9.17-7.648l14.921-4.005l0.08,0.296
	c1.257,4.69-0.631,9.507-4.286,10.962C36.406,25.284,35.607,25.55,35.131,25.58z"/>
</svg>
