<?xml version="1.0" encoding="utf-8"?>
<!-- Generator: Adobe Illustrator 16.0.0, SVG Export Plug-In . SVG Version: 6.00 Build 0)  -->
<!DOCTYPE svg PUBLIC "-//W3C//DTD SVG 1.1//EN" "http://www.w3.org/Graphics/SVG/1.1/DTD/svg11.dtd">
<svg version="1.1" id="Layer_1" xmlns="http://www.w3.org/2000/svg" xmlns:xlink="http://www.w3.org/1999/xlink" x="0px" y="0px"
	 width="48px" height="48px" viewBox="0 0 48 48" enable-background="new 0 0 48 48" xml:space="preserve">
<path fill="#414042" d="M45.87,20.631c-0.352-1.028-1.742-2.973-4.493-2.973c-0.979,0-2.063,0.24-3.241,0.722
	c-3.589,1.631-7.677,2.458-12.15,2.458c-9.056,0-16.714-3.42-16.843-3.475c-0.042-0.014-1.036-0.33-2.277-0.33
	c-2.513,0-4.204,1.294-4.743,3.582c-0.023,0.063-0.566,1.549,0.314,3.409c0.992,2.094,3.322,3.773,6.924,4.989
	c0.232,0.08,5.792,1.97,14.466,1.971c0.001,0,0.001,0,0.002,0c4.44,0,8.906-0.505,13.266-1.498c0.248-0.053,6.101-1.351,8.218-4.803
	C46.067,23.454,46.259,22.102,45.87,20.631z M44.462,24.159c-1.893,3.088-7.521,4.338-7.584,4.352
	c-4.293,0.978-8.684,1.474-13.05,1.474c0,0-0.001,0-0.001,0c-8.494-0.001-14.084-1.896-14.143-1.917
	c-3.272-1.104-5.461-2.641-6.329-4.441c-0.71-1.473-0.313-2.612-0.278-2.718c0.453-1.908,1.728-2.875,3.789-2.875
	c1.043,0,1.906,0.262,1.918,0.262c0.042,0.019,0.713,0.314,1.839,0.723c-0.602,1.012-1.811,2.781-2.858,3.278
	c-0.25,0.118-0.356,0.417-0.237,0.666c0.085,0.18,0.265,0.286,0.452,0.286c0.072,0,0.145-0.016,0.214-0.048
	c1.477-0.701,2.923-3.036,3.392-3.846c1.218,0.41,2.78,0.878,4.595,1.3c-0.583,1.042-1.676,2.726-2.692,3.29
	c-0.241,0.134-0.329,0.438-0.195,0.68c0.091,0.165,0.262,0.257,0.438,0.257c0.082,0,0.165-0.02,0.242-0.063
	c1.436-0.796,2.761-3.077,3.226-3.941c1.5,0.315,3.137,0.583,4.871,0.756c-0.372,0.803-1.116,2.209-2.067,2.977
	c-0.215,0.173-0.249,0.488-0.075,0.703c0.099,0.123,0.244,0.187,0.39,0.187c0.11,0,0.221-0.036,0.313-0.111
	c1.27-1.024,2.165-2.897,2.495-3.664c0.934,0.069,1.887,0.115,2.859,0.115c1.069,0,2.116-0.051,3.143-0.143
	c-0.208,1.117-0.708,2.899-1.613,3.471c-0.233,0.147-0.304,0.456-0.156,0.689c0.095,0.151,0.258,0.233,0.423,0.233
	c0.092,0,0.184-0.024,0.267-0.077c1.433-0.903,1.961-3.431,2.118-4.431c1.806-0.219,3.538-0.58,5.187-1.087
	c-0.297,1.203-0.971,3.623-1.847,4.796c-0.165,0.221-0.12,0.534,0.102,0.699c0.09,0.067,0.194,0.1,0.299,0.1
	c0.152,0,0.303-0.069,0.4-0.201c1.203-1.611,2.005-5.055,2.161-5.768c0.703-0.25,1.396-0.518,2.064-0.822
	c1.04-0.425,1.997-0.64,2.845-0.64c2.708,0,3.514,2.204,3.536,2.262C45.224,22.098,45.075,23.157,44.462,24.159z"/>
</svg>
