<?xml version="1.0" encoding="utf-8"?>
<!-- Generator: Adobe Illustrator 16.0.0, SVG Export Plug-In . SVG Version: 6.00 Build 0)  -->
<!DOCTYPE svg PUBLIC "-//W3C//DTD SVG 1.1//EN" "http://www.w3.org/Graphics/SVG/1.1/DTD/svg11.dtd">
<svg version="1.1" id="Layer_1" xmlns="http://www.w3.org/2000/svg" xmlns:xlink="http://www.w3.org/1999/xlink" x="0px" y="0px"
	 width="48px" height="48px" viewBox="0 0 48 48" enable-background="new 0 0 48 48" xml:space="preserve">
<g>
	<path fill="#414042" d="M42.66,25.386H5.341c-0.276,0-0.5,0.224-0.5,0.5s0.224,0.5,0.5,0.5H42.66c0.276,0,0.5-0.224,0.5-0.5
		S42.937,25.386,42.66,25.386z"/>
	<path fill="#414042" d="M8.943,23.903h30.115c0.434,0,0.787-0.353,0.787-0.787v-3.045c0-0.208-0.08-0.405-0.229-0.557
		c-0.148-0.148-0.347-0.23-0.559-0.23l-0.7,0.001c-0.413-5.994-5.551-10.992-12.229-11.882V5.188c0-0.429-0.349-0.777-0.777-0.777
		h-3.055c-0.429,0-0.777,0.349-0.777,0.777v2.262c-6.6,1.012-11.498,5.891-11.899,11.835H8.943c-0.434,0-0.787,0.352-0.787,0.785
		v3.045C8.156,23.55,8.509,23.903,8.943,23.903z M9.156,20.286h0.939c0.271,0,0.493-0.216,0.5-0.487
		c0.149-5.802,4.985-10.604,11.5-11.419c0.146-0.018,0.281-0.066,0.361-0.19c0.08-0.125,0.104-0.243,0.061-0.384V5.411h2.61
		l-0.003,2.365c-0.02,0.135,0.018,0.271,0.101,0.378c0.084,0.107,0.208,0.176,0.343,0.189c6.584,0.686,11.662,5.61,11.813,11.455
		c0.007,0.271,0.229,0.487,0.5,0.487h0.001l0.964-0.001v2.619H9.156V20.286z"/>
	<path fill="#414042" d="M33.078,27.761H15.07c-1.202,0-2.903,0.794-3.688,2.263l-0.421,0.782l-0.261-0.456
		c-0.079-0.138-0.219-0.229-0.377-0.248c-0.159-0.017-0.315,0.041-0.423,0.157l-3.52,3.807c-0.148,0.161-0.175,0.398-0.066,0.589
		l4.986,8.701c0.079,0.138,0.219,0.229,0.377,0.248c0.019,0.002,0.038,0.003,0.056,0.003c0.139,0,0.272-0.058,0.367-0.161
		l3.52-3.809c0.148-0.16,0.175-0.398,0.066-0.588L15.25,38.29l3.73-4.554c1.242,0.086,2.449,0.129,3.591,0.129
		c9.825,0,12.759-3.137,12.879-3.271c0.03-0.033,0.056-0.071,0.076-0.111c0.252-0.51,0.229-1.052-0.066-1.528
		C34.974,28.171,33.894,27.761,33.078,27.761z M11.827,42.267l-4.465-7.791l2.808-3.037l4.465,7.79L11.827,42.267z M34.66,29.971
		c-0.407,0.379-3.442,2.895-12.089,2.895c-1.198,0-2.469-0.049-3.777-0.145c-0.159-0.012-0.32,0.056-0.423,0.183l-3.605,4.399
		l-3.195-5.52l0.692-1.287c0.581-1.086,1.883-1.735,2.807-1.735h18.008c0.599,0,1.285,0.323,1.532,0.722
		C34.711,29.645,34.728,29.798,34.66,29.971z"/>
</g>
</svg>
