<?xml version="1.0" encoding="utf-8"?>
<!-- Generator: Adobe Illustrator 16.0.0, SVG Export Plug-In . SVG Version: 6.00 Build 0)  -->
<!DOCTYPE svg PUBLIC "-//W3C//DTD SVG 1.1//EN" "http://www.w3.org/Graphics/SVG/1.1/DTD/svg11.dtd">
<svg version="1.1" id="Layer_1" xmlns="http://www.w3.org/2000/svg" xmlns:xlink="http://www.w3.org/1999/xlink" x="0px" y="0px"
	 width="48px" height="48px" viewBox="0 0 48 48" enable-background="new 0 0 48 48" xml:space="preserve">
<g>
	<path fill="#414042" d="M45.685,24.852c-0.378-5.026-7.439-5.795-7.833-5.826c-4.968,0.421-6.538-3.976-6.62-4.203
		c-1.71-3.724-4.516-4.555-4.636-4.589c-1.671-0.469-3.381-0.707-5.083-0.707c-10.458,0-17.715,8.698-18.059,9.124
		c-0.629,1.024-0.956,2.688-1.119,4.439c0,0.002,0,0.004,0,0.006c-0.308,3.325-0.014,6.97,0.006,7.198
		c0.433,5.626,7.794,7.045,8.068,7.093c2.724,0.731,6.047,1.103,9.877,1.103c3.822,0,6.793-0.384,6.799-0.386
		c7.819-0.643,14.171-3.693,14.294-3.759C46.902,30.646,45.689,24.852,45.685,24.852z M4.267,19.23
		c0.071-0.087,7.256-8.703,17.246-8.703c1.61,0,3.229,0.225,4.809,0.668c0.102,0.03,2.493,0.763,3.981,3.998
		c0.017,0.048,1.719,4.861,6.882,4.861c0.243,0,0.493-0.01,0.659-0.033c0.064,0.006,6.526,0.706,6.853,4.976
		c0.022,0.103,0.275,1.35-0.038,2.979c-20.93,5.932-31.307,3.677-36.326,0.739c-4.028-2.357-4.934-5.342-5.011-5.625
		C3.465,21.527,3.745,20.083,4.267,19.23z M40.883,33.48c-0.062,0.03-6.254,3.001-13.903,3.63c-0.028,0.004-2.94,0.38-6.693,0.38
		c-3.743,0-6.979-0.359-9.657-1.076c-0.069-0.014-6.918-1.339-7.292-6.199c-0.003-0.044-0.194-2.406-0.131-5.003
		c0.755,1.245,2.125,2.894,4.569,4.336c2.833,1.672,7.299,3.139,14.252,3.139c5.647,0,12.95-0.979,22.33-3.593
		C43.859,30.551,42.859,32.154,40.883,33.48z"/>
	<path fill="#414042" d="M16.871,24.761l5.41-0.008c0.015,0.002,0.373,0.066,0.84,0.066c1.277,0,2.144-0.469,2.419-1.269
		c0.484-1.015,0.888-3.223-1.015-4.376c-0.327-0.305-2.287-2.059-4.333-1.954c-0.099-0.013-0.321-0.036-0.634-0.036
		c-1.088,0-3.833,0.3-5.842,3.129c-0.036,0.065-0.879,1.602-0.17,2.902C14.046,24.135,15.155,24.655,16.871,24.761z M14.56,20.847
		L14.56,20.847c1.648-2.316,3.838-2.662,4.997-2.662c0.319,0,0.516,0.028,0.534,0.031c0.035,0.006,0.073,0.007,0.106,0.005
		l0.145-0.004c1.735,0,3.512,1.7,3.53,1.717c0.029,0.028,0.062,0.053,0.096,0.073c1.655,0.965,0.709,3.027,0.647,3.164
		c-0.305,0.875-1.977,0.618-2.247,0.59l-5.467,0.001c-0.905-0.057-2.069-0.279-2.477-1.021C13.985,21.94,14.564,20.847,14.56,20.847
		z"/>
</g>
</svg>
