<?xml version="1.0" encoding="utf-8"?>
<!-- Generator: Adobe Illustrator 16.0.0, SVG Export Plug-In . SVG Version: 6.00 Build 0)  -->
<!DOCTYPE svg PUBLIC "-//W3C//DTD SVG 1.1//EN" "http://www.w3.org/Graphics/SVG/1.1/DTD/svg11.dtd">
<svg version="1.1" id="Layer_1" xmlns="http://www.w3.org/2000/svg" xmlns:xlink="http://www.w3.org/1999/xlink" x="0px" y="0px"
	 width="48px" height="48px" viewBox="0 0 48 48" enable-background="new 0 0 48 48" xml:space="preserve">
<g>
	<path fill="#414042" d="M31.47,22.484c-1.121-2.267-2.605-3.278-4.813-3.278h-5.312c-2.208,0-3.692,1.011-4.815,3.285l-4.612,9.674
		c-0.407,0.83-0.46,1.718-0.155,2.569c0.426,1.186,1.521,2.252,3.016,2.929c2.671,1.152,5.636,1.735,8.81,1.735l0.405-0.003
		l0.421,0.003c3.175,0,6.14-0.584,8.821-1.739c1.485-0.674,2.581-1.74,3.006-2.926c0.305-0.852,0.251-1.739-0.153-2.563
		L31.47,22.484z M35.299,34.396c-0.329,0.919-1.256,1.799-2.47,2.35c-2.546,1.098-5.377,1.653-8.416,1.653l-0.421-0.003
		l-0.405,0.003c-3.038,0-5.869-0.556-8.406-1.649c-1.222-0.555-2.149-1.434-2.479-2.353c-0.215-0.599-0.178-1.201,0.114-1.796
		l4.611-9.673c0.955-1.933,2.089-2.722,3.916-2.722h5.312c1.826,0,2.961,0.789,3.914,2.715l4.616,9.685
		C35.476,33.194,35.514,33.797,35.299,34.396z"/>
	<path fill="#414042" d="M42.72,18.372l-4.854-2.46c-1.495-0.663-2.785-0.363-3.948,0.923L31.61,19.37
		c-0.186,0.204-0.171,0.521,0.033,0.706c0.207,0.186,0.521,0.171,0.707-0.033l2.308-2.537c0.87-0.963,1.707-1.167,2.778-0.692
		l4.819,2.443c1.726,0.933,1.31,2.447,0.917,3.25l-5.189,9.702c-0.131,0.243-0.039,0.546,0.205,0.676
		c0.074,0.041,0.155,0.06,0.235,0.06c0.178,0,0.351-0.096,0.44-0.264l5.198-9.717C45,21.05,44.503,19.335,42.72,18.372z"/>
	<path fill="#414042" d="M37.287,14.652c0.268,0.007,0.515-0.188,0.534-0.464l0.298-4.267c3.73,2.213,5.33,7.282,5.347,7.336
		c0.065,0.215,0.264,0.353,0.478,0.353c0.049,0,0.098-0.007,0.146-0.022c0.265-0.081,0.412-0.36,0.331-0.624
		c-0.076-0.25-1.928-6.137-6.535-8.296c-0.149-0.07-0.324-0.062-0.465,0.021c-0.143,0.083-0.234,0.232-0.246,0.396l-0.352,5.033
		C36.805,14.394,37.012,14.633,37.287,14.652z"/>
	<path fill="#414042" d="M5.734,19.263l4.81-2.438c1.093-0.488,1.93-0.282,2.801,0.682l2.307,2.535
		c0.187,0.205,0.502,0.219,0.706,0.033c0.204-0.186,0.219-0.502,0.033-0.706l-2.305-2.534c-1.162-1.288-2.454-1.591-3.971-0.914
		l-4.845,2.455c-1.744,0.944-2.254,2.701-1.322,4.602l5.189,9.702c0.09,0.168,0.263,0.264,0.441,0.264c0.08,0,0.16-0.019,0.235-0.06
		c0.244-0.13,0.335-0.433,0.205-0.676l-5.181-9.686C4.437,21.704,4.021,20.191,5.734,19.263z"/>
	<path fill="#414042" d="M3.912,17.588c0.049,0.015,0.099,0.022,0.147,0.022c0.214,0,0.412-0.138,0.478-0.353
		c0.017-0.054,1.616-5.123,5.346-7.336l0.298,4.267c0.019,0.275,0.255,0.475,0.534,0.464c0.276-0.02,0.483-0.258,0.464-0.534
		l-0.352-5.033c-0.012-0.165-0.104-0.313-0.246-0.396c-0.143-0.084-0.317-0.093-0.466-0.021c-4.605,2.159-6.458,8.046-6.535,8.296
		C3.5,17.228,3.648,17.507,3.912,17.588z"/>
</g>
</svg>
