<?xml version="1.0" encoding="utf-8"?>
<!-- Generator: Adobe Illustrator 16.0.0, SVG Export Plug-In . SVG Version: 6.00 Build 0)  -->
<!DOCTYPE svg PUBLIC "-//W3C//DTD SVG 1.1//EN" "http://www.w3.org/Graphics/SVG/1.1/DTD/svg11.dtd">
<svg version="1.1" id="Layer_1" xmlns="http://www.w3.org/2000/svg" xmlns:xlink="http://www.w3.org/1999/xlink" x="0px" y="0px"
	 width="48px" height="48px" viewBox="0 0 48 48" enable-background="new 0 0 48 48" xml:space="preserve">
<path fill="#414042" d="M27.244,6.921c-3.405,0-6.55,1.445-8.474,3.865c-4.725,0.804-8.301,4.412-8.301,8.732
	c0,2.271,1.597,4.248,2.869,5.579v15.405c0,0.274,0.222,0.498,0.497,0.5l13.844,0.094c0.001,0,0.002,0,0.003,0
	c0.132,0,0.259-0.052,0.353-0.146c0.095-0.094,0.147-0.222,0.147-0.354v-3.235l5.981,0.04c0.001,0,0.002,0,0.003,0
	c0.132,0,0.259-0.052,0.353-0.146c0.095-0.094,0.147-0.222,0.147-0.354V21.496c1.902-1.998,2.867-3.906,2.867-5.672
	C37.533,10.915,32.918,6.921,27.244,6.921z M27.182,40.094l-12.843-0.088v-15.11c0-0.13-0.051-0.255-0.142-0.349
	c-1.171-1.205-2.728-3.037-2.728-5.028c0-4.357,4.167-7.902,9.289-7.902c5.123,0,9.291,3.545,9.291,7.902
	c0,1.538-0.917,3.261-2.726,5.122c-0.091,0.093-0.142,0.218-0.142,0.349V40.094z M33.808,20.945
	c-0.091,0.093-0.142,0.218-0.142,0.349v15.104l-5.484-0.037V25.19c1.902-2,2.867-3.908,2.867-5.672
	c0-4.909-4.616-8.902-10.291-8.902c-0.173,0-0.342,0.015-0.514,0.022c1.753-1.716,4.282-2.718,7-2.718
	c5.122,0,9.289,3.545,9.289,7.902C36.533,17.364,35.616,19.087,33.808,20.945z"/>
</svg>
