<?xml version="1.0" encoding="utf-8"?>
<!-- Generator: Adobe Illustrator 16.0.0, SVG Export Plug-In . SVG Version: 6.00 Build 0)  -->
<!DOCTYPE svg PUBLIC "-//W3C//DTD SVG 1.1//EN" "http://www.w3.org/Graphics/SVG/1.1/DTD/svg11.dtd">
<svg version="1.1" id="Layer_1" xmlns="http://www.w3.org/2000/svg" xmlns:xlink="http://www.w3.org/1999/xlink" x="0px" y="0px"
	 width="48px" height="48px" viewBox="0 0 48 48" enable-background="new 0 0 48 48" xml:space="preserve">
<g>
	<path fill="#414042" d="M21.219,22.661c0,4.053-4.078,4.248-4.222,4.254c-0.173-0.005-4.25-0.184-4.25-4.254
		c0-0.276-0.224-0.5-0.5-0.5s-0.5,0.224-0.5,0.5c0,5.027,5.166,5.252,5.254,5.254c0.052-0.002,5.218-0.227,5.218-5.254
		c0-0.276-0.224-0.5-0.5-0.5S21.219,22.385,21.219,22.661z"/>
	<path fill="#414042" d="M11.336,15.288c0.012,0,0.024,0,0.036,0c0.027,0.75,0.043,1.727,0.062,2.761
		c0.019,1.093,0.039,2.25,0.073,3.274c0.009,0.27,0.229,0.483,0.5,0.483l5.083,0.001l4.789-0.001c0.275,0,0.498-0.222,0.5-0.496
		c0-0.038,0.028-3.531-0.042-6.021c0.006,0,0.013,0,0.019,0c2.078,0,3.769-1.691,3.769-3.77s-1.691-3.77-3.769-3.77
		c-0.221,0-0.44,0.019-0.656,0.057c-0.848-1.899-2.744-3.147-4.852-3.147s-4.003,1.248-4.852,3.147
		c-0.217-0.038-0.437-0.058-0.658-0.058c-2.078,0-3.768,1.691-3.768,3.77S9.259,15.288,11.336,15.288z M21.38,20.806l-4.292,0.001
		l-4.598-0.001c-0.011-0.406-0.021-0.83-0.029-1.256h8.921C21.383,20.058,21.382,20.497,21.38,20.806z M11.336,8.749
		c0.277,0,0.552,0.041,0.816,0.123c0.256,0.079,0.531-0.06,0.619-0.314c0.603-1.733,2.24-2.898,4.075-2.898s3.472,1.165,4.075,2.898
		c0.088,0.254,0.361,0.392,0.62,0.313c0.262-0.081,0.535-0.122,0.813-0.122c1.527,0,2.769,1.242,2.769,2.77s-1.242,2.77-2.769,2.77
		c-0.155,0-0.306-0.013-0.455-0.038c-0.15-0.025-0.3,0.019-0.412,0.118c-0.113,0.099-0.175,0.244-0.169,0.394
		c0.042,1.115,0.058,2.545,0.063,3.788h-8.938c-0.003-0.173-0.006-0.349-0.009-0.519c-0.023-1.324-0.044-2.556-0.086-3.345
		c-0.008-0.142-0.075-0.274-0.186-0.363c-0.11-0.089-0.253-0.128-0.394-0.104l-0.169,0.032c-0.086,0.017-0.172,0.038-0.262,0.038
		c-1.526,0-2.768-1.242-2.768-2.77S9.811,8.749,11.336,8.749z"/>
	<path fill="#414042" d="M37.895,32.825l-7.434,0.004c-0.134,0-0.262,0.054-0.355,0.148l-2.621,2.645l-0.776-3.761
		c-0.223-1.083-0.624-2.146-2.03-2.589l-3.572-1.172c-0.259-0.089-0.538,0.052-0.628,0.31l-3.444,9.854l-3.619-9.861
		c-0.093-0.254-0.369-0.389-0.625-0.303l-3.567,1.17c-1.412,0.444-1.813,1.508-2.044,2.637l-1.09,9.99
		c-0.016,0.142,0.03,0.283,0.125,0.389c0.095,0.105,0.23,0.166,0.372,0.166h16.709c0.276,0,0.5-0.224,0.5-0.5v-1.221l0.505,1.724
		c0.206,0.667,1.032,0.904,1.737,0.904c0.72,0,1.362-0.23,1.77-0.638l6.422-6.642c1.896-0.13,3.171-0.618,3.792-1.451
		c0.515-0.689,0.378-1.347,0.36-1.42C38.327,32.984,38.126,32.825,37.895,32.825z M37.2,34.057
		c-0.266,0.336-1.037,0.918-3.224,1.037c-0.126,0.007-0.244,0.061-0.332,0.151l-6.551,6.775c-0.209,0.209-0.614,0.339-1.057,0.339
		c-0.494,0-0.752-0.155-0.779-0.192l-1.482-5.063c-0.063-0.216-0.261-0.359-0.479-0.359c-0.023,0-0.047,0.002-0.071,0.005
		c-0.247,0.035-0.429,0.246-0.429,0.495v4.207h-12v-3.414c0-0.276-0.224-0.5-0.5-0.5s-0.5,0.224-0.5,0.5v3.414H7.144l1.022-9.39
		c0.202-0.979,0.478-1.562,1.363-1.841l3.113-1.021l3.934,10.718c0.072,0.198,0.236,0.308,0.473,0.328
		c0.211-0.002,0.398-0.136,0.468-0.335l3.742-10.709l3.112,1.021c0.879,0.277,1.156,0.86,1.358,1.84l0.965,4.674
		c0.037,0.18,0.17,0.325,0.347,0.378c0.175,0.051,0.367,0.003,0.498-0.128l3.131-3.158l6.67-0.004
		C37.309,33.898,37.264,33.977,37.2,34.057z"/>
	<path fill="#414042" d="M41.416,30.938H27.893c-0.276,0-0.5,0.224-0.5,0.5s0.224,0.5,0.5,0.5h13.523c0.276,0,0.5-0.224,0.5-0.5
		S41.692,30.938,41.416,30.938z"/>
	<path fill="#414042" d="M28.725,30.222h11.828c0.276,0,0.5-0.224,0.5-0.5s-0.224-0.5-0.5-0.5h-0.395
		c-0.239-2.653-2.355-4.771-5.008-5.01v-0.631c0-0.276-0.224-0.5-0.5-0.5s-0.5,0.224-0.5,0.5v0.631
		c-2.653,0.239-4.771,2.356-5.01,5.01h-0.416c-0.276,0-0.5,0.224-0.5,0.5S28.448,30.222,28.725,30.222z M34.65,25.187
		c2.329,0,4.23,1.771,4.482,4.035h-8.967C30.418,26.958,32.32,25.187,34.65,25.187z"/>
</g>
</svg>
