<?xml version="1.0" encoding="utf-8"?>
<!-- Generator: Adobe Illustrator 16.0.0, SVG Export Plug-In . SVG Version: 6.00 Build 0)  -->
<!DOCTYPE svg PUBLIC "-//W3C//DTD SVG 1.1//EN" "http://www.w3.org/Graphics/SVG/1.1/DTD/svg11.dtd">
<svg version="1.1" id="Layer_1" xmlns="http://www.w3.org/2000/svg" xmlns:xlink="http://www.w3.org/1999/xlink" x="0px" y="0px"
	 width="48px" height="48px" viewBox="0 0 48 48" enable-background="new 0 0 48 48" xml:space="preserve">
<g>
	<path fill="#414042" d="M4.632,20.737h38.239c0.276,0,0.5-0.224,0.5-0.5c0-7.019-8.802-12.729-19.62-12.729
		S4.132,13.219,4.132,20.237C4.132,20.514,4.356,20.737,4.632,20.737z M23.751,8.509c10.001,0,18.186,4.992,18.603,11.229H5.149
		C5.566,13.501,13.75,8.509,23.751,8.509z"/>
	<path fill="#414042" d="M43.37,26.212c-1.357,0-2.026-0.803-2.801-1.732c-0.816-0.98-1.742-2.092-3.569-2.092
		s-2.753,1.111-3.569,2.092c-0.774,0.929-1.443,1.732-2.802,1.732c-1.357,0-2.025-0.803-2.799-1.732
		c-0.817-0.98-1.742-2.092-3.569-2.092c-1.828,0-2.754,1.111-3.571,2.092c-0.774,0.929-1.443,1.732-2.802,1.732
		c-1.36,0-2.029-0.803-2.804-1.732c-0.818-0.98-1.745-2.092-3.573-2.092s-2.755,1.111-3.573,2.092
		c-0.775,0.93-1.445,1.732-2.805,1.732c-0.276,0-0.5,0.224-0.5,0.5s0.224,0.5,0.5,0.5c1.829,0,2.755-1.111,3.573-2.092
		c0.775-0.93,1.445-1.732,2.805-1.732s2.03,0.803,2.805,1.732c0.817,0.98,1.744,2.092,3.572,2.092c1.827,0,2.753-1.111,3.571-2.092
		c0.774-0.93,1.443-1.732,2.803-1.732c1.358,0,2.026,0.803,2.8,1.732c0.816,0.98,1.741,2.092,3.567,2.092
		c1.827,0,2.753-1.111,3.569-2.092c0.774-0.93,1.443-1.732,2.802-1.732s2.027,0.803,2.802,1.732c0.816,0.98,1.742,2.092,3.568,2.092
		c0.276,0,0.5-0.224,0.5-0.5S43.646,26.212,43.37,26.212z"/>
	<path fill="#414042" d="M42.871,29.657H4.632c-0.276,0-0.5,0.224-0.5,0.5s0.224,0.5,0.5,0.5h38.239c0.276,0,0.5-0.224,0.5-0.5
		S43.147,29.657,42.871,29.657z"/>
	<path fill="#414042" d="M40.871,32.591H6.632c-1.378,0-2.5,1.121-2.5,2.5v2.918c0,1.379,1.122,2.5,2.5,2.5h34.239
		c1.379,0,2.5-1.121,2.5-2.5v-2.918C43.371,33.712,42.25,32.591,40.871,32.591z M42.371,38.009c0,0.827-0.673,1.5-1.5,1.5H6.632
		c-0.827,0-1.5-0.673-1.5-1.5v-2.918c0-0.827,0.673-1.5,1.5-1.5h34.239c0.827,0,1.5,0.673,1.5,1.5V38.009z"/>
	<path fill="#414042" d="M11.455,16.612c-0.489,0-0.887,0.364-0.887,0.813s0.398,0.813,0.887,0.813s0.887-0.364,0.887-0.813
		C12.341,16.969,11.952,16.612,11.455,16.612z M11.341,17.425c0-0.117,0.079-0.188,0.113-0.188s0.113,0.071,0.113,0.188
		C11.568,17.655,11.341,17.658,11.341,17.425z"/>
	<path fill="#414042" d="M17.642,12.3c-0.489,0-0.887,0.365-0.887,0.814c0,0.448,0.398,0.813,0.887,0.813s0.887-0.364,0.887-0.813
		C18.529,12.665,18.131,12.3,17.642,12.3z M17.529,13.114c0-0.117,0.079-0.188,0.113-0.188s0.113,0.071,0.113,0.188
		C17.755,13.345,17.529,13.345,17.529,13.114z"/>
	<path fill="#414042" d="M24.638,15.985c-0.489,0-0.887,0.364-0.887,0.813c0,0.449,0.398,0.814,0.887,0.814s0.886-0.365,0.886-0.814
		C25.524,16.35,25.127,15.985,24.638,15.985z M24.524,16.798c0-0.115,0.079-0.186,0.114-0.186s0.113,0.07,0.113,0.186
		C24.751,17.031,24.524,17.031,24.524,16.798z"/>
	<path fill="#414042" d="M29.393,11.675c-0.489,0-0.887,0.364-0.887,0.813s0.397,0.813,0.887,0.813s0.887-0.364,0.887-0.813
		S29.882,11.675,29.393,11.675z M29.279,12.487c0-0.115,0.08-0.188,0.113-0.188s0.113,0.073,0.113,0.188
		C29.506,12.721,29.279,12.721,29.279,12.487z"/>
	<path fill="#414042" d="M37.142,16.612c-0.489,0-0.887,0.364-0.887,0.813s0.397,0.813,0.887,0.813s0.887-0.364,0.887-0.813
		C38.028,16.969,37.639,16.612,37.142,16.612z M37.028,17.425c0-0.117,0.079-0.188,0.113-0.188c0.039,0,0.113,0.073,0.113,0.188
		C37.255,17.658,37.028,17.655,37.028,17.425z"/>
</g>
</svg>
