<?xml version="1.0" encoding="utf-8"?>
<!-- Generator: Adobe Illustrator 16.0.0, SVG Export Plug-In . SVG Version: 6.00 Build 0)  -->
<!DOCTYPE svg PUBLIC "-//W3C//DTD SVG 1.1//EN" "http://www.w3.org/Graphics/SVG/1.1/DTD/svg11.dtd">
<svg version="1.1" id="Layer_1" xmlns="http://www.w3.org/2000/svg" xmlns:xlink="http://www.w3.org/1999/xlink" x="0px" y="0px"
	 width="48px" height="48px" viewBox="0 0 48 48" enable-background="new 0 0 48 48" xml:space="preserve">
<g>
	<path fill="#414042" d="M2.584,24.418h42.833c0.222,0,0.418-0.146,0.479-0.36c0.063-0.213-0.023-0.441-0.21-0.562L24.27,9.795
		c-0.164-0.104-0.375-0.104-0.539,0L2.315,23.497c-0.187,0.12-0.272,0.349-0.21,0.562C2.167,24.271,2.362,24.418,2.584,24.418z
		 M24,10.811l19.708,12.607H4.294L24,10.811z"/>
	<circle fill="#414042" cx="24.077" cy="14.237" r="0.907"/>
	<circle fill="#414042" cx="28.768" cy="18.987" r="0.907"/>
	<circle fill="#414042" cx="34.592" cy="21.456" r="0.907"/>
	<circle fill="#414042" cx="22.143" cy="21.144" r="0.907"/>
	<circle fill="#414042" cx="18.141" cy="17.653" r="0.907"/>
	<circle fill="#414042" cx="10.725" cy="21.978" r="0.907"/>
	<path fill="#414042" d="M45.406,25.635H2.823c-0.276,0-0.5,0.224-0.5,0.5s0.224,0.5,0.5,0.5h42.583c0.276,0,0.5-0.224,0.5-0.5
		S45.683,25.635,45.406,25.635z"/>
	<path fill="#414042" d="M45.406,30.371c-1.129,0-1.678-0.527-2.313-1.138c-0.692-0.664-1.476-1.417-3.008-1.417
		c-1.531,0-2.315,0.753-3.007,1.417c-0.636,0.61-1.185,1.138-2.313,1.138c-1.13,0-1.679-0.527-2.314-1.139
		c-0.692-0.663-1.476-1.416-3.007-1.416c-1.532,0-2.315,0.753-3.008,1.417c-0.636,0.61-1.185,1.138-2.314,1.138
		c-1.128,0-1.678-0.527-2.313-1.138c-0.691-0.664-1.475-1.417-3.006-1.417c-1.532,0-2.316,0.753-3.008,1.417
		c-0.636,0.61-1.186,1.138-2.316,1.138c-1.131,0-1.681-0.527-2.317-1.138c-0.692-0.664-1.477-1.417-3.01-1.417
		s-2.318,0.753-3.01,1.417c-0.637,0.61-1.187,1.138-2.317,1.138c-0.276,0-0.5,0.224-0.5,0.5s0.224,0.5,0.5,0.5
		c1.533,0,2.317-0.753,3.01-1.416c0.637-0.611,1.187-1.139,2.318-1.139s1.681,0.527,2.318,1.139c0.692,0.663,1.477,1.416,3.01,1.416
		c1.532,0,2.316-0.753,3.008-1.417c0.636-0.61,1.186-1.138,2.316-1.138c1.128,0,1.678,0.527,2.313,1.138
		c0.691,0.664,1.475,1.417,3.006,1.417c1.532,0,2.315-0.753,3.007-1.417c0.636-0.61,1.185-1.138,2.314-1.138
		c1.129,0,1.678,0.527,2.313,1.138c0.692,0.664,1.476,1.417,3.008,1.417c1.531,0,2.315-0.753,3.007-1.417
		c0.636-0.61,1.185-1.138,2.313-1.138c1.13,0,1.679,0.527,2.314,1.139c0.692,0.663,1.476,1.416,3.007,1.416
		c0.276,0,0.5-0.224,0.5-0.5S45.683,30.371,45.406,30.371z"/>
	<path fill="#414042" d="M45.418,32.779H2.584c-0.276,0-0.5,0.224-0.5,0.5v4.521c0,0.276,0.224,0.5,0.5,0.5h42.833
		c0.276,0,0.5-0.224,0.5-0.5v-4.521C45.918,33.003,45.694,32.779,45.418,32.779z M44.918,37.301H3.084v-3.521h41.833V37.301z"/>
</g>
</svg>
