<?xml version="1.0" encoding="utf-8"?>
<!-- Generator: Adobe Illustrator 16.0.0, SVG Export Plug-In . SVG Version: 6.00 Build 0)  -->
<!DOCTYPE svg PUBLIC "-//W3C//DTD SVG 1.1//EN" "http://www.w3.org/Graphics/SVG/1.1/DTD/svg11.dtd">
<svg version="1.1" id="Layer_1" xmlns="http://www.w3.org/2000/svg" xmlns:xlink="http://www.w3.org/1999/xlink" x="0px" y="0px"
	 width="48px" height="48px" viewBox="0 0 48 48" enable-background="new 0 0 48 48" xml:space="preserve">
<g>
	<path fill="#414042" d="M38.063,18.199c-0.095-0.111-0.234-0.175-0.38-0.175h-0.26V8.992c0-0.276-0.224-0.5-0.5-0.5h-2.391V5.337
		c0-0.276-0.224-0.5-0.5-0.5h-2.889c-0.276,0-0.5,0.224-0.5,0.5v4.125h-1.889V3.681c0-0.276-0.224-0.5-0.5-0.5h-2.889
		c-0.276,0-0.5,0.224-0.5,0.5v4.565h-1.89v-1.69c0-0.276-0.224-0.5-0.5-0.5h-2.889c-0.276,0-0.5,0.224-0.5,0.5v4.063h-1.89V8.212
		c0-0.276-0.224-0.5-0.5-0.5h-2.89c-0.276,0-0.5,0.224-0.5,0.5v2.406H10.92c-0.276,0-0.5,0.224-0.5,0.5v6.906H10.32
		c-0.146,0-0.285,0.064-0.38,0.175c-0.095,0.111-0.137,0.257-0.114,0.402l4,25.812c0.038,0.244,0.248,0.424,0.494,0.424h19.364
		c0.246,0,0.456-0.18,0.494-0.424l4-25.812C38.2,18.457,38.158,18.31,38.063,18.199z M36.424,18.024h-1.891V9.492h1.891V18.024z
		 M31.645,5.837h1.889v3.155v9.032h-1.889V5.837z M30.645,18.024h-1.789c-0.035,0-0.066,0.015-0.1,0.022v-7.585h1.889V18.024z
		 M25.867,4.181h1.889v5.781v10.756c-0.439,0.759-1.094,1.372-1.889,1.752V4.181z M24.867,22.819
		c-0.28,0.057-0.569,0.087-0.866,0.087c-0.406,0-0.791-0.074-1.163-0.178c0.085-0.089,0.139-0.209,0.139-0.342V9.246h1.89V22.819z
		 M20.088,7.056h1.889v1.69v13.637c-1.274-0.678-2.164-1.964-2.293-3.487c0.229-0.046,0.404-0.238,0.404-0.48V7.056z M19.088,18.024
		h-1.89v-6.406h1.89V18.024z M14.309,8.712h1.89v2.354c0,0.009,0.005,0.017,0.005,0.026c0,0.009-0.005,0.017-0.005,0.026v6.906
		h-1.89V8.712z M11.42,11.618h1.889v6.406H11.42V11.618z M33.255,43.837H14.749l-3.845-24.813h7.764
		c0.24,2.732,2.541,4.882,5.334,4.882c1.959,0,3.658-1.069,4.591-2.651c0.063-0.058,0.105-0.13,0.133-0.213
		c0.323-0.613,0.541-1.292,0.607-2.018h7.768L33.255,43.837z"/>
	<path fill="#414042" d="M23.87,30.212c-2.264,0-4.113,1.719-4.365,3.916h-3.121c-0.276,0-0.5,0.224-0.5,0.5s0.224,0.5,0.5,0.5
		h3.121c0.252,2.199,2.102,3.918,4.366,3.918c2.265,0,4.115-1.719,4.367-3.918h3.383c0.276,0,0.5-0.224,0.5-0.5s-0.224-0.5-0.5-0.5
		h-3.383C27.984,31.931,26.135,30.212,23.87,30.212z M23.87,38.046c-1.884,0-3.416-1.533-3.416-3.418
		c0-1.884,1.532-3.416,3.416-3.416c1.884,0,3.417,1.532,3.417,3.416C27.287,36.513,25.754,38.046,23.87,38.046z"/>
</g>
</svg>
