<?xml version="1.0" encoding="utf-8"?>
<!-- Generator: Adobe Illustrator 16.0.0, SVG Export Plug-In . SVG Version: 6.00 Build 0)  -->
<!DOCTYPE svg PUBLIC "-//W3C//DTD SVG 1.1//EN" "http://www.w3.org/Graphics/SVG/1.1/DTD/svg11.dtd">
<svg version="1.1" id="Layer_1" xmlns="http://www.w3.org/2000/svg" xmlns:xlink="http://www.w3.org/1999/xlink" x="0px" y="0px"
	 width="48px" height="48px" viewBox="0 0 48 48" enable-background="new 0 0 48 48" xml:space="preserve">
<path fill="#414042" d="M39.439,14.459c0-1.521-1.152-2.767-2.636-2.96c0.426-0.546,0.679-1.208,0.667-1.923
	c-0.03-1.705-1.452-3.072-3.18-3.072c-0.019,0-0.037,0-0.057,0c-0.306,0.003-0.611,0.053-0.912,0.148
	c-0.456-0.31-0.984-0.495-1.524-0.565l-0.04-0.623c-0.41-1.833-2.172-3.009-3.936-2.615c-0.141,0.032-0.283,0.077-0.428,0.135
	c-0.679-0.677-1.674-0.989-2.736-0.838c-0.802,0.112-1.497,0.617-1.902,1.311c-0.586-0.145-1.206-0.165-1.796-0.016
	c-0.589-0.873-1.604-1.417-2.693-1.417c-1.775,0-3.219,1.396-3.219,3.111c0,0.42,0.088,0.828,0.259,1.209
	C13.67,6.729,12.48,8.113,12.48,9.775c0,0.229,0.039,0.466,0.1,0.71c-1.094,0.363-1.891,1.384-1.891,2.599
	c0,0.345,0.065,0.682,0.191,0.999c-1.347,0.368-2.316,1.567-2.316,3.001c0,1.167,0.481,2.104,1.264,2.634
	c0.001,0.014-0.004,0.027-0.002,0.041l4,25.812c0.038,0.244,0.248,0.424,0.494,0.424h19.364c0.246,0,0.456-0.18,0.494-0.424
	l4-25.812c0.022-0.145-0.02-0.291-0.114-0.402s-0.234-0.175-0.38-0.175h-0.172c0.343-0.518,0.552-1.114,0.552-1.742
	c0-0.146-0.013-0.295-0.038-0.449C38.896,16.446,39.439,15.491,39.439,14.459z M33.431,7.675c0.269-0.111,0.543-0.168,0.818-0.171
	c0.013,0,0.025,0,0.039,0c1.187,0,2.162,0.93,2.183,2.089c0.012,0.707-0.341,1.349-0.933,1.755c-0.516-0.623-1.275-1.013-2.1-1.013
	c-0.629,0-1.202,0.22-1.665,0.577c-0.74-0.703-1.861-1.15-2.77-1.353c-0.026-0.075-0.038-0.115-0.039-0.197
	c-0.01-0.602,0.228-1.173,0.67-1.609c0.449-0.442,1.052-0.691,1.699-0.701c0.596-0.003,1.134,0.181,1.592,0.551
	C33.068,7.717,33.262,7.745,33.431,7.675z M30.878,14.076c-1.196,0.308-2.075,1.229-2.27,2.405c-0.067-0.005-0.132-0.022-0.2-0.022
	c-0.233,0-0.468,0.028-0.7,0.084c-0.476-0.701-1.258-1.137-2.106-1.189c0.254-0.438,0.426-0.951,0.426-1.573
	c0-0.16-0.016-0.311-0.038-0.448c0.87-0.545,1.413-1.5,1.413-2.53c0-0.101-0.021-0.195-0.03-0.293
	c0.121-0.022,0.248-0.04,0.379-0.057l0.195-0.026c0.445-0.064,2.279,0.378,3.154,1.228c-0.257,0.418-0.412,0.904-0.412,1.429
	C30.688,13.427,30.753,13.761,30.878,14.076z M16.202,20.182h2.465c0.116,1.316,0.718,2.489,1.615,3.359l1.592,21.453h-3.065
	l-3.062-24.812L16.202,20.182z M18.026,16.99c0.53-0.332,0.917-0.826,1.156-1.386c0.845-0.515,2.07-0.171,2.499,0.748
	c0.112,0.24,0.39,0.351,0.636,0.254c0.249-0.098,0.501-0.147,0.742-0.147c0.03,0,0.091,0.01,0.151,0.029
	c-0.324,0.451-0.52,1-0.52,1.596c0,0.345,0.065,0.682,0.191,0.999c-1.347,0.368-2.316,1.567-2.316,3.001
	c0,0.103,0.021,0.199,0.03,0.298c-0.584-0.745-0.948-1.674-0.948-2.701c0-0.276-0.224-0.5-0.5-0.5H17.44
	c0.39-0.522,0.624-1.114,0.624-1.742C18.064,17.292,18.052,17.145,18.026,16.99z M20.033,10.501
	c-0.25-0.317-0.381-0.689-0.381-1.074c0-0.965,0.785-1.75,1.75-1.75c0.685,0,1.292,0.389,1.584,1.016
	c0.112,0.24,0.39,0.35,0.636,0.254c1.341-0.524,2.781,0.504,2.781,1.855c0,0.776-0.467,1.488-1.188,1.814
	c-0.223,0.101-0.34,0.349-0.277,0.585c0.063,0.232,0.09,0.411,0.09,0.579c0,0.743-0.339,1.332-1.104,1.978
	c-0.358-0.269-0.792-0.299-0.858-0.3c-0.233,0-0.467,0.028-0.699,0.084c-0.507-0.746-1.358-1.209-2.27-1.209
	c-0.226,0-0.447,0.035-0.662,0.088c-0.013-1.011-0.531-1.902-1.317-2.437c0.396-0.408,0.947-0.659,1.536-0.675
	c0.189-0.005,0.359-0.116,0.439-0.287C20.173,10.852,20.15,10.65,20.033,10.501z M21.343,24.337c0.34,0.196,0.705,0.348,1.087,0.466
	c0.396,0.159,0.834,0.25,1.306,0.25c0.019,0,0.035-0.009,0.053-0.011c0.072,0.003,0.14,0.021,0.213,0.021
	c0.97,0,1.873-0.272,2.658-0.726l-1.532,20.657h-2.251L21.343,24.337z M27.722,23.536c0.891-0.868,1.491-2.038,1.611-3.354h2.922
	l-3.062,24.813h-3.063L27.722,23.536z M28.855,19.182c-0.276,0-0.5,0.251-0.5,0.527c0,2.4-1.953,4.354-4.354,4.354
	c-0.3,0-0.593-0.031-0.876-0.089c-0.001,0-0.002,0-0.003,0c-0.115-0.024-0.221-0.071-0.333-0.104
	c-0.742-0.302-1.225-0.959-1.225-1.785c0-1.154,0.934-2.083,2.125-2.117c0.189-0.005,0.358-0.117,0.438-0.288
	c0.08-0.171,0.057-0.373-0.06-0.521c-0.248-0.316-0.379-0.687-0.379-1.074c0-0.965,0.785-1.75,1.75-1.75
	c0.673,0,1.294,0.399,1.581,1.017c0.111,0.24,0.389,0.353,0.635,0.255c0.251-0.098,0.504-0.147,0.753-0.147
	c0.983,0,1.709,0.832,1.915,1.723H28.855z M24.797,3.136c0.846-0.121,1.623,0.164,2.068,0.759c0.149,0.199,0.418,0.259,0.637,0.142
	c0.198-0.106,0.37-0.174,0.54-0.212c1.221-0.274,2.451,0.561,2.729,1.777L30.8,6.107c-0.706,0.115-1.357,0.431-1.867,0.933
	C28.294,7.669,27.95,8.5,27.965,9.377c0,0.022,0.006,0.035,0.007,0.056c-0.054,0.002-0.119-0.002-0.163,0.004l-0.188,0.025
	c-0.168,0.022-0.338,0.045-0.51,0.08c-0.344-0.729-0.975-1.292-1.749-1.56c0.01-0.022,0.026-0.041,0.033-0.065
	c0.413-1.47-0.047-2.499-0.506-3.104C24.577,4.4,24.161,4.061,23.691,3.81C23.952,3.449,24.353,3.198,24.797,3.136z M16.15,7.238
	c0.191-0.005,0.362-0.119,0.442-0.292c0.079-0.174,0.052-0.377-0.069-0.525c-0.311-0.378-0.475-0.823-0.475-1.286
	c0-1.164,0.995-2.111,2.219-2.111c0.858,0,1.647,0.484,2.011,1.232c0.113,0.232,0.384,0.341,0.625,0.25
	c1.164-0.437,2.502,0.005,3.189,0.912c0.461,0.608,0.579,1.379,0.34,2.229c-0.015,0.054-0.015,0.108-0.012,0.162
	c-0.017,0-0.033-0.005-0.05-0.005c-0.234,0-0.468,0.028-0.698,0.083c-0.508-0.745-1.358-1.208-2.271-1.208
	c-1.516,0-2.75,1.233-2.75,2.75c0,0.346,0.066,0.683,0.193,1c-0.667,0.186-1.252,0.592-1.673,1.139
	c-0.246-0.063-0.499-0.108-0.765-0.108c-0.233,0-0.468,0.028-0.699,0.084c-0.48-0.707-1.271-1.146-2.127-1.192
	c-0.061-0.206-0.101-0.399-0.101-0.576C13.48,8.393,14.653,7.278,16.15,7.238z M11.689,14.967c0.189-0.005,0.358-0.117,0.438-0.288
	c0.08-0.171,0.057-0.373-0.06-0.521c-0.248-0.316-0.379-0.687-0.379-1.074c0-0.965,0.785-1.75,1.75-1.75
	c0.674,0,1.294,0.399,1.582,1.017c0.112,0.241,0.39,0.351,0.636,0.255c1.371-0.537,2.782,0.505,2.782,1.853
	c0,0.777-0.467,1.49-1.19,1.816c-0.226,0.102-0.343,0.354-0.275,0.592c0.062,0.217,0.09,0.398,0.09,0.572
	c0,0.655-0.369,1.283-1.016,1.742h-4.703c-1.309-0.043-1.781-1.145-1.781-2.098C9.564,15.93,10.498,15,11.689,14.967z
	 M10.903,20.182h0.434c0.028,0.001,0.053,0.008,0.081,0.008c0,0,0,0,0.001,0l3.32-0.005l3.061,24.81h-3.052L10.903,20.182z
	 M33.255,44.994h-3.054l3.062-24.813h3.838L33.255,44.994z M37.25,16.275c-0.227,0.102-0.344,0.354-0.275,0.592
	c0.061,0.214,0.089,0.396,0.089,0.572c0,0.687-0.327,1.31-0.884,1.742h-4.839c-0.165-1.083-0.842-2.004-1.75-2.443
	c0.123-0.993,0.978-1.74,2.098-1.771c0.189-0.005,0.358-0.117,0.438-0.288c0.081-0.171,0.058-0.372-0.059-0.521
	c-0.248-0.317-0.38-0.689-0.38-1.075c0-0.965,0.785-1.75,1.75-1.75c0.675,0,1.296,0.399,1.583,1.017
	c0.11,0.24,0.39,0.353,0.636,0.255c1.37-0.537,2.782,0.505,2.782,1.853C38.439,15.236,37.973,15.949,37.25,16.275z"/>
</svg>
