<?xml version="1.0" encoding="utf-8"?>
<!-- Generator: Adobe Illustrator 16.0.0, SVG Export Plug-In . SVG Version: 6.00 Build 0)  -->
<!DOCTYPE svg PUBLIC "-//W3C//DTD SVG 1.1//EN" "http://www.w3.org/Graphics/SVG/1.1/DTD/svg11.dtd">
<svg version="1.1" id="Layer_1" xmlns="http://www.w3.org/2000/svg" xmlns:xlink="http://www.w3.org/1999/xlink" x="0px" y="0px"
	 width="48px" height="48px" viewBox="0 0 48 48" enable-background="new 0 0 48 48" xml:space="preserve">
<g>
	<path fill="#414042" d="M29.356,40.191c-1.975,0.757-4.06,1.141-6.197,1.141c-9.552,0-17.322-7.771-17.322-17.323
		c0-9.552,7.771-17.323,17.322-17.323c9.553,0,17.325,7.771,17.325,17.323c0,1.333-0.153,2.664-0.456,3.956
		c-0.063,0.27,0.104,0.538,0.373,0.602c0.28,0.063,0.538-0.104,0.602-0.373c0.319-1.367,0.481-2.775,0.481-4.185
		c0-10.104-8.221-18.323-18.325-18.323c-10.103,0-18.322,8.22-18.322,18.323s8.219,18.323,18.322,18.323
		c2.26,0,4.465-0.406,6.554-1.207c0.258-0.099,0.387-0.388,0.288-0.646C29.903,40.221,29.612,40.093,29.356,40.191z"/>
	<path fill="#414042" d="M37.622,27.621c0.266,0.051,0.535-0.114,0.594-0.385c0.225-1.055,0.339-2.141,0.339-3.228
		c0-8.488-6.906-15.394-15.395-15.394c-8.487,0-15.393,6.906-15.393,15.394c0,8.488,6.905,15.394,15.393,15.394
		c1.827,0,3.617-0.317,5.322-0.943c0.259-0.096,0.392-0.383,0.297-0.643c-0.096-0.259-0.38-0.389-0.643-0.297
		c-1.594,0.586-3.268,0.883-4.976,0.883c-7.936,0-14.393-6.457-14.393-14.394S15.224,9.615,23.16,9.615
		c7.937,0,14.395,6.457,14.395,14.394c0,1.017-0.106,2.032-0.317,3.019C37.18,27.298,37.353,27.563,37.622,27.621z"/>
	<path fill="#414042" d="M18.347,14.027c0.396,0,0.719-0.322,0.719-0.719s-0.322-0.719-0.719-0.719s-0.719,0.322-0.719,0.719
		S17.951,14.027,18.347,14.027z M18.347,13.027c0.155,0,0.281,0.126,0.281,0.281s-0.126,0.281-0.281,0.281s-0.281-0.126-0.281-0.281
		S18.192,13.027,18.347,13.027z"/>
	<path fill="#414042" d="M30.69,29.711c-0.396,0-0.718,0.322-0.718,0.719s0.322,0.719,0.718,0.719c0.396,0,0.72-0.322,0.72-0.719
		S31.087,29.711,30.69,29.711z M30.69,30.711c-0.154,0-0.28-0.126-0.28-0.281s0.126-0.281,0.28-0.281
		c0.155,0,0.282,0.126,0.282,0.281S30.846,30.711,30.69,30.711z"/>
	<path fill="#414042" d="M33.549,34.966c0-0.396-0.323-0.719-0.72-0.719c-0.396,0-0.718,0.322-0.718,0.719s0.322,0.719,0.718,0.719
		C33.226,35.685,33.549,35.362,33.549,34.966z M32.549,34.966c0-0.155,0.126-0.281,0.28-0.281c0.155,0,0.282,0.126,0.282,0.281
		s-0.127,0.281-0.282,0.281C32.675,35.247,32.549,35.121,32.549,34.966z"/>
	<path fill="#414042" d="M35.598,33.267c0.396,0,0.719-0.322,0.719-0.719s-0.322-0.719-0.719-0.719s-0.72,0.322-0.72,0.719
		S35.201,33.267,35.598,33.267z M35.598,32.267c0.154,0,0.28,0.126,0.28,0.281c0.001,0.313-0.561,0.311-0.562,0
		C35.316,32.393,35.442,32.267,35.598,32.267z"/>
	<path fill="#414042" d="M23.878,22.778c0-0.396-0.322-0.719-0.719-0.719s-0.719,0.322-0.719,0.719s0.322,0.719,0.719,0.719
		S23.878,23.175,23.878,22.778z M22.878,22.778c0-0.155,0.126-0.281,0.281-0.281s0.281,0.126,0.281,0.281s-0.126,0.281-0.281,0.281
		S22.878,22.934,22.878,22.778z"/>
	<path fill="#414042" d="M11.222,23.79c0,0.396,0.322,0.719,0.719,0.719s0.719-0.322,0.719-0.719s-0.322-0.719-0.719-0.719
		S11.222,23.394,11.222,23.79z M12.222,23.79c0,0.155-0.126,0.281-0.281,0.281s-0.281-0.126-0.281-0.281s0.126-0.281,0.281-0.281
		S12.222,23.635,12.222,23.79z"/>
	<path fill="#414042" d="M25.379,35.608c0.396,0,0.719-0.322,0.719-0.719s-0.322-0.719-0.719-0.719c-0.397,0-0.72,0.322-0.72,0.719
		S24.982,35.608,25.379,35.608z M25.379,34.608c0.154,0,0.28,0.126,0.28,0.281s-0.126,0.281-0.28,0.281
		c-0.155,0-0.281-0.126-0.281-0.281S25.224,34.608,25.379,34.608z"/>
	<path fill="#414042" d="M17.097,31.61c-0.396,0-0.719,0.322-0.719,0.719s0.322,0.719,0.719,0.719s0.719-0.322,0.719-0.719
		S17.494,31.61,17.097,31.61z M17.097,32.61c-0.155,0-0.281-0.126-0.281-0.281s0.126-0.281,0.281-0.281s0.281,0.126,0.281,0.281
		S17.252,32.61,17.097,32.61z"/>
	<path fill="#414042" d="M18.785,19.888c0.396,0,0.719-0.322,0.719-0.719s-0.322-0.719-0.719-0.719s-0.719,0.322-0.719,0.719
		S18.388,19.888,18.785,19.888z M18.785,18.888c0.155,0,0.281,0.126,0.281,0.281s-0.126,0.281-0.281,0.281s-0.281-0.126-0.281-0.281
		S18.629,18.888,18.785,18.888z"/>
	<path fill="#414042" d="M33.329,19.169c0-0.396-0.322-0.719-0.718-0.719c-0.396,0-0.719,0.322-0.719,0.719s0.322,0.719,0.719,0.719
		C33.007,19.888,33.329,19.565,33.329,19.169z M32.329,19.169c0-0.155,0.127-0.281,0.282-0.281s0.281,0.126,0.281,0.281
		s-0.126,0.281-0.281,0.281S32.329,19.324,32.329,19.169z"/>
	<path fill="#414042" d="M27.963,13.606c-0.396,0-0.72,0.322-0.72,0.719s0.323,0.719,0.72,0.719s0.719-0.322,0.719-0.719
		S28.359,13.606,27.963,13.606z M27.963,14.606c-0.155,0-0.281-0.126-0.281-0.281s0.126-0.281,0.281-0.281
		c0.154,0,0.28,0.126,0.28,0.281S28.117,14.606,27.963,14.606z"/>
	<path fill="#414042" d="M33.671,24.888c0,0.396,0.323,0.719,0.72,0.719s0.719-0.322,0.719-0.719s-0.322-0.719-0.719-0.719
		S33.671,24.491,33.671,24.888z M34.671,24.888c0,0.155-0.126,0.281-0.28,0.281c-0.155,0-0.281-0.126-0.281-0.281
		s0.126-0.281,0.281-0.281C34.545,24.606,34.671,24.732,34.671,24.888z"/>
	<path fill="#414042" d="M43.13,32.639c-0.052-0.128-0.152-0.229-0.28-0.278l-16.113-6.348c-0.193-0.077-0.413-0.025-0.553,0.128
		c-0.141,0.153-0.171,0.377-0.077,0.563L32.39,39.14c0.001,0.001,0.001,0.001,0.001,0.002c0,0,0,0,0.001,0.001l1.473,2.915
		c0.087,0.172,0.262,0.274,0.446,0.274c0.053,0,0.107-0.009,0.16-0.026c5.138-1.731,8.509-8.965,8.649-9.271
		C43.178,32.909,43.182,32.766,43.13,32.639z M38.574,31.751c-1.321,3.47-4.395,5.707-5.542,6.443l-5.441-10.771L38.574,31.751z
		 M34.555,41.207l-1.068-2.114c1.18-0.734,4.544-3.105,6.019-6.976l2.472,0.974C41.17,34.658,38.359,39.652,34.555,41.207z"/>
	<path fill="#414042" d="M25.376,14.828c0.173-0.215,0.138-0.53-0.078-0.703c-0.982-0.786-1.904-1.083-2.735-0.886
		c-1.077,0.256-1.546,1.258-1.566,1.3c-0.114,0.25-0.005,0.543,0.244,0.659c0.068,0.032,0.14,0.047,0.21,0.047
		c0.188,0,0.368-0.106,0.454-0.287c0.003-0.006,0.297-0.61,0.898-0.749c0.506-0.115,1.154,0.124,1.871,0.696
		C24.889,15.079,25.205,15.043,25.376,14.828z"/>
	<path fill="#414042" d="M31.651,22.343c0.272,0.061,0.538-0.108,0.598-0.377c0.062-0.27-0.107-0.537-0.377-0.598
		c-1.304-0.296-2.287-0.149-2.921,0.432c-0.836,0.769-0.679,1.974-0.672,2.025c0.034,0.25,0.248,0.43,0.494,0.43
		c0.021,0,0.044-0.001,0.066-0.004c0.272-0.036,0.465-0.287,0.431-0.56c-0.001-0.007-0.09-0.748,0.361-1.158
		C30.005,22.195,30.702,22.129,31.651,22.343z"/>
	<path fill="#414042" d="M20.889,33.438c0.053,0.231,0.259,0.389,0.487,0.389c0.037,0,0.075-0.004,0.112-0.013
		c1.304-0.299,2.127-0.855,2.446-1.654c0.421-1.055-0.242-2.073-0.271-2.116c-0.152-0.231-0.462-0.292-0.693-0.141
		c-0.23,0.153-0.293,0.463-0.14,0.693c0.004,0.006,0.4,0.629,0.175,1.192c-0.188,0.47-0.79,0.833-1.742,1.051
		C20.996,32.9,20.828,33.169,20.889,33.438z"/>
	<path fill="#414042" d="M16.974,25.857c-0.746-0.464-1.605-0.056-1.702-0.007c-0.247,0.124-0.347,0.424-0.224,0.671
		c0.124,0.247,0.423,0.348,0.671,0.224c0.005-0.003,0.453-0.208,0.729-0.037c0.237,0.146,0.368,0.588,0.368,1.242
		c0,0.276,0.224,0.5,0.5,0.5s0.5-0.224,0.5-0.5C17.816,26.907,17.533,26.202,16.974,25.857z"/>
	<path fill="#414042" d="M15.677,18.381c0.257-0.1,0.385-0.39,0.285-0.647c-0.1-0.257-0.39-0.385-0.647-0.285
		c-1.12,0.435-1.764,1.019-1.915,1.735c-0.149,0.706,0.249,1.333,0.507,1.591c0.098,0.098,0.226,0.147,0.354,0.147
		s0.255-0.049,0.353-0.146c0.196-0.195,0.196-0.512,0.001-0.707c-0.003-0.003-0.31-0.33-0.236-0.679
		C14.453,19.036,14.914,18.678,15.677,18.381z"/>
</g>
</svg>
