<?xml version="1.0" encoding="utf-8"?>
<!-- Generator: Adobe Illustrator 16.0.0, SVG Export Plug-In . SVG Version: 6.00 Build 0)  -->
<!DOCTYPE svg PUBLIC "-//W3C//DTD SVG 1.1//EN" "http://www.w3.org/Graphics/SVG/1.1/DTD/svg11.dtd">
<svg version="1.1" id="Layer_1" xmlns="http://www.w3.org/2000/svg" xmlns:xlink="http://www.w3.org/1999/xlink" x="0px" y="0px"
	 width="48px" height="48px" viewBox="0 0 48 48" enable-background="new 0 0 48 48" xml:space="preserve">
<g>
	<circle fill="#414042" cx="15.406" cy="15.836" r="0.979"/>
	<circle fill="#414042" cx="20.238" cy="22.694" r="0.979"/>
	<circle fill="#414042" cx="27.146" cy="20.382" r="0.98"/>
	<path fill="#414042" d="M41.502,21.01c-0.052-0.127-0.152-0.229-0.28-0.279L7.147,7.309C6.955,7.233,6.735,7.284,6.595,7.438
		C6.455,7.591,6.424,7.815,6.518,8l16.406,32.469c0.087,0.172,0.262,0.274,0.446,0.274c0.053,0,0.107-0.009,0.16-0.026
		c10.64-3.584,17.668-18.671,17.962-19.312C41.55,21.28,41.554,21.137,41.502,21.01z M33.419,18.732
		c-3.048,8.374-11.012,13.467-12.972,14.616L8.003,8.721L33.419,18.732z M23.619,39.625L20.9,34.246
		c1.994-1.143,10.223-6.299,13.449-15.147l6.004,2.365C39.076,24.041,32.604,36.299,23.619,39.625z"/>
</g>
</svg>
