<?xml version="1.0" encoding="utf-8"?>
<!-- Generator: Adobe Illustrator 16.0.0, SVG Export Plug-In . SVG Version: 6.00 Build 0)  -->
<!DOCTYPE svg PUBLIC "-//W3C//DTD SVG 1.1//EN" "http://www.w3.org/Graphics/SVG/1.1/DTD/svg11.dtd">
<svg version="1.1" id="Layer_1" xmlns="http://www.w3.org/2000/svg" xmlns:xlink="http://www.w3.org/1999/xlink" x="0px" y="0px"
	 width="48px" height="48px" viewBox="0 0 48 48" enable-background="new 0 0 48 48" xml:space="preserve">
<g>
	<path fill="#414042" d="M36.871,2.623h-25.74c-1.295,0-2.35,1.054-2.35,2.35v38.072c0,1.296,1.054,2.35,2.35,2.35h25.74
		c1.296,0,2.35-1.054,2.35-2.35V4.973C39.221,3.677,38.167,2.623,36.871,2.623z M38.221,43.045c0,0.744-0.605,1.35-1.35,1.35h-25.74
		c-0.744,0-1.35-0.605-1.35-1.35V4.973c0-0.744,0.605-1.35,1.35-1.35h25.74c0.744,0,1.35,0.605,1.35,1.35V43.045z"/>
	<path fill="#414042" d="M15.741,13.95c0.037-0.681,0.066-1.473,0.089-2.124h0.015c0.133,0.622,0.311,1.302,0.503,1.939l0.666,2.131
		h0.703l0.726-2.161c0.222-0.629,0.429-1.302,0.592-1.909h0.022c-0.007,0.673,0.029,1.45,0.059,2.094l0.096,2.035H20.1l-0.289-4.988
		h-1.184l-0.688,1.998c-0.192,0.584-0.363,1.199-0.496,1.739h-0.022c-0.125-0.555-0.281-1.147-0.458-1.732l-0.651-2.005h-1.199
		l-0.333,4.988h0.851L15.741,13.95z"/>
	<polygon fill="#414042" points="24.036,15.208 21.934,15.208 21.934,13.743 23.813,13.743 23.813,13.003 21.934,13.003 
		21.934,11.715 23.924,11.715 23.924,10.968 21.023,10.968 21.023,15.956 24.036,15.956 	"/>
	<path fill="#414042" d="M25.67,14.172c0-0.821-0.008-1.48-0.045-2.124l0.022-0.008c0.244,0.563,0.577,1.177,0.896,1.725l1.303,2.19
		h0.939v-4.988h-0.844v1.739c0,0.763,0.022,1.406,0.082,2.072h-0.015c-0.229-0.54-0.519-1.117-0.852-1.672l-1.288-2.139h-1.036
		v4.988h0.836V14.172z"/>
	<path fill="#414042" d="M32.81,13.876c0,0.977-0.392,1.428-1.051,1.428c-0.614,0-1.021-0.451-1.021-1.428v-2.908h-0.911v2.856
		c0,1.569,0.748,2.213,1.902,2.213c1.199,0,1.991-0.681,1.991-2.22v-2.849H32.81V13.876z"/>
	<path fill="#414042" d="M32.832,26.515H16.069c-0.276,0-0.5,0.224-0.5,0.5s0.224,0.5,0.5,0.5h16.763c0.276,0,0.5-0.224,0.5-0.5
		S33.108,26.515,32.832,26.515z"/>
	<path fill="#414042" d="M32.832,32.063H16.069c-0.276,0-0.5,0.224-0.5,0.5s0.224,0.5,0.5,0.5h16.763c0.276,0,0.5-0.224,0.5-0.5
		S33.108,32.063,32.832,32.063z"/>
	<path fill="#414042" d="M32.832,37.612H16.069c-0.276,0-0.5,0.224-0.5,0.5s0.224,0.5,0.5,0.5h16.763c0.276,0,0.5-0.224,0.5-0.5
		S33.108,37.612,32.832,37.612z"/>
</g>
</svg>
