<?xml version="1.0" encoding="utf-8"?>
<!-- Generator: Adobe Illustrator 16.0.0, SVG Export Plug-In . SVG Version: 6.00 Build 0)  -->
<!DOCTYPE svg PUBLIC "-//W3C//DTD SVG 1.1//EN" "http://www.w3.org/Graphics/SVG/1.1/DTD/svg11.dtd">
<svg version="1.1" id="Layer_1" xmlns="http://www.w3.org/2000/svg" xmlns:xlink="http://www.w3.org/1999/xlink" x="0px" y="0px"
	 width="48px" height="48px" viewBox="0 0 48 48" enable-background="new 0 0 48 48" xml:space="preserve">
<g>
	<path fill="#414042" d="M30.891,42.582H18.732c-0.276,0-0.5,0.225-0.5,0.5s0.224,0.5,0.5,0.5h12.161c0.275,0,0.498-0.225,0.498-0.5
		S31.167,42.582,30.891,42.582z"/>
	<path fill="#414042" d="M42.689,35.791c-0.891-0.462-1.741-1.078-2.602-1.883c-1.365-1.275-2.281-2.659-2.801-4.229
		c-0.346-1.056-0.393-2.181-0.393-3.24c-0.002-2.162-0.067-4.708-0.545-7.229c-0.355-1.864-0.869-3.433-1.57-4.799
		c-1.34-2.598-3.357-4.363-6-5.247c-0.312-0.104-0.627-0.19-0.943-0.276l-0.04-0.011c0.106-1.703-0.421-2.696-0.903-3.238
		c-0.629-0.706-1.565-1.095-2.638-1.095c-1.158,0-2.102,0.373-2.727,1.079c-0.669,0.755-0.956,1.855-0.856,3.273
		c-1.814,0.48-3.449,1.339-4.641,2.445c-1.171,1.09-2.078,2.434-2.772,4.11c-0.866,2.095-1.347,4.408-1.515,7.281
		c-0.064,1.125-0.084,2.252-0.104,3.379l-0.027,1.334c-0.016,0.658-0.121,1.326-0.311,1.986c-0.451,1.562-1.313,2.951-2.634,4.248
		c-0.923,0.904-1.851,1.594-2.764,2.078c-0.068,0.023-1.661,0.561-1.736,1.965c-0.039,0.742,0.243,1.204,0.486,1.461
		c0.37,0.39,0.924,0.604,1.559,0.604c0.027,0,0.052,0,0.078,0c11.981-0.002,23.957-0.002,35.936,0c0.453,0,1.516-0.185,1.605-1.884
		C43.914,36.37,42.719,35.805,42.689,35.791z M42.227,38.79c-11.979-0.002-23.956-0.002-35.936,0c-0.014,0-0.026,0.001-0.039,0.002
		c-0.371-0.021-0.687-0.101-0.873-0.295c-0.158-0.166-0.23-0.408-0.213-0.722c0.039-0.719,1.041-1.064,1.125-1.1
		c1.077-0.56,2.083-1.306,3.077-2.281c1.448-1.422,2.395-2.955,2.895-4.686c0.214-0.743,0.332-1.496,0.35-2.239l0.026-1.341
		c0.02-1.115,0.04-2.23,0.103-3.341c0.162-2.757,0.62-4.968,1.441-6.956c0.638-1.54,1.465-2.77,2.529-3.76
		c1.157-1.075,2.795-1.895,4.61-2.308c0.25-0.056,0.416-0.293,0.386-0.547c-0.161-1.337,0.03-2.324,0.569-2.932
		c0.544-0.613,1.376-0.742,1.979-0.742c0.555,0,1.332,0.132,1.891,0.76c0.555,0.621,0.768,1.619,0.619,2.886
		c-0.027,0.243,0.125,0.472,0.359,0.539l0.45,0.124c0.298,0.082,0.597,0.162,0.89,0.26c2.419,0.81,4.196,2.366,5.428,4.756
		c0.666,1.297,1.135,2.737,1.479,4.529c0.462,2.44,0.523,4.93,0.525,7.041c0,1.144,0.053,2.364,0.443,3.556
		c0.573,1.735,1.577,3.254,3.068,4.646c0.926,0.866,1.85,1.534,2.844,2.049c0.006,0.004,0.627,0.299,0.581,1.164
		C42.785,38.79,42.422,38.79,42.227,38.79z"/>
</g>
</svg>
