<?xml version="1.0" encoding="utf-8"?>
<!-- Generator: Adobe Illustrator 16.0.0, SVG Export Plug-In . SVG Version: 6.00 Build 0)  -->
<!DOCTYPE svg PUBLIC "-//W3C//DTD SVG 1.1//EN" "http://www.w3.org/Graphics/SVG/1.1/DTD/svg11.dtd">
<svg version="1.1" id="Layer_1" xmlns="http://www.w3.org/2000/svg" xmlns:xlink="http://www.w3.org/1999/xlink" x="0px" y="0px"
	 width="48px" height="48px" viewBox="0 0 48 48" enable-background="new 0 0 48 48" xml:space="preserve">
<g>
	<path fill="#414042" d="M16.704,10.936h14.282c0.277,0,0.5-0.224,0.5-0.5c0-3.106-3.426-5.633-7.64-5.633s-7.642,2.527-7.642,5.633
		C16.204,10.712,16.428,10.936,16.704,10.936z M23.845,5.803c3.42,0,6.245,1.813,6.603,4.133H17.242
		C17.601,7.615,20.425,5.803,23.845,5.803z"/>
	<path fill="#414042" d="M24.5,26.841v-7.88c0-0.276-0.224-0.5-0.5-0.5s-0.5,0.224-0.5,0.5v8.122c0,0.011,0.005,0.02,0.006,0.03
		c0.002,0.033,0.011,0.064,0.019,0.096c0.009,0.032,0.015,0.063,0.029,0.092c0.013,0.026,0.032,0.05,0.05,0.074
		c0.021,0.028,0.041,0.056,0.066,0.078c0.008,0.007,0.012,0.017,0.02,0.023l4.559,3.59c0.092,0.072,0.202,0.107,0.311,0.107
		c0.146,0,0.293-0.066,0.393-0.189c0.17-0.219,0.133-0.532-0.084-0.702L24.5,26.841z"/>
	<path fill="#414042" d="M33.087,39.184c3.677-2.768,6.069-7.154,6.069-12.101c0-8.359-6.799-15.158-15.156-15.158
		c-8.358,0-15.157,6.8-15.157,15.158c0,4.946,2.394,9.334,6.071,12.102l-2.056,3.378c-0.144,0.236-0.069,0.543,0.167,0.688
		c0.081,0.049,0.171,0.072,0.259,0.072c0.169,0,0.334-0.086,0.428-0.24l2.018-3.314c2.381,1.557,5.219,2.471,8.27,2.471
		c3.051,0,5.889-0.914,8.27-2.471l2.02,3.315c0.094,0.153,0.259,0.239,0.428,0.239c0.088,0,0.178-0.023,0.26-0.072
		c0.236-0.145,0.312-0.453,0.168-0.688L33.087,39.184z M9.843,27.083c0-7.807,6.351-14.158,14.157-14.158
		c7.807,0,14.156,6.351,14.156,14.158c0,7.806-6.35,14.155-14.156,14.155C16.194,41.238,9.843,34.889,9.843,27.083z"/>
</g>
</svg>
