<?xml version="1.0" encoding="utf-8"?>
<!-- Generator: Adobe Illustrator 16.0.0, SVG Export Plug-In . SVG Version: 6.00 Build 0)  -->
<!DOCTYPE svg PUBLIC "-//W3C//DTD SVG 1.1//EN" "http://www.w3.org/Graphics/SVG/1.1/DTD/svg11.dtd">
<svg version="1.1" id="Layer_1" xmlns="http://www.w3.org/2000/svg" xmlns:xlink="http://www.w3.org/1999/xlink" x="0px" y="0px"
	 width="48px" height="48px" viewBox="0 0 48 48" enable-background="new 0 0 48 48" xml:space="preserve">
<g>
	<path fill="#414042" d="M24,4.113c-11,0-19.95,8.95-19.95,19.95C4.05,35.064,13,44.014,24,44.014s19.949-8.951,19.949-19.951
		C43.949,13.063,35,4.113,24,4.113z M24,43.012c-10.449,0-18.95-8.501-18.95-18.95c0-10.449,8.501-18.95,18.95-18.95
		s18.949,8.501,18.949,18.95C42.949,34.511,34.449,43.012,24,43.012z"/>
	<path fill="#414042" d="M31.65,19.335l-10.804,8.383l-4.433-4.907c-0.185-0.205-0.502-0.221-0.707-0.036
		c-0.205,0.186-0.221,0.502-0.036,0.707l4.744,5.25c0.099,0.107,0.234,0.164,0.371,0.164c0.108,0,0.216-0.035,0.307-0.104
		l11.172-8.667c0.219-0.17,0.258-0.484,0.09-0.702C32.184,19.206,31.871,19.165,31.65,19.335z"/>
</g>
</svg>
