<?xml version="1.0" encoding="utf-8"?>
<!-- Generator: Adobe Illustrator 16.0.0, SVG Export Plug-In . SVG Version: 6.00 Build 0)  -->
<!DOCTYPE svg PUBLIC "-//W3C//DTD SVG 1.1//EN" "http://www.w3.org/Graphics/SVG/1.1/DTD/svg11.dtd">
<svg version="1.1" id="Layer_1" xmlns="http://www.w3.org/2000/svg" xmlns:xlink="http://www.w3.org/1999/xlink" x="0px" y="0px"
	 width="48px" height="48px" viewBox="0 0 48 48" enable-background="new 0 0 48 48" xml:space="preserve">
<g>
	<path fill="#414042" d="M24,4.112c-11,0-19.95,8.951-19.95,19.952c0,11,8.95,19.95,19.95,19.95s19.95-8.951,19.95-19.951
		C43.95,13.062,35,4.112,24,4.112z M24,43.012c-10.449,0-18.95-8.5-18.95-18.949c0-10.45,8.501-18.951,18.95-18.951
		s18.95,8.502,18.95,18.951S34.449,43.012,24,43.012z"/>
	<path fill="#414042" d="M31.791,16.272c-0.195-0.195-0.512-0.195-0.707,0L24,23.356l-7.084-7.084c-0.195-0.195-0.512-0.195-0.707,0
		s-0.195,0.512,0,0.707l7.084,7.084l-7.084,7.085c-0.195,0.194-0.195,0.512,0,0.707c0.098,0.097,0.226,0.146,0.354,0.146
		c0.127,0,0.255-0.049,0.353-0.147L24,24.771l7.084,7.085c0.098,0.097,0.227,0.146,0.354,0.146s0.256-0.049,0.354-0.146
		c0.195-0.195,0.195-0.513,0-0.707l-7.084-7.085l7.084-7.084C31.986,16.784,31.986,16.467,31.791,16.272z"/>
</g>
</svg>
