<?xml version="1.0" encoding="utf-8"?>
<!-- Generator: Adobe Illustrator 16.0.0, SVG Export Plug-In . SVG Version: 6.00 Build 0)  -->
<!DOCTYPE svg PUBLIC "-//W3C//DTD SVG 1.1//EN" "http://www.w3.org/Graphics/SVG/1.1/DTD/svg11.dtd">
<svg version="1.1" id="Layer_1" xmlns="http://www.w3.org/2000/svg" xmlns:xlink="http://www.w3.org/1999/xlink" x="0px" y="0px"
	 width="48px" height="48px" viewBox="0 0 48 48" enable-background="new 0 0 48 48" xml:space="preserve">
<g>
	<path fill="#414042" d="M36,5.483H11.998c-1.307,0-2.37,1.063-2.37,2.371v23.067c0,1.31,1.063,2.372,2.37,2.372h8.518l2.851,9
		c0.064,0.203,0.25,0.343,0.462,0.35c0.005,0,0.01,0,0.015,0c0.206,0,0.392-0.127,0.465-0.322l3.462-9.028H36
		c1.307,0,2.37-1.063,2.37-2.372V7.854C38.37,6.546,37.307,5.483,36,5.483z M37.371,30.92c0,0.757-0.615,1.372-1.37,1.372H27.43
		c-0.207,0-0.394,0.128-0.468,0.321l-3.073,8.014l-2.529-7.984c-0.066-0.209-0.259-0.351-0.477-0.351h-8.884
		c-0.755,0-1.37-0.615-1.37-1.372V7.854c0-0.756,0.615-1.371,1.37-1.371h24.002c0.755,0,1.37,0.615,1.37,1.371V30.92z"/>
	<path fill="#414042" d="M31.891,12.068H16.109c-0.276,0-0.5,0.224-0.5,0.5s0.224,0.5,0.5,0.5h15.782c0.276,0,0.5-0.224,0.5-0.5
		S32.166,12.068,31.891,12.068z"/>
	<path fill="#414042" d="M31.891,19.083H16.109c-0.276,0-0.5,0.224-0.5,0.5s0.224,0.5,0.5,0.5h15.782c0.276,0,0.5-0.224,0.5-0.5
		S32.166,19.083,31.891,19.083z"/>
	<path fill="#414042" d="M31.891,26.096H16.109c-0.276,0-0.5,0.225-0.5,0.5c0,0.276,0.224,0.5,0.5,0.5h15.782
		c0.276,0,0.5-0.224,0.5-0.5C32.391,26.32,32.166,26.096,31.891,26.096z"/>
</g>
</svg>
