<?xml version="1.0" encoding="utf-8"?>
<!-- Generator: Adobe Illustrator 16.0.0, SVG Export Plug-In . SVG Version: 6.00 Build 0)  -->
<!DOCTYPE svg PUBLIC "-//W3C//DTD SVG 1.1//EN" "http://www.w3.org/Graphics/SVG/1.1/DTD/svg11.dtd">
<svg version="1.1" id="Layer_1" xmlns="http://www.w3.org/2000/svg" xmlns:xlink="http://www.w3.org/1999/xlink" x="0px" y="0px"
	 width="48px" height="48px" viewBox="0 0 48 48" enable-background="new 0 0 48 48" xml:space="preserve">
<g>
	<path fill="#414042" d="M24,4.113c-11,0-19.95,8.949-19.95,19.949c0,11,8.95,19.952,19.95,19.952s19.95-8.951,19.95-19.952
		C43.95,13.062,35,4.113,24,4.113z M24,43.012c-10.449,0-18.95-8.501-18.95-18.951C5.05,13.612,13.551,5.112,24,5.112
		s18.95,8.501,18.95,18.949C42.95,34.511,34.449,43.012,24,43.012z"/>
	<path fill="#414042" d="M24,15.234c-2.666,0-4.835,2.168-4.835,4.835c0,0.276,0.224,0.5,0.5,0.5s0.5-0.224,0.5-0.5
		c0-2.114,1.72-3.835,3.835-3.835s3.836,1.72,3.836,3.835c0,1.589-0.998,3.032-2.463,3.583c-0.641,0.209-1.854,1.03-1.854,2.635
		v1.969c0,0.276,0.224,0.5,0.5,0.5s0.5-0.224,0.499-0.499v-1.969c0-1.271,1.121-1.67,1.186-1.692
		c1.874-0.704,3.133-2.522,3.133-4.527C28.836,17.403,26.666,15.234,24,15.234z"/>
	<path fill="#414042" d="M24,30.805c-0.539,0-1.012,0.488-1.012,1.047c0,0.556,0.473,1.043,1.012,1.043
		c0.54,0,1.014-0.488,1.014-1.043C25.014,31.303,24.529,30.805,24,30.805z"/>
</g>
</svg>
