<?xml version="1.0" encoding="utf-8"?>
<!-- Generator: Adobe Illustrator 16.0.0, SVG Export Plug-In . SVG Version: 6.00 Build 0)  -->
<!DOCTYPE svg PUBLIC "-//W3C//DTD SVG 1.1//EN" "http://www.w3.org/Graphics/SVG/1.1/DTD/svg11.dtd">
<svg version="1.1" id="Layer_1" xmlns="http://www.w3.org/2000/svg" xmlns:xlink="http://www.w3.org/1999/xlink" x="0px" y="0px"
	 width="48px" height="48px" viewBox="0 0 48 48" enable-background="new 0 0 48 48" xml:space="preserve">
<g>
	<path fill="#414042" d="M24.001,4.113C13,4.113,4.05,13.062,4.05,24.062c0,11,8.95,19.952,19.951,19.952
		c11,0,19.949-8.951,19.949-19.952C43.95,13.062,35.001,4.113,24.001,4.113z M24.001,43.012c-10.45,0-18.951-8.501-18.951-18.951
		c0-10.449,8.501-18.949,18.951-18.949c10.448,0,18.949,8.501,18.949,18.949C42.95,34.511,34.449,43.012,24.001,43.012z"/>
	<path fill="#414042" d="M24.181,13.578c-0.071,0-7.188,0.122-7.251,7.031c-0.015,0.088-0.343,2.179,1.909,5.034
		c0.003,0.004,0.22,0.477,0.281,2.088c0.006,0.047,0.155,1.19,1.402,1.668c0.035,0.014,0.064,0.057,0.09,0.112
		c0.002,0.005,0.004,0.009,0.006,0.013c0.112,0.256,0.138,0.855,0.034,1.442c-0.051,0.757,0.227,2.204,1.658,2.517
		c0.035,0.183,0.112,0.388,0.264,0.574c0.184,0.224,0.545,0.492,1.217,0.492c0.079,0,0.163-0.004,0.166-0.012
		c0.089,0.008,0.174,0.012,0.253,0.012c0.673,0,1.034-0.269,1.218-0.492c0.151-0.183,0.227-0.385,0.262-0.566
		c1.424-0.28,1.711-1.76,1.652-2.58c-0.095-0.517-0.071-1.098,0.031-1.364c0.009-0.019,0.018-0.035,0.024-0.055
		c0.023-0.044,0.049-0.079,0.079-0.091c1.25-0.479,1.4-1.623,1.408-1.711c0.055-1.469,0.247-1.978,0.232-1.978
		c2.298-2.927,1.968-5.016,1.96-5.023C31.005,13.701,24.255,13.578,24.181,13.578z M25.48,32.518h-0.273
		c-0.148,0-0.286,0.069-0.381,0.182c-0.096,0.111-0.135,0.265-0.111,0.41c0.01,0.052,0.018,0.223-0.063,0.315
		c-0.067,0.08-0.224,0.124-0.441,0.124c-0.052,0-0.107-0.003-0.253-0.008c-0.3,0.025-0.524-0.018-0.609-0.114
		c-0.078-0.094-0.07-0.264-0.063-0.309c0.029-0.147-0.009-0.3-0.104-0.416c-0.095-0.116-0.237-0.183-0.387-0.183l-0.209,0.004
		c-0.987-0.131-0.944-1.353-0.943-1.433c0.033-0.18,0.116-0.719,0.06-1.269h4.595c-0.056,0.54,0.024,1.06,0.054,1.21
		C26.359,31.17,26.404,32.391,25.48,32.518z M28.284,25.164c-0.077,0.134-0.331,0.71-0.394,2.441
		c-0.002,0.024-0.097,0.604-0.772,0.861c-0.196,0.076-0.337,0.207-0.455,0.355h-5.327c-0.118-0.149-0.259-0.279-0.456-0.355
		c-0.659-0.252-0.762-0.814-0.765-0.814c-0.065-1.779-0.322-2.356-0.44-2.549c-2.001-2.548-1.761-4.311-1.752-4.403
		c0.061-5.997,6.012-6.119,6.258-6.121c0.238,0.003,5.835,0.126,5.903,6.197C30.087,20.793,30.329,22.556,28.284,25.164z"/>
</g>
</svg>
