<?xml version="1.0" encoding="utf-8"?>
<!-- Generator: Adobe Illustrator 16.0.0, SVG Export Plug-In . SVG Version: 6.00 Build 0)  -->
<!DOCTYPE svg PUBLIC "-//W3C//DTD SVG 1.1//EN" "http://www.w3.org/Graphics/SVG/1.1/DTD/svg11.dtd">
<svg version="1.1" id="Layer_1" xmlns="http://www.w3.org/2000/svg" xmlns:xlink="http://www.w3.org/1999/xlink" x="0px" y="0px"
	 width="48px" height="48px" viewBox="0 0 48 48" enable-background="new 0 0 48 48" xml:space="preserve">
<g>
	<path fill="#414042" d="M24,27.872c0.276,0,0.5-0.224,0.5-0.5V16.419c0-0.276-0.224-0.5-0.5-0.5s-0.5,0.224-0.5,0.5v10.953
		C23.5,27.648,23.724,27.872,24,27.872z"/>
	<path fill="#414042" d="M24,30.023c-0.563,0-1.057,0.512-1.057,1.094c0,0.581,0.494,1.09,1.057,1.09
		c0.564,0,1.059-0.509,1.059-1.09C25.059,30.544,24.555,30.023,24,30.023z"/>
	<path fill="#414042" d="M24,4.112c-11,0-19.949,8.949-19.949,19.949C4.051,35.063,13,44.014,24,44.014s19.949-8.951,19.949-19.954
		C43.949,13.061,35,4.112,24,4.112z M24,43.012c-10.449,0-18.949-8.502-18.949-18.952c0-10.448,8.5-18.948,18.949-18.948
		s18.949,8.5,18.949,18.948C42.949,34.51,34.449,43.012,24,43.012z"/>
</g>
</svg>
