<?xml version="1.0" encoding="utf-8"?>
<!-- Generator: Adobe Illustrator 16.0.0, SVG Export Plug-In . SVG Version: 6.00 Build 0)  -->
<!DOCTYPE svg PUBLIC "-//W3C//DTD SVG 1.1//EN" "http://www.w3.org/Graphics/SVG/1.1/DTD/svg11.dtd">
<svg version="1.1" id="Layer_1" xmlns="http://www.w3.org/2000/svg" xmlns:xlink="http://www.w3.org/1999/xlink" x="0px" y="0px"
	 width="48px" height="48px" viewBox="0 0 48 48" enable-background="new 0 0 48 48" xml:space="preserve">
<g>
	<path fill="#414042" d="M23.999,4.113c-11,0-19.949,8.949-19.949,19.949c0,11,8.949,19.952,19.949,19.952
		c11.001,0,19.951-8.951,19.951-19.952C43.95,13.062,35,4.112,23.999,4.113z M23.999,43.012c-10.449,0-18.949-8.501-18.949-18.951
		c0-10.449,8.5-18.949,18.949-18.949c10.45,0,18.951,8.501,18.951,18.949C42.95,34.511,34.449,43.012,23.999,43.012z"/>
	<path fill="#414042" d="M23.999,20.253c-0.276,0-0.5,0.224-0.5,0.5v10.954c0,0.275,0.224,0.5,0.5,0.5s0.5-0.225,0.5-0.5V20.753
		C24.499,20.477,24.275,20.253,23.999,20.253z"/>
	<path fill="#414042" d="M23.999,15.92c-0.563,0-1.057,0.509-1.057,1.09c0,0.572,0.504,1.093,1.057,1.093
		c0.554,0,1.06-0.521,1.06-1.093C25.059,16.429,24.563,15.92,23.999,15.92z"/>
</g>
</svg>
