<?xml version="1.0" encoding="utf-8"?>
<!-- Generator: Adobe Illustrator 16.0.0, SVG Export Plug-In . SVG Version: 6.00 Build 0)  -->
<!DOCTYPE svg PUBLIC "-//W3C//DTD SVG 1.1//EN" "http://www.w3.org/Graphics/SVG/1.1/DTD/svg11.dtd">
<svg version="1.1" id="Layer_1" xmlns="http://www.w3.org/2000/svg" xmlns:xlink="http://www.w3.org/1999/xlink" x="0px" y="0px"
	 width="48px" height="48px" viewBox="0 0 48 48" enable-background="new 0 0 48 48" xml:space="preserve">
<g>
	<path fill="#414042" d="M13.16,13.215c0.276,0,0.5-0.224,0.5-0.5V6.474c0-0.276-0.224-0.5-0.5-0.5s-0.5,0.224-0.5,0.5v6.241
		C12.66,12.992,12.884,13.215,13.16,13.215z"/>
	<path fill="#414042" d="M34.895,13.215c0.276,0,0.5-0.224,0.5-0.5V6.474c0-0.276-0.224-0.5-0.5-0.5s-0.5,0.224-0.5,0.5v6.241
		C34.395,12.992,34.618,13.215,34.895,13.215z"/>
	<path fill="#414042" d="M43.306,7.039h-3.646V3.375c0-1.004-0.816-1.82-1.82-1.82h-5.324c-1.004,0-1.82,0.816-1.82,1.82v3.664
		H17.562V3.375c0-1.004-0.816-1.82-1.82-1.82h-5.325c-1.004,0-1.82,0.816-1.82,1.82v3.664H4.694c-1.004,0-1.82,0.816-1.82,1.82
		V44.75c0,1.004,0.816,1.82,1.82,1.82h38.611c1.004,0,1.82-0.816,1.82-1.82V8.859C45.126,7.855,44.31,7.039,43.306,7.039z
		 M4.694,8.039h4.401c0.276,0,0.5-0.224,0.5-0.5V3.375c0-0.452,0.368-0.82,0.82-0.82h5.325c0.452,0,0.82,0.368,0.82,0.82v4.164
		c0,0.276,0.224,0.5,0.5,0.5h14.133c0.276,0,0.5-0.224,0.5-0.5V3.375c0-0.452,0.368-0.82,0.82-0.82h5.324
		c0.452,0,0.82,0.368,0.82,0.82v4.164c0,0.276,0.224,0.5,0.5,0.5h4.146c0.452,0,0.82,0.368,0.82,0.82v6.41H3.874v-6.41
		C3.874,8.407,4.242,8.039,4.694,8.039z M43.306,45.57H4.694c-0.452,0-0.82-0.368-0.82-0.82V16.27h40.252v28.48
		C44.126,45.202,43.758,45.57,43.306,45.57z"/>
	<path fill="#414042" d="M14.147,20.254H9.691c-1.004,0-1.82,0.816-1.82,1.82v4.456c0,1.004,0.816,1.82,1.82,1.82h4.456
		c1.004,0,1.82-0.816,1.82-1.82v-4.456C15.968,21.07,15.151,20.254,14.147,20.254z M14.968,26.53c0,0.452-0.368,0.82-0.82,0.82
		H9.691c-0.452,0-0.82-0.368-0.82-0.82v-4.456c0-0.452,0.368-0.82,0.82-0.82h4.456c0.452,0,0.82,0.368,0.82,0.82V26.53z"/>
	<path fill="#414042" d="M26.762,20.254h-4.456c-1.004,0-1.82,0.816-1.82,1.82v4.456c0,1.004,0.816,1.82,1.82,1.82h4.456
		c1.004,0,1.82-0.816,1.82-1.82v-4.456C28.582,21.07,27.766,20.254,26.762,20.254z M27.582,26.53c0,0.452-0.368,0.82-0.82,0.82
		h-4.456c-0.452,0-0.82-0.368-0.82-0.82v-4.456c0-0.452,0.368-0.82,0.82-0.82h4.456c0.452,0,0.82,0.368,0.82,0.82V26.53z"/>
	<path fill="#414042" d="M39.376,20.254H34.92c-1.004,0-1.82,0.816-1.82,1.82v4.456c0,1.004,0.816,1.82,1.82,1.82h4.456
		c1.004,0,1.82-0.816,1.82-1.82v-4.456C41.196,21.07,40.38,20.254,39.376,20.254z M40.196,26.53c0,0.452-0.368,0.82-0.82,0.82H34.92
		c-0.452,0-0.82-0.368-0.82-0.82v-4.456c0-0.452,0.368-0.82,0.82-0.82h4.456c0.452,0,0.82,0.368,0.82,0.82V26.53z"/>
	<path fill="#414042" d="M14.147,33.869H9.691c-1.004,0-1.82,0.816-1.82,1.82v4.455c0,1.004,0.816,1.821,1.82,1.821h4.456
		c1.004,0,1.82-0.817,1.82-1.821v-4.455C15.968,34.686,15.151,33.869,14.147,33.869z M14.968,40.145c0,0.453-0.368,0.821-0.82,0.821
		H9.691c-0.452,0-0.82-0.368-0.82-0.821v-4.455c0-0.452,0.368-0.82,0.82-0.82h4.456c0.452,0,0.82,0.368,0.82,0.82V40.145z"/>
	<path fill="#414042" d="M26.762,33.869h-4.456c-1.004,0-1.82,0.816-1.82,1.82v4.455c0,1.004,0.816,1.821,1.82,1.821h4.456
		c1.004,0,1.82-0.817,1.82-1.821v-4.455C28.582,34.686,27.766,33.869,26.762,33.869z M27.582,40.145c0,0.453-0.368,0.821-0.82,0.821
		h-4.456c-0.452,0-0.82-0.368-0.82-0.821v-4.455c0-0.452,0.368-0.82,0.82-0.82h4.456c0.452,0,0.82,0.368,0.82,0.82V40.145z"/>
	<path fill="#414042" d="M39.376,33.869H34.92c-1.004,0-1.82,0.816-1.82,1.82v4.455c0,1.004,0.816,1.821,1.82,1.821h4.456
		c1.004,0,1.82-0.817,1.82-1.821v-4.455C41.196,34.686,40.38,33.869,39.376,33.869z M40.196,40.145c0,0.453-0.368,0.821-0.82,0.821
		H34.92c-0.452,0-0.82-0.368-0.82-0.821v-4.455c0-0.452,0.368-0.82,0.82-0.82h4.456c0.452,0,0.82,0.368,0.82,0.82V40.145z"/>
</g>
</svg>
