<?xml version="1.0" encoding="utf-8"?>
<!-- Generator: Adobe Illustrator 16.0.0, SVG Export Plug-In . SVG Version: 6.00 Build 0)  -->
<!DOCTYPE svg PUBLIC "-//W3C//DTD SVG 1.1//EN" "http://www.w3.org/Graphics/SVG/1.1/DTD/svg11.dtd">
<svg version="1.1" id="Layer_1" xmlns="http://www.w3.org/2000/svg" xmlns:xlink="http://www.w3.org/1999/xlink" x="0px" y="0px"
	 width="1024px" height="1024px" viewBox="0 0 1024 1024" enable-background="new 0 0 1024 1024" xml:space="preserve">
<g>
	<path fill="#414042" d="M251.438,814.615c1.542,0.854,3.292,1.291,5.084,1.291h176.354c5.896,0,10.667-4.771,10.667-10.666
		c0-5.896-4.771-10.667-10.667-10.667H259.209L117.188,717.74c-5.166-2.792-11.646-0.875-14.458,4.291
		c-2.792,5.188-0.875,11.667,4.333,14.459L251.438,814.615z"/>
	<path fill="#414042" d="M532.021,963.573l-120.5-98.625c-2.042-1.667-4.604-2.583-7.25-2.583l-154-0.229L77.313,758.803
		c-3.521-2.104-7.938-2.146-11.541-0.146c-3.584,2.042-5.792,5.854-5.792,9.979v205.167c0,6.333,5.125,11.458,11.458,11.458h454.979
		c0.146-0.021,0.271-0.021,0.438,0c6.333,0,11.458-5.125,11.458-11.458C538.313,969.323,535.75,965.448,532.021,963.573z"/>
	<path fill="#414042" d="M957.271,602.74c-2.459-0.959-5.084-0.959-7.459-0.104c-2.791-0.333-14.791-2.896-48-23.417
		c-6.708-14.125-35.854-69.854-78.688-69.854c-0.063,0-0.104,0-0.166,0c-0.229-0.021-23.563-2.709-53.438-78.271
		c-0.292-0.771-0.834-1.333-1.292-1.979c-5.333-15.375-13.292-28.521-25.771-37.354c-46.292-32.75-52.125-127.625-52.188-128.542
		c-12.125-162.125-113.5-222.041-117.792-224.5c-0.958-0.563-2-0.958-3.083-1.188c-12.5-2.646-24.459-2.625-35.417,0.188
		c-54.667,13.875-69.75,89.459-72.917,110.417c-41.25,27.396-46.791,78.042-51.25,119c-2.854,25.958-5.541,50.479-16.25,62.167
		c-25.833,28.191-47.301,132.741-57.262,188.82c-25.426-56.746-46.477-72.049-61.384-72.779
		c-28.313-25.083-49.938-30.458-67.708-18.563c-10.813,7.209-17.854,19.646-24.646,31.667c-2.458,4.354-4.958,8.75-7.625,12.833
		c-18.958,29.209-38.375,109.146-41.083,120.521c-44.875,89.563-69.417,115.458-70,116.041c-4.125,4.167-4.125,10.896,0.042,15.042
		c2.083,2.083,4.813,3.125,7.541,3.125c2.729,0,5.459-1.042,7.542-3.125c1.083-1.083,26.917-27.479,74.5-122.646
		c0.375-0.75,0.667-1.542,0.854-2.354c5.646-24.188,23.563-91.979,38.5-114.979c2.896-4.438,5.604-9.208,8.291-13.938
		c0.735-1.303,1.476-2.611,2.22-3.913c2.267,21.572,10.126,51.262,33.301,80.205c0.166,0.229,18.666,24.563,2.583,126.188
		l-0.658,4.021h-83.384c-4.833,0-9.041,3.229-10.291,7.875c-1.25,4.646,0.75,9.584,4.916,12l101.334,59.167
		c1.625,0.958,3.479,1.458,5.375,1.458h147.75c0.125-0.021,0.271,0,0.416,0c0.792,0,1.562-0.093,2.305-0.258l22.591,0.217
		l23.854,15.979c1.75,1.188,3.813,1.813,5.917,1.813h70.333l306.146,193.375H603.375c-5.896,0-10.666,4.771-10.666,10.667
		s4.771,10.667,10.666,10.667h269.313c4.75,0,8.938-3.146,10.25-7.709c1.334-4.563-0.541-9.438-4.541-11.979L538.479,754.031
		c-1.708-1.083-3.688-1.646-5.708-1.646h-70.167l-23.792-15.938c-1.729-1.167-3.75-1.792-5.833-1.813l-26.43-0.26l-59.125-32.448
		h90.847l26.125,21.625c1.791,1.521,4.083,2.375,6.416,2.458l81.979,2.813l365.354,228.625c1.771,1.104,3.708,1.625,5.666,1.625
		c3.542,0,7.021-1.771,9.042-5c3.125-5,1.625-11.583-3.375-14.708L561.688,709.219c-1.604-1-3.416-1.563-5.291-1.625l-81.209-2.791
		l-26.271-21.75c-1.896-1.584-4.313-2.459-6.813-2.459h-77.833c13.233-10.557,34.316-21.188,65.583-21.188c0.375,0,0.729,0,1.083,0
		c1.292,0.063,2.042-0.188,2.834-0.354c0.166-0.104,18.833-3.834,50.146,26.229c3.896,3.771,9.938,3.979,14.104,0.604
		c0.256-0.22,24.397-19.139,61.04-0.631c0.247,0.18,0.499,0.349,0.759,0.505l14.076,8.73c0.111,0.096,0.622,0.506,1.47,1.129
		c2.384,2.04,10.606,8.413,23.767,12.063c1.712,0.532,3.475,1.012,5.284,1.411l343.771,191.938c1.604,0.896,3.396,1.354,5.188,1.354
		c1.854,0,3.729-0.5,5.396-1.458c3.271-1.917,5.271-5.417,5.271-9.209V612.678C964.042,608.281,961.354,604.344,957.271,602.74z
		 M351.667,555.678c7.604-49.75,32.729-184.792,57.625-211.959c15.438-16.833,18.479-44.729,21.708-74.25
		c4.563-41.583,9.271-84.563,45.375-105.75c2.917-1.729,4.854-4.708,5.209-8.083c0.086-0.694,6.741-59.352,36.776-85.906
		c-3.557,16.913-3.993,38.2,10.182,52.364c17.021,17,29.438,35.063-4.625,69.271c-15.875,15.958-23.688,33.25-23.229,51.354
		c0.667,26.396,18.917,45.75,26.75,52.854c6.813,6.188-3.625,36.292-8.666,50.75c-2.896,8.375-5.5,15.958-6.709,21.563
		c-0.646,3.063-1.875,6.917-3.416,11.854c-9.295,29.566-27.998,89.169-22.158,222.227c-14.184-22.725-28.282-49.888-29.301-51.519
		c-14.021-17.979-28.625-25.479-43.333-22.271c-27.271,5.916-41.604,47.583-46.458,64.979c-0.938,0.38-1.86,0.794-2.775,1.224
		c-4.438-13.994-8.784-26.73-13.031-38.321C351.615,555.932,351.647,555.808,351.667,555.678z M492.563,664.261
		c-32.75-28.792-55.729-27.521-62.666-26.188c-0.042,0-0.063,0-0.063,0c-70.69,0-98.87,46.027-102.614,52.766l-0.711-0.391
		c1.086-5.886,2.444-11.368,3.996-16.464c8.613-23.102,25.522-56.081,48.559-62.286c3.75-1,6.667-4,7.584-7.792
		c5.063-21.041,18.25-51.958,31.75-54.875c7.708-1.646,16.104,7.021,20.916,12.875c0.959,1.896,24.292,46.938,42.375,71.042
		c1.959,2.604,4.979,4.188,8.25,4.271c0.075,0,1.513,0.054,3.949,0.391c1.224,0.6,2.576,0.979,4.01,1.068
		c0.088,0.006,2.517,0.194,6.444,1.17c8.359,2.386,19.302,6.92,29.911,15.521c0.313,0.26,0.625,0.525,0.938,0.793
		C515.893,654.268,501.06,659.779,492.563,664.261z M696.834,733.094c0,0.979-0.459,1.834-0.729,2.771l-80.417-44.917v-45.104
		c0-5.896,4.771-10.666,10.667-10.666h13v-19.959c0-5.896,4.792-10.666,10.667-10.666h36.146c5.896,0,10.667,4.771,10.667,10.666
		V733.094z M809.854,799.219c0,0.042-0.042,0.084-0.042,0.125l-81.083-45.271v-42.104c0-5.896,4.771-10.666,10.667-10.666h13.291
		v-19.979c0-5.896,4.792-10.667,10.667-10.667h35.833c5.896,0,10.667,4.771,10.667,10.667V799.219z M926.938,864.761l-81.125-45.313
		v-34.854c0-5.896,4.792-10.666,10.667-10.666h13v-19.979c0-5.896,4.75-10.667,10.667-10.667h36.125
		c5.916,0,10.666,4.771,10.666,10.667V864.761z M942.709,756.636c-18.104-27.958-56.75-81.229-95.354-110.458
		c-34-25.75-43.708-36.875-46.188-40.167c-23.146-12.042-20.354-60.771-22.646-109.958c23.166,34.354,41.041,35.104,44.666,34.625
		c0.042,0,0.063,0,0.084,0c28.104,0,53.125,43.416,60.416,60.166c0.834,1.979,2.292,3.646,4.125,4.792
		c27.146,16.979,44.042,24.708,54.896,27.333V756.636z"/>
</g>
</svg>
