<?xml version="1.0" encoding="utf-8"?>
<!-- Generator: Adobe Illustrator 16.0.0, SVG Export Plug-In . SVG Version: 6.00 Build 0)  -->
<!DOCTYPE svg PUBLIC "-//W3C//DTD SVG 1.1//EN" "http://www.w3.org/Graphics/SVG/1.1/DTD/svg11.dtd">
<svg version="1.1" id="Layer_1" xmlns="http://www.w3.org/2000/svg" xmlns:xlink="http://www.w3.org/1999/xlink" x="0px" y="0px"
	 width="1024px" height="1024px" viewBox="0 0 1024 1024" enable-background="new 0 0 1024 1024" xml:space="preserve">
<g>
	<path fill="#414042" d="M717.604,202.875c6.376,0.406,12.925-0.244,19.521-1.703v19.078h7.354c8.438,0,16.667,3.417,22.625,9.375
		c3.688,3.709,6.354,8.125,7.896,12.959c4.104-12.917,16.229-22.334,30.5-22.334h8.146v-24.333h43.625v24.333h8.313
		c14.021,0,25.958,9.084,30.291,21.667c4.292-12.583,16.25-21.667,30.271-21.667h12.479v-13.392
		c4.472,1.557,7.319,2.423,7.917,2.601c1.021,0.333,2.042,0.458,3.063,0.458c4.604,0,8.833-2.958,10.229-7.583
		c1.666-5.667-1.521-11.584-7.167-13.292c-0.792-0.25-81.208-24.833-110.146-71.458c-1.771-2.834-4.771-4.709-8.104-5
		c-3.542-0.25-6.667,1-8.875,3.5c-17.208,19.083-69.917,67.583-106.438,65.5c-6.083-0.625-10.979,4-11.396,9.875
		C707.292,197.334,711.729,202.459,717.604,202.875z"/>
	<path fill="#414042" d="M832.459,68.167c5.896,0,10.666-4.75,10.666-10.667V29.542c0-5.875-4.771-10.667-10.666-10.667
		c-5.896,0-10.667,4.792-10.667,10.667V57.5C821.792,63.417,826.563,68.167,832.459,68.167z"/>
	<path fill="#414042" d="M717.604,164.292C765.063,167.625,812.5,120.084,832,97.834c40.834,50.958,122.646,75.916,126.375,77.041
		c1,0.292,2.042,0.417,3.042,0.417c4.583,0,8.833-2.958,10.208-7.583c1.709-5.667-1.5-11.584-7.146-13.292
		c-0.896-0.25-90.479-27.625-122.771-79.667c-1.834-2.958-5.042-4.833-8.542-5c-3.375-0.333-6.854,1.375-9,4.125
		c-0.542,0.75-56.667,72.25-105.063,69.125c-6.083-0.25-10.979,4.042-11.396,9.917C707.292,158.792,711.729,163.875,717.604,164.292
		z"/>
	<polygon fill="#414042" points="413.292,110.75 381.875,110.75 381.875,139.917 348.875,139.917 348.875,110.75 316.375,110.75 
		316.375,139.667 283.625,139.667 283.625,110.75 252.75,110.75 252.75,152.25 413.292,152.25 	"/>
	<path fill="#414042" d="M343.084,218.459V190c0-6.458,4.916-11.666,10.958-11.666h6.583c6.084,0,11,5.208,11,11.666v28.334
		l41.584-0.125h0.083v-55.292H252.75V185.5v3.917l63.625,29.125L343.084,218.459z"/>
	<path fill="#414042" d="M982.959,519.042c-2.084,0.125-4.709,0.667-6.667,2.083l-126.708,92.834
		c-2.792,2.041-4.417,5.291-4.375,8.75l0.666,48.458l-102.25,75.75l-0.563-34.042c-0.063-3.958-2.354-7.583-5.896-9.375
		c-3.542-1.75-7.792-1.416-11.042,0.917l-134.563,97.708c-2.813,2.042-4.438,5.292-4.396,8.792l0.771,48.667L489.729,932
		l-0.563-34.083c-0.042-4-2.375-7.625-5.958-9.417c-3.584-1.75-7.896-1.375-11.084,1.042L381.167,957.5
		c-2.708,2-4.292,5.209-4.292,8.542v28.417c0,5.916,4.792,10.666,10.667,10.666h270.083c2.813,0,5.5-1.083,7.5-3.041
		l325.563-320.209c2.042-2,3.188-4.75,3.188-7.625v-144.5C993.875,524,988.709,519.25,982.959,519.042z M690.438,805.917
		l-36.458,26.75c-1.896,1.417-4.104,2.083-6.313,2.083c-3.271,0-6.5-1.5-8.604-4.375c-3.479-4.75-2.458-11.416,2.292-14.916
		l36.458-26.75c4.729-3.5,11.438-2.459,14.917,2.291S695.188,802.459,690.438,805.917z M949.938,634.75l-34.083,25.042
		c-1.896,1.375-4.104,2.042-6.313,2.042c-3.271,0-6.5-1.5-8.583-4.334c-3.5-4.75-2.479-11.416,2.271-14.916l34.083-25.042
		c4.75-3.5,11.438-2.458,14.896,2.292C955.709,624.584,954.688,631.25,949.938,634.75z"/>
	<path fill="#414042" d="M753.25,572.25l-3.375-74.75c-0.146-3.583-2.125-6.875-5.208-8.708c-3.125-1.833-6.917-2-10.125-0.417
		L544.75,581.5c-3.666,1.792-5.958,5.5-5.958,9.584v42.166l-112.417,55.875V656.75c0-3.666-1.875-7.083-5.021-9.041
		c-3.125-1.959-7.021-2.125-10.354-0.542l-141.666,69.625c-3.667,1.792-5.959,5.5-5.959,9.583v42.084l-111.791,54.916v-32.5
		c0-3.708-1.917-7.166-5.084-9.083c-3.146-1.958-7.063-2.167-10.375-0.458L37.396,831c-3.563,1.75-5.813,5.375-5.875,9.375
		l-1.396,98.542c-0.041,3.75,1.875,7.25,5.084,9.208c1.708,1.084,3.625,1.584,5.583,1.584c1.688,0,3.375-0.375,4.938-1.209
		l701.792-366.291C751.209,580.292,753.417,576.417,753.25,572.25z M87.979,874.209l-37.833,18.625
		c-1.521,0.75-3.104,1.125-4.688,1.125c-3.959,0-7.75-2.209-9.584-5.959c-2.604-5.291-0.438-11.666,4.854-14.291l37.833-18.625
		c5.271-2.584,11.688-0.417,14.271,4.875C95.438,865.25,93.271,871.625,87.979,874.209z M369.729,733.209l-40.271,19.833
		c-1.521,0.75-3.125,1.083-4.709,1.083c-3.938,0-7.708-2.166-9.583-5.958c-2.583-5.292-0.417-11.667,4.875-14.25l40.271-19.833
		c5.25-2.625,11.646-0.417,14.271,4.833C377.188,724.209,375.021,730.584,369.729,733.209z M674.604,584.542l-40.021,19.708
		c-1.5,0.75-3.125,1.084-4.709,1.084c-3.916,0-7.708-2.167-9.583-5.959c-2.583-5.291-0.417-11.666,4.875-14.25l40.021-19.708
		c5.271-2.625,11.688-0.417,14.271,4.875C682.063,575.584,679.875,581.959,674.604,584.542z"/>
	<path fill="#414042" d="M983.209,241.584h-57.063c-5.896,0-10.667,4.791-10.667,10.666v19.584H876.25V252.25
		c0-5.875-4.771-10.666-10.666-10.666H805.5c-5.896,0-10.666,4.791-10.666,10.666v20.042h-39.688V252.25
		c0-2.833-1.125-5.541-3.125-7.541s-4.729-3.125-7.542-3.125h-0.021l-58.084,0.083c-2.833,0-5.541,1.125-7.541,3.125
		s-3.125,4.708-3.125,7.542l0.083,64.416h318.083v-64.5C993.875,246.375,989.104,241.584,983.209,241.584z"/>
	<path fill="#414042" d="M675.709,330.25l-12.896-5.375c-3.375-1.416-4.938-5.291-3.541-8.666c1.416-3.375,5.313-4.959,8.688-3.584
		l7.75,2.792V302.5l-29.792-12.291l0.167,19.041L590,286.792l-0.166-18.708l-59.709-23.959l0.625,19.792l-56.375-22.958
		l-0.583-19.375l-49.5-19.709v47l251.417,110.917V330.25z M454.604,233.334c-0.979,2.416-3.229,3.958-5.646,4.125
		c-1,0.083-2-0.084-2.979-0.459l-13.354-5.375c-3.416-1.416-5.041-5.208-3.666-8.625c1.375-3.375,5.229-5.041,8.604-3.666
		l13.375,5.375C454.334,226.084,455.979,229.917,454.604,233.334z M572.125,280.875c-0.958,2.459-3.208,3.959-5.646,4.167
		c-0.979,0.042-1.979-0.125-2.979-0.5l-14.938-6.042c-3.396-1.333-5.041-5.208-3.688-8.541c1.417-3.417,5.25-5.084,8.646-3.709
		l14.938,6C571.854,273.625,573.5,277.459,572.125,280.875z"/>
	<path fill="#414042" d="M675.893,409.494l-54.871-27.577v32.542l-87.313-42.875v-32l-92.917-45.625V326.5l-87.708-43.666v-31.959
		L252.75,202v75.167L676,505.209l53.792-26.375c2.917-1.459,6.167-2.209,9.417-2.209c3.833,0,7.583,1.042,10.916,3
		c6.209,3.709,10.104,10.209,10.417,17.375l3.354,74.792c0.146,3.5-0.729,6.833-2.146,9.875l10.771,0.042V460.625
		c0-24.166,15.958-43.791,35.625-43.791h21.396c19.688,0,35.646,19.625,35.646,43.791v121.417l9.896,0.042l94.979-69.625
		c4.479-3.209,9.688-3.917,12.375-4.042l0.459-0.042h0.458c3.917,0.167,7.375,1.584,10.521,3.5V338.084H675.813L675.893,409.494z
		 M325.459,267.792c-1.875,3.792-5.646,5.958-9.584,5.958c-1.583,0-3.188-0.333-4.708-1.083l-20.792-10.25
		c-5.291-2.625-7.458-9-4.833-14.292c2.583-5.25,9-7.458,14.271-4.833l20.792,10.25
		C325.875,256.125,328.063,262.542,325.459,267.792z M508.334,358.334c-1.854,3.791-5.625,5.958-9.584,5.958
		c-1.583,0-3.166-0.333-4.708-1.083l-23.25-11.459c-5.292-2.625-7.458-9-4.854-14.291c2.625-5.292,9.021-7.417,14.292-4.834
		l23.271,11.459C508.771,346.667,510.959,353.084,508.334,358.334z M648.563,439.917c-5.25-2.667-7.313-9.083-4.646-14.333
		s9.125-7.292,14.354-4.667l17.645,9.028l0.026,23.968L648.563,439.917z"/>
</g>
</svg>
