<?xml version="1.0" encoding="utf-8"?>
<!-- Generator: Adobe Illustrator 16.0.0, SVG Export Plug-In . SVG Version: 6.00 Build 0)  -->
<!DOCTYPE svg PUBLIC "-//W3C//DTD SVG 1.1//EN" "http://www.w3.org/Graphics/SVG/1.1/DTD/svg11.dtd">
<svg version="1.1" id="Layer_1" xmlns="http://www.w3.org/2000/svg" xmlns:xlink="http://www.w3.org/1999/xlink" x="0px" y="0px"
	 width="1024px" height="1024px" viewBox="0 0 1024 1024" enable-background="new 0 0 1024 1024" xml:space="preserve">
<g>
	<polygon fill="#414042" points="452.729,489.813 566.5,489.813 565.125,467.688 454.792,467.688 	"/>
	<polygon fill="#414042" points="449.25,527.125 568.854,527.125 567.459,505.042 451.313,505.042 	"/>
	<path fill="#414042" d="M579.146,691.729H433.979l-3.125,33.552c-0.042,0.479-0.479,0.75-0.604,1.188h151.354
		c-0.104-0.479-0.313-0.916-0.354-1.427L579.146,691.729z"/>
	<polygon fill="#414042" points="458.25,430.334 456.188,452.459 564.167,452.459 562.771,430.334 	"/>
	<polygon fill="#414042" points="435.375,676.5 578.209,676.5 576.813,654.375 437.438,654.375 	"/>
	<polygon fill="#414042" points="438.854,639.146 575.854,639.146 574.479,617.063 440.875,617.063 	"/>
	<polygon fill="#414042" points="442.313,601.834 573.521,601.834 572.146,579.709 444.375,579.709 	"/>
	<polygon fill="#414042" points="445.792,564.479 571.188,564.479 569.792,542.354 447.854,542.354 	"/>
	<path fill="#414042" d="M903.521,605.959l-18.709-46.115c-1.541-3.844-5.271-6.344-9.396-6.344h-7.979v0.115h-280.5h-1.166
		l1.125,17.688c0,0.281,0.146,0.521,0.146,0.791c0,0.156-0.083,0.281-0.083,0.396l2.063,33.469h6.541H903.521z"/>
	<path fill="#414042" d="M820.438,538.386l-19.708-40.844c-1.688-3.489-5.271-5.708-9.146-5.708h-3.604v0.239H582.771h-0.875
		l2.938,46.313h2.104H820.438z"/>
	<path fill="#414042" d="M578.271,434.021l2.666,42.822h1.834h164l-17.875-37.031c-1.709-3.531-5.25-5.75-9.125-5.75h-33.084
		l-0.041-0.041H580.542H578.271z"/>
	<path fill="#414042" d="M1011.938,712.511l-34.458-84.938c-1.542-3.844-5.271-6.344-9.396-6.344h-58.375l-0.042-0.042H595.563
		h-5.583l1.417,22.406c0.458,0.99,0.729,2.021,0.729,3.167c0,0.719-0.208,1.354-0.396,1.989l4.708,75.344
		c0.042,0.834-0.104,1.584-0.313,2.375h406.417c3.375,0,6.5-1.708,8.396-4.479C1012.854,719.178,1013.209,715.604,1011.938,712.511z
		"/>
	<path fill="#414042" d="M438.625,476.844l4-42.822h-4.041H337.459v0.041h-33.584c-3.916,0-7.5,2.261-9.188,5.792l-17.583,36.989
		h154.667H438.625z"/>
	<path fill="#414042" d="M444.021,418.792l3.563-38.146h15.271l-3.167,34.458h102.146l-2.188-34.458h15.271l2.375,38.146h3.25
		h99.854l-13.209-31.886c-1.541-3.802-5.271-6.26-9.354-6.26h-62.459v-24.979v-9.875h-48.813v34.854h-15.229v-34.854h-34.021v34.854
		h-15.229v-34.854h-53.459v9.875v24.979h-61.271c-4.042,0-7.688,2.375-9.313,6.104l-13.958,32.042h94.5H444.021z"/>
	<path fill="#414042" d="M432.917,538.386l4.313-46.313h-5.458H237.979v-0.239h-8.542c-4.041,0-7.729,2.385-9.313,6.114
		l-17.563,40.438h221.896H432.917z"/>
	<path fill="#414042" d="M431.479,553.615h-7.021H152.75V553.5h-4c-4.125,0-7.854,2.5-9.396,6.303l-18.792,46.156h296.167h9.917
		l3.083-33.386c0-0.156-0.104-0.323-0.104-0.479c0-0.479,0.188-0.875,0.271-1.302L431.479,553.615z"/>
	<path fill="#414042" d="M114.334,621.188v0.042H56.125c-4.125,0-7.854,2.5-9.396,6.302l-34.646,84.938
		c-1.271,3.136-0.917,6.709,0.979,9.521c1.875,2.771,5.042,4.479,8.396,4.479h394.479c-0.208-0.833-0.354-1.708-0.271-2.614
		l3.688-39.614c0-0.042,0-0.084,0-0.125c0-0.115,0.042-0.198,0.042-0.313l3.208-34.5c-0.292-0.792-0.521-1.667-0.521-2.542
		c0-1.386,0.479-2.573,1.104-3.688l2.021-21.886h-8.479H114.334z"/>
	<path fill="#414042" d="M595.375,307.678c0-5.625-4.521-10.146-10.146-10.146H438.771c-5.584,0-10.146,4.521-10.146,10.146v22.885
		h166.75V307.678z"/>
</g>
</svg>
