<?xml version="1.0" encoding="utf-8"?>
<!-- Generator: Adobe Illustrator 16.0.0, SVG Export Plug-In . SVG Version: 6.00 Build 0)  -->
<!DOCTYPE svg PUBLIC "-//W3C//DTD SVG 1.1//EN" "http://www.w3.org/Graphics/SVG/1.1/DTD/svg11.dtd">
<svg version="1.1" id="Layer_1" xmlns="http://www.w3.org/2000/svg" xmlns:xlink="http://www.w3.org/1999/xlink" x="0px" y="0px"
	 width="1024px" height="1024px" viewBox="0 0 1024 1024" enable-background="new 0 0 1024 1024" xml:space="preserve">
<g>
	<path fill="#414042" d="M967.729,763l-4.521-118h-43.875l-2.688,118H779.334V534.375c0-5.416-4.084-10-9.459-10.625l-52.583-5.958
		V763h-10.667V517.209h-76.188h-7.521h-3.542V763h-10.666V492.75H417.667V763H407V517.209h-2.333l-83.708,0.041V763h-10.667V517.75
		l-52.583,6c-5.375,0.625-9.459,5.209-9.459,10.625V763H107.459l-2.688-118H60.896l-4.521,118H29.667v54.875h964.667V763H967.729z
		 M284.209,763h-10.292v-55.875c0-10.041,4.667-13.291,4.667-13.291s2.041-1.625,5.625-3.709V763z M271.604,601.417
		c0-9.875,4.729-13.042,4.729-13.042s2.063-1.625,5.729-3.583v50.542l-10.458,4.333V601.417z M350.75,590.584
		c0-9.625,6.625-12.709,6.625-12.709s2.917-1.583,8.042-3.541c5.125,1.958,8.083,3.541,8.083,3.541s6.625,3.084,6.625,12.709v39.166
		H350.75V590.584z M350.792,763v-59.916c0-11.834,6.625-15.667,6.625-15.667s2.917-1.917,8-4.333
		c5.125,2.416,8.083,4.333,8.083,4.333s6.584,3.833,6.584,15.667V763H350.792z M530,639.667h-36v-43
		c0-9.625,9.709-12.417,9.709-12.417s2.938-1.541,8.063-3.541c5.125,2,8.041,3.541,8.041,3.541S530,587.042,530,596.667V639.667z
		 M503,680.959c0,0,2.917-2,8.042-4.542c5.125,2.542,8.042,4.542,8.042,4.542s10.208,3.958,10.208,16.375L528.308,763h-35.016
		v-64.25C493.292,686.375,503,680.959,503,680.959z M567.334,763V608.042c0-33.167-22.959-44.125-23.917-44.583
		c-0.542-0.25-12.229-5.959-32.375-13.334c-20.125,7.375-31.771,13.042-31.896,13.125c-1.438,0.667-24.396,11.625-24.396,44.792V763
		h-11.666V613.667c0-43.75,30.708-58.625,32-59.25c0,0,11.791-6.25,32.146-14.042c2.458-0.958,5.188-0.958,7.646,0
		c20.354,7.792,32.125,14.042,32.625,14.292c0.834,0.375,31.5,15.25,31.5,59V763H567.334z M647.459,590.584
		c0-9.625,6.625-12.709,6.625-12.709s2.958-1.583,8.083-3.541c5.125,1.958,8.042,3.541,8.042,3.541s6.625,3.084,6.625,12.709v39.166
		h-29.375V590.584z M647.542,763v-59.916c0-11.834,6.583-15.667,6.583-15.667s2.917-1.917,8.042-4.333c5.083,2.416,8,4.333,8,4.333
		s6.625,3.833,6.625,15.667V763H647.542z M741.709,584.792c3.666,1.958,5.75,3.583,5.75,3.583s4.708,3.167,4.708,13.042v38.25
		l-10.458-4.333V584.792z M739.584,690.125c3.583,2.084,5.625,3.709,5.625,3.709s4.646,3.25,4.646,13.291V763h-10.271V690.125z"/>
	<path fill="#414042" d="M513.834,245.334c2.938,0,5.333-2.386,5.333-5.334v-33.875c0-2.947-2.396-5.333-5.333-5.333
		s-5.334,2.386-5.334,5.333V240C508.5,242.948,510.896,245.334,513.834,245.334z"/>
	<path fill="#414042" d="M614.042,481.875c35.792-61.708,24.458-117.833-33.333-163.083c-32.979-25.875-58.438-56.625-58.688-56.917
		c-4.063-4.916-12.417-4.916-16.479,0c-0.25,0.292-25.688,31.042-58.667,56.917c-57.791,45.25-69.125,101.333-33.291,163.083
		H614.042z"/>
	<path fill="#414042" d="M362.042,417.959c0.021,0,0.021,0,0.042,0c2.938,0,5.313-2.365,5.333-5.303l0.083-12.416
		c0.021-2.969-2.958-5.511-5.333-5.365c-2.938,0-5.313,2.365-5.333,5.303l-0.084,12.416
		C356.729,415.531,359.104,417.938,362.042,417.959z"/>
	<path fill="#414042" d="M395.375,481.875c7.667-19.625-12.791-34.625-20.208-40.416c-7.417-5.792-13-12.584-13-12.584H362
		c0,0-5.583,6.792-12.958,12.584c-7.417,5.791-27.917,20.791-20.208,40.416H395.375z"/>
	<rect x="328.834" y="489.584" fill="#414042" width="66.708" height="22.083"/>
	<path fill="#414042" d="M665.5,417.959c0.021,0,0.021,0,0.042,0c2.938-0.021,5.313-2.428,5.292-5.365l-0.084-12.416
		c-0.021-2.938-2.396-5.303-5.333-5.303c-3.542-0.166-5.354,2.396-5.333,5.365l0.083,12.416
		C660.188,415.594,662.563,417.959,665.5,417.959z"/>
	<path fill="#414042" d="M632.125,481.875h66.584c7.625-19.625-12.834-34.625-20.25-40.416
		c-7.375-5.792-12.959-12.584-12.959-12.584h-0.166c0,0-5.625,6.792-13,12.584C644.917,447.25,624.459,462.25,632.125,481.875z"/>
	<rect x="632.084" y="489.584" fill="#414042" width="66.708" height="21.541"/>
	<polygon fill="#414042" points="99.834,428.875 69.167,428.875 65.625,521.625 101.959,521.625 	"/>
	<polygon fill="#414042" points="102.188,532.292 65.209,532.292 61.292,634.334 104.521,634.334 	"/>
	<rect x="70.292" y="399.542" fill="#414042" width="28.833" height="23.333"/>
	<path fill="#414042" d="M100.75,394.209c7.604-13.125-9.666-24.834-9.666-24.834c-3.625-2.791-6.334-6.083-6.334-6.083h-0.041
		c0,0-2.709,3.292-6.292,6.083c0,0-17.271,11.709-9.667,24.834H100.75z"/>
	<path fill="#414042" d="M84.709,356.084c2.938,0,5.333-2.386,5.333-5.334v-17.916c0-2.948-2.396-5.334-5.333-5.334
		s-5.334,2.386-5.334,5.334v17.916C79.375,353.698,81.771,356.084,84.709,356.084z"/>
	<polygon fill="#414042" points="188.459,490.834 163.5,490.834 160.625,566.334 190.188,566.334 	"/>
	<polygon fill="#414042" points="190.375,575 160.25,575 157.084,658.125 192.292,658.125 	"/>
	<polygon fill="#414042" points="192.5,666.792 156.771,666.792 153.084,762.875 194.688,762.875 	"/>
	<rect x="164.417" y="466.959" fill="#414042" width="23.458" height="18.958"/>
	<path fill="#414042" d="M189.209,462.625c6.208-10.708-7.875-20.25-7.875-20.25c-2.917-2.291-5.125-4.958-5.125-4.958h-0.063
		c0,0-2.188,2.667-5.104,4.958c0,0-14.063,9.542-7.896,20.25H189.209z"/>
	<path fill="#414042" d="M176.146,432.542c2.938,0,5.333-2.386,5.333-5.333v-14.584c0-2.947-2.396-5.333-5.333-5.333
		s-5.334,2.386-5.334,5.333v14.584C170.813,430.156,173.209,432.542,176.146,432.542z"/>
	<polygon fill="#414042" points="922.167,521.625 958.5,521.625 954.959,428.875 924.292,428.875 	"/>
	<polygon fill="#414042" points="958.917,532.292 921.917,532.292 919.584,634.334 962.813,634.334 	"/>
	<rect x="925" y="399.542" fill="#414042" width="28.813" height="23.333"/>
	<path fill="#414042" d="M955.375,394.209c7.584-13.125-9.666-24.834-9.666-24.834c-3.604-2.791-6.292-6.083-6.292-6.083h-0.063
		c0,0-2.708,3.292-6.313,6.083c0,0-17.292,11.709-9.667,24.834H955.375z"/>
	<path fill="#414042" d="M939.417,356.084c2.938,0,5.333-2.386,5.333-5.334v-17.916c0-2.948-2.396-5.334-5.333-5.334
		s-5.333,2.386-5.333,5.334v17.916C934.084,353.698,936.479,356.084,939.417,356.084z"/>
	<polygon fill="#414042" points="833.917,566.334 863.5,566.334 860.625,490.834 835.646,490.834 	"/>
	<polygon fill="#414042" points="863.854,575 833.729,575 831.834,658.125 867.021,658.125 	"/>
	<polygon fill="#414042" points="867.334,666.792 831.625,666.792 829.417,762.875 871.021,762.875 	"/>
	<rect x="836.229" y="466.959" fill="#414042" width="23.458" height="18.958"/>
	<path fill="#414042" d="M860.959,462.625c6.166-10.708-7.875-20.25-7.875-20.25c-2.917-2.291-5.125-4.958-5.125-4.958h-0.042
		c0,0-2.208,2.667-5.125,4.958c0,0-14.083,9.542-7.875,20.25H860.959z"/>
	<path fill="#414042" d="M847.959,432.542c2.938,0,5.333-2.386,5.333-5.333v-14.584c0-2.947-2.396-5.333-5.333-5.333
		s-5.334,2.386-5.334,5.333v14.584C842.625,430.156,845.021,432.542,847.959,432.542z"/>
</g>
</svg>
