<?xml version="1.0" encoding="utf-8"?>
<!-- Generator: Adobe Illustrator 16.0.0, SVG Export Plug-In . SVG Version: 6.00 Build 0)  -->
<!DOCTYPE svg PUBLIC "-//W3C//DTD SVG 1.1//EN" "http://www.w3.org/Graphics/SVG/1.1/DTD/svg11.dtd">
<svg version="1.1" id="Layer_1" xmlns="http://www.w3.org/2000/svg" xmlns:xlink="http://www.w3.org/1999/xlink" x="0px" y="0px"
	 width="1024px" height="1024px" viewBox="0 0 1024 1024" enable-background="new 0 0 1024 1024" xml:space="preserve">
<g>
	<path fill="#414042" d="M206.432,227.096l-31.686-37.464c0,0-6.21-7.896-5.387-13.653l-15.504-9.541
		c-1.192-0.74-2.591-1.151-3.988-1.151l-41.35-0.7c-2.529-0.164-4.174,0.823-5.675,2.262c-1.5,1.48-2.364,3.536-2.364,5.633v2.714
		l-24.448-0.822c-2.221,0.042-4.216,0.74-5.737,2.221c-1.563,1.48-2.427,3.537-2.427,5.675v19.986c0,3.619,2.467,6.786,6.005,7.69
		l57.491,14.352c0.657,0.165,1.439,0.207,2.056,0.247l35.181-0.78l5.449,0.74l28.375,2.467L206.432,227.096z"/>
	<path fill="#414042" d="M953.75,168.659c-1.542-1.48-3.66-2.221-5.758-2.221l-24.468,0.823v-2.714c0-2.097-0.844-4.154-2.344-5.634
		c-1.522-1.48-3.291-1.891-5.676-2.261l-41.35,0.699c-1.419,0-2.797,0.412-4.01,1.152l-23.029,14.146l-0.637,0.082
		c-15.813,20.356-28.622,46.429-28.644,46.47l2.263-0.083l25.579-1.974l8.471-1.234l36.456,0.7c0.74,0.082,1.378-0.083,2.077-0.247
		l57.491-14.353c3.494-0.905,5.962-4.071,5.962-7.69v-19.986C956.135,172.196,955.271,170.14,953.75,168.659z"/>
	<path fill="#414042" d="M511.321,266.41l42.81-35.942c0.639-0.534,1.461-0.493,2.201-0.699l-1.604-45.195l-52.063,45.318
		c-0.945,0.863-2.179,1.315-3.454,1.315c-0.329,0-0.658-0.041-1.007-0.123l-33.66-6.662c-0.905-0.164-1.728-0.576-2.406-1.151
		l-70.65-60.535c-1.048-0.904-1.583-2.138-1.727-3.413l-53.688,6.21c-1.11,0.124-2.179,0.411-3.208,0.904l-20.15,9.253l-1.954,0.083
		l134,82.082L511.321,266.41z"/>
	<path fill="#414042" d="M467.937,214.389l29.773,5.88l56.359-49.06c0.042-0.042,0.123-0.042,0.165-0.083l-0.298-8.316l10.545,0.118
		l13.543,378.229l8.821,10.404h29.115c1.521,0,3.002,0.699,3.988,1.851l9.376,11.021l10.487-5.429
		c1.604-0.822,3.577-0.822,5.141,0.165l14.104,8.554c0.186-0.904,0.412-1.81,0.33-2.755l-18.32-245.549l0.144-0.041l-17.313-104.865
		c-0.164-0.987-0.062-1.974,0.309-2.879l19.184-47.046L572.713,153.7l-4.477-99.981c-4.996-33.146-29.012-44.949-49.204-44.949
		c-0.021,0-0.041,0-0.041,0c-37.402,0-51.075,29.362-53.09,44.867l-12.852,98.428l-51.013,5.861L467.937,214.389z"/>
	<path fill="#414042" d="M583.555,617.112l53.276,44.166c0.514,0.412,0.925,0.946,1.233,1.48l15.093,27.102
		c2.303-2.139,3.599-5.142,3.434-8.266l-4.812-89.938l4.236-13.489l-13.982-8.471l-11.556,6.004
		c-2.221,1.151-4.854,0.616-6.457-1.234l-10.507-12.378h-29.136c-1.542,0-3.002-0.657-4.01-1.851l-11.556-13.694
		c-0.761-0.904-1.213-2.015-1.254-3.208l-10.775-301.353l-40.465,33.968c-0.946,0.822-2.139,1.234-3.372,1.234
		c-0.247,0-0.453,0-0.678-0.042l-63.968-8.225l2.549,189.004c0.042,2.056-1.152,3.948-3.022,4.811l-52.946,24.756l-2.571,48.978
		c-0.103,1.81,0.288,3.619,1.09,5.264l8.594,17.189l-0.02,0.494l17.374-12.625c1.522-1.069,3.537-1.316,5.223-0.534l157.75,70.115
		C582.774,616.578,583.185,616.824,583.555,617.112z"/>
	<path fill="#414042" d="M382.831,451.713l7.917,2.509l4.955,17.395l-0.205,3.948l44.784-20.932l-2.55-188.757l-39.005-23.893
		l-16.265,77.477l0.925,0.329l-7.916,121.233C375.162,445.833,378.184,450.274,382.831,451.713z"/>
	<path fill="#414042" d="M389.185,236.143l-90.739-55.599c-1.563-0.945-2.138-2.59-2.2-4.318l-36.086,1.152
		c-1.152,0.041-2.262,0.247-3.352,0.657l-6.25,2.344l-65.078-4.77c-2.961-0.37-5.901,0.822-8.061,2.879
		c-0.247,0.124-0.514,0.37-0.781,0.494l9.828,10.61l7.958,9.787l50.355,61.809l-24.838,15.668l-16.038-41.823h-16.778l21.63,56.874
		c0.083,0.412,0.041,0.782,0.165,1.193c0.576,1.809,1.686,3.29,3.043,4.523c0.802,0.864,1.666,1.439,2.755,1.851
		c0.74,0.329,1.501,0.575,2.344,0.699c0.124,0,0.205,0.124,0.329,0.124c0.103,0,0.185-0.041,0.288-0.041
		c0.617,0.041,1.192,0.205,1.851,0.164l98.224-5.14l54.715,20.438L389.185,236.143z"/>
	<path fill="#414042" d="M809.797,269.289l-21.385-15.011l46.881-80.273l3.928-6.168c-2.549-1.769-5.799-2.344-8.801-1.604
		l-39.396,10.404l-30.37-0.658l-43.118,1.727c-1.192,0.082-2.385,0.329-3.495,0.782l-5.964,2.385l-52.802-9.54l-2.51-1.851
		l-18.259,44.783l16.82,101.822l45.482-14.887l114.899-7.69c0.329,0,0.575-0.287,0.926-0.37c0.308,0.042,0.596,0.124,0.904,0.124
		c3.475,0,6.641-2.303,7.607-5.798l17.006-62.631l-16.902,2.179L809.797,269.289z"/>
	<path fill="#414042" d="M653.713,883.346l9.129,1.522L645.94,697.426c-0.515-0.41-1.07-0.78-1.398-1.397l-15.195-27.265
		l-51.96-43.057l-16.614-7.402l11.247,265.411L653.713,883.346z"/>
	<polygon fill="#414042" points="550.04,613.534 477.744,581.417 474.495,884.086 561.472,883.758 	"/>
	<path fill="#414042" d="M397.595,884.416l66.353-0.288l3.311-307.398l-44.167-19.616l-21.713,15.75l-13.982,313.69l5.388-1.48
		C394.346,884.662,395.97,884.416,397.595,884.416z"/>
	<path fill="#414042" d="M701.827,899.261l-48.074-8.019l-256.158,1.069c-0.905,0-1.83,0.123-2.714,0.37l-46.018,12.584
		c-4.586,1.274-7.772,5.428-7.772,10.157v89.279c0,5.839,4.729,10.527,10.527,10.527h348.44c5.84,0,10.527-4.688,10.527-10.527
		v-95.037C710.586,904.525,706.886,900.124,701.827,899.261z"/>
</g>
</svg>
