<?xml version="1.0" encoding="utf-8"?>
<!-- Generator: Adobe Illustrator 16.0.0, SVG Export Plug-In . SVG Version: 6.00 Build 0)  -->
<!DOCTYPE svg PUBLIC "-//W3C//DTD SVG 1.1//EN" "http://www.w3.org/Graphics/SVG/1.1/DTD/svg11.dtd">
<svg version="1.1" id="Layer_1" xmlns="http://www.w3.org/2000/svg" xmlns:xlink="http://www.w3.org/1999/xlink" x="0px" y="0px"
	 width="1024px" height="1024px" viewBox="0 0 1024 1024" enable-background="new 0 0 1024 1024" xml:space="preserve">
<g>
	<rect x="478.438" y="658.428" fill="#414042" width="67.167" height="144.854"/>
	<polygon fill="#414042" points="415.313,746.803 426.521,858.281 462.709,809.906 462.438,709.281 	"/>
	<path fill="#414042" d="M398.959,744.053c-0.271-2.688,0.833-5.354,2.979-7.042l60.5-48.167v-11H337.813l-158.916,22.479
		c-1.5,0.208-2.959,0.75-4.229,1.563l-61.563,39.167c-2.396,1.521-4.083,3.938-4.688,6.688L85.313,851.99
		c-1.166,5.229,1.729,10.5,6.771,12.333c0.625,0.229,15.688,5.625,37.438,5.625c8.646,0,17.146-1.104,25.479-2.792
		c-0.188-1-0.208-2.063,0-3.125l23.146-114.146c0.333-1.563,1.083-2.979,2.208-4.104l29.875-29.625
		c3.146-3.104,8.229-3.083,11.313,0.063c3.125,3.125,3.104,8.188-0.042,11.313l-28.146,27.917l-22.667,111.75
		c-0.083,0.396-0.458,0.604-0.583,0.979c9.354,2.958,24.063,6.354,42.75,6.354c8.833,0,17.771-1.021,26.708-2.541V751.469
		c0-1.771,0.584-3.5,1.667-4.896l22.958-29.625c2.688-3.479,7.709-4.125,11.229-1.438c3.5,2.708,4.125,7.75,1.417,11.229
		l-21.271,27.458v117.333c7.792,1.521,20.084,3.334,34.563,3.334c15.938,0,30.417-2.646,43.813-6.959
		c-0.146-0.541-0.375-1.041-0.416-1.625l-7.209-115.021c-0.063-1.063,0.084-2.125,0.438-3.125l10.084-28.917
		c1.458-4.188,5.979-6.333,10.188-4.938c4.166,1.459,6.375,6.021,4.916,10.188l-9.541,27.396l7.083,113.416
		c0.063,0.896-0.125,1.75-0.354,2.584c6.625,1.563,15.646,3.021,27.104,3.021c11.479,0,23.354-1.813,35.354-4.688
		c-0.084-0.333-0.396-0.521-0.438-0.854L398.959,744.053z"/>
	<polygon fill="#414042" points="561.25,809.803 597.521,858.281 608.729,746.803 561.604,709.281 	"/>
	<path fill="#414042" d="M915.625,747.74c-0.625-2.75-2.313-5.167-4.688-6.688l-61.563-39.167c-1.291-0.813-2.729-1.354-4.229-1.563
		l-158.917-22.479H561.604v11l60.5,48.167c2.125,1.688,3.25,4.354,2.979,7.042l-12.209,121.291
		c-0.021,0.334-0.354,0.521-0.416,0.854c11.979,2.875,23.875,4.688,35.333,4.688c11.479,0,20.479-1.458,27.104-3.021
		c-0.229-0.834-0.417-1.688-0.354-2.584l7.104-113.416l-9.563-27.396c-1.459-4.166,0.75-8.729,4.916-10.188
		c4.209-1.396,8.75,0.75,10.188,4.938l10.084,28.917c0.354,1,0.5,2.063,0.438,3.125L690.5,866.281
		c-0.021,0.584-0.271,1.084-0.416,1.625c13.396,4.313,27.875,6.959,43.833,6.959c14.458,0,26.771-1.813,34.563-3.334V754.198
		l-21.292-27.458c-2.708-3.479-2.063-8.521,1.438-11.229c3.521-2.688,8.521-2.042,11.209,1.438l22.958,29.625
		c1.083,1.396,1.688,3.125,1.688,4.896V871.99c8.938,1.521,17.875,2.541,26.708,2.541c18.688,0,33.396-3.396,42.75-6.354
		c-0.146-0.375-0.521-0.584-0.604-0.979l-22.646-111.75l-28.166-27.917c-3.125-3.125-3.146-8.188-0.042-11.313
		c3.104-3.146,8.167-3.166,11.313-0.063l29.875,29.625c1.125,1.125,1.896,2.542,2.208,4.104l23.146,114.146
		c0.229,1.063,0.208,2.125,0,3.125c8.354,1.688,16.833,2.792,25.5,2.792c21.729,0,36.813-5.396,37.438-5.625
		c5.021-1.833,7.916-7.104,6.771-12.333L915.625,747.74z"/>
	<path fill="#414042" d="M502.771,332.198c1.5,3.458,4.854,7.167,9.729,7.167c2.396,0,6.834-0.938,9.542-7.167
		c0.354-0.792,0.563-1.625,0.625-2.5l2.229-32.833c0.041-1.542-0.125-6.854-3.875-10.709c-4.396-4.521-12.771-4.688-17.292,0
		c-3.771,3.854-3.917,9.167-3.854,11.209l2.271,32.375C502.229,330.573,502.438,331.406,502.771,332.198z"/>
	<path fill="#414042" d="M366.896,550.094l-3.979,16.563l298.75-1.229l-3.354-13.542c-3.229-48.146-47.729-64.958-48.271-64.958
		h-0.021l-49.104-29.334c-0.563-1.875-0.875-3.646-1.188-5.438c-7.708,2.959-22.604,7.271-44.333,7.271
		c-0.709,0-1.438,0-2.167-0.021c-0.729,0.021-1.458,0.021-2.167,0.021c-23.125,0-38.563-4.896-45.75-7.813
		c-0.313,1.958-0.688,3.938-1.313,6l-47.25,28.438C414.854,486.74,369.854,503.469,366.896,550.094z"/>
	<path fill="#414042" d="M621.104,474.594c1.208-4.229,3.292-9.188,7.021-15.083c3.063-4.813,5.188-9.542,6.771-14.167l-58.271,3
		l41.604,24.854v0.021C619.084,473.573,620.167,474.156,621.104,474.594z"/>
	<path fill="#414042" d="M586.729,412.136c-0.958,6.458-2.854,13.417-6.021,19.979l57.208-2.938c0.021,0,0.021,0,0.042,0
		c1.229-21.688-9.438-37.771-10.084-38.667l-20-28.771c0.417,7.666-0.958,16.104-4.229,25.271
		C602.146,391.323,597.146,403.74,586.729,412.136z"/>
	<path fill="#414042" d="M397.084,390.448c-0.667,0.938-11.334,17.021-10.104,38.729l57.271,2.938
		c-3.166-6.542-5.104-13.479-6.041-19.938c-10.042-8.021-15.021-19.729-16.896-25.104c-3.604-10.083-4.563-18.479-4.125-25.563
		L397.084,390.448z"/>
	<path fill="#414042" d="M403.75,474.323c2.063-0.979,4.125-2,6-2.729l38.604-23.229l-58.333-2.979
		c1.604,4.604,3.729,9.313,6.771,14.125C400.459,465.281,402.521,470.156,403.75,474.323z"/>
	<path fill="#414042" d="M437.25,349.823c-5.396,7.667-5.688,18.417-0.875,31.854c1.084,3.125,6.313,16.583,16.979,21.104
		c0.5,9.792,2.958,23.396,11.75,31.563c0.021,0.042,0.021,0.146,0.042,0.188c1.083,0.104,2.166,0.375,3.188,0.938
		c0.333,0.209,16.271,8.479,45.083,7.938c28.958,0.875,44.563-7.854,44.729-7.938c0.5-0.271,1.041-0.313,1.563-0.458
		c0.041-0.208,0.063-0.5,0.104-0.667c8.813-8.146,11.25-21.771,11.771-31.563c10.666-4.5,15.875-17.958,16.938-21
		c4.833-13.541,4.563-24.291-0.854-31.958c-2.646-3.771-6.458-6.563-11.021-8.188c0.938-14.417,1.146-21.75,1.146-21.75
		c0.083-3.479-1.542-6.813-4.354-8.875c-0.688-0.5-13.854-9.896-33.416-13.917c0.666,3.354,0.875,6.438,0.813,8.5l-2.209,25.438
		c-0.229,2.604-0.854,5.146-1.896,7.542c-4.583,10.521-13.646,16.792-24.229,16.792c-10.563,0-19.916-6.438-24.479-16.959
		c-0.938-2.25-1.542-4.646-1.813-7.229l-2.313-25.917c-0.084-2.083,0.146-5.042,0.791-8.208
		c-19.229,3.979-32.521,13.458-33.208,13.958c-2.813,2.063-4.438,5.396-4.333,8.875c0,0,0.208,7.333,1.125,21.75
		C443.729,343.261,439.917,346.053,437.25,349.823z"/>
	<path fill="#414042" d="M561.604,658.428v3.416h124.625h1.125l0.375,0.063l-9.583-23.354c-1.979-28.063-6.792-46.334-10.667-57.146
		l-310.5,1.271c-3.771,10.958-8.292,28.938-10.188,55.875l-9.563,23.291h0.583h124.625v-3.416v-16h16h67.167h16V658.428z"/>
	<path fill="#414042" d="M1018.5,790.865L522.125,153.24c-2.021-2.584-5.125-4.104-8.396-4.104c-0.021,0-0.021,0-0.021,0
		c-3.292,0-6.375,1.5-8.396,4.083L5.542,790.844c-2.521,3.209-2.979,7.584-1.208,11.25c1.791,3.667,5.521,6,9.604,6h64.709
		l14.146-63.833c1.542-6.854,5.792-12.938,11.708-16.708l61.584-39.188c3.208-2.021,6.875-3.375,10.563-3.875l142.25-20.125
		l3.521-8.604l8.604-20.938c1.729-22.229,5.375-41.521,10.833-57.354l3.708-10.75h0.875l0.917-3.813l3.688-15.271
		c2.479-31.083,20.667-52.25,38.521-64.875l-1.146-3.917c-1.021-3.396-2.688-6.916-5.125-10.771
		c-3.458-5.438-6.208-11.167-8.396-17.458l-2.125-6.146c-1.813-11.583-1.771-16.083-1.771-16.083
		c-0.896-26.813,12.396-46.292,12.938-47.063l20.125-28.938l28.667-41.25c1.729-5.125,4.833-9.75,9.354-13.063
		c1.666-1.229,17.063-12.083,39.375-16.688l7.166-1.479c1.021-1.666,2.084-3.313,3.604-4.875c5.104-5.291,12.438-8.333,20.104-8.333
		c7.688,0,15.041,3.042,20.125,8.292c1.563,1.583,2.625,3.291,3.666,4.979l7.125,1.459c22.625,4.646,37.938,15.416,39.646,16.688
		c4.5,3.291,7.604,7.916,9.333,13.063l28.792,41.438l19.916,28.646c0.584,0.813,13.875,20.104,13,47.083
		c0,0,1.875,5.667-1.833,16.125l-2.063,6.063c-2.167,6.313-4.917,12.042-8.396,17.542c-2.5,3.938-4.167,7.5-5.146,10.917
		l-1.125,3.938c16.875,11.938,36.042,33.25,38.792,66.416l3.042,12.229l0.938,3.792h0.583l3.813,10.646
		c5.771,16.104,9.583,35.875,11.375,58.813l8.604,21l3.438,8.667l141.375,19.979c3.729,0.521,7.396,1.875,10.625,3.917
		l61.583,39.167c5.896,3.771,10.167,9.854,11.708,16.729l14.146,63.813h64.688c4.063,0,7.791-2.313,9.583-5.979
		C1021.459,798.448,1021,794.094,1018.5,790.865z"/>
</g>
</svg>
