<?xml version="1.0" encoding="utf-8"?>
<!-- Generator: Adobe Illustrator 16.0.0, SVG Export Plug-In . SVG Version: 6.00 Build 0)  -->
<!DOCTYPE svg PUBLIC "-//W3C//DTD SVG 1.1//EN" "http://www.w3.org/Graphics/SVG/1.1/DTD/svg11.dtd">
<svg version="1.1" id="Layer_1" xmlns="http://www.w3.org/2000/svg" xmlns:xlink="http://www.w3.org/1999/xlink" x="0px" y="0px"
	 width="1024px" height="1024px" viewBox="0 0 1024 1024" enable-background="new 0 0 1024 1024" xml:space="preserve">
<g>
	<path fill="#414042" d="M680.729,901.844l-29.917-13.927c-1.354-0.636-2.791-0.948-4.291-0.948H389.459
		c-1.584,0-3.146,0.375-4.584,1.094l-29.916,15.115c-3.396,1.719-5.563,5.229-5.563,9.063v91.239
		c0,5.614,4.541,10.156,10.146,10.156h316.896c5.604,0,10.146-4.542,10.146-10.156v-92.438
		C686.584,907.104,684.313,903.511,680.729,901.844z"/>
	<path fill="#414042" d="M366.521,258.188c1.354,4.625,3.875,14.365,7.708,33.323l2.313,11.917
		c3.854,19.938,4.604,22.76,15.979,40.729c0.604,3.729,2.563,12.594,8.521,28.698c7.313,19.739,9.125,30.25,9.146,30.354
		l1.146,6.781l6.854-0.438c3.25-0.198,20.334-3.115,37.146-40.74l0.938-2.125l-0.396-2.281c-1.521-8.844-6.125-12.833-9.479-14.583
		l-13.792-19.677c-0.917-9.084-6.125-27.729-18.354-49.719c-8.563-15.396-10.333-24.584-10.666-28.25
		c6.916-8.573,5.271-24.334,4.188-31c2.666-18.604-3.125-24.344-6.125-25.709L398.75,194h-1.916
		c-0.375-0.552-0.792-1.094-1.271-1.646c-3.813-4.261-14.104-8.625-30.875-3.052c-3.438,0.333-12.5,1.979-18.688,9.635
		c-5.125,6.313-6.791,14.719-4.938,24.979C345.667,249.375,351.688,254.761,366.521,258.188z"/>
	<path fill="#414042" d="M437.292,707.553v9.208c-3.896,7.594-4.813,17.396,0.646,25.25l44.604-33.677l70.229-248.854
		l-104.25,127.896l-17.459,74.979l0.188,0.594C429.813,670.542,427.479,690.417,437.292,707.553z"/>
	<polygon fill="#414042" points="556.854,482.365 495.959,698.219 553.875,654.5 	"/>
	<path fill="#414042" d="M595.417,550.813l0.104-0.094c-7.959-15.833-5.188-39.291-5.042-40.364
		c2.042-5.771,1.25-29.063-0.042-47.344c-0.229-0.458-0.479-0.979-0.708-1.417c-2.604-5.114-4.667-9.135-6.104-14.947
		c-2.104-8.511-6.521-14.698-11.25-19.281L567.688,444l-5.354,308.261l16-3.886h1.813c0.104,0.021,0.166-0.072,0.271-0.052
		c0.042,0,0.042,0.031,0.083,0.052l43.917-0.114l-0.042-0.573l2.042-1.75c2.521-2.146,3.813-5.375,3.521-8.666l-6.625-71.604
		c-0.083-0.792-0.229-1.573-0.5-2.323c-4.5-13.25-7.771-31.479-9.063-39.271l-23.354-50.031c-0.979-2.104-0.417-4.583,1.354-6.063
		l4.521-3.708l-2.542-7.896C593.084,554.344,593.75,552.146,595.417,550.813z"/>
	<path fill="#414042" d="M417.292,619.906L425,643.667l13.917-59.739c0.167-0.761,0.5-1.469,1-2.063l119.792-146.948l3.541-12.614
		c0.146-0.531,0.667-0.771,0.938-1.209c-1.375-0.833-2.791-1.76-3.958-2.322l-2.5-6.448L427.438,514.396l-9.625,21.125
		c-0.791,1.75-1.083,3.697-0.813,5.614l8.042,57.625l-7.063,13.229C416.688,614.428,416.438,617.281,417.292,619.906z"/>
	<path fill="#414042" d="M506.459,702.979l-70.042,52.896c-2.25,21.459-4.917,57.823-1.271,89c0.521,2.521,0.896,5.938,1.229,5.834
		c-0.563,0.594-1.021,1.25-1.416,1.947c-0.979,1.74-3.375,6.625-3.479,12.031l-0.438,0.698l30.333-2.896L506.459,702.979z"/>
	<path fill="#414042" d="M571.771,767.761l1.375-7.781l-14.813,3.708c-0.396,0.104-0.792,0.146-1.188,0.146
		c-1.146,0-2.271-0.386-3.167-1.115c-1.229-0.989-1.938-2.479-1.917-4.052l1.584-91.292l-33.771,25.479L476.75,845.375
		l24.313-29.438l9.375-16.76c0.709-1.271,1.938-2.167,3.375-2.479l36.021-7.542L571.771,767.761z"/>
	<path fill="#414042" d="M429.938,299.386l31.229,26.386c0.122,0.116,0.252,0.224,0.38,0.333c1.11,9.88,5.526,18.225,7.224,21.125
		c3.208-5.375,7.021-9.938,9.958-12.989c7.604-7.896,19.833-17.125,29.271-17.125c9.938,0,22.334,7.76,31.688,18.604
		c3.146,3.636,5.917,7.625,8.146,11.771l0.958,2.333c0.917,0.063,1.875,0,2.813-0.198l37.896-3.552l-34.688-15.948
		c0.44-2.189,0.665-4.281,0.714-6.286l36.661-28.266l-42.382,9.757c-1.147-1.604-2.431-3.104-3.815-4.507
		c0.016-0.049,0.037-0.096,0.052-0.146l15.042-46.521l-31.706,35.361c-4.107-1.944-8.106-3.417-11.501-4.496l-9.855-48.511
		l-9.82,48.233c-4.9,1.3-9.202,2.809-12.953,4.489l-31.852-35.077l15.564,46.55c-1.606,1.851-2.919,3.761-3.97,5.707
		L429.938,299.386z"/>
	<path fill="#414042" d="M408.479,130.053c44.875-42.188,5.042-103.386,2.813-82.531C409.146,68.365,387.5,71.136,387.5,71.136
		C394.792,34.323,345.438,1,359.292,12.781c13.896,11.823,12.583,33.031-11.938,60.428c-24.417,27.333,3.979,56.844,3.979,56.844
		H408.479z"/>
	<path fill="#414042" d="M401.875,136.281l-45.313-0.197c-2.833-0.719-5.896,1.344-7.854,3.666
		c-1.938,2.344-2.729,5.417-2.146,8.396l6.917,36.197c4.313-1.771,8.229-2.406,10.458-2.625c4.375-1.666,10.167-2.677,15.542-2.677
		c8.958,0,16.729,2.854,21.417,7.854l4.188,1.771c0.021,0.021,0.063,0.021,0.083,0.042l6.688-40.625
		c0.5-2.938-0.333-5.938-2.271-8.198C407.667,137.604,404.854,136.303,401.875,136.281z"/>
	<path fill="#414042" d="M524.834,804.771l-6.688,1.406l-8.75,15.489l-40.188,48.781c-0.104,0.136-0.334,0.114-0.479,0.25
		c-0.625,0.636-1.375,0.979-2.25,1.198c-0.25,0.072-0.417,0.354-0.688,0.375l-37.917,3.625c-0.146,0.021-0.313,0.021-0.479,0.021
		c-1.021,0-1.875-0.489-2.688-1.031l-2.979,4.469h92.958L524.834,804.771z"/>
	<path fill="#414042" d="M624.917,758.396h-41.146l-2.313,12.75c-0.188,1.052-0.688,2.01-1.438,2.739l-24.167,23.563
		c-0.688,0.677-1.563,1.156-2.5,1.354l-17.958,3.76l-10.438,76.792h106.375L624.917,758.396z"/>
	<path fill="#414042" d="M473.729,407.25c-0.104,0.021-0.188,0.021-0.271,0.021c-1.292,0-2.396-0.969-2.521-2.281
		c-1.166-11.803-2.458-19.563-2.979-22.396c-2-2.021-4.25-5-6.646-8.771c-17.896,38.667-37.125,42.989-42.666,43.323l-13.667,0.875
		l-2.313-13.553c-0.063-0.354-1.917-10.489-8.708-28.781c-1.709,4.906-3.417,10.959-4.334,17.521
		c-2.791,19.854,2.938,35.666,16.188,45.26c0.209,1.053,0.563,2.104,1.084,3.156c1.166,2.417,3.416,5.261,7.708,7.156
		c0.896,3.729,2.333,8.459,4.375,12.781c-0.979,7.459,0.083,18.678,7.896,28.854c0.417,2.281,1.563,5.479,3.188,8.989l123.813-97
		l-0.563-1.427c-1.458-3.802-5.083-6.344-9.146-6.479c-1.78,0.065-3.681,0.329-5.423,0.438c4.582-7.896,7.298-17.434,7.298-27.354
		c0-19.781-23.583-42.844-38.042-42.844c-10.938,0-38.5,23.697-37.771,42.844c0.247,6.416,1.491,12.672,3.551,18.432
		c-0.031-0.007-0.061-0.019-0.093-0.025c0.625,4.125,1.479,10.25,2.292,18.479C476.125,405.886,475.104,407.115,473.729,407.25z"/>
	<path fill="#414042" d="M665.479,514.719c-1.25-1.531-5.271-5.396-9.208-5.396c-0.125,0-0.25,0-0.354,0
		c-2.438,0.156-4.729,1.886-6.792,5.136c-0.416,0.656-1.104,1.114-1.875,1.25c-0.729,0.135-7.458,1.708-7.813,11.406
		c-0.041,0.771-0.396,1.51-0.979,2.021c-0.063,0.042-4.792,4.073-4.938,9.469c-0.084,3.313,1.625,6.604,5.021,9.771
		c3.521,2.584,8.896,9.25,9.063,18.406c12.583-7.614,20.375-16.76,22.667-27.469c2.166-10.229-1.063-18.885-4.042-24.219
		C665.979,514.959,665.688,514.959,665.479,514.719z"/>
	<path fill="#414042" d="M606.313,549.011c1.563,2.208,1.125,5.239-0.979,6.927l-0.854,0.667l2.542,7.823
		c0.625,1.979,0,4.166-1.625,5.489l-4.146,3.417l18.313,39.208c8.5-15.823,18.021-33.739,22.084-41.438
		c2.271-11.521-6.188-18.208-6.604-18.5c-4.875-4.5-7.167-9.229-7.021-14.208c0.166-6.167,4.146-10.803,5.979-12.646
		c0.792-9.666,6.979-13.947,11.104-15.177c2.938-4.25,6.479-6.511,10.5-6.739c0.229,0,0.438-0.021,0.667-0.021
		c5.416,0,9.958,3.803,12.125,5.99L674.542,495c1.104-2.635,1.042-5.594-0.146-8.166c-1.188-2.584-3.417-4.542-6.125-5.417
		l-57.417-18.406c-3.646-1.156-7.479-0.104-10.083,2.396c1,14.917,2.208,40.073-0.5,47.323
		C600.396,512.729,597.75,536.969,606.313,549.011z"/>
</g>
</svg>
