<?xml version="1.0" encoding="utf-8"?>
<!-- Generator: Adobe Illustrator 16.0.0, SVG Export Plug-In . SVG Version: 6.00 Build 0)  -->
<!DOCTYPE svg PUBLIC "-//W3C//DTD SVG 1.1//EN" "http://www.w3.org/Graphics/SVG/1.1/DTD/svg11.dtd">
<svg version="1.1" id="Layer_1" xmlns="http://www.w3.org/2000/svg" xmlns:xlink="http://www.w3.org/1999/xlink" x="0px" y="0px"
	 width="1024px" height="1024px" viewBox="0 0 1024 1024" enable-background="new 0 0 1024 1024" xml:space="preserve">
<g>
	<path fill="#414042" d="M442.854,692.417c12.917-38.042,26.292-77.375,34.188-115.833c1.021-4.959,5.396-8.542,10.458-8.542h50
		c5.042,0,9.396,3.542,10.438,8.5c12.792,60.875,28.979,104.375,40.813,136.125l4.459,12.083h70.229l-13.541-26.583
		c-29.125-66.042-44.938-121.708-50.167-141.625l-3.125-14.667c-0.542,0.084-1.042,0.292-1.604,0.292H432.167
		c-1.625,0-3.104-0.417-4.479-1.042l-3.104,14.75c-12.042,48.834-29.479,97.834-50.229,141.292l-13.917,27.583H432
		C435.5,714.125,439.125,703.334,442.854,692.417z"/>
	<path fill="#414042" d="M680.792,971.542h110.583c8.479,0,16.167-5,19.563-12.792c3.375-7.791,1.834-16.833-3.938-23.041
		c-45.104-48.584-85.021-103.042-118.188-161.125l-14.854-29.167c-1.084,0.375-2.209,0.667-3.417,0.667H351.667
		c-0.646,0-1.208-0.25-1.813-0.375l-13.958,27.666C302.188,832.417,262.188,887.042,217,935.709
		c-5.771,6.208-7.313,15.25-3.938,23.041c3.396,7.792,11.084,12.792,19.563,12.792h110.584c10.625,0,19.625-7.792,21.125-18.292
		c0.688-4.833,18.416-118.541,147.354-123.75c128.625,5.167,147.271,118.959,147.979,123.75
		C661.167,963.75,670.167,971.542,680.792,971.542z"/>
	<path fill="#414042" d="M496.125,589.375c-8.291,36.959-20.875,74-33.083,109.917c-2.917,8.583-5.729,17.042-8.521,25.458h115.958
		l-1.729-4.666c-11.5-30.875-27.083-72.667-39.875-130.709H496.125z"/>
	<path fill="#414042" d="M592.125,520.834l-5.375-25.209c-22.25-117.291-29.604-289-31.708-355.875h-89.563
		c-1.104,66.875-5.958,238.5-28.146,355.459l-5.396,25.666c0.084,0,0.146-0.041,0.229-0.041H592.125z M500.417,418.042
		c0-5.875,4.771-10.667,10.667-10.667c5.896,0,10.666,4.792,10.666,10.667v69c0,5.917-4.771,10.667-10.666,10.667
		c-5.896,0-10.667-4.75-10.667-10.667V418.042z"/>
	<path fill="#414042" d="M476.459,123.625h67.625c5.896,0,10.666-4.75,10.666-10.666c0-5.875-4.771-10.667-10.666-10.667h-67.625
		c-5.896,0-10.667,4.792-10.667,10.667C465.792,118.875,470.563,123.625,476.459,123.625z"/>
	<path fill="#414042" d="M494.709,95.125h31.125c5.896,0,10.666-4.75,10.666-10.666c0-5.875-4.771-10.667-10.666-10.667h-31.125
		c-5.896,0-10.667,4.792-10.667,10.667C484.042,90.375,488.813,95.125,494.709,95.125z"/>
	<path fill="#414042" d="M510.292,68.459c5.896,0,10.667-4.75,10.667-10.667V18.875c0-5.875-4.771-10.666-10.667-10.666
		S499.625,13,499.625,18.875v38.917C499.625,63.709,504.396,68.459,510.292,68.459z"/>
	<path fill="#414042" d="M211.292,994.459c0,11.791,9.542,21.333,21.333,21.333h110.209c11.791,0,21.333-9.542,21.333-21.333v-1.584
		H211.292V994.459z"/>
	<path fill="#414042" d="M659.292,994.459c0,11.791,9.542,21.333,21.333,21.333h110.209c11.791,0,21.333-9.542,21.333-21.333v-1.584
		H659.292V994.459z"/>
</g>
</svg>
