<?xml version="1.0" encoding="utf-8"?>
<!-- Generator: Adobe Illustrator 16.0.0, SVG Export Plug-In . SVG Version: 6.00 Build 0)  -->
<!DOCTYPE svg PUBLIC "-//W3C//DTD SVG 1.1//EN" "http://www.w3.org/Graphics/SVG/1.1/DTD/svg11.dtd">
<svg version="1.1" id="Layer_1" xmlns="http://www.w3.org/2000/svg" xmlns:xlink="http://www.w3.org/1999/xlink" x="0px" y="0px"
	 width="1024px" height="1024px" viewBox="0 0 1024 1024" enable-background="new 0 0 1024 1024" xml:space="preserve">
<path fill="#414042" d="M951.5,435.656c0.229-35.854-21.75-62.354-52.583-63.021l-5.212,0.062
	c3.854-7.248,11.677-25.056,6.504-41.333c-3.042-9.542-10.084-16.896-20.375-21.292c-24.084-10.25-103.896-26.542-153.084-26.542
	c-24.541,0-39.291,3.854-46.375,12.167c-15.353,18.042-17.751,35.334-17.746,44.396h-10.767l-0.987-44.666
	c-0.041-1.229-0.333-2.479-0.813-3.604c-5.188-11.688-21.938-16.875-54.375-16.875c-33.125,0-72.333,5.479-82.521,7.042
	c-12.188-4.292-28.208-6.438-47.708-6.438c-43.438,0-90.063,10.438-92.042,10.875c-3.021,0.688-5.542,2.854-6.667,5.729
	c-0.479,1.146-10.729,27.792,6.979,50.396l0.362,1.583h-15.216c-1.459,0-2.893,0.061-4.306,0.165
	c0.435-9.659-0.582-23.876-4.11-44.936c-0.417-2.5-1.834-4.729-3.917-6.188c-2.125-1.479-4.771-2.042-7.208-1.5
	c-0.792,0.146-1.979,0.438-3.563,0.854c-6.834,1.771-21.063,5.438-40.979,5.438c-11.479,0-23.104-1.25-34.542-3.729
	c-5.5-1.188-11.563-1.771-17.979-1.771c-41.396,0-90.104,24.709-100.188,30.063c-8.792,1.354-15.542,8.959-15.542,18.125v28.438
	c0,1.272,0.131,2.514,0.378,3.714l-2.295-0.172c-2.635,0-5.212,0.244-7.722,0.688c0.019-0.228,0.034-0.456,0.034-0.688v-32.771
	c0-2.334-1-4.563-2.708-6.125s-4.063-2.271-6.375-2.125l-30.417,2.25c-1.208,0-5.458,0.313-8.979,4.354
	c-3.896,4.396-5.167,11.229-3.938,20.813c0.79,5.922,7.265,34.232,20.387,38.405c-2.526,5.146-4.088,10.845-4.429,16.867
	c-3.979,9.25-15.125,42.479,3.896,91.916c15.646,40.729-14.958,141.479-28.083,176.875c-0.438,1.188-0.667,2.438-0.667,3.709
	c0,24.396,19.834,44.25,43.959,44.25l64.166,1.458c0.084,0,0.167,0,0.25,0c23.709,0,43.104-18.708,44.209-42.104
	c8.938-25.583,1.771-83.938,0.146-96.083c12.417-83.833-1.229-172.458-1.688-174.563c0-15.39-7.894-28.97-19.641-36.896
	l129.915-14.354c-1.797,4.233-2.755,8.835-2.712,13.668c-0.146,0.791-15.604,80.729-20.208,163.813l-1.938,33.166
	c-3.542,58.959-5.146,85.875,1.916,125.646c0,24.396,19.834,44.25,44.209,44.25c0.188,0,0.375,0,0.541-0.021l86.709-4.479
	c24.354,0,44.166-19.834,44.166-44.521l-9.5-315.813c0-10.289-3.402-19.222-9.362-26.029c3.256,0.005,6.594,0.008,10.029,0.008
	c28.368,0,65.589-0.201,105.959-0.981c-5.786,7.415-9.238,16.675-9.229,26.648l-14.729,313.604c0,24.396,19.854,44.25,44.25,44.25
	h106.25c23.875,0,43.396-19.063,44.188-42.771c2.375-10.083-0.146-23.854-3.542-42.583c-4.291-23.479-9.625-52.709-5.166-79.563
	c8.438-50.459-12.75-188.229-13.521-192.438c0-6.091-1.235-11.897-3.466-17.183l130.059,18.655
	c-21.641,8.176-46.718,23.346-46.718,36.132c0,0-12.166,21.667-1.875,71c10.292,49.375,4.209,53.5-14.333,96.729
	c-18.542,43.146,0,93.438,0,93.438c0.542,14.75,19.958,21.896,41.208,25.354c-27.625-76.167-10.291-121.5-10.291-121.5
	c26.229-55.104,10.75-104,10.75-104c-6.03-59.196,15.266-84.987,30.807-95.784l2.526,0.363c-6.552,7.195-10.81,16.478-11.396,26.817
	c-3.354,7.833-10.834,31.813-1.667,75.75c8.354,40.292,5.583,46.563-7.729,76.604l-6.021,13.688
	c-18.188,42.416-4.104,89.791-0.813,99.625c1,23.521,20.458,42.333,44.208,42.333c0.417,0,0.834-0.021,1.25-0.063l53.584-6.354
	c24.666,0,43.083-28.063,43.063-53.958L951.5,435.656z"/>
</svg>
