<?xml version="1.0" encoding="utf-8"?>
<!-- Generator: Adobe Illustrator 16.0.0, SVG Export Plug-In . SVG Version: 6.00 Build 0)  -->
<!DOCTYPE svg PUBLIC "-//W3C//DTD SVG 1.1//EN" "http://www.w3.org/Graphics/SVG/1.1/DTD/svg11.dtd">
<svg version="1.1" id="Layer_1" xmlns="http://www.w3.org/2000/svg" xmlns:xlink="http://www.w3.org/1999/xlink" x="0px" y="0px"
	 width="48px" height="48px" viewBox="0 0 48 48" enable-background="new 0 0 48 48" xml:space="preserve">
<path fill="#414042" d="M37.956,3.116h-1.859H13.362c-0.062,0-0.123,0.011-0.181,0.034c-3.789,1.465-3.66,6.11-3.653,6.289v34.269
	c0,0.202,0.122,0.385,0.309,0.462c0.187,0.076,0.401,0.034,0.545-0.108l11.004-11.012l11.014,11.627
	c0.097,0.102,0.229,0.156,0.363,0.156c0.063,0,0.125-0.012,0.186-0.035c0.189-0.076,0.314-0.26,0.314-0.465V9.419
	c-0.002-0.041-0.111-4.057,2.943-5.304h1.75c0.276,0,0.5-0.224,0.5-0.5S38.232,3.116,37.956,3.116z M32.263,9.438v33.639
	L21.759,31.988c-0.093-0.098-0.222-0.154-0.356-0.156c-0.002,0-0.005,0-0.007,0c-0.133,0-0.26,0.053-0.354,0.146L10.528,42.499
	V9.419c-0.002-0.041-0.114-4.053,2.93-5.304h20.867C32.167,6.043,32.257,9.29,32.263,9.438z"/>
</svg>
