<?xml version="1.0" encoding="utf-8"?>
<!-- Generator: Adobe Illustrator 16.0.0, SVG Export Plug-In . SVG Version: 6.00 Build 0)  -->
<!DOCTYPE svg PUBLIC "-//W3C//DTD SVG 1.1//EN" "http://www.w3.org/Graphics/SVG/1.1/DTD/svg11.dtd">
<svg version="1.1" id="Layer_1" xmlns="http://www.w3.org/2000/svg" xmlns:xlink="http://www.w3.org/1999/xlink" x="0px" y="0px"
	 width="48px" height="48px" viewBox="0 0 48 48" enable-background="new 0 0 48 48" xml:space="preserve">
<g>
	<path fill="#414042" d="M41.651,7.676H6.831V4.452c0-1.602,1.303-2.904,2.904-2.904h31.916c0.276,0,0.5-0.224,0.5-0.5
		s-0.224-0.5-0.5-0.5H9.735c-2.153,0-3.904,1.751-3.904,3.904v3.725V46.9c0,0.276,0.224,0.5,0.5,0.5h35.32
		c0.276,0,0.5-0.224,0.5-0.5V8.176C42.151,7.9,41.928,7.676,41.651,7.676z M41.151,46.4H6.831V8.676h34.32V46.4z"/>
	<path fill="#414042" d="M19.091,30.715l-1.979,7.505c-0.054,0.205,0.027,0.423,0.202,0.542c0.085,0.058,0.184,0.086,0.281,0.086
		c0.104,0,0.209,0.004,0.297-0.063l6.3-4.61l6.367,4.59C30.646,38.827,30.747,39,30.849,39c0.007,0,0.015,0,0.02,0
		c0.276,0,0.5-0.366,0.5-0.644c0-0.096-0.027-0.329-0.074-0.406l-2.081-7.352l5.914-4.642c0.167-0.131,0.232-0.353,0.165-0.553
		c-0.067-0.201-0.254-0.337-0.466-0.341l-7.52-0.122l-2.822-7.24c-0.075-0.193-0.249-0.28-0.471-0.318
		c-0.207,0.002-0.393,0.132-0.464,0.327l-2.695,7.303l-7.499,0.271c-0.212,0.008-0.396,0.148-0.459,0.35
		c-0.063,0.202,0.007,0.423,0.176,0.55L19.091,30.715z M21.225,26c0.203-0.008,0.381-0.137,0.451-0.327l2.355-6.381l2.466,6.325
		c0.074,0.189,0.255,0.315,0.458,0.318L33.4,26.04l-5.068,3.979c-0.159,0.125-0.228,0.335-0.173,0.529l1.822,6.438l-5.506-3.908
		c-0.175-0.125-0.413-0.122-0.586,0.006l-5.448,4.02l1.702-6.457c0.052-0.197-0.021-0.405-0.183-0.527L14.8,26.232L21.225,26z"/>
</g>
</svg>
