<?xml version="1.0" encoding="utf-8"?>
<!-- Generator: Adobe Illustrator 16.0.0, SVG Export Plug-In . SVG Version: 6.00 Build 0)  -->
<!DOCTYPE svg PUBLIC "-//W3C//DTD SVG 1.1//EN" "http://www.w3.org/Graphics/SVG/1.1/DTD/svg11.dtd">
<svg version="1.1" id="Layer_1" xmlns="http://www.w3.org/2000/svg" xmlns:xlink="http://www.w3.org/1999/xlink" x="0px" y="0px"
	 width="48px" height="48px" viewBox="0 0 48 48" enable-background="new 0 0 48 48" xml:space="preserve">
<path fill="#414042" d="M41.651,7.675H6.831V4.452c0-1.602,1.303-2.904,2.904-2.904h31.916c0.276,0,0.5-0.224,0.5-0.5
	s-0.224-0.5-0.5-0.5H9.735c-2.153,0-3.904,1.751-3.904,3.904v3.724V46.9c0,0.276,0.224,0.5,0.5,0.5h35.32c0.276,0,0.5-0.224,0.5-0.5
	V8.175C42.151,7.899,41.928,7.675,41.651,7.675z M22.379,8.675h10.37v17.939l-4.778-6.725c-0.188-0.264-0.627-0.264-0.814,0
	l-4.777,6.725V8.675z M41.151,46.4H6.831V8.675h14.548v19.506c0,0.218,0.141,0.41,0.348,0.477c0.21,0.065,0.435-0.01,0.56-0.187
	l5.277-7.429l5.278,7.429c0.095,0.134,0.248,0.21,0.407,0.21c0.051,0,0.102-0.008,0.152-0.023c0.207-0.066,0.348-0.259,0.348-0.477
	V8.675h7.402V46.4z"/>
</svg>
