<?xml version="1.0" encoding="utf-8"?>
<!-- Generator: Adobe Illustrator 16.0.0, SVG Export Plug-In . SVG Version: 6.00 Build 0)  -->
<!DOCTYPE svg PUBLIC "-//W3C//DTD SVG 1.1//EN" "http://www.w3.org/Graphics/SVG/1.1/DTD/svg11.dtd">
<svg version="1.1" id="Layer_1" xmlns="http://www.w3.org/2000/svg" xmlns:xlink="http://www.w3.org/1999/xlink" x="0px" y="0px"
	 width="48px" height="48px" viewBox="0 0 48 48" enable-background="new 0 0 48 48" xml:space="preserve">
<g>
	<path fill="#414042" d="M31.413,11.279c-0.569-0.431-1.246-0.658-1.959-0.658c-1.028,0-1.974,0.471-2.594,1.291
		c-1.079,1.43-0.795,3.472,0.633,4.553c0.569,0.43,1.247,0.657,1.958,0.657c1.029,0,1.976-0.47,2.597-1.29
		c0.523-0.693,0.745-1.548,0.626-2.408C32.554,12.564,32.105,11.803,31.413,11.279z M31.25,15.229
		c-0.727,0.958-2.189,1.167-3.153,0.438c-0.988-0.749-1.186-2.163-0.438-3.153c0.429-0.568,1.083-0.894,1.795-0.894
		c0.493,0,0.962,0.158,1.355,0.456c0.48,0.363,0.79,0.89,0.873,1.485C31.766,14.157,31.612,14.75,31.25,15.229z"/>
	<path fill="#414042" d="M43.486,4.753c-0.012-0.142-0.083-0.271-0.196-0.357c-0.114-0.086-0.256-0.118-0.397-0.092l-5.317,1.034
		l-0.089-1.054c-0.012-0.142-0.083-0.271-0.196-0.357c-0.114-0.086-0.256-0.118-0.397-0.092L20.191,7.084
		c-0.121,0.023-0.229,0.091-0.303,0.189L3.006,29.611c-0.1,0.131-0.128,0.302-0.076,0.458c0.051,0.155,0.175,0.276,0.332,0.323
		l11.449,3.411l6.41,10.086c0.088,0.138,0.238,0.225,0.401,0.231c0.007,0,0.014,0,0.021,0c0.156,0,0.305-0.073,0.398-0.198
		l2.663-3.524l2.517,3.96c0.088,0.138,0.238,0.225,0.401,0.231c0.007,0,0.014,0,0.021,0c0.156,0,0.305-0.073,0.398-0.198
		l16.881-22.339c0.075-0.099,0.11-0.221,0.1-0.344L43.486,4.753z M21.578,42.745l-6.123-9.636c-0.064-0.102-0.164-0.176-0.279-0.211
		L4.237,29.64L20.57,8.029l15.967-3.105l1.372,16.21L21.578,42.745z M27.578,43.214l-2.33-3.666l13.574-17.964
		c0.075-0.099,0.11-0.221,0.1-0.344L37.66,6.341l4.877-0.948l1.372,16.21L27.578,43.214z"/>
</g>
</svg>
