<?xml version="1.0" encoding="utf-8"?>
<!-- Generator: Adobe Illustrator 16.0.0, SVG Export Plug-In . SVG Version: 6.00 Build 0)  -->
<!DOCTYPE svg PUBLIC "-//W3C//DTD SVG 1.1//EN" "http://www.w3.org/Graphics/SVG/1.1/DTD/svg11.dtd">
<svg version="1.1" id="Layer_1" xmlns="http://www.w3.org/2000/svg" xmlns:xlink="http://www.w3.org/1999/xlink" x="0px" y="0px"
	 width="48px" height="48px" viewBox="0 0 48 48" enable-background="new 0 0 48 48" xml:space="preserve">
<g>
	<path fill="#414042" d="M40.564,4.285c-0.012-0.142-0.083-0.271-0.196-0.357c-0.114-0.086-0.257-0.118-0.397-0.092L23.268,7.084
		c-0.121,0.023-0.229,0.091-0.303,0.189L6.082,29.611c-0.081,0.106-0.115,0.24-0.097,0.372s0.09,0.251,0.196,0.331l8.937,6.656
		l9.197,7.047c0.087,0.067,0.194,0.104,0.304,0.104c0.022,0,0.045-0.002,0.067-0.005c0.132-0.018,0.251-0.087,0.331-0.193
		L41.9,21.584c0.075-0.099,0.11-0.221,0.1-0.344L40.564,4.285z M24.523,42.918l-8.803-6.745l-8.538-6.36L23.646,8.029l15.969-3.105
		l1.372,16.21L24.523,42.918z"/>
	<path fill="#414042" d="M34.491,11.705c-0.569-0.431-1.246-0.658-1.959-0.658c-1.028,0-1.974,0.471-2.593,1.291
		c-0.523,0.692-0.746,1.547-0.627,2.408c0.12,0.86,0.566,1.623,1.259,2.146c0.569,0.43,1.247,0.657,1.958,0.657
		c1.029,0,1.975-0.47,2.595-1.29C36.203,14.828,35.92,12.786,34.491,11.705z M34.325,15.655c-0.723,0.959-2.187,1.167-3.15,0.438
		c-0.479-0.362-0.789-0.89-0.872-1.485c-0.082-0.596,0.071-1.188,0.435-1.667c0.429-0.568,1.083-0.894,1.795-0.894
		c0.493,0,0.962,0.158,1.355,0.456C34.877,13.251,35.073,14.665,34.325,15.655z"/>
</g>
</svg>
