<?xml version="1.0" encoding="utf-8"?>
<!-- Generator: Adobe Illustrator 16.0.0, SVG Export Plug-In . SVG Version: 6.00 Build 0)  -->
<!DOCTYPE svg PUBLIC "-//W3C//DTD SVG 1.1//EN" "http://www.w3.org/Graphics/SVG/1.1/DTD/svg11.dtd">
<svg version="1.1" id="Layer_1" xmlns="http://www.w3.org/2000/svg" xmlns:xlink="http://www.w3.org/1999/xlink" x="0px" y="0px"
	 width="48px" height="48px" viewBox="0 0 48 48" enable-background="new 0 0 48 48" xml:space="preserve">
<g>
	<path fill="#414042" d="M33.588,11.765c-0.568-0.429-1.244-0.656-1.955-0.656c-1.03,0-1.977,0.471-2.596,1.293
		c-0.522,0.693-0.744,1.549-0.624,2.41c0.121,0.86,0.569,1.622,1.263,2.145c0.568,0.428,1.243,0.654,1.953,0.654
		c1.031,0,1.979-0.471,2.598-1.293c0.522-0.693,0.744-1.549,0.623-2.409C34.729,13.048,34.28,12.287,33.588,11.765z M33.428,15.715
		c-0.723,0.959-2.184,1.171-3.15,0.442c-0.479-0.362-0.79-0.889-0.874-1.485c-0.083-0.596,0.07-1.188,0.433-1.668
		c0.429-0.569,1.084-0.895,1.797-0.895c0.491,0,0.959,0.157,1.353,0.455c0.479,0.362,0.79,0.889,0.874,1.483
		C33.943,14.642,33.79,15.234,33.428,15.715z"/>
	<path fill="#414042" d="M40.7,7.922l-5.382-4.056c-1.486-1.12-3.253-1.711-5.108-1.711c-2.697,0-5.174,1.234-6.795,3.385
		L3.998,31.307c-0.166,0.221-0.122,0.534,0.099,0.7l18.159,13.686c0.087,0.065,0.192,0.101,0.301,0.101
		c0.023,0,0.047-0.002,0.069-0.005c0.132-0.019,0.25-0.088,0.33-0.194l19.417-25.768C45.193,16.083,44.443,10.743,40.7,7.922z
		 M41.574,19.225L22.458,44.593L5.098,31.509L24.214,6.142c1.43-1.898,3.615-2.987,5.996-2.987c1.637,0,3.195,0.522,4.507,1.51
		l5.382,4.056C43.401,11.209,44.063,15.921,41.574,19.225z"/>
</g>
</svg>
