<?xml version="1.0" encoding="utf-8"?>
<!-- Generator: Adobe Illustrator 16.0.0, SVG Export Plug-In . SVG Version: 6.00 Build 0)  -->
<!DOCTYPE svg PUBLIC "-//W3C//DTD SVG 1.1//EN" "http://www.w3.org/Graphics/SVG/1.1/DTD/svg11.dtd">
<svg version="1.1" id="Layer_1" xmlns="http://www.w3.org/2000/svg" xmlns:xlink="http://www.w3.org/1999/xlink" x="0px" y="0px"
	 width="48px" height="48px" viewBox="0 0 48 48" enable-background="new 0 0 48 48" xml:space="preserve">
<g>
	<path fill="#414042" d="M27.858,30.62H19.94c-1.311,0-2.615,0.581-3.402,1.517c-0.65,0.771-0.915,1.738-0.746,2.715l0.545,3.505
		c0.425,2.627,1.898,4.074,4.148,4.074h6.777c2.518,0,3.528-2.139,4.146-4.07l0.603-3.586C32.011,32.29,30.342,30.62,27.858,30.62z
		 M30.439,38.123c-0.757,2.35-1.677,3.308-3.177,3.308h-6.777c-1.75,0-2.813-1.088-3.16-3.231l-0.546-3.51
		c-0.152-0.883,0.201-1.525,0.524-1.909c0.603-0.716,1.614-1.16,2.638-1.16h7.918c1.915,0,3.152,1.238,3.159,3.07L30.439,38.123z"/>
	<path fill="#414042" d="M44.692,29.542c-0.002-0.008-0.008-0.013-0.011-0.02c-0.098-0.771-0.502-1.381-1.203-1.729
		c-0.772-0.385-1.795-0.393-2.568-0.078c-0.597-2.603-1.445-5.799-2.647-9.708c-1.441-5.809-4.28-9.51-8.455-11.077
		c0.345-1.396,0.139-2.712-0.61-3.742c-0.685-0.94-1.732-1.502-2.803-1.502h-4.535c-1.173,0-2.41,0.683-3.151,1.741
		c-0.695,0.99-0.891,2.192-0.575,3.428c-4.278,1.524-7.176,5.249-8.634,11.126c-1.202,3.905-2.05,7.102-2.648,9.705
		c-0.766-0.288-1.757-0.267-2.505,0.107c-0.702,0.349-1.105,0.958-1.204,1.729c-0.003,0.007-0.008,0.012-0.011,0.02
		c-0.231,0.779-2.19,7.675,0.083,9.843c0.454,0.434,1.027,0.65,1.712,0.65c0.311,0,0.653-0.062,1.009-0.151
		c1.722,6.47,6.699,7.069,11.318,7.069h13.247c4.622,0,9.604-0.601,11.321-7.087c0.38,0.101,0.744,0.169,1.073,0.169
		c0.686,0,1.259-0.217,1.713-0.65C46.883,37.217,44.923,30.321,44.692,29.542z M19.526,4.001c0.552-0.787,1.489-1.315,2.333-1.315
		h4.535c0.74,0,1.505,0.418,1.993,1.09c0.557,0.765,0.696,1.763,0.45,2.837c-1.264-0.359-2.633-0.55-4.119-0.55h-1.685
		c-1.417,0-2.728,0.172-3.942,0.498C18.805,5.394,19.153,4.534,19.526,4.001z M10.463,18.249c1.868-7.526,5.98-11.185,12.571-11.185
		h1.685c6.593,0,10.705,3.659,12.581,11.211c0.793,2.577,1.427,4.835,1.938,6.82h-5.249c-0.12-2.975-1.29-5.781-3.275-7.76
		c-1.857-1.852-4.236-2.795-6.838-2.816c-5.627,0.019-9.892,4.533-10.113,10.576H8.518C9.031,23.103,9.667,20.836,10.463,18.249z
		 M32.988,25.095H14.761c0.219-5.476,4.057-9.56,9.116-9.576c0.01,0,0.021,0,0.03,0c2.333,0,4.442,0.873,6.099,2.524
		C31.806,19.836,32.869,22.385,32.988,25.095z M5.546,38.017c0,0.001,0.001,0.001,0.001,0.002c0.046,0.314,0.108,0.599,0.167,0.891
		c-0.801,0.206-1.404,0.137-1.808-0.248c-1.186-1.13-0.792-4.533-0.281-6.954c0.121,0.184,0.266,0.361,0.449,0.519
		c0.459,0.395,1.058,0.602,1.774,0.636C5.289,36.571,5.526,37.919,5.546,38.017z M4.726,31.468
		c-0.484-0.417-0.595-1.092-0.618-1.456c-0.04-0.632,0.19-1.077,0.684-1.323c0.58-0.288,1.36-0.224,1.834,0.009
		c-0.259,1.189-0.462,2.243-0.62,3.171C5.465,31.858,5.032,31.73,4.726,31.468z M41.228,37.824c-0.001,0.004,0.001,0.008,0,0.012
		s-0.003,0.007-0.004,0.011c-1.086,7.486-5.691,8.106-10.722,8.106H17.255c-5.032,0-9.639-0.62-10.724-8.105
		c0-0.004-0.003-0.007-0.003-0.01c-0.001-0.005,0.001-0.009,0-0.013c-0.006-0.033-0.463-2.854,1.738-11.73h5.975h0h25.25
		C41.681,34.927,41.238,37.764,41.228,37.824z M41.749,31.867c-0.155-0.918-0.356-1.961-0.612-3.137
		c0.463-0.26,1.291-0.343,1.896-0.042c0.494,0.246,0.725,0.691,0.685,1.323c-0.023,0.364-0.134,1.039-0.618,1.456
		C42.778,31.742,42.321,31.868,41.749,31.867z M43.919,38.661c-0.416,0.396-1.04,0.458-1.874,0.23
		c0.059-0.296,0.123-0.582,0.169-0.9c0-0.001,0-0.001,0-0.001c0.037-0.22,0.223-1.613-0.305-5.124
		c0.747-0.023,1.368-0.233,1.842-0.641c0.184-0.157,0.328-0.335,0.449-0.519C44.711,34.127,45.105,37.529,43.919,38.661z"/>
</g>
</svg>
