<?xml version="1.0" encoding="utf-8"?>
<!-- Generator: Adobe Illustrator 16.0.0, SVG Export Plug-In . SVG Version: 6.00 Build 0)  -->
<!DOCTYPE svg PUBLIC "-//W3C//DTD SVG 1.1//EN" "http://www.w3.org/Graphics/SVG/1.1/DTD/svg11.dtd">
<svg version="1.1" id="Layer_1" xmlns="http://www.w3.org/2000/svg" xmlns:xlink="http://www.w3.org/1999/xlink" x="0px" y="0px"
	 width="48px" height="48px" viewBox="0 0 48 48" enable-background="new 0 0 48 48" xml:space="preserve">
<path fill="#414042" d="M47.104,33.072V10.656c0-0.159-0.076-0.309-0.204-0.403c-0.064-0.047-1.411-0.998-3.276,0.031l0.001-0.8
	c0-1.036-1.047-1.848-2.327-1.848c-0.003,0-0.006,0-0.009,0c-0.033-0.004-0.843-0.098-2.156-0.098
	c-2.771,0-8.107,0.432-12.721,3.322c-0.019,0.011-1.39,0.831-2.168,1.57c-0.601-0.62-1.625-1.253-2.212-1.563
	c-4.625-2.896-9.962-3.329-12.732-3.329c-1.313,0-2.123,0.094-2.098,0.094c-1.343,0-2.395,0.813-2.395,1.852v0.842
	C2.969,9.138,1.621,9.97,1.556,10.011c-0.143,0.092-0.229,0.25-0.229,0.42v23.994c0,1.159,0.936,1.852,2.522,1.852
	c0,0,0.001,0,0.001,0c0.092-0.008,9.283-0.323,17.678,3.768l1.782,0.813c0.214,0.119,0.578,0.247,0.967,0.247
	c0.273,0,0.559-0.063,0.815-0.234l2.238-1.1c7.727-3.134,14.447-3.337,16.055-3.337c0.283,0,0.357,0.005,0.373,0.005
	c1.359,0,2.205-0.259,2.742-0.839C47.006,35.054,47.197,34.238,47.104,33.072z M21.956,39.141
	c-8.608-4.195-18.051-3.865-18.125-3.863c-0.686,0-1.504-0.147-1.504-0.852V10.759c0.407-0.124,1.312-0.191,2.48,0.828V30.75
	c0,0.491-0.001,1.163,0.473,1.639c0.331,0.331,0.812,0.492,1.47,0.492c0.024,0,0.101-0.002,0.125-0.006
	c0.019,0,7.564-1.068,16.444,6.889L21.956,39.141z M23.716,13.446v25.327c-7.101-6.241-13.387-6.951-15.822-6.951
	c-0.72,0-1.134,0.06-1.145,0.06c-0.257,0-0.598-0.034-0.762-0.199c-0.182-0.182-0.181-0.563-0.181-0.984V9.484
	c0-0.403,0.573-0.852,1.453-0.855C7.268,8.628,8.05,8.539,9.299,8.539c2.663,0,7.789,0.413,12.233,3.194
	c1.122,0.594,2.023,1.339,2.184,1.609V13.446z M24.716,13.446v-0.072c0.239-0.314,1.331-1.136,2.216-1.659
	c4.412-2.764,9.538-3.176,12.201-3.176c1.249,0,2.031,0.09,2.098,0.094c0.822,0,1.395,0.449,1.395,0.852l0.005,22.494l-0.024,0.19
	c-0.055,0.443-0.061,0.489-1.097,0.502c-0.002,0-9.519-0.627-16.793,6.04V13.446z M45.766,34.921
	c-0.327,0.354-0.967,0.519-1.992,0.519c-0.002,0-0.003,0-0.005,0c-0.312-0.004-7.783-0.257-16.846,3.42l-1.868,0.92
	c5.894-5.659,13.525-6.124,15.773-6.124c0.389,0,0.607,0.013,0.653,0.015c1.678-0.018,1.998-0.421,2.116-1.378l0.025-20.806
	c1.186-0.884,2.095-0.694,2.481-0.533l0.002,22.158C46.177,34.019,46.069,34.594,45.766,34.921z"/>
</svg>
