<?xml version="1.0" encoding="utf-8"?>
<!-- Generator: Adobe Illustrator 16.0.0, SVG Export Plug-In . SVG Version: 6.00 Build 0)  -->
<!DOCTYPE svg PUBLIC "-//W3C//DTD SVG 1.1//EN" "http://www.w3.org/Graphics/SVG/1.1/DTD/svg11.dtd">
<svg version="1.1" id="Layer_1" xmlns="http://www.w3.org/2000/svg" xmlns:xlink="http://www.w3.org/1999/xlink" x="0px" y="0px"
	 width="48px" height="48px" viewBox="0 0 48 48" enable-background="new 0 0 48 48" xml:space="preserve">
<path fill="#414042" d="M44.289,9.806c-0.637-7.214-7.919-7.298-7.992-7.298c-0.044,0-0.084,0.015-0.124,0.025
	c-0.433,0.055-0.871,0.426-1.123,0.681L3.926,36.681c-0.004,0.005-0.005,0.011-0.009,0.015c-0.713,0.703-1.105,1.657-1.125,2.771
	c-0.029,1.575,0.686,3.235,1.96,4.554C6.03,45.343,7.73,46.133,9.3,46.133c0.666,0,1.285-0.138,1.838-0.407
	c0.351-0.17,0.666-0.39,0.933-0.65c0.005-0.005,0.008-0.011,0.013-0.015c0.002-0.002,0.004-0.003,0.006-0.005l13.188-14.125
	l-2.089,8.057c-0.058,0.223,0.043,0.455,0.244,0.564c0.076,0.041,0.158,0.062,0.24,0.062c0.136,0,0.27-0.056,0.367-0.16l4.076-4.396
	l5.048,2.646c0.175,0.093,0.386,0.071,0.54-0.048c0.154-0.121,0.225-0.321,0.179-0.512l-1.826-7.57h9.852
	c0.217,0,0.409-0.14,0.476-0.347s-0.008-0.433-0.184-0.56l-4.633-3.328l2.561-4.599c0.105-0.189,0.077-0.424-0.069-0.583
	c-0.148-0.16-0.383-0.204-0.576-0.114l-7.088,3.266l11.252-12.052C43.701,11.203,44.198,10.702,44.289,9.806z M26.244,28.431
	l-6.875-6.887l4.364-4.693l6.898,6.88L26.244,28.431z M10.7,44.826c-1.475,0.721-3.705,0.077-5.23-1.502
	c-1.091-1.129-1.703-2.528-1.679-3.84c0.016-0.858,0.309-1.585,0.85-2.104c0.196-0.191,0.422-0.351,0.671-0.474
	c0.414-0.202,0.883-0.304,1.395-0.304c1.307,0,2.743,0.677,3.84,1.812c1.091,1.129,1.703,2.527,1.678,3.837
	c-0.015,0.858-0.308,1.586-0.849,2.105C11.183,44.545,10.956,44.702,10.7,44.826z M11.266,37.719
	c-1.41-1.458-3.345-2.217-5.014-2.07l12.436-13.372l6.874,6.886L13.212,42.39c0.002-0.041,0.012-0.078,0.013-0.12
	C13.254,40.696,12.541,39.038,11.266,37.719z M28.24,33.995c-0.199-0.105-0.445-0.063-0.599,0.103l-2.988,3.222l2.055-7.922
	l3.396-3.638l2.544,10.547L28.24,33.995z M36.476,25.243c-0.124,0.222-0.062,0.501,0.145,0.649l3.733,2.682h-8.54l-0.846-3.507
	l7.54-3.474L36.476,25.243z M42.932,10.557L31.315,23l-6.9-6.881L35.771,3.906c0.181-0.182,0.441-0.378,0.481-0.4
	c0.008,0.001,0.015-0.003,0.022-0.002c0.007,0,0.014,0.004,0.021,0.004c0.263,0.001,6.441,0.092,6.998,6.286
	C43.244,10.238,42.949,10.54,42.932,10.557z"/>
</svg>
