<?xml version="1.0" encoding="utf-8"?>
<!-- Generator: Adobe Illustrator 16.0.0, SVG Export Plug-In . SVG Version: 6.00 Build 0)  -->
<!DOCTYPE svg PUBLIC "-//W3C//DTD SVG 1.1//EN" "http://www.w3.org/Graphics/SVG/1.1/DTD/svg11.dtd">
<svg version="1.1" id="Layer_1" xmlns="http://www.w3.org/2000/svg" xmlns:xlink="http://www.w3.org/1999/xlink" x="0px" y="0px"
	 width="48px" height="48px" viewBox="0 0 48 48" enable-background="new 0 0 48 48" xml:space="preserve">
<path fill="#414042" d="M41.303,11.417c-0.002-0.013,0.005-0.025,0.001-0.038c-0.002-0.008-0.01-0.012-0.013-0.02
	c-0.026-0.083-0.07-0.155-0.133-0.212c-0.011-0.01-0.024-0.015-0.036-0.024c-0.058-0.044-0.124-0.073-0.197-0.089
	c-0.014-0.003-0.022-0.014-0.036-0.016L28.543,9.351c-0.12-0.015-0.255,0.015-0.359,0.09L13.466,20.073
	c-0.162,0.117-0.239,0.319-0.195,0.515c0.037,0.165,0.163,0.281,0.316,0.341l-6.993,5.068c-0.008,0.006-0.01,0.017-0.018,0.023
	c-0.065,0.053-0.12,0.117-0.152,0.196c-0.004,0.01-0.002,0.021-0.006,0.03c-0.017,0.05-0.031,0.101-0.031,0.155v9.635
	c0,0.234,0.163,0.438,0.392,0.488l12.462,2.756c0.036,0.008,0.072,0.012,0.108,0.012c0.057,0,0.113-0.01,0.167-0.028
	c0.019-0.007,0.035-0.021,0.053-0.03c0.032-0.016,0.065-0.029,0.094-0.052c0.001-0.001,0.001-0.002,0.002-0.002
	c0.001-0.001,0.003-0.002,0.004-0.003l6.608-5.487c0.04,0.04,0.073,0.087,0.126,0.111c0.068,0.032,0.141,0.048,0.213,0.048
	c0.114,0,0.228-0.039,0.319-0.115L41.142,21.96c0.114-0.095,0.181-0.236,0.181-0.385V11.513
	C41.322,11.479,41.31,11.449,41.303,11.417z M28.607,10.369l10.99,1.483L26.482,22.349l-1.891-0.354l-9.595-1.794L28.607,10.369z
	 M14.913,21.204l7.989,1.494l2.589,0.484l-6.278,5.32L8.093,26.146L14.913,21.204z M7.388,27.02l11.462,2.427v8.724L7.388,35.636
	V27.02z M19.85,29.273l6.267-5.312v8.563l-6.267,5.203V29.273z M27.24,32.184c-0.038-0.038-0.078-0.074-0.124-0.098v-8.963
	l13.206-10.57v8.787L27.24,32.184z"/>
</svg>
