<?xml version="1.0" encoding="utf-8"?>
<!-- Generator: Adobe Illustrator 16.0.0, SVG Export Plug-In . SVG Version: 6.00 Build 0)  -->
<!DOCTYPE svg PUBLIC "-//W3C//DTD SVG 1.1//EN" "http://www.w3.org/Graphics/SVG/1.1/DTD/svg11.dtd">
<svg version="1.1" id="Layer_1" xmlns="http://www.w3.org/2000/svg" xmlns:xlink="http://www.w3.org/1999/xlink" x="0px" y="0px"
	 width="48px" height="48px" viewBox="0 0 48 48" enable-background="new 0 0 48 48" xml:space="preserve">
<g>
	<path fill="#414042" d="M43.231,9.01c0-0.033-0.013-0.063-0.02-0.094c-0.002-0.012,0.005-0.024,0.001-0.037
		c-0.002-0.008-0.01-0.012-0.013-0.02c-0.026-0.083-0.07-0.155-0.133-0.212c-0.011-0.01-0.024-0.015-0.036-0.024
		c-0.058-0.044-0.123-0.073-0.196-0.089c-0.014-0.003-0.022-0.015-0.036-0.017L29.271,6.688c-0.126-0.016-0.256,0.015-0.36,0.09
		L12.787,18.431c-0.162,0.117-0.239,0.319-0.195,0.515c0.043,0.195,0.199,0.345,0.396,0.382l0.321,0.06
		c-0.65,0.771-1.885,2.043-3.343,2.536c-0.169,0.029-4.147,0.738-4.891,3.259c-0.002,0.008-0.001,0.016-0.003,0.023
		c-0.001,0.005-0.005,0.009-0.006,0.015c-0.002,0.011,0.001,0.021,0,0.031c-0.003,0.024-0.01,0.048-0.01,0.072v12.965
		c0,0.234,0.162,0.437,0.391,0.488l14.117,3.166c0.036,0.008,0.073,0.012,0.109,0.012c0.039,0,0.077-0.005,0.115-0.014
		c2.228-0.524,3.807-3.984,3.851-4.088c0.8-1.4,2.516-2.033,3.297-2.258c0.05,0.095,0.121,0.178,0.223,0.224
		c0.067,0.031,0.139,0.046,0.209,0.046c0.115,0,0.229-0.04,0.32-0.116l15.417-12.877c0.114-0.096,0.181-0.237,0.18-0.386
		L43.231,9.01z M10.209,22.89c2.077-0.696,3.68-2.588,4.221-3.293l2.827,0.528l-6.882,5.457c-0.074,0.059-0.119,0.137-0.15,0.22
		L6.27,24.964C7.23,23.433,10.11,22.913,10.209,22.89z M18.56,20.368l2.878,0.538l-7.193,5.703
		c-0.013,0.011-0.019,0.025-0.031,0.036l-2.819-0.596L18.56,20.368z M6.055,37.889V25.941l12.996,2.75l0.095,12.134L6.055,37.889z
		 M19.234,27.656c-0.028,0.001-0.06,0.022-0.09,0.032l-3.673-0.777l7.134-5.656c0.041-0.032,0.068-0.073,0.096-0.114l2.806,0.524
		c-1,0.553-2.315,1.475-3.059,2.788C22.438,24.484,21.312,27.573,19.234,27.656z M22.747,37.4c-0.341,0.756-1.389,2.604-2.602,3.318
		L20.05,28.518c2.215-0.664,3.288-3.583,3.304-3.649c0.788-1.381,2.499-2.297,3.326-2.677l0.176,12.389
		C26.089,34.774,23.834,35.492,22.747,37.4z M27.036,20.933l-12.717-2.375L29.335,7.706l12.173,1.645L27.036,20.933z M27.852,34.309
		l-0.178-12.604l14.562-11.655l0.047,12.207L27.852,34.309z"/>
	<path fill="#414042" d="M11.904,30.616c-0.556,0.148-1.032,0.525-1.34,1.06c-0.384,0.665-0.478,1.512-0.26,2.322
		c0.346,1.296,1.389,2.2,2.535,2.2c0.183,0,0.364-0.023,0.541-0.071c1.287-0.346,2.003-1.862,1.596-3.379
		C14.574,31.243,13.175,30.277,11.904,30.616z M13.121,35.161c-0.749,0.202-1.593-0.458-1.851-1.422
		c-0.15-0.557-0.092-1.127,0.16-1.563c0.124-0.215,0.351-0.491,0.733-0.594c0.092-0.024,0.187-0.037,0.282-0.037
		c0.68,0,1.338,0.615,1.565,1.462C14.274,33.992,13.875,34.959,13.121,35.161z"/>
	<circle fill="#414042" cx="17.358" cy="22.752" r="1.063"/>
</g>
</svg>
