<?xml version="1.0" encoding="utf-8"?>
<!-- Generator: Adobe Illustrator 16.0.0, SVG Export Plug-In . SVG Version: 6.00 Build 0)  -->
<!DOCTYPE svg PUBLIC "-//W3C//DTD SVG 1.1//EN" "http://www.w3.org/Graphics/SVG/1.1/DTD/svg11.dtd">
<svg version="1.1" id="Layer_1" xmlns="http://www.w3.org/2000/svg" xmlns:xlink="http://www.w3.org/1999/xlink" x="0px" y="0px"
	 width="48px" height="48px" viewBox="0 0 48 48" enable-background="new 0 0 48 48" xml:space="preserve">
<path fill="#414042" d="M45.061,10.586l-7.844-7.844c-0.188-0.188-0.52-0.188-0.707,0L1.906,37.348
	c-0.094,0.094-0.146,0.221-0.146,0.354s0.053,0.26,0.146,0.354l7.844,7.842c0.098,0.098,0.226,0.146,0.354,0.146
	s0.256-0.049,0.354-0.146l34.604-34.604C45.256,11.098,45.256,10.781,45.061,10.586z M10.104,44.836l-7.137-7.135L6.868,33.8
	l4.028,4.026c0.102,0.102,0.236,0.152,0.369,0.152c0.134,0,0.267-0.051,0.369-0.152c0.204-0.204,0.204-0.534,0-0.738l-4.028-4.026
	l3.779-3.779l1.996,1.994c0.102,0.102,0.235,0.152,0.369,0.152c0.134,0,0.267-0.051,0.369-0.152c0.204-0.204,0.204-0.534,0-0.738
	l-1.996-1.994l3.603-3.603l4.03,4.028c0.102,0.102,0.236,0.152,0.369,0.152c0.134,0,0.267-0.051,0.369-0.152
	c0.204-0.204,0.204-0.534,0-0.738l-4.03-4.028l3.585-3.585l2.489,2.49c0.102,0.102,0.235,0.153,0.369,0.153
	c0.133,0,0.267-0.051,0.369-0.153c0.204-0.204,0.204-0.534,0-0.738l-2.489-2.491l3.174-3.174l4.027,4.03
	c0.102,0.102,0.235,0.153,0.369,0.153s0.267-0.051,0.369-0.153c0.203-0.204,0.204-0.534,0-0.738l-4.028-4.031l2.807-2.807
	l1.997,1.997c0.102,0.102,0.235,0.153,0.369,0.153s0.268-0.051,0.369-0.153c0.204-0.204,0.204-0.534,0-0.738l-1.997-1.997
	l3.526-3.526l4.028,4.028c0.103,0.102,0.235,0.153,0.369,0.153s0.268-0.051,0.369-0.153c0.204-0.204,0.204-0.534,0-0.738
	l-4.028-4.028l4.354-4.355L44,10.939L10.104,44.836z"/>
</svg>
