<?xml version="1.0" encoding="utf-8"?>
<!-- Generator: Adobe Illustrator 16.0.0, SVG Export Plug-In . SVG Version: 6.00 Build 0)  -->
<!DOCTYPE svg PUBLIC "-//W3C//DTD SVG 1.1//EN" "http://www.w3.org/Graphics/SVG/1.1/DTD/svg11.dtd">
<svg version="1.1" id="Layer_1" xmlns="http://www.w3.org/2000/svg" xmlns:xlink="http://www.w3.org/1999/xlink" x="0px" y="0px"
	 width="48px" height="48px" viewBox="0 0 48 48" enable-background="new 0 0 48 48" xml:space="preserve">
<path fill="#414042" d="M46.865,9.542L43.1,5.376l0,0c-0.253-0.407-0.562-0.79-0.915-1.124c-1.43-1.354-3.673-2.083-5.213-0.48
	c-0.694,0.721-1.066,1.107-1.25,1.346l-0.009-0.007l-1.795,1.915c-0.007,0.006-0.016,0.009-0.021,0.015L9.18,32.896
	c-0.017,0.018-0.024,0.041-0.039,0.061c-0.01,0.014-0.025,0.022-0.034,0.037L1.079,47.027c-0.115,0.202-0.077,0.457,0.094,0.614
	c0.095,0.089,0.217,0.134,0.34,0.134c0.098,0,0.195-0.028,0.28-0.086l13.344-9.037c0.014-0.01,0.021-0.025,0.033-0.035
	c0.015-0.013,0.034-0.019,0.048-0.033l24.721-25.859c0.001-0.001,0.001-0.002,0.002-0.002c0,0,0.001,0,0.001-0.001l1.814-1.931
	c0,0,0.373-0.387,1.26-1.342c0.51-0.548,0.73-1.186,0.75-1.843l2.045,2.262L34.658,21.555c-0.191,0.2-0.184,0.516,0.017,0.707
	c0.097,0.092,0.221,0.138,0.345,0.138c0.132,0,0.264-0.052,0.361-0.155l11.475-12.023C47.037,10.033,47.041,9.736,46.865,9.542z
	 M14.838,37.534l-2.815-2.646l-1.772-1.665l17.843-18.665l4.43,4.477L14.838,37.534z M3.018,45.652L9.66,34.04l0.331,0.311
	l4.069,3.824L3.018,45.652z M42.284,8.767c-0.875,0.943-1.245,1.327-1.252,1.334l-1.814,1.932l-0.001,0l-6.002,6.279l-4.43-4.477
	l5.834-6.103c0.002-0.002,0.002-0.005,0.004-0.007l0.006,0.005l1.819-1.943c0.004-0.004,0.394-0.438,1.244-1.321
	c1.067-1.11,2.721-0.512,3.806,0.513C42.638,6.057,43.273,7.704,42.284,8.767z"/>
</svg>
