<?xml version="1.0" encoding="utf-8"?>
<!-- Generator: Adobe Illustrator 16.0.0, SVG Export Plug-In . SVG Version: 6.00 Build 0)  -->
<!DOCTYPE svg PUBLIC "-//W3C//DTD SVG 1.1//EN" "http://www.w3.org/Graphics/SVG/1.1/DTD/svg11.dtd">
<svg version="1.1" id="Layer_1" xmlns="http://www.w3.org/2000/svg" xmlns:xlink="http://www.w3.org/1999/xlink" x="0px" y="0px"
	 width="48px" height="48px" viewBox="0 0 48 48" enable-background="new 0 0 48 48" xml:space="preserve">
<g>
	<path fill="#414042" d="M39.176,4.885H9.047c-0.506,0-0.918,0.412-0.918,0.918v37.031c0,0.507,0.412,0.92,0.918,0.92h30.129
		c0.506,0,0.918-0.413,0.918-0.92V5.803C40.094,5.296,39.682,4.885,39.176,4.885z M39.094,5.885v17.934H9.129V5.885H39.094z
		 M9.129,42.754V24.818h29.965v17.936H9.129z"/>
	<path fill="#414042" d="M20.416,20.215h7.391c0.43,0,0.779-0.349,0.779-0.777v-5.58c0-0.276-0.224-0.5-0.5-0.5s-0.5,0.224-0.5,0.5
		v5.357h-6.949v-5.357c0-0.276-0.224-0.5-0.5-0.5s-0.5,0.224-0.5,0.5v5.58C19.637,19.866,19.986,20.215,20.416,20.215z"/>
	<path fill="#414042" d="M28.086,30.096c-0.276,0-0.5,0.224-0.5,0.5v5.357h-6.949v-5.357c0-0.276-0.224-0.5-0.5-0.5
		s-0.5,0.224-0.5,0.5v5.578c0,0.43,0.35,0.779,0.779,0.779h7.391c0.43,0,0.779-0.35,0.779-0.779v-5.578
		C28.586,30.319,28.362,30.096,28.086,30.096z"/>
</g>
</svg>
