<?xml version="1.0" encoding="utf-8"?>
<!-- Generator: Adobe Illustrator 16.0.0, SVG Export Plug-In . SVG Version: 6.00 Build 0)  -->
<!DOCTYPE svg PUBLIC "-//W3C//DTD SVG 1.1//EN" "http://www.w3.org/Graphics/SVG/1.1/DTD/svg11.dtd">
<svg version="1.1" id="Layer_1" xmlns="http://www.w3.org/2000/svg" xmlns:xlink="http://www.w3.org/1999/xlink" x="0px" y="0px"
	 width="48px" height="48px" viewBox="0 0 48 48" enable-background="new 0 0 48 48" xml:space="preserve">
<g>
	<path fill="#414042" d="M36.896,4.226H9.954c-1.963,0-3.561,1.597-3.561,3.561v33.065c0,1.965,1.597,3.563,3.561,3.563h26.941
		c1.965,0,3.563-1.598,3.563-3.563V7.786C40.458,5.823,38.86,4.226,36.896,4.226z M39.458,40.852c0,1.413-1.149,2.563-2.563,2.563
		H9.954c-1.412,0-2.561-1.149-2.561-2.563V7.786c0-1.412,1.148-2.561,2.561-2.561h26.941c1.413,0,2.563,1.148,2.563,2.561V40.852z"
		/>
	<path fill="#414042" d="M36.284,7.897H10.567c-0.276,0-0.5,0.224-0.5,0.5v4.507c0,0.276,0.224,0.5,0.5,0.5h25.717
		c0.276,0,0.5-0.224,0.5-0.5V8.397C36.784,8.121,36.561,7.897,36.284,7.897z M35.784,12.404H11.067V8.897h24.717V12.404z"/>
	<path fill="#414042" d="M29.782,22.437h1.287c0.552,0,1-0.449,1-1v-1.191c0-0.551-0.448-1-1-1h-1.287c-0.552,0-1,0.449-1,1v1.191
		C28.782,21.988,29.23,22.437,29.782,22.437z M29.782,20.245h1.287v1.191h0.001l-0.001,0.5v-0.5h-1.287V20.245z"/>
	<path fill="#414042" d="M15.782,22.437h1.287c0.551,0,1-0.449,1-1v-1.191c0-0.551-0.449-1-1-1h-1.287c-0.551,0-1,0.449-1,1v1.191
		C14.782,21.988,15.231,22.437,15.782,22.437z M15.782,20.245h1.287v1.191c0,0,0,0,0.001,0l-0.001,0.5v-0.5h-1.287V20.245z"/>
	<path fill="#414042" d="M22.782,22.437h1.287c0.551,0,1-0.449,1-1v-1.191c0-0.551-0.449-1-1-1h-1.287c-0.551,0-1,0.449-1,1v1.191
		C21.782,21.988,22.231,22.437,22.782,22.437z M22.782,20.245h1.287v1.191c0,0,0,0,0.001,0l-0.001,0.5v-0.5h-1.287V20.245z"/>
	<path fill="#414042" d="M29.782,36.437h1.287c0.552,0,1-0.448,1-1v-1.191c0-0.552-0.448-1-1-1h-1.287c-0.552,0-1,0.448-1,1v1.191
		C28.782,35.988,29.23,36.437,29.782,36.437z M29.782,34.245h1.287v1.191h0.001l-0.001,0.5v-0.5h-1.287V34.245z"/>
	<path fill="#414042" d="M15.782,36.437h1.287c0.551,0,1-0.448,1-1v-1.191c0-0.552-0.449-1-1-1h-1.287c-0.551,0-1,0.448-1,1v1.191
		C14.782,35.988,15.231,36.437,15.782,36.437z M15.782,34.245h1.287v1.191c0,0,0,0,0.001,0l-0.001,0.5v-0.5h-1.287V34.245z"/>
	<path fill="#414042" d="M22.782,36.437h1.287c0.551,0,1-0.448,1-1v-1.191c0-0.552-0.449-1-1-1h-1.287c-0.551,0-1,0.448-1,1v1.191
		C21.782,35.988,22.231,36.437,22.782,36.437z M22.782,34.245h1.287v1.191c0,0,0,0,0.001,0l-0.001,0.5v-0.5h-1.287V34.245z"/>
	<path fill="#414042" d="M29.782,29.437h1.287c0.552,0,1-0.448,1-1v-1.191c0-0.552-0.448-1-1-1h-1.287c-0.552,0-1,0.448-1,1v1.191
		C28.782,28.988,29.23,29.437,29.782,29.437z M29.782,27.245h1.287v1.191h0.001l-0.001,0.5v-0.5h-1.287V27.245z"/>
	<path fill="#414042" d="M15.782,29.437h1.287c0.551,0,1-0.448,1-1v-1.191c0-0.552-0.449-1-1-1h-1.287c-0.551,0-1,0.448-1,1v1.191
		C14.782,28.988,15.231,29.437,15.782,29.437z M15.782,27.245h1.287v1.191c0,0,0,0,0.001,0l-0.001,0.5v-0.5h-1.287V27.245z"/>
	<path fill="#414042" d="M22.782,29.437h1.287c0.551,0,1-0.448,1-1v-1.191c0-0.552-0.449-1-1-1h-1.287c-0.551,0-1,0.448-1,1v1.191
		C21.782,28.988,22.231,29.437,22.782,29.437z M22.782,27.245h1.287v1.191c0,0,0,0,0.001,0l-0.001,0.5v-0.5h-1.287V27.245z"/>
	<path fill="#414042" d="M36.284,15.936H10.567c-0.276,0-0.5,0.224-0.5,0.5V40.24c0,0.276,0.224,0.5,0.5,0.5h25.717
		c0.276,0,0.5-0.224,0.5-0.5V16.436C36.784,16.159,36.561,15.936,36.284,15.936z M35.784,39.74H11.067V16.936h24.717V39.74z"/>
</g>
</svg>
