<?xml version="1.0" encoding="utf-8"?>
<!-- Generator: Adobe Illustrator 16.0.0, SVG Export Plug-In . SVG Version: 6.00 Build 0)  -->
<!DOCTYPE svg PUBLIC "-//W3C//DTD SVG 1.1//EN" "http://www.w3.org/Graphics/SVG/1.1/DTD/svg11.dtd">
<svg version="1.1" id="Layer_1" xmlns="http://www.w3.org/2000/svg" xmlns:xlink="http://www.w3.org/1999/xlink" x="0px" y="0px"
	 width="48px" height="48px" viewBox="0 0 48 48" enable-background="new 0 0 48 48" xml:space="preserve">
<path fill="#414042" d="M32.169,21.441h-5.625l-0.972-5.158c0.765-0.588,1.267-1.502,1.267-2.54c0-1.603-1.181-2.924-2.716-3.166
	v-4.57c0-0.276-0.224-0.5-0.5-0.5s-0.5,0.224-0.5,0.5v4.57c-1.535,0.242-2.716,1.563-2.716,3.166c0,1.123,0.581,2.11,1.457,2.686
	l-0.976,5.012h-5.577c-0.276,0-0.5,0.224-0.5,0.5s0.224,0.5,0.5,0.5h5.382l-3.883,19.943l5.24-19.943h3.503l4.982,20.189
	l-3.804-20.189h5.437c0.276,0,0.5-0.224,0.5-0.5S32.445,21.441,32.169,21.441z M23.623,11.527c1.222,0,2.216,0.995,2.216,2.217
	c0,1.221-0.994,2.215-2.216,2.215s-2.216-0.994-2.216-2.215C21.407,12.522,22.401,11.527,23.623,11.527z M22.314,21.441l1.181-4.495
	c0.043,0.001,0.084,0.013,0.128,0.013c0.193,0,0.38-0.024,0.564-0.057l1.12,4.54H22.314z"/>
</svg>
