<?xml version="1.0" encoding="utf-8"?>
<!-- Generator: Adobe Illustrator 16.0.0, SVG Export Plug-In . SVG Version: 6.00 Build 0)  -->
<!DOCTYPE svg PUBLIC "-//W3C//DTD SVG 1.1//EN" "http://www.w3.org/Graphics/SVG/1.1/DTD/svg11.dtd">
<svg version="1.1" id="Layer_1" xmlns="http://www.w3.org/2000/svg" xmlns:xlink="http://www.w3.org/1999/xlink" x="0px" y="0px"
	 width="48px" height="48px" viewBox="0 0 48 48" enable-background="new 0 0 48 48" xml:space="preserve">
<path fill="#414042" d="M43.656,28.098c0.013-0.024,0.029-0.047,0.038-0.072c0.01-0.031,0.009-0.063,0.013-0.096
	c0.003-0.031,0.012-0.063,0.009-0.094c-0.002-0.026-0.014-0.051-0.02-0.076c-0.01-0.038-0.017-0.076-0.035-0.112
	c-0.001-0.004-0.001-0.007-0.003-0.011c-0.014-0.024-0.035-0.04-0.052-0.062c-0.019-0.025-0.032-0.054-0.057-0.075
	c-0.853-0.751-1.309-1.592-1.357-2.498c-0.085-1.601,1.117-2.934,1.13-2.947c0.001-0.001,0.002-0.003,0.003-0.005
	s0.003-0.001,0.004-0.003c0.023-0.027,0.034-0.059,0.052-0.089c0.015-0.026,0.034-0.049,0.044-0.077
	c0.016-0.043,0.018-0.088,0.021-0.133c0.001-0.019,0.008-0.036,0.007-0.055c-0.002-0.049-0.018-0.095-0.033-0.141
	c-0.006-0.015-0.005-0.03-0.012-0.044c-0.021-0.044-0.053-0.082-0.087-0.12c-0.011-0.012-0.016-0.028-0.028-0.039
	c-0.001,0-0.002-0.001-0.002-0.001c-0.002-0.002-0.003-0.004-0.005-0.006c-2.881-2.541-0.419-5.754-0.313-5.89
	c0.018-0.022,0.023-0.048,0.036-0.072c0.011-0.02,0.021-0.036,0.029-0.057c0.032-0.083,0.046-0.169,0.033-0.255
	c-0.001-0.004,0.002-0.007,0.001-0.011c-0.002-0.01-0.011-0.016-0.013-0.025c-0.018-0.075-0.054-0.143-0.104-0.204
	c-0.015-0.017-0.024-0.033-0.041-0.048c-0.01-0.009-0.015-0.021-0.025-0.03c-0.061-0.048-0.13-0.075-0.201-0.091
	c-0.005-0.001-0.008-0.007-0.014-0.008l-18.21-3.482c-0.111-0.022-0.228-0.004-0.327,0.049L6.681,20.429
	c-0.389,0.098-0.713,0.278-0.97,0.539c-0.445,0.453-0.658,1.128-0.633,1.981l-0.041,2.086c0,0.038,0.003,0.075,0.011,0.112
	c0.195,0.932,0.61,1.452,1.119,1.765c-0.446,0.356-0.834,0.92-0.988,1.866l-0.138,2.76c0.273,2.008,1.74,2.175,2.919,2.309
	c0.168,0.019,0.339,0.038,0.511,0.063l19.413,2.73c0.022,0.003,0.046,0.005,0.069,0.005c0.083,0,0.165-0.021,0.238-0.061
	l15.265-8.27c0.032-0.018,0.055-0.045,0.081-0.068c0.018-0.015,0.04-0.022,0.056-0.04c0.003-0.003,0.004-0.008,0.006-0.011
	C43.625,28.166,43.639,28.132,43.656,28.098z M42.403,27.748l-14.089,7.633c-0.011-0.013-0.017-0.027-0.029-0.039
	c-0.876-0.772-1.328-1.605-1.345-2.475c-0.027-1.438,1.138-2.565,1.149-2.576c0.041-0.039,0.068-0.085,0.093-0.133
	c0.004-0.002,0.008-0.001,0.012-0.003l13.501-7.398c-0.298,0.624-0.547,1.409-0.502,2.289
	C41.243,26.029,41.663,26.933,42.403,27.748z M42.004,21.447l-13.959,7.649c-0.706-0.703-1.09-1.45-1.104-2.229
	c-0.025-1.326,0.952-2.376,1.116-2.542l13.21-7.824C40.733,17.933,40.626,19.796,42.004,21.447z M24.447,12.184l16.74,3.202
	l-13.543,8.021L8.646,20.523L24.447,12.184z M6.078,22.945c-0.017-0.595,0.1-1.024,0.347-1.276c0.098-0.1,0.222-0.176,0.366-0.231
	c0.078,0,0.158-0.019,0.231-0.058l0.021-0.012c0.108-0.02,0.223-0.03,0.342-0.03l19.418,2.952c-0.412,0.592-0.882,1.498-0.863,2.586
	c0.012,0.759,0.28,1.479,0.753,2.158L8.611,26.493l-0.446-0.058c-1.192-0.146-1.856-0.228-2.127-1.439L6.078,22.945z M8.074,32.853
	c-1.299-0.147-1.88-0.262-2.037-1.355l0.136-2.611c0.18-1.102,0.769-1.38,1.327-1.533c0.182,0.028,0.365,0.054,0.544,0.075
	l18.909,2.653c-0.438,0.571-1.032,1.571-1.012,2.795c0.015,0.94,0.404,1.823,1.124,2.639L8.611,32.919
	C8.431,32.894,8.25,32.873,8.074,32.853z"/>
</svg>
