<?xml version="1.0" encoding="utf-8"?>
<!-- Generator: Adobe Illustrator 16.0.0, SVG Export Plug-In . SVG Version: 6.00 Build 0)  -->
<!DOCTYPE svg PUBLIC "-//W3C//DTD SVG 1.1//EN" "http://www.w3.org/Graphics/SVG/1.1/DTD/svg11.dtd">
<svg version="1.1" id="Layer_1" xmlns="http://www.w3.org/2000/svg" xmlns:xlink="http://www.w3.org/1999/xlink" x="0px" y="0px"
	 width="48px" height="48px" viewBox="0 0 48 48" enable-background="new 0 0 48 48" xml:space="preserve">
<path fill="#414042" d="M41.695,12.18c-0.004-0.034-0.01-0.067-0.021-0.101c-0.011-0.032-0.024-0.062-0.041-0.09
	c-0.009-0.016-0.011-0.034-0.021-0.049c-0.008-0.012-0.021-0.017-0.03-0.028c-0.021-0.026-0.047-0.048-0.074-0.069
	c-0.024-0.02-0.049-0.038-0.076-0.052c-0.028-0.015-0.057-0.023-0.087-0.032c-0.002-0.001-0.004-0.001-0.005-0.002
	c-0.118-0.073-0.263-0.101-0.406-0.055c-2.696,0.824-4.667,0.799-5.696-0.073c-1.027-0.87-0.844-2.368-0.842-2.383
	c0.001-0.004-0.001-0.007-0.001-0.011c0.004-0.036-0.003-0.072-0.007-0.109c-0.004-0.029-0.002-0.06-0.01-0.088
	c-0.002-0.004-0.001-0.009-0.002-0.013c-0.01-0.03-0.029-0.052-0.044-0.078c-0.014-0.027-0.024-0.055-0.044-0.079
	c-0.023-0.03-0.054-0.051-0.083-0.074c-0.021-0.017-0.039-0.036-0.063-0.05c-0.035-0.02-0.073-0.029-0.112-0.039
	c-0.021-0.006-0.039-0.019-0.062-0.021c-0.004,0-0.007,0.001-0.01,0c-0.038-0.004-0.077,0.003-0.116,0.008
	c-0.027,0.003-0.057,0.001-0.083,0.009c-0.004,0.001-0.008,0-0.012,0.001c-2.351,0.759-4.078,0.763-4.996,0.011
	c-0.934-0.764-0.789-2.128-0.788-2.142c0.003-0.023-0.005-0.044-0.005-0.067c-0.001-0.04,0-0.08-0.01-0.119
	c-0.009-0.035-0.027-0.064-0.044-0.095c-0.012-0.024-0.017-0.051-0.033-0.073c-0.002-0.003-0.005-0.004-0.008-0.007
	c-0.025-0.034-0.06-0.059-0.094-0.085c-0.018-0.014-0.031-0.032-0.05-0.043c-0.023-0.014-0.052-0.018-0.077-0.028
	c-0.035-0.014-0.07-0.03-0.107-0.036c-0.003,0-0.005-0.002-0.008-0.002c-0.023-0.003-0.046,0.005-0.069,0.005
	c-0.005,0-0.01,0-0.015,0C27.374,6.01,27.302,6.01,27.229,6.03c-3.646,1.002-5.261,0.489-5.975-0.117
	c-0.795-0.675-0.706-1.651-0.701-1.7c0.003-0.024-0.005-0.046-0.006-0.069c-0.001-0.037,0-0.073-0.009-0.11
	c-0.009-0.035-0.026-0.064-0.042-0.096c-0.011-0.022-0.015-0.047-0.03-0.068c-0.003-0.004-0.008-0.006-0.011-0.01
	c-0.023-0.03-0.053-0.053-0.082-0.078c-0.021-0.017-0.038-0.039-0.061-0.052c-0.026-0.016-0.056-0.022-0.085-0.033
	c-0.033-0.012-0.063-0.027-0.098-0.032c-0.005,0-0.009-0.004-0.014-0.004c-0.028-0.003-0.053,0.005-0.08,0.006
	c-0.033,0.001-0.066,0-0.099,0.008c-0.042,0.01-0.078,0.03-0.115,0.05c-0.017,0.009-0.036,0.011-0.052,0.022l-0.021,0.015
	c-0.001,0.001-0.002,0.001-0.003,0.002l-11.01,7.711c-1.204,0.842-2.692,2.165-2.948,3.686c-0.056,0.333-0.044,0.656,0.024,0.971
	c-0.037,0.069-0.063,0.145-0.063,0.229V36.4c0,2.908,2.996,2.908,4.123,2.908c1.02,0,2.18-0.102,3.014-0.657v0.298
	c0,2.906,2.996,2.906,4.123,2.906c1.044,0,2.453-0.31,3.395-0.801v0.186c0,2.908,2.994,2.908,4.121,2.908
	c0.733,0,2.253-0.006,3.226-0.809c0.004-0.002,0.008-0.001,0.011-0.003l13.738-9.951c0.13-0.095,0.207-0.245,0.207-0.405V12.23
	C41.705,12.212,41.696,12.197,41.695,12.18z M34.582,12.384c0.718,0.613,1.707,0.919,2.958,0.919c0.458,0,0.958-0.049,1.485-0.131
	l-11.167,7.97c-2.847,1.926-5.356,1.302-6.145,0.287c-0.265-0.366-0.361-0.733-0.295-1.125c0.19-1.129,1.642-2.26,2.726-3.019
	l9.337-6.83C33.614,11.083,33.91,11.81,34.582,12.384z M28.107,9.479c0.643,0.53,1.508,0.796,2.589,0.796
	c0.476,0,0.993-0.052,1.553-0.155l-8.686,6.354c-0.503,0.352-1.038,0.751-1.523,1.192c-0.072,0.014-0.143,0.039-0.206,0.085
	l-1.491,1.102c-2.848,1.924-5.356,1.301-6.145,0.287c-0.263-0.364-0.359-0.728-0.294-1.113c0.208-1.229,2.039-2.507,2.736-2.995
	l10.372-7.568C27.113,8.09,27.387,8.882,28.107,9.479z M6.772,15.327c0.209-1.242,1.679-2.433,2.536-3.033l10.328-7.233
	c0.114,0.497,0.373,1.099,0.955,1.6c0.723,0.623,1.76,0.934,3.1,0.934c0.499,0,1.044-0.048,1.626-0.134l-9.258,6.756
	c-0.489,0.342-0.983,0.711-1.435,1.106c-0.063,0.015-0.123,0.042-0.178,0.083l-1.214,0.896c-2.846,1.925-5.356,1.301-6.145,0.287
	C6.8,16.19,6.697,15.778,6.772,15.327z M12.823,37.266c-0.332,0.722-1.243,1.043-2.952,1.043c-2.592,0-3.123-0.763-3.123-1.908
	V17.636c0.684,0.571,1.652,0.917,2.793,0.917c1.054,0,2.242-0.306,3.45-0.957c-0.024,0.087-0.058,0.173-0.073,0.262
	c-0.039,0.231-0.032,0.458-0.004,0.682c-0.015,0.047-0.03,0.095-0.03,0.147v18.493C12.864,37.209,12.838,37.232,12.823,37.266z
	 M20.385,39.875c-0.515,0.504-2.156,0.98-3.377,0.98c-2.592,0-3.123-0.762-3.123-1.906V20.211c0.682,0.556,1.641,0.891,2.765,0.891
	c1.169,0,2.503-0.376,3.846-1.187c-0.019,0.075-0.049,0.147-0.062,0.224c-0.029,0.17-0.038,0.338-0.031,0.504v19.221
	C20.397,39.868,20.39,39.87,20.385,39.875z M21.402,41.24V22.504c0.683,0.556,1.642,0.89,2.766,0.89
	c1.061,0,2.257-0.311,3.471-0.971V41.24c0,1.146-0.529,1.908-3.115,1.908C21.933,43.148,21.402,42.386,21.402,41.24z M28.623,41.477
	c0.005-0.079,0.016-0.152,0.016-0.236V21.998c0-0.057-0.015-0.11-0.032-0.161l12.099-8.636v19.524L28.623,41.477z"/>
</svg>
