<?xml version="1.0" encoding="utf-8"?>
<!-- Generator: Adobe Illustrator 16.0.0, SVG Export Plug-In . SVG Version: 6.00 Build 0)  -->
<!DOCTYPE svg PUBLIC "-//W3C//DTD SVG 1.1//EN" "http://www.w3.org/Graphics/SVG/1.1/DTD/svg11.dtd">
<svg version="1.1" id="Layer_1" xmlns="http://www.w3.org/2000/svg" xmlns:xlink="http://www.w3.org/1999/xlink" x="0px" y="0px"
	 width="48px" height="48px" viewBox="0 0 48 48" enable-background="new 0 0 48 48" xml:space="preserve">
<path fill="#414042" d="M37.24,6.472c-0.005-0.041-0.012-0.079-0.024-0.118c-0.013-0.042-0.03-0.079-0.052-0.116
	c-0.01-0.019-0.013-0.04-0.025-0.057c-0.01-0.014-0.024-0.021-0.035-0.033c-0.027-0.033-0.059-0.06-0.092-0.086
	c-0.031-0.024-0.061-0.046-0.095-0.064c-0.033-0.017-0.067-0.028-0.104-0.039c-0.003-0.001-0.006-0.003-0.009-0.004
	c-0.144-0.087-0.319-0.12-0.496-0.067c-4.428,1.352-6.367,0.773-7.215,0.048c-1.002-0.858-0.823-2.195-0.815-2.251
	c0.05-0.333-0.179-0.644-0.512-0.695c-0.119-0.019-0.229,0.008-0.331,0.052c-0.192-0.082-0.418-0.074-0.598,0.059L15.04,11.73
	c-1.624,1.135-3.527,2.67-3.835,4.487c-0.035,0.208-0.047,0.414-0.038,0.617v25.222c0,3.562,3.667,3.562,5.048,3.562
	c0.897,0,2.758-0.007,3.95-0.99c0.003-0.002,0.007-0.003,0.01-0.005L37,32.439c0.159-0.115,0.253-0.3,0.253-0.496V6.537
	C37.253,6.514,37.242,6.495,37.24,6.472z M12.412,16.422c0.235-1.384,2.012-2.768,3.34-3.695l11.319-8.279
	c0.076,0.702,0.346,1.657,1.211,2.406c0.826,0.715,1.999,1.073,3.509,1.073c0.647,0,1.361-0.07,2.132-0.202L20.298,17.45
	c-3.484,2.357-6.558,1.593-7.525,0.352C12.449,17.354,12.331,16.902,12.412,16.422z M12.392,42.057V19.132
	c0.836,0.675,2.018,1.075,3.388,1.075c1.299,0,2.764-0.362,4.25-1.169v23.02c0,1.402-0.648,2.337-3.814,2.337
	C13.042,44.394,12.392,43.459,12.392,42.057z M21.235,42.344c0.006-0.096,0.019-0.186,0.019-0.287V18.496
	c0-0.069-0.018-0.133-0.04-0.196L36.028,7.727v23.904L21.235,42.344z"/>
</svg>
