<?xml version="1.0" encoding="utf-8"?>
<!-- Generator: Adobe Illustrator 16.0.0, SVG Export Plug-In . SVG Version: 6.00 Build 0)  -->
<!DOCTYPE svg PUBLIC "-//W3C//DTD SVG 1.1//EN" "http://www.w3.org/Graphics/SVG/1.1/DTD/svg11.dtd">
<svg version="1.1" id="Layer_1" xmlns="http://www.w3.org/2000/svg" xmlns:xlink="http://www.w3.org/1999/xlink" x="0px" y="0px"
	 width="48px" height="48px" viewBox="0 0 48 48" enable-background="new 0 0 48 48" xml:space="preserve">
<path fill="#414042" d="M23.689,13.605c-11.184,0-20.282,9.014-20.282,20.094c0,0.276,0.224,0.5,0.5,0.5
	c0.017,0,0.031-0.008,0.047-0.01c0.016,0.002,0.03,0.01,0.047,0.01h39.375c0.017,0,0.03-0.008,0.047-0.01
	c0.017,0.002,0.03,0.01,0.047,0.01c0.276,0,0.5-0.224,0.5-0.5C43.971,22.62,34.873,13.605,23.689,13.605z M13.839,17.315
	l2.098,3.611c0.093,0.16,0.26,0.249,0.433,0.249c0.085,0,0.172-0.022,0.25-0.068c0.239-0.139,0.32-0.444,0.181-0.683l-2.095-3.607
	c2.601-1.363,5.552-2.149,8.683-2.197l0.005,4.017c0,0.276,0.224,0.5,0.5,0.5h0c0.276,0,0.5-0.225,0.5-0.5l-0.005-3.996
	c3.113,0.111,6.042,0.94,8.613,2.351l-2.003,3.387c-0.141,0.238-0.062,0.544,0.176,0.685c0.08,0.047,0.168,0.07,0.255,0.07
	c0.171,0,0.337-0.088,0.431-0.246l1.998-3.38c2.546,1.574,4.69,3.714,6.261,6.249l-3.407,1.938c-0.24,0.137-0.324,0.441-0.188,0.682
	c0.092,0.162,0.261,0.253,0.435,0.253c0.084,0,0.169-0.021,0.247-0.065l3.436-1.954c1.409,2.565,2.222,5.489,2.304,8.59h-9.907
	c0.002-0.019,0.011-0.034,0.011-0.053c0-4.821-3.943-8.457-9.172-8.457c-5.126,0-9.143,3.734-9.169,8.51H4.433
	c0.084-3.195,0.956-6.197,2.443-8.818l3.736,2.254c0.081,0.049,0.17,0.072,0.258,0.072c0.169,0,0.334-0.086,0.429-0.241
	c0.143-0.237,0.066-0.544-0.17-0.687L7.4,23.528C9.023,20.988,11.23,18.859,13.839,17.315z M32.06,33.199H15.708
	c0.026-4.284,3.528-7.51,8.169-7.51c4.659,0,8.172,3.206,8.172,7.457C32.049,33.165,32.058,33.181,32.06,33.199z"/>
</svg>
