<?xml version="1.0" encoding="utf-8"?>
<!-- Generator: Adobe Illustrator 16.0.0, SVG Export Plug-In . SVG Version: 6.00 Build 0)  -->
<!DOCTYPE svg PUBLIC "-//W3C//DTD SVG 1.1//EN" "http://www.w3.org/Graphics/SVG/1.1/DTD/svg11.dtd">
<svg version="1.1" id="Layer_1" xmlns="http://www.w3.org/2000/svg" xmlns:xlink="http://www.w3.org/1999/xlink" x="0px" y="0px"
	 width="48px" height="48px" viewBox="0 0 48 48" enable-background="new 0 0 48 48" xml:space="preserve">
<g>
	<path fill="#414042" d="M43.135,43.229L5.932,3.888C5.791,3.739,5.573,3.691,5.383,3.767c-0.19,0.076-0.315,0.26-0.315,0.464
		v39.342c0,0.276,0.224,0.5,0.5,0.5h37.203c0.199,0,0.38-0.119,0.459-0.302C43.31,43.588,43.271,43.375,43.135,43.229z
		 M32.555,43.073c0.002-0.021,0.012-0.039,0.012-0.061l-0.021-3.047c-0.002-0.274-0.226-0.496-0.5-0.496c-0.001,0-0.002,0-0.004,0
		c-0.275,0.002-0.498,0.228-0.496,0.504l0.021,3.047c0,0.019,0.009,0.034,0.011,0.053h-6.021c0.002-0.021,0.012-0.039,0.012-0.061
		l-0.021-3.045c-0.002-0.274-0.226-0.496-0.5-0.496c-0.001,0-0.002,0-0.004,0c-0.276,0.002-0.498,0.228-0.496,0.504l0.021,3.045
		c0,0.019,0.009,0.034,0.011,0.053h-6.022c0.002-0.021,0.012-0.039,0.012-0.061l-0.021-3.047c-0.002-0.275-0.249-0.463-0.503-0.496
		c-0.276,0.002-0.499,0.228-0.497,0.504l0.021,3.047c0,0.019,0.009,0.034,0.011,0.053H6.068V38.87h2.875c0.276,0,0.5-0.224,0.5-0.5
		s-0.224-0.5-0.5-0.5H6.068v-6h2.875c0.276,0,0.5-0.224,0.5-0.5s-0.224-0.5-0.5-0.5H6.068v-6h2.875c0.276,0,0.5-0.224,0.5-0.5
		s-0.224-0.5-0.5-0.5H6.068v-6h2.875c0.276,0,0.5-0.224,0.5-0.5s-0.224-0.5-0.5-0.5H6.068V5.488L41.61,43.073H32.555z"/>
	<path fill="#414042" d="M14.479,34.28h11.986c0.199,0,0.38-0.119,0.459-0.302c0.079-0.184,0.042-0.396-0.096-0.542L14.842,20.761
		c-0.141-0.148-0.358-0.197-0.548-0.121c-0.19,0.076-0.315,0.26-0.315,0.464V33.78C13.979,34.057,14.202,34.28,14.479,34.28z
		 M14.979,22.361L25.304,33.28H14.979V22.361z"/>
</g>
</svg>
