<?xml version="1.0" encoding="utf-8"?>
<!-- Generator: Adobe Illustrator 16.0.0, SVG Export Plug-In . SVG Version: 6.00 Build 0)  -->
<!DOCTYPE svg PUBLIC "-//W3C//DTD SVG 1.1//EN" "http://www.w3.org/Graphics/SVG/1.1/DTD/svg11.dtd">
<svg version="1.1" id="Layer_1" xmlns="http://www.w3.org/2000/svg" xmlns:xlink="http://www.w3.org/1999/xlink" x="0px" y="0px"
	 width="48px" height="48px" viewBox="0 0 48 48" enable-background="new 0 0 48 48" xml:space="preserve">
<g>
	<path fill="#414042" d="M36.166,20.544l-8.518-0.125l-3.198-8.167C24.375,12.061,24.19,12,23.984,12c-0.001,0-0.003,0-0.004,0
		c-0.208,0-0.393,0.066-0.465,0.261l-3.054,8.207l-8.495,0.308c-0.211,0.007-0.396,0.147-0.459,0.35s0.007,0.422,0.176,0.549
		l6.817,5.134l-2.24,8.502c-0.054,0.204,0.027,0.422,0.203,0.541c0.085,0.058,0.183,0.086,0.281,0.086
		c0.104,0,0.208-0.006,0.297-0.071l7.14-5.237l7.213,5.173C31.48,35.863,31.582,36,31.684,36c0.007,0,0.015,0,0.02,0
		c0.276,0,0.5-0.33,0.5-0.605c0-0.098-0.027-0.293-0.074-0.37l-2.361-8.344l6.699-5.256c0.167-0.131,0.232-0.348,0.165-0.548
		C36.564,20.676,36.378,20.547,36.166,20.544z M28.887,26.099c-0.159,0.125-0.228,0.335-0.173,0.529l2.103,7.431l-6.351-4.508
		c-0.176-0.125-0.413-0.122-0.586,0.006l-6.29,4.637l1.965-7.455c0.052-0.196-0.021-0.404-0.183-0.526l-5.96-4.488l7.421-0.27
		c0.203-0.007,0.381-0.136,0.451-0.326l2.713-7.351l2.842,7.285c0.074,0.189,0.255,0.315,0.458,0.318l7.444,0.123L28.887,26.099z"/>
	<path fill="#414042" d="M23.65,1.693c-12.245,0-22.208,9.963-22.208,22.209s9.962,22.209,22.208,22.209
		c12.246,0,22.209-9.963,22.209-22.209S35.896,1.693,23.65,1.693z M23.65,45.111c-11.694,0-21.208-9.515-21.208-21.209
		c0-11.695,9.514-21.209,21.208-21.209c11.694,0,21.209,9.514,21.209,21.209C44.859,35.597,35.345,45.111,23.65,45.111z"/>
</g>
</svg>
