<?xml version="1.0" encoding="utf-8"?>
<!-- Generator: Adobe Illustrator 16.0.0, SVG Export Plug-In . SVG Version: 6.00 Build 0)  -->
<!DOCTYPE svg PUBLIC "-//W3C//DTD SVG 1.1//EN" "http://www.w3.org/Graphics/SVG/1.1/DTD/svg11.dtd">
<svg version="1.1" id="Layer_1" xmlns="http://www.w3.org/2000/svg" xmlns:xlink="http://www.w3.org/1999/xlink" x="0px" y="0px"
	 width="48px" height="48px" viewBox="0 0 48 48" enable-background="new 0 0 48 48" xml:space="preserve">
<g>
	<path fill="#414042" d="M31.692,28.574L26.38,28.48l-1.996-5.132C24.309,23.157,24.124,23,23.918,23c-0.001,0-0.003,0-0.004,0
		c-0.208,0-0.393,0.162-0.465,0.357l-1.904,5.192l-5.298,0.19c-0.211,0.008-0.396,0.148-0.459,0.35
		c-0.063,0.202,0.007,0.423,0.176,0.55l4.252,3.202l-1.4,5.306c-0.054,0.205,0.027,0.422,0.202,0.541
		c0.085,0.059,0.183,0.087,0.281,0.087c0.104,0,0.208,0.008,0.297-0.058l4.449-3.239l4.496,3.27C28.627,38.81,28.729,39,28.83,39
		c0.008,0,0.016,0,0.02,0c0.276,0,0.5-0.384,0.5-0.66c0-0.097-0.027-0.348-0.074-0.424l-1.461-5.162l4.179-3.28
		c0.167-0.131,0.232-0.354,0.165-0.555C32.091,28.718,31.904,28.578,31.692,28.574z M26.934,32.175
		c-0.159,0.125-0.228,0.335-0.173,0.529l1.202,4.247l-3.635-2.578c-0.176-0.126-0.412-0.122-0.586,0.006l-3.598,2.652l1.124-4.259
		c0.052-0.197-0.021-0.405-0.183-0.527l-3.394-2.556l4.224-0.152c0.203-0.008,0.381-0.137,0.451-0.327l1.564-4.24l1.639,4.202
		c0.074,0.189,0.255,0.315,0.458,0.318l4.238,0.068L26.934,32.175z"/>
	<path fill="#414042" d="M46.861,2.621c-0.087-0.165-0.257-0.268-0.443-0.268h-9.826c-0.188,0-0.358,0.104-0.444,0.271L28.32,17.815
		c-1.382-0.444-2.852-0.688-4.379-0.688c-1.445,0-2.838,0.219-4.155,0.619L12.12,2.262c-0.084-0.17-0.258-0.278-0.448-0.278H1.846
		c-0.184,0-0.353,0.101-0.44,0.263C1.318,2.409,1.327,2.605,1.429,2.759l12.32,18.632c-2.565,2.593-4.154,6.154-4.154,10.081
		c0,7.912,6.436,14.35,14.347,14.35c7.912,0,14.35-6.438,14.35-14.35c0-3.923-1.587-7.481-4.148-10.073L46.828,3.138
		C46.935,2.985,46.947,2.786,46.861,2.621z M11.361,2.983l7.476,15.099c-1.607,0.614-3.073,1.506-4.344,2.622L2.776,2.983H11.361z
		 M23.941,44.821c-7.359,0-13.347-5.988-13.347-13.35c0-7.358,5.987-13.345,13.347-13.345c7.361,0,13.35,5.986,13.35,13.345
		C37.291,38.833,31.303,44.821,23.941,44.821z M33.401,20.714c-1.216-1.07-2.608-1.939-4.136-2.552l7.631-14.81h8.565L33.401,20.714
		z"/>
</g>
</svg>
