<?xml version="1.0" encoding="utf-8"?>
<!-- Generator: Adobe Illustrator 16.0.0, SVG Export Plug-In . SVG Version: 6.00 Build 0)  -->
<!DOCTYPE svg PUBLIC "-//W3C//DTD SVG 1.1//EN" "http://www.w3.org/Graphics/SVG/1.1/DTD/svg11.dtd">
<svg version="1.1" id="Layer_1" xmlns="http://www.w3.org/2000/svg" xmlns:xlink="http://www.w3.org/1999/xlink" x="0px" y="0px"
	 width="48px" height="48px" viewBox="0 0 48 48" enable-background="new 0 0 48 48" xml:space="preserve">
<g>
	<path fill="#414042" d="M31.852,15.25l-6.4-0.106L23.047,8.98c-0.075-0.193-0.289-0.333-0.47-0.318
		c-0.208,0.002-0.393,0.132-0.465,0.327l-2.294,6.218l-6.384,0.23c-0.211,0.007-0.396,0.147-0.459,0.35
		c-0.063,0.202,0.007,0.422,0.176,0.549l5.123,3.86l-1.683,6.389c-0.054,0.205,0.027,0.422,0.203,0.541
		c0.085,0.058,0.183,0.086,0.281,0.086c0.104,0,0.209-0.045,0.297-0.109l5.36-3.968l5.417,3.821C28.234,27.019,28.336,27,28.438,27
		c0.007,0,0.015,0,0.02,0c0.276,0,0.5-0.175,0.5-0.451c0-0.097-0.027-0.138-0.074-0.215l-1.766-6.239l5.035-3.951
		c0.167-0.131,0.232-0.352,0.165-0.553S32.063,15.253,31.852,15.25z M26.236,19.515c-0.159,0.125-0.228,0.334-0.173,0.53
		l1.507,5.325l-4.555-3.234c-0.177-0.125-0.412-0.123-0.586,0.005l-4.509,3.327l1.407-5.34c0.052-0.196-0.021-0.405-0.183-0.527
		l-4.265-3.214l5.311-0.191c0.203-0.007,0.381-0.136,0.451-0.327l1.954-5.297l2.047,5.249c0.074,0.189,0.254,0.315,0.458,0.318
		l5.327,0.088L26.236,19.515z"/>
	<path fill="#414042" d="M35.583,29.487c3.131-3.088,5.077-7.373,5.077-12.106C40.66,8,33.027,0.367,23.645,0.367
		C14.262,0.367,6.629,8,6.629,17.381c0,4.676,1.897,8.916,4.96,11.994L6.592,44.452c-0.063,0.192-0.005,0.403,0.148,0.536
		c0.153,0.132,0.37,0.157,0.552,0.067l6.807-3.438l3.258,5.572c0.09,0.155,0.256,0.248,0.432,0.248c0.024,0,0.049-0.002,0.074-0.006
		c0.202-0.029,0.366-0.18,0.413-0.379l3.047-12.834c0.762,0.104,1.533,0.178,2.323,0.178c0.807,0,1.594-0.076,2.37-0.185
		l2.937,12.837c0.046,0.2,0.209,0.352,0.411,0.383c0.025,0.004,0.051,0.006,0.076,0.006c0.176,0,0.341-0.093,0.432-0.248
		l3.258-5.572l6.807,3.438c0.18,0.091,0.399,0.063,0.553-0.068c0.153-0.133,0.212-0.346,0.146-0.538L35.583,29.487z M17.59,45.607
		l-2.865-4.9c-0.134-0.229-0.422-0.313-0.657-0.194l-6.146,3.104l4.476-13.502c2.212,1.957,4.926,3.355,7.933,3.952L17.59,45.607z
		 M7.629,17.381c0-8.83,7.185-16.014,16.016-16.014S39.66,8.551,39.66,17.381c0,8.831-7.185,16.016-16.016,16.016
		S7.629,26.212,7.629,17.381z M33.159,40.513c-0.236-0.119-0.523-0.036-0.657,0.194l-2.857,4.888L27.006,34.06
		c2.935-0.59,5.59-1.946,7.77-3.838l4.521,13.391L33.159,40.513z"/>
</g>
</svg>
