<?xml version="1.0" encoding="utf-8"?>
<!-- Generator: Adobe Illustrator 16.0.0, SVG Export Plug-In . SVG Version: 6.00 Build 0)  -->
<!DOCTYPE svg PUBLIC "-//W3C//DTD SVG 1.1//EN" "http://www.w3.org/Graphics/SVG/1.1/DTD/svg11.dtd">
<svg version="1.1" id="Layer_1" xmlns="http://www.w3.org/2000/svg" xmlns:xlink="http://www.w3.org/1999/xlink" x="0px" y="0px"
	 width="48px" height="48px" viewBox="0 0 48 48" enable-background="new 0 0 48 48" xml:space="preserve">
<g>
	<path fill="#414042" d="M31.956,29.982l-5.669-0.109l-2.132-5.492C24.08,24.188,23.896,24,23.689,24c-0.001,0-0.003,0-0.005,0
		c-0.208,0-0.393,0.195-0.464,0.39l-2.032,5.574l-5.652,0.202c-0.211,0.008-0.396,0.148-0.459,0.35
		c-0.063,0.202,0.007,0.423,0.176,0.55l4.538,3.417l-1.492,5.662c-0.054,0.205,0.027,0.422,0.203,0.541
		c0.085,0.058,0.183,0.086,0.281,0.086c0.104,0,0.208,0.009,0.297-0.057l4.747-3.461l4.799,3.489C28.711,40.805,28.813,41,28.914,41
		c0.007,0,0.015,0,0.02,0c0.276,0,0.5-0.389,0.5-0.666c0-0.096-0.027-0.352-0.074-0.429l-1.561-5.516l4.458-3.502
		c0.167-0.131,0.232-0.356,0.165-0.557C32.354,30.13,32.168,29.986,31.956,29.982z M26.918,33.812
		c-0.159,0.125-0.228,0.335-0.173,0.529l1.302,4.601l-3.937-2.795c-0.176-0.125-0.413-0.123-0.586,0.006l-3.896,2.874l1.215-4.614
		c0.052-0.196-0.021-0.404-0.183-0.526l-3.679-2.771l4.578-0.164c0.203-0.008,0.381-0.137,0.451-0.327l1.692-4.59l1.775,4.546
		c0.074,0.189,0.255,0.314,0.458,0.318l4.596,0.076L26.918,33.812z"/>
	<path fill="#414042" d="M26.088,16.839l12.372-4.344c0.2-0.07,0.334-0.259,0.334-0.472V1.162c0-0.276-0.224-0.5-0.5-0.5
		s-0.5,0.224-0.5,0.5v10.507l-13.688,4.807V1.162c0-0.276-0.224-0.5-0.5-0.5s-0.5,0.224-0.5,0.5v15.321l-12.712-4.805V1.162
		c0-0.276-0.224-0.5-0.5-0.5s-0.5,0.224-0.5,0.5v10.861c0,0.208,0.129,0.394,0.323,0.468l11.757,4.444
		c-7.147,1.248-12.603,7.482-12.603,14.982c0,8.395,6.829,15.225,15.223,15.225c8.395,0,15.224-6.83,15.224-15.225
		C39.317,24.2,33.541,17.821,26.088,16.839z M24.094,46.143c-7.842,0-14.223-6.381-14.223-14.225c0-7.843,6.38-14.225,14.223-14.225
		c7.843,0,14.224,6.381,14.224,14.225C38.317,39.762,31.937,46.143,24.094,46.143z"/>
</g>
</svg>
