<?xml version="1.0" encoding="utf-8"?>
<!-- Generator: Adobe Illustrator 16.0.0, SVG Export Plug-In . SVG Version: 6.00 Build 0)  -->
<!DOCTYPE svg PUBLIC "-//W3C//DTD SVG 1.1//EN" "http://www.w3.org/Graphics/SVG/1.1/DTD/svg11.dtd">
<svg version="1.1" id="Layer_1" xmlns="http://www.w3.org/2000/svg" xmlns:xlink="http://www.w3.org/1999/xlink" x="0px" y="0px"
	 width="48px" height="48px" viewBox="0 0 48 48" enable-background="new 0 0 48 48" xml:space="preserve">
<g>
	<path fill="#414042" d="M15.842,15.99H31.31c0.276,0,0.5-0.224,0.5-0.5s-0.224-0.5-0.5-0.5H15.842c-0.276,0-0.5,0.224-0.5,0.5
		S15.565,15.99,15.842,15.99z"/>
	<path fill="#414042" d="M15.842,10.477H31.31c0.276,0,0.5-0.224,0.5-0.5s-0.224-0.5-0.5-0.5H15.842c-0.276,0-0.5,0.224-0.5,0.5
		S15.565,10.477,15.842,10.477z"/>
	<path fill="#414042" d="M15.842,21.506H31.31c0.276,0,0.5-0.224,0.5-0.5s-0.224-0.5-0.5-0.5H15.842c-0.276,0-0.5,0.224-0.5,0.5
		S15.565,21.506,15.842,21.506z"/>
	<path fill="#414042" d="M15.842,27.02h3.24c0.276,0,0.5-0.224,0.5-0.5s-0.224-0.5-0.5-0.5h-3.24c-0.276,0-0.5,0.224-0.5,0.5
		S15.565,27.02,15.842,27.02z"/>
	<path fill="#414042" d="M36.652,3.432H10.498c-0.276,0-0.5,0.224-0.5,0.5v31.939c0,0.276,0.224,0.5,0.5,0.5h11.36l-2.103,6.285
		c-0.064,0.191-0.006,0.404,0.147,0.536c0.153,0.132,0.372,0.159,0.553,0.068l2.866-1.448l1.352,2.313
		c0.103,0.177,0.299,0.273,0.507,0.242c0.202-0.03,0.365-0.182,0.412-0.381l1.504-6.465c0.216,0.019,0.433,0.033,0.652,0.033
		c0.248,0,0.493-0.014,0.734-0.037l1.432,6.464c0.045,0.2,0.208,0.354,0.411,0.386c0.025,0.004,0.052,0.006,0.077,0.006
		c0.176,0,0.341-0.093,0.432-0.248l1.353-2.313l2.866,1.448c0.18,0.091,0.399,0.066,0.553-0.068
		c0.153-0.132,0.211-0.344,0.147-0.536l-2.1-6.285h2.999c0.276,0,0.5-0.224,0.5-0.5V3.932C37.152,3.655,36.929,3.432,36.652,3.432z
		 M24.902,42.536l-0.955-1.634c-0.093-0.159-0.26-0.248-0.432-0.248c-0.076,0-0.153,0.018-0.225,0.054l-2.201,1.111l1.938-5.79
		c0.014-0.04,0.008-0.082,0.011-0.123c0.884,0.702,1.927,1.211,3.066,1.464L24.902,42.536z M26.787,36.477
		c-3.18-0.468-5.632-3.206-5.632-6.514c0-3.636,2.958-6.594,6.593-6.594c3.636,0,6.594,2.958,6.594,6.594
		c0,3.308-2.452,6.046-5.633,6.514H26.787z M34.419,41.82l-2.201-1.112c-0.236-0.118-0.523-0.036-0.657,0.194l-0.946,1.617
		l-1.145-5.169c1.115-0.26,2.136-0.763,3.003-1.455c0.003,0.045-0.003,0.09,0.012,0.134L34.419,41.82z M36.152,35.371h-3.084
		c1.401-1.378,2.273-3.292,2.273-5.408c0-4.188-3.406-7.594-7.594-7.594c-4.187,0-7.593,3.406-7.593,7.594
		c0,2.116,0.872,4.03,2.273,5.408h-11.43V4.432h25.154V35.371z"/>
	<path fill="#414042" d="M31.53,28.643L28.972,28.6l-0.963-2.469c-0.075-0.192-0.26-0.318-0.466-0.318c-0.002,0-0.003,0-0.005,0
		c-0.207,0.002-0.393,0.132-0.464,0.327l-0.92,2.492l-2.551,0.091c-0.211,0.008-0.395,0.147-0.459,0.35
		c-0.063,0.202,0.007,0.422,0.176,0.55l2.047,1.544l-0.673,2.559c-0.054,0.205,0.027,0.422,0.203,0.541
		c0.085,0.058,0.183,0.086,0.281,0.086c0.104,0,0.209-0.032,0.297-0.098l2.136-1.576l2.159,1.531c0.173,0.122,0.404,0.123,0.577,0
		c0.174-0.122,0.251-0.341,0.193-0.545l-0.724-2.55l2.014-1.578c0.166-0.131,0.232-0.352,0.165-0.553S31.741,28.646,31.53,28.643z
		 M28.936,30.534c-0.159,0.125-0.228,0.335-0.173,0.53l0.428,1.508l-1.297-0.92c-0.176-0.125-0.412-0.123-0.586,0.006l-1.286,0.949
		l0.397-1.512c0.052-0.196-0.021-0.404-0.183-0.526l-1.189-0.897l1.478-0.053c0.203-0.008,0.381-0.137,0.451-0.327l0.58-1.57
		l0.606,1.554c0.074,0.189,0.255,0.314,0.457,0.318l1.484,0.025L28.936,30.534z"/>
</g>
</svg>
