<?xml version="1.0" encoding="utf-8"?>
<!-- Generator: Adobe Illustrator 16.0.0, SVG Export Plug-In . SVG Version: 6.00 Build 0)  -->
<!DOCTYPE svg PUBLIC "-//W3C//DTD SVG 1.1//EN" "http://www.w3.org/Graphics/SVG/1.1/DTD/svg11.dtd">
<svg version="1.1" id="Layer_1" xmlns="http://www.w3.org/2000/svg" xmlns:xlink="http://www.w3.org/1999/xlink" x="0px" y="0px"
	 width="48px" height="48px" viewBox="0 0 48 48" enable-background="new 0 0 48 48" xml:space="preserve">
<path fill="#414042" d="M41.169,7.892c-0.577-2.194-1.928-3.504-3.613-3.504H10.227c-1.984,0-3.428,1.855-3.62,3.533L3.597,22.98
	c0,2.002,1.628,3.631,3.63,3.631h9.377L10.237,42.93c-0.101,0.257,0.027,0.547,0.284,0.647c0.06,0.023,0.121,0.034,0.182,0.034
	c0.2,0,0.389-0.121,0.466-0.318l3.902-10.002c0.013,0.001,0.023,0.008,0.037,0.008H32.75l3.861,9.993
	c0.077,0.198,0.267,0.319,0.467,0.319c0.06,0,0.121-0.011,0.181-0.033c0.257-0.1,0.386-0.39,0.286-0.647l-6.307-16.319h9.317
	c2.002,0,3.63-1.629,3.62-3.729L41.169,7.892z M32.363,32.299H15.458l2.219-5.688h12.489L32.363,32.299z M40.556,25.611H7.227
	c-1.45,0-2.63-1.18-2.64-2.533L7.593,8.077c0.15-1.298,1.245-2.688,2.633-2.688h27.329c1.782,0,2.477,2.111,2.64,2.729l2.99,14.863
	C43.186,24.431,42.006,25.611,40.556,25.611z"/>
</svg>
