<?xml version="1.0" encoding="utf-8"?>
<!-- Generator: Adobe Illustrator 16.0.0, SVG Export Plug-In . SVG Version: 6.00 Build 0)  -->
<!DOCTYPE svg PUBLIC "-//W3C//DTD SVG 1.1//EN" "http://www.w3.org/Graphics/SVG/1.1/DTD/svg11.dtd">
<svg version="1.1" id="Layer_1" xmlns="http://www.w3.org/2000/svg" xmlns:xlink="http://www.w3.org/1999/xlink" x="0px" y="0px"
	 width="48px" height="48px" viewBox="0 0 48 48" enable-background="new 0 0 48 48" xml:space="preserve">
<path fill="#414042" d="M45.43,36.036c-0.279-1.194-0.674-5.037-0.709-5.384v-6.379c0-0.222-0.146-0.418-0.36-0.48l-4.878-1.423
	l3.966-1.373c0.715-0.174,1.213-0.698,1.269-1.335c0.052-0.583-0.288-1.125-0.896-1.39l-16.859-6.13
	c-1.25-0.526-2.501-0.793-3.719-0.793c-1.524,0-2.671,0.41-3.358,0.655L4.917,17.423c-2.135,0.728-2.557,1.578-2.535,2.163
	c0.031,0.824,0.912,1.468,2.585,1.901l5.293,1.794v8.234c0,0.055,0.009,0.109,0.027,0.161c0.046,0.137,1.208,3.348,7.379,3.89
	l12.986-0.006c0.183-0.028,4.479-0.724,5.93-3.901c0.029-0.065,0.045-0.137,0.045-0.208v-8.093l1.222-0.423l5.872,1.713l0.001,5.999
	c0,0.003,0,0.006-0.001,0.009c-0.011,0.188-0.235,3.81-0.675,5.357c-0.042,0.151-0.012,0.313,0.083,0.438
	c0.094,0.125,0.242,0.198,0.398,0.198h1.416c0.152,0,0.297-0.069,0.392-0.189C45.43,36.342,45.465,36.185,45.43,36.036z
	 M35.627,31.339c-1.273,2.604-5.088,3.228-5.051,3.228L17.71,34.568c-5.018-0.442-6.261-2.725-6.45-3.149V23.62l8.498,2.88
	c1.574,0.563,2.741,0.803,3.9,0.803c0.973,0,1.968-0.171,3.143-0.543l8.827-3.055V31.339z M26.486,25.811
	c-2.333,0.738-3.706,0.708-6.4-0.255L5.253,20.53c-1.466-0.381-1.866-0.809-1.872-0.981c-0.005-0.149,0.317-0.653,1.868-1.182
	l14.975-5.421c0.624-0.223,1.668-0.596,3.02-0.596c1.084,0,2.205,0.241,3.354,0.724L43.449,19.2
	c0.187,0.082,0.285,0.218,0.271,0.375c-0.014,0.162-0.155,0.365-0.554,0.464l-5.341,1.848l-12.887-3.76
	c-0.266-0.078-0.543,0.075-0.62,0.34s0.075,0.543,0.34,0.62l11.534,3.365L26.486,25.811z M44.16,35.65
	c0.032-0.163,0.064-0.334,0.094-0.512c0.028,0.181,0.056,0.354,0.082,0.512H44.16z"/>
</svg>
