<?xml version="1.0" encoding="utf-8"?>
<!-- Generator: Adobe Illustrator 16.0.0, SVG Export Plug-In . SVG Version: 6.00 Build 0)  -->
<!DOCTYPE svg PUBLIC "-//W3C//DTD SVG 1.1//EN" "http://www.w3.org/Graphics/SVG/1.1/DTD/svg11.dtd">
<svg version="1.1" id="Layer_1" xmlns="http://www.w3.org/2000/svg" xmlns:xlink="http://www.w3.org/1999/xlink" x="0px" y="0px"
	 width="48px" height="48px" viewBox="0 0 48 48" enable-background="new 0 0 48 48" xml:space="preserve">
<path fill="#414042" d="M41.948,9.596c-1.096-2.519-3.811-4.492-6.18-4.492c-1.13,0-2.146,0.436-2.939,1.26
	c-1.276,1.328-1.854,1.975-1.854,1.975c-0.009,0.01-0.018,0.021-0.026,0.032l-2.602,2.775c-0.008,0.008-0.02,0.011-0.027,0.02
	L6.854,34.021c-0.054,0.058-0.087,0.125-0.109,0.196c-0.001,0.006-0.007,0.01-0.009,0.016L3.47,46.265
	c-0.05,0.185,0.01,0.382,0.154,0.508c0.093,0.081,0.21,0.123,0.329,0.123c0.066,0,0.133-0.013,0.196-0.04l11.06-4.708
	c0.063-0.026,0.122-0.065,0.171-0.118l21.469-22.86l2.662-2.835c0,0,0.546-0.566,1.846-1.965
	C42.512,13.126,42.729,11.387,41.948,9.596z M28.706,12.213l1.851,1.737L9.776,36.081l-1.851-1.738L28.706,12.213z M10.505,36.766
	l20.78-22.131l1.763,1.654l-20.78,22.132L10.505,36.766z M7.483,35.299l6.63,6.228l-9.409,4.005L7.483,35.299z M14.993,40.98
	l-1.997-1.876l20.782-22.132l1.999,1.876L14.993,40.98z M40.623,13.688c-1.288,1.387-1.831,1.95-1.838,1.957l-2.324,2.475
	l-7.064-6.634l2.319-2.474c0.016-0.016,0.028-0.032,0.041-0.049c0.144-0.159,0.717-0.788,1.793-1.907
	c0.608-0.632,1.355-0.953,2.219-0.953c1.968,0,4.329,1.746,5.263,3.891C41.393,10.823,41.818,12.404,40.623,13.688z"/>
</svg>
