<?xml version="1.0" encoding="utf-8"?>
<!-- Generator: Adobe Illustrator 16.0.0, SVG Export Plug-In . SVG Version: 6.00 Build 0)  -->
<!DOCTYPE svg PUBLIC "-//W3C//DTD SVG 1.1//EN" "http://www.w3.org/Graphics/SVG/1.1/DTD/svg11.dtd">
<svg version="1.1" id="Layer_1" xmlns="http://www.w3.org/2000/svg" xmlns:xlink="http://www.w3.org/1999/xlink" x="0px" y="0px"
	 width="48px" height="48px" viewBox="0 0 48 48" enable-background="new 0 0 48 48" xml:space="preserve">
<g>
	<path fill="#414042" d="M11.129,31.133c0.029,0.027,0.051,0.059,0.085,0.078c2.871,2.542,6.631,4.1,10.758,4.1
		c8.967,0,16.263-7.294,16.263-16.259c0-8.969-7.296-16.266-16.263-16.266c-8.966,0-16.261,7.297-16.261,16.266
		C5.711,23.849,7.813,28.154,11.129,31.133z M21.973,34.311c-3.877,0-7.41-1.465-10.104-3.854c-0.139-0.355-0.152-0.688-0.026-1.013
		c0.373-0.96,1.737-1.534,1.777-1.552c2.098-1.008,2.418-2.827,2.41-2.827c0.153-0.435,0.095-0.848-0.163-1.163
		c-0.728-0.888-2.934-0.716-3.813-0.608c-1.292-0.729-2.743-3.622-3.257-4.822v-7.086c0.376-0.645,0.794-1.262,1.257-1.843
		c0.279,2.195,1.262,8.915,3.011,10.281c0.064,0.043,0.653,0.426,1.718,0.426c1.107,0,2.878-0.441,5.015-2.516
		c0.11-0.056,0.198-0.147,0.237-0.268c0.084-0.263-0.019-0.525-0.282-0.609c-0.554-0.335-3.496-2.728-3.433-3.773
		c0.004-0.063,0.012-0.194,0.297-0.323c0.188-0.085,0.448-0.219,0.734-0.368c0.356-0.185,1.02-0.529,1.398-0.667
		c0.231,0.546,0.715,1.11,1.186,1.658c0.313,0.364,0.608,0.708,0.744,0.955c0.046,0.084,0.116,0.153,0.2,0.199l3.396,1.834
		c0.316,0.195,0.805,0.348,1.323,0.229c0.071,0.399,0.201,0.965,0.438,1.754c0.007,0.033,0.684,3.21,1.57,4.369
		c0.119,0.371,0.417,1.018,1.034,1.018c0.592,0,0.925-0.629,0.98-0.753c0.012-0.015,1.142-1.512,0.847-3.583
		c0.095-0.163,0.547-0.777,2.511-2.164c0.026-0.019,0.062-0.051,0.084-0.074c0.03-0.032,0.059-0.073,0.08-0.111
		c0.081-0.148,0.467-0.703,0.862-0.703c0.302,0,0.608,0.319,0.769,0.519c1.042,1.952,1.852,2.973,2.416,3.057
		C36.732,27.934,30.093,34.311,21.973,34.311z M18.449,5.409c-0.124,0.05-0.227,0.15-0.278,0.284l-0.132,0.344
		c-0.092,0.24-0.018,0.492,0.212,0.606c0.09,0.061,0.294,0.246,0.31,0.391c0.009,0.1-0.065,0.209-0.145,0.297
		c-0.37,0.16-1.625,0.638-2.53,0.638c-0.223,0-0.398-0.028-0.525-0.084c0.276-0.284,0.57-0.731,0.554-1.342
		c-0.001-0.03-0.007-0.073-0.014-0.103c-0.084-0.403-0.221-0.843-0.434-1.178c0.804-0.381,1.644-0.693,2.517-0.93
		C18.062,4.659,18.195,5.058,18.449,5.409z M14.563,5.716c0.07,0.063,0.228,0.334,0.353,0.894c-0.014,0.48-0.503,0.77-0.509,0.772
		c-0.206,0.12-0.299,0.367-0.223,0.592c0.125,0.372,0.513,0.995,1.702,0.995c1.333,0,3.024-0.764,3.041-0.771
		c0.046-0.023,0.088-0.052,0.125-0.088c0.463-0.443,0.53-0.877,0.504-1.175c-0.029-0.264-0.143-0.489-0.277-0.668
		c0.154-0.079,0.309-0.193,0.463-0.344c0.119-0.116,0.172-0.284,0.142-0.448c-0.03-0.164-0.139-0.301-0.292-0.368
		c-0.354-0.154-0.548-0.626-0.64-1.019c0.977-0.197,1.986-0.303,3.02-0.303c8.339,0,15.127,6.725,15.251,15.036
		c-0.4-0.436-1.156-1.65-1.609-2.489c-0.496-0.65-1.037-0.979-1.607-0.979c-0.883,0-1.479,0.805-1.68,1.125
		c-2.755,1.955-2.969,2.656-2.86,2.98c0.273,1.655-0.623,2.9-0.673,2.978c-0.054,0.101-0.1,0.172-0.132,0.219
		c-0.043-0.079-0.09-0.19-0.122-0.306c-0.02-0.07-0.054-0.135-0.102-0.191c-0.595-0.695-1.25-3.182-1.432-4.05
		c-0.456-1.533-0.487-2.095-0.485-2.231c0.002-0.186-0.099-0.357-0.263-0.445c-0.162-0.088-0.361-0.079-0.516,0.025
		c-0.327,0.218-0.649,0.212-0.869,0.101c-0.015-0.01-0.031-0.02-0.047-0.029l-0.046-0.025c-0.116-0.075-0.195-0.161-0.228-0.197
		c-0.112-0.118-0.268-0.171-0.417-0.151l-2.658-1.436c-0.192-0.304-0.48-0.639-0.783-0.991c-0.447-0.521-1.003-1.168-1.077-1.566
		c-0.03-0.155-0.188-0.362-0.331-0.431c-0.426-0.208-1.027,0.06-2.396,0.77c-0.268,0.139-0.51,0.265-0.686,0.344
		c-0.604,0.272-0.918,0.751-0.884,1.348c0.082,1.412,2.29,3.327,3.414,4.161c-3.187,2.853-5.072,1.658-5.083,1.659
		c-1.288-1.01-2.357-7.275-2.682-10.213c0.003-0.082-0.022-0.162-0.061-0.238C11.977,7.441,13.203,6.476,14.563,5.716z
		 M7.797,13.431v5.142c0,0.066,0.013,0.132,0.039,0.193c0.196,0.468,1.97,4.598,3.92,5.498c0.086,0.04,0.184,0.055,0.278,0.041
		c1.246-0.173,2.772-0.122,3.059,0.23c0.013,0.016,0.044,0.054-0.028,0.281c-0.01,0.057-0.264,1.399-1.852,2.163
		c-0.072,0.029-1.77,0.738-2.301,2.099c-0.045,0.115-0.071,0.232-0.097,0.35c-2.537-2.726-4.103-6.367-4.103-10.375
		C6.711,17.065,7.104,15.172,7.797,13.431z"/>
	<path fill="#414042" d="M42.238,19.048c0-5.479-2.154-10.613-6.065-14.456c-0.198-0.193-0.515-0.191-0.707,0.006
		c-0.193,0.197-0.191,0.514,0.006,0.707c3.719,3.654,5.767,8.535,5.767,13.743c0,10.623-8.642,19.264-19.264,19.264
		c-4.895,0-9.562-1.838-13.141-5.175c-0.201-0.188-0.518-0.177-0.707,0.024c-0.188,0.202-0.177,0.519,0.025,0.706
		c3.641,3.396,8.356,5.299,13.32,5.421v4.924h-6.396c-0.276,0-0.5,0.224-0.5,0.5s0.224,0.5,0.5,0.5H28.87c0.276,0,0.5-0.224,0.5-0.5
		s-0.224-0.5-0.5-0.5h-6.397v-4.926C33.415,39.02,42.238,30.054,42.238,19.048z"/>
</g>
</svg>
