<?xml version="1.0" encoding="utf-8"?>
<!-- Generator: Adobe Illustrator 16.0.0, SVG Export Plug-In . SVG Version: 6.00 Build 0)  -->
<!DOCTYPE svg PUBLIC "-//W3C//DTD SVG 1.1//EN" "http://www.w3.org/Graphics/SVG/1.1/DTD/svg11.dtd">
<svg version="1.1" id="Layer_1" xmlns="http://www.w3.org/2000/svg" xmlns:xlink="http://www.w3.org/1999/xlink" x="0px" y="0px"
	 width="48px" height="48px" viewBox="0 0 48 48" enable-background="new 0 0 48 48" xml:space="preserve">
<g>
	<path fill-rule="evenodd" clip-rule="evenodd" fill="#414042" d="M31.526,44.868h-14.08c-0.553,0-1,0.447-1,1c0,0.552,0.447,1,1,1
		h14.08c0.553,0,1-0.448,1-1C32.526,45.315,32.079,44.868,31.526,44.868z"/>
	<path fill-rule="evenodd" clip-rule="evenodd" fill="#414042" d="M44.926,37.86c-1.158-0.608-2.191-1.396-3.139-2.294
		c-1.545-1.454-2.731-3.146-3.4-5.188c-0.419-1.294-0.484-2.626-0.484-3.972c-0.002-2.797-0.104-5.588-0.62-8.343
		c-0.358-1.896-0.889-3.73-1.766-5.453c-1.445-2.829-3.604-4.833-6.617-5.851c-0.518-0.174-1.049-0.306-1.573-0.455
		c0.41-3.545-1.44-4.917-3.483-4.917s-3.983,1.116-3.524,4.95c-2.021,0.467-4.076,1.407-5.604,2.842
		c-1.377,1.293-2.356,2.862-3.069,4.601c-1.092,2.665-1.546,5.469-1.712,8.323c-0.104,1.828-0.108,3.663-0.151,5.494
		c-0.021,0.843-0.153,1.665-0.382,2.471c-0.586,2.044-1.715,3.747-3.202,5.224c-1.025,1.016-2.151,1.896-3.427,2.568
		c0,0-1.546,0.511-1.612,1.771c-0.066,1.262,0.822,1.8,1.791,1.8h0.09c13.874-0.002,27.744-0.002,41.616,0
		c0.521,0,1.206-0.232,1.28-1.65S44.926,37.86,44.926,37.86z"/>
</g>
</svg>
