<?xml version="1.0" encoding="utf-8"?>
<!-- Generator: Adobe Illustrator 16.0.0, SVG Export Plug-In . SVG Version: 6.00 Build 0)  -->
<!DOCTYPE svg PUBLIC "-//W3C//DTD SVG 1.1//EN" "http://www.w3.org/Graphics/SVG/1.1/DTD/svg11.dtd">
<svg version="1.1" id="Layer_1" xmlns="http://www.w3.org/2000/svg" xmlns:xlink="http://www.w3.org/1999/xlink" x="0px" y="0px"
	 width="48px" height="48px" viewBox="0 0 48 48" enable-background="new 0 0 48 48" xml:space="preserve">
<g>
	<path fill="#414042" d="M16.492,10.751h14.283c0.276,0,0.5-0.223,0.5-0.5c0-3.105-3.428-5.633-7.642-5.633
		c-4.213,0-7.642,2.527-7.642,5.633C15.992,10.528,16.216,10.751,16.492,10.751z"/>
	<path fill="#414042" d="M33.277,38.699c3.451-2.78,5.668-7.035,5.668-11.802c0-8.357-6.799-15.157-15.156-15.157
		c-8.358,0-15.157,6.799-15.157,15.157c0,4.767,2.217,9.021,5.669,11.802l-2.082,3.419c-0.287,0.473-0.138,1.087,0.334,1.375
		c0.163,0.098,0.342,0.145,0.519,0.145c0.337,0,0.667-0.171,0.855-0.48l2.018-3.314c2.292,1.394,4.971,2.211,7.844,2.211
		s5.551-0.817,7.843-2.211l2.019,3.315c0.189,0.309,0.518,0.479,0.855,0.479c0.178,0,0.357-0.047,0.52-0.145
		c0.471-0.289,0.621-0.904,0.334-1.376L33.277,38.699z M29.135,31.108c-0.197,0.25-0.49,0.38-0.787,0.38
		c-0.217,0-0.435-0.07-0.617-0.214l-4.56-3.592c-0.016-0.012-0.022-0.03-0.037-0.043c-0.053-0.047-0.094-0.103-0.136-0.16
		c-0.037-0.049-0.075-0.095-0.101-0.149c-0.026-0.054-0.039-0.112-0.055-0.172c-0.019-0.067-0.037-0.134-0.042-0.204
		c-0.001-0.02-0.011-0.036-0.011-0.057v-8.121c0-0.553,0.448-1,1-1c0.553,0,1,0.447,1,1v7.637l4.178,3.29
		C29.401,30.044,29.477,30.673,29.135,31.108z"/>
</g>
</svg>
