<?xml version="1.0" encoding="utf-8"?>
<!-- Generator: Adobe Illustrator 16.0.0, SVG Export Plug-In . SVG Version: 6.00 Build 0)  -->
<!DOCTYPE svg PUBLIC "-//W3C//DTD SVG 1.1//EN" "http://www.w3.org/Graphics/SVG/1.1/DTD/svg11.dtd">
<svg version="1.1" id="Layer_1" xmlns="http://www.w3.org/2000/svg" xmlns:xlink="http://www.w3.org/1999/xlink" x="0px" y="0px"
	 width="48px" height="48px" viewBox="0 0 48 48" enable-background="new 0 0 48 48" xml:space="preserve">
<path fill="#414042" d="M24.03,4.179c-11,0-19.95,8.948-19.95,19.949c0,11.002,8.95,19.95,19.95,19.95
	c11.001,0,19.95-8.948,19.95-19.95C43.98,13.127,35.031,4.179,24.03,4.179z M32.601,20.584l-11.172,8.667
	c-0.182,0.141-0.397,0.211-0.612,0.211c-0.274,0-0.546-0.113-0.743-0.33l-4.744-5.25c-0.37-0.41-0.338-1.043,0.072-1.413
	s1.042-0.337,1.413,0.071l4.122,4.563l10.439-8.099c0.436-0.338,1.063-0.259,1.402,0.177C33.116,19.617,33.037,20.245,32.601,20.584
	z"/>
</svg>
