<?xml version="1.0" encoding="utf-8"?>
<!-- Generator: Adobe Illustrator 16.0.0, SVG Export Plug-In . SVG Version: 6.00 Build 0)  -->
<!DOCTYPE svg PUBLIC "-//W3C//DTD SVG 1.1//EN" "http://www.w3.org/Graphics/SVG/1.1/DTD/svg11.dtd">
<svg version="1.1" id="Layer_1" xmlns="http://www.w3.org/2000/svg" xmlns:xlink="http://www.w3.org/1999/xlink" x="0px" y="0px"
	 width="48px" height="48px" viewBox="0 0 48 48" enable-background="new 0 0 48 48" xml:space="preserve">
<path fill="#414042" d="M24.271,4.179c-11,0-19.95,8.949-19.95,19.951c0,11,8.95,19.948,19.95,19.948
	c11.001,0,19.951-8.948,19.951-19.948C44.223,13.128,35.272,4.179,24.271,4.179z M32.416,30.86c0.391,0.39,0.391,1.022,0,1.414
	c-0.195,0.194-0.451,0.292-0.707,0.292s-0.512-0.098-0.707-0.292l-6.73-6.731l-6.73,6.731c-0.195,0.194-0.451,0.292-0.707,0.292
	s-0.512-0.098-0.707-0.292c-0.391-0.392-0.391-1.024,0-1.414l6.73-6.732l-6.73-6.73c-0.391-0.391-0.391-1.023,0-1.414
	c0.391-0.391,1.023-0.391,1.414,0l6.73,6.73l6.73-6.73c0.391-0.391,1.023-0.391,1.414,0c0.391,0.39,0.391,1.023,0,1.414l-6.73,6.73
	L32.416,30.86z"/>
</svg>
