<?xml version="1.0" encoding="utf-8"?>
<!-- Generator: Adobe Illustrator 16.0.0, SVG Export Plug-In . SVG Version: 6.00 Build 0)  -->
<!DOCTYPE svg PUBLIC "-//W3C//DTD SVG 1.1//EN" "http://www.w3.org/Graphics/SVG/1.1/DTD/svg11.dtd">
<svg version="1.1" id="Layer_1" xmlns="http://www.w3.org/2000/svg" xmlns:xlink="http://www.w3.org/1999/xlink" x="0px" y="0px"
	 width="48px" height="48px" viewBox="0 0 48 48" enable-background="new 0 0 48 48" xml:space="preserve">
<path fill="#414042" d="M35.515,5.549H11.513c-1.307,0-2.37,1.063-2.37,2.371v23.066c0,1.308,1.063,2.372,2.37,2.372h8.518l2.851,9
	c0.064,0.201,0.25,0.342,0.462,0.35c0.005,0,0.01,0,0.015,0c0.207,0,0.393-0.128,0.467-0.321l3.462-9.028h8.229
	c1.307,0,2.37-1.064,2.37-2.372V7.92C37.885,6.612,36.821,5.549,35.515,5.549z M31.404,27.661H15.623c-0.552,0-1-0.447-1-1
	s0.448-1,1-1h15.781c0.553,0,1,0.447,1,1S31.957,27.661,31.404,27.661z M31.404,20.647H15.623c-0.552,0-1-0.447-1-1
	c0-0.553,0.448-1,1-1h15.781c0.553,0,1,0.447,1,1C32.404,20.201,31.957,20.647,31.404,20.647z M31.404,13.634H15.623
	c-0.552,0-1-0.448-1-1c0-0.553,0.448-1,1-1h15.781c0.553,0,1,0.447,1,1C32.404,13.187,31.957,13.634,31.404,13.634z"/>
</svg>
