<?xml version="1.0" encoding="utf-8"?>
<!-- Generator: Adobe Illustrator 16.0.0, SVG Export Plug-In . SVG Version: 6.00 Build 0)  -->
<!DOCTYPE svg PUBLIC "-//W3C//DTD SVG 1.1//EN" "http://www.w3.org/Graphics/SVG/1.1/DTD/svg11.dtd">
<svg version="1.1" id="Layer_1" xmlns="http://www.w3.org/2000/svg" xmlns:xlink="http://www.w3.org/1999/xlink" x="0px" y="0px"
	 width="48px" height="48px" viewBox="0 0 48 48" enable-background="new 0 0 48 48" xml:space="preserve">
<path fill="#414042" d="M23.755,4.179c-11,0-19.95,8.948-19.95,19.948c0,11.001,8.95,19.951,19.95,19.951
	c11.001,0,19.95-8.95,19.95-19.951C43.705,13.127,34.756,4.179,23.755,4.179z M23.755,33.459c-0.805,0-1.512-0.721-1.512-1.543
	c0-0.823,0.707-1.546,1.512-1.546c0.806,0,1.513,0.723,1.513,1.546C25.268,32.738,24.561,33.459,23.755,33.459z M25.635,25.13
	c-0.166,0.059-0.861,0.354-0.861,1.223v1.969c0,0.553-0.447,1-1,1c-0.552,0-1-0.447-1-1v-1.969c0-1.889,1.382-2.844,2.199-3.11
	c1.251-0.471,2.118-1.726,2.118-3.108c0-1.84-1.496-3.336-3.336-3.336c-1.839,0-3.335,1.496-3.335,3.336c0,0.552-0.448,1-1,1
	c-0.553,0-1-0.448-1-1c0-2.942,2.394-5.336,5.335-5.336c2.942,0,5.336,2.394,5.336,5.336C29.091,22.345,27.702,24.351,25.635,25.13z
	"/>
</svg>
