<?xml version="1.0" encoding="utf-8"?>
<!-- Generator: Adobe Illustrator 16.0.0, SVG Export Plug-In . SVG Version: 6.00 Build 0)  -->
<!DOCTYPE svg PUBLIC "-//W3C//DTD SVG 1.1//EN" "http://www.w3.org/Graphics/SVG/1.1/DTD/svg11.dtd">
<svg version="1.1" id="Layer_1" xmlns="http://www.w3.org/2000/svg" xmlns:xlink="http://www.w3.org/1999/xlink" x="0px" y="0px"
	 width="48px" height="48px" viewBox="0 0 48 48" enable-background="new 0 0 48 48" xml:space="preserve">
<g>
	<path fill="#414042" d="M22.215,30.388c-0.005,0.263-0.027,0.527-0.07,0.783c-0.002,0.178,0.02,0.811,0.457,0.912h0.191
		c0.3,0,0.583,0.135,0.773,0.366c0.154,0.188,0.233,0.425,0.226,0.665c0.037,0,0.077-0.002,0.119-0.006
		c0.058-0.006,0.117-0.006,0.173,0c0.04,0.004,0.078,0.005,0.113,0.006c-0.011-0.244,0.07-0.48,0.229-0.674
		c0.189-0.232,0.477-0.357,0.777-0.357h0.189c0.441-0.103,0.461-0.74,0.458-0.91c-0.044-0.257-0.065-0.521-0.07-0.785H22.215z"/>
	<path fill="#414042" d="M29.574,20.768c-0.055-5.397-4.855-5.618-5.402-5.626c-0.567,0.008-5.698,0.225-5.752,5.626
		c0,0.054-0.005,0.108-0.015,0.161c0.001,0-0.176,1.59,1.661,3.93c0.029,0.037,0.056,0.076,0.08,0.117
		c0.144,0.25,0.393,0.925,0.463,2.643c0.028,0.102,0.125,0.322,0.447,0.445c0.197,0.076,0.355,0.192,0.497,0.324h4.886
		c0.141-0.132,0.298-0.246,0.494-0.323c0.326-0.125,0.424-0.345,0.453-0.446c0.07-1.717,0.316-2.39,0.459-2.639
		c0.025-0.043,0.053-0.083,0.082-0.121c1.841-2.343,1.66-3.934,1.657-3.949C29.58,20.87,29.574,20.808,29.574,20.768z"/>
	<path fill="#414042" d="M23.998,4.179c-11.001,0-19.951,8.948-19.951,19.948c0,11.001,8.95,19.951,19.951,19.951
		c11,0,19.95-8.95,19.95-19.951C43.947,13.127,34.998,4.179,23.998,4.179z M29.582,25.989c-0.027,0.11-0.157,0.623-0.2,1.783
		c-0.069,0.605-0.47,1.597-1.568,2.091c-0.054,0.226-0.04,0.708,0.017,1.021c0.008,0.038,0.012,0.075,0.015,0.113
		c0.06,0.867-0.255,2.496-1.759,2.972c-0.062,0.157-0.149,0.316-0.274,0.469c-0.253,0.309-0.735,0.677-1.604,0.677
		c-0.066,0-0.137-0.002-0.209-0.006c-1.025,0.067-1.541-0.339-1.814-0.671c-0.125-0.152-0.212-0.312-0.274-0.467
		c-1.504-0.478-1.818-2.105-1.759-2.974c0.002-0.038,0.007-0.075,0.014-0.113c0.062-0.35,0.066-0.807,0.016-1.02
		c-1.097-0.493-1.498-1.483-1.561-2.011c-0.046-1.181-0.17-1.71-0.22-1.88c-2.107-2.743-2.037-4.784-1.979-5.287
		c0.095-5.931,5.108-7.529,7.755-7.544c2.531,0.016,7.305,1.614,7.396,7.544C31.631,21.192,31.701,23.239,29.582,25.989z"/>
</g>
</svg>
