<?xml version="1.0" encoding="utf-8"?>
<!-- Generator: Adobe Illustrator 16.0.0, SVG Export Plug-In . SVG Version: 6.00 Build 0)  -->
<!DOCTYPE svg PUBLIC "-//W3C//DTD SVG 1.1//EN" "http://www.w3.org/Graphics/SVG/1.1/DTD/svg11.dtd">
<svg version="1.1" id="Layer_1" xmlns="http://www.w3.org/2000/svg" xmlns:xlink="http://www.w3.org/1999/xlink" x="0px" y="0px"
	 width="48px" height="48px" viewBox="0 0 48 48" enable-background="new 0 0 48 48" xml:space="preserve">
<path fill="#414042" d="M24.238,4.179c-11,0-19.949,8.948-19.949,19.947c0,11.002,8.949,19.952,19.949,19.952
	s19.949-8.95,19.949-19.952C44.188,13.127,35.238,4.179,24.238,4.179z M23.238,16.484c0-0.553,0.447-1,1-1s1,0.447,1,1v10.953
	c0,0.554-0.447,1-1,1s-1-0.446-1-1V16.484z M24.238,32.772c-0.829,0-1.557-0.743-1.557-1.59c0-0.849,0.728-1.594,1.557-1.594
	c0.83,0,1.559,0.745,1.559,1.594C25.797,32.029,25.068,32.772,24.238,32.772z"/>
</svg>
