<?xml version="1.0" encoding="utf-8"?>
<!-- Generator: Adobe Illustrator 16.0.0, SVG Export Plug-In . SVG Version: 6.00 Build 0)  -->
<!DOCTYPE svg PUBLIC "-//W3C//DTD SVG 1.1//EN" "http://www.w3.org/Graphics/SVG/1.1/DTD/svg11.dtd">
<svg version="1.1" id="Layer_1" xmlns="http://www.w3.org/2000/svg" xmlns:xlink="http://www.w3.org/1999/xlink" x="0px" y="0px"
	 width="48px" height="48px" viewBox="0 0 48 48" enable-background="new 0 0 48 48" xml:space="preserve">
<path fill="#414042" d="M23.479,4.179c-11,0-19.949,8.948-19.949,19.948c0,11.001,8.949,19.951,19.949,19.951
	c11.001,0,19.951-8.95,19.951-19.951C43.431,13.127,34.48,4.179,23.479,4.179z M24.479,31.771c0,0.554-0.447,1-1,1s-1-0.446-1-1
	V20.817c0-0.552,0.447-1,1-1s1,0.448,1,1V31.771z M23.479,18.668c-0.829,0-1.557-0.745-1.557-1.593c0-0.847,0.728-1.59,1.557-1.59
	c0.83,0,1.559,0.743,1.559,1.59C25.038,17.923,24.31,18.668,23.479,18.668z"/>
</svg>
