<?xml version="1.0" encoding="utf-8"?>
<!-- Generator: Adobe Illustrator 16.0.0, SVG Export Plug-In . SVG Version: 6.00 Build 0)  -->
<!DOCTYPE svg PUBLIC "-//W3C//DTD SVG 1.1//EN" "http://www.w3.org/Graphics/SVG/1.1/DTD/svg11.dtd">
<svg version="1.1" id="Layer_1" xmlns="http://www.w3.org/2000/svg" xmlns:xlink="http://www.w3.org/1999/xlink" x="0px" y="0px"
	 width="48px" height="48px" viewBox="0 0 48 48" enable-background="new 0 0 48 48" xml:space="preserve">
<g>
	<path fill="#414042" d="M9.399,28.039H13.7c0.703,0,1.273-0.571,1.273-1.275v-4.299c0-0.704-0.57-1.273-1.273-1.273H9.399
		c-0.703,0-1.273,0.569-1.273,1.273v4.299C8.126,27.468,8.696,28.039,9.399,28.039z"/>
	<path fill="#414042" d="M21.571,28.039h4.3c0.704,0,1.273-0.571,1.273-1.275v-4.299c0-0.704-0.569-1.273-1.273-1.273h-4.3
		c-0.703,0-1.272,0.569-1.272,1.273v4.299C20.299,27.468,20.868,28.039,21.571,28.039z"/>
	<path fill="#414042" d="M33.743,28.039h4.301c0.703,0,1.273-0.571,1.273-1.275v-4.299c0-0.704-0.57-1.273-1.273-1.273h-4.301
		c-0.703,0-1.273,0.569-1.273,1.273v4.299C32.47,27.468,33.04,28.039,33.743,28.039z"/>
	<path fill="#414042" d="M9.399,41.175H13.7c0.703,0,1.273-0.57,1.273-1.273v-4.301c0-0.703-0.57-1.273-1.273-1.273H9.399
		c-0.703,0-1.273,0.57-1.273,1.273v4.301C8.126,40.604,8.696,41.175,9.399,41.175z"/>
	<path fill="#414042" d="M21.571,41.175h4.3c0.704,0,1.273-0.57,1.273-1.273v-4.301c0-0.703-0.569-1.273-1.273-1.273h-4.3
		c-0.703,0-1.272,0.57-1.272,1.273v4.301C20.299,40.604,20.868,41.175,21.571,41.175z"/>
	<path fill="#414042" d="M33.743,41.175h4.301c0.703,0,1.273-0.57,1.273-1.273v-4.301c0-0.703-0.57-1.273-1.273-1.273h-4.301
		c-0.703,0-1.273,0.57-1.273,1.273v4.301C32.47,40.604,33.04,41.175,33.743,41.175z"/>
	<path fill="#414042" d="M44.968,13.803V8.266c0-0.75-0.609-1.359-1.36-1.359h-4.271V2.615c0-0.751-0.607-1.359-1.359-1.359h-5.485
		c-0.751,0-1.359,0.608-1.359,1.359v4.291h-14.56V2.615c0-0.751-0.608-1.359-1.359-1.359H9.729c-0.75,0-1.36,0.608-1.36,1.359v4.291
		H3.836c-0.751,0-1.36,0.609-1.36,1.359v5.537H2.442v30.563C2.442,45.818,3.624,47,5.076,47h37.291c1.452,0,2.634-1.182,2.634-2.635
		V13.803H44.968z M34.456,5.774c0-0.377,0.305-0.68,0.68-0.68s0.68,0.303,0.68,0.68v6.428c0,0.375-0.305,0.68-0.68,0.68
		s-0.68-0.305-0.68-0.68V5.774z M11.722,5.764c0-0.376,0.305-0.68,0.68-0.68s0.68,0.304,0.68,0.68v6.429
		c0,0.375-0.305,0.68-0.68,0.68s-0.68-0.304-0.68-0.68V5.764z M42.28,44.28L5.163,44.365V16.522H42.28V44.28z"/>
</g>
</svg>
