<?xml version="1.0" encoding="utf-8"?>
<!-- Generator: Adobe Illustrator 16.0.0, SVG Export Plug-In . SVG Version: 6.00 Build 0)  -->
<!DOCTYPE svg PUBLIC "-//W3C//DTD SVG 1.1//EN" "http://www.w3.org/Graphics/SVG/1.1/DTD/svg11.dtd">
<svg version="1.1" id="Layer_1" xmlns="http://www.w3.org/2000/svg" xmlns:xlink="http://www.w3.org/1999/xlink" x="0px" y="0px"
	 width="48px" height="48px" viewBox="0 0 48 48" enable-background="new 0 0 48 48" xml:space="preserve">
<path fill="#414042" d="M24.566,0.715c-12.256,0-22.191,9.075-22.191,20.268c0,4.088,1.564,8.404,3.845,11.59L0.629,46.84
	l14.086-6.643c2.381,0.797,7.17,1.051,9.852,1.051c12.255,0,22.189-9.074,22.189-20.266C46.756,9.79,36.821,0.715,24.566,0.715z
	 M24.145,33.293c-1.414,0-2.564-1.152-2.564-2.564c0-1.416,1.15-2.563,2.564-2.563c1.415,0,2.563,1.146,2.563,2.563
	C26.708,32.141,25.56,33.293,24.145,33.293z M26.945,19.043c-1.361,1.635-1.967,3.268-1.793,4.844l0.073,0.936l-2.788,0.214
	l-0.067-0.889c-0.255-2.281,0.587-4.686,2.437-6.904c1.525-1.799,2.064-2.785,2.064-3.781c0-0.701-0.213-1.512-1.867-1.537
	c-0.91,0-1.979,0.318-2.578,0.773l-1.691-2.226c1.09-0.829,2.734-1.342,4.292-1.342c2.827,0.043,4.64,1.744,4.64,4.332
	C29.666,15.442,28.625,17.064,26.945,19.043z"/>
</svg>
