<?xml version="1.0" encoding="utf-8"?>
<!-- Generator: Adobe Illustrator 16.0.0, SVG Export Plug-In . SVG Version: 6.00 Build 0)  -->
<!DOCTYPE svg PUBLIC "-//W3C//DTD SVG 1.1//EN" "http://www.w3.org/Graphics/SVG/1.1/DTD/svg11.dtd">
<svg version="1.1" id="Layer_1" xmlns="http://www.w3.org/2000/svg" xmlns:xlink="http://www.w3.org/1999/xlink" x="0px" y="0px"
	 width="48px" height="48px" viewBox="0 0 48 48" enable-background="new 0 0 48 48" xml:space="preserve">
<path fill="#414042" d="M24.855,0.398c-12.424,0-22.494,9.199-22.494,20.545c0,4.143,1.586,8.521,3.896,11.747L0.59,47.156
	l14.28-6.736c2.413,0.808,7.267,1.068,9.985,1.068c12.424,0,22.494-9.199,22.494-20.545C47.35,9.597,37.279,0.398,24.855,0.398z
	 M26.096,31.955c0,0.781-0.635,1.416-1.416,1.416c-0.783,0-1.418-0.635-1.418-1.416V17.359c0-0.783,0.635-1.416,1.418-1.416
	c0.781,0,1.416,0.633,1.416,1.416V31.955z M24.68,12.076c-1.433,0-2.6-1.162-2.6-2.598c0-1.432,1.167-2.6,2.6-2.6
	c1.434,0,2.599,1.168,2.599,2.6C27.278,10.914,26.113,12.076,24.68,12.076z"/>
</svg>
