<?xml version="1.0" encoding="utf-8"?>
<!-- Generator: Adobe Illustrator 16.0.0, SVG Export Plug-In . SVG Version: 6.00 Build 0)  -->
<!DOCTYPE svg PUBLIC "-//W3C//DTD SVG 1.1//EN" "http://www.w3.org/Graphics/SVG/1.1/DTD/svg11.dtd">
<svg version="1.1" id="Layer_1" xmlns="http://www.w3.org/2000/svg" xmlns:xlink="http://www.w3.org/1999/xlink" x="0px" y="0px"
	 width="48px" height="48px" viewBox="0 0 48 48" enable-background="new 0 0 48 48" xml:space="preserve">
<path fill="#414042" d="M25.131,0.46C12.74,0.46,2.697,9.636,2.697,20.952c0,4.13,1.582,8.499,3.886,11.716L0.929,47.095
	l14.242-6.717c2.408,0.805,7.248,1.064,9.959,1.064c12.391,0,22.434-9.173,22.434-20.49C47.564,9.636,37.521,0.46,25.131,0.46z
	 M16.376,14.419c0-1.432,1.164-2.591,2.594-2.591s2.592,1.159,2.592,2.591c0,1.428-1.162,2.592-2.592,2.592
	S16.376,15.847,16.376,14.419z M31.939,30.807c-2.504,1.664-4.918,2.262-7.041,2.262c-3.114,0-5.606-1.284-6.856-2.372
	c-0.591-0.514-0.651-1.406-0.14-1.994c0.511-0.587,1.399-0.652,1.989-0.145c0.188,0.161,4.602,3.803,10.483-0.105
	c0.65-0.434,1.527-0.253,1.959,0.396C32.768,29.498,32.592,30.373,31.939,30.807z M32.305,16.928c-1.43,0-2.594-1.165-2.594-2.592
	c0-1.433,1.164-2.591,2.594-2.591s2.592,1.158,2.592,2.591C34.896,15.763,33.734,16.928,32.305,16.928z"/>
</svg>
