<?xml version="1.0" encoding="utf-8"?>
<!-- Generator: Adobe Illustrator 16.0.0, SVG Export Plug-In . SVG Version: 6.00 Build 0)  -->
<!DOCTYPE svg PUBLIC "-//W3C//DTD SVG 1.1//EN" "http://www.w3.org/Graphics/SVG/1.1/DTD/svg11.dtd">
<svg version="1.1" id="Layer_1" xmlns="http://www.w3.org/2000/svg" xmlns:xlink="http://www.w3.org/1999/xlink" x="0px" y="0px"
	 width="48px" height="48px" viewBox="0 0 48 48" enable-background="new 0 0 48 48" xml:space="preserve">
<path fill="#414042" d="M24.375,1.341c-11.925,0-21.59,8.828-21.59,19.717c0,3.978,1.522,8.178,3.74,11.274L1.086,46.215
	l13.704-6.465c2.315,0.774,6.974,1.024,9.585,1.024c11.921,0,21.585-8.828,21.585-19.717S36.297,1.341,24.375,1.341z M22.845,8.921
	c0-0.751,0.608-1.359,1.36-1.359c0.75,0,1.359,0.608,1.359,1.359v14.007c0,0.751-0.609,1.36-1.359,1.36
	c-0.752,0-1.36-0.609-1.36-1.36V8.921z M24.206,32.986c-1.376,0-2.495-1.121-2.495-2.495c0-1.379,1.119-2.493,2.495-2.493
	c1.375,0,2.494,1.114,2.494,2.493C26.699,31.865,25.58,32.986,24.206,32.986z"/>
</svg>
