<?xml version="1.0" encoding="utf-8"?>
<!-- Generator: Adobe Illustrator 16.0.0, SVG Export Plug-In . SVG Version: 6.00 Build 0)  -->
<!DOCTYPE svg PUBLIC "-//W3C//DTD SVG 1.1//EN" "http://www.w3.org/Graphics/SVG/1.1/DTD/svg11.dtd">
<svg version="1.1" id="Layer_1" xmlns="http://www.w3.org/2000/svg" xmlns:xlink="http://www.w3.org/1999/xlink" x="0px" y="0px"
	 width="48px" height="48px" viewBox="0 0 48 48" enable-background="new 0 0 48 48" xml:space="preserve">
<g>
	<circle fill="#414042" cx="17.458" cy="14.672" r="2.232"/>
	<rect x="14.658" y="19.991" fill="#414042" width="13.895" height="8.111"/>
	<circle fill="#414042" cx="25.967" cy="14.672" r="2.232"/>
	<path fill="#414042" d="M24.667,0.422c-12.401,0-22.49,9.234-22.49,20.584c0,3.876,1.396,8.175,3.746,11.555L0.48,46.451
		c-0.075,0.19-0.026,0.407,0.124,0.547c0.094,0.089,0.217,0.135,0.341,0.135c0.072,0,0.145-0.016,0.213-0.048l13.782-6.5
		c2.57,0.793,7.29,1.008,9.727,1.008c12.401,0,22.489-9.235,22.489-20.586S37.068,0.422,24.667,0.422z M36.945,29.336
		c0,0.553-0.447,1-1,1c-1.425,0-2.047-0.511-3.078-1.355l-0.092-0.076l-1.23-1.112h-0.992v1.31c0,0.553-0.447,1-1,1H13.658
		c-0.552,0-1-0.447-1-1V18.991c0-0.553,0.448-1,1-1h1.205c-0.989-0.776-1.637-1.967-1.637-3.318c0-2.333,1.898-4.232,4.232-4.232
		c2.334,0,4.232,1.898,4.232,4.232c0,1.351-0.648,2.542-1.637,3.318h3.318c-0.989-0.776-1.637-1.967-1.637-3.318
		c0-2.333,1.899-4.232,4.233-4.232s4.232,1.898,4.232,4.232c0,1.351-0.648,2.542-1.637,3.318h0.99c0.553,0,1,0.447,1,1v1.31h1.214
		l1.184-1.07c0.843-0.759,1.64-1.474,2.995-1.474c0.553,0,1,0.447,1,1V29.336z"/>
	<rect x="30.553" y="22.3" fill="#414042" width="0.527" height="3.492"/>
	<path fill="#414042" d="M33.08,21.808v4.676l1.056,0.95c0.358,0.295,0.606,0.494,0.81,0.631v-7.913
		c-0.187,0.145-0.396,0.331-0.658,0.565L33.08,21.808z"/>
</g>
</svg>
