<?xml version="1.0" encoding="utf-8"?>
<!-- Generator: Adobe Illustrator 16.0.0, SVG Export Plug-In . SVG Version: 6.00 Build 0)  -->
<!DOCTYPE svg PUBLIC "-//W3C//DTD SVG 1.1//EN" "http://www.w3.org/Graphics/SVG/1.1/DTD/svg11.dtd">
<svg version="1.1" id="Layer_1" xmlns="http://www.w3.org/2000/svg" xmlns:xlink="http://www.w3.org/1999/xlink" x="0px" y="0px"
	 width="48px" height="48px" viewBox="0 0 48 48" enable-background="new 0 0 48 48" xml:space="preserve">
<g>
	<path fill="#414042" d="M21.879,23.291h3.21c5.005,0,9.063-4.054,9.063-9.06v-3.396c0-5.006-4.059-9.062-9.063-9.062H10.173
		c-5.003,0-9.062,4.056-9.062,9.062v3.396c0,5.006,4.059,9.06,9.062,9.06h3.02l-3.207,9.442L21.879,23.291z"/>
	<path fill="#414042" d="M38.202,14.823h-1.633v0.943c0,5.219-4.231,10.047-9.452,10.047H23.77L15.66,32.16
		c1.586,2.627,4.333,4.182,7.626,4.182h3.21l11.894,9.441l-3.207-9.441h3.02c5.003,0,9.062-4.055,9.062-9.061v-3.396
		C47.264,18.879,43.205,14.823,38.202,14.823z"/>
</g>
</svg>
