<?xml version="1.0" encoding="utf-8"?>
<!-- Generator: Adobe Illustrator 16.0.0, SVG Export Plug-In . SVG Version: 6.00 Build 0)  -->
<!DOCTYPE svg PUBLIC "-//W3C//DTD SVG 1.1//EN" "http://www.w3.org/Graphics/SVG/1.1/DTD/svg11.dtd">
<svg version="1.1" id="Layer_1" xmlns="http://www.w3.org/2000/svg" xmlns:xlink="http://www.w3.org/1999/xlink" x="0px" y="0px"
	 width="48px" height="48px" viewBox="0 0 48 48" enable-background="new 0 0 48 48" xml:space="preserve">
<path fill="#414042" d="M44.045,4.378H3.379c-1.378,0-2.5,1.121-2.5,2.5v21.601c0,1.379,1.122,2.5,2.5,2.5h32.875l9.395,12.261
	c0.096,0.126,0.244,0.196,0.396,0.196c0.054,0,0.107-0.009,0.16-0.026c0.203-0.069,0.34-0.259,0.34-0.474V6.878
	C46.545,5.499,45.424,4.378,44.045,4.378z M12.5,20.38c-1.723,0-3.125-1.403-3.125-3.125s1.402-3.125,3.125-3.125
	s3.125,1.402,3.125,3.125S14.223,20.38,12.5,20.38z M23,20.38c-1.723,0-3.125-1.403-3.125-3.125S21.277,14.13,23,14.13
	s3.125,1.402,3.125,3.125S24.723,20.38,23,20.38z M33.5,20.38c-1.723,0-3.125-1.403-3.125-3.125s1.402-3.125,3.125-3.125
	s3.125,1.402,3.125,3.125S35.223,20.38,33.5,20.38z"/>
</svg>
