<?xml version="1.0" encoding="utf-8"?>
<!-- Generator: Adobe Illustrator 16.0.0, SVG Export Plug-In . SVG Version: 6.00 Build 0)  -->
<!DOCTYPE svg PUBLIC "-//W3C//DTD SVG 1.1//EN" "http://www.w3.org/Graphics/SVG/1.1/DTD/svg11.dtd">
<svg version="1.1" id="Layer_1" xmlns="http://www.w3.org/2000/svg" xmlns:xlink="http://www.w3.org/1999/xlink" x="0px" y="0px"
	 width="48px" height="48px" viewBox="0 0 48 48" enable-background="new 0 0 48 48" xml:space="preserve">
<path fill="#414042" d="M25.367,8.136c-12.089,0-21.926,6.86-21.926,15.292c0,2.156,0.626,4.235,1.862,6.186l-4.71,9.786
	c-0.082,0.169-0.055,0.371,0.067,0.515c0.092,0.107,0.225,0.167,0.362,0.167c0.045,0,0.091-0.007,0.136-0.02l12.461-3.715
	c3.512,1.552,7.569,2.371,11.748,2.371c12.092,0,21.929-6.859,21.929-15.29C47.296,14.996,37.459,8.136,25.367,8.136z M15.49,26.94
	c-1.562,0-2.833-1.27-2.833-2.831c0-1.562,1.271-2.833,2.833-2.833s2.833,1.271,2.833,2.833C18.323,25.671,17.052,26.94,15.49,26.94
	z M24.917,26.94c-1.561,0-2.832-1.27-2.832-2.831c0-1.562,1.271-2.833,2.832-2.833c1.562,0,2.833,1.271,2.833,2.833
	C27.749,25.671,26.479,26.94,24.917,26.94z M34.345,26.94c-1.563,0-2.833-1.27-2.833-2.831c0-1.562,1.271-2.833,2.833-2.833
	c1.562,0,2.832,1.271,2.832,2.833C37.177,25.671,35.906,26.94,34.345,26.94z"/>
</svg>
