<?xml version="1.0" encoding="utf-8"?>
<!-- Generator: Adobe Illustrator 16.0.0, SVG Export Plug-In . SVG Version: 6.00 Build 0)  -->
<!DOCTYPE svg PUBLIC "-//W3C//DTD SVG 1.1//EN" "http://www.w3.org/Graphics/SVG/1.1/DTD/svg11.dtd">
<svg version="1.1" id="Layer_1" xmlns="http://www.w3.org/2000/svg" xmlns:xlink="http://www.w3.org/1999/xlink" x="0px" y="0px"
	 width="48px" height="48px" viewBox="0 0 48 48" enable-background="new 0 0 48 48" xml:space="preserve">
<g>
	<path fill="#414042" d="M42.864,1.005H4.98c-1.39,0-2.513,0.926-2.513,2.068v10.12c0,1.143,1.064,1.943,2.334,1.909l7.381-0.017
		l-1.336,9.625l12.111-9.114h19.906c1.383,0,2.51-0.928,2.51-2.071V3.073C45.374,1.931,44.247,1.005,42.864,1.005z"/>
	<path fill="#414042" d="M42.861,23.104H17.223l-9.167,6.592l0.625-6.592H4.978c-1.383,0-2.51,0.926-2.51,2.066v10.452
		c0,1.144,1.127,2.071,2.51,2.071h19.906l12.111,9.115l-1.336-9.627L43.04,37.2c1.27,0.035,2.334-0.766,2.334-1.91V25.171
		C45.374,24.031,44.251,23.104,42.861,23.104z"/>
</g>
</svg>
