<?xml version="1.0" encoding="utf-8"?>
<!-- Generator: Adobe Illustrator 16.0.0, SVG Export Plug-In . SVG Version: 6.00 Build 0)  -->
<!DOCTYPE svg PUBLIC "-//W3C//DTD SVG 1.1//EN" "http://www.w3.org/Graphics/SVG/1.1/DTD/svg11.dtd">
<svg version="1.1" id="Layer_1" xmlns="http://www.w3.org/2000/svg" xmlns:xlink="http://www.w3.org/1999/xlink" x="0px" y="0px"
	 width="48px" height="48px" viewBox="0 0 48 48" enable-background="new 0 0 48 48" xml:space="preserve">
<g>
	<path fill="#414042" d="M33.346,9.163c-7.267,0-13.181,4.123-13.181,9.192c0,1.296,0.377,2.545,1.12,3.719l-2.832,5.881
		c-0.049,0.102-0.034,0.223,0.04,0.31c0.055,0.064,0.135,0.101,0.218,0.101c0.027,0,0.055-0.004,0.082-0.012l7.49-2.232
		c2.111,0.934,4.55,1.424,7.063,1.424c7.268,0,13.182-4.122,13.182-9.19C46.527,13.285,40.613,9.163,33.346,9.163z M27.407,20.465
		c-0.938,0-1.702-0.763-1.702-1.702c0-0.938,0.764-1.702,1.702-1.702c0.939,0,1.704,0.764,1.704,1.702
		C29.111,19.703,28.347,20.465,27.407,20.465z M33.074,20.465c-0.938,0-1.702-0.763-1.702-1.702c0-0.938,0.765-1.702,1.702-1.702
		c0.938,0,1.703,0.764,1.703,1.702C34.777,19.703,34.013,20.465,33.074,20.465z M38.74,20.465c-0.938,0-1.701-0.763-1.701-1.702
		c0-0.938,0.763-1.702,1.701-1.702c0.94,0,1.705,0.764,1.705,1.702C40.445,19.703,39.681,20.465,38.74,20.465z"/>
	<path fill="#414042" d="M9.174,24.625c0.255,1.515,0.871,2.823,1.705,3.73c0.131,0.14,1.238,1.264,2.732,1.292
		c0.972,0.017,1.931-0.443,2.826-1.37l0.019-0.023c-0.003,0.003-0.006,0.005-0.009,0.008c0.005-0.006,0.011-0.011,0.016-0.017
		l0.354-0.458c0.614-0.873,1.063-1.994,1.262-3.254c0,0,0.165,0.03,0.317-0.337c0.788-1.897-0.209-2.91-0.209-2.91
		c-0.092-0.101-0.178-0.128-0.178-0.128c-0.559-2.756-2.313-4.77-4.39-4.77c-2.212,0-4.055,2.279-4.483,5.311
		c0,0-0.092-0.22-0.338,0c0,0-0.735,1.198,0.164,2.833C9.048,24.691,9.174,24.625,9.174,24.625z"/>
	<path fill="#414042" d="M17.539,31.288c-0.351-0.71-0.537-0.97-0.631-1.87c-1.024,1.052-2.106,1.575-3.24,1.575
		c-0.025,0-0.051,0-0.077,0c-1.317-0.029-2.34-0.744-2.856-1.19c-0.096,0.745-0.27,0.842-0.588,1.485c0,0-9.019,0.812-9.141,4.864
		v3.166h25.674v-3.166C26.559,32.1,17.539,31.288,17.539,31.288z"/>
</g>
</svg>
