<?xml version="1.0" encoding="utf-8"?>
<!-- Generator: Adobe Illustrator 16.0.0, SVG Export Plug-In . SVG Version: 6.00 Build 0)  -->
<!DOCTYPE svg PUBLIC "-//W3C//DTD SVG 1.1//EN" "http://www.w3.org/Graphics/SVG/1.1/DTD/svg11.dtd">
<svg version="1.1" id="Layer_1" xmlns="http://www.w3.org/2000/svg" xmlns:xlink="http://www.w3.org/1999/xlink" x="0px" y="0px"
	 width="48px" height="48px" viewBox="0 0 48 48" enable-background="new 0 0 48 48" xml:space="preserve">
<g>
	<path fill="#414042" d="M45.824,12.752L2.702,12.76c-0.276,0-0.5,0.224-0.5,0.5s0.224,0.5,0.5,0.5h1.486v6.42h19.573v-6.424h1
		v6.424h19.605v-6.428h1.458c0.275,0,0.5-0.224,0.5-0.5S46.1,12.752,45.824,12.752z M21.129,18.119
		c-0.478,0-0.866-0.389-0.866-0.865c0-0.479,0.389-0.867,0.866-0.867s0.866,0.389,0.866,0.867
		C21.995,17.73,21.606,18.119,21.129,18.119z M27.396,18.16c-0.478,0-0.866-0.389-0.866-0.865c0-0.479,0.389-0.867,0.866-0.867
		s0.866,0.389,0.866,0.867C28.263,17.771,27.874,18.16,27.396,18.16z"/>
	<path fill="#414042" d="M24.761,28.178h18.51v6.203c0,0.276,0.224,0.5,0.5,0.5s0.5-0.224,0.5-0.5v-6.203h0.096V21.18H24.761V28.178
		z M27.396,23.428c0.478,0,0.866,0.389,0.866,0.867c0,0.477-0.389,0.865-0.866,0.865s-0.866-0.389-0.866-0.865
		C26.53,23.816,26.919,23.428,27.396,23.428z"/>
	<path fill="#414042" d="M4.188,28.178h0.096v6.203c0,0.276,0.224,0.5,0.5,0.5s0.5-0.224,0.5-0.5v-6.203h18.478V21.18H4.188V28.178z
		 M21.129,23.387c0.478,0,0.866,0.389,0.866,0.867c0,0.477-0.389,0.865-0.866,0.865s-0.866-0.389-0.866-0.865
		C20.263,23.775,20.651,23.387,21.129,23.387z"/>
</g>
</svg>
