<?xml version="1.0" encoding="utf-8"?>
<!-- Generator: Adobe Illustrator 16.0.0, SVG Export Plug-In . SVG Version: 6.00 Build 0)  -->
<!DOCTYPE svg PUBLIC "-//W3C//DTD SVG 1.1//EN" "http://www.w3.org/Graphics/SVG/1.1/DTD/svg11.dtd">
<svg version="1.1" id="Layer_1" xmlns="http://www.w3.org/2000/svg" xmlns:xlink="http://www.w3.org/1999/xlink" x="0px" y="0px"
	 width="48px" height="48px" viewBox="0 0 48 48" enable-background="new 0 0 48 48" xml:space="preserve">
<g>
	<path fill="#414042" d="M24.781,7.164v7.908h21.188V7.164H24.781z M27.457,12.467c-0.479,0-0.867-0.389-0.867-0.867
		c0-0.477,0.389-0.865,0.867-0.865c0.477,0,0.865,0.389,0.865,0.865C28.322,12.078,27.934,12.467,27.457,12.467z"/>
	<path fill="#414042" d="M2.677,24.072h43.292v-8H2.677V24.072z M31.61,19.693h7.136c0.276,0,0.5,0.223,0.5,0.5
		c0,0.275-0.224,0.5-0.5,0.5H31.61c-0.276,0-0.5-0.225-0.5-0.5C31.11,19.916,31.334,19.693,31.61,19.693z M9.815,19.693h7.136
		c0.276,0,0.5,0.223,0.5,0.5c0,0.275-0.224,0.5-0.5,0.5H9.815c-0.276,0-0.5-0.225-0.5-0.5C9.315,19.916,9.539,19.693,9.815,19.693z"
		/>
	<path fill="#414042" d="M2.677,33.426h0.479v6.543c0,0.275,0.224,0.5,0.5,0.5s0.5-0.225,0.5-0.5v-6.543h40.25v6.543
		c0,0.275,0.224,0.5,0.5,0.5s0.5-0.225,0.5-0.5v-6.543h0.563v-8.354H2.677V33.426z M31.61,28.693h7.136c0.276,0,0.5,0.223,0.5,0.5
		c0,0.275-0.224,0.5-0.5,0.5H31.61c-0.276,0-0.5-0.225-0.5-0.5C31.11,28.916,31.334,28.693,31.61,28.693z M9.815,28.693h7.136
		c0.276,0,0.5,0.223,0.5,0.5c0,0.275-0.224,0.5-0.5,0.5H9.815c-0.276,0-0.5-0.225-0.5-0.5C9.315,28.916,9.539,28.693,9.815,28.693z"
		/>
	<path fill="#414042" d="M23.781,7.164H2.677v7.908h21.104V7.164z M21.189,12.426c-0.478,0-0.866-0.389-0.866-0.867
		c0-0.477,0.389-0.865,0.866-0.865s0.866,0.389,0.866,0.865C22.055,12.037,21.667,12.426,21.189,12.426z"/>
</g>
</svg>
