<?xml version="1.0" encoding="utf-8"?>
<!-- Generator: Adobe Illustrator 16.0.0, SVG Export Plug-In . SVG Version: 6.00 Build 0)  -->
<!DOCTYPE svg PUBLIC "-//W3C//DTD SVG 1.1//EN" "http://www.w3.org/Graphics/SVG/1.1/DTD/svg11.dtd">
<svg version="1.1" id="Layer_1" xmlns="http://www.w3.org/2000/svg" xmlns:xlink="http://www.w3.org/1999/xlink" x="0px" y="0px"
	 width="48px" height="48px" viewBox="0 0 48 48" enable-background="new 0 0 48 48" xml:space="preserve">
<path fill="#414042" d="M23.782,11.028h-0.519H1.034v0.518v12.793v0.375v0.143v11.748h1.234V24.856h20.995h0.519h20.959v11.748
	h1.233V24.856v-0.082v-0.436V11.546v-0.518H23.782z M17.939,15.867v4.15c0,0.394-0.289,0.712-0.648,0.712
	c-0.358,0-0.647-0.318-0.647-0.712v-4.15c0-0.393,0.289-0.712,0.647-0.712C17.65,15.155,17.939,15.475,17.939,15.867z
	 M29.111,20.017v-4.15c0-0.393,0.29-0.711,0.647-0.711c0.36,0,0.65,0.318,0.65,0.711v4.15c0,0.394-0.29,0.711-0.65,0.711
	C29.401,20.728,29.111,20.41,29.111,20.017z M23.782,24.339h-0.519V11.546h0.519V24.339z"/>
</svg>
