<?xml version="1.0" encoding="utf-8"?>
<!-- Generator: Adobe Illustrator 16.0.0, SVG Export Plug-In . SVG Version: 6.00 Build 0)  -->
<!DOCTYPE svg PUBLIC "-//W3C//DTD SVG 1.1//EN" "http://www.w3.org/Graphics/SVG/1.1/DTD/svg11.dtd">
<svg version="1.1" id="Layer_1" xmlns="http://www.w3.org/2000/svg" xmlns:xlink="http://www.w3.org/1999/xlink" x="0px" y="0px"
	 width="48px" height="48px" viewBox="0 0 48 48" enable-background="new 0 0 48 48" xml:space="preserve">
<path fill="#414042" d="M45.221,4.684H23.889h-0.648H1.91H1.262v0.647v13.231v0.648v13.23v0.649v9.858h1.223v-9.858h20.756h0.648
	h20.757v9.858h1.222v-9.858v-0.649v-13.23v-0.648V5.331V4.684H45.221z M30.393,9.332v4.618c0,0.503-0.404,0.91-0.904,0.91
	c-0.501,0-0.905-0.407-0.905-0.91V9.332c0-0.502,0.404-0.91,0.905-0.91C29.988,8.422,30.393,8.83,30.393,9.332z M18.56,9.315v4.619
	c0,0.5-0.402,0.907-0.899,0.907c-0.499,0-0.899-0.407-0.899-0.907V9.315c0-0.503,0.401-0.911,0.899-0.911
	C18.158,8.404,18.56,8.813,18.56,9.315z M16.846,28.54v-4.616c0-0.503,0.404-0.91,0.905-0.91c0.5,0,0.904,0.407,0.904,0.91v4.616
	c0,0.503-0.404,0.911-0.904,0.911C17.25,29.451,16.846,29.043,16.846,28.54z M28.583,28.559v-4.617c0-0.503,0.404-0.911,0.905-0.911
	c0.5,0,0.904,0.408,0.904,0.911v4.617c0,0.502-0.404,0.909-0.904,0.909C28.987,29.468,28.583,29.061,28.583,28.559z M45.221,19.211
	H23.889v13.23h-0.648v-13.23H1.91v-0.648h21.331V5.331h0.648v13.231h21.332V19.211z"/>
</svg>
