<?xml version="1.0" encoding="utf-8"?>
<!-- Generator: Adobe Illustrator 16.0.0, SVG Export Plug-In . SVG Version: 6.00 Build 0)  -->
<!DOCTYPE svg PUBLIC "-//W3C//DTD SVG 1.1//EN" "http://www.w3.org/Graphics/SVG/1.1/DTD/svg11.dtd">
<svg version="1.1" id="Layer_1" xmlns="http://www.w3.org/2000/svg" xmlns:xlink="http://www.w3.org/1999/xlink" x="0px" y="0px"
	 width="48px" height="48px" viewBox="0 0 48 48" enable-background="new 0 0 48 48" xml:space="preserve">
<path fill="#414042" d="M39.656,1.188H23.913h-0.519H7.595H7.078v0.518v21.895v0.518v8.74v0.519v8.317v0.518v4.232h0.887v-4.232
	h15.43h0.519h15.365v4.232h0.887v-4.232h0.01v-9.354v-8.74v-0.518V1.706V1.188H39.656z M27.516,9.091v6.607
	c0,0.365-0.293,0.66-0.655,0.66s-0.655-0.295-0.655-0.66V9.091c0-0.365,0.293-0.661,0.655-0.661S27.516,8.726,27.516,9.091z
	 M21.049,9.091v6.607c0,0.365-0.299,0.66-0.67,0.66c-0.37,0-0.67-0.295-0.67-0.66V9.091c0-0.365,0.3-0.661,0.67-0.661
	C20.75,8.43,21.049,8.726,21.049,9.091z M19.868,39.596v-3.755c0-0.229,0.298-0.414,0.667-0.414c0.367,0,0.666,0.186,0.666,0.414
	v3.755c0,0.229-0.299,0.414-0.666,0.414C20.166,40.01,19.868,39.824,19.868,39.596z M26.098,39.596v-3.755
	c0-0.229,0.297-0.414,0.663-0.414s0.665,0.186,0.665,0.414v3.755c0,0.229-0.299,0.414-0.665,0.414S26.098,39.824,26.098,39.596z
	 M39.656,24.118H23.913v8.74h15.744v0.519H23.913v8.317h-0.519v-8.317H7.595v-0.519h15.799v-8.74H7.595v-0.518h15.799V1.706h0.519
	v21.895h15.744V24.118z M27.418,26.61v3.756c0,0.229-0.297,0.414-0.662,0.414s-0.662-0.186-0.662-0.414V26.61
	c0-0.229,0.297-0.414,0.662-0.414S27.418,26.382,27.418,26.61z M19.768,30.361v-3.757c0-0.228,0.295-0.413,0.659-0.413
	c0.364,0,0.66,0.186,0.66,0.413v3.757c0,0.229-0.295,0.414-0.66,0.414C20.063,30.775,19.768,30.59,19.768,30.361z"/>
</svg>
