<?xml version="1.0" encoding="utf-8"?>
<!-- Generator: Adobe Illustrator 16.0.0, SVG Export Plug-In . SVG Version: 6.00 Build 0)  -->
<!DOCTYPE svg PUBLIC "-//W3C//DTD SVG 1.1//EN" "http://www.w3.org/Graphics/SVG/1.1/DTD/svg11.dtd">
<svg version="1.1" id="Layer_1" xmlns="http://www.w3.org/2000/svg" xmlns:xlink="http://www.w3.org/1999/xlink" x="0px" y="0px"
	 width="48px" height="48px" viewBox="0 0 48 48" enable-background="new 0 0 48 48" xml:space="preserve">
<path fill="#414042" d="M45.511,9.652H31.379h-0.368H16.36h-0.368H1.86H1.343v0.518v6.771v0.518v7.482v0.518v6.795v0.688v5.039
	h0.933v-5.039h13.717v-7.482H1.86v-0.518h14.132v-7.482H1.86v-0.518h14.132V10.17h0.368v6.771h14.65V10.17h0.368v6.771h14.132v0.518
	H31.379v7.482h14.132v0.518H31.379v7.482h13.716v5.039h0.934v-5.039v-0.688v-6.795v-0.518v-7.482v-0.518V10.17V9.652H45.511z
	 M6.398,28.59h4.539c0.271,0,0.49,0.273,0.49,0.611s-0.219,0.609-0.49,0.609H6.398c-0.271,0-0.492-0.271-0.492-0.609
	S6.127,28.59,6.398,28.59z M6.398,20.59h4.539c0.271,0,0.49,0.273,0.49,0.611s-0.219,0.609-0.49,0.609H6.398
	c-0.271,0-0.492-0.271-0.492-0.609S6.127,20.59,6.398,20.59z M10.938,13.893h-4.54c-0.271,0-0.49-0.266-0.49-0.596
	c0-0.328,0.219-0.594,0.49-0.594h4.54c0.271,0,0.49,0.266,0.49,0.594C11.428,13.627,11.208,13.893,10.938,13.893z M25.955,13.893
	h-4.539c-0.271,0-0.491-0.266-0.491-0.596c0-0.328,0.22-0.594,0.491-0.594h4.539c0.271,0,0.491,0.266,0.491,0.594
	C26.446,13.627,26.227,13.893,25.955,13.893z M40.974,21.811h-4.539c-0.271,0-0.492-0.271-0.492-0.609s0.221-0.611,0.492-0.611
	h4.539c0.271,0,0.49,0.273,0.49,0.611S41.245,21.811,40.974,21.811z M40.974,29.811h-4.539c-0.271,0-0.492-0.271-0.492-0.609
	s0.221-0.611,0.492-0.611h4.539c0.271,0,0.49,0.273,0.49,0.611S41.245,29.811,40.974,29.811z M40.974,13.893h-4.539
	c-0.271,0-0.492-0.266-0.492-0.596c0-0.328,0.221-0.594,0.492-0.594h4.539c0.271,0,0.49,0.266,0.49,0.594
	C41.464,13.627,41.245,13.893,40.974,13.893z"/>
</svg>
