<?xml version="1.0" encoding="utf-8"?>
<!-- Generator: Adobe Illustrator 16.0.0, SVG Export Plug-In . SVG Version: 6.00 Build 0)  -->
<!DOCTYPE svg PUBLIC "-//W3C//DTD SVG 1.1//EN" "http://www.w3.org/Graphics/SVG/1.1/DTD/svg11.dtd">
<svg version="1.1" id="Layer_1" xmlns="http://www.w3.org/2000/svg" xmlns:xlink="http://www.w3.org/1999/xlink" x="0px" y="0px"
	 width="48px" height="48px" viewBox="0 0 48 48" enable-background="new 0 0 48 48" xml:space="preserve">
<g>
	<path fill="#414042" d="M45.717,10.303H1.775v2.523h2.688v10.605h15.501V12.826h20.633V37.33h2.513V12.826h2.606V10.303z
		 M14.485,18.67H9.946c-0.271,0-0.492-0.242-0.492-0.541s0.221-0.539,0.492-0.539h4.539c0.271,0,0.49,0.24,0.49,0.539
		S14.757,18.67,14.485,18.67z"/>
	<path fill="#414042" d="M4.464,34.498v2.832h1.329v-2.832h12.843v2.832h1.329v-2.832V23.891H4.464V34.498z M9.945,28.654h4.539
		c0.271,0,0.49,0.242,0.49,0.539c0,0.299-0.219,0.541-0.49,0.541H9.945c-0.271,0-0.492-0.242-0.492-0.541
		C9.453,28.896,9.674,28.654,9.945,28.654z"/>
</g>
</svg>
