<?xml version="1.0" encoding="utf-8"?>
<!-- Generator: Adobe Illustrator 16.0.0, SVG Export Plug-In . SVG Version: 6.00 Build 0)  -->
<!DOCTYPE svg PUBLIC "-//W3C//DTD SVG 1.1//EN" "http://www.w3.org/Graphics/SVG/1.1/DTD/svg11.dtd">
<svg version="1.1" id="Layer_1" xmlns="http://www.w3.org/2000/svg" xmlns:xlink="http://www.w3.org/1999/xlink" x="0px" y="0px"
	 width="48px" height="48px" viewBox="0 0 48 48" enable-background="new 0 0 48 48" xml:space="preserve">
<path fill="#414042" d="M8.061,2.494v42.475H39.1V2.494H8.061z M10.103,4.673h12.116v5.648H10.103V4.673z M19.135,37.771
	c0,0.271-0.273,0.49-0.61,0.49c-0.338,0-0.611-0.219-0.611-0.49v-4.539c0-0.271,0.273-0.492,0.611-0.492
	c0.337,0,0.61,0.221,0.61,0.492V37.771z M22.627,25.024H10.511v-5.649h12.116V25.024z M22.627,17.673H10.511v-5.648h12.116V17.673z
	 M29.135,37.771c0,0.271-0.273,0.49-0.61,0.49c-0.338,0-0.61-0.219-0.61-0.49v-4.539c0-0.271,0.272-0.492,0.61-0.492
	c0.337,0,0.61,0.221,0.61,0.492V37.771z M36.65,25.024H24.534v-5.649H36.65V25.024z M36.65,17.673H24.534v-5.648H36.65V17.673z
	 M36.65,10.321H24.534V4.673H36.65V10.321z"/>
</svg>
