<?xml version="1.0" encoding="utf-8"?>
<!-- Generator: Adobe Illustrator 16.0.0, SVG Export Plug-In . SVG Version: 6.00 Build 0)  -->
<!DOCTYPE svg PUBLIC "-//W3C//DTD SVG 1.1//EN" "http://www.w3.org/Graphics/SVG/1.1/DTD/svg11.dtd">
<svg version="1.1" id="Layer_1" xmlns="http://www.w3.org/2000/svg" xmlns:xlink="http://www.w3.org/1999/xlink" x="0px" y="0px"
	 width="48px" height="48px" viewBox="0 0 48 48" enable-background="new 0 0 48 48" xml:space="preserve">
<g>
	<path fill="#414042" d="M27.244,0.738h-7.858v25.969h7.858V0.738z M25.64,17.696c0,0.276-0.224,0.5-0.5,0.5s-0.5-0.224-0.5-0.5
		V9.715c0-0.276,0.224-0.5,0.5-0.5s0.5,0.224,0.5,0.5V17.696z"/>
	<path fill="#414042" d="M18.386,0.738H9.634v25.969h8.751V0.738z M16.916,17.696c0,0.276-0.224,0.5-0.5,0.5s-0.5-0.224-0.5-0.5
		V9.715c0-0.276,0.224-0.5,0.5-0.5s0.5,0.224,0.5,0.5V17.696z"/>
	<path fill="#414042" d="M28.244,0.738v25.969h9.773V0.738H28.244z M31.64,17.696c0,0.276-0.224,0.5-0.5,0.5s-0.5-0.224-0.5-0.5
		V9.715c0-0.276,0.224-0.5,0.5-0.5s0.5,0.224,0.5,0.5V17.696z"/>
	<path fill="#414042" d="M24.128,44.91h12.878v1.313c0,0.276,0.224,0.5,0.5,0.5s0.5-0.224,0.5-0.5V44.91h0.011V27.707H24.128V44.91z
		 M26.671,34.924c0.478,0,0.866,0.389,0.866,0.866s-0.389,0.866-0.866,0.866s-0.866-0.389-0.866-0.866S26.193,34.924,26.671,34.924z
		"/>
	<path fill="#414042" d="M9.634,44.91h0.011v1.313c0,0.276,0.224,0.5,0.5,0.5s0.5-0.224,0.5-0.5V44.91h12.483V27.707H9.634V44.91z
		 M20.403,34.883c0.478,0,0.866,0.389,0.866,0.866s-0.389,0.866-0.866,0.866s-0.866-0.389-0.866-0.866S19.926,34.883,20.403,34.883z
		"/>
</g>
</svg>
