<?xml version="1.0" encoding="utf-8"?>
<!-- Generator: Adobe Illustrator 16.0.0, SVG Export Plug-In . SVG Version: 6.00 Build 0)  -->
<!DOCTYPE svg PUBLIC "-//W3C//DTD SVG 1.1//EN" "http://www.w3.org/Graphics/SVG/1.1/DTD/svg11.dtd">
<svg version="1.1" id="Layer_1" xmlns="http://www.w3.org/2000/svg" xmlns:xlink="http://www.w3.org/1999/xlink" x="0px" y="0px"
	 width="48px" height="48px" viewBox="0 0 48 48" enable-background="new 0 0 48 48" xml:space="preserve">
<path fill="#414042" d="M7.622,2.968V40.72v3.775h2.018v-2.277h28.863v2.277h2.018V40.72V2.968H7.622z M26.954,17.743
	c0-0.416,0.272-0.754,0.61-0.754s0.611,0.338,0.611,0.754v6.945c0,0.416-0.273,0.751-0.611,0.751s-0.61-0.335-0.61-0.751V17.743z
	 M23.499,3.731h1.145v36.494h-1.145V3.731z M19.954,17.743c0-0.416,0.273-0.754,0.611-0.754c0.337,0,0.61,0.338,0.61,0.754v6.945
	c0,0.416-0.273,0.751-0.61,0.751c-0.338,0-0.611-0.335-0.611-0.751V17.743z"/>
</svg>
