<?xml version="1.0" encoding="utf-8"?>
<!-- Generator: Adobe Illustrator 16.0.0, SVG Export Plug-In . SVG Version: 6.00 Build 0)  -->
<!DOCTYPE svg PUBLIC "-//W3C//DTD SVG 1.1//EN" "http://www.w3.org/Graphics/SVG/1.1/DTD/svg11.dtd">
<svg version="1.1" id="Layer_1" xmlns="http://www.w3.org/2000/svg" xmlns:xlink="http://www.w3.org/1999/xlink" x="0px" y="0px"
	 width="48px" height="48px" viewBox="0 0 48 48" enable-background="new 0 0 48 48" xml:space="preserve">
<path fill="#414042" d="M4.348,1.14v43.07h5.296v2.113h3.498V44.21h23.125v2.113h3.498V44.21h4.518V1.14H4.348z M21.477,41.878
	H6.535V29.343h14.942V41.878z M21.477,27.448H6.535v-6.705h14.942V27.448z M21.477,18.521H6.535v-6.704h14.942V18.521z
	 M21.477,9.595H6.535V2.89h14.942V9.595z M30,23.003c0,0.59-0.479,1.068-1.068,1.068s-1.07-0.479-1.07-1.068v-6.024
	c0-0.591,0.48-1.069,1.07-1.069S30,16.388,30,16.979V23.003z"/>
</svg>
