<?xml version="1.0" encoding="utf-8"?>
<!-- Generator: Adobe Illustrator 16.0.0, SVG Export Plug-In . SVG Version: 6.00 Build 0)  -->
<!DOCTYPE svg PUBLIC "-//W3C//DTD SVG 1.1//EN" "http://www.w3.org/Graphics/SVG/1.1/DTD/svg11.dtd">
<svg version="1.1" id="Layer_1" xmlns="http://www.w3.org/2000/svg" xmlns:xlink="http://www.w3.org/1999/xlink" x="0px" y="0px"
	 width="48px" height="48px" viewBox="0 0 48 48" enable-background="new 0 0 48 48" xml:space="preserve">
<g>
	<path fill="#414042" d="M28.774,22.782l1.064-13.367V8.34c0-3.395-2.678-6.146-5.979-6.146h-0.597
		c-3.302,0-5.979,2.752-5.979,6.146v1.075l1.054,13.367H28.774z"/>
	<rect x="21.492" y="24.321" fill="#414042" width="3.945" height="1.637"/>
	<path fill="#414042" d="M34.288,18.271h-2.693c-0.552,0-1,0.447-1,1v8.771c-1.312-0.954-2.791-0.955-2.791-0.955h-8.725
		c-0.989,0-1.898,0.519-2.552,1.021v-8.838c0-0.553-0.448-1-1-1h-2.693c-0.552,0-1,0.447-1,1s0.448,1,1,1h1.693v9.428
		c0,0.553,0.448,1,1,1v0.743h7.144v7.331h-1.143v1.525l-5.531,2.569c-0.119,0.013-0.227,0.061-0.306,0.142l-0.04,0.019h0.027
		c-0.079,0.088-0.13,0.201-0.13,0.329c0,0.276,0.224,0.5,0.5,0.5h1.36c0.276,0,0.5-0.224,0.5-0.5c0-0.117-0.046-0.22-0.114-0.306
		l0.042,0.001l4.88-2.279h1.494l4.88,2.279l0.041-0.001c-0.068,0.086-0.114,0.188-0.114,0.306c0,0.276,0.224,0.5,0.5,0.5h1.36
		c0.276,0,0.5-0.224,0.5-0.5c0-0.128-0.051-0.241-0.13-0.329h0.028l-0.041-0.02c-0.078-0.08-0.186-0.127-0.304-0.141l-5.53-2.568
		v-1.526h-1.144v-7.331h7.336v-0.743c0.553,0,1-0.447,1-1v-9.428h1.693c0.553,0,1-0.447,1-1S34.841,18.271,34.288,18.271z"/>
	<path fill="#414042" d="M17.644,44.269h-1.827c-0.276,0-0.5,0.224-0.5,0.5s0.224,0.5,0.5,0.5h1.827c0.276,0,0.5-0.224,0.5-0.5
		S17.92,44.269,17.644,44.269z"/>
	<path fill="#414042" d="M31.112,44.269h-1.827c-0.276,0-0.5,0.224-0.5,0.5s0.224,0.5,0.5,0.5h1.827c0.276,0,0.5-0.224,0.5-0.5
		S31.389,44.269,31.112,44.269z"/>
</g>
</svg>
