<?xml version="1.0" encoding="utf-8"?>
<!-- Generator: Adobe Illustrator 16.0.0, SVG Export Plug-In . SVG Version: 6.00 Build 0)  -->
<!DOCTYPE svg PUBLIC "-//W3C//DTD SVG 1.1//EN" "http://www.w3.org/Graphics/SVG/1.1/DTD/svg11.dtd">
<svg version="1.1" id="Layer_1" xmlns="http://www.w3.org/2000/svg" xmlns:xlink="http://www.w3.org/1999/xlink" x="0px" y="0px"
	 width="48px" height="48px" viewBox="0 0 48 48" enable-background="new 0 0 48 48" xml:space="preserve">
<g>
	<path fill="#414042" d="M36.121,26.279h-1.869c-0.029,0.005-0.055,0.018-0.085,0.018s-0.057-0.013-0.085-0.018H11.456
		c-0.418,0-0.758,0.34-0.758,0.758v5.191h26.181v-5.191C36.879,26.619,36.539,26.279,36.121,26.279z"/>
	<path fill="#414042" d="M33.667,22.396c0-1.213,0.985-2.199,2.197-2.199h2.016v-3.206c0-0.97-0.789-1.758-1.758-1.758H26.028
		c-0.97,0-1.758,0.788-1.758,1.758v8.288h9.396V22.396z"/>
	<path fill="#414042" d="M12.775,25.279v-2.958c0-0.636-0.517-1.151-1.151-1.151H9.698v0.011H7.467c-0.976,0-1.77,0.794-1.77,1.77
		v7.509c0,0.976,0.794,1.77,1.77,1.77h2.231v-5.191c0-0.969,0.789-1.758,1.758-1.758H12.775z"/>
	<path fill="#414042" d="M40.315,21.197h-4.451c-0.66,0-1.197,0.538-1.197,1.199v2.883h1.454c0.97,0,1.758,0.789,1.758,1.758v5.191
		h2.268c0.976,0,1.77-0.794,1.77-1.77V22.95C41.916,22.032,41.211,21.284,40.315,21.197z"/>
	<path fill="#414042" d="M13.775,22.321v2.958h9.542v-8.288c0-0.97-0.789-1.758-1.758-1.758H11.456
		c-0.969,0-1.758,0.788-1.758,1.758v3.179h1.926C12.811,20.17,13.775,21.135,13.775,22.321z"/>
</g>
</svg>
