<?xml version="1.0" encoding="utf-8"?>
<!-- Generator: Adobe Illustrator 16.0.0, SVG Export Plug-In . SVG Version: 6.00 Build 0)  -->
<!DOCTYPE svg PUBLIC "-//W3C//DTD SVG 1.1//EN" "http://www.w3.org/Graphics/SVG/1.1/DTD/svg11.dtd">
<svg version="1.1" id="Layer_1" xmlns="http://www.w3.org/2000/svg" xmlns:xlink="http://www.w3.org/1999/xlink" x="0px" y="0px"
	 width="48px" height="48px" viewBox="0 0 48 48" enable-background="new 0 0 48 48" xml:space="preserve">
<g>
	<path fill="#414042" d="M32.127,27.253H15.836c-1.022,0-1.851,0.828-1.851,1.851v6.386h19.991v-6.386
		C33.977,28.081,33.148,27.253,32.127,27.253z"/>
	<path fill="#414042" d="M16.522,22.212v3.973c0,0.023-0.011,0.045-0.014,0.068h15.075V22.21c0-1.383,1.126-2.509,2.509-2.509h0.385
		v-5.378c0-1.296-1.055-2.351-2.35-2.351H15.836c-1.296,0-2.351,1.055-2.351,2.351v5.378h0.526
		C15.396,19.701,16.522,20.827,16.522,22.212z"/>
	<path fill="#414042" d="M15.488,26.185v-3.973c0-0.814-0.663-1.477-1.477-1.477H9.849H9.554c-0.508,0-0.957,0.258-1.223,0.649
		l0,0.001h0c-0.071,0.104-0.123,0.222-0.166,0.343c-0.01,0.03-0.02,0.061-0.028,0.091c-0.035,0.126-0.06,0.256-0.06,0.393v11.801
		c0,0.814,0.663,1.477,1.477,1.477h3.431v-6.386c0-1.442,1.082-2.62,2.474-2.808L15.488,26.185z"/>
	<path fill="#414042" d="M39.967,21.819c-0.009-0.03-0.018-0.061-0.028-0.091c-0.042-0.121-0.095-0.238-0.165-0.343h-0.001
		l-0.001-0.001c-0.266-0.392-0.715-0.649-1.223-0.649h-0.295h-4.162c-0.813,0-1.477,0.662-1.477,1.477v3.973l0.029,0.111
		c1.392,0.188,2.474,1.365,2.474,2.808v6.386h3.431c0.814,0,1.478-0.662,1.478-1.477V22.212
		C40.026,22.075,40.002,21.945,39.967,21.819z"/>
</g>
</svg>
