<?xml version="1.0" encoding="utf-8"?>
<!-- Generator: Adobe Illustrator 16.0.0, SVG Export Plug-In . SVG Version: 6.00 Build 0)  -->
<!DOCTYPE svg PUBLIC "-//W3C//DTD SVG 1.1//EN" "http://www.w3.org/Graphics/SVG/1.1/DTD/svg11.dtd">
<svg version="1.1" id="Layer_1" xmlns="http://www.w3.org/2000/svg" xmlns:xlink="http://www.w3.org/1999/xlink" x="0px" y="0px"
	 width="48px" height="48px" viewBox="0 0 48 48" enable-background="new 0 0 48 48" xml:space="preserve">
<g>
	<rect x="4.882" y="25.911" fill="#414042" width="1.105" height="15.4"/>
	<rect x="42.764" y="25.911" fill="#414042" width="1.105" height="14.201"/>
	<path fill="#414042" d="M45.922,24.891H2.672c-0.276,0-0.5,0.224-0.5,0.5s0.224,0.5,0.5,0.5h43.25c0.276,0,0.5-0.224,0.5-0.5
		S46.198,24.891,45.922,24.891z"/>
	<path fill="#414042" d="M31.444,8.06c1.27,0.135,2.259,0.639,2.979,1.574c2.351,3.052,1.079,9.349,0.983,9.803l-4.243,5.277h9.646
		l-4.355-5.416c0.292-1.558,1.134-7.192-1.238-10.273c-0.976-1.268-2.366-1.945-4.133-2.016c-0.007,0-0.014,0-0.02,0
		c-0.012,0-0.022,0.006-0.034,0.007c-1.286-1.459-5.257-0.834-6.929,0.171l3.822,6.362C29.439,12.639,31.564,9.918,31.444,8.06z"/>
</g>
</svg>
