<?xml version="1.0" encoding="utf-8"?>
<!-- Generator: Adobe Illustrator 16.0.0, SVG Export Plug-In . SVG Version: 6.00 Build 0)  -->
<!DOCTYPE svg PUBLIC "-//W3C//DTD SVG 1.1//EN" "http://www.w3.org/Graphics/SVG/1.1/DTD/svg11.dtd">
<svg version="1.1" id="Layer_1" xmlns="http://www.w3.org/2000/svg" xmlns:xlink="http://www.w3.org/1999/xlink" x="0px" y="0px"
	 width="48px" height="48px" viewBox="0 0 48 48" enable-background="new 0 0 48 48" xml:space="preserve">
<g>
	<path fill="#414042" d="M5.981,40.719c0,1.93,1.57,3.5,3.5,3.5h28.121c1.93,0,3.5-1.57,3.5-3.5V16.803H5.981V40.719z"/>
	<path fill="#414042" d="M34.785,6.144h-6.359c-1.531,0-2.778,1.246-2.778,2.777v1.486c0,1.531,1.247,2.777,2.778,2.777h6.359
		c1.531,0,2.778-1.246,2.778-2.777V8.921C37.563,7.39,36.316,6.144,34.785,6.144z"/>
	<path fill="#414042" d="M37.603,3.243H9.481c-1.93,0-3.5,1.57-3.5,3.5v9.06h35.121v-9.06C41.103,4.813,39.532,3.243,37.603,3.243z
		 M22.522,10.677c0,1.93-1.57,3.5-3.5,3.5l-7.189-0.063c-1.93,0-3.5-1.57-3.5-3.5V8.743c0-1.93,1.57-3.5,3.5-3.5l7.189,0.063
		c1.93,0,3.5,1.57,3.5,3.5V10.677z M38.752,10.614c0,1.93-1.57,3.5-3.5,3.5h-7.229c-1.93,0-3.5-1.57-3.5-3.5V8.743
		c0-1.93,1.57-3.5,3.5-3.5h7.229c1.93,0,3.5,1.57,3.5,3.5V10.614z"/>
	<path fill="#414042" d="M18.566,6.175h-6.359c-1.531,0-2.778,1.246-2.778,2.777v1.486c0,1.531,1.247,2.777,2.778,2.777h6.359
		c1.531,0,2.778-1.246,2.778-2.777V8.952C21.345,7.421,20.098,6.175,18.566,6.175z"/>
</g>
</svg>
