<?xml version="1.0" encoding="utf-8"?>
<!-- Generator: Adobe Illustrator 16.0.0, SVG Export Plug-In . SVG Version: 6.00 Build 0)  -->
<!DOCTYPE svg PUBLIC "-//W3C//DTD SVG 1.1//EN" "http://www.w3.org/Graphics/SVG/1.1/DTD/svg11.dtd">
<svg version="1.1" id="Layer_1" xmlns="http://www.w3.org/2000/svg" xmlns:xlink="http://www.w3.org/1999/xlink" x="0px" y="0px"
	 width="48px" height="48px" viewBox="0 0 48 48" enable-background="new 0 0 48 48" xml:space="preserve">
<g>
	<g>
		<path fill="#414042" d="M41.868,21.007H5.706c-1.137,0-2.062,0.925-2.062,2.062v13.138c0,0.276,0.224,0.5,0.5,0.5H43.43
			c0.276,0,0.5-0.224,0.5-0.5V23.068C43.93,21.932,43.005,21.007,41.868,21.007z"/>
	</g>
	<g>
		<path fill="#414042" d="M11.473,37.186h-4.77c-0.171,0-0.309,0.138-0.309,0.309v0.794c0,0.17,0.138,0.309,0.309,0.309h4.77
			c0.171,0,0.309-0.139,0.309-0.309v-0.794C11.781,37.323,11.644,37.186,11.473,37.186z"/>
	</g>
	<g>
		<path fill="#414042" d="M41.131,37.186h-4.769c-0.171,0-0.309,0.138-0.309,0.309v0.794c0,0.17,0.138,0.309,0.309,0.309h4.769
			c0.171,0,0.309-0.139,0.309-0.309v-0.794C41.439,37.323,41.302,37.186,41.131,37.186z"/>
	</g>
	<g>
		<path fill="#414042" d="M8.068,17.02c0-1.676,1.363-3.039,3.038-3.039h8.908c1.675,0,3.038,1.363,3.038,3.039v2.987h1.5V17.02
			c0-1.676,1.363-3.039,3.039-3.039h9.366c1.676,0,3.039,1.363,3.039,3.039v2.987h1.374v-9.08c0-1.137-0.925-2.061-2.061-2.061
			H8.264c-1.136,0-2.061,0.924-2.061,2.061v9.08h1.865V17.02z"/>
	</g>
	<g>
		<path fill="#414042" d="M11.106,14.98c-1.124,0-2.038,0.915-2.038,2.039v2.987h12.984V17.02c0-1.124-0.914-2.039-2.038-2.039
			H11.106z"/>
	</g>
	<g>
		<path fill="#414042" d="M27.592,14.98c-1.124,0-2.039,0.915-2.039,2.039v2.987h13.444V17.02c0-1.124-0.915-2.039-2.039-2.039
			H27.592z"/>
	</g>
</g>
</svg>
