<?xml version="1.0" encoding="utf-8"?>
<!-- Generator: Adobe Illustrator 16.0.0, SVG Export Plug-In . SVG Version: 6.00 Build 0)  -->
<!DOCTYPE svg PUBLIC "-//W3C//DTD SVG 1.1//EN" "http://www.w3.org/Graphics/SVG/1.1/DTD/svg11.dtd">
<svg version="1.1" id="Layer_1" xmlns="http://www.w3.org/2000/svg" xmlns:xlink="http://www.w3.org/1999/xlink" x="0px" y="0px"
	 width="1024px" height="1024px" viewBox="0 0 1024 1024" enable-background="new 0 0 1024 1024" xml:space="preserve">
<g>
	<path fill="#414042" d="M710.417,942.667H402.458c-5.916,0-10.666,4.75-10.666,10.666c0,5.875,4.75,10.667,10.666,10.667h307.959
		c5.875,0,10.666-4.792,10.666-10.667C721.083,947.417,716.292,942.667,710.417,942.667z"/>
	<path fill="#414042" d="M974.583,477.667H368.679l-184.762-426.5c-2.334-5.417-8.584-7.959-14.042-5.584
		c-5.417,2.375-7.875,8.625-5.542,14.042l181.081,418.042h-27.238L87.292,216.042c-3.917-4.417-10.625-4.834-15.084-0.959
		c-4.416,3.917-4.833,10.667-0.916,15.084l218.418,247.5H121.292c-5.917,0-10.667,4.791-10.667,10.666
		c0,19.834,1.417,40.25,4.333,61.167l7.375,39.333c0.209,0.917,0.542,1.834,0.792,2.75H972.75c0.25-1.083,0.625-2.125,0.917-3.25
		L981,549.042c2.833-20.375,4.25-40.792,4.25-60.709C985.25,482.458,980.5,477.667,974.583,477.667z"/>
	<path fill="#414042" d="M547.958,925.667c195.375,0,363.875-127.292,418.792-312.75H129.083
		C183.833,798.208,352.458,925.667,547.958,925.667z"/>
</g>
</svg>
