<?xml version="1.0" encoding="utf-8"?>
<!-- Generator: Adobe Illustrator 16.0.0, SVG Export Plug-In . SVG Version: 6.00 Build 0)  -->
<!DOCTYPE svg PUBLIC "-//W3C//DTD SVG 1.1//EN" "http://www.w3.org/Graphics/SVG/1.1/DTD/svg11.dtd">
<svg version="1.1" id="Layer_1" xmlns="http://www.w3.org/2000/svg" xmlns:xlink="http://www.w3.org/1999/xlink" x="0px" y="0px"
	 width="1024px" height="1024px" viewBox="0 0 1024 1024" enable-background="new 0 0 1024 1024" xml:space="preserve">
<g>
	<path fill="#414042" d="M989.25,706.5H34.792c-11.792,0-21.334,9.542-21.334,21.333c0,11.792,9.542,21.334,21.334,21.334H989.25
		c11.792,0,21.333-9.542,21.333-21.334C1010.583,716.042,1001.042,706.5,989.25,706.5z"/>
	<path fill="#414042" d="M775.125,775.667h-516.25c-5.875,0-10.667,4.791-10.667,10.666c0,5.917,4.792,10.667,10.667,10.667h516.25
		c5.875,0,10.667-4.75,10.667-10.667C785.792,780.458,781,775.667,775.125,775.667z"/>
	<path fill="#414042" d="M67.333,502.917c0.417,0.208,41.625,21.041,82.292,58.333c3.375,3.083,7.333,7.125,12,11.875
		c23.708,24.083,67.875,68.958,143.125,100.625c1.292,0.542,2.708,0.833,4.125,0.833h553.5c3.708,0,7.167-1.916,9.083-5.083
		l7-11.417c0.417-0.708,0.75-1.458,1-2.25l3.917-12.166c3.708-20.792-19.167-59.292-59.958-118.834
		c-2.084-3-3.917-5.708-5.584-8.166c-7.291,16.708-16.666,34.583-28.541,53.958c-2.625,4.25-7.167,6.583-11.834,6.583
		c-2.5,0-5-0.666-7.25-2.041c-6.541-4-8.583-12.542-4.541-19.084c16.75-27.291,27.166-49.291,33.458-67.125
		c9.243-26.162,9.45-43.242,6.863-54.133l54.72-68.533c0,0,32.584,13.416,33.917-16c0,0-2.125-21.417-23.417-22.709
		c0,0,5.417-29.166-25.25-30.416c0,0-27.25,0.166-20.916,30.708c0,0,4.166,13.333,9.625,14.042l-63.146,64.5
		c-3.396-0.534-5.644-0.584-5.729-0.584c-11.125,0.792-21.959,2.875-32.375,5.709C655,433,598.417,504.375,597.75,505.208
		c-4.708,6.042-13.417,7.125-19.458,2.417c-6.042-4.708-7.125-13.458-2.417-19.458c2.667-3.417,54.708-69.084,132.167-97.542
		c-15.959-11.75-27.375-19.083-33.792-23.042c-5.458,14.625-13.5,30.584-24.375,47.959c-2.625,4.208-7.125,6.5-11.75,6.5
		c-2.542,0-5.083-0.667-7.375-2.125c-6.458-4.042-8.417-12.625-4.375-19.084c32.361-51.609,30.565-76.119,26.002-86.543
		l43.415-51.998c0,0,23.833,9.833,24.833-11.709c0,0-1.583-15.666-17.167-16.625c0,0,3.959-21.333-18.458-22.291
		c0,0-19.958,0.125-15.333,22.5c0,0,3.041,9.75,7.041,10.291l-57.867,54.455c-72.86,6.484-129.618,81.79-130.216,82.587
		c-4.583,6.125-13.25,7.417-19.375,2.917c-6.167-4.584-7.458-13.25-2.917-19.417c1.334-1.792,17.25-22.792,43.209-44.5
		c-7.75-0.542-15.542-1.125-23.292-1.125c-116.083,0-207.042,58.083-261.417,92.792c-15.25,9.75-32.583,20.791-37.416,21.125
		c-31.667,0-78-17.917-78.459-18.084c-5.208-2.083-11.083,0.292-13.5,5.292L62.5,488.75C59.958,494,62.125,500.333,67.333,502.917z"
		/>
</g>
</svg>
