<?xml version="1.0" encoding="utf-8"?>
<!-- Generator: Adobe Illustrator 16.0.0, SVG Export Plug-In . SVG Version: 6.00 Build 0)  -->
<!DOCTYPE svg PUBLIC "-//W3C//DTD SVG 1.1//EN" "http://www.w3.org/Graphics/SVG/1.1/DTD/svg11.dtd">
<svg version="1.1" id="Layer_1" xmlns="http://www.w3.org/2000/svg" xmlns:xlink="http://www.w3.org/1999/xlink" x="0px" y="0px"
	 width="1024px" height="1024px" viewBox="0 0 1024 1024" enable-background="new 0 0 1024 1024" xml:space="preserve">
<g>
	<path fill="#414042" d="M775.917,619.5c5.75-10.417,5-20.583,3.916-26.042v-0.416c0-3.834-2-7.167-5-9.042
		c-14.708-15.208-24.833-26.083-30.083-32.292c-12.417-14.666-53.958-81.125-73.917-113.666
		c-1.208-2.292-125-228.167-345.041-228.167l-7,0.083c-153.709,3.292-208.042,89.125-224.25,125.917
		C70.5,390.375,76,451.708,108.208,488.542c52.209,59.75,139.625,159.708,273.042,159.708c16.5,0,33.5-1.583,50.5-4.625
		c105.125-18.917,193.333-13.75,257.792,15.042c0.208,0.083,0.458,0.208,0.666,0.291c1.334,0.584,2.75,0.875,4.167,0.875
		c3.625,0,7.167-1.916,9.125-5.208c0.083-0.083,0.125-0.208,0.167-0.292c3.583-1.5,12.166-4.5,31.958-9.083
		C755.5,640.625,769.083,631.958,775.917,619.5z"/>
	<path fill="#414042" d="M956.75,701.958c0,0-7.292-46.416-57.708-27.708c0,0-21.625,10.458-21.417,20l-74.792-61.75
		c-0.416,0.875-0.625,1.708-1.125,2.625c-9.875,18-28.083,30.208-54.125,36.25c-1.208,0.25-2.125,0.5-3.25,0.75l98.459,72.75
		c0,0-14.5,58.958,35.958,53.625c0,0,35.958-9.125,32.708-45.708C911.458,752.792,962.458,754.458,956.75,701.958z"/>
</g>
</svg>
