<?xml version="1.0" encoding="utf-8"?>
<!-- Generator: Adobe Illustrator 16.0.0, SVG Export Plug-In . SVG Version: 6.00 Build 0)  -->
<!DOCTYPE svg PUBLIC "-//W3C//DTD SVG 1.1//EN" "http://www.w3.org/Graphics/SVG/1.1/DTD/svg11.dtd">
<svg version="1.1" id="Layer_1" xmlns="http://www.w3.org/2000/svg" xmlns:xlink="http://www.w3.org/1999/xlink" x="0px" y="0px"
	 width="1024px" height="1024px" viewBox="0 0 1024 1024" enable-background="new 0 0 1024 1024" xml:space="preserve">
<g>
	<path fill="#414042" d="M740.667,298.417c-10.5,0-20.917,1.208-31.084,3.541c-30.291-74.916-103.333-124.541-184.75-124.541
		c-81.416,0-154.416,49.625-184.708,124.541c-10.167-2.333-20.583-3.541-31.083-3.541c-76.542,0-138.75,62.25-138.75,138.75
		s62.208,138.75,138.75,138.75c3.458,0,6.833-0.417,9.958-0.917c1.25,30.292,2,72.625,2.75,117.125
		c0.167,9.708,0.375,19.583,0.542,29.458h410.541c-0.166-46.5-0.666-101.291-2.083-146.041c3.292,0.25,6.583,0.375,9.917,0.375
		c76.5,0,138.75-62.25,138.75-138.75S817.167,298.417,740.667,298.417z"/>
	<path fill="#414042" d="M322.708,742.917c0.5,26.791,1.125,53.416,1.917,78c0.208,5.75,4.917,10.333,10.667,10.333l199.083,0.042
		L722,831.25c5.833,0,10.583-4.75,10.667-10.583c0-0.709,0.25-33.375,0.208-77.75H322.708z"/>
</g>
</svg>
