<?xml version="1.0" encoding="utf-8"?>
<!-- Generator: Adobe Illustrator 16.0.0, SVG Export Plug-In . SVG Version: 6.00 Build 0)  -->
<!DOCTYPE svg PUBLIC "-//W3C//DTD SVG 1.1//EN" "http://www.w3.org/Graphics/SVG/1.1/DTD/svg11.dtd">
<svg version="1.1" id="Layer_1" xmlns="http://www.w3.org/2000/svg" xmlns:xlink="http://www.w3.org/1999/xlink" x="0px" y="0px"
	 width="1024px" height="1024px" viewBox="0 0 1024 1024" enable-background="new 0 0 1024 1024" xml:space="preserve">
<g>
	<path fill="#414042" d="M539.958,118.833c-58.583,0-106.25,66.542-106.25,148.375c0,76.767,41.99,140.096,95.584,147.589v479.411
		c0,5.875,4.791,10.667,10.666,10.667c5.917,0,10.667-4.792,10.667-10.667V414.797c53.595-7.494,95.583-70.823,95.583-147.589
		C646.208,185.375,598.542,118.833,539.958,118.833z"/>
	<path fill="#414042" d="M889.917,105.167c-3.375-1.834-7.5-1.792-10.792,0.25c-3.5,2.125-85.417,55-85.417,278.125v173.416
		c0,5.875,4.75,10.667,10.667,10.667l69.667,0.042v326.541c0,5.875,4.75,10.667,10.666,10.667c5.875,0,10.667-4.792,10.667-10.667
		V114.5C895.375,110.625,893.292,107.083,889.917,105.167z"/>
	<path fill="#414042" d="M300.25,105.75c-5.833,0.25-10.333,5.208-10.167,11.042c0.125,4.625,0.042,113.291,0,154.208v37.417
		c0,39.833-14.083,66.583-35,66.583h-26.5V116.333c0-5.916-4.75-10.666-10.666-10.666c-5.875,0-10.667,4.75-10.667,10.666V375H181
		c-18.667,0-35-31.125-35-66.583l-0.042-37.25c-0.083-40.959-0.291-149.75,0-155.959c0.417-5.875-4-10.916-9.875-11.375
		c-5.833-0.291-10.958,4-11.375,9.875c-0.291,3.625-0.291,49.25-0.083,157.5l0.042,37.209c0,49.291,24.75,87.916,56.333,87.916
		h26.292v497.875c0,5.875,4.791,10.667,10.666,10.667c5.917,0,10.667-4.792,10.667-10.667V396.333h26.458
		c28.042,0,56.334-27.208,56.334-87.916v-37.375c0.125-127.084,0.083-153.667-0.042-155.375
		C311,109.833,305.417,104.583,300.25,105.75z"/>
</g>
</svg>
