<?xml version="1.0" encoding="utf-8"?>
<!-- Generator: Adobe Illustrator 16.0.0, SVG Export Plug-In . SVG Version: 6.00 Build 0)  -->
<!DOCTYPE svg PUBLIC "-//W3C//DTD SVG 1.1//EN" "http://www.w3.org/Graphics/SVG/1.1/DTD/svg11.dtd">
<svg version="1.1" id="Layer_1" xmlns="http://www.w3.org/2000/svg" xmlns:xlink="http://www.w3.org/1999/xlink" x="0px" y="0px"
	 width="1024px" height="1024px" viewBox="0 0 1024 1024" enable-background="new 0 0 1024 1024" xml:space="preserve">
<g>
	<path fill="#414042" d="M516.333,187.292c-174.833,0-317.083,142.25-317.083,317.083S341.5,821.417,516.333,821.417
		c174.834,0,317.084-142.209,317.084-317.042S691.167,187.292,516.333,187.292z"/>
	<path fill="#414042" d="M516.333,54.708c-247.916,0-449.625,201.709-449.625,449.667C66.708,752.292,268.417,954,516.333,954
		c247.959,0,449.625-201.708,449.625-449.625C965.958,256.417,764.292,54.708,516.333,54.708z M516.333,842.75
		c-186.583,0-338.416-151.792-338.416-338.375c0-186.625,151.833-338.417,338.416-338.417
		c186.584,0,338.417,151.792,338.417,338.417C854.75,690.958,702.917,842.75,516.333,842.75z"/>
</g>
</svg>
