<?xml version="1.0" encoding="utf-8"?>
<!-- Generator: Adobe Illustrator 16.0.0, SVG Export Plug-In . SVG Version: 6.00 Build 0)  -->
<!DOCTYPE svg PUBLIC "-//W3C//DTD SVG 1.1//EN" "http://www.w3.org/Graphics/SVG/1.1/DTD/svg11.dtd">
<svg version="1.1" id="Layer_1" xmlns="http://www.w3.org/2000/svg" xmlns:xlink="http://www.w3.org/1999/xlink" x="0px" y="0px"
	 width="1024px" height="1024px" viewBox="0 0 1024 1024" enable-background="new 0 0 1024 1024" xml:space="preserve">
<g>
	<path fill="#414042" d="M864.958,908.625H180.583c-5.916,0-10.666,4.792-10.666,10.667c0,5.916,4.75,10.666,10.666,10.666h684.375
		c5.875,0,10.667-4.75,10.667-10.666C875.625,913.417,870.833,908.625,864.958,908.625z"/>
	<path fill="#414042" d="M870.625,770.167c-3.208-3.209-7.5-5-12.083-5l-16.084,0.041c-9-133.75-123.708-245.333-272.791-265.041
		v-49.834c0-9.291-7.542-16.833-16.834-16.833h-68.125c-9.291,0-16.833,7.542-16.833,16.833v50.834
		c-147.333,22.458-256.708,131.375-265.417,264.041h-15.5c-9.416,0-17.041,7.667-17.041,17.042v67.875
		c0,9.417,7.625,17.083,17.041,17.083h671.584c9.416,0,17.083-7.666,17.083-17.083V782.25
		C875.625,777.75,873.875,773.458,870.625,770.167z"/>
	<path fill="#414042" d="M595.042,372.458c2,3.667,5.875,5.875,9.833,5.875c1.625,0,3.292-0.375,4.792-1.208
		c5.208-2.792,7.291-8.875,4.458-14.083c-0.167-0.584-0.25-1.334-0.417-2.125l-0.25-1.334c0-0.583,0-1.166,0-1.25
		c0-2.125,0-3.5,0.875-6.833c0.209-1.458,1.417-4,2.584-6.5l1.25-2.667c0.916-1.916,2.333-3.75,3.708-5.708
		c1.625-2.208,3.208-4.458,3.375-5.125l3.958-4.375c2.834-3.083,5.75-6.25,8.667-9.75l6.917-8.833
		c2.625-3.334,4.708-7.709,6.541-11.625c0.084-0.209,1-2.125,1.084-2.334c3.375-8.625,5.375-17.416,6.166-27
		c0.625-9.25,0.334-17.916-0.833-25c-0.375-4.375-1.167-8.625-2.583-14.166c-0.75-3.292-1.5-6.542-2.375-9.125
		c-1.917-7.167-4.584-13.834-7.334-20.5c-2.708-6.292-5.5-12.042-8.375-17.042c-6.25-11.417-12.25-19.375-16-23.792
		c-4.875-6.083-9-8.916-9.75-9.416c-4.875-3.209-11.333-1.792-14.583,3c-3.25,4.833-2,11.416,2.75,14.75
		c0.042,0.041,2.167,1.541,5.125,5.25c2.708,3.166,8.042,10.041,13.875,20.666c2.583,4.5,5,9.542,7.375,15.042
		c2.25,5.5,4.625,11.292,6.5,18.125c0.833,2.5,1.375,5.125,2,7.792c0.042,0.083,0.458,1.958,0.5,2.083
		c0.75,3,1.333,6.083,1.708,9.958c1,6.209,1.209,13.25,0.709,20.834c-0.584,7.333-2.125,14.125-5.25,21.791
		c-1.292,2.709-2.917,6.084-4.042,7.542L621.25,304c-2.5,3-5.167,5.875-7.708,8.667L608.083,319c-1.041,1.792-2.291,3.458-3.5,5.125
		c-2.208,3.042-4.25,6.042-5.791,9.25l-1.167,2.542c-1.875,3.958-3.833,8.083-3.958,10.833c-1.584,4.75-1.542,8.833-1.542,13.5
		c0,0.833,0.417,3.625,0.583,4.417C593.167,367.25,593.667,369.875,595.042,372.458z"/>
	<path fill="#414042" d="M393.458,328.583l1,2.084c1.834,3.833,3.75,7.833,6.292,11.125l7.042,8.916
		c2.666,3.292,5.5,6.375,8.25,9.375l3,2.959c1.375,2.333,2.958,4.583,4.541,6.791c1.417,1.917,2.875,3.792,3.667,5.5l1.375,2.959
		c1.125,2.375,2.375,5.041,3,8.416c0.417,1.209,0.417,2.5,0.417,4.584l0.041,1.541l-0.25,1.25c-0.125,0.792-0.25,1.5-0.416,2.125
		c-2.334,5.125-0.25,11.25,4.833,13.875c1.583,0.792,3.25,1.167,4.875,1.167c3.875,0,7.625-2.083,9.5-5.792
		c1.292-2.458,1.75-5.041,2.583-9.541c0.167-0.875,0.209-3.709,0.167-4.584c0-2.875,0.042-6.791-1.042-9.416
		c-0.625-4.667-2.541-8.75-4.416-12.709l-1.292-2.833c-1.458-3-3.542-6-5.75-9.083c-1.208-1.625-2.417-3.334-4.667-6.75
		l-4.458-4.875c-2.458-2.709-5.042-5.5-7.333-8.292l-6.834-8.625c-1.083-1.458-2.625-4.667-3.833-7.25L413,320
		c-2.625-6.542-4.167-13.333-4.75-20.625c-0.542-7.625-0.292-14.708,0.75-21.542c0.292-3.166,0.833-6.291,1.75-9.625l0.542-2.333
		c0.541-2.5,1.083-4.917,2.041-7.792c1.625-6.083,3.917-11.708,6.292-17.541c2.375-5.5,4.792-10.584,7.542-15.292
		c5.666-10.417,11-17.292,13.708-20.458c3.792-4.5,3.25-11.209-1.25-15.042c-4.458-3.833-11.208-3.292-15.042,1.25
		c-3.916,4.625-9.916,12.542-16,23.75c-3,5.125-5.791,10.958-8.958,18.292c-2.458,6.083-5.042,12.541-6.75,18.916
		c-0.958,2.959-1.667,6.042-2.375,9.167l-0.417,1.833c-1.125,4.084-1.875,8.375-2.25,12.209c-1.208,7.833-1.5,16.458-0.875,25.791
		C387.75,310.542,389.75,319.333,393.458,328.583z"/>
	<path fill="#414042" d="M495.833,323.792c1.75,3.958,5.667,6.291,9.75,6.291c1.417,0,2.917-0.291,4.334-0.916
		c5.375-2.417,7.791-8.709,5.375-14.084c-1.542-3.458-2.375-6.791-2.542-10.041c-0.083-3.834-0.042-9.625,1.917-15.75
		c1.375-5.334,3.791-11.209,7.208-17.5l5.792-9.625c1.375-2,2.875-3.959,4.416-5.959l8.625-12.833
		c2.084-2.708,2.875-5.167,3.75-7.792c0.375-1.125,0.875-2.208,1.834-4.583c2.708-7.958,4.375-16.458,4.75-24.25
		c0.75-9,0.708-17.542-0.125-25.042c-0.625-8.166-1.792-16.375-3.25-24.208c-1.459-7.708-3.084-15.125-4.875-22.667l-2.209-8.291
		c-1.041-3.917-2.041-7.75-3.125-11.25c-3.708-12.334-7.041-22.667-9.75-29.75c-2.125-5.459-8.291-8.25-13.791-6.125
		s-8.25,8.291-6.125,13.791c2.583,6.709,5.708,16.5,9.25,28.25c1,3.334,1.916,6.875,2.875,10.542l2.25,8.208
		c1.583,6.75,3.125,13.875,4.541,21.209c1.334,7.083,2.375,14.541,2.959,22.291c0.708,6.459,0.75,13.625,0.083,21.625
		c-0.292,6.125-1.583,12.75-3.625,18.625c-0.625,1.5-1.25,3.042-1.5,3.792c-0.375,0.875-0.667,1.75-1.292,3.292l-8.25,12.25
		c-1.75,2.291-3.458,4.541-5.333,7.333l-6.375,10.583c-4.5,8.25-7.583,15.75-9.167,22.125c-2.833,8.667-2.916,16.875-2.75,22.542
		C491.75,311.917,493.208,317.958,495.833,323.792z"/>
</g>
</svg>
