<?xml version="1.0" encoding="utf-8"?>
<!-- Generator: Adobe Illustrator 16.0.0, SVG Export Plug-In . SVG Version: 6.00 Build 0)  -->
<!DOCTYPE svg PUBLIC "-//W3C//DTD SVG 1.1//EN" "http://www.w3.org/Graphics/SVG/1.1/DTD/svg11.dtd">
<svg version="1.1" id="Layer_1" xmlns="http://www.w3.org/2000/svg" xmlns:xlink="http://www.w3.org/1999/xlink" x="0px" y="0px"
	 width="1024px" height="1024px" viewBox="0 0 1024 1024" enable-background="new 0 0 1024 1024" xml:space="preserve">
<g>
	<path fill="#414042" d="M451.792,857.583c-45.917,17.792-93.709,23.917-137.209,23.917c-76.625,0-139.666-18.5-155.583-23.583
		v29.625c-0.125,2.875-0.833,28.541,14.25,41.458c12,10.375,40.125,34.708,132.125,34.708s120.125-24.333,133.083-35.541
		c14.125-12.084,13.459-37.75,13.334-40.167V857.583z"/>
	<path fill="#414042" d="M447.875,481.333c0.917-0.208,1.792-0.125,2.667-0.125c-6.459-90.166-38.667-119.75-62.917-141.833
		c-16.625-15.167-26.667-24.292-25.042-48.5c3.334-50.375-3.5-95.583-8.458-128.542c-2.5-16.458-4.625-30.666-4.875-41
		c-0.792-36.75,1.708-44.583,1.958-45.416c6.75-7.584,4.834-17.292-0.416-22.5C345.208,47.833,329.958,45,305.375,45
		c-24.542,0-39.833,2.833-45.417,8.417c-5.25,5.208-7.166,14.916-0.958,21.791c0.792,1.542,3.25,9.375,2.5,46.125
		c-0.25,10.334-2.375,24.542-4.875,41c-4.958,32.959-11.792,78.167-8.417,128.542c1.584,24.208-8.458,33.333-25.083,48.5
		c-24.25,22.083-56.458,51.667-62.917,141.833c1.042,0.084,2.042,0.167,3.084,0.584C164.375,482.25,275.25,525.792,447.875,481.333z
		"/>
	<path fill="#414042" d="M162.125,836.5c1.542,0.5,154.833,52.208,285.042,0.167c1.5-0.625,3.083-0.75,4.625-0.667v-96.042
		L318.625,603.833c-12.583-13.333-15.958-32.333-8.833-48.708c7.041-16.25,23.083-26.792,40.833-26.792l101.167-0.041v-13.25
		c0-4.417-0.167-8.5-0.25-12.667c-60.125,15.333-112.834,20.542-156.375,20.542c-74.5,0-122.334-15-135.959-19.875
		c-0.083,3.958-0.25,7.791-0.25,12L159,836.083C160.042,836.083,161.083,836.125,162.125,836.5z"/>
	<path fill="#414042" d="M846.542,506.958c-16.417-18.916-39.25-30.333-64.25-32.083C733.167,471.333,692.25,504,684,550.208
		H350.625c-9.25,0-17.625,5.5-21.292,13.959c-3.708,8.541-1.958,18.375,4.542,25.291l207.292,211.917l0.333,140h-63.667
		c-5.916,0-10.666,5-10.666,11.167c0,6.166,4.75,11.166,10.666,11.166h157.334c5.875,0,10.666-5,10.666-11.166
		c0-6.167-4.791-11.167-10.666-11.167h-72.084L562.5,801.5l158.542-157.167c14.125,10.25,30.5,16.5,48.125,17.709
		c2.25,0.166,4.5,0.25,6.708,0.25c22.625,0,44.208-8.042,61.417-23.042c18.916-16.417,30.291-39.25,32-64.208
		C871.042,550.042,862.958,525.833,846.542,506.958z M780.792,496.167c19.333,1.375,36.958,10.166,49.625,24.75
		c4,4.625,7.125,9.708,9.791,15.041l-53.291,16.417l-7.334-56.167C780,496.25,780.375,496.167,780.792,496.167z M758.333,498.25
		l7.042,54c-2.792-1.208-5.792-2.042-9-2.042h-50.833C711.708,523.917,732.125,504.333,758.333,498.25z M715.417,619.583h-322.25
		l-42.542-43.5c-5.125-2.291,0-4.541,0-4.541h405.75c3.25,1.75-0.833,3.625-0.833,3.625L715.417,619.583z M770.667,640.75
		c-12.584-0.875-24.375-4.958-34.709-11.75l37.334-39.708c1.416-1.459,2.458-3.125,3.416-4.875l30.5,49.041
		C795.958,638.958,783.5,641.708,770.667,640.75z M848,573.542c-1.292,18.541-9.583,35.375-23.125,47.958l-30.542-49.083
		l52.584-16.25C847.917,561.875,848.417,567.625,848,573.542z"/>
</g>
</svg>
