<?xml version="1.0" encoding="utf-8"?>
<!-- Generator: Adobe Illustrator 16.0.0, SVG Export Plug-In . SVG Version: 6.00 Build 0)  -->
<!DOCTYPE svg PUBLIC "-//W3C//DTD SVG 1.1//EN" "http://www.w3.org/Graphics/SVG/1.1/DTD/svg11.dtd">
<svg version="1.1" id="Layer_1" xmlns="http://www.w3.org/2000/svg" xmlns:xlink="http://www.w3.org/1999/xlink" x="0px" y="0px"
	 width="1024px" height="1024px" viewBox="0 0 1024 1024" enable-background="new 0 0 1024 1024" xml:space="preserve">
<g>
	<path fill="#414042" d="M119.75,498.5c-2.333,3.542-2.333,8.167,0,11.708c3.125,4.792,68.667,102.584,197.417,156.625V341.917
		C188.417,395.958,122.875,493.75,119.75,498.5z M236.208,483.917c10.292,0,18.667,8.375,18.667,18.666
		c0,10.292-8.375,18.667-18.667,18.667c-10.291,0-18.666-8.375-18.666-18.667C217.542,492.292,225.917,483.917,236.208,483.917z"/>
	<path fill="#414042" d="M884.5,504.375l38.583-175.042c0.625-2.791,0.084-5.666-1.458-8.083c-1.542-2.375-3.958-4.042-6.75-4.667
		c-4.083-0.875-8.417-1.291-12.833-1.291c-54.917,0-118.417,70.208-140.042,96.208c-47.083-44.875-124.25-95.125-238.125-103.333
		L554.292,245c1.708-3.583,1.291-7.833-1.084-11c-2.375-3.208-6.208-4.875-10.25-4.167c-92.125,14.917-152.916,77.667-165.5,91.625
		C363.875,325,351,329.25,338.5,333.792v341.166c12.5,4.5,25.375,8.75,38.958,12.292c12.584,14,73.375,76.75,165.5,91.625
		c0.584,0.125,1.167,0.167,1.709,0.167c3.333,0,6.5-1.584,8.541-4.292c2.375-3.167,2.792-7.417,1.084-11l-30.417-63.208
		C637.75,692.375,714.917,642.083,762,597.25c21.625,25.958,85.167,96.208,140.042,96.208c4.416,0,8.75-0.458,12.833-1.333
		c2.792-0.583,5.208-2.25,6.75-4.667c1.542-2.375,2.083-5.291,1.458-8.041L884.5,504.375z"/>
</g>
</svg>
