<?xml version="1.0" encoding="utf-8"?>
<!-- Generator: Adobe Illustrator 16.0.0, SVG Export Plug-In . SVG Version: 6.00 Build 0)  -->
<!DOCTYPE svg PUBLIC "-//W3C//DTD SVG 1.1//EN" "http://www.w3.org/Graphics/SVG/1.1/DTD/svg11.dtd">
<svg version="1.1" id="Layer_1" xmlns="http://www.w3.org/2000/svg" xmlns:xlink="http://www.w3.org/1999/xlink" x="0px" y="0px"
	 width="1024px" height="1024px" viewBox="0 0 1024 1024" enable-background="new 0 0 1024 1024" xml:space="preserve">
<g>
	<path fill="#414042" d="M180,830.5c3.208,12.25,6.375,23.5,9.208,33.375c3.334,11.667,6.084,21.167,7.459,28.125
		c0.541,2.75,2.166,5.208,4.541,6.75c2.542,1.708,63.917,41.792,203.667,41.792s201.167-40.084,203.708-41.792
		c2.334-1.542,3.959-4,4.5-6.75c1.375-6.958,4.125-16.458,7.5-28.167c2.042-7.166,4.334-15.375,6.667-24
		c-71.083,18.042-139.833,24.5-201.458,24.5C305.292,864.333,211.75,839.958,180,830.5z"/>
	<path fill="#414042" d="M899.583,419.708c-8.375-8.5-20.583-8.791-22-8.791H597.875c-14.375,0-26.042,11.708-26.042,26.041v56.483
		c-36.436-38.986-73.935-66.969-88.666-75.816l-25.542-259.708c-0.875-40.042,1.875-48.417,2.292-49.417
		c6.916-7.833,4.958-17.75,0.291-22.333c-1.541-1.917-16.291-18.584-55.333-18.584c-38.375,0-58.417,15.75-60.083,17.209
		c-5.375,5.375-7.375,15.291-0.875,22.5c0.833,1.625,3.583,10,2.75,49.416l-20.209,261
		c-21.625,12.959-105.791,66.75-137.041,133.917c8.5,1.167,73.916,9.875,164.916,14.083l102.334,2.209
		c43.428-0.121,75.429-0.825,120.707-4.741c1.493,6.846,3.284,13.545,5.34,20.088c-51.15,4.747-84.289,6.028-132.714,6.028
		c-146.583,0-263.042-16.459-264.583-16.709c-1.417-0.208-2.709-0.708-3.834-1.375c-31.416,87.125-21.875,172-7.5,235.292
		c0.417,0.083,0.875,0.042,1.292,0.167c2.208,0.791,217.708,74.625,457.917,9.5c9.013-37.497,17.157-83.979,15.549-134.705
		c21.6,16.644,46.686,27.5,73.867,30.705c0.209,0,2.542,0.291,6.292,0.5v207h-63.583c-5.917,0-10.667,4.75-10.667,10.666
		c0,5.875,4.75,10.667,10.667,10.667H814c5.875,0,10.667-4.792,10.667-10.667c0-5.916-4.792-10.666-10.667-10.666h-63.667V712.375
		c2.625-0.167,5.167-0.333,8.125-0.667c81.875-11.291,142.917-96.291,148.459-207.208v-65.667
		C906.958,431.25,904.417,424.625,899.583,419.708z M885.583,438.792v46.458l-292.416-0.125v-48.167
		c0-2.583,2.083-4.708,4.708-4.708h279.542c5.458,0.167,8.208,2.333,8.166,6.458V438.792z"/>
</g>
</svg>
