<?xml version="1.0" encoding="utf-8"?>
<!-- Generator: Adobe Illustrator 16.0.0, SVG Export Plug-In . SVG Version: 6.00 Build 0)  -->
<!DOCTYPE svg PUBLIC "-//W3C//DTD SVG 1.1//EN" "http://www.w3.org/Graphics/SVG/1.1/DTD/svg11.dtd">
<svg version="1.1" id="Layer_1" xmlns="http://www.w3.org/2000/svg" xmlns:xlink="http://www.w3.org/1999/xlink" x="0px" y="0px"
	 width="1024px" height="1024px" viewBox="0 0 1024 1024" enable-background="new 0 0 1024 1024" xml:space="preserve">
<path fill="#414042" d="M933.542,766.583c-1.542-5.666-7.375-8.916-13.084-7.541l-69.875,18.708l-60.541-225.917
	c3.75-1.25,6.583-2.25,7.416-2.583C887,513.583,931.875,402.125,901.792,289.958l-4.209-15.625c-0.083-0.333-0.125-0.708-0.25-1.041
	c-0.083-0.334-0.208-0.667-0.333-1l-21.333-78.917c-1.542-5.667-7.417-8.958-13.084-7.542l-338.666,90.584
	c-1.71,0.447-3.269,1.328-4.543,2.533c-1.278-1.206-2.847-2.086-4.582-2.533l-338.667-90.584c-5.625-1.375-11.5,1.875-13.042,7.542
	l-21.375,78.917c-0.125,0.333-0.208,0.666-0.333,1c-0.083,0.333-0.167,0.708-0.208,1.041l-4.25,15.625
	c-30.042,112.167,14.833,223.625,104.625,259.375c0.75,0.292,3.5,1.292,7.166,2.5L188.167,777.75l-69.917-18.708
	c-5.667-1.375-11.5,1.875-13.042,7.541c-1.541,5.709,1.834,11.542,7.542,13.084l80.083,21.458c0.042,0,0.084,0.042,0.084,0.042
	c0.083,0.041,0.125,0,0.166,0.041l80.125,21.459c0.917,0.25,1.834,0.375,2.75,0.375c4.709,0,9.042-3.167,10.292-7.917
	c1.542-5.708-1.833-11.542-7.542-13.083l-69.958-18.75l60.542-225.834c3.583,0.75,7.125,1.334,10.25,1.5
	c5.458,0.625,11,0.917,16.625,0.917c84.125,0,181.125-68.75,202.166-180.833l2.417-8.959c0.042-0.083,0.042-0.208,0.083-0.291
	c0.042-0.125,0.042-0.25,0.084-0.334l18.441-68.851l18.392,68.476c0.042,0.25,0.083,0.459,0.167,0.709
	c0.041,0.208,0.125,0.416,0.208,0.666l2.083,7.792c21.25,112.875,118.292,181.667,202,181.667c5.542,0,11.042-0.292,16.459-0.917
	c3.333-0.208,7.041-0.792,10.791-1.583l60.5,225.875L760,802.042c-5.667,1.541-9.042,7.375-7.542,13.083
	c1.292,4.75,5.584,7.917,10.292,7.917c0.917,0,1.875-0.125,2.792-0.375l80.125-21.459c0.041-0.041,0.083,0,0.125-0.041
	c0.041,0,0.083-0.042,0.125-0.042L926,779.667C931.667,778.125,935.083,772.292,933.542,766.583z M483,353.958l-318.167-85.416
	l16.084-59.334L499,294.25L483,353.958z M555.75,353.958l-16-59.708l318.083-85.042l16.084,59.334L555.75,353.958z"/>
</svg>
