<?xml version="1.0" encoding="utf-8"?>
<!-- Generator: Adobe Illustrator 16.0.0, SVG Export Plug-In . SVG Version: 6.00 Build 0)  -->
<!DOCTYPE svg PUBLIC "-//W3C//DTD SVG 1.1//EN" "http://www.w3.org/Graphics/SVG/1.1/DTD/svg11.dtd">
<svg version="1.1" id="Layer_1" xmlns="http://www.w3.org/2000/svg" xmlns:xlink="http://www.w3.org/1999/xlink" x="0px" y="0px"
	 width="1024px" height="1024px" viewBox="0 0 1024 1024" enable-background="new 0 0 1024 1024" xml:space="preserve">
<path fill="#414042" d="M992.792,432.208c-7.5-21.916-37.125-63.375-95.792-63.375c-20.875,0-44,5.125-69.167,15.417
	c-12.291,5.583-24.958,10.542-37.791,15.25c2.375,2.5,3.625,6,2.791,9.625c-0.75,3.208-18.791,78.833-47.083,112.5
	c-2.125,2.542-5.125,3.833-8.167,3.833c-2.416,0-4.875-0.833-6.875-2.5c-4.5-3.791-5.083-10.541-1.291-15.041
	c23-27.375,39.5-91,42.208-101.917c-35.708,11.667-73.417,19.917-112.792,24.917c0,0.333,0.125,0.625,0.084,0.916
	c-0.375,2.917-9.542,71.417-46.792,92.25c-1.667,0.917-3.458,1.375-5.208,1.375c-3.75,0-7.375-1.958-9.334-5.458
	c-2.875-5.167-1-11.667,4.125-14.542c21.459-12,32.167-52.666,35.334-71.958c-22.292,2.083-45.084,3.167-68.375,3.167
	c-19.709,0-39-0.917-57.917-2.292c-0.125,0.542-0.125,1.042-0.333,1.542c-0.917,2.125-22.459,52-56.542,76.375
	c-1.875,1.375-4.042,2-6.167,2c-3.333,0-6.625-1.542-8.708-4.459c-3.417-4.791-2.333-11.458,2.458-14.875
	c23.709-16.958,41.125-50.166,47-62.416c-36.583-3.584-71.083-9.25-102.708-15.875c-0.167,1.166-0.458,2.333-1.083,3.458
	c-1.417,2.542-35.417,62.958-72.792,81.333c-1.5,0.75-3.083,1.084-4.667,1.084c-3.958,0-7.75-2.167-9.583-5.959
	c-2.625-5.291-0.458-11.666,4.833-14.25c25.042-12.333,52.25-53,62.209-70.291c-39.417-9.125-73.125-19.334-99.084-28.167
	c0.792,2.75,0.584,5.833-1.041,8.5c-1.542,2.542-38.375,62.583-75.917,78.375c-1.333,0.542-2.75,0.833-4.125,0.833
	c-4.167,0-8.125-2.458-9.833-6.541c-2.292-5.417,0.291-11.667,5.708-13.959c25.917-10.916,56.375-54.083,65.917-69.791
	c0.791-1.292,1.833-2.334,2.958-3.125c-24.542-8.875-39.167-15.334-39.958-15.667c-0.875-0.292-22.084-7.042-48.542-7.042
	c-53.625,0-89.708,27.625-101.208,76.417c-0.5,1.333-12.084,33.042,6.708,72.708c21.167,44.709,70.875,80.5,147.708,106.459
	c4.959,1.708,123.584,42.041,308.667,42.041c0,0,0,0,0.042,0c94.708,0,189.958-10.75,282.958-31.958
	c5.292-1.125,130.125-28.792,175.292-102.458C997,492.417,1001.083,463.583,992.792,432.208z"/>
</svg>
