<?xml version="1.0" encoding="utf-8"?>
<!-- Generator: Adobe Illustrator 16.0.0, SVG Export Plug-In . SVG Version: 6.00 Build 0)  -->
<!DOCTYPE svg PUBLIC "-//W3C//DTD SVG 1.1//EN" "http://www.w3.org/Graphics/SVG/1.1/DTD/svg11.dtd">
<svg version="1.1" id="Layer_1" xmlns="http://www.w3.org/2000/svg" xmlns:xlink="http://www.w3.org/1999/xlink" x="0px" y="0px"
	 width="1024px" height="1024px" viewBox="0 0 1024 1024" enable-background="new 0 0 1024 1024" xml:space="preserve">
<g>
	<path fill="#414042" d="M909.917,533.667H113.792c-5.917,0-10.667,4.791-10.667,10.666c0,5.917,4.75,10.667,10.667,10.667h796.125
		c5.875,0,10.666-4.75,10.666-10.667C920.583,538.458,915.792,533.667,909.917,533.667z"/>
	<path fill="#414042" d="M190.625,502h642.458c9.25,0,16.792-7.542,16.792-16.792V420.25c0-4.417-1.708-8.625-4.917-11.875
		c-3.166-3.125-7.375-4.875-11.875-4.875h-14.958C809.292,275.625,699.667,169,557.208,150v-47.25
		c0-9.125-7.458-16.583-16.583-16.583h-65.208c-9.125,0-16.542,7.458-16.542,16.583V151C318.083,172.625,213.583,276.708,205,403.5
		h-14.375c-9.25,0-16.792,7.542-16.792,16.792v64.916C173.833,494.458,181.375,502,190.625,502z"/>
	<path fill="#414042" d="M228.083,639.583c-1.708-2.958-4.666-4.916-8.041-5.291c-3.334-0.417-6.75,0.875-9.042,3.333
		l-75.125,81.208c-3.167,3.459-3.708,8.5-1.417,12.584l106.417,185.625c1.667,2.916,4.667,4.875,8.042,5.291
		c0.416,0.042,0.791,0.042,1.208,0.042c2.958,0,5.792-1.208,7.833-3.417l75.084-81.25c3.166-3.416,3.75-8.5,1.416-12.541
		L228.083,639.583z"/>
	<path fill="#414042" d="M705.5,584.292H321.292c-24.209,0-57.792,15.333-75.584,43.5c0.292,0.416,0.625,0.75,0.875,1.166
		l93.042,162.334l65.083-79.5c26.5,1.833,52.25,2.75,76.625,2.75c209.625,0,272.209-66.917,274.75-69.792
		c0.667-0.708,1.209-1.5,1.625-2.375c5.375-10.875,4.875-22.458-1.416-32.583C745.917,593.042,722.875,584.292,705.5,584.292z"/>
</g>
</svg>
