<?xml version="1.0" encoding="utf-8"?>
<!-- Generator: Adobe Illustrator 16.0.0, SVG Export Plug-In . SVG Version: 6.00 Build 0)  -->
<!DOCTYPE svg PUBLIC "-//W3C//DTD SVG 1.1//EN" "http://www.w3.org/Graphics/SVG/1.1/DTD/svg11.dtd">
<svg version="1.1" id="Layer_1" xmlns="http://www.w3.org/2000/svg" xmlns:xlink="http://www.w3.org/1999/xlink" x="0px" y="0px"
	 width="1024px" height="1024px" viewBox="0 0 1024 1024" enable-background="new 0 0 1024 1024" xml:space="preserve">
<g>
	<path fill="#414042" d="M79,406.167c0.167,1.083,19.792,105.958,136.792,171.666c110.916,62.375,333.458,101.25,763.666-67.208
		c-17.833-96.583-157.083-112-165.166-112.667c-105.459,9.125-139.459-84.75-141.209-89.625
		c-36.458-79.458-96.333-97.166-98.875-97.875c-35.708-10.041-72.208-15.083-108.5-15.083
		c-223.125,0-377.916,185.458-385.25,194.542c-1.875,3.083-3.583,6.458-5.208,10.041C77.083,401.5,78.542,403.625,79,406.167z
		 M299.375,425.458c42.875-60.333,101.417-66.75,124.625-66.75c6.667,0,11.458,0.5,13.542,0.75
		c43.208-1.375,85.458,35.167,92.416,41.667c40.625,24.583,32,71.708,21.667,93.375c-5.875,17.083-24.375,27.042-51.625,27.042
		c-9.958,0-17.583-1.334-17.917-1.375l-115.375,0.166c-36.625-2.291-60.25-13.375-70.958-32.958
		C280.625,459.625,298.625,426.833,299.375,425.458z"/>
	<path fill="#414042" d="M982.792,532.125C775.5,612.917,599,653.458,455.042,653.458c-98.917,0-182.5-19.083-250.334-57.333
		C112.417,544,77.042,470.583,64.417,433.375c-3.625,15.792-6.125,33.292-7.792,51.292c0,0,0,0.125-0.042,0.166
		c-6.541,70.959-0.25,148.667,0.125,153.542C65.958,758.417,223,788.708,228.833,789.75
		c58.084,15.542,128.959,23.458,210.625,23.458c81.584,0,145.042-8.208,145.167-8.25c166.792-13.666,302.333-78.75,304.958-80.125
		C987.667,659.042,986.125,562.667,982.792,532.125z"/>
</g>
</svg>
