<?xml version="1.0" encoding="utf-8"?>
<!-- Generator: Adobe Illustrator 16.0.0, SVG Export Plug-In . SVG Version: 6.00 Build 0)  -->
<!DOCTYPE svg PUBLIC "-//W3C//DTD SVG 1.1//EN" "http://www.w3.org/Graphics/SVG/1.1/DTD/svg11.dtd">
<svg version="1.1" id="Layer_1" xmlns="http://www.w3.org/2000/svg" xmlns:xlink="http://www.w3.org/1999/xlink" x="0px" y="0px"
	 width="1024px" height="1024px" viewBox="0 0 1024 1024" enable-background="new 0 0 1024 1024" xml:space="preserve">
<g>
	<path fill="#414042" d="M684.958,471.75c-23.916-48.375-55.583-69.958-102.666-69.958H468.958
		c-47.083,0-78.75,21.583-102.75,70.083l-98.375,206.417c-8.666,17.708-9.833,36.625-3.291,54.791
		c9.083,25.292,32.458,48.042,64.333,62.5c57,24.584,120.25,37,187.958,37h17.584c67.708,0,130.958-12.458,188.166-37.083
		c31.709-14.375,55.084-37.125,64.167-62.417c6.5-18.166,5.333-37.083-3.292-54.666L684.958,471.75z"/>
	<path fill="#414042" d="M924.958,384l-103.583-52.5c-31.875-14.167-59.417-7.708-84.208,19.708L688,405.292
		c-3.958,4.375-2.292,9.166,0.708,15.083l142,269.583c3.667,4.5,10.125,2.917,12.042-0.708l110.875-207.292
		C973.625,441.167,963,404.583,924.958,384z"/>
	<path fill="#414042" d="M809.083,304.667l139.209,60.083c13.375,2.542,14.708-5.125,12.958-10.75
		c-1.625-5.333-41.125-130.958-139.375-177.042c-3.208-1.5-6.917-1.333-9.958,0.459c-3.042,1.791-5,4.958-5.25,8.458l-7.5,107.417
		C798.792,299.167,799.167,301.125,809.083,304.667z"/>
	<path fill="#414042" d="M363.292,405.292l-49.167-54.042c-24.792-27.5-52.375-33.917-84.708-19.5l-103.375,52.375
		c-37.75,20.458-48.375,57.042-28.209,98.167L208.542,689.25c1.916,3.625,8.041,5.208,12.833-0.833l143.5-271.125
		C367.333,412.208,367.25,409.667,363.292,405.292z"/>
	<path fill="#414042" d="M102.583,364.958l144.25-61.75c5.459-2.416,5.667-4.041,5.25-9.916l-7.5-107.417
		c-0.25-3.5-2.208-6.667-5.208-8.458c-3.042-1.792-6.75-1.959-9.958-0.459C131.167,223.042,91.667,348.667,90,354
		C88.292,359.625,87.792,368.792,102.583,364.958z"/>
</g>
</svg>
