<?xml version="1.0" encoding="utf-8"?>
<!-- Generator: Adobe Illustrator 16.0.0, SVG Export Plug-In . SVG Version: 6.00 Build 0)  -->
<!DOCTYPE svg PUBLIC "-//W3C//DTD SVG 1.1//EN" "http://www.w3.org/Graphics/SVG/1.1/DTD/svg11.dtd">
<svg version="1.1" id="Layer_1" xmlns="http://www.w3.org/2000/svg" xmlns:xlink="http://www.w3.org/1999/xlink" x="0px" y="0px"
	 width="1024px" height="1024px" viewBox="0 0 1024 1024" enable-background="new 0 0 1024 1024" xml:space="preserve">
<g>
	<path fill="#414042" d="M442.042,218.542c-121.042,0-219.5,85.208-219.5,189.916c0,48.5,34.041,90.667,61.208,119.042v328.625
		c0,5.875,4.708,10.625,10.583,10.667l295.334,2c0.041,0,0.041,0,0.083,0c2.792,0,5.5-1.084,7.5-3.084
		c2.042-2,3.167-4.75,3.167-7.583V529.458c40.583-42.666,61.166-83.333,61.166-121C661.583,303.75,563.083,218.542,442.042,218.542z
		"/>
	<path fill="#414042" d="M580.417,139.75c-60.417,0-116.834,21.5-157.834,58.333c6.459-0.458,12.917-0.875,19.459-0.875
		c132.833,0,240.875,94.792,240.875,211.25c0,41.334-20.584,84.834-61.167,129.417v251.417L728.042,790h0.041
		c2.834,0,5.542-1.083,7.542-3.083s3.125-4.75,3.125-7.584V450.667c40.625-42.625,61.167-83.334,61.167-121
		C799.917,224.958,701.458,139.75,580.417,139.75z"/>
</g>
</svg>
