<?xml version="1.0" encoding="utf-8"?>
<!-- Generator: Adobe Illustrator 16.0.0, SVG Export Plug-In . SVG Version: 6.00 Build 0)  -->
<!DOCTYPE svg PUBLIC "-//W3C//DTD SVG 1.1//EN" "http://www.w3.org/Graphics/SVG/1.1/DTD/svg11.dtd">
<svg version="1.1" id="Layer_1" xmlns="http://www.w3.org/2000/svg" xmlns:xlink="http://www.w3.org/1999/xlink" x="0px" y="0px"
	 width="1024px" height="1024px" viewBox="0 0 1024 1024" enable-background="new 0 0 1024 1024" xml:space="preserve">
<g>
	<path fill="#414042" d="M369.542,587.583c1.083-0.041,111.291-4.833,111.291-112.083H257.417
		C257.417,582.75,367.625,587.542,369.542,587.583z"/>
	<path fill="#414042" d="M815.25,692.333l-158.583,0.084c-2.834,0-5.542,1.166-7.542,3.166L593.208,752l-16.583-80.25
		c-4.792-23.083-13.333-45.792-43.333-55.208l-76.209-25c-5.541-1.917-11.5,1.083-13.416,6.583l-73.459,210.25L293,598
		c-1.958-5.417-7.875-8.333-13.333-6.458L203.583,616.5c-30.125,9.458-38.666,32.167-43.625,56.25L136.75,885.917l-1.542,11.791
		h83.25v-94.166c0-4.417,3.584-8,8-8c4.417,0,8,3.583,8,8v94.166l280-0.166v-36.584l10.792,36.834
		c4.375,14.208,22,19.291,37.042,19.291c15.333,0,29.041-4.916,37.75-13.625l137-141.708c40.416-2.75,67.625-13.167,80.916-30.917
		c10.959-14.708,8.042-28.75,7.667-30.333C824.5,695.708,820.208,692.333,815.25,692.333z"/>
	<path fill="#414042" d="M890.375,652.083h-288.5c-5.875,0-10.667,4.792-10.667,10.667c0,5.917,4.792,10.667,10.667,10.667h288.5
		c5.875,0,10.667-4.75,10.667-10.667C901.042,656.875,896.25,652.083,890.375,652.083z"/>
	<path fill="#414042" d="M619.625,636.792h252.333c5.875,0,10.667-4.75,10.667-10.667c0-5.875-4.792-10.667-10.667-10.667h-8.362
		c-5.094-56.593-50.299-101.831-106.888-106.928v-13.405c0-5.875-4.791-10.667-10.666-10.667c-5.917,0-10.667,4.792-10.667,10.667
		v13.404c-56.625,5.096-101.835,50.334-106.93,106.929h-8.82c-5.917,0-10.667,4.792-10.667,10.667
		C608.958,632.042,613.708,636.792,619.625,636.792z"/>
	<path fill="#414042" d="M484.208,446.667c0-0.375,0.75-15.834,1.417-37.542h-234.25c0.25,13,0.542,25.833,0.958,37.792
		c0.167,5.75,4.875,10.333,10.625,10.333h108.459h102.166C479.417,457.25,484.167,452.5,484.208,446.667z"/>
	<path fill="#414042" d="M248.667,318.208c0.291,0,0.541,0,0.791,0c0.584,16,0.917,36.834,1.292,58.875
		c0.083,3.542,0.167,7.167,0.208,10.709h235.25c0.5-22.459,0.75-47.834,0.167-69.625c44.333,0,77.75-36.042,77.75-80.375
		c0-44.334-36.083-80.417-80.417-80.417c-4.708,0-9.375,0.417-14,1.25c-18.083-40.542-58.541-67.167-103.5-67.167
		c-44.958,0-85.416,26.625-103.5,67.167c-4.625-0.833-9.291-1.25-14.041-1.25c-44.334,0-80.375,36.083-80.375,80.417
		C168.292,282.125,204.333,318.208,248.667,318.208z"/>
</g>
</svg>
