<?xml version="1.0" encoding="utf-8"?>
<!-- Generator: Adobe Illustrator 16.0.0, SVG Export Plug-In . SVG Version: 6.00 Build 0)  -->
<!DOCTYPE svg PUBLIC "-//W3C//DTD SVG 1.1//EN" "http://www.w3.org/Graphics/SVG/1.1/DTD/svg11.dtd">
<svg version="1.1" id="Layer_1" xmlns="http://www.w3.org/2000/svg" xmlns:xlink="http://www.w3.org/1999/xlink" x="0px" y="0px"
	 width="1024px" height="1024px" viewBox="0 0 1024 1024" enable-background="new 0 0 1024 1024" xml:space="preserve">
<g>
	<path fill="#414042" d="M938.25,551.292c-29,0-43.25-17.125-59.75-36.959c-17.417-20.916-37.167-44.625-76.167-44.625
		c-38.958,0-58.708,23.709-76.166,44.625c-16.5,19.834-30.75,36.959-59.75,36.959c-28.959,0-43.209-17.125-59.709-36.959
		c-17.416-20.916-37.166-44.625-76.125-44.625c-39,0-58.75,23.709-76.208,44.625c-16.5,19.834-30.792,36.959-59.75,36.959
		c-29.042,0-43.333-17.125-59.875-36.959c-17.417-20.916-37.208-44.625-76.208-44.625s-58.792,23.709-76.209,44.625
		c-16.541,19.834-30.833,36.959-59.875,36.959c-5.875,0-10.666,4.75-10.666,10.666c0,5.875,4.791,10.667,10.666,10.667
		c39.042,0,58.792-23.708,76.25-44.625c16.542-19.833,30.792-36.958,59.834-36.958c29,0,43.291,17.125,59.833,36.958
		c17.458,20.917,37.208,44.625,76.25,44.625c38.958,0,58.708-23.708,76.167-44.625c16.5-19.833,30.791-36.958,59.791-36.958
		c28.959,0,43.209,17.125,59.709,36.958c17.416,20.917,37.166,44.625,76.125,44.625c39,0,58.75-23.708,76.166-44.625
		c16.5-19.833,30.792-36.958,59.75-36.958c29,0,43.25,17.125,59.75,36.958c17.459,20.917,37.209,44.625,76.167,44.625
		c5.875,0,10.667-4.792,10.667-10.667C948.917,556.042,944.125,551.292,938.25,551.292z"/>
	<path fill="#414042" d="M927.583,624.792H111.792c-5.875,0-10.667,4.75-10.667,10.666c0,5.875,4.792,10.667,10.667,10.667h815.791
		c5.875,0,10.667-4.792,10.667-10.667C938.25,629.542,933.458,624.792,927.583,624.792z"/>
	<path fill="#414042" d="M884.917,687.375H154.458c-29.375,0-53.333,23.917-53.333,53.333v62.25
		c0,29.417,23.958,53.334,53.333,53.334h730.459c29.416,0,53.333-23.917,53.333-53.334v-62.25
		C938.25,711.292,914.333,687.375,884.917,687.375z"/>
	<path fill="#414042" d="M111.792,434.5h815.791c5.875,0,10.667-4.792,10.667-10.667c0-149.75-187.75-271.541-418.542-271.541
		c-230.791,0-418.583,121.791-418.583,271.541C101.125,429.708,105.917,434.5,111.792,434.5z M805.375,346.5
		c10.417,0,18.917,7.75,18.917,17.333c0,9.542-8.5,17.334-18.917,17.334c-10.458,0-18.917-7.792-18.917-17.334
		C786.458,354.25,794.917,346.5,805.375,346.5z M640.042,241.167c10.416,0,18.916,7.75,18.916,17.333
		c0,9.542-8.5,17.333-18.916,17.333c-10.459,0-18.917-7.791-18.917-17.333C621.125,248.917,629.583,241.167,640.042,241.167z
		 M538.625,333.125c10.417,0,18.917,7.792,18.917,17.333c0,9.584-8.5,17.375-18.917,17.375c-10.458,0-18.917-7.791-18.917-17.375
		C519.708,340.917,528.167,333.125,538.625,333.125z M389.375,254.5c10.417,0,18.917,7.792,18.917,17.375
		c0,9.542-8.5,17.333-18.917,17.333c-10.458,0-18.917-7.791-18.917-17.333C370.458,262.292,378.917,254.5,389.375,254.5z
		 M257.375,346.5c10.417,0,18.917,7.75,18.917,17.333c0,9.542-8.5,17.334-18.917,17.334c-10.458,0-18.917-7.792-18.917-17.334
		C238.458,354.25,246.917,346.5,257.375,346.5z"/>
</g>
</svg>
