<?xml version="1.0" encoding="utf-8"?>
<!-- Generator: Adobe Illustrator 16.0.0, SVG Export Plug-In . SVG Version: 6.00 Build 0)  -->
<!DOCTYPE svg PUBLIC "-//W3C//DTD SVG 1.1//EN" "http://www.w3.org/Graphics/SVG/1.1/DTD/svg11.dtd">
<svg version="1.1" id="Layer_1" xmlns="http://www.w3.org/2000/svg" xmlns:xlink="http://www.w3.org/1999/xlink" x="0px" y="0px"
	 width="1024px" height="1024px" viewBox="0 0 1024 1024" enable-background="new 0 0 1024 1024" xml:space="preserve">
<g>
	<path fill="#414042" d="M977.958,549.625c0-5.917-4.791-10.667-10.666-10.667h-908.5c-5.875,0-10.667,4.75-10.667,10.667
		c0,5.875,4.792,10.667,10.667,10.667h908.5C973.167,560.292,977.958,555.5,977.958,549.625z"/>
	<path fill="#414042" d="M907.458,615.75c-14.625-12.833-31.208-27.333-63.791-27.333c-32.542,0-49.125,14.5-63.75,27.333
		c-13.125,11.458-24.459,21.333-47.584,21.333s-34.416-9.875-47.541-21.333c-14.625-12.833-31.25-27.333-63.792-27.333
		s-49.125,14.5-63.792,27.333c-13.083,11.458-24.416,21.333-47.541,21.333c-23.084,0-34.417-9.875-47.542-21.333
		c-14.625-12.833-31.208-27.333-63.792-27.333c-32.541,0-49.166,14.5-63.833,27.333c-13.125,11.458-24.417,21.333-47.583,21.333
		c-23.167,0-34.5-9.875-47.625-21.333c-14.667-12.833-31.292-27.333-63.875-27.333c-32.584,0-49.209,14.5-63.875,27.291
		c-13.125,11.5-24.459,21.375-47.625,21.375c-6.459,0-11.709,4.792-11.709,10.667c0,5.917,5.25,10.667,11.709,10.667
		c32.583,0,49.208-14.5,63.875-27.292c13.125-11.458,24.458-21.375,47.625-21.375c23.166,0,34.5,9.917,47.666,21.375
		c14.625,12.792,31.25,27.292,63.834,27.292c32.583,0,49.166-14.5,63.833-27.292c13.125-11.458,24.458-21.375,47.583-21.375
		s34.459,9.917,47.584,21.375c14.625,12.792,31.208,27.292,63.75,27.292c32.541,0,49.166-14.5,63.791-27.292
		c13.125-11.458,24.417-21.375,47.542-21.375s34.417,9.917,47.542,21.375c14.666,12.792,31.25,27.292,63.791,27.292
		c32.542,0,49.167-14.5,63.792-27.292c13.125-11.458,24.458-21.375,47.542-21.375c23.125,0,34.458,9.917,47.583,21.375
		c14.625,12.792,31.208,27.292,63.792,27.292c6.458,0,11.708-4.75,11.708-10.667c0-5.875-5.25-10.667-11.708-10.667
		C931.917,637.083,920.583,627.208,907.458,615.75z"/>
	<path fill="#414042" d="M967.5,691.375H53.708c-5.875,0-10.666,4.75-10.666,10.667V798.5c0,5.875,4.791,10.667,10.666,10.667H967.5
		c5.917,0,10.667-4.792,10.667-10.667v-96.458C978.167,696.125,973.417,691.375,967.5,691.375z"/>
	<path fill="#414042" d="M56.333,513h910.792c4.75,0,8.917-3.125,10.25-7.667c1.333-4.541-0.5-9.416-4.458-12L517.5,201.083
		c-3.5-2.25-8.042-2.25-11.542,0L50.583,493.333c-4,2.584-5.833,7.459-4.5,12C47.417,509.875,51.583,513,56.333,513z
		 M734.958,431.792c10.667,0,19.334,8.708,19.334,19.375c0,10.666-8.667,19.333-19.334,19.333c-10.666,0-19.333-8.667-19.333-19.333
		C715.625,440.5,724.292,431.792,734.958,431.792z M610.667,379.125c10.666,0,19.375,8.708,19.375,19.375
		s-8.709,19.333-19.375,19.333c-10.667,0-19.334-8.666-19.334-19.333S600,379.125,610.667,379.125z M510.625,277.792
		c10.667,0,19.333,8.708,19.333,19.375c0,10.666-8.666,19.333-19.333,19.333s-19.333-8.667-19.333-19.333
		C491.292,286.5,499.958,277.792,510.625,277.792z M469.333,425.125c10.667,0,19.375,8.667,19.375,19.333
		c0,10.667-8.708,19.375-19.375,19.375c-10.666,0-19.333-8.708-19.333-19.375C450,433.792,458.667,425.125,469.333,425.125z
		 M384,350.667c10.667,0,19.333,8.708,19.333,19.375c0,10.666-8.666,19.333-19.333,19.333s-19.333-8.667-19.333-19.333
		C364.667,359.375,373.333,350.667,384,350.667z M225.792,442.917c10.666,0,19.333,8.708,19.333,19.375
		c0,10.666-8.667,19.333-19.333,19.333c-10.667,0-19.334-8.667-19.334-19.333C206.458,451.625,215.125,442.917,225.792,442.917z"/>
</g>
</svg>
