<?xml version="1.0" encoding="utf-8"?>
<!-- Generator: Adobe Illustrator 16.0.0, SVG Export Plug-In . SVG Version: 6.00 Build 0)  -->
<!DOCTYPE svg PUBLIC "-//W3C//DTD SVG 1.1//EN" "http://www.w3.org/Graphics/SVG/1.1/DTD/svg11.dtd">
<svg version="1.1" id="Layer_1" xmlns="http://www.w3.org/2000/svg" xmlns:xlink="http://www.w3.org/1999/xlink" x="0px" y="0px"
	 width="1024px" height="1024px" viewBox="0 0 1024 1024" enable-background="new 0 0 1024 1024" xml:space="preserve">
<g>
	<path fill="#414042" d="M509.667,665.667c-40.209,0-72.875,32.708-72.875,72.875c0,40.208,32.666,72.916,72.875,72.916
		c40.208,0,72.875-32.708,72.875-72.916C582.542,698.375,549.875,665.667,509.667,665.667z"/>
	<path fill="#414042" d="M812.458,388.083c-2.041-2.375-5-3.75-8.125-3.75h-5.541V191.667c0-5.917-4.75-10.667-10.667-10.667
		h-50.958v-67.333c0-5.875-4.792-10.667-10.667-10.667h-61.667c-5.875,0-10.666,4.792-10.666,10.667v88h-40.292V78.333
		c0-5.875-4.75-10.666-10.667-10.666h-61.625c-5.875,0-10.666,4.791-10.666,10.666v97.417h-40.292v-36.083
		c0-5.875-4.792-10.667-10.667-10.667h-61.666c-5.875,0-10.667,4.792-10.667,10.667v86.666h-40.292V175
		c0-5.875-4.75-10.667-10.666-10.667h-61.625c-5.917,0-10.667,4.792-10.667,10.667v51.333h-50.958
		c-5.917,0-10.667,4.792-10.667,10.667v147.333h-2.167c-3.125,0-6.083,1.375-8.083,3.75c-2.042,2.334-2.917,5.5-2.458,8.542
		l85.333,550.667c0.792,5.208,5.292,9.041,10.542,9.041H719c5.25,0,9.75-3.833,10.542-9.041l85.333-550.667
		C815.375,393.583,814.458,390.417,812.458,388.083z M777.458,202.333v182h-40.291v-182H777.458z M715.833,124.333v67.334v192.666
		H675.5v-260H715.833z M654.167,223v161.333h-38.125c-0.742,0-1.467,0.085-2.167,0.245V223H654.167z M592.542,89v123.333v230.261
		c-9.411,15.986-23.463,28.92-40.292,36.936V89H592.542z M530.917,197.083v289.571c-5.968,1.209-12.141,1.846-18.459,1.846
		c-7.518,0-14.828-0.905-21.833-2.602V197.083H530.917z M469.292,150.333v36.084v291.397c-17.453-9.23-31.641-23.893-40.334-41.815
		V150.333H469.292z M407.625,247.667v136.666h-40.292V247.667H407.625z M244.083,247.667h40.292v136.666h-40.292V247.667z
		 M305.708,384.333V185.667H346v50.25c0,0,0.125,0.333,0.125,0.541c0,0.209-0.125,0.375-0.125,0.542v147.333H305.708z M675,749.208
		h-72.208c-5.334,46.917-44.834,83.584-93.125,83.584c-48.292,0-87.792-36.667-93.167-83.584h-66.583
		c-5.875,0-10.667-4.75-10.667-10.666c0-5.875,4.792-10.667,10.667-10.667h66.625c5.375-46.875,44.833-83.542,93.125-83.542
		c48.291,0,87.75,36.667,93.125,83.542H675c5.875,0,10.667,4.792,10.667,10.667C685.667,744.458,680.875,749.208,675,749.208z"/>
</g>
</svg>
