<?xml version="1.0" encoding="utf-8"?>
<!-- Generator: Adobe Illustrator 16.0.0, SVG Export Plug-In . SVG Version: 6.00 Build 0)  -->
<!DOCTYPE svg PUBLIC "-//W3C//DTD SVG 1.1//EN" "http://www.w3.org/Graphics/SVG/1.1/DTD/svg11.dtd">
<svg version="1.1" id="Layer_1" xmlns="http://www.w3.org/2000/svg" xmlns:xlink="http://www.w3.org/1999/xlink" x="0px" y="0px"
	 width="1024px" height="1024px" viewBox="0 0 1024 1024" enable-background="new 0 0 1024 1024" xml:space="preserve">
<path fill="#414042" d="M837.75,308.292c0-32.417-24.583-59-56.208-63.125c9.041-11.667,14.458-25.792,14.208-41.042
	c-0.292-17.875-7.667-34.542-20.792-46.917c-13.041-12.333-29.75-18.25-48.25-18.625c-6.541,0.084-13.083,1.125-19.416,3.125
	c-9.792-6.625-20.875-10.708-32.584-12.166l-0.833-13.167C665.167,77.292,627.625,52.25,590,60.583
	c-3.042,0.709-6.083,1.625-9.208,2.917c-14.5-14.458-35.667-21.042-58.375-17.917C505.333,48,490.542,58.75,481.875,73.542
	c-12.542-3.084-25.75-3.5-38.333-0.292C430.958,54.625,409.333,43,386.083,43c-37.833,0-68.666,29.75-68.666,66.375
	c0,8.958,1.875,17.667,5.541,25.792c-34.958,8.208-60.333,37.75-60.333,73.208c0,4.917,0.833,9.958,2.125,15.167
	c-23.333,7.708-40.333,29.5-40.333,55.416c0,7.375,1.375,14.542,4.083,21.292c-28.75,7.875-49.417,33.458-49.417,64.042
	c0,24.847,10.175,44.909,26.83,56.209c0.022,0.277,0.042,0.555,0.087,0.832L291.333,972c0.792,5.208,5.292,9.042,10.542,9.042
	h75.167l-61.769-550.623l21.496-0.035l61.773,550.658h65.041l-34.666-513.667c-8.334-14.042-13.417-30.25-13.417-47.875
	c-0.083-5.792-4.833-10.458-10.667-10.458h-35.752c8.219-11.085,12.669-23.856,12.669-37.167c0-3.125-0.25-6.292-0.833-9.583
	c11.333-7.084,19.583-17.625,24.666-29.584c18-10.958,44.209-3.625,53.334,15.959c2.375,5.125,8.291,7.458,13.541,5.416
	c5.292-2.083,10.667-3.125,15.834-3.125c0.583,0,1.875,0.209,3.208,0.625c-6.917,9.625-11.083,21.334-11.083,34.042
	c0,7.375,1.375,14.542,4.083,21.292c-28.75,7.875-49.417,33.458-49.417,64.041c0,17.582,6.903,33.04,18.424,44.289l31.451,465.795
	h46.917l32.875-487.459c-15.667,12.084-35.042,19.584-56.333,19.584c-1.432,0-2.854-0.04-4.269-0.107
	c-0.459-0.06-0.923-0.102-1.398-0.102c-0.072,0-0.143-0.004-0.215-0.004c-6.329-0.415-12.466-1.486-18.366-3.145
	c-16.792-6.114-27.752-20.608-27.752-38.851c0-24.625,19.916-44.458,45.375-45.166c4-0.125,7.625-2.5,9.333-6.167
	c1.708-3.625,1.208-7.958-1.292-11.125c-5.291-6.708-8.083-14.625-8.083-22.875c0-20.583,16.75-37.333,37.333-37.333
	c14.375,0,27.625,8.541,33.75,21.708c2.375,5.125,8.292,7.458,13.584,5.417c5.291-2.084,10.666-3.125,16-3.125
	c20.961,0,36.595,17.751,40.996,36.75h-31.455c-5.875,0-10.666,5.333-10.666,11.25c0,17.333-5.084,33.375-13.375,47.291
	L553.25,981.042h65.042l64.166-572h-17.27c-3.507-23.103-18.151-42.712-37.521-52.125c2.583-21.167,20.875-37.125,44.791-37.792
	c4-0.125,7.625-2.5,9.334-6.167C683.5,309.333,683,305,680.5,301.833c-5.292-6.708-8.083-14.625-8.083-22.875
	c0-20.583,16.75-37.333,37.333-37.333c14.375,0,27.625,8.542,33.75,21.708c2.375,5.125,8.292,7.459,13.583,5.417
	c28.875-11.417,59.334,10.75,59.334,39.542c0,16.583-9.959,31.75-25.375,38.708c-4.792,2.167-7.292,7.542-5.875,12.625
	c1.291,4.667,1.916,8.583,1.916,12.25c0,14.359-6.872,28.024-18.471,37.167h-64.654l-64.166,572h75.166
	c5.25,0,9.75-3.834,10.542-9.042l85.333-550.667c0.459-3.083-0.416-6.208-2.458-8.583c-2-2.375-4.958-3.708-8.083-3.708h-3.075
	c7.21-10.994,11.2-23.867,11.2-37.167c0-3.125-0.25-6.292-0.834-9.583C826.167,350.667,837.75,330.292,837.75,308.292z
	 M525.375,66.708C543.542,64.292,560,70.25,569.5,82.958c3.125,4.209,8.917,5.5,13.542,3c4.333-2.291,8-3.75,11.583-4.541
	c26.083-5.834,52.292,11.958,58.208,37.916l0.625,10.792c-15.083,2.458-28.958,9.167-39.833,19.875
	C600,163.458,592.667,181.167,593,199.875c0,0.458,0.083,0.708,0.125,1.167c-1.125,0.041-2.542-0.042-3.458,0.083l-4,0.542
	c-3.584,0.458-7.25,0.958-10.875,1.708c-7.375-15.542-20.792-27.583-37.334-33.292c0.209-0.458,0.584-0.833,0.709-1.375
	c8.791-31.333-1.042-53.333-10.792-66.208c-6.667-8.792-15.542-16.042-25.542-21.417C507.375,73.417,515.917,68.042,525.375,66.708z
	 M340.917,154.25c4.083-0.125,7.75-2.542,9.416-6.25c1.709-3.708,1.167-8.042-1.416-11.208
	c-6.667-8.084-10.167-17.542-10.167-27.417c0-24.833,21.25-45.042,47.333-45.042c18.334,0,35.167,10.292,42.917,26.292
	c2.375,4.958,8.167,7.25,13.333,5.333c24.792-9.333,53.375,0.125,68.042,19.417c9.833,13,12.333,29.458,7.25,47.583
	c-0.333,1.167-0.292,2.292-0.25,3.417c-0.375,0-0.708-0.083-1.083-0.083c-5,0-9.959,0.583-14.875,1.75
	c-10.834-15.875-28.959-25.75-48.459-25.75c-32.333,0-58.666,26.291-58.666,58.666c0,7.375,1.416,14.584,4.125,21.334
	c-14.25,4-26.709,12.666-35.667,24.333c-5.25-1.375-10.667-2.333-16.333-2.333c-5,0-10,0.625-14.917,1.791
	c-10.25-15.041-27.125-24.416-45.375-25.416c-1.292-4.375-2.167-8.5-2.167-12.292C283.958,178.875,309,155.083,340.917,154.25z
	 M364.375,347c-4.792,2.167-7.292,7.542-5.875,12.625c1.292,4.667,1.917,8.583,1.917,12.25c0,14-7.875,27.375-21.667,37.167h-4.375
	l0.001,0.007l-21.496,0.036l-0.005-0.043h-76.789c-26.208-2.058-35.669-24.989-35.669-44.75c0-24.625,19.916-44.459,45.375-45.167
	c4-0.125,7.625-2.5,9.333-6.167c1.708-3.625,1.208-7.958-1.292-11.125c-5.291-6.708-8.083-14.625-8.083-22.875
	c0-20.583,16.75-37.333,37.333-37.333c14.375,0,27.625,8.542,33.75,21.708c2.375,5.125,8.292,7.459,13.584,5.417
	c28.916-11.417,59.333,10.75,59.333,39.542C389.75,324.875,379.792,340.042,364.375,347z M534.292,268.958
	c-4.792,2.167-7.334,7.5-5.917,12.584c1.333,4.75,1.917,8.625,1.917,12.291c0,15.834-7.209,28.375-23.542,42.167
	c-7.625-5.708-16.917-6.333-18.292-6.375c-5,0-9.958,0.625-14.916,1.792c-10.792-15.917-28.959-25.792-48.417-25.792
	c-4.833,0-9.542,0.75-14.125,1.875c-0.292-21.542-11.333-40.542-28.083-51.958c8.416-8.709,20.166-14.084,32.75-14.417
	c4.041-0.125,7.625-2.5,9.375-6.125c1.708-3.667,1.208-7.958-1.292-11.125c-5.292-6.792-8.125-14.708-8.125-22.917
	c0-20.583,16.75-37.333,37.333-37.333c14.375,0,27.667,8.5,33.792,21.667c2.375,5.125,8.292,7.458,13.542,5.416
	c5.25-2.041,10.625-3.083,16-3.083c23.916,0,43.333,19.125,43.333,42.667C559.625,246.833,549.667,262.042,534.292,268.958z
	 M655.125,300.125c-25.542,6.542-44.292,26.208-48.417,51.333c-1.458-0.125-2.833-0.5-4.291-0.5c-5,0-10,0.625-14.917,1.792
	c-10.167-14.917-26.833-24.25-44.958-25.333c5.416-9.334,9.083-20.292,9.083-33.584c0-3.125-0.25-6.25-0.792-9.583
	c18.542-11.625,30.125-31.958,30.125-53.958c0-2.167-0.416-4.167-0.625-6.25c2.584-0.5,5.292-0.875,8.084-1.209l4.208-0.583
	c9.583-1.208,48.583,8.125,67.25,26.25c-5.5,8.917-8.792,19.292-8.792,30.458C651.083,286.292,652.458,293.417,655.125,300.125z
	 M754.5,241.917c-11-13.292-27.167-21.625-44.75-21.625c-13.417,0-25.625,4.708-35.542,12.291
	c-15.791-15-39.708-24.541-59.083-28.875c-0.542-1.583-0.792-2.458-0.792-4.208c-0.25-12.833,4.834-25,14.25-34.292
	c9.584-9.416,22.459-14.75,36.25-14.958c12.084,0.125,24.375,3.958,34,11.75c3.042,2.458,7.167,3.042,10.75,1.542
	c5.709-2.334,11.542-3.542,17.459-3.625c12.083-0.542,24.291,4.333,33.25,12.791c8.916,8.417,13.916,19.709,14.125,31.75
	C774.667,219.583,767.125,233.292,754.5,241.917z"/>
</svg>
