<?xml version="1.0" encoding="utf-8"?>
<!-- Generator: Adobe Illustrator 16.0.0, SVG Export Plug-In . SVG Version: 6.00 Build 0)  -->
<!DOCTYPE svg PUBLIC "-//W3C//DTD SVG 1.1//EN" "http://www.w3.org/Graphics/SVG/1.1/DTD/svg11.dtd">
<svg version="1.1" id="Layer_1" xmlns="http://www.w3.org/2000/svg" xmlns:xlink="http://www.w3.org/1999/xlink" x="0px" y="0px"
	 width="1024px" height="1024px" viewBox="0 0 1024 1024" enable-background="new 0 0 1024 1024" xml:space="preserve">
<g>
	<path fill="#414042" d="M939.125,696.125c-1.125-2.75-3.292-4.875-6-5.958l-58.458-23
		C836.583,779.5,732.208,842.417,717.958,850.583l23.5,46.459c1.834,3.666,5.584,5.875,9.5,5.875c1.125,0,2.292-0.209,3.417-0.584
		c109.583-36.916,181.542-191.25,184.542-197.791C940.125,701.875,940.208,698.833,939.125,696.125z"/>
	<path fill="#414042" d="M852.208,658.292L589.333,554.75c-4.083-1.583-8.791-0.5-11.791,2.75c-2.959,3.25-3.625,8.042-1.625,12
		L707,828.875C722.292,819.792,818.375,759.583,852.208,658.292z M679,656.458c-8.458,0-15.333-6.875-15.333-15.333
		s6.875-15.333,15.333-15.333s15.333,6.875,15.333,15.333S687.458,656.458,679,656.458z M724.625,753.208
		c-8.458,0-15.333-6.875-15.333-15.333s6.875-15.333,15.333-15.333s15.333,6.875,15.333,15.333S733.083,753.208,724.625,753.208z
		 M768.333,686.292c0-8.459,6.875-15.334,15.334-15.334c8.458,0,15.333,6.875,15.333,15.334c0,8.458-6.875,15.333-15.333,15.333
		C775.208,701.625,768.333,694.75,768.333,686.292z"/>
	<path fill="#414042" d="M678.417,843.292l-12.042-23.834c-44.875,21.5-94.917,33.875-147.917,33.875
		c-189.916,0-344.416-154.5-344.416-344.416c0-189.917,154.5-344.459,344.416-344.459c189.917,0,344.417,154.542,344.417,344.459
		c0,39.041-6.833,76.5-18.875,111.5l49.375,19.416c13.583-40.208,21.292-83.083,21.292-127.833
		c0-221.417-180.167-401.542-401.584-401.542c-221.416,0-401.541,180.125-401.541,401.542s180.125,401.583,401.541,401.583
		c64.709,0,125.709-15.708,179.875-43.041l-11.291-22.209C680.458,846.75,679.333,845.083,678.417,843.292z"/>
	<path fill="#414042" d="M712.333,413.417c0.459,0,0.75-0.417,1.167-0.5c-1.917-0.584-3.458-2.042-3.458-4.167
		c0-2.583,2.083-4.667,4.666-4.667c1.084,0,1.959,0.542,2.709,1.125c-0.917-2.125-2.625-3.791-5.084-3.791c-3.291,0-6,2.666-6,6
		C706.333,410.708,709.042,413.417,712.333,413.417z"/>
	<path fill="#414042" d="M613.167,310.083c0.458,0,0.75-0.416,1.166-0.5c-1.916-0.583-3.458-2.041-3.458-4.166
		c0-2.584,2.083-4.667,4.667-4.667c1.041,0,1.916,0.542,2.708,1.125c-0.917-2.125-2.625-3.792-5.083-3.792c-3.334,0-6,2.667-6,6
		C607.167,307.375,609.833,310.083,613.167,310.083z"/>
	<path fill="#414042" d="M750.292,535.417c0.458,0,0.75-0.417,1.166-0.5c-1.916-0.584-3.458-2.042-3.458-4.167
		c0-2.583,2.083-4.667,4.667-4.667c1.041,0,1.916,0.542,2.708,1.125c-0.917-2.125-2.625-3.791-5.083-3.791c-3.334,0-6,2.666-6,6
		C744.292,532.708,746.958,535.417,750.292,535.417z"/>
	<path fill="#414042" d="M409.167,287.875c-1.875-0.583-3.417-2.042-3.417-4.125c0-2.583,2.083-4.667,4.667-4.667
		c1.041,0,1.916,0.5,2.708,1.125c-0.917-2.125-2.625-3.833-5.083-3.833c-3.334,0-6,2.667-6,6c0,3.292,2.666,6,6,6
		C408.5,288.375,408.75,288,409.167,287.875z"/>
	<path fill="#414042" d="M417.375,401.417c-3.333,0-6,2.666-6,6c0,3.291,2.667,6,6,6c0.458,0,0.75-0.417,1.167-0.5
		c-1.917-0.584-3.459-2.042-3.459-4.167c0-2.583,2.084-4.667,4.667-4.667c1.042,0,1.917,0.542,2.708,1.125
		C421.542,403.083,419.833,401.417,417.375,401.417z"/>
	<path fill="#414042" d="M271.375,500c-3.333,0-6,2.667-6,6c0,3.292,2.667,6,6,6c0.458,0,0.75-0.417,1.167-0.5
		c-1.917-0.583-3.459-2.042-3.459-4.167c0-2.583,2.084-4.666,4.667-4.666c1.042,0,1.917,0.541,2.708,1.125
		C275.542,501.667,273.833,500,271.375,500z"/>
	<path fill="#414042" d="M381.375,682.125c-3.333,0-6,2.708-6,6c0,3.333,2.667,6,6,6c0.458,0,0.708-0.375,1.125-0.458
		c-1.875-0.584-3.417-2.084-3.417-4.167c0-2.583,2.084-4.667,4.667-4.667c1.083,0,1.958,0.542,2.75,1.125
		C385.542,683.833,383.833,682.125,381.375,682.125z"/>
	<path fill="#414042" d="M511.875,489.917c-1.917-0.584-3.458-2.042-3.458-4.167c0-2.583,2.083-4.667,4.666-4.667
		c1.084,0,1.959,0.542,2.709,1.125c-0.917-2.125-2.625-3.791-5.084-3.791c-3.291,0-6,2.666-6,6c0,3.291,2.709,6,6,6
		C511.167,490.417,511.458,490,511.875,489.917z"/>
	<path fill="#414042" d="M601,524.958l223.167,87.667c11.083-32.583,17.375-67.417,17.375-103.708
		c0-178.167-144.917-323.125-323.084-323.125c-178.166,0-323.083,144.958-323.083,323.125C195.375,687.083,340.292,832,518.458,832
		c49.709,0,96.667-11.625,138.792-31.75L547.375,583.917c-7.958-15.709-5.333-34.959,6.542-47.959
		C565.708,523.083,584.917,518.667,601,524.958z M750.292,514.083c8.458,0,15.333,6.875,15.333,15.334
		c0,8.458-6.875,15.333-15.333,15.333c-8.459,0-15.334-6.875-15.334-15.333C734.958,520.958,741.833,514.083,750.292,514.083z
		 M712.333,392.083c8.459,0,15.334,6.875,15.334,15.334c0,8.458-6.875,15.333-15.334,15.333c-8.458,0-15.333-6.875-15.333-15.333
		C697,398.958,703.875,392.083,712.333,392.083z M634.25,463.5c13.5-12.417,34.458-15.542,62.333-9.208
		c5.75,1.291,9.334,7,8.042,12.75s-7.042,9.416-12.75,8.041c-20.292-4.541-35.25-3.166-43.208,4.125
		c-9.5,8.792-7.625,24.417-7.625,24.542c0.833,5.833-3.25,11.25-9.084,12.042c-0.5,0.083-1,0.125-1.5,0.125
		c-5.208,0-9.791-3.875-10.541-9.209C619.75,505.625,616.417,479.917,634.25,463.5z M613.167,288.75
		c8.458,0,15.333,6.875,15.333,15.333c0,8.459-6.875,15.334-15.333,15.334c-8.459,0-15.334-6.875-15.334-15.334
		C597.833,295.625,604.708,288.75,613.167,288.75z M271.375,521.333c-8.458,0-15.333-6.875-15.333-15.333
		s6.875-15.333,15.333-15.333s15.333,6.875,15.333,15.333S279.833,521.333,271.375,521.333z M328.292,441.75
		c-2.084,2.042-4.792,3.042-7.5,3.042c-2.709,0-5.417-1.042-7.5-3.084c-5.5-5.541-14-18.916-10.792-33.958
		c3.208-15.292,16.958-27.75,40.833-37.042c5.5-2.166,11.667,0.584,13.792,6.042c2.167,5.5-0.583,11.708-6.042,13.833
		c-16.208,6.292-26.041,13.917-27.708,21.459c-1.667,7.5,5.042,14.583,5.083,14.666C332.5,430.917,332.458,437.667,328.292,441.75z
		 M381.375,703.458c-8.458,0-15.333-6.875-15.333-15.333s6.875-15.333,15.333-15.333s15.333,6.875,15.333,15.333
		S389.833,703.458,381.375,703.458z M386.042,605.417c-5.917,0-10.667-4.792-10.667-10.667c0-13.958-2.792-23.375-7.875-26.5
		c-5.833-3.625-15.458,0.708-15.542,0.792c-5.25,2.625-11.666,0.458-14.291-4.792s-0.5-11.667,4.75-14.292
		c2.083-1.041,20.416-9.75,36.333,0.125c11.917,7.375,17.958,22.417,17.958,44.667C396.708,600.625,391.917,605.417,386.042,605.417
		z M392.708,282.375c0-8.458,6.875-15.333,15.334-15.333c8.458,0,15.333,6.875,15.333,15.333s-6.875,15.333-15.333,15.333
		C399.583,297.708,392.708,290.833,392.708,282.375z M417.375,422.75c-8.458,0-15.333-6.875-15.333-15.333
		c0-8.459,6.875-15.334,15.333-15.334s15.333,6.875,15.333,15.334C432.708,415.875,425.833,422.75,417.375,422.75z M527.25,684.5
		c-6.792,17.042-24.375,28.917-52.208,35.292c-0.792,0.208-1.584,0.291-2.375,0.291c-4.875,0-9.292-3.375-10.417-8.291
		c-1.292-5.75,2.292-11.459,8.042-12.792c20.208-4.625,33.041-12.333,37.083-22.292c4.917-12.041-3.625-25.458-3.708-25.583
		c-3.209-4.917-1.834-11.542,3.083-14.75c4.875-3.208,11.5-1.875,14.708,3C522.083,640.292,536.208,662.042,527.25,684.5z
		 M495.375,484.417c0-8.459,6.875-15.334,15.333-15.334c8.459,0,15.334,6.875,15.334,15.334c0,8.458-6.875,15.333-15.334,15.333
		C502.25,499.75,495.375,492.875,495.375,484.417z M558.042,727.417c8.458,0,15.333,6.875,15.333,15.333
		s-6.875,15.333-15.333,15.333c-8.459,0-15.334-6.875-15.334-15.333S549.583,727.417,558.042,727.417z M543,316.458
		c-15.375-12.291-29.25-17.458-40.083-14.833c-12.75,3.042-18.875,15.75-18.959,15.875c-1.791,3.917-5.666,6.25-9.708,6.25
		c-1.458,0-3-0.333-4.417-0.958c-5.375-2.459-7.708-8.792-5.25-14.167c0.417-0.917,10.417-22.25,33.375-27.75
		c17.75-4.25,37.375,2.125,58.334,18.917c4.625,3.666,5.375,10.375,1.708,15C554.333,319.375,547.625,320.125,543,316.458z"/>
	<path fill="#414042" d="M558.042,748.75c0.458,0,0.708-0.375,1.125-0.458c-1.875-0.584-3.417-2.084-3.417-4.167
		c0-2.583,2.083-4.667,4.667-4.667c1.083,0,1.958,0.542,2.75,1.125c-0.959-2.125-2.667-3.833-5.125-3.833c-3.334,0-6,2.708-6,6
		C552.042,746.083,554.708,748.75,558.042,748.75z"/>
</g>
</svg>
