<?xml version="1.0" encoding="utf-8"?>
<!-- Generator: Adobe Illustrator 16.0.0, SVG Export Plug-In . SVG Version: 6.00 Build 0)  -->
<!DOCTYPE svg PUBLIC "-//W3C//DTD SVG 1.1//EN" "http://www.w3.org/Graphics/SVG/1.1/DTD/svg11.dtd">
<svg version="1.1" id="Layer_1" xmlns="http://www.w3.org/2000/svg" xmlns:xlink="http://www.w3.org/1999/xlink" x="0px" y="0px"
	 width="1024px" height="1024px" viewBox="0 0 1024 1024" enable-background="new 0 0 1024 1024" xml:space="preserve">
<g>
	<path fill="#414042" d="M890.333,446.375c-2.208-5.5-6.583-9.875-12.125-12.042l-118.583-46.666
		c-77.25,227.875-288.958,355.5-317.833,372l47.625,94.291c3.75,7.417,11.375,11.875,19.333,11.875c2.292,0,4.625-0.375,6.875-1.166
		C737.958,789.75,883.833,476.792,889.958,463.5C892.417,458.083,892.583,451.875,890.333,446.375z"/>
	<path fill="#414042" d="M714.125,369.708L180.958,159.667c-8.333-3.25-17.875-1.042-23.916,5.541
		c-6.042,6.667-7.375,16.334-3.334,24.334l265.834,526.083C450.583,697.25,645.458,575.125,714.125,369.708z M362.75,365.917
		c-17.125,0-31.083-13.917-31.083-31.084c0-17.166,13.958-31.083,31.083-31.083c17.167,0,31.125,13.917,31.125,31.083
		C393.875,352,379.917,365.917,362.75,365.917z M455.292,562.208c-17.125,0-31.084-13.958-31.084-31.083
		c0-17.167,13.959-31.125,31.084-31.125c17.166,0,31.125,13.958,31.125,31.125C486.417,548.25,472.458,562.208,455.292,562.208z
		 M543.958,426.5c0-17.167,13.959-31.125,31.084-31.125c17.166,0,31.125,13.958,31.125,31.125c0,17.125-13.959,31.083-31.125,31.083
		C557.917,457.583,543.958,443.625,543.958,426.5z"/>
</g>
</svg>
