<?xml version="1.0" encoding="utf-8"?>
<!-- Generator: Adobe Illustrator 16.0.0, SVG Export Plug-In . SVG Version: 6.00 Build 0)  -->
<!DOCTYPE svg PUBLIC "-//W3C//DTD SVG 1.1//EN" "http://www.w3.org/Graphics/SVG/1.1/DTD/svg11.dtd">
<svg version="1.1" id="Layer_1" xmlns="http://www.w3.org/2000/svg" xmlns:xlink="http://www.w3.org/1999/xlink" x="0px" y="0px"
	 width="1024px" height="1024px" viewBox="0 0 1024 1024" enable-background="new 0 0 1024 1024" xml:space="preserve">
<path fill="#414042" d="M792.167,55.792H243.042c-27.625,0-50.125,22.458-50.125,50.125v812.208c0,27.625,22.5,50.125,50.125,50.125
	h549.125c27.666,0,50.125-22.5,50.125-50.125V105.917C842.292,78.25,819.833,55.792,792.167,55.792z M529.833,233.792h28.125
	l22.084,39c6.333,11.208,12.625,24.458,17.375,36.458h0.458c-1.583-14.042-2.042-28.417-2.042-44.375v-31.083h22.125v106.416
	h-25.291l-22.709-41.041c-6.333-11.375-13.291-25.125-18.5-37.584L551,261.75c0.625,14.042,0.958,29.042,0.958,46.417v32.041
	h-22.125V233.792z M445.542,233.792h65.708v19.75h-41.542v22.083h39.167v19.583h-39.167v25.25h43.75v19.75h-67.916V233.792z
	 M316.458,233.792H348.5l10.417,35.541c3.333,12.292,6.625,25.542,9,38.042h0.458c3-12.333,6.667-26.375,10.125-38.208
	l11.375-35.375h31.417l5.833,106.416h-23.542L402,299.458c-0.458-12.791-0.917-28.25-0.917-43.708h-0.5
	c-3.291,13.583-7.708,28.708-11.833,41.208l-12.958,41.5H357l-11.333-41.208c-3.5-12.458-7.125-27.625-9.667-41.5h-0.292
	c-0.625,14.375-1.125,30.792-1.916,44.042l-1.875,40.416h-22.25L316.458,233.792z M692.208,834.208H334.625
	c-11.792,0-21.333-9.541-21.333-21.333s9.541-21.333,21.333-21.333h357.583c11.792,0,21.334,9.541,21.334,21.333
	S704,834.208,692.208,834.208z M692.208,715.833H334.625c-11.792,0-21.333-9.541-21.333-21.333s9.541-21.333,21.333-21.333h357.583
	c11.792,0,21.334,9.541,21.334,21.333S704,715.833,692.208,715.833z M692.208,597.458H334.625c-11.792,0-21.333-9.541-21.333-21.333
	s9.541-21.333,21.333-21.333h357.583c11.792,0,21.334,9.541,21.334,21.333S704,597.458,692.208,597.458z M725.583,293.458
	c0,32.834-16.583,48.5-44.375,48.5c-26.833,0-42.625-14.875-42.625-48.791v-59.375h24.167v61.25c0,18.333,6.958,27.625,19.25,27.625
	c12.625,0,19.583-8.834,19.583-27.625v-61.25h24V293.458z"/>
</svg>
