<?xml version="1.0" encoding="utf-8"?>
<!-- Generator: Adobe Illustrator 16.0.0, SVG Export Plug-In . SVG Version: 6.00 Build 0)  -->
<!DOCTYPE svg PUBLIC "-//W3C//DTD SVG 1.1//EN" "http://www.w3.org/Graphics/SVG/1.1/DTD/svg11.dtd">
<svg version="1.1" id="Layer_1" xmlns="http://www.w3.org/2000/svg" xmlns:xlink="http://www.w3.org/1999/xlink" x="0px" y="0px"
	 width="48px" height="48px" viewBox="0 0 48 48" enable-background="new 0 0 48 48" xml:space="preserve">
<g>
	<path fill="#414042" d="M11.769,38.195c0.073,0.04,0.155,0.061,0.238,0.061h8.267c0.276,0,0.5-0.224,0.5-0.5s-0.224-0.5-0.5-0.5
		h-8.14l-6.657-3.602c-0.244-0.132-0.546-0.041-0.678,0.201C4.667,34.099,4.757,34.402,5,34.533L11.769,38.195z"/>
	<path fill="#414042" d="M19.234,40.287c-0.095-0.102-0.228-0.16-0.367-0.16l-7.738-0.01L3.587,35.61
		c-0.237-0.145-0.544-0.065-0.686,0.172c-0.142,0.237-0.064,0.544,0.173,0.686l7.66,4.578c0.077,0.047,0.166,0.071,0.256,0.071
		l7.658,0.01l3.108,3.359H3.331c-0.276,0-0.5,0.224-0.5,0.5s0.224,0.5,0.5,0.5H22.9c0.199,0,0.378-0.117,0.458-0.3
		c0.08-0.182,0.044-0.394-0.091-0.54L19.234,40.287z"/>
	<path fill="#414042" d="M35.765,31.447c-0.276,0-0.5,0.224-0.5,0.5v0.936h-0.623c-0.276,0-0.5,0.224-0.5,0.5v2.758
		c0,0.193,0.111,0.369,0.285,0.451l2.803,1.332c0.068,0.033,0.142,0.049,0.215,0.049c0.093,0,0.186-0.026,0.268-0.077
		c0.145-0.092,0.232-0.251,0.232-0.423v-5.525c0-0.276-0.224-0.5-0.5-0.5H35.765z M36.944,36.682l-1.803-0.857v-1.941h0.623
		c0.276,0,0.5-0.224,0.5-0.5v-0.936h0.68V36.682z"/>
	<path fill="#414042" d="M45.011,28.361c-0.141-0.131-0.336-0.165-0.507-0.104c-0.131-0.016-0.692-0.137-2.249-1.098
		c-0.314-0.662-1.681-3.274-3.688-3.274c-0.003,0-0.006,0-0.008,0c-0.011-0.001-1.104-0.127-2.505-3.669
		c-0.006-0.015-0.018-0.024-0.025-0.039c-0.336-0.767-0.742-1.41-1.243-1.805c-2.088-1.645-2.443-5.982-2.446-6.025
		C31.771,4.749,27.02,1.94,26.817,1.825c-0.045-0.026-0.094-0.044-0.145-0.055c-0.577-0.125-1.115-0.113-1.618,0.009
		C25.006,1.787,24.96,1.8,24.916,1.822c-0.354,0.103-0.694,0.25-1.007,0.477c-1.671,1.209-2.189,3.833-2.314,4.655
		c-1.934,1.285-2.194,3.659-2.404,5.58c-0.133,1.217-0.258,2.366-0.76,2.913c-1.212,1.323-2.218,6.222-2.684,8.849
		c-0.816-1.826-1.622-2.93-2.408-3.288c-0.181-0.083-0.34-0.115-0.47-0.122c-0.996-0.882-1.797-1.241-2.517-1.13
		c-0.905,0.142-1.387,0.993-1.813,1.744c-0.115,0.204-0.231,0.41-0.356,0.602c-0.889,1.37-1.8,5.116-1.927,5.649
		c-2.117,4.226-3.27,5.428-3.281,5.439c-0.193,0.195-0.193,0.511,0.002,0.705c0.098,0.098,0.226,0.146,0.354,0.146
		s0.256-0.049,0.354-0.146c0.051-0.051,1.263-1.288,3.492-5.749c0.018-0.035,0.031-0.072,0.04-0.11
		c0.01-0.04,0.962-4.091,1.805-5.389c0.136-0.208,0.263-0.432,0.389-0.654c0.036-0.063,0.07-0.121,0.105-0.182
		c0.106,1.011,0.472,2.401,1.559,3.758c0.009,0.011,0.876,1.152,0.122,5.918c-0.01,0.063-0.005,0.126,0.008,0.186H7.256
		c-0.226,0-0.424,0.151-0.482,0.369c-0.059,0.219,0.035,0.449,0.23,0.563l4.75,2.773c0.076,0.045,0.164,0.068,0.252,0.068h6.926
		c0.007-0.001,0.014,0,0.02,0c0.034,0,0.064-0.013,0.097-0.02h1.437l0.667,0.697c0.094,0.099,0.225,0.154,0.361,0.154h3.297
		l14.351,9.064H28.266c-0.276,0-0.5,0.224-0.5,0.5s0.224,0.5,0.5,0.5H40.89c0.223,0,0.418-0.147,0.48-0.361
		c0.062-0.214-0.025-0.442-0.214-0.562L25.223,35.354c-0.079-0.051-0.172-0.077-0.267-0.077h-3.228l-0.667-0.697
		c-0.094-0.099-0.225-0.154-0.361-0.154h-1.674l-2.758-1.514h4.239l1.199,1.131c0.093,0.088,0.216,0.137,0.343,0.137l3.853-0.002
		l17.118,10.713c0.083,0.052,0.175,0.076,0.266,0.076c0.166,0,0.329-0.083,0.424-0.234c0.146-0.234,0.075-0.543-0.158-0.689
		l-17.24-10.789c-0.08-0.05-0.172-0.076-0.266-0.076l-3.798,0.002l-1.199-1.131c-0.093-0.088-0.216-0.137-0.343-0.137H17.06
		c0.621-0.494,1.606-0.992,3.072-0.992c0.017,0,0.034,0,0.05,0c0.051,0.007,0.097-0.008,0.133-0.018
		c0.008-0.002,0.882-0.18,2.351,1.229c0.178,0.172,0.461,0.185,0.658,0.031c0.059-0.049,1.502-1.139,3.6,0.428
		c0.034,0.032,0.793,0.715,2.052,0.715c0.012,0,0.023-0.002,0.035-0.002c0.035,0.033,0.062,0.075,0.106,0.098l2.804,1.418
		c0.071,0.036,0.148,0.054,0.226,0.054c0.091,0,0.182-0.024,0.262-0.074c0.148-0.091,0.238-0.252,0.238-0.426v-5.525
		c0-0.276-0.224-0.5-0.5-0.5h-1.694c-0.276,0-0.5,0.224-0.5,0.5v0.936h-0.609c-0.276,0-0.5,0.224-0.5,0.5v2.015
		c-0.769-0.044-1.229-0.431-1.281-0.476c-0.25-0.188-0.492-0.341-0.729-0.473c-0.885-1.51-2.161-2.1-3.003-2.324
		c-0.384-6.649,0.512-9.524,0.948-10.915c0.084-0.268,0.149-0.479,0.185-0.645c0.051-0.232,0.161-0.545,0.282-0.893
		c0.42-1.209,0.941-2.713,0.133-3.448c-0.271-0.247-0.905-0.911-0.927-1.762c-0.014-0.566,0.254-1.13,0.799-1.677
		c2.182-2.19,1.167-3.708,0.215-4.66c-0.511-0.51-0.206-1.7,0.027-2.316c0.278-0.04,0.571-0.04,0.889,0.021
		c0.546,0.352,4.468,3.106,4.96,9.692c0.016,0.196,0.392,4.819,2.825,6.736c1.728,1.362,2.301,7.258,2.383,9.482
		c0.025,0.148,0.103,0.602,2.55,2.455c1.615,1.225,1.796,3.146,1.802,3.892c-0.098,0.092-0.161,0.22-0.161,0.364v0.936H40.13
		c-0.276,0-0.5,0.224-0.5,0.5v2.477c0,0.179,0.096,0.344,0.251,0.434l2.803,1.613c0.077,0.044,0.163,0.066,0.249,0.066
		c0.087,0,0.173-0.022,0.25-0.067c0.155-0.089,0.25-0.254,0.25-0.433v-5.525c0-0.276-0.224-0.5-0.5-0.5h-1.031
		c-0.024-0.996-0.312-3.122-2.199-4.553c-1.593-1.207-2.049-1.728-2.165-1.883c-0.024-0.591-0.124-2.412-0.453-4.373
		c0.779,0.841,1.348,0.861,1.486,0.842c0.001,0,0.003,0,0.003,0c1.317,0,2.49,2.035,2.831,2.82c0.041,0.093,0.108,0.171,0.194,0.225
		c1.643,1.026,2.483,1.333,2.95,1.333c0.247,0,0.39-0.085,0.49-0.195C45.227,28.864,45.214,28.548,45.011,28.361z M29.843,30.783
		h0.609c0.276,0,0.5-0.224,0.5-0.5v-0.936h0.694v4.212l-1.804-0.912V30.783z M11.836,24.922c-1.376-1.72-1.39-3.528-1.344-4.172
		c0.005-0.001,0.009-0.006,0.015-0.007c0.285-0.046,0.841,0.096,1.849,1.027c0.147,0.136,0.276,0.196,0.46,0.114
		c0.016,0,1.375,0.086,3.397,6.593c-1.087,1.04-1.684,2.742-1.877,3.374l-0.216-0.118c-0.074-0.04-0.157-0.062-0.241-0.062h-1.707
		c0.002-0.011,0.009-0.019,0.01-0.029C13.013,26.402,12.009,25.091,11.836,24.922z M12.142,34.445l-3.037-1.773h4.646l3.231,1.773
		H12.142z M23.071,31.146c-1.535-1.349-2.612-1.289-2.939-1.227c0,0-0.002,0-0.002,0c-3.389,0-4.681,2.237-4.809,2.473l-0.088-0.048
		c0.235-0.896,1.141-3.29,2.516-3.661c0.177-0.047,0.313-0.188,0.356-0.365c0.237-0.986,0.856-2.437,1.488-2.573
		c0.347-0.082,0.754,0.328,0.979,0.604c0.046,0.089,1.139,2.2,1.987,3.33c0.091,0.122,0.234,0.196,0.387,0.2
		c0.003,0,0.087,0.007,0.2,0.023c0.063,0.028,0.131,0.047,0.204,0.047c0.011,0,0.021,0,0.032-0.001c0.001,0,0.003-0.001,0.004-0.001
		c0.418,0.09,1.068,0.305,1.696,0.833C24.176,30.69,23.47,30.937,23.071,31.146z M24.541,8.98c-0.744,0.748-1.11,1.558-1.089,2.408
		c0.032,1.237,0.887,2.145,1.253,2.477c0.32,0.291-0.17,1.702-0.405,2.38c-0.136,0.393-0.257,0.747-0.314,1.01
		c-0.031,0.144-0.089,0.325-0.162,0.556c-0.435,1.386-1.31,4.18-1.039,10.411c-0.665-1.065-1.326-2.334-1.373-2.41
		c-0.656-0.841-1.339-1.193-2.03-1.043c-1.279,0.277-1.951,2.231-2.178,3.046c-0.046,0.019-0.088,0.045-0.133,0.066
		c-0.205-0.645-0.408-1.245-0.612-1.802c0.001-0.008,0.006-0.014,0.008-0.021c0.355-2.332,1.534-8.662,2.702-9.936
		c0.723-0.789,0.866-2.096,1.017-3.48c0.213-1.948,0.434-3.963,2.127-4.958c0.137-0.08,0.227-0.22,0.244-0.377
		c0.003-0.029,0.32-2.771,1.73-4.023c-0.167,0.793-0.194,1.786,0.471,2.45C25.555,6.529,26.138,7.377,24.541,8.98z M42.433,40.013
		l-1.803-1.038v-1.688h0.609c0.276,0,0.5-0.224,0.5-0.5v-0.936h0.693V40.013z"/>
</g>
</svg>
