<?xml version="1.0" encoding="utf-8"?>
<!-- Generator: Adobe Illustrator 16.0.0, SVG Export Plug-In . SVG Version: 6.00 Build 0)  -->
<!DOCTYPE svg PUBLIC "-//W3C//DTD SVG 1.1//EN" "http://www.w3.org/Graphics/SVG/1.1/DTD/svg11.dtd">
<svg version="1.1" id="Layer_1" xmlns="http://www.w3.org/2000/svg" xmlns:xlink="http://www.w3.org/1999/xlink" x="0px" y="0px"
	 width="48px" height="48px" viewBox="0 0 48 48" enable-background="new 0 0 48 48" xml:space="preserve">
<g>
	<path fill="#414042" d="M2.131,42.576c0.074,0,0.149-0.017,0.22-0.052l1.773-0.873c0.248-0.122,0.35-0.421,0.228-0.669
		c-0.122-0.247-0.422-0.35-0.669-0.228L1.91,41.628c-0.248,0.122-0.35,0.421-0.228,0.669C1.769,42.474,1.947,42.576,2.131,42.576z"
		/>
	<path fill="#414042" d="M15.224,36.021c0.074,0,0.149-0.017,0.22-0.052l1.888-0.93c0.248-0.122,0.35-0.422,0.228-0.669
		c-0.123-0.248-0.422-0.35-0.669-0.228l-1.888,0.93c-0.248,0.122-0.35,0.422-0.228,0.669C14.862,35.919,15.04,36.021,15.224,36.021z
		"/>
	<path fill="#414042" d="M29.526,29.047c0.074,0,0.149-0.017,0.221-0.051l1.876-0.922c0.248-0.122,0.35-0.422,0.229-0.67
		c-0.123-0.248-0.421-0.348-0.67-0.229l-1.876,0.922c-0.248,0.122-0.35,0.422-0.229,0.67C29.165,28.944,29.342,29.047,29.526,29.047
		z"/>
	<path fill="#414042" d="M32.473,37.751c-0.165-0.225-0.479-0.271-0.699-0.107l-1.709,1.254c-0.223,0.163-0.271,0.477-0.107,0.699
		c0.099,0.134,0.25,0.204,0.403,0.204c0.104,0,0.207-0.031,0.296-0.097l1.709-1.254C32.588,38.287,32.636,37.974,32.473,37.751z"/>
	<path fill="#414042" d="M42.932,31.599l1.598-1.172c0.223-0.163,0.271-0.477,0.107-0.699c-0.163-0.224-0.479-0.27-0.699-0.107
		l-1.598,1.172c-0.223,0.163-0.271,0.477-0.107,0.699c0.098,0.134,0.25,0.204,0.403,0.204
		C42.739,31.695,42.843,31.664,42.932,31.599z"/>
	<path fill="#414042" d="M46.089,11.996h-1.59V10.51c0.005,0,0.01,0.002,0.015,0.002c0.215,0,0.414-0.14,0.479-0.356
		c0.08-0.264-0.07-0.543-0.335-0.623c-0.038-0.011-3.808-1.165-5.163-3.349c-0.083-0.134-0.224-0.22-0.381-0.234
		c-0.159-0.02-0.311,0.046-0.416,0.164c-0.805,0.895-3.28,3.17-4.988,3.07c-0.25-0.018-0.515,0.188-0.534,0.463
		c-0.02,0.275,0.188,0.515,0.464,0.534c0.137,0.011,0.276-0.013,0.415-0.022l0.001,1.839l-1.881,0.002
		c-0.132,0-0.26,0.053-0.353,0.147c-0.094,0.094-0.146,0.221-0.146,0.354l0.002,2.036l-1.112-0.49
		c-0.155-0.069-0.333-0.053-0.475,0.039c-0.142,0.092-0.227,0.25-0.227,0.419v1.213l-1.597-0.695l-0.005-1.621
		c-0.001-0.199-0.119-0.379-0.303-0.458l-2.77-1.19c-0.153-0.065-0.331-0.05-0.472,0.042c-0.14,0.092-0.225,0.249-0.226,0.417
		l-0.003,1.167l-1.617-0.704l0.006-1.583c0.001-0.201-0.118-0.382-0.302-0.461l-2.218-0.954V6.871c0-0.276-0.224-0.5-0.5-0.5h-1.473
		c-0.276,0-0.5,0.224-0.5,0.5v1.151h-0.547V6.871c0-0.276-0.224-0.5-0.5-0.5h-1.523c-0.276,0-0.5,0.224-0.5,0.5v1.151h-0.535V6.871
		c0-0.276-0.224-0.5-0.5-0.5h-1.446c-0.276,0-0.5,0.224-0.5,0.5v7.011c0,0.184,0.101,0.354,0.264,0.44l19.593,10.516v0.073
		l-6.153,3.019c-0.171,0.085-0.279,0.259-0.279,0.449v1.976l-5.27,2.621v-1.519c0-0.173-0.089-0.333-0.236-0.425
		c-0.146-0.091-0.33-0.101-0.485-0.024l-6.641,3.264c-0.171,0.085-0.279,0.259-0.279,0.449v1.974l-5.24,2.573v-1.523
		c0-0.174-0.09-0.335-0.238-0.426c-0.148-0.09-0.332-0.1-0.487-0.021l-4.628,2.326c-0.247,0.124-0.346,0.424-0.222,0.671
		C1.62,40.47,1.796,40.57,1.979,40.57c0.075,0,0.152-0.017,0.224-0.054l3.903-1.962v1.516c0,0.173,0.089,0.333,0.236,0.425
		c0.146,0.09,0.331,0.101,0.484,0.024l6.24-3.064c0.171-0.084,0.28-0.259,0.28-0.449v-1.974l5.641-2.772v1.523
		c0,0.173,0.089,0.334,0.237,0.425c0.146,0.09,0.33,0.1,0.486,0.022l6.27-3.119c0.17-0.084,0.277-0.258,0.277-0.447V28.69
		l7.931-3.893l0.108,2.426L1.682,44.246c-0.245,0.128-0.339,0.43-0.212,0.675c0.089,0.171,0.264,0.269,0.444,0.269
		c0.078,0,0.157-0.019,0.231-0.057l32.896-17.17c0.013-0.007,0.021-0.019,0.033-0.026l6.787,0.022l-2.037,1.493
		c-0.13,0.096-0.206,0.248-0.204,0.41l0.031,2.271l-4.793,3.55l-0.026-1.597c-0.003-0.187-0.109-0.355-0.276-0.438
		c-0.168-0.082-0.367-0.067-0.518,0.043l-6.308,4.58c-0.132,0.096-0.209,0.249-0.206,0.412l0.036,2.281l-4.603,3.396l-0.027-1.6
		c-0.003-0.188-0.111-0.357-0.28-0.44c-0.169-0.083-0.37-0.065-0.52,0.049l-4.264,3.186c-0.221,0.165-0.267,0.479-0.101,0.699
		c0.098,0.132,0.249,0.201,0.401,0.201c0.104,0,0.209-0.032,0.299-0.1l3.481-2.601l0.026,1.592c0.003,0.187,0.11,0.356,0.278,0.439
		c0.167,0.081,0.367,0.064,0.519-0.046l5.591-4.123c0.13-0.096,0.206-0.249,0.203-0.41l-0.036-2.279l5.32-3.862l0.026,1.607
		c0.003,0.187,0.11,0.356,0.278,0.439c0.169,0.083,0.368,0.064,0.52-0.047l5.78-4.281c0.129-0.096,0.204-0.247,0.202-0.408
		l-0.031-2.27l2.964-2.172c0.102-0.033,0.184-0.096,0.245-0.18l1.756-1.287v5.602L31.941,45.605
		c-0.195,0.195-0.197,0.512-0.002,0.708c0.098,0.098,0.226,0.147,0.354,0.147c0.127,0,0.255-0.048,0.353-0.146l13.795-13.683
		c0.094-0.095,0.147-0.222,0.147-0.355V12.496C46.589,12.22,46.365,11.996,46.089,11.996z M39.013,7.228
		c1.229,1.525,3.311,2.497,4.486,2.955v1.813h-0.085c-0.276,0-0.5,0.224-0.5,0.5v0.918h-1.839v-0.918
		c0-0.237-0.168-0.426-0.39-0.478V9.854c0-0.276-0.224-0.5-0.5-0.5h-2.045c-0.276,0-0.5,0.224-0.5,0.5v2.166
		c-0.218,0.054-0.382,0.242-0.382,0.476v0.939h-1.86v-0.939c0-0.133-0.053-0.26-0.146-0.354c-0.056-0.056-0.124-0.091-0.197-0.115
		l-0.001-2.063C36.683,9.417,38.268,7.969,39.013,7.228z M38.641,11.979v-1.624h1.045v1.624H38.641z M34.398,12.997v0.939
		c0,0.276,0.224,0.5,0.5,0.5h2.86c0.276,0,0.5-0.224,0.5-0.5v-0.939h1.816v0.918c0,0.276,0.224,0.5,0.5,0.5h2.839
		c0.276,0,0.5-0.224,0.5-0.5v-0.918h1.675v2.522h-12.91l-0.003-2.52L34.398,12.997z M25.239,16.141l-4.355-2.14
		c-0.155-0.076-0.338-0.067-0.485,0.024c-0.147,0.091-0.236,0.251-0.236,0.424v0.718l-3.111-1.548v-1.188
		c0-0.005-0.004-0.009-0.004-0.013l2.706-0.01l11.927,5.188l0.002,1.709l-2.347-1.18c-0.155-0.077-0.339-0.071-0.487,0.021
		c-0.147,0.091-0.237,0.252-0.237,0.426v0.724l-3.093-1.519V16.59C25.519,16.399,25.41,16.225,25.239,16.141z M12.833,9.022h6.524
		v0.959c0,0.014,0,0.027,0,0.041v1.388l-1.437,0.005v-1.187c0-0.577-0.456-1.047-1.016-1.047h-0.309
		c-0.559,0-1.014,0.47-1.014,1.047v1.17l-2.75-1.352V9.022z M16.921,11.419l-0.334,0.001l0.01-1.238l0.324,0.047V11.419z
		 M30.863,15.27l0.815,0.359l0.001,0.878l-0.816-0.355V15.27z M25.49,12.97l1.772,0.762l0.003,0.854l-1.778-0.773L25.49,12.97z
		 M21.877,11.418l-0.003,0.822l-1.517-0.66v-0.815L21.877,11.418z M18.885,7.371h0.473v0.651h-0.473V7.371z M15.814,7.371h0.523
		v0.651h-0.523V7.371z M13.279,7.371v0.651h-0.446V7.371H13.279z M12.833,13.583v-2.421l3.219,1.582v1.187
		c0,0.19,0.107,0.363,0.277,0.448l4.111,2.046c0.156,0.077,0.339,0.069,0.486-0.022c0.147-0.091,0.237-0.252,0.237-0.425v-0.723
		l3.355,1.648v1.188c0,0.191,0.108,0.365,0.28,0.449l4.092,2.01c0.156,0.076,0.339,0.067,0.485-0.024s0.235-0.251,0.235-0.424
		v-0.715l2.072,1.042l0.001,0.398l-0.827-0.423c-0.246-0.125-0.546-0.029-0.673,0.218c-0.126,0.246-0.028,0.547,0.218,0.673
		l1.283,0.656l0.002,1.753L12.833,13.583z M40.057,26.953l-3.344-0.011v-4.956c0-0.703,0.524-1.275,1.17-1.275h1.003
		c0.646,0,1.171,0.572,1.171,1.275V26.953z M43.219,26.964l-2.162-0.007v-4.971c0-1.255-0.974-2.275-2.171-2.275h-1.003
		c-1.196,0-2.17,1.021-2.17,2.275v4.952l-0.43-0.001l-0.132-2.946c-0.007-0.168-0.099-0.322-0.244-0.408s-0.324-0.093-0.475-0.019
		l-1.744,0.856l-0.008-7.101c0.003-0.03,0.003-0.059,0-0.088l-0.001-0.713h12.909v8.709L43.219,26.964z"/>
	<path fill="#414042" d="M23.602,16.799l-1.091-0.537c-0.246-0.121-0.546-0.02-0.669,0.228c-0.122,0.248-0.02,0.547,0.228,0.669
		l1.091,0.537c0.071,0.035,0.146,0.051,0.22,0.051c0.185,0,0.362-0.103,0.449-0.279C23.951,17.221,23.85,16.921,23.602,16.799z"/>
	<path fill="#414042" d="M15.029,12.556l-0.975-0.48c-0.248-0.122-0.547-0.02-0.669,0.227c-0.123,0.248-0.021,0.547,0.227,0.669
		l0.975,0.48c0.071,0.035,0.146,0.052,0.221,0.052c0.185,0,0.362-0.103,0.449-0.279C15.378,12.978,15.276,12.678,15.029,12.556z"/>
	<path fill="#414042" d="M39.022,3.867c0.276,0,0.5-0.224,0.5-0.5V2.057c0-0.276-0.224-0.5-0.5-0.5s-0.5,0.224-0.5,0.5v1.311
		C38.522,3.644,38.746,3.867,39.022,3.867z"/>
	<path fill="#414042" d="M33.639,8.373C35.853,8.529,38.087,6.299,39,5.258c1.914,2.388,5.75,3.557,5.924,3.609
		c0.048,0.014,0.097,0.021,0.144,0.021c0.215,0,0.414-0.14,0.479-0.356c0.079-0.265-0.07-0.543-0.335-0.623
		c-0.042-0.013-4.241-1.295-5.755-3.734c-0.087-0.14-0.236-0.228-0.4-0.236c-0.158,0.003-0.321,0.065-0.421,0.195
		c-0.026,0.034-2.67,3.379-4.926,3.24c-0.25-0.023-0.515,0.188-0.534,0.463C33.155,8.114,33.363,8.354,33.639,8.373z"/>
</g>
</svg>
