<?xml version="1.0" encoding="utf-8"?>
<!-- Generator: Adobe Illustrator 16.0.0, SVG Export Plug-In . SVG Version: 6.00 Build 0)  -->
<!DOCTYPE svg PUBLIC "-//W3C//DTD SVG 1.1//EN" "http://www.w3.org/Graphics/SVG/1.1/DTD/svg11.dtd">
<svg version="1.1" id="Layer_1" xmlns="http://www.w3.org/2000/svg" xmlns:xlink="http://www.w3.org/1999/xlink" x="0px" y="0px"
	 width="48px" height="48px" viewBox="0 0 48 48" enable-background="new 0 0 48 48" xml:space="preserve">
<path fill="#414042" d="M47.375,33.384l-1.611-3.972c-0.072-0.18-0.246-0.296-0.439-0.296h-2.729l-1.164-2.87
	c-0.072-0.181-0.246-0.297-0.439-0.297h-2.228L37.5,23.334c-0.078-0.164-0.245-0.268-0.427-0.268h-1.758l-1.174-2.433
	c-0.079-0.164-0.244-0.268-0.428-0.268h-1.546l-0.911-2.204c-0.073-0.178-0.247-0.293-0.438-0.293h-2.919v-1.511h0.475
	c0.262,0,0.475-0.212,0.475-0.475c0-0.262-0.213-0.475-0.475-0.475h-0.475v-0.951c0-0.262-0.213-0.475-0.475-0.475h-6.846
	c-0.263,0-0.475,0.212-0.475,0.475v0.951h-0.475c-0.262,0-0.475,0.212-0.475,0.475c0,0.263,0.212,0.475,0.475,0.475h0.475v1.511
	h-2.865c-0.188,0-0.359,0.112-0.435,0.285l-0.963,2.212h-1.571c-0.183,0-0.35,0.105-0.429,0.271l-1.156,2.431h-1.896
	c-0.189,0-0.36,0.112-0.435,0.286l-1.129,2.597H7.017c-0.193,0-0.367,0.116-0.439,0.296l-1.171,2.871H2.686
	c-0.193,0-0.367,0.116-0.439,0.295l-1.62,3.972c-0.06,0.146-0.042,0.313,0.045,0.444c0.088,0.131,0.236,0.209,0.394,0.209h45.869
	c0.157,0,0.306-0.078,0.394-0.209C47.418,33.696,47.435,33.529,47.375,33.384z M41.588,29.158h-13.8l-0.151-2.21h10.829
	c0.074,0,0.142-0.02,0.204-0.05h2.002L41.588,29.158z M26.13,18.817l0.037,0.543h-4.429l0.055-0.543H26.13z M24.786,16.356v1.511
	h-1.354v-1.511H24.786z M21.031,26.344l0.081-0.797h5.478l0.055,0.797H21.031z M26.286,21.107h-4.725l0.081-0.797h4.59
	L26.286,21.107z M21.465,22.056h4.886l0.054,0.797h-5.021L21.465,22.056z M21.288,23.803h5.183l0.054,0.795h-5.316L21.288,23.803z
	 M20.935,27.293h5.774l0.055,0.798h-5.91L20.935,27.293z M26.828,29.04l0.055,0.795h-6.205l0.081-0.795H26.828z M20.582,30.784
	h6.366l0.055,0.798h-6.501L20.582,30.784z M20.405,32.531h6.662l0.038,0.556h-6.756L20.405,32.531z M37.733,25.999H27.572
	l-0.132-1.928h7.809c0.077,0,0.147-0.023,0.212-0.056h1.314L37.733,25.999z M34.289,23.122h-6.913l-0.121-1.765h4.664
	c0.068,0,0.133-0.016,0.192-0.042h1.306L34.289,23.122z M31.158,20.408H27.19l-0.108-1.591h3.419L31.158,20.408z M26.95,17.868
	h-1.215v-1.511h1.215V17.868z M21.053,14.931h5.897v0.476h-5.897V14.931z M21.053,16.356h1.429v1.511h-1.059
	c-0.004,0-0.007-0.003-0.011-0.003c-0.01-0.001-0.019,0.003-0.029,0.003h-0.33V16.356z M17.549,18.817h3.29l-0.161,1.591h-3.821
	L17.549,18.817z M14.569,21.314h1.457c0.059,0.026,0.124,0.042,0.192,0.042h4.364l-0.179,1.765h-6.693L14.569,21.314z M11.1,24.016
	h1.672c0.065,0.033,0.135,0.056,0.212,0.056h7.322l-0.195,1.928h-9.874L11.1,24.016z M7.336,26.898h1.996
	c0.063,0.03,0.13,0.05,0.204,0.05h10.48l-0.224,2.21H6.415L7.336,26.898z M3.005,30.065h2.721c0.042,0,0.077-0.024,0.117-0.036
	c0.073,0.045,0.153,0.078,0.245,0.078h13.608l-0.302,2.979H1.772L3.005,30.065z M28.057,33.087l-0.204-2.979H42.07
	c0.07,0,0.136-0.018,0.196-0.045c0.003,0,0.006,0.003,0.009,0.003h2.729l1.227,3.021H28.057z"/>
</svg>
