<?xml version="1.0" encoding="utf-8"?>
<!-- Generator: Adobe Illustrator 16.0.0, SVG Export Plug-In . SVG Version: 6.00 Build 0)  -->
<!DOCTYPE svg PUBLIC "-//W3C//DTD SVG 1.1//EN" "http://www.w3.org/Graphics/SVG/1.1/DTD/svg11.dtd">
<svg version="1.1" id="Layer_1" xmlns="http://www.w3.org/2000/svg" xmlns:xlink="http://www.w3.org/1999/xlink" x="0px" y="0px"
	 width="48px" height="48px" viewBox="0 0 48 48" enable-background="new 0 0 48 48" xml:space="preserve">
<g>
	<path fill="#414042" d="M16.972,19.849c0.001,0,0.001,0,0.002,0c0.275,0,0.499-0.222,0.5-0.498l0.003-0.581
		c0.001-0.276-0.221-0.501-0.498-0.502c-0.001,0-0.001,0-0.002,0c-0.275,0-0.499,0.222-0.5,0.498l-0.003,0.581
		C16.473,19.623,16.695,19.848,16.972,19.849z"/>
	<path fill="#414042" d="M31.195,19.849c0.002,0,0.002,0,0.004,0c0.275-0.002,0.498-0.227,0.496-0.503l-0.004-0.581
		c-0.002-0.275-0.225-0.497-0.5-0.497h-0.002c-0.277,0.002-0.5,0.227-0.498,0.503l0.004,0.581
		C30.697,19.627,30.922,19.849,31.195,19.849z"/>
	<path fill="#414042" d="M17.741,26.652c0,0-0.156-0.083-0.429-0.189c-0.116-0.045-0.247-0.045-0.363,0
		c-0.255,0.1-0.408,0.179-0.408,0.18c-0.223,0.104-0.599,0.442-0.599,1.05v1.834c0,0.276,0.224,0.5,0.5,0.5h1.378
		c0.276,0,0.5-0.224,0.5-0.5v-1.834C18.32,27.083,17.942,26.745,17.741,26.652z M17.32,29.026h-0.378v-1.334
		c0-0.114,0.039-0.151,0.044-0.155c0.008-0.004,0.058-0.029,0.145-0.067c0.087,0.038,0.136,0.063,0.138,0.063
		c0.012,0.008,0.051,0.045,0.051,0.159V29.026z"/>
	<path fill="#414042" d="M13.269,30.286c0.276,0,0.5-0.224,0.5-0.5v-1.334c0-0.045,0.005-0.074,0-0.08
		c0.024-0.017,0.061-0.038,0.106-0.063c0.242-0.134,0.331-0.438,0.197-0.68c-0.133-0.241-0.438-0.331-0.679-0.197
		c-0.151,0.084-0.243,0.151-0.242,0.151c-0.186,0.127-0.382,0.421-0.382,0.869v1.334C12.769,30.063,12.993,30.286,13.269,30.286z"/>
	<path fill="#414042" d="M31.65,26.652c0,0-0.156-0.083-0.43-0.189c-0.117-0.045-0.246-0.045-0.363,0
		c-0.256,0.1-0.408,0.179-0.408,0.18c-0.223,0.104-0.6,0.442-0.6,1.05v1.834c0,0.276,0.225,0.5,0.5,0.5h1.379
		c0.275,0,0.5-0.224,0.5-0.5v-1.834C32.229,27.083,31.85,26.745,31.65,26.652z M31.229,29.026H30.85v-1.334
		c0-0.114,0.039-0.151,0.043-0.154c0.008-0.004,0.059-0.03,0.146-0.068c0.086,0.037,0.135,0.063,0.137,0.063
		c0.014,0.008,0.053,0.045,0.053,0.159V29.026z"/>
	<path fill="#414042" d="M34.303,28.309c0.047,0.024,0.082,0.047,0.098,0.054c0.004,0.017,0.01,0.045,0.01,0.09v1.334
		c0,0.276,0.223,0.5,0.5,0.5c0.275,0,0.5-0.224,0.5-0.5v-1.334c0-0.451-0.199-0.746-0.363-0.855c0,0-0.094-0.073-0.262-0.165
		c-0.242-0.132-0.545-0.045-0.68,0.197C33.973,27.871,34.063,28.175,34.303,28.309z"/>
	<path fill="#414042" d="M24.086,11.757c0.276,0,0.5-0.224,0.5-0.5V9.67c0-0.276-0.224-0.5-0.5-0.5c-0.276,0-0.5,0.224-0.5,0.5
		v1.587C23.586,11.534,23.81,11.757,24.086,11.757z"/>
	<path fill="#414042" d="M3.971,16.432c0.276,0,0.5-0.224,0.5-0.5v-0.327c0-0.276-0.224-0.5-0.5-0.5s-0.5,0.224-0.5,0.5v0.327
		C3.471,16.208,3.695,16.432,3.971,16.432z"/>
	<path fill="#414042" d="M8.476,20.504c0.276,0,0.5-0.224,0.5-0.5v-0.477c0-0.276-0.224-0.5-0.5-0.5s-0.5,0.224-0.5,0.5v0.477
		C7.976,20.281,8.2,20.504,8.476,20.504z"/>
	<path fill="#414042" d="M44.244,16.432c0.277,0,0.5-0.224,0.5-0.5v-0.327c0-0.276-0.223-0.5-0.5-0.5c-0.275,0-0.5,0.224-0.5,0.5
		v0.327C43.744,16.208,43.969,16.432,44.244,16.432z"/>
	<path fill="#414042" d="M39.74,20.504c0.277,0,0.5-0.224,0.5-0.5v-0.477c0-0.276-0.223-0.5-0.5-0.5c-0.275,0-0.5,0.224-0.5,0.5
		v0.477C39.24,20.281,39.465,20.504,39.74,20.504z"/>
	<path fill="#414042" d="M46.611,35.272h-0.558l-0.184-4.89c0.12-0.092,0.202-0.229,0.202-0.392c0-0.176-0.096-0.322-0.232-0.412
		l-0.169-4.489c0.112-0.091,0.188-0.225,0.188-0.381c0-0.169-0.089-0.312-0.218-0.402l-0.159-4.222
		c0.047-0.076,0.08-0.16,0.08-0.255c0-0.136-0.055-0.258-0.143-0.349v-0.521c0.088-0.09,0.143-0.212,0.143-0.349
		c0-0.038-0.014-0.07-0.021-0.105c0.062-0.19,0.065-0.365,0.045-0.499c-0.09-0.634-0.699-1.055-0.736-1.078
		c-0.109-0.085-0.197-0.184-0.223-0.214c-0.193-0.218-0.584-0.221-0.77,0.002c0,0.001-0.098,0.117-0.186,0.188
		c-0.07,0.046-0.68,0.467-0.771,1.101c-0.019,0.132-0.014,0.303,0.044,0.491c-0.009,0.038-0.022,0.073-0.022,0.113
		c0,0.139,0.057,0.265,0.148,0.355v0.508c-0.092,0.091-0.148,0.216-0.148,0.355c0,0.114,0.045,0.213,0.108,0.297l-0.095,4.192
		c-0.118,0.091-0.199,0.228-0.199,0.39c0,0.154,0.073,0.286,0.182,0.377l-0.101,4.497c-0.134,0.09-0.228,0.235-0.228,0.408
		c0,0.165,0.086,0.305,0.209,0.396l-0.11,4.886h-1.468l-0.102-2.859c0.071-0.087,0.119-0.193,0.119-0.314
		c0-0.137-0.055-0.259-0.144-0.35l-0.126-3.54c0.064-0.085,0.109-0.186,0.109-0.3c0-0.129-0.052-0.244-0.132-0.333L40.8,23.48
		c0.034-0.068,0.058-0.142,0.058-0.223c0-0.092-0.031-0.173-0.074-0.247v-0.421c0.068-0.085,0.115-0.189,0.115-0.307
		c0-0.036-0.014-0.067-0.021-0.101c0.04-0.149,0.055-0.289,0.038-0.396c-0.076-0.54-0.563-0.887-0.629-0.93
		c-0.08-0.061-0.141-0.132-0.162-0.155c-0.195-0.217-0.582-0.219-0.77,0.003c-0.02,0.023-0.084,0.096-0.127,0.13
		c-0.098,0.064-0.584,0.412-0.66,0.952c-0.015,0.105-0.001,0.243,0.037,0.389c-0.008,0.036-0.021,0.069-0.021,0.107
		c0,0.121,0.048,0.227,0.119,0.313v0.414c-0.044,0.074-0.076,0.156-0.076,0.249c0,0.097,0.035,0.182,0.082,0.258l-0.087,4.06
		c-0.081,0.089-0.134,0.204-0.134,0.334c0,0.12,0.048,0.227,0.119,0.313l-0.075,3.519c-0.093,0.091-0.151,0.217-0.151,0.357
		c0,0.132,0.053,0.25,0.136,0.339l-0.061,2.835h-1.925V25.056c0-0.254-0.189-0.468-0.443-0.497l-2.713-0.308h-0.119v-1.25
		c0.343-1.163-0.736-2.018-1.139-2.331c-0.297-0.231-0.527-0.511-0.529-0.514c-0.189-0.231-0.592-0.231-0.781-0.001
		c-0.002,0.003-0.236,0.283-0.57,0.545c-0.343,0.267-1.303,1.024-1.158,2.063c-0.074-0.086-0.178-0.147-0.295-0.167
		c1.678-2.893,1.146-5.522-1.561-7.645c-1.547-1.213-2.74-2.654-2.752-2.668c-0.19-0.23-0.582-0.231-0.772,0
		c-0.012,0.014-1.204,1.455-2.75,2.668c-2.709,2.122-3.24,4.751-1.561,7.645c-0.118,0.02-0.222,0.081-0.296,0.167
		c0.145-1.04-0.819-1.8-1.196-2.093c-0.296-0.232-0.528-0.511-0.531-0.514c-0.189-0.23-0.592-0.23-0.781,0
		c-0.002,0.003-0.234,0.283-0.565,0.542c-0.369,0.287-1.446,1.138-1.103,2.3v1.257h-0.103c-0.006,0-0.011-0.003-0.017-0.003
		s-0.011,0.003-0.017,0.003h-0.04l-2.657,0.304c-0.253,0.029-0.443,0.243-0.443,0.497v10.217H9.761L9.7,32.438
		c0.083-0.089,0.136-0.207,0.136-0.339c0-0.141-0.058-0.267-0.151-0.357L9.61,28.22c0.07-0.086,0.117-0.191,0.117-0.311
		c0-0.128-0.052-0.242-0.131-0.331l-0.087-4.065c0.046-0.076,0.08-0.16,0.08-0.255c0-0.092-0.032-0.173-0.075-0.248l0-0.417
		c0.07-0.086,0.118-0.192,0.118-0.312c0-0.038-0.014-0.07-0.021-0.105c0.038-0.147,0.052-0.285,0.037-0.391
		c-0.077-0.54-0.563-0.887-0.63-0.93c-0.083-0.064-0.147-0.139-0.164-0.158c-0.192-0.219-0.577-0.218-0.765,0.004
		c-0.02,0.024-0.088,0.098-0.128,0.131c-0.097,0.064-0.585,0.412-0.662,0.953c-0.015,0.107,0,0.247,0.04,0.396
		c-0.007,0.033-0.02,0.064-0.02,0.099c0,0.118,0.046,0.221,0.114,0.306v0.423c-0.043,0.074-0.074,0.155-0.074,0.247
		c0,0.082,0.024,0.155,0.058,0.223l-0.146,4.093c-0.082,0.089-0.134,0.205-0.134,0.336c0,0.115,0.045,0.217,0.111,0.302
		l-0.126,3.537c-0.089,0.091-0.144,0.214-0.144,0.351c0,0.121,0.048,0.229,0.12,0.314l-0.103,2.859H5.527l-0.109-4.886
		c0.123-0.092,0.208-0.23,0.208-0.396c0-0.173-0.093-0.317-0.226-0.407l-0.101-4.498c0.108-0.092,0.181-0.224,0.181-0.377
		c0-0.161-0.081-0.297-0.199-0.389l-0.094-4.192c0.064-0.084,0.109-0.184,0.109-0.298c0-0.14-0.058-0.265-0.149-0.356v-0.507
		c0.092-0.091,0.149-0.216,0.149-0.356c0-0.041-0.014-0.077-0.023-0.114c0.058-0.187,0.063-0.358,0.044-0.49
		c-0.091-0.634-0.702-1.055-0.74-1.078c-0.121-0.094-0.217-0.21-0.218-0.211c-0.191-0.228-0.585-0.228-0.774,0.001
		C3.584,16.72,3.488,16.835,3.4,16.906c-0.069,0.046-0.679,0.467-0.771,1.101c-0.019,0.133-0.015,0.308,0.046,0.498
		c-0.008,0.035-0.021,0.069-0.021,0.106c0,0.136,0.055,0.258,0.143,0.348v0.522c-0.087,0.09-0.143,0.212-0.143,0.348
		c0,0.095,0.033,0.178,0.079,0.254l-0.159,4.224c-0.127,0.09-0.216,0.232-0.216,0.401c0,0.156,0.076,0.289,0.187,0.38L2.376,29.58
		c-0.137,0.089-0.232,0.235-0.232,0.411c0,0.162,0.083,0.3,0.202,0.392l-0.184,4.89H1.391c-0.276,0-0.5,0.224-0.5,0.5v2.574
		c0,0.276,0.224,0.5,0.5,0.5h45.22c0.275,0,0.5-0.224,0.5-0.5v-2.574C47.111,35.496,46.887,35.272,46.611,35.272z M44.42,19.111
		v0.219h-0.35v-0.219H44.42z M44.026,20.33h0.465l0.146,3.879h-0.698L44.026,20.33z M44.674,25.208l0.161,4.283h-1.016l0.097-4.283
		H44.674z M44.244,17.724c0.006,0.005,0.012,0.009,0.018,0.014c0.117,0.08,0.277,0.245,0.32,0.373h-0.676
		C43.948,17.985,44.103,17.825,44.244,17.724z M43.797,30.491h1.076l0.18,4.781h-1.363L43.797,30.491z M39.809,23.757l0.131,3.652
		h-0.313l0.078-3.652H39.809z M39.604,28.409h0.37l0.114,3.189h-0.553L39.604,28.409z M39.742,21.697
		c0.031,0.025,0.053,0.055,0.078,0.084h-0.161C39.686,21.753,39.709,21.726,39.742,21.697z M39.515,32.599h0.61l0.096,2.674h-0.764
		L39.515,32.599z M35.531,35.272H35.41v-2.119c0-0.696-0.359-0.982-0.406-1.015c0,0-0.117-0.095-0.324-0.215
		c-0.238-0.138-0.545-0.059-0.684,0.182c-0.139,0.238-0.059,0.545,0.182,0.684c0.107,0.063,0.178,0.114,0.182,0.114c0,0,0,0,0-0.001
		c0.01,0.013,0.051,0.082,0.051,0.251v2.119h-0.535v-9.961l1.656,0.19V35.272z M32.225,35.272v-2.309c0-0.815-0.5-1.132-0.539-1.155
		c0,0-0.156-0.102-0.432-0.232c-0.135-0.064-0.293-0.064-0.428,0c-0.264,0.124-0.418,0.223-0.416,0.223
		c-0.064,0.037-0.557,0.355-0.557,1.165v2.309h-0.654V25.251l0.427-0.001c0.001,0,0.002,0.001,0.003,0.001s0.002-0.001,0.003-0.001
		l3.111-0.002c0.005,0,0.008,0.003,0.013,0.003s0.008-0.003,0.013-0.003h0.106v10.024H32.225z M31.225,35.272h-0.371v-2.309
		c0-0.231,0.082-0.313,0.08-0.313c0.008-0.005,0.043-0.027,0.105-0.062c0.061,0.032,0.092,0.052,0.094,0.052
		c0.004,0.004,0.092,0.082,0.092,0.323V35.272z M27.143,35.272v-6.5c0-2.051-1.439-2.747-1.477-2.764
		c-0.023-0.012-0.576-0.306-1.53-0.672c-0.115-0.045-0.243-0.045-0.358,0c-0.955,0.366-1.507,0.66-1.506,0.66
		c-0.062,0.028-1.501,0.725-1.501,2.775v6.5h-0.8V24.751v-1.163h0.328h7.575h0.326v1.163v10.521H27.143z M25.311,35.272v-1.918
		c0-0.65-0.523-0.982-0.743-1.04c0,0-0.156-0.083-0.43-0.189c-0.116-0.045-0.247-0.045-0.363,0
		c-0.247,0.097-0.398,0.173-0.399,0.175c-0.282,0.124-0.752,0.494-0.752,1.107v1.865H21.77v-6.5c0-1.394,0.892-1.853,0.948-1.881
		c0.005-0.003,0.457-0.242,1.238-0.552c0.781,0.31,1.235,0.55,1.256,0.561c0.039,0.02,0.93,0.479,0.93,1.872v6.5H25.311z
		 M24.311,35.272h-0.687v-1.865c0-0.114,0.161-0.194,0.187-0.207c0.007-0.004,0.059-0.03,0.146-0.068
		c0.096,0.042,0.167,0.076,0.232,0.104c0.001,0,0.122,0.049,0.122,0.119V35.272z M18.317,35.272v-2.309
		c0-0.815-0.498-1.132-0.54-1.156c0,0-0.158-0.102-0.434-0.231c-0.136-0.064-0.293-0.064-0.427,0
		C16.654,31.7,16.5,31.799,16.5,31.799c-0.063,0.037-0.555,0.355-0.555,1.165v2.309h-0.649V25.251h3.675v10.021H18.317z
		 M17.024,32.65c0.007-0.005,0.044-0.027,0.107-0.062c0.059,0.032,0.092,0.052,0.093,0.052c0.004,0.003,0.092,0.082,0.092,0.323
		v2.309h-0.372v-2.309C16.945,32.732,17.027,32.65,17.024,32.65L17.024,32.65z M30.129,24.251v-0.794h2.127v0.794H30.129z
		 M30.891,21.458c0.111-0.087,0.215-0.179,0.307-0.265c0.098,0.094,0.213,0.195,0.342,0.295c0.367,0.286,0.723,0.615,0.782,0.97
		h-2.25C30.131,22.103,30.492,21.768,30.891,21.458z M21.565,15.738c1.11-0.871,2.028-1.83,2.519-2.376
		c0.492,0.546,1.41,1.505,2.521,2.376c2.465,1.932,2.779,4.177,0.99,6.851h-7.02C18.786,19.914,19.099,17.668,21.565,15.738z
		 M16.67,21.457c0.111-0.087,0.214-0.178,0.305-0.264c0.1,0.094,0.215,0.196,0.344,0.296c0.367,0.286,0.722,0.615,0.779,0.969H15.85
		C15.909,22.102,16.271,21.767,16.67,21.457z M15.915,23.458h2.127v0.795l-2.127,0.001V23.458z M12.638,25.501l1.657-0.192v9.964
		h-0.526v-2.119c0-0.163,0.039-0.234,0.032-0.234c0.021-0.016,0.091-0.066,0.2-0.129c0.24-0.138,0.322-0.443,0.185-0.683
		c-0.138-0.24-0.443-0.321-0.683-0.185c-0.192,0.11-0.308,0.2-0.307,0.2c-0.079,0.057-0.428,0.345-0.428,1.03v2.119h-0.131V25.501z
		 M8.409,23.757h0.105l0.078,3.652H8.278L8.409,23.757z M8.242,28.409h0.372l0.068,3.189H8.128L8.242,28.409z M8.476,21.697
		c0.027,0.023,0.052,0.055,0.077,0.084H8.392C8.418,21.753,8.442,21.726,8.476,21.697z M8.092,32.599h0.611l0.057,2.674H7.996
		L8.092,32.599z M4.147,19.111v0.219H3.796v-0.219H4.147z M3.724,20.33h0.467l0.087,3.879h-0.7L3.724,20.33z M4.301,25.208
		l0.097,4.283H3.38l0.161-4.283H4.301z M3.974,17.724c0.007,0.005,0.014,0.01,0.021,0.016c0.1,0.066,0.272,0.236,0.318,0.371H3.634
		C3.677,17.985,3.832,17.824,3.974,17.724z M3.343,30.491H4.42l0.107,4.781H3.163L3.343,30.491z M46.111,37.847H1.891v-1.574h0.753
		h2.395h2.439h1.793h29.674h1.793h2.439h2.395h0.539V37.847z"/>
	<path fill="#414042" d="M24.521,27.471c-0.064-0.031-0.196-0.094-0.383-0.166c-0.116-0.045-0.247-0.045-0.363,0
		c-0.192,0.075-0.326,0.138-0.389,0.169c-0.292,0.104-0.763,0.43-0.763,1.045v2.016c0,0.276,0.224,0.5,0.5,0.5h1.687
		c0.277,0,0.5-0.224,0.5-0.5v-2.016C25.311,27.973,24.911,27.601,24.521,27.471z M24.311,30.034h-0.687v-1.516
		c0-0.062,0.073-0.094,0.093-0.102c0.032-0.009,0.064-0.021,0.093-0.037c0.007-0.004,0.059-0.03,0.146-0.068
		c0.086,0.038,0.136,0.063,0.144,0.067c0.031,0.017,0.066,0.03,0.101,0.04c0.001,0,0.109,0.041,0.109,0.1V30.034z"/>
</g>
</svg>
