<?xml version="1.0" encoding="utf-8"?>
<!-- Generator: Adobe Illustrator 16.0.0, SVG Export Plug-In . SVG Version: 6.00 Build 0)  -->
<!DOCTYPE svg PUBLIC "-//W3C//DTD SVG 1.1//EN" "http://www.w3.org/Graphics/SVG/1.1/DTD/svg11.dtd">
<svg version="1.1" id="Layer_1" xmlns="http://www.w3.org/2000/svg" xmlns:xlink="http://www.w3.org/1999/xlink" x="0px" y="0px"
	 width="48px" height="48px" viewBox="0 0 48 48" enable-background="new 0 0 48 48" xml:space="preserve">
<g>
	<path fill="#414042" d="M4.262,31.294c0.017,0,0.035-0.001,0.052-0.003l1.859-0.193c0.255-0.026,0.448-0.241,0.448-0.497v-1.9
		c0-0.932-0.526-1.51-1.373-1.51c-0.819,0-1.486,0.782-1.486,1.744v1.859c0,0.142,0.06,0.276,0.165,0.371
		C4.019,31.248,4.139,31.294,4.262,31.294z M4.762,28.935c0-0.438,0.256-0.744,0.486-0.744c0.166,0,0.373,0,0.373,0.51v1.449
		l-0.859,0.09V28.935z"/>
	<path fill="#414042" d="M7.955,30.935c0.007,0,0.014,0,0.021,0l2.859-0.123c0.268-0.012,0.479-0.232,0.479-0.5v-2.316
		c0-1.084-0.69-1.73-1.846-1.73c-1.11,0-2.014,0.904-2.014,2.016v2.154c0,0.137,0.056,0.267,0.154,0.361
		C7.703,30.885,7.827,30.935,7.955,30.935z M8.455,28.28c0-0.56,0.455-1.016,1.014-1.016c0.743,0,0.846,0.352,0.846,0.73v1.838
		l-1.859,0.079V28.28z"/>
	<path fill="#414042" d="M13,30.743c0.004,0,0.009,0,0.014,0l3.354-0.092c0.271-0.008,0.486-0.229,0.486-0.5v-2.725
		c0-1.264-0.815-2.08-2.076-2.08c-1.256,0-2.277,1.021-2.277,2.275v2.621c0,0.135,0.055,0.265,0.151,0.358
		C12.745,30.692,12.87,30.743,13,30.743z M13.5,27.622c0-0.703,0.573-1.275,1.277-1.275s1.076,0.373,1.076,1.08v2.238L13.5,29.729
		V27.622z"/>
	<path fill="#414042" d="M18.074,30.526c0.004,0,0.009,0,0.014,0l3.352-0.092c0.271-0.008,0.486-0.229,0.486-0.5V27.21
		c0-1.264-0.815-2.08-2.076-2.08c-1.255,0-2.275,1.021-2.275,2.275v2.621c0,0.135,0.055,0.265,0.151,0.358
		C17.819,30.476,17.944,30.526,18.074,30.526z M18.574,27.405c0-0.703,0.572-1.275,1.275-1.275c0.704,0,1.076,0.373,1.076,1.08
		v2.238l-2.352,0.064V27.405z"/>
	<path fill="#414042" d="M4.744,24.998c0.056,0,0.112-0.009,0.167-0.028l1.445-0.51c0.199-0.07,0.333-0.258,0.333-0.469l0.008-1.513
		c0-0.794-0.454-1.288-1.184-1.288c-0.7,0-1.27,0.66-1.27,1.471v1.838c0,0.162,0.079,0.314,0.211,0.408
		C4.541,24.966,4.642,24.998,4.744,24.998z M5.244,22.66c0-0.287,0.16-0.471,0.27-0.471c0.114,0,0.184,0,0.184,0.286l-0.006,1.159
		l-0.447,0.158V22.66z"/>
	<path fill="#414042" d="M8.031,24.045c0.034,0,0.068-0.003,0.103-0.011l2.828-0.593c0.231-0.048,0.397-0.252,0.397-0.489v-2.298
		c0-0.726-0.566-1.458-1.83-1.458c-1.064,0-1.998,1-1.998,2.139v2.21c0,0.15,0.068,0.293,0.185,0.388
		C7.806,24.006,7.917,24.045,8.031,24.045z M8.531,21.335c0-0.585,0.485-1.139,0.998-1.139c0.25,0,0.83,0.044,0.83,0.458v1.892
		L8.531,22.93V21.335z"/>
	<path fill="#414042" d="M13.139,23.287c0.018,0,0.036-0.001,0.055-0.003l2.996-0.329c0.253-0.028,0.445-0.242,0.445-0.497v-2.256
		c0-1.101-0.896-1.997-1.998-1.997c-1.125,0-1.998,1.25-1.998,2.325v2.257c0,0.142,0.061,0.277,0.167,0.373
		C12.897,23.242,13.016,23.287,13.139,23.287z M13.639,20.53c0-0.579,0.484-1.325,0.998-1.325c0.55,0,0.998,0.447,0.998,0.997v1.808
		l-1.996,0.219V20.53z"/>
	<path fill="#414042" d="M38.555,26.878c-0.885,0-1.479,0.595-1.479,1.48v2.59c0,0.262,0.202,0.479,0.463,0.499
		c0,0,0.221,0.017,0.638,0.017c0.359,0,0.869-0.013,1.514-0.06c0.262-0.02,0.464-0.237,0.464-0.499v-2.428
		C40.154,27.596,39.437,26.878,38.555,26.878z M39.154,30.436c-0.398,0.021-0.727,0.028-0.978,0.028
		c-0.035,0-0.068-0.001-0.101-0.001v-2.104c0-0.332,0.147-0.48,0.479-0.48s0.6,0.269,0.6,0.6V30.436z"/>
	<path fill="#414042" d="M42.563,27.015c-0.823,0-1.334,0.483-1.334,1.262v2.549c0,0.139,0.058,0.271,0.159,0.365
		c0.093,0.087,0.215,0.135,0.341,0.135c0.012,0,0.023,0,0.035-0.001c0.047-0.004,1.156-0.082,1.826-0.204
		c0.237-0.044,0.41-0.251,0.41-0.492v-2.176C44,27.659,43.355,27.015,42.563,27.015z M43,30.198
		c-0.259,0.034-0.538,0.063-0.771,0.084v-2.006c0-0.157,0-0.262,0.334-0.262c0.241,0,0.438,0.196,0.438,0.438V30.198z"/>
	<path fill="#414042" d="M46.331,35.74l-0.261-3.796l0.106-0.424c0.029-0.116,0.015-0.239-0.039-0.347l-0.145-0.286l-0.135-1.492
		l0.089-0.444c0.01-0.048,0.012-0.097,0.008-0.145l-0.398-4.29c-0.008-0.078-0.032-0.152-0.074-0.219
		c-0.092-0.146-2.411-3.591-16.941-3.591c-0.276,0-0.5,0.224-0.5,0.5v0.587l-0.081,0.045c-0.16,0.088-0.259,0.256-0.259,0.438v0.581
		l-0.148,0v-1.009c0-0.276-0.224-0.5-0.5-0.5h-1.594c-0.276,0-0.5,0.224-0.5,0.5v1.001l-0.128,0l-0.388-1.506
		c-0.057-0.221-0.256-0.375-0.484-0.375h-1.887l-1.257-3.988l0.005-1.495c0.001-0.205-0.124-0.39-0.314-0.466l-1.296-0.52
		l-1.843-3.611V8.909c0-0.212-0.134-0.401-0.334-0.472l-1.552-0.544c-0.05-0.019-0.104-0.03-0.16-0.031c-0.005,0-0.011,0-0.016,0
		c-0.036,0-0.07,0.003-0.103,0.011c-0.511,0.097-9.389,1.848-12.026,6.981c-0.036,0.071-0.055,0.149-0.055,0.229v1.165L2.67,16.865
		C2.663,16.876,2.663,16.89,2.656,16.9c-0.032,0.053-0.056,0.107-0.067,0.165c-0.004,0.024-0.004,0.046-0.005,0.071
		c-0.002,0.052,0.003,0.103,0.017,0.153c0.004,0.016,0,0.031,0.005,0.046l0.346,0.922l0.057,1.954L2.34,21.635v0
		c-0.04,0.085-0.045,0.179-0.035,0.271c0.001,0.011-0.006,0.021-0.004,0.033l0.27,1.44l-0.146,2.634l-0.566,0.991
		c-0.009,0.015-0.008,0.033-0.015,0.049c-0.02,0.045-0.036,0.09-0.042,0.138c-0.004,0.028-0.001,0.055,0,0.083
		c0.002,0.042,0.007,0.081,0.02,0.121c0.004,0.015,0.001,0.031,0.007,0.046l0.363,0.894l-0.205,3.167l-0.271,0.583
		c-0.001,0.003,0,0.007-0.001,0.011c-0.029,0.065-0.047,0.136-0.045,0.212c0,0.023,0.011,0.042,0.015,0.064
		c0.001,0.01-0.005,0.02-0.003,0.029l0.173,0.807l-0.062,3.881c-0.003,0.181,0.092,0.349,0.248,0.439
		c0.207,0.121,4.69,2.628,19.609,2.628c2.046,0,4.289-0.047,6.743-0.153c0.158-0.008,0.304-0.088,0.392-0.219
		c0.089-0.131,0.111-0.296,0.06-0.445l-0.052-0.15c0.175,0.007,0.356,0.011,0.546,0.013c0.005,0,0.009,0.003,0.014,0.003
		c0.004,0,0.007-0.002,0.011-0.002c0.079,0,0.146,0.005,0.228,0.005c2.468,0,5.772-0.321,5.932-0.337
		c0.153-0.016,0.291-0.1,0.373-0.229c0.032-0.052,0.047-0.11,0.06-0.168c2.505-0.185,7.423-0.729,10.125-2.264
		C46.246,36.114,46.344,35.932,46.331,35.74z M33.748,30.497V28.29c0-0.331,0.27-0.6,0.602-0.6s0.602,0.269,0.602,0.6v2.248h-1.203
		V30.497z M35.186,36.058l-0.552-1.562c0.294,0.031,0.552,0.279,0.552,0.591V36.058z M32.748,31.365l-6.375,0.041v-0.308h2.432
		c0.133,0,0.261-0.053,0.354-0.147s0.146-0.223,0.146-0.356l-0.02-2.713c0-0.982-0.91-1.781-2.029-1.781
		c-1.118,0-2.027,0.799-2.027,1.781v2.217H24.62l-1.856-5.035h6.632l1.9,5.625c0.069,0.207,0.276,0.347,0.484,0.34l0.968-0.021
		V31.365z M3.565,23.255l-0.227-1.211c1.046-0.84,6.202-4.605,15.009-5.011c0.013,0,0.023-0.007,0.036-0.009l1.843,5.607
		c0.067,0.205,0.259,0.344,0.475,0.344h0.822v0.542c-10.458,0.111-15.816,1.678-18.104,2.621l0.154-2.764
		C3.576,23.335,3.573,23.294,3.565,23.255z M3.163,28.064l-0.241-0.592c1.298-0.665,6.44-2.824,18.604-2.955
		c0.002,0.053,0.009,0.106,0.028,0.156l2.248,6.098c0.073,0.196,0.26,0.327,0.469,0.327h1.102v0.498
		c-9.496-0.07-19.581,0.123-22.424,0.183c0.013-0.039,0.028-0.078,0.03-0.119l0.219-3.375C3.203,28.21,3.191,28.135,3.163,28.064z
		 M26.229,30.104v-2.222c0-0.424,0.471-0.781,1.027-0.781c0.558,0,1.029,0.357,1.029,0.785l0.016,2.213h-2.002
		C26.275,30.099,26.252,30.101,26.229,30.104z M29.23,24.063h-3.906v-0.212l3.906,0.012V24.063z M25.959,22.348h0.594v0.506
		l-0.594-0.002V22.348z M23.571,21.967l0.388,1.505c0.047,0.181,0.19,0.312,0.365,0.355v0.235h-1.801v-1.588
		c0-0.026-0.011-0.048-0.015-0.073c-0.004-0.026,0-0.051-0.008-0.077l-0.113-0.357H23.571z M19.837,17.206l1.504,4.77h-0.278
		l-1.713-5.214v-1.13l0.469,0.188l-0.004,1.233C19.814,17.105,19.822,17.156,19.837,17.206z M18.35,16.042
		c-0.017-0.001-0.031-0.008-0.048-0.007c-7.223,0.333-12.011,2.794-14.295,4.292c0-0.009,0.005-0.016,0.005-0.025l-0.063-2.156
		c-0.002-0.055-0.013-0.109-0.032-0.161l-0.269-0.716c0.804-0.849,4.304-4.111,11.505-5.429l1.883,3.39
		c0.094,0.17,0.274,0.263,0.471,0.256l0.841-0.058V16.042z M15.805,9.066l0.563,0.197v1.744c0,0.079,0.019,0.157,0.055,0.227
		l1.638,3.21l-0.303,0.021l-1.953-3.515V9.066z M14.805,8.981v1.908c-5.561,1.047-8.954,3.172-10.684,4.585v-0.269
		C6.246,11.261,12.795,9.453,14.805,8.981z M5.092,37.549c-0.437-0.115-0.81-0.226-1.125-0.327v-2.053
		c0-0.5,0.286-0.922,0.625-0.922c0.199,0,0.5,0,0.5,0.654V37.549z M9.609,38.426c-0.675-0.095-1.294-0.194-1.859-0.297v-2.454
		c0-0.56,0.455-1.016,1.014-1.016c0.743,0,0.846,0.352,0.846,0.73V38.426z M14.77,38.941c-0.834-0.055-1.617-0.117-2.352-0.188
		v-2.913c0-0.703,0.572-1.275,1.275-1.275c0.704,0,1.076,0.373,1.076,1.08V38.941z M20.078,39.142
		c-0.892-0.012-1.742-0.033-2.553-0.063v-3.293c0-0.703,0.573-1.275,1.277-1.275c0.703,0,1.275,0.572,1.275,1.275V39.142z
		 M22.82,39.04v-3.105c0-0.703,0.573-1.275,1.277-1.275c0.703,0,1.275,0.572,1.275,1.275v3.105H22.82z M26.373,39.077v-3.143
		c0-1.255-1.021-2.275-2.275-2.275c-1.256,0-2.277,1.021-2.277,2.275v3.219c-0.252,0.001-0.496-0.001-0.742-0.003v-3.364
		c0-1.255-1.021-2.275-2.275-2.275c-1.256,0-2.277,1.021-2.277,2.275v3.253c-0.256-0.012-0.508-0.024-0.756-0.038v-3.355
		c0-1.264-0.815-2.08-2.076-2.08c-1.255,0-2.275,1.021-2.275,2.275v2.811c-0.277-0.03-0.547-0.062-0.809-0.094V35.39
		c0-1.084-0.69-1.73-1.846-1.73c-1.11,0-2.014,0.904-2.014,2.016v2.262c-0.23-0.047-0.449-0.095-0.658-0.143v-2.893
		c0-1.021-0.575-1.654-1.5-1.654c-0.896,0-1.625,0.862-1.625,1.922v1.689c-0.063-0.026-0.121-0.051-0.169-0.072l0.058-3.619
		c0-0.038-0.003-0.076-0.011-0.113l-0.058-0.271c2.574-0.056,12.94-0.259,22.662-0.185l2.23,6.434
		C27.234,39.049,26.803,39.063,26.373,39.077z M31.936,38.133c-0.699,0.037-1.416,0.063-2.084,0.069v-2.768
		c0-0.574,0.468-1.041,1.043-1.041c0.574,0,1.041,0.467,1.041,1.041V38.133z M32.936,38.072v-2.638c0-1.125-0.916-2.041-2.041-2.041
		c-1.127,0-2.043,0.916-2.043,2.041v2.757c-0.078-0.002-0.166-0.002-0.24-0.006c-0.06-0.006-0.11,0.005-0.161,0.017l-2.01-5.797
		l6.379-0.04l1.968,5.567C34.336,37.972,33.675,38.023,32.936,38.072z M39.375,37.089c-0.371,0.055-0.732,0.104-1.08,0.146v-2.576
		c0-0.332,0.147-0.48,0.479-0.48c0.332,0,0.602,0.269,0.602,0.6V37.089z M43.348,36.246c-0.252,0.076-0.511,0.146-0.773,0.215
		v-2.479c0-0.152,0-0.262,0.334-0.262c0.242,0,0.439,0.197,0.439,0.439V36.246z M44.348,35.905v-1.746
		c0-0.794-0.646-1.439-1.439-1.439c-0.823,0-1.334,0.483-1.334,1.262v2.598c0,0.039,0.014,0.074,0.022,0.111
		c-0.407,0.087-0.815,0.166-1.222,0.237v-2.149c0-0.882-0.719-1.6-1.602-1.6c-0.885,0-1.479,0.595-1.479,1.48v2.689
		c-0.409,0.042-0.783,0.076-1.109,0.103v-2.364c0-0.882-0.719-1.6-1.602-1.6c-0.099,0-0.191,0.036-0.287,0.055l-0.549-1.553v-0.451
		h1.703c0.276,0,0.5-0.224,0.5-0.5V28.29c0-0.882-0.719-1.6-1.602-1.6s-1.602,0.718-1.602,1.6v1.718l-0.622,0.013l-1.896-5.609
		v-1.048c0-0.275-0.223-0.499-0.498-0.5l-1.031-0.003v-0.289l0.081-0.045c0.16-0.088,0.259-0.256,0.259-0.438v-0.381
		c12.162,0.068,15.104,2.599,15.533,3.051l0.378,4.067l-0.089,0.443c-0.01,0.048-0.012,0.096-0.008,0.144l0.15,1.66
		c0.006,0.063,0.023,0.124,0.052,0.181l0.104,0.205l-0.08,0.319c-0.013,0.051-0.017,0.104-0.014,0.155l0.244,3.554
		C45.016,35.639,44.689,35.775,44.348,35.905z"/>
	<path fill="#414042" d="M12.668,10.979c0.046,0,0.093-0.006,0.14-0.02c0.483-0.141,0.99-0.277,1.522-0.407
		c0.269-0.066,0.433-0.336,0.367-0.604c-0.066-0.269-0.34-0.433-0.604-0.367c-0.546,0.134-1.067,0.274-1.564,0.419
		c-0.265,0.077-0.417,0.354-0.34,0.62C12.251,10.837,12.451,10.979,12.668,10.979z"/>
	<path fill="#414042" d="M8.081,12.707c0.066,0,0.133-0.013,0.197-0.041c0.574-0.247,1.17-0.479,1.772-0.689
		c0.261-0.091,0.398-0.376,0.307-0.637c-0.091-0.26-0.375-0.396-0.637-0.307c-0.624,0.218-1.242,0.458-1.837,0.715
		c-0.254,0.109-0.371,0.403-0.261,0.657C7.702,12.594,7.887,12.707,8.081,12.707z"/>
	<path fill="#414042" d="M5.592,16.404c-0.276,0-0.5,0.224-0.5,0.5v1.148c0,0.276,0.224,0.5,0.5,0.5s0.5-0.224,0.5-0.5v-1.148
		C6.092,16.627,5.868,16.404,5.592,16.404z"/>
	<path fill="#414042" d="M8.982,14.566c-0.276,0-0.5,0.224-0.5,0.5v1.336c0,0.276,0.224,0.5,0.5,0.5s0.5-0.224,0.5-0.5v-1.336
		C9.482,14.79,9.259,14.566,8.982,14.566z"/>
	<path fill="#414042" d="M12.668,13.376c-0.276,0-0.5,0.224-0.5,0.5v1.594c0,0.276,0.224,0.5,0.5,0.5s0.5-0.224,0.5-0.5v-1.594
		C13.168,13.6,12.944,13.376,12.668,13.376z"/>
	<path fill="#414042" d="M41.66,24.804c0.595,0.142,1.141,0.301,1.624,0.474c0.056,0.021,0.113,0.03,0.169,0.03
		c0.205,0,0.397-0.127,0.471-0.332c0.093-0.26-0.042-0.546-0.302-0.64c-0.518-0.186-1.101-0.356-1.731-0.506
		c-0.265-0.065-0.538,0.102-0.602,0.371C41.226,24.471,41.392,24.741,41.66,24.804z"/>
	<path fill="#414042" d="M37.686,23.939c0.561,0.064,1.14,0.144,1.718,0.244c0.028,0.005,0.058,0.007,0.086,0.007
		c0.238,0,0.449-0.171,0.492-0.415c0.047-0.272-0.136-0.531-0.408-0.578c-0.598-0.103-1.194-0.186-1.774-0.252
		c-0.257-0.033-0.522,0.165-0.554,0.439C37.214,23.66,37.411,23.908,37.686,23.939z"/>
	<path fill="#414042" d="M35.153,22.553c-0.742-0.051-1.396-0.077-1.894-0.091c-0.271-0.004-0.506,0.21-0.514,0.486
		c-0.008,0.276,0.21,0.506,0.486,0.514c0.486,0.013,1.126,0.039,1.853,0.089c0.012,0,0.023,0.001,0.035,0.001
		c0.26,0,0.479-0.202,0.498-0.465C35.637,22.811,35.429,22.572,35.153,22.553z"/>
	<path fill="#414042" d="M40.648,24.987c-0.276,0-0.5,0.224-0.5,0.5v0.719c0,0.276,0.224,0.5,0.5,0.5s0.5-0.224,0.5-0.5v-0.719
		C41.148,25.211,40.925,24.987,40.648,24.987z"/>
	<path fill="#414042" d="M36.549,24.037c-0.276,0-0.5,0.224-0.5,0.5v1.408c0,0.276,0.224,0.5,0.5,0.5s0.5-0.224,0.5-0.5v-1.408
		C37.049,24.26,36.825,24.037,36.549,24.037z"/>
	<path fill="#414042" d="M32.092,23.789c-0.295-0.028-0.501,0.225-0.5,0.502l0.006,1.613c0.001,0.275,0.225,0.498,0.5,0.498
		c0.254-0.007,0.501-0.225,0.5-0.502l-0.006-1.613C32.591,24.011,32.367,23.789,32.092,23.789z"/>
</g>
</svg>
