<?xml version="1.0" encoding="utf-8"?>
<!-- Generator: Adobe Illustrator 16.0.0, SVG Export Plug-In . SVG Version: 6.00 Build 0)  -->
<!DOCTYPE svg PUBLIC "-//W3C//DTD SVG 1.1//EN" "http://www.w3.org/Graphics/SVG/1.1/DTD/svg11.dtd">
<svg version="1.1" id="Layer_1" xmlns="http://www.w3.org/2000/svg" xmlns:xlink="http://www.w3.org/1999/xlink" x="0px" y="0px"
	 width="48px" height="48px" viewBox="0 0 48 48" enable-background="new 0 0 48 48" xml:space="preserve">
<path fill="#414042" d="M45.067,7.574c-0.097-0.094-0.229-0.152-0.363-0.141l-1.033,0.033c0-0.134-0.054-0.262-0.149-0.355
	c-0.096-0.095-0.241-0.146-0.359-0.144l-1.963,0.033c-0.089,0.001-0.177,0.026-0.253,0.073l-1.055,0.647l-0.273,0.011
	c-0.023-0.025-0.049-0.048-0.078-0.068c-0.12-0.085-0.274-0.112-0.417-0.075l-1.871,0.493l-1.441-0.031l-2.049,0.083
	c-0.057,0.003-0.113,0.015-0.166,0.036l-0.282,0.113L30.807,7.83L30.51,7.61c-0.01-0.007-0.022-0.007-0.033-0.014
	c-0.013-0.008-0.021-0.021-0.035-0.028c-0.034-0.018-0.07-0.021-0.106-0.031c-0.017-0.004-0.029-0.017-0.046-0.019L26.868,6.99
	c0.003-0.028,0.014-0.054,0.013-0.083l-0.159-3.542c0-0.001,0-0.002,0-0.004c0-0.001-0.001-0.002-0.001-0.003l-0.05-1.114
	C26.4,0.443,25,0.063,24.331,0.11c-1.775,0-2.424,1.394-2.519,2.13l-0.598,4.572c-0.004,0.035,0.004,0.067,0.007,0.1l-5.576,0.642
	c-0.053,0.006-0.104,0.021-0.152,0.043l-0.957,0.439l-2.497,0.08c-0.054,0.002-0.108,0.013-0.16,0.031L11.584,8.26L8.493,8.033
	c-0.131-0.01-0.254,0.03-0.353,0.111L7.058,7.492C6.981,7.444,6.894,7.419,6.804,7.418L4.839,7.386
	C4.7,7.385,4.576,7.435,4.48,7.529C4.385,7.623,4.332,7.751,4.331,7.885L3.299,7.851C3.155,7.832,3.032,7.896,2.935,7.991
	C2.837,8.085,2.782,8.215,2.782,8.351V9.3c0,0.229,0.156,0.429,0.379,0.484l2.73,0.683c0.042,0.012,0.085,0.013,0.131,0.016
	l1.651-0.038l0.65,0.093l1.297,3.116c0.081,0.196,0.274,0.322,0.488,0.308l0.511-0.027c0.045,0.013,0.09,0.028,0.137,0.028
	c0.068,0,0.136-0.018,0.199-0.045l3.819-0.2l3.117,1.165l-0.375,5.757c-0.015,0.229,0.129,0.439,0.349,0.509l0.375,0.118
	l0.235,0.827l-0.162,3.079c-0.004,0.087,0.014,0.173,0.052,0.25l0.409,0.816l-0.712,15.954l-1.813,0.496
	c-0.217,0.06-0.368,0.257-0.368,0.482v4.24c0,0.276,0.224,0.5,0.5,0.5h16.549c0.276,0,0.5-0.224,0.5-0.5v-4.515
	c0-0.244-0.176-0.452-0.416-0.493l-1.817-0.31l-0.842-9.328l0.341-0.299c0.115-0.102,0.178-0.25,0.169-0.402l-0.228-4.271
	l0.34-1.079c0.02-0.061,0.026-0.124,0.022-0.188L30.13,14.864l2.648-0.866l5.457-0.364c0.204-0.014,0.38-0.151,0.442-0.346
	l1.026-3.185l0.545-0.071l1.73,0.033c0.042-0.006,0.089-0.005,0.131-0.016l2.73-0.684c0.223-0.056,0.379-0.255,0.379-0.484V7.934
	C45.22,7.798,45.165,7.668,45.067,7.574z M18.914,14.576c0-0.004-0.003-0.007-0.003-0.011c0-0.007,0.004-0.012,0.004-0.019
	l0.02-2.843l1.291,0.763l0.117,8.66l-0.972,0.451l-0.24-0.844c-0.046-0.162-0.17-0.29-0.331-0.341l-0.258-0.081L18.914,14.576z
	 M21.925,7.835l3.653,0.024L23.25,9.886l-1.229-0.243l-1.872-1.602L21.925,7.835z M26.39,25.509
	c0.005,0.111,0.046,0.219,0.118,0.304l0.549,0.649c0.095,0.113,0.234,0.178,0.382,0.178h1.269l0.425,0.499
	c0.098,0.114,0.238,0.176,0.381,0.176c0.078,0,0.157-0.019,0.23-0.057l0.021-0.011l-0.104,0.332
	c-0.019,0.058-0.026,0.117-0.022,0.177l0.155,2.905l-2.233-1.851c-0.035-0.029-0.074-0.054-0.116-0.072l-5.111-2.271
	c-0.002-0.001-0.004-0.002-0.006-0.003l-2.375-1.056c-0.146-0.063-0.313-0.056-0.451,0.022l-0.006,0.004l-0.171-0.342l0.128-2.45
	l1.607-0.746c0.179-0.083,0.292-0.263,0.29-0.46l-0.117-8.687l2.752,0.354c0.021,0.002,0.043,0.004,0.064,0.004
	c0.117,0,0.231-0.041,0.321-0.117l1.514-1.271L26.39,25.509z M19.77,26.428l0.006-0.003l1.849,0.821l-0.172,14.82l-2.381,0.012
	L19.77,26.428z M22.619,27.688l2.945,1.31l0.602,13.047l-3.713,0.018L22.619,27.688z M27.166,42.04l-0.58-12.589l0.388,0.173
	l2.309,1.914l0.056,1.046c0,0.003,0.002,0.006,0.002,0.01c0.001,0.003-0.001,0.006-0.001,0.009l0.85,9.423L27.166,42.04z
	 M28.918,9.432c-0.04,0.078-0.06,0.166-0.055,0.254l0.24,4.85c0,0.001,0.001,0.002,0.001,0.003c0,0.003-0.001,0.006-0.001,0.009
	l0.857,11.473c-0.002,0.001-0.003,0-0.005,0.001l-0.32,0.166l-0.316-0.372c-0.095-0.111-0.234-0.176-0.381-0.176h-1.268l-0.288-0.34
	L26.744,7.979l2.706,0.421L28.918,9.432z M25.879,6.867l-3.66-0.026l0.167-1.28c0.459,0.602,1.101,0.981,1.814,0.981
	c0.625,0,1.189-0.298,1.63-0.774L25.879,6.867z M24.366,1.108c0.046,0.002,1.113-0.064,1.312,1.231l0.045,1.016
	c0,0.002-0.001,0.004-0.001,0.006c0,1.182-0.696,2.18-1.521,2.18c-0.825,0-1.521-0.998-1.521-2.18c0-0.005-0.003-0.009-0.003-0.014
	l0.127-0.974C22.822,2.244,23.023,1.11,24.366,1.108z M19.138,8.157c-0.031,0.169,0.019,0.35,0.159,0.47l2.174,1.86
	c0.065,0.056,0.144,0.094,0.228,0.11l1.598,0.316c0.032,0.007,0.065,0.01,0.097,0.01c0.12,0,0.236-0.043,0.328-0.123l2.059-1.792
	l0.054,1.446l-1.942,1.629l-3.004-0.387l-5.214-3.082l0.166-0.076L19.138,8.157z M6.069,9.481L3.782,8.909V8.867L4.814,8.9
	c0.142,0.01,0.267-0.046,0.364-0.14c0.097-0.095,0.152-0.225,0.152-0.359V8.394l1.32,0.021L7.698,9.06
	c0.069,0.042,0.147,0.067,0.229,0.073l0.319,0.021L8.689,9.58l-0.954-0.13L6.069,9.481z M9.438,10.61l0.137,0.005
	c0.006,0.001,0.012,0.001,0.019,0.001c0.051,0,0.098-0.014,0.145-0.028l1.654,1.589l-0.806,0.758l-0.178,0.009L9.438,10.61z
	 M15.028,12.743c-0.064-0.023-0.131-0.032-0.202-0.031l-2.693,0.142l0.328-0.309c0.1-0.095,0.157-0.225,0.157-0.362
	c0-0.137-0.055-0.268-0.154-0.363L9.655,9.121l1.965,0.144c0.072,0.006,0.144-0.005,0.212-0.03l0.321-0.12L14.46,9.04
	c0.022,0.019,0.038,0.042,0.063,0.057l3.415,2.019l-0.019,2.709L15.028,12.743z M32.433,46.911H16.884v-3.358l1.726-0.472
	l12.084-0.059l1.739,0.296V46.911z M32.649,13.005c-0.042,0.003-0.083,0.011-0.122,0.023l-2.458,0.804l-0.201-4.062l0.529-1.027
	c0.038,0.018,0.074,0.043,0.116,0.051l2.764,0.499c0.093,0.018,0.188,0.006,0.275-0.028l0.336-0.135l1.932-0.079l1.48,0.033
	c0.034-0.001,0.093-0.005,0.139-0.017l0.686-0.181l-2.108,2.68c-0.084,0.106-0.121,0.242-0.103,0.377
	c0.018,0.134,0.09,0.255,0.199,0.335l0.618,0.454L32.649,13.005z M37.924,12.367l-0.802-0.589l1.291-1.641
	c0.039,0.01,0.077,0.024,0.119,0.024c0.002,0,0.005,0,0.008,0l0.096-0.001L37.924,12.367z M41.932,9.064l-1.735-0.028L39.291,9.15
	l-0.103,0.001l0.326-0.414l0.547-0.021c0.086-0.003,0.169-0.028,0.242-0.073l1.05-0.645l1.317-0.022v0.008
	c0,0.135,0.055,0.265,0.152,0.359c0.097,0.094,0.222,0.157,0.363,0.14l1.033-0.033L41.932,9.064z"/>
</svg>
