<?xml version="1.0" encoding="utf-8"?>
<!-- Generator: Adobe Illustrator 16.0.0, SVG Export Plug-In . SVG Version: 6.00 Build 0)  -->
<!DOCTYPE svg PUBLIC "-//W3C//DTD SVG 1.1//EN" "http://www.w3.org/Graphics/SVG/1.1/DTD/svg11.dtd">
<svg version="1.1" id="Layer_1" xmlns="http://www.w3.org/2000/svg" xmlns:xlink="http://www.w3.org/1999/xlink" x="0px" y="0px"
	 width="48px" height="48px" viewBox="0 0 48 48" enable-background="new 0 0 48 48" xml:space="preserve">
<path fill="#414042" d="M47.743,37.08L24.476,7.192C24.381,7.071,24.236,7,24.082,7c0,0,0,0,0,0c-0.154,0-0.299,0.071-0.394,0.191
	L0.26,37.079c-0.118,0.15-0.14,0.355-0.056,0.527c0.084,0.172,0.258,0.281,0.45,0.281h3.801l-0.456,2.058
	c-0.054,0.245,0.082,0.492,0.317,0.578c0.029,0.011,0.736,0.264,1.755,0.264h0c0.533,0,1.057-0.068,1.562-0.203
	c0.357,0.143,1.192,0.418,2.344,0.418c0.569,0,1.148-0.067,1.721-0.201c0.287,0.069,1.008,0.217,1.901,0.217
	c0.885,0,1.694-0.143,2.408-0.426c0.289,0.097,0.846,0.239,1.628,0.239c0.65,0,1.327-0.101,2.011-0.297
	c0.01-0.003,0.016-0.015,0.026-0.018c0.09-0.032,0.169-0.083,0.227-0.156c0.003-0.003,0.007-0.004,0.01-0.007l2.768-3.702h2.647
	l2.771,3.702c0.002,0.003,0.007,0.004,0.01,0.007c0.057,0.073,0.136,0.124,0.226,0.156c0.011,0.003,0.016,0.015,0.026,0.018
	c0.684,0.196,1.359,0.297,2.01,0.297c0.782,0,1.339-0.143,1.628-0.239c0.714,0.283,1.523,0.426,2.408,0.426
	c0.893,0,1.614-0.147,1.901-0.217c0.573,0.134,1.152,0.201,1.722,0.201c1.151,0,1.986-0.275,2.343-0.418
	c0.505,0.135,1.029,0.203,1.563,0.203c1.019,0,1.726-0.253,1.755-0.264c0.236-0.086,0.371-0.333,0.317-0.578l-0.456-2.058h3.802
	c0.191,0,0.365-0.108,0.449-0.28S47.86,37.231,47.743,37.08z M6.071,39.787c-0.402,0-0.744-0.047-0.992-0.096l0.933-4.214
	l2.621-1.667l0.947-0.135l-1.214,1.202c-0.068,0.068-0.116,0.154-0.137,0.249l-0.981,4.51C6.865,39.729,6.474,39.787,6.071,39.787
	L6.071,39.787z M16.476,39.685l-0.299-4.416l0.439-1.259c0.091-0.261-0.047-0.546-0.308-0.637c-0.257-0.093-0.545,0.046-0.637,0.307
	l-0.473,1.355c-0.022,0.064-0.031,0.132-0.027,0.199l0.302,4.462c-0.561,0.198-1.178,0.321-1.874,0.321
	c-0.586,0-1.088-0.073-1.406-0.134L12.108,35.4l0.968-1.249c0.169-0.219,0.129-0.532-0.089-0.702
	c-0.218-0.168-0.533-0.128-0.701,0.089l-1.076,1.389c-0.07,0.091-0.107,0.202-0.105,0.316l0.089,4.63
	c-0.407,0.077-0.814,0.129-1.216,0.129c-0.775,0-1.375-0.146-1.729-0.26l0.926-4.258l1.297-1.284c0.181-0.18,0.189-0.46,0.036-0.657
	l5.327-0.761h5.116l-2.18,1.669c-0.135,0.104-0.208,0.27-0.194,0.439l0.397,4.773c-0.456,0.104-0.906,0.167-1.338,0.167
	C17.097,39.831,16.713,39.751,16.476,39.685z M19.433,18.885l0.928-1.334c0.026,0.113,0.051,0.226,0.095,0.349
	c0.044,0.126,0.288,0.77,0.788,0.985c0.002,0.001,0.005,0.002,0.007,0.003c0.021,0.387,0.116,0.891,0.388,1.271l-2.504-0.15
	C19.117,19.375,19.414,18.912,19.433,18.885z M21.972,15.261c0.272-0.151,0.784-0.372,1.387-0.403l0.057,0.618
	c0.005,0.053,0.018,0.104,0.039,0.153c0.11,0.254,0.329,0.412,0.57,0.412c0.116,0,0.401-0.041,0.563-0.412
	c0.021-0.049,0.035-0.102,0.039-0.156l0.053-0.619c0.615,0.011,1.12,0.255,1.394,0.405c-0.011,0.238-0.032,0.625-0.071,1.156
	c-0.011,0.146,0.049,0.29,0.153,0.392c0.104,0.104,0.253,0.154,0.4,0.141c0.064-0.011,0.161,0.014,0.174,0.032
	c0.019,0.023,0.057,0.191-0.086,0.59c-0.049,0.142-0.173,0.356-0.149,0.393c-0.161-0.072-0.349-0.054-0.493,0.048
	c-0.144,0.102-0.224,0.273-0.209,0.449c0.032,0.401-0.046,1.025-0.243,1.176c-0.027,0.012-0.057,0.017-0.082,0.035
	c-0.02,0.015-0.491,0.363-1.465,0.326c-0.957,0.032-1.437-0.306-1.467-0.326c-0.004-0.003-0.009-0.003-0.013-0.006
	c-0.005-0.003-0.007-0.008-0.012-0.011c-0.191-0.118-0.293-0.728-0.256-1.195c0.014-0.176-0.02-0.344-0.164-0.446
	c-0.145-0.102-0.286-0.118-0.445-0.046c-0.065-0.037-0.186-0.234-0.245-0.401c-0.141-0.394-0.102-0.562-0.084-0.585
	c0.013-0.017,0.108-0.034,0.167-0.033c0.151,0.02,0.298-0.03,0.406-0.133c0.108-0.104,0.166-0.25,0.154-0.399
	C22.004,15.885,21.983,15.499,21.972,15.261z M28.053,22.509l-1.759-1.051c-0.03-0.099-0.048-0.194-0.063-0.288l2.36-0.142
	C28.224,21.615,28.081,22.112,28.053,22.509z M28.911,20.008l-2.505,0.15c0.271-0.381,0.367-0.885,0.388-1.271
	c0.002-0.001,0.005-0.002,0.007-0.003c0.5-0.216,0.744-0.859,0.786-0.98c0.045-0.125,0.071-0.24,0.097-0.354l0.928,1.334
	C28.631,18.912,28.928,19.375,28.911,20.008z M21.813,21.171c-0.015,0.093-0.033,0.189-0.063,0.288l-1.757,1.059
	c-0.028-0.398-0.168-0.897-0.539-1.488L21.813,21.171z M19.962,23.692l2.457-1.469c0.095-0.057,0.169-0.144,0.209-0.247
	c0.158-0.404,0.21-0.792,0.214-1.123c0.296,0.08,0.639,0.146,1.08,0.146c0.026,0,0.053,0,0.08,0s0.054,0,0.08,0
	c0.462,0,0.818-0.072,1.121-0.157c0.002,0.333,0.053,0.725,0.213,1.134c0.041,0.103,0.114,0.19,0.209,0.247l2.543,1.509
	c0.064,0.024,1.585,0.604,1.706,2.295l0.087,0.359l-11.895,0.058l0.118-0.501C18.292,24.337,19.813,23.757,19.962,23.692z
	 M17.211,30.245c0.021-0.05,0.033-0.103,0.037-0.157c0.094-1.434,0.358-2.268,0.508-2.642l12.509-0.06
	c0.146,0.345,0.434,1.197,0.532,2.701c0.004,0.055,0.016,0.107,0.036,0.157l0.631,1.537h-5.389v-0.91c0-0.276-0.224-0.5-0.5-0.5
	h-3.148c-0.276,0-0.5,0.224-0.5,0.5v0.91l-5.348,0.004L17.211,30.245z M19.596,35.079l2.331-1.784v2.69l-2.029,2.714L19.596,35.079z
	 M22.927,32.282v-0.91h2.148v0.91v3.369h-2.148V32.282z M26.075,33.295l2.333,1.784L28.106,38.7l-2.031-2.715V33.295z
	 M36.808,39.873l0.09-4.63c0.002-0.114-0.035-0.226-0.104-0.316l-1.076-1.389c-0.17-0.218-0.482-0.258-0.702-0.089
	c-0.218,0.17-0.258,0.483-0.089,0.702l0.969,1.249l-0.087,4.483c-0.317,0.061-0.818,0.134-1.405,0.134
	c-0.695,0-1.313-0.123-1.874-0.321l0.302-4.462c0.004-0.067-0.005-0.135-0.027-0.199L32.33,33.68
	c-0.09-0.261-0.374-0.401-0.637-0.307c-0.261,0.091-0.398,0.376-0.307,0.637l0.438,1.259l-0.299,4.416
	c-0.239,0.066-0.622,0.146-1.16,0.146c-0.432,0-0.882-0.063-1.337-0.167l0.397-4.773c0.015-0.17-0.059-0.336-0.194-0.439
	l-2.182-1.67l5.046-0.004l5.397,0.767c-0.15,0.197-0.143,0.477,0.037,0.656l1.296,1.284l0.927,4.257
	c-0.354,0.115-0.953,0.261-1.729,0.261C37.623,40.002,37.216,39.95,36.808,39.873z M40.753,39.634l-0.98-4.507
	c-0.021-0.094-0.067-0.181-0.136-0.249l-1.212-1.201l0.944,0.134l2.62,1.667l0.933,4.214C42.427,39.789,41.539,39.811,40.753,39.634
	z M43.326,36.888l-0.405-1.829c-0.028-0.129-0.107-0.242-0.22-0.313l-2.887-1.836c-0.061-0.038-0.128-0.063-0.198-0.073
	l-7.048-0.997l-0.779-1.898c-0.137-1.942-0.565-2.903-0.709-3.177l-0.221-0.886c-0.103-1.514-1.066-2.356-1.703-2.753
	c-0.012-0.03-0.017-0.062-0.034-0.09c-0.012-0.021-0.297-0.509,0.322-1.486c1.062-1.673,0.031-3.174-0.012-3.235l-2.369-3.407
	c-0.021-0.125-0.077-0.242-0.182-0.319c-0.041-0.03-1.015-0.682-2.245-0.731c-0.031-0.061-0.071-0.122-0.125-0.177
	c-0.253-0.259-0.728-0.267-0.989,0c-0.054,0.056-0.094,0.116-0.125,0.177c-1.285,0.043-2.194,0.702-2.235,0.731
	c-0.104,0.077-0.16,0.193-0.182,0.318l-2.368,3.406c-0.044,0.063-1.075,1.564-0.014,3.237c0.606,0.956,0.347,1.444,0.324,1.484
	c-0.021,0.03-0.028,0.063-0.041,0.095c-0.661,0.411-1.593,1.233-1.685,2.666l-0.234,0.972c-0.145,0.275-0.572,1.237-0.708,3.175
	l-0.774,1.887l-7.096,1.009c-0.07,0.01-0.138,0.035-0.198,0.073l-2.887,1.836c-0.112,0.071-0.191,0.185-0.22,0.313l-0.405,1.829
	H1.681L24.08,8.312l22.247,28.576H43.326z"/>
</svg>
