<?xml version="1.0" encoding="utf-8"?>
<!-- Generator: Adobe Illustrator 16.0.0, SVG Export Plug-In . SVG Version: 6.00 Build 0)  -->
<!DOCTYPE svg PUBLIC "-//W3C//DTD SVG 1.1//EN" "http://www.w3.org/Graphics/SVG/1.1/DTD/svg11.dtd">
<svg version="1.1" id="Layer_1" xmlns="http://www.w3.org/2000/svg" xmlns:xlink="http://www.w3.org/1999/xlink" x="0px" y="0px"
	 width="48px" height="48px" viewBox="0 0 48 48" enable-background="new 0 0 48 48" xml:space="preserve">
<path fill="#414042" d="M32.039,41.889l-1.421-0.661c-0.063-0.03-0.133-0.045-0.203-0.045h-0.702l-0.35-6.614l0.097-0.083
	c0.119-0.102,0.182-0.255,0.168-0.411l-0.315-3.4c-0.003-0.037-0.011-0.074-0.023-0.109c-0.217-0.642-0.376-1.535-0.435-1.892
	c0.458-0.845,1.134-2.119,1.355-2.538c0.762-0.388,1.209-0.878,1.332-1.459c0.104-0.488-0.051-0.899-0.192-1.152l0.396-0.952
	c0.052-0.125,0.049-0.265-0.008-0.388s-0.162-0.216-0.291-0.257l-2.726-0.874c-0.24-0.078-0.499,0.043-0.594,0.278l-0.117,0.289
	c-0.101-0.255-0.201-0.455-0.292-0.634c-0.125-0.243-0.223-0.435-0.29-0.709c-0.102-0.413-0.319-0.71-0.55-0.928
	c-0.021-0.022-0.044-0.041-0.069-0.059c-0.177-0.153-0.355-0.27-0.491-0.337l-0.299-0.767c0.111-0.315,0.174-0.659,0.174-1.021
	c0-0.178-0.017-0.351-0.045-0.52c0.034-0.064,0.058-0.125,0.088-0.187l1.419,0.112c0.013,0.001,0.025,0.001,0.039,0.001
	c0.248,0,0.459-0.192,0.479-0.444c0.021-0.266-0.178-0.498-0.443-0.519l-1.165-0.092c0.047-0.235,0.062-0.458,0.045-0.669
	l1.429-0.726c0.238-0.121,0.333-0.411,0.212-0.648c-0.12-0.236-0.412-0.331-0.648-0.211l-1.311,0.666
	c-0.117-0.164-0.255-0.302-0.409-0.418l0.881-1.545c0.132-0.231,0.051-0.526-0.182-0.658c-0.229-0.131-0.524-0.051-0.657,0.181
	l-0.904,1.588c-0.26-0.081-0.504-0.132-0.714-0.161v-2.027c0-0.267-0.216-0.482-0.482-0.482c-0.266,0-0.482,0.216-0.482,0.482v2.048
	c-0.254,0.043-0.488,0.101-0.699,0.175l-1.001-1.636c-0.139-0.228-0.437-0.299-0.663-0.16c-0.228,0.139-0.299,0.436-0.16,0.663
	l0.976,1.595c-0.138,0.118-0.25,0.253-0.346,0.399l-1.125-0.534c-0.104-0.049-0.216-0.051-0.321-0.025
	c-0.13-0.328-0.288-0.684-0.511-1.086c-0.369-0.663-0.463-1.071-0.488-1.248c0.318-0.444,0.25-1.177,0.197-1.508
	c0.116-0.835-0.121-1.17-0.288-1.287l0.359-2.183c0.005-0.031-0.004-0.061-0.005-0.092c1.136-1.181,0.886-2.631,0.537-3.321
	c-0.315-0.624-0.681-0.66-0.87-0.624c-0.208,0.038-0.443,0.21-0.482,0.581c0,0.004,0,0.009-0.001,0.013
	c-0.304-0.992-1.21-1.737-1.38-1.802c-0.22-0.085-0.471,0.001-0.591,0.204c-0.141,0.237-0.075,0.474,0.194,0.703
	c0.102,0.086,0.153,0.185,0.161,0.312c0.021,0.313-0.217,0.772-0.654,1.26c-0.851,0.953-0.438,2.016-0.003,2.588
	c-0.012,0.06-0.018,0.121-0.006,0.182l0.375,1.961c-0.168,0.075-0.348,0.192-0.496,0.375c-0.183,0.226-0.375,0.631-0.259,1.283
	c0.211,1.167,0.497,1.513,1.231,1.705c0.066,0.237,0.179,0.69,0.344,1.507l0.111,0.565c0.185,0.959,0.223,1.101,0.761,1.954
	c0.031,0.173,0.117,0.531,0.318,1.108c-0.104,0.24-0.27,0.674-0.34,1.178c-0.132,0.942,0.139,1.693,0.768,2.149
	c0.011,0.05,0.028,0.101,0.052,0.15c0.056,0.114,0.163,0.249,0.366,0.339c0.043,0.177,0.11,0.401,0.208,0.606
	c-0.046,0.354,0.004,0.887,0.374,1.371c0.029,0.153,0.098,0.374,0.256,0.637l-0.685,1.504c-0.038,0.083-0.051,0.175-0.039,0.266
	l0.381,2.736l-0.335,0.629c-0.061,0.115-0.073,0.251-0.033,0.375l0.663,2.044c-0.067,0.361-0.178,1.305,0.288,2.118v0.438
	c-0.186,0.362-0.229,0.829,0.032,1.203c-0.094,0.722-0.353,3.008-0.134,4.88c0.025,0.117,0.04,0.277,0.058,0.277
	c-0.026,0.027-0.048,0.059-0.067,0.092c-0.045,0.083-0.16,0.314-0.165,0.572L19.5,41.183h-1.292c-0.075,0-0.15,0.018-0.217,0.052
	l-1.42,0.717c-0.163,0.082-0.265,0.249-0.265,0.431v4.333c0,0.267,0.216,0.482,0.482,0.482h15.046c0.267,0,0.482-0.216,0.482-0.482
	v-4.39C32.317,42.139,32.209,41.968,32.039,41.889z M20.693,26.217l-0.202-1.45l0.694-1.523l4.355-3.683
	c0.06,0.098,0.145,0.179,0.256,0.214c0.001,0,0.042,0.015,0.103,0.044L20.693,26.217z M22.159,15.466
	c-0.079-0.291-0.11-0.623,0.025-0.893c0.255-0.51,1.043-0.69,1.611-0.749c0.349,0,1.422,0.132,1.76,0.712
	c0.143,0.244,0.139,0.552,0.063,0.867c-0.418-0.561-1.025-0.922-1.708-0.922C23.203,14.481,22.578,14.87,22.159,15.466z
	 M23.911,15.446c0.727,0,1.319,0.77,1.319,1.718c0,0.947-0.592,1.718-1.319,1.718c-0.726,0-1.317-0.771-1.317-1.718
	C22.594,16.216,23.185,15.446,23.911,15.446z M25.869,35.471c0.087,0.069,0.193,0.105,0.302,0.105c0.038,0,0.076-0.005,0.114-0.013
	l0.255-0.063l-0.835,0.814l-1.641,0.345c-0.136,0.028-0.253,0.114-0.321,0.234l-0.421,0.762l-0.38,0.461l1.812-6.134l1.001-0.742
	l-0.066,3.845C25.686,35.235,25.753,35.378,25.869,35.471z M21.45,39.762h-0.121c0.078-0.293,0.029-0.607,0-0.735
	c-0.199-1.724,0.058-3.955,0.143-4.612l1.994-1.478L21.45,39.762z M20.963,40.727h0.847c0.093,0,0.177-0.034,0.253-0.083
	c0.021-0.014,0.037-0.027,0.056-0.044c0.021-0.018,0.045-0.027,0.063-0.049l1.932-2.351l0.176-0.313l-0.514,3.289l-3.116,0.005
	L20.963,40.727z M25.347,37.377l0.693-0.146c0.09-0.019,0.173-0.063,0.237-0.126l1.147-1.119c0.072-0.071,0.12-0.161,0.138-0.26
	l0.108-0.601l0.729-0.479l0.348,6.522l-3.995,0.006L25.347,37.377z M28.854,22.107l1.8,0.577l-0.294,0.707
	c-0.068,0.165-0.036,0.359,0.078,0.497c0.002,0.003,0.229,0.283,0.16,0.594c-0.068,0.3-0.394,0.594-0.944,0.851
	c-0.096,0.044-0.173,0.118-0.223,0.212c0,0-0.389,0.734-0.811,1.524l-0.125-0.657l0.12-0.099c0.153-0.125,0.214-0.331,0.152-0.52
	l-0.073-0.229c0.123-0.164,0.132-0.395,0.007-0.57c-0.279-0.393-0.267-1.223-0.236-1.554c0.048-0.13,0.101-0.333,0.062-0.53
	L28.854,22.107z M27.529,23.205c-0.006,0.021-0.013,0.042-0.016,0.065c-0.016,0.128-0.125,1.127,0.199,1.912
	c-0.062,0.113-0.075,0.249-0.034,0.377l0.071,0.219l-0.088,0.072c-0.137,0.112-0.201,0.29-0.168,0.463l0.385,2.023
	c0.007,0.034,0.023,0.064,0.036,0.095c-0.025,0.073-0.052,0.148-0.04,0.226c0.008,0.053,0.189,1.269,0.482,2.162l0.236,2.549
	l-1.556,1.02l-0.374,0.092l0.225-12.996c0.175,0.344,0.353,0.716,0.486,1.46C27.394,23.048,27.453,23.134,27.529,23.205z
	 M21.137,14.89c-0.018,0.337,0.039,0.658,0.122,0.931c-0.081-0.104-0.172-0.186-0.267-0.239l-0.619-0.882
	c-0.006-0.05-0.023-0.126-0.035-0.189L21.137,14.89z M16.899,3.974c0.289-0.322,0.508-0.634,0.659-0.936
	c0.032,0.146,0.04,0.295,0.011,0.443c-0.031,0.152,0.015,0.31,0.121,0.423c0.105,0.114,0.26,0.167,0.413,0.149
	c0.264-0.034,0.688-0.186,0.983-0.532c0.032,0.136,0.052,0.29,0.054,0.456c0.003,0.558-0.213,1.046-0.643,1.45
	c-0.034,0.032-0.055,0.071-0.077,0.109l-1.328-0.006c-0.018-0.029-0.03-0.061-0.055-0.086C17.005,5.413,16.291,4.655,16.899,3.974z
	 M18.313,12.742c-0.296-1.47-0.444-1.854-0.471-1.917c-0.063-0.146-0.268-0.267-0.425-0.298c-0.478-0.093-0.517-0.1-0.676-0.978
	c-0.029-0.16-0.042-0.376,0.057-0.502c0.106-0.135,0.325-0.154,0.323-0.154c0.141-0.004,0.273-0.07,0.361-0.18
	c0.088-0.11,0.124-0.253,0.097-0.392l-0.35-1.826l1,0.004l-0.365,2.22c-0.038,0.224,0.091,0.44,0.302,0.523
	c0.031,0.013,0.064,0.021,0.097,0.027c-0.004,0.063-0.013,0.138-0.027,0.227c-0.008,0.053-0.008,0.109,0.002,0.163
	c0.061,0.335,0.053,0.749,0.014,0.825c-0.108,0.072-0.182,0.184-0.206,0.312c-0.022,0.113-0.093,0.745,0.602,1.996
	c0.634,1.139,0.772,1.938,0.772,2.075c0,0.099,0.031,0.196,0.087,0.277l0.683,0.974c-0.015,0.544-0.129,1.167-0.29,1.439
	c-0.072-0.264-0.179-0.616-0.351-1.079c-0.326-0.881-0.37-1.24-0.37-1.24c-0.007-0.077-0.032-0.151-0.073-0.217
	c-0.509-0.804-0.509-0.804-0.683-1.708L18.313,12.742z M19.96,19.542c-0.002-0.014-0.005-0.028-0.009-0.042
	c-0.036-0.13-0.125-0.239-0.245-0.3c-0.313-0.16-0.456-0.42-0.516-0.708c0.014,0.007,0.027,0.012,0.041,0.019
	c0.086,0.077,0.198,0.124,0.318,0.124c0.016,0,0.033-0.002,0.049-0.004c0.058,0.009,0.121,0.026,0.174,0.026
	c0.205,0,0.372-0.06,0.498-0.131c0.386-0.219,0.601-0.679,0.725-1.158c0.432,0.671,0.641,0.741,0.752,0.773
	c0.016,0.004,0.031,0.001,0.046,0.004c0.313,0.931,1.056,1.599,1.941,1.68l-2.804,2.371c-0.002-0.014-0.001-0.022-0.001-0.022
	c0.005-0.125-0.039-0.248-0.124-0.341c-0.333-0.37-0.229-0.775-0.227-0.785c0.041-0.133,0.022-0.278-0.052-0.396
	c-0.117-0.188-0.205-0.55-0.234-0.735C20.268,19.756,20.122,19.615,19.96,19.542z M20.51,28.396l0.655-1.244l4.225-5.183
	l-2.293,8.029c-0.073,0.256,0.076,0.523,0.332,0.596c0.044,0.014,0.089,0.02,0.133,0.02c0.209,0,0.403-0.138,0.463-0.35l1.862-6.517
	l-0.11,6.313c-0.041,0.016-0.084,0.029-0.121,0.057l-4.211,3.12c0-0.002,0.002-0.004,0.002-0.007v-0.703
	c0-0.095-0.028-0.188-0.081-0.267c-0.442-0.664-0.208-1.611-0.206-1.62c0.022-0.088,0.02-0.183-0.008-0.27L20.51,28.396z
	 M31.353,46.232H17.271v-3.554l1.053-0.532h1.435h0h10.549l1.044,0.486V46.232z"/>
</svg>
