<?xml version="1.0" encoding="utf-8"?>
<!-- Generator: Adobe Illustrator 16.0.0, SVG Export Plug-In . SVG Version: 6.00 Build 0)  -->
<!DOCTYPE svg PUBLIC "-//W3C//DTD SVG 1.1//EN" "http://www.w3.org/Graphics/SVG/1.1/DTD/svg11.dtd">
<svg version="1.1" id="Layer_1" xmlns="http://www.w3.org/2000/svg" xmlns:xlink="http://www.w3.org/1999/xlink" x="0px" y="0px"
	 width="48px" height="48px" viewBox="0 0 48 48" enable-background="new 0 0 48 48" xml:space="preserve">
<g>
	<path fill="#414042" d="M23.19,4.717h1.459c0.276,0,0.5-0.224,0.5-0.5s-0.224-0.5-0.5-0.5H23.19c-0.276,0-0.5,0.224-0.5,0.5
		S22.914,4.717,23.19,4.717z"/>
	<path fill="#414042" d="M23.921,3.467c0.276,0,0.5-0.224,0.5-0.5V1.143c0-0.276-0.224-0.5-0.5-0.5s-0.5,0.224-0.5,0.5v1.824
		C23.421,3.244,23.645,3.467,23.921,3.467z"/>
	<path fill="#414042" d="M37.586,44.746c-0.002-0.022-0.008-0.042-0.013-0.063c-0.02-0.077-0.052-0.146-0.102-0.204
		c-0.004-0.006-0.004-0.014-0.009-0.019c-2.141-2.306-4.034-4.89-5.619-7.664l-0.796-1.564h0.385c0.276,0,0.5-0.224,0.5-0.5
		s-0.224-0.5-0.5-0.5h-0.894l-0.532-1.046c-1.379-3.129-2.129-5.769-2.382-6.736l-0.166-0.776h0.433c0.276,0,0.5-0.224,0.5-0.5
		s-0.224-0.5-0.5-0.5h-0.646l-0.232-1.09C25.814,17.261,25.68,7.93,25.665,6.021c0.196-0.067,0.34-0.248,0.34-0.468
		c0-0.276-0.224-0.5-0.5-0.5h-3.17c-0.276,0-0.5,0.224-0.5,0.5s0.224,0.5,0.5,0.5h0.002c-0.017,1.977-0.155,11.242-1.347,17.52
		l-0.231,1.1h-0.5c-0.276,0-0.5,0.224-0.5,0.5s0.224,0.5,0.5,0.5h0.29l-0.16,0.761c-0.581,2.355-1.387,4.622-2.393,6.729
		l-0.54,1.068h-0.97c-0.276,0-0.5,0.224-0.5,0.5s0.224,0.5,0.5,0.5h0.465l-0.771,1.525c-1.598,2.803-3.496,5.394-5.641,7.703
		c-0.005,0.005-0.004,0.013-0.009,0.019c-0.05,0.058-0.083,0.128-0.102,0.205c-0.005,0.021-0.01,0.04-0.013,0.063
		c-0.002,0.019-0.011,0.034-0.011,0.054v2.074c0,0.276,0.224,0.5,0.5,0.5h5.166c0.276,0,0.5-0.224,0.5-0.5v-1.966
		c0.003-0.014,0.011-0.024,0.013-0.038c0.035-0.243,0.928-5.968,7.422-6.229c6.461,0.26,7.376,5.986,7.412,6.229
		c0.002,0.014,0.01,0.024,0.013,0.037v1.966c0,0.276,0.224,0.5,0.5,0.5h5.166c0.276,0,0.5-0.224,0.5-0.5V44.8
		C37.597,44.781,37.588,44.765,37.586,44.746z M21.971,23.77c1.209-6.372,1.35-15.729,1.366-17.716h1.328
		c0.017,1.987,0.157,11.342,1.368,17.727l0.19,0.893h-4.443L21.971,23.77z M18.894,33.604c1.04-2.178,1.869-4.509,2.47-6.947
		l0.207-0.983h4.867l0.215,1.007c0.264,1.014,1.031,3.715,2.451,6.934l0.314,0.618h-1.61l-0.209-0.567
		c-0.555-1.488-1.313-3.527-1.913-6.381c-0.049-0.231-0.253-0.397-0.489-0.397h-2.344c-0.237,0-0.442,0.167-0.49,0.399
		c-0.371,1.803-0.998,3.646-1.604,5.431c-0.173,0.512-0.344,1.017-0.508,1.516h-1.675L18.894,33.604z M26.742,34.231h-5.436
		c0.131-0.396,0.263-0.791,0.399-1.193c0.572-1.684,1.162-3.421,1.55-5.152h1.536c0.599,2.72,1.33,4.679,1.869,6.127L26.742,34.231z
		 M15.571,46.374h-4.166V45.3h4.166V46.374z M23.954,37.642c-6.218,0.251-7.9,5.161-8.27,6.658h-3.653
		c1.888-2.147,3.574-4.516,5.028-7.066l1.012-2.002h11.856l1.038,2.041c1.442,2.525,3.123,4.885,5.006,7.027h-3.653
		C31.946,42.803,30.252,37.893,23.954,37.642z M36.597,46.374h-4.166V45.3h4.166V46.374z"/>
	<path fill="#414042" d="M23.958,19.354c-0.276,0-0.5,0.224-0.5,0.5v3.234c0,0.276,0.224,0.5,0.5,0.5s0.5-0.224,0.5-0.5v-3.234
		C24.458,19.578,24.234,19.354,23.958,19.354z"/>
</g>
</svg>
