<?xml version="1.0" encoding="utf-8"?>
<!-- Generator: Adobe Illustrator 16.0.0, SVG Export Plug-In . SVG Version: 6.00 Build 0)  -->
<!DOCTYPE svg PUBLIC "-//W3C//DTD SVG 1.1//EN" "http://www.w3.org/Graphics/SVG/1.1/DTD/svg11.dtd">
<svg version="1.1" id="Layer_1" xmlns="http://www.w3.org/2000/svg" xmlns:xlink="http://www.w3.org/1999/xlink" x="0px" y="0px"
	 width="48px" height="48px" viewBox="0 0 48 48" enable-background="new 0 0 48 48" xml:space="preserve">
<path fill="#414042" d="M44.602,20.533c0.012-1.681-1.02-2.923-2.465-2.954l-0.283,0.003c0.178-0.327,0.605-1.239,0.34-2.072
	c-0.148-0.469-0.494-0.83-1-1.046c-1.144-0.486-7.59-1.945-9.467-0.958c-0.899-1.092-4.747-0.698-7.134-0.329
	c-2.071-0.725-5.722-0.102-6.972,0.146c-0.113-0.1-0.264-0.155-0.421-0.123c-0.042,0.008-0.105,0.023-0.189,0.046
	c-0.498,0.128-2.012,0.519-3.999,0.091c-2.343-0.506-5.642,1.171-6.256,1.498c-0.301,0.045-0.544,0.237-0.688,0.493l-2.251,0.22
	c-0.047,0.015-0.33,0.015-0.546,0.258c-0.237,0.267-0.315,0.679-0.239,1.262c0.016,0.125,0.028,0.246,0.04,0.361
	c0.049,0.502,0.1,1.021,0.507,1.347c0.094,0.075,0.206,0.126,0.325,0.168c-0.068,0.186-0.118,0.38-0.13,0.586
	c-0.187,0.434-0.709,1.991,0.182,4.309c0.734,1.909-0.702,6.632-1.316,8.291c-0.021,0.056-0.031,0.114-0.031,0.174
	c0,1.144,0.93,2.074,2.061,2.074l3.008,0.068c0.004,0,0.007,0,0.011,0c1.111,0,2.021-0.877,2.072-1.974
	c0.42-1.199,0.084-3.935,0.007-4.504c0.582-3.93-0.058-8.084-0.079-8.183c0-0.714-0.363-1.346-0.905-1.718l6.076-0.672
	c-0.081,0.196-0.13,0.406-0.128,0.628c-0.007,0.038-0.732,3.784-0.948,7.679l-0.091,1.555c-0.165,2.764-0.241,4.025,0.09,5.89
	c0,1.144,0.93,2.074,2.072,2.074c0.009,0,0.017,0,0.026-0.001l4.064-0.21c1.142,0,2.07-0.93,2.07-2.087l-0.445-14.804
	c0-0.353-0.093-0.666-0.249-0.937c1.461,0.009,3.202,0.01,5.053-0.013c-0.147,0.282-0.239,0.597-0.238,0.933l-0.691,14.7
	c0,1.144,0.932,2.074,2.074,2.074h4.98c1.119,0,2.035-0.894,2.072-2.005c0.111-0.473-0.008-1.118-0.166-1.996
	c-0.201-1.101-0.451-2.471-0.242-3.729c0.395-2.365-0.598-8.823-0.635-9.021c0-0.282-0.058-0.551-0.16-0.797l5.49,0.785
	c-0.973,0.33-1.973,0.877-2.076,1.643c-0.156,0.354-0.521,1.48-0.086,3.563c0.393,1.886,0.264,2.179-0.359,3.587l-0.283,0.647
	c-0.861,2.002-0.182,4.245-0.035,4.679c0.172,1.738,3.637,1.738,4.787,1.738c0.02,0,0.039-0.001,0.059-0.003l2.512-0.298
	c1.156,0,2.02-1.315,2.02-2.529L44.602,20.533z M40.801,15.385c0.314,0.134,0.402,0.309,0.439,0.428
	c0.148,0.46-0.17,1.139-0.305,1.361c-0.049,0.078,0.027,0.147,0.027,0.238l-8.972-1.279c-0.15-0.041-0.306-0.067-0.468-0.073
	c-0.014-0.107-0.076-0.826,0.629-1.652C32.76,13.699,39.025,14.629,40.801,15.385z M12.801,14.316
	c1.695,0.365,3.074,0.198,3.88,0.034c-0.063,0.477-0.033,1.154,0.371,1.804l-10.12,1.147l-0.027-1.349
	c0.014-0.042,0.015-0.087,0.017-0.133C7,15.817,7.077,15.8,7.145,15.763C7.18,15.743,10.638,13.85,12.801,14.316z M4.013,16.533
	l1.919-0.186v0.955c0,0.103,0.027,0.196,0.055,0.288l-0.145-0.011c-0.483,0-0.923,0.173-1.276,0.452
	c-0.271,0.018-0.355-0.029-0.363-0.035c-0.077-0.062-0.111-0.409-0.136-0.663c-0.012-0.125-0.025-0.257-0.043-0.394
	C3.997,16.731,4.002,16.604,4.013,16.533z M8.8,32.186c-0.025,0.061-0.038,0.126-0.038,0.191c0,0.589-0.479,1.068-1.069,1.071
	L4.68,33.38c-0.564,0-1.028-0.438-1.069-0.994c0.297-0.822,2.241-6.397,1.278-8.904c-0.859-2.232-0.206-3.543-0.179-3.594
	c0.04-0.073,0.06-0.155,0.06-0.238c0-0.59,0.481-1.07,1.034-1.071l1.812,0.136c0.591,0,1.072,0.482,1.078,1.152
	c0.007,0.042,0.651,4.228,0.074,8.026c-0.007,0.048-0.008,0.097-0.001,0.145C8.938,29.26,9.098,31.468,8.8,32.186z M19.918,34.014
	l-4.076,0.21c-0.586-0.007-1.061-0.486-1.068-1.16c-0.319-1.835-0.25-2.979-0.084-5.744l0.091-1.559
	c0.212-3.824,0.924-7.506,0.94-7.639c0-0.606,0.553-0.879,1.102-0.879h2.705c0.503,0,1.041,0.231,1.041,0.895l0.445,14.803
	C21.014,33.531,20.534,34.013,19.918,34.014z M18.157,16.149c-0.003-0.111-0.036-0.221-0.114-0.312
	c-0.461-0.532-0.419-1.167-0.349-1.507c1.067-0.215,4.828-0.892,6.666-0.173c0.082,0.031,0.172,0.043,0.26,0.028
	c3.033-0.479,5.984-0.513,6.324-0.074c0.023,0.052,0.059,0.094,0.097,0.133c-0.488,0.783-0.533,1.477-0.518,1.808h-2.317
	c-0.215,0-0.419,0.042-0.614,0.104C23.553,16.225,19.82,16.177,18.157,16.149z M32.533,18.206c0.01,0.065,1.012,6.57,0.643,8.779
	c-0.238,1.431,0.029,2.896,0.244,4.073c0.121,0.666,0.246,1.355,0.172,1.603c-0.014,0.047-0.021,0.096-0.021,0.145
	c0,0.593-0.48,1.074-1.072,1.074h-4.98c-0.592,0-1.074-0.481-1.074-1.051l0.689-14.7c0-0.436,0.264-0.809,0.637-0.978
	c1.154-0.021,2.327-0.053,3.478-0.098h0.172l0.118,0.017C32.089,17.115,32.527,17.569,32.533,18.206z M37.012,32.115
	C37.01,32.063,37,32.011,36.98,31.961c-0.008-0.021-0.791-2.191-0.008-4.01l0.277-0.638c0.699-1.582,0.863-2.082,0.424-4.195
	c-0.43-2.055,0.033-2.979,0.033-2.981c0.043-0.075,0.064-0.154,0.064-0.24c0.054-0.282,0.998-0.737,1.867-0.983
	c-0.077,0.197-0.132,0.404-0.145,0.624c-0.158,0.366-0.508,1.491-0.078,3.55c0.391,1.89,0.262,2.183-0.363,3.591l-0.281,0.642
	c-0.854,1.988-0.193,4.209-0.039,4.67c0.014,0.326,0.11,0.628,0.258,0.897C37.065,32.676,37.014,32.144,37.012,32.115z
	 M43.316,32.676l-2.534,0.298c-0.002,0-0.003,0-0.005,0c-0.579-0.016-1.047-0.491-1.047-1.074c0-0.059-0.01-0.117-0.029-0.172
	c-0.01-0.022-0.789-2.201-0.012-4.014l0.277-0.631c0.701-1.582,0.867-2.083,0.428-4.199c-0.43-2.058,0.031-2.982,0.033-2.984
	c0.041-0.074,0.063-0.158,0.063-0.244c0-0.59,0.482-1.069,1.08-1.069l0.563-0.007c1.018,0.022,1.475,1.025,1.471,1.988l0.791,10.613
	C44.395,31.832,43.9,32.673,43.316,32.676z"/>
</svg>
