<?xml version="1.0" encoding="utf-8"?>
<!-- Generator: Adobe Illustrator 16.0.0, SVG Export Plug-In . SVG Version: 6.00 Build 0)  -->
<!DOCTYPE svg PUBLIC "-//W3C//DTD SVG 1.1//EN" "http://www.w3.org/Graphics/SVG/1.1/DTD/svg11.dtd">
<svg version="1.1" id="Layer_1" xmlns="http://www.w3.org/2000/svg" xmlns:xlink="http://www.w3.org/1999/xlink" x="0px" y="0px"
	 width="48px" height="48px" viewBox="0 0 48 48" enable-background="new 0 0 48 48" xml:space="preserve">
<path fill="#414042" d="M42.509,24.248L24.373,4.029c-0.189-0.211-0.555-0.211-0.744,0L5.42,24.328
	c-0.132,0.147-0.165,0.357-0.085,0.538c0.081,0.18,0.26,0.296,0.457,0.296h8.625v18.476c0,0.276,0.224,0.5,0.5,0.5h18.188
	c0.276,0,0.5-0.224,0.5-0.5V25.162h8.604c0.008,0.001,0.015,0.001,0.02,0c0.276,0,0.5-0.224,0.5-0.5
	C42.729,24.49,42.642,24.338,42.509,24.248z M33.104,24.162c-0.276,0-0.5,0.224-0.5,0.5v18.476H15.417V24.662
	c0-0.276-0.224-0.5-0.5-0.5H6.912l17.089-19.05l17.088,19.05H33.104z"/>
</svg>
