<?xml version="1.0" encoding="utf-8"?>
<!-- Generator: Adobe Illustrator 16.0.0, SVG Export Plug-In . SVG Version: 6.00 Build 0)  -->
<!DOCTYPE svg PUBLIC "-//W3C//DTD SVG 1.1//EN" "http://www.w3.org/Graphics/SVG/1.1/DTD/svg11.dtd">
<svg version="1.1" id="Layer_1" xmlns="http://www.w3.org/2000/svg" xmlns:xlink="http://www.w3.org/1999/xlink" x="0px" y="0px"
	 width="48px" height="48px" viewBox="0 0 48 48" enable-background="new 0 0 48 48" xml:space="preserve">
<path fill="#414042" d="M42.666,23.135c-0.081-0.18-0.26-0.296-0.457-0.296h-8.605V4.363c0-0.276-0.224-0.5-0.5-0.5H14.916
	c-0.276,0-0.5,0.224-0.5,0.5v18.476H5.791c-0.197,0-0.376,0.116-0.457,0.296c-0.08,0.181-0.047,0.391,0.085,0.538l18.209,20.299
	c0.095,0.105,0.23,0.166,0.372,0.166s0.277-0.061,0.372-0.166l18.209-20.299C42.713,23.525,42.746,23.315,42.666,23.135z M24,42.889
	L6.911,23.839h8.005c0.276,0,0.5-0.224,0.5-0.5V4.863h17.188v18.476c0,0.276,0.224,0.5,0.5,0.5h7.985L24,42.889z"/>
</svg>
