<?xml version="1.0" encoding="utf-8"?>
<!-- Generator: Adobe Illustrator 16.0.0, SVG Export Plug-In . SVG Version: 6.00 Build 0)  -->
<!DOCTYPE svg PUBLIC "-//W3C//DTD SVG 1.1//EN" "http://www.w3.org/Graphics/SVG/1.1/DTD/svg11.dtd">
<svg version="1.1" id="Layer_1" xmlns="http://www.w3.org/2000/svg" xmlns:xlink="http://www.w3.org/1999/xlink" x="0px" y="0px"
	 width="48px" height="48px" viewBox="0 0 48 48" enable-background="new 0 0 48 48" xml:space="preserve">
<g>
	<path fill="#414042" d="M5.956,4.35c-0.276,0-0.5,0.224-0.5,0.5V43.15c0,0.276,0.224,0.5,0.5,0.5s0.5-0.224,0.5-0.5V4.85
		C6.456,4.573,6.232,4.35,5.956,4.35z"/>
	<path fill="#414042" d="M42.044,23.936H15.25l11.271-13.809c0.174-0.214,0.143-0.529-0.071-0.704
		c-0.214-0.173-0.528-0.143-0.704,0.071L13.809,24.119c-0.007,0.008-0.004,0.02-0.01,0.028c-0.06,0.083-0.103,0.179-0.103,0.289
		s0.042,0.206,0.103,0.289c0.006,0.008,0.003,0.02,0.01,0.028l11.225,13.756c0.1,0.121,0.243,0.184,0.388,0.184
		c0.111,0,0.224-0.037,0.316-0.112c0.214-0.175,0.245-0.49,0.071-0.704L15.25,24.936h26.794c0.276,0,0.5-0.224,0.5-0.5
		S42.32,23.936,42.044,23.936z"/>
</g>
</svg>
