<?xml version="1.0" encoding="utf-8"?>
<!-- Generator: Adobe Illustrator 16.0.0, SVG Export Plug-In . SVG Version: 6.00 Build 0)  -->
<!DOCTYPE svg PUBLIC "-//W3C//DTD SVG 1.1//EN" "http://www.w3.org/Graphics/SVG/1.1/DTD/svg11.dtd">
<svg version="1.1" id="Layer_1" xmlns="http://www.w3.org/2000/svg" xmlns:xlink="http://www.w3.org/1999/xlink" x="0px" y="0px"
	 width="48px" height="48px" viewBox="0 0 48 48" enable-background="new 0 0 48 48" xml:space="preserve">
<g>
	<path fill="#414042" d="M42.295,4.084c-0.276,0-0.5,0.224-0.5,0.5v38.832c0,0.276,0.224,0.5,0.5,0.5s0.5-0.224,0.5-0.5V4.584
		C42.795,4.308,42.571,4.084,42.295,4.084z"/>
	<path fill="#414042" d="M34.339,24.153c-0.006-0.008-0.003-0.02-0.01-0.028L22.226,9.297c-0.177-0.215-0.491-0.244-0.704-0.071
		C21.308,9.4,21.276,9.716,21.45,9.93l11.438,14.012H5.707c-0.276,0-0.5,0.224-0.5,0.5s0.224,0.5,0.5,0.5h27.181L22.173,38.072
		c-0.174,0.214-0.143,0.529,0.071,0.704c0.093,0.075,0.205,0.112,0.316,0.112c0.145,0,0.288-0.063,0.388-0.184l11.381-13.947
		c0.007-0.008,0.004-0.02,0.01-0.028c0.06-0.083,0.103-0.179,0.103-0.289S34.398,24.235,34.339,24.153z"/>
</g>
</svg>
