<?xml version="1.0" encoding="utf-8"?>
<!-- Generator: Adobe Illustrator 16.0.0, SVG Export Plug-In . SVG Version: 6.00 Build 0)  -->
<!DOCTYPE svg PUBLIC "-//W3C//DTD SVG 1.1//EN" "http://www.w3.org/Graphics/SVG/1.1/DTD/svg11.dtd">
<svg version="1.1" id="Layer_1" xmlns="http://www.w3.org/2000/svg" xmlns:xlink="http://www.w3.org/1999/xlink" x="0px" y="0px"
	 width="48px" height="48px" viewBox="0 0 48 48" enable-background="new 0 0 48 48" xml:space="preserve">
<g>
	<path fill="#414042" d="M23.684,34.937c0.024,0.02,0.052,0.029,0.079,0.044c0.019,0.011,0.036,0.023,0.056,0.032
		c0.059,0.022,0.119,0.036,0.181,0.036s0.123-0.014,0.181-0.036c0.021-0.009,0.037-0.021,0.056-0.032
		c0.027-0.015,0.055-0.024,0.079-0.044l13.433-10.963c0.214-0.175,0.245-0.49,0.071-0.704c-0.176-0.214-0.49-0.244-0.704-0.071
		L24.5,33.495V4.584c0-0.276-0.224-0.5-0.5-0.5s-0.5,0.224-0.5,0.5v28.911L10.884,23.198c-0.213-0.173-0.527-0.143-0.704,0.071
		c-0.174,0.214-0.143,0.529,0.071,0.704L23.684,34.937z"/>
	<path fill="#414042" d="M44.608,35.055c-0.276,0-0.5,0.224-0.5,0.5v7.361H3.892v-7.361c0-0.276-0.224-0.5-0.5-0.5
		s-0.5,0.224-0.5,0.5v7.861c0,0.276,0.224,0.5,0.5,0.5h41.217c0.276,0,0.5-0.224,0.5-0.5v-7.861
		C45.108,35.278,44.885,35.055,44.608,35.055z"/>
</g>
</svg>
