<?xml version="1.0" encoding="utf-8"?>
<!-- Generator: Adobe Illustrator 16.0.0, SVG Export Plug-In . SVG Version: 6.00 Build 0)  -->
<!DOCTYPE svg PUBLIC "-//W3C//DTD SVG 1.1//EN" "http://www.w3.org/Graphics/SVG/1.1/DTD/svg11.dtd">
<svg version="1.1" id="Layer_1" xmlns="http://www.w3.org/2000/svg" xmlns:xlink="http://www.w3.org/1999/xlink" x="0px" y="0px"
	 width="48px" height="48px" viewBox="0 0 48 48" enable-background="new 0 0 48 48" xml:space="preserve">
<path fill="#414042" d="M44.237,23.608L27.22,2.759c-0.177-0.214-0.491-0.244-0.704-0.071c-0.214,0.175-0.245,0.49-0.071,0.704
	l16.414,20.109H4.15c-0.276,0-0.5,0.224-0.5,0.5s0.224,0.5,0.5,0.5h38.706L26.444,44.608c-0.174,0.214-0.143,0.529,0.071,0.704
	c0.093,0.075,0.205,0.112,0.316,0.112c0.145,0,0.288-0.063,0.388-0.184l17.018-20.85c0.072-0.09,0.112-0.201,0.112-0.316v-0.15
	C44.35,23.81,44.31,23.698,44.237,23.608z"/>
</svg>
