<?xml version="1.0" encoding="utf-8"?>
<!-- Generator: Adobe Illustrator 16.0.0, SVG Export Plug-In . SVG Version: 6.00 Build 0)  -->
<!DOCTYPE svg PUBLIC "-//W3C//DTD SVG 1.1//EN" "http://www.w3.org/Graphics/SVG/1.1/DTD/svg11.dtd">
<svg version="1.1" id="Layer_1" xmlns="http://www.w3.org/2000/svg" xmlns:xlink="http://www.w3.org/1999/xlink" x="0px" y="0px"
	 width="48px" height="48px" viewBox="0 0 48 48" enable-background="new 0 0 48 48" xml:space="preserve">
<path fill="#414042" d="M43.972,23.628L23.673,5.42c-0.147-0.132-0.357-0.162-0.538-0.085c-0.18,0.081-0.296,0.26-0.296,0.457v8.625
	H4.362c-0.276,0-0.5,0.224-0.5,0.5v18.188c0,0.276,0.224,0.5,0.5,0.5h18.477v8.604c0,0.197,0.116,0.376,0.296,0.457
	c0.065,0.028,0.135,0.043,0.204,0.043c0.121,0,0.24-0.044,0.334-0.128l20.299-18.209c0.105-0.095,0.166-0.23,0.166-0.372
	S44.077,23.723,43.972,23.628z M23.839,41.089v-7.984c0-0.276-0.224-0.5-0.5-0.5H4.862V15.417h18.477c0.276,0,0.5-0.224,0.5-0.5
	V6.912L42.889,24L23.839,41.089z"/>
</svg>
