<?xml version="1.0" encoding="utf-8"?>
<!-- Generator: Adobe Illustrator 16.0.0, SVG Export Plug-In . SVG Version: 6.00 Build 0)  -->
<!DOCTYPE svg PUBLIC "-//W3C//DTD SVG 1.1//EN" "http://www.w3.org/Graphics/SVG/1.1/DTD/svg11.dtd">
<svg version="1.1" id="Layer_1" xmlns="http://www.w3.org/2000/svg" xmlns:xlink="http://www.w3.org/1999/xlink" x="0px" y="0px"
	 width="48px" height="48px" viewBox="0 0 48 48" enable-background="new 0 0 48 48" xml:space="preserve">
<path fill="#414042" d="M43.637,14.417H25.162V5.792c0-0.197-0.116-0.376-0.296-0.457c-0.18-0.079-0.391-0.048-0.538,0.085
	L4.029,23.628C3.924,23.723,3.863,23.858,3.863,24s0.061,0.277,0.166,0.372l20.299,18.209c0.094,0.084,0.213,0.128,0.334,0.128
	c0.069,0,0.139-0.015,0.204-0.043c0.18-0.081,0.296-0.26,0.296-0.457v-8.604h18.475c0.276,0,0.5-0.224,0.5-0.5V14.917
	C44.137,14.641,43.913,14.417,43.637,14.417z M43.137,32.604H24.662c-0.276,0-0.5,0.224-0.5,0.5v7.984L5.112,24l19.05-17.088v8.005
	c0,0.276,0.224,0.5,0.5,0.5h18.475V32.604z"/>
</svg>
