<?xml version="1.0" encoding="utf-8"?>
<!-- Generator: Adobe Illustrator 16.0.0, SVG Export Plug-In . SVG Version: 6.00 Build 0)  -->
<!DOCTYPE svg PUBLIC "-//W3C//DTD SVG 1.1//EN" "http://www.w3.org/Graphics/SVG/1.1/DTD/svg11.dtd">
<svg version="1.1" id="Layer_1" xmlns="http://www.w3.org/2000/svg" xmlns:xlink="http://www.w3.org/1999/xlink" x="0px" y="0px"
	 width="48px" height="48px" viewBox="0 0 48 48" enable-background="new 0 0 48 48" xml:space="preserve">
<g>
	<path fill="#414042" d="M45.53,30.991c0-0.004,0.002-0.008,0.002-0.011c0-0.136-0.056-0.267-0.154-0.361l-6.699-6.426
		c-0.199-0.191-0.516-0.185-0.707,0.016c-0.19,0.199-0.184,0.516,0.016,0.706l5.822,5.586H16.968c-0.276,0-0.5,0.224-0.5,0.5
		s0.224,0.5,0.5,0.5h26.84l-5.82,5.585c-0.2,0.19-0.206,0.507-0.015,0.706c0.098,0.103,0.229,0.154,0.36,0.154
		c0.125,0,0.249-0.046,0.346-0.14l6.699-6.427c0.046-0.043,0.079-0.104,0.105-0.17c0.029-0.064,0.049-0.134,0.049-0.209
		C45.532,30.997,45.53,30.994,45.53,30.991z"/>
	<path fill="#414042" d="M4.192,17.501h26.84c0.276,0,0.5-0.224,0.5-0.5s-0.224-0.5-0.5-0.5H4.19l5.823-5.586
		c0.199-0.19,0.206-0.507,0.016-0.706c-0.192-0.199-0.508-0.206-0.707-0.016l-6.699,6.426c-0.05,0.048-0.088,0.114-0.114,0.186
		c-0.026,0.06-0.04,0.126-0.04,0.196c0,0.003,0.002,0.006,0.002,0.009s-0.002,0.007-0.002,0.01c0,0.136,0.056,0.267,0.154,0.36
		l6.699,6.427c0.097,0.094,0.221,0.14,0.346,0.14c0.132,0,0.263-0.052,0.36-0.154c0.191-0.199,0.186-0.516-0.015-0.706L4.192,17.501
		z"/>
</g>
</svg>
