<?xml version="1.0" encoding="utf-8"?>
<!-- Generator: Adobe Illustrator 16.0.0, SVG Export Plug-In . SVG Version: 6.00 Build 0)  -->
<!DOCTYPE svg PUBLIC "-//W3C//DTD SVG 1.1//EN" "http://www.w3.org/Graphics/SVG/1.1/DTD/svg11.dtd">
<svg version="1.1" id="Layer_1" xmlns="http://www.w3.org/2000/svg" xmlns:xlink="http://www.w3.org/1999/xlink" x="0px" y="0px"
	 width="48px" height="48px" viewBox="0 0 48 48" enable-background="new 0 0 48 48" xml:space="preserve">
<path fill="#414042" d="M30.857,12.97H4.614l5.822-5.584c0.199-0.191,0.206-0.508,0.016-0.707c-0.192-0.2-0.509-0.206-0.707-0.016
	l-6.7,6.426c-0.099,0.095-0.154,0.264-0.154,0.4c0,0.136,0.056,0.267,0.154,0.361l6.7,6.426c0.097,0.093,0.221,0.139,0.346,0.139
	c0.132,0,0.263-0.052,0.361-0.154c0.19-0.199,0.184-0.516-0.016-0.707L4.614,13.97h26.243c7.308,0,13.252,5.945,13.252,13.254
	c0,7.308-5.944,13.252-13.252,13.252H3.625c-0.276,0-0.5,0.224-0.5,0.5s0.224,0.5,0.5,0.5h27.232
	c7.858,0,14.252-6.394,14.252-14.252C45.109,19.364,38.716,12.97,30.857,12.97z"/>
</svg>
