<?xml version="1.0" encoding="utf-8"?>
<!-- Generator: Adobe Illustrator 16.0.0, SVG Export Plug-In . SVG Version: 6.00 Build 0)  -->
<!DOCTYPE svg PUBLIC "-//W3C//DTD SVG 1.1//EN" "http://www.w3.org/Graphics/SVG/1.1/DTD/svg11.dtd">
<svg version="1.1" id="Layer_1" xmlns="http://www.w3.org/2000/svg" xmlns:xlink="http://www.w3.org/1999/xlink" x="0px" y="0px"
	 width="48px" height="48px" viewBox="0 0 48 48" enable-background="new 0 0 48 48" xml:space="preserve">
<path fill="#414042" d="M39.246,26.771c-0.191-0.2-0.508-0.207-0.707-0.018c-0.2,0.19-0.208,0.507-0.018,0.707l4.946,5.192h-9.395
	c-2.271-0.012-4.311-1.03-5.595-2.789L24.323,24l4.151-5.859c1.286-1.765,3.327-2.783,5.596-2.795h9.396l-4.944,5.19
	c-0.19,0.2-0.183,0.517,0.018,0.707c0.097,0.092,0.221,0.138,0.345,0.138c0.132,0,0.264-0.052,0.362-0.155l5.736-6.021
	c0.088-0.093,0.138-0.254,0.138-0.382c0-0.129-0.05-0.252-0.138-0.345l-5.736-6.02c-0.191-0.201-0.508-0.207-0.707-0.018
	c-0.2,0.19-0.208,0.508-0.018,0.707l4.954,5.198h-9.408c-2.592,0.013-4.925,1.182-6.405,3.211l-3.952,5.578l-2.924-4.126
	c-3.335-4.651-8.41-4.705-8.625-4.705H3.38c-0.276,0-0.5,0.224-0.5,0.5s0.224,0.5,0.5,0.5h8.78c0.048,0,4.786,0.065,7.812,4.285
	L23.097,24l-3.124,4.409c-3.027,4.222-7.766,4.287-7.813,4.287H3.38c-0.276,0-0.5,0.224-0.5,0.5s0.224,0.5,0.5,0.5h8.781
	c0.215,0,5.29-0.054,8.627-4.707l2.922-4.124l3.956,5.583c1.478,2.023,3.811,3.192,6.404,3.205h9.403l-4.952,5.198
	c-0.19,0.2-0.183,0.517,0.018,0.707c0.097,0.092,0.221,0.138,0.345,0.138c0.132,0,0.264-0.052,0.362-0.155l5.736-6.021
	c0.088-0.093,0.138-0.254,0.138-0.382s-0.05-0.252-0.138-0.345L39.246,26.771z"/>
</svg>
