<?xml version="1.0" encoding="utf-8"?>
<!-- Generator: Adobe Illustrator 16.0.0, SVG Export Plug-In . SVG Version: 6.00 Build 0)  -->
<!DOCTYPE svg PUBLIC "-//W3C//DTD SVG 1.1//EN" "http://www.w3.org/Graphics/SVG/1.1/DTD/svg11.dtd">
<svg version="1.1" id="Layer_1" xmlns="http://www.w3.org/2000/svg" xmlns:xlink="http://www.w3.org/1999/xlink" x="0px" y="0px"
	 width="48px" height="48px" viewBox="0 0 48 48" enable-background="new 0 0 48 48" xml:space="preserve">
<g>
	<path fill="#414042" d="M19.85,10.213c0.99,0,1.795-0.805,1.795-1.795S20.84,6.623,19.85,6.623c-0.988,0-1.793,0.805-1.793,1.795
		S18.861,10.213,19.85,10.213z"/>
	<path fill="#414042" d="M24.16,11.367c-0.99,0-1.795,0.805-1.795,1.793c0,0.99,0.805,1.795,1.795,1.795
		c0.988,0,1.793-0.805,1.793-1.795C25.953,12.172,25.148,11.367,24.16,11.367z"/>
	<circle fill="#414042" cx="28.467" cy="17.583" r="1.794"/>
	<circle fill="#414042" cx="32.49" cy="23.607" r="1.795"/>
	<circle fill="#414042" cx="28.467" cy="29.721" r="1.795"/>
	<circle fill="#414042" cx="24.158" cy="34.186" r="1.795"/>
	<circle fill="#414042" cx="19.992" cy="38.735" r="1.794"/>
	<circle fill="#414042" cx="15.508" cy="43.671" r="1.794"/>
	<circle fill="#414042" cx="15.508" cy="4.329" r="1.794"/>
</g>
</svg>
