<?xml version="1.0" encoding="utf-8"?>
<!-- Generator: Adobe Illustrator 16.0.0, SVG Export Plug-In . SVG Version: 6.00 Build 0)  -->
<!DOCTYPE svg PUBLIC "-//W3C//DTD SVG 1.1//EN" "http://www.w3.org/Graphics/SVG/1.1/DTD/svg11.dtd">
<svg version="1.1" id="Layer_1" xmlns="http://www.w3.org/2000/svg" xmlns:xlink="http://www.w3.org/1999/xlink" x="0px" y="0px"
	 width="48px" height="48px" viewBox="0 0 48 48" enable-background="new 0 0 48 48" xml:space="preserve">
<path fill="#414042" d="M45.274,24.988L24.632,11.887c-0.153-0.099-0.35-0.104-0.509-0.017c-0.159,0.088-0.259,0.256-0.259,0.438
	v12.654L3.261,11.887c-0.153-0.099-0.35-0.104-0.509-0.017c-0.159,0.088-0.259,0.256-0.259,0.438v23.383
	c0,0.173,0.09,0.334,0.236,0.425c0.081,0.05,0.172,0.075,0.264,0.075c0.076,0,0.152-0.018,0.223-0.053L23.86,25.857
	c0.001-0.001,0.002-0.003,0.004-0.004v9.838c0,0.173,0.09,0.334,0.236,0.425c0.081,0.05,0.172,0.075,0.264,0.075
	c0.076,0,0.152-0.018,0.223-0.053l20.643-10.281c0.162-0.08,0.268-0.241,0.276-0.422C45.516,25.256,45.427,25.085,45.274,24.988z
	 M3.493,34.884V13.218l19.129,12.14L3.493,34.884z M24.864,34.884V13.218l19.127,12.14L24.864,34.884z"/>
</svg>
