<?xml version="1.0" encoding="utf-8"?>
<!-- Generator: Adobe Illustrator 16.0.0, SVG Export Plug-In . SVG Version: 6.00 Build 0)  -->
<!DOCTYPE svg PUBLIC "-//W3C//DTD SVG 1.1//EN" "http://www.w3.org/Graphics/SVG/1.1/DTD/svg11.dtd">
<svg version="1.1" id="Layer_1" xmlns="http://www.w3.org/2000/svg" xmlns:xlink="http://www.w3.org/1999/xlink" x="0px" y="0px"
	 width="48px" height="48px" viewBox="0 0 48 48" enable-background="new 0 0 48 48" xml:space="preserve">
<g>
	<path fill="#414042" d="M15.411,11.072H7.697c-0.276,0-0.5,0.224-0.5,0.5v24.855c0,0.276,0.224,0.5,0.5,0.5h7.714
		c0.276,0,0.5-0.224,0.5-0.5V11.572C15.911,11.296,15.688,11.072,15.411,11.072z M14.911,35.928H8.197V12.072h6.714V35.928z"/>
	<path fill="#414042" d="M40.544,11.134c-0.16-0.087-0.356-0.082-0.509,0.017L18.091,25.076c-0.152,0.097-0.241,0.268-0.231,0.447
		c0.009,0.181,0.114,0.342,0.276,0.422l21.944,10.93c0.07,0.035,0.146,0.053,0.223,0.053c0.092,0,0.183-0.025,0.264-0.075
		c0.146-0.091,0.236-0.252,0.236-0.425V11.572C40.803,11.39,40.703,11.222,40.544,11.134z M39.803,35.62L19.374,25.445
		l20.429-12.964V35.62z"/>
</g>
</svg>
