<?xml version="1.0" encoding="utf-8"?>
<!-- Generator: Adobe Illustrator 16.0.0, SVG Export Plug-In . SVG Version: 6.00 Build 0)  -->
<!DOCTYPE svg PUBLIC "-//W3C//DTD SVG 1.1//EN" "http://www.w3.org/Graphics/SVG/1.1/DTD/svg11.dtd">
<svg version="1.1" id="Layer_1" xmlns="http://www.w3.org/2000/svg" xmlns:xlink="http://www.w3.org/1999/xlink" x="0px" y="0px"
	 width="48px" height="48px" viewBox="0 0 48 48" enable-background="new 0 0 48 48" xml:space="preserve">
<g>
	<path fill="#414042" d="M40.303,11.072h-7.714c-0.276,0-0.5,0.224-0.5,0.5v24.856c0,0.276,0.224,0.5,0.5,0.5h7.714
		c0.276,0,0.5-0.224,0.5-0.5V11.572C40.803,11.296,40.579,11.072,40.303,11.072z M39.803,35.929h-6.714V12.072h6.714V35.929z"/>
	<path fill="#414042" d="M7.965,11.15c-0.154-0.098-0.35-0.104-0.509-0.017c-0.159,0.088-0.259,0.256-0.259,0.438v24.856
		c0,0.173,0.09,0.334,0.236,0.425c0.081,0.05,0.172,0.075,0.264,0.075c0.076,0,0.152-0.018,0.223-0.053l21.944-10.93
		c0.162-0.08,0.268-0.241,0.276-0.422c0.01-0.18-0.079-0.351-0.231-0.447L7.965,11.15z M8.197,35.621v-23.14l20.429,12.965
		L8.197,35.621z"/>
</g>
</svg>
