<?xml version="1.0" encoding="utf-8"?>
<!-- Generator: Adobe Illustrator 16.0.0, SVG Export Plug-In . SVG Version: 6.00 Build 0)  -->
<!DOCTYPE svg PUBLIC "-//W3C//DTD SVG 1.1//EN" "http://www.w3.org/Graphics/SVG/1.1/DTD/svg11.dtd">
<svg version="1.1" id="Layer_1" xmlns="http://www.w3.org/2000/svg" xmlns:xlink="http://www.w3.org/1999/xlink" x="0px" y="0px"
	 width="48px" height="48px" viewBox="0 0 48 48" enable-background="new 0 0 48 48" xml:space="preserve">
<path fill="#414042" d="M36.258,25.215L12.277,9.996c-0.153-0.098-0.35-0.104-0.509-0.017c-0.159,0.088-0.259,0.256-0.259,0.438
	v27.164c0,0.173,0.09,0.334,0.237,0.425c0.08,0.05,0.171,0.075,0.263,0.075c0.076,0,0.152-0.018,0.223-0.053l23.98-11.945
	c0.162-0.08,0.268-0.241,0.276-0.422C36.499,25.482,36.41,25.312,36.258,25.215z M12.51,36.774V11.327l22.465,14.257L12.51,36.774z"
	/>
</svg>
