<?xml version="1.0" encoding="utf-8"?>
<!-- Generator: Adobe Illustrator 16.0.0, SVG Export Plug-In . SVG Version: 6.00 Build 0)  -->
<!DOCTYPE svg PUBLIC "-//W3C//DTD SVG 1.1//EN" "http://www.w3.org/Graphics/SVG/1.1/DTD/svg11.dtd">
<svg version="1.1" id="Layer_1" xmlns="http://www.w3.org/2000/svg" xmlns:xlink="http://www.w3.org/1999/xlink" x="0px" y="0px"
	 width="48px" height="48px" viewBox="0 0 48 48" enable-background="new 0 0 48 48" xml:space="preserve">
<g>
	<path fill="#414042" d="M21.612,10.69h-7.95c-0.276,0-0.5,0.224-0.5,0.5V36.81c0,0.276,0.224,0.5,0.5,0.5h7.95
		c0.276,0,0.5-0.224,0.5-0.5V11.19C22.112,10.914,21.889,10.69,21.612,10.69z M21.112,36.31h-6.95V11.69h6.95V36.31z"/>
	<path fill="#414042" d="M34.338,10.69h-7.952c-0.276,0-0.5,0.224-0.5,0.5V36.81c0,0.276,0.224,0.5,0.5,0.5h7.952
		c0.276,0,0.5-0.224,0.5-0.5V11.19C34.838,10.914,34.614,10.69,34.338,10.69z M33.838,36.31h-6.952V11.69h6.952V36.31z"/>
</g>
</svg>
