<?xml version="1.0" encoding="utf-8"?>
<!-- Generator: Adobe Illustrator 16.0.0, SVG Export Plug-In . SVG Version: 6.00 Build 0)  -->
<!DOCTYPE svg PUBLIC "-//W3C//DTD SVG 1.1//EN" "http://www.w3.org/Graphics/SVG/1.1/DTD/svg11.dtd">
<svg version="1.1" id="Layer_1" xmlns="http://www.w3.org/2000/svg" xmlns:xlink="http://www.w3.org/1999/xlink" x="0px" y="0px"
	 width="48px" height="48px" viewBox="0 0 48 48" enable-background="new 0 0 48 48" xml:space="preserve">
<g>
	<path fill="#414042" d="M22.254,11.77c-0.001-0.024-0.007-0.046-0.012-0.07c-0.005-0.026-0.009-0.052-0.018-0.078
		c-0.006-0.016-0.012-0.031-0.02-0.046c-0.003-0.006-0.002-0.013-0.006-0.019c-0.007-0.014-0.02-0.021-0.028-0.034
		c-0.014-0.021-0.027-0.043-0.044-0.063c-0.012-0.014-0.025-0.025-0.039-0.038c-0.019-0.017-0.039-0.029-0.059-0.042
		c-0.014-0.009-0.022-0.022-0.037-0.03l-6.754-3.57c-0.242-0.127-0.546-0.036-0.676,0.209c-0.129,0.244-0.035,0.546,0.209,0.676
		l4.971,2.628H6.698c-2.819,0-5.113,2.295-5.113,5.115v15.5c0,2.819,2.294,5.113,5.113,5.113h14.131c0.276,0,0.5-0.224,0.5-0.5
		s-0.224-0.5-0.5-0.5H6.698c-2.269,0-4.113-1.845-4.113-4.113v-15.5c0-2.27,1.845-4.115,4.113-4.115h13.067l-4.917,2.63
		c-0.244,0.13-0.336,0.433-0.205,0.676c0.09,0.169,0.263,0.265,0.44,0.265c0.08,0,0.161-0.019,0.235-0.06l6.676-3.57
		c0.003-0.002,0.005-0.005,0.009-0.007c0.014-0.007,0.023-0.021,0.036-0.029c0.001-0.001,0.002-0.002,0.003-0.002
		c0.031-0.022,0.061-0.043,0.086-0.071c0.02-0.022,0.033-0.046,0.048-0.071c0.007-0.01,0.019-0.015,0.024-0.025
		c0.003-0.006,0.003-0.014,0.006-0.021c0.007-0.015,0.012-0.029,0.018-0.044c0.009-0.025,0.013-0.05,0.018-0.076
		c0.004-0.024,0.011-0.048,0.012-0.073c0-0.007,0.004-0.013,0.004-0.02C22.259,11.784,22.255,11.778,22.254,11.77z"/>
	<path fill="#414042" d="M41.304,11.292h-14.42c-0.276,0-0.5,0.224-0.5,0.5s0.224,0.5,0.5,0.5h14.42
		c2.269,0,4.113,1.846,4.113,4.115v15.5c0,2.269-1.845,4.113-4.113,4.113H26.709l4.918-2.94c0.236-0.142,0.314-0.448,0.172-0.686
		c-0.142-0.237-0.449-0.315-0.686-0.172l-6.471,3.869c-0.014,0.008-0.021,0.021-0.034,0.031c-0.017,0.012-0.035,0.021-0.051,0.036
		c-0.013,0.013-0.022,0.027-0.035,0.042c-0.019,0.021-0.034,0.045-0.048,0.069c-0.008,0.014-0.021,0.022-0.027,0.037
		c-0.001,0.003-0.001,0.006-0.002,0.009c-0.007,0.015-0.009,0.031-0.014,0.047c-0.01,0.029-0.015,0.059-0.02,0.089
		c-0.003,0.02-0.01,0.039-0.01,0.059c0,0.004-0.002,0.007-0.002,0.01c0,0.012,0.006,0.021,0.007,0.033
		c0.002,0.028,0.008,0.055,0.014,0.082c0.005,0.022,0.007,0.045,0.016,0.066c0.006,0.016,0.016,0.029,0.024,0.044
		c0.005,0.011,0.005,0.021,0.011,0.031c0.006,0.011,0.018,0.014,0.024,0.023c0.015,0.021,0.025,0.043,0.043,0.062
		c0.025,0.027,0.057,0.045,0.088,0.065c0.016,0.011,0.028,0.025,0.045,0.034c0.006,0.003,0.009,0.008,0.015,0.011l0.018,0.009
		c0,0,0,0,0,0l6.913,3.249c0.069,0.032,0.142,0.048,0.213,0.048c0.188,0,0.367-0.106,0.452-0.287
		c0.118-0.25,0.011-0.548-0.239-0.665l-4.905-2.306h14.165c2.819,0,5.113-2.294,5.113-5.113v-15.5
		C46.417,13.587,44.123,11.292,41.304,11.292z"/>
</g>
</svg>
