<?xml version="1.0" encoding="utf-8"?>
<!-- Generator: Adobe Illustrator 16.0.0, SVG Export Plug-In . SVG Version: 6.00 Build 0)  -->
<!DOCTYPE svg PUBLIC "-//W3C//DTD SVG 1.1//EN" "http://www.w3.org/Graphics/SVG/1.1/DTD/svg11.dtd">
<svg version="1.1" id="Layer_1" xmlns="http://www.w3.org/2000/svg" xmlns:xlink="http://www.w3.org/1999/xlink" x="0px" y="0px"
	 width="48px" height="48px" viewBox="0 0 48 48" enable-background="new 0 0 48 48" xml:space="preserve">
<g>
	<path fill="#414042" d="M44.286,35.399l-2.791-6.742c-0.056-0.135-0.168-0.238-0.307-0.284c-0.14-0.046-0.291-0.027-0.415,0.049
		l-6.654,4.053c-0.236,0.144-0.311,0.451-0.167,0.687c0.144,0.236,0.452,0.311,0.687,0.167l5.457-3.323
		c-0.441,2.123-2.435,4.689-2.457,4.717c-3.424,4.331-8.566,6.814-14.107,6.814c-7.961,0-15.05-5.3-17.239-12.891
		c-0.076-0.261-0.164-0.61-0.172-0.72c-0.021-0.277-0.291-0.484-0.537-0.461c-0.275,0.021-0.481,0.262-0.461,0.537
		c0.021,0.263,0.166,0.774,0.21,0.923c2.312,8.014,9.795,13.611,18.199,13.611c5.849,0,11.277-2.622,14.894-7.195
		c0.097-0.124,2.133-2.74,2.644-5.102l2.294,5.543c0.08,0.192,0.266,0.309,0.462,0.309c0.063,0,0.129-0.012,0.191-0.038
		C44.271,35.947,44.392,35.654,44.286,35.399z"/>
	<path fill="#414042" d="M5.658,18.817c0.016,0.047,0.041,0.087,0.068,0.126c0.012,0.017,0.019,0.036,0.032,0.051
		c0.046,0.051,0.101,0.094,0.165,0.123c0.001,0,0.001,0.001,0.002,0.001c0.014,0.006,0.03,0.004,0.044,0.009
		c0.046,0.016,0.093,0.032,0.145,0.034c0.003,0,0.005-0.001,0.008-0.001c0.002,0,0.004,0.001,0.007,0.001
		c0.017,0,0.033-0.01,0.05-0.012c0.053-0.006,0.104-0.014,0.151-0.035c0.006-0.003,0.013-0.001,0.019-0.004l7.434-3.646
		c0.248-0.122,0.351-0.422,0.229-0.669c-0.122-0.25-0.424-0.35-0.669-0.229l-6.582,3.229c0.52-2.08,2.394-4.488,2.415-4.514
		c3.427-4.332,8.569-6.816,14.107-6.816c7.961,0,15.05,5.301,17.239,12.894c0.076,0.26,0.165,0.609,0.175,0.721
		c0.021,0.261,0.24,0.458,0.497,0.458c0.015,0,0.029-0.001,0.043-0.002c0.275-0.023,0.479-0.265,0.456-0.54
		c-0.022-0.268-0.181-0.813-0.211-0.917c-2.312-8.016-9.796-13.613-18.199-13.613c-5.846,0-11.274,2.623-14.894,7.197
		c-0.082,0.104-1.546,1.984-2.309,3.988L4.657,11.6c-0.075-0.266-0.351-0.42-0.617-0.346c-0.266,0.075-0.421,0.352-0.346,0.617
		l1.953,6.926C5.649,18.804,5.656,18.81,5.658,18.817z"/>
</g>
</svg>
