<?xml version="1.0" encoding="utf-8"?>
<!-- Generator: Adobe Illustrator 16.0.0, SVG Export Plug-In . SVG Version: 6.00 Build 0)  -->
<!DOCTYPE svg PUBLIC "-//W3C//DTD SVG 1.1//EN" "http://www.w3.org/Graphics/SVG/1.1/DTD/svg11.dtd">
<svg version="1.1" id="Layer_1" xmlns="http://www.w3.org/2000/svg" xmlns:xlink="http://www.w3.org/1999/xlink" x="0px" y="0px"
	 width="48px" height="48px" viewBox="0 0 48 48" enable-background="new 0 0 48 48" xml:space="preserve">
<path fill="#414042" d="M45.712,23.603l-3.305-2.521c-0.15-0.114-0.354-0.134-0.525-0.051c-0.171,0.084-0.278,0.258-0.278,0.448
	V23.5H24.5V6.396h2.021c0.19,0,0.364-0.107,0.448-0.278c0.084-0.17,0.064-0.374-0.051-0.525l-2.522-3.305
	c-0.189-0.248-0.605-0.247-0.795,0.001l-2.52,3.305c-0.115,0.15-0.135,0.354-0.051,0.524c0.085,0.171,0.258,0.278,0.448,0.278H23.5
	V23.5H6.397v-2.021c0-0.19-0.107-0.364-0.278-0.448s-0.375-0.064-0.525,0.051l-3.306,2.521C2.164,23.697,2.092,23.844,2.092,24
	s0.073,0.303,0.197,0.397l3.306,2.52c0.089,0.068,0.195,0.103,0.303,0.103c0.075,0,0.151-0.018,0.222-0.052
	c0.171-0.085,0.278-0.258,0.278-0.448V24.5H23.5v17.104h-2.021c-0.19,0-0.363,0.107-0.448,0.278
	c-0.084,0.17-0.064,0.374,0.051,0.524l2.52,3.305c0.095,0.124,0.241,0.197,0.397,0.197s0.303-0.072,0.397-0.196l2.522-3.305
	c0.115-0.151,0.135-0.355,0.051-0.525c-0.084-0.171-0.258-0.278-0.448-0.278H24.5V24.5h17.104v2.02c0,0.19,0.107,0.363,0.278,0.448
	c0.07,0.034,0.146,0.052,0.222,0.052c0.107,0,0.215-0.035,0.303-0.103l3.305-2.52c0.124-0.095,0.197-0.241,0.197-0.397
	S45.836,23.697,45.712,23.603z M23.998,3.416l1.512,1.98h-3.021L23.998,3.416z M5.397,25.51L3.416,24l1.981-1.512V25.51z
	 M23.998,44.584l-1.51-1.98h3.021L23.998,44.584z M42.604,25.51v-3.021L44.584,24L42.604,25.51z"/>
</svg>
