<?xml version="1.0" encoding="utf-8"?>
<!-- Generator: Adobe Illustrator 16.0.0, SVG Export Plug-In . SVG Version: 6.00 Build 0)  -->
<!DOCTYPE svg PUBLIC "-//W3C//DTD SVG 1.1//EN" "http://www.w3.org/Graphics/SVG/1.1/DTD/svg11.dtd">
<svg version="1.1" id="Layer_1" xmlns="http://www.w3.org/2000/svg" xmlns:xlink="http://www.w3.org/1999/xlink" x="0px" y="0px"
	 width="48px" height="48px" viewBox="0 0 48 48" enable-background="new 0 0 48 48" xml:space="preserve">
<path fill="#414042" d="M45.05,5.512c0.005-0.035,0.01-0.068,0.007-0.103c0-0.009,0.003-0.017,0.002-0.026
	c-0.003-0.021-0.015-0.039-0.021-0.06c-0.009-0.034-0.018-0.067-0.034-0.099c-0.016-0.032-0.036-0.058-0.059-0.085
	c-0.017-0.021-0.032-0.042-0.053-0.06c-0.035-0.033-0.074-0.056-0.117-0.077c-0.01-0.004-0.017-0.014-0.027-0.018
	c-0.004-0.002-0.009-0.001-0.014-0.002c-0.042-0.016-0.086-0.021-0.132-0.024c-0.026-0.002-0.052-0.005-0.078-0.003
	c-0.01,0.001-0.019-0.003-0.027-0.001L5.404,10.177c-0.199,0.026-0.363,0.17-0.416,0.364s0.017,0.401,0.175,0.525L18.501,21.46
	L3.111,34.64c-0.21,0.18-0.234,0.495-0.055,0.705l4.071,4.76c0.099,0.115,0.239,0.175,0.38,0.175c0.113,0,0.228-0.038,0.32-0.116
	l15.1-12.619l6.475,15.204c0.078,0.185,0.26,0.304,0.46,0.304c0.002,0,0.004,0,0.006,0c0.203-0.003,0.385-0.127,0.459-0.315
	L45.028,5.634c0.004-0.009,0.002-0.019,0.005-0.028C45.044,5.575,45.046,5.544,45.05,5.512z M29.846,41.236l-6.262-14.704
	c-0.01-0.024-0.029-0.04-0.042-0.063c-0.013-0.02-0.018-0.043-0.034-0.062c-0.006-0.007-0.014-0.01-0.02-0.017
	c-0.025-0.026-0.055-0.047-0.084-0.067c-0.024-0.017-0.046-0.035-0.073-0.047c-0.03-0.015-0.062-0.02-0.094-0.027
	c-0.03-0.008-0.06-0.017-0.091-0.018c-0.03-0.001-0.059,0.005-0.088,0.009c-0.036,0.005-0.07,0.01-0.105,0.022
	c-0.008,0.003-0.017,0.001-0.024,0.005c-0.023,0.01-0.039,0.028-0.06,0.041s-0.045,0.019-0.064,0.035L7.566,39.079l-3.425-4.005
	l15.44-13.224c0.031-0.026,0.049-0.061,0.072-0.092c0.006-0.007,0.016-0.01,0.022-0.018c0.007-0.009,0.008-0.02,0.015-0.029
	c0.007-0.014,0.014-0.027,0.021-0.041c0.116-0.211,0.074-0.479-0.122-0.632L6.718,11.01l37.066-4.953L29.846,41.236z"/>
</svg>
