<?xml version="1.0" encoding="utf-8"?>
<!-- Generator: Adobe Illustrator 16.0.0, SVG Export Plug-In . SVG Version: 6.00 Build 0)  -->
<!DOCTYPE svg PUBLIC "-//W3C//DTD SVG 1.1//EN" "http://www.w3.org/Graphics/SVG/1.1/DTD/svg11.dtd">
<svg version="1.1" id="Layer_1" xmlns="http://www.w3.org/2000/svg" xmlns:xlink="http://www.w3.org/1999/xlink" x="0px" y="0px"
	 width="48px" height="48px" viewBox="0 0 48 48" enable-background="new 0 0 48 48" xml:space="preserve">
<g>
	<path fill="#414042" d="M16.035,6.65h29.578c0.276,0,0.5-0.224,0.5-0.5s-0.224-0.5-0.5-0.5H16.035c-0.276,0-0.5,0.224-0.5,0.5
		S15.759,6.65,16.035,6.65z"/>
	<path fill="#414042" d="M45.613,23.499H16.035c-0.276,0-0.5,0.224-0.5,0.5s0.224,0.5,0.5,0.5h29.578c0.276,0,0.5-0.224,0.5-0.5
		S45.89,23.499,45.613,23.499z"/>
	<path fill="#414042" d="M45.613,41.351H16.035c-0.276,0-0.5,0.224-0.5,0.5s0.224,0.5,0.5,0.5h29.578c0.276,0,0.5-0.224,0.5-0.5
		S45.89,41.351,45.613,41.351z"/>
	<circle fill="#414042" cx="3.928" cy="6.151" r="2.042"/>
	<circle fill="#414042" cx="3.928" cy="24" r="2.042"/>
	<circle fill="#414042" cx="3.928" cy="41.851" r="2.041"/>
</g>
</svg>
