<?xml version="1.0" encoding="utf-8"?>
<!-- Generator: Adobe Illustrator 16.0.0, SVG Export Plug-In . SVG Version: 6.00 Build 0)  -->
<!DOCTYPE svg PUBLIC "-//W3C//DTD SVG 1.1//EN" "http://www.w3.org/Graphics/SVG/1.1/DTD/svg11.dtd">
<svg version="1.1" id="Layer_1" xmlns="http://www.w3.org/2000/svg" xmlns:xlink="http://www.w3.org/1999/xlink" x="0px" y="0px"
	 width="48px" height="48px" viewBox="0 0 48 48" enable-background="new 0 0 48 48" xml:space="preserve">
<g>
	<path fill="#414042" d="M17.635,8.046h27.002c0.276,0,0.5-0.224,0.5-0.5s-0.224-0.5-0.5-0.5H17.635c-0.276,0-0.5,0.224-0.5,0.5
		S17.358,8.046,17.635,8.046z"/>
	<path fill="#414042" d="M44.637,23.465H17.635c-0.276,0-0.5,0.224-0.5,0.5s0.224,0.5,0.5,0.5h27.002c0.276,0,0.5-0.224,0.5-0.5
		S44.913,23.465,44.637,23.465z"/>
	<path fill="#414042" d="M44.637,39.954H17.635c-0.276,0-0.5,0.224-0.5,0.5s0.224,0.5,0.5,0.5h27.002c0.276,0,0.5-0.224,0.5-0.5
		S44.913,39.954,44.637,39.954z"/>
	<path fill="#414042" d="M6.658,4.151v6.48h1.018V2.315H7.021C6.843,2.673,6.542,3.042,6.116,3.423S5.193,4.126,4.624,4.394v0.984
		C4.94,5.261,5.298,5.085,5.695,4.853C6.093,4.618,6.414,4.386,6.658,4.151z"/>
	<path fill="#414042" d="M9.189,26.073H5.127c0.113-0.184,0.257-0.367,0.43-0.551c0.173-0.182,0.565-0.529,1.176-1.043
		c0.73-0.617,1.253-1.104,1.567-1.457s0.54-0.691,0.676-1.012c0.135-0.32,0.203-0.646,0.203-0.977c0-0.652-0.231-1.199-0.695-1.639
		c-0.463-0.441-1.092-0.662-1.887-0.662c-0.788,0-1.415,0.205-1.882,0.613s-0.736,1.004-0.809,1.783l1.046,0.107
		c0.004-0.52,0.152-0.928,0.446-1.221c0.294-0.295,0.686-0.441,1.176-0.441c0.463,0,0.839,0.139,1.127,0.416s0.432,0.617,0.432,1.02
		c0,0.385-0.158,0.793-0.475,1.223c-0.316,0.432-0.925,1.018-1.824,1.756c-0.581,0.475-1.024,0.893-1.331,1.254
		c-0.308,0.361-0.53,0.729-0.67,1.102c-0.087,0.227-0.126,0.461-0.118,0.707h5.475V26.073z"/>
	<path fill="#414042" d="M7.727,39.054c0.377-0.174,0.661-0.406,0.854-0.701c0.191-0.293,0.288-0.619,0.288-0.977
		c0-0.377-0.102-0.732-0.303-1.068s-0.492-0.6-0.873-0.793c-0.38-0.195-0.797-0.291-1.249-0.291c-0.655,0-1.203,0.188-1.644,0.563
		c-0.441,0.373-0.724,0.902-0.848,1.584l1.017,0.182c0.075-0.498,0.245-0.871,0.509-1.119c0.264-0.25,0.594-0.373,0.989-0.373
		c0.398,0,0.725,0.123,0.978,0.367c0.252,0.244,0.378,0.553,0.378,0.926c0,0.471-0.173,0.82-0.52,1.047
		c-0.347,0.225-0.736,0.338-1.17,0.338c-0.041,0-0.096-0.004-0.164-0.012l-0.112,0.893c0.286-0.074,0.525-0.111,0.718-0.111
		c0.471,0,0.858,0.15,1.163,0.453c0.306,0.305,0.458,0.689,0.458,1.156c0,0.49-0.165,0.9-0.494,1.232
		c-0.33,0.332-0.733,0.496-1.212,0.496c-0.403,0-0.745-0.127-1.025-0.381c-0.281-0.254-0.479-0.67-0.597-1.246l-1.017,0.137
		c0.067,0.689,0.342,1.25,0.821,1.684c0.48,0.434,1.084,0.648,1.812,0.648c0.806,0,1.473-0.25,2-0.754
		c0.527-0.502,0.791-1.115,0.791-1.838c0-0.535-0.136-0.98-0.406-1.338C8.597,39.401,8.216,39.167,7.727,39.054z"/>
</g>
</svg>
