<?xml version="1.0" encoding="utf-8"?>
<!-- Generator: Adobe Illustrator 16.0.0, SVG Export Plug-In . SVG Version: 6.00 Build 0)  -->
<!DOCTYPE svg PUBLIC "-//W3C//DTD SVG 1.1//EN" "http://www.w3.org/Graphics/SVG/1.1/DTD/svg11.dtd">
<svg version="1.1" id="Layer_1" xmlns="http://www.w3.org/2000/svg" xmlns:xlink="http://www.w3.org/1999/xlink" x="0px" y="0px"
	 width="48px" height="48px" viewBox="0 0 48 48" enable-background="new 0 0 48 48" xml:space="preserve">
<path fill="#414042" d="M42.097,22.867c-0.275,0.01-0.492,0.241-0.482,0.518c0.338,9.712-7.288,17.89-17,18.229
	c-9.737,0.366-17.889-7.286-18.229-16.998s7.286-17.89,16.998-18.229c6.815-0.258,13.137,3.483,16.261,9.516l-8.517,0.298
	c-0.276,0.01-0.492,0.241-0.482,0.518c0.01,0.27,0.231,0.482,0.5,0.482c0.006,0,0.012,0,0.018,0l9.756-0.342
	c0.276-0.01,0.492-0.241,0.482-0.518l-0.35-10.006c-0.011-0.275-0.255-0.499-0.518-0.482c-0.275,0.01-0.492,0.241-0.482,0.518
	l0.306,8.738C37,8.933,30.464,5.131,23.349,5.387c-10.264,0.359-18.321,9-17.963,19.264c0.352,10.043,8.633,17.975,18.604,17.974
	c0.219,0,0.439-0.003,0.659-0.011c10.263-0.359,18.321-9,17.965-19.264C42.604,23.074,42.352,22.851,42.097,22.867z"/>
</svg>
