<?xml version="1.0" encoding="utf-8"?>
<!-- Generator: Adobe Illustrator 16.0.0, SVG Export Plug-In . SVG Version: 6.00 Build 0)  -->
<!DOCTYPE svg PUBLIC "-//W3C//DTD SVG 1.1//EN" "http://www.w3.org/Graphics/SVG/1.1/DTD/svg11.dtd">
<svg version="1.1" id="Layer_1" xmlns="http://www.w3.org/2000/svg" xmlns:xlink="http://www.w3.org/1999/xlink" x="0px" y="0px"
	 width="48px" height="48px" viewBox="0 0 48 48" enable-background="new 0 0 48 48" xml:space="preserve">
<g>
	<path fill="#414042" d="M45.785,1.715H2.215c-0.276,0-0.5,0.224-0.5,0.5v43.57c0,0.276,0.224,0.5,0.5,0.5h43.57
		c0.276,0,0.5-0.224,0.5-0.5V2.215C46.285,1.938,46.062,1.715,45.785,1.715z M45.285,45.285H2.715V2.715h42.57V45.285z"/>
	<path fill="#414042" d="M14.005,15.109l-4.602,0.466c-0.274,0.027-0.475,0.272-0.446,0.548c0.025,0.257,0.243,0.449,0.496,0.449
		c0.018,0,0.034-0.001,0.052-0.003l5.649-0.572c0.029-0.003,0.055-0.015,0.082-0.023c0.023-0.006,0.045-0.009,0.067-0.019
		c0.115-0.05,0.205-0.141,0.255-0.255c0.009-0.022,0.012-0.044,0.019-0.067c0.008-0.027,0.02-0.053,0.023-0.082l0.571-5.648
		C16.2,9.627,16,9.382,15.726,9.354c-0.269-0.033-0.521,0.172-0.548,0.446l-0.465,4.601L8.519,8.208
		c-0.195-0.195-0.512-0.195-0.707,0s-0.195,0.512,0,0.707L14.005,15.109z"/>
	<path fill="#414042" d="M32.672,15.633c0.007,0.023,0.01,0.045,0.02,0.067c0.05,0.115,0.141,0.205,0.255,0.255
		c0.021,0.009,0.044,0.012,0.067,0.019c0.027,0.008,0.053,0.02,0.082,0.023l5.649,0.572c0.018,0.002,0.034,0.003,0.052,0.003
		c0.253,0,0.471-0.192,0.496-0.449c0.028-0.275-0.172-0.521-0.446-0.548l-4.603-0.466l6.194-6.194c0.195-0.195,0.195-0.512,0-0.707
		s-0.512-0.195-0.707,0l-6.194,6.194l-0.465-4.601c-0.027-0.274-0.281-0.48-0.548-0.446c-0.274,0.027-0.475,0.272-0.446,0.548
		l0.571,5.648C32.652,15.58,32.665,15.605,32.672,15.633z"/>
	<path fill="#414042" d="M8.165,39.572c0.128,0,0.256-0.049,0.354-0.146l6.194-6.193l0.465,4.601
		c0.025,0.257,0.243,0.449,0.496,0.449c0.018,0,0.034-0.001,0.052-0.003c0.274-0.027,0.475-0.272,0.446-0.548l-0.571-5.648
		c-0.003-0.029-0.015-0.055-0.023-0.082c-0.006-0.022-0.009-0.046-0.019-0.067c-0.05-0.114-0.141-0.205-0.255-0.255
		c-0.022-0.01-0.044-0.013-0.067-0.019c-0.027-0.008-0.053-0.021-0.082-0.023l-5.649-0.572c-0.27-0.027-0.521,0.172-0.548,0.446
		c-0.028,0.275,0.172,0.521,0.446,0.548l4.602,0.466l-6.194,6.194c-0.195,0.195-0.195,0.512,0,0.707
		C7.909,39.523,8.037,39.572,8.165,39.572z"/>
	<path fill="#414042" d="M32.524,38.279c0.018,0.002,0.034,0.003,0.052,0.003c0.253,0,0.471-0.192,0.496-0.449l0.465-4.601
		l6.194,6.193c0.098,0.098,0.226,0.146,0.354,0.146s0.256-0.049,0.354-0.146c0.195-0.195,0.195-0.512,0-0.707l-6.194-6.194
		l4.603-0.466c0.274-0.027,0.475-0.272,0.446-0.548c-0.027-0.274-0.28-0.475-0.548-0.446l-5.649,0.572
		c-0.029,0.003-0.055,0.016-0.082,0.023c-0.023,0.006-0.046,0.009-0.067,0.019c-0.114,0.05-0.205,0.141-0.255,0.255
		c-0.01,0.021-0.013,0.045-0.02,0.067c-0.007,0.027-0.02,0.053-0.022,0.082l-0.571,5.648C32.05,38.007,32.25,38.252,32.524,38.279z"
		/>
</g>
</svg>
