<?xml version="1.0" encoding="utf-8"?>
<!-- Generator: Adobe Illustrator 16.0.0, SVG Export Plug-In . SVG Version: 6.00 Build 0)  -->
<!DOCTYPE svg PUBLIC "-//W3C//DTD SVG 1.1//EN" "http://www.w3.org/Graphics/SVG/1.1/DTD/svg11.dtd">
<svg version="1.1" id="Layer_1" xmlns="http://www.w3.org/2000/svg" xmlns:xlink="http://www.w3.org/1999/xlink" x="0px" y="0px"
	 width="48px" height="48px" viewBox="0 0 48 48" enable-background="new 0 0 48 48" xml:space="preserve">
<path fill="#414042" d="M46.117,4.306H11.033c-0.276,0-0.5,0.224-0.5,0.5v12.392H1.884c-0.276,0-0.5,0.224-0.5,0.5
	s0.224,0.5,0.5,0.5h8.649v12.797H1.884c-0.276,0-0.5,0.224-0.5,0.5s0.224,0.5,0.5,0.5h8.649v11.2c0,0.276,0.224,0.5,0.5,0.5h35.084
	c0.276,0,0.5-0.224,0.5-0.5V4.806C46.617,4.529,46.394,4.306,46.117,4.306z M45.617,42.694H11.533v-10.7h10.435l-4.924,4.091
	c-0.213,0.177-0.242,0.492-0.065,0.704c0.099,0.119,0.241,0.181,0.385,0.181c0.113,0,0.227-0.038,0.319-0.115l5.971-4.961
	c0.013-0.011,0.019-0.03,0.031-0.044c0.015-0.014,0.023-0.033,0.036-0.05c0.024-0.034,0.052-0.062,0.068-0.101
	c0.028-0.063,0.046-0.132,0.046-0.205c0-0.003-0.001-0.005-0.001-0.008s0.001-0.005,0.001-0.008c0-0.051-0.018-0.097-0.032-0.145
	c-0.004-0.012-0.003-0.024-0.008-0.036c-0.03-0.078-0.075-0.149-0.14-0.204l-5.971-4.96c-0.21-0.175-0.527-0.147-0.704,0.065
	c-0.177,0.212-0.147,0.527,0.065,0.704l4.924,4.091H11.533V18.197h10.435l-4.924,4.091c-0.213,0.177-0.242,0.492-0.065,0.704
	c0.099,0.119,0.241,0.181,0.385,0.181c0.113,0,0.227-0.038,0.319-0.115l5.971-4.961c0.013-0.011,0.019-0.031,0.031-0.043
	c0.015-0.015,0.023-0.034,0.036-0.05c0.024-0.034,0.052-0.062,0.068-0.101c0.028-0.063,0.046-0.131,0.046-0.205
	c0-0.003-0.001-0.005-0.001-0.008c0-0.002,0.001-0.005,0.001-0.008c0-0.05-0.018-0.097-0.032-0.144
	c-0.004-0.012-0.003-0.025-0.008-0.037c-0.03-0.078-0.075-0.149-0.14-0.204l-5.971-4.96c-0.21-0.175-0.527-0.147-0.704,0.065
	c-0.177,0.212-0.147,0.527,0.065,0.704l4.924,4.091H11.533V5.306h34.084V42.694z"/>
</svg>
