<?xml version="1.0" encoding="utf-8"?>
<!-- Generator: Adobe Illustrator 16.0.0, SVG Export Plug-In . SVG Version: 6.00 Build 0)  -->
<!DOCTYPE svg PUBLIC "-//W3C//DTD SVG 1.1//EN" "http://www.w3.org/Graphics/SVG/1.1/DTD/svg11.dtd">
<svg version="1.1" id="Layer_1" xmlns="http://www.w3.org/2000/svg" xmlns:xlink="http://www.w3.org/1999/xlink" x="0px" y="0px"
	 width="48px" height="48px" viewBox="0 0 48 48" enable-background="new 0 0 48 48" xml:space="preserve">
<path fill="#414042" d="M46.117,30.994h-8.649V18.197h8.649c0.276,0,0.5-0.224,0.5-0.5s-0.224-0.5-0.5-0.5h-8.649V4.806
	c0-0.276-0.224-0.5-0.5-0.5H1.884c-0.276,0-0.5,0.224-0.5,0.5v38.389c0,0.276,0.224,0.5,0.5,0.5h35.084c0.276,0,0.5-0.224,0.5-0.5
	v-11.2h8.649c0.276,0,0.5-0.224,0.5-0.5S46.394,30.994,46.117,30.994z M36.468,42.694H2.384V5.306h34.084v11.892H26.033l4.924-4.091
	c0.213-0.177,0.242-0.492,0.065-0.704c-0.177-0.213-0.493-0.24-0.704-0.065l-5.971,4.96c-0.014,0.012-0.02,0.032-0.032,0.045
	c-0.009,0.009-0.014,0.021-0.021,0.031c-0.03,0.039-0.063,0.073-0.081,0.12c-0.028,0.063-0.046,0.131-0.046,0.204
	c0,0.002,0.001,0.005,0.001,0.007s-0.001,0.005-0.001,0.007c0,0.047,0.018,0.09,0.03,0.135c0.005,0.016,0.004,0.033,0.01,0.047
	c0.031,0.077,0.075,0.148,0.14,0.203l5.971,4.961c0.093,0.077,0.206,0.115,0.319,0.115c0.144,0,0.286-0.062,0.385-0.181
	c0.177-0.212,0.147-0.527-0.065-0.704l-4.924-4.091h10.435v12.797H26.033l4.924-4.091c0.213-0.177,0.242-0.492,0.065-0.704
	c-0.177-0.213-0.493-0.24-0.704-0.065l-5.971,4.96c-0.014,0.012-0.02,0.032-0.032,0.045c-0.009,0.01-0.014,0.021-0.021,0.031
	c-0.03,0.038-0.063,0.073-0.081,0.12c-0.028,0.063-0.046,0.131-0.046,0.204c0,0.003,0.001,0.005,0.001,0.008
	c0,0.002-0.001,0.005-0.001,0.007c0,0.047,0.018,0.091,0.03,0.135c0.005,0.016,0.004,0.033,0.01,0.048
	c0.031,0.077,0.075,0.148,0.14,0.202l5.971,4.961c0.093,0.077,0.206,0.115,0.319,0.115c0.144,0,0.286-0.062,0.385-0.181
	c0.177-0.212,0.147-0.527-0.065-0.704l-4.924-4.091h10.435V42.694z"/>
</svg>
