<?xml version="1.0" encoding="utf-8"?>
<!-- Generator: Adobe Illustrator 16.0.0, SVG Export Plug-In . SVG Version: 6.00 Build 0)  -->
<!DOCTYPE svg PUBLIC "-//W3C//DTD SVG 1.1//EN" "http://www.w3.org/Graphics/SVG/1.1/DTD/svg11.dtd">
<svg version="1.1" id="Layer_1" xmlns="http://www.w3.org/2000/svg" xmlns:xlink="http://www.w3.org/1999/xlink" x="0px" y="0px"
	 width="48px" height="48px" viewBox="0 0 48 48" enable-background="new 0 0 48 48" xml:space="preserve">
<g>
	<path fill="#414042" d="M3.058,12.234h10.346V1.889H3.058V12.234z M4.058,2.889h8.346v8.346H4.058V2.889z"/>
	<path fill="#414042" d="M18.827,12.234h10.346V1.889H18.827V12.234z M19.827,2.889h8.346v8.346h-8.346V2.889z"/>
	<path fill="#414042" d="M34.599,1.889v10.346h10.346V1.889H34.599z M43.944,11.234h-8.346V2.889h8.346V11.234z"/>
	<path fill="#414042" d="M3.058,29.173h10.346V18.827H3.058V29.173z M4.058,19.827h8.346v8.346H4.058V19.827z"/>
	<path fill="#414042" d="M18.827,29.173h10.346V18.827H18.827V29.173z M19.827,19.827h8.346v8.346h-8.346V19.827z"/>
	<path fill="#414042" d="M34.599,29.173h10.346V18.827H34.599V29.173z M35.599,19.827h8.346v8.346h-8.346V19.827z"/>
	<path fill="#414042" d="M3.058,46.111h10.346V35.766H3.058V46.111z M4.058,36.766h8.346v8.346H4.058V36.766z"/>
	<path fill="#414042" d="M18.827,46.111h10.346V35.766H18.827V46.111z M19.827,36.766h8.346v8.346h-8.346V36.766z"/>
	<path fill="#414042" d="M34.599,46.111h10.346V35.766H34.599V46.111z M35.599,36.766h8.346v8.346h-8.346V36.766z"/>
</g>
</svg>
