<?xml version="1.0" encoding="utf-8"?>
<!-- Generator: Adobe Illustrator 16.0.0, SVG Export Plug-In . SVG Version: 6.00 Build 0)  -->
<!DOCTYPE svg PUBLIC "-//W3C//DTD SVG 1.1//EN" "http://www.w3.org/Graphics/SVG/1.1/DTD/svg11.dtd">
<svg version="1.1" id="Layer_1" xmlns="http://www.w3.org/2000/svg" xmlns:xlink="http://www.w3.org/1999/xlink" x="0px" y="0px"
	 width="48px" height="48px" viewBox="0 0 48 48" enable-background="new 0 0 48 48" xml:space="preserve">
<g>
	<path fill="#414042" d="M18.541,2.265H2.765c-0.276,0-0.5,0.224-0.5,0.5V18.54c0,0.276,0.224,0.5,0.5,0.5h15.776
		c0.276,0,0.5-0.224,0.5-0.5V2.765C19.041,2.488,18.817,2.265,18.541,2.265z M18.041,18.04H3.265V3.265h14.776V18.04z"/>
	<path fill="#414042" d="M45.235,2.265H29.459c-0.276,0-0.5,0.224-0.5,0.5V18.54c0,0.276,0.224,0.5,0.5,0.5h15.776
		c0.276,0,0.5-0.224,0.5-0.5V2.765C45.735,2.488,45.512,2.265,45.235,2.265z M44.735,18.04H29.959V3.265h14.776V18.04z"/>
	<path fill="#414042" d="M18.541,28.958H2.765c-0.276,0-0.5,0.224-0.5,0.5v15.777c0,0.276,0.224,0.5,0.5,0.5h15.776
		c0.276,0,0.5-0.224,0.5-0.5V29.458C19.041,29.182,18.817,28.958,18.541,28.958z M18.041,44.735H3.265V29.958h14.776V44.735z"/>
	<path fill="#414042" d="M45.235,28.958H29.459c-0.276,0-0.5,0.224-0.5,0.5v15.777c0,0.276,0.224,0.5,0.5,0.5h15.776
		c0.276,0,0.5-0.224,0.5-0.5V29.458C45.735,29.182,45.512,28.958,45.235,28.958z M44.735,44.735H29.959V29.958h14.776V44.735z"/>
</g>
</svg>
