<?xml version="1.0" encoding="utf-8"?>
<!-- Generator: Adobe Illustrator 16.0.0, SVG Export Plug-In . SVG Version: 6.00 Build 0)  -->
<!DOCTYPE svg PUBLIC "-//W3C//DTD SVG 1.1//EN" "http://www.w3.org/Graphics/SVG/1.1/DTD/svg11.dtd">
<svg version="1.1" id="Layer_1" xmlns="http://www.w3.org/2000/svg" xmlns:xlink="http://www.w3.org/1999/xlink" x="0px" y="0px"
	 width="1024px" height="1024px" viewBox="0 0 1024 1024" enable-background="new 0 0 1024 1024" xml:space="preserve">
<path fill="#414042" d="M761.146,281.083H653.729c-23.521,0-42.667,19.146-42.667,42.667v89.917
	c0,23.521,19.146,42.666,42.667,42.666H692.5c0.458,29.084-5.625,85.188-56.875,104.479l-104.313,34.167V243.583h92.542
	c12.458,0,18.583-5.166,18.583-14.083c0-5.417-8.958-14.25-8.958-14.25L520.646,102.417c-11.333-9.375-21.166,0-21.166,0
	L386.604,215.25c0,0-8.917,8.833-8.917,14.25c0,7.583,6.625,14.083,18.583,14.083h92.375v395.125l-104.708-30.229
	c-56.25-17.25-56.813-77.709-53.813-105.979c41.458-8.625,72.729-45.438,72.729-89.417c0-50.354-40.979-91.333-91.334-91.333
	c-50.354,0-91.333,40.979-91.333,91.333c0,41.896,28.521,76.938,67.104,87.646c-4.75,50.521,8.104,125.229,84.479,148.646
	l116.875,33.75v62.729c-40.063,9.666-70,45.583-70,88.563c0,50.354,40.979,91.333,91.334,91.333
	c50.354,0,91.333-40.979,91.333-91.333c0-42.979-29.938-78.896-70-88.563V639.875l118.479-38.833
	c69.354-26.104,86.166-96.271,85.541-144.709h25.813c23.521,0,42.667-19.146,42.667-42.666V323.75
	C803.813,300.229,784.667,281.083,761.146,281.083z"/>
</svg>
