<?xml version="1.0" encoding="utf-8"?>
<!-- Generator: Adobe Illustrator 16.0.0, SVG Export Plug-In . SVG Version: 6.00 Build 0)  -->
<!DOCTYPE svg PUBLIC "-//W3C//DTD SVG 1.1//EN" "http://www.w3.org/Graphics/SVG/1.1/DTD/svg11.dtd">
<svg version="1.1" id="Layer_1" xmlns="http://www.w3.org/2000/svg" xmlns:xlink="http://www.w3.org/1999/xlink" x="0px" y="0px"
	 width="1024px" height="1024px" viewBox="0 0 1024 1024" enable-background="new 0 0 1024 1024" xml:space="preserve">
<path fill="#414042" d="M703.75,312.448c-7.792-7.917-18.167-13.292-30.042-15.667V129.969c0-11.792-9.541-21.333-21.333-21.333
	H371.604c-11.792,0-21.334,9.541-21.334,21.333v166.521c-23.833,4.792-46.791,23.146-46.791,63.313v191.281
	c0,62.792,37.041,119.709,93.563,146.084v17.708c0,24.667,20.083,44.708,44.708,44.708h2.083v119.084
	c0,6.041,2.584,11.833,7.084,15.875c2.375,2.125,24.208,20.833,59.125,20.833c20.166,0,40.375-6.292,60.083-18.667
	c6.208-3.875,9.958-10.708,9.958-18.041V759.583h2.084c24.666,0,44.708-20.041,44.708-44.708v-17.708
	c56.583-26.375,93.625-83.292,93.625-146.084V360.094C720.792,340.031,715.167,324.011,703.75,312.448z M487.792,267.864
	c0,11.792-9.542,21.334-21.334,21.334h-25.375c-11.791,0-21.333-9.542-21.333-21.334v-68.438c0-11.791,9.542-21.333,21.333-21.333
	h25.375c11.792,0,21.334,9.542,21.334,21.333V267.864z M604.25,267.864c0,11.792-9.542,21.334-21.333,21.334h-25.375
	c-11.792,0-21.334-9.542-21.334-21.334v-68.438c0-11.791,9.542-21.333,21.334-21.333h25.375c11.791,0,21.333,9.542,21.333,21.333
	V267.864z"/>
</svg>
