<?xml version="1.0" encoding="utf-8"?>
<!-- Generator: Adobe Illustrator 16.0.0, SVG Export Plug-In . SVG Version: 6.00 Build 0)  -->
<!DOCTYPE svg PUBLIC "-//W3C//DTD SVG 1.1//EN" "http://www.w3.org/Graphics/SVG/1.1/DTD/svg11.dtd">
<svg version="1.1" id="Layer_1" xmlns="http://www.w3.org/2000/svg" xmlns:xlink="http://www.w3.org/1999/xlink" x="0px" y="0px"
	 width="1024px" height="1024px" viewBox="0 0 1024 1024" enable-background="new 0 0 1024 1024" xml:space="preserve">
<path fill="#414042" d="M737.375,240.25h-78.833V111.333C658.542,99.542,649,90,637.208,90H386.792
	c-11.792,0-21.334,9.542-21.334,21.333V240.25h-78.833c-11.792,0-21.333,9.542-21.333,21.333v500.834
	C265.292,857.021,342.25,934,436.875,934h150.25c94.625,0,171.583-76.979,171.583-171.583V261.583
	C758.708,249.792,749.167,240.25,737.375,240.25z M487.917,262.083c0,11.792-9.542,21.334-21.334,21.334h-15
	c-11.791,0-21.333-9.542-21.333-21.334v-83.416c0-11.792,9.542-21.334,21.333-21.334h15c11.792,0,21.334,9.542,21.334,21.334
	V262.083z M594.583,262.083c0,11.792-9.541,21.334-21.333,21.334h-15c-11.792,0-21.333-9.542-21.333-21.334v-83.416
	c0-11.792,9.541-21.334,21.333-21.334h15c11.792,0,21.333,9.542,21.333,21.334V262.083z"/>
</svg>
