<?xml version="1.0" encoding="utf-8"?>
<!-- Generator: Adobe Illustrator 16.0.0, SVG Export Plug-In . SVG Version: 6.00 Build 0)  -->
<!DOCTYPE svg PUBLIC "-//W3C//DTD SVG 1.1//EN" "http://www.w3.org/Graphics/SVG/1.1/DTD/svg11.dtd">
<svg version="1.1" id="Layer_1" xmlns="http://www.w3.org/2000/svg" xmlns:xlink="http://www.w3.org/1999/xlink" x="0px" y="0px"
	 width="1024px" height="1024px" viewBox="0 0 1024 1024" enable-background="new 0 0 1024 1024" xml:space="preserve">
<g>
	<path fill="#414042" d="M824.396,221.104C740.854,137.688,629.896,91.75,511.979,91.75c-117.917,0-228.875,45.938-312.417,129.354
		c-8.333,8.333-8.333,21.833,0,30.188c4.167,4.166,9.625,6.25,15.083,6.25c5.459,0,10.917-2.084,15.084-6.229
		c75.5-75.375,175.708-116.896,282.25-116.896c106.541,0,206.791,41.521,282.291,116.896c8.292,8.292,21.834,8.333,30.167-0.042
		C832.771,242.938,832.771,229.438,824.396,221.104z"/>
	<path fill="#414042" d="M511.979,231.875c-80.542,0-156.292,31.375-213.292,88.375c-8.333,8.333-8.333,21.833,0,30.167
		c4.167,4.166,9.625,6.25,15.083,6.25c5.459,0,10.917-2.084,15.084-6.25c48.958-48.938,113.958-75.875,183.125-75.875
		c69.166,0,134.208,26.938,183.125,75.875c8.333,8.333,21.833,8.333,30.166,0c8.334-8.334,8.334-21.834,0-30.167
		C668.313,263.271,592.563,231.875,511.979,231.875z"/>
	<path fill="#414042" d="M634.813,440.792H385.479c-25.5,0-46.292,20.75-46.292,46.25v324.125
		c0,66.771,54.333,121.083,121.083,121.083h99.75c66.75,0,121.042-54.313,121.042-121.083V487.042
		C681.063,461.542,660.313,440.792,634.813,440.792z M561.854,684h-99.75c-11.792,0-21.334-9.542-21.334-21.333
		c0-11.792,9.542-21.334,21.334-21.334h99.75c11.791,0,21.333,9.542,21.333,21.334C583.188,674.458,573.646,684,561.854,684z
		 M563.688,583.208h-99.708c-11.792,0-21.334-9.541-21.334-21.333s9.542-21.333,21.334-21.333h99.708
		c11.792,0,21.333,9.541,21.333,21.333S575.479,583.208,563.688,583.208z"/>
</g>
</svg>
