<?xml version="1.0" encoding="utf-8"?>
<!-- Generator: Adobe Illustrator 16.0.0, SVG Export Plug-In . SVG Version: 6.00 Build 0)  -->
<!DOCTYPE svg PUBLIC "-//W3C//DTD SVG 1.1//EN" "http://www.w3.org/Graphics/SVG/1.1/DTD/svg11.dtd">
<svg version="1.1" id="Layer_1" xmlns="http://www.w3.org/2000/svg" xmlns:xlink="http://www.w3.org/1999/xlink" x="0px" y="0px"
	 width="1024px" height="1024px" viewBox="0 0 1024 1024" enable-background="new 0 0 1024 1024" xml:space="preserve">
<path fill="#414042" d="M893.771,367.375h-24.5V332.25c0-35.292-28.708-64-64-64H149.188c-35.292,0-64,28.708-64,64v359.5
	c0,35.292,28.708,64,64,64h656.083c35.292,0,64-28.708,64-64v-35.083h24.5c24.834,0,45-20.209,45-45V412.333
	C938.771,387.542,918.604,367.375,893.771,367.375z M826.604,691.75c0,11.792-9.584,21.333-21.334,21.333H149.188
	c-11.75,0-21.333-9.541-21.333-21.333v-359.5c0-11.75,9.583-21.333,21.333-21.333h656.083c11.75,0,21.334,9.583,21.334,21.333
	V691.75z"/>
</svg>
