<?xml version="1.0" encoding="utf-8"?>
<!-- Generator: Adobe Illustrator 16.0.0, SVG Export Plug-In . SVG Version: 6.00 Build 0)  -->
<!DOCTYPE svg PUBLIC "-//W3C//DTD SVG 1.1//EN" "http://www.w3.org/Graphics/SVG/1.1/DTD/svg11.dtd">
<svg version="1.1" id="Layer_1" xmlns="http://www.w3.org/2000/svg" xmlns:xlink="http://www.w3.org/1999/xlink" x="0px" y="0px"
	 width="1024px" height="1024px" viewBox="0 0 1024 1024" enable-background="new 0 0 1024 1024" xml:space="preserve">
<g>
	<path fill="#414042" d="M893.792,367.375h-24.5V332.25c0-35.292-28.709-64-64-64H149.208c-35.291,0-64,28.708-64,64v359.5
		c0,35.292,28.709,64,64,64h656.084c35.291,0,64-28.708,64-64v-35.083h24.5c24.791,0,45-20.209,45-45V412.333
		C938.792,387.542,918.583,367.375,893.792,367.375z M826.625,691.75c0,11.792-9.583,21.333-21.333,21.333H149.208
		c-11.75,0-21.333-9.541-21.333-21.333v-359.5c0-11.75,9.583-21.333,21.333-21.333h656.084c11.75,0,21.333,9.583,21.333,21.333
		V691.75z"/>
	<path fill="#414042" d="M331.417,335.708H172.792c-10.959,0-19.834,8.875-19.834,19.875v309.375c0,11,8.875,19.875,19.834,19.875
		h158.625c10.958,0,19.875-8.875,19.875-19.875V355.583C351.292,344.583,342.375,335.708,331.417,335.708z"/>
	<path fill="#414042" d="M556.792,337.458H398.208c-10.958,0-19.875,8.875-19.875,19.875v309.375c0,11,8.917,19.875,19.875,19.875
		h158.584c10.958,0,19.875-8.875,19.875-19.875V357.333C576.667,346.333,567.75,337.458,556.792,337.458z"/>
	<path fill="#414042" d="M782.208,335.708H623.542c-10.959,0-19.834,8.875-19.834,19.875v309.375c0,11,8.875,19.875,19.834,19.875
		h158.666c10.959,0,19.834-8.875,19.834-19.875V355.583C802.042,344.583,793.167,335.708,782.208,335.708z"/>
</g>
</svg>
