<?xml version="1.0" encoding="utf-8"?>
<!-- Generator: Adobe Illustrator 16.0.0, SVG Export Plug-In . SVG Version: 6.00 Build 0)  -->
<!DOCTYPE svg PUBLIC "-//W3C//DTD SVG 1.1//EN" "http://www.w3.org/Graphics/SVG/1.1/DTD/svg11.dtd">
<svg version="1.1" id="Layer_1" xmlns="http://www.w3.org/2000/svg" xmlns:xlink="http://www.w3.org/1999/xlink" x="0px" y="0px"
	 width="1024px" height="1024px" viewBox="0 0 1024 1024" enable-background="new 0 0 1024 1024" xml:space="preserve">
<g>
	<path fill="#414042" d="M824.958,298.333L626.375,99.75c-4-4-9.417-6.25-15.083-6.25H214.125c-11.792,0-21.333,9.542-21.333,21.333
		v347.542c0,11.792,9.541,21.333,21.333,21.333h28.333v106.25h-28.333c-11.792,0-21.333,9.542-21.333,21.334v297.875
		c0,11.791,9.541,21.333,21.333,21.333h595.75c11.792,0,21.333-9.542,21.333-21.333v-595.75
		C831.208,307.75,828.958,302.333,824.958,298.333z M533.333,214.125c0-11.792,9.542-21.333,21.334-21.333
		c11.791,0,21.333,9.541,21.333,21.333v198.583c0,11.792-9.542,21.334-21.333,21.334c-11.792,0-21.334-9.542-21.334-21.334V214.125z
		 M434.042,214.125c0-11.792,9.541-21.333,21.333-21.333s21.333,9.541,21.333,21.333v198.583c0,11.792-9.541,21.334-21.333,21.334
		s-21.333-9.542-21.333-21.334V214.125z M334.75,214.125c0-11.792,9.542-21.333,21.333-21.333c11.792,0,21.334,9.541,21.334,21.333
		v198.583c0,11.792-9.542,21.334-21.334,21.334c-11.791,0-21.333-9.542-21.333-21.334V214.125z M672.542,764.833
		c0,11.792-9.542,21.334-21.334,21.334h-306.75c-11.791,0-21.333-9.542-21.333-21.334v-94.791c0-11.792,9.542-21.334,21.333-21.334
		h306.75c11.792,0,21.334,9.542,21.334,21.334V764.833z M675.292,412.708c0,11.792-9.542,21.334-21.334,21.334
		c-11.791,0-21.333-9.542-21.333-21.334v-99.291c0-11.792,9.542-21.334,21.333-21.334c11.792,0,21.334,9.542,21.334,21.334V412.708z
		"/>
	<rect x="365.792" y="691.375" fill="#414042" width="264.083" height="52.125"/>
</g>
</svg>
