<?xml version="1.0" encoding="utf-8"?>
<!-- Generator: Adobe Illustrator 16.0.0, SVG Export Plug-In . SVG Version: 6.00 Build 0)  -->
<!DOCTYPE svg PUBLIC "-//W3C//DTD SVG 1.1//EN" "http://www.w3.org/Graphics/SVG/1.1/DTD/svg11.dtd">
<svg version="1.1" id="Layer_1" xmlns="http://www.w3.org/2000/svg" xmlns:xlink="http://www.w3.org/1999/xlink" x="0px" y="0px"
	 width="1024px" height="1024px" viewBox="0 0 1024 1024" enable-background="new 0 0 1024 1024" xml:space="preserve">
<g>
	<path fill="#414042" d="M669.229,711.188c9.166,0,16.604-7.417,16.604-16.625c0-9.167-7.438-16.625-16.604-16.625H488.542
		c-9.167,0-16.625,7.458-16.625,16.625c0,9.208,7.458,16.625,16.625,16.625H669.229z"/>
	<rect x="167.417" y="388.854" fill="#414042" width="124.916" height="14.625"/>
	<path fill="#414042" d="M229.875,677.479c-13.125,0-23.792,10.666-23.792,23.833c0,13.083,10.667,23.75,23.792,23.75
		c13.083,0,23.75-10.667,23.75-23.75C253.625,688.146,242.958,677.479,229.875,677.479z"/>
	<path fill="#414042" d="M356.875,227.438H102.833c-17.041,0-28.958,15.833-28.958,38.5v575.75
		c0,22.667,11.917,38.542,28.958,38.542h254.042c17.021,0,28.917-15.875,28.917-38.542v-575.75
		C385.792,243.271,373.896,227.438,356.875,227.438z M124.75,384.688c0-21.25,17.292-38.5,38.542-38.5h133.166
		c21.25,0,38.542,17.25,38.542,38.5v22.917c0,21.25-17.292,38.541-38.542,38.541H163.292c-21.25,0-38.542-17.291-38.542-38.541
		V384.688z M265.833,821.479h-71.958c-11.792,0-21.333-9.584-21.333-21.334c0-11.791,9.541-21.333,21.333-21.333h71.958
		c11.792,0,21.334,9.542,21.334,21.333C287.167,811.896,277.625,821.479,265.833,821.479z M229.875,767.729
		c-36.646,0-66.458-29.792-66.458-66.417c0-36.667,29.813-66.5,66.458-66.5c36.625,0,66.417,29.833,66.417,66.5
		C296.292,737.938,266.5,767.729,229.875,767.729z M324.333,625.479H136.563c-11.771,0-21.333-9.584-21.333-21.334
		c0-11.791,9.563-21.333,21.333-21.333h187.771c11.792,0,21.334,9.542,21.334,21.333
		C345.667,615.896,336.125,625.479,324.333,625.479z"/>
	<path fill="#414042" d="M908.583,143.771H249.167c-22.896,0-41.542,18.625-41.542,41.542v23.667h33.25v-23.667
		c0-4.583,3.708-8.333,8.292-8.333h659.416c4.584,0,8.313,3.75,8.313,8.333v426.25c0,4.583-3.729,8.333-8.313,8.333H404.458v33.209
		h504.125c22.917,0,41.542-18.625,41.542-41.542v-426.25C950.125,162.396,931.5,143.771,908.583,143.771z"/>
	<path fill="#414042" d="M851.042,737.604H404.458v33.208h446.584c9.188,0,16.604-7.417,16.604-16.583
		C867.646,745.021,860.229,737.604,851.042,737.604z"/>
</g>
</svg>
