<?xml version="1.0" encoding="utf-8"?>
<!-- Generator: Adobe Illustrator 16.0.0, SVG Export Plug-In . SVG Version: 6.00 Build 0)  -->
<!DOCTYPE svg PUBLIC "-//W3C//DTD SVG 1.1//EN" "http://www.w3.org/Graphics/SVG/1.1/DTD/svg11.dtd">
<svg version="1.1" id="Layer_1" xmlns="http://www.w3.org/2000/svg" xmlns:xlink="http://www.w3.org/1999/xlink" x="0px" y="0px"
	 width="1024px" height="1024px" viewBox="0 0 1024 1024" enable-background="new 0 0 1024 1024" xml:space="preserve">
<g>
	<rect x="253.333" y="197.333" fill="#414042" width="517.313" height="573.334"/>
	<path fill="#414042" d="M791.979,42.667H232C158.458,42.667,98.667,102.5,98.667,176v672c0,73.542,59.791,133.333,133.333,133.333
		h559.979c73.541,0,133.333-59.791,133.333-133.333V176C925.313,102.5,865.521,42.667,791.979,42.667z M547.021,913.458h-70.063
		c-33.25,0-56.458-15.416-56.458-37.458s23.208-37.417,56.458-37.417h70.063c33.25,0,56.459,15.375,56.459,37.417
		S580.271,913.458,547.021,913.458z M813.313,813.333H210.667V154.667h602.646V813.333z"/>
</g>
</svg>
