<?xml version="1.0" encoding="utf-8"?>
<!-- Generator: Adobe Illustrator 16.0.0, SVG Export Plug-In . SVG Version: 6.00 Build 0)  -->
<!DOCTYPE svg PUBLIC "-//W3C//DTD SVG 1.1//EN" "http://www.w3.org/Graphics/SVG/1.1/DTD/svg11.dtd">
<svg version="1.1" id="Layer_1" xmlns="http://www.w3.org/2000/svg" xmlns:xlink="http://www.w3.org/1999/xlink" x="0px" y="0px"
	 width="1024px" height="1024px" viewBox="0 0 1024 1024" enable-background="new 0 0 1024 1024" xml:space="preserve">
<path fill="#414042" d="M649.458,67.156H374.542c-70.167,0-127.25,57.083-127.25,127.208v635.261
	c0,70.167,57.083,127.208,127.25,127.208h274.916c70.167,0,127.209-57.041,127.209-127.208V194.364
	C776.667,124.239,719.625,67.156,649.458,67.156z M505.333,252.802h13.334c11.791,0,21.333,9.563,21.333,21.334
	c0,11.771-9.542,21.333-21.333,21.333h-13.334c-11.791,0-21.333-9.563-21.333-21.333C484,262.364,493.542,252.802,505.333,252.802z
	 M505.333,359.469h13.334c11.791,0,21.333,9.563,21.333,21.333c0,11.771-9.542,21.334-21.333,21.334h-13.334
	c-11.791,0-21.333-9.563-21.333-21.334C484,369.031,493.542,359.469,505.333,359.469z M505.333,466.156h13.334
	c11.791,0,21.333,9.542,21.333,21.333c0,11.771-9.542,21.334-21.333,21.334h-13.334c-11.791,0-21.333-9.563-21.333-21.334
	C484,475.698,493.542,466.156,505.333,466.156z M422.667,274.136c0,11.771-9.542,21.333-21.334,21.333H388
	c-11.792,0-21.333-9.563-21.333-21.333c0-11.771,9.541-21.334,21.333-21.334h13.333
	C413.125,252.802,422.667,262.364,422.667,274.136z M401.333,402.136H388c-11.792,0-21.333-9.563-21.333-21.334
	c0-11.771,9.541-21.333,21.333-21.333h13.333c11.792,0,21.334,9.563,21.334,21.333C422.667,392.573,413.125,402.136,401.333,402.136
	z M422.667,487.489c0,11.771-9.542,21.334-21.334,21.334H388c-11.792,0-21.333-9.563-21.333-21.334
	c0-11.791,9.541-21.333,21.333-21.333h13.333C413.125,466.156,422.667,475.698,422.667,487.489z M320.042,191.031
	c0-11.792,9.541-21.333,21.333-21.333h34.667c11.791,0,21.333,9.541,21.333,21.333s-9.542,21.333-21.333,21.333h-34.667
	C329.583,212.364,320.042,202.823,320.042,191.031z M401.333,850.167H388c-11.792,0-21.333-9.542-21.333-21.334
	c0-11.791,9.541-21.333,21.333-21.333h13.333c11.792,0,21.334,9.542,21.334,21.333C422.667,840.625,413.125,850.167,401.333,850.167
	z M449.792,682.625c0,11.75-9.542,21.333-21.334,21.333c-11.75,0-21.333-9.583-21.333-21.333v-56
	c0-11.792,9.583-21.333,21.333-21.333c11.792,0,21.334,9.541,21.334,21.333V682.625z M484,548.833h56
	c11.792,0,21.333,9.542,21.333,21.334c0,11.75-9.541,21.333-21.333,21.333h-56c-11.792,0-21.333-9.583-21.333-21.333
	C462.667,558.375,472.208,548.833,484,548.833z M555.5,655.167c0,23.958-19.5,43.5-43.5,43.5s-43.5-19.542-43.5-43.5
	c0-24,19.5-43.5,43.5-43.5S555.5,631.167,555.5,655.167z M518.667,850.167h-13.334c-11.791,0-21.333-9.542-21.333-21.334
	c0-11.791,9.542-21.333,21.333-21.333h13.334c11.791,0,21.333,9.542,21.333,21.333C540,840.625,530.458,850.167,518.667,850.167z
	 M540.958,759.5h-56c-11.791,0-21.333-9.583-21.333-21.333c0-11.792,9.542-21.334,21.333-21.334h56
	c11.792,0,21.334,9.542,21.334,21.334C562.292,749.917,552.75,759.5,540.958,759.5z M575.125,681.667v-56
	c0-11.792,9.583-21.334,21.333-21.334c11.792,0,21.334,9.542,21.334,21.334v56c0,11.75-9.542,21.333-21.334,21.333
	C584.708,703,575.125,693.417,575.125,681.667z M636,850.167h-13.333c-11.792,0-21.334-9.542-21.334-21.334
	c0-11.791,9.542-21.333,21.334-21.333H636c11.792,0,21.333,9.542,21.333,21.333C657.333,840.625,647.792,850.167,636,850.167z
	 M636,508.823h-13.333c-11.792,0-21.334-9.563-21.334-21.334c0-11.791,9.542-21.333,21.334-21.333H636
	c11.792,0,21.333,9.542,21.333,21.333C657.333,499.261,647.792,508.823,636,508.823z M636,402.136h-13.333
	c-11.792,0-21.334-9.563-21.334-21.334c0-11.771,9.542-21.333,21.334-21.333H636c11.792,0,21.333,9.563,21.333,21.333
	C657.333,392.573,647.792,402.136,636,402.136z M636,295.469h-13.333c-11.792,0-21.334-9.563-21.334-21.333
	c0-11.771,9.542-21.334,21.334-21.334H636c11.792,0,21.333,9.563,21.333,21.334C657.333,285.906,647.792,295.469,636,295.469z
	 M674.708,212.364h-34.666c-11.792,0-21.334-9.541-21.334-21.333s9.542-21.333,21.334-21.333h34.666
	c11.792,0,21.334,9.541,21.334,21.333S686.5,212.364,674.708,212.364z"/>
</svg>
