<?xml version="1.0" encoding="utf-8"?>
<!-- Generator: Adobe Illustrator 16.0.0, SVG Export Plug-In . SVG Version: 6.00 Build 0)  -->
<!DOCTYPE svg PUBLIC "-//W3C//DTD SVG 1.1//EN" "http://www.w3.org/Graphics/SVG/1.1/DTD/svg11.dtd">
<svg version="1.1" id="Layer_1" xmlns="http://www.w3.org/2000/svg" xmlns:xlink="http://www.w3.org/1999/xlink" x="0px" y="0px"
	 width="1024px" height="1024px" viewBox="0 0 1024 1024" enable-background="new 0 0 1024 1024" xml:space="preserve">
<path fill="#414042" d="M897.917,323.594H126.042c-22,0-39.875,17.917-39.875,39.917V660.5c0,22,17.875,39.917,39.875,39.917
	h771.875c22,0,39.916-17.917,39.916-39.917V363.511C937.833,341.511,919.917,323.594,897.917,323.594z M715.583,416.198h34.667
	v42.666h-34.667V416.198z M480.917,416.198h34.666v42.666h-34.666V416.198z M480.917,490.656h34.666v42.667h-34.666V490.656z
	 M363.583,416.198h34.709v42.666h-34.709V416.198z M408.958,490.656v42.667H374.25v-42.667H408.958z M160.917,490.656h34.708v42.667
	h-34.708V490.656z M196.958,619.708H162.25v-42.666h34.708V619.708z M246.25,416.198h34.708v42.666H246.25V416.198z
	 M267.583,490.656h34.709v42.667h-34.709V490.656z M575.583,621.167H268.917V578.5h306.666V621.167z M622.25,533.323h-34.667
	v-42.667h34.667V533.323z M632.917,458.864H598.25v-42.666h34.667V458.864z M683.583,621.042h-34.708v-42.667h34.708V621.042z
	 M728.917,533.323H694.25v-42.667h34.667V533.323z M783.125,621.917h-34.708V579.25h34.708V621.917z M835.583,533.323h-34.666
	v-42.667h34.666V533.323z"/>
</svg>
