<?xml version="1.0" encoding="utf-8"?>
<!-- Generator: Adobe Illustrator 16.0.0, SVG Export Plug-In . SVG Version: 6.00 Build 0)  -->
<!DOCTYPE svg PUBLIC "-//W3C//DTD SVG 1.1//EN" "http://www.w3.org/Graphics/SVG/1.1/DTD/svg11.dtd">
<svg version="1.1" id="Layer_1" xmlns="http://www.w3.org/2000/svg" xmlns:xlink="http://www.w3.org/1999/xlink" x="0px" y="0px"
	 width="1024px" height="1024px" viewBox="0 0 1024 1024" enable-background="new 0 0 1024 1024" xml:space="preserve">
<g>
	<path fill="#414042" d="M729.917,76.198H294.125c-59.917,0-108.958,49.041-108.958,108.958v653.677
		c0,59.917,49.041,108.959,108.958,108.959h435.792c59.875,0,108.916-49.042,108.916-108.959V185.156
		C838.833,125.239,789.792,76.198,729.917,76.198z M435.417,783.625c4.041,11.042-1.667,23.292-12.709,27.333
		c-2.416,0.875-4.916,1.334-7.333,1.334c-8.708,0-16.875-5.375-20.042-14.042c-5-13.625-7.5-27.958-7.5-42.583
		c0-15.417,2.792-30.417,8.292-44.667c4.25-10.958,16.583-16.417,27.583-12.167s16.459,16.625,12.209,27.584
		c-3.584,9.291-5.417,19.125-5.417,29.25C430.5,765.292,432.167,774.708,435.417,783.625z M557.25,871.333
		c-14.417,5.667-29.625,8.5-45.167,8.5c-16.75,0-33.041-3.291-48.375-9.75c-10.833-4.583-15.916-17.125-11.333-27.958
		s17.125-15.917,27.958-11.333c19.334,8.166,41.709,8.5,61.334,0.833c11-4.333,23.333,1.083,27.666,12.042
		C573.625,854.667,568.208,867.042,557.25,871.333z M468.5,755.625c0-23.958,19.5-43.5,43.5-43.5s43.5,19.542,43.5,43.5
		c0,24-19.5,43.5-43.5,43.5S468.5,779.625,468.5,755.625z M571.208,668.875c-4.541,10.875-16.958,16-27.916,11.458
		c-20.959-8.791-45.459-8.208-66.042,1.542c-2.958,1.417-6.042,2.042-9.125,2.042c-8,0-15.625-4.5-19.292-12.209
		c-5.041-10.625-0.5-23.333,10.167-28.375c31.458-14.916,68.667-15.791,100.792-2.375C570.625,645.5,575.75,658,571.208,668.875z
		 M628.375,798.958c-3.208,8.584-11.333,13.875-20,13.875c-2.458,0-5-0.416-7.458-1.375c-11.042-4.125-16.625-16.416-12.5-27.416
		c3.375-9.042,5.083-18.584,5.083-28.375c0-10.334-1.917-20.459-5.708-30c-4.334-10.959,1-23.375,11.958-27.709
		c10.958-4.333,23.375,1.042,27.708,12c5.792,14.584,8.709,29.959,8.709,45.709C636.167,770.583,633.542,785.125,628.375,798.958z
		 M756.833,590.042H267.208V161.614h489.625V590.042z"/>
	<rect x="349.625" y="400.156" fill="#414042" width="34.667" height="42.667"/>
	<rect x="349.625" y="327.073" fill="#414042" width="34.667" height="42.666"/>
	<rect x="413.625" y="474.614" fill="#414042" width="34.667" height="42.667"/>
	<rect x="349.625" y="474.614" fill="#414042" width="34.667" height="42.667"/>
	<rect x="605.625" y="261.281" fill="#414042" width="34.667" height="42.667"/>
	<rect x="541.625" y="186.823" fill="#414042" width="34.667" height="42.666"/>
	<rect x="605.625" y="186.823" fill="#414042" width="34.667" height="42.666"/>
</g>
</svg>
