<?xml version="1.0" encoding="utf-8"?>
<!-- Generator: Adobe Illustrator 16.0.0, SVG Export Plug-In . SVG Version: 6.00 Build 0)  -->
<!DOCTYPE svg PUBLIC "-//W3C//DTD SVG 1.1//EN" "http://www.w3.org/Graphics/SVG/1.1/DTD/svg11.dtd">
<svg version="1.1" id="Layer_1" xmlns="http://www.w3.org/2000/svg" xmlns:xlink="http://www.w3.org/1999/xlink" x="0px" y="0px"
	 width="1024px" height="1024px" viewBox="0 0 1024 1024" enable-background="new 0 0 1024 1024" xml:space="preserve">
<g>
	<path fill="#414042" d="M138.667,135.979h746.666c11.792,0,21.334-9.542,21.334-21.334c0-11.791-9.542-21.333-21.334-21.333
		H138.667c-11.792,0-21.334,9.542-21.334,21.333C117.333,126.438,126.875,135.979,138.667,135.979z"/>
	<path fill="#414042" d="M885.333,164.479c-11.791,0-21.333,9.541-21.333,21.333v39.5H160v-39.5
		c0-11.792-9.542-21.333-21.333-21.333c-11.792,0-21.334,9.541-21.334,21.333v60.833v65.375v53.292
		c0,11.792,9.542,21.333,21.334,21.333h746.666c11.792,0,21.334-9.541,21.334-21.333v-53.292v-65.375v-60.833
		C906.667,174.021,897.125,164.479,885.333,164.479z M234.667,308.646c0,11.792-9.542,21.334-21.334,21.334H208
		c-11.792,0-21.333-9.542-21.333-21.334v-5.333c0-11.792,9.541-21.333,21.333-21.333h5.333c11.792,0,21.334,9.541,21.334,21.333
		V308.646z M317.333,308.646c0,11.792-9.541,21.334-21.333,21.334h-5.333c-11.792,0-21.334-9.542-21.334-21.334v-5.333
		c0-11.792,9.542-21.333,21.334-21.333H296c11.792,0,21.333,9.541,21.333,21.333V308.646z M530.667,308.646
		c0,11.792-9.542,21.334-21.334,21.334H504c-11.792,0-21.333-9.542-21.333-21.334v-5.333c0-11.792,9.541-21.333,21.333-21.333h5.333
		c11.792,0,21.334,9.541,21.334,21.333V308.646z M616,308.646c0,11.792-9.542,21.334-21.333,21.334h-5.334
		c-11.791,0-21.333-9.542-21.333-21.334v-5.333c0-11.792,9.542-21.333,21.333-21.333h5.334c11.791,0,21.333,9.541,21.333,21.333
		V308.646z M832,308.646c0,11.792-9.542,21.334-21.333,21.334h-5.334c-11.791,0-21.333-9.542-21.333-21.334v-5.333
		c0-11.792,9.542-21.333,21.333-21.333h5.334c11.791,0,21.333,9.541,21.333,21.333V308.646z"/>
	<path fill="#414042" d="M885.333,418.688c-11.791,0-21.333,9.542-21.333,21.333v39.5H160v-39.5
		c0-11.791-9.542-21.333-21.333-21.333c-11.792,0-21.334,9.542-21.334,21.333v60.834v65.375v53.291
		c0,11.792,9.542,21.334,21.334,21.334h746.666c11.792,0,21.334-9.542,21.334-21.334v-53.291v-65.375v-60.834
		C906.667,428.229,897.125,418.688,885.333,418.688z M234.667,562.854c0,11.791-9.542,21.333-21.334,21.333H208
		c-11.792,0-21.333-9.542-21.333-21.333v-5.334c0-11.75,9.541-21.333,21.333-21.333h5.333c11.792,0,21.334,9.583,21.334,21.333
		V562.854z M317.333,562.854c0,11.791-9.541,21.333-21.333,21.333h-5.333c-11.792,0-21.334-9.542-21.334-21.333v-5.334
		c0-11.75,9.542-21.333,21.334-21.333H296c11.792,0,21.333,9.583,21.333,21.333V562.854z M530.667,562.854
		c0,11.791-9.542,21.333-21.334,21.333H504c-11.792,0-21.333-9.542-21.333-21.333v-5.334c0-11.75,9.541-21.333,21.333-21.333h5.333
		c11.792,0,21.334,9.583,21.334,21.333V562.854z M616,562.854c0,11.791-9.542,21.333-21.333,21.333h-5.334
		c-11.791,0-21.333-9.542-21.333-21.333v-5.334c0-11.75,9.542-21.333,21.333-21.333h5.334c11.791,0,21.333,9.583,21.333,21.333
		V562.854z M832,562.854c0,11.791-9.542,21.333-21.333,21.333h-5.334c-11.791,0-21.333-9.542-21.333-21.333v-5.334
		c0-11.75,9.542-21.333,21.333-21.333h5.334c11.791,0,21.333,9.583,21.333,21.333V562.854z"/>
	<path fill="#414042" d="M885.333,668.479c-11.791,0-21.333,9.541-21.333,21.333v8v31.5H160v-31.5v-8
		c0-11.792-9.542-21.333-21.333-21.333c-11.792,0-21.334,9.541-21.334,21.333v8v52.833v65.375v53.292v40.042
		c0,11.791,9.542,21.333,21.334,21.333c11.791,0,21.333-9.542,21.333-21.333v-18.709h704v18.709
		c0,11.791,9.542,21.333,21.333,21.333c11.792,0,21.334-9.542,21.334-21.333v-40.042v-53.292v-65.375v-52.833v-8
		C906.667,678.021,897.125,668.479,885.333,668.479z M234.667,812.646c0,11.792-9.542,21.334-21.334,21.334H208
		c-11.792,0-21.333-9.542-21.333-21.334v-5.333c0-11.792,9.541-21.333,21.333-21.333h5.333c11.792,0,21.334,9.541,21.334,21.333
		V812.646z M317.333,812.646c0,11.792-9.541,21.334-21.333,21.334h-5.333c-11.792,0-21.334-9.542-21.334-21.334v-5.333
		c0-11.792,9.542-21.333,21.334-21.333H296c11.792,0,21.333,9.541,21.333,21.333V812.646z M530.667,812.646
		c0,11.792-9.542,21.334-21.334,21.334H504c-11.792,0-21.333-9.542-21.333-21.334v-5.333c0-11.792,9.541-21.333,21.333-21.333h5.333
		c11.792,0,21.334,9.541,21.334,21.333V812.646z M616,812.646c0,11.792-9.542,21.334-21.333,21.334h-5.334
		c-11.791,0-21.333-9.542-21.333-21.334v-5.333c0-11.792,9.542-21.333,21.333-21.333h5.334c11.791,0,21.333,9.541,21.333,21.333
		V812.646z M832,812.646c0,11.792-9.542,21.334-21.333,21.334h-5.334c-11.791,0-21.333-9.542-21.333-21.334v-5.333
		c0-11.792,9.542-21.333,21.333-21.333h5.334c11.791,0,21.333,9.541,21.333,21.333V812.646z"/>
</g>
</svg>
