<?xml version="1.0" encoding="utf-8"?>
<!-- Generator: Adobe Illustrator 16.0.0, SVG Export Plug-In . SVG Version: 6.00 Build 0)  -->
<!DOCTYPE svg PUBLIC "-//W3C//DTD SVG 1.1//EN" "http://www.w3.org/Graphics/SVG/1.1/DTD/svg11.dtd">
<svg version="1.1" id="Layer_1" xmlns="http://www.w3.org/2000/svg" xmlns:xlink="http://www.w3.org/1999/xlink" x="0px" y="0px"
	 width="1024px" height="1024px" viewBox="0 0 1024 1024" enable-background="new 0 0 1024 1024" xml:space="preserve">
<g>
	<polygon fill="#414042" points="926.167,232.75 772.625,151.792 260.792,151.792 107.25,232.75 107.25,233.542 926.167,233.542 	
		"/>
	<path fill="#414042" d="M907.292,554.875H116.708c-11.791,0-21.333,9.542-21.333,21.333c0,11.792,9.542,21.334,21.333,21.334
		H491.75c-0.458,1.75-1.083,3.416-1.083,5.333v226.667h-116c-11.792,0-21.334,9.541-21.334,21.333s9.542,21.333,21.334,21.333
		h274.666c11.792,0,21.334-9.541,21.334-21.333s-9.542-21.333-21.334-21.333h-116V602.875c0-1.917-0.583-3.583-1.083-5.333h375.042
		c11.791,0,21.333-9.542,21.333-21.334C928.625,564.417,919.083,554.875,907.292,554.875z"/>
	<path fill="#414042" d="M921.458,254.083H102.542v255.875h818.916V254.083z M226.667,387.625c0,11.792-9.542,21.333-21.334,21.333
		H200c-11.792,0-21.333-9.541-21.333-21.333v-5.333c0-11.792,9.541-21.334,21.333-21.334h5.333c11.792,0,21.334,9.542,21.334,21.334
		V387.625z M309.333,387.625c0,11.792-9.541,21.333-21.333,21.333h-5.333c-11.792,0-21.334-9.541-21.334-21.333v-5.333
		c0-11.792,9.542-21.334,21.334-21.334H288c11.792,0,21.333,9.542,21.333,21.334V387.625z M642.667,406.292H373.333
		c-11.791,0-21.333-9.542-21.333-21.334c0-11.791,9.542-21.333,21.333-21.333h269.334c11.791,0,21.333,9.542,21.333,21.333
		C664,396.75,654.458,406.292,642.667,406.292z M757.333,387.625c0,11.792-9.541,21.333-21.333,21.333h-5.333
		c-11.792,0-21.334-9.541-21.334-21.333v-5.333c0-11.792,9.542-21.334,21.334-21.334H736c11.792,0,21.333,9.542,21.333,21.334
		V387.625z M845.333,387.625c0,11.792-9.541,21.333-21.333,21.333h-5.333c-11.792,0-21.334-9.541-21.334-21.333v-5.333
		c0-11.792,9.542-21.334,21.334-21.334H824c11.792,0,21.333,9.542,21.333,21.334V387.625z"/>
</g>
</svg>
