<?xml version="1.0" encoding="utf-8"?>
<!-- Generator: Adobe Illustrator 16.0.0, SVG Export Plug-In . SVG Version: 6.00 Build 0)  -->
<!DOCTYPE svg PUBLIC "-//W3C//DTD SVG 1.1//EN" "http://www.w3.org/Graphics/SVG/1.1/DTD/svg11.dtd">
<svg version="1.1" id="Layer_1" xmlns="http://www.w3.org/2000/svg" xmlns:xlink="http://www.w3.org/1999/xlink" x="0px" y="0px"
	 width="1024px" height="1024px" viewBox="0 0 1024 1024" enable-background="new 0 0 1024 1024" xml:space="preserve">
<g>
	<path fill="#414042" d="M910.271,403.333C803.938,296.958,662.438,238.375,511.938,238.375
		c-150.417,0-291.833,58.583-398.208,164.958c-12.5,12.5-12.5,32.75,0,45.25s32.75,12.5,45.25,0
		c94.291-94.291,219.625-146.208,352.958-146.208c133.417,0,258.792,51.917,353.083,146.208c6.25,6.25,14.459,9.375,22.625,9.375
		c8.209,0,16.375-3.125,22.625-9.375C922.771,436.083,922.771,415.833,910.271,403.333z"/>
	<path fill="#414042" d="M511.938,371.125c-114.917,0-222.958,44.792-304.25,126.083c-12.5,12.5-12.5,32.75,0,45.25
		s32.75,12.5,45.25,0c69.208-69.208,161.208-107.333,259-107.333c97.875,0,189.917,38.125,259.167,107.333
		c6.25,6.25,14.458,9.375,22.625,9.375c8.208,0,16.375-3.125,22.625-9.375c12.5-12.5,12.5-32.791,0-45.25
		C735.021,415.917,626.938,371.125,511.938,371.125z"/>
	<path fill="#414042" d="M511.938,503.958c-79.417,0-154.167,30.959-210.375,87.167c-12.5,12.5-12.5,32.75,0,45.25
		s32.75,12.5,45.25,0c44.125-44.125,102.792-68.417,165.125-68.417c62.458,0,121.125,24.292,165.167,68.417
		c6.25,6.25,14.458,9.375,22.666,9.375c8.167,0,16.375-3.125,22.584-9.333c12.541-12.5,12.541-32.75,0.041-45.25
		C666.271,534.917,591.521,503.958,511.938,503.958z"/>
	<path fill="#414042" d="M511.979,664.667c-23.667,0-45.959,9.208-62.792,25.958c-6.042,6-9.417,14.125-9.458,22.625
		c0,8.5,3.375,16.667,9.375,22.708l40.25,40.292c6,6,14.125,9.375,22.625,9.375s16.625-3.375,22.625-9.375l40.291-40.292
		c6.042-6.041,9.417-14.166,9.375-22.666c0-8.542-3.416-16.667-9.416-22.667C558.021,673.875,535.688,664.667,511.979,664.667z"/>
</g>
</svg>
