<?xml version="1.0" encoding="utf-8"?>
<!-- Generator: Adobe Illustrator 16.0.0, SVG Export Plug-In . SVG Version: 6.00 Build 0)  -->
<!DOCTYPE svg PUBLIC "-//W3C//DTD SVG 1.1//EN" "http://www.w3.org/Graphics/SVG/1.1/DTD/svg11.dtd">
<svg version="1.1" id="Layer_1" xmlns="http://www.w3.org/2000/svg" xmlns:xlink="http://www.w3.org/1999/xlink" x="0px" y="0px"
	 width="1024px" height="1024px" viewBox="0 0 1024 1024" enable-background="new 0 0 1024 1024" xml:space="preserve">
<g>
	<path fill="#414042" d="M512,733.854c-17.688,0-32,14.333-32,32v124.813c0,17.666,14.313,32,32,32s32-14.334,32-32V765.854
		C544,748.188,529.688,733.854,512,733.854z"/>
	<path fill="#414042" d="M512.021,490.708c-19.958,0-36.208,16.25-36.208,36.209c0,19.958,16.25,36.188,36.208,36.188
		c19.959,0,36.188-16.229,36.188-36.188C548.208,506.958,531.979,490.708,512.021,490.708z"/>
	<path fill="#414042" d="M809.188,328.375c-0.396-6.708-3.375-19.458-18.625-29.292c-3.458-2.208-7.458-3.396-11.563-3.396H663.708
		V133.333c0-17.666-14.313-32-32-32s-32,14.334-32,32v162.354H422.625V133.333c0-17.666-14.313-32-32-32s-32,14.334-32,32v162.354
		H245c-4.313,0-8.521,1.313-12.063,3.75c-14.958,10.271-18.167,22.417-18.208,30.792c-0.125,18.541,14.938,30.146,17.958,32.271
		c3.458,2.458,7.563,3.813,11.792,3.917l44.083,1.063v135.458c1.542,161.521,146.833,204.208,223.417,204.208h16.313
		c83.938,0,203.708-63.25,207.146-204.416V368H779c4.979,0,9.813-1.75,13.646-4.938
		C795.604,360.604,810.354,347.333,809.188,328.375z M512.021,605.771c-43.5,0-78.875-35.375-78.875-78.854
		c0-43.5,35.375-78.875,78.875-78.875c43.479,0,78.854,35.375,78.854,78.875C590.875,570.396,555.5,605.771,512.021,605.771z"/>
</g>
</svg>
