<?xml version="1.0" encoding="utf-8"?>
<!-- Generator: Adobe Illustrator 16.0.0, SVG Export Plug-In . SVG Version: 6.00 Build 0)  -->
<!DOCTYPE svg PUBLIC "-//W3C//DTD SVG 1.1//EN" "http://www.w3.org/Graphics/SVG/1.1/DTD/svg11.dtd">
<svg version="1.1" id="Layer_1" xmlns="http://www.w3.org/2000/svg" xmlns:xlink="http://www.w3.org/1999/xlink" x="0px" y="0px"
	 width="1024px" height="1024px" viewBox="0 0 1024 1024" enable-background="new 0 0 1024 1024" xml:space="preserve">
<g>
	<path fill="#414042" d="M511.979,750c-11.792,0-21.334,9.542-21.334,21.333v124.834c0,11.791,9.542,21.333,21.334,21.333
		c11.791,0,21.333-9.542,21.333-21.333V771.333C533.313,759.542,523.771,750,511.979,750z"/>
	<path fill="#414042" d="M734.188,342.094c-0.083-11.729-9.604-21.188-21.333-21.188h-59.834V195.844
		c0-11.792-9.541-21.333-21.333-21.333s-21.333,9.541-21.333,21.333v125.063h-66.625V138.511c0-17.667-14.334-32-32-32
		c-17.667,0-32,14.333-32,32v182.396h-67.792V195.844c0-11.792-9.542-21.333-21.333-21.333c-11.792,0-21.334,9.541-21.334,21.333
		v125.063h-58.708c-11.75,0-21.292,9.5-21.333,21.25l-0.25,70.583h445.688L734.188,342.094z"/>
	<path fill="#414042" d="M734.938,455.406H288.833l-0.271,74.354c1.542,161.531,146.813,204.197,223.417,204.197h16.291h0.042
		c83.917,0,203.667-63.25,207.125-204.552L734.938,455.406z M511.729,626.583c-0.021,0-0.021,0-0.042,0
		c-23.729-0.041-43.042-19.375-43.042-43.083s19.313-43.042,43.042-43.042c23.75,0,43.083,19.334,43.083,43.084
		C554.771,607.25,535.458,626.583,511.729,626.583z"/>
</g>
</svg>
