<?xml version="1.0" encoding="utf-8"?>
<!-- Generator: Adobe Illustrator 16.0.0, SVG Export Plug-In . SVG Version: 6.00 Build 0)  -->
<!DOCTYPE svg PUBLIC "-//W3C//DTD SVG 1.1//EN" "http://www.w3.org/Graphics/SVG/1.1/DTD/svg11.dtd">
<svg version="1.1" id="Layer_1" xmlns="http://www.w3.org/2000/svg" xmlns:xlink="http://www.w3.org/1999/xlink" x="0px" y="0px"
	 width="1024px" height="1024px" viewBox="0 0 1024 1024" enable-background="new 0 0 1024 1024" xml:space="preserve">
<path fill="#414042" d="M733.813,659.208l-201.354-147.51l202.313-153c2.396-1.928,23.479-19.709,24.396-47.292
	c0.416-12.469-3.25-31.125-23.104-49.438c-0.667-0.625-1.375-1.219-2.104-1.781L565.292,135.136
	c-15.167-12.781-51.834-39.334-80.667-25.854c-9.125,4.261-24.375,15.938-24.063,45.896l-0.042,303.792L305.833,345.604
	c-11.479-8.396-27.625-5.938-36.063,5.563s-5.938,27.646,5.563,36.052l170.75,125.104L275.021,641.667
	c-11.354,8.604-13.604,24.791-5.021,36.146c8.583,11.396,24.75,13.604,36.146,5.021L460.5,566.125l-0.042,300.729
	c-1.291,29.646,11.375,42.271,22.25,47.646c5.688,2.792,11.521,3.958,17.25,3.917c19.438,0,37.75-13.167,45.188-19.459L734,758.417
	c0.708-0.542,1.396-1.125,2.063-1.75c19.854-18.313,23.521-37,23.104-49.459C758.25,679.625,737.167,661.875,733.813,659.208z
	 M512.167,161.052c6.354,3.469,14.125,8.688,20.313,13.928c0.458,0.406,0.916,0.76,1.396,1.114l168.083,124.636
	c3.584,3.489,5.667,6.76,5.646,8.885c-0.063,2.865-3.313,7.25-4.604,8.438L512.125,462.406L512.167,161.052z M701.958,717.917
	L513.167,858.5c-0.334,0.292-0.709,0.583-1.125,0.875l0.041-298.667l190.292,139.417c0.75,0.583,5.104,5.375,5.229,8.833
	C707.667,711.083,705.583,714.375,701.958,717.917z"/>
</svg>
