<?xml version="1.0" encoding="utf-8"?>
<!-- Generator: Adobe Illustrator 16.0.0, SVG Export Plug-In . SVG Version: 6.00 Build 0)  -->
<!DOCTYPE svg PUBLIC "-//W3C//DTD SVG 1.1//EN" "http://www.w3.org/Graphics/SVG/1.1/DTD/svg11.dtd">
<svg version="1.1" id="Layer_1" xmlns="http://www.w3.org/2000/svg" xmlns:xlink="http://www.w3.org/1999/xlink" x="0px" y="0px"
	 width="1024px" height="1024px" viewBox="0 0 1024 1024" enable-background="new 0 0 1024 1024" xml:space="preserve">
<g>
	<path fill="#414042" d="M398.229,512.021c0,62.709,51.041,113.75,113.791,113.75c62.709,0,113.75-51.041,113.75-113.75
		c0-62.75-51.041-113.791-113.75-113.791C449.271,398.229,398.229,449.271,398.229,512.021z M604.438,512.021
		c0,50.959-41.458,92.417-92.417,92.417c-50.979,0-92.458-41.458-92.458-92.417c0-50.979,41.479-92.458,92.458-92.458
		C562.979,419.563,604.438,461.042,604.438,512.021z"/>
	<path fill="#414042" d="M324.646,512.021c0-103.354,84.042-187.416,187.375-187.416c94.167,0,172.125,69.916,185.209,160.563
		l212.541-178.396c-74.583-143.979-224.729-242.75-397.75-242.75c-247.041,0-448.041,200.959-448.041,448
		c0,143.229,67.833,270.646,172.791,352.709L453.083,689.75C378.563,664.979,324.646,594.75,324.646,512.021z"/>
	<path fill="#414042" d="M919.333,326.583L700.896,509.938c-0.5,0.396-1.041,0.583-1.583,0.896c0.021,0.396,0.083,0.792,0.083,1.188
		c0,103.313-84.063,187.375-187.375,187.375c-11.313,0-22.333-1.188-33.083-3.104L254.396,877.896
		c72.959,51.521,161.709,82.084,257.625,82.084c247.021,0,448-200.959,448-447.959C960.021,445.833,945.208,383.167,919.333,326.583
		z"/>
</g>
</svg>
