<?xml version="1.0" encoding="utf-8"?>
<!-- Generator: Adobe Illustrator 16.0.0, SVG Export Plug-In . SVG Version: 6.00 Build 0)  -->
<!DOCTYPE svg PUBLIC "-//W3C//DTD SVG 1.1//EN" "http://www.w3.org/Graphics/SVG/1.1/DTD/svg11.dtd">
<svg version="1.1" id="Layer_1" xmlns="http://www.w3.org/2000/svg" xmlns:xlink="http://www.w3.org/1999/xlink" x="0px" y="0px"
	 width="1024px" height="1024px" viewBox="0 0 1024 1024" enable-background="new 0 0 1024 1024" xml:space="preserve">
<g>
	<path fill="#414042" d="M435.771,373.531c10,14.958,13.396,32.938,13.396,52.229c0,7.438-0.292,11.833-1.896,18.771
		c17.563,4.354,41.917,23.708,45.313,43.771h37.896c3.541-20.063,25.166-37.958,45.208-43.541c-1.667-7-3.313-11.459-3.313-19
		c0-19.292,2.729-37.271,12.729-52.229H435.771z"/>
	<path fill="#414042" d="M974,645.208l-38.125-230.031c0-0.063-0.042-0.125-0.042-0.125c-2.5-55.646-33.291-103.854-78.416-130.688
		v-23.416c0-24.125-19.584-43.75-43.709-43.75h-88.291c-24.125,0-43.792,19.625-43.792,43.75v29.875H337.708
		c-0.583-0.396-1.125-0.854-1.708-1.25v-28.625c0-24.125-19.625-43.75-43.75-43.75h-88.333c-24.125,0-43.75,19.625-43.75,43.75
		v25.979c-42.875,27.271-71.834,74.25-74.209,128.146c-0.041,0.104-0.083,0.188-0.125,0.291L49.958,645.458
		c-4.166,27-16.875,109.25,56.125,147.917c17.209,9.125,35.667,13.417,53.834,13.417c41.083,0,80.708-21.959,101.125-60.5
		l52.875-99.917c17.625,12.958,39.125,20.917,62.625,20.917c55.166,0,100.125-42.417,105.166-96.25h61.667
		c5.083,53.833,50,96.25,105.167,96.25c23.166,0,44.416-7.667,61.875-20.292L763,746.292c20.375,38.541,60.042,60.5,101.083,60.5
		c18.209,0,36.667-4.292,53.875-13.417C990.917,754.708,978.208,672.458,974,645.208z M255.771,503.636h-68.666
		c-11.792,0-21.334-9.542-21.334-21.334c0-11.791,9.542-21.333,21.334-21.333h68.666c11.792,0,21.334,9.542,21.334,21.333
		C277.104,494.094,267.563,503.636,255.771,503.636z M277.104,381.636h-68.667c-11.792,0-21.333-9.542-21.333-21.334
		c0-11.791,9.541-21.333,21.333-21.333h68.667c11.791,0,21.333,9.542,21.333,21.333
		C298.438,372.094,288.896,381.636,277.104,381.636z M376.542,592.625c-15.459,0-28.042-12.625-28.042-28.083
		c0-15.5,12.583-28.084,28.042-28.084c15.5,0,28.083,12.584,28.083,28.084C404.625,580,392.042,592.625,376.542,592.625z
		 M548.083,528.364h-71.166c-11.334-34.083-39.459-60.438-74.959-69.541c2.75-11.792,4.375-24.042,4.375-36.667
		c0-32.771-9.916-63.25-26.875-88.667h262.917c-16.958,25.417-26.875,55.896-26.875,88.667c0,12.792,1.667,25.167,4.5,37.083
		C585.958,468.698,559,494.739,548.083,528.364z M643.583,592.625c-15.458,0-28.083-12.625-28.083-28.083
		c0-15.5,12.625-28.084,28.083-28.084c15.459,0,28.042,12.584,28.042,28.084C671.625,580,659.042,592.625,643.583,592.625z
		 M720.438,360.302c0-11.791,9.542-21.333,21.333-21.333h68.667c11.792,0,21.333,9.542,21.333,21.333
		c0,11.792-9.541,21.334-21.333,21.334h-68.667C729.979,381.636,720.438,372.094,720.438,360.302z M831.771,503.636h-68.666
		c-11.792,0-21.334-9.542-21.334-21.334c0-11.791,9.542-21.333,21.334-21.333h68.666c11.792,0,21.334,9.542,21.334,21.333
		C853.104,494.094,843.563,503.636,831.771,503.636z"/>
</g>
</svg>
