<?xml version="1.0" encoding="utf-8"?>
<!-- Generator: Adobe Illustrator 16.0.0, SVG Export Plug-In . SVG Version: 6.00 Build 0)  -->
<!DOCTYPE svg PUBLIC "-//W3C//DTD SVG 1.1//EN" "http://www.w3.org/Graphics/SVG/1.1/DTD/svg11.dtd">
<svg version="1.1" id="Layer_1" xmlns="http://www.w3.org/2000/svg" xmlns:xlink="http://www.w3.org/1999/xlink" x="0px" y="0px"
	 width="1024px" height="1024px" viewBox="0 0 1024 1024" enable-background="new 0 0 1024 1024" xml:space="preserve">
<path fill="#414042" d="M666.458,115.167H357.583c-20.708,0-35.208,19.25-35.208,46.813v700c0,27.541,14.5,46.854,35.208,46.854
	h308.875c20.709,0,35.167-19.313,35.167-46.854v-700C701.625,134.417,687.167,115.167,666.458,115.167z M384.25,306.354
	c0-25.834,21-46.813,46.854-46.813H593c25.833,0,46.875,20.979,46.875,46.813v27.854c0,25.834-21.042,46.854-46.875,46.854H431.104
	c-25.854,0-46.854-21.021-46.854-46.854V306.354z M555.771,837.396h-87.479c-14.334,0-25.959-11.646-25.959-25.938
	c0-14.333,11.625-25.938,25.959-25.938h87.479c14.334,0,25.938,11.604,25.938,25.938
	C581.708,825.75,570.104,837.396,555.771,837.396z M512.042,772.042c-44.542,0-80.792-36.209-80.792-80.75
	c0-44.563,36.25-80.834,80.792-80.834c44.541,0,80.75,36.271,80.75,80.834C592.792,735.833,556.583,772.042,512.042,772.042z
	 M626.896,599.104H398.604c-14.313,0-25.938-11.646-25.938-25.938c0-14.334,11.625-25.938,25.938-25.938h228.291
	c14.334,0,25.938,11.604,25.938,25.938C652.833,587.458,641.229,599.104,626.896,599.104z"/>
</svg>
