<?xml version="1.0" encoding="utf-8"?>
<!-- Generator: Adobe Illustrator 16.0.0, SVG Export Plug-In . SVG Version: 6.00 Build 0)  -->
<!DOCTYPE svg PUBLIC "-//W3C//DTD SVG 1.1//EN" "http://www.w3.org/Graphics/SVG/1.1/DTD/svg11.dtd">
<svg version="1.1" id="Layer_1" xmlns="http://www.w3.org/2000/svg" xmlns:xlink="http://www.w3.org/1999/xlink" x="0px" y="0px"
	 width="1024px" height="1024px" viewBox="0 0 1024 1024" enable-background="new 0 0 1024 1024" xml:space="preserve">
<g>
	<path fill="#414042" d="M935.25,123.188H88.75c-29.417,0-53.333,23.917-53.333,53.333v547.209
		c0,29.416,23.916,53.333,53.333,53.333h846.5c29.417,0,53.333-23.917,53.333-53.333V176.521
		C988.583,147.104,964.667,123.188,935.25,123.188z M945.917,723.729c0,5.875-4.792,10.666-10.667,10.666H88.75
		c-5.875,0-10.667-4.791-10.667-10.666V176.521c0-5.875,4.792-10.666,10.667-10.666h846.5c5.875,0,10.667,4.791,10.667,10.666
		V723.729z"/>
	<path fill="#414042" d="M684,836.813c11.792,0,21.333-9.542,21.333-21.333c0-11.792-9.541-21.334-21.333-21.334H340
		c-11.792,0-21.333,9.542-21.333,21.334c0,11.791,9.541,21.333,21.333,21.333H684z"/>
	<path fill="#414042" d="M861.375,858.146H162.667c-11.792,0-21.334,9.542-21.334,21.334c0,11.791,9.542,21.333,21.334,21.333
		h698.708c11.792,0,21.333-9.542,21.333-21.333C882.708,867.688,873.167,858.146,861.375,858.146z"/>
</g>
</svg>
