<?xml version="1.0" encoding="utf-8"?>
<!-- Generator: Adobe Illustrator 16.0.0, SVG Export Plug-In . SVG Version: 6.00 Build 0)  -->
<!DOCTYPE svg PUBLIC "-//W3C//DTD SVG 1.1//EN" "http://www.w3.org/Graphics/SVG/1.1/DTD/svg11.dtd">
<svg version="1.1" id="Layer_1" xmlns="http://www.w3.org/2000/svg" xmlns:xlink="http://www.w3.org/1999/xlink" x="0px" y="0px"
	 width="1024px" height="1024px" viewBox="0 0 1024 1024" enable-background="new 0 0 1024 1024" xml:space="preserve">
<g>
	<path fill="#414042" d="M995.021,819.313c0-2.104-0.083-4.292-0.271-6.521H29.188c-0.167,2.208-0.25,4.375-0.25,6.438l0.021,48.479
		c2.521,34.167,24.459,52.5,66.209,54.479h833.625c0.333,0,0.688,0,1.021-0.021c40.729-1.959,62.667-20.292,65.25-56.063
		L995.021,819.313z"/>
	<path fill="#414042" d="M102.875,776.958h818.229c35.354,0,64-28.666,64-64V165.802c0-35.344-28.646-64-64-64H102.875
		c-35.354,0-64,28.656-64,64v547.156C38.875,748.292,67.521,776.958,102.875,776.958z M83.688,169.448
		c0-13.542,10.771-24.542,24-24.542h808.583c13.229,0,24,11,24,24.542V709.25c0,11.333-6.291,24.583-24,24.583H107.688
		c-13.229,0-24-11-24-24.583V169.448z"/>
</g>
</svg>
