<?xml version="1.0" encoding="utf-8"?>
<!-- Generator: Adobe Illustrator 16.0.0, SVG Export Plug-In . SVG Version: 6.00 Build 0)  -->
<!DOCTYPE svg PUBLIC "-//W3C//DTD SVG 1.1//EN" "http://www.w3.org/Graphics/SVG/1.1/DTD/svg11.dtd">
<svg version="1.1" id="Layer_1" xmlns="http://www.w3.org/2000/svg" xmlns:xlink="http://www.w3.org/1999/xlink" x="0px" y="0px"
	 width="1024px" height="1024px" viewBox="0 0 1024 1024" enable-background="new 0 0 1024 1024" xml:space="preserve">
<path fill="#414042" d="M724.729,75.229H299.271c-18.875,0-34.146,14.375-34.146,32.166v809.25
	c0,17.709,15.271,32.125,34.146,32.125h425.459c18.896,0,34.146-14.416,34.146-32.125v-809.25
	C758.875,89.604,743.625,75.229,724.729,75.229z M470.708,139.146h82.584c5.896,0,10.666,4.771,10.666,10.667
	s-4.771,10.667-10.666,10.667h-82.584c-5.896,0-10.666-4.771-10.666-10.667S464.813,139.146,470.708,139.146z M512.021,898.188
	c-19.104,0-34.646-15.542-34.646-34.625c0-19.125,15.542-34.667,34.646-34.667c19.084,0,34.604,15.542,34.604,34.667
	C546.625,882.646,531.104,898.188,512.021,898.188z M682.417,757.354c0,5.896-4.771,10.666-10.667,10.666H357.063
	c-5.896,0-10.667-4.771-10.667-10.666V221.729c0-5.896,4.771-10.667,10.667-10.667H671.75c5.896,0,10.667,4.771,10.667,10.667
	V757.354z"/>
</svg>
