<?xml version="1.0" encoding="utf-8"?>
<!-- Generator: Adobe Illustrator 16.0.0, SVG Export Plug-In . SVG Version: 6.00 Build 0)  -->
<!DOCTYPE svg PUBLIC "-//W3C//DTD SVG 1.1//EN" "http://www.w3.org/Graphics/SVG/1.1/DTD/svg11.dtd">
<svg version="1.1" id="Layer_1" xmlns="http://www.w3.org/2000/svg" xmlns:xlink="http://www.w3.org/1999/xlink" x="0px" y="0px"
	 width="1024px" height="1024px" viewBox="0 0 1024 1024" enable-background="new 0 0 1024 1024" xml:space="preserve">
<path fill="#414042" d="M705.896,31.011H318.063c-55.292,0-100.313,44.666-100.313,99.604v762.761
	c0,54.958,45.021,99.625,100.313,99.625h387.833c55.313,0,100.334-44.667,100.334-99.625V130.614
	C806.229,75.677,761.208,31.011,705.896,31.011z M432.896,100.094h151c13,0,23.521,6.479,23.521,14.438
	c0,7.979-10.521,14.458-23.521,14.458h-151c-13,0-23.541-6.479-23.541-14.458C409.354,106.573,419.896,100.094,432.896,100.094z
	 M326.708,221.156c0-12.896,10.521-23.354,23.479-23.354h323.604c13,0,23.521,10.459,23.521,23.354v321.386
	c0,12.875-10.521,23.333-23.521,23.333H350.188c-12.958,0-23.479-10.458-23.479-23.333V221.156z M346.563,639.542h55.792
	c12.958,0,23.5,10.416,23.5,23.333s-10.542,23.375-23.5,23.375h-55.792c-12.958,0-23.5-10.458-23.5-23.375
	S333.604,639.542,346.563,639.542z M403.229,908.25H347.5c-12.938,0-23.479-10.417-23.479-23.333
	c0-12.917,10.542-23.375,23.479-23.375h55.729c12.979,0,23.5,10.458,23.5,23.375C426.729,897.833,416.208,908.25,403.229,908.25z
	 M403.229,797.208H347.5c-12.938,0-23.479-10.458-23.479-23.333c0-12.917,10.542-23.333,23.479-23.333h55.729
	c12.979,0,23.5,10.416,23.5,23.333C426.729,786.75,416.208,797.208,403.229,797.208z M484.104,639.542h55.791
	c12.959,0,23.459,10.416,23.459,23.333s-10.5,23.375-23.459,23.375h-55.791c-12.959,0-23.5-10.458-23.5-23.375
	S471.146,639.542,484.104,639.542z M540.75,908.25H485c-12.979,0-23.5-10.417-23.5-23.333c0-12.917,10.521-23.375,23.5-23.375h55.75
	c12.979,0,23.479,10.458,23.479,23.375C564.229,897.833,553.729,908.25,540.75,908.25z M540.75,797.208H485
	c-12.979,0-23.5-10.458-23.5-23.333c0-12.917,10.521-23.333,23.5-23.333h55.75c12.979,0,23.479,10.416,23.479,23.333
	C564.229,786.75,553.729,797.208,540.75,797.208z M619.833,639.542h55.771c13,0,23.479,10.416,23.479,23.333
	s-10.479,23.375-23.479,23.375h-55.771c-12.979,0-23.5-10.458-23.5-23.375S606.854,639.542,619.833,639.542z M676.479,908.25
	h-55.709c-13,0-23.5-10.417-23.5-23.333c0-12.917,10.5-23.375,23.5-23.375h55.709c13,0,23.5,10.458,23.5,23.375
	C699.979,897.833,689.479,908.25,676.479,908.25z M676.479,797.208h-55.709c-13,0-23.5-10.458-23.5-23.333
	c0-12.917,10.5-23.333,23.5-23.333h55.709c13,0,23.5,10.416,23.5,23.333C699.979,786.75,689.479,797.208,676.479,797.208z"/>
</svg>
