<?xml version="1.0" encoding="utf-8"?>
<!-- Generator: Adobe Illustrator 16.0.0, SVG Export Plug-In . SVG Version: 6.00 Build 0)  -->
<!DOCTYPE svg PUBLIC "-//W3C//DTD SVG 1.1//EN" "http://www.w3.org/Graphics/SVG/1.1/DTD/svg11.dtd">
<svg version="1.1" id="Layer_1" xmlns="http://www.w3.org/2000/svg" xmlns:xlink="http://www.w3.org/1999/xlink" x="0px" y="0px"
	 width="1024px" height="1024px" viewBox="0 0 1024 1024" enable-background="new 0 0 1024 1024" xml:space="preserve">
<g>
	<path fill="#414042" d="M392.417,366.708H259.75c-15.042,0-27.25,12.188-27.25,27.25v236.104c0,15.063,12.208,27.229,27.25,27.229
		h132.667c15.041,0,27.25-12.167,27.25-27.229V393.958C419.667,378.896,407.458,366.708,392.417,366.708z"/>
	<path fill="#414042" d="M598.792,217.063L448,353.604c7,5.666,11.792,14,11.792,23.771v269.25c0,7.25-2.875,13.604-7,18.896
		l146,132.209l-0.084,0.041c72.875,70.875,109.209,116.063,192.792,116.063V110.167
		C711.125,110.167,666.333,156.833,598.792,217.063z"/>
</g>
</svg>
