<?xml version="1.0" encoding="utf-8"?>
<!-- Generator: Adobe Illustrator 16.0.0, SVG Export Plug-In . SVG Version: 6.00 Build 0)  -->
<!DOCTYPE svg PUBLIC "-//W3C//DTD SVG 1.1//EN" "http://www.w3.org/Graphics/SVG/1.1/DTD/svg11.dtd">
<svg version="1.1" id="Layer_1" xmlns="http://www.w3.org/2000/svg" xmlns:xlink="http://www.w3.org/1999/xlink" x="0px" y="0px"
	 width="1024px" height="1024px" viewBox="0 0 1024 1024" enable-background="new 0 0 1024 1024" xml:space="preserve">
<g>
	<path fill="#414042" d="M216.25,366.708H83.625c-15.042,0-27.25,12.188-27.25,27.25v236.104c0,15.063,12.208,27.229,27.25,27.229
		H216.25c15.042,0,27.25-12.167,27.25-27.229V393.958C243.5,378.896,231.292,366.708,216.25,366.708z"/>
	<path fill="#414042" d="M271.875,353.604c7,5.666,11.792,14,11.792,23.771v269.25c0,7.25-2.875,13.604-7.042,18.896
		l146.042,132.209l-0.084,0.041c72.875,70.875,109.209,116.063,192.75,116.063V110.167c-80.333,0-125.166,46.666-192.666,106.896
		L271.875,353.604z"/>
	<path fill="#414042" d="M728.958,440.667c-7.625-8.979-21.083-10.084-30.041-2.479c-9,7.625-10.125,21.083-2.5,30.063
		c16.333,19.229,25.291,43.563,25.291,68.5c0,25.292-9.208,49.875-25.875,69.229c-7.708,8.916-6.708,22.396,2.209,30.083
		c4.041,3.479,9,5.188,13.916,5.188c6,0,11.959-2.5,16.167-7.396c23.375-27.104,36.25-61.584,36.25-97.104
		C764.375,501.708,751.792,467.583,728.958,440.667z"/>
	<path fill="#414042" d="M842.5,267c-10.333-5.708-23.292-1.875-28.958,8.458c-5.667,10.334-1.875,23.292,8.458,28.959
		c59.292,32.458,103.5,123.041,102.917,210.708c-0.709,98.229-24.709,160.229-82.875,214.021c-8.625,8-9.167,21.5-1.167,30.146
		c4.208,4.541,9.917,6.854,15.667,6.854c5.166,0,10.375-1.875,14.458-5.666c66.917-61.875,95.792-135.167,96.583-245.063
		C968.292,411.563,915.708,307.083,842.5,267z"/>
	<path fill="#414042" d="M795.542,352.021c-7.5-9.063-20.917-10.333-30.042-2.875c-9.083,7.5-10.375,20.959-2.875,30.042
		c33.5,40.583,51.958,91.979,51.958,144.771c0,53.459-18.875,105.396-53.208,146.229c-7.583,9.021-6.417,22.479,2.625,30.063
		c4,3.354,8.875,5,13.708,5c6.084,0,12.125-2.583,16.334-7.604c40.791-48.521,63.208-110.208,63.208-173.688
		C857.25,461.292,835.333,400.229,795.542,352.021z"/>
</g>
</svg>
