<?xml version="1.0" encoding="utf-8"?>
<!-- Generator: Adobe Illustrator 16.0.0, SVG Export Plug-In . SVG Version: 6.00 Build 0)  -->
<!DOCTYPE svg PUBLIC "-//W3C//DTD SVG 1.1//EN" "http://www.w3.org/Graphics/SVG/1.1/DTD/svg11.dtd">
<svg version="1.1" id="Layer_1" xmlns="http://www.w3.org/2000/svg" xmlns:xlink="http://www.w3.org/1999/xlink" x="0px" y="0px"
	 width="1024px" height="1024px" viewBox="0 0 1024 1024" enable-background="new 0 0 1024 1024" xml:space="preserve">
<g>
	<path fill="#414042" d="M279.458,609.625V386.761c0-14.209-11.521-25.729-25.708-25.729H128.542
		c-14.209,0-25.729,11.521-25.729,25.729v222.864c0,14.25,11.521,25.708,25.729,25.708H253.75
		C267.938,635.333,279.458,623.875,279.458,609.625z"/>
	<path fill="#414042" d="M911.813,173.739c-6.042-6.041-14.083-9.375-22.625-9.375s-16.583,3.334-22.625,9.375L189.854,850.458
		c-6.042,6.042-9.375,14.084-9.375,22.625c0,8.542,3.333,16.584,9.375,22.625c6.041,6.042,14.083,9.375,22.625,9.375
		c8.541,0,16.583-3.333,22.625-9.375l676.708-676.719c6.042-6.041,9.375-14.083,9.375-22.625
		C921.188,187.823,917.854,179.781,911.813,173.739z"/>
	<path fill="#414042" d="M449.771,767.917l-0.083,0.041C518.479,834.875,552.771,877.5,631.646,877.5v-318L435.854,755.292
		L449.771,767.917z"/>
	<path fill="#414042" d="M318.542,371.114v254.178c0,6.833-2.709,12.833-6.625,17.833l13.104,11.833l306.5-306.51l0.125-229.542
		c-75.854,0-118.146,44.042-181.875,100.896L307.417,348.677C314.042,354.031,318.542,361.927,318.542,371.114z"/>
</g>
</svg>
