<?xml version="1.0" encoding="utf-8"?>
<!-- Generator: Adobe Illustrator 16.0.0, SVG Export Plug-In . SVG Version: 6.00 Build 0)  -->
<!DOCTYPE svg PUBLIC "-//W3C//DTD SVG 1.1//EN" "http://www.w3.org/Graphics/SVG/1.1/DTD/svg11.dtd">
<svg version="1.1" id="Layer_1" xmlns="http://www.w3.org/2000/svg" xmlns:xlink="http://www.w3.org/1999/xlink" x="0px" y="0px"
	 width="1024px" height="1024px" viewBox="0 0 1024 1024" enable-background="new 0 0 1024 1024" xml:space="preserve">
<g>
	<path fill="#414042" d="M61.417,33.042c-11.771,0-21.334,9.541-21.334,21.333s9.563,21.333,21.334,21.333
		c492,0,892.25,400.271,892.25,892.25c0,11.792,9.563,21.334,21.333,21.334c11.792,0,21.333-9.542,21.333-21.334
		C996.333,452.438,576.938,33.042,61.417,33.042z"/>
	<path fill="#414042" d="M61.417,295.875c-11.771,0-21.334,9.542-21.334,21.333c0,11.792,9.563,21.334,21.334,21.334
		c347.083,0,629.458,282.354,629.458,629.416c0,11.792,9.542,21.334,21.333,21.334c11.771,0,21.334-9.542,21.334-21.334
		C733.542,597.375,432.042,295.875,61.417,295.875z"/>
	<path fill="#414042" d="M61.417,544.958c-11.771,0-21.334,9.542-21.334,21.334c0,11.791,9.563,21.333,21.334,21.333
		c209.688,0,380.291,170.625,380.291,380.333c0,11.792,9.542,21.334,21.334,21.334c11.771,0,21.333-9.542,21.333-21.334
		C484.375,734.708,294.625,544.958,61.417,544.958z"/>
	<path fill="#414042" d="M122.917,800.438c-52.542,0-95.271,42.75-95.271,95.313c0,52.5,42.729,95.208,95.271,95.208
		c52.479,0,95.166-42.708,95.166-95.208C218.083,843.188,175.396,800.438,122.917,800.438z M122.917,948.292
		c-29,0-52.604-23.563-52.604-52.542c0-29.021,23.604-52.646,52.604-52.646c28.958,0,52.5,23.625,52.5,52.646
		C175.417,924.729,151.875,948.292,122.917,948.292z"/>
</g>
</svg>
