<?xml version="1.0" encoding="utf-8"?>
<!-- Generator: Adobe Illustrator 16.0.0, SVG Export Plug-In . SVG Version: 6.00 Build 0)  -->
<!DOCTYPE svg PUBLIC "-//W3C//DTD SVG 1.1//EN" "http://www.w3.org/Graphics/SVG/1.1/DTD/svg11.dtd">
<svg version="1.1" id="Layer_1" xmlns="http://www.w3.org/2000/svg" xmlns:xlink="http://www.w3.org/1999/xlink" x="0px" y="0px"
	 width="48px" height="48px" viewBox="0 0 48 48" enable-background="new 0 0 48 48" xml:space="preserve">
<g>
	<path fill="#414042" d="M39.572,22.985c-0.578-0.625-1.352-0.941-2.297-0.941c-0.005,0-0.105,0.001-0.109,0.001
		c-1.071,0.028-1.896,0.416-2.469,1.165c-0.116-0.589-0.363-1.277-0.878-1.839c-0.641-0.702-1.547-1.057-2.692-1.057l-0.153,0.002
		c-1.327,0.036-2.171,0.518-2.707,1.139c-0.113-0.571-0.369-1.319-0.948-1.914c-0.623-0.641-1.476-0.966-2.543-0.966
		c-1.213,0.003-2.055,0.542-2.617,1.247l-0.001-7.067c0.008-0.094,0.19-2.329-1.067-3.703c-0.626-0.684-1.483-1.031-2.546-1.031
		c-0.882,0-1.612,0.301-2.17,0.894c-1.271,1.351-1.142,3.755-1.136,3.826v15.317l-0.875-2.579c-0.045-0.177-1.129-4.334-3.824-4.334
		c-0.347,0-0.705,0.071-1.063,0.211c-0.908,0.355-1.538,0.95-1.871,1.767c-0.711,1.744,0.229,3.864,0.257,3.923
		c0.201,0.537,4.937,13.181,5.379,14.289c0.012,0.044,1.21,4.407,6.582,4.407l5.824-0.001l7.065,0.001l0.135,0.002
		c0.799,0,7.808-0.201,7.808-7.139l-0.001-11.884C40.659,26.625,40.818,24.329,39.572,22.985z M39.653,26.685v11.922
		c0,5.843-5.671,6.139-6.808,6.139v0.5l-0.116-0.502l-7.084-0.001l-5.828,0.001c-4.577,0-5.571-3.512-5.629-3.717
		c-0.458-1.158-5.342-14.199-5.404-14.361c-0.008-0.018-0.805-1.813-0.255-3.164c0.229-0.562,0.657-0.958,1.31-1.213
		c0.242-0.095,0.477-0.143,0.699-0.143c1.593,0,2.601,2.584,2.866,3.618l1.859,5.487c0.079,0.232,0.31,0.373,0.555,0.333
		c0.241-0.04,0.418-0.248,0.418-0.493l-0.001-18.379c-0.035-0.572,0.053-2.248,0.865-3.11c0.367-0.39,0.839-0.579,1.442-0.579
		c0.781,0,1.372,0.23,1.806,0.703c0.96,1.045,0.813,2.924,0.809,2.986v15.43c0,0.192,0.167,0.395,0.339,0.478
		c0.156,0.075,0.338,0.064,0.484-0.027c0.146-0.092,0.234-0.252,0.233-0.425l-0.024-5.876c0.012-0.111,0.315-2.709,2.595-2.715
		c0.773,0,1.383,0.222,1.812,0.659c0.774,0.79,0.757,2.054,0.757,2.079l0.001,1.562c-0.026,0.384-0.003,0.653-0.001,0.658v4.614
		c0,0.276,0.224,0.5,0.5,0.5s0.5-0.224,0.5-0.5v-0.023c0,0,0-0.001,0-0.002l-0.001-5.177c0.081-1.169,0.605-2.574,2.647-2.628
		l0.126-0.002c0.851,0,1.507,0.245,1.951,0.728c0.827,0.9,0.713,2.368,0.71,2.426l0.003,1.348c-0.113,1.035-0.072,2.15-0.035,3.135
		c0.017,0.44,0.032,0.857,0.032,1.23c0,0.276,0.224,0.5,0.5,0.5s0.5-0.224,0.5-0.5c0-0.007,0-0.013,0-0.02l-0.003-4.236
		c0.215-1.954,0.957-2.841,2.49-2.88c0.664,0,1.175,0.203,1.562,0.619C39.786,24.684,39.656,26.628,39.653,26.685z"/>
	<path fill="#414042" d="M9.632,16.466h2.158c0.276,0,0.5-0.224,0.5-0.5s-0.224-0.5-0.5-0.5H9.632c-0.459,0-0.848-0.273-0.848-0.597
		V3.854c0-0.324,0.388-0.598,0.848-0.598h22.141c0.462,0,0.852,0.274,0.852,0.598v11.016c0,0.323-0.39,0.597-0.852,0.597h-2.506
		c-0.276,0-0.5,0.224-0.5,0.5s0.224,0.5,0.5,0.5h2.506c1.021,0,1.852-0.716,1.852-1.597V3.854c0-0.881-0.831-1.598-1.852-1.598
		H9.632c-1.019,0-1.848,0.717-1.848,1.598v11.016C7.784,15.75,8.613,16.466,9.632,16.466z"/>
</g>
</svg>
