<?xml version="1.0" encoding="utf-8"?>
<!-- Generator: Adobe Illustrator 16.0.0, SVG Export Plug-In . SVG Version: 6.00 Build 0)  -->
<!DOCTYPE svg PUBLIC "-//W3C//DTD SVG 1.1//EN" "http://www.w3.org/Graphics/SVG/1.1/DTD/svg11.dtd">
<svg version="1.1" id="Layer_1" xmlns="http://www.w3.org/2000/svg" xmlns:xlink="http://www.w3.org/1999/xlink" x="0px" y="0px"
	 width="48px" height="48px" viewBox="0 0 48 48" enable-background="new 0 0 48 48" xml:space="preserve">
<g>
	<path fill="#414042" d="M39.483,25.091c-0.576-0.621-1.346-0.936-2.287-0.936c-0.004,0-0.104,0.001-0.108,0.001
		c-1.063,0.028-1.881,0.412-2.451,1.154c-0.117-0.584-0.363-1.266-0.873-1.824c-0.638-0.698-1.539-1.051-2.679-1.051l-0.153,0.002
		c-1.316,0.036-2.155,0.513-2.688,1.129c-0.112-0.568-0.368-1.309-0.942-1.899c-0.62-0.637-1.467-0.96-2.528-0.96
		c-1.205,0.002-2.042,0.537-2.602,1.235l-0.001-7.018c0.008-0.094,0.189-2.316-1.061-3.682c-0.623-0.681-1.476-1.026-2.534-1.026
		c-0.878,0-1.605,0.299-2.16,0.89c-1.265,1.344-1.136,3.734-1.131,3.805v15.206l-0.861-2.543c-0.045-0.176-1.126-4.311-3.807-4.311
		c-0.346,0-0.702,0.071-1.058,0.21c-0.903,0.353-1.53,0.944-1.862,1.758c-0.708,1.734,0.227,3.844,0.254,3.903
		c0.2,0.534,4.909,13.104,5.351,14.206c0.011,0.044,1.201,4.383,6.543,4.383l5.791-0.001l7.023,0.001l0.134,0.002
		c0.795,0,7.767-0.199,7.767-7.1L40.559,28.81C40.565,28.713,40.723,26.429,39.483,25.091z M39.56,28.771v11.854
		c0,5.805-5.637,6.1-6.767,6.1v0.5l-0.115-0.502l-7.042-0.001l-5.794,0.001c-4.548,0-5.533-3.487-5.591-3.693
		c-0.457-1.152-5.314-14.116-5.375-14.276c-0.225-0.498-0.707-2.032-0.252-3.145c0.227-0.558,0.652-0.951,1.3-1.205
		c0.24-0.094,0.473-0.142,0.693-0.142c1.582,0,2.585,2.568,2.849,3.594l1.846,5.456c0.078,0.232,0.31,0.376,0.555,0.333
		c0.242-0.04,0.419-0.248,0.419-0.493L16.283,14.88c-0.001-0.021-0.107-2.065,0.862-3.091c0.364-0.386,0.832-0.573,1.43-0.573
		c0.775,0,1.362,0.229,1.793,0.698c0.954,1.038,0.807,2.904,0.803,2.966v15.328c0,0.19,0.164,0.392,0.335,0.477
		c0.155,0.075,0.338,0.066,0.486-0.025c0.146-0.092,0.235-0.253,0.235-0.426l-0.023-5.831c0.011-0.11,0.3-2.69,2.579-2.695
		c0.768,0,1.372,0.22,1.797,0.653c0.769,0.785,0.752,2.041,0.752,2.065l0.001,1.555c-0.026,0.381-0.003,0.647-0.001,0.652v4.582
		c0,0.276,0.224,0.5,0.5,0.5s0.5-0.224,0.5-0.5V31.19c0,0,0-0.001,0-0.002l-0.001-5.14c0.08-1.161,0.601-2.557,2.628-2.611
		l0.126-0.002c0.845,0,1.496,0.243,1.937,0.722c0.822,0.894,0.71,2.352,0.707,2.41l0.003,1.334c-0.113,1.03-0.072,2.141-0.035,3.12
		c0.017,0.438,0.032,0.853,0.032,1.225c0,0.276,0.224,0.5,0.5,0.5s0.5-0.224,0.5-0.5c0-0.007,0-0.013,0-0.02l-0.003-4.216
		c0.213-1.937,0.95-2.816,2.471-2.855c0.66,0,1.167,0.2,1.552,0.613C39.691,26.783,39.563,28.715,39.56,28.771z"/>
	<path fill="#414042" d="M8.877,8.22l4.436,1.989c0.066,0.03,0.136,0.044,0.204,0.044c0.191,0,0.374-0.11,0.457-0.295
		c0.113-0.252,0-0.548-0.251-0.661L9.287,7.308c-0.251-0.112-0.547,0-0.661,0.251C8.513,7.811,8.625,8.107,8.877,8.22z"/>
	<path fill="#414042" d="M15.721,7.591c0.099,0.104,0.231,0.158,0.365,0.158c0.123,0,0.246-0.045,0.342-0.135
		c0.201-0.189,0.211-0.505,0.022-0.707l-3.549-3.783c-0.189-0.2-0.505-0.21-0.707-0.022c-0.201,0.189-0.211,0.505-0.022,0.707
		L15.721,7.591z"/>
	<path fill="#414042" d="M18.354,5.858c0.276,0,0.5-0.224,0.5-0.5V0.777c0-0.276-0.224-0.5-0.5-0.5s-0.5,0.224-0.5,0.5v4.581
		C17.854,5.635,18.077,5.858,18.354,5.858z"/>
	<path fill="#414042" d="M21.442,6.787c0.125,0,0.249-0.046,0.346-0.139l3.359-3.221c0.199-0.191,0.206-0.507,0.016-0.707
		c-0.192-0.199-0.508-0.206-0.708-0.015l-3.359,3.221c-0.199,0.191-0.206,0.507-0.015,0.707C21.18,6.735,21.311,6.787,21.442,6.787z
		"/>
	<path fill="#414042" d="M23.375,9.869c0.055,0.229,0.26,0.384,0.486,0.384c0.039,0,0.078-0.004,0.117-0.014l4.166-0.994
		c0.269-0.064,0.435-0.334,0.37-0.603c-0.064-0.268-0.332-0.435-0.603-0.37l-4.166,0.994C23.477,9.331,23.311,9.601,23.375,9.869z"
		/>
</g>
</svg>
