<?xml version="1.0" encoding="utf-8"?>
<!-- Generator: Adobe Illustrator 16.0.0, SVG Export Plug-In . SVG Version: 6.00 Build 0)  -->
<!DOCTYPE svg PUBLIC "-//W3C//DTD SVG 1.1//EN" "http://www.w3.org/Graphics/SVG/1.1/DTD/svg11.dtd">
<svg version="1.1" id="Layer_1" xmlns="http://www.w3.org/2000/svg" xmlns:xlink="http://www.w3.org/1999/xlink" x="0px" y="0px"
	 width="48px" height="48px" viewBox="0 0 48 48" enable-background="new 0 0 48 48" xml:space="preserve">
<g>
	<path fill="#414042" d="M15.231,11.573c0.061,0,0.122-0.011,0.182-0.034c0.257-0.1,0.385-0.39,0.284-0.647
		c-0.251-0.645-0.379-1.324-0.379-2.02c0-3.067,2.495-5.563,5.561-5.563c3.065,0,5.559,2.495,5.559,5.563
		c0,0.54-0.077,1.074-0.23,1.588c-0.078,0.265,0.072,0.543,0.337,0.622c0.269,0.078,0.544-0.073,0.622-0.337
		c0.18-0.607,0.271-1.237,0.271-1.873c0-3.619-2.942-6.563-6.559-6.563c-3.618,0-6.561,2.944-6.561,6.563
		c0,0.82,0.15,1.622,0.447,2.383C14.843,11.453,15.032,11.573,15.231,11.573z"/>
	<path fill="#414042" d="M8.978,18.696c1.176-0.563,2.5-0.635,3.727-0.204c1.229,0.432,2.215,1.316,2.778,2.491
		c0.12,0.249,0.417,0.354,0.667,0.234c0.249-0.119,0.354-0.418,0.234-0.667c-0.678-1.416-1.867-2.481-3.348-3.002
		c-1.482-0.521-3.076-0.433-4.491,0.246c-1.417,0.679-2.484,1.868-3.005,3.349S5.106,24.22,5.783,25.63
		c0.026,0.055,0.635,1.358,1.442,2.282c0.099,0.113,0.237,0.171,0.376,0.171c0.117,0,0.234-0.041,0.329-0.123
		c0.208-0.182,0.229-0.498,0.047-0.706c-0.712-0.814-1.283-2.033-1.291-2.052c-0.563-1.174-0.636-2.498-0.203-3.727
		S7.802,19.259,8.978,18.696z"/>
	<path fill="#414042" d="M41.711,23.059c-0.576-0.621-1.345-0.936-2.285-0.936c-0.005,0-0.105,0.001-0.109,0.001
		c-1.063,0.028-1.882,0.412-2.452,1.154c-0.117-0.585-0.363-1.267-0.873-1.824c-0.638-0.697-1.538-1.051-2.678-1.051l-0.154,0.002
		c-1.316,0.036-2.155,0.513-2.688,1.129c-0.112-0.568-0.368-1.31-0.941-1.899c-0.621-0.637-1.467-0.96-2.529-0.96
		c-1.205,0.002-2.042,0.537-2.602,1.235l-0.001-7.019c0.008-0.094,0.189-2.316-1.061-3.682c-0.623-0.681-1.476-1.026-2.534-1.026
		c-0.878,0-1.604,0.299-2.16,0.89c-1.265,1.344-1.136,3.735-1.131,3.806v15.206L16.65,25.54c-0.044-0.176-1.125-4.311-3.807-4.311
		c-0.345,0-0.701,0.071-1.058,0.21c-0.904,0.354-1.53,0.945-1.862,1.758c-0.708,1.735,0.227,3.843,0.254,3.903
		c0.2,0.534,4.909,13.104,5.351,14.206c0.011,0.044,1.2,4.382,6.543,4.382h12.814l0.135,0.002c0.795,0,7.766-0.199,7.766-7.098
		l-0.001-11.815C42.793,26.681,42.95,24.396,41.711,23.059z M41.787,26.739v11.854c0,5.804-5.636,6.098-6.766,6.098l-12.957-0.002
		c-4.544,0-5.529-3.486-5.587-3.692c-0.457-1.152-5.314-14.116-5.375-14.277c-0.224-0.496-0.706-2.03-0.252-3.143
		c0.228-0.558,0.653-0.952,1.301-1.205c0.24-0.094,0.473-0.142,0.693-0.142c1.582,0,2.585,2.568,2.849,3.594l1.846,5.457
		c0.078,0.232,0.316,0.373,0.555,0.333c0.242-0.039,0.419-0.248,0.419-0.493l-0.001-18.271c-0.001-0.021-0.107-2.066,0.862-3.093
		c0.364-0.385,0.832-0.573,1.43-0.573c0.775,0,1.362,0.229,1.793,0.698c0.954,1.038,0.807,2.904,0.803,2.966v15.328
		c0,0.19,0.164,0.392,0.335,0.477c0.155,0.075,0.338,0.066,0.486-0.025c0.146-0.092,0.235-0.253,0.235-0.426l-0.023-5.83
		c0.011-0.11,0.3-2.69,2.581-2.695c0.767,0,1.37,0.22,1.795,0.653c0.769,0.785,0.752,2.042,0.752,2.066l0.001,1.555
		c-0.026,0.38-0.003,0.648-0.001,0.652v4.582c0,0.276,0.224,0.5,0.5,0.5s0.5-0.224,0.5-0.5v-0.025v-0.002l-0.001-5.138
		c0.08-1.162,0.601-2.558,2.628-2.612l0.127-0.002c0.845,0,1.496,0.243,1.937,0.722c0.821,0.894,0.709,2.351,0.706,2.409
		l0.003,1.334c-0.113,1.03-0.072,2.142-0.035,3.121c0.017,0.438,0.032,0.853,0.032,1.225c0,0.276,0.224,0.5,0.5,0.5
		s0.5-0.224,0.5-0.5c0-0.007,0-0.013,0-0.02l-0.003-4.216c0.213-1.937,0.95-2.817,2.473-2.856c0.658,0,1.165,0.201,1.549,0.614
		C41.918,24.75,41.79,26.683,41.787,26.739z"/>
</g>
</svg>
