<?xml version="1.0" encoding="utf-8"?>
<!-- Generator: Adobe Illustrator 16.0.0, SVG Export Plug-In . SVG Version: 6.00 Build 0)  -->
<!DOCTYPE svg PUBLIC "-//W3C//DTD SVG 1.1//EN" "http://www.w3.org/Graphics/SVG/1.1/DTD/svg11.dtd">
<svg version="1.1" id="Layer_1" xmlns="http://www.w3.org/2000/svg" xmlns:xlink="http://www.w3.org/1999/xlink" x="0px" y="0px"
	 width="48px" height="48px" viewBox="0 0 48 48" enable-background="new 0 0 48 48" xml:space="preserve">
<path fill="#414042" d="M40.072,33.162c0.585-0.698,1.763-2.354,1.524-4.178c-0.139-1.063-0.737-1.986-1.765-2.756
	c0.257-0.208,0.426-0.411,0.458-0.452c1.083-1.432,1.472-2.83,1.155-4.155c-0.522-2.185-2.779-3.308-2.876-3.354
	c-0.081-0.04-0.172-0.057-0.263-0.049c-0.089,0.008-8.854,0.779-12.297,0.66c-0.174-0.006-0.294-0.066-0.393-0.195
	c-0.29-0.382-0.271-1.184-0.226-1.371c0.844-3.027,3.15-8.962,3.179-9.034c1.623-4.495-2.413-6.136-2.418-6.136
	c-3.267-1.609-6.805,4.533-6.954,4.794c-0.02,0.035-0.036,0.073-0.046,0.112C18.095,10.791,6.546,25.016,6.43,25.159
	c-0.073,0.089-0.112,0.2-0.112,0.315v13.274c0,0.166,0.083,0.321,0.22,0.414c0.333,0.225,8.209,5.523,14.394,6.95
	c0.037,0.009,0.075,0.013,0.112,0.013h16.24c0.097,0,0.191-0.028,0.272-0.081c0.034-0.021,3.222-2.164,2.281-6.063
	c0.543-0.391,1.593-1.32,1.808-2.767C41.837,35.919,41.304,34.559,40.072,33.162z M40.656,37.062c-0.176,1.209-1.2,1.978-1.53,2.196
	h-8.615c-0.276,0-0.5,0.224-0.5,0.5s0.224,0.5,0.5,0.5h8.369c0.661,2.829-1.251,4.488-1.756,4.868H21.1
	c-5.435-1.273-12.458-5.775-13.783-6.646V25.652c1.272-1.57,11.619-14.416,12.779-18.271c0.917-1.588,3.626-5.331,5.652-4.325
	c0.131,0.051,3.179,1.291,1.886,4.871c-0.096,0.245-2.348,6.041-3.205,9.116c-0.076,0.273-0.173,1.473,0.375,2.221
	c0.281,0.384,0.687,0.596,1.171,0.613c3.313,0.124,11.062-0.543,12.271-0.649c0.422,0.236,1.872,1.145,2.227,2.626
	c0.244,1.02-0.086,2.137-0.977,3.315c-0.083,0.107-0.38,0.42-0.692,0.516h-8.647c-0.276,0-0.5,0.224-0.5,0.5s0.224,0.5,0.5,0.5h8.56
	c1.123,0.678,1.766,1.491,1.889,2.426c0.206,1.555-1.007,3.082-1.421,3.553h-8.673c-0.276,0-0.5,0.224-0.5,0.5s0.224,0.5,0.5,0.5
	h8.671C40.306,34.881,40.807,36.023,40.656,37.062z"/>
</svg>
