<?xml version="1.0" encoding="utf-8"?>
<!-- Generator: Adobe Illustrator 16.0.0, SVG Export Plug-In . SVG Version: 6.00 Build 0)  -->
<!DOCTYPE svg PUBLIC "-//W3C//DTD SVG 1.1//EN" "http://www.w3.org/Graphics/SVG/1.1/DTD/svg11.dtd">
<svg version="1.1" id="Layer_1" xmlns="http://www.w3.org/2000/svg" xmlns:xlink="http://www.w3.org/1999/xlink" x="0px" y="0px"
	 width="48px" height="48px" viewBox="0 0 48 48" enable-background="new 0 0 48 48" xml:space="preserve">
<path fill="#414042" d="M41.645,10.785c-0.215-1.446-1.265-2.375-1.808-2.767c0.94-3.897-2.247-6.04-2.281-6.062
	c-0.081-0.053-0.176-0.081-0.272-0.081h-16.24c-0.038,0-0.076,0.004-0.112,0.013C14.746,3.314,6.87,8.613,6.537,8.838
	C6.4,8.931,6.317,9.086,6.317,9.252v13.274c0,0.115,0.04,0.227,0.112,0.315c0.116,0.144,11.666,14.368,12.722,18.11
	c0.011,0.039,0.026,0.076,0.046,0.111c0.132,0.232,2.929,5.075,5.803,5.075c0.371,0,0.744-0.081,1.112-0.263
	c0.041-0.017,4.081-1.656,2.452-6.165c-0.023-0.06-2.33-5.994-3.173-9.019c-0.046-0.191-0.065-0.992,0.225-1.375
	c0.099-0.129,0.219-0.188,0.393-0.194c3.456-0.126,12.208,0.651,12.297,0.659c0.091,0.009,0.182-0.009,0.263-0.049
	c0.097-0.047,2.354-1.17,2.876-3.354c0.316-1.325-0.072-2.723-1.158-4.159c-0.03-0.04-0.199-0.241-0.455-0.448
	c1.028-0.771,1.626-1.694,1.765-2.756c0.238-1.823-0.939-3.479-1.524-4.177C41.302,13.446,41.838,12.084,41.645,10.785z
	 M40.604,18.891c-0.123,0.932-0.763,1.744-1.889,2.426h-8.56c-0.276,0-0.5,0.224-0.5,0.5s0.224,0.5,0.5,0.5h8.646
	c0.31,0.095,0.604,0.401,0.69,0.512c0.892,1.18,1.222,2.295,0.98,3.313c-0.35,1.476-1.806,2.393-2.228,2.632
	c-1.214-0.106-8.956-0.759-12.271-0.65c-0.484,0.018-0.89,0.229-1.171,0.613c-0.548,0.748-0.451,1.948-0.375,2.221
	c0.857,3.076,3.109,8.872,3.2,9.105c1.29,3.569-1.752,4.831-1.92,4.899c-1.988,0.984-4.695-2.755-5.613-4.343
	c-1.16-3.854-11.507-16.7-12.779-18.27V9.52C8.641,8.65,15.662,4.148,21.1,2.875h16.022c0.493,0.376,2.411,2.058,1.757,4.868h-8.368
	c-0.276,0-0.5,0.224-0.5,0.5s0.224,0.5,0.5,0.5h8.615c0.33,0.219,1.354,0.987,1.53,2.196c0.15,1.037-0.35,2.18-1.475,3.398h-8.671
	c-0.276,0-0.5,0.224-0.5,0.5s0.224,0.5,0.5,0.5h8.673C39.598,15.809,40.811,17.336,40.604,18.891z"/>
</svg>
