<?xml version="1.0" encoding="utf-8"?>
<!-- Generator: Adobe Illustrator 16.0.0, SVG Export Plug-In . SVG Version: 6.00 Build 0)  -->
<!DOCTYPE svg PUBLIC "-//W3C//DTD SVG 1.1//EN" "http://www.w3.org/Graphics/SVG/1.1/DTD/svg11.dtd">
<svg version="1.1" id="Layer_1" xmlns="http://www.w3.org/2000/svg" xmlns:xlink="http://www.w3.org/1999/xlink" x="0px" y="0px"
	 width="48px" height="48px" viewBox="0 0 48 48" enable-background="new 0 0 48 48" xml:space="preserve">
<path fill="#414042" d="M41.917,12.489c-0.642-0.654-1.488-0.959-2.507-0.906c-1.25,0.064-2.087,0.558-2.644,1.418V9.914
	c0.008-0.082,0.17-2.013-1.048-3.292c-0.728-0.764-1.777-1.117-3.093-1.064c-1.12,0.048-2.012,0.436-2.65,1.15
	c-0.102-1.297-0.435-2.844-1.349-3.907C27.932,1.992,27,1.568,25.86,1.54c-1.045-0.028-1.892,0.314-2.545,1.008
	c-1.621,1.722-1.357,5.046-1.347,5.145l0.009,6.214c-0.079-0.108-0.164-0.212-0.256-0.313c-0.664-0.723-1.56-1.093-2.663-1.103
	c-0.489-0.068-2.987-0.085-9.555,4.67c-0.053-0.028-0.107-0.054-0.162-0.078c-0.71-0.318-1.436-0.32-2.154-0.005
	c-3.139,1.374-2.547,5.036-1.808,6.751c0.057,0.16,5.718,15.995,6.235,17.358c0.013,0.053,1.376,5.271,7.536,5.271
	c0.001,0,0.002,0,0.003,0h14.924c0.018,0,0.078,0.002,0.174,0.002c0.816,0,4.236-0.144,6.624-2.438
	c1.538-1.479,2.318-3.538,2.318-6.117l-0.001-21.032C43.201,16.756,43.378,13.978,41.917,12.489z M42.194,16.839v21.066
	c0,2.294-0.675,4.107-2.007,5.391c-2.357,2.272-6.034,2.163-6.09,2.163H19.154c-0.001,0-0.002,0-0.003,0
	c-5.359,0-6.519-4.328-6.583-4.566c-0.531-1.412-6.19-17.239-6.258-17.428c-0.073-0.168-1.744-4.146,1.279-5.469
	c0.456-0.199,0.895-0.198,1.345,0.002c1.501,0.669,2.703,3.39,3.087,4.508c0.007,0.026,0.016,0.052,0.027,0.078l3.231,7.633
	c0.093,0.22,0.329,0.345,0.561,0.295c0.233-0.048,0.4-0.254,0.399-0.492l-0.036-9.461c0-0.178-0.096-0.342-0.25-0.431
	c-0.154-0.09-0.344-0.09-0.498-0.002l-2.685,1.53c-0.367-0.929-1.199-2.766-2.409-3.879c6.372-4.562,8.541-4.299,8.545-4.297
	c0.036,0.008,0.073,0.012,0.11,0.012c0.841,0,1.484,0.254,1.965,0.777c1.123,1.218,0.952,3.472,0.949,3.536v6.158
	c0,0.183,0.16,0.384,0.32,0.472c0.154,0.084,0.344,0.081,0.495-0.008c0.152-0.09,0.246-0.254,0.245-0.431L22.967,7.65
	c-0.002-0.03-0.241-3.016,1.077-4.416c0.457-0.485,1.068-0.712,1.792-0.694c0.857,0.021,1.522,0.319,2.033,0.912
	c1.528,1.775,1.085,5.498,1.076,5.597v0.359c-0.038,0.501-0.003,0.849,0,0.863v14.592c0,0.276,0.224,0.5,0.5,0.5s0.5-0.224,0.5-0.5
	v-0.025c0-0.001,0-0.001,0-0.002l-0.003-14.618c0,0,0-0.003-0.001-0.008V9.504c0.042-0.601,0.205-1.462,0.751-2.097
	c0.454-0.528,1.12-0.814,1.978-0.852c1.006-0.05,1.802,0.208,2.321,0.751c0.905,0.945,0.781,2.501,0.778,2.561v7.255
	c-0.096,1.537-0.067,3.348-0.036,5.375c0.015,0.949,0.03,1.955,0.036,3.016c0.002,0.275,0.225,0.497,0.5,0.497h0.001
	c0.276-0.001,0.499-0.225,0.499-0.5l-0.001-8.381c0.179-3.032,0.812-4.452,2.693-4.548c0.734-0.041,1.302,0.16,1.74,0.605
	C42.348,14.353,42.197,16.78,42.194,16.839z M13.138,22.598l2.068-1.179l0.023,6.117L13.138,22.598z"/>
</svg>
