<?xml version="1.0" encoding="utf-8"?>
<!-- Generator: Adobe Illustrator 16.0.0, SVG Export Plug-In . SVG Version: 6.00 Build 0)  -->
<!DOCTYPE svg PUBLIC "-//W3C//DTD SVG 1.1//EN" "http://www.w3.org/Graphics/SVG/1.1/DTD/svg11.dtd">
<svg version="1.1" id="Layer_1" xmlns="http://www.w3.org/2000/svg" xmlns:xlink="http://www.w3.org/1999/xlink" x="0px" y="0px"
	 width="48px" height="48px" viewBox="0 0 48 48" enable-background="new 0 0 48 48" xml:space="preserve">
<path fill="#414042" d="M40.813,17.079c-0.717-0.314-1.442-0.313-2.153,0.005c-0.055,0.024-0.108,0.05-0.162,0.078
	c-6.571-4.757-9.075-4.737-9.555-4.67c-1.104,0.009-2,0.38-2.664,1.103c-0.092,0.1-0.177,0.205-0.256,0.313l0.008-6.173
	c0.012-0.141,0.275-3.464-1.345-5.187c-0.653-0.694-1.498-1.019-2.544-1.008C21,1.568,20.069,1.992,19.373,2.801
	c-0.916,1.064-1.248,2.615-1.35,3.905c-0.639-0.714-1.53-1.101-2.649-1.149c-1.326-0.056-2.365,0.301-3.092,1.064
	c-1.218,1.279-1.056,3.21-1.051,3.247v3.129c-0.556-0.858-1.392-1.351-2.64-1.414c-1.025-0.048-1.866,0.252-2.508,0.906
	c-1.461,1.488-1.285,4.267-1.278,4.35v21.066c0,2.579,0.78,4.637,2.319,6.116c2.39,2.299,5.815,2.44,6.612,2.44
	c0.094,0,0.151-0.002,0.167-0.003h14.943c0.001,0,0.002,0,0.004,0c6.156,0,7.521-5.215,7.517-5.215
	c0.534-1.419,6.196-17.254,6.241-17.384C43.359,22.115,43.95,18.453,40.813,17.079z M41.679,23.494
	c-0.058,0.16-5.716,15.987-6.265,17.455c-0.011,0.045-1.179,4.511-6.564,4.511c-0.001,0-0.002,0-0.003,0H13.884
	c-0.037,0.004-3.715,0.109-6.072-2.163c-1.332-1.283-2.007-3.097-2.007-5.391L5.804,16.804c-0.047-0.676,0.039-2.643,0.993-3.614
	c0.404-0.411,0.918-0.612,1.571-0.612c0.056,0,0.114,0.001,0.172,0.005c1.875,0.095,2.51,1.506,2.691,4.516v8.414
	c0,0.275,0.223,0.499,0.499,0.5c0,0,0.001,0,0.001,0c0.275,0,0.499-0.222,0.5-0.497c0.006-1.06,0.021-2.065,0.036-3.014
	c0.032-2.041,0.061-3.863-0.037-5.407l-0.001-7.27c-0.001-0.016-0.125-1.571,0.781-2.517c0.519-0.542,1.294-0.794,2.32-0.75
	c0.856,0.037,1.521,0.322,1.975,0.848c0.539,0.624,0.705,1.476,0.75,2.089v15.369c0,0.276,0.224,0.5,0.5,0.5s0.5-0.224,0.5-0.5
	v-0.025c0-0.001,0-0.001,0-0.002l-0.003-14.511c0.004-0.037,0.042-0.417-0.001-0.949V8.986c-0.005-0.037-0.453-3.752,1.08-5.533
	c0.511-0.594,1.176-0.893,2.034-0.914c0.745-0.022,1.333,0.208,1.79,0.692c1.315,1.395,1.081,4.388,1.077,4.46l-0.023,16.304
	c0,0.177,0.123,0.324,0.275,0.414c0.152,0.09,0.371,0.077,0.525-0.008c0.16-0.088,0.26-0.256,0.26-0.438l-0.002-6.201
	c-0.002-0.022-0.178-2.266,0.947-3.491c0.482-0.524,1.126-0.779,2.062-0.788c0.015-0.007,2.191-0.267,8.563,4.294
	c-1.218,1.12-2.052,2.971-2.409,3.879l-2.684-1.53c-0.156-0.087-0.346-0.086-0.498,0.002c-0.154,0.089-0.249,0.253-0.25,0.431
	l-0.037,9.461c-0.001,0.238,0.166,0.444,0.399,0.492c0.237,0.045,0.468-0.076,0.561-0.295l3.218-7.602
	c0.014-0.028,0.025-0.056,0.034-0.084c0.345-1.038,1.562-3.848,3.094-4.533c0.448-0.199,0.89-0.202,1.346-0.002
	C43.423,19.313,41.762,23.296,41.679,23.494z M34.861,22.597l-2.091,4.938l0.024-6.116L34.861,22.597z"/>
</svg>
