<?xml version="1.0" encoding="utf-8"?>
<!-- Generator: Adobe Illustrator 16.0.0, SVG Export Plug-In . SVG Version: 6.00 Build 0)  -->
<!DOCTYPE svg PUBLIC "-//W3C//DTD SVG 1.1//EN" "http://www.w3.org/Graphics/SVG/1.1/DTD/svg11.dtd">
<svg version="1.1" id="Layer_1" xmlns="http://www.w3.org/2000/svg" xmlns:xlink="http://www.w3.org/1999/xlink" x="0px" y="0px"
	 width="48px" height="48px" viewBox="0 0 48 48" enable-background="new 0 0 48 48" xml:space="preserve">
<path fill="#414042" d="M41.938,13.403c-0.649-0.698-1.508-1.052-2.552-1.052l-0.116,0.001c-0.104,0-1.742,0.025-2.847,1.494v-2.888
	c0.008-0.095,0.183-2.337-1.155-3.793c-0.725-0.789-1.737-1.189-3.008-1.189l-0.18,0.002c-1.54,0.044-2.508,0.64-3.114,1.399V7.284
	c0.012-0.113,0.271-2.77-1.179-4.379c-0.704-0.782-1.676-1.178-2.888-1.178c-1.094,0-1.997,0.379-2.681,1.125
	c-0.703,0.767-1.064,1.813-1.245,2.776c-0.132-0.217-0.284-0.424-0.461-0.616c-0.705-0.768-1.661-1.157-2.839-1.157
	c-0.973,0-1.783,0.336-2.408,0.998c-1.503,1.592-1.352,4.531-1.346,4.627v15.917l-1.166-3.609c-0.051-0.212-1.292-5.191-4.36-5.191
	c-0.395,0-0.802,0.085-1.21,0.252c-1.008,0.413-1.713,1.097-2.095,2.031c-0.85,2.079,0.238,4.655,0.273,4.734
	c0.057,0.16,5.725,16.014,6.242,17.379c0.013,0.053,1.38,5.276,7.548,5.276h14.943l0.152,0.002c0.919,0,8.974-0.24,8.974-8.568
	l-0.001-19.784C43.23,17.802,43.415,14.99,41.938,13.403z M42.224,17.885v19.82c0,7.203-6.642,7.568-7.974,7.568l-15.098-0.002
	c-5.367,0-6.529-4.334-6.593-4.572c-0.531-1.414-6.197-17.26-6.265-17.449c-0.01-0.023-0.971-2.295-0.278-3.991
	c0.28-0.687,0.787-1.172,1.548-1.484c0.287-0.118,0.566-0.177,0.831-0.177c1.896,0,3.088,3.195,3.398,4.462l2.151,6.666
	c0.076,0.234,0.313,0.379,0.554,0.341c0.243-0.038,0.422-0.248,0.422-0.494L14.92,9.452c-0.001-0.026-0.137-2.629,1.074-3.912
	c0.435-0.46,0.984-0.684,1.681-0.684c0.898,0,1.585,0.272,2.101,0.831c1.196,1.298,1.015,3.693,1.011,3.759v15.977
	c0,0.185,0.167,0.389,0.329,0.476c0.155,0.084,0.342,0.08,0.494-0.012c0.151-0.09,0.244-0.253,0.243-0.43L21.824,8.166
	c-0.002-0.031-0.254-3.125,1.132-4.638c0.495-0.539,1.13-0.801,1.944-0.801c0.928,0,1.629,0.276,2.143,0.845
	c1.152,1.275,0.932,3.585,0.927,3.66l0.001,2.971c-0.03,0.462-0.003,0.788-0.001,0.788v15.435c0,0.276,0.224,0.5,0.5,0.5
	s0.5-0.224,0.5-0.5v-0.028v-0.001l-0.001-16.128c0.097-1.463,0.72-3.222,3.142-3.29l0.15-0.002c0.978,0,1.74,0.29,2.268,0.862
	c1.041,1.129,0.9,3.018,0.897,3.078v16.551c0,0.276,0.224,0.5,0.5,0.5s0.5-0.224,0.5-0.5v-9.994c0-4.073,2.729-4.12,2.842-4.12
	h0.001c0.013,0,0.111-0.001,0.118-0.001c0.765,0,1.359,0.239,1.817,0.731C42.385,15.348,42.227,17.825,42.224,17.885z"/>
</svg>
