<?xml version="1.0" encoding="utf-8"?>
<!-- Generator: Adobe Illustrator 16.0.0, SVG Export Plug-In . SVG Version: 6.00 Build 0)  -->
<!DOCTYPE svg PUBLIC "-//W3C//DTD SVG 1.1//EN" "http://www.w3.org/Graphics/SVG/1.1/DTD/svg11.dtd">
<svg version="1.1" id="Layer_1" xmlns="http://www.w3.org/2000/svg" xmlns:xlink="http://www.w3.org/1999/xlink" x="0px" y="0px"
	 width="48px" height="48px" viewBox="0 0 48 48" enable-background="new 0 0 48 48" xml:space="preserve">
<path fill="#414042" d="M44.354,36.182l-3.378-6.794c-0.008-0.019-0.06-0.138-0.143-0.297V6.745c0-3.17-2.579-5.75-5.75-5.75H8.833
	c-3.17,0-5.75,2.58-5.75,5.75v31.5c0,3.171,2.58,5.75,5.75,5.75h18.412c0.957,0.89,1.712,1.59,1.889,1.747
	c0.044,0.052,1.12,1.265,2.981,1.265c0.001,0,0.001,0,0.001,0c0.736,0,1.495-0.192,2.255-0.57l7.376-3.663
	c0.09-0.041,2.22-1.021,2.938-3.036C45.083,38.623,44.972,37.427,44.354,36.182z M8.833,42.995c-2.619,0-4.75-2.131-4.75-4.75v-31.5
	c0-2.619,2.131-4.75,4.75-4.75h26.25c2.619,0,4.75,2.131,4.75,4.75v21.096c-0.364-0.293-0.81-0.519-1.353-0.519
	c-0.357,0-0.722,0.097-1.083,0.288c-0.54,0.286-0.902,0.67-1.083,1.152c-0.196-0.203-0.44-0.394-0.731-0.531V6.745
	c0-0.276-0.224-0.5-0.5-0.5H8.833c-0.276,0-0.5,0.224-0.5,0.5V35.62c0,0.276,0.224,0.5,0.5,0.5h11.919
	c-0.058,0.223-0.09,0.451-0.073,0.69c0.043,0.579,0.314,1.095,0.599,1.493h-0.962c-1.244,0-2.146,0.527-2.146,1.254
	c0,0.728,0.903,1.256,2.146,1.256h3.285c0.075,0,0.145-0.008,0.218-0.012c0.716,0.668,1.552,1.447,2.353,2.193H8.833z M22.114,28.76
	l3.16,6.36H24.43c-0.491-0.342-1.091-0.642-1.718-0.642c-0.535,0-1.021,0.224-1.405,0.642H9.333V7.245h25.25v20.79
	c-0.396,0.015-0.807,0.124-1.225,0.347c-0.582,0.309-0.988,0.73-1.204,1.23c-0.359-0.382-0.91-0.766-1.666-0.766
	c-0.38,0-0.773,0.101-1.17,0.299c-0.57,0.284-0.912,0.694-1.102,1.141l-1.805-3.632c-0.033-0.085-0.826-2.063-2.535-2.063
	c-0.369,0-0.749,0.096-1.129,0.285c-0.544,0.27-0.918,0.699-1.083,1.239C21.3,27.323,22.094,28.727,22.114,28.76z M25.984,36.551
	l-0.433-0.431h0.219L25.984,36.551z M22.214,39.304c0.132,0.124,0.313,0.292,0.546,0.51h-2.444c-0.57,0-0.952-0.151-1.099-0.255
	c0.147-0.104,0.529-0.255,1.099-0.255H22.214z M43.745,39.396c-0.571,1.612-2.393,2.458-2.427,2.474l-7.393,3.673
	c-0.62,0.308-1.229,0.465-1.81,0.465c-1.394,0-2.196-0.885-2.271-0.965c-0.551-0.496-6.228-5.796-7.077-6.587
	c-0.003-0.004-0.006-0.006-0.009-0.01c-0.058-0.054-0.095-0.088-0.101-0.094c-0.256-0.212-0.931-0.915-0.981-1.617
	c-0.024-0.334,0.093-0.639,0.359-0.931c0.201-0.222,0.416-0.325,0.677-0.325c0.79,0,1.76,0.924,2.093,1.308L27.43,39.4
	c0.174,0.172,0.445,0.194,0.645,0.051c0.199-0.143,0.265-0.408,0.156-0.628l-5.235-10.534c-0.171-0.302-0.573-1.229-0.372-1.887
	c0.084-0.276,0.271-0.483,0.569-0.632c0.24-0.119,0.471-0.18,0.684-0.18c1.024,0,1.598,1.414,1.621,1.468l4.386,8.829
	c0.163,0.326,0.723,0.349,0.914,0.04c0.091-0.147,0.099-0.332,0.021-0.486l-1.674-3.333c-0.056-0.152-0.513-1.503,0.62-2.068
	c0.256-0.128,0.499-0.193,0.723-0.193c0.829,0,1.28,0.929,1.289,0.948l0.444,0.892c0.093,0.222,0.181,0.369,0.183,0.369l1.315,2.649
	c0.124,0.247,0.42,0.341,0.667,0.218c0.248-0.123,0.345-0.43,0.223-0.678l-1.465-2.943c-0.379-0.91-0.149-1.596,0.683-2.037
	c0.302-0.16,0.584-0.241,0.84-0.241c0.927,0,1.386,1.122,1.407,1.173l0.378,0.752c0.233,0.638,0.578,1.271,0.883,1.83
	c0.132,0.243,0.257,0.473,0.361,0.683l0.003,0.007c0.124,0.248,0.425,0.346,0.671,0.226c0.247-0.123,0.348-0.424,0.226-0.671
	l-0.004-0.008c-0.001-0.001-0.001-0.002-0.002-0.003l-1.199-2.407c-0.503-1.372-0.042-1.837,0.476-2.11
	c0.215-0.114,0.422-0.172,0.614-0.172c0.95,0,1.563,1.428,1.584,1.476l3.393,6.829C43.949,37.616,44.046,38.548,43.745,39.396z"/>
</svg>
