<?xml version="1.0" encoding="utf-8"?>
<!-- Generator: Adobe Illustrator 16.0.0, SVG Export Plug-In . SVG Version: 6.00 Build 0)  -->
<!DOCTYPE svg PUBLIC "-//W3C//DTD SVG 1.1//EN" "http://www.w3.org/Graphics/SVG/1.1/DTD/svg11.dtd">
<svg version="1.1" id="Layer_1" xmlns="http://www.w3.org/2000/svg" xmlns:xlink="http://www.w3.org/1999/xlink" x="0px" y="0px"
	 width="48px" height="48px" viewBox="0 0 48 48" enable-background="new 0 0 48 48" xml:space="preserve">
<path fill="#414042" d="M43.105,19.535c-0.655-0.707-1.531-1.064-2.604-1.064l-0.126,0.001c-1.283,0.033-2.255,0.521-2.909,1.47
	c-0.116-0.709-0.395-1.581-1.034-2.28c-0.727-0.795-1.757-1.199-3.061-1.199l-0.177,0.002c-1.601,0.043-2.583,0.657-3.185,1.426
	c-0.11-0.667-0.392-1.611-1.109-2.348c-0.707-0.727-1.675-1.095-2.891-1.095c-1.484,0.003-2.48,0.715-3.117,1.605l-0.001-6.987h9.55
	l-3.873,3.716c-0.199,0.191-0.205,0.508-0.014,0.707c0.098,0.103,0.229,0.154,0.36,0.154c0.125,0,0.249-0.046,0.347-0.139
	l4.756-4.564c0.048-0.046,0.085-0.108,0.111-0.174c0.026-0.061,0.042-0.128,0.042-0.199c0-0.002-0.001-0.004-0.001-0.007
	c0-0.002,0.001-0.004,0.001-0.007c0-0.136-0.056-0.267-0.154-0.361l-4.756-4.563c-0.199-0.191-0.517-0.185-0.706,0.015
	C28.364,3.842,28.37,4.159,28.57,4.35l3.873,3.715h-9.551V7.616c0.01-0.108,0.218-2.666-1.217-4.232
	c-0.71-0.776-1.683-1.169-2.893-1.169c-1,0-1.826,0.34-2.458,1.011c-1.451,1.541-1.303,4.292-1.296,4.379v0.461H5.381L9.254,4.35
	C9.454,4.159,9.46,3.842,9.269,3.643c-0.191-0.2-0.508-0.206-0.707-0.015L3.806,8.191C3.757,8.238,3.718,8.301,3.692,8.37
	c-0.026,0.06-0.04,0.126-0.04,0.196c0,0.002,0.001,0.004,0.001,0.006c0,0.002-0.001,0.004-0.001,0.006
	c0,0.136,0.056,0.267,0.154,0.361l4.756,4.564c0.097,0.093,0.222,0.139,0.346,0.139c0.131,0,0.263-0.051,0.361-0.154
	c0.191-0.199,0.185-0.516-0.015-0.707L5.382,9.065h9.647v16.771l-1.166-3.447c-0.051-0.203-1.298-4.964-4.362-4.964
	c-0.392,0-0.796,0.081-1.201,0.239c-1.031,0.404-1.746,1.079-2.124,2.005c-0.812,1.99,0.263,4.418,0.297,4.49
	c0.233,0.623,5.723,15.278,6.242,16.576c0.013,0.051,1.383,5.048,7.548,5.048H35.21l0.154,0.002c0.919,0,8.974-0.23,8.974-8.197
	l-0.001-13.783C44.345,23.695,44.526,21.067,43.105,19.535z M43.338,23.769v13.82c0,6.851-6.642,7.197-7.974,7.197L20.26,44.784
	c-5.37,0-6.531-4.125-6.596-4.358c-0.535-1.347-6.197-16.463-6.267-16.646c-0.01-0.021-0.946-2.134-0.295-3.732
	c0.274-0.672,0.785-1.147,1.562-1.451c0.289-0.113,0.57-0.17,0.837-0.17c1.899,0,3.093,3.04,3.404,4.248l2.15,6.362
	c0.078,0.232,0.31,0.376,0.555,0.333c0.242-0.039,0.419-0.248,0.419-0.493L16.028,7.574c-0.001-0.024-0.132-2.434,1.025-3.663
	c0.441-0.469,1.007-0.696,1.729-0.696c0.929,0,1.632,0.275,2.152,0.841c1.137,1.239,0.963,3.451,0.959,3.516v18.205
	c0,0.189,0.173,0.396,0.343,0.48c0.155,0.077,0.339,0.069,0.487-0.022c0.147-0.092,0.237-0.253,0.236-0.427l-0.028-7.145
	c0.013-0.131,0.36-3.21,3.091-3.217c0.919,0,1.644,0.265,2.155,0.788c0.922,0.941,0.9,2.439,0.9,2.466l0.001,1.815
	c-0.03,0.44-0.003,0.752-0.001,0.752v5.517c0,0.276,0.224,0.5,0.5,0.5s0.5-0.224,0.5-0.5v-0.028c0,0,0-0.001,0-0.002l-0.001-6.17
	c0.096-1.387,0.719-3.055,3.144-3.12l0.149-0.002c1.009,0,1.789,0.292,2.319,0.869c0.983,1.071,0.849,2.805,0.846,2.866l0.003,1.569
	c-0.132,1.195-0.083,2.486-0.04,3.626c0.019,0.512,0.037,0.996,0.037,1.43c0,0.276,0.224,0.5,0.5,0.5s0.5-0.224,0.5-0.5
	c0-0.007,0-0.013,0-0.02l-0.003-4.927c0.254-2.31,1.139-3.36,2.867-3.404l0.101-0.001c0.793,0,1.403,0.243,1.867,0.742
	C43.494,21.422,43.341,23.708,43.338,23.769z"/>
</svg>
