<?xml version="1.0" encoding="utf-8"?>
<!-- Generator: Adobe Illustrator 16.0.0, SVG Export Plug-In . SVG Version: 6.00 Build 0)  -->
<!DOCTYPE svg PUBLIC "-//W3C//DTD SVG 1.1//EN" "http://www.w3.org/Graphics/SVG/1.1/DTD/svg11.dtd">
<svg version="1.1" id="Layer_1" xmlns="http://www.w3.org/2000/svg" xmlns:xlink="http://www.w3.org/1999/xlink" x="0px" y="0px"
	 width="48px" height="48px" viewBox="0 0 48 48" enable-background="new 0 0 48 48" xml:space="preserve">
<path fill="#414042" d="M43.063,19.535c-0.655-0.707-1.531-1.064-2.604-1.064l-0.126,0.001c-1.283,0.033-2.255,0.522-2.909,1.47
	c-0.116-0.709-0.394-1.581-1.033-2.28c-0.729-0.795-1.759-1.199-3.063-1.199l-0.176,0.002c-1.601,0.043-2.583,0.657-3.185,1.426
	c-0.11-0.667-0.392-1.611-1.109-2.348c-0.707-0.727-1.675-1.095-2.891-1.095c-1.484,0.003-2.479,0.714-3.117,1.604l-0.001-8.437
	c0.01-0.108,0.218-2.666-1.217-4.232c-0.71-0.776-1.683-1.169-2.893-1.169c-1,0-1.826,0.34-2.458,1.011
	c-1.451,1.541-1.303,4.292-1.296,4.379v0.462H5.423l3.874-3.715C9.496,4.16,9.502,3.843,9.311,3.644
	c-0.19-0.199-0.507-0.206-0.707-0.015L3.848,8.191C3.799,8.238,3.76,8.302,3.734,8.371c-0.026,0.06-0.04,0.126-0.04,0.195
	c0,0.002,0.001,0.004,0.001,0.006c0,0.002-0.001,0.004-0.001,0.006c0,0.136,0.056,0.267,0.154,0.361l4.756,4.563
	c0.097,0.093,0.222,0.139,0.346,0.139c0.131,0,0.263-0.051,0.361-0.154c0.191-0.199,0.185-0.516-0.015-0.707L5.424,9.066h9.563
	v16.771l-1.166-3.446c-0.051-0.203-1.298-4.964-4.361-4.964c-0.392,0-0.796,0.08-1.202,0.239c-1.031,0.404-1.746,1.078-2.124,2.004
	c-0.812,1.99,0.263,4.418,0.296,4.49c0.233,0.624,5.723,15.279,6.242,16.576c0.013,0.051,1.383,5.048,7.548,5.048h14.946
	l0.154,0.002c0.919,0,8.974-0.23,8.974-8.196l-0.001-13.784C44.303,23.695,44.484,21.067,43.063,19.535z M43.296,23.769V37.59
	c0,6.85-6.642,7.196-7.974,7.196l-15.104-0.002c-5.37,0-6.531-4.125-6.596-4.358C13.087,39.08,7.425,23.962,7.355,23.78
	c-0.009-0.021-0.944-2.146-0.293-3.735c0.274-0.67,0.785-1.144,1.561-1.447c0.289-0.113,0.571-0.17,0.837-0.17
	c1.899,0,3.093,3.04,3.403,4.248l2.15,6.361c0.078,0.232,0.313,0.376,0.555,0.333c0.242-0.039,0.419-0.248,0.419-0.493L15.986,7.574
	c-0.001-0.024-0.132-2.434,1.025-3.663c0.441-0.469,1.007-0.696,1.729-0.696c0.929,0,1.632,0.275,2.152,0.841
	c1.137,1.239,0.963,3.451,0.959,3.516v18.206c0,0.191,0.176,0.398,0.348,0.482c0.156,0.075,0.338,0.065,0.484-0.027
	c0.146-0.092,0.234-0.252,0.234-0.425l-0.028-7.143c0.014-0.131,0.375-3.211,3.092-3.217c0.919,0,1.645,0.265,2.156,0.788
	c0.921,0.941,0.899,2.438,0.899,2.465l0.001,1.816c-0.03,0.44-0.003,0.752-0.001,0.752v5.516c0,0.276,0.224,0.5,0.5,0.5
	s0.5-0.224,0.5-0.5v-0.028c0,0,0-0.001,0-0.002l-0.001-6.169c0.096-1.388,0.719-3.056,3.144-3.121l0.148-0.002
	c1.01,0,1.79,0.293,2.32,0.87c0.983,1.071,0.849,2.805,0.846,2.865l0.003,1.569c-0.132,1.195-0.083,2.486-0.04,3.626
	c0.019,0.512,0.037,0.996,0.037,1.43c0,0.276,0.224,0.5,0.5,0.5s0.5-0.224,0.5-0.5c0-0.007,0-0.013,0-0.02l-0.003-4.927
	c0.254-2.31,1.139-3.36,2.867-3.404l0.101-0.001c0.793,0,1.403,0.243,1.867,0.742C43.452,21.422,43.299,23.708,43.296,23.769z"/>
</svg>
