<?xml version="1.0" encoding="utf-8"?>
<!-- Generator: Adobe Illustrator 16.0.0, SVG Export Plug-In . SVG Version: 6.00 Build 0)  -->
<!DOCTYPE svg PUBLIC "-//W3C//DTD SVG 1.1//EN" "http://www.w3.org/Graphics/SVG/1.1/DTD/svg11.dtd">
<svg version="1.1" id="Layer_1" xmlns="http://www.w3.org/2000/svg" xmlns:xlink="http://www.w3.org/1999/xlink" x="0px" y="0px"
	 width="48px" height="48px" viewBox="0 0 48 48" enable-background="new 0 0 48 48" xml:space="preserve">
<path fill="#414042" d="M43.051,20.417c-0.655-0.706-1.53-1.064-2.603-1.064l-0.127,0.001c-1.283,0.033-2.255,0.522-2.909,1.47
	c-0.116-0.708-0.394-1.581-1.034-2.28c-0.728-0.795-1.757-1.199-3.061-1.199l-0.177,0.002c-1.541,0.042-2.509,0.611-3.115,1.34
	V5.596c0.002-0.078,0.037-1.922-1.178-3.17c-0.708-0.727-1.675-1.095-2.892-1.095c-2.458,0.004-3.577,1.953-3.947,3.44
	c-0.114-0.176-0.242-0.345-0.388-0.504c-0.71-0.776-1.683-1.169-2.893-1.169c-1,0-1.826,0.34-2.458,1.011
	c-1.451,1.541-1.303,4.292-1.296,4.379v0.461H5.436l3.873-3.715c0.199-0.191,0.206-0.508,0.015-0.707
	C9.132,4.327,8.816,4.32,8.617,4.511L3.861,9.074c-0.049,0.047-0.087,0.11-0.114,0.179c-0.025,0.06-0.04,0.126-0.04,0.196
	c0,0.002,0.001,0.004,0.001,0.007c0,0.002-0.001,0.004-0.001,0.007c0,0.136,0.056,0.267,0.154,0.361l4.756,4.563
	c0.097,0.093,0.222,0.139,0.346,0.139c0.131,0,0.263-0.052,0.361-0.154c0.191-0.199,0.185-0.516-0.015-0.707L5.436,9.948h9.539
	v16.772l-1.166-3.446c-0.051-0.203-1.298-4.964-4.361-4.964c-0.392,0-0.796,0.08-1.202,0.239c-1.031,0.403-1.746,1.077-2.124,2.003
	c-0.812,1.99,0.263,4.419,0.296,4.492c0.233,0.623,5.723,15.277,6.242,16.575c0.013,0.05,1.383,5.048,7.548,5.048h14.946
	l0.154,0.002c0.919,0,8.974-0.23,8.974-8.197l-0.001-13.784C44.29,24.577,44.472,21.949,43.051,20.417z M43.283,24.65v13.821
	c0,6.851-6.642,7.197-7.974,7.197l-15.104-0.002c-5.37,0-6.531-4.125-6.596-4.358c-0.535-1.347-6.197-16.463-6.267-16.645
	c-0.009-0.021-0.945-2.147-0.293-3.736c0.274-0.67,0.785-1.144,1.561-1.447c0.289-0.113,0.571-0.17,0.837-0.17
	c1.899,0,3.093,3.04,3.403,4.248l2.15,6.361c0.078,0.232,0.312,0.375,0.555,0.333c0.242-0.039,0.419-0.248,0.419-0.493L15.974,9.472
	c0-0.008,0.005-0.016,0.005-0.024c0-0.009-0.004-0.016-0.005-0.024V8.457c-0.001-0.024-0.132-2.434,1.025-3.663
	c0.441-0.469,1.007-0.696,1.729-0.696c0.929,0,1.633,0.275,2.152,0.841c1.137,1.238,0.963,3.45,0.959,3.515v18.207
	c0,0.193,0.178,0.401,0.354,0.483c0.155,0.073,0.336,0.062,0.481-0.03c0.145-0.092,0.232-0.251,0.232-0.423L22.878,5.548
	c0.014-0.131,0.375-3.212,3.094-3.217c0.918,0,1.643,0.265,2.154,0.787c0.921,0.941,0.899,2.438,0.899,2.465l0.001,15.816
	c-0.03,0.44-0.003,0.752-0.001,0.752v5.516c0,0.276,0.224,0.5,0.5,0.5s0.5-0.224,0.5-0.5V27.64c0-0.001,0-0.001,0-0.002l-0.001-6.17
	c0.096-1.388,0.719-3.056,3.144-3.12l0.149-0.002c1.009,0,1.789,0.292,2.319,0.869c0.983,1.071,0.849,2.805,0.846,2.866l0.003,1.569
	c-0.132,1.195-0.083,2.486-0.04,3.625c0.019,0.512,0.037,0.996,0.037,1.43c0,0.276,0.224,0.5,0.5,0.5s0.5-0.224,0.5-0.5
	c0-0.007,0-0.013,0-0.02l-0.003-4.926c0.254-2.31,1.139-3.36,2.867-3.404l0.102-0.001c0.792,0,1.402,0.243,1.867,0.742
	C43.439,22.304,43.286,24.59,43.283,24.65z"/>
</svg>
