<?xml version="1.0" encoding="utf-8"?>
<!-- Generator: Adobe Illustrator 16.0.0, SVG Export Plug-In . SVG Version: 6.00 Build 0)  -->
<!DOCTYPE svg PUBLIC "-//W3C//DTD SVG 1.1//EN" "http://www.w3.org/Graphics/SVG/1.1/DTD/svg11.dtd">
<svg version="1.1" id="Layer_1" xmlns="http://www.w3.org/2000/svg" xmlns:xlink="http://www.w3.org/1999/xlink" x="0px" y="0px"
	 width="48px" height="48px" viewBox="0 0 48 48" enable-background="new 0 0 48 48" xml:space="preserve">
<g>
	<path fill="#414042" d="M45.596,13.218c-0.388-1.575-1.44-2.87-3.129-3.848L28.953,1.545c-0.056-0.037-1.365-0.913-2.711-0.913
		c-1.018,0-1.808,0.492-2.286,1.423c-0.379,0.74-0.412,1.396-0.218,1.985l-1.65-0.955c-0.037-0.026-0.92-0.644-1.992-0.644
		c-0.745,0-1.791,0.3-2.538,1.729c-0.352,0.673-0.459,1.338-0.329,1.961c-0.671-0.296-1.457-0.539-2.227-0.539
		c-1.092,0-1.972,0.492-2.542,1.424c-0.422,0.688-0.527,1.4-0.313,2.116c0.02,0.064,0.056,0.122,0.081,0.185H7.372
		c-2.829,0-5.131,2.302-5.131,5.131v27.788c0,2.83,2.302,5.132,5.131,5.132H30.53c2.829,0,5.131-2.302,5.131-5.132V31.029
		c1.119-0.344,2.405-1.125,3.399-2.845l5.557-9.589C44.685,18.488,46.266,15.943,45.596,13.218z M34.661,42.237
		c0,2.278-1.854,4.132-4.131,4.132H7.372c-2.278,0-4.131-1.854-4.131-4.132V14.449c0-2.278,1.853-4.131,4.131-4.131h5.445
		c0.865,1.035,2.153,1.65,2.198,1.669l3.396,1.961H7.372c-0.276,0-0.5,0.224-0.5,0.5v25.473c0,0.276,0.224,0.5,0.5,0.5H30.53
		c0.276,0,0.5-0.224,0.5-0.5v-9.119c0.815,0.163,1.445,0.286,1.689,0.326c0.021,0.006,0.534,0.152,1.283,0.152
		c0.193,0,0.419-0.017,0.658-0.044V42.237z M15.456,22.994c-1.064,1.077-1.609,2.587-1.455,4.099
		c0.026,0.258,0.244,0.449,0.497,0.449c0.017,0,0.034-0.001,0.052-0.003c0.274-0.028,0.474-0.273,0.446-0.548
		c-0.105-1.022,0.172-2.013,0.762-2.821c0.288,0.434,0.895,1.054,2.041,1.054c0.11,0,0.226-0.006,0.259-0.017
		c0.011,0.001,0.098,0.003,0.109,0.003c0.438,0,0.925-0.102,1.355-0.345c-0.065,0.153-0.111,0.307-0.143,0.457
		c-0.168,0.811-0.029,1.534,0.414,2.151c0.645,0.899,1.796,1.342,2.563,1.547c-0.681,0.914-1.718,1.514-2.868,1.631
		c-0.274,0.027-0.475,0.273-0.447,0.548c0.026,0.258,0.244,0.449,0.497,0.449c0.017,0,0.034-0.001,0.051-0.003
		c1.582-0.16,2.989-1.059,3.818-2.406c0.516,0.107,1.698,0.353,3.07,0.636c-1.229,2.461-3.589,4.097-6.326,4.378
		c-0.275,0.027-0.475,0.273-0.447,0.548c0.026,0.258,0.244,0.449,0.497,0.449c0.017,0,0.034-0.001,0.051-0.003
		c3.095-0.316,5.766-2.174,7.142-4.967c0.033-0.066,0.047-0.137,0.049-0.207c0.878,0.181,1.776,0.364,2.585,0.528v8.82H7.872V14.949
		h9.921c-0.225,0.109-0.449,0.229-0.668,0.372C16.894,15.462,14.947,16.86,15.456,22.994z M43.762,18.078l-5.566,9.606
		c-1.242,2.146-2.965,2.598-4.192,2.598c-0.598,0-1.003-0.112-1.062-0.126c-1.098-0.184-9.521-1.935-9.647-1.959
		c-0.534-0.065-2.057-0.427-2.688-1.306c-0.277-0.386-0.357-0.832-0.247-1.364c0.22-1.056,1.552-1.277,2.63-1.277
		c0.954,0,1.788,0.175,1.843,0.185l2.223,0.259c0.247,0.033,0.458-0.115,0.532-0.34c0.074-0.226-0.02-0.472-0.226-0.59l-6.096-3.501
		c-0.13-0.074-0.286-0.085-0.426-0.034c-0.14,0.053-0.249,0.166-0.296,0.308l-0.924,2.738c-0.294,0.87-1.186,0.938-1.452,0.938
		l-0.071,0.498l-0.057-0.497c-1.046,0.113-1.452-0.553-1.541-0.745c-0.623-5.999,1.141-7.287,1.16-7.3
		c0.754-0.491,1.535-0.741,2.318-0.741c0.911,0,1.513,0.345,1.523,0.351l3.957,2.292c0.155,0.088,0.388,0.064,0.542-0.023
		c0.156-0.088,0.253-0.253,0.254-0.433c0.001-0.18-0.095-0.346-0.25-0.436l-10.526-6.076c-0.548-0.258-2.043-1.165-2.37-2.255
		c-0.131-0.437-0.063-0.864,0.207-1.306c0.39-0.637,0.943-0.946,1.69-0.946c1.587,0,3.409,1.367,3.479,1.416l0.223,0.128
		c0.312,0.213,0.56,0.329,0.565,0.329l9.375,5.43l0.502-0.865l-0.017-0.009l0.001,0l-9.862-5.709
		c-1.087-0.744-1.365-1.645-0.825-2.677c0.419-0.802,0.959-1.192,1.651-1.192c0.746,0,1.408,0.456,1.452,0.484l4.563,2.642
		c0.954,0.638,2.155,1.309,3.546,2.085c0.615,0.344,1.269,0.708,1.952,1.1c0.235,0.136,0.543,0.055,0.682-0.185
		c0.138-0.239,0.056-0.544-0.183-0.682l-5.441-3.15c-2.155-1.441-2.295-2.302-1.822-3.225c0.308-0.601,0.751-0.88,1.396-0.88
		c1.035,0,2.14,0.734,2.18,0.76l13.543,7.844c1.442,0.835,2.337,1.917,2.658,3.215C45.194,15.757,43.785,18.039,43.762,18.078z
		 M20.491,23.789c0.027-0.063,0.052-0.128,0.075-0.196l0.729-2.161l3.421,1.965c-0.353-0.059-1.002-0.147-1.728-0.147
		C21.838,23.25,21.041,23.466,20.491,23.789z"/>
	<path fill="#414042" d="M20.399,42.23h-2.896c-1.132,0-1.953,0.49-1.953,1.165c0,0.676,0.821,1.167,1.953,1.167h2.896
		c1.132,0,1.953-0.491,1.953-1.167C22.353,42.721,21.531,42.23,20.399,42.23z M20.399,43.563h-2.896
		c-0.414,0-0.701-0.09-0.853-0.166c0.152-0.076,0.439-0.166,0.853-0.166h2.896c0.414,0,0.701,0.09,0.853,0.166
		C21.101,43.473,20.813,43.563,20.399,43.563z"/>
	<path fill="#414042" d="M14.368,18.854c-2.777,1.854-4.291,5.065-3.951,8.382c0.026,0.258,0.244,0.449,0.497,0.449
		c0.017,0,0.034-0.001,0.052-0.003c0.274-0.028,0.474-0.273,0.446-0.548c-0.303-2.947,1.042-5.801,3.51-7.448
		c0.23-0.153,0.292-0.464,0.139-0.693C14.907,18.762,14.597,18.7,14.368,18.854z"/>
</g>
</svg>
