<?xml version="1.0" encoding="utf-8"?>
<!-- Generator: Adobe Illustrator 16.0.0, SVG Export Plug-In . SVG Version: 6.00 Build 0)  -->
<!DOCTYPE svg PUBLIC "-//W3C//DTD SVG 1.1//EN" "http://www.w3.org/Graphics/SVG/1.1/DTD/svg11.dtd">
<svg version="1.1" id="Layer_1" xmlns="http://www.w3.org/2000/svg" xmlns:xlink="http://www.w3.org/1999/xlink" x="0px" y="0px"
	 width="48px" height="48px" viewBox="0 0 48 48" enable-background="new 0 0 48 48" xml:space="preserve">
<g>
	<path fill="#414042" d="M31.777,34.997H4.21c-0.173,0-0.331-0.05-0.476-0.123l15.603-13.261c0.586,0.374,1.873,1.049,3.542,1.049
		c1.086,0,2.33-0.287,3.643-1.132l0.024-0.018l7.966,7.099c0.096,0.085,0.215,0.127,0.333,0.127c0.138,0,0.274-0.057,0.373-0.167
		c0.184-0.206,0.166-0.522-0.04-0.706l-7.807-6.957l14.651-10.734c0.028,0.097,0.061,0.194,0.061,0.301v15.072
		c0,0.276,0.224,0.5,0.5,0.5s0.5-0.224,0.5-0.5V10.474c0-0.498-0.184-0.95-0.478-1.308c-0.006-0.01-0.007-0.021-0.014-0.031
		c-0.013-0.017-0.031-0.026-0.045-0.042c-0.381-0.425-0.928-0.698-1.542-0.698H4.21c-0.444,0-0.854,0.143-1.192,0.381
		C3.002,8.786,2.991,8.801,2.976,8.812c-0.509,0.379-0.844,0.98-0.844,1.663v23.445c0,1.146,0.933,2.078,2.078,2.078h27.567
		c0.276,0,0.5-0.224,0.5-0.5S32.054,34.997,31.777,34.997z M3.132,33.919V10.474c0-0.225,0.085-0.421,0.203-0.594l15.164,11.132
		L3.158,34.05C3.153,34.005,3.132,33.966,3.132,33.919z M41.307,9.457l-15.352,11.25c-3.424,2.204-6.218-0.015-6.355-0.126
		L4.366,9.396h36.639C41.112,9.396,41.209,9.428,41.307,9.457z"/>
	<path fill="#414042" d="M45.798,30.921c-0.028-0.092-0.726-2.265-3.381-3.033c-2.126-0.617-4.072,0.26-4.108,0.279
		c-0.138,0.047-3.37,1.185-4.005,5.095c-0.02,0.101-0.476,2.471,0.89,4.471c0.878,1.288,2.294,2.113,4.204,2.451
		c0.04,0.008,0.387,0.068,0.919,0.068c1.03,0,2.758-0.228,4.313-1.51c0.2-0.165,0.229-0.461,0.063-0.661
		c-0.165-0.201-0.461-0.229-0.661-0.063c-2.011,1.657-4.438,1.248-4.466,1.241c-1.651-0.292-2.86-0.981-3.591-2.048
		c-1.144-1.669-0.753-3.744-0.746-3.781c0.545-3.354,3.267-4.333,3.426-4.39c0.018-0.008,1.726-0.765,3.501-0.25
		c2.152,0.623,2.722,2.337,2.761,2.452c0.005,0.014,0.535,1.302-0.015,3.02c-0.521,1.624-1.907,1.854-1.94,1.859
		c-0.371,0.031-0.856,0.019-1.05-0.24c-0.224-0.298-0.067-0.894,0.01-1.091l1.3-3.569c0.089-0.244-0.037-0.514-0.28-0.603
		c-0.246-0.09-0.515,0.037-0.603,0.28l-0.053,0.144c-0.347-0.37-0.848-0.567-1.498-0.577c-0.011,0-0.021,0-0.031,0
		c-1.981,0-3.088,2.827-3.138,2.958c-0.068,0.189-0.644,1.883,0.063,2.889c0.218,0.311,0.65,0.682,1.463,0.685
		c0.003,0,0.008,0,0.017,0c0.134,0,0.951-0.054,1.809-0.912c0.046,0.123,0.104,0.243,0.188,0.356
		c0.363,0.488,1.003,0.697,1.911,0.614c0.082-0.012,2.022-0.305,2.729-2.506C46.451,32.502,45.81,30.942,45.798,30.921z
		 M39.161,36.057c-0.513-0.002-0.662-0.214-0.711-0.284c-0.362-0.516-0.076-1.67,0.049-2.023c0.01-0.023,0.936-2.345,2.258-2.345
		c0.005,0,0.011,0,0.017,0c0.396,0.006,0.682,0.104,0.847,0.293c0.206,0.235,0.198,0.557,0.193,0.641l-0.672,1.845
		C40.274,36.025,39.211,36.056,39.161,36.057z"/>
</g>
</svg>
