<?xml version="1.0" encoding="utf-8"?>
<!-- Generator: Adobe Illustrator 16.0.0, SVG Export Plug-In . SVG Version: 6.00 Build 0)  -->
<!DOCTYPE svg PUBLIC "-//W3C//DTD SVG 1.1//EN" "http://www.w3.org/Graphics/SVG/1.1/DTD/svg11.dtd">
<svg version="1.1" id="Layer_1" xmlns="http://www.w3.org/2000/svg" xmlns:xlink="http://www.w3.org/1999/xlink" x="0px" y="0px"
	 width="48px" height="48px" viewBox="0 0 48 48" enable-background="new 0 0 48 48" xml:space="preserve">
<g>
	<path fill="#414042" d="M46.02,30.725l-0.031-0.197c-0.026-0.167-0.053-0.334-0.093-0.496c-0.227-0.902-0.683-1.631-1.354-2.165
		c-0.444-0.353-0.931-0.574-1.448-0.659c-0.423-0.067-0.861-0.077-1.311-0.028c-0.466,0.052-0.897,0.191-1.284,0.415
		c-0.385,0.224-0.691,0.51-0.934,0.768c-0.343-0.366-0.67-0.627-1.025-0.817c-0.4-0.216-0.836-0.34-1.336-0.379
		c-0.41-0.029-0.781-0.02-1.135,0.036c-0.617,0.099-1.179,0.376-1.669,0.826c-0.659,0.602-1.08,1.406-1.249,2.391l-0.061,1.25
		c0,0.042,0.008,0.089,0.02,0.133c0.05,0.468,0.171,0.941,0.366,1.443c0,0.001,0,0.002,0,0.003c0.001,0.002,0.002,0.004,0.002,0.006
		c0.002,0.004,0.003,0.007,0.004,0.011c0.001,0.001,0.002,0.002,0.002,0.004c0.183,0.514,0.463,0.941,0.468,0.949l0.104,0.169
		c0.078,0.128,0.157,0.256,0.241,0.382c0.58,0.854,1.309,1.664,2.292,2.551c0.757,0.683,1.618,1.362,2.628,2.075
		c0.107,0.076,0.227,0.115,0.346,0.115c0.117,0,0.235-0.037,0.346-0.112c0.644-0.456,1.212-0.886,1.739-1.313
		c0.936-0.764,1.667-1.457,2.303-2.181c0.504-0.575,0.908-1.131,1.236-1.699c0.032-0.057,0.318-0.559,0.452-0.918
		c0-0.001,0.002-0.002,0.002-0.003c0.17-0.434,0.281-0.831,0.343-1.219l0.056-1.212C46.039,30.805,46.032,30.77,46.02,30.725z
		 M43.198,35.242c-0.598,0.682-1.291,1.338-2.183,2.065c-0.445,0.361-0.924,0.727-1.451,1.105c-0.88-0.631-1.637-1.233-2.306-1.837
		c-0.923-0.832-1.601-1.585-2.133-2.369c-0.076-0.112-0.146-0.229-0.218-0.344l-0.116-0.188c-0.002-0.004-0.232-0.356-0.373-0.759
		c-0.001-0.003-0.003-0.005-0.004-0.007c-0.001-0.004-0.001-0.007-0.002-0.01c-0.172-0.441-0.274-0.849-0.313-1.239
		c-0.001-0.016-0.005-0.037-0.011-0.06l-0.005-0.673l0.052-0.338c0.133-0.773,0.439-1.37,0.938-1.826
		c0.349-0.319,0.726-0.508,1.149-0.575c0.272-0.043,0.571-0.052,0.903-0.027c0.355,0.028,0.662,0.114,0.939,0.264
		c0.267,0.143,0.52,0.349,0.796,0.649l0.329,0.37c0.095,0.107,0.292,0.172,0.408,0.131c0.144-0.001,0.313-0.101,0.408-0.209
		l0.149-0.173c0.311-0.35,0.57-0.577,0.843-0.736c0.269-0.155,0.561-0.248,0.893-0.285c0.355-0.039,0.706-0.03,1.041,0.021
		c0.35,0.058,0.672,0.206,0.985,0.455c0.503,0.4,0.832,0.932,1.006,1.624c0.033,0.133,0.054,0.271,0.075,0.407l0.032,0.2
		c0.001,0.008,0.004,0.021,0.008,0.035l0.005,0.676l-0.05,0.318c-0.049,0.313-0.143,0.642-0.286,1.007
		c-0.001,0.003,0,0.005-0.001,0.008c-0.001,0.001-0.002,0.002-0.003,0.004c-0.086,0.236-0.308,0.64-0.386,0.775
		C44.025,34.215,43.659,34.718,43.198,35.242z"/>
	<path fill="#414042" d="M27.111,21.927l14.992-10.983c0.028,0.097,0.061,0.194,0.061,0.301v12.529c0,0.276,0.224,0.5,0.5,0.5
		s0.5-0.224,0.5-0.5V11.245c0-0.498-0.184-0.95-0.478-1.308c-0.006-0.01-0.007-0.021-0.014-0.031
		c-0.013-0.017-0.03-0.026-0.045-0.041C42.247,9.44,41.7,9.167,41.086,9.167H4.291c-0.444,0-0.854,0.143-1.191,0.381
		C3.08,9.558,3.065,9.576,3.048,9.59c-0.504,0.38-0.835,0.977-0.835,1.655v23.445c0,1.146,0.933,2.078,2.078,2.078h27.081
		c0.276,0,0.5-0.224,0.5-0.5s-0.224-0.5-0.5-0.5H4.291c-0.173,0-0.331-0.051-0.476-0.123l15.603-13.261
		c0.586,0.374,1.873,1.049,3.542,1.049c0.985,0,2.104-0.259,3.281-0.933l5.189,4.439c0.095,0.081,0.21,0.12,0.325,0.12
		c0.141,0,0.281-0.06,0.38-0.175c0.18-0.21,0.155-0.525-0.055-0.705L27.111,21.927z M3.213,34.689V11.245
		c0-0.225,0.085-0.422,0.203-0.595l15.163,11.133L3.239,34.82C3.234,34.775,3.213,34.736,3.213,34.689z M19.681,21.351L4.448,10.167
		h36.638c0.107,0,0.204,0.032,0.302,0.061l-15.352,11.25C22.611,23.682,19.819,21.463,19.681,21.351z"/>
</g>
</svg>
