<?xml version="1.0" encoding="utf-8"?>
<!-- Generator: Adobe Illustrator 16.0.0, SVG Export Plug-In . SVG Version: 6.00 Build 0)  -->
<!DOCTYPE svg PUBLIC "-//W3C//DTD SVG 1.1//EN" "http://www.w3.org/Graphics/SVG/1.1/DTD/svg11.dtd">
<svg version="1.1" id="Layer_1" xmlns="http://www.w3.org/2000/svg" xmlns:xlink="http://www.w3.org/1999/xlink" x="0px" y="0px"
	 width="48px" height="48px" viewBox="0 0 48 48" enable-background="new 0 0 48 48" xml:space="preserve">
<g>
	<path fill="#414042" d="M44.591,17.956c-0.004-0.041-0.012-0.081-0.026-0.12c-0.011-0.029-0.024-0.054-0.04-0.081
		c-0.011-0.017-0.014-0.037-0.026-0.053c-0.013-0.017-0.031-0.025-0.046-0.04c-0.012-0.012-0.018-0.029-0.031-0.041l-3.711-3.067
		v-2.665c0-1.047-0.659-1.866-1.5-1.866h-3.982L28.45,4.422c-3.836-2.881-7.508,0.127-7.526,0.145l-7.142,5.457h-4.74
		c-0.841,0-1.5,0.819-1.5,1.866v2.899L3.846,17.61c-0.016,0.012-0.022,0.031-0.037,0.044c-0.02,0.019-0.043,0.031-0.06,0.053
		c-0.011,0.014-0.013,0.032-0.022,0.046c-0.015,0.025-0.026,0.05-0.037,0.077c-0.016,0.042-0.026,0.084-0.03,0.129
		c-0.002,0.017-0.011,0.031-0.011,0.047v25.423c0,1.146,0.934,2.078,2.08,2.078h36.795c1.146,0,2.078-0.933,2.078-2.078V18.007
		C44.603,17.989,44.593,17.974,44.591,17.956z M43.603,43.431c0,0.035-0.017,0.065-0.021,0.1L28.537,30.657l15.065-11.632V43.431z
		 M4.676,43.562c-0.005-0.045-0.026-0.084-0.026-0.131V19.007l15.373,11.512L4.676,43.562z M33.112,25.863l-2.624,2.025
		c-0.008,0-0.014-0.004-0.021-0.004h-1.104c-0.002-0.787-0.007-2.216-0.026-2.34c-0.232-1.462-1.431-2.486-2.915-2.488
		c-0.502,0-4.908,0.001-5.104,0.03c-1.459,0.213-2.518,1.437-2.518,2.91v1.888h-0.541c-0.024,0-0.044,0.011-0.067,0.014
		l-3.051-2.285l0.013-9.808l17.959,0.006V25.863z M28.363,27.885H19.8v-1.887c0-0.988,0.684-1.778,1.636-1.917
		c0.215-0.015,3.144-0.023,4.985-0.023c0.981,0.002,1.774,0.678,1.925,1.615C28.355,25.822,28.361,27.144,28.363,27.885z
		 M21.123,30.094l-1.614-1.209h9.354h0.336l-1.725,1.332C24.051,32.422,21.257,30.203,21.123,30.094z M43.302,17.994l-2.592,2.001
		v-4.144L43.302,17.994z M21.548,5.348c0.125-0.104,3.108-2.525,6.283-0.141l5.826,4.815H15.43L21.548,5.348z M9.042,11.023h4.904
		c0.001,0,0.003,0.001,0.004,0.001c0.001,0,0.002-0.001,0.003-0.001H39.21c0.236,0,0.5,0.37,0.5,0.866v8.879l-5.598,4.323v-9.28
		c0-0.555-0.455-1.006-1.014-1.006H15.153c-0.559,0-1.014,0.451-1.014,1.006v9.053l-5.598-4.192v-8.783
		C8.542,11.393,8.806,11.023,9.042,11.023z M7.542,19.923l-2.563-1.919l2.563-1.957V19.923z M5.729,44.509
		c-0.174,0-0.332-0.051-0.478-0.124l15.604-13.262c0.585,0.373,1.869,1.048,3.539,1.048c0.984,0,2.104-0.26,3.283-0.933
		l15.348,13.131c-0.152,0.082-0.317,0.14-0.501,0.14H5.729z"/>
	<path fill="#414042" d="M24.02,22.959c0.002,0,0.046,0,0.049,0c0.782,0,1.52-0.306,2.074-0.861
		c0.551-0.552,0.854-1.278,0.853-2.046c-0.002-1.602-1.305-2.91-2.916-2.917c-1.595,0-2.899,1.302-2.907,2.901
		C21.164,21.623,22.44,22.933,24.02,22.959z M24.088,18.135c1.05,0.005,1.905,0.865,1.907,1.919c0.001,0.5-0.198,0.975-0.561,1.338
		c-0.366,0.366-0.851,0.567-1.366,0.567v0.5l-0.032-0.5c-1.016-0.017-1.869-0.895-1.864-1.917
		C22.178,18.991,23.033,18.135,24.088,18.135z"/>
</g>
</svg>
