<?xml version="1.0" encoding="utf-8"?>
<!-- Generator: Adobe Illustrator 16.0.0, SVG Export Plug-In . SVG Version: 6.00 Build 0)  -->
<!DOCTYPE svg PUBLIC "-//W3C//DTD SVG 1.1//EN" "http://www.w3.org/Graphics/SVG/1.1/DTD/svg11.dtd">
<svg version="1.1" id="Layer_1" xmlns="http://www.w3.org/2000/svg" xmlns:xlink="http://www.w3.org/1999/xlink" x="0px" y="0px"
	 width="48px" height="48px" viewBox="0 0 48 48" enable-background="new 0 0 48 48" xml:space="preserve">
<g>
	<path fill="#414042" d="M44.591,17.956c-0.004-0.041-0.012-0.081-0.026-0.12c-0.011-0.029-0.024-0.054-0.04-0.081
		c-0.011-0.017-0.014-0.037-0.026-0.053c-0.013-0.017-0.031-0.025-0.046-0.04c-0.012-0.012-0.018-0.029-0.031-0.041l-3.711-3.067
		v-2.665c0-1.047-0.659-1.866-1.5-1.866h-3.982L28.45,4.422c-3.836-2.881-7.508,0.127-7.526,0.145l-7.142,5.457h-4.74
		c-0.841,0-1.5,0.819-1.5,1.866v2.899L3.846,17.61c-0.016,0.012-0.022,0.031-0.037,0.044c-0.02,0.019-0.043,0.031-0.06,0.053
		c-0.011,0.014-0.013,0.032-0.022,0.046c-0.015,0.025-0.026,0.05-0.037,0.077c-0.016,0.042-0.026,0.084-0.03,0.129
		c-0.002,0.017-0.011,0.031-0.011,0.047v25.423c0,1.146,0.934,2.078,2.08,2.078h36.795c1.146,0,2.078-0.933,2.078-2.078V18.007
		C44.603,17.989,44.593,17.974,44.591,17.956z M43.603,43.431c0,0.035-0.017,0.065-0.021,0.1L28.537,30.657l15.065-11.632V43.431z
		 M43.302,17.994l-2.592,2.001v-4.144L43.302,17.994z M21.548,5.348c0.125-0.104,3.108-2.525,6.283-0.141l5.826,4.815H15.43
		L21.548,5.348z M9.042,11.023h4.904c0.001,0,0.003,0.001,0.004,0.001c0.001,0,0.002-0.001,0.003-0.001H39.21
		c0.236,0,0.5,0.37,0.5,0.866v8.879l-12.235,9.449c-3.424,2.205-6.218-0.014-6.352-0.123L8.542,20.672v-8.783
		C8.542,11.393,8.806,11.023,9.042,11.023z M4.676,43.562c-0.005-0.045-0.026-0.084-0.026-0.131V19.007l15.373,11.512L4.676,43.562z
		 M7.542,19.923l-2.563-1.919l2.563-1.957V19.923z M5.729,44.509c-0.174,0-0.332-0.051-0.478-0.124l15.604-13.262
		c0.585,0.373,1.869,1.048,3.539,1.048c0.984,0,2.104-0.26,3.283-0.933l15.348,13.131c-0.152,0.082-0.317,0.14-0.501,0.14H5.729z"/>
	<path fill="#414042" d="M18.52,26.793h9.052c0.274,0,0.497-0.223,0.497-0.497v-0.817h0.666l0.77,0.692
		c0.595,0.488,0.922,0.757,1.71,0.757c0.274,0,0.497-0.223,0.497-0.497v-6.024c0-0.274-0.223-0.497-0.497-0.497
		c-0.745,0-1.189,0.398-1.659,0.821l-0.695,0.627h-0.791v-0.819c0-0.274-0.223-0.497-0.497-0.497h-0.778
		c0.646-0.417,1.076-1.138,1.076-1.962c0-1.289-1.05-2.338-2.34-2.338s-2.339,1.049-2.339,2.338c0,0.824,0.43,1.545,1.076,1.962
		h-2.319c0.646-0.417,1.076-1.138,1.076-1.962c0-1.289-1.049-2.338-2.339-2.338c-1.289,0-2.337,1.049-2.337,2.338
		c0,0.824,0.43,1.545,1.075,1.962H18.52c-0.274,0-0.497,0.223-0.497,0.497v5.757C18.022,26.57,18.245,26.793,18.52,26.793z
		 M25.529,16.736c0.742,0,1.346,0.603,1.346,1.344s-0.604,1.344-1.346,1.344c-0.741,0-1.345-0.603-1.345-1.344
		S24.788,16.736,25.529,16.736z M20.684,16.736c0.741,0,1.345,0.603,1.345,1.344s-0.604,1.344-1.345,1.344
		c-0.74,0-1.343-0.603-1.343-1.344S19.943,16.736,20.684,16.736z M30.22,21.47c0.202-0.182,0.355-0.316,0.497-0.409v4.772
		c-0.151-0.08-0.323-0.219-0.614-0.458l-0.593-0.536v-2.727L30.22,21.47z M28.516,22.352v2.133h-0.447v-2.133H28.516z
		 M19.017,21.036h8.058v4.763h-8.058V21.036z"/>
</g>
</svg>
