<?xml version="1.0" encoding="utf-8"?>
<!-- Generator: Adobe Illustrator 16.0.0, SVG Export Plug-In . SVG Version: 6.00 Build 0)  -->
<!DOCTYPE svg PUBLIC "-//W3C//DTD SVG 1.1//EN" "http://www.w3.org/Graphics/SVG/1.1/DTD/svg11.dtd">
<svg version="1.1" id="Layer_1" xmlns="http://www.w3.org/2000/svg" xmlns:xlink="http://www.w3.org/1999/xlink" x="0px" y="0px"
	 width="48px" height="48px" viewBox="0 0 48 48" enable-background="new 0 0 48 48" xml:space="preserve">
<g>
	<path fill="#414042" d="M24.176,37.788c-0.276,0-0.5,0.224-0.5,0.5v5.404c0,0.276,0.224,0.5,0.5,0.5s0.5-0.224,0.5-0.5v-5.404
		C24.676,38.012,24.452,37.788,24.176,37.788z"/>
	<path fill="#414042" d="M33.454,12.525h-4.595v-1.576h8.969c0.276,0,0.5-0.224,0.5-0.5V4.984c0-0.276-0.224-0.5-0.5-0.5h-9.469
		c-0.276,0-0.5,0.224-0.5,0.5v5.465v2.076H14.797c-4.945,0-8.968,3.656-8.968,8.149v14.676c0,0.276,0.224,0.5,0.5,0.5h16.937h18.656
		c0.276,0,0.5-0.224,0.5-0.5V20.674C42.422,16.181,38.399,12.525,33.454,12.525z M37.328,9.949h-8.469V5.484h8.469V9.949z
		 M6.829,20.674c0-3.942,3.574-7.149,7.968-7.149s7.969,3.207,7.969,7.149v14.176H6.829V20.674z M41.422,34.851H23.766V20.674
		c0-3.079-1.89-5.764-4.67-7.149h8.764v2.388c0,0.276,0.224,0.5,0.5,0.5s0.5-0.224,0.5-0.5v-2.388h4.595
		c4.394,0,7.968,3.207,7.968,7.149V34.851z"/>
	<path fill="#414042" d="M19.891,32.265H9.516c-0.276,0-0.5,0.224-0.5,0.5s0.224,0.5,0.5,0.5h10.375c0.276,0,0.5-0.224,0.5-0.5
		S20.167,32.265,19.891,32.265z"/>
</g>
</svg>
