<?xml version="1.0" encoding="utf-8"?>
<!-- Generator: Adobe Illustrator 16.0.0, SVG Export Plug-In . SVG Version: 6.00 Build 0)  -->
<!DOCTYPE svg PUBLIC "-//W3C//DTD SVG 1.1//EN" "http://www.w3.org/Graphics/SVG/1.1/DTD/svg11.dtd">
<svg version="1.1" id="Layer_1" xmlns="http://www.w3.org/2000/svg" xmlns:xlink="http://www.w3.org/1999/xlink" x="0px" y="0px"
	 width="48px" height="48px" viewBox="0 0 48 48" enable-background="new 0 0 48 48" xml:space="preserve">
<g id="_x31_05">
	<g>
		<g>
			<path fill="#414042" d="M28.98,21.346h-9.708c-0.303,0-0.548-0.245-0.548-0.548s0.245-0.548,0.548-0.548h9.708
				c0.303,0,0.548,0.245,0.548,0.548S29.283,21.346,28.98,21.346z"/>
		</g>
		<g>
			<g>
				<g>
					<path fill="#414042" d="M24.183,30.308c-0.531,0-0.966-0.219-1.186-0.4l-3.873-2.843c-0.229-0.168-0.279-0.49-0.11-0.72
						c0.168-0.23,0.49-0.278,0.72-0.11l3.896,2.86c0.067,0.052,0.525,0.386,1.099,0.017l3.853-2.824
						c0.229-0.167,0.552-0.12,0.72,0.11c0.169,0.229,0.119,0.552-0.11,0.72l-3.879,2.843C24.915,30.215,24.528,30.308,24.183,30.308
						z"/>
				</g>
				<g>
					<path fill="#414042" d="M19.379,33.377c-0.146,0-0.291-0.062-0.393-0.181c-0.185-0.217-0.158-0.542,0.059-0.727l3.945-3.353
						c0.218-0.184,0.542-0.157,0.727,0.059c0.185,0.217,0.158,0.542-0.059,0.727l-3.945,3.353
						C19.615,33.337,19.497,33.377,19.379,33.377z"/>
				</g>
			</g>
			<g>
				<path fill="#414042" d="M28.885,33.377c-0.122,0-0.244-0.043-0.343-0.13l-3.793-3.381c-0.212-0.189-0.231-0.515-0.042-0.728
					s0.515-0.229,0.728-0.042l3.793,3.381c0.212,0.189,0.231,0.515,0.042,0.728C29.168,33.319,29.026,33.377,28.885,33.377z"/>
			</g>
			<g>
				<path fill="#414042" d="M28.597,33.55h-8.939c-0.495,0-0.897-0.402-0.897-0.897v-5.695c0-0.497,0.402-0.9,0.897-0.9h8.939
					c0.496,0,0.898,0.403,0.898,0.9v5.695C29.495,33.147,29.093,33.55,28.597,33.55z M19.789,32.521h8.677v-5.435h-8.677V32.521z"/>
			</g>
		</g>
	</g>
	<g>
		<g>
			<g>
				<path fill="#414042" d="M33.639,39.828H14.611c-0.284,0-0.515-0.23-0.515-0.515V15.094c0-0.284,0.23-0.515,0.515-0.515h19.027
					c0.284,0,0.515,0.23,0.515,0.515v24.219C34.153,39.598,33.923,39.828,33.639,39.828z M15.126,38.799h17.998v-23.19H15.126
					V38.799z"/>
			</g>
			<g>
				<path fill="#414042" d="M35.056,15.609h-21.86c-0.284,0-0.515-0.23-0.515-0.515v-4.083c0-0.284,0.23-0.515,0.515-0.515h21.86
					c0.284,0,0.515,0.23,0.515,0.515v4.083C35.57,15.378,35.34,15.609,35.056,15.609z M13.71,14.58h20.831v-3.054H13.71V14.58z"/>
			</g>
			<g>
				<path fill="#414042" d="M33.639,11.14c-0.284,0-0.515-0.23-0.515-0.515c0-4.261-3.467-7.727-7.727-7.727h-2.545
					c-4.26,0-7.727,3.466-7.727,7.727c0,0.284-0.23,0.515-0.515,0.515s-0.515-0.23-0.515-0.515v-0.14c0-0.015,0-0.03,0.002-0.045
					c0.098-4.744,3.987-8.573,8.754-8.573h2.545c4.767,0,8.656,3.829,8.754,8.573c0.002,0.015,0.002,0.03,0.002,0.045v0.14
					C34.153,10.91,33.923,11.14,33.639,11.14z"/>
			</g>
		</g>
		<g>
			<path fill="#414042" d="M35.394,46.808H12.858c-0.284,0-0.515-0.23-0.515-0.515v-6.979c0-0.284,0.23-0.515,0.515-0.515h22.535
				c0.284,0,0.515,0.23,0.515,0.515v6.979C35.908,46.577,35.678,46.808,35.394,46.808z M13.373,45.778h21.506v-5.95H13.373V45.778z"
				/>
		</g>
	</g>
</g>
</svg>
