<?xml version="1.0" encoding="utf-8"?>
<!-- Generator: Adobe Illustrator 16.0.0, SVG Export Plug-In . SVG Version: 6.00 Build 0)  -->
<!DOCTYPE svg PUBLIC "-//W3C//DTD SVG 1.1//EN" "http://www.w3.org/Graphics/SVG/1.1/DTD/svg11.dtd">
<svg version="1.1" id="Layer_1" xmlns="http://www.w3.org/2000/svg" xmlns:xlink="http://www.w3.org/1999/xlink" x="0px" y="0px"
	 width="48px" height="48px" viewBox="0 0 48 48" enable-background="new 0 0 48 48" xml:space="preserve">
<path fill="#414042" d="M44.125,11.308c-0.007-0.01-0.008-0.021-0.015-0.031c-0.013-0.017-0.031-0.026-0.046-0.042
	c-0.381-0.425-0.928-0.698-1.541-0.698H5.729c-0.444,0-0.854,0.143-1.191,0.381c-0.018,0.01-0.03,0.026-0.046,0.038
	c-0.507,0.379-0.84,0.979-0.84,1.66v23.444c0,1.146,0.933,2.078,2.078,2.078h36.795c1.146,0,2.078-0.933,2.078-2.078V12.617
	C44.602,12.118,44.418,11.667,44.125,11.308z M28.549,23.297l14.992-10.982c0.028,0.098,0.061,0.195,0.061,0.302v23.444
	c0,0.035-0.017,0.064-0.02,0.098L28.549,23.297z M42.825,11.599L27.474,22.847c-3.424,2.202-6.217-0.014-6.355-0.125L5.884,11.538
	h36.639C42.631,11.538,42.728,11.569,42.825,11.599z M4.677,36.191c-0.005-0.045-0.026-0.084-0.026-0.131V12.617
	c0-0.225,0.085-0.422,0.203-0.595l15.163,11.132L4.677,36.191z M5.729,37.139c-0.173,0-0.331-0.051-0.476-0.123l15.603-13.261
	c0.586,0.374,1.872,1.049,3.542,1.049c0.984,0,2.104-0.259,3.282-0.934l15.347,13.129c-0.152,0.082-0.317,0.141-0.502,0.141H5.729z"
	/>
</svg>
