<?xml version="1.0" encoding="utf-8"?>
<!-- Generator: Adobe Illustrator 16.0.0, SVG Export Plug-In . SVG Version: 6.00 Build 0)  -->
<!DOCTYPE svg PUBLIC "-//W3C//DTD SVG 1.1//EN" "http://www.w3.org/Graphics/SVG/1.1/DTD/svg11.dtd">
<svg version="1.1" id="Layer_1" xmlns="http://www.w3.org/2000/svg" xmlns:xlink="http://www.w3.org/1999/xlink" x="0px" y="0px"
	 width="48px" height="48px" viewBox="0 0 48 48" enable-background="new 0 0 48 48" xml:space="preserve">
<path fill="#414042" d="M44.125,11.308c-0.007-0.01-0.008-0.021-0.015-0.031c-0.013-0.017-0.031-0.026-0.046-0.042
	c-0.381-0.425-0.928-0.698-1.541-0.698H5.729c-0.444,0-0.854,0.143-1.191,0.381c-0.018,0.01-0.03,0.026-0.046,0.038
	c-0.507,0.379-0.84,0.979-0.84,1.66V36.06c0,1.146,0.933,2.079,2.078,2.079h36.795c1.146,0,2.078-0.933,2.078-2.079V12.617
	C44.602,12.118,44.418,11.667,44.125,11.308z M42.825,11.599L27.474,22.847c-3.424,2.202-6.217-0.014-6.355-0.125L5.884,11.538
	h36.639C42.631,11.538,42.728,11.569,42.825,11.599z M43.602,36.06c0,0.595-0.483,1.079-1.078,1.079H5.729
	c-0.595,0-1.078-0.484-1.078-1.079V12.617c0-0.225,0.085-0.422,0.203-0.595l15.65,11.489c0.023,0.02,1.605,1.292,3.893,1.292
	c1.086,0,2.331-0.287,3.644-1.133l15.501-11.355c0.028,0.098,0.061,0.195,0.061,0.302V36.06z"/>
</svg>
