<?xml version="1.0" encoding="utf-8"?>
<!-- Generator: Adobe Illustrator 16.0.0, SVG Export Plug-In . SVG Version: 6.00 Build 0)  -->
<!DOCTYPE svg PUBLIC "-//W3C//DTD SVG 1.1//EN" "http://www.w3.org/Graphics/SVG/1.1/DTD/svg11.dtd">
<svg version="1.1" id="Layer_1" xmlns="http://www.w3.org/2000/svg" xmlns:xlink="http://www.w3.org/1999/xlink" x="0px" y="0px"
	 width="48px" height="48px" viewBox="0 0 48 48" enable-background="new 0 0 48 48" xml:space="preserve">
<g>
	<path fill="#414042" d="M45.48,9.807H2.771c-0.349,0-0.631,0.282-0.631,0.631v27.801c0,0.349,0.282,0.631,0.631,0.631h42.71
		c0.349,0,0.631-0.282,0.631-0.631V10.438C46.111,10.089,45.829,9.807,45.48,9.807z M44.85,37.608H3.401v-26.54H44.85V37.608z"/>
	<path fill="#414042" d="M7.11,16.898h15.355c0.349,0,0.631-0.282,0.631-0.631s-0.282-0.631-0.631-0.631H7.11
		c-0.349,0-0.631,0.282-0.631,0.631S6.762,16.898,7.11,16.898z"/>
	<path fill="#414042" d="M7.11,22.221h11.822c0.349,0,0.631-0.282,0.631-0.631s-0.282-0.631-0.631-0.631H7.11
		c-0.349,0-0.631,0.282-0.631,0.631S6.762,22.221,7.11,22.221z"/>
	<path fill="#414042" d="M15.19,26.277H7.449c-0.349,0-0.631,0.282-0.631,0.631s0.282,0.631,0.631,0.631h7.741
		c0.349,0,0.631-0.282,0.631-0.631S15.539,26.277,15.19,26.277z"/>
	<path fill="#414042" d="M32.115,26.185h8.375c0.349,0,0.631-0.282,0.631-0.631v-9.287c0-0.349-0.282-0.631-0.631-0.631h-8.375
		c-0.349,0-0.631,0.282-0.631,0.631v9.287C31.484,25.902,31.767,26.185,32.115,26.185z M32.746,16.898h7.113v8.025h-7.113V16.898z"
		/>
</g>
</svg>
