<?xml version="1.0" encoding="utf-8"?>
<!-- Generator: Adobe Illustrator 16.0.0, SVG Export Plug-In . SVG Version: 6.00 Build 0)  -->
<!DOCTYPE svg PUBLIC "-//W3C//DTD SVG 1.1//EN" "http://www.w3.org/Graphics/SVG/1.1/DTD/svg11.dtd">
<svg version="1.1" id="Layer_1" xmlns="http://www.w3.org/2000/svg" xmlns:xlink="http://www.w3.org/1999/xlink" x="0px" y="0px"
	 width="48px" height="48px" viewBox="0 0 48 48" enable-background="new 0 0 48 48" xml:space="preserve">
<g>
	<path fill="#414042" d="M47.462,13.325c-0.006-0.008-0.007-0.019-0.013-0.027c-0.011-0.015-0.027-0.022-0.04-0.036
		c-0.335-0.376-0.817-0.618-1.359-0.618H15.081c-0.389,0-0.748,0.124-1.044,0.332c-0.009,0.006-0.016,0.015-0.025,0.021
		c-0.458,0.333-0.759,0.868-0.759,1.476v19.732c0,1.008,0.82,1.828,1.828,1.828H46.05c1.008,0,1.828-0.82,1.828-1.828V14.472
		C47.878,14.036,47.718,13.64,47.462,13.325z M34.7,23.259l12.154-8.904c0.006,0.04,0.023,0.076,0.023,0.117v19.639L34.7,23.259z
		 M46.114,13.657L33.34,23.016c-2.833,1.826-5.142-0.007-5.26-0.102l-12.624-9.271H46.05C46.072,13.644,46.092,13.655,46.114,13.657
		z M14.253,34.163V14.472c0-0.144,0.046-0.272,0.11-0.39l12.615,9.264L14.253,34.163z M15.081,35.032
		c-0.088,0-0.168-0.024-0.248-0.05L27.82,23.944c0.521,0.324,1.591,0.863,2.973,0.863c0.918,0,1.97-0.243,3.078-0.948l12.471,11.113
		c-0.091,0.035-0.188,0.06-0.292,0.06H15.081z"/>
	<path fill="#414042" d="M10.69,25.346H0.872c-0.276,0-0.5,0.224-0.5,0.5s0.224,0.5,0.5,0.5h9.818c0.276,0,0.5-0.224,0.5-0.5
		S10.967,25.346,10.69,25.346z"/>
	<path fill="#414042" d="M10.69,29.239H2.882c-0.276,0-0.5,0.224-0.5,0.5s0.224,0.5,0.5,0.5h7.809c0.276,0,0.5-0.224,0.5-0.5
		S10.967,29.239,10.69,29.239z"/>
	<path fill="#414042" d="M10.69,33.135H4.597c-0.276,0-0.5,0.224-0.5,0.5s0.224,0.5,0.5,0.5h6.094c0.276,0,0.5-0.224,0.5-0.5
		S10.967,33.135,10.69,33.135z"/>
</g>
</svg>
