<?xml version="1.0" encoding="utf-8"?>
<!-- Generator: Adobe Illustrator 16.0.0, SVG Export Plug-In . SVG Version: 6.00 Build 0)  -->
<!DOCTYPE svg PUBLIC "-//W3C//DTD SVG 1.1//EN" "http://www.w3.org/Graphics/SVG/1.1/DTD/svg11.dtd">
<svg version="1.1" id="Layer_1" xmlns="http://www.w3.org/2000/svg" xmlns:xlink="http://www.w3.org/1999/xlink" x="0px" y="0px"
	 width="48px" height="48px" viewBox="0 0 48 48" enable-background="new 0 0 48 48" xml:space="preserve">
<g>
	<path fill="#414042" d="M26.489,22.618l14.992-10.983c0.028,0.097,0.061,0.194,0.061,0.301v13.98c0,0.276,0.224,0.5,0.5,0.5
		s0.5-0.224,0.5-0.5v-13.98c0-0.498-0.184-0.95-0.478-1.308c-0.006-0.01-0.007-0.021-0.014-0.031
		c-0.013-0.017-0.03-0.026-0.045-0.041c-0.381-0.425-0.928-0.699-1.542-0.699H3.669c-0.443,0-0.853,0.142-1.19,0.38
		c-0.021,0.012-0.036,0.031-0.055,0.045c-0.503,0.38-0.833,0.976-0.833,1.653V35.38c0,1.146,0.933,2.078,2.078,2.078h28.806
		c0.276,0,0.5-0.224,0.5-0.5s-0.224-0.5-0.5-0.5H3.669c-0.173,0-0.331-0.05-0.476-0.123l15.603-13.261
		c0.586,0.374,1.873,1.049,3.542,1.049c0.985,0,2.103-0.259,3.281-0.933l6.945,5.941c0.095,0.081,0.21,0.12,0.325,0.12
		c0.141,0,0.281-0.06,0.38-0.175c0.18-0.21,0.155-0.525-0.055-0.705L26.489,22.618z M2.591,35.38V11.935
		c0-0.225,0.085-0.422,0.203-0.595l15.163,11.133L2.617,35.511C2.612,35.466,2.591,35.427,2.591,35.38z M19.059,22.042L3.826,10.857
		h36.638c0.107,0,0.204,0.032,0.302,0.061l-15.352,11.25C21.99,24.372,19.197,22.154,19.059,22.042z"/>
	<path fill="#414042" d="M46.162,33.757h-9.529l3.225-3.274c0.193-0.196,0.191-0.513-0.006-0.707
		c-0.194-0.193-0.513-0.191-0.707,0.006l-4.059,4.121c-0.001,0.001-0.001,0.001-0.002,0.002l-0.002,0.002
		c-0.011,0.011-0.015,0.024-0.023,0.036c-0.031,0.038-0.063,0.077-0.082,0.124c0,0.001-0.001,0.003-0.002,0.004
		c-0.013,0.032-0.014,0.066-0.02,0.101c-0.005,0.029-0.017,0.058-0.017,0.088c0.001,0.031,0.013,0.061,0.019,0.091
		c0.006,0.033,0.007,0.066,0.02,0.097c0,0.001,0,0.002,0.001,0.003c0.025,0.062,0.063,0.116,0.108,0.162l4.062,4.062
		c0.098,0.098,0.226,0.146,0.354,0.146s0.256-0.049,0.354-0.146c0.195-0.195,0.195-0.512,0-0.707l-3.209-3.209h9.517
		c0.276,0,0.5-0.224,0.5-0.5S46.438,33.757,46.162,33.757z"/>
</g>
</svg>
