<?xml version="1.0" encoding="utf-8"?>
<!-- Generator: Adobe Illustrator 16.0.0, SVG Export Plug-In . SVG Version: 6.00 Build 0)  -->
<!DOCTYPE svg PUBLIC "-//W3C//DTD SVG 1.1//EN" "http://www.w3.org/Graphics/SVG/1.1/DTD/svg11.dtd">
<svg version="1.1" id="Layer_1" xmlns="http://www.w3.org/2000/svg" xmlns:xlink="http://www.w3.org/1999/xlink" x="0px" y="0px"
	 width="48px" height="48px" viewBox="0 0 48 48" enable-background="new 0 0 48 48" xml:space="preserve">
<g>
	<path fill="#414042" d="M35.107,35.824H4.302c-0.173,0-0.331-0.051-0.476-0.123L19.428,22.44c0.586,0.374,1.873,1.049,3.542,1.049
		c0.985,0,2.104-0.259,3.281-0.933l6.945,5.941c0.095,0.081,0.21,0.12,0.325,0.12c0.141,0,0.281-0.06,0.38-0.175
		c0.18-0.21,0.155-0.525-0.055-0.705l-6.726-5.753L42.113,11c0.029,0.098,0.062,0.195,0.062,0.302v13.979c0,0.276,0.224,0.5,0.5,0.5
		s0.5-0.224,0.5-0.5V11.302c0-0.499-0.184-0.95-0.477-1.309c-0.007-0.01-0.008-0.021-0.015-0.031
		c-0.013-0.017-0.031-0.026-0.045-0.041c-0.381-0.425-0.928-0.698-1.542-0.698H4.302c-0.444,0-0.854,0.143-1.192,0.381
		C3.094,9.613,3.083,9.628,3.068,9.639c-0.51,0.379-0.845,0.981-0.845,1.664v23.444c0,1.146,0.933,2.078,2.078,2.078h30.806
		c0.276,0,0.5-0.224,0.5-0.5S35.384,35.824,35.107,35.824z M3.224,34.746V11.302c0-0.225,0.085-0.422,0.203-0.595L18.59,21.839
		L3.25,34.877C3.245,34.832,3.224,34.793,3.224,34.746z M41.398,10.284L26.047,21.533c-3.424,2.204-6.218-0.013-6.355-0.125
		L4.458,10.223h36.639C41.204,10.223,41.301,10.255,41.398,10.284z"/>
	<path fill="#414042" d="M45.877,31.937l-4.121-4.06c-0.001,0-0.001,0-0.002-0.001l-0.002-0.002
		c-0.013-0.013-0.029-0.018-0.043-0.028c-0.037-0.029-0.073-0.059-0.117-0.077c-0.001,0-0.002-0.001-0.003-0.002
		c-0.038-0.015-0.079-0.018-0.12-0.022c-0.023-0.004-0.045-0.014-0.068-0.014c-0.026,0-0.052,0.011-0.078,0.016
		c-0.037,0.006-0.075,0.008-0.11,0.022c-0.001,0-0.002,0-0.003,0.001c-0.061,0.025-0.116,0.062-0.162,0.108l-4.062,4.062
		c-0.195,0.195-0.195,0.512,0,0.707c0.098,0.098,0.226,0.146,0.354,0.146s0.256-0.049,0.354-0.146l3.209-3.209v9.516
		c0,0.276,0.224,0.5,0.5,0.5s0.5-0.224,0.5-0.5v-9.528l3.274,3.225c0.097,0.096,0.224,0.144,0.351,0.144
		c0.129,0,0.259-0.05,0.356-0.149C46.076,32.447,46.074,32.131,45.877,31.937z"/>
</g>
</svg>
