<?xml version="1.0" encoding="utf-8"?>
<!-- Generator: Adobe Illustrator 16.0.0, SVG Export Plug-In . SVG Version: 6.00 Build 0)  -->
<!DOCTYPE svg PUBLIC "-//W3C//DTD SVG 1.1//EN" "http://www.w3.org/Graphics/SVG/1.1/DTD/svg11.dtd">
<svg version="1.1" id="Layer_1" xmlns="http://www.w3.org/2000/svg" xmlns:xlink="http://www.w3.org/1999/xlink" x="0px" y="0px"
	 width="48px" height="48px" viewBox="0 0 48 48" enable-background="new 0 0 48 48" xml:space="preserve">
<g>
	<path fill="#414042" d="M35.108,35.824H4.303c-0.173,0-0.331-0.051-0.476-0.123L19.429,22.44c0.586,0.374,1.873,1.049,3.542,1.049
		c0.985,0,2.104-0.259,3.281-0.933l6.945,5.941c0.095,0.081,0.21,0.12,0.325,0.12c0.141,0,0.281-0.06,0.38-0.175
		c0.18-0.21,0.155-0.525-0.055-0.705l-6.726-5.753L42.115,11c0.028,0.098,0.061,0.195,0.061,0.302v13.979c0,0.276,0.224,0.5,0.5,0.5
		s0.5-0.224,0.5-0.5V11.302c0-0.499-0.184-0.95-0.477-1.309c-0.007-0.01-0.008-0.021-0.015-0.031
		c-0.013-0.017-0.031-0.026-0.045-0.041c-0.381-0.425-0.928-0.698-1.542-0.698H4.303c-0.444,0-0.854,0.143-1.192,0.381
		C3.095,9.613,3.083,9.628,3.069,9.639c-0.51,0.379-0.845,0.981-0.845,1.664v23.444c0,1.146,0.933,2.078,2.078,2.078h30.806
		c0.276,0,0.5-0.224,0.5-0.5S35.385,35.824,35.108,35.824z M3.225,34.746V11.302c0-0.225,0.085-0.422,0.203-0.595l15.163,11.132
		L3.251,34.877C3.246,34.832,3.225,34.793,3.225,34.746z M41.399,10.284L26.048,21.533c-3.425,2.204-6.217-0.013-6.355-0.125
		L4.458,10.223h36.639C41.205,10.223,41.302,10.255,41.399,10.284z"/>
	<path fill="#414042" d="M45.884,34.54c-0.194-0.197-0.513-0.199-0.707-0.006l-3.274,3.225V28.23c0-0.276-0.224-0.5-0.5-0.5
		s-0.5,0.224-0.5,0.5v9.516l-3.209-3.209c-0.195-0.195-0.512-0.195-0.707,0s-0.195,0.512,0,0.707l4.062,4.062
		c0.046,0.047,0.102,0.083,0.163,0.108c0.001,0.001,0.002,0.002,0.003,0.002c0.06,0.024,0.124,0.037,0.188,0.037
		c0.063,0,0.128-0.013,0.188-0.036c0.001-0.001,0.002-0.002,0.004-0.002c0.043-0.019,0.079-0.048,0.115-0.077
		c0.015-0.011,0.031-0.016,0.044-0.028l0.003-0.002c0-0.001,0-0.001,0-0.001l4.122-4.06C46.075,35.053,46.077,34.736,45.884,34.54z"
		/>
</g>
</svg>
