<?xml version="1.0" encoding="utf-8"?>
<!-- Generator: Adobe Illustrator 16.0.0, SVG Export Plug-In . SVG Version: 6.00 Build 0)  -->
<!DOCTYPE svg PUBLIC "-//W3C//DTD SVG 1.1//EN" "http://www.w3.org/Graphics/SVG/1.1/DTD/svg11.dtd">
<svg version="1.1" id="Layer_1" xmlns="http://www.w3.org/2000/svg" xmlns:xlink="http://www.w3.org/1999/xlink" x="0px" y="0px"
	 width="48px" height="48px" viewBox="0 0 48 48" enable-background="new 0 0 48 48" xml:space="preserve">
<g>
	<path fill="#414042" d="M44.125,14.389c-0.007-0.01-0.008-0.021-0.015-0.031c-0.013-0.017-0.031-0.026-0.046-0.042
		c-0.38-0.425-0.927-0.698-1.541-0.698h-3.652c-0.276,0-0.5,0.224-0.5,0.5s0.224,0.5,0.5,0.5h3.652c0.107,0,0.204,0.032,0.302,0.061
		l-7.092,5.197c-0.223,0.163-0.271,0.477-0.107,0.699c0.098,0.134,0.25,0.204,0.403,0.204c0.103,0,0.206-0.031,0.296-0.097
		l7.216-5.287c0.028,0.097,0.061,0.194,0.061,0.301v23.445c0,0.035-0.017,0.064-0.02,0.098L28.069,25.969
		c-0.008-0.006-0.017-0.008-0.024-0.014c-0.028-0.022-0.061-0.036-0.093-0.052c-0.026-0.012-0.051-0.026-0.078-0.034
		c-0.035-0.009-0.07-0.01-0.106-0.012c-0.027-0.001-0.054-0.005-0.081-0.002c-0.033,0.004-0.064,0.016-0.097,0.026
		c-0.031,0.011-0.063,0.021-0.092,0.037c-0.008,0.005-0.017,0.005-0.024,0.01c-3.425,2.205-6.218-0.014-6.355-0.126L5.886,14.619
		h17.901c0.276,0,0.5-0.224,0.5-0.5s-0.224-0.5-0.5-0.5H5.729c-0.443,0-0.853,0.142-1.19,0.38c-0.021,0.012-0.036,0.031-0.055,0.045
		C3.98,14.424,3.65,15.02,3.65,15.697v23.445c0,1.146,0.933,2.078,2.078,2.078h36.795c1.146,0,2.078-0.933,2.078-2.078V15.697
		C44.602,15.199,44.418,14.747,44.125,14.389z M4.677,39.272c-0.005-0.045-0.026-0.084-0.026-0.131V15.697
		c0-0.225,0.085-0.422,0.203-0.595l15.163,11.132L4.677,39.272z M5.729,40.22c-0.173,0-0.331-0.05-0.476-0.123l15.602-13.262
		c0.588,0.375,1.878,1.055,3.549,1.055c0.985,0,2.103-0.26,3.277-0.938l15.345,13.127c-0.152,0.082-0.317,0.141-0.502,0.141H5.729z"
		/>
	<path fill="#414042" d="M27.047,23.908c0.376,0.377,0.876,0.584,1.407,0.584l2.946-0.001c1.097,0,1.988-0.892,1.988-1.988
		l-0.004-11.179c0-0.588-0.479-1.068-1.07-1.072l-2.145,0.002c-0.591,0-1.071,0.48-1.071,1.071l0.003,9.659
		c0,0.276,0.224,0.5,0.5,0.5s0.5-0.224,0.5-0.5l-0.003-9.659c0-0.039,0.032-0.071,0.071-0.071l2.142-0.002
		c0.041,0,0.073,0.032,0.073,0.072l0.004,11.179c0,0.545-0.443,0.988-0.988,0.988l-2.946,0.001c-0.264,0-0.513-0.104-0.699-0.29
		c-0.187-0.188-0.289-0.435-0.289-0.698L27.463,9.449c0-0.546,0.443-0.989,0.988-0.989l5.581-0.002c0.546,0,0.989,0.443,0.989,0.989
		l0.002,7.302c0,0.276,0.224,0.5,0.5,0.5s0.5-0.224,0.5-0.5l-0.002-7.302c0-1.097-0.893-1.989-1.989-1.989l-5.581,0.002
		c-1.097,0-1.988,0.893-1.988,1.989l0.003,13.054C26.465,23.033,26.672,23.532,27.047,23.908z"/>
</g>
</svg>
