<?xml version="1.0" encoding="utf-8"?>
<!-- Generator: Adobe Illustrator 16.0.0, SVG Export Plug-In . SVG Version: 6.00 Build 0)  -->
<!DOCTYPE svg PUBLIC "-//W3C//DTD SVG 1.1//EN" "http://www.w3.org/Graphics/SVG/1.1/DTD/svg11.dtd">
<svg version="1.1" id="Layer_1" xmlns="http://www.w3.org/2000/svg" xmlns:xlink="http://www.w3.org/1999/xlink" x="0px" y="0px"
	 width="48px" height="48px" viewBox="0 0 48 48" enable-background="new 0 0 48 48" xml:space="preserve">
<path fill="#414042" d="M44.113,17.953c-0.001-0.002-0.001-0.005-0.003-0.007c-0.005-0.007-0.013-0.01-0.019-0.017
	c-0.023-0.026-0.056-0.063-0.067-0.074L28.396,5.037c-1.143-0.775-2.375-1.168-3.661-1.168c-2.18,0-3.737,1.132-3.81,1.185
	L4.438,17.659c-0.081,0.078-0.788,0.783-0.788,1.626v23.445c0,1.146,0.933,2.078,2.078,2.078h36.795
	c1.146,0,2.078-0.933,2.078-2.078V19.285C44.602,18.588,44.279,18.14,44.113,17.953z M28.889,29.718l14.666-10.744
	c0.027,0.09,0.047,0.192,0.047,0.311v23.445c0,0.03-0.015,0.055-0.017,0.084L28.889,29.718z M21.524,5.854
	c0.014-0.01,1.37-0.985,3.21-0.985c1.083,0,2.126,0.335,3.063,0.969l15.095,12.381L27.474,29.517
	c-3.421,2.204-6.217-0.014-6.356-0.126L5.581,18.041L21.524,5.854z M4.677,42.86c-0.005-0.045-0.026-0.084-0.026-0.131V19.285
	c0-0.181,0.093-0.38,0.195-0.544l15.17,11.083L4.677,42.86z M5.729,43.808c-0.173,0-0.331-0.05-0.476-0.123l15.603-13.262
	c0.586,0.374,1.873,1.049,3.542,1.049c1.086,0,2.33-0.287,3.643-1.132l0.024-0.018l14.969,13.34
	c-0.154,0.085-0.322,0.146-0.51,0.146H5.729z"/>
</svg>
