<?xml version="1.0" encoding="utf-8"?>
<!-- Generator: Adobe Illustrator 16.0.0, SVG Export Plug-In . SVG Version: 6.00 Build 0)  -->
<!DOCTYPE svg PUBLIC "-//W3C//DTD SVG 1.1//EN" "http://www.w3.org/Graphics/SVG/1.1/DTD/svg11.dtd">
<svg version="1.1" id="Layer_1" xmlns="http://www.w3.org/2000/svg" xmlns:xlink="http://www.w3.org/1999/xlink" x="0px" y="0px"
	 width="48px" height="48px" viewBox="0 0 48 48" enable-background="new 0 0 48 48" xml:space="preserve">
<g>
	<path fill="#414042" d="M44.59,17.956c-0.004-0.041-0.012-0.081-0.026-0.12c-0.011-0.029-0.024-0.054-0.04-0.081
		c-0.011-0.017-0.014-0.037-0.026-0.053c-0.013-0.017-0.031-0.025-0.046-0.04c-0.012-0.012-0.018-0.029-0.031-0.041l-3.711-3.067
		v-2.666c0-1.046-0.659-1.865-1.5-1.865h-3.982l-6.777-5.601c-3.832-2.879-7.508,0.128-7.526,0.145l-7.142,5.456h-4.74
		c-0.841,0-1.5,0.819-1.5,1.865v2.9L3.845,17.61c-0.016,0.012-0.022,0.031-0.037,0.044c-0.02,0.019-0.043,0.031-0.06,0.053
		c-0.011,0.014-0.013,0.032-0.022,0.046c-0.015,0.025-0.026,0.05-0.037,0.077c-0.016,0.042-0.026,0.084-0.03,0.129
		c-0.002,0.017-0.011,0.031-0.011,0.047v25.423c0,1.146,0.934,2.078,2.08,2.078h36.795c1.146,0,2.078-0.933,2.078-2.078V18.007
		C44.602,17.989,44.592,17.974,44.59,17.956z M43.602,43.431c0,0.035-0.017,0.065-0.021,0.1L28.536,30.658l15.065-11.633V43.431z
		 M43.301,17.994l-2.592,2.002v-4.144L43.301,17.994z M21.548,5.347c0.03-0.024,3.092-2.535,6.282-0.14l5.826,4.815H15.429
		L21.548,5.347z M9.041,11.023h4.904c0.001,0,0.003,0.001,0.004,0.001c0.001,0,0.002-0.001,0.003-0.001h25.257
		c0.236,0,0.5,0.37,0.5,0.865v8.88l-12.235,9.45c-3.424,2.203-6.218-0.014-6.352-0.123L8.541,20.672v-8.784
		C8.541,11.393,8.805,11.023,9.041,11.023z M4.675,43.562c-0.005-0.045-0.026-0.084-0.026-0.131V19.007L20.021,30.52L4.675,43.562z
		 M7.541,19.923l-2.563-1.92l2.563-1.957V19.923z M5.729,44.509c-0.174,0-0.332-0.051-0.478-0.124l15.604-13.261
		c0.585,0.373,1.869,1.047,3.539,1.047c0.984,0,2.104-0.259,3.283-0.932l15.347,13.13c-0.151,0.082-0.316,0.14-0.5,0.14H5.729z"/>
	<path fill="#414042" d="M13.785,21.107h21.604c0.276,0,0.5-0.224,0.5-0.5s-0.224-0.5-0.5-0.5H13.785c-0.276,0-0.5,0.224-0.5,0.5
		S13.509,21.107,13.785,21.107z"/>
	<path fill="#414042" d="M13.785,16.107h21.604c0.276,0,0.5-0.224,0.5-0.5s-0.224-0.5-0.5-0.5H13.785c-0.276,0-0.5,0.224-0.5,0.5
		S13.509,16.107,13.785,16.107z"/>
</g>
</svg>
