<?xml version="1.0" encoding="utf-8"?>
<!-- Generator: Adobe Illustrator 16.0.0, SVG Export Plug-In . SVG Version: 6.00 Build 0)  -->
<!DOCTYPE svg PUBLIC "-//W3C//DTD SVG 1.1//EN" "http://www.w3.org/Graphics/SVG/1.1/DTD/svg11.dtd">
<svg version="1.1" id="Layer_1" xmlns="http://www.w3.org/2000/svg" xmlns:xlink="http://www.w3.org/1999/xlink" x="0px" y="0px"
	 width="48px" height="48px" viewBox="0 0 48 48" enable-background="new 0 0 48 48" xml:space="preserve">
<g>
	<path fill="#414042" d="M30.782,35.273H4.259c-0.173,0-0.331-0.051-0.476-0.123l15.603-13.261c0.586,0.374,1.873,1.049,3.542,1.049
		c0.985,0,2.104-0.259,3.282-0.934l7.88,6.724c0.094,0.081,0.209,0.12,0.324,0.12c0.141,0,0.281-0.06,0.38-0.176
		c0.18-0.21,0.154-0.525-0.056-0.704l-7.659-6.536L42.071,10.45c0.028,0.097,0.061,0.194,0.061,0.301V24.36
		c0,0.276,0.224,0.5,0.5,0.5s0.5-0.224,0.5-0.5V10.75c0-0.498-0.184-0.95-0.478-1.308c-0.006-0.01-0.007-0.021-0.014-0.031
		c-0.013-0.017-0.03-0.026-0.045-0.041c-0.381-0.425-0.928-0.699-1.542-0.699H4.259c-0.443,0-0.853,0.143-1.191,0.38
		c-0.02,0.011-0.035,0.03-0.053,0.044c-0.503,0.38-0.834,0.977-0.834,1.654v23.445c0,1.146,0.933,2.078,2.078,2.078h26.523
		c0.276,0,0.5-0.224,0.5-0.5S31.059,35.273,30.782,35.273z M41.054,9.672c0.107,0,0.204,0.032,0.302,0.061l-15.352,11.25
		c-3.424,2.205-6.217-0.015-6.355-0.126L4.416,9.672H41.054z M3.181,34.195V10.75c0-0.225,0.085-0.422,0.203-0.595l15.163,11.133
		L3.207,34.326C3.202,34.281,3.181,34.242,3.181,34.195z"/>
	<path fill="#414042" d="M45.57,33.428h-5.078v-5.079c0-0.276-0.224-0.5-0.5-0.5s-0.5,0.224-0.5,0.5v5.079h-5.078
		c-0.276,0-0.5,0.224-0.5,0.5s0.224,0.5,0.5,0.5h5.078v5.077c0,0.276,0.224,0.5,0.5,0.5s0.5-0.224,0.5-0.5v-5.077h5.078
		c0.276,0,0.5-0.224,0.5-0.5S45.847,33.428,45.57,33.428z"/>
</g>
</svg>
