<?xml version="1.0" encoding="utf-8"?>
<!-- Generator: Adobe Illustrator 16.0.0, SVG Export Plug-In . SVG Version: 6.00 Build 0)  -->
<!DOCTYPE svg PUBLIC "-//W3C//DTD SVG 1.1//EN" "http://www.w3.org/Graphics/SVG/1.1/DTD/svg11.dtd">
<svg version="1.1" id="Layer_1" xmlns="http://www.w3.org/2000/svg" xmlns:xlink="http://www.w3.org/1999/xlink" x="0px" y="0px"
	 width="48px" height="48px" viewBox="0 0 48 48" enable-background="new 0 0 48 48" xml:space="preserve">
<g>
	<path fill="#414042" d="M26.573,22.656l14.992-10.983c0.028,0.097,0.061,0.194,0.061,0.301v16.444c0,0.276,0.224,0.5,0.5,0.5
		s0.5-0.224,0.5-0.5V11.973c0-0.498-0.184-0.95-0.478-1.308c-0.006-0.01-0.007-0.021-0.014-0.031
		c-0.013-0.017-0.03-0.025-0.045-0.041c-0.381-0.425-0.928-0.699-1.542-0.699H3.753c-0.443,0-0.853,0.142-1.19,0.38
		c-0.021,0.012-0.037,0.032-0.057,0.047c-0.501,0.38-0.831,0.976-0.831,1.651v23.445c0,1.146,0.933,2.078,2.078,2.078h28.155
		c0.276,0,0.5-0.224,0.5-0.5s-0.224-0.5-0.5-0.5H3.753c-0.173,0-0.331-0.051-0.476-0.123l15.603-13.261
		c0.586,0.374,1.873,1.049,3.542,1.049c0.985,0,2.103-0.259,3.281-0.933l6.256,5.352c0.095,0.081,0.21,0.12,0.325,0.12
		c0.141,0,0.281-0.06,0.38-0.175c0.18-0.21,0.155-0.525-0.055-0.705L26.573,22.656z M2.675,35.418V11.973
		c0-0.225,0.085-0.422,0.203-0.595l15.163,11.133L2.701,35.549C2.696,35.504,2.675,35.465,2.675,35.418z M19.143,22.08L3.91,10.895
		h36.638c0.107,0,0.204,0.032,0.302,0.061l-15.352,11.25C22.074,24.411,19.28,22.192,19.143,22.08z"/>
	<path fill="#414042" d="M46.478,31.796c-0.164-0.221-0.477-0.268-0.699-0.104l-7.976,5.914L35.231,34.7
		c-0.185-0.21-0.501-0.228-0.705-0.043c-0.207,0.183-0.227,0.498-0.043,0.705l2.875,3.25c0.098,0.111,0.235,0.169,0.374,0.169
		c0.104,0,0.209-0.032,0.298-0.099l8.344-6.188C46.596,32.331,46.643,32.018,46.478,31.796z"/>
</g>
</svg>
