<?xml version="1.0" encoding="utf-8"?>
<!-- Generator: Adobe Illustrator 16.0.0, SVG Export Plug-In . SVG Version: 6.00 Build 0)  -->
<!DOCTYPE svg PUBLIC "-//W3C//DTD SVG 1.1//EN" "http://www.w3.org/Graphics/SVG/1.1/DTD/svg11.dtd">
<svg version="1.1" id="Layer_1" xmlns="http://www.w3.org/2000/svg" xmlns:xlink="http://www.w3.org/1999/xlink" x="0px" y="0px"
	 width="48px" height="48px" viewBox="0 0 48 48" enable-background="new 0 0 48 48" xml:space="preserve">
<g>
	<path fill="#414042" d="M27.899,21.748l14.989-10.981c0.028,0.097,0.061,0.194,0.061,0.301v14.609c0,0.276,0.224,0.5,0.5,0.5
		s0.5-0.224,0.5-0.5V11.067c0-0.498-0.184-0.95-0.478-1.308c-0.006-0.01-0.007-0.021-0.014-0.031
		c-0.013-0.017-0.03-0.025-0.044-0.04c-0.381-0.426-0.929-0.699-1.543-0.699H5.076c-0.443,0-0.853,0.142-1.19,0.38
		C3.864,9.381,3.848,9.401,3.828,9.417c-0.5,0.38-0.83,0.975-0.83,1.65v23.445c0,1.146,0.933,2.078,2.078,2.078H32.6
		c0.276,0,0.5-0.224,0.5-0.5s-0.224-0.5-0.5-0.5H5.076c-0.173,0-0.331-0.051-0.476-0.123l15.603-13.261
		c0.586,0.374,1.873,1.049,3.542,1.049c0.985,0,2.104-0.259,3.282-0.934l6.381,5.407c0.094,0.079,0.209,0.118,0.323,0.118
		c0.142,0,0.282-0.06,0.382-0.177c0.178-0.211,0.152-0.526-0.059-0.705L27.899,21.748z M3.998,34.512V11.067
		c0-0.225,0.085-0.422,0.203-0.595l15.163,11.133L4.024,34.643C4.019,34.598,3.998,34.559,3.998,34.512z M20.466,21.173L5.233,9.989
		h36.638c0.107,0,0.204,0.032,0.302,0.061l-15.352,11.25C23.397,23.504,20.604,21.286,20.466,21.173z"/>
	<path fill="#414042" d="M41.517,35.243l3.591-3.591c0.195-0.195,0.195-0.512,0-0.707s-0.512-0.195-0.707,0l-3.591,3.591
		l-3.591-3.591c-0.195-0.195-0.512-0.195-0.707,0s-0.195,0.512,0,0.707l3.591,3.591l-3.591,3.591c-0.195,0.195-0.195,0.512,0,0.707
		c0.098,0.098,0.226,0.146,0.354,0.146s0.256-0.049,0.354-0.146l3.591-3.591l3.591,3.591c0.098,0.098,0.226,0.146,0.354,0.146
		s0.256-0.049,0.354-0.146c0.195-0.195,0.195-0.512,0-0.707L41.517,35.243z"/>
</g>
</svg>
