<?xml version="1.0" encoding="utf-8"?>
<!-- Generator: Adobe Illustrator 16.0.0, SVG Export Plug-In . SVG Version: 6.00 Build 0)  -->
<!DOCTYPE svg PUBLIC "-//W3C//DTD SVG 1.1//EN" "http://www.w3.org/Graphics/SVG/1.1/DTD/svg11.dtd">
<svg version="1.1" id="Layer_1" xmlns="http://www.w3.org/2000/svg" xmlns:xlink="http://www.w3.org/1999/xlink" x="0px" y="0px"
	 width="48px" height="48px" viewBox="0 0 48 48" enable-background="new 0 0 48 48" xml:space="preserve">
<g>
	<path fill="#414042" d="M25.686,21.421l14.996-10.986c0.028,0.097,0.061,0.194,0.061,0.301v10.859c0,0.276,0.224,0.5,0.5,0.5
		s0.5-0.224,0.5-0.5V10.736c0-0.498-0.184-0.95-0.478-1.308c-0.006-0.01-0.007-0.021-0.014-0.031
		c-0.013-0.017-0.03-0.026-0.045-0.041c-0.381-0.425-0.928-0.699-1.542-0.699H2.869c-0.444,0-0.854,0.143-1.192,0.381
		c-0.018,0.01-0.032,0.027-0.048,0.04c-0.505,0.379-0.838,0.978-0.838,1.657v23.445c0,1.146,0.933,2.078,2.078,2.078h27.718
		c0.276,0,0.5-0.224,0.5-0.5s-0.224-0.5-0.5-0.5H2.869c-0.173,0-0.331-0.05-0.476-0.123l15.603-13.261
		c0.586,0.374,1.873,1.049,3.542,1.049c0.984,0,2.102-0.259,3.279-0.932l7.234,6.271c0.095,0.082,0.211,0.122,0.327,0.122
		c0.14,0,0.279-0.059,0.378-0.173c0.181-0.208,0.158-0.524-0.051-0.705L25.686,21.421z M1.791,34.181V10.736
		c0-0.225,0.085-0.422,0.203-0.595l15.163,11.133L1.817,34.312C1.812,34.267,1.791,34.228,1.791,34.181z M18.259,20.842L3.026,9.658
		h36.638c0.107,0,0.204,0.032,0.302,0.061l-15.352,11.25C21.19,23.173,18.397,20.955,18.259,20.842z"/>
	<path fill="#414042" d="M47.455,38.731l-0.001-6.568c0.006-0.087,0.017-0.536-0.302-0.874c-0.139-0.148-0.392-0.325-0.805-0.325
		c-0.011,0-0.021,0-0.03,0h-1l-0.001-0.727c0-0.346-0.033-0.659-0.1-0.954c-0.237-1.07-0.805-1.954-1.686-2.624
		c-0.613-0.471-1.322-0.764-2.103-0.871c-0.111-0.017-0.227-0.031-0.392-0.047h-0.498c-0.024,0-0.108,0.014-0.133,0.017
		l-0.183,0.024c-0.154,0.02-0.308,0.04-0.461,0.073c-2.086,0.481-3.528,2.299-3.507,4.42c0.003,0.231,0.002,0.461,0.001,0.69H35.15
		c-0.444,0-0.714,0.185-0.86,0.339c-0.32,0.335-0.316,0.768-0.313,0.827l0.003,6.712c0.006,0.472,0.355,1.175,1.294,1.175h10.977
		c0.494,0,0.778-0.208,0.93-0.383C47.518,39.246,47.46,38.731,47.455,38.731z M39.982,26.831c0.119-0.026,0.242-0.041,0.366-0.057
		l0.632-0.036c0.099,0.011,0.202,0.023,0.307,0.039c0.619,0.086,1.154,0.307,1.637,0.676c0.698,0.532,1.129,1.201,1.317,2.049
		c0.051,0.225,0.075,0.465,0.075,0.738l0.001,0.726h-7.061c0.001-0.233,0.002-0.467-0.001-0.7
		C37.239,28.617,38.362,27.205,39.982,26.831z M46.424,38.981c-0.017,0.019-0.076,0.037-0.173,0.037H35.274
		c-0.146,0-0.281-0.024-0.294-0.188l-0.003-6.713c0-0.152,0.072-0.152,0.173-0.152h1.605h8.214c0.003,0,0.006-0.002,0.01-0.002
		h1.338c0.003,0,0.005,0,0.008,0c0.032,0.006,0.065,0.01,0.099,0.01c0.015,0.016,0.033,0.084,0.031,0.158l0.004,6.663
		C46.465,38.849,46.454,38.948,46.424,38.981z"/>
</g>
</svg>
