<?xml version="1.0" encoding="utf-8"?>
<!-- Generator: Adobe Illustrator 16.0.0, SVG Export Plug-In . SVG Version: 6.00 Build 0)  -->
<!DOCTYPE svg PUBLIC "-//W3C//DTD SVG 1.1//EN" "http://www.w3.org/Graphics/SVG/1.1/DTD/svg11.dtd">
<svg version="1.1" id="Layer_1" xmlns="http://www.w3.org/2000/svg" xmlns:xlink="http://www.w3.org/1999/xlink" x="0px" y="0px"
	 width="48px" height="48px" viewBox="0 0 48 48" enable-background="new 0 0 48 48" xml:space="preserve">
<g>
	<path fill="#414042" d="M32.41,35.42H3.245c-0.173,0-0.331-0.051-0.476-0.123l15.603-13.261c0.586,0.374,1.873,1.049,3.542,1.049
		c0.985,0,2.103-0.259,3.281-0.933l7.333,6.273c0.095,0.081,0.21,0.12,0.325,0.12c0.141,0,0.281-0.06,0.38-0.175
		c0.18-0.21,0.155-0.525-0.055-0.705l-7.113-6.085l14.992-10.983c0.028,0.097,0.061,0.194,0.061,0.301V23.78
		c0,0.276,0.224,0.5,0.5,0.5s0.5-0.224,0.5-0.5V10.897c0-0.498-0.184-0.95-0.478-1.308c-0.006-0.01-0.007-0.021-0.014-0.031
		c-0.013-0.017-0.031-0.026-0.045-0.042c-0.381-0.425-0.928-0.698-1.542-0.698H3.245c-0.443,0-0.853,0.143-1.191,0.38
		c-0.02,0.011-0.035,0.03-0.053,0.044c-0.503,0.38-0.834,0.977-0.834,1.654v23.445c0,1.146,0.933,2.078,2.078,2.078H32.41
		c0.276,0,0.5-0.224,0.5-0.5S32.687,35.42,32.41,35.42z M2.167,34.342V10.897c0-0.225,0.085-0.422,0.203-0.595l15.163,11.133
		L2.193,34.473C2.188,34.428,2.167,34.389,2.167,34.342z M40.342,9.88L24.99,21.129c-3.425,2.204-6.218-0.014-6.355-0.126
		L3.402,9.819H40.04C40.147,9.819,40.244,9.851,40.342,9.88z"/>
	<path fill="#414042" d="M47.036,31.32c-0.056-0.173-0.204-0.298-0.384-0.323l-4.273-0.617l-1.905-3.865
		c-0.08-0.162-0.244-0.265-0.425-0.265c-0.001,0-0.001,0-0.001,0c-0.181,0-0.346,0.102-0.426,0.264l-1.918,3.866l-4.272,0.617
		c-0.18,0.025-0.328,0.15-0.384,0.323c-0.057,0.172-0.01,0.36,0.12,0.486l3.104,3.023l-0.632,4.461
		c-0.026,0.181,0.054,0.359,0.206,0.461c0.079,0.054,0.172,0.08,0.264,0.08c0.083,0,0.166-0.021,0.241-0.065l3.711-2.185
		l3.997,2.076c0.16,0.082,0.359,0.068,0.506-0.044c0.146-0.111,0.216-0.297,0.178-0.477l-0.915-4.322l3.088-3.009
		C47.046,31.681,47.093,31.492,47.036,31.32z M42.979,34.318c-0.117,0.113-0.167,0.279-0.134,0.438l0.761,3.595l-3.339-1.734
		c-0.144-0.074-0.318-0.071-0.46,0.013l-3.088,1.818l0.527-3.724c0.021-0.149-0.03-0.301-0.139-0.406l-2.587-2.52l3.565-0.515
		c0.155-0.022,0.289-0.119,0.358-0.259l1.603-3.229l1.591,3.229c0.069,0.141,0.203,0.237,0.358,0.26l3.567,0.515L42.979,34.318z"/>
</g>
</svg>
