<?xml version="1.0" encoding="utf-8"?>
<!-- Generator: Adobe Illustrator 16.0.0, SVG Export Plug-In . SVG Version: 6.00 Build 0)  -->
<!DOCTYPE svg PUBLIC "-//W3C//DTD SVG 1.1//EN" "http://www.w3.org/Graphics/SVG/1.1/DTD/svg11.dtd">
<svg version="1.1" id="Layer_1" xmlns="http://www.w3.org/2000/svg" xmlns:xlink="http://www.w3.org/1999/xlink" x="0px" y="0px"
	 width="48px" height="48px" viewBox="0 0 48 48" enable-background="new 0 0 48 48" xml:space="preserve">
<g>
	<path fill="#414042" d="M33.162,27.019l-6.991-6.231l14.65-10.733c0.028,0.097,0.061,0.194,0.061,0.301v13.43
		c0,0.276,0.224,0.5,0.5,0.5s0.5-0.224,0.5-0.5v-13.43c0-0.498-0.184-0.95-0.478-1.308c-0.006-0.01-0.007-0.021-0.014-0.031
		c-0.013-0.017-0.03-0.026-0.045-0.041c-0.381-0.425-0.928-0.699-1.542-0.699H3.009c-0.443,0-0.853,0.142-1.19,0.38
		C1.798,8.668,1.782,8.688,1.764,8.702c-0.503,0.38-0.833,0.976-0.833,1.653V33.8c0,1.146,0.933,2.078,2.078,2.078h27.67
		c0.276,0,0.5-0.224,0.5-0.5s-0.224-0.5-0.5-0.5H3.009c-0.173,0-0.331-0.05-0.476-0.123l15.603-13.261
		c0.586,0.374,1.873,1.049,3.542,1.049c1.086,0,2.33-0.287,3.643-1.132l0.025-0.019l7.15,6.373c0.096,0.085,0.215,0.127,0.333,0.127
		c0.138,0,0.274-0.057,0.373-0.167C33.386,27.519,33.368,27.202,33.162,27.019z M1.931,33.8V10.355c0-0.225,0.085-0.422,0.203-0.595
		l15.163,11.133L1.957,33.931C1.952,33.886,1.931,33.847,1.931,33.8z M18.398,20.461L3.166,9.277h36.638
		c0.107,0,0.204,0.032,0.302,0.061l-15.352,11.25C21.33,22.792,18.537,20.574,18.398,20.461z"/>
	<path fill="#414042" d="M40.215,26.187c-3.918,0-7.105,3.188-7.105,7.107c0,2.128,0.945,4.036,2.433,5.34l0,0
		c1.251,1.096,2.884,1.766,4.673,1.766c3.919,0,7.106-3.188,7.106-7.105C47.321,29.375,44.134,26.187,40.215,26.187z M38.378,27.533
		c-0.011,0.019-0.02,0.037-0.027,0.058l-0.056,0.145c-0.063,0.163-0.03,0.341,0.067,0.474c-0.133,0.046-0.293,0.094-0.445,0.123
		c0.029-0.114,0.044-0.241,0.038-0.382c-0.023-0.111-0.052-0.207-0.082-0.295c0.158-0.065,0.319-0.124,0.483-0.177
		C38.364,27.497,38.369,27.515,38.378,27.533z M36.808,28.229c-0.137,0.132-0.195,0.329-0.132,0.516
		c0.063,0.186,0.283,0.615,0.988,0.615c0.634,0,1.391-0.347,1.397-0.351c0.049-0.022,0.094-0.054,0.132-0.091
		c0.277-0.267,0.315-0.541,0.298-0.733c-0.006-0.057-0.018-0.109-0.034-0.159c0.008-0.008,0.015-0.014,0.021-0.02
		c0.122-0.115,0.178-0.283,0.149-0.449c-0.023-0.132-0.106-0.235-0.214-0.312c0.264-0.034,0.529-0.059,0.802-0.059
		c2.929,0,5.381,2.074,5.97,4.83c-0.007-0.012-0.015-0.024-0.021-0.037c-0.33-0.435-0.674-0.525-0.904-0.525
		c-0.509,0-0.832,0.42-0.919,0.558c-1.187,0.849-1.361,1.23-1.271,1.501c0.043,0.259,0.002,0.491-0.054,0.664
		c-0.158-0.359-0.332-0.985-0.412-1.361c-0.191-0.641-0.191-0.839-0.191-0.847c0.002-0.187-0.167-0.373-0.33-0.462
		c-0.163-0.086-0.429-0.095-0.584,0.01c-0.084-0.084-0.19-0.132-0.3-0.144L40.21,30.84c-0.087-0.125-0.196-0.252-0.311-0.385
		c-0.125-0.146-0.357-0.417-0.386-0.521c-0.03-0.154-0.155-0.318-0.298-0.387c-0.313-0.155-0.652,0.008-1.269,0.328
		c-0.105,0.055-0.2,0.104-0.269,0.135c-0.366,0.166-0.563,0.476-0.54,0.851c0.036,0.599,0.722,1.287,1.261,1.727
		c-0.561,0.426-0.977,0.5-1.197,0.5c-0.194,0-0.313-0.056-0.3-0.042c-0.358-0.299-0.814-2.36-1.007-4.059
		c0-0.001-0.001-0.002-0.001-0.003C36.174,28.703,36.479,28.45,36.808,28.229z M34.12,33.509c0.261,0.576,0.92,1.878,1.691,2.233
		c0.087,0.04,0.187,0.054,0.277,0.041c0.32-0.043,0.694-0.047,0.909-0.014c-0.062,0.147-0.213,0.407-0.565,0.577
		c-0.074,0.03-0.643,0.279-0.974,0.767C34.659,36.119,34.168,34.87,34.12,33.509z M40.215,39.399c-1.519,0-2.906-0.562-3.977-1.482
		c-0.016-0.068-0.014-0.123,0.001-0.161c0.084-0.219,0.425-0.421,0.601-0.495c0.812-0.391,1.124-1.086,1.158-1.35
		c0.098-0.278,0.055-0.559-0.117-0.769c-0.357-0.436-1.188-0.435-1.754-0.371c-0.376-0.282-0.874-1.166-1.144-1.781v-2.828
		c0.017-0.027,0.032-0.055,0.05-0.081c0.201,1.319,0.601,3.242,1.273,3.768c0.033,0.024,0.344,0.238,0.896,0.238
		c0.521,0,1.348-0.201,2.261-1.105c0.138-0.092,0.221-0.246,0.223-0.411c0.005-0.185-0.094-0.359-0.257-0.45
		c-0.363-0.237-1.104-0.904-1.263-1.234c0.069-0.034,0.153-0.077,0.242-0.123c0.082-0.043,0.211-0.109,0.33-0.167
		c0.114,0.176,0.26,0.345,0.402,0.511c0.111,0.129,0.236,0.274,0.278,0.353c0.047,0.084,0.116,0.153,0.201,0.199l1.407,0.76
		c0.123,0.076,0.282,0.143,0.476,0.155c0.034,0.147,0.078,0.311,0.132,0.486c0.012,0.057,0.279,1.334,0.681,1.908
		c0.132,0.366,0.386,0.582,0.695,0.582c0.27,0,0.495-0.157,0.67-0.467c0.159-0.225,0.461-0.825,0.397-1.559
		c0.091-0.104,0.33-0.337,0.918-0.752c0.038-0.026,0.122-0.132,0.152-0.169c0.035-0.062,0.105-0.14,0.083-0.153
		c0,0,0.05,0.021,0.094,0.069c0.462,0.854,0.758,1.196,0.968,1.337C46.008,36.96,43.393,39.399,40.215,39.399z"/>
</g>
</svg>
