<?xml version="1.0" encoding="utf-8"?>
<!-- Generator: Adobe Illustrator 16.0.0, SVG Export Plug-In . SVG Version: 6.00 Build 0)  -->
<!DOCTYPE svg PUBLIC "-//W3C//DTD SVG 1.1//EN" "http://www.w3.org/Graphics/SVG/1.1/DTD/svg11.dtd">
<svg version="1.1" id="Layer_1" xmlns="http://www.w3.org/2000/svg" xmlns:xlink="http://www.w3.org/1999/xlink" x="0px" y="0px"
	 width="48px" height="48px" viewBox="0 0 48 48" enable-background="new 0 0 48 48" xml:space="preserve">
<g>
	<path fill="#414042" d="M21.925,22.684c1.086,0,2.33-0.287,3.643-1.132l0.025-0.019l7.15,6.373
		c0.096,0.085,0.215,0.127,0.333,0.127c0.138,0,0.274-0.057,0.373-0.167c0.184-0.206,0.166-0.522-0.04-0.706l-6.991-6.231
		l14.65-10.733c0.028,0.097,0.061,0.194,0.061,0.301v13.43c0,0.276,0.224,0.5,0.5,0.5s0.5-0.224,0.5-0.5v-13.43
		c0-0.498-0.184-0.95-0.478-1.308c-0.006-0.01-0.007-0.021-0.014-0.031c-0.013-0.017-0.03-0.025-0.044-0.04
		c-0.381-0.426-0.929-0.699-1.543-0.699H3.256c-0.443,0-0.852,0.142-1.189,0.379c-0.022,0.012-0.04,0.033-0.06,0.049
		c-0.5,0.38-0.829,0.975-0.829,1.65v23.445c0,1.146,0.933,2.078,2.078,2.078h27.67c0.276,0,0.5-0.224,0.5-0.5s-0.224-0.5-0.5-0.5
		H3.256c-0.173,0-0.331-0.051-0.476-0.123l15.603-13.261C18.968,22.009,20.255,22.684,21.925,22.684z M2.178,33.941V10.497
		c0-0.225,0.085-0.422,0.203-0.595l15.163,11.133L2.204,34.072C2.199,34.027,2.178,33.988,2.178,33.941z M40.353,9.479
		l-15.352,11.25c-3.424,2.204-6.217-0.014-6.355-0.126L3.413,9.418h36.638C40.158,9.418,40.255,9.45,40.353,9.479z"/>
	<path fill="#414042" d="M40.074,26.262c-3.859,0-7,3.141-7,7c0,3.857,3.141,6.996,7,6.996s7-3.139,7-6.996
		C47.074,29.402,43.934,26.262,40.074,26.262z M40.074,27.262c1.474,0,2.822,0.536,3.867,1.42l-8.443,8.449
		c-0.887-1.045-1.424-2.395-1.424-3.869C34.074,29.953,36.766,27.262,40.074,27.262z M40.074,39.258
		c-1.474,0-2.823-0.536-3.869-1.42l8.443-8.449c0.888,1.046,1.426,2.396,1.426,3.873C46.074,36.568,43.383,39.258,40.074,39.258z"/>
</g>
</svg>
