<?xml version="1.0" encoding="utf-8"?>
<!-- Generator: Adobe Illustrator 16.0.0, SVG Export Plug-In . SVG Version: 6.00 Build 0)  -->
<!DOCTYPE svg PUBLIC "-//W3C//DTD SVG 1.1//EN" "http://www.w3.org/Graphics/SVG/1.1/DTD/svg11.dtd">
<svg version="1.1" id="Layer_1" xmlns="http://www.w3.org/2000/svg" xmlns:xlink="http://www.w3.org/1999/xlink" x="0px" y="0px"
	 width="48px" height="48px" viewBox="0 0 48 48" enable-background="new 0 0 48 48" xml:space="preserve">
<g>
	<path fill="#414042" d="M25.652,20.523L40.304,9.79c0.028,0.097,0.061,0.194,0.061,0.301v13.15c0,0.276,0.224,0.5,0.5,0.5
		s0.5-0.224,0.5-0.5V10.09c0-0.498-0.184-0.95-0.478-1.308c-0.006-0.01-0.007-0.021-0.014-0.031
		c-0.013-0.017-0.03-0.026-0.045-0.041c-0.381-0.425-0.928-0.699-1.542-0.699H2.491c-0.443,0-0.853,0.143-1.191,0.38
		c-0.02,0.011-0.035,0.03-0.053,0.044c-0.503,0.38-0.834,0.977-0.834,1.654v23.445c0,1.146,0.933,2.078,2.078,2.078h27.872
		c0.276,0,0.5-0.224,0.5-0.5s-0.224-0.5-0.5-0.5H2.491c-0.173,0-0.331-0.051-0.476-0.123l15.603-13.261
		c0.586,0.374,1.873,1.049,3.542,1.049c1.086,0,2.33-0.287,3.643-1.132l0.024-0.018l7.154,6.376
		c0.096,0.085,0.215,0.127,0.333,0.127c0.138,0,0.274-0.057,0.373-0.167c0.184-0.206,0.166-0.522-0.04-0.706L25.652,20.523z
		 M1.413,33.535V10.09c0-0.225,0.085-0.422,0.203-0.595l15.163,11.133L1.439,33.666C1.434,33.621,1.413,33.582,1.413,33.535z
		 M17.881,20.197L2.648,9.012h36.638c0.107,0,0.204,0.032,0.302,0.061l-15.352,11.25C20.812,22.528,18.019,20.309,17.881,20.197z"/>
	<path fill="#414042" d="M40.468,25.926c-4.062,0-7.366,3.306-7.366,7.369s3.305,7.369,7.366,7.369c4.063,0,7.37-3.306,7.37-7.369
		S44.531,25.926,40.468,25.926z M40.468,39.664c-3.511,0-6.366-2.857-6.366-6.369s2.855-6.369,6.366-6.369
		c3.513,0,6.37,2.857,6.37,6.369S43.98,39.664,40.468,39.664z"/>
	<path fill="#414042" d="M40.45,34.588c0.276,0,0.5-0.224,0.5-0.5V30.25c0-0.276-0.224-0.5-0.5-0.5s-0.5,0.224-0.5,0.5v3.838
		C39.95,34.364,40.174,34.588,40.45,34.588z"/>
	<circle fill="#414042" cx="40.47" cy="36.311" r="0.644"/>
</g>
</svg>
