<?xml version="1.0" encoding="utf-8"?>
<!-- Generator: Adobe Illustrator 16.0.0, SVG Export Plug-In . SVG Version: 6.00 Build 0)  -->
<!DOCTYPE svg PUBLIC "-//W3C//DTD SVG 1.1//EN" "http://www.w3.org/Graphics/SVG/1.1/DTD/svg11.dtd">
<svg version="1.1" id="Layer_1" xmlns="http://www.w3.org/2000/svg" xmlns:xlink="http://www.w3.org/1999/xlink" x="0px" y="0px"
	 width="48px" height="48px" viewBox="0 0 48 48" enable-background="new 0 0 48 48" xml:space="preserve">
<g>
	<path fill="#414042" d="M33.045,26.744l-6.6-5.883l14.651-10.734c0.028,0.097,0.061,0.194,0.061,0.301v12.902
		c0,0.276,0.224,0.5,0.5,0.5s0.5-0.224,0.5-0.5V10.428c0-0.498-0.184-0.95-0.478-1.308c-0.006-0.01-0.007-0.021-0.014-0.031
		c-0.013-0.017-0.03-0.026-0.045-0.041C41.24,8.624,40.693,8.35,40.079,8.35H3.284c-0.445,0-0.856,0.144-1.195,0.383
		C2.08,8.739,2.073,8.748,2.064,8.754C1.547,9.133,1.206,9.74,1.206,10.428v23.447c0,1.146,0.933,2.078,2.078,2.078h27.669
		c0.276,0,0.5-0.224,0.5-0.5s-0.224-0.5-0.5-0.5H3.284c-0.173,0-0.331-0.051-0.476-0.123l15.603-13.263
		c0.586,0.374,1.873,1.049,3.542,1.049c1.086,0,2.33-0.287,3.643-1.132l0.024-0.018l6.759,6.024
		c0.096,0.085,0.215,0.127,0.333,0.127c0.138,0,0.274-0.057,0.373-0.167C33.269,27.244,33.251,26.928,33.045,26.744z M2.206,33.875
		V10.428c0-0.224,0.085-0.421,0.202-0.594l15.164,11.132l-15.34,13.04C2.227,33.961,2.206,33.922,2.206,33.875z M18.674,20.535
		L3.439,9.35h36.64c0.107,0,0.204,0.032,0.302,0.061l-15.352,11.25C21.605,22.865,18.812,20.647,18.674,20.535z"/>
	<path fill="#414042" d="M40.062,30.322c-1.589,0-2.882,1.292-2.882,2.881s1.293,2.881,2.882,2.881c1.588,0,2.88-1.292,2.88-2.881
		S41.649,30.322,40.062,30.322z M40.062,35.084c-1.038,0-1.882-0.844-1.882-1.881s0.844-1.881,1.882-1.881
		c1.036,0,1.88,0.844,1.88,1.881S41.098,35.084,40.062,35.084z"/>
	<path fill="#414042" d="M46.622,34.471l-1.394-0.803c0-0.215-0.004-0.396-0.008-0.581c-0.002-0.12-0.004-0.241-0.006-0.373
		l1.403-0.811c0.403-0.234,0.542-0.753,0.309-1.157l-1.297-2.247c-0.227-0.393-0.781-0.535-1.16-0.312l-1.395,0.805
		c-0.12-0.07-0.227-0.133-0.33-0.193c-0.158-0.094-0.312-0.184-0.502-0.292v-1.598c0-0.468-0.381-0.849-0.849-0.849h-2.594
		c-0.469,0-0.85,0.381-0.85,0.849v1.497c-0.313,0.227-0.635,0.443-0.849,0.585l-1.37-0.79c-0.392-0.229-0.938-0.082-1.16,0.309
		l-1.299,2.246c-0.232,0.403-0.094,0.923,0.315,1.161l1.299,0.736c-0.001,0.401,0,0.813,0.001,1.08L33.59,34.48
		c-0.405,0.234-0.544,0.754-0.31,1.16l1.298,2.25c0.226,0.387,0.764,0.537,1.158,0.308l1.374-0.793
		c0.312,0.199,0.634,0.381,0.853,0.5v1.571c0,0.469,0.381,0.85,0.849,0.85h2.595c0.468,0,0.849-0.381,0.849-0.85V37.91
		c0.205-0.11,0.506-0.282,0.854-0.512l1.368,0.791c0.391,0.224,0.932,0.079,1.158-0.313l1.3-2.247
		C47.164,35.227,47.025,34.707,46.622,34.471z M44.845,37.246l-1.508-0.87c-0.168-0.097-0.376-0.088-0.536,0.022
		c-0.693,0.484-1.255,0.753-1.26,0.755c-0.175,0.083-0.286,0.259-0.286,0.452v1.721h-2.292v-1.721c0-0.188-0.104-0.359-0.271-0.444
		c-0.007-0.004-0.704-0.363-1.242-0.729c-0.051-0.042-0.11-0.074-0.176-0.094c-0.133-0.043-0.274-0.024-0.394,0.046l-1.503,0.891
		l-1.155-2.003l1.418-0.816c0.155-0.09,0.251-0.257,0.25-0.437c0,0-0.006-0.918,0-1.651c0.001-0.182-0.096-0.35-0.254-0.438
		l-1.419-0.805l1.145-1.982l1.508,0.869c0.162,0.095,0.363,0.09,0.521-0.012c0,0,0.744-0.479,1.36-0.938
		c0.127-0.095,0.201-0.243,0.201-0.401v-1.6h2.292v1.74c0,0.183,0.1,0.351,0.259,0.438c0.312,0.171,0.519,0.293,0.735,0.421
		c0.172,0.102,0.351,0.206,0.654,0.372c0.143,0.058,0.303,0.044,0.436-0.03l1.502-0.89l1.156,2.002l-1.521,0.879
		c-0.154,0.089-0.25,0.254-0.25,0.432c0,0.265,0.004,0.475,0.008,0.681c0.005,0.253,0.009,0.5,0.013,0.934
		c0.024,0.147,0.114,0.276,0.243,0.352l1.515,0.872L44.845,37.246z"/>
</g>
</svg>
