<?xml version="1.0" encoding="utf-8"?>
<!-- Generator: Adobe Illustrator 16.0.0, SVG Export Plug-In . SVG Version: 6.00 Build 0)  -->
<!DOCTYPE svg PUBLIC "-//W3C//DTD SVG 1.1//EN" "http://www.w3.org/Graphics/SVG/1.1/DTD/svg11.dtd">
<svg version="1.1" id="Layer_1" xmlns="http://www.w3.org/2000/svg" xmlns:xlink="http://www.w3.org/1999/xlink" x="0px" y="0px"
	 width="48px" height="48px" viewBox="0 0 48 48" enable-background="new 0 0 48 48" xml:space="preserve">
<g>
	<path fill="#414042" d="M26.297,21.162l14.992-10.983c0.028,0.097,0.061,0.194,0.061,0.301v13.813c0,0.276,0.224,0.5,0.5,0.5
		s0.5-0.224,0.5-0.5V10.479c0-0.498-0.184-0.95-0.478-1.308c-0.006-0.01-0.007-0.021-0.014-0.031
		c-0.013-0.017-0.031-0.026-0.045-0.042c-0.381-0.425-0.928-0.698-1.542-0.698H3.477c-0.444,0-0.854,0.143-1.191,0.381
		c-0.02,0.011-0.034,0.029-0.052,0.042c-0.504,0.38-0.835,0.977-0.835,1.655v23.445c0,1.146,0.933,2.078,2.078,2.078h28.27
		c0.276,0,0.5-0.224,0.5-0.5s-0.224-0.5-0.5-0.5H3.477c-0.173,0-0.331-0.051-0.476-0.123l15.603-13.261
		c0.586,0.374,1.873,1.049,3.542,1.049c0.985,0,2.103-0.259,3.281-0.933l6.62,5.662c0.095,0.081,0.21,0.12,0.325,0.12
		c0.141,0,0.281-0.06,0.38-0.175c0.18-0.21,0.155-0.525-0.055-0.705L26.297,21.162z M2.398,33.924V10.479
		c0-0.225,0.085-0.422,0.203-0.595l15.163,11.133L2.425,34.055C2.419,34.01,2.398,33.971,2.398,33.924z M18.866,20.585L3.634,9.401
		h36.638c0.107,0,0.204,0.032,0.302,0.061l-15.352,11.25C21.797,22.917,19.004,20.698,18.866,20.585z"/>
	<path fill="#414042" d="M46.72,39.437l-3.591-3.891c0.813-0.913,1.343-2.09,1.396-3.41c0.119-3.014-2.236-5.564-5.25-5.685
		l-0.221-0.004c-2.946,0-5.346,2.308-5.464,5.253c-0.059,1.459,0.454,2.854,1.445,3.928s2.342,1.697,3.803,1.757l0.221,0.004
		c1.264,0,2.413-0.443,3.339-1.161l3.587,3.887c0.099,0.107,0.232,0.161,0.367,0.161c0.121,0,0.243-0.044,0.339-0.133
		C46.895,39.955,46.907,39.64,46.72,39.437z M38.879,36.385c-1.194-0.048-2.298-0.558-3.108-1.436
		c-0.81-0.877-1.229-2.017-1.18-3.209c0.096-2.407,2.057-4.293,4.464-4.293l0.182,0.004c2.463,0.098,4.387,2.182,4.289,4.645
		c-0.05,1.219-0.578,2.301-1.399,3.075c-0.004,0.004-0.01,0.005-0.015,0.009c-0.002,0.002-0.003,0.005-0.005,0.007
		c-0.799,0.745-1.867,1.202-3.047,1.202L38.879,36.385z"/>
</g>
</svg>
