<?xml version="1.0" encoding="utf-8"?>
<!-- Generator: Adobe Illustrator 16.0.0, SVG Export Plug-In . SVG Version: 6.00 Build 0)  -->
<!DOCTYPE svg PUBLIC "-//W3C//DTD SVG 1.1//EN" "http://www.w3.org/Graphics/SVG/1.1/DTD/svg11.dtd">
<svg version="1.1" id="Layer_1" xmlns="http://www.w3.org/2000/svg" xmlns:xlink="http://www.w3.org/1999/xlink" x="0px" y="0px"
	 width="48px" height="48px" viewBox="0 0 48 48" enable-background="new 0 0 48 48" xml:space="preserve">
<g>
	<path fill="#414042" d="M27.579,36.573H3.601c-0.173,0-0.331-0.05-0.476-0.123l15.603-13.261c0.586,0.374,1.873,1.049,3.542,1.049
		c1.086,0,2.33-0.287,3.643-1.132l0.024-0.018l9.828,8.759c0.096,0.085,0.215,0.127,0.333,0.127c0.138,0,0.274-0.057,0.373-0.167
		c0.184-0.206,0.166-0.522-0.04-0.706l-9.669-8.617L41.413,11.75c0.028,0.097,0.061,0.194,0.061,0.301v19.205
		c0,0.276,0.224,0.5,0.5,0.5s0.5-0.224,0.5-0.5V12.05c0-0.498-0.184-0.95-0.478-1.308c-0.006-0.01-0.007-0.021-0.014-0.031
		c-0.013-0.017-0.031-0.026-0.045-0.042c-0.381-0.425-0.928-0.698-1.542-0.698H3.601c-0.444,0-0.854,0.143-1.192,0.381
		c-0.017,0.01-0.029,0.025-0.045,0.037c-0.507,0.379-0.841,0.979-0.841,1.66v23.445c0,1.146,0.933,2.078,2.078,2.078h23.979
		c0.276,0,0.5-0.224,0.5-0.5S27.855,36.573,27.579,36.573z M2.522,35.495V12.05c0-0.225,0.085-0.421,0.203-0.594l15.164,11.132
		L2.549,35.626C2.543,35.581,2.522,35.542,2.522,35.495z M40.697,11.033l-15.352,11.25c-3.424,2.205-6.217-0.014-6.355-0.126
		L3.756,10.972h36.639C40.503,10.972,40.6,11.004,40.697,11.033z"/>
	<path fill="#414042" d="M37.958,36.847c-0.276,0-0.5,0.224-0.5,0.5c0,0.189-0.153,0.345-0.343,0.345l-5.053,0.013
		c-0.098,0.004-0.176-0.035-0.241-0.099c-0.065-0.065-0.102-0.151-0.102-0.243l-0.006-2.421c0-0.188,0.152-0.343,0.341-0.343
		l5.053-0.013h0.001c0.188,0,0.343,0.152,0.343,0.341c0.001,0.275,0.225,0.499,0.5,0.499h0.001c0.276-0.001,0.5-0.225,0.499-0.501
		c-0.002-0.739-0.604-1.339-1.343-1.339c-0.001,0-0.002,0-0.003,0l-5.053,0.013c-0.358,0.001-0.695,0.142-0.948,0.396
		s-0.392,0.591-0.391,0.949l0.006,2.422c0.002,0.359,0.143,0.696,0.396,0.948c0.253,0.252,0.588,0.391,0.943,0.391
		c0.002,0,0.004,0,0.006,0l5.052-0.013c0.739-0.002,1.341-0.604,1.341-1.345C38.458,37.07,38.234,36.847,37.958,36.847z"/>
	<path fill="#414042" d="M46.723,34.873c-0.001-0.36-0.142-0.697-0.396-0.95c-0.254-0.253-0.6-0.371-0.948-0.39l-5.055,0.012
		c-0.741,0.005-1.341,0.609-1.338,1.348c0.001,0.275,0.225,0.498,0.5,0.498c0.001,0,0.001,0,0.002,0
		c0.276-0.001,0.499-0.226,0.498-0.502c-0.001-0.188,0.153-0.343,0.342-0.344l5.054-0.012c0.116-0.004,0.176,0.034,0.24,0.099
		c0.065,0.064,0.102,0.151,0.102,0.243l0.007,2.42c0,0.189-0.153,0.344-0.341,0.345l-5.053,0.013c-0.189,0-0.344-0.154-0.345-0.343
		c-0.001-0.275-0.225-0.498-0.5-0.498c-0.001,0-0.002,0-0.002,0c-0.276,0.001-0.499,0.226-0.498,0.502
		c0.003,0.738,0.606,1.339,1.346,1.339l5.055-0.013c0.737-0.003,1.338-0.606,1.338-1.346L46.723,34.873z"/>
	<path fill="#414042" d="M36.146,35.538c-0.273,0-0.497,0.221-0.5,0.495c-0.003,0.275,0.219,0.502,0.495,0.505l5.024,0.053
		c0.001,0,0.003,0,0.005,0c0.273,0,0.497-0.221,0.5-0.495c0.003-0.275-0.219-0.502-0.495-0.505l-5.024-0.053
		C36.149,35.538,36.147,35.538,36.146,35.538z"/>
</g>
</svg>
