<?xml version="1.0" encoding="utf-8"?>
<!-- Generator: Adobe Illustrator 16.0.0, SVG Export Plug-In . SVG Version: 6.00 Build 0)  -->
<!DOCTYPE svg PUBLIC "-//W3C//DTD SVG 1.1//EN" "http://www.w3.org/Graphics/SVG/1.1/DTD/svg11.dtd">
<svg version="1.1" id="Layer_1" xmlns="http://www.w3.org/2000/svg" xmlns:xlink="http://www.w3.org/1999/xlink" x="0px" y="0px"
	 width="48px" height="48px" viewBox="0 0 48 48" enable-background="new 0 0 48 48" xml:space="preserve">
<g>
	<path fill="#414042" d="M31.454,35.46H3.724c-0.173,0-0.331-0.05-0.476-0.123L18.85,22.076c0.586,0.374,1.873,1.049,3.542,1.049
		c1.086,0,2.33-0.287,3.643-1.132l0.024-0.018l9.925,8.845c0.096,0.085,0.215,0.127,0.333,0.127c0.138,0,0.274-0.057,0.373-0.167
		c0.184-0.206,0.166-0.522-0.04-0.706l-9.766-8.704l14.651-10.734c0.028,0.097,0.061,0.194,0.061,0.301v11.877
		c0,0.276,0.224,0.5,0.5,0.5s0.5-0.224,0.5-0.5V10.937c0-0.498-0.184-0.95-0.478-1.308c-0.006-0.01-0.007-0.021-0.014-0.031
		c-0.013-0.017-0.031-0.026-0.045-0.041c-0.381-0.425-0.928-0.699-1.542-0.699H3.724c-0.444,0-0.854,0.143-1.193,0.382
		c-0.015,0.008-0.026,0.023-0.04,0.033c-0.51,0.379-0.846,0.981-0.846,1.664v23.445c0,1.146,0.933,2.078,2.078,2.078h27.73
		c0.276,0,0.5-0.224,0.5-0.5S31.73,35.46,31.454,35.46z M2.646,34.382V10.937c0-0.225,0.085-0.421,0.203-0.594l15.164,11.132
		L2.672,34.513C2.667,34.468,2.646,34.429,2.646,34.382z M40.82,9.92l-15.352,11.25c-3.424,2.204-6.217-0.015-6.355-0.126
		L3.879,9.859h36.639C40.626,9.859,40.723,9.891,40.82,9.92z"/>
	<path fill="#414042" d="M46.59,29.425l-0.02-0.146c-0.013-0.108-0.026-0.216-0.049-0.327c-0.204-0.966-0.689-1.773-1.443-2.398
		c-0.601-0.499-1.296-0.809-2.059-0.918l-0.872-0.047c-0.028,0-0.106,0.014-0.135,0.019l-0.194,0.029
		c-0.148,0.021-0.296,0.042-0.439,0.078c-1.799,0.444-3.08,1.99-3.188,3.847c-0.038,0.659,0.085,1.308,0.364,1.929
		c0.001,0.002,0,0.003,0.001,0.005c0.014,0.036,0.24,0.591,0.802,1.18l-2.499,2.497c0,0-0.001,0-0.002,0.001
		s-0.001,0.002-0.001,0.002l-2.107,2.104c-0.001,0.002-0.003,0.002-0.004,0.003s-0.001,0.003-0.003,0.004l-1.2,1.199
		c-0.195,0.195-0.195,0.512,0,0.707c0.098,0.098,0.226,0.146,0.354,0.146s0.256-0.049,0.354-0.146l0.85-0.849l1.324,1.327
		c0.098,0.098,0.226,0.146,0.354,0.146s0.256-0.049,0.354-0.146c0.195-0.194,0.195-0.511,0-0.707l-1.324-1.327l1.406-1.403
		l1.119,1.116c0.098,0.097,0.226,0.146,0.354,0.146s0.257-0.049,0.354-0.146c0.194-0.196,0.194-0.513-0.001-0.708l-1.118-1.115
		l2.209-2.206c0.158,0.104,0.329,0.203,0.517,0.293c0.001,0,0.001,0,0.002,0.001c0.002,0,0.003,0.002,0.005,0.003
		c0.569,0.263,1.154,0.395,1.748,0.395c0.277,0,0.558-0.028,0.839-0.087c1.004-0.208,1.837-0.724,2.476-1.534
		c0.458-0.584,0.744-1.252,0.848-1.987l0.044-0.841C46.606,29.537,46.593,29.449,46.59,29.425z M45.572,30.264
		c-0.079,0.558-0.296,1.064-0.644,1.508c-0.488,0.62-1.125,1.015-1.892,1.174c-0.677,0.138-1.319,0.063-1.965-0.237l0,0
		c-1.165-0.564-1.581-1.568-1.585-1.578c-0.002-0.005-0.006-0.007-0.008-0.012s-0.001-0.009-0.003-0.014
		c-0.22-0.479-0.316-0.979-0.287-1.484c0.082-1.417,1.059-2.596,2.431-2.935c0.11-0.028,0.223-0.043,0.336-0.059l0.627-0.042
		l0.286,0.04c0.594,0.085,1.106,0.313,1.57,0.698c0.584,0.484,0.945,1.085,1.103,1.831c0.017,0.081,0.026,0.163,0.036,0.246
		l0.033,0.566L45.572,30.264z"/>
</g>
</svg>
