<?xml version="1.0" encoding="utf-8"?>
<!-- Generator: Adobe Illustrator 16.0.0, SVG Export Plug-In . SVG Version: 6.00 Build 0)  -->
<!DOCTYPE svg PUBLIC "-//W3C//DTD SVG 1.1//EN" "http://www.w3.org/Graphics/SVG/1.1/DTD/svg11.dtd">
<svg version="1.1" id="Layer_1" xmlns="http://www.w3.org/2000/svg" xmlns:xlink="http://www.w3.org/1999/xlink" x="0px" y="0px"
	 width="48px" height="48px" viewBox="0 0 48 48" enable-background="new 0 0 48 48" xml:space="preserve">
<g>
	<path fill="#414042" d="M30.768,7.28c-0.258-0.093-0.547,0.039-0.642,0.298c-0.095,0.26,0.038,0.547,0.298,0.642
		c7.36,2.693,12.306,9.772,12.306,17.615c0,10.341-8.413,18.753-18.753,18.753c-10.341,0-18.755-8.412-18.755-18.753
		c0-8.26,5.295-15.458,13.177-17.911c0.264-0.082,0.411-0.362,0.329-0.626s-0.36-0.413-0.626-0.329
		C9.799,9.553,4.222,17.135,4.222,25.835c0,10.892,8.862,19.753,19.755,19.753c10.892,0,19.753-8.861,19.753-19.753
		C43.729,17.574,38.521,10.118,30.768,7.28z"/>
	<path fill="#414042" d="M23.977,18.513c0.276,0,0.5-0.224,0.5-0.5V1.919c0-0.276-0.224-0.5-0.5-0.5s-0.5,0.224-0.5,0.5v16.094
		C23.477,18.289,23.7,18.513,23.977,18.513z"/>
</g>
</svg>
