<?xml version="1.0" encoding="utf-8"?>
<!-- Generator: Adobe Illustrator 16.0.0, SVG Export Plug-In . SVG Version: 6.00 Build 0)  -->
<!DOCTYPE svg PUBLIC "-//W3C//DTD SVG 1.1//EN" "http://www.w3.org/Graphics/SVG/1.1/DTD/svg11.dtd">
<svg version="1.1" id="Layer_1" xmlns="http://www.w3.org/2000/svg" xmlns:xlink="http://www.w3.org/1999/xlink" x="0px" y="0px"
	 width="48px" height="48px" viewBox="0 0 48 48" enable-background="new 0 0 48 48" xml:space="preserve">
<path fill="#414042" d="M24.646,5.859c-8.297,0-15.596,5.529-17.863,13.478L5.052,9.141C5.005,8.869,4.746,8.686,4.475,8.73
	C4.204,8.777,4.02,9.035,4.066,9.309l1.898,11.184c0.022,0.131,0.096,0.246,0.204,0.324c0.085,0.059,0.187,0.092,0.289,0.092
	c0.028,0,0.056-0.002,0.084-0.008L17.724,19c0.272-0.047,0.455-0.305,0.409-0.578c-0.047-0.271-0.309-0.453-0.577-0.408L7.72,19.686
	c2.121-7.56,9.049-12.826,16.926-12.826c9.696,0,17.583,7.889,17.583,17.584c0,6.725-3.742,12.762-9.768,15.756
	c-0.246,0.123-0.348,0.424-0.225,0.67c0.088,0.176,0.264,0.277,0.447,0.277c0.076,0,0.152-0.016,0.223-0.051
	c6.367-3.164,10.322-9.545,10.322-16.652C43.229,14.195,34.893,5.859,24.646,5.859z"/>
</svg>
