<?xml version="1.0" encoding="utf-8"?>
<!-- Generator: Adobe Illustrator 16.0.0, SVG Export Plug-In . SVG Version: 6.00 Build 0)  -->
<!DOCTYPE svg PUBLIC "-//W3C//DTD SVG 1.1//EN" "http://www.w3.org/Graphics/SVG/1.1/DTD/svg11.dtd">
<svg version="1.1" id="Layer_1" xmlns="http://www.w3.org/2000/svg" xmlns:xlink="http://www.w3.org/1999/xlink" x="0px" y="0px"
	 width="48px" height="48px" viewBox="0 0 48 48" enable-background="new 0 0 48 48" xml:space="preserve">
<g>
	<path fill="#414042" d="M5.937,3.854c-0.276,0-0.5,0.223-0.5,0.5v38.301c0,0.275,0.224,0.5,0.5,0.5s0.5-0.225,0.5-0.5V4.354
		C6.437,4.076,6.213,3.854,5.937,3.854z"/>
	<path fill="#414042" d="M42.243,23.004H15.23l10.559-12.941c0.174-0.215,0.143-0.529-0.072-0.705
		c-0.214-0.174-0.529-0.143-0.703,0.072L13.79,23.188c-0.15,0.184-0.15,0.447,0,0.633l11.224,13.756
		c0.1,0.121,0.243,0.184,0.389,0.184c0.11,0,0.223-0.037,0.314-0.113c0.215-0.174,0.246-0.49,0.072-0.703L15.23,24.004h27.013
		c0.276,0,0.5-0.225,0.5-0.5C42.743,23.227,42.52,23.004,42.243,23.004z"/>
</g>
<g>
	<path fill="#414042" d="M42.467,3.854c-0.277,0-0.5,0.223-0.5,0.5v38.301c0,0.275,0.223,0.5,0.5,0.5c0.275,0,0.5-0.225,0.5-0.5
		V4.354C42.967,4.076,42.742,3.854,42.467,3.854z"/>
	<path fill="#414042" d="M23.389,9.43c-0.175-0.215-0.49-0.246-0.703-0.072c-0.214,0.176-0.246,0.49-0.071,0.705l10.559,12.941H6.16
		c-0.276,0-0.5,0.223-0.5,0.5c0,0.275,0.224,0.5,0.5,0.5h27.013L22.614,36.943c-0.175,0.213-0.143,0.529,0.071,0.703
		c0.093,0.076,0.205,0.113,0.315,0.113c0.145,0,0.289-0.063,0.388-0.184L34.613,23.82c0.15-0.186,0.15-0.449,0-0.633L23.389,9.43z"
		/>
</g>
<g>
	<path fill="#414042" d="M44.145,33.609c-0.277,0-0.5,0.223-0.5,0.5v7.361H3.42c0.001-0.014,0.008-0.026,0.008-0.041v-7.32
		c0-0.277-0.225-0.5-0.5-0.5c-0.277,0-0.5,0.223-0.5,0.5v7.32c0,0.102,0.038,0.191,0.09,0.27c-0.052,0.08-0.09,0.169-0.09,0.271
		c0,0.275,0.223,0.5,0.5,0.5h41.217c0.275,0,0.5-0.225,0.5-0.5v-7.861C44.645,33.832,44.42,33.609,44.145,33.609z"/>
	<path fill="#414042" d="M23.219,33.49c0.092,0.076,0.203,0.113,0.316,0.113c0.111,0,0.223-0.037,0.316-0.113l13.758-11.225
		c0.213-0.174,0.244-0.49,0.07-0.703c-0.176-0.215-0.49-0.244-0.703-0.072L24.035,32.049V5.037c0-0.277-0.225-0.5-0.5-0.5
		c-0.277,0-0.5,0.223-0.5,0.5v27.012L10.094,21.49c-0.215-0.174-0.527-0.143-0.703,0.072c-0.174,0.213-0.143,0.529,0.072,0.703
		L23.219,33.49z"/>
</g>
<g>
	<path fill="#414042" d="M44.367,33.609c-0.276,0-0.5,0.223-0.5,0.5v7.361H3.643c0.001-0.014,0.008-0.026,0.008-0.041v-7.32
		c0-0.277-0.224-0.5-0.5-0.5s-0.5,0.223-0.5,0.5v7.32c0,0.102,0.038,0.191,0.09,0.27c-0.052,0.08-0.09,0.169-0.09,0.271
		c0,0.275,0.224,0.5,0.5,0.5h41.217c0.276,0,0.5-0.225,0.5-0.5v-7.861C44.867,33.832,44.644,33.609,44.367,33.609z"/>
	<path fill="#414042" d="M10.002,16.762c0.111,0,0.224-0.037,0.316-0.113L23.258,6.09v27.014c0,0.275,0.224,0.5,0.5,0.5
		s0.5-0.225,0.5-0.5V6.09l12.941,10.559c0.213,0.174,0.53,0.145,0.704-0.07s0.143-0.529-0.071-0.705L24.074,4.648
		c-0.186-0.15-0.447-0.15-0.633,0L9.686,15.873c-0.214,0.176-0.245,0.49-0.071,0.705C9.714,16.699,9.857,16.762,10.002,16.762z"/>
</g>
<path fill="#414042" d="M43.958,23.004H5.059L20.371,4.236c0.174-0.214,0.143-0.529-0.071-0.704
	c-0.214-0.173-0.527-0.143-0.704,0.071L3.617,23.188c-0.149,0.185-0.149,0.448,0,0.633l15.979,19.583
	c0.1,0.121,0.243,0.184,0.388,0.184c0.111,0,0.224-0.037,0.316-0.112c0.214-0.175,0.245-0.49,0.071-0.704L5.059,24.004h38.899
	c0.276,0,0.5-0.224,0.5-0.5S44.234,23.004,43.958,23.004z"/>
<path fill="#414042" d="M43.804,22.962L27.825,3.378c-0.175-0.214-0.488-0.245-0.703-0.071c-0.214,0.175-0.246,0.49-0.07,0.704
	l15.312,18.768H3.464c-0.276,0-0.5,0.224-0.5,0.5s0.224,0.5,0.5,0.5h38.899L27.052,42.545c-0.176,0.214-0.144,0.529,0.07,0.704
	c0.094,0.075,0.205,0.112,0.316,0.112c0.145,0,0.289-0.063,0.387-0.184l15.979-19.583C43.954,23.41,43.954,23.146,43.804,22.962z"/>
<polygon fill="#414042" points="44.291,23.278 23.032,4.653 23.032,13.716 3.803,13.716 3.803,32.944 23.032,32.944 23.032,41.903 
	"/>
<polygon fill="#414042" points="24.67,13.612 24.67,4.653 3.41,23.278 24.67,41.903 24.67,32.841 43.898,32.841 43.898,13.612 "/>
<path fill="#414042" d="M33.438,22.962L15.86,1.417c-0.177-0.214-0.49-0.244-0.704-0.071c-0.214,0.175-0.245,0.49-0.071,0.704
	l17.32,21.229l-17.32,21.228c-0.174,0.214-0.143,0.529,0.071,0.704c0.093,0.075,0.205,0.112,0.316,0.112
	c0.145,0,0.289-0.063,0.388-0.184l17.578-21.544C33.588,23.41,33.588,23.146,33.438,22.962z"/>
<path fill="#414042" d="M15.725,23.278L33.045,2.05c0.174-0.214,0.143-0.529-0.07-0.704c-0.213-0.173-0.529-0.143-0.705,0.071
	L14.692,22.962c-0.149,0.185-0.149,0.448,0,0.633L32.27,45.139c0.1,0.121,0.244,0.184,0.389,0.184c0.111,0,0.223-0.037,0.316-0.112
	c0.213-0.175,0.244-0.49,0.07-0.704L15.725,23.278z"/>
<path fill="#414042" d="M45.336,31.68L23.791,14.102c-0.184-0.15-0.448-0.15-0.632,0L1.615,31.68
	c-0.214,0.175-0.246,0.49-0.071,0.704c0.174,0.214,0.489,0.244,0.703,0.071l21.228-17.32l21.229,17.32
	c0.093,0.075,0.204,0.112,0.315,0.112c0.145,0,0.289-0.063,0.388-0.184C45.582,32.17,45.551,31.854,45.336,31.68z"/>
<path fill="#414042" d="M46.015,14.173c-0.175-0.214-0.489-0.245-0.703-0.071l-21.229,17.32L2.854,14.102
	c-0.215-0.174-0.529-0.143-0.703,0.071c-0.175,0.214-0.143,0.529,0.071,0.704l21.544,17.578c0.092,0.075,0.204,0.112,0.316,0.112
	s0.224-0.037,0.316-0.112l21.545-17.578C46.158,14.702,46.189,14.387,46.015,14.173z"/>
<g>
	<path fill="#414042" d="M3.699,16.657h26.367c0.276,0,0.5-0.224,0.5-0.5s-0.224-0.5-0.5-0.5H3.699l7.266-6.027
		c0.212-0.176,0.241-0.491,0.065-0.704c-0.176-0.212-0.492-0.242-0.704-0.065l-8.332,6.912c-0.114,0.095-0.181,0.236-0.181,0.385
		s0.066,0.29,0.181,0.385l8.332,6.912c0.093,0.077,0.206,0.115,0.319,0.115c0.144,0,0.286-0.062,0.385-0.181
		c0.176-0.213,0.146-0.528-0.065-0.704L3.699,16.657z"/>
	<path fill="#414042" d="M45.386,30.015l-8.332-6.912c-0.214-0.175-0.528-0.146-0.704,0.065c-0.177,0.213-0.147,0.528,0.065,0.704
		l7.266,6.027H17.313c-0.276,0-0.5,0.224-0.5,0.5s0.224,0.5,0.5,0.5h26.367l-7.266,6.027c-0.213,0.176-0.242,0.491-0.065,0.704
		c0.099,0.119,0.241,0.181,0.385,0.181c0.112,0,0.226-0.038,0.319-0.115l8.332-6.912c0.114-0.095,0.181-0.236,0.181-0.385
		S45.5,30.109,45.386,30.015z"/>
</g>
<path fill="#414042" d="M31.157,12.33H5.142l6.549-5.732c0.207-0.182,0.229-0.497,0.047-0.705c-0.182-0.209-0.5-0.229-0.705-0.047
	l-7.676,6.719c-0.109,0.095-0.172,0.231-0.172,0.376s0.063,0.281,0.172,0.376l7.676,6.719c0.094,0.083,0.211,0.124,0.328,0.124
	c0.139,0,0.277-0.058,0.377-0.171c0.182-0.208,0.16-0.523-0.047-0.705L4.89,13.33h26.268c7.307,0,13.252,5.945,13.252,13.253
	s-5.945,13.252-13.252,13.252H3.925c-0.277,0-0.5,0.224-0.5,0.5s0.223,0.5,0.5,0.5h27.232c7.859,0,14.252-6.394,14.252-14.252
	C45.409,18.724,39.017,12.33,31.157,12.33z"/>
<path fill="#414042" d="M38.634,26.658c-0.214-0.176-0.528-0.146-0.704,0.065c-0.177,0.213-0.147,0.528,0.065,0.704l5.417,4.494
	h-9.369c-0.008,0-0.016,0-0.024,0c-4.849,0-9.084-7.199-9.14-7.295c-0.221-0.337-0.447-0.696-0.686-1.073
	c-0.057-0.089-0.117-0.184-0.175-0.275c0.058-0.091,0.118-0.186,0.175-0.275c0.238-0.377,0.465-0.736,0.699-1.096
	c0.042-0.073,4.271-7.272,9.129-7.272c0.008,0,0.017,0,0.024,0h9.366l-5.417,4.494c-0.213,0.176-0.242,0.491-0.065,0.704
	c0.099,0.119,0.241,0.181,0.385,0.181c0.112,0,0.226-0.038,0.319-0.115l6.484-5.379c0.114-0.095,0.181-0.235,0.181-0.384
	s-0.065-0.289-0.179-0.384l-6.484-5.432c-0.212-0.18-0.527-0.151-0.704,0.062c-0.178,0.212-0.15,0.527,0.062,0.704l5.43,4.549
	h-9.374c-0.011,0-0.021,0-0.03,0c-5.424,0-9.807,7.453-9.978,7.748c-0.197,0.303-0.404,0.63-0.617,0.967
	c-1.165-1.792-2.605-3.796-4.64-5.518c-0.134-0.132-3.307-3.224-6.992-3.224H3.01c-0.276,0-0.5,0.224-0.5,0.5s0.224,0.5,0.5,0.5
	h8.782c3.271,0,6.26,2.906,6.317,2.961c2.097,1.775,3.554,3.88,4.725,5.708c-1.172,1.83-2.631,3.936-4.752,5.734
	c-0.03,0.029-3.02,2.936-6.29,2.936H3.01c-0.276,0-0.5,0.224-0.5,0.5s0.224,0.5,0.5,0.5h8.782c3.686,0,6.858-3.092,6.964-3.197
	c2.057-1.742,3.502-3.751,4.667-5.544c0.214,0.337,0.419,0.661,0.604,0.944c0.185,0.317,4.566,7.771,9.988,7.771
	c0.011,0,0.021,0,0.03,0h9.377l-5.43,4.549c-0.212,0.177-0.239,0.492-0.062,0.704c0.099,0.118,0.24,0.179,0.383,0.179
	c0.113,0,0.228-0.038,0.321-0.117l6.484-5.432c0.113-0.095,0.179-0.235,0.179-0.384s-0.066-0.289-0.181-0.384L38.634,26.658z"/>
<g>
	<circle fill="#414042" cx="32.485" cy="8.488" r="1.794"/>
	<circle fill="#414042" cx="36.641" cy="13.231" r="1.794"/>
	<circle fill="#414042" cx="41.102" cy="18.028" r="1.794"/>
	<circle fill="#414042" cx="45.126" cy="24.052" r="1.794"/>
	<circle fill="#414042" cx="41.102" cy="30.166" r="1.794"/>
	<circle fill="#414042" cx="36.794" cy="34.63" r="1.794"/>
	<circle fill="#414042" cx="32.485" cy="38.464" r="1.794"/>
	<circle fill="#414042" cx="39.126" cy="24.052" r="1.794"/>
	<circle fill="#414042" cx="33.191" cy="24.052" r="1.794"/>
	<circle fill="#414042" cx="27.225" cy="24.052" r="1.794"/>
	<circle fill="#414042" cx="21.256" cy="24.052" r="1.794"/>
	<circle fill="#414042" cx="15.289" cy="24.052" r="1.794"/>
	<circle fill="#414042" cx="9.322" cy="24.052" r="1.794"/>
	<circle fill="#414042" cx="3.354" cy="24.052" r="1.794"/>
</g>
<g>
	<circle fill="#414042" cx="15.718" cy="8.488" r="1.794"/>
	<circle fill="#414042" cx="11.563" cy="13.231" r="1.794"/>
	<circle fill="#414042" cx="7.102" cy="18.028" r="1.794"/>
	<circle fill="#414042" cx="3.077" cy="24.052" r="1.794"/>
	<circle fill="#414042" cx="7.102" cy="30.166" r="1.794"/>
	<circle fill="#414042" cx="11.409" cy="34.63" r="1.794"/>
	<circle fill="#414042" cx="15.718" cy="38.464" r="1.794"/>
	<circle fill="#414042" cx="9.077" cy="24.052" r="1.794"/>
	<circle fill="#414042" cx="15.012" cy="24.052" r="1.794"/>
	<circle fill="#414042" cx="20.979" cy="24.052" r="1.794"/>
	<circle fill="#414042" cx="26.947" cy="24.052" r="1.794"/>
	<circle fill="#414042" cx="32.914" cy="24.052" r="1.794"/>
	<circle fill="#414042" cx="38.881" cy="24.052" r="1.794"/>
	<circle fill="#414042" cx="44.849" cy="24.052" r="1.794"/>
</g>
<g>
	<circle fill="#414042" cx="19.536" cy="7.894" r="1.794"/>
	<circle fill="#414042" cx="23.846" cy="12.637" r="1.794"/>
	<circle fill="#414042" cx="28.153" cy="17.059" r="1.794"/>
	<circle fill="#414042" cx="32.177" cy="23.083" r="1.794"/>
	<circle fill="#414042" cx="28.153" cy="29.197" r="1.794"/>
	<circle fill="#414042" cx="23.845" cy="33.662" r="1.794"/>
	<circle fill="#414042" cx="19.678" cy="38.211" r="1.794"/>
	<circle fill="#414042" cx="15.194" cy="43.147" r="1.794"/>
	<circle fill="#414042" cx="15.194" cy="3.805" r="1.794"/>
</g>
<g>
	<circle fill="#414042" cx="27.559" cy="7.894" r="1.794"/>
	<circle fill="#414042" cx="23.249" cy="12.637" r="1.794"/>
	<circle fill="#414042" cx="18.941" cy="17.059" r="1.794"/>
	<circle fill="#414042" cx="14.918" cy="23.083" r="1.794"/>
	<circle fill="#414042" cx="18.941" cy="29.197" r="1.794"/>
	<circle fill="#414042" cx="23.25" cy="33.662" r="1.794"/>
	<circle fill="#414042" cx="27.417" cy="38.211" r="1.794"/>
	<circle fill="#414042" cx="31.9" cy="43.147" r="1.794"/>
	<circle fill="#414042" cx="31.9" cy="3.805" r="1.794"/>
</g>
<g>
	<path fill="#414042" d="M39.715,25.831c-0.99,0-1.795,0.805-1.795,1.795c0,0.989,0.805,1.794,1.795,1.794
		c0.988,0,1.793-0.805,1.793-1.794C41.508,26.636,40.703,25.831,39.715,25.831z"/>
	<circle fill="#414042" cx="34.971" cy="23.317" r="1.794"/>
	<circle fill="#414042" cx="30.549" cy="19.009" r="1.794"/>
	<circle fill="#414042" cx="24.525" cy="14.985" r="1.794"/>
	<circle fill="#414042" cx="18.412" cy="19.009" r="1.794"/>
	<circle fill="#414042" cx="13.947" cy="23.317" r="1.794"/>
	<circle fill="#414042" cx="9.397" cy="27.484" r="1.795"/>
	<circle fill="#414042" cx="4.461" cy="31.967" r="1.794"/>
	<circle fill="#414042" cx="43.803" cy="31.967" r="1.794"/>
</g>
<g>
	<circle fill="#414042" cx="8.272" cy="19.327" r="1.794"/>
	<circle fill="#414042" cx="13.015" cy="23.635" r="1.794"/>
	<circle fill="#414042" cx="17.437" cy="27.943" r="1.794"/>
	<circle fill="#414042" cx="23.461" cy="31.967" r="1.794"/>
	<circle fill="#414042" cx="29.574" cy="27.943" r="1.794"/>
	<circle fill="#414042" cx="34.039" cy="23.635" r="1.794"/>
	<circle fill="#414042" cx="38.59" cy="19.468" r="1.795"/>
	<circle fill="#414042" cx="43.525" cy="14.985" r="1.794"/>
	<circle fill="#414042" cx="4.183" cy="14.985" r="1.794"/>
</g>
<path fill="#414042" d="M44.667,24.463L24.023,11.362c-0.154-0.098-0.35-0.104-0.509-0.017c-0.16,0.088-0.259,0.256-0.259,0.438
	v12.417L3.023,11.362c-0.154-0.098-0.349-0.104-0.509-0.017c-0.16,0.088-0.259,0.256-0.259,0.438v23.383
	c0,0.173,0.089,0.334,0.237,0.425c0.081,0.05,0.172,0.075,0.263,0.075c0.076,0,0.152-0.018,0.223-0.053l20.277-10.1v9.652
	c0,0.173,0.089,0.334,0.237,0.425c0.081,0.05,0.172,0.075,0.263,0.075c0.076,0,0.152-0.018,0.223-0.053l20.644-10.282
	c0.161-0.08,0.267-0.241,0.276-0.422C44.908,24.73,44.819,24.56,44.667,24.463z"/>
<path fill="#414042" d="M45.578,11.104c-0.159-0.087-0.355-0.082-0.509,0.017L24.837,23.959V11.543c0-0.183-0.1-0.351-0.259-0.438
	c-0.159-0.087-0.354-0.082-0.509,0.017L2.997,24.492c-0.152,0.097-0.241,0.268-0.232,0.447c0.01,0.181,0.115,0.342,0.277,0.422
	l21.072,10.494c0.07,0.035,0.146,0.053,0.223,0.053c0.092,0,0.183-0.025,0.264-0.075c0.146-0.091,0.236-0.252,0.236-0.425v-9.65
	l20.277,10.098c0.07,0.035,0.146,0.053,0.223,0.053c0.092,0,0.183-0.025,0.264-0.075c0.146-0.091,0.236-0.252,0.236-0.425V11.543
	C45.837,11.36,45.737,11.192,45.578,11.104z"/>
<g>
	<path fill="#414042" d="M15.157,10.548H7.443c-0.276,0-0.5,0.224-0.5,0.5v24.856c0,0.276,0.224,0.5,0.5,0.5h7.714
		c0.276,0,0.5-0.224,0.5-0.5V11.048C15.657,10.771,15.434,10.548,15.157,10.548z"/>
	<path fill="#414042" d="M40.29,10.609c-0.159-0.087-0.355-0.082-0.509,0.017L17.837,24.553c-0.152,0.097-0.241,0.268-0.231,0.447
		c0.009,0.181,0.114,0.342,0.276,0.422l21.944,10.93c0.07,0.035,0.146,0.053,0.223,0.053c0.092,0,0.183-0.025,0.264-0.075
		c0.146-0.091,0.236-0.252,0.236-0.425V11.048C40.549,10.865,40.449,10.697,40.29,10.609z"/>
</g>
<path fill="#414042" d="M36.821,10.178H11.226c-0.276,0-0.5,0.224-0.5,0.5v25.596c0,0.276,0.224,0.5,0.5,0.5h25.596
	c0.276,0,0.5-0.224,0.5-0.5V10.678C37.321,10.401,37.098,10.178,36.821,10.178z"/>
<g>
	<path fill="#414042" d="M40.684,10.872h-7.715c-0.275,0-0.5,0.224-0.5,0.5v24.856c0,0.276,0.225,0.5,0.5,0.5h7.715
		c0.275,0,0.5-0.224,0.5-0.5V11.372C41.184,11.096,40.959,10.872,40.684,10.872z"/>
	<path fill="#414042" d="M8.346,10.95c-0.154-0.098-0.35-0.104-0.509-0.017c-0.16,0.088-0.259,0.256-0.259,0.438v24.856
		c0,0.173,0.089,0.334,0.237,0.425c0.081,0.05,0.172,0.075,0.263,0.075c0.076,0,0.152-0.018,0.223-0.053l21.944-10.93
		c0.161-0.08,0.267-0.241,0.276-0.422c0.01-0.18-0.079-0.351-0.231-0.447L8.346,10.95z"/>
</g>
<path fill="#414042" d="M36.549,25.016l-23.98-15.22c-0.154-0.098-0.349-0.104-0.509-0.017c-0.16,0.088-0.259,0.256-0.259,0.438
	v27.164c0,0.173,0.089,0.334,0.237,0.425c0.081,0.05,0.172,0.075,0.263,0.075c0.076,0,0.152-0.018,0.223-0.053l23.98-11.944
	c0.162-0.08,0.268-0.241,0.277-0.422C36.79,25.283,36.701,25.112,36.549,25.016z"/>
<g>
	<path fill="#414042" d="M21.814,10.49h-7.95c-0.276,0-0.5,0.224-0.5,0.5v25.619c0,0.276,0.224,0.5,0.5,0.5h7.95
		c0.276,0,0.5-0.224,0.5-0.5V10.99C22.314,10.714,22.091,10.49,21.814,10.49z"/>
	<path fill="#414042" d="M34.54,10.49h-7.952c-0.276,0-0.5,0.224-0.5,0.5v25.619c0,0.276,0.224,0.5,0.5,0.5h7.952
		c0.276,0,0.5-0.224,0.5-0.5V10.99C35.04,10.714,34.816,10.49,34.54,10.49z"/>
</g>
<g>
	<path fill="#414042" d="M23.362,11.442c-0.003-0.028-0.011-0.055-0.015-0.082c-0.007-0.045-0.016-0.089-0.026-0.133
		c-0.006-0.023-0.009-0.047-0.016-0.07c-0.008-0.025-0.021-0.05-0.029-0.075c-0.018-0.047-0.035-0.092-0.057-0.136
		c-0.021-0.043-0.044-0.085-0.068-0.126s-0.051-0.08-0.079-0.117c-0.016-0.022-0.028-0.045-0.046-0.066
		c-0.016-0.02-0.034-0.034-0.051-0.053c-0.031-0.033-0.063-0.066-0.098-0.097c-0.021-0.019-0.038-0.04-0.06-0.058
		c-0.019-0.016-0.04-0.026-0.06-0.041c-0.039-0.028-0.079-0.055-0.12-0.078c-0.019-0.012-0.034-0.025-0.053-0.035
		c-0.005-0.003-0.009-0.007-0.014-0.01h-0.001l-6.753-3.57c-0.733-0.387-1.64-0.107-2.027,0.625
		c-0.387,0.733-0.107,1.641,0.625,2.027l1.407,0.744H6.81c-3.371,0-6.113,2.744-6.113,6.115v15.5c0,3.371,2.742,6.113,6.113,6.113
		h14.131c0.828,0,1.5-0.671,1.5-1.5c0-0.828-0.672-1.5-1.5-1.5H6.81c-1.717,0-3.113-1.396-3.113-3.113v-15.5
		c0-1.717,1.396-3.115,3.113-3.115h9.075l-1.397,0.748c-0.73,0.391-1.007,1.3-0.615,2.03c0.27,0.505,0.788,0.793,1.323,0.793
		c0.239,0,0.481-0.058,0.706-0.178l6.676-3.57c0.011-0.006,0.019-0.014,0.029-0.021c0.019-0.01,0.036-0.021,0.055-0.033
		c0.038-0.023,0.074-0.049,0.109-0.076c0.037-0.028,0.072-0.057,0.106-0.088c0.021-0.02,0.044-0.035,0.063-0.057
		c0.014-0.013,0.023-0.029,0.036-0.043c0.002-0.002,0.003-0.004,0.005-0.006c0.032-0.035,0.063-0.071,0.091-0.11
		c0.029-0.04,0.056-0.081,0.081-0.123c0.013-0.021,0.029-0.04,0.041-0.063c0.001-0.001,0.002-0.001,0.002-0.003
		c0.006-0.011,0.009-0.022,0.014-0.034c0.004-0.007,0.006-0.015,0.01-0.022c0.021-0.045,0.04-0.092,0.057-0.139
		c0.01-0.025,0.022-0.051,0.03-0.076c0.007-0.023,0.009-0.046,0.015-0.068c0.011-0.043,0.019-0.087,0.025-0.131
		c0.005-0.029,0.013-0.059,0.016-0.088c0.003-0.027,0.001-0.055,0.002-0.082c0.001-0.02,0.006-0.039,0.006-0.061
		s-0.006-0.041-0.006-0.063C23.363,11.5,23.365,11.471,23.362,11.442z"/>
	<path fill="#414042" d="M41.416,10.092h-14.42c-0.828,0-1.5,0.672-1.5,1.5c0,0.829,0.672,1.5,1.5,1.5h14.42
		c1.717,0,3.113,1.398,3.113,3.115v15.5c0,1.717-1.396,3.113-3.113,3.113h-9.973l1.809-1.081c0.711-0.425,0.943-1.347,0.518-2.058
		s-1.348-0.941-2.057-0.518l-6.465,3.865c-0.016,0.01-0.027,0.021-0.041,0.029c-0.037,0.023-0.072,0.051-0.107,0.078
		c-0.033,0.025-0.066,0.047-0.098,0.074c-0.01,0.01-0.017,0.02-0.027,0.029c-0.032,0.03-0.06,0.064-0.089,0.098
		c-0.026,0.031-0.057,0.059-0.081,0.092c-0.007,0.01-0.013,0.021-0.02,0.031c-0.028,0.039-0.05,0.082-0.074,0.124
		c-0.023,0.042-0.048,0.081-0.067,0.124c-0.02,0.045-0.034,0.092-0.05,0.139c-0.013,0.038-0.029,0.074-0.038,0.113
		c-0.003,0.012-0.004,0.021-0.007,0.033c-0.009,0.041-0.012,0.084-0.018,0.125c-0.006,0.044-0.016,0.086-0.018,0.131
		c-0.001,0.014,0,0.029,0,0.043c0,0.01-0.003,0.019-0.003,0.027c0,0.032,0.008,0.063,0.01,0.093
		c0.002,0.043,0.001,0.085,0.008,0.128c0.002,0.016,0.007,0.03,0.01,0.046c0.008,0.046,0.021,0.089,0.033,0.132
		c0.01,0.035,0.015,0.07,0.027,0.104c0.005,0.015,0.012,0.026,0.018,0.041c0.018,0.046,0.041,0.09,0.063,0.134
		c0.021,0.043,0.042,0.085,0.067,0.125c0.025,0.041,0.056,0.078,0.085,0.115c0.03,0.039,0.06,0.078,0.094,0.113
		c0.013,0.014,0.023,0.027,0.036,0.04c0.018,0.017,0.037,0.029,0.055,0.045c0.006,0.005,0.012,0.009,0.018,0.015
		c0.035,0.03,0.068,0.062,0.107,0.09c0.033,0.021,0.066,0.041,0.1,0.061c0.027,0.018,0.055,0.033,0.082,0.047
		c0.018,0.01,0.031,0.021,0.049,0.029l6.932,3.258c0.207,0.098,0.424,0.144,0.637,0.144c0.564,0,1.104-0.319,1.359-0.862
		c0.352-0.75,0.029-1.644-0.721-1.996l-0.852-0.4h8.688c3.371,0,6.113-2.742,6.113-6.113v-15.5
		C47.529,12.836,44.787,10.092,41.416,10.092z"/>
</g>
<g>
	<path fill="#414042" d="M46.619,35.537l-2.975-7.183c-0.178-0.432-0.535-0.763-0.979-0.908c-0.445-0.146-0.932-0.089-1.328,0.154
		l-7.088,4.316c-0.754,0.459-0.992,1.442-0.533,2.196s1.443,0.992,2.195,0.533l2.971-1.81c-0.398,0.671-0.82,1.282-1.164,1.724
		c-3.445,4.356-8.619,6.855-14.195,6.855c-8.008,0-15.14-5.33-17.342-12.969c-0.004-0.014-0.114-0.373-0.146-0.576
		c-0.082-0.865-0.854-1.5-1.713-1.441c-0.88,0.067-1.538,0.835-1.472,1.715c0.026,0.342,0.158,0.844,0.263,1.195
		c2.594,8.992,10.986,15.271,20.41,15.271c6.558,0,12.646-2.94,16.705-8.072c0.184-0.232,1.191-1.549,2.023-3.197l1.414,3.417
		c0.256,0.616,0.852,0.987,1.479,0.987c0.201,0,0.41-0.039,0.609-0.122C46.57,37.287,46.957,36.352,46.619,35.537z"/>
	<path fill="#414042" d="M3.473,18.605c0.021,0.066,0.048,0.129,0.077,0.189c0.019,0.041,0.037,0.08,0.059,0.118
		c0.035,0.059,0.074,0.113,0.115,0.167c0.027,0.033,0.05,0.068,0.078,0.1c0.052,0.059,0.112,0.11,0.174,0.161
		c0.022,0.019,0.042,0.041,0.067,0.06c0.089,0.065,0.186,0.122,0.289,0.168c0.001,0.001,0.002,0.002,0.003,0.002
		c0.015,0.008,0.03,0.01,0.046,0.016C4.464,19.621,4.55,19.65,4.64,19.67c0.043,0.01,0.087,0.012,0.129,0.018
		c0.057,0.007,0.112,0.021,0.171,0.021c0.01,0.001,0.018-0.001,0.026-0.001c0.007,0,0.014,0.002,0.021,0.002
		c0.021,0,0.043-0.007,0.066-0.008c0.094-0.003,0.187-0.013,0.275-0.031c0.017-0.003,0.033-0.009,0.051-0.014
		c0.098-0.024,0.192-0.059,0.284-0.101c0.009-0.005,0.018-0.006,0.026-0.01l7.918-3.885c0.794-0.389,1.122-1.346,0.732-2.139
		c-0.388-0.791-1.345-1.119-2.139-0.73l-4.408,2.162c0.43-0.744,0.896-1.434,1.274-1.915c3.445-4.356,8.619-6.855,14.192-6.855
		c8.009,0,15.14,5.329,17.341,12.969c0.006,0.013,0.117,0.377,0.148,0.581c0.082,0.822,0.775,1.441,1.59,1.441
		c0.043,0,0.086-0.002,0.129-0.005c0.881-0.071,1.537-0.842,1.465-1.722c-0.027-0.339-0.158-0.838-0.262-1.189
		C41.078,9.269,32.686,2.988,23.26,2.988c-6.557,0-12.644,2.941-16.703,8.073c-0.134,0.171-0.715,0.929-1.344,1.97l-0.771-2.73
		C4.204,9.451,3.32,8.958,2.471,9.196c-0.85,0.239-1.345,1.122-1.104,1.972l2.082,7.377C3.456,18.566,3.467,18.586,3.473,18.605z"/>
</g>
<path fill="#414042" d="M45.172,23.423l-3.305-2.52c-0.151-0.116-0.355-0.133-0.525-0.051c-0.17,0.085-0.278,0.258-0.278,0.448v2.02
	L24.94,23.31l0.052-17.116h2.021c0.19,0,0.364-0.107,0.448-0.278c0.084-0.17,0.064-0.374-0.051-0.525l-2.522-3.307
	c-0.19-0.249-0.607-0.247-0.795,0.001l-2.52,3.307c-0.115,0.151-0.135,0.354-0.051,0.524c0.084,0.171,0.258,0.278,0.448,0.278h2.021
	L23.94,23.309L6.806,23.297v-2.02c0-0.19-0.108-0.363-0.278-0.448c-0.169-0.082-0.373-0.063-0.525,0.051l-3.306,2.52
	C2.573,23.494,2.5,23.641,2.5,23.797s0.073,0.303,0.197,0.397l3.306,2.52c0.089,0.068,0.196,0.103,0.303,0.103
	c0.076,0,0.151-0.018,0.222-0.052c0.17-0.085,0.278-0.258,0.278-0.448v-2.02l17.131,0.012l-0.052,17.09h-1.915
	c-0.19,0-0.364,0.107-0.448,0.278c-0.084,0.17-0.064,0.374,0.051,0.524l2.52,3.305c0.094,0.124,0.241,0.197,0.397,0.197
	c0.156,0,0.303-0.072,0.397-0.196l2.522-3.305c0.115-0.151,0.135-0.355,0.051-0.525c-0.084-0.171-0.258-0.278-0.448-0.278h-2.127
	l0.052-17.089l16.126,0.011v2.02c0,0.19,0.108,0.363,0.278,0.448c0.07,0.034,0.146,0.052,0.222,0.052
	c0.107,0,0.214-0.035,0.304-0.103l3.305-2.52c0.125-0.095,0.197-0.241,0.197-0.397S45.297,23.518,45.172,23.423z"/>
<path fill="#414042" d="M44.885,5.115c-0.009-0.031-0.017-0.063-0.031-0.092c-0.018-0.035-0.041-0.064-0.064-0.095
	c-0.016-0.018-0.027-0.035-0.044-0.05c-0.038-0.036-0.082-0.063-0.13-0.084c-0.008-0.004-0.012-0.011-0.02-0.014
	c-0.004-0.001-0.008-0.001-0.01-0.002c-0.042-0.016-0.085-0.021-0.131-0.024c-0.029-0.003-0.059-0.006-0.088-0.003
	c-0.008,0.001-0.015-0.002-0.022-0.001L5.252,9.974C5.053,10,4.888,10.144,4.836,10.338c-0.053,0.194,0.016,0.401,0.175,0.525
	l13.337,10.393L2.959,34.437c-0.209,0.18-0.234,0.495-0.055,0.705l4.071,4.76c0.099,0.115,0.239,0.175,0.38,0.175
	c0.113,0,0.227-0.038,0.32-0.116l15.099-12.619l6.475,15.204c0.078,0.185,0.26,0.304,0.46,0.304c0.002,0,0.005,0,0.007,0
	c0.202-0.003,0.383-0.127,0.458-0.315L44.876,5.431c0.003-0.009,0.002-0.019,0.005-0.027c0.011-0.031,0.014-0.063,0.018-0.097
	c0.004-0.034,0.01-0.066,0.006-0.1c0-0.01,0.004-0.018,0.002-0.027C44.904,5.156,44.891,5.138,44.885,5.115z"/>
<g>
	<path fill="#414042" d="M15.822,6.45H45.4c0.277,0,0.5-0.224,0.5-0.5s-0.223-0.5-0.5-0.5H15.822c-0.277,0-0.5,0.224-0.5,0.5
		S15.545,6.45,15.822,6.45z"/>
	<path fill="#414042" d="M45.4,23.299H15.822c-0.277,0-0.5,0.224-0.5,0.5s0.223,0.5,0.5,0.5H45.4c0.277,0,0.5-0.224,0.5-0.5
		S45.678,23.299,45.4,23.299z"/>
	<path fill="#414042" d="M45.4,41.15H15.822c-0.277,0-0.5,0.224-0.5,0.5s0.223,0.5,0.5,0.5H45.4c0.277,0,0.5-0.224,0.5-0.5
		S45.678,41.15,45.4,41.15z"/>
	<path fill="#414042" d="M3.715,3.847c-1.158,0-2.104,0.941-2.104,2.104c0,1.16,0.945,2.104,2.104,2.104
		c1.164,0,2.104-0.944,2.104-2.104C5.818,4.788,4.879,3.847,3.715,3.847z"/>
	<path fill="#414042" d="M3.715,21.696c-1.158,0-2.104,0.941-2.104,2.104c0,1.16,0.945,2.104,2.104,2.104
		c1.164,0,2.104-0.944,2.104-2.104C5.818,22.638,4.879,21.696,3.715,21.696z"/>
	<path fill="#414042" d="M3.715,39.546c-1.158,0-2.104,0.941-2.104,2.104c0,1.16,0.945,2.104,2.104,2.104
		c1.164,0,2.104-0.944,2.104-2.104C5.818,40.487,4.879,39.546,3.715,39.546z"/>
</g>
<g>
	<path fill="#414042" d="M16.878,8.845h27.001c0.276,0,0.5-0.224,0.5-0.5s-0.224-0.5-0.5-0.5H16.878c-0.276,0-0.5,0.224-0.5,0.5
		S16.602,8.845,16.878,8.845z"/>
	<path fill="#414042" d="M43.879,24.264H16.878c-0.276,0-0.5,0.224-0.5,0.5s0.224,0.5,0.5,0.5h27.001c0.276,0,0.5-0.224,0.5-0.5
		S44.155,24.264,43.879,24.264z"/>
	<path fill="#414042" d="M43.879,40.753H16.878c-0.276,0-0.5,0.224-0.5,0.5s0.224,0.5,0.5,0.5h27.001c0.276,0,0.5-0.224,0.5-0.5
		S44.155,40.753,43.879,40.753z"/>
	<path fill="#414042" d="M5.9,4.95v6.481h1.018V3.114H6.263C6.085,3.472,5.784,3.841,5.358,4.222S4.436,4.926,3.866,5.193v0.983
		C4.183,6.06,4.54,5.885,4.938,5.651S5.656,5.185,5.9,4.95z"/>
	<path fill="#414042" d="M8.432,26.873H4.369c0.113-0.185,0.257-0.368,0.43-0.551s0.565-0.53,1.176-1.043
		c0.73-0.617,1.253-1.104,1.567-1.457c0.314-0.354,0.54-0.691,0.676-1.012c0.135-0.32,0.203-0.646,0.203-0.978
		c0-0.652-0.231-1.198-0.695-1.639c-0.463-0.44-1.092-0.661-1.887-0.661c-0.788,0-1.415,0.204-1.882,0.613
		c-0.467,0.408-0.736,1.003-0.809,1.782l1.046,0.107c0.004-0.52,0.152-0.927,0.446-1.221s0.686-0.44,1.176-0.44
		c0.463,0,0.839,0.139,1.127,0.415c0.288,0.277,0.432,0.617,0.432,1.021c0,0.384-0.158,0.792-0.475,1.223
		c-0.316,0.432-0.925,1.017-1.824,1.755c-0.581,0.475-1.024,0.893-1.331,1.254c-0.308,0.362-0.53,0.729-0.67,1.103
		c-0.087,0.226-0.126,0.461-0.118,0.706h5.475V26.873z"/>
	<path fill="#414042" d="M6.969,39.854c0.377-0.174,0.661-0.407,0.854-0.701c0.191-0.294,0.288-0.619,0.288-0.978
		c0-0.376-0.102-0.732-0.303-1.067c-0.201-0.336-0.492-0.6-0.873-0.794c-0.38-0.194-0.797-0.291-1.249-0.291
		c-0.655,0-1.203,0.188-1.644,0.563c-0.441,0.374-0.724,0.902-0.848,1.585l1.017,0.181c0.075-0.497,0.245-0.87,0.509-1.119
		s0.594-0.373,0.989-0.373c0.398,0,0.725,0.123,0.978,0.367c0.252,0.245,0.378,0.554,0.378,0.927c0,0.471-0.173,0.819-0.52,1.046
		c-0.347,0.226-0.736,0.339-1.17,0.339c-0.041,0-0.096-0.004-0.164-0.012l-0.112,0.893c0.286-0.075,0.525-0.112,0.718-0.112
		c0.471,0,0.858,0.151,1.163,0.454c0.306,0.304,0.458,0.689,0.458,1.156c0,0.489-0.165,0.9-0.494,1.231
		c-0.33,0.332-0.733,0.497-1.212,0.497c-0.403,0-0.745-0.127-1.025-0.381c-0.281-0.255-0.479-0.67-0.597-1.246l-1.017,0.136
		c0.067,0.689,0.342,1.25,0.821,1.684c0.48,0.434,1.084,0.649,1.812,0.649c0.806,0,1.473-0.251,2-0.754s0.791-1.116,0.791-1.839
		c0-0.535-0.136-0.98-0.406-1.337C7.839,40.201,7.458,39.967,6.969,39.854z"/>
</g>
<path fill="#414042" d="M43.005,21.622c-0.018,0-0.035,0-0.054,0.001c-0.827,0.028-1.476,0.723-1.446,1.551
	c0.345,9.885-7.417,18.207-17.302,18.553c-4.788,0.157-9.354-1.54-12.858-4.808s-5.526-7.704-5.693-12.492
	C5.307,14.543,13.067,6.22,22.952,5.874c6.426-0.221,12.405,3.006,15.782,8.351l-7.122,0.25c-0.828,0.028-1.476,0.724-1.446,1.552
	c0.028,0.81,0.694,1.447,1.498,1.447c0.018,0,0.035-0.001,0.054-0.001l10.461-0.367c0.828-0.028,1.476-0.724,1.446-1.551
	L43.25,4.824c-0.028-0.828-0.692-1.464-1.552-1.447c-0.827,0.029-1.476,0.724-1.446,1.552l0.228,6.53
	c-4.039-5.54-10.586-8.834-17.633-8.583C11.31,3.279,2.251,12.994,2.653,24.531c0.195,5.589,2.556,10.768,6.646,14.582
	c3.907,3.643,8.945,5.624,14.26,5.624c0.249,0,0.499-0.004,0.75-0.013c11.537-0.403,20.597-10.118,20.194-21.655
	C44.475,22.26,43.81,21.622,43.005,21.622z"/>
<path fill="#414042" d="M45.352,0.945H1.781c-0.276,0-0.5,0.224-0.5,0.5v43.57c0,0.276,0.224,0.5,0.5,0.5h43.571
	c0.275,0,0.5-0.224,0.5-0.5V1.445C45.852,1.169,45.627,0.945,45.352,0.945z M15.341,38.008c-0.034,0.004-0.068,0.005-0.102,0.005
	c-0.507,0-0.942-0.384-0.994-0.899l-0.359-3.552L8.438,39.01c-0.195,0.195-0.451,0.293-0.707,0.293s-0.512-0.098-0.707-0.293
	c-0.391-0.391-0.391-1.023,0-1.414l5.449-5.449l-3.553-0.359c-0.55-0.056-0.95-0.546-0.895-1.096
	c0.055-0.55,0.545-0.948,1.096-0.895l5.649,0.572c0.061,0.006,0.113,0.031,0.17,0.048c0.044,0.013,0.087,0.018,0.13,0.036
	c0.229,0.101,0.41,0.282,0.511,0.511c0.018,0.042,0.024,0.086,0.036,0.13c0.017,0.057,0.042,0.109,0.048,0.17l0.571,5.648
	C16.291,37.462,15.891,37.952,15.341,38.008z M15.665,14.831c-0.006,0.061-0.031,0.113-0.048,0.17
	c-0.012,0.044-0.018,0.087-0.036,0.13c-0.101,0.229-0.282,0.41-0.511,0.511c-0.042,0.019-0.086,0.024-0.13,0.036
	c-0.057,0.017-0.109,0.042-0.17,0.048l-5.649,0.572c-0.034,0.003-0.068,0.005-0.102,0.005c-0.507,0-0.942-0.384-0.994-0.899
	c-0.056-0.549,0.345-1.04,0.895-1.096l3.553-0.36L7.024,8.499c-0.391-0.391-0.391-1.023,0-1.414s1.023-0.391,1.414,0l5.449,5.449
	l0.359-3.552c0.056-0.549,0.538-0.946,1.096-0.895c0.549,0.056,0.95,0.546,0.895,1.096L15.665,14.831z M40.357,39.01
	c-0.195,0.195-0.451,0.293-0.707,0.293s-0.512-0.098-0.707-0.293l-5.448-5.448l-0.358,3.552c-0.053,0.516-0.487,0.899-0.994,0.899
	c-0.033,0-0.068-0.001-0.102-0.005c-0.55-0.056-0.95-0.546-0.895-1.096l0.57-5.648c0.006-0.061,0.031-0.113,0.049-0.17
	c0.012-0.044,0.018-0.088,0.035-0.13c0.102-0.229,0.283-0.41,0.512-0.511c0.042-0.019,0.086-0.023,0.129-0.036
	c0.057-0.017,0.109-0.042,0.17-0.048l5.65-0.572c0.549-0.055,1.039,0.345,1.096,0.895c0.055,0.55-0.346,1.04-0.895,1.096
	l-3.554,0.359l5.448,5.449C40.748,37.986,40.748,38.619,40.357,39.01z M40.357,8.499l-5.448,5.449l3.554,0.36
	c0.549,0.056,0.949,0.546,0.895,1.096c-0.053,0.516-0.487,0.899-0.994,0.899c-0.034,0-0.068-0.001-0.102-0.005l-5.65-0.572
	c-0.061-0.006-0.113-0.031-0.17-0.048c-0.043-0.012-0.087-0.018-0.129-0.036c-0.229-0.101-0.41-0.282-0.512-0.511
	c-0.018-0.042-0.023-0.086-0.035-0.13c-0.018-0.057-0.043-0.109-0.049-0.17l-0.57-5.648c-0.056-0.549,0.345-1.04,0.895-1.096
	c0.557-0.051,1.039,0.346,1.096,0.895l0.358,3.552l5.448-5.449c0.391-0.391,1.023-0.391,1.414,0S40.748,8.108,40.357,8.499z"/>
<g>
	<path fill="#414042" d="M16.409,35.478c-0.425,0.353-0.483,0.983-0.13,1.407c0.198,0.238,0.482,0.361,0.77,0.361
		c0.225,0,0.452-0.076,0.639-0.23l5.971-4.961c0.019-0.017,0.027-0.043,0.045-0.061c0.058-0.055,0.097-0.123,0.141-0.19
		c0.026-0.044,0.064-0.077,0.084-0.124c0.056-0.126,0.091-0.263,0.091-0.408c0-0.004-0.002-0.006-0.002-0.009
		s0.002-0.005,0.002-0.008c0-0.054-0.026-0.103-0.035-0.155c-0.014-0.077-0.02-0.157-0.051-0.229
		c-0.036-0.086-0.096-0.156-0.156-0.23c-0.024-0.028-0.041-0.062-0.067-0.088c-0.021-0.02-0.03-0.049-0.052-0.066l-5.971-4.96
		c-0.425-0.354-1.055-0.294-1.408,0.13c-0.353,0.424-0.295,1.056,0.13,1.408l3.86,3.207H1.568c-0.552,0-1,0.447-1,1
		c0,0.552,0.448,1,1,1h18.699L16.409,35.478z"/>
	<path fill="#414042" d="M1.568,15.224h18.7l-3.859,3.206c-0.425,0.354-0.483,0.984-0.13,1.409c0.198,0.238,0.482,0.361,0.77,0.361
		c0.225,0,0.452-0.075,0.639-0.23l5.971-4.961c0.02-0.016,0.027-0.043,0.045-0.061c0.056-0.054,0.094-0.12,0.137-0.185
		c0.028-0.046,0.066-0.081,0.087-0.13c0.057-0.125,0.091-0.262,0.091-0.408c0-0.003-0.001-0.005-0.001-0.008
		s0.001-0.005,0.001-0.008c0-0.053-0.025-0.099-0.034-0.15c-0.014-0.08-0.021-0.162-0.052-0.233
		c-0.036-0.085-0.095-0.154-0.153-0.227c-0.025-0.03-0.042-0.065-0.071-0.092c-0.02-0.02-0.029-0.048-0.051-0.066l-5.971-4.959
		c-0.425-0.354-1.055-0.294-1.408,0.129c-0.353,0.425-0.295,1.056,0.13,1.409l3.86,3.206H1.568c-0.552,0-1,0.448-1,1
		C0.568,14.776,1.016,15.224,1.568,15.224z"/>
	<path fill="#414042" d="M45.803,4.082H10.718c-0.276,0-0.5,0.224-0.5,0.5v6.642h4.571c-0.415-0.473-0.67-1.062-0.729-1.7
		c-0.074-0.798,0.168-1.577,0.683-2.195c0.572-0.687,1.413-1.08,2.306-1.08c0.698,0,1.378,0.246,1.916,0.692l5.963,4.953
		c0.165,0.136,0.282,0.275,0.357,0.377c0.033,0.041,0.062,0.079,0.086,0.113c0.1,0.124,0.27,0.343,0.396,0.643
		c0.104,0.24,0.15,0.456,0.176,0.613c0.039,0.144,0.076,0.336,0.076,0.568c0,0.003,0,0.005,0,0.008s0,0.005,0,0.008
		c0,0.422-0.091,0.836-0.252,1.191c-0.095,0.224-0.21,0.389-0.278,0.479c-0.047,0.072-0.126,0.192-0.243,0.328
		c-0.094,0.12-0.201,0.233-0.31,0.323l-5.971,4.961c-0.538,0.446-1.218,0.692-1.917,0.692c-0.895,0-1.735-0.395-2.308-1.082
		c-0.512-0.617-0.754-1.396-0.68-2.193c0.059-0.639,0.313-1.228,0.729-1.7h-4.572v11.048h4.572c-0.415-0.473-0.67-1.063-0.729-1.701
		c-0.074-0.798,0.168-1.577,0.683-2.195c0.572-0.687,1.413-1.08,2.306-1.08c0.698,0,1.378,0.246,1.916,0.692l5.966,4.957
		c0.166,0.136,0.283,0.276,0.357,0.378c0.029,0.038,0.055,0.071,0.074,0.098c0.104,0.129,0.279,0.354,0.402,0.65
		c0.105,0.241,0.151,0.457,0.178,0.609c0.037,0.146,0.076,0.34,0.076,0.575c0,0.003,0,0.006,0,0.008c0,0.003,0,0.006,0,0.009
		c0,0.418-0.09,0.83-0.25,1.187c-0.087,0.206-0.19,0.362-0.273,0.474c-0.053,0.083-0.143,0.218-0.266,0.358
		c-0.09,0.112-0.191,0.218-0.294,0.303l-5.971,4.961c-0.538,0.446-1.218,0.692-1.917,0.692c-0.895,0-1.735-0.395-2.308-1.082
		c-0.512-0.617-0.754-1.396-0.68-2.193c0.059-0.639,0.313-1.228,0.729-1.699h-4.571v8.699c0,0.276,0.224,0.5,0.5,0.5h35.084
		c0.275,0,0.5-0.224,0.5-0.5V4.582C46.303,4.306,46.078,4.082,45.803,4.082z"/>
</g>
<g>
	<path fill="#414042" d="M45.302,30.271H26.601l3.86-3.207c0.425-0.353,0.482-0.984,0.13-1.408c-0.354-0.424-0.983-0.483-1.408-0.13
		l-5.971,4.96c-0.022,0.018-0.032,0.047-0.052,0.066c-0.026,0.026-0.043,0.06-0.067,0.088c-0.06,0.074-0.12,0.145-0.156,0.23
		c-0.031,0.071-0.037,0.151-0.051,0.229c-0.009,0.053-0.035,0.102-0.035,0.155c0,0.003,0.002,0.005,0.002,0.008
		s-0.002,0.005-0.002,0.009c0,0.146,0.035,0.282,0.091,0.408c0.02,0.047,0.058,0.08,0.084,0.124c0.043,0.067,0.083,0.136,0.141,0.19
		c0.018,0.018,0.026,0.044,0.045,0.061l5.971,4.961c0.187,0.154,0.413,0.23,0.639,0.23c0.287,0,0.571-0.123,0.77-0.361
		c0.353-0.424,0.295-1.055-0.13-1.407l-3.858-3.206h18.699c0.552,0,1-0.448,1-1C46.302,30.719,45.854,30.271,45.302,30.271z"/>
	<path fill="#414042" d="M30.461,10.018c0.425-0.353,0.482-0.984,0.13-1.409c-0.354-0.423-0.983-0.483-1.408-0.129l-5.971,4.959
		c-0.022,0.018-0.031,0.046-0.051,0.066c-0.028,0.027-0.046,0.062-0.071,0.092c-0.058,0.073-0.117,0.142-0.153,0.227
		c-0.031,0.072-0.038,0.153-0.052,0.233c-0.008,0.051-0.034,0.098-0.034,0.15c0,0.002,0.001,0.005,0.001,0.008
		s-0.001,0.005-0.001,0.008c0,0.146,0.035,0.283,0.091,0.408c0.021,0.049,0.06,0.084,0.087,0.13
		c0.043,0.064,0.081,0.131,0.137,0.185c0.018,0.018,0.026,0.045,0.045,0.061l5.971,4.961c0.187,0.155,0.413,0.23,0.639,0.23
		c0.287,0,0.571-0.123,0.77-0.361c0.353-0.425,0.295-1.055-0.13-1.409l-3.859-3.206h18.7c0.552,0,1-0.447,1-1c0-0.552-0.448-1-1-1
		h-18.7L30.461,10.018z"/>
	<path fill="#414042" d="M32.809,35.971c0.074,0.798-0.168,1.576-0.68,2.193c-0.572,0.688-1.413,1.082-2.308,1.082
		c-0.698,0-1.379-0.246-1.917-0.692l-5.971-4.961c-0.102-0.085-0.204-0.19-0.293-0.303c-0.124-0.141-0.213-0.275-0.266-0.358
		c-0.083-0.111-0.187-0.268-0.274-0.474c-0.16-0.356-0.249-0.769-0.249-1.187c0-0.003,0-0.006,0-0.009c0-0.002,0-0.005,0-0.008
		c0-0.235,0.038-0.43,0.076-0.575c0.026-0.152,0.071-0.368,0.177-0.609c0.124-0.297,0.299-0.521,0.403-0.65
		c0.019-0.026,0.044-0.06,0.074-0.098c0.074-0.102,0.191-0.242,0.357-0.378l5.966-4.957c0.538-0.446,1.219-0.692,1.916-0.692
		c0.894,0,1.734,0.394,2.307,1.08c0.514,0.619,0.756,1.397,0.682,2.195c-0.059,0.639-0.313,1.229-0.729,1.701h4.572V17.224H32.08
		c0.416,0.473,0.67,1.062,0.729,1.7c0.074,0.798-0.168,1.577-0.68,2.193c-0.572,0.688-1.413,1.082-2.308,1.082
		c-0.698,0-1.379-0.246-1.917-0.692l-5.971-4.961c-0.108-0.09-0.216-0.203-0.31-0.323c-0.117-0.136-0.196-0.256-0.243-0.328
		c-0.068-0.091-0.184-0.256-0.279-0.479c-0.161-0.355-0.251-0.769-0.251-1.191c0-0.003,0-0.005,0-0.008s0-0.005,0-0.008
		c0-0.232,0.037-0.425,0.075-0.568c0.026-0.157,0.072-0.374,0.177-0.613c0.126-0.3,0.296-0.519,0.396-0.643
		c0.024-0.034,0.052-0.072,0.085-0.113c0.076-0.102,0.193-0.242,0.357-0.377l5.962-4.953c0.538-0.446,1.219-0.692,1.916-0.692
		c0.894,0,1.734,0.394,2.307,1.08c0.514,0.619,0.756,1.397,0.682,2.195c-0.059,0.639-0.313,1.228-0.729,1.7h4.572V4.582
		c0-0.276-0.225-0.5-0.5-0.5H1.068c-0.276,0-0.5,0.224-0.5,0.5v38.389c0,0.276,0.224,0.5,0.5,0.5h35.084c0.275,0,0.5-0.224,0.5-0.5
		v-8.699H32.08C32.496,34.743,32.75,35.332,32.809,35.971z"/>
</g>
<g>
	<rect x="3.258" y="1.658" fill="#414042" width="9.346" height="9.346"/>
	<rect x="19.028" y="1.658" fill="#414042" width="9.346" height="9.346"/>
	<rect x="34.799" y="1.658" fill="#414042" width="9.346" height="9.346"/>
	<rect x="3.258" y="18.597" fill="#414042" width="9.346" height="9.346"/>
	<rect x="19.028" y="18.597" fill="#414042" width="9.346" height="9.346"/>
	<rect x="34.799" y="18.597" fill="#414042" width="9.346" height="9.346"/>
	<rect x="3.258" y="35.535" fill="#414042" width="9.346" height="9.346"/>
	<rect x="19.028" y="35.535" fill="#414042" width="9.346" height="9.346"/>
	<rect x="34.799" y="35.535" fill="#414042" width="9.346" height="9.346"/>
</g>
<g>
	<rect x="3.054" y="2.034" fill="#414042" width="15.776" height="15.775"/>
	<rect x="29.748" y="2.034" fill="#414042" width="15.776" height="15.775"/>
	<rect x="3.054" y="28.728" fill="#414042" width="15.776" height="15.777"/>
	<rect x="29.748" y="28.728" fill="#414042" width="15.776" height="15.777"/>
</g>
</svg>
