<?xml version="1.0" encoding="utf-8"?>
<!-- Generator: Adobe Illustrator 16.0.0, SVG Export Plug-In . SVG Version: 6.00 Build 0)  -->
<!DOCTYPE svg PUBLIC "-//W3C//DTD SVG 1.1//EN" "http://www.w3.org/Graphics/SVG/1.1/DTD/svg11.dtd">
<svg version="1.1" id="Layer_1" xmlns="http://www.w3.org/2000/svg" xmlns:xlink="http://www.w3.org/1999/xlink" x="0px" y="0px"
	 width="48px" height="48px" viewBox="0 0 48 48" enable-background="new 0 0 48 48" xml:space="preserve">
<g>
	<path fill="#414042" d="M5.937,3.854c-0.276,0-0.5,0.223-0.5,0.5v38.301c0,0.275,0.224,0.5,0.5,0.5s0.5-0.225,0.5-0.5V4.354
		C6.437,4.076,6.213,3.854,5.937,3.854z"/>
	<path fill="#414042" d="M42.243,23.004H15.23l10.559-12.941c0.174-0.215,0.143-0.529-0.072-0.705
		c-0.214-0.174-0.529-0.143-0.703,0.072L13.79,23.188c-0.15,0.184-0.15,0.447,0,0.633l11.224,13.756
		c0.1,0.121,0.243,0.184,0.389,0.184c0.11,0,0.223-0.037,0.314-0.113c0.215-0.174,0.246-0.49,0.072-0.703L15.23,24.004h27.013
		c0.276,0,0.5-0.225,0.5-0.5C42.743,23.227,42.52,23.004,42.243,23.004z"/>
</g>
</svg>
