<?xml version="1.0" encoding="utf-8"?>
<!-- Generator: Adobe Illustrator 16.0.0, SVG Export Plug-In . SVG Version: 6.00 Build 0)  -->
<!DOCTYPE svg PUBLIC "-//W3C//DTD SVG 1.1//EN" "http://www.w3.org/Graphics/SVG/1.1/DTD/svg11.dtd">
<svg version="1.1" id="Layer_1" xmlns="http://www.w3.org/2000/svg" xmlns:xlink="http://www.w3.org/1999/xlink" x="0px" y="0px"
	 width="48px" height="48px" viewBox="0 0 48 48" enable-background="new 0 0 48 48" xml:space="preserve">
<g>
	<path fill="#414042" d="M42.467,3.854c-0.277,0-0.5,0.223-0.5,0.5v38.301c0,0.275,0.223,0.5,0.5,0.5c0.275,0,0.5-0.225,0.5-0.5
		V4.354C42.967,4.076,42.742,3.854,42.467,3.854z"/>
	<path fill="#414042" d="M23.389,9.43c-0.175-0.215-0.49-0.246-0.703-0.072c-0.214,0.176-0.246,0.49-0.071,0.705l10.559,12.941H6.16
		c-0.276,0-0.5,0.223-0.5,0.5c0,0.275,0.224,0.5,0.5,0.5h27.013L22.614,36.943c-0.175,0.213-0.143,0.529,0.071,0.703
		c0.093,0.076,0.205,0.113,0.315,0.113c0.145,0,0.289-0.063,0.388-0.184L34.613,23.82c0.15-0.186,0.15-0.449,0-0.633L23.389,9.43z"
		/>
</g>
</svg>
