<?xml version="1.0" encoding="utf-8"?>
<!-- Generator: Adobe Illustrator 16.0.0, SVG Export Plug-In . SVG Version: 6.00 Build 0)  -->
<!DOCTYPE svg PUBLIC "-//W3C//DTD SVG 1.1//EN" "http://www.w3.org/Graphics/SVG/1.1/DTD/svg11.dtd">
<svg version="1.1" id="Layer_1" xmlns="http://www.w3.org/2000/svg" xmlns:xlink="http://www.w3.org/1999/xlink" x="0px" y="0px"
	 width="48px" height="48px" viewBox="0 0 48 48" enable-background="new 0 0 48 48" xml:space="preserve">
<g>
	<path fill="#414042" d="M44.367,33.609c-0.276,0-0.5,0.223-0.5,0.5v7.361H3.643c0.001-0.014,0.008-0.026,0.008-0.041v-7.32
		c0-0.277-0.224-0.5-0.5-0.5s-0.5,0.223-0.5,0.5v7.32c0,0.102,0.038,0.191,0.09,0.27c-0.052,0.08-0.09,0.169-0.09,0.271
		c0,0.275,0.224,0.5,0.5,0.5h41.217c0.276,0,0.5-0.225,0.5-0.5v-7.861C44.867,33.832,44.644,33.609,44.367,33.609z"/>
	<path fill="#414042" d="M10.002,16.762c0.111,0,0.224-0.037,0.316-0.113L23.258,6.09v27.014c0,0.275,0.224,0.5,0.5,0.5
		s0.5-0.225,0.5-0.5V6.09l12.941,10.559c0.213,0.174,0.53,0.145,0.704-0.07s0.143-0.529-0.071-0.705L24.074,4.648
		c-0.186-0.15-0.447-0.15-0.633,0L9.686,15.873c-0.214,0.176-0.245,0.49-0.071,0.705C9.714,16.699,9.857,16.762,10.002,16.762z"/>
</g>
</svg>
