<?xml version="1.0" encoding="utf-8"?>
<!-- Generator: Adobe Illustrator 16.0.0, SVG Export Plug-In . SVG Version: 6.00 Build 0)  -->
<!DOCTYPE svg PUBLIC "-//W3C//DTD SVG 1.1//EN" "http://www.w3.org/Graphics/SVG/1.1/DTD/svg11.dtd">
<svg version="1.1" id="Layer_1" xmlns="http://www.w3.org/2000/svg" xmlns:xlink="http://www.w3.org/1999/xlink" x="0px" y="0px"
	 width="48px" height="48px" viewBox="0 0 48 48" enable-background="new 0 0 48 48" xml:space="preserve">
<path fill="#414042" d="M43.958,23.004H5.059L20.371,4.236c0.174-0.214,0.143-0.529-0.071-0.704
	c-0.214-0.173-0.527-0.143-0.704,0.071L3.617,23.188c-0.149,0.185-0.149,0.448,0,0.633l15.979,19.583
	c0.1,0.121,0.243,0.184,0.388,0.184c0.111,0,0.224-0.037,0.316-0.112c0.214-0.175,0.245-0.49,0.071-0.704L5.059,24.004h38.899
	c0.276,0,0.5-0.224,0.5-0.5S44.234,23.004,43.958,23.004z"/>
</svg>
