<?xml version="1.0" encoding="utf-8"?>
<!-- Generator: Adobe Illustrator 16.0.0, SVG Export Plug-In . SVG Version: 6.00 Build 0)  -->
<!DOCTYPE svg PUBLIC "-//W3C//DTD SVG 1.1//EN" "http://www.w3.org/Graphics/SVG/1.1/DTD/svg11.dtd">
<svg version="1.1" id="Layer_1" xmlns="http://www.w3.org/2000/svg" xmlns:xlink="http://www.w3.org/1999/xlink" x="0px" y="0px"
	 width="48px" height="48px" viewBox="0 0 48 48" enable-background="new 0 0 48 48" xml:space="preserve">
<path fill="#414042" d="M43.804,22.962L27.825,3.378c-0.175-0.214-0.488-0.245-0.703-0.071c-0.214,0.175-0.246,0.49-0.07,0.704
	l15.312,18.768H3.464c-0.276,0-0.5,0.224-0.5,0.5s0.224,0.5,0.5,0.5h38.899L27.052,42.545c-0.176,0.214-0.144,0.529,0.07,0.704
	c0.094,0.075,0.205,0.112,0.316,0.112c0.145,0,0.289-0.063,0.387-0.184l15.979-19.583C43.954,23.41,43.954,23.146,43.804,22.962z"/>
</svg>
