<?xml version="1.0" encoding="utf-8"?>
<!-- Generator: Adobe Illustrator 16.0.0, SVG Export Plug-In . SVG Version: 6.00 Build 0)  -->
<!DOCTYPE svg PUBLIC "-//W3C//DTD SVG 1.1//EN" "http://www.w3.org/Graphics/SVG/1.1/DTD/svg11.dtd">
<svg version="1.1" id="Layer_1" xmlns="http://www.w3.org/2000/svg" xmlns:xlink="http://www.w3.org/1999/xlink" x="0px" y="0px"
	 width="48px" height="48px" viewBox="0 0 48 48" enable-background="new 0 0 48 48" xml:space="preserve">
<g>
	<path fill="#414042" d="M3.699,16.657h26.367c0.276,0,0.5-0.224,0.5-0.5s-0.224-0.5-0.5-0.5H3.699l7.266-6.027
		c0.212-0.176,0.241-0.491,0.065-0.704c-0.176-0.212-0.492-0.242-0.704-0.065l-8.332,6.912c-0.114,0.095-0.181,0.236-0.181,0.385
		s0.066,0.29,0.181,0.385l8.332,6.912c0.093,0.077,0.206,0.115,0.319,0.115c0.144,0,0.286-0.062,0.385-0.181
		c0.176-0.213,0.146-0.528-0.065-0.704L3.699,16.657z"/>
	<path fill="#414042" d="M45.386,30.015l-8.332-6.912c-0.214-0.175-0.528-0.146-0.704,0.065c-0.177,0.213-0.147,0.528,0.065,0.704
		l7.266,6.027H17.313c-0.276,0-0.5,0.224-0.5,0.5s0.224,0.5,0.5,0.5h26.367l-7.266,6.027c-0.213,0.176-0.242,0.491-0.065,0.704
		c0.099,0.119,0.241,0.181,0.385,0.181c0.112,0,0.226-0.038,0.319-0.115l8.332-6.912c0.114-0.095,0.181-0.236,0.181-0.385
		S45.5,30.109,45.386,30.015z"/>
</g>
</svg>
