<?xml version="1.0" encoding="utf-8"?>
<!-- Generator: Adobe Illustrator 16.0.0, SVG Export Plug-In . SVG Version: 6.00 Build 0)  -->
<!DOCTYPE svg PUBLIC "-//W3C//DTD SVG 1.1//EN" "http://www.w3.org/Graphics/SVG/1.1/DTD/svg11.dtd">
<svg version="1.1" id="Layer_1" xmlns="http://www.w3.org/2000/svg" xmlns:xlink="http://www.w3.org/1999/xlink" x="0px" y="0px"
	 width="48px" height="48px" viewBox="0 0 48 48" enable-background="new 0 0 48 48" xml:space="preserve">
<path fill="#414042" d="M31.157,12.33H5.142l6.549-5.732c0.207-0.182,0.229-0.497,0.047-0.705c-0.182-0.209-0.5-0.229-0.705-0.047
	l-7.676,6.719c-0.109,0.095-0.172,0.231-0.172,0.376s0.063,0.281,0.172,0.376l7.676,6.719c0.094,0.083,0.211,0.124,0.328,0.124
	c0.139,0,0.277-0.058,0.377-0.171c0.182-0.208,0.16-0.523-0.047-0.705L4.89,13.33h26.268c7.307,0,13.252,5.945,13.252,13.253
	s-5.945,13.252-13.252,13.252H3.925c-0.277,0-0.5,0.224-0.5,0.5s0.223,0.5,0.5,0.5h27.232c7.859,0,14.252-6.394,14.252-14.252
	C45.409,18.724,39.017,12.33,31.157,12.33z"/>
</svg>
