<?xml version="1.0" encoding="utf-8"?>
<!-- Generator: Adobe Illustrator 16.0.0, SVG Export Plug-In . SVG Version: 6.00 Build 0)  -->
<!DOCTYPE svg PUBLIC "-//W3C//DTD SVG 1.1//EN" "http://www.w3.org/Graphics/SVG/1.1/DTD/svg11.dtd">
<svg version="1.1" id="Layer_1" xmlns="http://www.w3.org/2000/svg" xmlns:xlink="http://www.w3.org/1999/xlink" x="0px" y="0px"
	 width="48px" height="48px" viewBox="0 0 48 48" enable-background="new 0 0 48 48" xml:space="preserve">
<path fill="#414042" d="M44.667,24.463L24.023,11.362c-0.154-0.098-0.35-0.104-0.509-0.017c-0.16,0.088-0.259,0.256-0.259,0.438
	v12.417L3.023,11.362c-0.154-0.098-0.349-0.104-0.509-0.017c-0.16,0.088-0.259,0.256-0.259,0.438v23.383
	c0,0.173,0.089,0.334,0.237,0.425c0.081,0.05,0.172,0.075,0.263,0.075c0.076,0,0.152-0.018,0.223-0.053l20.277-10.1v9.652
	c0,0.173,0.089,0.334,0.237,0.425c0.081,0.05,0.172,0.075,0.263,0.075c0.076,0,0.152-0.018,0.223-0.053l20.644-10.282
	c0.161-0.08,0.267-0.241,0.276-0.422C44.908,24.73,44.819,24.56,44.667,24.463z"/>
</svg>
