<?xml version="1.0" encoding="utf-8"?>
<!-- Generator: Adobe Illustrator 16.0.0, SVG Export Plug-In . SVG Version: 6.00 Build 0)  -->
<!DOCTYPE svg PUBLIC "-//W3C//DTD SVG 1.1//EN" "http://www.w3.org/Graphics/SVG/1.1/DTD/svg11.dtd">
<svg version="1.1" id="Layer_1" xmlns="http://www.w3.org/2000/svg" xmlns:xlink="http://www.w3.org/1999/xlink" x="0px" y="0px"
	 width="48px" height="48px" viewBox="0 0 48 48" enable-background="new 0 0 48 48" xml:space="preserve">
<path fill="#414042" d="M45.578,11.104c-0.159-0.087-0.355-0.082-0.509,0.017L24.837,23.959V11.543c0-0.183-0.1-0.351-0.259-0.438
	c-0.159-0.087-0.354-0.082-0.509,0.017L2.997,24.492c-0.152,0.097-0.241,0.268-0.232,0.447c0.01,0.181,0.115,0.342,0.277,0.422
	l21.072,10.494c0.07,0.035,0.146,0.053,0.223,0.053c0.092,0,0.183-0.025,0.264-0.075c0.146-0.091,0.236-0.252,0.236-0.425v-9.65
	l20.277,10.098c0.07,0.035,0.146,0.053,0.223,0.053c0.092,0,0.183-0.025,0.264-0.075c0.146-0.091,0.236-0.252,0.236-0.425V11.543
	C45.837,11.36,45.737,11.192,45.578,11.104z"/>
</svg>
