<?xml version="1.0" encoding="utf-8"?>
<!-- Generator: Adobe Illustrator 16.0.0, SVG Export Plug-In . SVG Version: 6.00 Build 0)  -->
<!DOCTYPE svg PUBLIC "-//W3C//DTD SVG 1.1//EN" "http://www.w3.org/Graphics/SVG/1.1/DTD/svg11.dtd">
<svg version="1.1" id="Layer_1" xmlns="http://www.w3.org/2000/svg" xmlns:xlink="http://www.w3.org/1999/xlink" x="0px" y="0px"
	 width="48px" height="48px" viewBox="0 0 48 48" enable-background="new 0 0 48 48" xml:space="preserve">
<g>
	<path fill="#414042" d="M23.362,11.442c-0.003-0.028-0.011-0.055-0.015-0.082c-0.007-0.045-0.016-0.089-0.026-0.133
		c-0.006-0.023-0.009-0.047-0.016-0.07c-0.008-0.025-0.021-0.05-0.029-0.075c-0.018-0.047-0.035-0.092-0.057-0.136
		c-0.021-0.043-0.044-0.085-0.068-0.126s-0.051-0.08-0.079-0.117c-0.016-0.022-0.028-0.045-0.046-0.066
		c-0.016-0.02-0.034-0.034-0.051-0.053c-0.031-0.033-0.063-0.066-0.098-0.097c-0.021-0.019-0.038-0.04-0.06-0.058
		c-0.019-0.016-0.04-0.026-0.06-0.041c-0.039-0.028-0.079-0.055-0.12-0.078c-0.019-0.012-0.034-0.025-0.053-0.035
		c-0.005-0.003-0.009-0.007-0.014-0.01h-0.001l-6.753-3.57c-0.733-0.387-1.64-0.107-2.027,0.625
		c-0.387,0.733-0.107,1.641,0.625,2.027l1.407,0.744H6.81c-3.371,0-6.113,2.744-6.113,6.115v15.5c0,3.371,2.742,6.113,6.113,6.113
		h14.131c0.828,0,1.5-0.671,1.5-1.5c0-0.828-0.672-1.5-1.5-1.5H6.81c-1.717,0-3.113-1.396-3.113-3.113v-15.5
		c0-1.717,1.396-3.115,3.113-3.115h9.075l-1.397,0.748c-0.73,0.391-1.007,1.3-0.615,2.03c0.27,0.505,0.788,0.793,1.323,0.793
		c0.239,0,0.481-0.058,0.706-0.178l6.676-3.57c0.011-0.006,0.019-0.014,0.029-0.021c0.019-0.01,0.036-0.021,0.055-0.033
		c0.038-0.023,0.074-0.049,0.109-0.076c0.037-0.028,0.072-0.057,0.106-0.088c0.021-0.02,0.044-0.035,0.063-0.057
		c0.014-0.013,0.023-0.029,0.036-0.043c0.002-0.002,0.003-0.004,0.005-0.006c0.032-0.035,0.063-0.071,0.091-0.11
		c0.029-0.04,0.056-0.081,0.081-0.123c0.013-0.021,0.029-0.04,0.041-0.063c0.001-0.001,0.002-0.001,0.002-0.003
		c0.006-0.011,0.009-0.022,0.014-0.034c0.004-0.007,0.006-0.015,0.01-0.022c0.021-0.045,0.04-0.092,0.057-0.139
		c0.01-0.025,0.022-0.051,0.03-0.076c0.007-0.023,0.009-0.046,0.015-0.068c0.011-0.043,0.019-0.087,0.025-0.131
		c0.005-0.029,0.013-0.059,0.016-0.088c0.003-0.027,0.001-0.055,0.002-0.082c0.001-0.02,0.006-0.039,0.006-0.061
		s-0.006-0.041-0.006-0.063C23.363,11.5,23.365,11.471,23.362,11.442z"/>
	<path fill="#414042" d="M41.416,10.092h-14.42c-0.828,0-1.5,0.672-1.5,1.5c0,0.829,0.672,1.5,1.5,1.5h14.42
		c1.717,0,3.113,1.398,3.113,3.115v15.5c0,1.717-1.396,3.113-3.113,3.113h-9.973l1.809-1.081c0.711-0.425,0.943-1.347,0.518-2.058
		s-1.348-0.941-2.057-0.518l-6.465,3.865c-0.016,0.01-0.027,0.021-0.041,0.029c-0.037,0.023-0.072,0.051-0.107,0.078
		c-0.033,0.025-0.066,0.047-0.098,0.074c-0.01,0.01-0.017,0.02-0.027,0.029c-0.032,0.03-0.06,0.064-0.089,0.098
		c-0.026,0.031-0.057,0.059-0.081,0.092c-0.007,0.01-0.013,0.021-0.02,0.031c-0.028,0.039-0.05,0.082-0.074,0.124
		c-0.023,0.042-0.048,0.081-0.067,0.124c-0.02,0.045-0.034,0.092-0.05,0.139c-0.013,0.038-0.029,0.074-0.038,0.113
		c-0.003,0.012-0.004,0.021-0.007,0.033c-0.009,0.041-0.012,0.084-0.018,0.125c-0.006,0.044-0.016,0.086-0.018,0.131
		c-0.001,0.014,0,0.029,0,0.043c0,0.01-0.003,0.019-0.003,0.027c0,0.032,0.008,0.063,0.01,0.093
		c0.002,0.043,0.001,0.085,0.008,0.128c0.002,0.016,0.007,0.03,0.01,0.046c0.008,0.046,0.021,0.089,0.033,0.132
		c0.01,0.035,0.015,0.07,0.027,0.104c0.005,0.015,0.012,0.026,0.018,0.041c0.018,0.046,0.041,0.09,0.063,0.134
		c0.021,0.043,0.042,0.085,0.067,0.125c0.025,0.041,0.056,0.078,0.085,0.115c0.03,0.039,0.06,0.078,0.094,0.113
		c0.013,0.014,0.023,0.027,0.036,0.04c0.018,0.017,0.037,0.029,0.055,0.045c0.006,0.005,0.012,0.009,0.018,0.015
		c0.035,0.03,0.068,0.062,0.107,0.09c0.033,0.021,0.066,0.041,0.1,0.061c0.027,0.018,0.055,0.033,0.082,0.047
		c0.018,0.01,0.031,0.021,0.049,0.029l6.932,3.258c0.207,0.098,0.424,0.144,0.637,0.144c0.564,0,1.104-0.319,1.359-0.862
		c0.352-0.75,0.029-1.644-0.721-1.996l-0.852-0.4h8.688c3.371,0,6.113-2.742,6.113-6.113v-15.5
		C47.529,12.836,44.787,10.092,41.416,10.092z"/>
</g>
</svg>
