<?xml version="1.0" encoding="utf-8"?>
<!-- Generator: Adobe Illustrator 16.0.0, SVG Export Plug-In . SVG Version: 6.00 Build 0)  -->
<!DOCTYPE svg PUBLIC "-//W3C//DTD SVG 1.1//EN" "http://www.w3.org/Graphics/SVG/1.1/DTD/svg11.dtd">
<svg version="1.1" id="Layer_1" xmlns="http://www.w3.org/2000/svg" xmlns:xlink="http://www.w3.org/1999/xlink" x="0px" y="0px"
	 width="48px" height="48px" viewBox="0 0 48 48" enable-background="new 0 0 48 48" xml:space="preserve">
<g>
	<path fill="#414042" d="M46.619,35.537l-2.975-7.183c-0.178-0.432-0.535-0.763-0.979-0.908c-0.445-0.146-0.932-0.089-1.328,0.154
		l-7.088,4.316c-0.754,0.459-0.992,1.442-0.533,2.196s1.443,0.992,2.195,0.533l2.971-1.81c-0.398,0.671-0.82,1.282-1.164,1.724
		c-3.445,4.356-8.619,6.855-14.195,6.855c-8.008,0-15.14-5.33-17.342-12.969c-0.004-0.014-0.114-0.373-0.146-0.576
		c-0.082-0.865-0.854-1.5-1.713-1.441c-0.88,0.067-1.538,0.835-1.472,1.715c0.026,0.342,0.158,0.844,0.263,1.195
		c2.594,8.992,10.986,15.271,20.41,15.271c6.558,0,12.646-2.94,16.705-8.072c0.184-0.232,1.191-1.549,2.023-3.197l1.414,3.417
		c0.256,0.616,0.852,0.987,1.479,0.987c0.201,0,0.41-0.039,0.609-0.122C46.57,37.287,46.957,36.352,46.619,35.537z"/>
	<path fill="#414042" d="M3.473,18.605c0.021,0.066,0.048,0.129,0.077,0.189c0.019,0.041,0.037,0.08,0.059,0.118
		c0.035,0.059,0.074,0.113,0.115,0.167c0.027,0.033,0.05,0.068,0.078,0.1c0.052,0.059,0.112,0.11,0.174,0.161
		c0.022,0.019,0.042,0.041,0.067,0.06c0.089,0.065,0.186,0.122,0.289,0.168c0.001,0.001,0.002,0.002,0.003,0.002
		c0.015,0.008,0.03,0.01,0.046,0.016C4.464,19.621,4.55,19.65,4.64,19.67c0.043,0.01,0.087,0.012,0.129,0.018
		c0.057,0.007,0.112,0.021,0.171,0.021c0.01,0.001,0.018-0.001,0.026-0.001c0.007,0,0.014,0.002,0.021,0.002
		c0.021,0,0.043-0.007,0.066-0.008c0.094-0.003,0.187-0.013,0.275-0.031c0.017-0.003,0.033-0.009,0.051-0.014
		c0.098-0.024,0.192-0.059,0.284-0.101c0.009-0.005,0.018-0.006,0.026-0.01l7.918-3.885c0.794-0.389,1.122-1.346,0.732-2.139
		c-0.388-0.791-1.345-1.119-2.139-0.73l-4.408,2.162c0.43-0.744,0.896-1.434,1.274-1.915c3.445-4.356,8.619-6.855,14.192-6.855
		c8.009,0,15.14,5.329,17.341,12.969c0.006,0.013,0.117,0.377,0.148,0.581c0.082,0.822,0.775,1.441,1.59,1.441
		c0.043,0,0.086-0.002,0.129-0.005c0.881-0.071,1.537-0.842,1.465-1.722c-0.027-0.339-0.158-0.838-0.262-1.189
		C41.078,9.269,32.686,2.988,23.26,2.988c-6.557,0-12.644,2.941-16.703,8.073c-0.134,0.171-0.715,0.929-1.344,1.97l-0.771-2.73
		C4.204,9.451,3.32,8.958,2.471,9.196c-0.85,0.239-1.345,1.122-1.104,1.972l2.082,7.377C3.456,18.566,3.467,18.586,3.473,18.605z"/>
</g>
</svg>
