<?xml version="1.0" encoding="utf-8"?>
<!-- Generator: Adobe Illustrator 16.0.0, SVG Export Plug-In . SVG Version: 6.00 Build 0)  -->
<!DOCTYPE svg PUBLIC "-//W3C//DTD SVG 1.1//EN" "http://www.w3.org/Graphics/SVG/1.1/DTD/svg11.dtd">
<svg version="1.1" id="Layer_1" xmlns="http://www.w3.org/2000/svg" xmlns:xlink="http://www.w3.org/1999/xlink" x="0px" y="0px"
	 width="48px" height="48px" viewBox="0 0 48 48" enable-background="new 0 0 48 48" xml:space="preserve">
<path fill="#414042" d="M45.172,23.423l-3.305-2.52c-0.151-0.116-0.355-0.133-0.525-0.051c-0.17,0.085-0.278,0.258-0.278,0.448v2.02
	L24.94,23.31l0.052-17.116h2.021c0.19,0,0.364-0.107,0.448-0.278c0.084-0.17,0.064-0.374-0.051-0.525l-2.522-3.307
	c-0.19-0.249-0.607-0.247-0.795,0.001l-2.52,3.307c-0.115,0.151-0.135,0.354-0.051,0.524c0.084,0.171,0.258,0.278,0.448,0.278h2.021
	L23.94,23.309L6.806,23.297v-2.02c0-0.19-0.108-0.363-0.278-0.448c-0.169-0.082-0.373-0.063-0.525,0.051l-3.306,2.52
	C2.573,23.494,2.5,23.641,2.5,23.797s0.073,0.303,0.197,0.397l3.306,2.52c0.089,0.068,0.196,0.103,0.303,0.103
	c0.076,0,0.151-0.018,0.222-0.052c0.17-0.085,0.278-0.258,0.278-0.448v-2.02l17.131,0.012l-0.052,17.09h-1.915
	c-0.19,0-0.364,0.107-0.448,0.278c-0.084,0.17-0.064,0.374,0.051,0.524l2.52,3.305c0.094,0.124,0.241,0.197,0.397,0.197
	c0.156,0,0.303-0.072,0.397-0.196l2.522-3.305c0.115-0.151,0.135-0.355,0.051-0.525c-0.084-0.171-0.258-0.278-0.448-0.278h-2.127
	l0.052-17.089l16.126,0.011v2.02c0,0.19,0.108,0.363,0.278,0.448c0.07,0.034,0.146,0.052,0.222,0.052
	c0.107,0,0.214-0.035,0.304-0.103l3.305-2.52c0.125-0.095,0.197-0.241,0.197-0.397S45.297,23.518,45.172,23.423z"/>
</svg>
