<?xml version="1.0" encoding="utf-8"?>
<!-- Generator: Adobe Illustrator 16.0.0, SVG Export Plug-In . SVG Version: 6.00 Build 0)  -->
<!DOCTYPE svg PUBLIC "-//W3C//DTD SVG 1.1//EN" "http://www.w3.org/Graphics/SVG/1.1/DTD/svg11.dtd">
<svg version="1.1" id="Layer_1" xmlns="http://www.w3.org/2000/svg" xmlns:xlink="http://www.w3.org/1999/xlink" x="0px" y="0px"
	 width="48px" height="48px" viewBox="0 0 48 48" enable-background="new 0 0 48 48" xml:space="preserve">
<path fill="#414042" d="M44.885,5.115c-0.009-0.031-0.017-0.063-0.031-0.092c-0.018-0.035-0.041-0.064-0.064-0.095
	c-0.016-0.018-0.027-0.035-0.044-0.05c-0.038-0.036-0.082-0.063-0.13-0.084c-0.008-0.004-0.012-0.011-0.02-0.014
	c-0.004-0.001-0.008-0.001-0.01-0.002c-0.042-0.016-0.085-0.021-0.131-0.024c-0.029-0.003-0.059-0.006-0.088-0.003
	c-0.008,0.001-0.015-0.002-0.022-0.001L5.252,9.974C5.053,10,4.888,10.144,4.836,10.338c-0.053,0.194,0.016,0.401,0.175,0.525
	l13.337,10.393L2.959,34.437c-0.209,0.18-0.234,0.495-0.055,0.705l4.071,4.76c0.099,0.115,0.239,0.175,0.38,0.175
	c0.113,0,0.227-0.038,0.32-0.116l15.099-12.619l6.475,15.204c0.078,0.185,0.26,0.304,0.46,0.304c0.002,0,0.005,0,0.007,0
	c0.202-0.003,0.383-0.127,0.458-0.315L44.876,5.431c0.003-0.009,0.002-0.019,0.005-0.027c0.011-0.031,0.014-0.063,0.018-0.097
	c0.004-0.034,0.01-0.066,0.006-0.1c0-0.01,0.004-0.018,0.002-0.027C44.904,5.156,44.891,5.138,44.885,5.115z"/>
</svg>
