<?xml version="1.0" encoding="utf-8"?>
<!-- Generator: Adobe Illustrator 16.0.0, SVG Export Plug-In . SVG Version: 6.00 Build 0)  -->
<!DOCTYPE svg PUBLIC "-//W3C//DTD SVG 1.1//EN" "http://www.w3.org/Graphics/SVG/1.1/DTD/svg11.dtd">
<svg version="1.1" id="Layer_1" xmlns="http://www.w3.org/2000/svg" xmlns:xlink="http://www.w3.org/1999/xlink" x="0px" y="0px"
	 width="48px" height="48px" viewBox="0 0 48 48" enable-background="new 0 0 48 48" xml:space="preserve">
<g>
	<path fill="#414042" d="M15.822,6.45H45.4c0.277,0,0.5-0.224,0.5-0.5s-0.223-0.5-0.5-0.5H15.822c-0.277,0-0.5,0.224-0.5,0.5
		S15.545,6.45,15.822,6.45z"/>
	<path fill="#414042" d="M45.4,23.299H15.822c-0.277,0-0.5,0.224-0.5,0.5s0.223,0.5,0.5,0.5H45.4c0.277,0,0.5-0.224,0.5-0.5
		S45.678,23.299,45.4,23.299z"/>
	<path fill="#414042" d="M45.4,41.15H15.822c-0.277,0-0.5,0.224-0.5,0.5s0.223,0.5,0.5,0.5H45.4c0.277,0,0.5-0.224,0.5-0.5
		S45.678,41.15,45.4,41.15z"/>
	<path fill="#414042" d="M3.715,3.847c-1.158,0-2.104,0.941-2.104,2.104c0,1.16,0.945,2.104,2.104,2.104
		c1.164,0,2.104-0.944,2.104-2.104C5.818,4.788,4.879,3.847,3.715,3.847z"/>
	<path fill="#414042" d="M3.715,21.696c-1.158,0-2.104,0.941-2.104,2.104c0,1.16,0.945,2.104,2.104,2.104
		c1.164,0,2.104-0.944,2.104-2.104C5.818,22.638,4.879,21.696,3.715,21.696z"/>
	<path fill="#414042" d="M3.715,39.546c-1.158,0-2.104,0.941-2.104,2.104c0,1.16,0.945,2.104,2.104,2.104
		c1.164,0,2.104-0.944,2.104-2.104C5.818,40.487,4.879,39.546,3.715,39.546z"/>
</g>
</svg>
