<?xml version="1.0" encoding="utf-8"?>
<!-- Generator: Adobe Illustrator 16.0.0, SVG Export Plug-In . SVG Version: 6.00 Build 0)  -->
<!DOCTYPE svg PUBLIC "-//W3C//DTD SVG 1.1//EN" "http://www.w3.org/Graphics/SVG/1.1/DTD/svg11.dtd">
<svg version="1.1" id="Layer_1" xmlns="http://www.w3.org/2000/svg" xmlns:xlink="http://www.w3.org/1999/xlink" x="0px" y="0px"
	 width="48px" height="48px" viewBox="0 0 48 48" enable-background="new 0 0 48 48" xml:space="preserve">
<g>
	<path fill="#414042" d="M16.878,8.845h27.001c0.276,0,0.5-0.224,0.5-0.5s-0.224-0.5-0.5-0.5H16.878c-0.276,0-0.5,0.224-0.5,0.5
		S16.602,8.845,16.878,8.845z"/>
	<path fill="#414042" d="M43.879,24.264H16.878c-0.276,0-0.5,0.224-0.5,0.5s0.224,0.5,0.5,0.5h27.001c0.276,0,0.5-0.224,0.5-0.5
		S44.155,24.264,43.879,24.264z"/>
	<path fill="#414042" d="M43.879,40.753H16.878c-0.276,0-0.5,0.224-0.5,0.5s0.224,0.5,0.5,0.5h27.001c0.276,0,0.5-0.224,0.5-0.5
		S44.155,40.753,43.879,40.753z"/>
	<path fill="#414042" d="M5.9,4.95v6.481h1.018V3.114H6.263C6.085,3.472,5.784,3.841,5.358,4.222S4.436,4.926,3.866,5.193v0.983
		C4.183,6.06,4.54,5.885,4.938,5.651S5.656,5.185,5.9,4.95z"/>
	<path fill="#414042" d="M8.432,26.873H4.369c0.113-0.185,0.257-0.368,0.43-0.551s0.565-0.53,1.176-1.043
		c0.73-0.617,1.253-1.104,1.567-1.457c0.314-0.354,0.54-0.691,0.676-1.012c0.135-0.32,0.203-0.646,0.203-0.978
		c0-0.652-0.231-1.198-0.695-1.639c-0.463-0.44-1.092-0.661-1.887-0.661c-0.788,0-1.415,0.204-1.882,0.613
		c-0.467,0.408-0.736,1.003-0.809,1.782l1.046,0.107c0.004-0.52,0.152-0.927,0.446-1.221s0.686-0.44,1.176-0.44
		c0.463,0,0.839,0.139,1.127,0.415c0.288,0.277,0.432,0.617,0.432,1.021c0,0.384-0.158,0.792-0.475,1.223
		c-0.316,0.432-0.925,1.017-1.824,1.755c-0.581,0.475-1.024,0.893-1.331,1.254c-0.308,0.362-0.53,0.729-0.67,1.103
		c-0.087,0.226-0.126,0.461-0.118,0.706h5.475V26.873z"/>
	<path fill="#414042" d="M6.969,39.854c0.377-0.174,0.661-0.407,0.854-0.701c0.191-0.294,0.288-0.619,0.288-0.978
		c0-0.376-0.102-0.732-0.303-1.067c-0.201-0.336-0.492-0.6-0.873-0.794c-0.38-0.194-0.797-0.291-1.249-0.291
		c-0.655,0-1.203,0.188-1.644,0.563c-0.441,0.374-0.724,0.902-0.848,1.585l1.017,0.181c0.075-0.497,0.245-0.87,0.509-1.119
		s0.594-0.373,0.989-0.373c0.398,0,0.725,0.123,0.978,0.367c0.252,0.245,0.378,0.554,0.378,0.927c0,0.471-0.173,0.819-0.52,1.046
		c-0.347,0.226-0.736,0.339-1.17,0.339c-0.041,0-0.096-0.004-0.164-0.012l-0.112,0.893c0.286-0.075,0.525-0.112,0.718-0.112
		c0.471,0,0.858,0.151,1.163,0.454c0.306,0.304,0.458,0.689,0.458,1.156c0,0.489-0.165,0.9-0.494,1.231
		c-0.33,0.332-0.733,0.497-1.212,0.497c-0.403,0-0.745-0.127-1.025-0.381c-0.281-0.255-0.479-0.67-0.597-1.246l-1.017,0.136
		c0.067,0.689,0.342,1.25,0.821,1.684c0.48,0.434,1.084,0.649,1.812,0.649c0.806,0,1.473-0.251,2-0.754s0.791-1.116,0.791-1.839
		c0-0.535-0.136-0.98-0.406-1.337C7.839,40.201,7.458,39.967,6.969,39.854z"/>
</g>
</svg>
