<?xml version="1.0" encoding="utf-8"?>
<!-- Generator: Adobe Illustrator 16.0.0, SVG Export Plug-In . SVG Version: 6.00 Build 0)  -->
<!DOCTYPE svg PUBLIC "-//W3C//DTD SVG 1.1//EN" "http://www.w3.org/Graphics/SVG/1.1/DTD/svg11.dtd">
<svg version="1.1" id="Layer_1" xmlns="http://www.w3.org/2000/svg" xmlns:xlink="http://www.w3.org/1999/xlink" x="0px" y="0px"
	 width="48px" height="48px" viewBox="0 0 48 48" enable-background="new 0 0 48 48" xml:space="preserve">
<path fill="#414042" d="M45.352,0.945H1.781c-0.276,0-0.5,0.224-0.5,0.5v43.57c0,0.276,0.224,0.5,0.5,0.5h43.571
	c0.275,0,0.5-0.224,0.5-0.5V1.445C45.852,1.169,45.627,0.945,45.352,0.945z M15.341,38.008c-0.034,0.004-0.068,0.005-0.102,0.005
	c-0.507,0-0.942-0.384-0.994-0.899l-0.359-3.552L8.438,39.01c-0.195,0.195-0.451,0.293-0.707,0.293s-0.512-0.098-0.707-0.293
	c-0.391-0.391-0.391-1.023,0-1.414l5.449-5.449l-3.553-0.359c-0.55-0.056-0.95-0.546-0.895-1.096
	c0.055-0.55,0.545-0.948,1.096-0.895l5.649,0.572c0.061,0.006,0.113,0.031,0.17,0.048c0.044,0.013,0.087,0.018,0.13,0.036
	c0.229,0.101,0.41,0.282,0.511,0.511c0.018,0.042,0.024,0.086,0.036,0.13c0.017,0.057,0.042,0.109,0.048,0.17l0.571,5.648
	C16.291,37.462,15.891,37.952,15.341,38.008z M15.665,14.831c-0.006,0.061-0.031,0.113-0.048,0.17
	c-0.012,0.044-0.018,0.087-0.036,0.13c-0.101,0.229-0.282,0.41-0.511,0.511c-0.042,0.019-0.086,0.024-0.13,0.036
	c-0.057,0.017-0.109,0.042-0.17,0.048l-5.649,0.572c-0.034,0.003-0.068,0.005-0.102,0.005c-0.507,0-0.942-0.384-0.994-0.899
	c-0.056-0.549,0.345-1.04,0.895-1.096l3.553-0.36L7.024,8.499c-0.391-0.391-0.391-1.023,0-1.414s1.023-0.391,1.414,0l5.449,5.449
	l0.359-3.552c0.056-0.549,0.538-0.946,1.096-0.895c0.549,0.056,0.95,0.546,0.895,1.096L15.665,14.831z M40.357,39.01
	c-0.195,0.195-0.451,0.293-0.707,0.293s-0.512-0.098-0.707-0.293l-5.448-5.448l-0.358,3.552c-0.053,0.516-0.487,0.899-0.994,0.899
	c-0.033,0-0.068-0.001-0.102-0.005c-0.55-0.056-0.95-0.546-0.895-1.096l0.57-5.648c0.006-0.061,0.031-0.113,0.049-0.17
	c0.012-0.044,0.018-0.088,0.035-0.13c0.102-0.229,0.283-0.41,0.512-0.511c0.042-0.019,0.086-0.023,0.129-0.036
	c0.057-0.017,0.109-0.042,0.17-0.048l5.65-0.572c0.549-0.055,1.039,0.345,1.096,0.895c0.055,0.55-0.346,1.04-0.895,1.096
	l-3.554,0.359l5.448,5.449C40.748,37.986,40.748,38.619,40.357,39.01z M40.357,8.499l-5.448,5.449l3.554,0.36
	c0.549,0.056,0.949,0.546,0.895,1.096c-0.053,0.516-0.487,0.899-0.994,0.899c-0.034,0-0.068-0.001-0.102-0.005l-5.65-0.572
	c-0.061-0.006-0.113-0.031-0.17-0.048c-0.043-0.012-0.087-0.018-0.129-0.036c-0.229-0.101-0.41-0.282-0.512-0.511
	c-0.018-0.042-0.023-0.086-0.035-0.13c-0.018-0.057-0.043-0.109-0.049-0.17l-0.57-5.648c-0.056-0.549,0.345-1.04,0.895-1.096
	c0.557-0.051,1.039,0.346,1.096,0.895l0.358,3.552l5.448-5.449c0.391-0.391,1.023-0.391,1.414,0S40.748,8.108,40.357,8.499z"/>
</svg>
