<?xml version="1.0" encoding="utf-8"?>
<!-- Generator: Adobe Illustrator 16.0.0, SVG Export Plug-In . SVG Version: 6.00 Build 0)  -->
<!DOCTYPE svg PUBLIC "-//W3C//DTD SVG 1.1//EN" "http://www.w3.org/Graphics/SVG/1.1/DTD/svg11.dtd">
<svg version="1.1" id="Layer_1" xmlns="http://www.w3.org/2000/svg" xmlns:xlink="http://www.w3.org/1999/xlink" x="0px" y="0px"
	 width="48px" height="48px" viewBox="0 0 48 48" enable-background="new 0 0 48 48" xml:space="preserve">
<g>
	<path fill="#414042" d="M16.409,35.478c-0.425,0.353-0.483,0.983-0.13,1.407c0.198,0.238,0.482,0.361,0.77,0.361
		c0.225,0,0.452-0.076,0.639-0.23l5.971-4.961c0.019-0.017,0.027-0.043,0.045-0.061c0.058-0.055,0.097-0.123,0.141-0.19
		c0.026-0.044,0.064-0.077,0.084-0.124c0.056-0.126,0.091-0.263,0.091-0.408c0-0.004-0.002-0.006-0.002-0.009
		s0.002-0.005,0.002-0.008c0-0.054-0.026-0.103-0.035-0.155c-0.014-0.077-0.02-0.157-0.051-0.229
		c-0.036-0.086-0.096-0.156-0.156-0.23c-0.024-0.028-0.041-0.062-0.067-0.088c-0.021-0.02-0.03-0.049-0.052-0.066l-5.971-4.96
		c-0.425-0.354-1.055-0.294-1.408,0.13c-0.353,0.424-0.295,1.056,0.13,1.408l3.86,3.207H1.568c-0.552,0-1,0.447-1,1
		c0,0.552,0.448,1,1,1h18.699L16.409,35.478z"/>
	<path fill="#414042" d="M1.568,15.224h18.7l-3.859,3.206c-0.425,0.354-0.483,0.984-0.13,1.409c0.198,0.238,0.482,0.361,0.77,0.361
		c0.225,0,0.452-0.075,0.639-0.23l5.971-4.961c0.02-0.016,0.027-0.043,0.045-0.061c0.056-0.054,0.094-0.12,0.137-0.185
		c0.028-0.046,0.066-0.081,0.087-0.13c0.057-0.125,0.091-0.262,0.091-0.408c0-0.003-0.001-0.005-0.001-0.008
		s0.001-0.005,0.001-0.008c0-0.053-0.025-0.099-0.034-0.15c-0.014-0.08-0.021-0.162-0.052-0.233
		c-0.036-0.085-0.095-0.154-0.153-0.227c-0.025-0.03-0.042-0.065-0.071-0.092c-0.02-0.02-0.029-0.048-0.051-0.066l-5.971-4.959
		c-0.425-0.354-1.055-0.294-1.408,0.129c-0.353,0.425-0.295,1.056,0.13,1.409l3.86,3.206H1.568c-0.552,0-1,0.448-1,1
		C0.568,14.776,1.016,15.224,1.568,15.224z"/>
	<path fill="#414042" d="M45.803,4.082H10.718c-0.276,0-0.5,0.224-0.5,0.5v6.642h4.571c-0.415-0.473-0.67-1.062-0.729-1.7
		c-0.074-0.798,0.168-1.577,0.683-2.195c0.572-0.687,1.413-1.08,2.306-1.08c0.698,0,1.378,0.246,1.916,0.692l5.963,4.953
		c0.165,0.136,0.282,0.275,0.357,0.377c0.033,0.041,0.062,0.079,0.086,0.113c0.1,0.124,0.27,0.343,0.396,0.643
		c0.104,0.24,0.15,0.456,0.176,0.613c0.039,0.144,0.076,0.336,0.076,0.568c0,0.003,0,0.005,0,0.008s0,0.005,0,0.008
		c0,0.422-0.091,0.836-0.252,1.191c-0.095,0.224-0.21,0.389-0.278,0.479c-0.047,0.072-0.126,0.192-0.243,0.328
		c-0.094,0.12-0.201,0.233-0.31,0.323l-5.971,4.961c-0.538,0.446-1.218,0.692-1.917,0.692c-0.895,0-1.735-0.395-2.308-1.082
		c-0.512-0.617-0.754-1.396-0.68-2.193c0.059-0.639,0.313-1.228,0.729-1.7h-4.572v11.048h4.572c-0.415-0.473-0.67-1.063-0.729-1.701
		c-0.074-0.798,0.168-1.577,0.683-2.195c0.572-0.687,1.413-1.08,2.306-1.08c0.698,0,1.378,0.246,1.916,0.692l5.966,4.957
		c0.166,0.136,0.283,0.276,0.357,0.378c0.029,0.038,0.055,0.071,0.074,0.098c0.104,0.129,0.279,0.354,0.402,0.65
		c0.105,0.241,0.151,0.457,0.178,0.609c0.037,0.146,0.076,0.34,0.076,0.575c0,0.003,0,0.006,0,0.008c0,0.003,0,0.006,0,0.009
		c0,0.418-0.09,0.83-0.25,1.187c-0.087,0.206-0.19,0.362-0.273,0.474c-0.053,0.083-0.143,0.218-0.266,0.358
		c-0.09,0.112-0.191,0.218-0.294,0.303l-5.971,4.961c-0.538,0.446-1.218,0.692-1.917,0.692c-0.895,0-1.735-0.395-2.308-1.082
		c-0.512-0.617-0.754-1.396-0.68-2.193c0.059-0.639,0.313-1.228,0.729-1.699h-4.571v8.699c0,0.276,0.224,0.5,0.5,0.5h35.084
		c0.275,0,0.5-0.224,0.5-0.5V4.582C46.303,4.306,46.078,4.082,45.803,4.082z"/>
</g>
</svg>
