<?xml version="1.0" encoding="utf-8"?>
<!-- Generator: Adobe Illustrator 16.0.0, SVG Export Plug-In . SVG Version: 6.00 Build 0)  -->
<!DOCTYPE svg PUBLIC "-//W3C//DTD SVG 1.1//EN" "http://www.w3.org/Graphics/SVG/1.1/DTD/svg11.dtd">
<svg version="1.1" id="Layer_1" xmlns="http://www.w3.org/2000/svg" xmlns:xlink="http://www.w3.org/1999/xlink" x="0px" y="0px"
	 width="48px" height="48px" viewBox="0 0 48 48" enable-background="new 0 0 48 48" xml:space="preserve">
<g>
	<path fill="#414042" d="M45.302,30.271H26.601l3.86-3.207c0.425-0.353,0.482-0.984,0.13-1.408c-0.354-0.424-0.983-0.483-1.408-0.13
		l-5.971,4.96c-0.022,0.018-0.032,0.047-0.052,0.066c-0.026,0.026-0.043,0.06-0.067,0.088c-0.06,0.074-0.12,0.145-0.156,0.23
		c-0.031,0.071-0.037,0.151-0.051,0.229c-0.009,0.053-0.035,0.102-0.035,0.155c0,0.003,0.002,0.005,0.002,0.008
		s-0.002,0.005-0.002,0.009c0,0.146,0.035,0.282,0.091,0.408c0.02,0.047,0.058,0.08,0.084,0.124c0.043,0.067,0.083,0.136,0.141,0.19
		c0.018,0.018,0.026,0.044,0.045,0.061l5.971,4.961c0.187,0.154,0.413,0.23,0.639,0.23c0.287,0,0.571-0.123,0.77-0.361
		c0.353-0.424,0.295-1.055-0.13-1.407l-3.858-3.206h18.699c0.552,0,1-0.448,1-1C46.302,30.719,45.854,30.271,45.302,30.271z"/>
	<path fill="#414042" d="M30.461,10.018c0.425-0.353,0.482-0.984,0.13-1.409c-0.354-0.423-0.983-0.483-1.408-0.129l-5.971,4.959
		c-0.022,0.018-0.031,0.046-0.051,0.066c-0.028,0.027-0.046,0.062-0.071,0.092c-0.058,0.073-0.117,0.142-0.153,0.227
		c-0.031,0.072-0.038,0.153-0.052,0.233c-0.008,0.051-0.034,0.098-0.034,0.15c0,0.002,0.001,0.005,0.001,0.008
		s-0.001,0.005-0.001,0.008c0,0.146,0.035,0.283,0.091,0.408c0.021,0.049,0.06,0.084,0.087,0.13
		c0.043,0.064,0.081,0.131,0.137,0.185c0.018,0.018,0.026,0.045,0.045,0.061l5.971,4.961c0.187,0.155,0.413,0.23,0.639,0.23
		c0.287,0,0.571-0.123,0.77-0.361c0.353-0.425,0.295-1.055-0.13-1.409l-3.859-3.206h18.7c0.552,0,1-0.447,1-1c0-0.552-0.448-1-1-1
		h-18.7L30.461,10.018z"/>
	<path fill="#414042" d="M32.809,35.971c0.074,0.798-0.168,1.576-0.68,2.193c-0.572,0.688-1.413,1.082-2.308,1.082
		c-0.698,0-1.379-0.246-1.917-0.692l-5.971-4.961c-0.102-0.085-0.204-0.19-0.293-0.303c-0.124-0.141-0.213-0.275-0.266-0.358
		c-0.083-0.111-0.187-0.268-0.274-0.474c-0.16-0.356-0.249-0.769-0.249-1.187c0-0.003,0-0.006,0-0.009c0-0.002,0-0.005,0-0.008
		c0-0.235,0.038-0.43,0.076-0.575c0.026-0.152,0.071-0.368,0.177-0.609c0.124-0.297,0.299-0.521,0.403-0.65
		c0.019-0.026,0.044-0.06,0.074-0.098c0.074-0.102,0.191-0.242,0.357-0.378l5.966-4.957c0.538-0.446,1.219-0.692,1.916-0.692
		c0.894,0,1.734,0.394,2.307,1.08c0.514,0.619,0.756,1.397,0.682,2.195c-0.059,0.639-0.313,1.229-0.729,1.701h4.572V17.224H32.08
		c0.416,0.473,0.67,1.062,0.729,1.7c0.074,0.798-0.168,1.577-0.68,2.193c-0.572,0.688-1.413,1.082-2.308,1.082
		c-0.698,0-1.379-0.246-1.917-0.692l-5.971-4.961c-0.108-0.09-0.216-0.203-0.31-0.323c-0.117-0.136-0.196-0.256-0.243-0.328
		c-0.068-0.091-0.184-0.256-0.279-0.479c-0.161-0.355-0.251-0.769-0.251-1.191c0-0.003,0-0.005,0-0.008s0-0.005,0-0.008
		c0-0.232,0.037-0.425,0.075-0.568c0.026-0.157,0.072-0.374,0.177-0.613c0.126-0.3,0.296-0.519,0.396-0.643
		c0.024-0.034,0.052-0.072,0.085-0.113c0.076-0.102,0.193-0.242,0.357-0.377l5.962-4.953c0.538-0.446,1.219-0.692,1.916-0.692
		c0.894,0,1.734,0.394,2.307,1.08c0.514,0.619,0.756,1.397,0.682,2.195c-0.059,0.639-0.313,1.228-0.729,1.7h4.572V4.582
		c0-0.276-0.225-0.5-0.5-0.5H1.068c-0.276,0-0.5,0.224-0.5,0.5v38.389c0,0.276,0.224,0.5,0.5,0.5h35.084c0.275,0,0.5-0.224,0.5-0.5
		v-8.699H32.08C32.496,34.743,32.75,35.332,32.809,35.971z"/>
</g>
</svg>
