<?xml version="1.0" encoding="utf-8"?>
<!-- Generator: Adobe Illustrator 16.0.0, SVG Export Plug-In . SVG Version: 6.00 Build 0)  -->
<!DOCTYPE svg PUBLIC "-//W3C//DTD SVG 1.1//EN" "http://www.w3.org/Graphics/SVG/1.1/DTD/svg11.dtd">
<svg version="1.1" id="Layer_1" xmlns="http://www.w3.org/2000/svg" xmlns:xlink="http://www.w3.org/1999/xlink" x="0px" y="0px"
	 width="48px" height="48px" viewBox="0 0 48 48" enable-background="new 0 0 48 48" xml:space="preserve">
<g>
	<path fill="#414042" d="M24.885,0.199c-12.667,0-22.973,9.432-22.973,21.025c0,3.96,1.428,8.353,3.829,11.806L0.178,47.229
		c-0.075,0.191-0.026,0.408,0.124,0.548c0.094,0.089,0.217,0.135,0.341,0.135c0.072,0,0.145-0.016,0.213-0.048l14.087-6.644
		c2.624,0.811,7.451,1.029,9.942,1.029c12.667,0,22.972-9.432,22.972-21.025C47.857,9.63,37.552,0.199,24.885,0.199z M24.885,41.249
		c-2.322,0-7.362-0.217-9.818-1.04c-0.121-0.04-0.255-0.033-0.372,0.021L1.567,46.423l5.203-13.279
		c0.062-0.157,0.04-0.336-0.059-0.474c-2.379-3.322-3.799-7.602-3.799-11.446c0-11.042,9.857-20.025,21.973-20.025
		c12.115,0,21.972,8.983,21.972,20.025S37,41.249,24.885,41.249z"/>
	<path fill="#414042" d="M25.578,28.874c-1.225,0-2.222,0.996-2.222,2.221c0,1.226,0.997,2.222,2.222,2.222
		c1.225,0,2.221-0.996,2.221-2.222C27.799,29.87,26.803,28.874,25.578,28.874z M25.578,32.316c-0.674,0-1.222-0.548-1.222-1.222
		c0-0.673,0.548-1.221,1.222-1.221c0.673,0,1.221,0.548,1.221,1.221C26.799,31.769,26.251,32.316,25.578,32.316z"/>
	<path fill="#414042" d="M26.471,10.138c-1.366,0-2.855,0.46-3.792,1.173c-0.22,0.167-0.262,0.48-0.095,0.701
		c0.167,0.22,0.48,0.263,0.701,0.095c0.763-0.58,2.043-0.969,3.179-0.969c1.801,0.029,2.791,0.907,2.791,2.473
		c0,1.423-0.844,2.695-2.304,4.414c-1.733,2.081-2.492,4.218-2.257,6.337l0.069,0.899c0.02,0.262,0.239,0.461,0.498,0.461
		c0.013,0,0.026,0,0.039-0.001c0.275-0.021,0.481-0.262,0.46-0.537l-0.07-0.916c-0.207-1.855,0.477-3.74,2.025-5.6
		c1.609-1.893,2.539-3.328,2.539-5.058C30.254,11.474,28.844,10.175,26.471,10.138z"/>
</g>
</svg>
