<?xml version="1.0" encoding="utf-8"?>
<!-- Generator: Adobe Illustrator 16.0.0, SVG Export Plug-In . SVG Version: 6.00 Build 0)  -->
<!DOCTYPE svg PUBLIC "-//W3C//DTD SVG 1.1//EN" "http://www.w3.org/Graphics/SVG/1.1/DTD/svg11.dtd">
<svg version="1.1" id="Layer_1" xmlns="http://www.w3.org/2000/svg" xmlns:xlink="http://www.w3.org/1999/xlink" x="0px" y="0px"
	 width="48px" height="48px" viewBox="0 0 48 48" enable-background="new 0 0 48 48" xml:space="preserve">
<g>
	<path fill="#414042" d="M24.866,0.7c-12.401,0-22.49,9.234-22.49,20.585c0,3.876,1.396,8.174,3.746,11.555L0.679,46.729
		c-0.075,0.19-0.026,0.407,0.124,0.548c0.094,0.088,0.217,0.135,0.341,0.135c0.072,0,0.145-0.016,0.213-0.048l13.782-6.5
		c2.57,0.793,7.29,1.007,9.727,1.007c12.4,0,22.489-9.234,22.489-20.585C47.355,9.934,37.267,0.7,24.866,0.7z M24.866,40.87
		c-2.271,0-7.2-0.213-9.603-1.017c-0.122-0.04-0.256-0.033-0.372,0.021L2.069,45.922l5.082-12.968
		c0.062-0.158,0.04-0.336-0.059-0.474c-2.327-3.25-3.716-7.435-3.716-11.196c0-10.799,9.641-19.585,21.49-19.585
		c11.849,0,21.489,8.786,21.489,19.585S36.715,40.87,24.866,40.87z"/>
	<path fill="#414042" d="M24.692,17.511c-0.276,0-0.5,0.224-0.5,0.5V32.28c0,0.276,0.224,0.5,0.5,0.5s0.5-0.224,0.5-0.5V18.011
		C25.192,17.735,24.969,17.511,24.692,17.511z"/>
	<path fill="#414042" d="M24.694,10.354c-1.195,0-2.168,0.971-2.168,2.165c0,1.195,0.973,2.167,2.168,2.167
		c1.194,0,2.166-0.972,2.166-2.167C26.859,11.325,25.888,10.354,24.694,10.354z M24.694,13.686c-0.644,0-1.168-0.523-1.168-1.167
		c0-0.643,0.524-1.165,1.168-1.165c0.642,0,1.166,0.522,1.166,1.165C25.859,13.162,25.336,13.686,24.694,13.686z"/>
</g>
</svg>
