<?xml version="1.0" encoding="utf-8"?>
<!-- Generator: Adobe Illustrator 16.0.0, SVG Export Plug-In . SVG Version: 6.00 Build 0)  -->
<!DOCTYPE svg PUBLIC "-//W3C//DTD SVG 1.1//EN" "http://www.w3.org/Graphics/SVG/1.1/DTD/svg11.dtd">
<svg version="1.1" id="Layer_1" xmlns="http://www.w3.org/2000/svg" xmlns:xlink="http://www.w3.org/1999/xlink" x="0px" y="0px"
	 width="48px" height="48px" viewBox="0 0 48 48" enable-background="new 0 0 48 48" xml:space="preserve">
<g>
	<path fill="#414042" d="M24.871,0.555c-12.478,0-22.629,9.291-22.629,20.711c0,3.9,1.406,8.225,3.77,11.626l-5.478,13.98
		c-0.075,0.19-0.026,0.408,0.124,0.548C0.753,47.509,0.876,47.556,1,47.556c0.072,0,0.145-0.016,0.213-0.048l13.87-6.544
		c2.588,0.799,7.337,1.015,9.788,1.015c12.478,0,22.629-9.291,22.629-20.712C47.5,9.846,37.349,0.555,24.871,0.555z M24.871,40.979
		c-2.284,0-7.243-0.214-9.665-1.024c-0.122-0.041-0.255-0.033-0.372,0.021l-12.91,6.091l5.117-13.06
		c0.062-0.157,0.04-0.336-0.059-0.474c-2.342-3.271-3.741-7.481-3.741-11.267c0-10.869,9.703-19.711,21.629-19.711
		c11.926,0,21.629,8.842,21.629,19.711S36.797,40.979,24.871,40.979z"/>
	<path fill="#414042" d="M30.541,29.41c-6.403,4.254-11.218,0.213-11.418,0.039c-0.21-0.181-0.526-0.158-0.705,0.051
		c-0.181,0.208-0.159,0.523,0.049,0.704c0.037,0.032,2.502,2.123,6.234,2.123c1.864,0,4.043-0.522,6.393-2.084
		c0.23-0.152,0.293-0.463,0.141-0.693C31.08,29.32,30.771,29.256,30.541,29.41z"/>
	<path fill="#414042" d="M31.979,11.766c-1.686,0-3.057,1.372-3.057,3.057c0,1.686,1.371,3.058,3.057,3.058s3.057-1.372,3.057-3.058
		C35.036,13.137,33.665,11.766,31.979,11.766z M31.979,16.88c-1.134,0-2.057-0.923-2.057-2.058c0-1.134,0.923-2.057,2.057-2.057
		s2.057,0.923,2.057,2.057C34.036,15.958,33.113,16.88,31.979,16.88z"/>
	<path fill="#414042" d="M21.851,14.824c0-1.686-1.371-3.057-3.056-3.057c-1.687,0-3.059,1.371-3.059,3.057
		c0,1.685,1.372,3.056,3.059,3.056C20.48,17.88,21.851,16.509,21.851,14.824z M16.736,14.824c0-1.134,0.923-2.057,2.059-2.057
		c1.133,0,2.056,0.922,2.056,2.057c0,1.134-0.922,2.056-2.056,2.056C17.66,16.88,16.736,15.958,16.736,14.824z"/>
</g>
</svg>
