<?xml version="1.0" encoding="utf-8"?>
<!-- Generator: Adobe Illustrator 16.0.0, SVG Export Plug-In . SVG Version: 6.00 Build 0)  -->
<!DOCTYPE svg PUBLIC "-//W3C//DTD SVG 1.1//EN" "http://www.w3.org/Graphics/SVG/1.1/DTD/svg11.dtd">
<svg version="1.1" id="Layer_1" xmlns="http://www.w3.org/2000/svg" xmlns:xlink="http://www.w3.org/1999/xlink" x="0px" y="0px"
	 width="48px" height="48px" viewBox="0 0 48 48" enable-background="new 0 0 48 48" xml:space="preserve">
<g>
	<path fill="#414042" d="M24.866,0.7c-12.401,0-22.49,9.234-22.49,20.585c0,3.876,1.396,8.174,3.746,11.555L0.679,46.729
		c-0.075,0.19-0.026,0.407,0.124,0.548c0.094,0.088,0.217,0.135,0.341,0.135c0.072,0,0.145-0.016,0.213-0.048l13.782-6.5
		c2.57,0.793,7.29,1.007,9.727,1.007c12.4,0,22.489-9.234,22.489-20.585C47.355,9.934,37.267,0.7,24.866,0.7z M24.866,40.87
		c-2.271,0-7.2-0.213-9.603-1.017c-0.122-0.04-0.256-0.033-0.372,0.021L2.069,45.922l5.082-12.968
		c0.062-0.158,0.04-0.336-0.059-0.474c-2.327-3.25-3.716-7.435-3.716-11.196c0-10.799,9.641-19.585,21.49-19.585
		c11.849,0,21.489,8.786,21.489,19.585S36.715,40.87,24.866,40.87z"/>
	<path fill="#414042" d="M17.656,18.682c2.058,0,3.732-1.674,3.732-3.732c0-2.058-1.674-3.731-3.732-3.731
		c-2.058,0-3.732,1.674-3.732,3.731C13.924,17.008,15.599,18.682,17.656,18.682z M17.656,12.218c1.507,0,2.732,1.225,2.732,2.731
		c0,1.507-1.226,2.732-2.732,2.732c-1.506,0-2.732-1.226-2.732-2.732C14.924,13.443,16.15,12.218,17.656,12.218z"/>
	<path fill="#414042" d="M26.166,18.682c2.057,0,3.731-1.674,3.731-3.732c0-2.058-1.675-3.731-3.731-3.731
		c-2.059,0-3.733,1.674-3.733,3.731C22.433,17.008,24.107,18.682,26.166,18.682z M26.166,12.218c1.506,0,2.731,1.225,2.731,2.731
		c0,1.507-1.226,2.732-2.731,2.732c-1.507,0-2.733-1.226-2.733-2.732C23.433,13.443,24.659,12.218,26.166,12.218z"/>
	<path fill="#414042" d="M36.145,18.534c-1.165,0-1.858,0.624-2.662,1.346l-1.324,1.198h-1.906v-1.81c0-0.276-0.224-0.5-0.5-0.5
		H13.856c-0.276,0-0.5,0.224-0.5,0.5V29.38c0,0.276,0.224,0.5,0.5,0.5h15.896c0.276,0,0.5-0.224,0.5-0.5v-1.81h1.685l1.354,1.226
		l0.09,0.074c1.01,0.828,1.517,1.244,2.764,1.244c0.275,0,0.5-0.224,0.5-0.5V19.034C36.645,18.757,36.42,18.534,36.145,18.534z
		 M29.252,28.88H14.356v-9.112h14.896V28.88z M30.252,22.078h1.527v4.493h-1.527V22.078z M35.645,29.079
		c-0.543-0.091-0.881-0.368-1.629-0.982l-1.236-1.112v-5.121l1.373-1.24c0.579-0.521,0.982-0.884,1.492-1.025V29.079z"/>
</g>
</svg>
