<?xml version="1.0" encoding="utf-8"?>
<!-- Generator: Adobe Illustrator 16.0.0, SVG Export Plug-In . SVG Version: 6.00 Build 0)  -->
<!DOCTYPE svg PUBLIC "-//W3C//DTD SVG 1.1//EN" "http://www.w3.org/Graphics/SVG/1.1/DTD/svg11.dtd">
<svg version="1.1" id="Layer_1" xmlns="http://www.w3.org/2000/svg" xmlns:xlink="http://www.w3.org/1999/xlink" x="0px" y="0px"
	 width="48px" height="48px" viewBox="0 0 48 48" enable-background="new 0 0 48 48" xml:space="preserve">
<path fill="#414042" d="M43.646,4.958H4.356c-1.712,0-3.105,1.187-3.105,2.646l0,20.777c0.077,1.843,1.604,2.498,2.965,2.498
	c0.001,0,0.003,0,0.005,0h21.941L24.84,42.597c-0.023,0.208,0.085,0.409,0.272,0.503c0.071,0.036,0.147,0.054,0.225,0.054
	c0.124,0,0.247-0.047,0.341-0.135l12.418-11.609h5.55c1.712,0,3.104-1.189,3.104-2.652V7.604
	C46.749,6.145,45.357,4.958,43.646,4.958z M45.749,28.757c0,0.911-0.944,1.652-2.104,1.652h-5.747c-0.127,0-0.249,0.048-0.342,0.135
	l-11.57,10.818l1.233-10.928c0.016-0.142-0.029-0.283-0.124-0.389c-0.096-0.106-0.23-0.167-0.373-0.167L4.145,29.88
	c-0.55,0-1.836-0.149-1.894-1.52V7.604c0-0.908,0.944-1.646,2.105-1.646h39.289c1.159,0,2.104,0.739,2.104,1.646V28.757z"/>
</svg>
