<?xml version="1.0" encoding="utf-8"?>
<!-- Generator: Adobe Illustrator 16.0.0, SVG Export Plug-In . SVG Version: 6.00 Build 0)  -->
<!DOCTYPE svg PUBLIC "-//W3C//DTD SVG 1.1//EN" "http://www.w3.org/Graphics/SVG/1.1/DTD/svg11.dtd">
<svg version="1.1" id="Layer_1" xmlns="http://www.w3.org/2000/svg" xmlns:xlink="http://www.w3.org/1999/xlink" x="0px" y="0px"
	 width="48px" height="48px" viewBox="0 0 48 48" enable-background="new 0 0 48 48" xml:space="preserve">
<path fill="#414042" d="M24,0.342c-10.846,0-19.669,8.269-19.669,18.434c0,8.632,6.471,16.161,15.429,18.005l3.769,10.653
	c0.07,0.198,0.256,0.332,0.467,0.334c0.001,0,0.003,0,0.004,0c0.208,0,0.395-0.13,0.468-0.325l4.004-10.712
	c8.822-1.923,15.195-9.433,15.195-17.956C43.668,8.611,34.846,0.342,24,0.342z M28.001,35.81c-0.169,0.034-0.308,0.153-0.368,0.314
	l-3.619,9.682l-3.405-9.626c-0.059-0.167-0.203-0.291-0.377-0.324c-8.634-1.653-14.9-8.836-14.9-17.08
	C5.332,9.163,13.707,1.342,24,1.342c10.293,0,18.667,7.821,18.667,17.434C42.668,26.913,36.5,34.077,28.001,35.81z"/>
</svg>
