<?xml version="1.0" encoding="utf-8"?>
<!-- Generator: Adobe Illustrator 16.0.0, SVG Export Plug-In . SVG Version: 6.00 Build 0)  -->
<!DOCTYPE svg PUBLIC "-//W3C//DTD SVG 1.1//EN" "http://www.w3.org/Graphics/SVG/1.1/DTD/svg11.dtd">
<svg version="1.1" id="Layer_1" xmlns="http://www.w3.org/2000/svg" xmlns:xlink="http://www.w3.org/1999/xlink" x="0px" y="0px"
	 width="48px" height="48px" viewBox="0 0 48 48" enable-background="new 0 0 48 48" xml:space="preserve">
<path fill="#414042" d="M43.018,42.904l-3.186-8.132c1.502-2.136,2.396-4.863,2.396-7.318c0-5.091-3.261-9.681-8.325-11.776
	C32.951,9.388,27.05,4.524,19.915,4.524c-7.797,0-14.141,5.8-14.141,12.93c0,2.456,0.893,5.182,2.396,7.318l-3.187,8.132
	c-0.075,0.19-0.026,0.408,0.124,0.548c0.094,0.088,0.217,0.135,0.341,0.135c0.072,0,0.145-0.016,0.213-0.048l8.064-3.806
	c0.149,0.048,0.313,0.091,0.481,0.132c1.262,6.113,7.034,10.519,13.879,10.519c0.171,0,4.182-0.008,6.188-0.65l8.063,3.806
	c0.068,0.032,0.142,0.048,0.214,0.048c0.124,0,0.247-0.047,0.341-0.135C43.043,43.313,43.092,43.095,43.018,42.904z M13.364,28.799
	l-6.991,3.299l2.765-7.054c0.101-0.264,0.063-0.555-0.099-0.776c-1.418-1.98-2.264-4.528-2.264-6.814
	c0-6.578,5.895-11.93,13.141-11.93c7.243,0,13.137,5.352,13.137,11.93s-5.894,11.93-13.137,11.93c-1.414,0-4.475-0.13-5.943-0.622
	C13.771,28.696,13.545,28.711,13.364,28.799z M34.639,38.8c-0.189-0.091-0.412-0.104-0.613-0.037
	c-1.464,0.491-4.524,0.621-5.938,0.621c-6.215,0-11.473-3.877-12.808-9.313c2.033,0.308,4.502,0.313,4.636,0.313
	c7.795,0,14.137-5.801,14.137-12.93c0-0.215-0.024-0.425-0.035-0.638c4.404,2.026,7.211,6.122,7.211,10.638
	c0,2.284-0.847,4.831-2.261,6.81c-0.165,0.226-0.203,0.517-0.102,0.782l2.762,7.052L34.639,38.8z"/>
</svg>
