<?xml version="1.0" encoding="utf-8"?>
<!-- Generator: Adobe Illustrator 16.0.0, SVG Export Plug-In . SVG Version: 6.00 Build 0)  -->
<!DOCTYPE svg PUBLIC "-//W3C//DTD SVG 1.1//EN" "http://www.w3.org/Graphics/SVG/1.1/DTD/svg11.dtd">
<svg version="1.1" id="Layer_1" xmlns="http://www.w3.org/2000/svg" xmlns:xlink="http://www.w3.org/1999/xlink" x="0px" y="0px"
	 width="48px" height="48px" viewBox="0 0 48 48" enable-background="new 0 0 48 48" xml:space="preserve">
<g>
	<path fill="#414042" d="M44.333,4.526H3.667c-1.378,0-2.5,1.122-2.5,2.5v21.602c0,1.378,1.122,2.5,2.5,2.5h32.874l9.395,12.261
		c0.098,0.126,0.245,0.195,0.397,0.195c0.054,0,0.108-0.009,0.161-0.026c0.202-0.068,0.339-0.259,0.339-0.474V7.026
		C46.833,5.648,45.711,4.526,44.333,4.526z M45.833,41.609l-8.647-11.286c-0.096-0.123-0.242-0.195-0.397-0.195H3.667
		c-0.827,0-1.5-0.673-1.5-1.5V7.026c0-0.827,0.673-1.5,1.5-1.5h40.666c0.827,0,1.5,0.673,1.5,1.5V41.609z"/>
	<path fill="#414042" d="M12.788,14.278c-1.723,0-3.125,1.402-3.125,3.125s1.402,3.125,3.125,3.125s3.125-1.402,3.125-3.125
		S14.511,14.278,12.788,14.278z M12.788,19.528c-1.172,0-2.125-0.953-2.125-2.125s0.953-2.125,2.125-2.125s2.125,0.953,2.125,2.125
		S13.96,19.528,12.788,19.528z"/>
	<path fill="#414042" d="M23.288,14.278c-1.723,0-3.125,1.402-3.125,3.125s1.402,3.125,3.125,3.125c1.724,0,3.125-1.402,3.125-3.125
		S25.012,14.278,23.288,14.278z M23.288,19.528c-1.172,0-2.125-0.953-2.125-2.125s0.953-2.125,2.125-2.125s2.125,0.953,2.125,2.125
		S24.46,19.528,23.288,19.528z"/>
	<path fill="#414042" d="M33.788,14.278c-1.724,0-3.125,1.402-3.125,3.125s1.401,3.125,3.125,3.125s3.125-1.402,3.125-3.125
		S35.512,14.278,33.788,14.278z M33.788,19.528c-1.172,0-2.125-0.953-2.125-2.125s0.953-2.125,2.125-2.125s2.125,0.953,2.125,2.125
		S34.96,19.528,33.788,19.528z"/>
</g>
</svg>
