<?xml version="1.0" encoding="utf-8"?>
<!-- Generator: Adobe Illustrator 16.0.0, SVG Export Plug-In . SVG Version: 6.00 Build 0)  -->
<!DOCTYPE svg PUBLIC "-//W3C//DTD SVG 1.1//EN" "http://www.w3.org/Graphics/SVG/1.1/DTD/svg11.dtd">
<svg version="1.1" id="Layer_1" xmlns="http://www.w3.org/2000/svg" xmlns:xlink="http://www.w3.org/1999/xlink" x="0px" y="0px"
	 width="48px" height="48px" viewBox="0 0 48 48" enable-background="new 0 0 48 48" xml:space="preserve">
<g>
	<path fill="#414042" d="M37.229,3.628H10.773c-1.413,0-2.562,1.148-2.562,2.561v25.425c0,1.411,1.149,2.56,2.562,2.56h17.141
		l3.152,9.959c0.064,0.203,0.25,0.343,0.463,0.35c0.004,0,0.01,0,0.014,0c0.207,0,0.393-0.128,0.467-0.321l3.828-9.987h1.391
		c1.412,0,2.561-1.148,2.561-2.56V6.189C39.789,4.777,38.641,3.628,37.229,3.628z M38.789,31.614c0,0.859-0.701,1.56-1.561,1.56
		h-1.734c-0.207,0-0.393,0.127-0.467,0.321l-3.439,8.973l-2.832-8.945c-0.065-0.208-0.258-0.349-0.477-0.349H10.773
		c-0.861,0-1.562-0.7-1.562-1.56V6.189c0-0.86,0.701-1.561,1.562-1.561h26.456c0.859,0,1.561,0.7,1.561,1.561V31.614z"/>
	<path fill="#414042" d="M15.303,11.886h9.679c0.276,0,0.5-0.224,0.5-0.5s-0.225-0.5-0.5-0.5h-9.679c-0.276,0-0.5,0.224-0.5,0.5
		S15.027,11.886,15.303,11.886z"/>
	<path fill="#414042" d="M32.697,18.615H15.303c-0.276,0-0.5,0.224-0.5,0.5s0.224,0.5,0.5,0.5h17.394c0.277,0,0.5-0.224,0.5-0.5
		S32.975,18.615,32.697,18.615z"/>
	<path fill="#414042" d="M32.697,26.346H15.303c-0.276,0-0.5,0.224-0.5,0.5s0.224,0.5,0.5,0.5h17.394c0.277,0,0.5-0.224,0.5-0.5
		S32.975,26.346,32.697,26.346z"/>
</g>
</svg>
