<?xml version="1.0" encoding="utf-8"?>
<!-- Generator: Adobe Illustrator 16.0.0, SVG Export Plug-In . SVG Version: 6.00 Build 0)  -->
<!DOCTYPE svg PUBLIC "-//W3C//DTD SVG 1.1//EN" "http://www.w3.org/Graphics/SVG/1.1/DTD/svg11.dtd">
<svg version="1.1" id="Layer_1" xmlns="http://www.w3.org/2000/svg" xmlns:xlink="http://www.w3.org/1999/xlink" x="0px" y="0px"
	 width="48px" height="48px" viewBox="0 0 48 48" enable-background="new 0 0 48 48" xml:space="preserve">
<g>
	<path fill="#414042" d="M25.463,7.911C13.242,7.911,3.3,14.844,3.3,23.367c0,2.179,0.633,4.281,1.882,6.253l-4.76,9.89
		c-0.083,0.172-0.056,0.376,0.067,0.521c0.093,0.108,0.227,0.169,0.366,0.169c0.045,0,0.092-0.007,0.137-0.021l12.596-3.754
		c3.549,1.568,7.65,2.396,11.875,2.396c12.221,0,22.163-6.933,22.163-15.455C47.626,14.844,37.684,7.911,25.463,7.911z
		 M25.463,37.86c-4.155,0-8.182-0.825-11.645-2.385c-0.106-0.048-0.223-0.055-0.335-0.022L1.759,38.947l4.406-9.154
		c0.074-0.152,0.062-0.332-0.032-0.473c-1.242-1.878-1.872-3.882-1.872-5.954c0-7.993,9.511-14.495,21.202-14.495
		s21.202,6.502,21.202,14.495C46.665,31.358,37.153,37.86,25.463,37.86z"/>
	<path fill="#414042" d="M15.479,21.192c-1.579,0-2.863,1.284-2.863,2.863c0,1.578,1.284,2.861,2.863,2.861s2.863-1.283,2.863-2.861
		C18.341,22.477,17.057,21.192,15.479,21.192z M15.479,25.956c-1.048,0-1.902-0.853-1.902-1.9c0-1.049,0.854-1.903,1.902-1.903
		s1.902,0.854,1.902,1.903C17.38,25.104,16.527,25.956,15.479,25.956z"/>
	<path fill="#414042" d="M25.006,21.192c-1.578,0-2.861,1.284-2.861,2.863c0,1.578,1.284,2.861,2.861,2.861
		c1.579,0,2.863-1.283,2.863-2.861C27.869,22.477,26.585,21.192,25.006,21.192z M25.006,25.956c-1.048,0-1.9-0.853-1.9-1.9
		c0-1.049,0.853-1.903,1.9-1.903c1.049,0,1.902,0.854,1.902,1.903C26.908,25.104,26.055,25.956,25.006,25.956z"/>
	<path fill="#414042" d="M34.535,21.192c-1.578,0-2.862,1.284-2.862,2.863c0,1.578,1.284,2.861,2.862,2.861
		c1.579,0,2.863-1.283,2.863-2.861C37.398,22.477,36.114,21.192,34.535,21.192z M34.535,25.956c-1.048,0-1.901-0.853-1.901-1.9
		c0-1.049,0.854-1.903,1.901-1.903c1.049,0,1.902,0.854,1.902,1.903C36.438,25.104,35.584,25.956,34.535,25.956z"/>
</g>
</svg>
