<?xml version="1.0" encoding="utf-8"?>
<!-- Generator: Adobe Illustrator 16.0.0, SVG Export Plug-In . SVG Version: 6.00 Build 0)  -->
<!DOCTYPE svg PUBLIC "-//W3C//DTD SVG 1.1//EN" "http://www.w3.org/Graphics/SVG/1.1/DTD/svg11.dtd">
<svg version="1.1" id="Layer_1" xmlns="http://www.w3.org/2000/svg" xmlns:xlink="http://www.w3.org/1999/xlink" x="0px" y="0px"
	 width="48px" height="48px" viewBox="0 0 48 48" enable-background="new 0 0 48 48" xml:space="preserve">
<path fill="#414042" d="M42.983,16.3c1.662,0,3.015-1.156,3.015-2.576V3.25c0-1.419-1.353-2.573-3.015-2.573H5.02
	c-1.664,0-3.018,1.154-3.018,2.573v10.141c0,1.354,1.21,2.414,2.836,2.414c0,0,0.002,0,0.002,0l6.822-0.016l-0.956,6.888H5.017
	c-1.662,0-3.015,1.154-3.015,2.573v10.474c0,1.421,1.353,2.576,3.015,2.576h19.781l12.004,9.033
	c0.089,0.067,0.194,0.101,0.301,0.101c0.087,0,0.175-0.022,0.253-0.068c0.175-0.103,0.27-0.3,0.242-0.5l-1.26-9.076l6.81,0.016
	c0.847,0.016,1.619-0.265,2.156-0.787c0.448-0.437,0.694-1.014,0.694-1.627V25.25c0-1.419-1.354-2.573-3.018-2.573H14.728
	l8.474-6.377H42.983z M42.98,23.677c1.112,0,2.018,0.706,2.018,1.573v10.141c0,0.346-0.136,0.66-0.393,0.91
	c-0.344,0.335-0.855,0.509-1.443,0.504l-7.397-0.018h-0.001c-0.145,0-0.281,0.063-0.377,0.172c-0.095,0.108-0.139,0.254-0.118,0.397
	l1.173,8.454L25.266,37.4c-0.087-0.065-0.192-0.101-0.301-0.101H5.017c-1.111,0-2.015-0.707-2.015-1.576V25.25
	c0-0.868,0.904-1.573,2.015-1.573h5.551l-0.165,1.188c-0.028,0.201,0.067,0.398,0.242,0.5c0.079,0.046,0.166,0.068,0.253,0.068
	c0.106,0,0.212-0.033,0.301-0.101l2.201-1.656H42.98z M22.734,15.4l-11.176,8.41l1.173-8.455c0.02-0.144-0.023-0.289-0.119-0.397
	c-0.095-0.109-0.232-0.171-0.376-0.171c0,0-0.001,0-0.001,0l-7.475,0.019c-1.002,0-1.759-0.608-1.759-1.415V3.25
	c0-0.868,0.905-1.573,2.018-1.573h37.964c1.11,0,2.015,0.706,2.015,1.573v10.474c0,0.869-0.904,1.576-2.015,1.576H23.035
	C22.927,15.3,22.821,15.335,22.734,15.4z"/>
</svg>
