<?xml version="1.0" encoding="utf-8"?>
<!-- Generator: Adobe Illustrator 16.0.0, SVG Export Plug-In . SVG Version: 6.00 Build 0)  -->
<!DOCTYPE svg PUBLIC "-//W3C//DTD SVG 1.1//EN" "http://www.w3.org/Graphics/SVG/1.1/DTD/svg11.dtd">
<svg version="1.1" id="Layer_1" xmlns="http://www.w3.org/2000/svg" xmlns:xlink="http://www.w3.org/1999/xlink" x="0px" y="0px"
	 width="48px" height="48px" viewBox="0 0 48 48" enable-background="new 0 0 48 48" xml:space="preserve">
<g>
	<path fill="#414042" d="M17.902,30.795c-0.279-0.672-0.456-1.631-0.522-2.788c0.564-0.84,0.982-1.879,1.191-3.058
		c1.235-1.537,0.586-2.915-0.029-3.542c-0.664-2.935-2.688-5.048-4.857-5.048c-2.353,0-4.397,2.261-4.906,5.401
		c-0.235,0.258-0.687,0.852-0.697,1.625c-0.009,0.601,0.241,1.166,0.741,1.681c0.264,1.385,0.829,2.561,1.573,3.447
		c-0.067,0.901-0.228,1.685-0.479,2.281c-1.61,0.18-9.095,1.225-9.218,5.171v3.06c0,0.276,0.224,0.5,0.5,0.5h25.42
		c0.276,0,0.5-0.224,0.5-0.5V35.95C26.996,32.019,19.514,30.975,17.902,30.795z M9.779,24.736c-0.019-0.107-0.071-0.205-0.15-0.279
		c-0.366-0.344-0.55-0.698-0.547-1.051c0.004-0.58,0.496-1.034,0.499-1.037c0.088-0.079,0.146-0.186,0.163-0.303
		c0.392-2.728,2.05-4.708,3.941-4.708c1.737,0,3.382,1.854,3.912,4.407c0.022,0.105,0.08,0.204,0.161,0.275
		c0.189,0.168,1.077,1.072-0.036,2.367c-0.06,0.07-0.1,0.155-0.114,0.246c-0.428,2.643-2.077,4.561-3.922,4.561
		c-0.892,0-1.724-0.438-2.4-1.179c-0.001-0.001-0.002-0.002-0.003-0.003C10.559,27.239,10.014,26.098,9.779,24.736z M26.118,38.525
		H1.698v-2.544c0.088-2.848,6.235-4.012,8.596-4.22c0.172-0.016,0.324-0.118,0.402-0.272c0.288-0.569,0.489-1.273,0.609-2.092
		c0.712,0.522,1.523,0.816,2.379,0.816c1.029,0,1.981-0.436,2.783-1.166c0.124,1.002,0.341,1.823,0.654,2.441
		c0.078,0.154,0.23,0.257,0.402,0.272c2.361,0.207,8.506,1.369,8.595,4.204V38.525z"/>
	<path fill="#414042" d="M33.671,8.585c-7.517,0-13.632,4.292-13.632,9.568c0,1.324,0.374,2.601,1.11,3.8l-2.833,5.886
		c-0.086,0.179-0.058,0.391,0.07,0.541c0.096,0.113,0.236,0.176,0.38,0.176c0.048,0,0.096-0.007,0.143-0.021l7.555-2.251
		c2.159,0.941,4.646,1.438,7.206,1.438c7.517,0,13.631-4.292,13.631-9.568S41.188,8.585,33.671,8.585z M33.671,26.722
		c-2.487,0-4.896-0.493-6.966-1.426c-0.109-0.049-0.234-0.058-0.349-0.022l-6.648,1.98l2.463-5.118
		c0.076-0.159,0.063-0.346-0.034-0.493c-0.729-1.102-1.099-2.275-1.099-3.49c0-4.725,5.666-8.568,12.632-8.568
		c6.965,0,12.631,3.844,12.631,8.568S40.636,26.722,33.671,26.722z"/>
	<path fill="#414042" d="M27.624,16.626c-1.071,0-1.942,0.873-1.942,1.945c0,1.07,0.871,1.941,1.942,1.941s1.942-0.871,1.942-1.941
		C29.566,17.499,28.695,16.626,27.624,16.626z M27.624,19.513c-0.52,0-0.942-0.422-0.942-0.941c0-0.521,0.423-0.945,0.942-0.945
		s0.942,0.424,0.942,0.945C28.566,19.09,28.144,19.513,27.624,19.513z"/>
	<path fill="#414042" d="M33.394,16.626c-1.07,0-1.941,0.873-1.941,1.945c0,1.07,0.871,1.941,1.941,1.941
		c1.071,0,1.943-0.871,1.943-1.941C35.337,17.499,34.465,16.626,33.394,16.626z M33.394,19.513c-0.519,0-0.941-0.422-0.941-0.941
		c0-0.521,0.423-0.945,0.941-0.945c0.521,0,0.943,0.424,0.943,0.945C34.337,19.09,33.914,19.513,33.394,19.513z"/>
	<path fill="#414042" d="M39.165,16.626c-1.071,0-1.942,0.873-1.942,1.945c0,1.07,0.871,1.941,1.942,1.941s1.942-0.871,1.942-1.941
		C41.107,17.499,40.236,16.626,39.165,16.626z M39.165,19.513c-0.52,0-0.942-0.422-0.942-0.941c0-0.521,0.423-0.945,0.942-0.945
		s0.942,0.424,0.942,0.945C40.107,19.09,39.685,19.513,39.165,19.513z"/>
</g>
</svg>
