<?xml version="1.0" encoding="utf-8"?>
<!-- Generator: Adobe Illustrator 16.0.0, SVG Export Plug-In . SVG Version: 6.00 Build 0)  -->
<!DOCTYPE svg PUBLIC "-//W3C//DTD SVG 1.1//EN" "http://www.w3.org/Graphics/SVG/1.1/DTD/svg11.dtd">
<svg version="1.1" id="Layer_1" xmlns="http://www.w3.org/2000/svg" xmlns:xlink="http://www.w3.org/1999/xlink" x="0px" y="0px"
	 width="1024px" height="1024px" viewBox="0 0 1024 1024" enable-background="new 0 0 1024 1024" xml:space="preserve">
<g>
	<path fill="#414042" d="M728.979,679.844c-52.875,0-95.916,43.041-95.916,95.958c0,52.875,43.041,95.875,95.916,95.875
		c52.896,0,95.917-43,95.917-95.875C824.896,722.885,781.875,679.844,728.979,679.844z"/>
	<path fill="#414042" d="M269.156,679.844c-52.886,0-95.917,43.041-95.917,95.958c0,52.875,43.031,95.875,95.917,95.875
		c52.885,0,95.916-43,95.916-95.875C365.072,722.885,322.041,679.844,269.156,679.844z"/>
	<path fill="#414042" d="M291.708,238.26c0,8.834,7.177,16,16,16h66.729c8.833,0,16.01-7.166,16.01-16v-0.666
		c0-8.834,3.323-25.396-16.01-24.334l-6.021-0.938v-34.25c0-14.188-12.25-25.75-27.333-25.75c-15.104,0-27.333,11.563-27.333,25.75
		v34.25l-6.042,0.938c-18.386,0.5-16,15.5-16,24.334V238.26z"/>
	<path fill="#414042" d="M910.146,286.052H439.083v0.25c-0.406-0.042-0.771-0.25-1.188-0.25H233.188
		c-25.531,0-47.365,17.479-48.281,18.333c-4.865,3.354-119.125,83.479-126.74,202.125v190.417
		c-0.031,2.25,0.094,22.292,15.709,38.167c7.958,8.104,22.781,17.75,48.156,17.75c5.052,0,10.594-0.375,16.677-1.229
		c8.521-1.188,15.489-7.375,17.688-15.688c11.406-43.354,61.761-78.625,112.261-78.625c49.906,0,98.177,34.729,109.885,79.063
		c2.469,9.354,10.938,15.875,20.625,15.875h37.844c0.74,0,1.354-0.333,2.073-0.417v0.479l163.354,0.021
		c9.875,0,18.458-6.791,20.75-16.396c11-46.292,56.5-81.208,105.791-81.208c49.167,0,94.667,34.938,105.834,81.291
		c2.313,9.563,10.875,16.313,20.75,16.313l54.583-0.021c30.708,0,55.708-25,55.708-55.75V341.76
		C965.854,311.052,940.854,286.052,910.146,286.052z M350.656,409.135l-0.053,112.521c1.053,20.541-17.635,17.833-17.635,17.833
		H178.041c-14.531,0.333-11.146-17.771-11.146-17.771c4.667-93.563,75.469-125.979,75.469-125.979
		c37.448-8.208,88.886-4.25,88.886-4.25C354.052,390.469,350.656,409.135,350.656,409.135z M754.396,486.406h-58.667v58.666
		c0,11.792-9.541,21.334-21.333,21.334c-11.771,0-21.333-9.542-21.333-21.334v-58.666h-58.667c-11.771,0-21.333-9.542-21.333-21.334
		c0-11.771,9.563-21.333,21.333-21.333h58.667v-58.667c0-11.771,9.563-21.333,21.333-21.333c11.792,0,21.333,9.563,21.333,21.333
		v58.667h58.667c11.792,0,21.333,9.563,21.333,21.333C775.729,476.864,766.188,486.406,754.396,486.406z"/>
</g>
</svg>
