<?xml version="1.0" encoding="utf-8"?>
<!-- Generator: Adobe Illustrator 16.0.0, SVG Export Plug-In . SVG Version: 6.00 Build 0)  -->
<!DOCTYPE svg PUBLIC "-//W3C//DTD SVG 1.1//EN" "http://www.w3.org/Graphics/SVG/1.1/DTD/svg11.dtd">
<svg version="1.1" id="Layer_1" xmlns="http://www.w3.org/2000/svg" xmlns:xlink="http://www.w3.org/1999/xlink" x="0px" y="0px"
	 width="1024px" height="1024px" viewBox="0 0 1024 1024" enable-background="new 0 0 1024 1024" xml:space="preserve">
<g>
	<path fill="#414042" d="M358.771,309.635c11.781,0,21.333-9.541,21.333-21.333v-74.583c0-24.396,19.854-44.229,44.261-44.229
		h189.344c24.375,0,44.229,19.833,44.229,44.229v74.583c0,11.792,9.563,21.333,21.333,21.333s21.333-9.541,21.333-21.333v-74.583
		c0-47.917-38.979-86.896-86.896-86.896H424.364c-47.927,0-86.927,38.979-86.927,86.896v74.583
		C337.438,300.094,346.989,309.635,358.771,309.635z"/>
	<path fill="#414042" d="M862.896,332.031h-701.75c-47.927,0-86.927,38.979-86.927,86.896v391.313c0,47.938,39,86.938,86.927,86.938
		h701.75c47.917,0,86.896-39,86.896-86.938V418.927C949.791,371.01,910.813,332.031,862.896,332.031z M632.021,627.822h-91.667
		v91.667c0,11.792-9.563,21.333-21.333,21.333s-21.333-9.541-21.333-21.333v-91.667h-91.667c-11.781,0-21.333-9.541-21.333-21.333
		c0-11.771,9.552-21.333,21.333-21.333h91.667v-91.667c0-11.771,9.563-21.333,21.333-21.333s21.333,9.563,21.333,21.333v91.667
		h91.667c11.771,0,21.333,9.563,21.333,21.333C653.354,618.281,643.791,627.822,632.021,627.822z"/>
</g>
</svg>
