<?xml version="1.0" encoding="utf-8"?>
<!-- Generator: Adobe Illustrator 16.0.0, SVG Export Plug-In . SVG Version: 6.00 Build 0)  -->
<!DOCTYPE svg PUBLIC "-//W3C//DTD SVG 1.1//EN" "http://www.w3.org/Graphics/SVG/1.1/DTD/svg11.dtd">
<svg version="1.1" id="Layer_1" xmlns="http://www.w3.org/2000/svg" xmlns:xlink="http://www.w3.org/1999/xlink" x="0px" y="0px"
	 width="1024px" height="1024px" viewBox="0 0 1024 1024" enable-background="new 0 0 1024 1024" xml:space="preserve">
<path fill="#414042" d="M893.875,236.114c-2.542-29.333-16.313-56.646-38.792-76.896l-27.479-24.813
	c-21.938-19.771-49.875-30.667-78.625-30.667c-30.75,0-58.666,12.208-78.646,34.354L156.396,707.947
	c-18.583,20.604-28.021,47.604-26.542,76.042c1.563,30.396,15.813,59.833,39.042,80.771l27.5,24.834
	c21.938,19.771,49.875,30.666,78.625,30.666c30.729,0,58.667-12.208,78.646-34.354l513.979-569.875
	C887.146,294.385,896.479,266.01,893.875,236.114z M623.875,497.822L504.708,630.01c-8.771,9.625-21.167,15.104-34.083,15.104
	c-11.354,0-22.25-4.188-30.667-11.792l-41.229-37.166c-9.104-8.229-14.458-19.5-15.083-31.771
	c-0.625-12.229,3.563-23.958,11.771-33.021l119.188-132.146c16.271-18.042,46.688-19.646,64.771-3.334l41.188,37.188
	c9.104,8.188,14.458,19.459,15.083,31.709C636.271,477.01,632.104,488.739,623.875,497.822z"/>
</svg>
