<?xml version="1.0" encoding="utf-8"?>
<!-- Generator: Adobe Illustrator 16.0.0, SVG Export Plug-In . SVG Version: 6.00 Build 0)  -->
<!DOCTYPE svg PUBLIC "-//W3C//DTD SVG 1.1//EN" "http://www.w3.org/Graphics/SVG/1.1/DTD/svg11.dtd">
<svg version="1.1" id="Layer_1" xmlns="http://www.w3.org/2000/svg" xmlns:xlink="http://www.w3.org/1999/xlink" x="0px" y="0px"
	 width="1024px" height="1024px" viewBox="0 0 1024 1024" enable-background="new 0 0 1024 1024" xml:space="preserve">
<path fill="#414042" d="M882.333,314.51c-6.5-9.833-19.667-12.552-29.542-6.114c-0.375,0.25-16,10.167-41.958,20.573
	L694.291,216.958c11.084-28.938,22.334-46.573,22.709-47.125c6.458-9.823,3.75-23.042-6.042-29.531
	c-9.833-6.5-23.083-3.813-29.583,6.031c-1.834,2.802-45.459,69.761-50.959,165.031c-0.708,11.761,8.292,21.844,20.042,22.531
	c0.417,0.021,0.833,0.031,1.25,0.031c11.208,0,20.625-8.761,21.292-20.104c1.041-18.302,3.791-35.385,7.375-51.063l84.25,80.959
	c-35.667,8.677-79.584,13.229-127.292,4c-58.167-11.344-121.5,0.791-174.5,31.385c-1.25,0.49-2.292,1.365-3.458,2.104
	c-12.792,7.646-25.115,16.042-36.365,25.833c-19.583,17.031-35.604,36.354-48.104,57.271c-0.042,0.031-0.084,0.041-0.104,0.072
	c-0.688,0.719-0.958,1.636-1.542,2.417c-0.063,0.136-0.166,0.261-0.25,0.406c-1.333,1.917-2.416,3.875-3.041,6.042
	c-18.938,35.271-28.104,74.781-25.917,116.313l0.563,11.739c0.625,11.375,10.042,20.188,21.292,20.188
	c0.396,0,0.771-0.011,1.166-0.031c11.771-0.636,20.792-10.688,20.167-22.448l-0.583-11.791
	c-1.313-24.917,2.625-48.928,10.938-71.406l113.322,108.813c-20.666,7.885-44.75,12.813-72.75,11.354
	c-117.094-6.229-196.594-0.635-245.302,17.781c-0.854,0.281-1.688,0.531-2.5,0.938c-23.979,9.479-40.292,22.167-49.438,38.344
	c-5.792,10.261-2.167,23.271,8.083,29.063c3.334,1.875,6.917,2.761,10.479,2.761c7.438,0,14.667-3.896,18.604-10.844
	c2.583-4.573,7.688-9.833,17.146-14.958l130.917,125.708c-6.167,13.469-12.625,19.771-17.584,22.573
	c-10.25,5.813-13.854,18.833-8.041,29.083c3.938,6.927,11.146,10.813,18.583,10.813c3.563,0,7.167-0.896,10.5-2.771
	c35.917-20.354,54.542-74.303,58.625-169.781c0.5-11.771-8.625-21.719-20.396-22.219c-11.334-0.063-21.729,8.625-22.229,20.406
	c-1.146,26.656-3.438,48.01-6.396,65.302l-97.521-93.646c38.479-7.198,98.875-10.959,194.25-5.948
	c61.969,3.323,121.303-19.063,166.928-62.781c50.166-48.031,79.708-118.156,79.083-187.583
	c-0.083-11.719-9.625-21.146-21.333-21.146c-0.042,0-0.125,0-0.167,0c-11.792,0.104-21.25,9.74-21.167,21.521
	c0.292,29.271-5.958,58.677-17.5,85.791L507.166,404.354c38.834-16.76,82-22.531,122.042-14.75
	c136.083,26.303,242.583-42.635,247.042-45.583C886.083,337.541,888.791,324.344,882.333,314.51z M600.458,553.041
	c-8,11.521-17,22.292-27.083,31.948c-6.459,6.156-14.042,12.552-22.709,18.667L418.052,476.333
	c9.167-13.344,20.031-25.864,32.948-37.104c5.458-4.739,11.25-9.072,17.125-13.219L600.458,553.041z"/>
</svg>
