<?xml version="1.0" encoding="utf-8"?>
<!-- Generator: Adobe Illustrator 16.0.0, SVG Export Plug-In . SVG Version: 6.00 Build 0)  -->
<!DOCTYPE svg PUBLIC "-//W3C//DTD SVG 1.1//EN" "http://www.w3.org/Graphics/SVG/1.1/DTD/svg11.dtd">
<svg version="1.1" id="Layer_1" xmlns="http://www.w3.org/2000/svg" xmlns:xlink="http://www.w3.org/1999/xlink" x="0px" y="0px"
	 width="1024px" height="1024px" viewBox="0 0 1024 1024" enable-background="new 0 0 1024 1024" xml:space="preserve">
<g>
	<path fill="#414042" d="M458.271,319.635c0,0.75-0.042,1.521-0.125,2.271c0.25,2.666,5.438,10.646,22.479,17.375v-41.854
		c-6.709,2.438-12.542,5.396-16.584,9.146C460,310.344,458.271,314.239,458.271,319.635z"/>
	<path fill="#414042" d="M465.291,518.219c0.209,1.438,0.292,2.729,0.209,4c1.291,1.396,5.333,4.729,15.125,8.063v-25.313
		C471.896,510.156,466.125,515.094,465.291,518.219z"/>
	<path fill="#414042" d="M476.813,666.739c0.791,0.729,2.041,1.667,3.813,2.75v-6.167
		C478.875,664.656,477.625,665.822,476.813,666.739z"/>
	<path fill="#414042" d="M523.291,392.947v46.188c22.729-12.833,27.042-23.729,27.084-23.854c0.458-3,0.041-2.188,1.708-4.729
		c-0.021-0.021,0.417-1.063-0.938-3.354C550.188,405.552,544.604,398.51,523.291,392.947z"/>
	<path fill="#414042" d="M523.291,600.697c10.063-3.979,15.521-7.438,18.292-9.666c-3.229-2.375-9.479-5.479-18.292-8.125V600.697z"
		/>
	<path fill="#414042" d="M777.146,512.01l162-93.541L806.583,188.844l-162,93.541V95.322H379.427v187.063l-162-93.541
		L84.864,418.469l161.979,93.521v0.021L84.864,605.531l132.563,229.625l162-93.521v187.042h265.156V741.635l162,93.521
		l132.563-229.625L777.166,512.01H777.146z M591.291,427.344c-3.146,10.625-16.396,36.646-68,58.979v52.521
		c30.188,6.396,61.063,22.146,63.042,49.521c2.458,33.938-39.333,50.375-63.042,57.625v37.375
		c25.938,8.063,41.459,22.917,43.063,41.792c1.709,20.271-12.104,38.416-43.063,56.5v47.271c0,11.771-9.541,21.333-21.333,21.333
		s-21.333-9.563-21.333-21.333V802.26c-2.021,0.834-3.75,1.646-5.854,2.479c-2.604,1.042-5.271,1.521-7.896,1.521
		c-8.479,0-16.5-5.083-19.813-13.458c-4.386-10.938,0.979-23.354,11.916-27.708c8.334-3.313,15.292-6.375,21.646-9.334v-39.896
		c-37.573-12.979-47.011-32.396-47.469-47.583c-0.646-21.563,16.531-40.25,47.469-53.104v-40.583
		c-25.292-6.021-42.24-15.75-51.303-29.563c-5.708-8.688-7.208-17.688-6.604-24.688c-2.084-31.813,33.177-52.542,57.906-63.125
		v-73.104c-61.219-16.792-65.115-54.667-65.031-64.479c0-17.25,6.75-32.604,19.5-44.396c11.989-11.063,28.427-18,45.531-22.333
		v-15.584c0-0.541,0.271-1.021,0.313-1.563c-10.834-6.958-18.063-19.041-18.063-32.854c0-21.542,17.541-39.063,39.083-39.063
		s39.083,17.521,39.083,39.063c0,13.813-7.229,25.896-18.063,32.854c0.042,0.542,0.313,1.021,0.313,1.563v9.334
		c19.396-1.146,34.771-0.167,38.417,0.125c11.729,0.916,20.5,11.166,19.583,22.916c-0.188,2.334-0.958,4.417-1.791,6.479
		c0.938,1.5,1.5,3,1.104,4.375c-0.708,2.417-3.666,3.813-7.625,4.271c-4,3.042-9,4.854-14.583,4.5
		c-9.667-0.75-22.208-0.833-35.104,0.084v59.75c34.334,6.854,56.042,19.604,65.979,38.854
		C596.791,402.594,595.25,417.697,591.291,427.344z"/>
</g>
</svg>
