<?xml version="1.0" encoding="utf-8"?>
<!-- Generator: Adobe Illustrator 16.0.0, SVG Export Plug-In . SVG Version: 6.00 Build 0)  -->
<!DOCTYPE svg PUBLIC "-//W3C//DTD SVG 1.1//EN" "http://www.w3.org/Graphics/SVG/1.1/DTD/svg11.dtd">
<svg version="1.1" id="Layer_1" xmlns="http://www.w3.org/2000/svg" xmlns:xlink="http://www.w3.org/1999/xlink" x="0px" y="0px"
	 width="1024px" height="1024px" viewBox="0 0 1024 1024" enable-background="new 0 0 1024 1024" xml:space="preserve">
<path fill="#414042" d="M736.271,833.896c-1.75-1.979-108.208-122.813-199.125-250.042c53-76.708,98.958-154.188,114.542-210.438
	c19.291-69.958,13.916-125.375-16.042-164.688c-34.625-45.5-89.75-53.563-121.5-54.041c-0.75-0.042-1.417-0.042-2.083-0.021
	c-0.709-0.021-1.375-0.021-2.084,0.021c-50.25,0.75-92.104,19.416-118.125,52.791c-30.688,39.334-37.271,95-19.563,165.459
	c14.209,56.646,59.729,134.208,112.729,210.896C394.313,711.104,289.354,832.041,287.646,834c-7.75,8.896-6.813,22.375,2.063,30.104
	c4.042,3.521,9.042,5.25,14.021,5.25c5.938,0,11.875-2.479,16.084-7.313c6.833-7.854,103.25-118.958,191.291-241.271
	c88.417,122.479,186.25,233.542,193.209,241.375c7.833,8.854,21.333,9.646,30.083,1.854
	C743.229,856.188,744.063,842.708,736.271,833.896z M511.063,546.458c-46.584-68.438-85.25-135.542-97.396-183.917
	c-14.125-56.229-10.041-100.791,11.834-128.833c24.313-31.167,64.229-36.229,86.563-36.375c23.541,0.146,65.333,5.333,89.666,37.229
	c21.417,28.166,24.375,71.063,8.834,127.5C597.188,410.375,557.854,477.75,511.063,546.458z"/>
</svg>
