<?xml version="1.0" encoding="utf-8"?>
<!-- Generator: Adobe Illustrator 16.0.0, SVG Export Plug-In . SVG Version: 6.00 Build 0)  -->
<!DOCTYPE svg PUBLIC "-//W3C//DTD SVG 1.1//EN" "http://www.w3.org/Graphics/SVG/1.1/DTD/svg11.dtd">
<svg version="1.1" id="Layer_1" xmlns="http://www.w3.org/2000/svg" xmlns:xlink="http://www.w3.org/1999/xlink" x="0px" y="0px"
	 width="1024px" height="1024px" viewBox="0 0 1024 1024" enable-background="new 0 0 1024 1024" xml:space="preserve">
<path fill="#414042" d="M912.75,224.197c-47.125,26.729-175.167-73.854-263.021-86.583c-87.833-12.729-91.291,17.5-54.75,56.021
	c15.854,16.678-48.708,18.803-63.291,19.063V111.885c0-0.354-0.188-0.646-0.209-0.989c10.313-6.864,17.146-18.573,17.146-31.864
	c0-21.104-17.167-38.271-38.271-38.271c-21.104,0-38.291,17.167-38.291,38.271c0,13.291,6.833,25,17.166,31.864
	c-0.021,0.344-0.208,0.636-0.208,0.989v100.74c-19.063-0.521-74.864-3.344-60.011-18.99c36.573-38.521,33.094-68.75-54.75-56.021
	c-87.833,12.729-215.896,113.313-263,86.583c0,0,27.417,19.156,85.229,36.865c-0.896-5.063,1.771-10.167,6.771-11.917l73.167-25.604
	c5.563-1.958,11.625,0.99,13.583,6.553c1.959,5.563-0.979,11.646-6.541,13.594l-66.354,23.219c21.771,5.76,47.063,11.021,76,15.135
	c-1.563-5.396,1.25-11.125,6.625-13l73.188-25.583c5.583-1.938,11.667,1,13.583,6.552c1.959,5.563-0.979,11.646-6.541,13.594
	l-61.771,21.594c29.063,3.167,61.125,5.188,96.792,5.188l74.031-71.563v204.969c-53.011-13.979-60.739-37.614-61.864-37.614
	l0.438-0.25c4-1.969,6.75-5.208,8.791-8.823c11.094-1.322,21.656-7.302,27.303-11.197c22.083-15.209,29.833-34.531,19.729-49.261
	c-4.729-6.854-12.625-10.792-21.625-10.792c-12.541,0-25.072,7.365-31.385,11.74c-13.813,9.521-22,20.656-23.709,31.302
	c-19.5,10.875-24.146,31.302-19.938,46.646c1.834,7.771,11.292,35.188,53.979,55.948c-35.229,19.729-39.104,42.948-39.25,51.229
	c-0.479,9.385,1.688,46.666,58.114,76.375c-17.469,12.375-33.031,29.5-33.864,51.75c-0.792,21.469,12.25,41.135,38.989,59.521
	c-22.844,14.386-35.219,32.094-35.26,51.313c-0.042,23.114,17.447,40.313,35.656,52.177c-8.813,7.906-15.813,18.042-17.021,30.823
	c-1.781,18.636,9.334,33.448,22.063,44.364l-19.5,11.521c-10.156,5.989-13.51,19.072-7.531,29.219
	c3.99,6.739,11.115,10.479,18.406,10.479c3.688,0,7.417-0.958,10.834-2.969l16.646-9.854v54.469
	c0,11.781,9.542,21.333,21.333,21.333c11.792,0,21.334-9.552,21.334-21.333v-54.719l17.104,10.104
	c3.417,2.011,7.146,2.969,10.834,2.969c7.291,0,14.416-3.739,18.396-10.479c5.979-10.146,2.625-23.229-7.521-29.219l-19.542-11.531
	c12.813-10.99,23.875-25.771,22.104-44.354c-1.229-12.781-8.209-22.927-17.021-30.823c18.188-11.864,35.667-29.063,35.625-52.166
	c-0.021-19.229-12.416-36.938-35.25-51.323c26.75-18.386,39.792-38.042,38.979-59.521c-0.833-22.25-16.375-39.375-33.896-51.761
	c56.458-29.761,58.625-66.969,58.166-76.364c-0.146-8.271-4-31.5-39.25-51.24c42.688-20.76,52.125-48.166,53.959-55.938
	c4.188-15.322-0.438-35.719-19.875-46.604c-1.709-10.625-9.896-21.792-23.729-31.334c-6.354-4.385-18.875-11.75-31.396-11.75
	c-9,0-16.896,3.938-21.604,10.771c-2.479,3.563-9.563,16.479,2.583,33.166c4.125,5.667,10.042,11.24,17.104,16.125
	c5.563,3.834,15.917,9.667,26.792,11.115c1.979,3.541,4.666,6.708,8.625,8.656c-0.084,0.26-7.584,24.197-61.188,38.219V215.635
	L609,290.385c35.666,0,67.729-2.021,96.791-5.188l-61.771-21.594c-5.563-1.947-8.5-8.031-6.542-13.594
	c1.938-5.552,8-8.489,13.584-6.552l73.188,25.583c5.375,1.875,8.188,7.604,6.625,13c28.938-4.114,54.229-9.375,76-15.135
	l-66.354-23.219c-5.563-1.948-8.5-8.031-6.542-13.594c1.959-5.563,8-8.511,13.584-6.553l73.166,25.604
	c5,1.75,7.688,6.854,6.771,11.917C885.313,243.354,912.75,224.197,912.75,224.197z M489.021,758.302
	c-13.042-8.344-16.875-14.489-16.875-16.542c0-2.677,5.188-9.188,16.875-16.26V758.302z M489.021,655.583
	c-15.75-10.667-20.771-18.886-20.625-23.125c0.229-6.136,8.917-14.198,20.625-21.563V655.583z M489.021,546.01
	c-43.261-19.302-44.886-40.188-44.989-40.239c0.041-0.364,0.063-0.708,0.083-1.073c0.688-1.875,7.156-15.833,44.906-27.281V546.01z
	 M531.688,758.583v-33.354C543.708,732.406,549,739.052,549,741.771C549.021,743.833,545.104,750.094,531.688,758.583z
	 M531.688,655.906v-45.261c11.958,7.448,20.833,15.614,21.063,21.823C552.896,636.75,547.813,645.083,531.688,655.906z
	 M577.041,504.719c-0.063,1.291-2,22.219-45.354,41.469v-68.896C569.938,488.802,576.375,502.916,577.041,504.719z"/>
</svg>
