<?xml version="1.0" encoding="utf-8"?>
<!-- Generator: Adobe Illustrator 16.0.0, SVG Export Plug-In . SVG Version: 6.00 Build 0)  -->
<!DOCTYPE svg PUBLIC "-//W3C//DTD SVG 1.1//EN" "http://www.w3.org/Graphics/SVG/1.1/DTD/svg11.dtd">
<svg version="1.1" id="Layer_1" xmlns="http://www.w3.org/2000/svg" xmlns:xlink="http://www.w3.org/1999/xlink" x="0px" y="0px"
	 width="1024px" height="1024px" viewBox="0 0 1024 1024" enable-background="new 0 0 1024 1024" xml:space="preserve">
<path fill="#414042" d="M663.313,75.438H360.708c-28.458,0-51.625,23.166-51.625,51.666c0,28.459,23.167,51.625,51.625,51.625h4.167
	v669.417c0,55.375,45.083,100.417,100.458,100.417h89.333c55.375,0,100.417-45.042,100.417-100.417V178.729h8.229
	c28.458,0,51.604-23.166,51.604-51.625C714.916,98.604,691.771,75.438,663.313,75.438z M663.313,136.063H633.75
	c-11.792,0-21.334,9.541-21.334,21.333v218.042H407.541V157.396c0-11.792-9.541-21.333-21.333-21.333h-25.5
	c-4.938,0-8.958-4-8.958-8.959c0-4.958,4.021-9,8.958-9h302.604c4.938,0,8.938,4.042,8.938,9
	C672.25,132.063,668.25,136.063,663.313,136.063z"/>
</svg>
