<?xml version="1.0" encoding="utf-8"?>
<!-- Generator: Adobe Illustrator 16.0.0, SVG Export Plug-In . SVG Version: 6.00 Build 0)  -->
<!DOCTYPE svg PUBLIC "-//W3C//DTD SVG 1.1//EN" "http://www.w3.org/Graphics/SVG/1.1/DTD/svg11.dtd">
<svg version="1.1" id="Layer_1" xmlns="http://www.w3.org/2000/svg" xmlns:xlink="http://www.w3.org/1999/xlink" x="0px" y="0px"
	 width="1024px" height="1024px" viewBox="0 0 1024 1024" enable-background="new 0 0 1024 1024" xml:space="preserve">
<path fill="#414042" d="M876.896,624.916c0-44.916-36.417-81.333-81.313-81.333c-44.938,0-81.354,36.417-81.354,81.333
	c0,37.375,25.334,68.459,59.625,78c-13.958,75.875-44.041,129.292-89.666,158.584c-62.167,39.875-133.959,21.791-134.167,21.75
	c-144.042-41.959-147.875-163.584-147.958-168.417l0.188-159.125c30.771-2.5,78.354-11.458,118.271-41.125
	c47.625-35.333,69.042-79.5,72.563-87.292c28.646-53.125,20.688-176.5,19.75-188.958c0-32.208-14.146-50.75-26.021-60.667
	c-26.104-21.791-63.334-21.75-82.209-20.083v-42.417c0-11.791-9.541-21.333-21.333-21.333c-11.771,0-21.333,9.542-21.333,21.333
	v129.667c0,11.792,9.563,21.333,21.333,21.333c11.792,0,21.333-9.541,21.333-21.333v-44.375c12.75-1.542,40.334-2.167,54.896,10
	c7.188,5.958,10.666,15.083,10.729,29.417c3.459,48.166,2.479,136.25-14.938,167.583c-0.354,0.625-0.688,1.333-0.979,1.958
	c-0.167,0.417-17.604,40.042-59.229,70.917c-41.958,31.208-97.979,33.625-114.146,33.625c-0.042,0-0.084,0-0.125,0
	c-0.021,0-0.042,0-0.084,0c-16.188,0-72.208-2.417-114.166-33.625c-41.625-30.875-59.084-70.5-59.25-70.833
	c-0.292-0.709-0.625-1.375-0.979-2.042c-19.563-35.208-17.396-132.917-14.854-169.125c0-12.75,3.479-21.833,10.625-27.833
	c13.834-11.584,39.375-11.625,53.125-10.209v44.542c0,11.792,9.542,21.333,21.334,21.333c11.791,0,21.333-9.541,21.333-21.333
	V115.166c0-11.791-9.542-21.333-21.333-21.333c-11.792,0-21.334,9.542-21.334,21.333v42.292c-19.375-1.5-55.125-0.875-80.396,20.208
	c-11.854,9.917-26.021,28.459-25.958,59.125c-1,14-8.959,137.417,19.666,190.5c3.521,7.75,24.938,51.959,72.563,87.292
	c40.104,29.792,87.688,38.625,118.479,41.083l-0.188,159.375c0,1.542,3.5,158.125,179.146,209.292
	c1.729,0.458,22.354,5.833,51.938,5.833c32.334,0,75.375-6.375,116.209-32.416c57.041-36.375,94-100.542,109.875-190.75
	c0.25-1.292-0.084-2.542-0.084-3.792C851.188,693.916,876.896,662.583,876.896,624.916z"/>
</svg>
