<?xml version="1.0" encoding="utf-8"?>
<!-- Generator: Adobe Illustrator 16.0.0, SVG Export Plug-In . SVG Version: 6.00 Build 0)  -->
<!DOCTYPE svg PUBLIC "-//W3C//DTD SVG 1.1//EN" "http://www.w3.org/Graphics/SVG/1.1/DTD/svg11.dtd">
<svg version="1.1" id="Layer_1" xmlns="http://www.w3.org/2000/svg" xmlns:xlink="http://www.w3.org/1999/xlink" x="0px" y="0px"
	 width="1024px" height="1024px" viewBox="0 0 1024 1024" enable-background="new 0 0 1024 1024" xml:space="preserve">
<g>
	<path fill="#414042" d="M892.104,148.896c-1.021-2.25-2.458-4.333-4.313-6.208c-1.021-1-2.041-2-3.083-2.959
		c-1.083-1.208-2.188-2.375-3.333-3.5c-1.917-1.916-4.104-3.416-6.438-4.416c-16.625-11.834-36.417-18.209-57.188-18.209
		c0,0-0.021,0-0.042,0c-26.479,0-51.354,10.334-70.104,29.084L318.219,572.021c-6.823,5.875-43.865,40.25-57.417,102.25
		c0,0.042-0.011,0.042-0.011,0.042s-0.01,0-0.01,0.041c-0.136,1.084-0.344,2.209-0.521,3.334c-0.396,2.375-1.021,5.708-1.947,9.708
		c-0.011,0.042,0.01,0.042,0,0.083c-2.729,11.375-6.729,21.792-9.781,24.417L126.719,833.521c-17.5,17.583-17.5,46.167,0.063,63.792
		c8.791,8.75,20.313,13.125,31.844,13.083c11.541,0,23.083-4.375,31.864-13.125l116.114-116.167l5.531-5.666
		c3.636-4.25,21.886-10.209,39.428-12.542c60.271-13.25,94.489-50.292,100.375-57.125l429.416-429.375
		c18.75-18.708,29.042-43.625,29.042-70.083C910.396,185.438,904,165.563,892.104,148.896z M851.188,246.229l-430.042,430
		l-1.489,1.625c-0.261,0.334-27.396,32.417-75.344,43.042c-4.854,0.583-14.74,2.208-25.646,5.333l-20.813-21.125
		c2.375-8.291,3.781-15.583,4.469-20.25c0.271-1.583,0.459-2.833,0.594-3.708c11.063-49.625,42.979-76.667,43.219-76.875
		l431.636-431.417c10.688-10.708,24.875-16.583,39.938-16.583h0.021c13.584,0,26.459,4.792,36.667,13.583
		c8.625,10.167,13.333,22.959,13.333,36.459C867.729,221.396,861.854,235.563,851.188,246.229z"/>
	<path fill="#414042" d="M773.146,220.688l-32.958,32.958l-2.209-2.208c-8.333-8.334-21.854-8.334-30.166,0
		c-8.334,8.291-8.334,21.833-0.021,30.166l2.229,2.209l-76.667,76.666l-2.208-2.25c-8.354-8.291-21.854-8.291-30.167,0.042
		c-8.333,8.333-8.333,21.833,0.021,30.167l2.188,2.208l-76.625,76.625l-2.188-2.208c-8.334-8.334-21.834-8.334-30.167,0
		c-8.333,8.333-8.333,21.833,0,30.166l2.188,2.209l-76.594,76.583l-2.208-2.208c-8.334-8.334-21.854-8.334-30.167,0
		c-8.344,8.291-8.344,21.833-0.021,30.166l2.219,2.209l-35.646,35.666c-8.333,8.334-8.333,21.834,0,30.167
		c4.167,4.167,9.625,6.25,15.084,6.25c5.458,0,10.916-2.083,15.083-6.25l35.636-35.667l2.219,2.25
		c4.166,4.167,9.635,6.25,15.094,6.25c5.458,0,10.927-2.083,15.094-6.25c8.333-8.333,8.333-21.833,0-30.166l-2.209-2.25
		l76.604-76.625l2.229,2.25c4.166,4.166,9.625,6.25,15.083,6.25s10.917-2.084,15.083-6.25c8.334-8.334,8.334-21.834,0-30.167
		l-2.229-2.25l76.625-76.625l2.25,2.25c4.166,4.167,9.604,6.25,15.063,6.25c5.479,0,10.938-2.083,15.104-6.25
		c8.313-8.333,8.313-21.875-0.021-30.208l-2.208-2.209l76.604-76.625l2.229,2.25c4.167,4.167,9.625,6.25,15.083,6.25
		c5.459,0,10.917-2.083,15.084-6.25c8.333-8.333,8.333-21.833,0-30.166l-2.209-2.25l32.959-32.959
		c8.333-8.333,8.333-21.833,0-30.166C794.979,212.354,781.479,212.354,773.146,220.688z"/>
</g>
</svg>
