<?xml version="1.0" encoding="utf-8"?>
<!-- Generator: Adobe Illustrator 16.0.0, SVG Export Plug-In . SVG Version: 6.00 Build 0)  -->
<!DOCTYPE svg PUBLIC "-//W3C//DTD SVG 1.1//EN" "http://www.w3.org/Graphics/SVG/1.1/DTD/svg11.dtd">
<svg version="1.1" id="Layer_1" xmlns="http://www.w3.org/2000/svg" xmlns:xlink="http://www.w3.org/1999/xlink" x="0px" y="0px"
	 width="1024px" height="1024px" viewBox="0 0 1024 1024" enable-background="new 0 0 1024 1024" xml:space="preserve">
<g>
	<path fill="#414042" d="M628.021,728.708c-11.188-3.792-23.292,2.125-27.083,13.292C566.104,843.916,470.291,912.416,362.5,912.416
		c-138.906,0-251.917-113-251.917-251.916c0-92.709,50.677-177.625,132.239-221.709c6.781-3.666,11.053-10.666,11.198-18.375
		l3.219-179.375c0.104-5.708-2.104-11.25-6.114-15.333c-4.011-4.083-9.49-6.375-15.219-6.375h-66.5
		c-11.781,0-21.334,9.542-21.334,21.333c0,11.792,9.553,21.334,21.334,21.334h44.781l-2.615,145.5
		c-88.927,53.041-143.656,148.833-143.656,253c0,162.416,132.146,294.583,294.584,294.583c126.041,0,238.083-80.083,278.813-199.292
		C645.104,744.666,639.146,732.541,628.021,728.708z"/>
	<path fill="#414042" d="M955.146,796.791c-3.458-11.25-15.417-17.666-26.667-14.166l-136.416,41.708l-106.75-274.958
		c-3.188-8.209-11.084-13.584-19.875-13.584H412.531c-0.188,0-0.375,0-0.563,0c-36.011,0-41.917-44.833-42.625-51.166l-11.803-73
		h184.542c11.771,0,21.333-9.542,21.333-21.334c0-11.791-9.563-21.333-21.333-21.333H350.646l-14.719-91
		c16.438,9.458,35.208,15.292,55.479,15.292c61.844,0,112.156-50.334,112.156-112.209c0-61.833-50.313-112.125-112.156-112.125
		c-61.854,0-112.178,50.292-112.178,112.125c0,2.959,0.646,5.75,0.875,8.667c-0.625,2.667-0.781,5.458-0.322,8.292l47.271,292.125
		c3.042,30.916,25.042,89.25,85.761,88.333h238L759.479,858.25c3.25,8.416,11.292,13.625,19.875,13.625
		c2.084,0,4.167-0.292,6.25-0.959l155.375-47.5C952.229,820,958.563,808.041,955.146,796.791z"/>
</g>
</svg>
