<?xml version="1.0" encoding="utf-8"?>
<!-- Generator: Adobe Illustrator 16.0.0, SVG Export Plug-In . SVG Version: 6.00 Build 0)  -->
<!DOCTYPE svg PUBLIC "-//W3C//DTD SVG 1.1//EN" "http://www.w3.org/Graphics/SVG/1.1/DTD/svg11.dtd">
<svg version="1.1" id="Layer_1" xmlns="http://www.w3.org/2000/svg" xmlns:xlink="http://www.w3.org/1999/xlink" x="0px" y="0px"
	 width="1024px" height="1024px" viewBox="0 0 1024 1024" enable-background="new 0 0 1024 1024" xml:space="preserve">
<g>
	<path fill="#414042" d="M721.604,418.875c0-77.75-72.958-103.417-105.5-114.5c20.521-4.5,35.959-22.792,35.959-44.625
		c0-12-4.729-22.834-12.313-31.042v-88.292c0-29.5-24-53.5-53.521-53.5H437.739c-29.521,0-53.521,24-53.521,53.5v88.292
		c-7.584,8.208-12.313,19.042-12.313,31.042c0,21.958,15.583,40.333,36.25,44.708c-33.563,9.125-106,34.083-106,114.417v2.208
		h419.447V418.875z M574.313,129.583h11.916c5.979,0,10.854,4.833,10.854,10.833v73.542h-22.771V129.583z M495.313,129.583h36.333
		v84.375h-36.333V129.583z M426.885,140.416c0-6,4.875-10.833,10.854-10.833h14.906v84.375h-25.761V140.416z M606.271,262.833
		H417.697c-1.729,0-3.125-1.375-3.125-3.083c0-1.75,1.396-3.125,3.125-3.125h188.573c1.729,0,3.125,1.375,3.125,3.125
		C609.396,261.458,608.021,262.833,606.271,262.833z"/>
	<path fill="#414042" d="M721.604,866.25v-74.5H302.156v75.625c0,22.208,6.458,39.833,19.208,52.458
		c16.771,16.583,37.854,17.25,40.917,17.25c0.083,0,0.146,0,0.208,0h286.656c25.188,0,44.542-7.542,57.5-22.417
		C722.813,896.083,722.229,873.208,721.604,866.25z"/>
	<path fill="#414042" d="M721.604,463.75H302.156v285.333h419.447V463.75z M596.416,620.625h-63.104v63.125
		c0,11.791-9.542,21.333-21.334,21.333c-11.791,0-21.333-9.542-21.333-21.333v-63.125h-63.094c-11.792,0-21.333-9.542-21.333-21.334
		c0-11.791,9.541-21.333,21.333-21.333h63.094v-63.042c0-11.791,9.542-21.333,21.333-21.333c11.792,0,21.334,9.542,21.334,21.333
		v63.042h63.104c11.792,0,21.334,9.542,21.334,21.333C617.75,611.083,608.208,620.625,596.416,620.625z"/>
</g>
</svg>
