<?xml version="1.0" encoding="utf-8"?>
<!-- Generator: Adobe Illustrator 16.0.0, SVG Export Plug-In . SVG Version: 6.00 Build 0)  -->
<!DOCTYPE svg PUBLIC "-//W3C//DTD SVG 1.1//EN" "http://www.w3.org/Graphics/SVG/1.1/DTD/svg11.dtd">
<svg version="1.1" id="Layer_1" xmlns="http://www.w3.org/2000/svg" xmlns:xlink="http://www.w3.org/1999/xlink" x="0px" y="0px"
	 width="1024px" height="1024px" viewBox="0 0 1024 1024" enable-background="new 0 0 1024 1024" xml:space="preserve">
<g id="_x33_89">
	<path fill="#404041" d="M524.133,538.162c8.836,0,16.018,7,16.018,15.605v3.879c0,6.494-5.254,11.75-11.75,11.75h-4.268
		c-8.836,0-16.019-7-16.019-15.629C508.114,545.162,515.297,538.162,524.133,538.162z M513.76,593.103l2.064,2.065
		c5.6,5.6,5.854,14.366,0.598,20.425c-1.057,1.216-2.961,2.479-4.958,3.442c-1.744,1.01-3.764,1.606-5.921,1.606h-0.229
		c-1.974,0-3.832-0.481-5.462-1.354c-2.18-0.94-4.269-2.317-5.462-3.648c-5.187-5.967-4.911-14.917,0.597-20.425l2.111-2.111
		C501.504,588.719,509.353,588.719,513.76,593.103z M468.825,553.538c0-8.491,7.068-15.376,15.743-15.376
		s15.743,6.885,15.743,15.376c0,8.468-7.068,15.376-15.743,15.376h-3.993c-6.495,0-11.75-5.256-11.75-11.75V553.538z"/>
	<path fill="#404041" d="M702.311,889.904V436.52c0-67.746-35.572-127.047-88.951-160.783h2.479
		c14.916,0,26.988-12.025,26.988-26.896c0-9.868-5.6-18.176-13.586-22.857V120.646c0-19.553-15.881-35.479-35.434-35.479H430.224
		c-19.599,0-35.479,15.927-35.479,35.479v105.337c-7.94,4.682-13.54,12.989-13.54,22.857c0,14.871,12.071,26.896,26.942,26.896
		h2.524c-53.426,33.689-89.227,92.899-89.227,160.783v453.384c0,49.342,39.427,48.928,39.427,48.928h289.802
		C709.104,938.832,702.311,889.904,702.311,889.904z M433.253,497.175c17.074-34.194,62.835-33.621,71.234-33.23
		c8.286-0.413,54.114-0.941,71.235,33.276c0.826,1.606,18.496,38.395-4.82,68.205c2.594,1.698,4.729,4.063,5.348,7.298
		c0.643,3.396,3.281,20.792-8.055,29.581l0.023-0.022c0.297,0-4.477,6.288-6.588,17.9c-3.924,21.572-29.076,46.61-56.064,47.481
		c-0.253,0.023-0.482,0.023-0.758,0.023c-0.229,0-0.481,0-0.688,0c-0.252,0-0.505,0-0.734-0.023
		c-26.988-0.871-52.141-25.909-56.088-47.481c-2.295-12.622-7.757-18.933-7.986-19.186c-9.914-7.321-7.275-24.831-6.609-28.273
		c0.597-3.235,2.731-5.6,5.324-7.298C414.733,535.615,432.381,498.827,433.253,497.175z M642.941,676.546
		c-1.723,4.819-6.221,7.803-11.063,7.803c-1.309,0-2.639-0.229-3.947-0.688c-6.127-2.18-9.295-8.904-7.113-15.009
		c0.918-3.099,0.113-7.298-6.289-10.557l-85.967,48.032l62.535,34.952c2.387-1.147,4.59-2.593,5.646-4.728
		c1.377-2.708,0.596-5.829,0.574-5.852c-2.182-6.128,0.986-12.829,7.09-15.032c6.15-2.157,12.852,1.01,15.033,7.114
		c0.436,1.239,4.199,12.553-1.652,24.28c-2.961,5.921-7.689,10.718-14.068,14.298c0.826,7.229,0.482,16.638-4.682,23.912
		c-3.006,4.246-8.813,9.433-19.232,9.8c-0.137,0-0.275,0-0.436,0c-6.311,0-11.498-5.003-11.727-11.337
		c-0.23-6.472,4.842-11.934,11.336-12.163c1.516-1.171,1.699-5.416,1.08-9.524l-75.595-42.249l-75.618,42.272
		c-0.688,4.154-0.666,8.33,0.207,9.615c6.495,0.23,12.002,5.623,11.773,12.095c-0.229,6.356-5.003,11.291-11.268,11.291
		c-0.138,0-0.298,0-0.436,0c-10.419-0.367-16.225-5.554-19.231-9.8c-5.164-7.274-5.508-16.684-4.682-23.912
		c-6.38-3.58-11.107-8.377-14.068-14.298c-5.852-11.728-2.088-23.041-1.652-24.28c2.18-6.104,8.927-9.317,15.032-7.114
		c6.013,2.157,9.203,8.767,7.16,14.825c-0.964,3.281-0.184,7.481,6.219,10.74l62.468-34.906l-86.037-48.078
		c-2.387,1.147-4.59,2.594-5.646,4.728c-1.377,2.708-0.574,5.853-0.574,5.875c2.18,6.104-0.987,12.829-7.114,15.009
		c-1.308,0.459-2.639,0.688-3.947,0.688c-4.842,0-9.34-2.983-11.062-7.803c-0.436-1.239-4.2-12.576,1.675-24.304
		c2.96-5.92,7.665-10.717,14.045-14.273c-0.826-7.229-0.482-16.639,4.682-23.891c3.006-4.269,8.813-9.455,19.231-9.822
		c6.426-0.619,11.934,4.842,12.163,11.337c0.229,6.472-4.819,11.934-11.314,12.163c-0.895,0.023-1.262,0.184-1.262,0.184
		c-0.597,1.033-0.551,5.232,0.138,9.317l99.118,55.399l99.117-55.377c0.689-4.176,0.666-8.354-0.229-9.639
		c-6.473-0.229-11.98-5.622-11.75-12.094c0.229-6.518,5.072-11.979,11.703-11.291c10.42,0.367,16.227,5.554,19.232,9.822
		c5.164,7.252,5.508,16.661,4.682,23.891c6.379,3.557,11.084,8.354,14.045,14.273C647.141,663.97,643.377,675.307,642.941,676.546z"
		/>
</g>
</svg>
