<?xml version="1.0" encoding="utf-8"?>
<!-- Generator: Adobe Illustrator 16.0.0, SVG Export Plug-In . SVG Version: 6.00 Build 0)  -->
<!DOCTYPE svg PUBLIC "-//W3C//DTD SVG 1.1//EN" "http://www.w3.org/Graphics/SVG/1.1/DTD/svg11.dtd">
<svg version="1.1" id="Layer_1" xmlns="http://www.w3.org/2000/svg" xmlns:xlink="http://www.w3.org/1999/xlink" x="0px" y="0px"
	 width="1024px" height="1024px" viewBox="0 0 1024 1024" enable-background="new 0 0 1024 1024" xml:space="preserve">
<g>
	<path fill="#414042" d="M604.375,505.396v-220.25c0-50.917-41.438-92.375-92.375-92.375h-5.917
		c-50.938,0-92.375,41.458-92.375,92.375v224.083c-48.229,32.542-77.708,87.375-77.708,146c0,97.042,78.958,176,176,176
		c97.041,0,176-78.958,176-176C688,593.729,656.25,537.354,604.375,505.396z M512,788.563c-73.521,0-133.334-59.792-133.334-133.334
		c0-47.75,25.792-92.125,67.313-115.833c7.375-4.208,11.125-12.583,10.396-20.75v-233.5c0-27.417,22.291-49.708,49.708-49.708H512
		c27.416,0,49.708,22.291,49.708,49.708v233.208c0,8.834,5.917,16.375,13.833,19.625c43.104,23.417,69.792,68.209,69.792,117.25
		C645.333,728.771,585.521,788.563,512,788.563z"/>
	<path fill="#414042" d="M512,391.438c11.791,0,21.333-9.542,21.333-21.334v-16.208c0-11.792-9.542-21.333-21.333-21.333
		c-11.792,0-21.334,9.541-21.334,21.333v16.208C490.666,381.896,500.208,391.438,512,391.438z"/>
	<path fill="#414042" d="M533.333,559.938V431.896c0-11.792-9.542-21.333-21.333-21.333c-11.792,0-21.334,9.541-21.334,21.333
		v128.042c-44.041,9.791-77.125,49.041-77.125,95.958c0,54.292,44.188,98.458,98.479,98.458c54.271,0,98.438-44.166,98.438-98.458
		C610.458,608.938,577.375,569.688,533.333,559.938z"/>
</g>
</svg>
