<?xml version="1.0" encoding="utf-8"?>
<!-- Generator: Adobe Illustrator 16.0.0, SVG Export Plug-In . SVG Version: 6.00 Build 0)  -->
<!DOCTYPE svg PUBLIC "-//W3C//DTD SVG 1.1//EN" "http://www.w3.org/Graphics/SVG/1.1/DTD/svg11.dtd">
<svg version="1.1" id="Layer_1" xmlns="http://www.w3.org/2000/svg" xmlns:xlink="http://www.w3.org/1999/xlink" x="0px" y="0px"
	 width="1024px" height="1024px" viewBox="0 0 1024 1024" enable-background="new 0 0 1024 1024" xml:space="preserve">
<g>
	<path fill="#414042" d="M577.563,745.854l133.916,0.917c4.792-0.125,11.125-2.208,15.167-6.208s6.292-9.459,6.292-15.125V252.271
		c0-13.833-11.25-25.125-25.125-25.125H314.438c-13.854,0-25.125,11.292-25.125,25.125v608.583
		c0,13.834,11.271,25.125,25.125,25.125h242.75c0.166,0,0.291,0,0.416,0c11.792,0,21.334-9.541,21.334-21.333
		c0-1.542-0.125-3-0.459-4.458L577.563,745.854z M532.479,543.563v100.291c0,11.792-9.541,21.334-21.333,21.334
		s-21.333-9.542-21.333-21.334V543.563H389.5c-11.792,0-21.334-9.542-21.334-21.334c0-11.791,9.542-21.333,21.334-21.333h100.313
		v-100.25c0-11.792,9.541-21.333,21.333-21.333s21.333,9.541,21.333,21.333v100.25h100.292c11.792,0,21.333,9.542,21.333,21.333
		c0,11.792-9.541,21.334-21.333,21.334H532.479z"/>
	<path fill="#414042" d="M775.771,145.521H634.229l-8.166-12.625c-3.917-6.083-10.667-9.75-17.917-9.75h-21.5
		c-1.042-40.125-34-72.458-74.375-72.458s-73.354,32.333-74.396,72.458H416.25c-7.229,0-13.959,3.625-17.896,9.708l-8.229,12.667
		H248.313c-30.313,0-54.959,24.625-54.959,54.958v717.875c0,30.292,24.646,54.959,54.959,54.959h527.458
		c30.25,0,54.875-24.667,54.875-54.959V200.479C830.646,170.146,806.021,145.521,775.771,145.521z M787.979,918.354
		c0,6.75-5.458,12.292-12.208,12.292H248.313c-6.771,0-12.292-5.542-12.292-12.292V200.479c0-6.791,5.521-12.291,12.292-12.291
		h114.083l-12.479,19.208c-2.25,3.458-3.438,7.5-3.438,11.625h331.042c0-4.083-1.167-8.083-3.375-11.542l-12.458-19.291h114.083
		c6.75,0,12.208,5.5,12.208,12.291V918.354z"/>
	<polygon fill="#414042" points="611.604,893.313 739.604,765.313 611.604,765.313 	"/>
</g>
</svg>
