<?xml version="1.0" encoding="utf-8"?>
<!-- Generator: Adobe Illustrator 16.0.0, SVG Export Plug-In . SVG Version: 6.00 Build 0)  -->
<!DOCTYPE svg PUBLIC "-//W3C//DTD SVG 1.1//EN" "http://www.w3.org/Graphics/SVG/1.1/DTD/svg11.dtd">
<svg version="1.1" id="Layer_1" xmlns="http://www.w3.org/2000/svg" xmlns:xlink="http://www.w3.org/1999/xlink" x="0px" y="0px"
	 width="1024px" height="1024px" viewBox="0 0 1024 1024" enable-background="new 0 0 1024 1024" xml:space="preserve">
<path fill="#414042" d="M654.041,894.375V556.083c0-43.917-20.041-82.958-51.271-109c16.333-5.583,28.167-20.917,28.167-39.083
	c0-19.375-13.438-35.542-31.459-40.042v-58c0-14.625-11.813-26.5-26.438-26.5h-26.75V120.583c0-15.125-12.271-27.458-27.438-27.458
	h-13.708c-15.167,0-27.458,12.333-27.458,27.458v162.875h-26.709c-14.625,0-26.458,11.875-26.458,26.5v58
	c-18.042,4.5-31.458,20.667-31.458,40.042c0,18.166,11.813,33.458,28.125,39.041c-31.292,26.084-51.396,65.125-51.396,109.042
	v338.292c0,36.875,29.438,36.5,29.438,36.5h216.25C659.104,930.875,654.041,894.375,654.041,894.375z M581.416,682.208h-48.104
	v48.042c0,11.791-9.542,21.333-21.334,21.333c-11.791,0-21.333-9.542-21.333-21.333v-48.042h-48.042
	c-11.791,0-21.333-9.542-21.333-21.333c0-11.792,9.542-21.334,21.333-21.334h48.042V591.5c0-11.792,9.542-21.334,21.333-21.334
	c11.792,0,21.334,9.542,21.334,21.334v48.041h48.104c11.771,0,21.334,9.542,21.334,21.334
	C602.75,672.666,593.188,682.208,581.416,682.208z"/>
</svg>
