<?xml version="1.0" encoding="utf-8"?>
<!-- Generator: Adobe Illustrator 16.0.0, SVG Export Plug-In . SVG Version: 6.00 Build 0)  -->
<!DOCTYPE svg PUBLIC "-//W3C//DTD SVG 1.1//EN" "http://www.w3.org/Graphics/SVG/1.1/DTD/svg11.dtd">
<svg version="1.1" id="Layer_1" xmlns="http://www.w3.org/2000/svg" xmlns:xlink="http://www.w3.org/1999/xlink" x="0px" y="0px"
	 width="1024px" height="1024px" viewBox="0 0 1024 1024" enable-background="new 0 0 1024 1024" xml:space="preserve">
<path fill="#414042" d="M596.996,251.271h4.899c11.792,0,21.333-9.542,21.333-21.333c0-8.389-4.858-15.635-11.911-19.119
	c0.212-1.356,0.328-2.749,0.328-4.173v-81.188c0-27.938-20.167-50.688-44.958-50.688H457.521c-24.833,0-45.042,22.75-45.042,50.688
	v81.188c0,1.431,0.118,2.83,0.331,4.192c-7.032,3.491-11.872,10.726-11.872,19.1c0,11.791,9.541,21.333,21.333,21.333h0.919
	c-30.774,46.587-59.627,160.646-59.627,252.125V875c0,3.854,1.083,7.625,3.166,10.896c1.542,2.458,39.271,60.583,139.875,63.25
	c2.125,0.063,4.188,0.083,6.271,0.083c95.916,0,141.521-59.375,143.458-61.958c2.667-3.563,4.104-7.875,4.104-12.271V503.416
	C660.57,402.825,625.406,297.127,596.996,251.271z M455.146,125.458c0-1.479,1.063-2.667,2.375-2.667h109.167
	c1.291,0,2.291,1.167,2.291,2.667v81.188c0,0.66,0.03,1.312,0.076,1.958H455.069c0.046-0.646,0.077-1.298,0.077-1.958V125.458z
	 M574.146,590.041h-40.75v39.709c0,11.5-9.542,20.813-21.333,20.813c-11.792,0-21.334-9.313-21.334-20.813v-39.709h-40.708
	c-11.792,0-21.333-9.333-21.333-20.833c0-11.479,9.541-20.813,21.333-20.813h40.708v-39.75c0-11.5,9.542-20.833,21.334-20.833
	c11.791,0,21.333,9.333,21.333,20.833v39.75h40.75c11.792,0,21.333,9.333,21.333,20.813
	C595.479,580.708,585.938,590.041,574.146,590.041z"/>
</svg>
