<?xml version="1.0" encoding="utf-8"?>
<!-- Generator: Adobe Illustrator 16.0.0, SVG Export Plug-In . SVG Version: 6.00 Build 0)  -->
<!DOCTYPE svg PUBLIC "-//W3C//DTD SVG 1.1//EN" "http://www.w3.org/Graphics/SVG/1.1/DTD/svg11.dtd">
<svg version="1.1" id="Layer_1" xmlns="http://www.w3.org/2000/svg" xmlns:xlink="http://www.w3.org/1999/xlink" x="0px" y="0px"
	 width="1024px" height="1024px" viewBox="0 0 1024 1024" enable-background="new 0 0 1024 1024" xml:space="preserve">
<path fill="#414042" d="M770.041,830.104L618.958,666.813l151.188-165.75c7.938-8.709,7.313-22.167-1.396-30.125
	c-8.688-7.959-22.209-7.375-30.146,1.375L589.875,635.354L397.583,427.521h12.542c74.271,0,134.708-60.417,134.708-134.708
	c0-74.25-60.438-134.709-134.708-134.709h-140.5c-11.792,0-21.334,9.542-21.334,21.334v451.125c0,11.791,9.542,21.333,21.334,21.333
	c11.791,0,21.333-9.542,21.333-21.333V427.521h49.604c0.729,1.167,1.166,2.458,2.146,3.542l218.313,235.958L412.166,830.188
	c-7.938,8.708-7.313,22.208,1.396,30.166c4.083,3.709,9.229,5.542,14.375,5.542c5.791,0,11.563-2.333,15.771-6.958l146.396-160.5
	l148.604,160.625c4.208,4.541,9.938,6.833,15.667,6.833c5.188,0,10.375-1.875,14.479-5.667
	C777.521,852.229,778.041,838.729,770.041,830.104z M290.958,384.854V200.771h119.167c50.75,0,92.041,41.292,92.041,92.042
	s-41.291,92.041-92.041,92.041H290.958z"/>
</svg>
