<?xml version="1.0" encoding="utf-8"?>
<!-- Generator: Adobe Illustrator 16.0.0, SVG Export Plug-In . SVG Version: 6.00 Build 0)  -->
<!DOCTYPE svg PUBLIC "-//W3C//DTD SVG 1.1//EN" "http://www.w3.org/Graphics/SVG/1.1/DTD/svg11.dtd">
<svg version="1.1" id="Layer_1" xmlns="http://www.w3.org/2000/svg" xmlns:xlink="http://www.w3.org/1999/xlink" x="0px" y="0px"
	 width="1024px" height="1024px" viewBox="0 0 1024 1024" enable-background="new 0 0 1024 1024" xml:space="preserve">
<path fill="#414042" d="M823.813,155.791c-15.334-35.958-40.5-60.583-74.792-73.166c-5.958-2.667-32.208-13.292-69.667-13.292
	c-42.208,0-104.416,13.542-168.208,75.458l-55.396,51.042c-4.084,6.375-10.948,9.833-17.969,9.833c-3.959,0-7.938-1.083-11.5-3.375
	c-9.917-6.375-12.792-19.583-6.417-29.5c12.083-18.833,36.302-42.625,52.448-57.625c-35.781-24.208-84.99-49.375-135.073-49.375
	c-20.917,0-40.604,4.375-58.542,13c-57,27.375-89.916,95.792-95.25,197.917c-7.646,146.542,42.5,326.042,104.292,384.833
	c-14.167,37.834-42.458,138.417-5.563,269.167c2.688,9.542,11.771,16.292,21.521,15.5c9.896-0.458,18.188-7.667,20-17.417
	c0.375-2.125,39.146-206.916,126.344-273.916c35.688-1.125,76.854,0.75,117.521,5.791l3.75,2.292
	c90.916,62.542,131.25,275.625,131.666,277.792c1.792,9.75,10.125,17,20.042,17.416c0.333,0.042,0.625,0.042,0.958,0.042
	c9.542,0,17.959-6.375,20.542-15.667c38.417-139.083,4.625-243-7.833-274C761.021,611.75,886.896,303.583,823.813,155.791z"/>
</svg>
