<?xml version="1.0" encoding="utf-8"?>
<!-- Generator: Adobe Illustrator 16.0.0, SVG Export Plug-In . SVG Version: 6.00 Build 0)  -->
<!DOCTYPE svg PUBLIC "-//W3C//DTD SVG 1.1//EN" "http://www.w3.org/Graphics/SVG/1.1/DTD/svg11.dtd">
<svg version="1.1" id="Layer_1" xmlns="http://www.w3.org/2000/svg" xmlns:xlink="http://www.w3.org/1999/xlink" x="0px" y="0px"
	 width="1024px" height="1024px" viewBox="0 0 1024 1024" enable-background="new 0 0 1024 1024" xml:space="preserve">
<path fill="#414042" d="M794.771,943.958c-22.917-77.792-132-87.083-135.958-87.375c-43.959-4.75-75.042-18.167-89.917-38.833
	c-6.375-8.959-8.958-18-9.917-25.459h12.084c19,0,34.458-15.458,34.458-34.458v-31.75c3.167-4.875,5.042-10.667,5.042-16.875
	c0-2.625-0.417-5.083-1-7.5c24.333-20.167,38.833-49.917,38.833-82.583v-204.5c0.25-3.209,0-9.209-2-15.834
	c0.875-1.75,1.583-3.625,2.042-5.833c1.75-8.792-1.834-17.292-9.125-22.708c-19.25-23-49.875-55.875-77.209-69.625v-63.834h72.167
	c11.792,0,21.333-9.541,21.333-21.333s-9.541-21.333-21.333-21.333H271.031V74c0-11.792-9.542-21.334-21.334-21.334
	c-11.791,0-21.333,9.542-21.333,21.334v865.333c0,11.792,9.542,21.333,21.333,21.333c11.792,0,21.334-9.541,21.334-21.333V236.791
	h248.406v61.834c-32.417,13.791-66.834,55.208-81.948,75c-2.833,3.75-4.375,8.291-4.375,12.958c0,2.125,0.458,6.292,2.75,10.667
	c-1.583,4.625-2.75,9.875-2.75,16.416v205.459c0,32.333,14.614,62.333,38.948,82.583c-0.584,2.417-1,4.875-1,7.5
	c0,6.208,1.875,12,5,16.875v31.75c0,19,15.458,34.458,34.458,34.458h5.667c1.041,14.042,5.166,31.917,17.375,49.375
	c22.291,31.792,62.916,51.125,121.333,57.417c0.833,0.042,84.5,7.833,98.917,56.917c2.75,9.291,11.25,15.333,20.458,15.333
	c2,0,4.042-0.292,6.042-0.875C791.604,967.125,798.063,955.291,794.771,943.958z M538.854,336.625c7,1.166,24.125,15.041,42.5,33.5
	h-84.75C514.604,351.166,531.979,337.041,538.854,336.625z M475.771,530.458V413.666c0-0.333,0-0.625,0-0.875h127.875
	c0.875,0,1.542,0.042,2.083,0.084c0,0.25,0,0.541,0,0.791v116.792H475.771z"/>
</svg>
