<?xml version="1.0" encoding="utf-8"?>
<!-- Generator: Adobe Illustrator 16.0.0, SVG Export Plug-In . SVG Version: 6.00 Build 0)  -->
<!DOCTYPE svg PUBLIC "-//W3C//DTD SVG 1.1//EN" "http://www.w3.org/Graphics/SVG/1.1/DTD/svg11.dtd">
<svg version="1.1" id="Layer_1" xmlns="http://www.w3.org/2000/svg" xmlns:xlink="http://www.w3.org/1999/xlink" x="0px" y="0px"
	 width="1024px" height="1024px" viewBox="0 0 1024 1024" enable-background="new 0 0 1024 1024" xml:space="preserve">
<path fill="#414042" d="M866.25,835.458L657.104,553.375V178.708h8.209c28.458,0,51.625-23.167,51.625-51.625
	s-23.167-51.667-51.625-51.667H362.729c-28.479,0-51.646,23.209-51.646,51.667s23.167,51.625,51.646,51.625h4.167V550.75
	L157.708,835.541c-2.688,3.667-4.146,8.084-4.146,12.625c0,55.375,45.063,100.417,100.458,100.417H770
	c55.375,0,100.438-45.042,100.438-100.417C870.438,843.583,868.958,839.125,866.25,835.458z M614.438,157.375v196.75H409.563
	v-196.75c0-11.792-9.542-21.334-21.334-21.334h-25.5c-4.958,0-8.979-4-8.979-8.958s4.021-9,8.979-9h302.584
	c4.938,0,8.958,4.042,8.958,9s-4.021,8.958-8.958,8.958h-29.542C623.979,136.041,614.438,145.583,614.438,157.375z"/>
</svg>
