<?xml version="1.0" encoding="utf-8"?>
<!-- Generator: Adobe Illustrator 16.0.0, SVG Export Plug-In . SVG Version: 6.00 Build 0)  -->
<!DOCTYPE svg PUBLIC "-//W3C//DTD SVG 1.1//EN" "http://www.w3.org/Graphics/SVG/1.1/DTD/svg11.dtd">
<svg version="1.1" id="Layer_1" xmlns="http://www.w3.org/2000/svg" xmlns:xlink="http://www.w3.org/1999/xlink" x="0px" y="0px"
	 width="1024px" height="1024px" viewBox="0 0 1024 1024" enable-background="new 0 0 1024 1024" xml:space="preserve">
<g id="_x33_99">
	<g>
		<path fill="#404041" d="M599.977,269.86c-8.787-8.422-22.709-8.164-31.152,0.602c-8.486,8.809-15.479,29.026-6.703,37.512
			l17.854,17.188l0.215-0.172L348.717,554.185c-6.263,6.531-6.069,16.887,0.451,23.117l101.74,97.926
			c6.521,6.252,16.876,6.037,23.106-0.473l231.279-229.023l17.703,17.016c8.766,8.422,29.971,1.848,38.394-6.918
			c8.486-8.766,8.229-22.709-0.58-31.152L599.977,269.86z"/>
		<path fill="#404041" d="M926.884,243.37L766.03,88.575c-8.787-8.465-22.71-8.164-31.132,0.602
			c-8.486,8.787-32.42,27.264-13.707,43.871l31.131,29.928l-73.82,76.764l98.808,95.069l73.971-76.893l-0.15,0.172l30.938,29.734
			c19.443,15.469,36.975-4.512,45.461-13.299C935.95,265.778,935.671,251.813,926.884,243.37z"/>
		<path fill="#404041" d="M317.135,653.099c0,0-48.823,44.064-71.586,76.141l-75.378,122.59l6.381,6.145l122.311-75.41
			c23.687-17.402,76.151-73.133,76.151-73.133l-27.135-26.855L317.135,653.099z"/>
	</g>
	<polygon fill="#404041" points="177.313,858.661 90.335,941.591 169.366,851.056 	"/>
</g>
</svg>
