<?xml version="1.0" encoding="utf-8"?>
<!-- Generator: Adobe Illustrator 16.0.0, SVG Export Plug-In . SVG Version: 6.00 Build 0)  -->
<!DOCTYPE svg PUBLIC "-//W3C//DTD SVG 1.1//EN" "http://www.w3.org/Graphics/SVG/1.1/DTD/svg11.dtd">
<svg version="1.1" id="Layer_1" xmlns="http://www.w3.org/2000/svg" xmlns:xlink="http://www.w3.org/1999/xlink" x="0px" y="0px"
	 width="1024px" height="1024px" viewBox="0 0 1024 1024" enable-background="new 0 0 1024 1024" xml:space="preserve">
<g>
	<path fill="#414042" d="M515.041,67.177h168.625c11.792,0,21.334-9.552,21.334-21.333s-9.542-21.334-21.334-21.334H515.041
		c-11.791,0-21.333,9.553-21.333,21.334S503.25,67.177,515.041,67.177z"/>
	<path fill="#414042" d="M561.458,595.177c-11.792,0-21.333,9.552-21.333,21.333s9.541,21.334,21.333,21.334h68.125
		c11.792,0,21.333-9.553,21.333-21.334s-9.541-21.333-21.333-21.333H561.458z"/>
	<rect x="288.521" y="924.719" fill="#414042" width="511.271" height="74.771"/>
	<path fill="#414042" d="M414.188,806.802c8.396,0,15.208-6.823,15.208-15.208c0-8.386-6.813-15.209-15.208-15.209
		c-8.396,0-15.209,6.823-15.209,15.209C398.979,799.979,405.791,806.802,414.188,806.802z"/>
	<path fill="#414042" d="M345.021,772.094l-28.25,83.146h199.646l-35.833-88.104h286.333v-77.416H466.833
		c0,0-144.479,1.041-140.708-142.875c0,0-1.104-130.75,168.25-145.5c0,0,1.375,50.916,44.041,79.833v75.708h57.125h3.417h57.125
		v-75.708c42.708-28.917,44.083-79.833,44.083-79.833v-96.354V234.76c0-16.854-20.625-15.125-20.625-15.125h-23.458v-103.25h-57.125
		h-3.417h-57.125v103.25h-23.375c0,0-20.666-3.104-20.666,15.125v70.229c0,0-261.396,2.646-269.875,233.771
		C217.021,742.76,368.416,774.844,345.021,772.094z M414.188,764.135c15.146,0,27.469,12.323,27.469,27.459
		c0,15.135-12.323,27.458-27.469,27.458c-15.146,0-27.459-12.323-27.459-27.458C386.729,776.458,399.041,764.135,414.188,764.135z
		 M561.5,307.947h68.083v64.479c0,25.313-32.375,28.021-32.375,28.021c-32.375,0.292-35.708-28.021-35.708-28.021V307.947z"/>
</g>
</svg>
