<?xml version="1.0" encoding="utf-8"?>
<!-- Generator: Adobe Illustrator 16.0.0, SVG Export Plug-In . SVG Version: 6.00 Build 0)  -->
<!DOCTYPE svg PUBLIC "-//W3C//DTD SVG 1.1//EN" "http://www.w3.org/Graphics/SVG/1.1/DTD/svg11.dtd">
<svg version="1.1" id="Layer_1" xmlns="http://www.w3.org/2000/svg" xmlns:xlink="http://www.w3.org/1999/xlink" x="0px" y="0px"
	 width="1024px" height="1024px" viewBox="0 0 1024 1024" enable-background="new 0 0 1024 1024" xml:space="preserve">
<path fill="#414042" d="M975.541,321.489c-0.854-4.979-1.625-9.989-2.396-14.989c-1.771-11.521-3.604-23.428-6.563-35.438
	c-15.875-63.396-47.854-114.563-95.063-152.094c-30.75-24.49-64.438-39.854-100.146-45.656c-29.792-4.875-61.084-5.531-92.959-2.031
	c-32.521,3.594-62.5,13.26-89.125,28.729c-33.188,19.303-58.604,45.678-77.021,66.49l-0.313,0.354
	C509,163.5,506,160.197,503,156.927c-25.25-27.438-48.959-46.636-74.625-60.396c-27.771-14.928-58.104-23.5-92.75-26.229
	c-29.396-2.271-55.781-1.448-80.678,2.531c-42.635,6.771-81.563,26.052-115.697,57.302c-46.938,43.042-75.678,98.24-87.865,168.803
	c-1.063,6.219-1.938,12.447-2.822,18.677l-1.063,7.489c-0.156,1.031-0.229,2.063-0.229,3.094v60.584c0,1.75,0.521,4.271,1.136,6.447
	c3.51,34.136,12.208,68.656,26.541,105.396c0,0.01,0,0.01,0,0.01c0.031,0.084,0.053,0.156,0.084,0.229
	c0.072,0.198,0.135,0.386,0.208,0.583c0.011,0.021,0.021,0.021,0.031,0.042c12.844,36.646,32.875,67.156,33.438,67.979l7.573,12.271
	c5.802,9.469,11.604,18.927,17.864,28.188C176.427,672.229,229.688,731.51,301.76,796.5
	c55.5,50.021,118.865,100.021,193.531,152.719c5.313,3.813,11,5.729,16.709,5.729c5.583,0,11.188-1.833,16.416-5.5
	c47.167-33.354,89.084-65.021,128.146-96.802C724,797.677,779.291,745.322,825.625,692.594
	c36.791-41.969,66.208-82.396,89.958-123.615c0.958-1.646,23.083-40.166,32.646-66.156c0-0.021,0.021-0.021,0.021-0.041
	c0.041-0.084,0.041-0.156,0.083-0.24c0.042-0.083,0.083-0.166,0.104-0.25v-0.031c12.021-30.697,19.979-58.979,24.333-86.385
	l3.708-23.803c0.167-1.094,0.25-2.188,0.25-3.291v-60.584C976.729,326.125,976.125,323.479,975.541,321.489z"/>
</svg>
