<?xml version="1.0" encoding="utf-8"?>
<!-- Generator: Adobe Illustrator 16.0.0, SVG Export Plug-In . SVG Version: 6.00 Build 0)  -->
<!DOCTYPE svg PUBLIC "-//W3C//DTD SVG 1.1//EN" "http://www.w3.org/Graphics/SVG/1.1/DTD/svg11.dtd">
<svg version="1.1" id="Layer_1" xmlns="http://www.w3.org/2000/svg" xmlns:xlink="http://www.w3.org/1999/xlink" x="0px" y="0px"
	 width="1024px" height="1024px" viewBox="0 0 1024 1024" enable-background="new 0 0 1024 1024" xml:space="preserve">
<g>
	<path fill="#414042" d="M933.604,331.072c-1-5.791-1.791-11.052-2.625-16.302c-1.688-11.094-3.291-21.573-5.791-31.636
		c-13.709-54.771-39.959-97-80.229-129.031c-25.313-20.156-51.625-32.229-80.417-36.916c-26.083-4.229-53.479-4.834-81.396-1.719
		c-26.979,2.979-50.667,10.563-72.396,23.188c-27.896,16.197-50.209,39.438-66.542,57.885l-32.083,36.698l-22.854-25.886
		c-5.938-6.729-11.708-13.313-17.667-19.76c-21.875-23.813-42.041-40.24-63.427-51.729c-22.458-12.073-47.271-19.021-75.864-21.261
		c-25.886-2.01-49.011-1.333-70.678,2.125c-34.229,5.448-65.719,21.146-93.563,46.646c-39.708,36.375-64.114,83.656-74.635,144.541
		c-0.99,5.781-1.803,11.625-2.625,17.459l-0.875,6.094v55.458c0.281,1.042,0.541,2.271,0.708,3.625
		c2.698,27.781,9.448,55.781,20.125,85.364c3.333,0.5,6.604,1.531,9.521,3.678c8.053,2.979,55.938,4.322,96.386,3.197
		c45.864-19.021,97.854-3.396,100.219-2.656h-0.011c0.115,0,13.678,3.24,36.021,0.021c16.208-21.781,44.25-138.729,61.719-238.875
		c1.833-10.459,11.822-18.042,21.656-17.656c10.614,0.313,19.364,8.375,20.572,18.916l47.292,416.761
		c22.958-58.448,48.292-125.261,52.875-145.761c2.542-11.531,9.563-20.781,20.292-26.75c32.75-18.281,98.458,0.25,125.583,9.219
		l91.313-21.354c3.292-0.771,6.729-0.74,10.021,0.072c18.938,4.698,72.125,13.573,107.896,4.469
		c8.896-24.177,15.104-46.677,18.521-68.291l3.417-22.021v-55.844C933.896,332.364,933.729,331.719,933.604,331.072z"/>
	<path fill="#414042" d="M799.104,517.333l-92.458,21.614c-3.896,0.917-8.042,0.709-11.875-0.625
		c-40.917-14.271-88.083-21.083-97-14.072c-8.333,40.021-82.375,221.979-85.5,229.708c-3.333,8.114-11.188,13.281-19.75,13.281
		c-0.979,0-1.958-0.063-2.917-0.198c-9.666-1.333-17.208-9.041-18.291-18.729l-41.573-366.042
		c-31.917,133.563-54.469,137.406-65.406,139.281c-35.031,6.021-57.156,0.188-59.573-0.511c-0.822-0.25-42.489-12.572-74.281,2.281
		c-2.614,1.219-5.438,1.896-8.313,1.99c-44.469,1.479-72.938,0.385-91.563-1.646c7.469,14.479,13.875,24.344,13.99,24.5
		l8.125,13.136c5.458,8.906,10.906,17.802,16.76,26.479c40.25,59.291,91.375,116.114,160.854,178.771
		C382.521,813.625,442.021,860.781,512,910.521c43.125-30.719,81.666-59.958,117.646-89.208
		c65.583-53.459,119.208-104.198,163.917-155.115c34.875-39.771,62.708-77.958,85.083-116.771
		c0.104-0.198,6.208-10.875,13.125-24.146C852.813,527.875,813.146,520.406,799.104,517.333z"/>
</g>
</svg>
