<?xml version="1.0" encoding="utf-8"?>
<!-- Generator: Adobe Illustrator 16.0.0, SVG Export Plug-In . SVG Version: 6.00 Build 0)  -->
<!DOCTYPE svg PUBLIC "-//W3C//DTD SVG 1.1//EN" "http://www.w3.org/Graphics/SVG/1.1/DTD/svg11.dtd">
<svg version="1.1" id="Layer_1" xmlns="http://www.w3.org/2000/svg" xmlns:xlink="http://www.w3.org/1999/xlink" x="0px" y="0px"
	 width="1024px" height="1024px" viewBox="0 0 1024 1024" enable-background="new 0 0 1024 1024" xml:space="preserve">
<path fill="#414042" d="M752.438,414.75C626.688,241.625,512.146,59.583,512.146,59.583h-0.292c0,0-114.541,182.042-240.291,355.167
	C152.271,578.958,153.979,964.416,511.854,964.416h0.292C870.021,964.416,871.729,578.958,752.438,414.75z M742.083,691.51
	c-9.688,52.563-35.771,94-75.396,119.844c-1.813,1.167-3.834,1.729-5.834,1.729c-3.479,0-6.896-1.708-8.938-4.844
	c-3.208-4.927-1.833-11.542,3.104-14.761c43.75-28.521,60.083-73.291,66.083-105.833c11.188-60.719-3.458-132.031-36.458-177.458
	C613.729,412.594,548,309,541.541,298.791c-1.396-1.802-2.229-4.052-2.229-6.5c0-5.896,4.688-10.666,10.583-10.666
	c3.667,0,7.25,1.885,9.188,4.989c0.688,1.073,68.938,109.354,142.813,211.031C738.125,547.5,754.271,625.406,742.083,691.51z"/>
</svg>
