<?xml version="1.0" encoding="utf-8"?>
<!-- Generator: Adobe Illustrator 16.0.0, SVG Export Plug-In . SVG Version: 6.00 Build 0)  -->
<!DOCTYPE svg PUBLIC "-//W3C//DTD SVG 1.1//EN" "http://www.w3.org/Graphics/SVG/1.1/DTD/svg11.dtd">
<svg version="1.1" id="Layer_1" xmlns="http://www.w3.org/2000/svg" xmlns:xlink="http://www.w3.org/1999/xlink" x="0px" y="0px"
	 width="1024px" height="1024px" viewBox="0 0 1024 1024" enable-background="new 0 0 1024 1024" xml:space="preserve">
<path fill="#414042" d="M985.958,44.969c-0.063-0.156-0.083-0.323-0.146-0.479c-3.25-7.896-9.542-14.177-17.417-17.417
	c-0.167-0.063-0.333-0.094-0.5-0.156c-3.625-1.427-7.542-2.271-11.667-2.271h-345c-17.666,0-32,14.323-32,32s14.334,32,32,32h267.75
	L520.25,447.385c-52.625-36.479-115.74-56.364-180.698-56.364c-90.542,0-174.958,38.479-231.583,105.542
	C55.26,558.927,30.01,638.083,36.885,719.427c6.854,81.333,44.979,155.136,107.354,207.802
	c55.104,46.511,125.083,72.125,197.083,72.125c0.021,0,0.021,0,0.021,0c90.291,0,175.447-39.531,233.635-108.469
	c102.542-121.479,97.771-291.521-6.125-401.614l355.375-355.375v252.625c0,17.677,14.334,32,32,32c17.667,0,32-14.323,32-32V56.646
	C988.229,52.51,987.375,48.594,985.958,44.969z M526.063,849.604c-46,54.5-113.323,85.761-184.719,85.75c0,0,0,0-0.021,0
	c-56.896,0-112.229-20.25-155.791-57.021c-49.313-41.646-79.459-99.989-84.875-164.281c-5.438-64.313,14.521-126.875,56.208-176.188
	c44.438-52.646,111.021-82.844,182.688-82.844c59.854,0,117.719,21.021,162.927,59.177
	C602.875,599.031,613.229,746.354,526.063,849.604z"/>
</svg>
