<?xml version="1.0" encoding="utf-8"?>
<!-- Generator: Adobe Illustrator 16.0.0, SVG Export Plug-In . SVG Version: 6.00 Build 0)  -->
<!DOCTYPE svg PUBLIC "-//W3C//DTD SVG 1.1//EN" "http://www.w3.org/Graphics/SVG/1.1/DTD/svg11.dtd">
<svg version="1.1" id="Layer_1" xmlns="http://www.w3.org/2000/svg" xmlns:xlink="http://www.w3.org/1999/xlink" x="0px" y="0px"
	 width="1024px" height="1024px" viewBox="0 0 1024 1024" enable-background="new 0 0 1024 1024" xml:space="preserve">
<path fill="#414042" d="M783.833,274.969c-6.125-72.615-40.167-138.521-95.854-185.563C638.813,47.875,576.313,25.01,512.041,25.01
	c-80.594,0-156.635,35.292-208.614,96.834c-97.063,114.969-82.5,287.479,32.458,384.563c40.979,34.594,91.229,56.021,144.011,62.281
	v232.156h-80.719c-17.667,0-32,14.322-32,32c0,17.677,14.333,32,32,32h80.719v102.146c0,17.677,14.333,32,32,32s32-14.323,32-32
	V864.844h80.75c17.667,0,32-14.323,32-32c0-17.678-14.333-32-32-32h-80.75V568.813c68.417-8.053,131.5-41.563,176.5-94.865
	C767.438,418.26,789.958,347.604,783.833,274.969z M671.5,432.646c-39.792,47.136-97.979,74.156-159.688,74.156h-0.021
	c-49.166,0-96.969-17.511-134.614-49.292c-88-74.313-99.146-206.375-24.833-294.375c39.771-47.104,97.969-74.125,159.697-74.125
	c49.188,0,97,17.5,134.646,49.292c42.625,36.011,68.688,86.458,73.375,142.052C724.75,335.938,707.521,390.031,671.5,432.646z"/>
</svg>
