<?xml version="1.0" encoding="utf-8"?>
<!-- Generator: Adobe Illustrator 16.0.0, SVG Export Plug-In . SVG Version: 6.00 Build 0)  -->
<!DOCTYPE svg PUBLIC "-//W3C//DTD SVG 1.1//EN" "http://www.w3.org/Graphics/SVG/1.1/DTD/svg11.dtd">
<svg version="1.1" id="Layer_1" xmlns="http://www.w3.org/2000/svg" xmlns:xlink="http://www.w3.org/1999/xlink" x="0px" y="0px"
	 width="48px" height="48px" viewBox="0 0 48 48" enable-background="new 0 0 48 48" xml:space="preserve">
<path fill="#414042" d="M37.372,19.862c-2.553-1.19-3.348-2.397-3.348-7.627V2.62c0-0.276-0.224-0.5-0.5-0.5h-2.339
	c-0.069-0.036-0.145-0.062-0.228-0.062c-0.276,0-0.5,0.224-0.5,0.5c0,3.567-2.902,6.47-6.47,6.47s-6.47-2.902-6.47-6.47
	c0-0.276-0.224-0.5-0.5-0.5c-0.087,0-0.166,0.028-0.237,0.068L14.479,2.12c-0.087,0.007-0.26,0.052-0.354,0.146
	C14.03,2.36,13.978,2.487,13.978,2.62v9.615c0,5.23-0.795,6.437-3.348,7.627c-0.176,0.082-0.289,0.259-0.289,0.453v25.144
	c0,0.276,0.224,0.5,0.5,0.5h13.147c0.009,0,0.018,0,0.026,0h13.146c0.276,0,0.5-0.224,0.5-0.5V20.315
	C37.661,20.121,37.549,19.944,37.372,19.862z M23.988,10.028c2.766,0,5.179-1.514,6.47-3.752v1.532c0,3.567-2.902,6.47-6.47,6.47
	s-6.47-2.902-6.47-6.47V6.276C18.81,8.515,21.224,10.028,23.988,10.028z M36.661,44.959H24.015c-0.009,0-0.018,0-0.026,0H11.341
	V20.63c2.88-1.429,3.637-3.237,3.637-8.395V3.122l1.541,0.004v4.682c0,4.119,3.351,7.47,7.47,7.47c4.119,0,7.47-3.351,7.47-7.47
	V3.12h1.566v9.115c0,5.157,0.757,6.965,3.637,8.395V44.959z"/>
</svg>
