<?xml version="1.0" encoding="utf-8"?>
<!-- Generator: Adobe Illustrator 16.0.0, SVG Export Plug-In . SVG Version: 6.00 Build 0)  -->
<!DOCTYPE svg PUBLIC "-//W3C//DTD SVG 1.1//EN" "http://www.w3.org/Graphics/SVG/1.1/DTD/svg11.dtd">
<svg version="1.1" id="Layer_1" xmlns="http://www.w3.org/2000/svg" xmlns:xlink="http://www.w3.org/1999/xlink" x="0px" y="0px"
	 width="48px" height="48px" viewBox="0 0 48 48" enable-background="new 0 0 48 48" xml:space="preserve">
<path fill="#414042" d="M33.817,21.553L32.32,4.639l0.042-1.672c0.004-0.173-0.082-0.336-0.228-0.431
	c-0.145-0.094-0.328-0.107-0.486-0.034c-0.023,0.011-2.378,1.089-7.504,1.204h-0.275c-5.134-0.114-7.459-1.192-7.482-1.203
	c-0.156-0.074-0.339-0.063-0.484,0.03c-0.145,0.092-0.232,0.252-0.231,0.425l0.013,1.625l-1.5,16.975l-1.858,23.027
	c-0.02,0.248,0.146,0.474,0.389,0.528c0.091,0.02,2.495,0.553,5.885,0.434c0.257-0.01,0.466-0.212,0.481-0.47
	C19.095,44.834,20.59,21.088,24,14.78c3.411,6.299,4.907,30.054,4.922,30.296c0.016,0.258,0.225,0.46,0.481,0.47
	c0.335,0.012,0.661,0.017,0.977,0.017c2.87,0,4.826-0.433,4.907-0.45c0.243-0.055,0.409-0.28,0.389-0.528L33.817,21.553z
	 M29.891,44.559c-0.232-3.512-1.77-24.842-5.173-30.542c-0.051-0.085-0.209-0.329-0.259-0.404c-0.092-0.139-0.331-0.223-0.498-0.223
	s-0.323,0.083-0.416,0.223c-0.05,0.075-0.209,0.318-0.258,0.4c-3.405,5.704-4.942,27.034-5.174,30.546
	c-2.231,0.037-3.982-0.208-4.753-0.342l1.822-22.576l1.501-17.018l-0.006-0.942c1.078,0.357,3.394,0.941,7.183,1.025h0.296
	c3.775-0.084,6.103-0.667,7.19-1.023L31.322,4.67l1.499,16.967l1.822,22.581C33.874,44.351,32.13,44.598,29.891,44.559z"/>
</svg>
