<?xml version="1.0" encoding="utf-8"?>
<!-- Generator: Adobe Illustrator 16.0.0, SVG Export Plug-In . SVG Version: 6.00 Build 0)  -->
<!DOCTYPE svg PUBLIC "-//W3C//DTD SVG 1.1//EN" "http://www.w3.org/Graphics/SVG/1.1/DTD/svg11.dtd">
<svg version="1.1" id="Layer_1" xmlns="http://www.w3.org/2000/svg" xmlns:xlink="http://www.w3.org/1999/xlink" x="0px" y="0px"
	 width="48px" height="48px" viewBox="0 0 48 48" enable-background="new 0 0 48 48" xml:space="preserve">
<g>
	<path fill="#414042" d="M35.511,21.273l-1.194-7.535c0-0.001,0-0.003,0-0.005l-1.59-10.032l-0.309-1.555
		c-0.029-0.15-0.128-0.278-0.264-0.348c-0.137-0.07-0.299-0.074-0.438-0.008C31.696,1.8,29.586,2.745,24.27,2.863h-0.286
		c-5.327-0.118-7.438-1.063-7.457-1.072c-0.139-0.064-0.3-0.062-0.438,0.006c-0.137,0.069-0.235,0.198-0.265,0.348l-1.966,11.497
		c-0.026,0.066-0.038,0.132-0.035,0.2l-1.333,7.799L9.256,44.991c-0.038,0.27,0.148,0.521,0.417,0.563
		c0.188,0.029,4.629,0.72,8.07,0.72c0.263,0,0.52-0.004,0.767-0.013c0.255-0.01,0.462-0.209,0.481-0.463
		c0.016-0.21,1.573-20.787,5.129-27.188c3.555,6.4,5.114,26.978,5.129,27.188c0.02,0.254,0.227,0.453,0.481,0.463
		c0.196,0.007,0.397,0.01,0.602,0.01c3.447,0,7.836-0.923,8.021-0.962c0.257-0.055,0.428-0.298,0.392-0.558L35.511,21.273z
		 M32.038,5.949l0.894,5.567l-3.19-4.948C30.538,6.417,31.328,6.218,32.038,5.949z M24.621,5.889V3.851
		c3.809-0.113,5.98-0.632,6.93-0.936l0.324,2.02c-2.5,1.027-6.431,1.071-7.276,1.067C24.607,5.964,24.621,5.929,24.621,5.889z
		 M16.494,3.897l0.196-0.982c0.95,0.303,3.121,0.822,6.932,0.936v2.039c0,0.04,0.014,0.076,0.023,0.113
		c-1.3-0.01-4.985-0.142-7.242-1.181c-0.02-0.009-0.042-0.008-0.063-0.015L16.494,3.897z M16.172,5.808
		c0.693,0.297,1.48,0.522,2.287,0.69c-0.018,0.02-0.041,0.034-0.056,0.057l-3.192,4.952L16.172,5.808z M22.646,15.458l0.883,2.198
		c-0.054,0.083-0.107,0.166-0.132,0.209c-3.511,5.882-5.11,24.201-5.366,27.407c-2.771,0.027-6.412-0.448-7.716-0.634l3.164-22.844
		l1.312-7.787l4.454-6.91c0.089-0.138,0.093-0.301,0.04-0.444c1.824,0.298,3.588,0.345,4.393,0.349
		c0.288,3.043,0.224,7.238-0.816,7.835C22.645,14.962,22.553,15.227,22.646,15.458z M24.682,7.003
		c0.328,0.001,0.929-0.005,1.684-0.046c0.283,1.814,0.706,6.641-0.611,7.989c-0.228,0.233-1.205,0.415-1.867,0.248
		C25.127,13.453,24.852,8.85,24.682,7.003z M30.213,45.271c-0.257-3.21-1.857-21.524-5.367-27.405
		c-0.052-0.087-0.218-0.34-0.271-0.419c-0.016-0.023-0.051-0.034-0.074-0.054l-0.508-1.266c0.02,0.005,0.037,0.018,0.059,0.021
		c0.112,0.015,0.223,0.014,0.33,0.023c0.76,0.064,1.69-0.117,2.089-0.524c1.832-1.873,1.068-7.634,0.898-8.759
		c0.464-0.04,0.954-0.094,1.457-0.166c-0.027,0.125-0.007,0.261,0.068,0.377l4.433,6.875l1.195,7.448l3.169,23.002
		C36.453,44.661,32.957,45.292,30.213,45.271z"/>
	<path fill="#414042" d="M25.729,4.123c-0.401,0-0.728,0.325-0.728,0.725c0,0.402,0.326,0.729,0.728,0.729
		c0.398,0,0.723-0.327,0.723-0.729C26.451,4.448,26.127,4.123,25.729,4.123z"/>
</g>
</svg>
