<?xml version="1.0" encoding="utf-8"?>
<!-- Generator: Adobe Illustrator 16.0.0, SVG Export Plug-In . SVG Version: 6.00 Build 0)  -->
<!DOCTYPE svg PUBLIC "-//W3C//DTD SVG 1.1//EN" "http://www.w3.org/Graphics/SVG/1.1/DTD/svg11.dtd">
<svg version="1.1" id="Layer_1" xmlns="http://www.w3.org/2000/svg" xmlns:xlink="http://www.w3.org/1999/xlink" x="0px" y="0px"
	 width="48px" height="48px" viewBox="0 0 48 48" enable-background="new 0 0 48 48" xml:space="preserve">
<path fill="#414042" d="M45.99,17.467l-5.287-7.976c-2.255-2.955-3.813-3.553-3.824-3.553l-6.052-3.133L28.64,0.882
	c-0.013-0.011-0.028-0.016-0.042-0.025c-0.021-0.016-0.043-0.029-0.066-0.041c-0.036-0.018-0.072-0.03-0.111-0.039
	c-0.014-0.003-0.025-0.013-0.041-0.015c-6.076-0.849-9.595,0.648-9.742,0.712c-0.042,0.018-0.073,0.048-0.107,0.075
	c-0.01,0.008-0.024,0.009-0.034,0.018l-1.904,1.775l-5.411,2.57c-0.065,0.024-1.624,0.62-3.901,3.605l-5.268,7.949
	c-0.14,0.212-0.1,0.495,0.095,0.659l6.828,5.754c0.203,0.171,0.504,0.153,0.686-0.04l1.527-1.621
	c0.104,2.804,0.34,10.647,0.34,24.151c0,0.253,0.189,0.466,0.44,0.496c0.058,0.007,5.468,0.649,10.868,0.649
	c0.358,0,0.718-0.003,1.075-0.009h0.253c5.737,0.092,11.89-0.633,11.951-0.641c0.251-0.03,0.44-0.243,0.44-0.496
	c0-13.503,0.236-21.346,0.342-24.15l1.524,1.621c0.184,0.194,0.484,0.21,0.687,0.04l6.828-5.754
	C46.09,17.962,46.13,17.679,45.99,17.467z M30.052,3.455c0.026,0.897,0.027,4.563-1.631,6.571c-0.222-0.229-0.566-0.77-0.771-2.007
	c-0.013-0.082-0.046-0.158-0.097-0.223c-0.144-0.188-0.663-0.829-1.303-1.185c1.082-1.045,2.465-2.633,2.714-4.11L30.052,3.455z
	 M23.539,9.731c0-0.001,0.001-0.002,0.001-0.003l0.038-0.256c0.004-0.033,0.077-0.568,0.476-1.059
	c-0.271,4.002,0.261,10.297,0.382,11.627c-0.297,0.252-0.63,0.363-0.89,0.409V9.765C23.546,9.753,23.54,9.743,23.539,9.731z
	 M24.894,6.498c-0.039,0.026-0.074,0.057-0.104,0.091c-0.146,0.127-0.281,0.24-0.397,0.334c-0.296,0.133-0.545,0.297-0.753,0.476
	c-0.176-0.587-0.601-0.937-0.941-1.09c-0.322-0.295-0.729-0.523-0.878-0.601c-0.647-0.534-1.127-1.133-1.495-1.702
	C21.4,3.752,23.86,3.341,27.362,3.75C26.699,4.773,25.658,5.82,24.894,6.498z M17.367,3.987l1.233-1.15
	c0.331,0.871,1.039,2.299,2.412,3.496c-1.164,0.498-2.065,1.877-2.567,2.814C17.38,6.884,17.35,4.639,17.367,3.987z M27.957,1.719
	c0.091,0.32,0.04,0.69-0.105,1.085c-4.187-0.548-7.016,0.024-8.042,0.3c-0.165-0.34-0.281-0.639-0.358-0.86
	C20.497,1.903,23.492,1.145,27.957,1.719z M38.785,22.81l-1.818-1.932c0.833-4.389,0.861-6.311,0.862-6.392
	c0.003-0.276-0.219-0.501-0.495-0.504c-0.002,0-0.003,0-0.005,0c-0.273,0-0.497,0.221-0.5,0.495c0,0.02-0.031,1.976-0.876,6.377
	c-0.016,0.044-0.045,0.083-0.047,0.132c-0.004,0.079-0.385,7.974-0.392,24.937c-1.501,0.162-6.585,0.659-11.383,0.584h-0.27
	c-4.789,0.082-9.874-0.421-11.375-0.584c-0.007-16.963-0.385-24.858-0.389-24.936c0-0.009-0.008-0.016-0.009-0.025
	c-0.001-0.015,0.003-0.03,0-0.045c-0.857-4.446-0.888-6.42-0.888-6.439c-0.003-0.274-0.226-0.495-0.5-0.495
	c-0.001,0-0.003,0-0.005,0c-0.276,0.002-0.498,0.228-0.495,0.504c0.001,0.081,0.029,1.996,0.858,6.368l-1.843,1.957l-6.125-5.162
	l5.002-7.551c2.048-2.685,3.422-3.242,3.473-3.264l4.8-2.278c0.034,1.235,0.294,3.65,1.672,5.956
	c0.097,0.163,0.274,0.253,0.467,0.242c0.189-0.015,0.354-0.135,0.425-0.31c0.015-0.039,1.606-3.815,3.325-3.234
	c0.122,0.047,0.675,0.322,0.378,1.315c-0.01,0.036-0.017,0.072-0.02,0.108l-0.068,0.986c-0.002,0.03,0.008,0.058,0.011,0.087
	c-0.002,0.021-0.012,0.038-0.012,0.059v11.213c0,0.257,0.194,0.472,0.449,0.498c0.012,0.001,0.076,0.007,0.179,0.007
	c0.401,0,1.394-0.09,2.149-0.91c0.097-0.104,0.145-0.245,0.131-0.386c-0.009-0.085-0.794-8.456-0.324-12.574
	c0.08-0.066,0.178-0.147,0.294-0.248c0.32,0.022,0.86,0.457,1.263,0.945c0.446,2.505,1.525,2.815,1.739,2.852
	c0.028,0.005,0.057,0.007,0.085,0.007c0.132,0,0.259-0.052,0.354-0.146c1.917-1.916,2.182-5.367,2.194-6.973l5.414,2.8
	c0.014,0.005,1.387,0.563,3.416,3.221l5.021,7.578L38.785,22.81z"/>
</svg>
