<?xml version="1.0" encoding="utf-8"?>
<!-- Generator: Adobe Illustrator 16.0.0, SVG Export Plug-In . SVG Version: 6.00 Build 0)  -->
<!DOCTYPE svg PUBLIC "-//W3C//DTD SVG 1.1//EN" "http://www.w3.org/Graphics/SVG/1.1/DTD/svg11.dtd">
<svg version="1.1" id="Layer_1" xmlns="http://www.w3.org/2000/svg" xmlns:xlink="http://www.w3.org/1999/xlink" x="0px" y="0px"
	 width="48px" height="48px" viewBox="0 0 48 48" enable-background="new 0 0 48 48" xml:space="preserve">
<path fill="#414042" d="M47.076,43.66c0.269,0,0.486-0.218,0.486-0.486c0-0.091-0.024-0.176-0.068-0.249L38.406,8.442
	c-0.016-0.062-0.045-0.12-0.084-0.171c-2.028-2.662-3.435-3.199-3.476-3.214l-6.379-2.622c-0.207-0.084-0.44-0.021-0.573,0.156
	c-1.539,2.028-3.993,3.563-4.564,3.904c-0.572-0.339-3.038-1.871-4.561-3.901c-0.133-0.178-0.37-0.243-0.574-0.158L11.834,5.05
	c-0.059,0.021-1.465,0.559-3.495,3.221c-0.043,0.056-0.073,0.12-0.088,0.188l-7.8,34.607c-0.032,0.145,0.002,0.296,0.095,0.411
	s0.232,0.183,0.38,0.183h0.659l-0.302,1.369c-0.032,0.144,0.003,0.294,0.096,0.409c0.092,0.114,0.231,0.182,0.379,0.182h3.931
	c0.23,0,0.429-0.162,0.476-0.387l0.329-1.573h0.404c0.229,0,0.427-0.159,0.476-0.384l4.496-20.742
	c0.099,3.617,0.215,9.805,0.215,18.794c0,0.269,0.217,0.486,0.486,0.486h1.231v1.653c0,0.269,0.218,0.486,0.486,0.486h18.027
	c0.27,0,0.486-0.218,0.486-0.486v-1.653h1.291c0.269,0,0.486-0.218,0.486-0.486c0-9.526,0.132-15.909,0.233-19.417l5.654,21.387
	c0.057,0.214,0.25,0.361,0.471,0.361h0.961l0.329,1.573c0.047,0.225,0.246,0.387,0.477,0.387h3.932c0.147,0,0.287-0.067,0.379-0.182
	c0.092-0.115,0.127-0.266,0.096-0.41l-0.303-1.368h0.25C47.064,43.66,47.072,43.661,47.076,43.66z M18.224,3.475
	c1.854,2.299,4.63,3.87,4.752,3.938c0.072,0.041,0.154,0.062,0.238,0.062h0.234c0.083,0,0.166-0.022,0.239-0.063
	c0.121-0.069,2.878-1.641,4.75-3.939l1.242,0.511c-2.261,2.823-5.669,4.914-6.316,5.297h-0.067c-0.649-0.381-4.077-2.47-6.315-5.296
	L18.224,3.475z M5.293,44.647h-2.93l0.218-0.987H5.5L5.293,44.647z M14.774,42.981v-1.167h17.055v1.167H14.774z M34.913,18.488
	c-0.061-0.231-0.271-0.387-0.521-0.359c-0.238,0.025-0.424,0.22-0.435,0.459c-0.004,0.07-0.344,7.118-0.352,22.254h-1.291H14.288
	h-1.231c-0.007-15.136-0.346-22.184-0.349-22.253c-0.013-0.244-0.203-0.441-0.446-0.461c-0.237-0.016-0.463,0.144-0.516,0.381
	L6.505,42.688H1.534l7.643-33.91c1.791-2.323,2.985-2.811,3.01-2.821l3.86-1.586c2.574,3.382,6.706,5.724,6.881,5.822
	c0.073,0.041,0.155,0.062,0.238,0.062h0.328c0.084,0,0.167-0.021,0.239-0.063c0.175-0.099,4.277-2.44,6.883-5.822l3.872,1.592
	c0.013,0.005,1.209,0.494,3.003,2.823l8.936,33.903h-5.115L34.913,18.488z M46.029,44.647h-2.931l-0.207-0.987h2.919L46.029,44.647z
	"/>
</svg>
