<?xml version="1.0" encoding="utf-8"?>
<!-- Generator: Adobe Illustrator 16.0.0, SVG Export Plug-In . SVG Version: 6.00 Build 0)  -->
<!DOCTYPE svg PUBLIC "-//W3C//DTD SVG 1.1//EN" "http://www.w3.org/Graphics/SVG/1.1/DTD/svg11.dtd">
<svg version="1.1" id="Layer_1" xmlns="http://www.w3.org/2000/svg" xmlns:xlink="http://www.w3.org/1999/xlink" x="0px" y="0px"
	 width="48px" height="48px" viewBox="0 0 48 48" enable-background="new 0 0 48 48" xml:space="preserve">
<g>
	<path fill="#414042" d="M25.498,34.904c-0.361,0-0.655,0.294-0.655,0.656c0,0.36,0.294,0.654,0.655,0.654s0.655-0.294,0.655-0.654
		C26.153,35.198,25.859,34.904,25.498,34.904z"/>
	<path fill="#414042" d="M25.561,29.279c-0.362,0-0.656,0.294-0.656,0.656c0,0.36,0.294,0.654,0.656,0.654
		c0.36,0,0.654-0.294,0.654-0.654C26.215,29.573,25.921,29.279,25.561,29.279z"/>
	<path fill="#414042" d="M25.621,24.428c-0.36,0-0.654,0.294-0.654,0.656s0.294,0.654,0.654,0.654c0.362,0,0.656-0.293,0.656-0.654
		S25.983,24.428,25.621,24.428z"/>
	<path fill="#414042" d="M25.84,18.803c-0.362,0-0.656,0.294-0.656,0.656c0,0.361,0.294,0.654,0.656,0.654
		c0.36,0,0.654-0.293,0.654-0.654C26.494,19.098,26.2,18.803,25.84,18.803z"/>
	<path fill="#414042" d="M26.15,13.551c-0.362,0-0.656,0.293-0.656,0.654c0,0.362,0.294,0.656,0.656,0.656
		c0.36,0,0.654-0.294,0.654-0.656C26.805,13.845,26.511,13.551,26.15,13.551z"/>
	<path fill="#414042" d="M46.933,39.863l-0.994-3.177l0,0L38.524,9.996c-0.043-0.154-0.157-0.279-0.308-0.335l-7.052-2.622
		l-1.408-2.355c-0.004-0.006-0.007-0.011-0.011-0.017c-0.062-0.097-0.152-0.165-0.254-0.201c-6.409-2.304-10.899-0.07-11.086,0.026
		c-0.009,0.005-0.012,0.017-0.021,0.022c-0.025,0.014-0.052,0.021-0.074,0.041C18.25,4.606,18.21,4.67,18.18,4.738
		c-0.002,0.004-0.007,0.005-0.009,0.01l-0.913,2.219c-0.026,0.006-0.051,0.004-0.077,0.014c-0.08,0.032-0.142,0.087-0.193,0.149
		L9.752,9.657C9.598,9.711,9.479,9.838,9.436,9.996L2.021,36.69c-0.054,0.151-0.575,1.632-0.96,3.202
		c-0.033,0.135-0.008,0.277,0.068,0.394s0.197,0.195,0.334,0.219l5,0.848c0.028,0.005,0.056,0.007,0.084,0.007
		c0.211,0,0.404-0.135,0.474-0.341c0,0,0.525-1.563,0.962-2.916l4.272-13.248l-0.583,15.986c-0.003,0.078,0.013,0.156,0.045,0.228
		c0.069,0.149,1.728,3.521,11.016,3.521c0.403,0,0.822-0.006,1.254-0.02c0.397-0.006,9.74-0.171,12.266-3.403
		c0.073-0.093,0.11-0.209,0.106-0.327L35.72,24.9l4.258,13.203c0.025,0.079,0.073,0.142,0.128,0.197
		c0.446,1.215,0.968,2.722,0.968,2.723c0.07,0.204,0.263,0.337,0.473,0.337c0.028,0,0.057-0.002,0.085-0.007l4.909-0.848
		c0.142-0.025,0.267-0.109,0.342-0.232S46.976,40.001,46.933,39.863z M30.284,7.514l-1.453,4.891L26.94,8.546l2.316-2.75
		L30.284,7.514z M28.471,5.178l-2.473,2.934l-0.825,0.65c-0.134,0.105-0.204,0.271-0.188,0.44l0.125,1.304l-0.934,2.461
		l-1.208-2.504l0.011-1.304c0.001-0.154-0.069-0.301-0.19-0.396l-0.825-0.65l-2.505-2.971C20.767,4.674,24.116,3.814,28.471,5.178z
		 M18.782,5.891l2.26,2.68l-1.303,3.45l-1.726-4.31c0.017-0.025,0.04-0.046,0.052-0.075L18.782,5.891z M6.208,40.295l-4.042-0.686
		c0.238-0.894,0.503-1.715,0.662-2.188l4.034,0.897C6.611,39.084,6.358,39.846,6.208,40.295z M12.676,40.731l0.708-19.445
		c0.009-0.25-0.167-0.467-0.413-0.511c-0.241-0.041-0.486,0.102-0.563,0.339L7.17,37.362l-4.048-0.9l7.207-25.947l6.781-2.368
		l2.178,5.438c0.076,0.19,0.26,0.314,0.464,0.314c0.001,0,0.003,0,0.005,0c0.206-0.002,0.39-0.13,0.463-0.323l1.62-4.288
		l0.137,0.108l-0.01,1.175c0,0.005,0.003,0.009,0.003,0.014c0,0.032,0.011,0.063,0.019,0.096c0.007,0.033,0.011,0.067,0.025,0.098
		c0.002,0.004,0.001,0.009,0.003,0.014l1.731,3.586c0,0,0,0,0,0.001c-0.113,2.6-1.009,23.935-0.107,29.034
		c0.01,0.059,0.031,0.112,0.059,0.161C15.193,43.793,13.012,41.225,12.676,40.731z M35.55,21.115
		c-0.076-0.237-0.303-0.384-0.563-0.339c-0.246,0.043-0.422,0.262-0.412,0.512l0.777,19.399c-2.05,2.316-8.747,2.775-10.781,2.862
		c0.048-0.094,0.074-0.199,0.054-0.311c-0.894-5.057,0.063-27.451,0.129-28.977l1.333-3.511c0.002-0.004,0.001-0.009,0.002-0.014
		c0.012-0.032,0.013-0.066,0.017-0.101c0.004-0.032,0.013-0.064,0.01-0.096c0-0.005,0.002-0.009,0.002-0.015l-0.111-1.148
		l0.165-0.13l2.325,4.746c0.085,0.172,0.26,0.28,0.449,0.28c0.014,0,0.027,0,0.042-0.002c0.205-0.017,0.379-0.158,0.438-0.355
		l1.729-5.816l6.477,2.409l7.208,25.953l-4.049,0.9L35.55,21.115z M41.879,40.295c-0.161-0.462-0.438-1.248-0.708-1.993l3.95-0.878
		l0.687,2.192L41.879,40.295z"/>
</g>
</svg>
