<?xml version="1.0" encoding="utf-8"?>
<!-- Generator: Adobe Illustrator 16.0.0, SVG Export Plug-In . SVG Version: 6.00 Build 0)  -->
<!DOCTYPE svg PUBLIC "-//W3C//DTD SVG 1.1//EN" "http://www.w3.org/Graphics/SVG/1.1/DTD/svg11.dtd">
<svg version="1.1" id="Layer_1" xmlns="http://www.w3.org/2000/svg" xmlns:xlink="http://www.w3.org/1999/xlink" x="0px" y="0px"
	 width="48px" height="48px" viewBox="0 0 48 48" enable-background="new 0 0 48 48" xml:space="preserve">
<g>
	<path fill="#414042" d="M43.916,22.546L38.309,9.987c-0.056-0.123-0.157-0.218-0.282-0.265l-7.052-2.624l-1.409-2.356
		c-0.002-0.003-0.004-0.007-0.006-0.01c-0.056-0.089-0.135-0.154-0.225-0.193C24.128,2.2,18.492,4.438,18.255,4.534
		c-0.025,0.01-0.043,0.03-0.065,0.043s-0.048,0.02-0.069,0.038c-0.005,0.005-0.008,0.012-0.013,0.017
		c-0.024,0.022-0.041,0.049-0.06,0.076c-0.021,0.028-0.042,0.053-0.056,0.084c-0.002,0.006-0.008,0.01-0.011,0.016l-0.913,2.219
		c-0.026,0.006-0.051,0.004-0.077,0.014c-0.08,0.032-0.142,0.087-0.193,0.149L9.562,9.719C9.428,9.766,9.319,9.868,9.265,10
		L4.081,22.539c-0.051,0.123-0.051,0.262,0.001,0.385s0.151,0.221,0.275,0.27l6.333,2.541c0.245,0.099,0.528-0.013,0.64-0.254
		l0.706-1.529l-0.992,16.467c-0.005,0.082,0.01,0.164,0.045,0.239c0.075,0.163,1.904,3.885,11.926,3.885
		c0.322,0,0.652-0.004,0.991-0.012c0.332-0.029,8.19-0.03,12.367-3.707c0.116-0.102,0.179-0.251,0.169-0.405l-1.037-17.122
		l1.361,2.218c0.128,0.21,0.39,0.295,0.614,0.202l6.168-2.504c0.125-0.051,0.225-0.151,0.275-0.277
		C43.974,22.811,43.971,22.669,43.916,22.546z M30.094,7.573l-1.453,4.893l-1.892-3.86l2.317-2.75L30.094,7.573z M28.312,5.199
		l-2.505,2.972l-0.825,0.65c-0.133,0.105-0.204,0.271-0.188,0.44l0.125,1.306l-0.934,2.461l-1.209-2.506l0.011-1.306
		c0.002-0.154-0.069-0.301-0.19-0.396l-0.825-0.65l-2.476-2.938C20.807,4.764,24.662,3.839,28.312,5.199z M18.592,5.95l2.259,2.681
		l-1.303,3.45l-1.726-4.311c0.017-0.025,0.04-0.046,0.052-0.075L18.592,5.95z M12.051,40.327l1.142-18.967
		c0.015-0.24-0.144-0.457-0.377-0.515c-0.238-0.061-0.475,0.058-0.576,0.275l-1.619,3.51l-5.423-2.176l4.906-11.865l6.816-2.382
		l2.178,5.439c0.076,0.19,0.26,0.314,0.464,0.314c0.001,0,0.003,0,0.005,0c0.206-0.002,0.39-0.13,0.463-0.323l1.619-4.289
		l0.136,0.107l-0.009,1.177c0,0.005,0.002,0.009,0.002,0.014c0.001,0.032,0.012,0.063,0.019,0.095
		c0.007,0.034,0.011,0.068,0.025,0.099c0.002,0.004,0.001,0.009,0.003,0.013l1.73,3.586c0,0.001,0.001,0.001,0.002,0.002
		c-0.113,2.606-1.009,23.932-0.107,29.031c0.004,0.021,0.016,0.039,0.022,0.06C14.723,43.627,12.407,40.862,12.051,40.327z
		 M37.495,24.631l-2.186-3.563c-0.119-0.195-0.356-0.284-0.576-0.216c-0.219,0.069-0.362,0.278-0.349,0.507l1.144,18.87
		c-3.412,2.827-9.47,3.232-11.108,3.29c0.02-0.07,0.028-0.145,0.015-0.221c-0.894-5.058,0.063-27.452,0.129-28.975l1.332-3.511
		c0.002-0.005,0.001-0.009,0.002-0.014c0.012-0.031,0.012-0.065,0.017-0.099c0.004-0.033,0.013-0.065,0.01-0.097
		c0-0.005,0.002-0.01,0.002-0.015l-0.111-1.15l0.165-0.13l2.326,4.748c0.085,0.172,0.26,0.28,0.449,0.28
		c0.014,0,0.027,0,0.042-0.002c0.205-0.017,0.379-0.158,0.438-0.355l1.729-5.817l6.518,2.425l5.311,11.895L37.495,24.631z"/>
	<path fill="#414042" d="M25.307,34.966c-0.36,0-0.654,0.294-0.654,0.654c0,0.362,0.293,0.656,0.654,0.656
		c0.362,0,0.656-0.294,0.656-0.656C25.963,35.26,25.669,34.966,25.307,34.966z"/>
	<path fill="#414042" d="M25.369,29.341c-0.361,0-0.655,0.294-0.655,0.654c0,0.362,0.293,0.656,0.655,0.656s0.655-0.294,0.655-0.656
		C26.024,29.635,25.73,29.341,25.369,29.341z"/>
	<path fill="#414042" d="M25.431,24.49c-0.361,0-0.655,0.293-0.655,0.654c0,0.362,0.294,0.656,0.655,0.656s0.655-0.294,0.655-0.656
		C26.086,24.783,25.792,24.49,25.431,24.49z"/>
	<path fill="#414042" d="M25.648,18.865c-0.361,0-0.655,0.293-0.655,0.654c0,0.362,0.294,0.656,0.655,0.656s0.655-0.294,0.655-0.656
		C26.304,19.158,26.01,18.865,25.648,18.865z"/>
	<path fill="#414042" d="M25.959,13.611c-0.361,0-0.655,0.294-0.655,0.656c0,0.361,0.294,0.654,0.655,0.654s0.655-0.293,0.655-0.654
		C26.614,13.905,26.32,13.611,25.959,13.611z"/>
</g>
</svg>
