<?xml version="1.0" encoding="utf-8"?>
<!-- Generator: Adobe Illustrator 16.0.0, SVG Export Plug-In . SVG Version: 6.00 Build 0)  -->
<!DOCTYPE svg PUBLIC "-//W3C//DTD SVG 1.1//EN" "http://www.w3.org/Graphics/SVG/1.1/DTD/svg11.dtd">
<svg version="1.1" id="Layer_1" xmlns="http://www.w3.org/2000/svg" xmlns:xlink="http://www.w3.org/1999/xlink" x="0px" y="0px"
	 width="48px" height="48px" viewBox="0 0 48 48" enable-background="new 0 0 48 48" xml:space="preserve">
<g>
	<path fill="#414042" d="M47.465,36.79l-1.187-3.157c0.002-0.067-0.008-0.136-0.033-0.2l-9.197-23.328
		c-0.054-0.137-0.166-0.244-0.307-0.291l-7.188-2.398l-0.886-0.884c-0.029-0.031-0.063-0.058-0.102-0.081
		c-0.046-0.027-0.095-0.046-0.145-0.058c-5.709-1.414-8.286-0.008-8.392,0.052c-0.039,0.022-0.075,0.049-0.107,0.081l-0.892,0.89
		l-7.185,2.398c-0.138,0.046-0.249,0.15-0.304,0.284L1.999,33.33v0.001l-1.455,3.44c-0.107,0.253,0.011,0.546,0.265,0.654
		l5.994,2.555c0.063,0.026,0.129,0.04,0.196,0.04c0.064,0,0.129-0.013,0.19-0.038c0.124-0.051,0.222-0.149,0.272-0.273l1.405-3.452
		c0-0.001,0-0.001,0.001-0.002l4.331-10.606c-0.023,3.09-0.02,8.685,0.189,15.697c0.008,0.264,0.219,0.476,0.482,0.485l8.415,0.301
		c0.033-0.005,0.693,0.004,1.256-0.372c0.015,0.018,0.03,0.036,0.046,0.054c0.18,0.201,0.507,0.44,1.076,0.44
		c0.009,0,0.019,0,0.028,0l9.983-0.866c0.265-0.023,0.465-0.25,0.456-0.516c-0.245-7.018-0.323-12.439-0.347-15.407l4.465,10.717
		c0.01,0.024,0.029,0.041,0.042,0.063l1.296,3.452c0.048,0.128,0.146,0.23,0.271,0.284c0.063,0.026,0.13,0.04,0.196,0.04
		c0.067,0,0.135-0.014,0.197-0.041l5.943-2.555C47.439,37.319,47.56,37.04,47.465,36.79z M29.41,17.001l0.801,0.739
		c-0.957,0.829-3.25,2.936-4.96,5.437l3.182-14.521l3.104,6.252l-2.055,1.304c-0.132,0.083-0.217,0.223-0.23,0.377
		S29.296,16.896,29.41,17.001z M18.54,16.211l-2.055-1.304l3.3-6.647c0.037-0.074,0.048-0.152,0.046-0.229l0.141-0.14l3.127,16.467
		c-1.689-2.957-4.315-5.631-5.313-6.596l0.825-0.76c0.114-0.105,0.173-0.258,0.159-0.413C18.756,16.434,18.671,16.295,18.54,16.211z
		 M27.716,7.253L24.05,24.014L20.854,7.182C21.635,6.906,23.833,6.372,27.716,7.253z M6.727,38.861l-5.068-2.16l1.067-2.523
		l5.031,2.154L6.727,38.861z M23.178,40.742c-0.286,0.385-0.875,0.39-0.868,0.39l-7.937-0.284
		c-0.303-10.538-0.142-17.747-0.14-17.819c0.005-0.241-0.162-0.452-0.398-0.501c-0.236-0.051-0.474,0.077-0.565,0.3L8.134,35.405
		l-5.023-2.15L12.38,10.69l6.092-2.034l-3.083,6.21c-0.114,0.229-0.036,0.507,0.18,0.645l1.886,1.196l-0.74,0.682
		c-0.103,0.095-0.161,0.229-0.161,0.369c0,0.14,0.059,0.273,0.163,0.368c0.055,0.051,5.427,5.012,6.65,9.333
		c-0.143,4.74-0.186,8.707-0.187,8.753l0.004,4.039C23.179,40.295,23.157,40.489,23.178,40.742z M34.734,22.748
		c-0.092-0.219-0.322-0.346-0.56-0.298c-0.233,0.046-0.401,0.25-0.402,0.488c0,0.069-0.021,6.915,0.342,17.495l-7.857,0.699
		l-1.61,0.122c-0.185-0.007-0.272-0.06-0.314-0.106c-0.061-0.066-0.101-0.165-0.125-0.273c0.01-0.086-0.002-0.171-0.034-0.249
		c-0.007-0.115-0.003-0.227,0.006-0.313v-4.097c0.001-0.04,0.042-3.932,0.172-8.526c0.043-0.099,0.062-0.209,0.033-0.321
		c-0.006-0.023-0.015-0.047-0.021-0.07c0.001-0.026,0.001-0.052,0.002-0.078c1.135-4.339,6.858-9.029,6.916-9.076
		c0.112-0.091,0.18-0.228,0.185-0.373c0.004-0.145-0.055-0.285-0.161-0.383l-0.738-0.682l1.886-1.196
		c0.217-0.137,0.294-0.416,0.181-0.645l-3.194-6.436l6.765,2.258l8.928,22.645l-5.147,2.013L34.734,22.748z M41.338,38.854
		l-0.971-2.585l5.087-1.989l0.907,2.415L41.338,38.854z"/>
	<path fill="#414042" d="M25.927,27.407c-0.391,0-0.709,0.317-0.709,0.707c0,0.391,0.318,0.709,0.709,0.709s0.709-0.318,0.709-0.709
		C26.636,27.725,26.317,27.407,25.927,27.407z"/>
	<path fill="#414042" d="M25.72,33.624c-0.392,0-0.711,0.317-0.711,0.707c0,0.391,0.319,0.709,0.711,0.709
		c0.39,0,0.707-0.318,0.707-0.709C26.427,33.941,26.109,33.624,25.72,33.624z"/>
</g>
</svg>
