<?xml version="1.0" encoding="utf-8"?>
<!-- Generator: Adobe Illustrator 16.0.0, SVG Export Plug-In . SVG Version: 6.00 Build 0)  -->
<!DOCTYPE svg PUBLIC "-//W3C//DTD SVG 1.1//EN" "http://www.w3.org/Graphics/SVG/1.1/DTD/svg11.dtd">
<svg version="1.1" id="Layer_1" xmlns="http://www.w3.org/2000/svg" xmlns:xlink="http://www.w3.org/1999/xlink" x="0px" y="0px"
	 width="48px" height="48px" viewBox="0 0 48 48" enable-background="new 0 0 48 48" xml:space="preserve">
<g>
	<path fill="#414042" d="M46.946,36.005L36.827,10.106c-0.054-0.138-0.167-0.245-0.308-0.292l-7.188-2.398l-0.885-0.884
		c-0.028-0.029-0.061-0.055-0.096-0.077c-0.047-0.029-0.099-0.05-0.15-0.062c-5.713-1.414-8.289-0.008-8.396,0.052
		c-0.04,0.022-0.076,0.05-0.107,0.082l-0.889,0.889l-7.185,2.398c-0.139,0.046-0.25,0.151-0.306,0.287L1.058,35.547
		c-0.102,0.252,0.017,0.539,0.267,0.646L7.27,38.74c0.124,0.052,0.265,0.053,0.389,0.002c0.125-0.052,0.223-0.152,0.272-0.278
		l5.042-12.736c-0.023,3.105-0.019,8.665,0.19,15.618c0.008,0.264,0.219,0.476,0.482,0.485l8.413,0.301
		c0.024-0.005,0.693,0.004,1.257-0.373c0.014,0.019,0.029,0.036,0.045,0.054c0.18,0.202,0.507,0.441,1.078,0.441
		c0.009,0,0.018,0,0.028,0l9.985-0.866c0.265-0.023,0.465-0.25,0.456-0.516c-0.245-6.974-0.323-12.373-0.349-15.353l5.39,13.23
		c0.104,0.254,0.388,0.377,0.646,0.277l6.068-2.375C46.92,36.552,47.047,36.262,46.946,36.005z M27.494,7.253L23.827,24.01
		l-3.196-16.83C21.412,6.904,23.609,6.373,27.494,7.253z M22.961,40.25c-0.005,0.044-0.027,0.239-0.007,0.492
		c-0.287,0.385-0.876,0.39-0.87,0.39l-7.934-0.284c-0.305-10.538-0.142-17.747-0.14-17.819c0.005-0.242-0.163-0.454-0.4-0.502
		c-0.241-0.049-0.476,0.082-0.564,0.306L7.191,37.618l-5.023-2.151l9.991-24.777l7.078-2.363c0.074-0.024,0.141-0.066,0.195-0.121
		l0.316-0.316l3.534,18.61l-0.13,0.593c-0.15,4.901-0.195,9.072-0.195,9.119L22.961,40.25z M40.689,37.916l-6.178-15.164
		c-0.089-0.221-0.326-0.349-0.558-0.302c-0.235,0.045-0.404,0.25-0.405,0.489c0,0.069-0.021,6.915,0.343,17.495l-7.856,0.699
		l-1.611,0.122c-0.218,0.007-0.289-0.077-0.315-0.106c-0.059-0.066-0.099-0.163-0.124-0.271c0.011-0.087-0.002-0.174-0.034-0.252
		c-0.006-0.115-0.002-0.226,0.007-0.312v-4.097c0-0.041,0.044-4.202,0.184-9.002l0.081-0.368c0.064-0.097,0.09-0.216,0.074-0.339
		L28.381,7.88l0.326,0.326c0.055,0.055,0.122,0.096,0.195,0.121l7.078,2.362l9.853,25.215L40.689,37.916z"/>
	<path fill="#414042" d="M21.303,32.843h-5.125c-0.276,0-0.5,0.224-0.5,0.5s0.224,0.5,0.5,0.5h5.125c0.276,0,0.5-0.224,0.5-0.5
		S21.579,32.843,21.303,32.843z"/>
	<path fill="#414042" d="M31.303,32.843h-5.125c-0.276,0-0.5,0.224-0.5,0.5s0.224,0.5,0.5,0.5h5.125c0.276,0,0.5-0.224,0.5-0.5
		S31.579,32.843,31.303,32.843z"/>
</g>
</svg>
