<?xml version="1.0" encoding="utf-8"?>
<!-- Generator: Adobe Illustrator 16.0.0, SVG Export Plug-In . SVG Version: 6.00 Build 0)  -->
<!DOCTYPE svg PUBLIC "-//W3C//DTD SVG 1.1//EN" "http://www.w3.org/Graphics/SVG/1.1/DTD/svg11.dtd">
<svg version="1.1" id="Layer_1" xmlns="http://www.w3.org/2000/svg" xmlns:xlink="http://www.w3.org/1999/xlink" x="0px" y="0px"
	 width="48px" height="48px" viewBox="0 0 48 48" enable-background="new 0 0 48 48" xml:space="preserve">
<g>
	<path fill="#414042" d="M16.792,38.61c0.079,0.045,0.164,0.066,0.249,0.066c0.173,0,0.341-0.09,0.434-0.251l2.763-4.807
		c0.138-0.239,0.055-0.545-0.185-0.683c-0.241-0.138-0.545-0.056-0.683,0.185l-2.763,4.807
		C16.469,38.167,16.552,38.473,16.792,38.61z"/>
	<path fill="#414042" d="M28.342,33.121c-0.139-0.241-0.446-0.321-0.683-0.185c-0.239,0.138-0.322,0.443-0.185,0.683l2.763,4.807
		c0.093,0.161,0.261,0.251,0.434,0.251c0.085,0,0.171-0.021,0.249-0.066c0.239-0.138,0.322-0.443,0.185-0.683L28.342,33.121z"/>
	<path fill="#414042" d="M42.262,39.774c0.04-0.035,0.08-0.071,0.107-0.117c0.07-0.118,0.09-0.26,0.053-0.392l-6.2-22.328
		c-0.037-0.136-0.131-0.249-0.256-0.313l-6.316-3.187l-0.091-0.21c0.003-0.002,0.008-0.003,0.012-0.006
		c3.758-2.869,2.243-5.309,2.195-5.38c-3.946-7.192-7.284-7.728-7.425-7.747c-0.083-0.011-0.168-0.001-0.248,0.028
		c-3.381,1.3-6.857,7.821-7.025,8.145c-0.162,0.401-0.235,0.787-0.249,1.157c-0.003,0.02-0.006,0.042-0.007,0.057
		c0,0.007,0.002,0.013,0.002,0.02c-0.022,1.648,1.237,2.951,2.2,3.59v0.412l-6.99,3.11c-0.137,0.061-0.239,0.179-0.279,0.323
		L5.544,39.266c-0.037,0.132-0.018,0.273,0.053,0.392c0.031,0.051,0.073,0.091,0.118,0.127c-0.351,0.762-0.737,1.801-0.524,2.332
		c0.064,0.16,0.206,0.275,0.375,0.307l3.396,0.615c0.03,0.005,0.06,0.008,0.089,0.008c0.192,0,0.371-0.11,0.454-0.289
		c0.02-0.044,0.463-1.001,0.785-1.934c0.181-0.029,0.338-0.156,0.397-0.341l3.55-11.01l0.128,13.387
		c-0.069,0.646,0.097,1.795,0.983,2.424c0.005,0.223,0.007,0.624-0.01,1.311c-0.005,0.209,0.121,0.399,0.315,0.478
		c0.134,0.053,2.225,0.854,6.694,0.854c2.596,0,5.994-0.271,10.277-1.116c0.234-0.046,0.403-0.251,0.403-0.49v-1.803
		c0-0.042-0.014-0.08-0.024-0.119c0.334-0.354,0.592-0.835,0.601-1.479l0.126-13.444l3.551,11.009
		c0.068,0.212,0.267,0.341,0.482,0.338c0.323,0.923,0.787,1.875,0.808,1.918c0.085,0.174,0.261,0.28,0.449,0.28
		c0.029,0,0.06-0.003,0.09-0.008l3.329-0.605c0.168-0.031,0.31-0.146,0.374-0.306C43.026,41.568,42.621,40.526,42.262,39.774z
		 M24.313,1.115c0.556,0.166,3.063,1.182,6.121,6.412c-2.273-1.722-5.842-1.339-6.029-1.316c-2.911,0.285-4.695,0.819-5.803,1.378
		C19.706,5.732,22.093,2.08,24.313,1.115z M17.807,9.581C17.807,9.581,17.807,9.581,17.807,9.581
		c0.003-0.018,0.417-1.76,6.706-2.376c0.054-0.005,5.239-0.574,6.486,2.668c-0.2,0.689-0.745,1.57-2.035,2.555
		c-0.02,0.015-0.029,0.036-0.046,0.052c-0.06-0.001-0.121,0.007-0.18,0.028c-0.279,0.099-2.473,0.912-3.364,2.28
		c0.637-1.32,1.799-2.02,2.613-2.506c0.131-0.079,0.253-0.151,0.361-0.22c1.508-0.954,0.328-3.71,0.188-4.021
		c-0.113-0.253-0.41-0.365-0.66-0.251c-0.252,0.113-0.365,0.409-0.252,0.661c0.315,0.705,0.802,2.379,0.189,2.767l-0.34,0.207
		c-0.827,0.494-2.077,1.248-2.856,2.629c-0.365-0.729-0.977-1.149-1.579-1.555c-0.446-0.301-0.908-0.611-1.329-1.071
		c-1.11-1.211-0.685-2.276-0.661-2.333c0.111-0.25-0.001-0.544-0.251-0.658c-0.253-0.113-0.548-0.002-0.662,0.249
		c-0.031,0.068-0.741,1.696,0.837,3.417c0.501,0.547,1.036,0.907,1.508,1.225c0.873,0.588,1.45,0.976,1.474,2.224
		c0.001,0.076,0.022,0.145,0.054,0.208c-0.017,0.094-0.025,0.196-0.038,0.293c-0.109-0.597-0.165-1.008-0.172-1.046
		c-0.417-1.565-3.521-2.569-4.139-2.754c-0.034-0.01-0.068-0.003-0.103-0.006C19.042,11.894,17.823,10.908,17.807,9.581z
		 M25.003,15.92c-0.004,0.022-0.01,0.049-0.015,0.073C24.992,15.968,24.999,15.945,25.003,15.92z M8.755,41.984L6.15,41.513
		c0.073-0.338,0.284-0.902,0.543-1.453l2.602,0.578C9.112,41.146,8.898,41.657,8.755,41.984z M14.783,25.89
		c-0.025-0.004-0.05-0.006-0.076-0.006c-0.214,0-0.408,0.138-0.476,0.347L9.875,39.742l-3.227-0.717l5.997-21.593l7.072-3.146
		c0.181-0.081,0.297-0.259,0.297-0.457v-0.403c1.228,0.451,2.643,1.184,2.804,1.774c0.01,0.076,0.244,1.854,0.792,3.674
		c-0.059,1.68-0.739,21.583-0.026,26.377c-4.036,0.052-7.129-0.559-7.176-0.567c-1.16-0.244-1.063-1.569-1.045-1.775l-0.155-16.529
		C15.205,26.134,15.025,25.927,14.783,25.89z M16.346,46.245c0.004-0.219,0.005-0.399,0.006-0.554
		c0.645,0.121,3.304,0.576,6.757,0.576c2.61,0,5.67-0.262,8.646-1.126c0.082-0.02,0.175-0.049,0.272-0.087v0.853
		C22.573,47.716,17.604,46.611,16.346,46.245z M33.734,26.23c-0.075-0.232-0.304-0.379-0.551-0.341
		c-0.242,0.037-0.423,0.244-0.425,0.489l-0.155,16.527c-0.013,0.981-1.04,1.252-1.104,1.269c-2.321,0.675-4.722,0.966-6.907,1.051
		c-0.711-4.297-0.059-24.086,0.014-26.215c1.203-1.359,1.416-3.006,1.449-3.369c0.307-0.875,1.712-1.642,2.584-2.018l0.165,0.38
		c0.047,0.107,0.13,0.195,0.233,0.247l6.28,3.168l6,21.607l-3.226,0.717L33.734,26.23z M39.309,41.958
		c-0.148-0.323-0.371-0.833-0.555-1.338l2.53-0.563c0.265,0.54,0.487,1.11,0.568,1.438L39.309,41.958z"/>
</g>
</svg>
