<?xml version="1.0" encoding="utf-8"?>
<!-- Generator: Adobe Illustrator 16.0.0, SVG Export Plug-In . SVG Version: 6.00 Build 0)  -->
<!DOCTYPE svg PUBLIC "-//W3C//DTD SVG 1.1//EN" "http://www.w3.org/Graphics/SVG/1.1/DTD/svg11.dtd">
<svg version="1.1" id="Layer_1" xmlns="http://www.w3.org/2000/svg" xmlns:xlink="http://www.w3.org/1999/xlink" x="0px" y="0px"
	 width="48px" height="48px" viewBox="0 0 48 48" enable-background="new 0 0 48 48" xml:space="preserve">
<g>
	<path fill="#414042" d="M20.561,21.343h-4.832c-0.276,0-0.5,0.224-0.5,0.5s0.224,0.5,0.5,0.5h4.832c0.276,0,0.5-0.224,0.5-0.5
		S20.837,21.343,20.561,21.343z"/>
	<path fill="#414042" d="M45.926,37.268c0.004-0.057,0.004-0.113-0.012-0.169l-7.418-26.706c-0.043-0.154-0.157-0.279-0.307-0.335
		l-7.051-2.623l-1.41-2.357c-0.007-0.012-0.02-0.018-0.027-0.029c-0.008-0.012-0.011-0.026-0.021-0.038
		c-0.016-0.018-0.036-0.026-0.053-0.042c-0.023-0.021-0.045-0.041-0.072-0.057c-0.033-0.021-0.069-0.034-0.106-0.045
		c-0.018-0.006-0.033-0.019-0.052-0.022l-5.29-1.049l-0.405,0.01l-5.193,1.039c-0.015,0.003-0.025,0.015-0.04,0.019
		c-0.05,0.015-0.096,0.036-0.141,0.067c-0.022,0.015-0.042,0.029-0.061,0.047c-0.013,0.013-0.03,0.019-0.042,0.033
		c-0.024,0.029-0.036,0.063-0.052,0.095c-0.008,0.015-0.023,0.024-0.029,0.04l-0.843,2.049C17.301,7.197,17.3,7.2,17.298,7.203
		l-0.099,0.241l-7.474,2.61c-0.154,0.054-0.273,0.181-0.317,0.338L1.991,37.099c-0.024,0.086-0.016,0.173,0.006,0.258
		c-0.437,0.924-1.091,2.516-0.801,3.239c0.064,0.159,0.205,0.274,0.375,0.306l4.658,0.847c0.03,0.005,0.06,0.008,0.089,0.008
		c0.192,0,0.371-0.11,0.454-0.289c0.03-0.065,0.743-1.604,1.183-2.968l4.432-13.744l0.157,16.686
		c0.002,0.234,0.167,0.436,0.396,0.484l10.757,2.287c0.034,0.007,0.069,0.011,0.104,0.011h0.307c0.002,0,0.004-0.001,0.006-0.001
		c0.027,0,0.054-0.001,0.081-0.007c0.001,0,0.002-0.001,0.004-0.002c0.004,0,0.009,0,0.013-0.001l10.755-2.287
		c0.229-0.049,0.395-0.25,0.396-0.484l0.156-16.686l4.433,13.744c0.024,0.075,0.068,0.136,0.12,0.189
		c0.448,1.317,1.134,2.726,1.164,2.788c0.085,0.173,0.261,0.279,0.449,0.279c0.029,0,0.06-0.003,0.09-0.008l4.658-0.847
		c0.169-0.031,0.311-0.146,0.374-0.306C47.108,39.845,46.375,38.174,45.926,37.268z M18.808,6.162l2.454,2.089
		c0.041,0.035,0.087,0.063,0.136,0.083l2.037,0.826c0.004,0.001,0.008,0.001,0.012,0.002c-0.011,0.407-0.032,1.249-0.059,2.408
		l-1.626-0.546c-1.698-0.409-3.084-2.95-3.445-3.666L18.808,6.162z M24.451,9.028l2.029-0.685c0.06-0.02,0.115-0.052,0.164-0.093
		l2.53-2.152l0.909,1.52c-0.039,0.051-0.069,0.109-0.088,0.175c-0.508,1.85-3.373,2.945-3.372,2.946l-2.229,0.679
		C24.423,10.135,24.444,9.281,24.451,9.028z M23.801,4.795l0.208-0.01l4.181,0.836l-2.121,1.805l-2.316,0.782l-1.904-0.772
		l-2.133-1.816L23.801,4.795z M6.023,40.694l-3.899-0.709c0.059-0.439,0.362-1.294,0.76-2.149l3.938,0.876
		C6.543,39.486,6.215,40.261,6.023,40.694z M13.357,21.661c-0.002-0.245-0.182-0.453-0.425-0.489
		c-0.241-0.037-0.476,0.107-0.551,0.341L7.143,37.759l-4.047-0.9l7.207-25.946L17.7,8.329c0.64,1.143,2.022,3.231,3.785,3.654
		l1.88,0.633c-0.169,7.751-0.469,25.296,0.157,30.537l-9.983-2.122L13.357,21.661z M35.523,21.512
		c-0.075-0.233-0.302-0.38-0.551-0.341c-0.242,0.037-0.423,0.244-0.425,0.489l-0.182,19.37l-9.842,2.093
		c-0.629-4.985-0.321-22.964-0.154-30.653l2.573-0.785c0.131-0.049,3.058-1.167,3.899-3.293l6.759,2.515l7.208,25.952l-4.047,0.9
		L35.523,21.512z M41.972,40.695c-0.2-0.432-0.548-1.214-0.834-1.995l3.94-0.877c0.415,0.86,0.734,1.723,0.799,2.162L41.972,40.695z
		"/>
	<path fill="#414042" d="M31.56,21.343h-4.832c-0.276,0-0.5,0.224-0.5,0.5s0.224,0.5,0.5,0.5h4.832c0.276,0,0.5-0.224,0.5-0.5
		S31.836,21.343,31.56,21.343z"/>
</g>
</svg>
