<?xml version="1.0" encoding="utf-8"?>
<!-- Generator: Adobe Illustrator 16.0.0, SVG Export Plug-In . SVG Version: 6.00 Build 0)  -->
<!DOCTYPE svg PUBLIC "-//W3C//DTD SVG 1.1//EN" "http://www.w3.org/Graphics/SVG/1.1/DTD/svg11.dtd">
<svg version="1.1" id="Layer_1" xmlns="http://www.w3.org/2000/svg" xmlns:xlink="http://www.w3.org/1999/xlink" x="0px" y="0px"
	 width="48px" height="48px" viewBox="0 0 48 48" enable-background="new 0 0 48 48" xml:space="preserve">
<g>
	<path fill="#414042" d="M20.591,21.278h-4.833c-0.276,0-0.5,0.224-0.5,0.5s0.224,0.5,0.5,0.5h4.833c0.276,0,0.5-0.224,0.5-0.5
		S20.867,21.278,20.591,21.278z"/>
	<path fill="#414042" d="M31.591,21.278h-4.833c-0.276,0-0.5,0.224-0.5,0.5s0.224,0.5,0.5,0.5h4.833c0.276,0,0.5-0.224,0.5-0.5
		S31.867,21.278,31.591,21.278z"/>
	<path fill="#414042" d="M38.006,19.279c1.781-5.727,0.591-8.87,0.539-9c-0.061-0.154-0.19-0.252-0.339-0.291l-7.201-2.893
		l-1.246-2.082c-0.05-0.083-0.122-0.15-0.209-0.192c-1.646-0.804-3.452-1.211-5.369-1.211c-3.247,0-5.663,1.162-5.764,1.211
		c-0.11,0.054-0.197,0.146-0.243,0.259l-0.946,2.3l-7.474,2.61C9.75,9.991,9.746,9.997,9.741,9.999
		c-0.069,0.027-0.131,0.066-0.183,0.121c-0.006,0.006-0.009,0.016-0.015,0.023c-0.035,0.041-0.067,0.083-0.088,0.136
		c-0.051,0.131-1.242,3.273,0.55,9.03c0.012,0.031,1.188,3.125,2.217,6.092L11.53,41.22c-0.006,0.142,0.048,0.279,0.15,0.379
		c0.117,0.115,2.978,2.811,12.051,2.811l0.433-0.003c0.36-0.02,8.862-0.504,11.945-3.206c0.113-0.099,0.176-0.244,0.171-0.395
		l-0.558-15.281c0.006-0.014,0.021-0.021,0.026-0.035C36.783,22.496,37.983,19.34,38.006,19.279z M29.87,7.146
		c-2.065,2.968-4.409,3.769-5.442,3.979c0.023-1.022,0.042-1.734,0.05-2.052c2.74-0.346,4.146-2.257,4.661-3.151L29.87,7.146z
		 M18.744,6.323c0.688,1.013,2.16,2.572,4.732,2.774c-0.009,0.358-0.027,1.048-0.049,1.997c-3.792-0.827-4.876-3.154-5.097-3.765
		L18.744,6.323z M28.299,5.38c-0.427,0.758-1.761,2.645-4.484,2.739c-2.598-0.09-3.93-1.81-4.416-2.626
		c0.848-0.324,2.622-0.885,4.782-0.885C25.635,4.608,27.012,4.878,28.299,5.38z M10.949,18.982c-1.076-3.459-1.001-5.91-0.811-7.224
		c0.731,1.4,1.913,4.431,2.25,9.82l-0.05,1.157C11.589,20.663,10.951,18.983,10.949,18.982z M13.221,25.368
		c0-0.007,0-0.014,0.001-0.021l0.165-3.777c-0.398-6.416-1.936-9.639-2.682-10.853l6.965-2.433c0.603,1.143,2.143,3.101,5.734,3.823
		c-0.171,7.672-0.504,26.422,0.191,31.3c-7.347-0.023-10.365-1.883-11.055-2.395L13.221,25.368z M24.6,43.374
		c-0.697-4.518-0.364-23.521-0.195-31.229c1.07-0.181,3.755-0.956,6.103-4.173l6.752,2.712c-0.831,1.251-2.623,4.67-2.682,10.934
		l0.692,18.979C32.701,42.616,26.357,43.237,24.6,43.374z M35.578,21.605c0.051-5.376,1.452-8.552,2.268-9.953
		c0.202,1.284,0.314,3.766-0.784,7.301c-0.01,0.023-0.673,1.766-1.438,3.89L35.578,21.605z"/>
</g>
</svg>
