<?xml version="1.0" encoding="utf-8"?>
<!-- Generator: Adobe Illustrator 16.0.0, SVG Export Plug-In . SVG Version: 6.00 Build 0)  -->
<!DOCTYPE svg PUBLIC "-//W3C//DTD SVG 1.1//EN" "http://www.w3.org/Graphics/SVG/1.1/DTD/svg11.dtd">
<svg version="1.1" id="Layer_1" xmlns="http://www.w3.org/2000/svg" xmlns:xlink="http://www.w3.org/1999/xlink" x="0px" y="0px"
	 width="48px" height="48px" viewBox="0 0 48 48" enable-background="new 0 0 48 48" xml:space="preserve">
<g>
	<path fill="#414042" d="M33.985,29.97c-0.046-0.313-1.145-7.626-3.058-11.546c0.023-0.208,0.002-0.516-0.217-0.842
		c-0.094-0.624-0.143-1.272-0.102-1.452l0.774-4.394c0.207-0.731,0.51-1.627,0.563-1.733c0.17-0.118,0.249-0.327,0.201-0.528
		c-0.01-0.038-0.897-3.813,0.311-6.766c0.078-0.191,0.031-0.41-0.119-0.552l-0.5-0.475c-0.07-0.067-0.159-0.112-0.256-0.129
		l-2.526-0.451c-0.164-0.031-0.329,0.024-0.446,0.143c-0.115,0.119-0.165,0.287-0.132,0.449c0.04,0.196,0.136,0.846,0.047,1.259
		C28.4,3.633,28.187,4.358,28.069,4.5c-0.053,0.061-0.112,0.148-0.183,0.256c-0.311,0.48-0.958,1.478-3.532,1.542l-0.146,0.002
		c-2.463,0-3.418-1.524-3.49-1.637c-0.009-0.012-0.964-1.28-1.159-3.123c-0.016-0.148-0.097-0.281-0.221-0.364
		c-0.124-0.083-0.278-0.105-0.421-0.062L17.247,1.62c-0.077-0.015-0.173-0.026-0.281-0.026c-0.479,0-0.901,0.228-1.187,0.642
		c-0.139,0.201-0.104,0.481,0.072,0.651c0.014,0.014,1.393,1.417,0.604,6.4c-0.015,0.094-0.001,0.193,0.037,0.281
		c0.004,0.009,0.392,0.915,0.692,3.262l0.554,3.683c-0.093,0.293-0.299,1.059-0.362,2.234c-0.366,0.622-1.602,3.307-3.678,13.583
		c-0.523,3.493-1.617,10.408-2.007,11.58c-0.063,0.191-0.006,0.402,0.146,0.535c0.063,0.055,0.653,0.542,1.962,0.75
		c0.473,0.074,0.992,0.085,1.494,0.095c0.426,0.009,1.047,0.021,1.254,0.063v0.235c0,0.041,0.012,0.079,0.021,0.117
		c0.004,0.018,0.003,0.037,0.01,0.055c0.021,0.059,0.053,0.111,0.093,0.158c0.006,0.007,0.016,0.011,0.022,0.018
		c0.036,0.037,0.076,0.07,0.123,0.094c0.019,0.01,0.04,0.013,0.06,0.021c0.033,0.012,0.064,0.028,0.1,0.033
		c0.058,0.008,1.429,0.203,2.597,0.203c0.701,0,1.182-0.069,1.498-0.217c0.225-0.032,0.953-0.074,1.307,0.031v0.185
		c0,0.254,0.19,0.467,0.442,0.497c0.05,0.006,1.236,0.143,2.325,0.143c0.836,0,1.634-0.063,1.983-0.45
		c0.413-0.089,1.114-0.226,1.462-0.233c0.073,0.027,0.15,0.035,0.229,0.032l3.757-0.363c0.011-0.001,0.02-0.01,0.03-0.012
		c0.029-0.004,0.06-0.004,0.089-0.015c0.031-0.011,0.054-0.032,0.081-0.049c0.021-0.012,0.04-0.021,0.058-0.034
		c0.062-0.049,0.113-0.105,0.146-0.174l0.001-0.001l2.939-0.482c0.131-0.021,0.248-0.094,0.325-0.202
		c0.078-0.108,0.108-0.242,0.087-0.373C36.313,44.471,34.691,34.762,33.985,29.97z M26.862,6.84c1.15-0.465,1.62-1.164,1.863-1.539
		c0.039-0.06,0.069-0.111,0.101-0.147c0.357-0.415,0.597-1.552,0.681-2.006c0.064-0.302,0.065-0.646,0.045-0.942l1.708,0.305
		l0.148,0.142c-1,2.781-0.46,5.966-0.282,6.834c-0.156,0.284-0.384,0.848-0.716,2.026l-0.779,4.416
		c-0.021,0.09-0.029,0.209-0.033,0.337l-0.623,0.349c-0.456-0.064-0.857,0.044-1.102,0.142c-0.301-0.107-0.744-0.197-1.265-0.273
		C26.569,13.562,26.838,7.412,26.862,6.84z M23.865,20.398l-0.49,1.298v-1.298H23.865z M23.375,24.528l1.658-4.395
		c0.352-0.515,1.292-1.687,2.187-2.144l-0.429,1.954c-0.002,0.006,0.001,0.013,0,0.02c-0.002,0.006-0.006,0.011-0.007,0.018
		l-0.588,4.189c-0.512,0.109-1.646,0.285-2.821,0.447V24.528z M24.327,19.398h-6.17c0.06-0.115,0.096-0.173,0.103-0.182
		c0.066-0.083,0.104-0.185,0.109-0.292c0.037-0.878,0.163-1.511,0.253-1.864c2.371,0.018,5.698,0.129,7.608,0.368
		C25.355,18.048,24.641,18.962,24.327,19.398z M24.209,7.301l0.17-0.002c0.569-0.014,1.041-0.082,1.471-0.168
		c-0.063,1.441-0.27,6.538-0.243,9.23c-0.877-0.088-1.872-0.151-2.852-0.196c0.127-1.899,0.032-7.225-0.006-9.051
		C23.185,7.221,23.657,7.301,24.209,7.301z M17.463,9.309c0.613-4.013-0.096-5.921-0.582-6.708c0.089-0.017,0.202,0.007,0.205,0.007
		c0,0,0,0,0,0c0.102,0.038,0.213,0.041,0.318,0.01l1.249-0.377c0.338,1.803,1.229,2.975,1.239,2.982
		c0.033,0.057,0.593,0.946,1.849,1.543c0.028,1.28,0.15,7.431,0.014,9.36c-1.26-0.043-2.392-0.059-3.074-0.064l-0.506-3.369
		C17.918,10.692,17.595,9.667,17.463,9.309z M16.62,44.384c-0.366-0.07-0.809-0.083-1.308-0.093c-0.468-0.01-0.952-0.02-1.357-0.084
		c-0.583-0.092-0.977-0.248-1.208-0.364c0.586-2.353,1.881-10.973,1.936-11.34c1.455-7.198,2.481-10.575,3.051-12.104h1.128
		l-0.839,5.6C17.479,31.12,16.834,41,16.62,44.384z M22.247,45.079c-0.171-0.024-0.333-0.057-0.532-0.057
		c-0.478,0-0.875,0.07-0.892,0.073c-0.058,0.011-0.113,0.031-0.164,0.061c-0.037,0.021-0.263,0.13-1.088,0.13
		c-0.704,0-1.507-0.079-1.998-0.136c0.149-2.396,0.856-13.514,1.44-19.025l0.855-5.705c0.001-0.007-0.002-0.014-0.001-0.021h2.507
		l0.001,3.945l-0.268,0.71c-0.062,0.164-0.034,0.35,0.076,0.487c0.052,0.065,0.119,0.112,0.193,0.146l0.002,4.2
		C21.3,38.74,21.928,43.463,22.247,45.079z M26.33,45.812c-0.121,0.041-0.432,0.113-1.188,0.113c-0.639,0-1.331-0.052-1.767-0.092
		v-0.048c0-0.03-0.016-0.057-0.021-0.086c0.019-0.081,0.025-0.165,0.001-0.251c-0.014-0.046-1.298-4.666,0.02-15.501v-4.319
		c0.886-0.121,2.051-0.289,2.799-0.436l-0.595,5.078c-0.021,0.189,0.066,0.375,0.227,0.479c0.082,0.053,0.177,0.079,0.271,0.079
		c0.09,0,0.18-0.024,0.259-0.072l0.006-0.003C26.426,33.659,26.669,43.165,26.33,45.812z M26.692,29.37l1.082-9.242l0.541-2.467
		c0.157-0.055,0.396-0.107,0.662-0.026l0.851,9.733l-1.959,1.294L26.692,29.37z M28.807,45.27c-0.07-0.013-0.148-0.019-0.238-0.019
		c-0.313,0-0.793,0.077-1.191,0.152c0.292-3.579,0.005-13.396-0.053-15.246l0.811-0.491l1.509-0.985
		c0.128,0.827,0.325,1.559,0.525,2.257c0.306,1.066,0.595,2.073,0.644,3.479c0.01,0.318,0.229,7.368,1.061,10.556L28.807,45.27z
		 M32.819,44.639c-0.784-3.09-1.005-10.175-1.007-10.254c-0.055-1.532-0.374-2.646-0.683-3.723
		c-0.218-0.759-0.423-1.476-0.535-2.325c-0.011-0.083-0.046-0.153-0.091-0.218l0.124-0.081c0.153-0.102,0.238-0.278,0.223-0.461
		l-0.747-8.545c1.799,3.824,2.882,11.01,2.893,11.084c0.616,4.176,1.925,12.073,2.266,14.122L32.819,44.639z"/>
	<path fill="#414042" d="M24.217,12.404c0.401,0,0.727-0.326,0.727-0.727s-0.326-0.727-0.727-0.727
		c-0.401,0-0.727,0.326-0.727,0.727S23.815,12.404,24.217,12.404z M24.217,11.404c0.15,0,0.272,0.123,0.272,0.273
		c0,0.302-0.545,0.301-0.545,0C23.944,11.527,24.066,11.404,24.217,11.404z"/>
	<path fill="#414042" d="M24.218,14.139c-0.401,0-0.728,0.325-0.728,0.725c0,0.4,0.326,0.727,0.728,0.727
		c0.4,0,0.727-0.326,0.727-0.727C24.944,14.464,24.618,14.139,24.218,14.139z M23.944,14.863c0-0.151,0.123-0.273,0.273-0.273
		c0.151,0,0.272,0.123,0.272,0.273C24.49,15.167,23.944,15.167,23.944,14.863z"/>
	<path fill="#414042" d="M24.218,9.662c0.4,0,0.727-0.327,0.727-0.729c0-0.4-0.326-0.727-0.727-0.727
		c-0.401,0-0.728,0.326-0.728,0.727C23.49,9.335,23.816,9.662,24.218,9.662z M24.218,8.662c0.151,0,0.272,0.122,0.272,0.271
		c0,0.307-0.546,0.306-0.546,0C23.944,8.784,24.067,8.662,24.218,8.662z"/>
</g>
</svg>
