<?xml version="1.0" encoding="utf-8"?>
<!-- Generator: Adobe Illustrator 16.0.0, SVG Export Plug-In . SVG Version: 6.00 Build 0)  -->
<!DOCTYPE svg PUBLIC "-//W3C//DTD SVG 1.1//EN" "http://www.w3.org/Graphics/SVG/1.1/DTD/svg11.dtd">
<svg version="1.1" id="Layer_1" xmlns="http://www.w3.org/2000/svg" xmlns:xlink="http://www.w3.org/1999/xlink" x="0px" y="0px"
	 width="48px" height="48px" viewBox="0 0 48 48" enable-background="new 0 0 48 48" xml:space="preserve">
<path fill="#414042" d="M38.699,37.08c0.064-0.189,0.104-0.399,0.107-0.635c0.061-3.74-2.249-6.027-2.679-6.42
	c0.051-0.166,0.085-0.341,0.1-0.525c0.189-2.316-2.716-5.373-3.22-5.884l-2.272-5.284c0.026-0.208,0.01-0.524-0.215-0.859
	c-0.086-0.576-0.147-1.255-0.103-1.452l0.774-4.394c0.207-0.732,0.511-1.628,0.563-1.734c0.169-0.118,0.249-0.327,0.201-0.527
	c-0.01-0.038-0.895-3.821,0.311-6.766c0.078-0.191,0.031-0.41-0.119-0.552l-0.5-0.475c-0.07-0.067-0.159-0.112-0.256-0.129
	l-2.527-0.451c-0.16-0.028-0.329,0.025-0.445,0.143s-0.165,0.287-0.133,0.449c0.043,0.212,0.136,0.848,0.047,1.259
	c-0.125,0.681-0.339,1.405-0.456,1.548c-0.053,0.062-0.112,0.149-0.183,0.257c-0.311,0.479-0.958,1.477-3.531,1.542l-0.146,0.002
	c-2.464,0-3.419-1.524-3.491-1.636c-0.009-0.013-0.963-1.281-1.159-3.124c-0.016-0.148-0.097-0.282-0.221-0.364
	c-0.124-0.083-0.278-0.106-0.421-0.062l-1.671,0.505c-0.077-0.015-0.173-0.026-0.281-0.026c-0.48,0-0.902,0.228-1.188,0.642
	c-0.139,0.201-0.104,0.481,0.072,0.651c0.014,0.014,1.394,1.417,0.605,6.4c-0.015,0.094-0.001,0.193,0.037,0.28
	c0.004,0.009,0.391,0.915,0.691,3.263l0.555,3.683c-0.095,0.299-0.306,1.085-0.365,2.294l-1.45,4.093
	c-0.151,0.004-0.299,0.067-0.394,0.2c-0.125,0.175-2.869,4.035-2.666,6.81c-0.617,0.595-3.002,3.041-3.167,5.396
	c-0.078,0.029-0.152,0.071-0.209,0.141C9.164,35.501,6.034,39.32,6.73,41.98c0.236,0.903,0.86,1.563,1.854,1.966
	c0.221,0.165,0.893,0.588,2.152,0.788c0.439,0.068,1.049,0.116,1.692,0.166c0.838,0.065,2.358,0.183,2.728,0.334v0.318
	c0,0.249,0.183,0.46,0.429,0.495c0.61,0.087,3.629,0.485,4.705-0.015c0.45-0.072,1.167-0.102,1.614,0.054v0.272
	c0,0.254,0.19,0.467,0.442,0.497c1.079,0.126,1.927,0.177,2.595,0.177c1.536,0,2.115-0.271,2.344-0.527
	c0.744-0.162,1.585-0.292,1.761-0.271c0.072,0.028,0.15,0.037,0.229,0.032l4.348-0.42c0.2-0.02,0.363-0.155,0.425-0.336l6.171-1.215
	c0.07-0.014,0.137-0.042,0.194-0.084c0.561-0.401,0.88-0.953,0.949-1.64C41.562,40.559,39.412,37.901,38.699,37.08z M18.149,18.962
	c0.017-0.047,0.026-0.096,0.028-0.146c0.06-1.405,0.346-2.182,0.349-2.189c0.03-0.08,0.04-0.168,0.027-0.252l-0.571-3.792
	c-0.256-2-0.579-3.026-0.71-3.383c0.613-4.013-0.097-5.921-0.582-6.708c0.089-0.015,0.204,0.007,0.205,0.007h0
	c0.103,0.038,0.214,0.04,0.318,0.009l1.248-0.377c0.338,1.803,1.229,2.975,1.239,2.982c0.05,0.085,1.261,2.078,4.318,2.078
	l0.17-0.002c3.102-0.078,3.974-1.423,4.346-1.998c0.039-0.06,0.069-0.111,0.101-0.146c0.358-0.416,0.597-1.552,0.681-2.007
	c0.064-0.302,0.065-0.646,0.045-0.942l1.709,0.305l0.148,0.142c-1,2.781-0.46,5.966-0.282,6.834
	c-0.156,0.284-0.384,0.848-0.717,2.026l-0.78,4.417c-0.107,0.463,0.06,1.593,0.112,1.928c0.015,0.087,0.051,0.168,0.106,0.237
	c0.099,0.12,0.09,0.204,0.094,0.204l0.001-0.001c-0.053,0.125-0.052,0.267,0.002,0.392l2.26,5.255
	c-0.962,1.277-1.539,1.389-2.008,1.389c-0.207,0-0.415-0.026-0.631-0.053c-0.276-0.033-0.564-0.067-0.879-0.067
	c-0.847,0-1.645,0.257-2.51,0.811c-0.579,0.371-1.06,0.551-1.469,0.551c-0.459,0-0.805-0.232-1.205-0.503
	c-0.448-0.303-0.957-0.646-1.663-0.646c-0.398,0-0.808,0.108-1.253,0.331c-0.254,0.127-0.502,0.188-0.759,0.188
	c-1.308,0-2.538-1.692-3.021-2.545L18.149,18.962z M15.869,23.988c0.541,0.888,1.94,2.849,3.769,2.849
	c0.41,0,0.815-0.099,1.206-0.294c0.814-0.406,1.308-0.157,1.911,0.249c0.468,0.316,0.999,0.674,1.764,0.674
	c0.605,0,1.263-0.231,2.008-0.708c0.905-0.579,1.529-0.653,1.971-0.653c0.271,0,0.52,0.031,0.758,0.061
	c0.258,0.031,0.505,0.06,0.752,0.06c0.962,0,1.748-0.459,2.626-1.555c1.02,1.109,2.719,3.289,2.6,4.749
	c-0.035,0.427-0.23,0.76-0.596,1.019c-0.663,0.468-1.282,0.519-2.066,0.582c-0.707,0.058-1.508,0.123-2.452,0.521
	c-1.093,0.463-1.254,0.481-1.791,0.545c-0.378,0.044-0.896,0.105-1.918,0.317c-1.758,0.362-1.956,0.338-2.279,0.301
	c-0.17-0.021-0.372-0.044-0.734-0.044c-0.396,0-0.774,0.039-1.157,0.08c-0.743,0.078-1.444,0.152-2.376-0.066
	c-0.557-0.132-0.718-0.235-0.847-0.318c-0.331-0.212-0.572-0.299-1.639-0.299c-1.578,0-2.574-0.715-2.582-0.721
	c-0.028-0.021-0.058-0.039-0.089-0.054c-0.516-0.238-0.833-0.605-0.97-1.125C13.275,28.417,14.921,25.423,15.869,23.988z
	 M12.963,30.933c0.263,0.539,0.689,0.955,1.279,1.237c0.244,0.168,1.395,0.887,3.133,0.887c0.88,0,0.967,0.056,1.099,0.141
	c0.229,0.146,0.489,0.292,1.158,0.449c0.547,0.129,1.033,0.171,1.478,0.171c0.448,0,0.853-0.043,1.233-0.083
	c0.349-0.037,0.691-0.074,1.052-0.074c0.304,0,0.474,0.021,0.616,0.037c0.474,0.057,0.762,0.064,2.601-0.315
	c0.979-0.203,1.472-0.261,1.831-0.303c0.639-0.075,0.896-0.122,2.065-0.616c0.795-0.337,1.48-0.393,2.143-0.446
	c0.823-0.067,1.675-0.137,2.562-0.763c0.147-0.104,0.278-0.219,0.394-0.341c0.575,0.583,2.249,2.541,2.201,5.516
	c-0.006,0.377-0.129,0.491-0.17,0.529c-0.312,0.289-1.203,0.244-2.068,0.196c-1.141-0.061-2.438-0.127-3.593,0.361
	c-1.476,0.624-1.697,0.65-2.43,0.736c-0.5,0.059-1.185,0.139-2.538,0.419c-2.363,0.488-2.619,0.457-3.083,0.403
	c-0.224-0.027-0.486-0.059-0.959-0.059c-0.531,0-1.036,0.054-1.523,0.105c-1.002,0.106-1.947,0.206-3.217-0.092
	c-0.741-0.175-1.085-0.334-1.389-0.475c-0.583-0.27-0.984-0.422-2.462-0.422c-2.071,0-2.87-0.837-2.873-0.841
	c-0.023-0.025-0.048-0.049-0.075-0.069c-0.596-0.452-0.901-0.995-0.932-1.661C10.414,33.862,12.082,31.864,12.963,30.933z
	 M39.908,43.339l-6.433,1.267c-0.163,0.032-0.295,0.142-0.359,0.286l-3.863,0.373c-0.417-0.066-1.224,0.04-2.415,0.316
	c-0.154,0.036-0.28,0.143-0.344,0.284c-0.366,0.188-1.944,0.206-3.591,0.045v-0.129c0-0.164-0.081-0.317-0.215-0.411
	c-0.876-0.607-2.468-0.342-2.647-0.31c-0.058,0.011-0.113,0.031-0.164,0.061c-0.411,0.242-2.166,0.186-3.722-0.006v-0.078
	c0-0.078-0.019-0.155-0.054-0.226c-0.3-0.594-1.326-0.732-3.597-0.908c-0.613-0.047-1.195-0.091-1.613-0.157
	c-1.204-0.19-1.728-0.615-1.728-0.615c-0.044-0.038-0.095-0.068-0.149-0.09c-0.728-0.28-1.158-0.71-1.316-1.313
	c-0.407-1.554,1.047-3.977,1.978-5.245c0.201,0.577,0.563,1.088,1.115,1.513c0.222,0.221,1.279,1.137,3.583,1.137
	c1.33,0,1.598,0.124,2.042,0.329c0.33,0.152,0.74,0.343,1.58,0.54c0.717,0.169,1.345,0.226,1.923,0.226
	c0.579,0,1.109-0.057,1.629-0.112c0.483-0.051,0.94-0.1,1.418-0.1c0.415,0,0.645,0.027,0.84,0.051
	c0.611,0.073,0.984,0.085,3.405-0.417c1.31-0.271,1.97-0.349,2.451-0.404c0.797-0.094,1.096-0.129,2.703-0.809
	c0.945-0.399,2.116-0.338,3.15-0.283c1.026,0.053,1.926,0.102,2.551-0.275c0.902,1.064,2.438,3.199,2.298,4.596
	C40.328,42.833,40.179,43.117,39.908,43.339z"/>
</svg>
