<?xml version="1.0" encoding="utf-8"?>
<!-- Generator: Adobe Illustrator 16.0.0, SVG Export Plug-In . SVG Version: 6.00 Build 0)  -->
<!DOCTYPE svg PUBLIC "-//W3C//DTD SVG 1.1//EN" "http://www.w3.org/Graphics/SVG/1.1/DTD/svg11.dtd">
<svg version="1.1" id="Layer_1" xmlns="http://www.w3.org/2000/svg" xmlns:xlink="http://www.w3.org/1999/xlink" x="0px" y="0px"
	 width="48px" height="48px" viewBox="0 0 48 48" enable-background="new 0 0 48 48" xml:space="preserve">
<path fill="#414042" d="M36.37,18.848c0.031,0.012,0.064,0.021,0.098,0.025c2.052,0.326,4.564-0.515,5.233-1.33
	c0.218-0.264,0.229-0.5,0.198-0.653c-0.093-0.462-1.979-8.804-2.386-10.435c-0.466-1.868-3.039-2.564-4.552-2.564
	c-1.054,0-2.683-0.209-3.165-0.274l-1.68-1.396c-0.144-0.119-0.343-0.149-0.516-0.075c-0.173,0.074-0.289,0.238-0.303,0.425
	c-0.024,0.36-0.153,1.418-0.441,1.992c-0.313,0.621-1.555,1.444-3.325,1.817c-0.23,0.049-0.488,0.073-0.766,0.073
	c-1.615,0-3.561-0.826-4.084-1.276c-0.451-0.387-1.491-2.228-2.04-3.298c-0.078-0.152-0.229-0.254-0.4-0.27
	c-0.176-0.015-0.337,0.058-0.441,0.194c-0.01,0.013-0.976,1.271-1.441,1.738c-0.235,0.233-0.626,0.266-1.295,0.303
	c-0.218,0.012-0.448,0.025-0.69,0.049c-1.098,0.11-2.366,0.556-3.573,1.255c-1.332,0.78-2.074,1.568-2.406,2.559
	c-0.019,0.056-1.859,5.729-2.3,8.814c-0.023,0.169,0.04,0.339,0.17,0.45c0.756,0.648,2.21,0.977,4.321,0.977
	c0.819,0,1.448-0.052,1.578-0.063c-0.113,1.088-0.146,3.431,1.298,5.321c0.014,0.023,1.327,2.292,0.585,4.371
	c-0.136,0.38-0.344,0.837-0.588,1.375c-1.218,2.688-3.486,7.692-2.103,15.114c0.031,0.166,0.144,0.305,0.3,0.37
	c0.193,0.08,4.834,1.973,12.354,1.973c4.336,0,8.744-0.637,13.103-1.894c0.191-0.056,0.331-0.219,0.357-0.416
	c1.286-9.893-2.178-15.397-2.296-15.573c-0.468-0.969-1.487-3.756-0.605-4.991c1.66-2.324,1.561-4.715,1.555-4.757
	c0-0.008,0.001-0.016,0.001-0.023L36.37,18.848z M29.75,5.013c0.212-0.421,0.346-0.974,0.428-1.441l0.934,0.775
	c0.042,0.628-0.024,2.944-3.01,4.533c-0.137-0.535-0.428-1.257-1.036-1.75c-0.05-0.041-0.107-0.066-0.159-0.102
	C28.27,6.549,29.354,5.802,29.75,5.013z M24.501,7.62h0.723v8h-0.723V7.62z M18.115,3.023c0.498,0.917,1.373,2.448,1.916,2.914
	c0.393,0.338,1.243,0.743,2.22,1.05c-0.661,0.495-0.989,1.324-1.143,1.912c-2.733-1.445-3.362-4.481-3.483-5.276
	C17.794,3.421,17.965,3.211,18.115,3.023z M35.446,16.382c-0.139,0-0.276,0.06-0.371,0.161c-0.174,0.186-0.167,0.408-0.138,0.854
	c0.005,0.063,0.026,0.178,0.061,0.327c0.059,0.266,0.148,0.667,0.127,1.045c0.001,0.021,0.079,2.156-1.371,4.186
	c-1.382,1.935,0.321,5.596,0.55,6.061c0.033,0.052,3.336,5.301,2.215,14.629c-4.165,1.171-8.372,1.765-12.509,1.765
	c-6.346,0-10.667-1.417-11.72-1.802c-1.222-6.957,0.841-11.509,2.08-14.243c0.258-0.567,0.476-1.051,0.618-1.451
	c0.903-2.526-0.601-5.107-0.698-5.264c-1.657-2.174-1.064-5.13-1.05-5.215c0.097-1.003,0.098-1.802,0.098-1.835
	c0-0.241-0.171-0.447-0.407-0.491c-0.233-0.047-0.471,0.085-0.559,0.31l-0.583,1.494c-0.271,0.018-0.702,0.039-1.203,0.039
	c-1.609,0-2.817-0.206-3.455-0.584c0.498-3.057,2.196-8.292,2.213-8.342c0.252-0.752,0.839-1.354,1.96-2.01
	c1.085-0.629,2.211-1.028,3.17-1.125c0.227-0.023,0.442-0.035,0.646-0.046c0.604-0.033,1.174-0.081,1.648-0.378
	c0.347,1.498,1.402,4.351,4.521,5.618c0.061,0.024,0.124,0.037,0.188,0.037c0.09,0,0.18-0.024,0.259-0.072
	c0.135-0.082,0.223-0.222,0.239-0.378c0.001-0.014,0.156-1.371,0.889-1.899c0.184-0.132,0.402-0.177,0.638-0.183v8.533
	c0,0.276,0.223,0.5,0.5,0.5h1.723c0.276,0,0.5-0.224,0.5-0.5V7.773c0.072,0.04,0.144,0.079,0.209,0.131
	c0.71,0.573,0.791,1.734,0.792,1.746c0.01,0.164,0.1,0.312,0.24,0.397c0.079,0.048,0.17,0.073,0.26,0.073
	c0.068,0,0.138-0.014,0.202-0.042c3.605-1.603,4.142-4.2,4.182-5.412c0.722,0.09,1.953,0.226,2.854,0.226
	c1.263,0,3.274,0.574,3.581,1.807c0.384,1.541,2.094,9.092,2.348,10.256c-0.31,0.311-1.685,0.999-3.385,1
	c-0.284,0-0.564-0.021-0.833-0.061l-0.48-0.181C36.003,16.75,35.895,16.382,35.446,16.382z"/>
</svg>
