<?xml version="1.0" encoding="utf-8"?>
<!-- Generator: Adobe Illustrator 16.0.0, SVG Export Plug-In . SVG Version: 6.00 Build 0)  -->
<!DOCTYPE svg PUBLIC "-//W3C//DTD SVG 1.1//EN" "http://www.w3.org/Graphics/SVG/1.1/DTD/svg11.dtd">
<svg version="1.1" id="Layer_1" xmlns="http://www.w3.org/2000/svg" xmlns:xlink="http://www.w3.org/1999/xlink" x="0px" y="0px"
	 width="48px" height="48px" viewBox="0 0 48 48" enable-background="new 0 0 48 48" xml:space="preserve">
<path fill="#414042" d="M47.057,30.552L38.459,9.804c-0.058-0.139-0.174-0.244-0.317-0.287l-8.804-2.661l-0.863-0.863
	c-0.007-0.007-0.015-0.015-0.023-0.022c-0.03-0.027-0.063-0.05-0.098-0.068c-0.07-0.038-0.15-0.059-0.234-0.059
	c-0.036,0.001-0.074,0.004-0.109,0.012c-0.064,0.015-0.124,0.041-0.176,0.077C26.14,7.057,24.229,7.14,24.228,7.14l-0.095,0
	c-0.019-0.001-1.924-0.077-3.63-1.213c-0.009-0.006-0.019-0.007-0.027-0.012c-0.021-0.012-0.043-0.02-0.066-0.029
	c-0.038-0.015-0.075-0.026-0.115-0.032c-0.011-0.001-0.02-0.008-0.031-0.009c-0.013-0.001-0.024,0.004-0.037,0.004
	c-0.037,0-0.071,0.004-0.107,0.012c-0.032,0.006-0.062,0.013-0.091,0.025c-0.018,0.008-0.034,0.02-0.051,0.029
	c-0.036,0.021-0.071,0.042-0.101,0.071c-0.002,0.001-0.004,0.002-0.006,0.004l-0.864,0.864L9.867,9.516
	C9.722,9.558,9.603,9.664,9.545,9.804l-8.6,20.748c-0.05,0.121-0.051,0.257-0.001,0.379c0.017,0.04,1.708,4.077,6.189,3.343
	c0.175-0.027,0.322-0.146,0.386-0.312l5.25-13.455c0.63,2.447,1.458,8.294-1.68,16.682c-0.079,0.21-0.008,0.446,0.173,0.578
	c0.277,0.203,6.819,4.944,11.505,4.268l0.287-0.076c0.088-0.023,0.168-0.071,0.232-0.138c0.047-0.049,0.344-0.376,0.677-1.135
	c0.541,1.124,1.167,1.365,1.384,1.418c0.276,0.049,0.566,0.07,0.867,0.07c3.922,0,9.713-3.78,9.977-3.953
	c0.193-0.128,0.273-0.371,0.194-0.589c-2.614-7.188-1.54-13.662-0.871-16.361l5.313,12.702c0.076,0.184,0.255,0.304,0.454,0.307
	c0.036,0,0.071,0.001,0.107,0.001c4.089-0.001,5.597-3.193,5.659-3.33C47.107,30.824,47.109,30.68,47.057,30.552z M28.695,7.627
	l0.024,0.024c0.059,0.058,0.13,0.101,0.209,0.125l0.073,0.022c0.005,0.083,0.022,0.167,0.071,0.242
	c2.329,3.594,1.642,5.211,1.64,5.216c-0.071,0.137-0.074,0.3-0.009,0.439c0.065,0.14,0.191,0.242,0.342,0.276l0.949,0.216
	c-0.628,1.659-2.874,6.916-7.01,10.071C25.554,22.961,28.905,14.965,28.695,7.627z M24.244,8.14
	c0.078-0.002,1.721-0.068,3.433-0.957c0.323,6.39-2.367,13.641-3.348,16.054c-3.665-5.143-3.723-13.457-3.642-16.054
	c1.705,0.878,3.336,0.954,3.429,0.957L24.244,8.14z M19.624,7.652l0.046-0.045c-0.074,3.215,0.167,11.581,4.236,16.728
	c-0.054,0.19-0.106,0.386-0.154,0.593c-0.028-0.114-0.092-0.221-0.196-0.294c-4.458-3.097-6.854-8.72-7.508-10.444l0.949-0.216
	c0.146-0.033,0.268-0.136,0.334-0.271c0.067-0.134,0.067-0.297,0.005-0.434c-0.007-0.016-0.695-1.633,1.635-5.227
	c0.031-0.048,0.047-0.1,0.06-0.152l0.379-0.11C19.491,7.755,19.564,7.711,19.624,7.652z M22.637,41.038l-0.068,0.019
	c-3.692,0.535-9.074-2.966-10.409-3.881c4.161-11.422,1.236-18.083,1.108-18.364c-0.083-0.183-0.287-0.308-0.469-0.293
	c-0.201,0.006-0.379,0.131-0.452,0.318L6.694,33.325c-3.038,0.343-4.406-1.923-4.741-2.593l8.424-20.324l7.277-2.119
	c-1.422,2.461-1.508,4.035-1.387,4.824l-0.993,0.227c-0.137,0.031-0.254,0.118-0.323,0.24s-0.084,0.268-0.041,0.401
	c0.1,0.309,2.51,7.607,8.075,11.474c0.087,0.061,0.186,0.089,0.285,0.089c0.151,0,0.296-0.071,0.393-0.199
	c-0.751,3.749-0.6,9.54-0.592,9.801c0.001,1.722,0.151,3.019,0.375,3.995C23.142,40.252,22.785,40.83,22.637,41.038z M41.621,33.276
	l-5.731-13.7c-0.079-0.19-0.276-0.308-0.473-0.307c-0.205,0.005-0.387,0.135-0.458,0.328c-0.125,0.342-2.991,8.389,0.354,17.999
	c-1.381,0.861-6.749,4.056-9.73,3.539c-0.01-0.004-0.681-0.285-1.125-2.075c-0.003-0.025-0.01-0.051-0.018-0.075
	c-0.211-0.884-0.367-2.122-0.368-3.854c-0.002-0.066-0.159-6.023,0.571-9.618c0.043,0.012,0.085,0.031,0.13,0.031
	c0.099,0,0.198-0.028,0.285-0.089c5.564-3.866,7.976-11.165,8.075-11.474c0.043-0.133,0.028-0.279-0.041-0.401
	s-0.187-0.209-0.323-0.24l-0.993-0.227c0.123-0.798,0.032-2.401-1.438-4.911l7.288,2.203l8.417,20.312
	C45.696,31.322,44.408,33.178,41.621,33.276z"/>
</svg>
