<?xml version="1.0" encoding="utf-8"?>
<!-- Generator: Adobe Illustrator 16.0.0, SVG Export Plug-In . SVG Version: 6.00 Build 0)  -->
<!DOCTYPE svg PUBLIC "-//W3C//DTD SVG 1.1//EN" "http://www.w3.org/Graphics/SVG/1.1/DTD/svg11.dtd">
<svg version="1.1" id="Layer_1" xmlns="http://www.w3.org/2000/svg" xmlns:xlink="http://www.w3.org/1999/xlink" x="0px" y="0px"
	 width="48px" height="48px" viewBox="0 0 48 48" enable-background="new 0 0 48 48" xml:space="preserve">
<path fill="#414042" d="M45.538,41.605c-0.202-0.217-0.45-0.357-0.729-0.422c-0.481-1.951-3.328-13.213-6.235-24.711
	c-0.978-3.866-1.7-6.726-1.799-7.118c-0.395-1.584-2.577-2.175-3.86-2.175c-0.634,0-1.642-0.55-2.253-0.936
	c0.308-0.638,0.079-1.559-0.718-2.819l-0.358-0.574c-0.047-0.075-0.115-0.133-0.197-0.167c-1.506-0.624-3.368-0.94-5.532-0.94
	c-2.832,0-5.152,0.539-5.249,0.562C18.54,2.321,18.477,2.354,18.424,2.4c-0.397,0.35-2.361,2.164-2.034,3.49
	c0.033,0.134,0.11,0.282,0.221,0.428c-0.05,0.049-0.097,0.093-0.15,0.146c-0.302,0.305-0.677,0.684-1.009,0.717
	c-0.93,0.093-2.006,0.471-3.032,1.064c-1.128,0.661-1.758,1.329-2.041,2.17c-0.318,0.969-6.508,27.227-7.209,30.971
	c-0.269,0.066-0.51,0.203-0.707,0.415c-0.779,0.84-0.671,2.547-0.656,2.739c0.011,0.137,0.087,0.261,0.206,0.331
	c0.11,0.066,2.381,1.402,4.432,1.402c0.333,0,0.66-0.035,0.971-0.117c0.087-0.022,0.164-0.072,0.221-0.142
	c0.147-0.18,1.385-1.761,0.864-3.079c0.013-0.027,0.041-0.043,0.047-0.074l5.111-22.658c0.146,0.771,0.444,1.606,1.018,2.358
	c0.012,0.02,1.126,1.943,0.496,3.707c-0.115,0.323-0.292,0.711-0.499,1.168c-1.034,2.279-2.957,6.524-1.784,12.817
	c0.026,0.141,0.122,0.259,0.254,0.313c0.089,0.037,9.088,3.674,21.594,0.067c0.162-0.047,0.281-0.186,0.304-0.353
	c1.089-8.391-1.847-13.06-1.947-13.209c-0.397-0.822-1.265-3.184-0.515-4.234c0.59-0.825,0.917-1.661,1.099-2.355
	c4.007,17.184,5.29,21.333,5.786,22.377c-0.403,1.292,0.755,2.783,0.897,2.957c0.057,0.069,0.134,0.119,0.221,0.142
	c0.311,0.082,0.638,0.117,0.971,0.117c2.05,0,4.321-1.336,4.432-1.402c0.118-0.07,0.195-0.194,0.206-0.331
	C46.208,44.152,46.316,42.445,45.538,41.605z M18.905,3.108c0.477-0.103,2.545-0.517,4.952-0.517c1.992,0,3.701,0.278,5.083,0.825
	l0.287,0.459c0.877,1.388,0.739,1.894,0.676,2.015c-0.066,0.129-0.211,0.17-0.286,0.183c-1.041-0.259-2.596-0.39-4.622-0.39
	c-3.221,0-6.685,0.334-7.24,0.39c-0.316-0.087-0.498-0.218-0.54-0.388C17.066,5.091,18.089,3.849,18.905,3.108z M7.066,45.368
	c-1.583,0.329-3.762-0.758-4.421-1.115c-0.007-0.513,0.059-1.463,0.441-1.875c0.095-0.102,0.209-0.149,0.34-0.171
	c1.108,0.783,3.313,0.945,4.276,0.977c0.003,0.01,0.002,0.019,0.006,0.027C8.006,43.878,7.408,44.906,7.066,45.368z M33.271,16.776
	c-0.43,0.056-0.4,0.5-0.376,0.857c0.003,0.054,0.022,0.153,0.051,0.28c0.051,0.225,0.126,0.564,0.107,0.885
	c0.001,0.018,0.076,1.816-1.16,3.548c-1.173,1.642,0.271,4.748,0.466,5.141c0.028,0.044,2.825,4.521,1.879,12.409
	c-11.02,3.095-19.158,0.474-20.554-0.032c-1.036-5.898,0.714-9.76,1.765-12.078c0.218-0.481,0.404-0.893,0.525-1.232
	c0.766-2.144-0.51-4.333-0.592-4.465c-1.406-1.846-0.903-4.353-0.891-4.424c0.082-0.851,0.083-1.528,0.083-1.556
	c0-0.216-0.163-0.397-0.377-0.421c-0.207-0.024-0.413,0.118-0.46,0.328L7.797,42.339c-1.011-0.032-2.914-0.206-3.8-0.763
	c0.637-3.472,6.869-29.914,7.188-30.893c0.215-0.638,0.713-1.148,1.663-1.704c0.922-0.534,1.877-0.873,2.689-0.954
	c0.636-0.063,1.13-0.563,1.527-0.964c0.092-0.093,0.181-0.179,0.263-0.253c0.096,0.037,0.178,0.08,0.294,0.108
	c0.046,0.011,0.096,0.014,0.145,0.01c0.037-0.004,3.777-0.393,7.229-0.393c2.004,0,3.513,0.128,4.483,0.381
	c0.035,0.009,0.071,0.014,0.107,0.014c0.003,0,0.006,0,0.009,0c0.108-0.002,0.26-0.036,0.417-0.095
	c0.521,0.348,1.895,1.195,2.904,1.195c1.071,0,2.777,0.487,3.038,1.532c0.098,0.392,0.821,3.253,1.799,7.12
	c2.217,8.766,5.856,23.164,6.262,24.819c-0.514,0.425-2.788,1.266-3.849,0.979c-0.705-1.402-4.046-15.219-6.16-24.343
	C33.811,17.133,33.738,16.714,33.271,16.776z M40.936,45.172c-0.279-0.378-0.752-1.183-0.713-1.824
	c0.139,0.019,0.283,0.03,0.435,0.03c1.44-0.001,3.368-0.784,3.938-1.265c0.033-0.027,0.042-0.058,0.069-0.086
	c0.093,0.029,0.178,0.075,0.251,0.154c0.385,0.414,0.451,1.352,0.442,1.875C44.698,44.414,42.522,45.501,40.936,45.172z"/>
</svg>
