<?xml version="1.0" encoding="utf-8"?>
<!-- Generator: Adobe Illustrator 16.0.0, SVG Export Plug-In . SVG Version: 6.00 Build 0)  -->
<!DOCTYPE svg PUBLIC "-//W3C//DTD SVG 1.1//EN" "http://www.w3.org/Graphics/SVG/1.1/DTD/svg11.dtd">
<svg version="1.1" id="Layer_1" xmlns="http://www.w3.org/2000/svg" xmlns:xlink="http://www.w3.org/1999/xlink" x="0px" y="0px"
	 width="48px" height="48px" viewBox="0 0 48 48" enable-background="new 0 0 48 48" xml:space="preserve">
<path fill="#414042" d="M32.371,33.734c-0.221-3.045,1.406-8.034,1.411-8.052c1.364-3.333,1.589-5.772,1.599-5.881
	c0.063-0.885-0.525-1.476-0.895-1.691c-3.665-2.017-3.218-9.409-3.212-9.51c0.034-2.563-0.357-4.102-1.196-4.705
	c-0.35-0.251-0.72-0.285-0.976-0.231c-0.674,0.015-1.256,0.305-1.688,0.842c-2.009,2.502-0.487,10.139-0.13,11.783
	c-0.325,0.396-1.327,1.414-3.054,1.414c-1.331,0-2.176-0.609-2.622-1.064c0.499-2.012,2.691-11.678-0.921-12.753
	c-0.004-0.001-0.008-0.002-0.013-0.003c-0.383-0.112-0.763-0.05-1.102,0.176c-1.312,0.876-1.73,4.226-1.801,4.887
	c-0.111,1.004-0.737,3.915-0.742,3.935c-0.812,3.458-3.133,5.413-3.123,5.413c0,0,0,0,0,0c-0.806,0.469-0.817,1.405-0.705,1.841
	c0.412,2.582,1.33,4.667,1.343,4.683c0.015,0.055,1.464,5.486,0.686,9.318c-0.788,3.886-2.551,7.604-2.568,7.642
	c-0.064,0.136-0.065,0.292-0.001,0.428s0.184,0.235,0.329,0.272c5.644,1.438,9.97,1.9,13.203,1.9c5.636,0,7.942-1.407,8.088-1.5
	c0.195-0.125,0.279-0.367,0.204-0.586C34.468,42.235,32.596,36.818,32.371,33.734z M28.195,5.132
	c0.235-0.293,0.513-0.443,0.866-0.465c0.153,0.126,0.297,0.596,0.323,0.959c0.005,0.069,0.024,0.137,0.057,0.198
	c0.026,0.095,0.167,0.769-0.197,3.374c-0.396,2.831-0.866,4.576-1.232,5.608C27.466,11.778,26.898,6.747,28.195,5.132z
	 M20.324,6.194c0.121-0.448,0.277-0.914,0.397-1.198c1.6,1.102,1.028,6.5,0.138,10.478l-0.188-0.353
	c-0.008-0.02-0.802-2.006-0.802-3.731C19.869,11.351,19.98,7.435,20.324,6.194z M13.82,41.652c0.53-1.199,1.754-4.166,2.394-7.319
	c0.824-4.062-0.638-9.547-0.727-9.851c-0.009-0.021-0.905-2.06-1.304-4.55c-0.001-0.006-0.131-0.567,0.294-0.821
	c0.107-0.087,2.63-2.179,3.53-6.013c0.026-0.122,0.644-2.99,0.76-4.046c0.071-0.662,0.218-1.488,0.421-2.236
	c-0.24,1.695-0.317,4.411-0.321,4.56c0,1.93,0.838,4.03,0.896,4.167l0.578,1.086c0.047,0.085,1.198,2.073,3.889,2.073
	c2.673,0,3.958-1.944,3.98-1.984c0-0.001,0.001-0.002,0.002-0.003c0.133-0.165,1.221-1.669,2.021-7.379
	c0.006-0.042,0.012-0.084,0.018-0.125c-0.032,1.976,0.188,7.813,3.736,9.766c0.017,0.011,0.43,0.271,0.396,0.745
	c-0.002,0.023-0.225,2.401-1.539,5.615c-0.07,0.212-1.706,5.227-1.472,8.47c0.2,2.739,1.577,7.044,2.029,8.397
	C32.014,42.822,26.321,44.734,13.82,41.652z"/>
</svg>
