<?xml version="1.0" encoding="utf-8"?>
<!-- Generator: Adobe Illustrator 16.0.0, SVG Export Plug-In . SVG Version: 6.00 Build 0)  -->
<!DOCTYPE svg PUBLIC "-//W3C//DTD SVG 1.1//EN" "http://www.w3.org/Graphics/SVG/1.1/DTD/svg11.dtd">
<svg version="1.1" id="Layer_1" xmlns="http://www.w3.org/2000/svg" xmlns:xlink="http://www.w3.org/1999/xlink" x="0px" y="0px"
	 width="48px" height="48px" viewBox="0 0 48 48" enable-background="new 0 0 48 48" xml:space="preserve">
<g>
	<path fill="#414042" d="M33.798,24.688c-0.008-0.034-0.811-3.463-0.448-7.243c0.061-0.319,1.432-7.873-1.62-13.805l-0.417-1.677
		c-0.044-0.176-0.181-0.313-0.355-0.36c-0.178-0.049-0.364,0.004-0.49,0.133C30.451,1.752,28.836,3.342,24,3.698
		c-0.04,0-3.99-0.031-5.781-1.956c-0.119-0.128-0.298-0.185-0.468-0.149c-0.171,0.036-0.312,0.158-0.37,0.323l-0.626,1.768
		c-0.506,0.586-2.852,3.87-2.287,13.806c0.006,0.051,0.617,5.086-0.049,7.141c-0.035,0.083-0.867,2.046-0.953,5.036
		c-0.146,0.511-1.047,3.758-0.955,6.194c-0.106,0.518-0.743,3.876-0.494,8.698c0.006,0.119,0.055,0.232,0.137,0.318
		c0.057,0.061,1.424,1.463,4.571,1.463c0.562,0,1.153-0.045,1.759-0.134c0.171-0.025,0.317-0.138,0.386-0.297
		c0.025-0.057,0.245-0.602,0.325-2.009c0.007-0.043,0.186-1.128,0.621-7.685l1.429-8.303c0.094-0.31,2.02-6.659,2.937-10.975
		c0.683,2.123,1.759,5.968,2.259,10.425c0.015,0.054,1.433,5.395,1.583,9.522c-0.019,1.899,0.041,8.181,1.585,9.237
		c0.036,0.025,0.076,0.046,0.118,0.061c0.03,0.01,0.738,0.251,1.805,0.251c1.05,0,2.643-0.239,4.273-1.381
		c0.129-0.09,0.208-0.237,0.213-0.396C36.034,44.097,36.372,30.799,33.798,24.688z M32.577,10.525
		c-0.602,0.247-1.116,0.244-1.569-0.009c-1.07-0.598-1.592-2.495-1.703-3.175c-0.005-0.033-0.022-0.06-0.034-0.09
		c0.954-0.333,1.808-0.773,2.328-1.359C32.139,7.432,32.437,9.027,32.577,10.525z M30.524,2.938l0.249,1
		c0.01,0.038,0.023,0.075,0.042,0.11c0.13,0.25,0.242,0.509,0.355,0.766c-0.055,0.043-0.104,0.096-0.138,0.162
		c-0.677,1.309-4.401,2.042-6.734,2.23c-0.017-0.173-0.028-0.283-0.032-0.325V4.674C27.709,4.388,29.623,3.51,30.524,2.938z
		 M25.381,12.661c-0.188,0.236-0.429,0.382-0.723,0.456c-0.02-1.704-0.161-3.652-0.27-4.92c0.314-0.026,0.769-0.072,1.309-0.144
		C25.909,8.988,26.252,11.564,25.381,12.661z M17.54,4.306c0.056-0.054,0.098-0.12,0.124-0.193l0.41-1.155
		c1.629,1.267,3.985,1.598,5.193,1.693v2.508c-5.24-0.529-5.828-1.817-5.86-1.905c-0.027-0.161-0.134-0.287-0.272-0.356
		C17.37,4.487,17.534,4.312,17.54,4.306z M18.984,7.344c-0.032,0.053-0.057,0.111-0.067,0.176c-0.111,0.65-0.64,2.472-1.735,3.082
		c-0.464,0.258-0.992,0.27-1.601,0.059c0.244-2.218,0.67-3.736,1.066-4.727C16.932,6.338,17.573,6.875,18.984,7.344z M20.274,27.684
		l-1.45,8.415c-0.434,6.482-0.608,7.592-0.621,7.689c-0.044,0.748-0.125,1.215-0.182,1.472c-0.446,0.054-0.881,0.081-1.296,0.081
		c-2.184,0-3.354-0.757-3.719-1.043c-0.228-4.884,0.489-8.255,0.496-8.288c0.009-0.042,0.013-0.086,0.011-0.129
		c-0.11-2.432,0.921-5.959,0.931-5.994c0.012-0.042,0.019-0.085,0.021-0.129c0.07-2.821,0.866-4.713,0.89-4.774
		c0.75-2.309,0.133-7.4,0.109-7.583c-0.128-2.26-0.095-4.139,0.026-5.726c0.299,0.083,0.592,0.141,0.872,0.141
		c0.463,0,0.9-0.114,1.307-0.34c1.733-0.965,2.214-3.671,2.234-3.786C19.907,7.662,19.9,7.637,19.9,7.61
		c0.902,0.227,2.053,0.419,3.481,0.557c0.146,1.69,0.368,4.76,0.244,6.595c-0.03,0.053-0.073,0.097-0.083,0.16
		C22.945,18.868,20.315,27.536,20.274,27.684z M35.024,44.376c-1.344,0.872-2.631,1.06-3.492,1.06c-0.708,0-1.225-0.124-1.407-0.175
		c-0.725-0.663-1.135-4.806-1.101-8.388c-0.155-4.265-1.557-9.545-1.603-9.693c-0.666-5.976-2.386-10.92-2.819-12.099
		c0.025-0.289,0.042-0.605,0.051-0.948c0.617-0.092,1.129-0.37,1.511-0.85c1.253-1.575,0.651-4.781,0.523-5.384
		c0.527-0.093,1.084-0.209,1.637-0.356c0.063,0.354,0.566,2.935,2.193,3.846c0.383,0.214,0.792,0.322,1.225,0.322
		c0.292,0,0.598-0.065,0.91-0.164c0.169,3.184-0.28,5.69-0.292,5.759c-0.384,3.988,0.43,7.469,0.49,7.692
		C35.175,30.529,35.059,42.477,35.024,44.376z"/>
	<path fill="#414042" d="M25.556,6.396c0.276,0,0.568-0.292,0.568-0.568s-0.292-0.566-0.568-0.566s-0.568,0.29-0.568,0.566
		S25.279,6.396,25.556,6.396z"/>
</g>
</svg>
