<?xml version="1.0" encoding="utf-8"?>
<!-- Generator: Adobe Illustrator 16.0.0, SVG Export Plug-In . SVG Version: 6.00 Build 0)  -->
<!DOCTYPE svg PUBLIC "-//W3C//DTD SVG 1.1//EN" "http://www.w3.org/Graphics/SVG/1.1/DTD/svg11.dtd">
<svg version="1.1" id="Layer_1" xmlns="http://www.w3.org/2000/svg" xmlns:xlink="http://www.w3.org/1999/xlink" x="0px" y="0px"
	 width="48px" height="48px" viewBox="0 0 48 48" enable-background="new 0 0 48 48" xml:space="preserve">
<path fill="#414042" d="M32.837,24.723c-0.008-0.031-0.741-3.172-0.411-6.617c0.056-0.293,1.313-7.223-1.485-12.668l-0.382-1.535
	c-0.044-0.176-0.181-0.312-0.355-0.36c-0.179-0.048-0.364,0.004-0.49,0.134c-0.014,0.014-1.486,1.462-5.894,1.786
	c-0.904,0-3.962-0.127-5.505-1.753c-0.219-0.272-0.71-0.208-0.85,0.114c-0.02,0.045-0.032,0.092-0.038,0.139l-0.369,1.475
	c-2.797,5.446-1.537,12.375-1.488,12.624c0.333,3.464-0.391,6.585-0.384,6.585c0,0,0,0,0-0.001
	c-2.382,5.677-2.071,17.869-2.057,18.385c0.005,0.179,0.118,0.333,0.275,0.418c0.07,0.038,0.148,0.057,0.228,0.057l5.24,0.979
	c0.031,0.006,0.062,0.009,0.092,0.009c0.202,0,0.388-0.122,0.464-0.315c0.729-1.838,0.821-7.996,0.824-8.247
	c0.135-3.797,1.431-8.685,1.458-8.808c0.49-4.405,1.551-8.15,2.117-9.927c0.587,1.781,1.689,5.541,2.188,10.001
	c0.014,0.049,1.312,4.937,1.446,8.73c0.007,0.25,0.184,6.151,0.978,8.243c0.086,0.225,0.322,0.353,0.556,0.314l5.465-0.977
	c0.233-0.042,0.405-0.241,0.412-0.479C34.886,42.515,35.195,30.322,32.837,24.723z M33.88,42.597l-4.632,0.828
	c-0.629-2.237-0.785-7.47-0.786-7.529c-0.14-3.912-1.425-8.753-1.466-8.883c-0.694-6.262-2.604-11.234-2.623-11.284
	c-0.075-0.193-0.261-0.319-0.466-0.319c-0.007,0-0.015,0-0.022,0l-0.176,0.008c-0.201,0.009-0.376,0.137-0.447,0.325
	c-0.019,0.049-1.85,5.011-2.532,11.196c-0.055,0.204-1.339,5.045-1.478,8.968c-0.021,1.592-0.177,5.781-0.631,7.515l-4.5-0.842
	c-0.033-2.227-0.067-12.653,2.012-17.624c0.032-0.134,0.783-3.328,0.425-7.035c-0.013-0.069-1.261-6.925,1.414-12.076
	c0.018-0.035,0.032-0.071,0.041-0.109l0.198-0.791c1.878,1.39,4.686,1.515,5.63,1.515c0.005,0,0.01,0,0.014,0
	c3.237-0.237,5.043-1.047,5.914-1.588l0.215,0.863c0.01,0.038,0.023,0.075,0.042,0.109c2.672,5.143,1.43,12.007,1.41,12.12
	c-0.354,3.662,0.396,6.856,0.453,7.067C33.953,29.947,33.913,40.407,33.88,42.597z"/>
</svg>
