<?xml version="1.0" encoding="utf-8"?>
<!-- Generator: Adobe Illustrator 16.0.0, SVG Export Plug-In . SVG Version: 6.00 Build 0)  -->
<!DOCTYPE svg PUBLIC "-//W3C//DTD SVG 1.1//EN" "http://www.w3.org/Graphics/SVG/1.1/DTD/svg11.dtd">
<svg version="1.1" id="Layer_1" xmlns="http://www.w3.org/2000/svg" xmlns:xlink="http://www.w3.org/1999/xlink" x="0px" y="0px"
	 width="48px" height="48px" viewBox="0 0 48 48" enable-background="new 0 0 48 48" xml:space="preserve">
<path fill="#414042" d="M46.386,32.066c-0.051-0.167-0.185-0.295-0.354-0.338c-5.021-1.288-7.085-13.521-7.105-13.645
	c-1.26-7.626-5.246-11.344-5.416-11.499c-0.15-0.138-0.372-0.169-0.556-0.081C30.003,7.94,27.03,8.668,24.12,8.668
	c-4.911,0-7.998-2.104-8.028-2.125c-0.189-0.132-0.446-0.117-0.619,0.037c-2.47,2.206-5.616,12.348-5.753,12.794
	c-1.798,6.61-7.9,12.165-7.961,12.22c-0.202,0.182-0.222,0.491-0.045,0.697c2.874,3.343,7.611,4.448,9.32,4.748
	c-0.117,0.207-0.215,0.259-0.211,0.259c0,0,0,0,0,0c-0.264,0.074-0.419,0.346-0.349,0.61c0.07,0.265,0.339,0.417,0.606,0.356
	c0.269-0.068,0.556-0.103,0.854-0.103c2.775,0,5.848,2.894,5.879,2.923c0.066,0.063,0.148,0.106,0.237,0.126
	c1.056,0.232,2.129,0.351,3.189,0.351c1.817,0,2.969-0.346,3.017-0.36c0.047-0.015,0.091-0.035,0.132-0.063
	c0.496-0.331,1.398-0.514,2.543-0.514c0.334,0,0.61,0.017,0.772,0.028c0.457,0.378,1.088,0.569,1.877,0.569
	c1.354,0,2.755-0.565,2.814-0.59c0.065-0.026,0.124-0.067,0.173-0.118c1.254-1.318,4.573-1.923,4.606-1.929
	c0.171-0.03,0.314-0.147,0.378-0.31s0.038-0.346-0.067-0.484c-0.118-0.156-0.115-0.353-0.084-0.508
	c4.668-0.034,8.712-4.549,8.883-4.742C46.398,32.414,46.438,32.232,46.386,32.066z M37.434,36.277
	c-3.619-4.19-6.651-18.821-6.682-18.969c-0.056-0.271-0.324-0.444-0.591-0.389c-0.271,0.055-0.444,0.32-0.39,0.59
	c0.125,0.605,3.035,14.633,6.751,19.229c-0.103,0.263-0.179,0.62-0.119,0.99c-1.074,0.248-3.319,0.878-4.479,2.016
	c-0.312,0.116-1.365,0.48-2.345,0.48c-0.601,0-1.042-0.137-1.313-0.406c-0.081-0.081-0.187-0.131-0.3-0.144
	c0.001,0.001-2.666-0.277-4.064,0.588c-0.248,0.066-1.234,0.301-2.665,0.301c-0.944,0-1.899-0.101-2.842-0.299
	c-0.592-0.538-3.468-3.018-6.32-3.099c0.046-0.119,0.09-0.251,0.128-0.396c0.015-0.057,0.013-0.115,0.008-0.173
	c2.815-5.197,5.902-16.635,6.033-17.121c0.072-0.267-0.086-0.541-0.354-0.612c-0.264-0.07-0.541,0.087-0.612,0.354
	c-0.032,0.118-3.169,11.744-5.924,16.861c-1.364-0.231-5.792-1.179-8.563-4.083c1.39-1.336,6.254-6.339,7.887-12.341
	c0.841-2.73,3.339-9.955,5.199-12.063c0.987,0.584,3.932,2.077,8.241,2.077c2.957,0,5.965-0.709,8.949-2.11
	c0.858,0.912,3.844,4.463,4.872,10.688c0.083,0.505,2,11.853,7.068,14.175C43.813,33.588,40.764,36.225,37.434,36.277z"/>
</svg>
