<?xml version="1.0" encoding="utf-8"?>
<!-- Generator: Adobe Illustrator 16.0.0, SVG Export Plug-In . SVG Version: 6.00 Build 0)  -->
<!DOCTYPE svg PUBLIC "-//W3C//DTD SVG 1.1//EN" "http://www.w3.org/Graphics/SVG/1.1/DTD/svg11.dtd">
<svg version="1.1" id="Layer_1" xmlns="http://www.w3.org/2000/svg" xmlns:xlink="http://www.w3.org/1999/xlink" x="0px" y="0px"
	 width="48px" height="48px" viewBox="0 0 48 48" enable-background="new 0 0 48 48" xml:space="preserve">
<g>
	<path fill="#414042" d="M40.241,40.118c-0.06-0.146-0.186-0.258-0.34-0.297c-2.927-0.75-4.611-7.266-5.014-9.713
		c-0.746-4.521-2.816-7.154-3.621-8.033c-0.067-1.016,0.111-2.342,0.191-2.865c0.148-0.962,0.731-2.269,1.041-2.802
		c0.098-0.149,0.288-0.439,0.353-0.818l0.105,0.038c1.636,0.259,3.308-0.389,3.838-0.938c0.248-0.257,0.264-0.496,0.232-0.653
		c-0.065-0.328-1.422-6.332-1.719-7.523c-0.356-1.423-2.283-1.953-3.414-1.953c-0.724,0-1.834-0.139-2.221-0.191l-1.179-0.979
		c-0.144-0.119-0.345-0.149-0.516-0.075c-0.173,0.074-0.29,0.238-0.303,0.425c-0.018,0.251-0.105,0.988-0.303,1.382
		c-0.205,0.406-1.08,0.977-2.3,1.233c-1.162,0.246-2.956-0.476-3.373-0.836c-0.293-0.25-1.016-1.514-1.436-2.331
		c-0.078-0.152-0.229-0.254-0.4-0.27c-0.173-0.02-0.337,0.058-0.441,0.193C19.231,3.365,18.67,4.078,18.4,4.349
		c-0.136,0.134-0.398,0.154-0.849,0.179c-0.157,0.009-0.323,0.018-0.499,0.035c-0.809,0.082-1.741,0.41-2.627,0.923
		c-0.991,0.578-1.544,1.169-1.797,1.92c-0.013,0.04-1.341,4.13-1.661,6.371c-0.024,0.169,0.04,0.339,0.169,0.45
		c1.083,0.929,3.813,0.739,4.32,0.695c0.171,0.606,0.644,1.303,1.104,1.981c0.177,0.262,0.345,0.508,0.472,0.721
		c0.424,0.708,1.184,3.718,0.769,4.09c-0.008,0.006-0.012,0.016-0.02,0.022c-0.005,0.004-0.011,0.002-0.016,0.006
		c-1.777,1.588-3.939,8.483-4.185,9.28c-1.283,4.721-5.648,8.695-5.692,8.734c-0.202,0.182-0.222,0.492-0.045,0.697
		c2.253,2.623,5.55,2.393,6.508,2.261c1.515,1.548,3.361,1.927,4.772,1.927c0.888,0,1.598-0.145,1.947-0.231
		c1.93,1.187,6.039,0.387,7.079,0.157c0.722,0.383,1.467,0.533,2.179,0.533c1.577,0,2.984-0.74,3.638-1.35
		c0.438,0.175,0.872,0.256,1.296,0.256c2.194,0,4.109-2.08,4.942-3.439C40.286,40.433,40.301,40.265,40.241,40.118z M17.89,17.11
		c-0.136-0.227-0.314-0.49-0.502-0.768c-0.386-0.57-1.033-1.523-0.999-1.874c0.073-0.742,0.073-1.336,0.073-1.336
		c0-0.24-0.171-0.447-0.408-0.491c-0.234-0.043-0.471,0.085-0.558,0.31l-0.388,0.995c-0.985,0.062-2.412,0.013-3.103-0.336
		c0.329-1.923,1.312-5.101,1.57-5.887c0.171-0.508,0.576-0.918,1.351-1.372c0.765-0.443,1.555-0.725,2.224-0.792
		c0.16-0.016,0.311-0.024,0.455-0.032c0.557-0.031,1.083-0.06,1.499-0.468c0.173-0.174,0.418-0.465,0.634-0.73
		c0.375,0.681,0.937,1.631,1.311,1.951c0.639,0.553,2.733,1.375,4.23,1.057c1.427-0.3,2.599-0.992,2.987-1.763
		c0.125-0.25,0.213-0.555,0.274-0.842l0.603,0.5c0.071,0.059,0.157,0.097,0.248,0.11c0.063,0.009,1.547,0.22,2.502,0.22
		c0.899,0,2.249,0.416,2.443,1.195c0.272,1.093,1.441,6.254,1.672,7.303c-0.352,0.28-1.597,0.794-2.799,0.608l-0.309-0.115
		c-0.141-0.703-0.257-1.051-0.724-0.991c-0.495,0.064-0.462,0.572-0.441,0.878c0.004,0.048,0.021,0.139,0.046,0.254
		c0.042,0.184,0.104,0.461,0.089,0.673c-0.013,0.195-0.136,0.382-0.209,0.495c-0.006,0.008-0.057,0.088-0.062,0.097
		c-0.291,0.507-0.951,1.932-1.132,3.101c-0.092,0.604-0.23,1.685-0.218,2.666c-5.888,2.803-10.187,0.932-11.468,0.22
		C19.296,20.455,18.025,17.336,17.89,17.11z M34.073,42.706c-0.021-0.012-0.046-0.013-0.068-0.021
		c-0.033-0.012-0.064-0.025-0.099-0.029c-0.033-0.004-0.065-0.001-0.099,0.002c-0.03,0.002-0.06,0.002-0.089,0.01
		c-0.033,0.009-0.063,0.025-0.094,0.04c-0.026,0.014-0.054,0.024-0.078,0.043c-0.027,0.021-0.048,0.047-0.071,0.072
		c-0.017,0.02-0.038,0.032-0.053,0.055c-0.287,0.445-2.788,1.994-4.944,0.729c-0.11-0.066-0.241-0.084-0.368-0.057
		c-1.394,0.332-5.307,0.963-6.654-0.076c-0.014-0.011-0.031-0.014-0.046-0.022c-0.024-0.015-0.048-0.025-0.074-0.035
		c-0.034-0.014-0.068-0.025-0.104-0.031c-0.028-0.005-0.056-0.005-0.085-0.005c-0.035,0-0.067,0.002-0.101,0.01
		c-0.015,0.003-0.03-0.001-0.044,0.004c-0.15,0.047-3.723,1.113-6.11-1.547c-0.015-0.017-0.035-0.024-0.052-0.039
		c-0.025-0.021-0.049-0.041-0.077-0.058c-0.03-0.017-0.061-0.028-0.094-0.038c-0.028-0.01-0.056-0.018-0.086-0.021
		c-0.035-0.005-0.068-0.003-0.104,0c-0.02,0.002-0.04-0.004-0.06,0c-0.034,0.01-3.264,0.637-5.492-1.541
		c1.127-1.102,4.468-4.635,5.613-8.848c0.592-1.924,2.33-6.955,3.64-8.547c1.314,0.754,5.971,2.904,12.316-0.034
		c0.683,0.746,2.694,3.256,3.404,7.55c0.06,0.365,1.434,8.492,5.097,10.277C38.208,41.593,36.202,43.81,34.073,42.706z"/>
	<path fill="#414042" d="M24.392,12.9c0.276,0,0.545-0.268,0.545-0.544s-0.269-0.546-0.545-0.546s-0.545,0.27-0.545,0.546
		S24.115,12.9,24.392,12.9z"/>
	<path fill="#414042" d="M24.392,17.942c0.276,0,0.545-0.27,0.545-0.546s-0.269-0.545-0.545-0.545s-0.545,0.269-0.545,0.545
		S24.115,17.942,24.392,17.942z"/>
</g>
</svg>
