<?xml version="1.0" encoding="utf-8"?>
<!-- Generator: Adobe Illustrator 16.0.0, SVG Export Plug-In . SVG Version: 6.00 Build 0)  -->
<!DOCTYPE svg PUBLIC "-//W3C//DTD SVG 1.1//EN" "http://www.w3.org/Graphics/SVG/1.1/DTD/svg11.dtd">
<svg version="1.1" id="Layer_1" xmlns="http://www.w3.org/2000/svg" xmlns:xlink="http://www.w3.org/1999/xlink" x="0px" y="0px"
	 width="48px" height="48px" viewBox="0 0 48 48" enable-background="new 0 0 48 48" xml:space="preserve">
<path fill="#414042" d="M34.274,10.809c-0.156-8.341-7.167-9.241-10.172-9.241c-0.858,0-1.416,0.072-1.403,0.072c0,0,0,0,0.001,0
	c-3.541,0.167-6.079,1.355-7.545,3.53c-2.757,4.089-0.69,10.12-0.593,10.396c1.249,3.114,3.301,5.321,5.441,6.891
	c-1.017,1.591-4.252,7.589-3.379,18.434c0,0.004,0.002,0.007,0.003,0.011c-0.036,1.125-0.095,4.519,0.445,5.327
	c0.096,0.144,0.253,0.221,0.414,0.221c0.095,0,0.192-0.027,0.277-0.084c0.229-0.152,0.292-0.463,0.14-0.692
	c-0.228-0.348-0.325-2.421-0.287-4.322h1.927c0.136,1.253,0.497,4.17,0.97,4.878c0.096,0.144,0.254,0.222,0.416,0.222
	c0.096,0,0.192-0.027,0.277-0.084c0.229-0.153,0.292-0.464,0.138-0.694c-0.244-0.365-0.583-2.422-0.794-4.321h3.774
	c0.148,1.326,0.497,4.035,0.949,4.715c0.096,0.145,0.255,0.223,0.416,0.223c0.096,0,0.191-0.027,0.277-0.084
	c0.229-0.152,0.292-0.463,0.139-0.693c-0.271-0.407-0.646-2.797-0.851-4.871c-0.002-0.023-0.015-0.042-0.02-0.063V38.6l2.193-0.101
	c0.137,1.3,0.496,4.286,0.982,5.016c0.097,0.145,0.255,0.223,0.416,0.223c0.096,0,0.192-0.027,0.277-0.084
	c0.229-0.153,0.292-0.464,0.139-0.693c-0.268-0.4-0.649-2.841-0.851-4.871c-0.001-0.008-0.006-0.015-0.007-0.022
	c0.014-0.075,0.011-0.153-0.011-0.229c-0.024-0.081-2.236-7.77-2.397-12.368c1.285,0.411,2.185,0.572,2.303,0.592
	c0.027,0.005,0.055,0.007,0.081,0.007c0.202,0,0.388-0.122,0.464-0.314l2.097-5.241c0.057-0.14,0.046-0.298-0.027-0.43
	c-0.073-0.131-0.203-0.223-0.352-0.249c-0.229-0.04-0.454-0.082-0.674-0.125C34.005,16.815,34.265,11.096,34.274,10.809z
	 M27.241,37.507l-2.529,0.116c-0.267,0.012-0.477,0.231-0.477,0.499v2.229h-6.649c-0.71-10.113,2.323-15.837,3.244-17.321
	c1.458,0.953,2.905,1.627,4.14,2.089C25.013,29.113,26.687,35.502,27.241,37.507z M28.519,19.365l-4.062-1.871
	c1.521-1.094,4.766-3.809,4.505-6.907c0.003-0.086,0.065-2.119-1.28-3.517c-0.982-1.021-2.438-1.425-4.302-1.192
	c-0.281-0.002-1.76-0.011-2.888,1.167c-0.884,0.923-1.293,2.305-1.212,4.02c-0.01,0.072-0.777,6.814,9.098,9.333
	c0.02,0.006,0.039,0.011,0.059,0.015c0.424,0.107,0.866,0.206,1.329,0.296l-1.715,4.288c-1.837-0.407-9.647-2.538-12.554-9.782
	c-0.02-0.058-1.992-5.808,0.487-9.485c1.28-1.899,3.556-2.938,6.806-3.094c0.005,0,0.522-0.067,1.313-0.067
	c3.368,0,9.038,1.073,9.172,8.231C33.272,10.862,32.985,16.985,28.519,19.365z M23.315,17.064c-3.396-2.555-3.066-5.708-3.041-5.956
	c-0.065-1.519,0.251-2.653,0.939-3.372c0.756-0.789,1.764-0.858,2.139-0.858c0.004,0,0.008,0,0.012,0
	c0.033,0.004,0.067,0.002,0.101-0.003c1.602-0.209,2.732,0.098,3.491,0.883c1.051,1.086,1.007,2.775,1.008,2.852
	C28.221,13.69,24.12,16.537,23.315,17.064z"/>
</svg>
