<?xml version="1.0" encoding="utf-8"?>
<!-- Generator: Adobe Illustrator 16.0.0, SVG Export Plug-In . SVG Version: 6.00 Build 0)  -->
<!DOCTYPE svg PUBLIC "-//W3C//DTD SVG 1.1//EN" "http://www.w3.org/Graphics/SVG/1.1/DTD/svg11.dtd">
<svg version="1.1" id="Layer_1" xmlns="http://www.w3.org/2000/svg" xmlns:xlink="http://www.w3.org/1999/xlink" x="0px" y="0px"
	 width="48px" height="48px" viewBox="0 0 48 48" enable-background="new 0 0 48 48" xml:space="preserve">
<path fill="#414042" d="M36.372,19.158c0.031,0.012,0.064,0.02,0.098,0.025c2.05,0.328,4.563-0.516,5.231-1.33
	c0.218-0.264,0.229-0.5,0.198-0.653c-0.096-0.479-1.988-8.845-2.386-10.435c-0.466-1.868-3.039-2.564-4.552-2.564
	c-1.033,0-2.626-0.202-3.139-0.271l-1.445-1.462c-0.02-0.02-0.047-0.03-0.069-0.047c-0.021-0.015-0.036-0.035-0.06-0.047
	c-0.006-0.003-0.012-0.002-0.018-0.005c-0.007-0.003-0.011-0.009-0.018-0.012c-1.696-0.702-3.791-1.058-6.226-1.058
	c-3.186,0-5.796,0.606-5.905,0.632c-0.018,0.004-0.033,0.015-0.049,0.021c-0.003,0.001-0.005,0.002-0.008,0.003
	c-0.088,0.033-0.167,0.083-0.225,0.158c-0.01,0.013-0.976,1.271-1.441,1.737c-0.236,0.234-0.626,0.267-1.296,0.304
	c-0.217,0.012-0.447,0.025-0.689,0.049c-1.098,0.11-2.366,0.556-3.573,1.255C9.468,6.238,8.726,7.026,8.394,8.017
	c-0.019,0.056-1.86,5.739-2.3,8.815c-0.023,0.169,0.04,0.339,0.17,0.45c0.756,0.648,2.21,0.977,4.321,0.977
	c0.819,0,1.448-0.052,1.578-0.063c-0.113,1.088-0.146,3.431,1.298,5.321c0.014,0.023,1.327,2.292,0.585,4.371
	c-0.136,0.38-0.344,0.838-0.588,1.376c-1.218,2.688-3.486,7.692-2.103,15.113c0.031,0.166,0.144,0.305,0.3,0.37
	c0.193,0.08,4.835,1.974,12.357,1.973c4.335,0,8.743-0.637,13.102-1.893c0.191-0.055,0.331-0.219,0.357-0.416
	c1.284-9.893-2.178-15.397-2.296-15.574c-0.468-0.97-1.487-3.757-0.605-4.992c1.658-2.323,1.559-4.715,1.553-4.757
	c0-0.008,0.001-0.015,0.001-0.023L36.372,19.158z M29.277,3.09C27.619,5.461,24.078,5.199,24,5.195
	c-2.166,0-3.766-0.463-4.628-1.338c-0.378-0.384-0.542-0.771-0.614-1.045c0.865-0.169,2.903-0.512,5.23-0.512
	C26.035,2.299,27.801,2.574,29.277,3.09z M35.446,16.69c-0.138,0-0.276,0.061-0.371,0.162c-0.174,0.186-0.167,0.408-0.138,0.854
	c0.005,0.063,0.027,0.179,0.061,0.328c0.059,0.266,0.148,0.667,0.127,1.044c0.001,0.021,0.079,2.157-1.369,4.186
	c-1.382,1.935,0.321,5.597,0.55,6.061c0.033,0.053,3.334,5.302,2.215,14.631c-4.165,1.171-8.372,1.764-12.508,1.764
	c-6.348,0.001-10.668-1.417-11.723-1.802c-1.222-6.956,0.841-11.508,2.08-14.242c0.258-0.567,0.476-1.051,0.618-1.452
	c0.903-2.526-0.601-5.107-0.698-5.264c-1.657-2.175-1.064-5.13-1.05-5.215c0.097-1.003,0.098-1.801,0.098-1.835
	c0-0.241-0.171-0.447-0.407-0.491c-0.233-0.045-0.471,0.085-0.559,0.31l-0.583,1.494c-0.271,0.018-0.702,0.039-1.203,0.039
	c-1.609,0-2.817-0.206-3.455-0.584c0.497-3.05,2.196-8.292,2.213-8.343c0.252-0.751,0.839-1.353,1.96-2.009
	c1.085-0.629,2.211-1.028,3.17-1.125c0.227-0.022,0.442-0.035,0.646-0.046c0.733-0.041,1.427-0.08,1.946-0.594
	c0.245-0.246,0.589-0.657,0.893-1.032c0.138,0.314,0.344,0.661,0.671,1c1.063,1.105,2.867,1.666,5.317,1.666
	c0.004,0,0.009,0,0.013,0c0.034,0.003,0.208,0.017,0.48,0.017c1.157,0,4.089-0.248,5.68-2.582l1.112,1.126
	c0.076,0.078,0.177,0.128,0.284,0.144c0.087,0.012,2.135,0.304,3.446,0.304c1.263,0,3.274,0.574,3.581,1.807
	c0.377,1.503,2.093,9.084,2.348,10.256c-0.31,0.311-1.685,0.999-3.384,1c-0.284,0-0.563-0.021-0.832-0.061l-0.48-0.181
	C36.003,17.059,35.895,16.69,35.446,16.69z"/>
</svg>
