<?xml version="1.0" encoding="utf-8"?>
<!-- Generator: Adobe Illustrator 16.0.0, SVG Export Plug-In . SVG Version: 6.00 Build 0)  -->
<!DOCTYPE svg PUBLIC "-//W3C//DTD SVG 1.1//EN" "http://www.w3.org/Graphics/SVG/1.1/DTD/svg11.dtd">
<svg version="1.1" id="Layer_1" xmlns="http://www.w3.org/2000/svg" xmlns:xlink="http://www.w3.org/1999/xlink" x="0px" y="0px"
	 width="48px" height="48px" viewBox="0 0 48 48" enable-background="new 0 0 48 48" xml:space="preserve">
<g>
	<path fill="#414042" d="M43.385,40.031c0.256-0.403,0.305-1.266-1.254-4.586c0.006-0.818-0.055-5.391-1.957-8.403
		c0.008-0.616-0.045-2.784-1.043-4.104c-0.139-0.789-0.885-5.253-0.68-8.321c0.01-0.058,0.793-5.661-4.988-6.889
		c-0.002-0.311-0.068-0.725-0.314-1.183c-0.609-1.14-2.02-2.013-4.162-2.586c-0.203-0.068-5.055-1.656-11.071,0.375
		c-2.498,0.843-3.864,1.664-4.3,2.584c-0.268,0.566-0.151,1.062-0.023,1.428c-0.717,0.151-1.907,0.559-2.868,1.651
		c-1.166,1.323-1.647,3.238-1.432,5.691c-0.109,0.777-0.717,5.342-0.197,7.159c-0.483,0.667-1.697,2.532-1.19,3.818
		c-0.282,0.664-1.017,2.543-0.851,3.708c0.049,0.346-0.138,0.773-0.396,1.366c-0.447,1.024-1.122,2.572-1.122,5.151
		c0,1.262-0.332,1.743-0.625,2.168c-0.466,0.676-0.697,1.194,0.061,2.544l-0.477,2.216c-0.049,0.23,0.068,0.463,0.282,0.561
		c0.113,0.051,1.203,0.491,4.408,0.04c0.27-0.038,0.459-0.287,0.426-0.558c-0.002-0.021-0.24-2.082,1.11-2.486
		c0.105-0.031,0.197-0.096,0.261-0.185c0.08-0.11,0.802-1.212,1.513-5.827c0.214-1.393,0.47-2.503,0.72-3.373
		c-0.106,1.731-0.274,4.097-0.527,6.76l-0.445,2.227c-0.039,0.195,0.042,0.395,0.205,0.509c0.188,0.131,3.442,2.306,10.93,2.306
		c3.196,0,7.163-0.396,11.993-1.517c0.227-0.053,0.387-0.255,0.387-0.487l-0.002-2.184c0-0.004,0-0.007,0-0.011v-0.084
		c-0.004-0.032-0.201-1.912-0.481-4.38c0.137,0.463,0.362,0.996,0.769,1.664c0.506,0.831,0.49,1.19,0.471,1.646
		c-0.029,0.652-0.061,1.392,1.16,3.156c0.01,0.01,0.939,1.018,0.787,2.475c-0.027,0.264,0.154,0.503,0.416,0.545
		c0.051,0.009,0.639,0.101,1.414,0.101c0.869,0,1.975-0.115,2.828-0.593c0.217-0.121,0.311-0.383,0.225-0.614
		c-0.008-0.018-0.65-1.76-0.061-3.35C43.32,40.12,43.355,40.078,43.385,40.031z M14.52,7.346c0.208-0.44,1.022-1.155,3.715-2.064
		c5.685-1.917,10.386-0.39,10.462-0.366c2.328,0.624,3.217,1.469,3.551,2.068c0.313,0.558,0.193,0.981,0.191,0.99
		c-0.047,0.139-0.031,0.292,0.045,0.418c0.004,0.006,0.011,0.009,0.015,0.015c-1.058,1.512-2.785,2.478-4.438,3.082
		c1.243-0.978,2.156-1.968,2.243-2.065C30.938,8.6,31.115,7.818,30.832,7.1c-0.629-1.592-3.326-2.083-3.633-2.133
		c-0.016-0.003-0.03,0.002-0.047,0.001c-0.146-0.031-0.296-0.061-0.482-0.064c-0.191-0.035-0.896-0.145-2.021-0.145
		c-1.338,0-2.764,0.152-4.216,0.447c-0.455,0.055-3.906,0.531-4.446,2.33c-0.27,0.898,0.223,1.885,1.455,2.925
		c0.051,0.045,0.523,0.457,1.236,0.961c-2.516-1.079-3.816-2.6-3.836-2.623c-0.028-0.034-0.065-0.056-0.1-0.08
		c0-0.006,0.002-0.012,0.002-0.019c-0.021-0.188-0.087-0.362-0.151-0.531C14.465,7.833,14.394,7.612,14.52,7.346z M27.313,6.156
		c0.449,0.951-1.68,4.246-3.308,6.245c-0.154,0.054-0.248,0.07-0.309,0.075c-0.013,0-0.026-0.002-0.039-0.002
		c-3.638-3.885-3.68-5.39-3.529-5.857c0.111-0.345,0.431-0.417,0.481-0.426c1.409-0.287,2.769-0.432,4.04-0.432
		c1.191,0,1.867,0.133,1.873,0.135c0.033,0.006,0.066,0.01,0.1,0.01C27,5.903,27.232,5.988,27.313,6.156z M28.342,6.322
		c0.673,0.255,1.357,0.633,1.559,1.145c0.146,0.368,0.016,0.821-0.361,1.314c-0.658,0.722-2.27,2.248-3.863,3.096
		C26.821,10.328,28.42,7.867,28.342,6.322z M21.986,12.111c-1.986-0.745-3.86-2.379-3.891-2.406
		c-0.624-0.527-1.331-1.282-1.151-1.881c0.181-0.605,1.185-1.058,2.205-1.339C18.868,7.743,19.794,9.59,21.986,12.111z
		 M5.575,43.552l0.364-1.689c1.21-0.638,2.383-0.367,3.004-0.125c-0.287,0.62-0.352,1.3-0.351,1.75
		C6.979,43.684,6.043,43.622,5.575,43.552z M11.507,35.21c-0.547,3.554-1.093,4.902-1.273,5.275
		c-0.272,0.105-0.487,0.257-0.678,0.424c-0.675-0.304-2.215-0.81-3.854-0.061c-0.341-0.668-0.231-0.841,0.032-1.223
		c0.319-0.464,0.802-1.163,0.802-2.736c0-2.37,0.601-3.746,1.039-4.751c0.312-0.716,0.559-1.281,0.47-1.907
		c-0.129-0.904,0.582-2.743,0.867-3.375c0.069-0.152,0.057-0.329-0.032-0.471c-0.435-0.694,0.6-2.418,1.169-3.145
		c0.114-0.146,0.139-0.344,0.063-0.513c-0.451-1.006-0.129-4.802,0.179-6.958c0.005-0.039,0.006-0.078,0.003-0.117
		c-0.202-2.188,0.192-3.866,1.17-4.985c0.875-1.001,2.013-1.295,2.528-1.379c0.019,0.051,0.041,0.102,0.078,0.146
		c0.106,0.128,2.159,2.555,6.2,3.583c0.089,0.289,0.21,0.98-0.112,2.147c-0.417,1.513-0.032,2.629,0.249,3.444
		c0.093,0.268,0.173,0.5,0.202,0.685c0.077,0.486,0.037,1.076,0.008,1.507c-0.022,0.341-0.032,0.512-0.004,0.651
		c0.048,0.238,0.26,0.411,0.495,0.411c0.032,0,0.063-0.003,0.096-0.01c0.271-0.054,0.447-0.308,0.393-0.579
		c-0.007-0.079,0.007-0.224,0.019-0.407c0.03-0.451,0.075-1.132-0.018-1.729c-0.043-0.272-0.141-0.556-0.245-0.856
		c-0.252-0.729-0.565-1.637-0.23-2.852c0.266-0.963,0.277-1.68,0.212-2.185c0.629,0.11,1.303,0.18,2.015,0.208
		c-0.021,0.347-0.397,6.619,0.005,9.407l0.018,0.12c0.388,2.705,0.694,4.842,0.151,6.607c-0.449,1.461-0.264,7.764-0.122,11.243
		c-5.159-0.161-8.689-1.518-9.721-1.971c0.496-5.193,0.668-9.245,0.688-9.737c0.464-1.958,1.094-4.206,1.385-4.754
		c0.825,0.995,1.776,1.693,2.849,1.712c0.003,0,0.006,0,0.009,0c0.272,0,0.495-0.219,0.5-0.491c0.005-0.276-0.215-0.504-0.491-0.509
		c-2.561-0.045-4.769-6.217-5.403-8.592c-0.071-0.267-0.349-0.425-0.612-0.354c-0.267,0.071-0.425,0.345-0.354,0.612
		c0.162,0.608,1.181,4.239,2.882,6.789c-0.275,0.263-0.754,1.205-1.729,5.314C13.146,29.262,12.146,31.061,11.507,35.21z
		 M13.293,40.823l0.189-0.95c1.348,0.578,4.9,1.864,9.963,1.998c0.016,0.364,0.031,0.674,0.042,0.892
		C17.419,42.762,14.204,41.316,13.293,40.823z M24.488,42.75c-0.013-0.262-0.026-0.55-0.041-0.865c3-0.014,6.479-0.452,10.311-1.647
		v1.15C30.722,42.3,27.325,42.678,24.488,42.75z M37.514,38.481c0.021-0.524,0.049-1.118-0.615-2.209
		c-0.748-1.229-0.795-1.871-0.852-2.613c-0.035-0.462-0.074-0.984-0.295-1.646c-0.443-1.334-0.947-2.197-1.141-2.501
		c-0.314-4.141-2.158-4.643-2.369-4.687c-0.266-0.053-0.516,0.111-0.578,0.374c-0.064,0.262,0.1,0.529,0.359,0.602
		c0.014,0.004,1.367,0.422,1.6,3.909c0,0.004,0.003,0.006,0.003,0.01c0.001,0.007-0.002,0.013-0.001,0.02
		c0.488,3.839,0.96,8.209,1.094,9.459c-3.823,1.222-7.315,1.658-10.315,1.66c-0.154-3.829-0.301-9.754,0.075-10.975
		c0.609-1.98,0.288-4.215-0.118-7.043l-0.017-0.12c-0.391-2.706,0-9.151,0.004-9.216c0.002-0.03-0.009-0.057-0.012-0.085
		c0.014-0.002,0.028-0.007,0.042-0.009c0.439-0.056,1.076-0.156,1.833-0.328c-0.277,1.175-0.634,3.292,0.009,4.578
		c0.521,1.047,0.422,1.688,0.305,2.43c-0.051,0.313-0.102,0.636-0.109,1c-0.006,0.276,0.213,0.505,0.49,0.511
		c0.004,0,0.008,0,0.01,0c0.271,0,0.494-0.217,0.5-0.489c0.008-0.307,0.053-0.587,0.096-0.866c0.127-0.796,0.27-1.698-0.396-3.032
		c-0.552-1.107-0.092-3.367,0.203-4.419c2.147-0.626,4.72-1.815,6.143-4.028c4.609,1.124,4.032,5.509,4,5.742
		c-0.238,3.524,0.672,8.521,0.709,8.731c0.016,0.084,0.053,0.163,0.107,0.229c0.99,1.198,0.896,3.669,0.895,3.694
		c-0.004,0.105,0.025,0.21,0.084,0.298c1.965,2.977,1.877,8.032,1.875,8.082c-0.002,0.078,0.016,0.155,0.049,0.226
		c1.229,2.604,1.346,3.467,1.344,3.706c-0.045,0.045-0.082,0.099-0.107,0.16c-0.14,0.333-0.229,0.668-0.288,0.998
		c-1.657-0.347-2.922,0.13-3.556,0.481c-0.069-0.089-0.119-0.146-0.121-0.146C37.467,39.539,37.488,39.025,37.514,38.481z
		 M39.477,43.677c-0.012-0.68-0.191-1.255-0.397-1.705c0.506-0.275,1.562-0.667,2.958-0.339c-0.001,0.737,0.125,1.38,0.232,1.783
		C41.332,43.774,40.117,43.733,39.477,43.677z"/>
	<path fill="#414042" d="M18.769,28.848c-0.26-0.091-0.545,0.053-0.633,0.314c-0.512,1.528-2.17,5.672-3.681,6.484
		c-0.243,0.131-0.334,0.435-0.204,0.678c0.09,0.167,0.263,0.263,0.441,0.263c0.08,0,0.161-0.02,0.236-0.06
		c2.13-1.146,3.955-6.447,4.155-7.048C19.172,29.218,19.031,28.935,18.769,28.848z"/>
	<path fill="#414042" d="M34.832,16.497c-0.268-0.074-0.541,0.088-0.611,0.354c-0.635,2.375-2.842,8.547-5.402,8.59
		c-0.275,0.005-0.496,0.232-0.492,0.508c0.006,0.273,0.229,0.492,0.5,0.492c0.004,0,0.006,0,0.01,0
		c3.77-0.063,6.098-8.383,6.352-9.332C35.258,16.842,35.1,16.568,34.832,16.497z"/>
	<path fill="#414042" d="M28.668,28.848c-0.262,0.087-0.402,0.37-0.316,0.632c0.201,0.601,2.025,5.901,4.156,7.048
		c0.076,0.04,0.156,0.06,0.236,0.06c0.178,0,0.35-0.096,0.441-0.263c0.131-0.243,0.039-0.547-0.203-0.678
		c-1.512-0.813-3.17-4.956-3.682-6.484C29.213,28.9,28.93,28.756,28.668,28.848z"/>
</g>
</svg>
