<?xml version="1.0" encoding="utf-8"?>
<!-- Generator: Adobe Illustrator 16.0.0, SVG Export Plug-In . SVG Version: 6.00 Build 0)  -->
<!DOCTYPE svg PUBLIC "-//W3C//DTD SVG 1.1//EN" "http://www.w3.org/Graphics/SVG/1.1/DTD/svg11.dtd">
<svg version="1.1" id="Layer_1" xmlns="http://www.w3.org/2000/svg" xmlns:xlink="http://www.w3.org/1999/xlink" x="0px" y="0px"
	 width="48px" height="48px" viewBox="0 0 48 48" enable-background="new 0 0 48 48" xml:space="preserve">
<path fill="#414042" d="M40.408,44.714l-1.505-4.061c0.06-0.93,0.237-6.941-4.102-17.38c-0.014-0.039-1.321-3.969,1.639-7.198
	c0.173-0.188,0.176-0.477,0.007-0.668c-0.031-0.036-3.14-3.583-3.826-5.504c-0.049-0.137-0.155-0.246-0.29-0.298
	c-0.034-0.013-0.069-0.011-0.104-0.016c0.437-2.394,1.285-7.868,0.16-8.979c-0.232-0.229-0.536-0.321-0.86-0.252
	c-2.312,0.478-2.758,3.651-2.911,11.035l-1.059,0.565c-0.138,0.073-0.236,0.228-0.261,0.382c-0.002,0.012-0.229,1.207-3.159,1.572
	c-0.028,0-2.812-0.115-3.103-1.49c-0.033-0.153-0.134-0.282-0.276-0.349l-1.854-0.875c-0.156-7.242-0.614-10.366-2.907-10.84
	c-0.325-0.067-0.627,0.023-0.859,0.252c-1.125,1.111-0.278,6.576,0.159,8.973c-0.066,0.007-0.132,0.021-0.191,0.054
	c-0.142,0.08-0.235,0.223-0.252,0.385c-0.004,0.044-0.489,4.458-3.459,5.233c-0.175,0.046-0.312,0.183-0.357,0.358
	c-0.046,0.175,0.007,0.362,0.138,0.488c0.104,0.1,2.544,2.516,1.615,7.323c-0.18,0.526-4.388,12.938-3.947,17.542
	c-0.002,0.025-0.266,2.516-1.223,4.291c-0.094,0.174-0.077,0.387,0.043,0.543c0.1,0.129,0.686,0.775,2.457,0.775
	c0.448,0,0.943-0.043,1.472-0.125c0.272-0.043,0.547-0.064,0.818-0.064c0.931,0,1.722,0.248,2.486,0.488
	c1.03,0.324,2.055,0.582,3.018,0.285c1.509-0.463,1.469-0.373,2.537-0.148c0.363,0.078,0.821,0.176,1.44,0.285
	c0.46,0.08,0.816,0.15,1.104,0.207c0.58,0.113,0.931,0.182,1.321,0.182c0.47,0,0.955-0.098,2.015-0.313l0.395-0.078
	c1.153-0.232,2.083-0.332,3.108-0.332c0.438,0,0.858,0.018,1.296,0.035c0.493,0.02,1.009,0.041,1.599,0.041
	c2.202,0,3.33-0.035,4.886-0.813c1.354-0.676,2.387-0.84,2.397-0.842c0.148-0.023,0.279-0.111,0.355-0.24
	C40.446,45.011,40.461,44.854,40.408,44.714z M31.682,1.319c0.524,0.437,0.275,4.401-0.545,8.657
	c-0.005,0.023,0.002,0.045,0.001,0.069l-1.509,0.805C29.797,3.972,30.321,1.626,31.682,1.319z M15.797,1.336
	c1.397,0.289,1.925,2.605,2.096,9.382l-1.504-0.711c-0.001-0.01,0.002-0.02,0-0.031C15.568,5.721,15.319,1.756,15.797,1.336z
	 M13.756,23.678c0.023-0.118,0.027-0.223,0.046-0.339c0.703,0.991,2.115,2.097,4.982,2.464c0.025,0.003,0.26,0.031,0.63,0.031
	c0.619,0,1.616-0.079,2.637-0.487c0.256-0.103,0.381-0.394,0.279-0.649c-0.103-0.257-0.393-0.381-0.65-0.279
	c-1.383,0.552-2.757,0.393-2.77,0.392c-4.583-0.587-4.796-3.174-4.803-3.289c-0.006-0.117-0.058-0.22-0.13-0.303
	c-0.025-2.653-0.987-4.41-1.609-5.254c2.309-1.052,3.117-3.85,3.374-5.158l2.472,1.167c0.004,0.002,0.008,0.004,0.012,0.006
	l1.9,0.897c0.661,1.918,3.846,2.028,4.059,2.028c3.055-0.375,3.838-1.592,4.038-2.173l3.681-1.964
	c0.828,1.741,2.771,4.099,3.507,4.965c-1.589,1.915-1.938,3.969-1.911,5.505c-0.059,0.08-0.1,0.173-0.105,0.283
	c-0.007,0.11-0.216,2.702-4.802,3.289c-0.013,0-1.254,0.149-2.58-0.321c-0.255-0.091-0.545,0.044-0.639,0.305
	c-0.092,0.26,0.044,0.546,0.305,0.638c0.941,0.334,1.84,0.401,2.412,0.401c0.369,0,0.604-0.027,0.628-0.03
	c2.951-0.378,4.361-1.539,5.041-2.55c0.053,0.206,0.097,0.343,0.108,0.375c4.015,9.659,4.085,15.521,4.044,16.784l-1.642,0.841
	c-0.879,0.451-1.996,0.412-3.284,0.367c-1.217-0.043-2.593-0.09-4.004,0.293c-2.596,0.701-4.331,0.025-4.346,0.02
	c-0.031-0.014-0.064-0.023-0.097-0.029c-0.254-0.047-0.555-0.174-0.904-0.32c-1.064-0.447-2.521-1.059-4.689-0.328
	c-3.168,1.068-7.878-0.231-9.124-0.612C9.616,35.904,13.697,23.867,13.756,23.678z M37.17,45.329
	c-1.359,0.68-2.287,0.707-4.438,0.707c-0.574,0-1.077-0.021-1.558-0.041c-1.533-0.063-2.934-0.029-4.643,0.316l-0.396,0.08
	c-1.776,0.357-1.726,0.367-2.945,0.127c-0.294-0.057-0.656-0.127-1.123-0.209c-0.605-0.107-1.053-0.203-1.408-0.277
	c-0.548-0.117-0.911-0.193-1.295-0.193c-0.475,0-0.941,0.117-1.744,0.363c-0.719,0.221-1.499,0.008-2.423-0.283
	c-0.798-0.252-1.702-0.535-2.787-0.535c-0.323,0-0.65,0.025-0.974,0.076c-0.478,0.074-0.92,0.113-1.316,0.113
	c-0.736,0-1.179-0.131-1.42-0.24c0.619-1.318,0.918-2.809,1.05-3.667c1.594,0.476,6.199,1.655,9.513,0.536
	c1.811-0.611,3.015-0.104,3.983,0.303c0.367,0.154,0.715,0.301,1.059,0.373c0.213,0.078,1.057,0.355,2.346,0.355
	c0.731,0,1.607-0.09,2.591-0.355c1.267-0.344,2.508-0.299,3.707-0.26c1.371,0.051,2.666,0.094,3.775-0.475l1.397-0.716l1.148,3.097
	C38.785,44.653,38.038,44.896,37.17,45.329z"/>
</svg>
