<?xml version="1.0" encoding="utf-8"?>
<!-- Generator: Adobe Illustrator 16.0.0, SVG Export Plug-In . SVG Version: 6.00 Build 0)  -->
<!DOCTYPE svg PUBLIC "-//W3C//DTD SVG 1.1//EN" "http://www.w3.org/Graphics/SVG/1.1/DTD/svg11.dtd">
<svg version="1.1" id="Layer_1" xmlns="http://www.w3.org/2000/svg" xmlns:xlink="http://www.w3.org/1999/xlink" x="0px" y="0px"
	 width="48px" height="48px" viewBox="0 0 48 48" enable-background="new 0 0 48 48" xml:space="preserve">
<g>
	<path fill="#414042" d="M31.61,43.164H6.524c-0.566,0-0.992-0.151-1.266-0.449c-0.46-0.502-0.399-1.291-0.397-1.344V4.278
		c0.001-0.17,0.058-1.665,1.532-1.665h25.301v8.026c0,0.276,0.224,0.5,0.5,0.5h8.026v21.168c0,0.275,0.224,0.5,0.5,0.5
		s0.5-0.225,0.5-0.5V10.642c0,0,0,0,0-0.001s0,0,0-0.001c0-0.072-0.016-0.139-0.043-0.201c-0.002-0.003-0.005-0.006-0.007-0.01
		c-0.027-0.058-0.064-0.109-0.11-0.152c-0.002-0.002-0.003-0.005-0.005-0.007c-0.006-0.005-0.121-0.103-0.127-0.108l-8.268-8.268
		l-0.014,0.013c-0.019-0.042-0.047-0.079-0.076-0.114l0.003-0.005c-0.004-0.004-0.01-0.006-0.015-0.011
		c-0.034-0.038-0.076-0.066-0.121-0.092c-0.015-0.008-0.026-0.021-0.042-0.028c-0.062-0.027-0.13-0.044-0.202-0.044H6.394
		c-2.003,0-2.532,1.741-2.532,2.662l0.002,37.048c-0.005,0.05-0.107,1.226,0.65,2.059c0.471,0.518,1.147,0.781,2.01,0.781H31.61
		c0.276,0,0.5-0.225,0.5-0.5C32.11,43.387,31.887,43.164,31.61,43.164z M32.694,3.342l6.798,6.798h-6.798V3.342z"/>
	<path fill="#414042" d="M30.999,33.211h-19.35c-0.276,0-0.5,0.225-0.5,0.5c0,0.277,0.224,0.5,0.5,0.5h19.35
		c0.276,0,0.5-0.223,0.5-0.5C31.499,33.436,31.275,33.211,30.999,33.211z"/>
	<path fill="#414042" d="M30.999,25.211h-19.35c-0.276,0-0.5,0.225-0.5,0.5c0,0.277,0.224,0.5,0.5,0.5h19.35
		c0.276,0,0.5-0.223,0.5-0.5C31.499,25.436,31.275,25.211,30.999,25.211z"/>
	<path fill="#414042" d="M30.999,17.528h-19.35c-0.276,0-0.5,0.224-0.5,0.5s0.224,0.5,0.5,0.5h19.35c0.276,0,0.5-0.224,0.5-0.5
		S31.275,17.528,30.999,17.528z"/>
	<path fill="#414042" d="M43.644,39.602h-5.285v-5.283c0-0.275-0.224-0.5-0.5-0.5s-0.5,0.225-0.5,0.5v5.283h-5.283
		c-0.276,0-0.5,0.225-0.5,0.5c0,0.277,0.224,0.5,0.5,0.5h5.283v5.285c0,0.275,0.224,0.5,0.5,0.5s0.5-0.225,0.5-0.5v-5.285h5.285
		c0.276,0,0.5-0.223,0.5-0.5C44.144,39.826,43.92,39.602,43.644,39.602z"/>
</g>
</svg>
