<?xml version="1.0" encoding="utf-8"?>
<!-- Generator: Adobe Illustrator 16.0.0, SVG Export Plug-In . SVG Version: 6.00 Build 0)  -->
<!DOCTYPE svg PUBLIC "-//W3C//DTD SVG 1.1//EN" "http://www.w3.org/Graphics/SVG/1.1/DTD/svg11.dtd">
<svg version="1.1" id="Layer_1" xmlns="http://www.w3.org/2000/svg" xmlns:xlink="http://www.w3.org/1999/xlink" x="0px" y="0px"
	 width="48px" height="48px" viewBox="0 0 48 48" enable-background="new 0 0 48 48" xml:space="preserve">
<g>
	<path fill="#414042" d="M39.111,37.42c0,0.275,0.224,0.5,0.5,0.5s0.5-0.225,0.5-0.5V11.753c0,0,0,0,0-0.001s0,0,0-0.001
		c0-0.072-0.016-0.139-0.043-0.201c-0.002-0.003-0.005-0.006-0.007-0.01c-0.027-0.058-0.064-0.109-0.11-0.152
		c-0.002-0.002-0.003-0.005-0.005-0.007c-0.006-0.005-0.122-0.103-0.128-0.108l-8.27-8.27l-0.013,0.012
		c-0.019-0.041-0.046-0.077-0.075-0.111L31.465,2.9c-0.004-0.004-0.01-0.006-0.015-0.011c-0.034-0.038-0.076-0.066-0.121-0.092
		c-0.015-0.008-0.026-0.021-0.042-0.028c-0.062-0.027-0.13-0.044-0.202-0.044H5.283c-2.003,0-2.532,1.741-2.532,2.662l0.002,37.048
		c-0.005,0.05-0.107,1.226,0.65,2.059c0.471,0.518,1.147,0.781,2.01,0.781H29.5c0.276,0,0.5-0.225,0.5-0.5
		c0-0.277-0.224-0.5-0.5-0.5H5.414c-0.566,0-0.992-0.151-1.266-0.449c-0.46-0.502-0.399-1.291-0.397-1.344V5.39
		c0.001-0.17,0.058-1.665,1.532-1.665h25.302v8.026c0,0.276,0.224,0.5,0.5,0.5h8.026V37.42z M31.585,4.454l6.797,6.798h-6.797V4.454
		z"/>
	<path fill="#414042" d="M29.89,34.322H10.539c-0.276,0-0.5,0.225-0.5,0.5c0,0.277,0.224,0.5,0.5,0.5H29.89
		c0.276,0,0.5-0.223,0.5-0.5C30.39,34.547,30.166,34.322,29.89,34.322z"/>
	<path fill="#414042" d="M29.89,26.322H10.539c-0.276,0-0.5,0.225-0.5,0.5c0,0.277,0.224,0.5,0.5,0.5H29.89
		c0.276,0,0.5-0.223,0.5-0.5C30.39,26.547,30.166,26.322,29.89,26.322z"/>
	<path fill="#414042" d="M29.89,18.639H10.539c-0.276,0-0.5,0.224-0.5,0.5s0.224,0.5,0.5,0.5H29.89c0.276,0,0.5-0.224,0.5-0.5
		S30.166,18.639,29.89,18.639z"/>
	<path fill="#414042" d="M44.754,41.213H33.186c-0.276,0-0.5,0.225-0.5,0.5c0,0.277,0.224,0.5,0.5,0.5h11.568
		c0.276,0,0.5-0.223,0.5-0.5C45.254,41.438,45.03,41.213,44.754,41.213z"/>
</g>
</svg>
