<?xml version="1.0" encoding="utf-8"?>
<!-- Generator: Adobe Illustrator 16.0.0, SVG Export Plug-In . SVG Version: 6.00 Build 0)  -->
<!DOCTYPE svg PUBLIC "-//W3C//DTD SVG 1.1//EN" "http://www.w3.org/Graphics/SVG/1.1/DTD/svg11.dtd">
<svg version="1.1" id="Layer_1" xmlns="http://www.w3.org/2000/svg" xmlns:xlink="http://www.w3.org/1999/xlink" x="0px" y="0px"
	 width="48px" height="48px" viewBox="0 0 48 48" enable-background="new 0 0 48 48" xml:space="preserve">
<g>
	<path fill="#414042" d="M30.424,33.137H11.075c-0.276,0-0.5,0.223-0.5,0.5c0,0.275,0.224,0.5,0.5,0.5h19.349
		c0.276,0,0.5-0.225,0.5-0.5C30.924,33.359,30.7,33.137,30.424,33.137z"/>
	<path fill="#414042" d="M30.424,25.137H11.075c-0.276,0-0.5,0.223-0.5,0.5c0,0.275,0.224,0.5,0.5,0.5h19.349
		c0.276,0,0.5-0.225,0.5-0.5C30.924,25.359,30.7,25.137,30.424,25.137z"/>
	<path fill="#414042" d="M30.424,17.453H11.075c-0.276,0-0.5,0.224-0.5,0.5s0.224,0.5,0.5,0.5h19.349c0.276,0,0.5-0.224,0.5-0.5
		S30.7,17.453,30.424,17.453z"/>
	<path fill="#414042" d="M31.619,11.065h8.027v21.167c0,0.277,0.224,0.5,0.5,0.5s0.5-0.223,0.5-0.5V10.567c0,0,0,0,0-0.001
		s0,0,0-0.001c0-0.072-0.016-0.139-0.043-0.201c-0.002-0.003-0.005-0.006-0.007-0.01c-0.027-0.058-0.064-0.109-0.11-0.152
		c-0.002-0.002-0.003-0.005-0.005-0.007c-0.006-0.005-0.122-0.103-0.128-0.108l-8.265-8.265l-0.015,0.014
		c-0.019-0.043-0.048-0.081-0.078-0.117l0.003-0.006c-0.004-0.004-0.01-0.006-0.015-0.011c-0.034-0.038-0.076-0.066-0.121-0.092
		c-0.015-0.008-0.026-0.021-0.042-0.028c-0.062-0.027-0.13-0.044-0.202-0.044h-25.8c-2.003,0-2.532,1.741-2.532,2.662l0.002,37.048
		c-0.005,0.05-0.107,1.226,0.65,2.059c0.471,0.519,1.147,0.78,2.01,0.78h25.085c0.276,0,0.5-0.223,0.5-0.5
		c0-0.275-0.224-0.5-0.5-0.5H5.95c-0.566,0-0.992-0.15-1.266-0.449c-0.46-0.5-0.399-1.289-0.397-1.342V4.203
		c0.001-0.17,0.058-1.665,1.532-1.665h25.3v8.026C31.119,10.841,31.343,11.065,31.619,11.065z M32.119,3.267l6.798,6.798h-6.798
		V3.267z"/>
	<path fill="#414042" d="M39.992,41.027l4.58-4.58c0.195-0.195,0.195-0.512,0-0.707s-0.512-0.195-0.707,0l-4.581,4.581l-4.581-4.581
		c-0.195-0.195-0.512-0.195-0.707,0s-0.195,0.512,0,0.707l4.581,4.581l-4.579,4.579c-0.195,0.195-0.195,0.512,0,0.707
		c0.098,0.098,0.226,0.146,0.354,0.146s0.256-0.049,0.354-0.146l4.58-4.58l4.58,4.58c0.098,0.098,0.226,0.146,0.354,0.146
		s0.256-0.049,0.354-0.146c0.195-0.195,0.195-0.512,0-0.707L39.992,41.027z"/>
</g>
</svg>
