<?xml version="1.0" encoding="utf-8"?>
<!-- Generator: Adobe Illustrator 16.0.0, SVG Export Plug-In . SVG Version: 6.00 Build 0)  -->
<!DOCTYPE svg PUBLIC "-//W3C//DTD SVG 1.1//EN" "http://www.w3.org/Graphics/SVG/1.1/DTD/svg11.dtd">
<svg version="1.1" id="Layer_1" xmlns="http://www.w3.org/2000/svg" xmlns:xlink="http://www.w3.org/1999/xlink" x="0px" y="0px"
	 width="48px" height="48px" viewBox="0 0 48 48" enable-background="new 0 0 48 48" xml:space="preserve">
<g>
	<path fill="#414042" d="M38.995,35.211c0,0.275,0.224,0.5,0.5,0.5s0.5-0.225,0.5-0.5V11.753c0,0,0,0,0-0.001s0,0,0-0.001
		c0-0.072-0.017-0.139-0.043-0.201c-0.002-0.003-0.005-0.006-0.007-0.01c-0.027-0.058-0.064-0.109-0.11-0.152
		c-0.002-0.002-0.003-0.005-0.005-0.007c-0.006-0.005-0.122-0.103-0.128-0.108l-8.265-8.265l-0.014,0.014
		c-0.02-0.043-0.049-0.081-0.079-0.117L31.348,2.9c-0.004-0.004-0.01-0.006-0.015-0.011c-0.034-0.038-0.076-0.066-0.121-0.092
		c-0.015-0.008-0.026-0.021-0.042-0.028c-0.062-0.027-0.13-0.044-0.202-0.044h-25.8c-2.003,0-2.532,1.741-2.532,2.662l0.002,37.048
		c-0.005,0.05-0.107,1.226,0.65,2.059c0.471,0.518,1.147,0.781,2.01,0.781h24.474c0.276,0,0.5-0.225,0.5-0.5
		c0-0.277-0.224-0.5-0.5-0.5H5.298c-0.566,0-0.992-0.151-1.266-0.449c-0.46-0.502-0.399-1.291-0.397-1.344V5.39
		c0.001-0.17,0.058-1.665,1.532-1.665h25.3v8.026c0,0.276,0.224,0.5,0.5,0.5h8.027V35.211z M31.468,4.454l6.798,6.798h-6.798V4.454z
		"/>
	<path fill="#414042" d="M29.772,34.322H10.423c-0.276,0-0.5,0.225-0.5,0.5c0,0.277,0.224,0.5,0.5,0.5h19.349
		c0.276,0,0.5-0.223,0.5-0.5C30.272,34.547,30.049,34.322,29.772,34.322z"/>
	<path fill="#414042" d="M29.772,26.322H10.423c-0.276,0-0.5,0.225-0.5,0.5c0,0.277,0.224,0.5,0.5,0.5h19.349
		c0.276,0,0.5-0.223,0.5-0.5C30.272,26.547,30.049,26.322,29.772,26.322z"/>
	<path fill="#414042" d="M29.772,18.639H10.423c-0.276,0-0.5,0.224-0.5,0.5s0.224,0.5,0.5,0.5h19.349c0.276,0,0.5-0.224,0.5-0.5
		S30.049,18.639,29.772,18.639z"/>
	<path fill="#414042" d="M45.271,37.215c-0.164-0.222-0.478-0.266-0.699-0.104l-7.976,5.914l-2.571-2.906
		c-0.184-0.207-0.5-0.226-0.705-0.043c-0.207,0.184-0.227,0.499-0.043,0.705l2.875,3.25c0.098,0.111,0.235,0.17,0.374,0.17
		c0.104,0,0.209-0.033,0.298-0.099l8.344-6.188C45.39,37.75,45.437,37.438,45.271,37.215z"/>
</g>
</svg>
