<?xml version="1.0" encoding="utf-8"?>
<!-- Generator: Adobe Illustrator 16.0.0, SVG Export Plug-In . SVG Version: 6.00 Build 0)  -->
<!DOCTYPE svg PUBLIC "-//W3C//DTD SVG 1.1//EN" "http://www.w3.org/Graphics/SVG/1.1/DTD/svg11.dtd">
<svg version="1.1" id="Layer_1" xmlns="http://www.w3.org/2000/svg" xmlns:xlink="http://www.w3.org/1999/xlink" x="0px" y="0px"
	 width="48px" height="48px" viewBox="0 0 48 48" enable-background="new 0 0 48 48" xml:space="preserve">
<g>
	<path fill="#414042" d="M30.173,33.248H10.824c-0.276,0-0.5,0.225-0.5,0.5c0,0.277,0.224,0.5,0.5,0.5h19.349
		c0.276,0,0.5-0.223,0.5-0.5C30.673,33.473,30.449,33.248,30.173,33.248z"/>
	<path fill="#414042" d="M30.173,25.248H10.824c-0.276,0-0.5,0.225-0.5,0.5c0,0.277,0.224,0.5,0.5,0.5h19.349
		c0.276,0,0.5-0.223,0.5-0.5C30.673,25.473,30.449,25.248,30.173,25.248z"/>
	<path fill="#414042" d="M30.173,17.565H10.824c-0.276,0-0.5,0.224-0.5,0.5s0.224,0.5,0.5,0.5h19.349c0.276,0,0.5-0.224,0.5-0.5
		S30.449,17.565,30.173,17.565z"/>
	<path fill="#414042" d="M31.368,11.177h8.026v18.959c0,0.275,0.224,0.5,0.5,0.5s0.5-0.225,0.5-0.5V10.679c0,0,0,0,0-0.001
		s0,0,0-0.001c0-0.072-0.016-0.139-0.043-0.201c-0.002-0.003-0.005-0.006-0.007-0.01c-0.027-0.058-0.064-0.109-0.11-0.152
		c-0.002-0.002-0.003-0.005-0.005-0.007c-0.006-0.005-0.121-0.103-0.127-0.108l-8.268-8.268l-0.014,0.013
		c-0.019-0.042-0.047-0.079-0.076-0.114l0.003-0.005c-0.004-0.004-0.01-0.006-0.015-0.011c-0.034-0.038-0.076-0.066-0.121-0.092
		c-0.015-0.008-0.026-0.021-0.042-0.028c-0.062-0.027-0.13-0.044-0.202-0.044h-25.8c-2.003,0-2.532,1.741-2.532,2.662l0.002,37.048
		c-0.005,0.05-0.107,1.226,0.65,2.059c0.471,0.518,1.147,0.781,2.01,0.781h24.474c0.276,0,0.5-0.225,0.5-0.5
		c0-0.277-0.224-0.5-0.5-0.5H5.699c-0.566,0-0.992-0.151-1.266-0.449c-0.46-0.502-0.399-1.291-0.397-1.344V4.315
		c0.001-0.17,0.058-1.665,1.532-1.665h25.3v8.026C30.868,10.954,31.092,11.177,31.368,11.177z M31.868,3.379l6.798,6.798h-6.798
		V3.379z"/>
	<path fill="#414042" d="M44.944,37.804c-0.059-0.181-0.216-0.313-0.404-0.341l-4.261-0.613l-1.899-3.854
		c-0.084-0.171-0.258-0.278-0.447-0.278c-0.001,0-0.001,0-0.001,0c-0.189,0-0.363,0.107-0.448,0.277l-1.912,3.854l-4.26,0.615
		c-0.188,0.026-0.346,0.159-0.404,0.34s-0.01,0.38,0.127,0.513l3.094,3.016l-0.631,4.447c-0.027,0.189,0.058,0.379,0.217,0.485
		c0.084,0.056,0.182,0.085,0.278,0.085c0.088,0,0.175-0.023,0.254-0.069l3.7-2.179l3.985,2.071c0.17,0.089,0.379,0.071,0.533-0.046
		s0.227-0.313,0.187-0.502l-0.912-4.309l3.078-3C44.954,38.184,45.003,37.984,44.944,37.804z M40.845,40.793
		c-0.123,0.119-0.176,0.294-0.141,0.461l0.75,3.543l-3.292-1.71c-0.152-0.079-0.336-0.075-0.484,0.013l-3.045,1.793l0.521-3.672
		c0.022-0.158-0.032-0.316-0.146-0.428l-2.549-2.484l3.516-0.508c0.163-0.023,0.304-0.125,0.377-0.272l1.579-3.185l1.569,3.184
		c0.072,0.147,0.214,0.25,0.377,0.273l3.518,0.508L40.845,40.793z"/>
</g>
</svg>
