<?xml version="1.0" encoding="utf-8"?>
<!-- Generator: Adobe Illustrator 16.0.0, SVG Export Plug-In . SVG Version: 6.00 Build 0)  -->
<!DOCTYPE svg PUBLIC "-//W3C//DTD SVG 1.1//EN" "http://www.w3.org/Graphics/SVG/1.1/DTD/svg11.dtd">
<svg version="1.1" id="Layer_1" xmlns="http://www.w3.org/2000/svg" xmlns:xlink="http://www.w3.org/1999/xlink" x="0px" y="0px"
	 width="48px" height="48px" viewBox="0 0 48 48" enable-background="new 0 0 48 48" xml:space="preserve">
<g>
	<path fill="#414042" d="M39.053,30.471c0,0.276,0.224,0.5,0.5,0.5s0.5-0.224,0.5-0.5V11.014c0,0,0,0,0-0.001s0,0,0-0.001
		c0-0.072-0.016-0.139-0.043-0.201c-0.002-0.003-0.005-0.006-0.007-0.009c-0.027-0.058-0.064-0.11-0.11-0.153
		c-0.002-0.002-0.003-0.005-0.005-0.007c-0.006-0.005-0.12-0.104-0.126-0.108l-8.271-8.27l-0.013,0.012
		C31.46,2.235,31.433,2.2,31.404,2.166l0.003-0.005c-0.004-0.005-0.01-0.006-0.015-0.011c-0.034-0.038-0.076-0.066-0.121-0.092
		c-0.015-0.008-0.026-0.021-0.042-0.028c-0.062-0.028-0.13-0.044-0.202-0.044H5.226c-2.004,0-2.533,1.741-2.533,2.662l0.002,37.049
		c-0.005,0.05-0.106,1.226,0.651,2.058c0.471,0.519,1.147,0.781,2.01,0.781h24.476c0.276,0,0.5-0.224,0.5-0.5s-0.224-0.5-0.5-0.5
		H5.356c-0.566,0-0.993-0.15-1.267-0.449c-0.46-0.501-0.4-1.291-0.397-1.343V4.647c0-0.17,0.043-1.662,1.533-1.662h25.302v8.026
		c0,0.276,0.224,0.5,0.5,0.5h8.025V30.471z M31.527,3.714l6.798,6.798h-6.798V3.714z"/>
	<path fill="#414042" d="M29.832,33.583H10.481c-0.276,0-0.5,0.224-0.5,0.5s0.224,0.5,0.5,0.5h19.351c0.276,0,0.5-0.224,0.5-0.5
		S30.108,33.583,29.832,33.583z"/>
	<path fill="#414042" d="M29.832,25.583H10.481c-0.276,0-0.5,0.224-0.5,0.5s0.224,0.5,0.5,0.5h19.351c0.276,0,0.5-0.224,0.5-0.5
		S30.108,25.583,29.832,25.583z"/>
	<path fill="#414042" d="M29.832,17.899H10.481c-0.276,0-0.5,0.224-0.5,0.5s0.224,0.5,0.5,0.5h19.351c0.276,0,0.5-0.224,0.5-0.5
		S30.108,17.899,29.832,17.899z"/>
	<path fill="#414042" d="M45.309,44.846l-0.001-5.586c0.005-0.079,0.013-0.49-0.279-0.799c-0.129-0.137-0.361-0.3-0.739-0.3
		c-0.008,0-0.016,0-0.023,0h-0.776l-0.001-0.543c0-0.288-0.029-0.567-0.088-0.828c-0.207-0.931-0.699-1.697-1.462-2.275
		c-0.532-0.407-1.146-0.661-1.823-0.756L39.35,33.72c-0.023,0-0.099,0.012-0.122,0.015l-0.145,0.02
		c-0.137,0.016-0.273,0.033-0.412,0.064c-1.807,0.417-3.058,1.993-3.042,3.838c0.003,0.17,0.003,0.339,0.002,0.508h-0.867
		c-0.402,0-0.648,0.168-0.784,0.31c-0.293,0.308-0.291,0.703-0.288,0.757v5.084c0,0.211,0,0.418,0.004,0.625
		c0.004,0.432,0.321,1.075,1.176,1.075h9.336c0.448,0,0.708-0.19,0.848-0.351C45.36,45.311,45.315,44.862,45.309,44.846z
		 M38.89,34.793c0.104-0.021,0.209-0.034,0.315-0.047l0.53-0.027l0.24,0.03c0.513,0.071,0.956,0.255,1.357,0.562
		c0.578,0.438,0.935,0.993,1.091,1.697c0.043,0.189,0.064,0.395,0.064,0.613l0.001,0.543H36.63c0.001-0.175,0.002-0.35-0.001-0.521
		C36.617,36.275,37.55,35.104,38.89,34.793z M44.309,44.846c0,0.023-0.004,0.132-0.001,0.154c-0.007,0.004-0.039,0.015-0.101,0.015
		h-9.336c-0.167,0-0.172-0.05-0.176-0.089c-0.004-0.205-0.004-0.406-0.004-0.611l0.072-5.15h1.365h6.99
		c0.005,0,0.01-0.003,0.015-0.003h0.933c0.072,0.044,0.155,0.069,0.242,0.069V44.846z"/>
</g>
</svg>
