<?xml version="1.0" encoding="utf-8"?>
<!-- Generator: Adobe Illustrator 16.0.0, SVG Export Plug-In . SVG Version: 6.00 Build 0)  -->
<!DOCTYPE svg PUBLIC "-//W3C//DTD SVG 1.1//EN" "http://www.w3.org/Graphics/SVG/1.1/DTD/svg11.dtd">
<svg version="1.1" id="Layer_1" xmlns="http://www.w3.org/2000/svg" xmlns:xlink="http://www.w3.org/1999/xlink" x="0px" y="0px"
	 width="48px" height="48px" viewBox="0 0 48 48" enable-background="new 0 0 48 48" xml:space="preserve">
<g>
	<path fill="#414042" d="M30.232,44.275H4.149c-0.566,0-0.992-0.151-1.266-0.449c-0.461-0.502-0.4-1.292-0.398-1.344V5.387
		c0-0.17,0.043-1.662,1.533-1.662h25.3v8.026c0,0.276,0.224,0.5,0.5,0.5h8.025V28.42c0,0.275,0.224,0.5,0.5,0.5s0.5-0.225,0.5-0.5
		V11.753c0,0,0,0,0-0.001s0,0,0-0.001c0-0.072-0.016-0.139-0.043-0.201c-0.002-0.003-0.005-0.006-0.007-0.01
		c-0.027-0.058-0.064-0.109-0.11-0.152c-0.002-0.002-0.003-0.005-0.005-0.007c-0.006-0.005-0.12-0.104-0.126-0.108l-8.271-8.27
		L30.27,3.017c-0.019-0.041-0.046-0.077-0.074-0.111L30.198,2.9c-0.004-0.004-0.01-0.006-0.015-0.011
		c-0.034-0.038-0.076-0.066-0.121-0.092c-0.015-0.008-0.026-0.021-0.042-0.028c-0.062-0.027-0.13-0.044-0.202-0.044h-25.8
		c-2.004,0-2.533,1.741-2.533,2.662l0.002,37.048c-0.005,0.049-0.106,1.226,0.651,2.059c0.472,0.518,1.148,0.781,2.01,0.781h26.083
		c0.276,0,0.5-0.225,0.5-0.5C30.732,44.498,30.509,44.275,30.232,44.275z M30.318,4.454l6.798,6.798h-6.798V4.454z"/>
	<path fill="#414042" d="M28.623,34.322H9.274c-0.276,0-0.5,0.225-0.5,0.5c0,0.277,0.224,0.5,0.5,0.5h19.349
		c0.276,0,0.5-0.223,0.5-0.5C29.123,34.547,28.899,34.322,28.623,34.322z"/>
	<path fill="#414042" d="M28.623,26.322H9.274c-0.276,0-0.5,0.225-0.5,0.5c0,0.277,0.224,0.5,0.5,0.5h19.349
		c0.276,0,0.5-0.223,0.5-0.5C29.123,26.547,28.899,26.322,28.623,26.322z"/>
	<path fill="#414042" d="M28.623,18.639H9.274c-0.276,0-0.5,0.224-0.5,0.5s0.224,0.5,0.5,0.5h19.349c0.276,0,0.5-0.224,0.5-0.5
		S28.899,18.639,28.623,18.639z"/>
	<path fill="#414042" d="M46.02,39.225l-11.108-0.002l3.543-3.897c0.186-0.204,0.171-0.521-0.034-0.706
		c-0.203-0.186-0.52-0.171-0.706,0.033l-4.303,4.734c-0.173,0.191-0.173,0.482,0,0.673l4.303,4.735
		c0.099,0.109,0.234,0.164,0.37,0.164c0.12,0,0.24-0.043,0.336-0.13c0.205-0.186,0.22-0.502,0.034-0.706l-3.543-3.9l11.108,0.002
		c0.276,0,0.5-0.225,0.5-0.5C46.52,39.448,46.296,39.225,46.02,39.225z"/>
</g>
</svg>
