<?xml version="1.0" encoding="utf-8"?>
<!-- Generator: Adobe Illustrator 16.0.0, SVG Export Plug-In . SVG Version: 6.00 Build 0)  -->
<!DOCTYPE svg PUBLIC "-//W3C//DTD SVG 1.1//EN" "http://www.w3.org/Graphics/SVG/1.1/DTD/svg11.dtd">
<svg version="1.1" id="Layer_1" xmlns="http://www.w3.org/2000/svg" xmlns:xlink="http://www.w3.org/1999/xlink" x="0px" y="0px"
	 width="48px" height="48px" viewBox="0 0 48 48" enable-background="new 0 0 48 48" xml:space="preserve">
<g>
	<path fill="#414042" d="M27.333,36.17H9.563c-0.276,0-0.5,0.223-0.5,0.5c0,0.275,0.224,0.5,0.5,0.5h17.77
		c0.276,0,0.5-0.225,0.5-0.5C27.833,36.393,27.609,36.17,27.333,36.17z"/>
	<path fill="#414042" d="M27.333,28.824H9.563c-0.276,0-0.5,0.223-0.5,0.5c0,0.275,0.224,0.5,0.5,0.5h17.77
		c0.276,0,0.5-0.225,0.5-0.5C27.833,29.047,27.609,28.824,27.333,28.824z"/>
	<path fill="#414042" d="M27.333,21.769H9.563c-0.276,0-0.5,0.224-0.5,0.5s0.224,0.5,0.5,0.5h17.77c0.276,0,0.5-0.224,0.5-0.5
		S27.609,21.769,27.333,21.769z"/>
	<path fill="#414042" d="M45.632,10.745c0-0.144-0.063-0.271-0.159-0.362c-0.001-0.001-0.001-0.002-0.002-0.003
		c-0.007-0.006-0.125-0.106-0.132-0.112l-8.293-8.295l-0.013,0.012c-0.019-0.04-0.045-0.075-0.073-0.108l0.004-0.006
		c-0.005-0.005-0.012-0.007-0.016-0.012c-0.034-0.037-0.074-0.064-0.117-0.09c-0.017-0.009-0.029-0.023-0.047-0.031
		c-0.063-0.028-0.13-0.045-0.203-0.045H10.7c-2.008,0-2.539,1.747-2.539,2.67v2.794H4.739c-1.873,0-2.367,1.625-2.367,2.485
		l0.002,34.015c-0.004,0.047-0.1,1.145,0.608,1.922c0.44,0.484,1.072,0.73,1.875,0.73h29.057c0.005,0,0.011,0,0.016-0.001
		c0.83-0.026,2.277-0.492,2.7-1.938l5.956-0.001c1.054-0.034,3.045-0.706,3.045-3.013V10.748c0,0,0-0.001,0-0.001
		S45.632,10.745,45.632,10.745z M37.081,3.421l6.821,6.823h-6.821V3.421z M33.904,45.309H4.858c-0.508,0-0.889-0.135-1.132-0.398
		c-0.411-0.447-0.357-1.155-0.354-1.207V9.644c0.002-0.249,0.08-1.488,1.367-1.488h23.191v7.33c0,0.276,0.224,0.5,0.5,0.5h7.328
		v27.522C35.759,45.164,34.128,45.298,33.904,45.309z M35.033,14.985h-6.103V8.882L35.033,14.985z M42.571,43.369h-5.813V15.487
		c0,0,0,0,0,0c0,0,0-0.001,0-0.001c0-0.071-0.016-0.139-0.043-0.2c-0.004-0.009-0.012-0.016-0.017-0.024
		c-0.026-0.052-0.06-0.1-0.102-0.139c-0.002-0.002-0.003-0.005-0.006-0.008c-0.005-0.004-0.107-0.093-0.112-0.097l-7.592-7.592
		l-0.013,0.012c-0.018-0.036-0.041-0.068-0.066-0.099l0.004-0.005c-0.004-0.005-0.011-0.007-0.016-0.012
		c-0.033-0.037-0.073-0.063-0.116-0.089c-0.017-0.009-0.029-0.023-0.047-0.031c-0.063-0.028-0.131-0.045-0.203-0.045H9.161V4.364
		C9.163,4.193,9.219,2.692,10.7,2.692h25.381v8.053c0,0.276,0.224,0.5,0.5,0.5h8.051v30.111
		C44.632,43.232,42.767,43.36,42.571,43.369z"/>
</g>
</svg>
