<?xml version="1.0" encoding="utf-8"?>
<!-- Generator: Adobe Illustrator 16.0.0, SVG Export Plug-In . SVG Version: 6.00 Build 0)  -->
<!DOCTYPE svg PUBLIC "-//W3C//DTD SVG 1.1//EN" "http://www.w3.org/Graphics/SVG/1.1/DTD/svg11.dtd">
<svg version="1.1" id="Layer_1" xmlns="http://www.w3.org/2000/svg" xmlns:xlink="http://www.w3.org/1999/xlink" x="0px" y="0px"
	 width="48px" height="48px" viewBox="0 0 48 48" enable-background="new 0 0 48 48" xml:space="preserve">
<g>
	<path fill="#414042" d="M32.426,43.24H5.34c-0.566,0-0.992-0.15-1.266-0.449c-0.46-0.5-0.399-1.289-0.397-1.342V4.355
		c0.001-0.17,0.058-1.665,1.532-1.665h25.302v8.027c0,0.276,0.224,0.5,0.5,0.5h8.025v17.168c0,0.276,0.224,0.5,0.5,0.5
		s0.5-0.224,0.5-0.5V10.719c0,0,0,0,0,0c0,0,0-0.001,0-0.001c0-0.071-0.016-0.139-0.043-0.2c-0.003-0.006-0.009-0.011-0.012-0.017
		c-0.026-0.055-0.062-0.104-0.104-0.145c-0.003-0.002-0.004-0.006-0.006-0.008c-0.006-0.005-0.12-0.103-0.126-0.107L31.475,1.97
		l-0.013,0.012c-0.02-0.041-0.046-0.077-0.075-0.111l0.004-0.005c-0.004-0.004-0.01-0.006-0.015-0.011
		c-0.034-0.038-0.076-0.066-0.121-0.092c-0.015-0.008-0.026-0.021-0.042-0.028c-0.062-0.027-0.13-0.044-0.202-0.044H5.209
		c-2.003,0-2.532,1.741-2.532,2.662l0.002,37.048c-0.005,0.05-0.107,1.226,0.65,2.059c0.471,0.519,1.147,0.78,2.01,0.78h27.086
		c0.276,0,0.5-0.223,0.5-0.5C32.926,43.465,32.702,43.24,32.426,43.24z M31.511,3.419l6.798,6.798h-6.798V3.419z"/>
	<path fill="#414042" d="M29.815,33.289H10.465c-0.276,0-0.5,0.223-0.5,0.5c0,0.275,0.224,0.5,0.5,0.5h19.351
		c0.276,0,0.5-0.225,0.5-0.5C30.315,33.512,30.092,33.289,29.815,33.289z"/>
	<path fill="#414042" d="M29.815,25.289H10.465c-0.276,0-0.5,0.223-0.5,0.5c0,0.275,0.224,0.5,0.5,0.5h19.351
		c0.276,0,0.5-0.225,0.5-0.5C30.315,25.512,30.092,25.289,29.815,25.289z"/>
	<path fill="#414042" d="M29.815,17.605H10.465c-0.276,0-0.5,0.224-0.5,0.5s0.224,0.5,0.5,0.5h19.351c0.276,0,0.5-0.224,0.5-0.5
		S30.092,17.605,29.815,17.605z"/>
	<path fill="#414042" d="M45.164,37.504l-4.735-4.305c-0.189-0.172-0.482-0.172-0.672,0l-4.734,4.305
		c-0.205,0.186-0.22,0.502-0.034,0.706c0.186,0.205,0.503,0.22,0.706,0.034l3.898-3.544l0.001,11.108c0,0.277,0.224,0.5,0.5,0.5
		s0.5-0.224,0.5-0.5L40.593,34.7l3.899,3.544c0.096,0.086,0.216,0.129,0.336,0.129c0.136,0,0.271-0.055,0.37-0.163
		C45.384,38.006,45.369,37.689,45.164,37.504z"/>
</g>
</svg>
