<?xml version="1.0" encoding="utf-8"?>
<!-- Generator: Adobe Illustrator 16.0.0, SVG Export Plug-In . SVG Version: 6.00 Build 0)  -->
<!DOCTYPE svg PUBLIC "-//W3C//DTD SVG 1.1//EN" "http://www.w3.org/Graphics/SVG/1.1/DTD/svg11.dtd">
<svg version="1.1" id="Layer_1" xmlns="http://www.w3.org/2000/svg" xmlns:xlink="http://www.w3.org/1999/xlink" x="0px" y="0px"
	 width="48px" height="48px" viewBox="0 0 48 48" enable-background="new 0 0 48 48" xml:space="preserve">
<g>
	<path fill="#414042" d="M32.426,43.24H5.34c-0.566,0-0.992-0.15-1.266-0.449c-0.46-0.501-0.399-1.29-0.397-1.343V4.355
		C3.678,4.185,3.735,2.69,5.209,2.69H30.51v8.027c0,0.276,0.224,0.5,0.5,0.5h8.027v17.167c0,0.277,0.224,0.5,0.5,0.5
		s0.5-0.223,0.5-0.5V10.719c0,0,0,0,0-0.001c0,0,0,0,0,0c0-0.071-0.016-0.139-0.043-0.2c-0.003-0.006-0.009-0.011-0.012-0.017
		c-0.026-0.055-0.061-0.104-0.104-0.146c-0.003-0.002-0.004-0.005-0.006-0.007c-0.007-0.005-0.122-0.103-0.128-0.107l-8.267-8.267
		l-0.014,0.013c-0.02-0.043-0.048-0.08-0.077-0.115l0.003-0.006c-0.004-0.005-0.01-0.006-0.015-0.011
		c-0.034-0.038-0.076-0.066-0.121-0.092c-0.015-0.008-0.026-0.021-0.042-0.028C31.15,1.707,31.082,1.69,31.01,1.69H5.209
		c-2.003,0-2.532,1.741-2.532,2.662L2.679,41.4c-0.005,0.051-0.107,1.227,0.65,2.059c0.471,0.519,1.147,0.781,2.01,0.781h27.086
		c0.276,0,0.5-0.224,0.5-0.5S32.702,43.24,32.426,43.24z M31.51,3.419l6.798,6.798H31.51V3.419z"/>
	<path fill="#414042" d="M29.814,33.288h-19.35c-0.276,0-0.5,0.224-0.5,0.5s0.224,0.5,0.5,0.5h19.35c0.276,0,0.5-0.224,0.5-0.5
		S30.091,33.288,29.814,33.288z"/>
	<path fill="#414042" d="M29.814,25.288h-19.35c-0.276,0-0.5,0.224-0.5,0.5s0.224,0.5,0.5,0.5h19.35c0.276,0,0.5-0.224,0.5-0.5
		S30.091,25.288,29.814,25.288z"/>
	<path fill="#414042" d="M29.814,17.604h-19.35c-0.276,0-0.5,0.224-0.5,0.5s0.224,0.5,0.5,0.5h19.35c0.276,0,0.5-0.224,0.5-0.5
		S30.091,17.604,29.814,17.604z"/>
	<path fill="#414042" d="M45.198,41.17c-0.186-0.203-0.502-0.219-0.706-0.034l-3.899,3.545l0.001-11.11c0-0.275-0.224-0.5-0.5-0.5
		s-0.5,0.224-0.5,0.5L39.593,44.68l-3.898-3.544c-0.203-0.185-0.521-0.169-0.706,0.034c-0.186,0.204-0.171,0.52,0.034,0.706
		l4.734,4.304c0.095,0.087,0.216,0.131,0.336,0.131s0.241-0.044,0.336-0.131l4.735-4.304C45.369,41.689,45.384,41.374,45.198,41.17z
		"/>
</g>
</svg>
