<?xml version="1.0" encoding="utf-8"?>
<!-- Generator: Adobe Illustrator 16.0.0, SVG Export Plug-In . SVG Version: 6.00 Build 0)  -->
<!DOCTYPE svg PUBLIC "-//W3C//DTD SVG 1.1//EN" "http://www.w3.org/Graphics/SVG/1.1/DTD/svg11.dtd">
<svg version="1.1" id="Layer_1" xmlns="http://www.w3.org/2000/svg" xmlns:xlink="http://www.w3.org/1999/xlink" x="0px" y="0px"
	 width="48px" height="48px" viewBox="0 0 48 48" enable-background="new 0 0 48 48" xml:space="preserve">
<g>
	<path fill="#414042" d="M37.058,41.902c-0.276,0-0.5,0.224-0.5,0.5c0,0.189-0.153,0.344-0.343,0.344l-5.052,0.014c0,0,0,0-0.001,0
		c-0.188,0-0.342-0.154-0.343-0.342l-0.006-2.422c0-0.188,0.152-0.342,0.341-0.342l5.053-0.014h0.001
		c0.188,0,0.343,0.154,0.344,0.342c0.001,0.275,0.225,0.498,0.5,0.498c0.316,0,0.501-0.225,0.5-0.502
		c-0.003-0.738-0.605-1.338-1.344-1.338c-0.001,0-0.002,0-0.003,0l-5.053,0.014c-0.738,0.001-1.339,0.604-1.339,1.344l0.006,2.422
		c0.003,0.74,0.605,1.34,1.343,1.34c0.001,0,0.003,0,0.004,0l5.051-0.014c0.739-0.001,1.341-0.604,1.341-1.344
		C37.558,42.126,37.334,41.902,37.058,41.902z"/>
	<path fill="#414042" d="M45.823,39.928c-0.002-0.359-0.142-0.695-0.396-0.948s-0.548-0.374-0.949-0.392L39.424,38.6
		c-0.741,0.006-1.342,0.609-1.339,1.349c0.001,0.275,0.225,0.498,0.5,0.498c0.309,0.034,0.501-0.226,0.5-0.502
		c-0.001-0.188,0.154-0.343,0.343-0.345l5.054-0.012c0.07-0.018,0.176,0.035,0.24,0.1c0.065,0.064,0.102,0.151,0.102,0.242
		l0.006,2.42c0,0.189-0.153,0.344-0.341,0.345l-5.052,0.013c-0.189,0-0.345-0.153-0.346-0.342c-0.001-0.275-0.225-0.498-0.5-0.498
		c-0.252,0-0.501,0.225-0.5,0.502c0.003,0.738,0.606,1.338,1.347,1.338l5.054-0.013c0.737-0.003,1.338-0.605,1.338-1.345
		L45.823,39.928z"/>
	<path fill="#414042" d="M35.245,40.594c-0.273,0-0.497,0.22-0.5,0.494c-0.003,0.276,0.219,0.502,0.495,0.506l5.025,0.053
		c0.001,0,0.003,0,0.005,0c0.273,0,0.497-0.221,0.5-0.495c0.003-0.276-0.219-0.503-0.495-0.505l-5.025-0.053
		C35.249,40.594,35.247,40.594,35.245,40.594z"/>
	<path fill="#414042" d="M26.2,44.275H4.839c-0.566,0-0.992-0.151-1.266-0.449c-0.46-0.502-0.399-1.291-0.397-1.344V5.39
		c0.001-0.17,0.058-1.665,1.532-1.665h25.301v8.027c0,0.276,0.224,0.5,0.5,0.5h8.027V34.1c0,0.275,0.224,0.5,0.5,0.5
		s0.5-0.225,0.5-0.5V11.753c0,0,0,0,0,0c0,0,0-0.001,0-0.001c0-0.071-0.016-0.139-0.043-0.2c-0.003-0.006-0.009-0.011-0.012-0.017
		c-0.026-0.055-0.062-0.104-0.104-0.145c-0.003-0.002-0.004-0.006-0.006-0.008c-0.007-0.005-0.122-0.103-0.128-0.107l-8.267-8.267
		l-0.014,0.013c-0.02-0.043-0.048-0.08-0.077-0.116L30.889,2.9c-0.004-0.004-0.01-0.006-0.015-0.011
		c-0.034-0.038-0.076-0.066-0.121-0.092c-0.015-0.008-0.026-0.021-0.042-0.028c-0.062-0.027-0.13-0.044-0.202-0.044H4.708
		c-2.003,0-2.532,1.741-2.532,2.662l0.002,37.048c-0.005,0.05-0.107,1.226,0.65,2.059c0.471,0.518,1.147,0.781,2.01,0.781H26.2
		c0.276,0,0.5-0.225,0.5-0.5C26.7,44.498,26.477,44.275,26.2,44.275z M31.009,4.454l6.798,6.798h-6.798V4.454z"/>
	<path fill="#414042" d="M29.313,34.322H9.964c-0.276,0-0.5,0.225-0.5,0.5c0,0.277,0.224,0.5,0.5,0.5h19.35
		c0.276,0,0.5-0.223,0.5-0.5C29.813,34.547,29.59,34.322,29.313,34.322z"/>
	<path fill="#414042" d="M29.313,26.322H9.964c-0.276,0-0.5,0.225-0.5,0.5c0,0.277,0.224,0.5,0.5,0.5h19.35
		c0.276,0,0.5-0.223,0.5-0.5C29.813,26.547,29.59,26.322,29.313,26.322z"/>
	<path fill="#414042" d="M29.313,18.639H9.964c-0.276,0-0.5,0.224-0.5,0.5s0.224,0.5,0.5,0.5h19.35c0.276,0,0.5-0.224,0.5-0.5
		S29.59,18.639,29.313,18.639z"/>
</g>
</svg>
