<?xml version="1.0" encoding="utf-8"?>
<!-- Generator: Adobe Illustrator 16.0.0, SVG Export Plug-In . SVG Version: 6.00 Build 0)  -->
<!DOCTYPE svg PUBLIC "-//W3C//DTD SVG 1.1//EN" "http://www.w3.org/Graphics/SVG/1.1/DTD/svg11.dtd">
<svg version="1.1" id="Layer_1" xmlns="http://www.w3.org/2000/svg" xmlns:xlink="http://www.w3.org/1999/xlink" x="0px" y="0px"
	 width="48px" height="48px" viewBox="0 0 48 48" enable-background="new 0 0 48 48" xml:space="preserve">
<g>
	<path fill="#414042" d="M31.281,32.361h-19.35c-0.276,0-0.5,0.224-0.5,0.5s0.224,0.5,0.5,0.5h19.35c0.276,0,0.5-0.224,0.5-0.5
		S31.558,32.361,31.281,32.361z"/>
	<path fill="#414042" d="M31.281,24.361h-19.35c-0.276,0-0.5,0.224-0.5,0.5s0.224,0.5,0.5,0.5h19.35c0.276,0,0.5-0.224,0.5-0.5
		S31.558,24.361,31.281,24.361z"/>
	<path fill="#414042" d="M31.281,16.678h-19.35c-0.276,0-0.5,0.224-0.5,0.5s0.224,0.5,0.5,0.5h19.35c0.276,0,0.5-0.224,0.5-0.5
		S31.558,16.678,31.281,16.678z"/>
	<path fill="#414042" d="M32.477,10.291h8.025v22.846c0,0.276,0.224,0.5,0.5,0.5s0.5-0.224,0.5-0.5V9.792c0,0,0,0,0-0.001
		c0,0,0,0,0,0c0-0.071-0.016-0.139-0.043-0.2c-0.003-0.006-0.009-0.011-0.012-0.017c-0.026-0.055-0.061-0.104-0.104-0.146
		c-0.003-0.002-0.004-0.005-0.006-0.007c-0.006-0.005-0.12-0.103-0.126-0.107L32.94,1.042l-0.013,0.012
		c-0.02-0.041-0.046-0.077-0.074-0.111l0.003-0.005c-0.004-0.005-0.01-0.006-0.015-0.011c-0.034-0.038-0.076-0.066-0.121-0.092
		c-0.015-0.008-0.026-0.021-0.042-0.028c-0.062-0.028-0.13-0.044-0.202-0.044H6.675c-2.003,0-2.532,1.741-2.532,2.662l0.002,37.049
		c-0.005,0.049-0.107,1.225,0.65,2.059c0.471,0.518,1.147,0.78,2.01,0.78h22.196c0.276,0,0.5-0.224,0.5-0.5s-0.224-0.5-0.5-0.5
		H6.806c-0.566,0-0.992-0.151-1.266-0.449c-0.46-0.501-0.399-1.29-0.397-1.343V3.428c0.001-0.17,0.058-1.665,1.532-1.665h25.301
		v8.027C31.977,10.067,32.2,10.291,32.477,10.291z M32.977,2.492l6.798,6.798h-6.798V2.492z"/>
	<path fill="#414042" d="M43.729,46.397l-3.152-3.417c0.711-0.814,1.173-1.855,1.221-3.022c0.106-2.706-2.008-4.995-4.713-5.104
		l-0.197-0.004c-2.647,0-4.802,2.072-4.906,4.717c-0.054,1.311,0.407,2.563,1.297,3.526s2.103,1.524,3.413,1.577l0.2,0.004
		c1.115,0,2.131-0.385,2.956-1.01l3.147,3.411c0.099,0.106,0.232,0.161,0.367,0.161c0.121,0,0.243-0.044,0.339-0.133
		C43.903,46.916,43.916,46.6,43.729,46.397z M36.731,43.67c-1.045-0.041-2.011-0.487-2.719-1.256
		c-0.709-0.768-1.075-1.764-1.032-2.808c0.082-2.106,1.799-3.757,3.906-3.757l0.157,0.004c2.154,0.086,3.838,1.91,3.753,4.064
		c-0.043,1.064-0.506,2.011-1.222,2.688c-0.005,0.004-0.011,0.005-0.016,0.009c-0.002,0.002-0.003,0.005-0.005,0.007
		c-0.698,0.651-1.633,1.052-2.664,1.052L36.731,43.67z"/>
</g>
</svg>
