<?xml version="1.0" encoding="utf-8"?>
<!-- Generator: Adobe Illustrator 16.0.0, SVG Export Plug-In . SVG Version: 6.00 Build 0)  -->
<!DOCTYPE svg PUBLIC "-//W3C//DTD SVG 1.1//EN" "http://www.w3.org/Graphics/SVG/1.1/DTD/svg11.dtd">
<svg version="1.1" id="Layer_1" xmlns="http://www.w3.org/2000/svg" xmlns:xlink="http://www.w3.org/1999/xlink" x="0px" y="0px"
	 width="48px" height="48px" viewBox="0 0 48 48" enable-background="new 0 0 48 48" xml:space="preserve">
<g>
	<path fill="#414042" d="M30.146,32.188h-19.35c-0.276,0-0.5,0.225-0.5,0.5c0,0.277,0.224,0.5,0.5,0.5h19.35
		c0.276,0,0.5-0.223,0.5-0.5C30.646,32.412,30.422,32.188,30.146,32.188z"/>
	<path fill="#414042" d="M30.146,24.188h-19.35c-0.276,0-0.5,0.224-0.5,0.5s0.224,0.5,0.5,0.5h19.35c0.276,0,0.5-0.223,0.5-0.5
		S30.422,24.188,30.146,24.188z"/>
	<path fill="#414042" d="M30.146,16.504h-19.35c-0.276,0-0.5,0.224-0.5,0.5s0.224,0.5,0.5,0.5h19.35c0.276,0,0.5-0.224,0.5-0.5
		S30.422,16.504,30.146,16.504z"/>
	<path fill="#414042" d="M31.341,10.117h8.026v19.846c0,0.277,0.224,0.5,0.5,0.5s0.5-0.223,0.5-0.5V9.619c0,0,0,0,0,0
		c0,0,0-0.001,0-0.001c0-0.071-0.016-0.139-0.043-0.2c-0.003-0.006-0.009-0.011-0.012-0.017c-0.026-0.055-0.061-0.104-0.104-0.145
		c-0.003-0.002-0.004-0.006-0.006-0.008c-0.006-0.005-0.121-0.103-0.127-0.107l-8.269-8.269l-0.014,0.013
		c-0.019-0.042-0.046-0.078-0.075-0.113l0.003-0.005c-0.004-0.004-0.01-0.006-0.015-0.011c-0.034-0.038-0.076-0.066-0.121-0.092
		c-0.015-0.008-0.026-0.021-0.042-0.028c-0.062-0.027-0.13-0.044-0.202-0.044H5.54c-2.003,0-2.532,1.741-2.532,2.662L3.01,40.301
		c-0.005,0.05-0.107,1.226,0.65,2.059c0.471,0.518,1.147,0.781,2.01,0.781h22.41c0.276,0,0.5-0.225,0.5-0.5
		c0-0.277-0.224-0.5-0.5-0.5H5.671c-0.566,0-0.992-0.151-1.266-0.449c-0.46-0.502-0.399-1.291-0.397-1.344V3.255
		C4.009,3.084,4.066,1.59,5.54,1.59h25.301v8.027C30.841,9.894,31.064,10.117,31.341,10.117z M31.841,2.319l6.798,6.798h-6.798
		V2.319z"/>
	<path fill="#414042" d="M37.875,37.217c-1.616,0-2.931,1.314-2.931,2.932c0,1.615,1.314,2.93,2.931,2.93s2.931-1.314,2.931-2.93
		C40.806,38.531,39.491,37.217,37.875,37.217z M37.875,42.078c-1.064,0-1.931-0.865-1.931-1.93c0-1.065,0.866-1.932,1.931-1.932
		s1.931,0.866,1.931,1.932C39.806,41.213,38.939,42.078,37.875,42.078z"/>
	<path fill="#414042" d="M44.968,41.972c-0.06-0.222-0.201-0.405-0.398-0.52l-1.429-0.824c0-0.225-0.004-0.413-0.007-0.606
		c-0.003-0.121-0.005-0.244-0.007-0.379l1.438-0.83c0.407-0.236,0.548-0.761,0.313-1.17l-1.325-2.291
		c-0.228-0.396-0.78-0.545-1.17-0.315l-1.428,0.824c-0.126-0.073-0.235-0.138-0.343-0.2c-0.164-0.097-0.322-0.189-0.519-0.301
		v-1.639c0-0.471-0.384-0.855-0.855-0.855h-2.649c-0.472,0-0.855,0.385-0.855,0.855v1.535c-0.324,0.233-0.657,0.457-0.877,0.604
		l-1.406-0.813c-0.396-0.229-0.941-0.082-1.169,0.313l-1.324,2.293c-0.236,0.408-0.096,0.934,0.315,1.173l1.333,0.756
		c-0.001,0.413,0,0.841,0.001,1.114l-1.332,0.768c-0.407,0.236-0.548,0.76-0.313,1.168l1.325,2.297
		c0.228,0.393,0.776,0.537,1.169,0.311l1.407-0.813c0.323,0.207,0.657,0.395,0.882,0.518v1.609c0,0.473,0.384,0.857,0.856,0.857
		h2.648c0.473,0,0.856-0.385,0.856-0.857v-1.605c0.21-0.113,0.52-0.291,0.88-0.529l1.404,0.811c0.395,0.226,0.943,0.078,1.167-0.314
		l1.325-2.291C44.997,42.424,45.027,42.193,44.968,41.972z M42.763,44.29l-1.549-0.895c-0.167-0.098-0.377-0.087-0.536,0.022
		c-0.709,0.495-1.282,0.771-1.288,0.774c-0.174,0.083-0.284,0.259-0.284,0.451v1.767h-2.361v-1.767c0-0.187-0.104-0.358-0.271-0.444
		c-0.007-0.004-0.721-0.373-1.271-0.746c-0.051-0.043-0.11-0.075-0.176-0.095c-0.133-0.04-0.274-0.023-0.394,0.046l-1.544,0.912
		l-1.19-2.061l1.458-0.84c0.155-0.09,0.251-0.256,0.25-0.436c0,0-0.006-0.938,0-1.686c0.001-0.182-0.096-0.35-0.253-0.439
		l-1.46-0.827l1.18-2.043l1.549,0.894c0.161,0.094,0.363,0.09,0.521-0.013c0,0,0.759-0.488,1.388-0.954
		c0.127-0.095,0.202-0.244,0.202-0.402v-1.645h2.36v1.789c0,0.182,0.1,0.351,0.26,0.438c0.318,0.175,0.529,0.299,0.751,0.43
		c0.176,0.104,0.358,0.211,0.551,0.315c0.161,0.12,0.376,0.134,0.551,0.033l1.542-0.912l1.192,2.06l-1.563,0.903
		c-0.154,0.089-0.25,0.254-0.25,0.433c0,0.266,0.004,0.479,0.008,0.688c0.005,0.26,0.01,0.515,0.005,0.865
		c-0.001,0.079,0.019,0.162,0.055,0.233c0.044,0.088,0.112,0.161,0.197,0.21l1.554,0.896L42.763,44.29z"/>
</g>
</svg>
