<?xml version="1.0" encoding="utf-8"?>
<!-- Generator: Adobe Illustrator 16.0.0, SVG Export Plug-In . SVG Version: 6.00 Build 0)  -->
<!DOCTYPE svg PUBLIC "-//W3C//DTD SVG 1.1//EN" "http://www.w3.org/Graphics/SVG/1.1/DTD/svg11.dtd">
<svg version="1.1" id="Layer_1" xmlns="http://www.w3.org/2000/svg" xmlns:xlink="http://www.w3.org/1999/xlink" x="0px" y="0px"
	 width="48px" height="48px" viewBox="0 0 48 48" enable-background="new 0 0 48 48" xml:space="preserve">
<g>
	<path fill="#414042" d="M45,38.016c0-0.047-0.006-0.08-0.019-0.125l-0.03-0.189c-0.025-0.17-0.053-0.34-0.094-0.506
		c-0.227-0.902-0.683-1.631-1.355-2.166c-0.445-0.352-0.933-0.574-1.448-0.658c-0.421-0.066-0.86-0.077-1.31-0.028
		c-0.468,0.052-0.899,0.192-1.283,0.415c-0.381,0.221-0.689,0.508-0.936,0.768c-0.344-0.367-0.671-0.628-1.024-0.817
		c-0.401-0.216-0.838-0.339-1.337-0.378c-0.41-0.032-0.781-0.02-1.135,0.035c-0.618,0.099-1.18,0.377-1.668,0.826
		c-0.659,0.602-1.08,1.407-1.251,2.395l-0.04,0.268c-0.004,0.023-0.019,0.139-0.019,0.162v0.816c0,0.041,0.007,0.088,0.019,0.132
		c0.05,0.468,0.171,0.941,0.366,1.445v0.001c0,0.001,0.001,0.001,0.001,0.002c0.002,0.006,0.003,0.011,0.005,0.016
		c0.001,0.002,0.003,0.003,0.003,0.005c0.183,0.514,0.462,0.94,0.467,0.948l0.101,0.162c0.08,0.131,0.161,0.262,0.246,0.389
		c0.58,0.854,1.309,1.664,2.292,2.551c0.756,0.682,1.616,1.361,2.632,2.078c0.106,0.074,0.224,0.111,0.342,0.111
		c0.117,0,0.236-0.037,0.346-0.111c0.639-0.453,1.207-0.883,1.739-1.314c0.937-0.764,1.668-1.457,2.301-2.18
		c0.502-0.57,0.907-1.126,1.238-1.7c0.033-0.058,0.32-0.562,0.453-0.92c0.001-0.001,0.001-0.001,0.001-0.001
		c0-0.001,0.001-0.002,0.001-0.003c0.001-0.002,0.002-0.005,0.003-0.007c0-0.001,0-0.002,0.001-0.003
		c0.167-0.433,0.278-0.827,0.339-1.208L45,38.016z M42.159,42.406c-0.597,0.681-1.29,1.337-2.181,2.064
		c-0.45,0.365-0.93,0.73-1.453,1.106c-0.881-0.632-1.637-1.235-2.305-1.837c-0.923-0.832-1.601-1.586-2.135-2.371
		c-0.077-0.113-0.149-0.231-0.221-0.35l-0.112-0.18c-0.002-0.004-0.232-0.356-0.373-0.758c-0.001-0.003-0.003-0.004-0.004-0.007
		c-0.001-0.004-0.001-0.007-0.002-0.011c-0.172-0.441-0.274-0.849-0.313-1.238c-0.001-0.016-0.005-0.035-0.009-0.056l0.007-0.776
		l0.037-0.238c0.133-0.773,0.44-1.371,0.94-1.827c0.347-0.319,0.723-0.508,1.147-0.575c0.275-0.044,0.571-0.053,0.903-0.027
		c0.355,0.028,0.663,0.113,0.939,0.264c0.266,0.141,0.519,0.349,0.795,0.648l0.332,0.372c0.096,0.108,0.234,0.169,0.378,0.167
		s0.28-0.064,0.374-0.174l0.211-0.244c0.319-0.357,0.572-0.578,0.846-0.737c0.267-0.155,0.559-0.248,0.892-0.285
		c0.355-0.04,0.705-0.032,1.04,0.022c0.349,0.057,0.672,0.205,0.986,0.454c0.503,0.399,0.832,0.931,1.006,1.624
		c0.034,0.136,0.055,0.275,0.076,0.415l0.042,0.907l-0.048,0.314c-0.049,0.313-0.141,0.633-0.286,1.008
		c-0.001,0.002,0,0.003-0.001,0.005s-0.002,0.003-0.003,0.005c-0.087,0.236-0.308,0.641-0.385,0.775
		C42.984,41.383,42.617,41.887,42.159,42.406z"/>
	<path fill="#414042" d="M39.364,31.152c0,0.276,0.224,0.5,0.5,0.5s0.5-0.224,0.5-0.5V10.355c0,0,0,0,0-0.001c0,0,0,0,0,0
		c0-0.071-0.016-0.139-0.043-0.2c-0.003-0.006-0.009-0.011-0.012-0.017c-0.026-0.055-0.062-0.104-0.104-0.146
		c-0.003-0.002-0.004-0.005-0.006-0.007c-0.006-0.005-0.121-0.103-0.127-0.107l-8.269-8.269L31.79,1.62
		c-0.019-0.042-0.046-0.078-0.075-0.113l0.003-0.005c-0.004-0.005-0.01-0.006-0.015-0.011c-0.034-0.038-0.076-0.066-0.121-0.092
		c-0.015-0.008-0.026-0.021-0.042-0.028c-0.062-0.028-0.13-0.044-0.202-0.044H5.537c-2.003,0-2.532,1.741-2.532,2.662l0.002,37.048
		c-0.005,0.051-0.107,1.227,0.65,2.059c0.471,0.519,1.147,0.781,2.01,0.781h24.728c0.276,0,0.5-0.224,0.5-0.5s-0.224-0.5-0.5-0.5
		H5.668c-0.566,0-0.992-0.15-1.266-0.449c-0.46-0.501-0.399-1.29-0.397-1.343V3.992c0.001-0.17,0.058-1.665,1.532-1.665h25.301
		v8.027c0,0.276,0.224,0.5,0.5,0.5h8.026V31.152z M31.838,3.056l6.798,6.798h-6.798V3.056z"/>
	<path fill="#414042" d="M30.143,32.925h-19.35c-0.276,0-0.5,0.224-0.5,0.5s0.224,0.5,0.5,0.5h19.35c0.276,0,0.5-0.224,0.5-0.5
		S30.419,32.925,30.143,32.925z"/>
	<path fill="#414042" d="M30.143,24.925h-19.35c-0.276,0-0.5,0.224-0.5,0.5s0.224,0.5,0.5,0.5h19.35c0.276,0,0.5-0.224,0.5-0.5
		S30.419,24.925,30.143,24.925z"/>
	<path fill="#414042" d="M30.143,17.241h-19.35c-0.276,0-0.5,0.224-0.5,0.5s0.224,0.5,0.5,0.5h19.35c0.276,0,0.5-0.224,0.5-0.5
		S30.419,17.241,30.143,17.241z"/>
</g>
</svg>
