<?xml version="1.0" encoding="utf-8"?>
<!-- Generator: Adobe Illustrator 16.0.0, SVG Export Plug-In . SVG Version: 6.00 Build 0)  -->
<!DOCTYPE svg PUBLIC "-//W3C//DTD SVG 1.1//EN" "http://www.w3.org/Graphics/SVG/1.1/DTD/svg11.dtd">
<svg version="1.1" id="Layer_1" xmlns="http://www.w3.org/2000/svg" xmlns:xlink="http://www.w3.org/1999/xlink" x="0px" y="0px"
	 width="48px" height="48px" viewBox="0 0 48 48" enable-background="new 0 0 48 48" xml:space="preserve">
<g>
	<path fill="#414042" d="M27.657,43.186H7.179c-0.566,0-0.992-0.15-1.266-0.449c-0.46-0.5-0.399-1.289-0.397-1.342V4.301
		c0.001-0.17,0.058-1.665,1.532-1.665h25.301v8.027c0,0.276,0.224,0.5,0.5,0.5h8.027v20.923c0,0.277,0.224,0.5,0.5,0.5
		s0.5-0.223,0.5-0.5V10.665c0,0,0,0,0,0c0,0,0-0.001,0-0.001c0-0.071-0.016-0.139-0.043-0.2c-0.003-0.006-0.009-0.011-0.012-0.017
		c-0.026-0.055-0.062-0.104-0.104-0.145c-0.003-0.002-0.004-0.006-0.006-0.008c-0.007-0.005-0.122-0.103-0.128-0.107l-8.267-8.267
		l-0.014,0.013c-0.02-0.043-0.048-0.08-0.077-0.116l0.003-0.005c-0.004-0.004-0.01-0.006-0.015-0.011
		c-0.034-0.038-0.076-0.066-0.121-0.092c-0.015-0.008-0.026-0.021-0.042-0.028c-0.062-0.027-0.13-0.044-0.202-0.044H7.048
		c-2.003,0-2.532,1.741-2.532,2.662l0.002,37.048c-0.005,0.05-0.107,1.226,0.65,2.059c0.471,0.519,1.147,0.78,2.01,0.78h20.479
		c0.276,0,0.5-0.223,0.5-0.5C28.157,43.41,27.934,43.186,27.657,43.186z M33.349,3.365l6.798,6.798h-6.798V3.365z"/>
	<path fill="#414042" d="M12.303,33.234c-0.276,0-0.5,0.223-0.5,0.5c0,0.275,0.224,0.5,0.5,0.5h15.35c0.276,0,0.5-0.225,0.5-0.5
		c0-0.277-0.224-0.5-0.5-0.5H12.303z"/>
	<path fill="#414042" d="M32.153,25.734c0-0.277-0.224-0.5-0.5-0.5h-19.35c-0.276,0-0.5,0.223-0.5,0.5c0,0.275,0.224,0.5,0.5,0.5
		h19.35C31.93,26.234,32.153,26.01,32.153,25.734z"/>
	<path fill="#414042" d="M31.653,17.55h-19.35c-0.276,0-0.5,0.224-0.5,0.5s0.224,0.5,0.5,0.5h19.35c0.276,0,0.5-0.224,0.5-0.5
		S31.93,17.55,31.653,17.55z"/>
	<path fill="#414042" d="M42.671,34.783H31.554c-0.451,0-0.818,0.365-0.818,0.814v9.953c0,0.448,0.367,0.813,0.818,0.813h11.117
		c0.451,0,0.818-0.364,0.818-0.813v-9.953C43.489,35.148,43.122,34.783,42.671,34.783z M42.489,35.783v7.104h-1.944
		c0-0.506-0.004-1.196-0.017-1.29c-0.157-0.984-0.995-1.699-1.994-1.699c-0.134,0-0.256,0-0.379,0
		c0.122-0.078,0.236-0.166,0.341-0.271c0.377-0.379,0.584-0.877,0.583-1.402c0-1.095-0.892-1.991-1.997-1.998
		c-1.095,0-1.986,0.893-1.989,1.987c-0.005,0.709,0.37,1.333,0.931,1.689c-0.614,0.005-0.658,0.011-0.679,0.014
		c-0.998,0.146-1.723,0.983-1.723,1.991v0.979h-1.887v-7.104H42.489z M36.093,38.219c0.001-0.547,0.445-0.992,0.993-0.992
		c0.548,0.004,0.993,0.451,0.993,1c0.001,0.259-0.103,0.505-0.291,0.693c-0.19,0.191-0.444,0.297-0.714,0.297v0.5l-0.016-0.5
		C36.531,39.207,36.089,38.752,36.093,38.219z M38.534,40.897c0.513,0,0.926,0.353,1.002,0.817c0.005,0.1,0.009,0.718,0.01,1.172
		h-4.924v-0.979c0-0.516,0.356-0.928,0.834-0.998C35.607,40.902,37.341,40.897,38.534,40.897z M31.735,45.363v-1.477h2.387h5.924
		h2.443v1.477H31.735z"/>
</g>
</svg>
