<?xml version="1.0" encoding="utf-8"?>
<!-- Generator: Adobe Illustrator 16.0.0, SVG Export Plug-In . SVG Version: 6.00 Build 0)  -->
<!DOCTYPE svg PUBLIC "-//W3C//DTD SVG 1.1//EN" "http://www.w3.org/Graphics/SVG/1.1/DTD/svg11.dtd">
<svg version="1.1" id="Layer_1" xmlns="http://www.w3.org/2000/svg" xmlns:xlink="http://www.w3.org/1999/xlink" x="0px" y="0px"
	 width="48px" height="48px" viewBox="0 0 48 48" enable-background="new 0 0 48 48" xml:space="preserve">
<g>
	<path fill="#414042" d="M40.328,34.855c0,0.277,0.224,0.5,0.5,0.5s0.5-0.223,0.5-0.5V11.058c0,0,0,0,0,0c0,0,0-0.001,0-0.001
		c0-0.071-0.016-0.139-0.043-0.2c-0.003-0.006-0.009-0.011-0.012-0.017c-0.026-0.055-0.061-0.104-0.104-0.145
		c-0.003-0.002-0.004-0.006-0.006-0.008c-0.006-0.005-0.12-0.103-0.126-0.107l-8.271-8.271l-0.013,0.012
		c-0.02-0.041-0.046-0.077-0.074-0.111l0.003-0.005c-0.004-0.004-0.01-0.006-0.015-0.011c-0.034-0.038-0.076-0.066-0.121-0.092
		c-0.015-0.008-0.026-0.021-0.042-0.028c-0.062-0.027-0.13-0.044-0.202-0.044H6.501c-2.003,0-2.532,1.741-2.532,2.662L3.972,41.74
		c-0.005,0.05-0.107,1.226,0.65,2.059c0.471,0.518,1.147,0.781,2.01,0.781h23.742c0.276,0,0.5-0.225,0.5-0.5
		c0-0.277-0.224-0.5-0.5-0.5H6.632c-0.566,0-0.992-0.151-1.266-0.449c-0.46-0.502-0.399-1.291-0.397-1.344V4.694
		C4.971,4.524,5.027,3.03,6.501,3.03h25.301v8.027c0,0.276,0.224,0.5,0.5,0.5h8.025V34.855z M32.803,3.758l6.798,6.798h-6.798V3.758
		z"/>
	<path fill="#414042" d="M31.106,33.627H11.757c-0.276,0-0.5,0.225-0.5,0.5c0,0.277,0.224,0.5,0.5,0.5h19.349
		c0.276,0,0.5-0.223,0.5-0.5C31.606,33.852,31.383,33.627,31.106,33.627z"/>
	<path fill="#414042" d="M31.106,25.627H11.757c-0.276,0-0.5,0.225-0.5,0.5c0,0.277,0.224,0.5,0.5,0.5h19.349
		c0.276,0,0.5-0.223,0.5-0.5C31.606,25.852,31.383,25.627,31.106,25.627z"/>
	<path fill="#414042" d="M31.106,17.944H11.757c-0.276,0-0.5,0.224-0.5,0.5s0.224,0.5,0.5,0.5h19.349c0.276,0,0.5-0.224,0.5-0.5
		S31.383,17.944,31.106,17.944z"/>
	<path fill="#414042" d="M43.535,40.033c-0.646,0-1.021,0.339-1.42,0.697l-0.544,0.49h-0.519v-0.578c0-0.275-0.224-0.5-0.5-0.5
		h-0.369c0.427-0.368,0.703-0.907,0.703-1.514c0-1.107-0.9-2.01-2.008-2.01c-1.028,0-1.868,0.78-1.984,1.778
		c-0.116-0.998-0.957-1.778-1.986-1.778c-1.107,0-2.008,0.902-2.008,2.01c0,0.606,0.276,1.146,0.703,1.514h-0.469
		c-0.276,0-0.5,0.225-0.5,0.5v4.719c0,0.275,0.224,0.5,0.5,0.5h7.418c0.276,0,0.5-0.225,0.5-0.5v-0.578h0.418l0.614,0.554
		c0.484,0.396,0.776,0.634,1.45,0.634c0.276,0,0.5-0.225,0.5-0.5v-4.938C44.035,40.258,43.812,40.033,43.535,40.033z M38.879,37.619
		c0.556,0,1.008,0.453,1.008,1.01c0,0.555-0.452,1.008-1.008,1.008s-1.008-0.453-1.008-1.008
		C37.871,38.072,38.323,37.619,38.879,37.619z M34.908,37.619c0.557,0,1.01,0.453,1.01,1.01c0,0.555-0.453,1.008-1.01,1.008
		c-0.556,0-1.008-0.453-1.008-1.008C33.9,38.072,34.353,37.619,34.908,37.619z M36.895,38.86c0.06,0.512,0.309,0.962,0.68,1.282
		h-1.36C36.585,39.822,36.835,39.372,36.895,38.86z M40.053,44.861h-6.418v-3.719h6.418V44.861z M41.053,42.221h0.18v1.563h-0.18
		V42.221z M43.035,44.813c-0.088-0.063-0.197-0.152-0.348-0.273l-0.455-0.414v-2.154l0.552-0.497
		c0.097-0.087,0.179-0.159,0.251-0.22V44.813z"/>
</g>
</svg>
