<?xml version="1.0" encoding="utf-8"?>
<!-- Generator: Adobe Illustrator 16.0.0, SVG Export Plug-In . SVG Version: 6.00 Build 0)  -->
<!DOCTYPE svg PUBLIC "-//W3C//DTD SVG 1.1//EN" "http://www.w3.org/Graphics/SVG/1.1/DTD/svg11.dtd">
<svg version="1.1" id="Layer_1" xmlns="http://www.w3.org/2000/svg" xmlns:xlink="http://www.w3.org/1999/xlink" x="0px" y="0px"
	 width="48px" height="48px" viewBox="0 0 48 48" enable-background="new 0 0 48 48" xml:space="preserve">
<g>
	<path fill="#414042" d="M31.992,43.047H6.424c-0.566,0-0.992-0.15-1.266-0.448c-0.46-0.501-0.399-1.29-0.396-1.343V4.16
		c0-0.17,0.043-1.662,1.531-1.662h25.3v8.027c0,0.276,0.224,0.5,0.5,0.5h8.027v20.144c0,0.275,0.224,0.5,0.5,0.5s0.5-0.225,0.5-0.5
		V10.526c0,0,0,0,0,0c0,0,0-0.001,0-0.001c0-0.071-0.016-0.139-0.043-0.2c-0.003-0.006-0.009-0.011-0.012-0.017
		c-0.026-0.055-0.061-0.104-0.104-0.145c-0.003-0.002-0.004-0.006-0.006-0.008c-0.007-0.005-0.122-0.103-0.128-0.107L32.562,1.78
		l-0.014,0.013c-0.02-0.043-0.048-0.08-0.077-0.116l0.003-0.005c-0.004-0.004-0.01-0.006-0.015-0.011
		c-0.034-0.038-0.076-0.066-0.121-0.092c-0.015-0.008-0.026-0.021-0.042-0.028c-0.062-0.027-0.13-0.044-0.202-0.044h-25.8
		c-2.002,0-2.531,1.741-2.531,2.662l0.002,37.048c-0.005,0.05-0.107,1.226,0.65,2.059c0.471,0.519,1.147,0.78,2.01,0.78h25.568
		c0.276,0,0.5-0.223,0.5-0.5C32.492,43.271,32.269,43.047,31.992,43.047z M32.594,3.226l6.798,6.798h-6.798V3.226z"/>
	<path fill="#414042" d="M30.898,33.096H11.549c-0.276,0-0.5,0.223-0.5,0.5c0,0.275,0.224,0.5,0.5,0.5h19.349
		c0.276,0,0.5-0.225,0.5-0.5C31.398,33.318,31.175,33.096,30.898,33.096z"/>
	<path fill="#414042" d="M30.898,25.096H11.549c-0.276,0-0.5,0.223-0.5,0.5c0,0.275,0.224,0.5,0.5,0.5h19.349
		c0.276,0,0.5-0.225,0.5-0.5C31.398,25.318,31.175,25.096,30.898,25.096z"/>
	<path fill="#414042" d="M30.898,17.412H11.549c-0.276,0-0.5,0.224-0.5,0.5s0.224,0.5,0.5,0.5h19.349c0.276,0,0.5-0.224,0.5-0.5
		S31.175,17.412,30.898,17.412z"/>
	<path fill="#414042" d="M43.176,37.832h-7.709c-0.276,0-0.5,0.225-0.5,0.5v7.291c0,0.485,0.394,0.879,0.877,0.879h6.955
		c0.483,0,0.877-0.394,0.877-0.879v-7.291C43.676,38.057,43.452,37.832,43.176,37.832z M42.676,45.502h-6.709v-6.67h1.561v5.18
		c0,0.275,0.224,0.5,0.5,0.5s0.5-0.225,0.5-0.5v-5.18h1.57v5.104c0,0.277,0.224,0.5,0.5,0.5s0.5-0.223,0.5-0.5v-5.104h1.578V45.502z
		"/>
	<path fill="#414042" d="M43.742,36.06h-1.801v-1.116c0-0.467-0.381-0.848-0.85-0.848h-3.465c-0.467,0-0.846,0.381-0.846,0.848
		v1.116h-1.883c-0.276,0-0.5,0.224-0.5,0.5s0.224,0.5,0.5,0.5h8.844c0.276,0,0.5-0.224,0.5-0.5S44.019,36.06,43.742,36.06z
		 M37.781,35.096h3.16v0.964h-3.16V35.096z"/>
</g>
</svg>
