<?xml version="1.0" encoding="utf-8"?>
<!-- Generator: Adobe Illustrator 16.0.0, SVG Export Plug-In . SVG Version: 6.00 Build 0)  -->
<!DOCTYPE svg PUBLIC "-//W3C//DTD SVG 1.1//EN" "http://www.w3.org/Graphics/SVG/1.1/DTD/svg11.dtd">
<svg version="1.1" id="Layer_1" xmlns="http://www.w3.org/2000/svg" xmlns:xlink="http://www.w3.org/1999/xlink" x="0px" y="0px"
	 width="48px" height="48px" viewBox="0 0 48 48" enable-background="new 0 0 48 48" xml:space="preserve">
<g>
	<path fill="#414042" d="M40.766,29.324c0,0.275,0.224,0.5,0.5,0.5s0.5-0.225,0.5-0.5V10.512c0,0,0,0,0,0c0,0,0-0.001,0-0.001
		c0-0.071-0.016-0.139-0.043-0.2c-0.003-0.006-0.009-0.011-0.012-0.017c-0.026-0.055-0.061-0.104-0.104-0.145
		c-0.003-0.002-0.004-0.006-0.006-0.008c-0.006-0.005-0.12-0.103-0.126-0.107l-8.271-8.271l-0.013,0.012
		c-0.02-0.041-0.046-0.077-0.074-0.111l0.003-0.005c-0.004-0.004-0.01-0.006-0.015-0.011c-0.034-0.038-0.076-0.066-0.121-0.092
		c-0.015-0.008-0.026-0.021-0.042-0.028c-0.062-0.027-0.13-0.044-0.202-0.044H6.94c-2.004,0-2.533,1.741-2.533,2.662l0.002,37.049
		c-0.005,0.049-0.106,1.225,0.651,2.058c0.471,0.519,1.147,0.78,2.01,0.78h24.66c0.276,0,0.5-0.223,0.5-0.5
		c0-0.275-0.224-0.5-0.5-0.5H7.071c-0.566,0-0.993-0.15-1.267-0.449c-0.46-0.5-0.4-1.29-0.397-1.342V4.146
		c0-0.17,0.043-1.662,1.533-1.662h25.3v8.027c0,0.276,0.224,0.5,0.5,0.5h8.025V29.324z M33.24,3.212l6.798,6.798H33.24V3.212z"/>
	<path fill="#414042" d="M31.545,33.082H12.196c-0.276,0-0.5,0.223-0.5,0.5c0,0.275,0.224,0.5,0.5,0.5h19.349
		c0.276,0,0.5-0.225,0.5-0.5C32.045,33.305,31.821,33.082,31.545,33.082z"/>
	<path fill="#414042" d="M31.545,25.082H12.196c-0.276,0-0.5,0.223-0.5,0.5c0,0.275,0.224,0.5,0.5,0.5h19.349
		c0.276,0,0.5-0.225,0.5-0.5C32.045,25.305,31.821,25.082,31.545,25.082z"/>
	<path fill="#414042" d="M31.545,17.398H12.196c-0.276,0-0.5,0.224-0.5,0.5s0.224,0.5,0.5,0.5h19.349c0.276,0,0.5-0.224,0.5-0.5
		S31.821,17.398,31.545,17.398z"/>
	<path fill="#414042" d="M43.098,33.082h-7.068c-0.276,0-0.5,0.225-0.5,0.5v12.434c0,0.219,0.141,0.41,0.348,0.477
		c0.051,0.016,0.102,0.023,0.152,0.023c0.159,0,0.313-0.075,0.407-0.21l3.126-4.399l3.128,4.399c0.126,0.178,0.349,0.252,0.56,0.187
		c0.207-0.066,0.348-0.258,0.348-0.477V33.582C43.598,33.307,43.374,33.082,43.098,33.082z M42.598,44.449l-2.628-3.696
		c-0.094-0.132-0.245-0.21-0.407-0.21s-0.313,0.078-0.407,0.21l-2.626,3.696V34.082h6.068V44.449z"/>
</g>
</svg>
