<?xml version="1.0" encoding="utf-8"?>
<!-- Generator: Adobe Illustrator 16.0.0, SVG Export Plug-In . SVG Version: 6.00 Build 0)  -->
<!DOCTYPE svg PUBLIC "-//W3C//DTD SVG 1.1//EN" "http://www.w3.org/Graphics/SVG/1.1/DTD/svg11.dtd">
<svg version="1.1" id="Layer_1" xmlns="http://www.w3.org/2000/svg" xmlns:xlink="http://www.w3.org/1999/xlink" x="0px" y="0px"
	 width="48px" height="48px" viewBox="0 0 48 48" enable-background="new 0 0 48 48" xml:space="preserve">
<g>
	<path fill="#414042" d="M39.507,29.253c0,0.276,0.224,0.5,0.5,0.5s0.5-0.224,0.5-0.5V11.198c0,0,0,0,0-0.001s0,0,0-0.001
		c0-0.072-0.017-0.139-0.043-0.201c-0.002-0.003-0.005-0.006-0.007-0.009c-0.027-0.058-0.064-0.11-0.11-0.153
		c-0.002-0.002-0.003-0.005-0.005-0.007c-0.006-0.005-0.12-0.104-0.126-0.108l-8.271-8.27l-0.013,0.012
		c-0.019-0.041-0.046-0.077-0.075-0.111l0.004-0.005c-0.004-0.005-0.01-0.006-0.015-0.011c-0.034-0.038-0.076-0.066-0.121-0.092
		c-0.015-0.008-0.026-0.021-0.042-0.028c-0.062-0.028-0.13-0.044-0.202-0.044H5.68c-2.003,0-2.532,1.742-2.532,2.663L3.15,41.881
		c-0.005,0.049-0.107,1.225,0.65,2.059c0.471,0.518,1.147,0.78,2.01,0.78h22.712c0.276,0,0.5-0.224,0.5-0.5s-0.224-0.5-0.5-0.5
		H5.811c-0.566,0-0.992-0.151-1.266-0.449c-0.46-0.501-0.399-1.29-0.397-1.343V4.833c0-0.17,0.043-1.663,1.532-1.663h25.302v8.026
		c0,0.276,0.224,0.5,0.5,0.5h8.025V29.253z M31.981,3.898l6.798,6.798h-6.798V3.898z"/>
	<path fill="#414042" d="M30.286,33.768H10.936c-0.276,0-0.5,0.224-0.5,0.5s0.224,0.5,0.5,0.5h19.351c0.276,0,0.5-0.224,0.5-0.5
		S30.563,33.768,30.286,33.768z"/>
	<path fill="#414042" d="M30.286,25.768H10.936c-0.276,0-0.5,0.224-0.5,0.5s0.224,0.5,0.5,0.5h19.351c0.276,0,0.5-0.224,0.5-0.5
		S30.563,25.768,30.286,25.768z"/>
	<path fill="#414042" d="M30.286,18.084H10.936c-0.276,0-0.5,0.224-0.5,0.5s0.224,0.5,0.5,0.5h19.351c0.276,0,0.5-0.224,0.5-0.5
		S30.563,18.084,30.286,18.084z"/>
	<path fill="#414042" d="M44.679,33.244c-0.412-0.947-1.408-1.661-2.316-1.661c-0.461,0-0.875,0.177-1.198,0.513
		c-0.411,0.428-0.603,0.641-0.603,0.642L39.7,33.656c-0.001,0.001-0.002,0.001-0.003,0.002l-6.971,7.422
		c-0.054,0.058-0.087,0.125-0.109,0.196c-0.002,0.006-0.007,0.01-0.009,0.016l-1.061,3.907c-0.051,0.185,0.01,0.382,0.154,0.508
		c0.093,0.081,0.21,0.123,0.328,0.123c0.066,0,0.133-0.014,0.196-0.04l3.59-1.529c0.001,0,0.001,0,0.001-0.001h0.001
		c0.002-0.001,0.003-0.003,0.005-0.004c0.06-0.025,0.115-0.063,0.163-0.113l6.973-7.422l0,0c0-0.001,0.001-0.001,0.001-0.001
		l0.86-0.919c0,0,0.178-0.185,0.603-0.643C44.894,34.652,44.987,33.955,44.679,33.244z M32.783,44.466l0.572-2.108l1.366,1.283
		L32.783,44.466z M35.6,43.094l-1.803-1.692l6.286-6.694l1.805,1.693L35.6,43.094z M43.689,34.478
		c-0.413,0.446-0.587,0.627-0.595,0.635l-0.522,0.558l-1.803-1.692l0.531-0.566c0.004-0.005,0.187-0.21,0.584-0.622
		c0.498-0.514,1.535,0.068,1.877,0.854C43.91,33.986,43.887,34.267,43.689,34.478z"/>
</g>
</svg>
