<?xml version="1.0" encoding="utf-8"?>
<!-- Generator: Adobe Illustrator 16.0.0, SVG Export Plug-In . SVG Version: 6.00 Build 0)  -->
<!DOCTYPE svg PUBLIC "-//W3C//DTD SVG 1.1//EN" "http://www.w3.org/Graphics/SVG/1.1/DTD/svg11.dtd">
<svg version="1.1" id="Layer_1" xmlns="http://www.w3.org/2000/svg" xmlns:xlink="http://www.w3.org/1999/xlink" x="0px" y="0px"
	 width="48px" height="48px" viewBox="0 0 48 48" enable-background="new 0 0 48 48" xml:space="preserve">
<g>
	<path fill="#414042" d="M40.341,31.703c0,0.275,0.224,0.5,0.5,0.5s0.5-0.225,0.5-0.5V10.648c0,0,0,0,0-0.001s0,0,0-0.001
		c0-0.072-0.017-0.139-0.043-0.201c-0.002-0.003-0.005-0.006-0.007-0.01c-0.027-0.058-0.064-0.109-0.11-0.152
		c-0.002-0.002-0.003-0.005-0.005-0.007c-0.006-0.005-0.121-0.103-0.127-0.108l-8.27-8.27l-0.013,0.012
		C32.748,1.87,32.721,1.834,32.691,1.8l0.004-0.005c-0.004-0.004-0.01-0.006-0.015-0.011c-0.034-0.038-0.076-0.066-0.121-0.092
		c-0.015-0.008-0.026-0.021-0.042-0.028c-0.062-0.027-0.13-0.044-0.202-0.044H6.514c-2.003,0-2.532,1.742-2.532,2.663L3.984,41.33
		c-0.005,0.05-0.107,1.226,0.65,2.059c0.471,0.518,1.147,0.781,2.01,0.781h23.711c0.276,0,0.5-0.225,0.5-0.5
		c0-0.277-0.224-0.5-0.5-0.5H6.645c-0.566,0-0.992-0.151-1.266-0.449c-0.46-0.502-0.399-1.291-0.397-1.344V4.282
		c0-0.17,0.043-1.663,1.532-1.663h25.301v8.026c0,0.276,0.224,0.5,0.5,0.5h8.025V31.703z M32.815,3.348l6.797,6.798h-6.797V3.348z"
		/>
	<path fill="#414042" d="M31.12,33.217H11.77c-0.276,0-0.5,0.225-0.5,0.5c0,0.277,0.224,0.5,0.5,0.5h19.35
		c0.276,0,0.5-0.223,0.5-0.5C31.62,33.441,31.396,33.217,31.12,33.217z"/>
	<path fill="#414042" d="M31.12,25.217H11.77c-0.276,0-0.5,0.225-0.5,0.5c0,0.277,0.224,0.5,0.5,0.5h19.35
		c0.276,0,0.5-0.223,0.5-0.5C31.62,25.441,31.396,25.217,31.12,25.217z"/>
	<path fill="#414042" d="M31.12,17.534H11.77c-0.276,0-0.5,0.224-0.5,0.5s0.224,0.5,0.5,0.5h19.35c0.276,0,0.5-0.224,0.5-0.5
		S31.396,17.534,31.12,17.534z"/>
	<path fill="#414042" d="M43.522,40.455c-0.276,0-0.5,0.223-0.5,0.5c0,2.439-1.985,4.426-4.426,4.426s-4.426-1.986-4.426-4.426
		c0-2.35,1.844-4.257,4.157-4.398l-1.039,1.823c-0.137,0.24-0.053,0.546,0.188,0.683c0.078,0.044,0.163,0.064,0.247,0.064
		c0.174,0,0.343-0.09,0.435-0.252l1.517-2.664c0.065-0.115,0.083-0.252,0.048-0.379c-0.035-0.129-0.12-0.237-0.235-0.303
		l-2.665-1.516c-0.24-0.139-0.546-0.054-0.682,0.188c-0.137,0.239-0.053,0.545,0.188,0.682l1.298,0.738
		c-2.529,0.459-4.455,2.674-4.455,5.334c0,2.991,2.434,5.426,5.426,5.426s5.426-2.435,5.426-5.426
		C44.022,40.678,43.799,40.455,43.522,40.455z"/>
</g>
</svg>
