<?xml version="1.0" encoding="utf-8"?>
<!-- Generator: Adobe Illustrator 16.0.0, SVG Export Plug-In . SVG Version: 6.00 Build 0)  -->
<!DOCTYPE svg PUBLIC "-//W3C//DTD SVG 1.1//EN" "http://www.w3.org/Graphics/SVG/1.1/DTD/svg11.dtd">
<svg version="1.1" id="Layer_1" xmlns="http://www.w3.org/2000/svg" xmlns:xlink="http://www.w3.org/1999/xlink" x="0px" y="0px"
	 width="48px" height="48px" viewBox="0 0 48 48" enable-background="new 0 0 48 48" xml:space="preserve">
<g>
	<path fill="#414042" d="M28.417,43.098H6.707c-0.566,0-0.992-0.15-1.266-0.449c-0.46-0.501-0.399-1.29-0.397-1.343V4.21
		c0-0.17,0.043-1.663,1.532-1.663h25.3v8.026c0,0.276,0.224,0.5,0.5,0.5h8.027v19.557c0,0.276,0.224,0.5,0.5,0.5s0.5-0.224,0.5-0.5
		V10.576c0,0,0,0,0-0.001s0,0,0-0.001c0-0.072-0.017-0.139-0.043-0.201c-0.002-0.003-0.005-0.006-0.007-0.009
		c-0.027-0.058-0.064-0.11-0.11-0.153c-0.002-0.002-0.003-0.005-0.005-0.007c-0.006-0.005-0.122-0.103-0.128-0.108l-8.265-8.265
		l-0.014,0.014c-0.02-0.044-0.049-0.082-0.079-0.117l0.003-0.006c-0.004-0.005-0.01-0.006-0.015-0.011
		c-0.034-0.038-0.076-0.066-0.121-0.092c-0.015-0.008-0.026-0.021-0.042-0.028c-0.062-0.028-0.13-0.044-0.202-0.044h-25.8
		c-2.003,0-2.532,1.742-2.532,2.663l0.002,37.047c-0.005,0.051-0.107,1.227,0.65,2.059c0.471,0.519,1.147,0.781,2.01,0.781h21.71
		c0.276,0,0.5-0.224,0.5-0.5S28.693,43.098,28.417,43.098z M32.876,3.276l6.798,6.798h-6.798V3.276z"/>
	<path fill="#414042" d="M31.681,33.646c0-0.276-0.224-0.5-0.5-0.5H11.832c-0.276,0-0.5,0.224-0.5,0.5s0.224,0.5,0.5,0.5h19.349
		C31.457,34.146,31.681,33.922,31.681,33.646z"/>
	<path fill="#414042" d="M31.181,25.146H11.832c-0.276,0-0.5,0.224-0.5,0.5s0.224,0.5,0.5,0.5h19.349c0.276,0,0.5-0.224,0.5-0.5
		S31.457,25.146,31.181,25.146z"/>
	<path fill="#414042" d="M31.181,17.462H11.832c-0.276,0-0.5,0.224-0.5,0.5s0.224,0.5,0.5,0.5h19.349c0.276,0,0.5-0.224,0.5-0.5
		S31.457,17.462,31.181,17.462z"/>
	<path fill="#414042" d="M43.502,34.029l-8.816-0.715c-0.129-0.008-0.276,0.037-0.379,0.131c-0.103,0.096-0.161,0.229-0.161,0.368
		v4.284v4.056c-0.272-0.149-0.58-0.242-0.912-0.242c-1.056,0-1.914,0.858-1.914,1.913s0.858,1.914,1.914,1.914
		c1.055,0,1.912-0.859,1.912-1.914c0-0.058-0.012-0.111-0.017-0.168c0.005-0.028,0.017-0.054,0.017-0.084V38.64l7.816,0.634v3.595
		c-0.272-0.15-0.581-0.243-0.914-0.243c-1.056,0-1.914,0.859-1.914,1.914s0.858,1.913,1.914,1.913s1.914-0.858,1.914-1.913
		c0-0.058-0.012-0.111-0.017-0.168c0.005-0.028,0.017-0.054,0.017-0.084v-5.476v-4.284C43.962,34.267,43.762,34.05,43.502,34.029z
		 M33.233,44.738c-0.504,0-0.914-0.41-0.914-0.914s0.41-0.913,0.914-0.913c0.503,0,0.912,0.409,0.912,0.913
		S33.736,44.738,33.233,44.738z M35.146,34.355l7.816,0.633v3.281l-7.816-0.633V34.355z M42.048,45.452
		c-0.504,0-0.914-0.409-0.914-0.913s0.41-0.914,0.914-0.914s0.914,0.41,0.914,0.914S42.552,45.452,42.048,45.452z"/>
</g>
</svg>
