<?xml version="1.0" encoding="utf-8"?>
<!-- Generator: Adobe Illustrator 16.0.0, SVG Export Plug-In . SVG Version: 6.00 Build 0)  -->
<!DOCTYPE svg PUBLIC "-//W3C//DTD SVG 1.1//EN" "http://www.w3.org/Graphics/SVG/1.1/DTD/svg11.dtd">
<svg version="1.1" id="Layer_1" xmlns="http://www.w3.org/2000/svg" xmlns:xlink="http://www.w3.org/1999/xlink" x="0px" y="0px"
	 width="48px" height="48px" viewBox="0 0 48 48" enable-background="new 0 0 48 48" xml:space="preserve">
<g>
	<path fill="#414042" d="M30.461,34.322h-9.35c-0.276,0-0.5,0.225-0.5,0.5c0,0.277,0.224,0.5,0.5,0.5h9.35
		c0.276,0,0.5-0.223,0.5-0.5C30.961,34.547,30.737,34.322,30.461,34.322z"/>
	<path fill="#414042" d="M30.461,26.322h-9.35c-0.276,0-0.5,0.225-0.5,0.5c0,0.277,0.224,0.5,0.5,0.5h9.35
		c0.276,0,0.5-0.223,0.5-0.5C30.961,26.547,30.737,26.322,30.461,26.322z"/>
	<path fill="#414042" d="M30.461,18.639h-9.35c-0.276,0-0.5,0.224-0.5,0.5s0.224,0.5,0.5,0.5h9.35c0.276,0,0.5-0.224,0.5-0.5
		S30.737,18.639,30.461,18.639z"/>
	<path fill="#414042" d="M42.682,11.751c0-0.072-0.016-0.139-0.043-0.201c-0.002-0.003-0.005-0.006-0.007-0.01
		c-0.027-0.058-0.064-0.109-0.11-0.152c-0.002-0.002-0.003-0.005-0.005-0.007c-0.006-0.005-0.12-0.104-0.126-0.108l-8.271-8.27
		l-0.013,0.012c-0.019-0.041-0.046-0.077-0.074-0.111L34.036,2.9c-0.004-0.004-0.01-0.006-0.015-0.011
		c-0.034-0.038-0.076-0.066-0.121-0.092c-0.015-0.008-0.026-0.021-0.042-0.028c-0.062-0.027-0.13-0.044-0.202-0.044h-25.8
		c-2.004,0-2.533,1.742-2.533,2.663l0.002,37.048c-0.005,0.05-0.106,1.226,0.651,2.059c0.471,0.518,1.147,0.781,2.01,0.781h31.642
		c0.005,0,0.011,0,0.016-0.001c1.051-0.034,3.037-0.706,3.037-3.007V11.753C42.682,11.753,42.682,11.753,42.682,11.751
		C42.682,11.752,42.682,11.752,42.682,11.751z M34.156,4.454l6.798,6.798h-6.798V4.454z M12.313,9.202V3.814h2.625v5.388H12.313z
		 M6.72,43.826c-0.46-0.502-0.4-1.291-0.397-1.344V5.39c0.001-0.17,0.058-1.665,1.533-1.665h3.457v5.977c0,0.276,0.224,0.5,0.5,0.5
		h1.313l-0.001,2.794h-1.985c-0.276,0-0.5,0.224-0.5,0.5s0.224,0.5,0.5,0.5h1.985l-0.001,2.43h-1.984c-0.276,0-0.5,0.224-0.5,0.5
		s0.224,0.5,0.5,0.5h1.983l-0.001,2.431h-1.982c-0.276,0-0.5,0.224-0.5,0.5s0.224,0.5,0.5,0.5h1.982l-0.001,2.43h-1.981
		c-0.276,0-0.5,0.224-0.5,0.5s0.224,0.5,0.5,0.5h1.98l-0.001,2.429h-1.979c-0.276,0-0.5,0.225-0.5,0.5c0,0.277,0.224,0.5,0.5,0.5
		h1.979l-0.001,2.43h-1.979c-0.276,0-0.5,0.225-0.5,0.5c0,0.277,0.224,0.5,0.5,0.5h1.978l-0.001,2.43h-2.004
		c-0.276,0-0.5,0.225-0.5,0.5c0,0.277,0.224,0.5,0.5,0.5h2.004l-0.001,2.432h-1.976c-0.276,0-0.5,0.223-0.5,0.5
		c0,0.275,0.224,0.5,0.5,0.5h1.975l-0.001,2.43h-2.001c-0.276,0-0.5,0.223-0.5,0.5c0,0.275,0.224,0.5,0.5,0.5h2.001l-0.001,2.84
		H7.987C7.42,44.275,6.994,44.124,6.72,43.826z M39.618,44.275H14.112l0.001-2.84h1.999c0.276,0,0.5-0.225,0.5-0.5
		c0-0.277-0.224-0.5-0.5-0.5h-1.999l0.001-2.43h2.025c0.276,0,0.5-0.225,0.5-0.5c0-0.277-0.224-0.5-0.5-0.5h-2.024l0.001-2.432
		h1.996c0.276,0,0.5-0.223,0.5-0.5c0-0.275-0.224-0.5-0.5-0.5h-1.996l0.001-2.43h2.022c0.276,0,0.5-0.223,0.5-0.5
		c0-0.275-0.224-0.5-0.5-0.5h-2.021l0.001-2.43h2.021c0.276,0,0.5-0.223,0.5-0.5c0-0.275-0.224-0.5-0.5-0.5h-2.021l0.001-2.429h2.02
		c0.276,0,0.5-0.224,0.5-0.5s-0.224-0.5-0.5-0.5H14.12l0.001-2.43h2.018c0.276,0,0.5-0.224,0.5-0.5s-0.224-0.5-0.5-0.5h-2.018
		l0.001-2.431h2.017c0.276,0,0.5-0.224,0.5-0.5s-0.224-0.5-0.5-0.5h-2.016l0.001-2.43h2.015c0.276,0,0.5-0.224,0.5-0.5
		s-0.224-0.5-0.5-0.5h-2.015l0.001-2.794h1.313c0.276,0,0.5-0.224,0.5-0.5V3.725h17.218v8.026c0,0.276,0.224,0.5,0.5,0.5h8.025
		v30.016C41.682,44.118,39.863,44.264,39.618,44.275z"/>
</g>
</svg>
