<?xml version="1.0" encoding="utf-8"?>
<!-- Generator: Adobe Illustrator 16.0.0, SVG Export Plug-In . SVG Version: 6.00 Build 0)  -->
<!DOCTYPE svg PUBLIC "-//W3C//DTD SVG 1.1//EN" "http://www.w3.org/Graphics/SVG/1.1/DTD/svg11.dtd">
<svg version="1.1" id="Layer_1" xmlns="http://www.w3.org/2000/svg" xmlns:xlink="http://www.w3.org/1999/xlink" x="0px" y="0px"
	 width="48px" height="48px" viewBox="0 0 48 48" enable-background="new 0 0 48 48" xml:space="preserve">
<g>
	<path fill="#414042" d="M29.047,43.401H7.335c-0.566,0-0.992-0.151-1.266-0.449c-0.46-0.501-0.399-1.29-0.397-1.343V4.514
		c0-0.17,0.043-1.663,1.532-1.663h25.301v8.026c0,0.276,0.224,0.5,0.5,0.5h8.025v20.557c0,0.276,0.224,0.5,0.5,0.5
		s0.5-0.224,0.5-0.5V10.88c0,0,0,0,0-0.001s0,0,0-0.001c0-0.072-0.016-0.139-0.043-0.201c-0.002-0.003-0.005-0.006-0.007-0.009
		c-0.027-0.058-0.064-0.11-0.11-0.153c-0.002-0.002-0.003-0.005-0.005-0.007c-0.006-0.005-0.12-0.104-0.126-0.108l-8.271-8.27
		l-0.013,0.012c-0.019-0.041-0.046-0.077-0.074-0.111l0.003-0.005c-0.004-0.005-0.01-0.006-0.015-0.011
		c-0.034-0.038-0.076-0.066-0.121-0.092c-0.015-0.008-0.026-0.021-0.042-0.028c-0.062-0.028-0.13-0.044-0.202-0.044H7.205
		c-2.003,0-2.532,1.742-2.532,2.663l0.002,37.048c-0.005,0.049-0.107,1.225,0.65,2.059c0.471,0.518,1.147,0.78,2.01,0.78h21.711
		c0.276,0,0.5-0.224,0.5-0.5S29.323,43.401,29.047,43.401z M33.506,3.58l6.798,6.798h-6.798V3.58z"/>
	<path fill="#414042" d="M29.811,33.449H12.46c-0.276,0-0.5,0.224-0.5,0.5s0.224,0.5,0.5,0.5h17.35c0.276,0,0.5-0.224,0.5-0.5
		S30.087,33.449,29.811,33.449z"/>
	<path fill="#414042" d="M32.311,25.949c0-0.276-0.224-0.5-0.5-0.5H12.46c-0.276,0-0.5,0.224-0.5,0.5s0.224,0.5,0.5,0.5h19.35
		C32.087,26.449,32.311,26.226,32.311,25.949z"/>
	<path fill="#414042" d="M12.46,17.766c-0.276,0-0.5,0.224-0.5,0.5s0.224,0.5,0.5,0.5h19.35c0.276,0,0.5-0.224,0.5-0.5
		s-0.224-0.5-0.5-0.5H12.46z"/>
	<path fill="#414042" d="M37.631,34.746c-3.145,0-5.703,2.559-5.703,5.702s2.559,5.7,5.703,5.7c3.144,0,5.701-2.557,5.701-5.7
		S40.774,34.746,37.631,34.746z M37.631,35.746c1.115,0,2.127,0.406,2.934,1.058l-6.577,6.58c-0.652-0.808-1.06-1.819-1.06-2.936
		C32.928,37.855,35.037,35.746,37.631,35.746z M37.631,45.148c-1.116,0-2.129-0.406-2.937-1.059l6.577-6.579
		c0.653,0.808,1.061,1.82,1.061,2.938C42.332,43.04,40.223,45.148,37.631,45.148z"/>
</g>
</svg>
