<?xml version="1.0" encoding="utf-8"?>
<!-- Generator: Adobe Illustrator 16.0.0, SVG Export Plug-In . SVG Version: 6.00 Build 0)  -->
<!DOCTYPE svg PUBLIC "-//W3C//DTD SVG 1.1//EN" "http://www.w3.org/Graphics/SVG/1.1/DTD/svg11.dtd">
<svg version="1.1" id="Layer_1" xmlns="http://www.w3.org/2000/svg" xmlns:xlink="http://www.w3.org/1999/xlink" x="0px" y="0px"
	 width="48px" height="48px" viewBox="0 0 48 48" enable-background="new 0 0 48 48" xml:space="preserve">
<g>
	<path fill="#414042" d="M23.822,1.403c-12.339,0-22.377,10.038-22.377,22.377c0,12.336,10.038,22.373,22.377,22.373
		c12.336,0,22.374-10.037,22.374-22.373C46.195,11.441,36.158,1.403,23.822,1.403z M23.822,45.153
		c-11.787,0-21.377-9.588-21.377-21.373c0-11.787,9.59-21.377,21.377-21.377c11.786,0,21.374,9.59,21.374,21.377
		C45.195,35.565,35.607,45.153,23.822,45.153z"/>
	<path fill="#414042" d="M34.369,28.88c-0.243-0.128-0.547-0.034-0.675,0.21c-0.104,0.196-2.57,4.72-9.875,4.884
		c-7.304-0.164-9.771-4.688-9.875-4.884c-0.128-0.244-0.432-0.338-0.674-0.21c-0.244,0.127-0.339,0.428-0.212,0.672
		c0.111,0.215,2.728,5.078,10.35,5.408l0.822,0.018V34.96c7.623-0.33,10.239-5.193,10.35-5.408
		C34.708,29.308,34.613,29.007,34.369,28.88z"/>
	<path fill="#414042" d="M29.82,23.495c2.146,0,3.893-2.406,3.893-5.364s-1.746-5.365-3.893-5.365s-3.893,2.407-3.893,5.365
		S27.674,23.495,29.82,23.495z M29.82,13.766c1.595,0,2.893,1.958,2.893,4.365c0,1.27-0.367,2.404-0.942,3.202
		c0.069-0.243,0.115-0.499,0.115-0.77c0-1.344-0.925-2.433-2.065-2.433c-1.142,0-2.066,1.089-2.066,2.433
		c0,0.271,0.047,0.526,0.115,0.769c-0.574-0.798-0.941-1.932-0.941-3.202C26.928,15.724,28.226,13.766,29.82,13.766z"/>
	<path fill="#414042" d="M17.82,23.495c2.146,0,3.892-2.406,3.892-5.364s-1.746-5.365-3.892-5.365c-2.146,0-3.893,2.407-3.893,5.365
		S15.674,23.495,17.82,23.495z M17.82,13.766c1.595,0,2.892,1.958,2.892,4.365c0,1.27-0.367,2.404-0.942,3.202
		c0.069-0.243,0.115-0.499,0.115-0.77c0-1.344-0.924-2.433-2.065-2.433c-1.142,0-2.066,1.089-2.066,2.433
		c0,0.271,0.046,0.526,0.115,0.769c-0.575-0.798-0.942-1.932-0.942-3.202C14.928,15.724,16.226,13.766,17.82,13.766z"/>
</g>
</svg>
