<?xml version="1.0" encoding="utf-8"?>
<!-- Generator: Adobe Illustrator 16.0.0, SVG Export Plug-In . SVG Version: 6.00 Build 0)  -->
<!DOCTYPE svg PUBLIC "-//W3C//DTD SVG 1.1//EN" "http://www.w3.org/Graphics/SVG/1.1/DTD/svg11.dtd">
<svg version="1.1" id="Layer_1" xmlns="http://www.w3.org/2000/svg" xmlns:xlink="http://www.w3.org/1999/xlink" x="0px" y="0px"
	 width="48px" height="48px" viewBox="0 0 48 48" enable-background="new 0 0 48 48" xml:space="preserve">
<g>
	<path fill="#414042" d="M24.006,1.403c-12.339,0-22.377,10.038-22.377,22.377c0,12.336,10.038,22.373,22.377,22.373
		c12.337,0,22.373-10.037,22.373-22.373C46.379,11.441,36.344,1.403,24.006,1.403z M24.006,45.153
		c-11.787,0-21.377-9.588-21.377-21.373c0-11.787,9.59-21.377,21.377-21.377c11.785,0,21.373,9.59,21.373,21.377
		C45.379,35.565,35.791,45.153,24.006,45.153z"/>
	<path fill="#414042" d="M30.004,13.698c-2.146,0-3.893,2.406-3.893,5.365c0,2.958,1.746,5.365,3.893,5.365s3.893-2.407,3.893-5.365
		C33.896,16.104,32.15,13.698,30.004,13.698z M31.6,22.698c0.154-0.34,0.25-0.722,0.25-1.135c0-1.344-0.926-2.433-2.066-2.433
		s-2.066,1.089-2.066,2.433c0,0.058,0.012,0.111,0.015,0.167c-0.382-0.74-0.62-1.658-0.62-2.667c0-2.407,1.299-4.365,2.893-4.365
		c1.596,0,2.893,1.958,2.893,4.365C32.896,20.58,32.38,21.916,31.6,22.698z"/>
	<path fill="#414042" d="M18.004,24.429c2.146,0,3.892-2.407,3.892-5.365c0-2.959-1.746-5.365-3.892-5.365
		c-2.146,0-3.893,2.406-3.893,5.365C14.112,22.021,15.858,24.429,18.004,24.429z M18.004,14.698c1.595,0,2.892,1.958,2.892,4.365
		c0,1.516-0.516,2.853-1.296,3.635c0.154-0.34,0.249-0.722,0.249-1.135c0-1.344-0.925-2.433-2.066-2.433
		c-1.141,0-2.065,1.089-2.065,2.433c0,0.058,0.011,0.111,0.014,0.167c-0.382-0.74-0.62-1.658-0.62-2.667
		C15.112,16.656,16.41,14.698,18.004,14.698z"/>
	<path fill="#414042" d="M33.645,13.721c-0.252-0.078-0.404-0.272-0.674-0.64c-0.336-0.457-0.797-1.082-1.766-1.601
		c-1.287-0.689-2.078-0.955-2.379-1.042l-1.467-1.315c-0.205-0.186-0.521-0.168-0.705,0.038c-0.186,0.205-0.168,0.521,0.037,0.706
		l1.557,1.396c0.063,0.057,0.143,0.096,0.225,0.115c0.008,0.002,0.758,0.18,2.262,0.984c0.768,0.412,1.119,0.89,1.43,1.312
		c0.299,0.404,0.605,0.822,1.182,1.002c0.051,0.015,0.1,0.022,0.148,0.022c0.215,0,0.412-0.137,0.479-0.352
		C34.055,14.083,33.908,13.804,33.645,13.721z"/>
	<path fill="#414042" d="M14.717,14.698c0.05,0,0.1-0.008,0.149-0.022c0.575-0.18,0.883-0.598,1.18-1.001
		c0.311-0.422,0.664-0.9,1.432-1.313c1.504-0.805,2.254-0.982,2.258-0.984c0.085-0.018,0.163-0.058,0.227-0.115l1.557-1.395
		c0.207-0.186,0.224-0.501,0.039-0.707c-0.184-0.205-0.501-0.223-0.705-0.039l-1.469,1.316c-0.301,0.087-1.09,0.353-2.377,1.042
		c-0.969,0.519-1.43,1.144-1.766,1.601c-0.27,0.367-0.422,0.562-0.674,0.641c-0.264,0.082-0.41,0.361-0.328,0.625
		C14.306,14.562,14.504,14.698,14.717,14.698z"/>
	<path fill="#414042" d="M33.002,31.802c-0.27-0.061-0.537,0.107-0.6,0.377c-0.221,0.975-0.682,1.648-1.373,2.007
		c-1.514,0.784-3.693-0.099-3.736-0.116c-1.141-0.412-4.177-1.843-4.225-1.865c-6.141-2.617-9.095,2.025-9.124,2.073
		c-0.145,0.234-0.071,0.541,0.163,0.687c0.233,0.145,0.542,0.072,0.688-0.16c0.102-0.162,2.547-3.953,7.864-1.688
		c0.126,0.061,3.111,1.466,4.273,1.885c0.07,0.03,1.244,0.509,2.592,0.509c0.648,0,1.336-0.11,1.963-0.435
		c0.967-0.498,1.604-1.398,1.893-2.676C33.439,32.131,33.271,31.862,33.002,31.802z"/>
</g>
</svg>
