<?xml version="1.0" encoding="utf-8"?>
<!-- Generator: Adobe Illustrator 16.0.0, SVG Export Plug-In . SVG Version: 6.00 Build 0)  -->
<!DOCTYPE svg PUBLIC "-//W3C//DTD SVG 1.1//EN" "http://www.w3.org/Graphics/SVG/1.1/DTD/svg11.dtd">
<svg version="1.1" id="Layer_1" xmlns="http://www.w3.org/2000/svg" xmlns:xlink="http://www.w3.org/1999/xlink" x="0px" y="0px"
	 width="48px" height="48px" viewBox="0 0 48 48" enable-background="new 0 0 48 48" xml:space="preserve">
<g>
	<path fill="#414042" d="M24.191,1.403c-12.338,0-22.377,10.038-22.377,22.377c0,12.336,10.039,22.373,22.377,22.373
		c12.338,0,22.374-10.037,22.374-22.373C46.564,11.441,36.529,1.403,24.191,1.403z M24.191,45.153
		c-11.787,0-21.377-9.588-21.377-21.373c0-11.787,9.59-21.377,21.377-21.377c11.786,0,21.374,9.59,21.374,21.377
		C45.564,35.565,35.977,45.153,24.191,45.153z"/>
	<path fill="#414042" d="M39.166,11.813c-1.359-2.152-2.027-3.899-2.035-3.917l-0.469-1.234l-0.467,1.234
		c-0.006,0.018-0.674,1.766-2.031,3.917c-1.07,1.694-1.229,3.496-0.43,4.942c0.631,1.146,1.754,1.857,2.93,1.857
		s2.299-0.712,2.932-1.857C40.393,15.308,40.236,13.507,39.166,11.813z M38.719,16.272c-0.447,0.814-1.256,1.34-2.055,1.34
		c-0.801,0-1.605-0.525-2.055-1.34c-0.615-1.117-0.471-2.549,0.4-3.926c0.758-1.203,1.307-2.272,1.654-3.018
		c0.35,0.745,0.896,1.814,1.656,3.018C39.189,13.724,39.336,15.153,38.719,16.272z"/>
	<path fill="#414042" d="M30.189,14.965c-2.146,0-3.893,2.407-3.893,5.365s1.746,5.364,3.893,5.364s3.893-2.406,3.893-5.364
		S32.336,14.965,30.189,14.965z M31.688,24.045c0.104-0.194,0.168-0.408,0.168-0.637c0-0.819-0.744-1.48-1.666-1.48
		c-0.918,0-1.664,0.661-1.664,1.48c0,0.23,0.064,0.445,0.17,0.64c-0.835-0.767-1.398-2.139-1.398-3.718
		c0-2.407,1.299-4.365,2.893-4.365c1.596,0,2.893,1.958,2.893,4.365C33.082,21.907,32.52,23.278,31.688,24.045z"/>
	<path fill="#414042" d="M22.082,20.33c0-2.958-1.746-5.365-3.893-5.365s-3.893,2.407-3.893,5.365s1.746,5.364,3.893,5.364
		S22.082,23.288,22.082,20.33z M15.296,20.33c0-2.407,1.299-4.365,2.893-4.365c1.595,0,2.893,1.958,2.893,4.365
		c0,1.577-0.562,2.948-1.394,3.715c0.104-0.193,0.167-0.408,0.167-0.637c0-0.819-0.744-1.48-1.666-1.48
		c-0.918,0-1.664,0.661-1.664,1.48c0,0.23,0.064,0.445,0.17,0.64C15.86,23.281,15.296,21.909,15.296,20.33z"/>
	<path fill="#414042" d="M24.541,30.715c-0.012,0-0.023,0-0.035,0c-3.596,0-6.232,2.781-6.344,2.899
		c-0.188,0.203-0.178,0.518,0.024,0.707c0.201,0.188,0.518,0.179,0.706-0.023c0.025-0.027,2.483-2.641,5.65-2.583
		c1.872,0.012,3.647,0.921,5.278,2.704c0.098,0.107,0.232,0.162,0.369,0.162c0.121,0,0.24-0.043,0.338-0.131
		c0.203-0.187,0.217-0.503,0.031-0.707C28.73,31.745,26.705,30.726,24.541,30.715z"/>
</g>
</svg>
