<?xml version="1.0" encoding="utf-8"?>
<!-- Generator: Adobe Illustrator 16.0.0, SVG Export Plug-In . SVG Version: 6.00 Build 0)  -->
<!DOCTYPE svg PUBLIC "-//W3C//DTD SVG 1.1//EN" "http://www.w3.org/Graphics/SVG/1.1/DTD/svg11.dtd">
<svg version="1.1" id="Layer_1" xmlns="http://www.w3.org/2000/svg" xmlns:xlink="http://www.w3.org/1999/xlink" x="0px" y="0px"
	 width="48px" height="48px" viewBox="0 0 48 48" enable-background="new 0 0 48 48" xml:space="preserve">
<g>
	<path fill="#414042" d="M23.375,1.403c-12.34,0-22.377,10.038-22.377,22.377c0,12.336,10.037,22.373,22.377,22.373
		c12.335,0,22.373-10.037,22.373-22.373C45.748,11.441,35.711,1.403,23.375,1.403z M23.375,45.153
		c-11.787,0-21.377-9.588-21.377-21.373c0-11.787,9.59-21.377,21.377-21.377c11.785,0,21.373,9.59,21.373,21.377
		C44.748,35.565,35.16,45.153,23.375,45.153z"/>
	<path fill="#414042" d="M37.309,15.454c-4.67-1.335-9.469-2.012-14.263-2.012c-8.172,0-13.426,1.942-13.645,2.025
		c-0.074,0.027-0.141,0.072-0.195,0.131c-0.088,0.099-0.873,0.988-0.801,1.9c0.033,0.395,0.219,0.74,0.541,0.996
		c0.076,0.063,0.17,0.1,0.268,0.107c0.006,0.001,0.492,0.066,0.502,0.24c-0.004,0.094-0.105,2.307,1.369,3.863
		c0.912,0.961,2.207,1.449,3.879,1.449c0.002,0,0.004,0,0.006,0c0.055-0.003,5.475-0.41,7.209-6.348
		c0.02-0.055,0.219-0.543,1.209-0.543c0.963,0,1.164,0.488,1.18,0.533c1.736,5.947,7.158,6.354,7.212,6.357
		c0.01,0.001,0.02,0.002,0.031,0.002c1.643,0,2.938-0.488,3.852-1.451c1.475-1.556,1.375-3.77,1.371-3.814
		c0.008-0.221,0.496-0.289,0.498-0.289c0.098-0.008,0.191-0.045,0.27-0.107c0.32-0.257,0.508-0.602,0.539-0.996
		c0.072-0.911-0.709-1.801-0.799-1.899C37.479,15.53,37.398,15.48,37.309,15.454z M37.258,17.634
		c-0.488,0.099-1.191,0.439-1.225,1.263c0.002,0.019,0.086,1.874-1.098,3.122c-0.713,0.752-1.76,1.135-3.107,1.139
		c-0.344-0.027-4.795-0.476-6.301-5.637c-0.016-0.052-0.381-1.256-2.167-1.256c-1.762,0-2.125,1.205-2.139,1.253
		c-1.535,5.259-6.121,5.627-6.283,5.64c-1.355,0-2.404-0.382-3.121-1.135c-1.18-1.237-1.104-3.107-1.104-3.176
		c-0.035-0.779-0.736-1.115-1.227-1.213c-0.051-0.063-0.078-0.131-0.084-0.213c-0.029-0.353,0.285-0.828,0.469-1.06
		c0.824-0.286,5.859-1.919,13.174-1.919c4.65,0,9.306,0.65,13.841,1.932c0.184,0.236,0.484,0.701,0.455,1.047
		C37.336,17.503,37.309,17.571,37.258,17.634z"/>
	<path fill="#414042" d="M33.797,28.88c-0.248-0.129-0.545-0.033-0.674,0.21c-0.105,0.2-2.662,4.888-10.287,4.888
		c-0.277,0-0.5,0.225-0.5,0.5c0,0.277,0.223,0.5,0.5,0.5c8.259,0,11.058-5.203,11.173-5.426
		C34.137,29.308,34.041,29.007,33.797,28.88z"/>
</g>
</svg>
