<?xml version="1.0" encoding="utf-8"?>
<!-- Generator: Adobe Illustrator 16.0.0, SVG Export Plug-In . SVG Version: 6.00 Build 0)  -->
<!DOCTYPE svg PUBLIC "-//W3C//DTD SVG 1.1//EN" "http://www.w3.org/Graphics/SVG/1.1/DTD/svg11.dtd">
<svg version="1.1" id="Layer_1" xmlns="http://www.w3.org/2000/svg" xmlns:xlink="http://www.w3.org/1999/xlink" x="0px" y="0px"
	 width="48px" height="48px" viewBox="0 0 48 48" enable-background="new 0 0 48 48" xml:space="preserve">
<g>
	<path fill="#414042" d="M23.56,1.403C11.222,1.403,1.183,11.44,1.183,23.78c0,12.336,10.039,22.373,22.377,22.373
		c12.338,0,22.374-10.037,22.374-22.373C45.934,11.44,35.898,1.403,23.56,1.403z M23.56,45.153
		c-11.787,0-21.377-9.588-21.377-21.373c0-11.787,9.59-21.377,21.377-21.377c11.786,0,21.374,9.59,21.374,21.377
		C44.934,35.565,35.346,45.153,23.56,45.153z"/>
	<path fill="#414042" d="M23.558,27.267c-3.232,0-5.863,3.086-5.863,6.878c0,0.276,0.225,0.5,0.5,0.5c0.277,0,0.5-0.224,0.5-0.5
		c0-3.241,2.182-5.878,4.863-5.878c2.682,0,4.864,2.637,4.864,5.878c0,0.276,0.225,0.5,0.5,0.5c0.277,0,0.5-0.224,0.5-0.5
		C29.422,30.353,26.793,27.267,23.558,27.267z"/>
	<path fill="#414042" d="M29.559,11.948c-2.146,0-3.893,2.406-3.893,5.365c0,2.958,1.746,5.365,3.893,5.365s3.893-2.407,3.893-5.365
		C33.451,14.354,31.705,11.948,29.559,11.948z M29.559,21.679c-1.594,0-2.893-1.959-2.893-4.365c0-2.407,1.299-4.365,2.893-4.365
		c1.596,0,2.893,1.958,2.893,4.365C32.451,19.72,31.154,21.679,29.559,21.679z"/>
	<path fill="#414042" d="M21.451,17.313c0-2.959-1.746-5.365-3.893-5.365s-3.893,2.406-3.893,5.365c0,2.958,1.746,5.365,3.893,5.365
		S21.451,20.271,21.451,17.313z M17.558,21.679c-1.594,0-2.893-1.959-2.893-4.365c0-2.407,1.299-4.365,2.893-4.365
		c1.596,0,2.893,1.958,2.893,4.365C20.451,19.72,19.154,21.679,17.558,21.679z"/>
	<path fill="#414042" d="M27.699,7.967c0.064,0.057,0.143,0.097,0.225,0.116c0.008,0.002,0.758,0.179,2.262,0.984
		c0.768,0.41,1.121,0.889,1.432,1.311c0.297,0.404,0.605,0.822,1.182,1.002c0.049,0.016,0.1,0.023,0.148,0.023
		c0.213,0,0.412-0.138,0.479-0.352c0.082-0.264-0.066-0.545-0.33-0.627c-0.252-0.078-0.404-0.273-0.674-0.64
		c-0.336-0.456-0.797-1.082-1.764-1.601c-1.287-0.689-2.078-0.955-2.379-1.042l-1.467-1.315c-0.205-0.184-0.521-0.168-0.705,0.039
		c-0.186,0.205-0.168,0.521,0.037,0.705L27.699,7.967z"/>
	<path fill="#414042" d="M14.169,11.403c0.049,0,0.1-0.008,0.15-0.023c0.574-0.18,0.881-0.597,1.18-1
		c0.311-0.423,0.662-0.901,1.432-1.313c1.502-0.806,2.252-0.982,2.258-0.984c0.084-0.018,0.162-0.059,0.227-0.115l1.557-1.396
		c0.205-0.185,0.223-0.501,0.039-0.706c-0.186-0.207-0.502-0.223-0.707-0.039l-1.467,1.315c-0.301,0.087-1.092,0.353-2.379,1.042
		c-0.969,0.52-1.43,1.145-1.766,1.602c-0.27,0.367-0.422,0.561-0.672,0.64c-0.264,0.082-0.41,0.362-0.328,0.626
		C13.759,11.266,13.957,11.403,14.169,11.403z"/>
	<path fill="#414042" d="M29.559,14.915c-0.918,0-1.664,0.752-1.664,1.686c0,0.93,0.746,1.686,1.664,1.686
		c0.922,0,1.666-0.756,1.666-1.686C31.225,15.667,30.48,14.915,29.559,14.915z"/>
	<path fill="#414042" d="M17.558,14.915c-0.918,0-1.664,0.752-1.664,1.686c0,0.93,0.746,1.686,1.664,1.686
		c0.922,0,1.666-0.756,1.666-1.686C19.224,15.667,18.48,14.915,17.558,14.915z"/>
</g>
</svg>
