<?xml version="1.0" encoding="utf-8"?>
<!-- Generator: Adobe Illustrator 16.0.0, SVG Export Plug-In . SVG Version: 6.00 Build 0)  -->
<!DOCTYPE svg PUBLIC "-//W3C//DTD SVG 1.1//EN" "http://www.w3.org/Graphics/SVG/1.1/DTD/svg11.dtd">
<svg version="1.1" id="Layer_1" xmlns="http://www.w3.org/2000/svg" xmlns:xlink="http://www.w3.org/1999/xlink" x="0px" y="0px"
	 width="48px" height="48px" viewBox="0 0 48 48" enable-background="new 0 0 48 48" xml:space="preserve">
<g>
	<path fill="#414042" d="M23.745,1.403c-12.339,0-22.377,10.038-22.377,22.377c0,12.336,10.038,22.373,22.377,22.373
		c12.336,0,22.373-10.037,22.373-22.373C46.118,11.441,36.081,1.403,23.745,1.403z M23.745,45.153
		c-11.787,0-21.377-9.588-21.377-21.373c0-11.787,9.59-21.377,21.377-21.377c11.785,0,21.373,9.59,21.373,21.377
		C45.118,35.565,35.53,45.153,23.745,45.153z"/>
	<path fill="#414042" d="M16.743,24.611c2.146,0,3.893-2.407,3.893-5.364c0-2.959-1.746-5.365-3.893-5.365s-3.893,2.406-3.893,5.365
		C12.851,22.204,14.597,24.611,16.743,24.611z M16.743,14.882c1.595,0,2.893,1.957,2.893,4.365c0,1.596-0.577,2.98-1.427,3.742
		c0.124-0.208,0.201-0.44,0.201-0.691c0-0.819-0.744-1.48-1.666-1.48c-0.919,0-1.665,0.661-1.665,1.48
		c0,0.252,0.078,0.485,0.203,0.693c-0.852-0.761-1.43-2.146-1.43-3.744C13.851,16.839,15.148,14.882,16.743,14.882z"/>
	<path fill="#414042" d="M32.623,22.813l-0.431-1.133c0.274-0.734,0.443-1.553,0.443-2.434c0-2.959-1.746-5.365-3.893-5.365
		s-3.893,2.406-3.893,5.365c0,2.957,1.746,5.364,3.893,5.364c1.239,0,2.333-0.817,3.046-2.065l-0.102,0.269
		c-0.008,0.02-0.773,2.021-2.329,4.486c-0.482,0.765-0.793,1.547-0.944,2.316c-1.312-0.442-2.734-0.71-4.261-0.777l-0.822-0.019
		v0.018c-7.623,0.33-10.238,5.195-10.35,5.408c-0.127,0.245-0.031,0.546,0.213,0.674c0.073,0.038,0.152,0.057,0.23,0.057
		c0.18,0,0.354-0.098,0.443-0.268c0.104-0.196,2.57-4.718,9.872-4.883c1.66,0.037,3.191,0.316,4.576,0.812
		c0,0.79,0.176,1.549,0.554,2.235c0.698,1.266,1.987,2.084,3.285,2.084s2.587-0.818,3.285-2.084c0.898-1.629,0.721-3.66-0.487-5.573
		C33.396,24.836,32.63,22.834,32.623,22.813z M30.209,22.989c0.123-0.208,0.2-0.44,0.2-0.691c0-0.819-0.744-1.48-1.666-1.48
		c-0.919,0-1.665,0.661-1.665,1.48c0,0.252,0.078,0.485,0.203,0.693c-0.852-0.761-1.431-2.146-1.431-3.744
		c0-2.408,1.298-4.365,2.893-4.365s2.893,1.957,2.893,4.365C31.636,20.843,31.059,22.228,30.209,22.989z M34.564,32.392
		c-0.524,0.951-1.471,1.566-2.409,1.566c-0.939,0-1.885-0.615-2.409-1.566c-0.717-1.301-0.55-2.961,0.458-4.557
		c0.914-1.448,1.559-2.727,1.951-3.578c0.393,0.852,1.038,2.13,1.952,3.578C35.115,29.43,35.281,31.091,34.564,32.392z"/>
</g>
</svg>
