<?xml version="1.0" encoding="utf-8"?>
<!-- Generator: Adobe Illustrator 16.0.0, SVG Export Plug-In . SVG Version: 6.00 Build 0)  -->
<!DOCTYPE svg PUBLIC "-//W3C//DTD SVG 1.1//EN" "http://www.w3.org/Graphics/SVG/1.1/DTD/svg11.dtd">
<svg version="1.1" id="Layer_1" xmlns="http://www.w3.org/2000/svg" xmlns:xlink="http://www.w3.org/1999/xlink" x="0px" y="0px"
	 width="48px" height="48px" viewBox="0 0 48 48" enable-background="new 0 0 48 48" xml:space="preserve">
<g>
	<path fill="#414042" d="M23.93,1.403c-12.339,0-22.377,10.038-22.377,22.377c0,12.336,10.038,22.373,22.377,22.373
		c12.336,0,22.373-10.037,22.373-22.373C46.303,11.441,36.266,1.403,23.93,1.403z M23.93,45.153
		c-11.787,0-21.377-9.588-21.377-21.373c0-11.787,9.59-21.377,21.377-21.377c11.785,0,21.373,9.59,21.373,21.377
		C45.303,35.565,35.715,45.153,23.93,45.153z"/>
	<path fill="#414042" d="M34.245,28.821H13.61c-0.143,0-0.279,0.063-0.374,0.169c-0.095,0.106-0.14,0.249-0.123,0.392
		c0.011,0.092,1.188,8.95,10.223,9.563c0.056,0.021,0.116,0.033,0.18,0.033h0.822c0.06,0,0.118-0.01,0.171-0.029
		c9.479-0.584,10.228-9.499,10.234-9.591c0.01-0.139-0.039-0.274-0.133-0.376C34.517,28.88,34.384,28.821,34.245,28.821z
		 M23.938,37.973c-7.47-0.21-9.331-6.243-9.732-8.151h19.473C33.371,31.698,31.775,37.763,23.938,37.973z"/>
	<path fill="#414042" d="M29.928,23.119c2.146,0,3.893-2.407,3.893-5.364c0-2.959-1.746-5.365-3.893-5.365s-3.893,2.406-3.893,5.365
		C26.035,20.712,27.781,23.119,29.928,23.119z M29.928,13.39c1.595,0,2.893,1.957,2.893,4.365c0,1.27-0.367,2.404-0.943,3.202
		c0.07-0.244,0.116-0.499,0.116-0.771c0-1.344-0.925-2.432-2.065-2.432c-1.142,0-2.066,1.088-2.066,2.432
		c0,0.271,0.047,0.526,0.116,0.77c-0.575-0.798-0.942-1.932-0.942-3.202C27.035,15.347,28.333,13.39,29.928,13.39z"/>
	<path fill="#414042" d="M17.928,23.119c2.146,0,3.892-2.407,3.892-5.364c0-2.959-1.746-5.365-3.892-5.365
		c-2.146,0-3.893,2.406-3.893,5.365C14.035,20.712,15.781,23.119,17.928,23.119z M17.928,13.39c1.595,0,2.892,1.957,2.892,4.365
		c0,1.27-0.367,2.404-0.942,3.202c0.069-0.244,0.116-0.499,0.116-0.771c0-1.344-0.924-2.432-2.065-2.432
		c-1.142,0-2.066,1.088-2.066,2.432c0,0.271,0.046,0.526,0.116,0.77c-0.575-0.798-0.942-1.932-0.942-3.202
		C15.035,15.347,16.333,13.39,17.928,13.39z"/>
</g>
</svg>
