<?xml version="1.0" encoding="utf-8"?>
<!-- Generator: Adobe Illustrator 16.0.0, SVG Export Plug-In . SVG Version: 6.00 Build 0)  -->
<!DOCTYPE svg PUBLIC "-//W3C//DTD SVG 1.1//EN" "http://www.w3.org/Graphics/SVG/1.1/DTD/svg11.dtd">
<svg version="1.1" id="Layer_1" xmlns="http://www.w3.org/2000/svg" xmlns:xlink="http://www.w3.org/1999/xlink" x="0px" y="0px"
	 width="48px" height="48px" viewBox="0 0 48 48" enable-background="new 0 0 48 48" xml:space="preserve">
<g>
	<path fill="#414042" d="M24.114,1.403c-12.338,0-22.377,10.038-22.377,22.377c0,12.336,10.039,22.373,22.377,22.373
		S46.487,36.116,46.487,23.78C46.487,11.441,36.452,1.403,24.114,1.403z M24.114,45.153c-11.787,0-21.377-9.588-21.377-21.373
		c0-11.787,9.59-21.377,21.377-21.377c11.785,0,21.373,9.59,21.373,21.377C45.487,35.565,35.899,45.153,24.114,45.153z"/>
	<path fill="#414042" d="M29.638,13.642c-2.146,0-3.893,2.406-3.893,5.365c0,2.958,1.746,5.365,3.893,5.365s3.893-2.407,3.893-5.365
		C33.53,16.048,31.784,13.642,29.638,13.642z M29.638,23.372c-1.596,0-2.893-1.959-2.893-4.365c0-1.729,0.675-3.213,1.643-3.919
		c-0.256,0.26-0.416,0.597-0.416,0.97c0,0.816,0.746,1.48,1.666,1.48c0.922,0,1.664-0.664,1.664-1.48
		c0-0.373-0.159-0.709-0.414-0.969c0.968,0.707,1.643,2.189,1.643,3.918C32.53,21.413,31.231,23.372,29.638,23.372z"/>
	<path fill="#414042" d="M21.53,19.007c0-2.959-1.746-5.365-3.893-5.365s-3.893,2.406-3.893,5.365c0,2.958,1.746,5.365,3.893,5.365
		S21.53,21.965,21.53,19.007z M17.638,23.372c-1.596,0-2.893-1.959-2.893-4.365c0-1.729,0.675-3.213,1.643-3.919
		c-0.256,0.26-0.416,0.597-0.416,0.97c0,0.816,0.746,1.48,1.666,1.48c0.922,0,1.664-0.664,1.664-1.48
		c0-0.373-0.159-0.709-0.414-0.969c0.968,0.707,1.643,2.189,1.643,3.918C20.53,21.413,19.231,23.372,17.638,23.372z"/>
	<path fill="#414042" d="M29.673,33.681c-0.307,0.367-0.627,0.555-0.98,0.573c-0.652,0.036-1.236-0.524-1.236-0.524
		c-0.594-0.605-1.254-0.91-1.936-0.883c-1.088,0.03-1.838,0.863-1.832,0.863c-1.269,1.096-2.374,0.129-2.497,0.016
		c-0.554-0.521-1.151-0.773-1.776-0.746c-0.957,0.043-1.595,0.747-1.621,0.777c-0.183,0.205-0.164,0.518,0.04,0.701
		c0.204,0.185,0.519,0.169,0.704-0.034c0.004-0.005,0.396-0.426,0.929-0.445c0.334-0.019,0.692,0.146,1.036,0.472
		c0.633,0.605,2.248,1.39,3.887-0.029c0.006-0.006,0.508-0.561,1.166-0.575c0.406-0.001,0.799,0.188,1.191,0.589
		c0.035,0.034,0.838,0.82,1.889,0.82c0.033,0,0.066,0,0.1-0.002c0.643-0.031,1.217-0.344,1.705-0.934
		c0.178-0.211,0.148-0.527-0.063-0.703C30.165,33.44,29.851,33.466,29.673,33.681z"/>
	<path fill="#414042" d="M27.638,10.273c-0.271,0.052-0.449,0.313-0.398,0.584c0.051,0.272,0.318,0.448,0.584,0.398
		c0.035-0.007,3.506-0.626,5.199,2.169c0.094,0.154,0.258,0.24,0.428,0.24c0.088,0,0.178-0.023,0.258-0.072
		c0.236-0.143,0.313-0.45,0.17-0.686C31.829,9.523,27.806,10.24,27.638,10.273z"/>
	<path fill="#414042" d="M15.107,12.841c0.146,0,0.29-0.063,0.39-0.186c2.043-2.522,5.352-1.396,5.49-1.348
		c0.263,0.094,0.546-0.045,0.637-0.305c0.093-0.26-0.043-0.545-0.303-0.639c-0.041-0.014-4.107-1.417-6.602,1.662
		c-0.174,0.215-0.141,0.529,0.073,0.703C14.886,12.804,14.997,12.841,15.107,12.841z"/>
</g>
</svg>
