<?xml version="1.0" encoding="utf-8"?>
<!-- Generator: Adobe Illustrator 16.0.0, SVG Export Plug-In . SVG Version: 6.00 Build 0)  -->
<!DOCTYPE svg PUBLIC "-//W3C//DTD SVG 1.1//EN" "http://www.w3.org/Graphics/SVG/1.1/DTD/svg11.dtd">
<svg version="1.1" id="Layer_1" xmlns="http://www.w3.org/2000/svg" xmlns:xlink="http://www.w3.org/1999/xlink" x="0px" y="0px"
	 width="48px" height="48px" viewBox="0 0 48 48" enable-background="new 0 0 48 48" xml:space="preserve">
<g>
	<path fill="#414042" d="M24.299,1.403c-12.34,0-22.377,10.038-22.377,22.377c0,12.336,10.037,22.373,22.377,22.373
		c12.336,0,22.373-10.037,22.373-22.373C46.672,11.441,36.635,1.403,24.299,1.403z M24.299,45.153
		c-11.787,0-21.377-9.588-21.377-21.373c0-11.787,9.59-21.377,21.377-21.377c11.785,0,21.373,9.59,21.373,21.377
		C45.672,35.565,36.084,45.153,24.299,45.153z"/>
	<path fill="#414042" d="M32.145,29.425c-0.002-0.006,0-0.013-0.002-0.02c-0.008-0.025-0.025-0.045-0.037-0.068
		c-0.014-0.029-0.025-0.06-0.045-0.086c-0.021-0.027-0.047-0.047-0.072-0.069c-0.021-0.021-0.043-0.042-0.068-0.058
		c-0.031-0.02-0.066-0.029-0.102-0.04c-0.021-0.008-0.041-0.022-0.064-0.026c-3.066-0.562-6.67,0.297-7.445,0.498
		c-2.977-0.914-7.244-0.521-7.428-0.504c-0.008,0.001-0.014,0.006-0.021,0.007c-0.031,0.005-0.061,0.017-0.09,0.026
		c-0.033,0.012-0.066,0.021-0.096,0.038c-0.021,0.013-0.039,0.032-0.059,0.048c-0.029,0.026-0.061,0.051-0.084,0.083
		c-0.004,0.006-0.012,0.009-0.016,0.015c-0.012,0.018-0.014,0.039-0.023,0.059c-0.018,0.033-0.033,0.064-0.043,0.1
		c-0.008,0.033-0.01,0.065-0.01,0.1c-0.002,0.023-0.01,0.046-0.008,0.07c0,0.008,0.006,0.014,0.006,0.021
		c0.008,0.045,0.023,0.085,0.041,0.127c0.008,0.016,0.012,0.035,0.02,0.051c0.025,0.044,0.063,0.082,0.102,0.117
		c0.01,0.009,0.016,0.02,0.027,0.027c0.008,0.007,0.012,0.017,0.021,0.022c0.012,0.009,1.285,0.902,1.5,2.065
		c0.15,0.81,0.811,1.67,1.766,2.301c0.594,0.391,1.691,0.945,3.156,0.945c0.385,0,0.793-0.039,1.227-0.128
		c2.082,0.431,3.631-0.323,4.379-0.815c0.957-0.631,1.619-1.492,1.754-2.235c0.254-0.764,0.852-1.909,1.377-2.067
		c0.023-0.007,0.041-0.023,0.063-0.033c0.031-0.016,0.064-0.027,0.092-0.049s0.049-0.047,0.072-0.073
		c0.02-0.022,0.041-0.042,0.057-0.067c0.018-0.033,0.029-0.068,0.041-0.104c0.008-0.021,0.021-0.04,0.025-0.063
		c0-0.006-0.002-0.012,0-0.018c0.004-0.035,0-0.069-0.004-0.105C32.15,29.485,32.152,29.454,32.145,29.425z M29.463,31.845
		c-0.1,0.533-0.625,1.182-1.338,1.651c-0.629,0.414-1.949,1.048-3.719,0.651c-0.072-0.017-0.146-0.017-0.219,0
		c-1.77,0.398-3.094-0.238-3.721-0.652c-0.713-0.471-1.236-1.117-1.334-1.648c-0.141-0.761-0.572-1.399-0.992-1.869
		c1.49-0.056,4.105-0.043,6,0.574c0.051,0.017,0.104,0.025,0.156,0.025c0.045,0,0.09-0.007,0.135-0.02
		c0.033-0.009,3.119-0.854,6.018-0.652C29.896,30.62,29.559,31.549,29.463,31.845z"/>
	<path fill="#414042" d="M30.297,12.767c-2.146,0-3.893,2.407-3.893,5.365c0,2.959,1.746,5.365,3.893,5.365s3.893-2.406,3.893-5.365
		C34.189,15.174,32.443,12.767,30.297,12.767z M32.245,21.336c0.07-0.243,0.116-0.5,0.116-0.771c0-1.344-0.924-2.434-2.064-2.434
		c-1.143,0-2.066,1.09-2.066,2.434c0,0.271,0.046,0.525,0.115,0.769c-0.575-0.799-0.941-1.933-0.941-3.202
		c0-2.406,1.297-4.365,2.893-4.365c1.594,0,2.893,1.959,2.893,4.365C33.189,19.402,32.821,20.537,32.245,21.336z"/>
	<path fill="#414042" d="M22.189,18.132c0-2.958-1.746-5.365-3.893-5.365s-3.893,2.407-3.893,5.365c0,2.959,1.746,5.365,3.893,5.365
		S22.189,21.091,22.189,18.132z M15.404,18.132c0-2.406,1.297-4.365,2.893-4.365c1.594,0,2.893,1.959,2.893,4.365
		c0,1.271-0.368,2.405-0.944,3.204c0.07-0.243,0.116-0.5,0.116-0.771c0-1.344-0.924-2.434-2.064-2.434
		c-1.143,0-2.066,1.09-2.066,2.434c0,0.271,0.046,0.525,0.115,0.769C15.771,20.535,15.404,19.401,15.404,18.132z"/>
</g>
</svg>
