<?xml version="1.0" encoding="utf-8"?>
<!-- Generator: Adobe Illustrator 16.0.0, SVG Export Plug-In . SVG Version: 6.00 Build 0)  -->
<!DOCTYPE svg PUBLIC "-//W3C//DTD SVG 1.1//EN" "http://www.w3.org/Graphics/SVG/1.1/DTD/svg11.dtd">
<svg version="1.1" id="Layer_1" xmlns="http://www.w3.org/2000/svg" xmlns:xlink="http://www.w3.org/1999/xlink" x="0px" y="0px"
	 width="48px" height="48px" viewBox="0 0 48 48" enable-background="new 0 0 48 48" xml:space="preserve">
<g>
	<path fill="#414042" d="M37.669,13.68c4.014-9.85-1.321-12.569-1.552-12.681c-0.195-0.094-0.436-0.051-0.586,0.112
		c-0.148,0.163-0.174,0.403-0.063,0.593c1.802,3.042-2.836,7.494-3.541,8.144c-2.571-1.15-5.426-1.811-8.443-1.811
		c-3.611,0-6.995,0.932-9.928,2.539c-1.083-0.831-5.668-4.59-4.264-7.655C9.385,2.722,9.334,2.484,9.17,2.339
		C9.004,2.192,8.766,2.172,8.576,2.286c-0.215,0.132-5.134,3.305-0.331,12.5c-3.019,3.375-4.856,7.75-4.856,12.537
		c0,10.633,9.016,19.283,20.096,19.283c11.076,0,20.09-8.65,20.09-19.283C43.574,21.999,41.314,17.173,37.669,13.68z M32.977,10.233
		c1.188-1.159,4.104-4.326,3.895-7.295c1.086,1.363,2.215,4.263,0.082,9.834l-2.195-1.402c-0.04-0.026-0.081-0.051-0.121-0.076
		L32.977,10.233z M8.031,4.286c0.103,2.935,3.256,5.763,4.595,6.834c-1.336,0.827-2.56,1.8-3.653,2.898
		C6.29,8.719,7.102,5.74,8.031,4.286z M23.484,45.606c-10.529,0-19.096-8.201-19.096-18.283c0-4.699,1.876-8.976,4.929-12.218
		l4.323-3.422c2.879-1.668,6.24-2.646,9.844-2.646c3.913,0,7.553,1.138,10.584,3.08l0.14,0.089c5.045,3.294,8.366,8.84,8.366,15.117
		C42.574,37.405,34.01,45.606,23.484,45.606z"/>
	<path fill="#414042" d="M23.85,31.597l-0.736-0.016v0.016c-6.854,0.285-9.211,4.489-9.313,4.674
		c-0.131,0.243-0.041,0.547,0.201,0.678c0.076,0.041,0.158,0.061,0.238,0.061c0.178,0,0.35-0.094,0.439-0.262
		c0.023-0.041,2.254-4.018,8.803-4.162c6.512,0.143,8.709,3.997,8.801,4.164c0.133,0.24,0.434,0.332,0.678,0.198
		c0.242-0.132,0.332-0.435,0.201-0.677C33.061,36.086,30.703,31.882,23.85,31.597z"/>
	<path fill="#414042" d="M29.375,17.885c-2.479,0-4.494,2.795-4.494,6.229c0,3.436,2.016,6.229,4.494,6.229s4.494-2.794,4.494-6.229
		C33.869,20.68,31.854,17.885,29.375,17.885z M29.375,29.344c-1.926,0-3.494-2.346-3.494-5.229c0-2.883,1.568-5.229,3.494-5.229
		c1.928,0,3.494,2.347,3.494,5.229C32.869,26.998,31.303,29.344,29.375,29.344z"/>
	<path fill="#414042" d="M17.201,30.255c2.461,0,4.463-2.774,4.463-6.186c0-3.41-2.002-6.186-4.463-6.186
		c-2.463,0-4.465,2.775-4.465,6.186C12.736,27.48,14.738,30.255,17.201,30.255z M17.201,18.884c1.91,0,3.463,2.326,3.463,5.186
		s-1.553,5.186-3.463,5.186s-3.465-2.326-3.465-5.186S15.291,18.884,17.201,18.884z"/>
	<path fill="#414042" d="M17.242,16.376c0.039,0.005,3.121-0.104,4.338,2.508c0.084,0.182,0.264,0.289,0.453,0.289
		c0.07,0,0.143-0.016,0.211-0.047c0.25-0.117,0.359-0.414,0.242-0.664c-1.494-3.207-5.139-3.094-5.285-3.084
		c-0.277,0.012-0.49,0.244-0.48,0.52C16.732,16.173,16.949,16.386,17.242,16.376z"/>
	<path fill="#414042" d="M24.838,19.091c0.068,0.031,0.139,0.047,0.209,0.047c0.189,0,0.369-0.107,0.455-0.291
		c1.109-2.4,3.764-2.514,4.256-2.514c0.07-0.001,0.08,0.002,0.094,0.001c0.268,0,0.488-0.212,0.5-0.481
		c0.01-0.275-0.203-0.507-0.479-0.518c-0.16-0.009-3.797-0.113-5.279,3.092C24.479,18.678,24.586,18.976,24.838,19.091z"/>
	<path fill="#414042" d="M17.201,26.368c1.258,0,2.271-1.031,2.271-2.299c0-1.271-1.014-2.299-2.271-2.299
		c-1.254,0-2.27,1.027-2.27,2.299C14.932,25.337,15.947,26.368,17.201,26.368z"/>
	<path fill="#414042" d="M29.473,21.798c-1.264,0-2.287,1.035-2.287,2.316c0,1.278,1.023,2.316,2.287,2.316
		c1.268,0,2.289-1.038,2.289-2.316C31.762,22.833,30.74,21.798,29.473,21.798z"/>
</g>
</svg>
