<?xml version="1.0" encoding="utf-8"?>
<!-- Generator: Adobe Illustrator 16.0.0, SVG Export Plug-In . SVG Version: 6.00 Build 0)  -->
<!DOCTYPE svg PUBLIC "-//W3C//DTD SVG 1.1//EN" "http://www.w3.org/Graphics/SVG/1.1/DTD/svg11.dtd">
<svg version="1.1" id="Layer_1" xmlns="http://www.w3.org/2000/svg" xmlns:xlink="http://www.w3.org/1999/xlink" x="0px" y="0px"
	 width="48px" height="48px" viewBox="0 0 48 48" enable-background="new 0 0 48 48" xml:space="preserve">
<g>
	<path fill="#414042" d="M23.589,1.028c-12.339,0-22.377,10.037-22.377,22.377c0,12.336,10.038,22.373,22.377,22.373
		c12.336,0,22.373-10.037,22.373-22.373C45.962,11.065,35.925,1.028,23.589,1.028z M23.589,44.778
		c-11.787,0-21.377-9.588-21.377-21.373c0-11.787,9.59-21.377,21.377-21.377c11.785,0,21.373,9.59,21.373,21.377
		C44.962,35.19,35.374,44.778,23.589,44.778z"/>
	<path fill="#414042" d="M23.998,28.464l-0.822-0.018v0.018c-7.622,0.33-10.239,5.194-10.351,5.408
		c-0.127,0.244-0.031,0.545,0.213,0.673c0.242,0.128,0.546,0.034,0.674-0.211c0.104-0.195,2.57-4.719,9.875-4.883
		c7.305,0.164,9.771,4.688,9.875,4.883c0.089,0.171,0.264,0.268,0.443,0.268c0.078,0,0.156-0.018,0.23-0.057
		c0.244-0.128,0.34-0.429,0.213-0.673C34.237,33.658,31.62,28.794,23.998,28.464z"/>
	<path fill="#414042" d="M25.694,18.843c0,2.957,1.746,5.363,3.893,5.363s3.893-2.406,3.893-5.363c0-2.959-1.746-5.365-3.893-5.365
		S25.694,15.884,25.694,18.843z M32.479,18.843c0,2.406-1.298,4.363-2.893,4.363s-2.893-1.957-2.893-4.363
		c0-2.408,1.298-4.365,2.893-4.365S32.479,16.435,32.479,18.843z"/>
	<path fill="#414042" d="M17.587,24.206c2.146,0,3.893-2.406,3.893-5.363c0-2.959-1.746-5.365-3.893-5.365s-3.893,2.406-3.893,5.365
		C13.694,21.8,15.44,24.206,17.587,24.206z M17.587,14.478c1.595,0,2.893,1.957,2.893,4.365c0,2.406-1.298,4.363-2.893,4.363
		s-2.893-1.957-2.893-4.363C14.694,16.435,15.992,14.478,17.587,14.478z"/>
	<path fill="#414042" d="M16.62,10.575c0.03,0,3.519-0.119,4.893,2.96c0.083,0.187,0.266,0.296,0.457,0.296
		c0.068,0,0.137-0.014,0.203-0.043c0.252-0.112,0.365-0.408,0.253-0.66c-1.647-3.693-5.681-3.558-5.85-3.552
		c-0.276,0.013-0.489,0.245-0.478,0.521S16.349,10.603,16.62,10.575z"/>
	<path fill="#414042" d="M25.133,13.747c0.065,0.029,0.135,0.043,0.202,0.043c0.191,0,0.375-0.11,0.457-0.297
		c1.361-3.066,4.742-2.973,4.888-2.968c0.274,0.019,0.508-0.204,0.519-0.479c0.012-0.275-0.201-0.508-0.478-0.52
		c-0.169-0.01-4.202-0.137-5.843,3.562C24.767,13.341,24.88,13.636,25.133,13.747z"/>
	<ellipse fill="#414042" cx="17.763" cy="18.188" rx="1.666" ry="1.686"/>
	<ellipse fill="#414042" cx="29.262" cy="18.188" rx="1.665" ry="1.686"/>
</g>
</svg>
