<?xml version="1.0" encoding="utf-8"?>
<!-- Generator: Adobe Illustrator 16.0.0, SVG Export Plug-In . SVG Version: 6.00 Build 0)  -->
<!DOCTYPE svg PUBLIC "-//W3C//DTD SVG 1.1//EN" "http://www.w3.org/Graphics/SVG/1.1/DTD/svg11.dtd">
<svg version="1.1" id="Layer_1" xmlns="http://www.w3.org/2000/svg" xmlns:xlink="http://www.w3.org/1999/xlink" x="0px" y="0px"
	 width="48px" height="48px" viewBox="0 0 48 48" enable-background="new 0 0 48 48" xml:space="preserve">
<g>
	<path fill="#414042" d="M34.532,28.41c-0.243-0.129-0.546-0.034-0.675,0.211c-0.104,0.195-2.57,4.719-9.874,4.883
		c-7.304-0.164-9.771-4.688-9.874-4.883c-0.129-0.245-0.432-0.34-0.675-0.211c-0.244,0.128-0.339,0.429-0.212,0.673
		c0.111,0.214,2.727,5.078,10.35,5.408l0.822,0.018v-0.018c7.623-0.33,10.238-5.194,10.35-5.408
		C34.871,28.839,34.776,28.538,34.532,28.41z"/>
	<path fill="#414042" d="M36.771,16.196c-0.022-0.148-0.046-0.296-0.082-0.442c-0.198-0.792-0.6-1.435-1.193-1.905
		c-0.393-0.313-0.823-0.508-1.281-0.583c-0.381-0.062-0.766-0.067-1.15-0.024c-0.412,0.045-0.795,0.168-1.135,0.365
		c-0.314,0.183-0.569,0.412-0.774,0.625c-0.284-0.297-0.558-0.51-0.853-0.668c-0.354-0.19-0.739-0.301-1.18-0.335
		c-0.334-0.026-0.669-0.021-0.996,0.032c-0.547,0.086-1.045,0.332-1.478,0.729c-0.581,0.531-0.95,1.24-1.102,2.109l-0.032,0.218
		c-0.004,0.023-0.02,0.14-0.02,0.163v0.705c0,0.041,0.008,0.086,0.018,0.129c0.066,0.582,0.307,1.229,0.379,1.413
		c0.039,0.101,0.984,2.505,4.979,5.212c0.086,0.058,0.184,0.086,0.281,0.086c0.096,0,0.191-0.027,0.275-0.082
		c0.154-0.102,3.789-2.516,4.956-5.144c0.071-0.183,0.312-0.813,0.382-1.259l0.03-0.192c0.004-0.024,0.019-0.138,0.019-0.163v-0.705
		c0-0.047-0.004-0.074-0.017-0.119L36.771,16.196z M35.807,17.197l-0.027,0.186c-0.041,0.259-0.193,0.714-0.318,1.03
		c-0.867,1.952-3.457,3.9-4.309,4.504c-3.467-2.428-4.316-4.525-4.326-4.55c-0.127-0.322-0.286-0.829-0.324-1.223
		c-0.001-0.007-0.002-0.015-0.004-0.024l0.007-0.662l0.028-0.191c0.113-0.652,0.372-1.156,0.792-1.539
		c0.29-0.267,0.603-0.424,0.958-0.479c0.253-0.04,0.511-0.042,0.762-0.022c0.299,0.023,0.555,0.095,0.784,0.219
		c0.222,0.119,0.436,0.293,0.671,0.55l0.281,0.315c0.095,0.107,0.231,0.17,0.375,0.17c0.145,0,0.281-0.063,0.375-0.17l0.188-0.215
		c0.178-0.201,0.42-0.453,0.713-0.623c0.223-0.129,0.465-0.207,0.743-0.236c0.293-0.033,0.587-0.029,0.88,0.018
		c0.29,0.047,0.559,0.171,0.818,0.379c0.424,0.336,0.701,0.783,0.846,1.363c0.029,0.115,0.047,0.234,0.064,0.353l0.031,0.165
		L35.807,17.197z"/>
	<path fill="#414042" d="M17.438,23.942c0.084,0.055,0.18,0.082,0.275,0.082c0.098,0,0.195-0.028,0.28-0.086
		c3.995-2.707,4.94-5.111,4.978-5.207c0.075-0.194,0.328-0.875,0.369-1.381c0.02-0.054,0.028-0.109,0.028-0.166v-0.705
		c0-0.023-0.015-0.14-0.019-0.163l-0.033-0.22c-0.15-0.867-0.521-1.576-1.1-2.105c-0.435-0.398-0.932-0.645-1.477-0.73
		c-0.331-0.055-0.664-0.059-1-0.032c-0.439,0.034-0.824,0.145-1.176,0.334c-0.297,0.159-0.57,0.372-0.855,0.669
		c-0.204-0.213-0.46-0.442-0.773-0.625c-0.34-0.197-0.723-0.32-1.135-0.365c-0.385-0.043-0.77-0.036-1.15,0.024
		c-0.459,0.075-0.889,0.271-1.281,0.583c-0.594,0.471-0.996,1.113-1.194,1.907c-0.036,0.145-0.06,0.292-0.081,0.44L12.07,16.34
		c-0.014,0.046-0.021,0.093-0.021,0.14v0.705c0,0.025,0.015,0.139,0.019,0.163l0.03,0.191c0.07,0.447,0.311,1.077,0.391,1.28
		C13.648,21.427,17.283,23.841,17.438,23.942z M13.086,17.382l-0.036-0.197l0.003-0.656l0.029-0.181
		c0.018-0.118,0.035-0.237,0.063-0.351c0.146-0.582,0.424-1.029,0.848-1.366c0.26-0.207,0.527-0.331,0.818-0.378
		c0.166-0.027,0.332-0.039,0.498-0.039c0.127,0,0.254,0.007,0.382,0.021c0.278,0.029,0.521,0.107,0.743,0.236
		c0.293,0.17,0.535,0.422,0.711,0.621l0.188,0.217c0.095,0.107,0.262,0.135,0.405,0.135c0.145,0,0.311-0.096,0.406-0.204
		l0.221-0.247c0.234-0.256,0.448-0.43,0.672-0.55c0.229-0.123,0.484-0.194,0.782-0.218c0.254-0.02,0.509-0.019,0.764,0.023
		c0.354,0.055,0.667,0.212,0.958,0.479c0.418,0.383,0.678,0.887,0.789,1.537l0.038,0.853c-0.004,0.018-0.007,0.034-0.008,0.05
		c-0.036,0.371-0.195,0.878-0.323,1.203c-0.008,0.021-0.858,2.119-4.324,4.547c-0.852-0.603-3.441-2.549-4.301-4.484
		C13.279,18.097,13.127,17.642,13.086,17.382z"/>
	<path fill="#414042" d="M23.985,1.028c-12.339,0-22.377,10.037-22.377,22.377c0,12.336,10.038,22.373,22.377,22.373
		c12.337,0,22.373-10.037,22.373-22.373C46.358,11.065,36.322,1.028,23.985,1.028z M23.985,44.778
		c-11.787,0-21.377-9.588-21.377-21.373c0-11.787,9.59-21.377,21.377-21.377c11.785,0,21.373,9.59,21.373,21.377
		C45.358,35.19,35.771,44.778,23.985,44.778z"/>
</g>
</svg>
