<?xml version="1.0" encoding="utf-8"?>
<!-- Generator: Adobe Illustrator 16.0.0, SVG Export Plug-In . SVG Version: 6.00 Build 0)  -->
<!DOCTYPE svg PUBLIC "-//W3C//DTD SVG 1.1//EN" "http://www.w3.org/Graphics/SVG/1.1/DTD/svg11.dtd">
<svg version="1.1" id="Layer_1" xmlns="http://www.w3.org/2000/svg" xmlns:xlink="http://www.w3.org/1999/xlink" x="0px" y="0px"
	 width="48px" height="48px" viewBox="0 0 48 48" enable-background="new 0 0 48 48" xml:space="preserve">
<g>
	<path fill="#414042" d="M23.382,1.028c-12.338,0-22.377,10.037-22.377,22.377c0,12.336,10.039,22.373,22.377,22.373
		s22.373-10.037,22.373-22.373C45.755,11.065,35.72,1.028,23.382,1.028z M23.382,44.778c-11.787,0-21.377-9.588-21.377-21.373
		c0-11.787,9.59-21.377,21.377-21.377c11.785,0,21.373,9.59,21.373,21.377C44.755,35.19,35.167,44.778,23.382,44.778z"/>
	<path fill="#414042" d="M20.495,39.12c-5.763,0-6.494-3.917-6.522-4.081c-0.044-0.273-0.3-0.457-0.573-0.415
		c-0.272,0.044-0.458,0.301-0.414,0.573c0.008,0.05,0.868,4.923,7.51,4.923c0.277,0,0.5-0.224,0.5-0.5S20.772,39.12,20.495,39.12z"
		/>
	<path fill="#414042" d="M21.401,6.673c-5.088-1.047-8.938,3.142-9.1,3.32c-0.186,0.205-0.17,0.521,0.035,0.706
		c0.096,0.087,0.216,0.13,0.336,0.13c0.136,0,0.271-0.057,0.37-0.165c0.036-0.04,3.624-3.943,8.157-3.012
		c0.271,0.054,0.535-0.118,0.591-0.39C21.847,6.993,21.673,6.729,21.401,6.673z"/>
	<path fill="#414042" d="M25.233,6.421c-0.275,0.025-0.479,0.268-0.453,0.543s0.289,0.479,0.543,0.453
		c0.057-0.006,5.342-0.44,8.041,3.314c0.098,0.135,0.25,0.207,0.406,0.207c0.102,0,0.203-0.03,0.291-0.094
		c0.225-0.161,0.275-0.474,0.115-0.697C31.147,5.933,25.47,6.397,25.233,6.421z"/>
	<path fill="#414042" d="M28.866,10.981c-2.146,0-3.893,2.406-3.893,5.365c0,2.958,1.746,5.365,3.893,5.365s3.893-2.407,3.893-5.365
		C32.759,13.388,31.013,10.981,28.866,10.981z M28.866,20.712c-1.594,0-2.893-1.959-2.893-4.365c0-2.408,1.299-4.365,2.893-4.365
		c0.36,0,0.7,0.112,1.019,0.293c-0.575,0.099-1.019,0.528-1.019,1.068c0,0.613,0.561,1.111,1.25,1.111
		c0.491,0,0.903-0.257,1.106-0.622c0.335,0.712,0.536,1.577,0.536,2.515C31.759,18.753,30.462,20.712,28.866,20.712z"/>
	<path fill="#414042" d="M16.866,21.712c2.146,0,3.893-2.407,3.893-5.365c0-2.959-1.746-5.365-3.893-5.365s-3.893,2.406-3.893,5.365
		C12.974,19.305,14.72,21.712,16.866,21.712z M16.866,11.981c0.359,0,0.7,0.111,1.017,0.293c-0.576,0.099-1.019,0.527-1.019,1.068
		c0,0.613,0.559,1.111,1.248,1.111c0.491,0,0.905-0.258,1.11-0.624c0.335,0.712,0.537,1.578,0.537,2.516
		c0,2.406-1.298,4.365-2.893,4.365c-1.594,0-2.893-1.959-2.893-4.365C13.974,13.938,15.272,11.981,16.866,11.981z"/>
</g>
</svg>
