<?xml version="1.0" encoding="utf-8"?>
<!-- Generator: Adobe Illustrator 16.0.0, SVG Export Plug-In . SVG Version: 6.00 Build 0)  -->
<!DOCTYPE svg PUBLIC "-//W3C//DTD SVG 1.1//EN" "http://www.w3.org/Graphics/SVG/1.1/DTD/svg11.dtd">
<svg version="1.1" id="Layer_1" xmlns="http://www.w3.org/2000/svg" xmlns:xlink="http://www.w3.org/1999/xlink" x="0px" y="0px"
	 width="48px" height="48px" viewBox="0 0 48 48" enable-background="new 0 0 48 48" xml:space="preserve">
<g>
	<path fill="#414042" d="M23.778,1.028c-12.34,0-22.377,10.037-22.377,22.377c0,12.336,10.037,22.373,22.377,22.373
		c12.335,0,22.373-10.037,22.373-22.373C46.15,11.065,36.113,1.028,23.778,1.028z M23.778,44.778
		c-11.787,0-21.377-9.588-21.377-21.373c0-11.787,9.59-21.377,21.377-21.377c11.785,0,21.373,9.59,21.373,21.377
		C45.15,35.19,35.563,44.778,23.778,44.778z"/>
	<path fill="#414042" d="M29.438,27.206c-2.088-2.184-4.832-3.486-7.343-3.486c-1.602,0-2.992,0.521-4.023,1.506
		c-2.729,2.608-2.07,7.742,1.469,11.445c2.088,2.183,4.832,3.486,7.343,3.486c1.6,0,2.99-0.521,4.021-1.508
		c1.344-1.285,1.918-3.199,1.615-5.391C32.227,31.128,31.131,28.979,29.438,27.206z M30.213,37.927
		c-0.842,0.805-1.992,1.23-3.33,1.23c-2.244,0-4.718-1.188-6.621-3.178c-3.158-3.304-3.83-7.804-1.5-10.031
		c0.842-0.804,1.994-1.229,3.332-1.229c2.244,0,4.718,1.188,6.621,3.178c1.549,1.621,2.549,3.573,2.814,5.498
		C31.787,35.26,31.32,36.869,30.213,37.927z"/>
	<path fill="#414042" d="M33.846,14.574c-3.656,0.989-6.242,0.8-7.686-0.562c-1.851-1.744-1.214-4.938-1.208-4.97
		c0.056-0.271-0.117-0.534-0.387-0.591c-0.273-0.053-0.533,0.115-0.592,0.386c-0.031,0.153-0.76,3.766,1.498,5.899
		c1.025,0.969,2.48,1.455,4.346,1.455c1.248,0,2.68-0.217,4.291-0.652c0.266-0.072,0.424-0.347,0.352-0.613
		C34.387,14.661,34.115,14.503,33.846,14.574z"/>
	<path fill="#414042" d="M16.895,17.188c1.615-2.212,0.678-5.103,0.639-5.226c-0.088-0.261-0.367-0.404-0.633-0.315
		c-0.262,0.087-0.402,0.37-0.316,0.632c0.008,0.025,0.813,2.534-0.5,4.324c-0.938,1.279-2.736,1.927-5.348,1.927
		c-0.07,0-0.133,0.009-0.211-0.001c-0.273,0-0.496,0.219-0.5,0.493c-0.004,0.276,0.217,0.503,0.494,0.507
		c0.072,0,0.143,0.001,0.215,0.001C13.688,19.529,15.76,18.741,16.895,17.188z"/>
</g>
</svg>
