<?xml version="1.0" encoding="utf-8"?>
<!-- Generator: Adobe Illustrator 16.0.0, SVG Export Plug-In . SVG Version: 6.00 Build 0)  -->
<!DOCTYPE svg PUBLIC "-//W3C//DTD SVG 1.1//EN" "http://www.w3.org/Graphics/SVG/1.1/DTD/svg11.dtd">
<svg version="1.1" id="Layer_1" xmlns="http://www.w3.org/2000/svg" xmlns:xlink="http://www.w3.org/1999/xlink" x="0px" y="0px"
	 width="48px" height="48px" viewBox="0 0 48 48" enable-background="new 0 0 48 48" xml:space="preserve">
<g>
	<path fill="#414042" d="M24.174,1.028c-12.338,0-22.377,10.037-22.377,22.377c0,12.336,10.039,22.373,22.377,22.373
		c12.337,0,22.373-10.037,22.373-22.373C46.547,11.065,36.512,1.028,24.174,1.028z M24.174,44.778
		c-11.787,0-21.377-9.588-21.377-21.373c0-11.787,9.59-21.377,21.377-21.377c11.785,0,21.373,9.59,21.373,21.377
		C45.547,35.19,35.959,44.778,24.174,44.778z"/>
	<path fill="#414042" d="M14.452,7.279c0.035,0.007,3.482,0.756,4.625,3.685c0.076,0.198,0.266,0.318,0.465,0.318
		c0.061,0,0.123-0.01,0.182-0.033c0.258-0.102,0.385-0.391,0.285-0.648c-1.344-3.443-5.191-4.268-5.354-4.301
		c-0.271-0.055-0.535,0.118-0.59,0.389C14.008,6.958,14.182,7.224,14.452,7.279z"/>
	<path fill="#414042" d="M30.766,34.528H17.047c-0.275,0-0.5,0.224-0.5,0.5s0.225,0.5,0.5,0.5h13.718c0.277,0,0.5-0.224,0.5-0.5
		S31.043,34.528,30.766,34.528z"/>
	<path fill="#414042" d="M34.48,9.925h-7.432c-0.275,0-0.5,0.223-0.5,0.5c0,0.275,0.225,0.5,0.5,0.5h7.432
		c0.277,0,0.5-0.225,0.5-0.5C34.98,10.147,34.758,9.925,34.48,9.925z"/>
	<path fill="#414042" d="M29.783,13.597c-2.146,0-3.893,2.406-3.893,5.365c0,2.958,1.746,5.365,3.893,5.365
		c2.145,0,3.891-2.407,3.891-5.365C33.674,16.003,31.928,13.597,29.783,13.597z M29.783,23.327c-1.271,0-2.34-1.252-2.728-2.975
		c0.21,0.144,0.462,0.244,0.747,0.244c0.691,0,1.248-0.498,1.248-1.109c0-0.615-0.557-1.111-1.248-1.111
		c-0.352,0-0.668,0.132-0.895,0.341c0.086-2.292,1.336-4.12,2.875-4.12c1.594,0,2.891,1.957,2.891,4.365
		C32.674,21.368,31.377,23.327,29.783,23.327z"/>
	<path fill="#414042" d="M21.674,18.962c0-2.959-1.746-5.365-3.891-5.365c-2.146,0-3.893,2.406-3.893,5.365
		c0,2.958,1.746,5.365,3.893,5.365C19.928,24.327,21.674,21.92,21.674,18.962z M15.056,20.353c0.21,0.144,0.462,0.244,0.748,0.244
		c0.691,0,1.248-0.498,1.248-1.109c0-0.615-0.557-1.111-1.248-1.111c-0.353,0-0.668,0.132-0.896,0.341
		c0.086-2.292,1.336-4.12,2.876-4.12c1.594,0,2.891,1.957,2.891,4.365c0,2.406-1.297,4.365-2.891,4.365
		C16.512,23.327,15.443,22.075,15.056,20.353z"/>
</g>
</svg>
