<?xml version="1.0" encoding="utf-8"?>
<!-- Generator: Adobe Illustrator 16.0.0, SVG Export Plug-In . SVG Version: 6.00 Build 0)  -->
<!DOCTYPE svg PUBLIC "-//W3C//DTD SVG 1.1//EN" "http://www.w3.org/Graphics/SVG/1.1/DTD/svg11.dtd">
<svg version="1.1" id="Layer_1" xmlns="http://www.w3.org/2000/svg" xmlns:xlink="http://www.w3.org/1999/xlink" x="0px" y="0px"
	 width="48px" height="48px" viewBox="0 0 48 48" enable-background="new 0 0 48 48" xml:space="preserve">
<g>
	<path fill="#414042" d="M23.571,1.028c-12.339,0-22.377,10.038-22.377,22.377c0,12.337,10.038,22.373,22.377,22.373
		c12.335,0,22.373-10.036,22.373-22.373C45.943,11.066,35.906,1.028,23.571,1.028z M23.571,44.778
		c-11.787,0-21.377-9.588-21.377-21.373c0-11.787,9.59-21.377,21.377-21.377c11.785,0,21.373,9.59,21.373,21.377
		C44.943,35.19,35.355,44.778,23.571,44.778z"/>
	<path fill="#414042" d="M29.055,11.507c-2.146,0-3.893,2.407-3.893,5.365s1.746,5.364,3.893,5.364s3.893-2.406,3.893-5.364
		S31.201,11.507,29.055,11.507z M29.055,21.236c-1.594,0-2.893-1.958-2.893-4.364c0-2.407,1.299-4.365,2.893-4.365
		c0.481,0,0.928,0.195,1.328,0.51c-0.156-0.052-0.322-0.084-0.498-0.084c-0.807,0-1.461,0.594-1.461,1.329
		c0,0.733,0.654,1.328,1.461,1.328c0.809,0,1.461-0.595,1.461-1.328c0-0.01-0.002-0.02-0.003-0.03
		c0.374,0.736,0.604,1.645,0.604,2.641C31.947,19.278,30.65,21.236,29.055,21.236z"/>
	<path fill="#414042" d="M20.948,16.872c0-2.958-1.746-5.365-3.893-5.365s-3.893,2.407-3.893,5.365s1.746,5.364,3.893,5.364
		S20.948,19.83,20.948,16.872z M17.055,21.236c-1.594,0-2.893-1.958-2.893-4.364c0-2.407,1.299-4.365,2.893-4.365
		c0.481,0,0.928,0.195,1.328,0.51c-0.156-0.052-0.322-0.084-0.498-0.084c-0.807,0-1.461,0.594-1.461,1.329
		c0,0.733,0.654,1.328,1.461,1.328c0.809,0,1.461-0.595,1.461-1.328c0-0.01-0.003-0.02-0.003-0.03
		c0.374,0.736,0.605,1.645,0.605,2.641C19.948,19.278,18.65,21.236,17.055,21.236z"/>
	<path fill="#414042" d="M21.389,7.834c0.27,0.063,0.535-0.118,0.59-0.389c0.057-0.271-0.118-0.535-0.389-0.59
		c-5.082-1.051-8.939,3.143-9.101,3.321c-0.185,0.204-0.169,0.52,0.036,0.705c0.096,0.087,0.215,0.13,0.335,0.13
		c0.136,0,0.272-0.056,0.37-0.164C13.268,10.809,16.872,6.908,21.389,7.834z"/>
	<path fill="#414042" d="M24.79,6.649c-0.274,0.025-0.477,0.269-0.452,0.543c0.025,0.275,0.264,0.477,0.544,0.453
		c0.053-0.007,5.339-0.44,8.039,3.314c0.098,0.136,0.252,0.208,0.406,0.208c0.102,0,0.203-0.03,0.293-0.094
		c0.223-0.161,0.275-0.474,0.113-0.698C30.703,6.162,25.029,6.63,24.79,6.649z"/>
	<path fill="#414042" d="M25.404,29.514c-0.464-0.637-1.009-0.979-1.621-1.016c-0.932-0.055-1.607,0.634-1.664,0.697l-3.5,3.417
		c-0.198,0.192-0.202,0.509-0.01,0.707c0.194,0.196,0.51,0.203,0.707,0.008l3.515-3.431c0.004-0.005,0.417-0.46,0.896-0.399
		c0.298,0.02,0.59,0.224,0.864,0.601l2.593,3.66c0.098,0.138,0.252,0.211,0.408,0.211c0.1,0,0.201-0.03,0.289-0.092
		c0.225-0.16,0.277-0.472,0.119-0.697L25.404,29.514z"/>
</g>
</svg>
