<?xml version="1.0" encoding="utf-8"?>
<!-- Generator: Adobe Illustrator 16.0.0, SVG Export Plug-In . SVG Version: 6.00 Build 0)  -->
<!DOCTYPE svg PUBLIC "-//W3C//DTD SVG 1.1//EN" "http://www.w3.org/Graphics/SVG/1.1/DTD/svg11.dtd">
<svg version="1.1" id="Layer_1" xmlns="http://www.w3.org/2000/svg" xmlns:xlink="http://www.w3.org/1999/xlink" x="0px" y="0px"
	 width="48px" height="48px" viewBox="0 0 48 48" enable-background="new 0 0 48 48" xml:space="preserve">
<g>
	<path fill="#414042" d="M42.513,10.9c-0.016-0.026-0.032-0.051-0.053-0.073c-4.03-5.91-10.815-9.799-18.493-9.799
		c-7.714,0-14.529,3.924-18.554,9.88c-0.007,0.012-0.018,0.019-0.023,0.031c-0.001,0.003-0.001,0.006-0.002,0.009
		C2.991,14.511,1.59,18.797,1.59,23.405c0,12.337,10.038,22.373,22.377,22.373c12.337,0,22.373-10.036,22.373-22.373
		C46.34,18.777,44.928,14.473,42.513,10.9z M23.967,2.028c7.085,0,13.359,3.481,17.25,8.808c-7.096,1.614-13.135,2.241-18.092,2.321
		c-2.752-0.063-8.089-0.277-12.059-1.004c-2.196-0.449-3.675-0.936-4.426-1.217C10.525,5.552,16.836,2.028,23.967,2.028z
		 M24.287,14.18l-2.25,8.498c-0.002,0.017-0.197,1.653-1.234,1.743h-6.59l-0.001,0.5v-0.5c-0.152,0-1.496-0.042-1.748-1.483
		l-1.659-9.779c2.653,0.555,6.323,1.045,11.045,1.045c0.638,0,1.298-0.011,1.974-0.029C23.995,14.177,24.151,14.178,24.287,14.18z
		 M23.967,44.778C12.18,44.778,2.59,35.19,2.59,23.405c0-4.285,1.28-8.271,3.459-11.62c0.6,0.244,1.831,0.692,3.701,1.138
		l1.728,10.184c0.319,1.826,1.868,2.313,2.733,2.313l6.634-0.002c1.887-0.161,2.174-2.529,2.172-2.558l2.322-8.752
		C30,13.885,35.492,13.19,41.842,11.719c2.205,3.362,3.498,7.374,3.498,11.687C45.34,35.19,35.752,44.778,23.967,44.778z"/>
	<path fill="#414042" d="M29.027,31.403H18.903c-0.276,0-0.5,0.224-0.5,0.5s0.224,0.5,0.5,0.5h10.125c0.277,0,0.5-0.224,0.5-0.5
		S29.305,31.403,29.027,31.403z"/>
	<path fill="#414042" d="M29.717,14.697c-2.146,0-3.893,2.407-3.893,5.365s1.746,5.365,3.893,5.365c2.145,0,3.891-2.407,3.891-5.365
		S31.861,14.697,29.717,14.697z M29.717,24.428c-1.596,0-2.893-1.958-2.893-4.365s1.297-4.365,2.893-4.365
		c1.594,0,2.891,1.958,2.891,4.365S31.311,24.428,29.717,24.428z"/>
	<ellipse fill="#414042" cx="29.717" cy="19.761" rx="1.666" ry="1.686"/>
</g>
</svg>
