<?xml version="1.0" encoding="utf-8"?>
<!-- Generator: Adobe Illustrator 16.0.0, SVG Export Plug-In . SVG Version: 6.00 Build 0)  -->
<!DOCTYPE svg PUBLIC "-//W3C//DTD SVG 1.1//EN" "http://www.w3.org/Graphics/SVG/1.1/DTD/svg11.dtd">
<svg version="1.1" id="Layer_1" xmlns="http://www.w3.org/2000/svg" xmlns:xlink="http://www.w3.org/1999/xlink" x="0px" y="0px"
	 width="48px" height="48px" viewBox="0 0 48 48" enable-background="new 0 0 48 48" xml:space="preserve">
<g>
	<path fill="#414042" d="M23.363,1.028c-12.338,0-22.377,10.038-22.377,22.377c0,12.337,10.039,22.373,22.377,22.373
		s22.373-10.036,22.373-22.373C45.736,11.066,35.701,1.028,23.363,1.028z M23.363,44.778c-11.787,0-21.377-9.588-21.377-21.373
		c0-11.787,9.59-21.377,21.377-21.377c11.785,0,21.373,9.59,21.373,21.377C44.736,35.19,35.148,44.778,23.363,44.778z"/>
	<path fill="#414042" d="M24.074,26.636c-3.4,0-6.168,3.744-6.168,8.346c0,0.276,0.225,0.5,0.5,0.5h11.338c0.006,0,0.014,0,0.02,0
		c0.275,0,0.5-0.224,0.5-0.5c0-0.05-0.008-0.098-0.021-0.144C30.186,30.302,27.441,26.636,24.074,26.636z M18.918,34.481
		c0.182-3.818,2.426-6.846,5.156-6.846c2.732,0,4.977,3.027,5.158,6.846H18.918z"/>
	<path fill="#414042" d="M29.363,11.62c-2.146,0-3.893,2.407-3.893,5.365s1.746,5.365,3.893,5.365c2.145,0,3.891-2.407,3.891-5.365
		S31.508,11.62,29.363,11.62z M29.363,21.351c-1.596,0-2.893-1.958-2.893-4.365s1.297-4.365,2.893-4.365
		c1.594,0,2.891,1.958,2.891,4.365S30.957,21.351,29.363,21.351z"/>
	<path fill="#414042" d="M21.254,16.985c0-2.958-1.745-5.365-3.891-5.365c-2.146,0-3.893,2.407-3.893,5.365s1.746,5.365,3.893,5.365
		C19.509,22.351,21.254,19.943,21.254,16.985z M17.363,21.351c-1.596,0-2.893-1.958-2.893-4.365s1.297-4.365,2.893-4.365
		c1.594,0,2.891,1.958,2.891,4.365S18.957,21.351,17.363,21.351z"/>
	<ellipse fill="#414042" cx="29.225" cy="16.332" rx="1.666" ry="1.686"/>
	<path fill="#414042" d="M17.367,14.731c-0.918,0-1.664,0.753-1.664,1.686c0,0.93,0.746,1.686,1.664,1.686
		c0.922,0,1.666-0.756,1.666-1.686C19.033,15.484,18.289,14.731,17.367,14.731z"/>
</g>
</svg>
