<?xml version="1.0" encoding="utf-8"?>
<!-- Generator: Adobe Illustrator 16.0.0, SVG Export Plug-In . SVG Version: 6.00 Build 0)  -->
<!DOCTYPE svg PUBLIC "-//W3C//DTD SVG 1.1//EN" "http://www.w3.org/Graphics/SVG/1.1/DTD/svg11.dtd">
<svg version="1.1" id="Layer_1" xmlns="http://www.w3.org/2000/svg" xmlns:xlink="http://www.w3.org/1999/xlink" x="0px" y="0px"
	 width="48px" height="48px" viewBox="0 0 48 48" enable-background="new 0 0 48 48" xml:space="preserve">
<g>
	<path fill="#414042" d="M23.76,0.911c-12.404,0-22.494,10.091-22.494,22.494c0,12.401,10.09,22.49,22.494,22.49
		c12.4,0,22.49-10.089,22.49-22.49C46.25,11.002,36.16,0.911,23.76,0.911z M23.76,44.896c-11.852,0-21.494-9.641-21.494-21.49
		c0-11.852,9.643-21.494,21.494-21.494c11.85,0,21.49,9.643,21.49,21.494C45.25,35.255,35.609,44.896,23.76,44.896z"/>
	<path fill="#414042" d="M39.373,16.349h-2.857c-0.007,0-0.014-0.004-0.021-0.004h-0.002l-3.747,0.004h-6.626
		c-0.277,0-0.5,0.224-0.5,0.5s0.223,0.5,0.5,0.5h2.31c-0.019,0.19-0.028,0.382-0.028,0.61c0,3.316,1.949,6.015,4.346,6.015
		s4.346-2.698,4.346-6.015c0-0.254-0.005-0.435-0.021-0.61h2.302c0.277,0,0.5-0.224,0.5-0.5S39.65,16.349,39.373,16.349z
		 M36.092,17.959c0,2.765-1.5,5.015-3.346,5.015c-1.844,0-3.346-2.25-3.346-5.015c0-0.229,0.012-0.412,0.033-0.606l1.427-0.002
		c0.005,1.356,0.848,2.456,1.886,2.456c1.043,0,1.884-1.101,1.888-2.458h1.433C36.086,17.527,36.092,17.692,36.092,17.959z"/>
	<path fill="#414042" d="M27.725,34.979h-8.281c-0.275,0-0.5,0.224-0.5,0.5s0.225,0.5,0.5,0.5h8.281c0.275,0,0.5-0.224,0.5-0.5
		S28,34.979,27.725,34.979z"/>
	<path fill="#414042" d="M19.382,17.349h2.296c0.277,0,0.5-0.224,0.5-0.5s-0.223-0.5-0.5-0.5h-2.852
		c-0.007,0-0.014-0.004-0.021-0.004h-0.002l-3.747,0.004h-6.62c-0.277,0-0.5,0.224-0.5,0.5s0.223,0.5,0.5,0.5h2.304
		c-0.019,0.19-0.028,0.382-0.028,0.61c0,3.316,1.949,6.015,4.346,6.015s4.346-2.698,4.346-6.015
		C19.402,17.705,19.397,17.524,19.382,17.349z M15.057,22.974c-1.844,0-3.346-2.25-3.346-5.015c0-0.229,0.012-0.412,0.033-0.606
		l1.427-0.002c0.005,1.356,0.848,2.456,1.886,2.456c1.043,0,1.884-1.101,1.888-2.458h1.433c0.02,0.178,0.025,0.344,0.025,0.61
		C18.402,20.724,16.902,22.974,15.057,22.974z"/>
</g>
</svg>
