<?xml version="1.0" encoding="utf-8"?>
<!-- Generator: Adobe Illustrator 16.0.0, SVG Export Plug-In . SVG Version: 6.00 Build 0)  -->
<!DOCTYPE svg PUBLIC "-//W3C//DTD SVG 1.1//EN" "http://www.w3.org/Graphics/SVG/1.1/DTD/svg11.dtd">
<svg version="1.1" id="Layer_1" xmlns="http://www.w3.org/2000/svg" xmlns:xlink="http://www.w3.org/1999/xlink" x="0px" y="0px"
	 width="48px" height="48px" viewBox="0 0 48 48" enable-background="new 0 0 48 48" xml:space="preserve">
<g>
	<path fill="#414042" d="M24.156,1.028c-12.338,0-22.377,10.038-22.377,22.377c0,12.337,10.039,22.373,22.377,22.373
		s22.373-10.036,22.373-22.373C46.529,11.066,36.494,1.028,24.156,1.028z M24.156,44.778c-11.787,0-21.377-9.588-21.377-21.373
		c0-11.787,9.59-21.377,21.377-21.377c11.785,0,21.373,9.59,21.373,21.377C45.529,35.19,35.941,44.778,24.156,44.778z"/>
	<path fill="#414042" d="M29.344,25.122c2.146,0,3.891-2.407,3.891-5.365s-1.744-5.365-3.891-5.365s-3.893,2.407-3.893,5.365
		S27.197,25.122,29.344,25.122z M29.344,15.392c1.594,0,2.891,1.958,2.891,4.365c0,1.235-0.345,2.347-0.893,3.141
		c0.059-0.226,0.1-0.46,0.1-0.708c0-1.344-0.924-2.434-2.066-2.434c-1.141,0-2.064,1.09-2.064,2.434c0,0.293,0.051,0.57,0.132,0.83
		c-0.603-0.801-0.991-1.959-0.991-3.263C26.451,17.35,27.75,15.392,29.344,15.392z"/>
	<path fill="#414042" d="M17.344,25.122c2.146,0,3.891-2.407,3.891-5.365s-1.744-5.365-3.891-5.365s-3.893,2.407-3.893,5.365
		S15.197,25.122,17.344,25.122z M17.344,15.392c1.594,0,2.891,1.958,2.891,4.365c0,1.235-0.345,2.347-0.893,3.141
		c0.059-0.226,0.1-0.46,0.1-0.708c0-1.344-0.924-2.434-2.066-2.434c-1.141,0-2.064,1.09-2.064,2.434c0,0.293,0.051,0.57,0.132,0.83
		c-0.603-0.801-0.991-1.959-0.991-3.263C14.451,17.35,15.75,15.392,17.344,15.392z"/>
	<path fill="#414042" d="M34.465,29.766c-0.248-0.13-0.545-0.033-0.674,0.211c-0.063,0.12-1.024,1.869-3.441,3.241l-0.004-0.021
		l-0.629,0.35c-1.392,0.677-3.194,1.201-5.491,1.294l-0.345,0.002l0.003,0.015c-7.278-0.177-9.739-4.686-9.841-4.881
		c-0.129-0.244-0.428-0.341-0.676-0.211c-0.244,0.128-0.338,0.429-0.211,0.673c0.109,0.213,2.691,5.012,10.193,5.4
		c0.049,0.017,0.102,0.025,0.156,0.025h0.607c0.617,2.534,1.805,5.349,4.043,5.349c0.139,0,0.281-0.012,0.408-0.032
		c0.082-0.01,0.826-0.123,1.447-0.983c0.866-1.199,1.039-3.206,0.535-5.952c2.905-1.548,4.058-3.667,4.131-3.807
		C34.805,30.194,34.709,29.894,34.465,29.766z M29.23,39.57c-0.371,0.541-0.781,0.616-0.807,0.62
		c-1.824,0.314-2.844-2.63-3.293-4.383c0.91-0.072,2.686-0.31,4.49-1.096C30.098,37.535,29.684,38.909,29.23,39.57z"/>
</g>
</svg>
