<?xml version="1.0" encoding="utf-8"?>
<!-- Generator: Adobe Illustrator 16.0.0, SVG Export Plug-In . SVG Version: 6.00 Build 0)  -->
<!DOCTYPE svg PUBLIC "-//W3C//DTD SVG 1.1//EN" "http://www.w3.org/Graphics/SVG/1.1/DTD/svg11.dtd">
<svg version="1.1" id="Layer_1" xmlns="http://www.w3.org/2000/svg" xmlns:xlink="http://www.w3.org/1999/xlink" x="0px" y="0px"
	 width="48px" height="48px" viewBox="0 0 48 48" enable-background="new 0 0 48 48" xml:space="preserve">
<g>
	<path fill="#414042" d="M23.521,1.703c-12.222,0-22.165,9.943-22.165,22.166c0,2.488,0.415,4.926,1.221,7.254
		c-0.358,0.487-0.645,1.097-0.81,1.859c-0.007,0.035-0.011,0.07-0.011,0.105v7.262c0,0.111,0.037,0.219,0.105,0.307
		c0.396,0.51,3.937,4.979,6.242,4.979h4.387c0.051,0,0.101-0.008,0.148-0.021c0.106-0.033,1.255-0.404,2.589-1.282
		c0.055,0.08,0.126,0.15,0.223,0.188c2.567,1.004,5.283,1.514,8.07,1.514c12.221,0,22.165-9.941,22.165-22.164
		S35.742,1.703,23.521,1.703z M12.408,44.635H8.103c-1.336,0-3.938-2.678-5.348-4.457v-7.035c0.564-2.473,2.623-2.754,3.511-2.756
		l0.397,5.277c-0.536,0.363-1.018,0.523-1.394,0.467c-0.23-0.035-0.38-0.146-0.456-0.219l-0.27-2.373
		c-0.031-0.273-0.277-0.467-0.553-0.439c-0.274,0.031-0.472,0.279-0.44,0.553l0.286,2.523c0.008,0.076,0.035,0.15,0.077,0.215
		c0.039,0.061,0.4,0.588,1.163,0.721c0.115,0.021,0.233,0.031,0.353,0.031c0.543,0,1.131-0.221,1.751-0.633
		c0.196,0.184,0.505,0.402,0.976,0.484c0.121,0.021,0.245,0.031,0.371,0.031c0.668,0,1.399-0.299,2.179-0.891
		c0.135-0.102,0.208-0.266,0.196-0.436l-0.097-1.291c0.073,0.016,0.148,0.018,0.224-0.002c0.267-0.072,0.426-0.346,0.355-0.613
		L10.17,29.24c-0.002-0.012-0.005-0.023-0.009-0.035l-1.143-4.598c0.083-0.27,0.239-0.629,0.487-0.705
		c0.191-0.059,0.45,0.039,0.655,0.156l1.079,2.438l3.574,9.25c0.078,0.199,0.258,0.34,0.491,0.318
		c0.216-0.01,0.399-0.158,0.458-0.365c0.42-1.516,1.01-2.449,1.661-2.633c0.437-0.117,0.86,0.109,1.079,0.262l0.005,4.555
		C17.792,42.594,13.033,44.416,12.408,44.635z M9.883,35.496C9.295,35.9,8.77,36.072,8.349,36.014
		c-0.26-0.041-0.428-0.168-0.511-0.25l-0.575-5.598c0.392-0.238,1.252-0.676,2-0.445l0.321,1.205
		c-0.023,0.064-0.035,0.133-0.029,0.205L9.883,35.496z M11.07,23.477c0.018-0.211,0.058-0.529,0.155-0.846
		c0.272-0.881,0.712-0.881,0.857-0.881c0.221,0,0.485,0.078,0.788,0.232l-0.228,5.215l-0.475-1.074l-0.941-2.434
		c-0.029-0.074-0.075-0.141-0.135-0.195C11.089,23.492,11.076,23.482,11.07,23.477z M23.521,45.033c-2.558,0-5.05-0.461-7.416-1.347
		c1.493-1.198,2.99-3.03,3.397-5.729v-4.869c0-0.059-0.015-0.114-0.035-0.168c1.134,0.381,2.392,0.641,3.788,0.641
		c2.928,0,6.403-1.08,10.286-4.254c0.213-0.174,0.246-0.488,0.07-0.703c-0.176-0.213-0.49-0.246-0.703-0.07
		c-8.605,7.031-14.895,3.371-17.877,0.563c-0.201-0.189-0.518-0.18-0.707,0.021s-0.18,0.518,0.021,0.707
		c0.711,0.669,1.771,1.512,3.112,2.232c-0.097,0.01-0.192,0.018-0.292,0.045c-0.771,0.211-1.41,0.887-1.908,2.016l-1.76-4.553
		c0.028-0.061,0.049-0.123,0.052-0.191l0.333-7.656c0.008-0.184-0.084-0.355-0.242-0.451c-0.576-0.346-1.086-0.516-1.558-0.516
		c-0.493,0-1.386,0.207-1.813,1.586c-0.067,0.219-0.112,0.432-0.143,0.627c-0.278-0.082-0.591-0.115-0.909-0.02
		c-0.574,0.174-0.978,0.688-1.2,1.527c-0.021,0.08-0.022,0.166-0.002,0.248l0.976,3.941c-1.035-0.084-2,0.48-2.382,0.734
		c-0.883-0.072-2.183,0.112-3.236,0.92c-0.664-2.077-1.017-4.238-1.018-6.445c0-11.67,9.495-21.166,21.165-21.166
		c11.67,0,21.165,9.496,21.165,21.166S35.191,45.033,23.521,45.033z"/>
	<path fill="#414042" d="M29.521,10.646c-2.146,0-3.893,2.408-3.893,5.365c0,2.959,1.746,5.365,3.893,5.365s3.893-2.406,3.893-5.365
		C33.414,13.055,31.668,10.646,29.521,10.646z M31.473,19.213c0.068-0.243,0.115-0.498,0.115-0.768c0-1.344-0.926-2.432-2.066-2.432
		s-2.066,1.088-2.066,2.432c0,0.271,0.047,0.526,0.116,0.77c-0.575-0.798-0.942-1.933-0.942-3.204c0-2.406,1.297-4.365,2.893-4.365
		c1.594,0,2.893,1.959,2.893,4.365C32.414,17.281,32.047,18.415,31.473,19.213z"/>
	<path fill="#414042" d="M17.521,10.646c-2.146,0-3.893,2.408-3.893,5.365c0,2.959,1.746,5.365,3.893,5.365s3.893-2.406,3.893-5.365
		C21.414,13.055,19.667,10.646,17.521,10.646z M19.472,19.213c0.069-0.243,0.115-0.498,0.115-0.768c0-1.344-0.925-2.432-2.066-2.432
		c-1.141,0-2.065,1.088-2.065,2.432c0,0.271,0.046,0.526,0.116,0.77c-0.576-0.798-0.943-1.933-0.943-3.204
		c0-2.406,1.298-4.365,2.893-4.365s2.893,1.959,2.893,4.365C20.414,17.281,20.047,18.415,19.472,19.213z"/>
</g>
</svg>
