<?xml version="1.0" encoding="utf-8"?>
<!-- Generator: Adobe Illustrator 16.0.0, SVG Export Plug-In . SVG Version: 6.00 Build 0)  -->
<!DOCTYPE svg PUBLIC "-//W3C//DTD SVG 1.1//EN" "http://www.w3.org/Graphics/SVG/1.1/DTD/svg11.dtd">
<svg version="1.1" id="Layer_1" xmlns="http://www.w3.org/2000/svg" xmlns:xlink="http://www.w3.org/1999/xlink" x="0px" y="0px"
	 width="48px" height="48px" viewBox="0 0 48 48" enable-background="new 0 0 48 48" xml:space="preserve">
<g>
	<path fill="#414042" d="M23.876,1.756c-12.191,0-22.111,9.92-22.111,22.113c0,2.74,0.553,5.404,1.293,7.641
		c0.028,0.083,0.08,0.148,0.14,0.204c-0.586,0.681-1.019,1.688-1.019,3.196v5.504c0,0.111,0.037,0.219,0.105,0.307
		c0.396,0.51,3.937,4.979,6.242,4.979h4.387c0.051,0,0.1-0.008,0.148-0.023c0.105-0.033,1.232-0.398,2.549-1.257
		c2.037,1.013,5.712,1.562,8.266,1.562c12.194,0,22.114-9.918,22.114-22.111S36.07,1.756,23.876,1.756z M12.832,44.699H8.527
		c-1.336,0-3.939-2.68-5.348-4.459v-5.33c0-3.385,2.605-3.588,3.208-3.592l0.276,4.453C5.734,36.316,5.207,36.104,5,35.961
		L4.88,33.975c-0.017-0.275-0.254-0.5-0.529-0.469c-0.275,0.016-0.485,0.252-0.469,0.529l0.131,2.188
		c0.006,0.104,0.045,0.205,0.112,0.285c0.231,0.283,0.734,0.609,1.449,0.609c0.434,0,0.95-0.133,1.526-0.455
		c0.332,0.275,0.817,0.516,1.438,0.516c0.449,0,0.97-0.139,1.541-0.465c0.225,0.129,0.555,0.254,0.999,0.254
		c0.535,0,1.231-0.184,2.091-0.768c0.146-0.1,0.229-0.268,0.219-0.443l-0.385-6.6l-0.053-5.303c0.296-0.469,0.623-0.705,0.973-0.705
		c0.479,0,0.981,0.408,1.236,0.668l0.045,11.814c0,0.25,0.186,0.459,0.434,0.492c0.245,0.041,0.48-0.119,0.548-0.361
		c0.478-1.719,1.159-2.666,1.919-2.666c0.34,0,0.646,0.174,0.821,0.297l0.005,4.553C18.216,42.656,13.457,44.479,12.832,44.699z
		 M7.353,30.854c0.32-0.15,0.725-0.293,1.137-0.293c0.229,0,0.438,0.049,0.627,0.137l0.465,5.148
		c-1.066,0.607-1.693,0.201-1.912-0.012l-0.307-4.947C7.361,30.875,7.355,30.865,7.353,30.854z M10.044,30.123
		c0.252-0.336,0.705-0.789,1.32-0.789c0.207,0,0.43,0.068,0.658,0.168l0.35,6.021c-1.009,0.611-1.57,0.451-1.787,0.334L10.08,30.24
		C10.076,30.197,10.058,30.16,10.044,30.123z M23.876,44.98c-2.268,0-5.424-0.456-7.345-1.234c1.492-1.198,2.986-3.028,3.394-5.725
		v-4.869c0-0.137-0.055-0.266-0.152-0.361c-0.074-0.07-0.749-0.695-1.668-0.695c-0.744,0-1.383,0.383-1.91,1.143l-0.035-9.617
		c-0.001-0.115-0.041-0.227-0.114-0.316c-0.02-0.024-0.08-0.092-0.16-0.175c0.618,0.569,1.359,0.904,2.157,0.904
		c2.146,0,3.893-2.406,3.893-5.365c0-2.957-1.746-5.365-3.893-5.365s-3.893,2.408-3.893,5.365c0,1.82,0.664,3.425,1.671,4.396
		c-0.347-0.343-1.053-0.915-1.898-0.915c-0.522,0-1.277,0.229-1.906,1.318c-0.045,0.076-0.068,0.164-0.067,0.254l0.047,4.699
		c-0.212-0.057-0.423-0.086-0.632-0.086c-1.127,0-1.861,0.807-2.211,1.313C8.942,29.59,8.72,29.561,8.49,29.561
		c-0.986,0-1.883,0.531-2.224,0.76c-0.373,0.014-1.384,0.111-2.307,0.719c-0.683-2.12-1.194-4.951-1.194-7.17
		c0-11.641,9.471-21.113,21.111-21.113c11.643,0,21.114,9.473,21.114,21.113S35.52,44.98,23.876,44.98z M15.15,18.668
		c0-2.406,1.299-4.365,2.893-4.365c1.596,0,2.893,1.959,2.893,4.365c0,2.408-1.297,4.365-2.893,4.365
		C16.449,23.033,15.15,21.076,15.15,18.668z"/>
	<path fill="#414042" d="M28.225,30.008h-8.364c-0.275,0-0.5,0.225-0.5,0.5c0,0.277,0.225,0.5,0.5,0.5h8.364
		c0.277,0,0.5-0.223,0.5-0.5C28.725,30.232,28.502,30.008,28.225,30.008z"/>
	<path fill="#414042" d="M26.059,11.447h5.676c0.275,0,0.5-0.223,0.5-0.5c0-0.275-0.225-0.5-0.5-0.5h-5.676
		c-0.277,0-0.5,0.225-0.5,0.5C25.559,11.225,25.781,11.447,26.059,11.447z"/>
	<path fill="#414042" d="M22.197,10.947c0-0.275-0.223-0.5-0.5-0.5h-5.676c-0.275,0-0.5,0.225-0.5,0.5c0,0.277,0.225,0.5,0.5,0.5
		h5.676C21.974,11.447,22.197,11.225,22.197,10.947z"/>
	<path fill="#414042" d="M30.043,13.303c-2.146,0-3.893,2.408-3.893,5.365c0,2.959,1.746,5.365,3.893,5.365s3.893-2.406,3.893-5.365
		C33.936,15.711,32.189,13.303,30.043,13.303z M30.043,23.033c-1.594,0-2.893-1.957-2.893-4.365c0-2.406,1.299-4.365,2.893-4.365
		c1.596,0,2.893,1.959,2.893,4.365C32.936,21.076,31.639,23.033,30.043,23.033z"/>
	<ellipse fill="#414042" cx="18.042" cy="18.668" rx="1.586" ry="1.867"/>
	<ellipse fill="#414042" cx="30.148" cy="18.668" rx="1.586" ry="1.867"/>
</g>
</svg>
