<?xml version="1.0" encoding="utf-8"?>
<!-- Generator: Adobe Illustrator 16.0.0, SVG Export Plug-In . SVG Version: 6.00 Build 0)  -->
<!DOCTYPE svg PUBLIC "-//W3C//DTD SVG 1.1//EN" "http://www.w3.org/Graphics/SVG/1.1/DTD/svg11.dtd">
<svg version="1.1" id="Layer_1" xmlns="http://www.w3.org/2000/svg" xmlns:xlink="http://www.w3.org/1999/xlink" x="0px" y="0px"
	 width="48px" height="48px" viewBox="0 0 48 48" enable-background="new 0 0 48 48" xml:space="preserve">
<g>
	<path fill="#414042" d="M24.233,1.703c-12.221,0-22.164,9.943-22.164,22.166c0,2.123,0.303,6.247,1.395,8.701
		c-1.564,3.686-0.031,7.479,0.049,7.672c0.02,0.047,0.046,0.09,0.078,0.129l2.764,3.295c1.145,1.363,4.838,1.566,6.939,1.566
		c0.457,0,0.741-0.01,0.741-0.01c0.11-0.006,0.218-0.047,0.303-0.117l1.17-0.982c2.349,1.25,6.101,1.91,8.726,1.91
		c12.223,0,22.166-9.941,22.166-22.164S36.456,1.703,24.233,1.703z M13.829,44.227c-0.123,0.004-0.307,0.006-0.535,0.006
		c-3.182,0-5.547-0.463-6.173-1.209l-2.712-3.232c-0.189-0.5-1.316-3.74-0.052-6.799c0.102-0.092,0.16-0.217,0.164-0.352
		c0.266-0.557,0.605-1.104,1.061-1.621l3.471-2.914c0.251,0.068,0.68,0.236,0.862,0.635c0.276,0.6-0.053,1.629-0.926,2.9
		c-0.142,0.205-0.109,0.482,0.073,0.65c0.185,0.17,0.464,0.178,0.656,0.02l7.988-6.541c0.232-0.025,0.78-0.037,1.113,0.316
		c0.23,0.242,0.34,0.639,0.341,1.166l-7.812,6.533c-0.211,0.178-0.239,0.494-0.063,0.705c0.1,0.119,0.241,0.18,0.385,0.18
		c0.112,0,0.227-0.039,0.32-0.117l7.99-6.684l0.852-0.713c0.31,0.023,0.99,0.129,1.299,0.574c0.229,0.332,0.228,0.832-0.002,1.486
		l-0.561,0.469c-0.021,0.018-0.023,0.045-0.04,0.066l-8.888,7.434c-0.213,0.178-0.24,0.494-0.063,0.705
		c0.098,0.119,0.24,0.18,0.383,0.18c0.113,0,0.227-0.039,0.32-0.117l8.816-7.373c0.314,0.027,0.947,0.135,1.236,0.555
		c0.227,0.326,0.227,0.82,0.002,1.471l-0.912,0.766l-7.848,6.574c-0.211,0.178-0.239,0.492-0.063,0.705
		c0.1,0.117,0.241,0.178,0.385,0.178c0.113,0,0.227-0.037,0.32-0.117l7.654-6.412c0.348,0.094,0.59,0.252,0.711,0.479
		c0.217,0.404,0.076,0.996-0.031,1.287L13.829,44.227z M24.233,45.033c-2.309,0-5.688-0.564-7.894-1.607l7.953-6.676
		c0.059-0.047,0.104-0.107,0.135-0.176c0.059-0.129,0.557-1.291,0.043-2.262c-0.164-0.311-0.408-0.559-0.727-0.742l0.093-0.078
		c0.081,0.056,0.173,0.096,0.278,0.096c0.004,0,0.006,0,0.008,0c3.309-0.051,6.717-1.49,10.131-4.281
		c0.215-0.174,0.246-0.488,0.07-0.703c-0.174-0.215-0.488-0.244-0.703-0.07c-3.14,2.567-6.247,3.916-9.243,4.036
		c0.206-0.803,0.143-1.48-0.22-2.003c-0.3-0.436-0.742-0.68-1.161-0.818c0.009-0.018,0.018-0.037,0.024-0.057
		c0.396-1.039,0.374-1.891-0.065-2.527c-0.665-0.965-2.011-1.016-2.304-1.016c-0.001,0-0.002,0-0.002,0
		c-0.113,0.004-0.224,0.045-0.311,0.117l-0.25,0.209c-0.095-0.436-0.276-0.797-0.543-1.078c-0.813-0.855-2.1-0.602-2.158-0.588
		c-0.077,0.016-0.148,0.051-0.21,0.102l-6.288,5.148c0.18-0.666,0.158-1.248-0.067-1.736c-0.504-1.096-1.8-1.244-1.854-1.25
		c-0.133-0.014-0.271,0.027-0.375,0.113l-3.709,3.121C4.57,30.662,4.313,31.029,4.08,31.4c-0.689-2.086-1.011-5.2-1.011-7.531
		c0-11.67,9.494-21.166,21.164-21.166c11.672,0,21.166,9.496,21.166,21.166S35.905,45.033,24.233,45.033z"/>
	<path fill="#414042" d="M17.808,9.008c-2.723,0.098-4.533,2.887-4.608,3.006c-0.148,0.232-0.081,0.541,0.151,0.689
		s0.542,0.08,0.691-0.152c0.016-0.023,1.609-2.467,3.805-2.543c1.356-0.031,2.707,0.818,4.013,2.572
		c0.099,0.133,0.249,0.201,0.401,0.201c0.104,0,0.209-0.031,0.299-0.098c0.221-0.166,0.267-0.479,0.102-0.701
		C21.146,9.947,19.521,8.939,17.808,9.008z"/>
	<path fill="#414042" d="M29.808,9.008c-2.723,0.098-4.533,2.887-4.609,3.006c-0.148,0.232-0.08,0.541,0.152,0.689
		s0.541,0.08,0.691-0.152c0.016-0.023,1.609-2.467,3.805-2.543c1.357-0.045,2.705,0.818,4.012,2.572
		c0.1,0.133,0.25,0.201,0.402,0.201c0.104,0,0.209-0.031,0.299-0.098c0.221-0.166,0.268-0.479,0.102-0.701
		C33.146,9.947,31.499,8.936,29.808,9.008z"/>
	<path fill="#414042" d="M30.233,12.781c-2.146,0-3.893,2.408-3.893,5.365c0,2.959,1.746,5.365,3.893,5.365s3.893-2.406,3.893-5.365
		C34.126,15.189,32.38,12.781,30.233,12.781z M31.992,21.588c0.119-0.308,0.19-0.647,0.19-1.008c0-1.344-0.924-2.434-2.066-2.434
		c-1.141,0-2.064,1.09-2.064,2.434c0,0.163,0.015,0.321,0.04,0.475c-0.461-0.773-0.751-1.787-0.751-2.908
		c0-2.406,1.299-4.365,2.893-4.365c1.596,0,2.893,1.959,2.893,4.365C33.126,19.552,32.677,20.79,31.992,21.588z"/>
	<path fill="#414042" d="M18.233,12.781c-2.146,0-3.893,2.408-3.893,5.365c0,2.959,1.746,5.365,3.893,5.365s3.893-2.406,3.893-5.365
		C22.126,15.189,20.38,12.781,18.233,12.781z M19.992,21.588c0.12-0.308,0.19-0.647,0.19-1.008c0-1.344-0.924-2.434-2.066-2.434
		c-1.141,0-2.065,1.09-2.065,2.434c0,0.162,0.015,0.319,0.041,0.473c-0.461-0.773-0.75-1.786-0.75-2.906
		c0-2.406,1.299-4.365,2.893-4.365c1.596,0,2.893,1.959,2.893,4.365C21.126,19.552,20.677,20.79,19.992,21.588z"/>
</g>
</svg>
