<?xml version="1.0" encoding="utf-8"?>
<!-- Generator: Adobe Illustrator 16.0.0, SVG Export Plug-In . SVG Version: 6.00 Build 0)  -->
<!DOCTYPE svg PUBLIC "-//W3C//DTD SVG 1.1//EN" "http://www.w3.org/Graphics/SVG/1.1/DTD/svg11.dtd">
<svg version="1.1" id="Layer_1" xmlns="http://www.w3.org/2000/svg" xmlns:xlink="http://www.w3.org/1999/xlink" x="0px" y="0px"
	 width="48px" height="48px" viewBox="0 0 48 48" enable-background="new 0 0 48 48" xml:space="preserve">
<g>
	<path fill="#414042" d="M32.979,28.229c-4.223,3.449-8.342,4.709-12.248,3.742c-0.271-0.068-0.539,0.098-0.605,0.365
		s0.098,0.539,0.365,0.605c0.934,0.232,1.877,0.348,2.828,0.348c3.354,0,6.803-1.436,10.293-4.287
		c0.213-0.176,0.244-0.49,0.07-0.703C33.506,28.084,33.191,28.053,32.979,28.229z"/>
	<path fill="#414042" d="M21.33,20.141c0.098,0.131,0.248,0.201,0.4,0.201c0.105,0,0.209-0.033,0.299-0.1
		c0.223-0.164,0.268-0.479,0.104-0.699c-2.539-3.408-4.943-3.283-6.514-2.574c-0.252,0.113-0.365,0.41-0.252,0.662
		c0.115,0.252,0.412,0.363,0.662,0.25C17.828,17.068,19.611,17.832,21.33,20.141z"/>
	<path fill="#414042" d="M30.045,16.564c-0.01,0-0.02,0-0.031,0c-2.922,0.021-5.012,2.863-5.1,2.984
		c-0.162,0.223-0.111,0.535,0.111,0.697c0.09,0.064,0.191,0.096,0.293,0.096c0.154,0,0.309-0.072,0.406-0.207
		c0.018-0.025,1.873-2.553,4.297-2.57c0.008,0,0.016,0,0.023,0c1.412,0,2.771,0.867,4.045,2.576
		c0.166,0.221,0.479,0.266,0.699,0.102c0.223-0.164,0.268-0.479,0.104-0.699C33.42,17.566,31.789,16.564,30.045,16.564z"/>
	<path fill="#414042" d="M23.592,1.602c-12.223,0-22.166,9.943-22.166,22.166c0,1.688,0.201,4.632,0.826,7.007v0.341
		c0,0,0.004,0.014,0.004,0.021c0,0-0.004,0.012-0.002,0.018c0.477,6.041,0.797,7.111,0.811,7.129
		c0.658,4.252,1.672,7.473,1.682,7.504c0.066,0.209,0.26,0.35,0.477,0.35h7.303c0.248,0,0.461-0.184,0.494-0.432l0.221-1.57
		c0.261-0.161,0.498-0.337,0.722-0.518c0.033,0.035,0.064,0.07,0.108,0.096c2.316,1.363,6.777,2.219,9.521,2.219
		c12.221,0,22.164-9.943,22.164-22.164C45.756,11.545,35.813,1.602,23.592,1.602z M11.547,43.844
		c-0.26,0.092-0.396,0.377-0.303,0.639c0.072,0.203,0.266,0.332,0.471,0.332c0.055,0,0.111-0.01,0.168-0.029
		c0.096-0.035,0.18-0.076,0.273-0.113l-0.066,0.465H5.594c-0.273-0.934-1.023-3.65-1.559-7.082c-0.014-0.043-0.32-1.104-0.783-6.953
		L3.25,26.141c0.063-0.828,0.352-2.178,0.771-2.445c0.043-0.025,0.086-0.045,0.189-0.008c0.064,0.025,0.094,0.035,0.152,0.031
		c0.006,0.002,0.721,0.199,0.855,2.654l0.404,4.91c0.021,0.262,0.24,0.459,0.496,0.459c0.016,0,0.029,0,0.043-0.002
		c0.275-0.021,0.479-0.264,0.457-0.539L6.33,27.697c0.146-0.664,1.283-5.74,2.131-7.355c0.076-0.145,0.258-0.246,0.5-0.277
		c0.256-0.035,0.525,0.02,0.721,0.137c-0.561,4.381-0.875,5.205-1.271,6.242c-0.193,0.502-0.412,1.072-0.682,2.076
		c-0.072,0.268,0.086,0.541,0.352,0.613c0.043,0.012,0.088,0.018,0.131,0.018c0.221,0,0.422-0.146,0.482-0.371
		c0.258-0.953,0.457-1.475,0.65-1.979c0.172-0.449,0.33-0.865,0.494-1.5l3.586-5.092c0.262-0.082,0.701-0.152,0.926,0.01
		c0.217,0.156,0.244,0.564,0.232,0.846l-3.096,6.256c-0.121,0.248-0.02,0.549,0.227,0.67c0.072,0.035,0.146,0.053,0.223,0.053
		c0.082,0,0.16-0.027,0.232-0.066c0.111,0.08,0.252,0.117,0.396,0.086c0.57-0.125,1.73,0.338,2.609,0.787
		c-0.248,0.285-0.545,0.68-0.787,1.162c-2.32-0.559-4.012-0.398-5.025,0.479c-1.051,0.908-0.934,2.219-0.932,2.219
		c-0.008,0.828,0.26,1.494,0.795,1.982c0.795,0.723,1.973,0.828,2.594,0.828c0.238,0,0.396-0.016,0.418-0.018
		c0.059-0.006,0.117-0.023,0.17-0.051c0.932-0.465,2.334-2.313,2.492-2.521c0.088-0.117,0.119-0.27,0.086-0.412
		c-0.393-1.684,0.973-3.072,1.268-3.35c0.084-0.021,0.25-0.043,0.414,0.057c0.201,0.123,0.553,0.52,0.664,1.809
		c0.006,0.07,0.027,0.141,0.061,0.201c0.012,0.02,1.027,1.883-0.313,3.781c-0.021,0.027-0.037,0.059-0.051,0.09
		c-0.041,0.094-1.008,2.332-1.313,3.902C15.709,39.043,14.955,42.629,11.547,43.844z M13.963,32.506
		c-0.535,0.691-1.408,1.693-1.924,2.008c-0.334,0.02-1.492,0.027-2.141-0.563c-0.32-0.291-0.475-0.693-0.471-1.281
		c-0.002-0.035-0.064-0.869,0.598-1.432c0.432-0.369,1.088-0.553,1.941-0.553c0.596,0,1.287,0.09,2.064,0.27
		C13.912,31.428,13.871,31.949,13.963,32.506z M23.592,44.932c-2.497,0-6.699-0.794-8.879-2.012c1.545-1.655,1.959-3.6,1.984-3.719
		c0.262-1.35,1.09-3.33,1.229-3.652c1.479-2.141,0.627-4.215,0.391-4.699c-0.125-1.281-0.514-2.121-1.156-2.494
		c-0.43-0.25-0.844-0.227-1.105-0.168c-0.578-0.322-2.178-1.141-3.322-1.129l2.791-5.643c0.029-0.059,0.047-0.121,0.051-0.186
		c0.063-0.861-0.154-1.475-0.643-1.824c-0.787-0.566-1.896-0.127-2.02-0.074c-0.088,0.035-0.162,0.096-0.217,0.172l-2.381,3.383
		c0.119-0.756,0.248-1.678,0.395-2.832c0.018-0.146-0.029-0.293-0.129-0.402c-0.412-0.445-1.078-0.668-1.75-0.58
		c-0.568,0.074-1.025,0.367-1.254,0.805c-0.523,0.998-1.121,3.1-1.568,4.855c-0.393-1.701-1.184-1.975-1.527-2.008
		c-0.354-0.109-0.693-0.066-0.996,0.127c-0.559,0.356-0.864,1.197-1.034,1.947c-0.013-0.353-0.025-0.705-0.025-1.031
		c0-11.672,9.494-21.166,21.166-21.166c11.67,0,21.164,9.494,21.164,21.166C44.756,35.438,35.262,44.932,23.592,44.932z"/>
</g>
</svg>
