<?xml version="1.0" encoding="utf-8"?>
<!-- Generator: Adobe Illustrator 16.0.0, SVG Export Plug-In . SVG Version: 6.00 Build 0)  -->
<!DOCTYPE svg PUBLIC "-//W3C//DTD SVG 1.1//EN" "http://www.w3.org/Graphics/SVG/1.1/DTD/svg11.dtd">
<svg version="1.1" id="Layer_1" xmlns="http://www.w3.org/2000/svg" xmlns:xlink="http://www.w3.org/1999/xlink" x="0px" y="0px"
	 width="48px" height="48px" viewBox="0 0 48 48" enable-background="new 0 0 48 48" xml:space="preserve">
<g>
	<path fill="#414042" d="M23.949,9.959C14,9.959,5.906,18.053,5.906,28.002c0,9.947,8.094,18.041,18.043,18.041
		c9.947,0,18.039-8.094,18.039-18.041C41.988,18.053,33.896,9.959,23.949,9.959z M23.949,45.043
		c-9.396,0-17.043-7.645-17.043-17.041c0-9.398,7.646-17.043,17.043-17.043s17.039,7.645,17.039,17.043
		C40.988,37.398,33.346,45.043,23.949,45.043z"/>
	<path fill="#414042" d="M33.598,32.137c-0.258-0.1-0.547,0.029-0.648,0.285c-0.107,0.281-2.77,6.869-10.863,5.4
		c-0.266-0.047-0.531,0.129-0.582,0.402c-0.049,0.271,0.133,0.533,0.404,0.582c0.859,0.154,1.664,0.225,2.418,0.225
		c7.061,0,9.531-6.18,9.557-6.248C33.982,32.525,33.854,32.236,33.598,32.137z"/>
	<path fill="#414042" d="M22.182,14.01c0.266,0.053,0.533-0.119,0.59-0.391c0.055-0.27-0.119-0.535-0.389-0.59
		c-4.131-0.848-7.26,2.551-7.393,2.695c-0.184,0.205-0.168,0.52,0.035,0.705c0.096,0.088,0.217,0.131,0.336,0.131
		c0.137,0,0.271-0.057,0.371-0.164C15.76,16.363,18.615,13.271,22.182,14.01z"/>
	<path fill="#414042" d="M25.008,13.859c0.041-0.006,4.236-0.336,6.357,2.617c0.098,0.137,0.252,0.209,0.406,0.209
		c0.102,0,0.203-0.031,0.293-0.094c0.223-0.162,0.275-0.475,0.113-0.699c-2.461-3.424-7.07-3.045-7.26-3.029
		c-0.275,0.025-0.477,0.268-0.453,0.543C24.49,13.682,24.723,13.881,25.008,13.859z"/>
	<path fill="#414042" d="M28.367,17.025c-2.146,0-3.893,2.406-3.893,5.365c0,2.957,1.746,5.365,3.893,5.365s3.893-2.408,3.893-5.365
		C32.26,19.432,30.514,17.025,28.367,17.025z M28.367,26.756c-1.594,0-2.893-1.959-2.893-4.365c0-2.408,1.299-4.365,2.893-4.365
		c0.365,0,0.712,0.113,1.033,0.301c-0.582,0.094-1.033,0.525-1.033,1.072c0,0.611,0.561,1.109,1.25,1.109
		c0.492,0,0.907-0.259,1.11-0.625c0.333,0.711,0.532,1.573,0.532,2.508C31.26,24.797,29.963,26.756,28.367,26.756z"/>
	<path fill="#414042" d="M23.859,22.391c0-2.959-1.746-5.365-3.893-5.365s-3.893,2.406-3.893,5.365c0,2.957,1.746,5.365,3.893,5.365
		S23.859,25.348,23.859,22.391z M19.967,26.756c-1.594,0-2.893-1.959-2.893-4.365c0-2.408,1.299-4.365,2.893-4.365
		c0.597,0,1.151,0.274,1.612,0.743c-0.117-0.032-0.233-0.065-0.362-0.065c-0.689,0-1.25,0.498-1.25,1.111
		c0,0.611,0.561,1.109,1.25,1.109c0.589,0,1.058-0.369,1.19-0.855c0.282,0.674,0.452,1.466,0.452,2.322
		C22.859,24.797,21.563,26.756,19.967,26.756z"/>
	<path fill="#414042" d="M23.947,1.695c-0.818,0-20.041,0.033-20.041,2.957c0,2.875,17.99,2.959,20.041,2.959
		c2.053,0,20.041-0.084,20.041-2.959C43.988,1.729,24.766,1.695,23.947,1.695z M23.947,6.611c-11.15,0-18.152-1.135-18.998-1.959
		c0.848-0.824,7.85-1.957,18.998-1.957c11.15,0,18.152,1.133,19,1.957C42.102,5.477,35.1,6.611,23.947,6.611z"/>
</g>
</svg>
