<?xml version="1.0" encoding="utf-8"?>
<!-- Generator: Adobe Illustrator 16.0.0, SVG Export Plug-In . SVG Version: 6.00 Build 0)  -->
<!DOCTYPE svg PUBLIC "-//W3C//DTD SVG 1.1//EN" "http://www.w3.org/Graphics/SVG/1.1/DTD/svg11.dtd">
<svg version="1.1" id="Layer_1" xmlns="http://www.w3.org/2000/svg" xmlns:xlink="http://www.w3.org/1999/xlink" x="0px" y="0px"
	 width="48px" height="48px" viewBox="0 0 48 48" enable-background="new 0 0 48 48" xml:space="preserve">
<g>
	<path fill="#414042" d="M35.656,19.646h-3.063c-0.277,0-0.5,0.225-0.5,0.5c0,0.277,0.223,0.5,0.5,0.5h3.063
		c0.275,0,0.5-0.223,0.5-0.5C36.156,19.871,35.932,19.646,35.656,19.646z"/>
	<path fill="#414042" d="M24.304,1.703c-12.222,0-22.165,9.943-22.165,22.166c0,2.402,0.392,5.932,1.265,8.398
		c0.01,0.027,0.023,0.057,0.038,0.082c0.931,2.51,4.2,9.381,12.82,12.18c2.293,0.744,5.041,1.504,8.043,1.504
		c12.221,0,22.165-9.941,22.165-22.164S36.525,1.703,24.304,1.703z M24.304,45.033c-2.863,0-5.516-0.736-7.734-1.455
		C7.364,40.588,4.582,32.736,4.162,31.371c-0.011-0.037-0.022-0.076-0.034-0.113c-0.016-0.055-0.023-0.084-0.025-0.09
		c-0.004-0.018-0.01-0.033-0.016-0.051c-0.649-2.281-0.948-5.254-0.949-7.248c0-11.67,9.495-21.166,21.165-21.166
		c11.67,0,21.165,9.496,21.165,21.166S35.975,45.033,24.304,45.033z"/>
	<path fill="#414042" d="M24.475,33.218l5.262-4.415c0.057-0.047,0.104-0.109,0.135-0.178c0.023-0.053,0.582-1.309,0.045-2.322
		c-0.172-0.326-0.428-0.584-0.766-0.771l0.369-0.311c0.066-0.055,0.117-0.127,0.146-0.207c0.402-1.064,0.377-1.934-0.072-2.582
		c-0.313-0.453-0.775-0.705-1.211-0.846c0.014-0.023,0.025-0.047,0.035-0.072c0.406-1.07,0.385-1.943-0.066-2.598
		c-0.682-0.99-2.066-1.043-2.367-1.043c-0.002,0-0.002,0-0.002,0c-0.113,0.004-0.225,0.045-0.311,0.117l-0.279,0.234
		c-0.096-0.459-0.285-0.838-0.564-1.133c-0.835-0.881-2.154-0.617-2.214-0.604c-0.078,0.018-0.149,0.051-0.211,0.102l-6.541,5.355
		c0.201-0.707,0.184-1.32-0.053-1.836c-0.518-1.123-1.848-1.275-1.904-1.281c-0.135-0.014-0.271,0.027-0.375,0.113l-3.832,3.225
		c-3.82,4.34-1.515,10.012-1.415,10.25c0.02,0.047,0.046,0.09,0.078,0.129l2.857,3.406c1.178,1.404,4.993,1.613,7.161,1.613
		c0.473,0,0.764-0.01,0.764-0.01c0.111-0.006,0.219-0.047,0.303-0.117l3.913-3.284c0.02,0.003,0.037,0.012,0.057,0.012l0.558-0.002
		c5.813,0.539,7.902,2.959,7.927,2.987c0.099,0.12,0.241,0.182,0.386,0.182c0.111,0,0.223-0.037,0.316-0.113
		c0.213-0.175,0.245-0.489,0.07-0.703C32.584,36.406,30.445,33.886,24.475,33.218z M18.938,36.559
		c-0.126,0.004-0.317,0.006-0.558,0.006c-3.294,0-5.744-0.48-6.395-1.256l-2.804-3.344c-0.236-0.623-1.93-5.508,1.214-9.086
		l3.595-3.018c0.261,0.068,0.716,0.246,0.91,0.666c0.288,0.627-0.052,1.697-0.958,3.016c-0.141,0.205-0.109,0.482,0.074,0.65
		c0.184,0.17,0.463,0.178,0.654,0.02l8.262-6.764c0.237-0.029,0.818-0.041,1.17,0.33c0.241,0.256,0.355,0.672,0.355,1.223
		l-6.762,5.566c-0.211,0.178-0.239,0.492-0.063,0.705c0.1,0.117,0.241,0.178,0.385,0.178c0.112,0,0.227-0.037,0.32-0.115
		l6.942-5.715l0.885-0.74c0.32,0.023,1.037,0.131,1.361,0.602c0.24,0.348,0.24,0.871,0,1.555l-0.584,0.488
		c-0.021,0.018-0.023,0.047-0.041,0.066l-7.187,5.686c-0.212,0.178-0.239,0.494-0.063,0.705c0.099,0.119,0.241,0.18,0.384,0.18
		c0.113,0,0.227-0.039,0.32-0.117l7.112-5.625c0.324,0.027,0.996,0.137,1.303,0.58c0.238,0.344,0.238,0.861,0.004,1.541
		l-0.947,0.793v0.002l-6.112,4.795c-0.211,0.176-0.239,0.492-0.063,0.703c0.1,0.119,0.241,0.18,0.385,0.18
		c0.113,0,0.227-0.039,0.32-0.117l5.909-4.637c0.373,0.098,0.635,0.266,0.764,0.508c0.227,0.426,0.078,1.047-0.033,1.348
		L18.938,36.559z"/>
</g>
</svg>
