<?xml version="1.0" encoding="utf-8"?>
<!-- Generator: Adobe Illustrator 16.0.0, SVG Export Plug-In . SVG Version: 6.00 Build 0)  -->
<!DOCTYPE svg PUBLIC "-//W3C//DTD SVG 1.1//EN" "http://www.w3.org/Graphics/SVG/1.1/DTD/svg11.dtd">
<svg version="1.1" id="Layer_1" xmlns="http://www.w3.org/2000/svg" xmlns:xlink="http://www.w3.org/1999/xlink" x="0px" y="0px"
	 width="48px" height="48px" viewBox="0 0 48 48" enable-background="new 0 0 48 48" xml:space="preserve">
<g>
	<path fill="#414042" d="M23.663,1.494c-12.339,0-22.377,10.037-22.377,22.377c0,12.336,10.038,22.373,22.377,22.373
		c12.337,0,22.373-10.037,22.373-22.373C46.035,11.531,36,1.494,23.663,1.494z M23.663,45.244c-11.787,0-21.377-9.588-21.377-21.373
		c0-11.787,9.59-21.377,21.377-21.377c11.785,0,21.373,9.59,21.373,21.377C45.035,35.656,35.447,45.244,23.663,45.244z"/>
	<path fill="#414042" d="M29.66,23.586c2.146,0,3.893-2.406,3.893-5.365c0-2.957-1.746-5.365-3.893-5.365s-3.893,2.408-3.893,5.365
		C25.768,21.18,27.514,23.586,29.66,23.586z M29.66,13.855c1.596,0,2.893,1.959,2.893,4.365c0,2.408-1.297,4.365-2.893,4.365
		c-1.594,0-2.893-1.957-2.893-4.365C26.768,15.814,28.066,13.855,29.66,13.855z"/>
	<path fill="#414042" d="M17.66,23.586c2.146,0,3.893-2.406,3.893-5.365c0-2.957-1.746-5.365-3.893-5.365s-3.893,2.408-3.893,5.365
		C13.767,21.18,15.513,23.586,17.66,23.586z M17.66,13.855c1.596,0,2.893,1.959,2.893,4.365c0,2.408-1.297,4.365-2.893,4.365
		c-1.594,0-2.893-1.957-2.893-4.365C14.767,15.814,16.066,13.855,17.66,13.855z"/>
	<path fill="#414042" d="M32.244,30.035H15.075c-1.706,0-3.095,1.389-3.095,3.096c0,1.705,1.389,3.094,3.095,3.094h17.169
		c1.707,0,3.096-1.389,3.096-3.094C35.34,31.424,33.951,30.035,32.244,30.035z M32.244,35.225H15.075
		c-1.155,0-2.095-0.939-2.095-2.094c0-1.156,0.939-2.096,2.095-2.096h17.169c1.156,0,2.096,0.939,2.096,2.096
		C34.34,34.285,33.4,35.225,32.244,35.225z"/>
	<ellipse fill="#414042" cx="17.66" cy="18.222" rx="1.586" ry="1.866"/>
	<ellipse fill="#414042" cx="29.766" cy="18.222" rx="1.586" ry="1.866"/>
</g>
</svg>
