<?xml version="1.0" encoding="utf-8"?>
<!-- Generator: Adobe Illustrator 16.0.0, SVG Export Plug-In . SVG Version: 6.00 Build 0)  -->
<!DOCTYPE svg PUBLIC "-//W3C//DTD SVG 1.1//EN" "http://www.w3.org/Graphics/SVG/1.1/DTD/svg11.dtd">
<svg version="1.1" id="Layer_1" xmlns="http://www.w3.org/2000/svg" xmlns:xlink="http://www.w3.org/1999/xlink" x="0px" y="0px"
	 width="48px" height="48px" viewBox="0 0 48 48" enable-background="new 0 0 48 48" xml:space="preserve">
<g>
	<path fill="#414042" d="M24.02,1.494c-12.338,0-22.377,10.037-22.377,22.377c0,12.336,10.039,22.373,22.377,22.373
		s22.373-10.037,22.373-22.373C46.393,11.531,36.357,1.494,24.02,1.494z M24.02,45.244c-11.787,0-21.377-9.588-21.377-21.373
		c0-11.787,9.59-21.377,21.377-21.377c11.785,0,21.373,9.59,21.373,21.377C45.393,35.656,35.805,45.244,24.02,45.244z"/>
	<path fill="#414042" d="M35.471,11.619c-4.418-2.727-9.475-0.117-9.688-0.006c-0.244,0.129-0.338,0.432-0.209,0.676
		c0.09,0.17,0.264,0.268,0.441,0.268c0.08,0,0.16-0.02,0.234-0.059c0.047-0.023,4.762-2.455,8.695-0.027
		c0.234,0.143,0.543,0.074,0.688-0.162S35.705,11.766,35.471,11.619z"/>
	<path fill="#414042" d="M20.279,12.473c0.235,0.143,0.543,0.072,0.688-0.164c0.145-0.234,0.072-0.543-0.162-0.688
		c-4.416-2.725-9.475-0.119-9.688-0.006c-0.244,0.129-0.338,0.43-0.209,0.674c0.089,0.17,0.263,0.268,0.443,0.268
		c0.078,0,0.157-0.018,0.231-0.057C11.631,12.475,16.355,10.049,20.279,12.473z"/>
	<path fill="#414042" d="M27.324,34.973h-6.783c-0.275,0-0.5,0.225-0.5,0.5c0,0.277,0.225,0.5,0.5,0.5h6.783
		c0.275,0,0.5-0.223,0.5-0.5C27.824,35.197,27.6,34.973,27.324,34.973z"/>
	<path fill="#414042" d="M30.24,14.443c-2.146,0-3.893,2.406-3.893,5.365c0,2.957,1.746,5.365,3.893,5.365s3.893-2.408,3.893-5.365
		C34.133,16.85,32.387,14.443,30.24,14.443z M31.447,23.763c0.288-0.417,0.467-0.942,0.467-1.522c0-1.344-0.924-2.432-2.066-2.432
		c-1.104,0-1.996,1.021-2.054,2.304c-0.278-0.67-0.446-1.456-0.446-2.304c0-2.408,1.299-4.365,2.893-4.365
		c1.596,0,2.893,1.957,2.893,4.365C33.133,21.563,32.439,23.07,31.447,23.763z"/>
	<path fill="#414042" d="M15.945,14.443c-2.146,0-3.893,2.406-3.893,5.365c0,2.957,1.746,5.365,3.893,5.365s3.893-2.408,3.893-5.365
		C19.838,16.85,18.092,14.443,15.945,14.443z M16.967,23.879c0.337-0.433,0.548-1.005,0.548-1.639c0-1.344-0.924-2.432-2.065-2.432
		c-1.035,0-1.885,0.898-2.035,2.067c-0.223-0.618-0.361-1.315-0.361-2.067c0-2.408,1.299-4.365,2.893-4.365
		c1.596,0,2.893,1.957,2.893,4.365C18.838,21.671,18.058,23.253,16.967,23.879z"/>
</g>
</svg>
