<?xml version="1.0" encoding="utf-8"?>
<!-- Generator: Adobe Illustrator 16.0.0, SVG Export Plug-In . SVG Version: 6.00 Build 0)  -->
<!DOCTYPE svg PUBLIC "-//W3C//DTD SVG 1.1//EN" "http://www.w3.org/Graphics/SVG/1.1/DTD/svg11.dtd">
<svg version="1.1" id="Layer_1" xmlns="http://www.w3.org/2000/svg" xmlns:xlink="http://www.w3.org/1999/xlink" x="0px" y="0px"
	 width="48px" height="48px" viewBox="0 0 48 48" enable-background="new 0 0 48 48" xml:space="preserve">
<g>
	<path fill="#414042" d="M17.207,14.99c0.184-0.207,0.166-0.521-0.039-0.707s-0.521-0.17-0.705,0.039
		c-1.988,2.217-6.164,2.248-6.207,2.248c-0.275,0-0.5,0.225-0.5,0.5s0.225,0.5,0.5,0.5C10.445,17.57,14.918,17.541,17.207,14.99z"/>
	<path fill="#414042" d="M26.434,16.705c-3.271,0-6.107-2.529-6.137-2.555c-0.203-0.184-0.52-0.17-0.705,0.035
		s-0.17,0.52,0.033,0.705c0.127,0.115,3.145,2.814,6.809,2.814c0.277,0,0.5-0.225,0.5-0.5
		C26.934,16.928,26.711,16.705,26.434,16.705z"/>
	<path fill="#414042" d="M18.252,36.262h-6.313c-0.275,0-0.5,0.223-0.5,0.5c0,0.275,0.225,0.5,0.5,0.5h6.313
		c0.277,0,0.5-0.225,0.5-0.5C18.752,36.484,18.529,36.262,18.252,36.262z"/>
	<path fill="#414042" d="M22.229,18.443c-2.146,0-3.893,2.408-3.893,5.365c0,2.959,1.746,5.365,3.893,5.365s3.893-2.406,3.893-5.365
		C26.121,20.852,24.375,18.443,22.229,18.443z M22.229,28.174c-1.596,0-2.893-1.957-2.893-4.365c0-2.406,1.297-4.365,2.893-4.365
		c0.365,0,0.711,0.113,1.033,0.301c-0.582,0.094-1.033,0.526-1.033,1.072c0,0.611,0.561,1.109,1.25,1.109
		c0.492,0,0.906-0.259,1.109-0.625c0.333,0.711,0.533,1.573,0.533,2.508C25.121,26.217,23.822,28.174,22.229,28.174z"/>
	<path fill="#414042" d="M13.828,29.174c2.146,0,3.893-2.406,3.893-5.365c0-2.957-1.746-5.365-3.893-5.365s-3.893,2.408-3.893,5.365
		C9.936,26.768,11.682,29.174,13.828,29.174z M13.828,19.443c0.336,0,0.654,0.104,0.954,0.264c-0.683,0.006-1.237,0.498-1.237,1.109
		s0.561,1.109,1.25,1.109c0.629,0,1.125-0.419,1.213-0.954c0.438,0.766,0.713,1.749,0.713,2.837c0,2.408-1.299,4.365-2.893,4.365
		c-1.596,0-2.893-1.957-2.893-4.365C10.936,21.402,12.232,19.443,13.828,19.443z"/>
	<path fill="#414042" d="M45.506,12.148c0-5.74-4.67-10.412-10.41-10.412s-10.41,4.672-10.41,10.412
		c0,0.237,0.011,0.474,0.026,0.708c-1.951-0.771-4.069-1.21-6.292-1.21c-9.471,0-17.178,7.707-17.178,17.18
		C1.242,38.297,8.949,46,18.42,46s17.176-7.703,17.176-17.174c0-2.224-0.438-4.344-1.211-6.296c0.236,0.016,0.474,0.026,0.711,0.026
		C40.836,22.557,45.506,17.887,45.506,12.148z M18.42,45C9.5,45,2.242,37.744,2.242,28.826c0-8.922,7.258-16.18,16.178-16.18
		s16.176,7.258,16.176,16.18C34.596,37.744,27.34,45,18.42,45z M25.773,13.324c-0.049-0.386-0.088-0.778-0.088-1.176
		c0-5.189,4.223-9.412,9.41-9.412c5.189,0,9.41,4.223,9.41,9.412c0,5.188-4.221,9.408-9.41,9.408c-0.394,0-0.787-0.039-1.179-0.088
		C32.219,17.905,29.336,15.022,25.773,13.324z"/>
	<path fill="#414042" d="M35.833,12.815c0.015,0.001,0.027,0.009,0.042,0.009h2.584c0.277,0,0.5-0.225,0.5-0.5
		c0-0.277-0.223-0.5-0.5-0.5h-2.584c-0.015,0-0.027,0.007-0.042,0.008c-0.074-0.12-0.172-0.217-0.29-0.292V7.408
		c0-0.277-0.223-0.5-0.5-0.5c-0.275,0-0.5,0.223-0.5,0.5v4.132c-0.264,0.168-0.449,0.449-0.449,0.784
		c0,0.523,0.428,0.947,0.949,0.947C35.382,13.271,35.666,13.083,35.833,12.815z"/>
</g>
</svg>
