<?xml version="1.0" encoding="utf-8"?>
<!-- Generator: Adobe Illustrator 16.0.0, SVG Export Plug-In . SVG Version: 6.00 Build 0)  -->
<!DOCTYPE svg PUBLIC "-//W3C//DTD SVG 1.1//EN" "http://www.w3.org/Graphics/SVG/1.1/DTD/svg11.dtd">
<svg version="1.1" id="Layer_1" xmlns="http://www.w3.org/2000/svg" xmlns:xlink="http://www.w3.org/1999/xlink" x="0px" y="0px"
	 width="48px" height="48px" viewBox="0 0 48 48" enable-background="new 0 0 48 48" xml:space="preserve">
<g>
	<path fill="#414042" d="M23.732,1.494c-12.338,0-22.377,10.038-22.377,22.377c0,12.336,10.039,22.372,22.377,22.372
		s22.373-10.036,22.373-22.372C46.105,11.532,36.07,1.494,23.732,1.494z M23.732,45.243c-11.787,0-21.377-9.588-21.377-21.372
		c0-11.787,9.59-21.377,21.377-21.377c11.785,0,21.373,9.59,21.373,21.377C45.105,35.655,35.518,45.243,23.732,45.243z"/>
	<path fill="#414042" d="M26.908,34.963c-8.789,2.155-11.791-5.309-11.914-5.627c-0.1-0.257-0.391-0.389-0.646-0.286
		c-0.258,0.099-0.387,0.388-0.287,0.645c0.029,0.076,2.648,6.656,9.824,6.656c0.998,0,2.084-0.128,3.262-0.417
		c0.27-0.065,0.434-0.336,0.367-0.604S27.18,34.897,26.908,34.963z"/>
	<path fill="#414042" d="M29.73,12.039c-2.146,0-3.893,2.407-3.893,5.365s1.746,5.364,3.893,5.364s3.893-2.406,3.893-5.364
		S31.877,12.039,29.73,12.039z M29.73,21.769c-1.594,0-2.893-1.958-2.893-4.364c0-2.407,1.299-4.365,2.893-4.365
		c1.596,0,2.893,1.958,2.893,4.365C32.623,19.811,31.326,21.769,29.73,21.769z"/>
	<path fill="#414042" d="M17.73,22.769c2.146,0,3.893-2.406,3.893-5.364s-1.746-5.365-3.893-5.365s-3.893,2.407-3.893,5.365
		S15.584,22.769,17.73,22.769z M17.73,13.039c1.596,0,2.893,1.958,2.893,4.365c0,2.406-1.297,4.364-2.893,4.364
		c-1.594,0-2.893-1.958-2.893-4.364C14.838,14.997,16.137,13.039,17.73,13.039z"/>
	<ellipse fill="#414042" cx="17.68" cy="17.404" rx="1.295" ry="1.401"/>
	<ellipse fill="#414042" cx="29.781" cy="17.404" rx="1.295" ry="1.401"/>
</g>
</svg>
