<?xml version="1.0" encoding="utf-8"?>
<!-- Generator: Adobe Illustrator 16.0.0, SVG Export Plug-In . SVG Version: 6.00 Build 0)  -->
<!DOCTYPE svg PUBLIC "-//W3C//DTD SVG 1.1//EN" "http://www.w3.org/Graphics/SVG/1.1/DTD/svg11.dtd">
<svg version="1.1" id="Layer_1" xmlns="http://www.w3.org/2000/svg" xmlns:xlink="http://www.w3.org/1999/xlink" x="0px" y="0px"
	 width="48px" height="48px" viewBox="0 0 48 48" enable-background="new 0 0 48 48" xml:space="preserve">
<g>
	<path fill="#414042" d="M29.545,10.66c-2.146,0-3.893,2.407-3.893,5.365s1.746,5.365,3.893,5.365s3.893-2.407,3.893-5.365
		S31.691,10.66,29.545,10.66z M31.493,19.23c0.069-0.244,0.116-0.5,0.116-0.771c0-1.344-0.924-2.433-2.064-2.433
		c-1.143,0-2.066,1.089-2.066,2.433c0,0.27,0.045,0.525,0.114,0.768c-0.574-0.798-0.94-1.933-0.94-3.201
		c0-2.407,1.297-4.365,2.893-4.365c1.594,0,2.893,1.958,2.893,4.365C32.438,17.296,32.069,18.432,31.493,19.23z"/>
	<path fill="#414042" d="M17.544,10.66c-2.146,0-3.893,2.407-3.893,5.365s1.746,5.365,3.893,5.365s3.893-2.407,3.893-5.365
		S19.691,10.66,17.544,10.66z M19.493,19.23c0.069-0.244,0.116-0.5,0.116-0.771c0-1.344-0.924-2.433-2.064-2.433
		c-1.143,0-2.066,1.089-2.066,2.433c0,0.27,0.046,0.525,0.115,0.768c-0.574-0.798-0.941-1.933-0.941-3.201
		c0-2.407,1.298-4.365,2.893-4.365s2.893,1.958,2.893,4.365C20.437,17.296,20.069,18.432,19.493,19.23z"/>
	<path fill="#414042" d="M23.545-0.082c-12.339,0-22.377,10.038-22.377,22.377c0,10.807,7.703,19.848,17.907,21.924
		c0,0,0-0.001,0-0.001c1.17,1.603,2.739,2.593,4.467,2.593c1.727,0,3.295-0.989,4.467-2.591l0,0
		c10.205-2.075,17.908-11.116,17.908-21.925C45.918,9.956,35.883-0.082,23.545-0.082z M23.542,45.811
		c-3.058,0-5.545-3.84-5.545-8.561v-9.521H29.09v9.521C29.09,41.971,26.602,45.811,23.542,45.811z M16.998,33.408
		c-2.123-1.952-2.92-4.551-3.17-5.68h3.17V33.408z M30.09,27.729h3.256c-0.084,1.128-0.568,3.965-3.256,5.938V27.729z
		 M28.762,42.997c0.83-1.603,1.328-3.589,1.328-5.747v-2.376c4.385-2.739,4.277-7.462,4.271-7.662c-0.01-0.27-0.23-0.483-0.5-0.483
		H13.226c-0.143,0-0.279,0.062-0.374,0.168c-0.095,0.107-0.14,0.25-0.122,0.392c0.021,0.186,0.59,4.566,4.164,7.367
		c0.032,0.024,0.068,0.036,0.104,0.052v2.543c0,2.158,0.498,4.146,1.327,5.748c0-0.001,0-0.002,0-0.002
		C9.057,40.657,2.168,32.276,2.168,22.295c0-11.787,9.59-21.377,21.377-21.377c11.785,0,21.373,9.59,21.373,21.377
		C44.918,32.277,38.029,40.66,28.762,42.997z"/>
</g>
</svg>
