<?xml version="1.0" encoding="utf-8"?>
<!-- Generator: Adobe Illustrator 16.0.0, SVG Export Plug-In . SVG Version: 6.00 Build 0)  -->
<!DOCTYPE svg PUBLIC "-//W3C//DTD SVG 1.1//EN" "http://www.w3.org/Graphics/SVG/1.1/DTD/svg11.dtd">
<svg version="1.1" id="Layer_1" xmlns="http://www.w3.org/2000/svg" xmlns:xlink="http://www.w3.org/1999/xlink" x="0px" y="0px"
	 width="48px" height="48px" viewBox="0 0 48 48" enable-background="new 0 0 48 48" xml:space="preserve">
<g>
	<path fill="#414042" d="M23.854,0.989c-12.339,0-22.377,10.038-22.377,22.377c0,12.337,10.038,22.373,22.377,22.373
		c12.337,0,22.373-10.036,22.373-22.373C46.228,11.027,36.191,0.989,23.854,0.989z M23.854,44.739
		c-11.787,0-21.377-9.588-21.377-21.373c0-11.787,9.59-21.377,21.377-21.377c11.785,0,21.373,9.59,21.373,21.377
		C45.228,35.151,35.64,44.739,23.854,44.739z"/>
	<path fill="#414042" d="M24.28,38.821c-9.16,0-10.313-5.657-10.357-5.897c-0.05-0.271-0.315-0.444-0.581-0.402
		c-0.271,0.049-0.451,0.308-0.403,0.578c0.012,0.067,1.308,6.722,11.342,6.722c0.276,0,0.5-0.224,0.5-0.5
		S24.557,38.821,24.28,38.821z"/>
	<path fill="#414042" d="M32.982,11.978c0.082,0.05,0.172,0.074,0.262,0.074c0.168,0,0.332-0.084,0.426-0.237
		c0.146-0.234,0.072-0.543-0.162-0.688c-4.475-2.763-7.94,0.011-7.975,0.04c-0.213,0.175-0.244,0.49-0.068,0.703
		c0.176,0.214,0.49,0.246,0.703,0.068C26.197,11.914,29.107,9.582,32.982,11.978z"/>
	<path fill="#414042" d="M14.475,12.223c0.028-0.024,2.939-2.356,6.813,0.04c0.081,0.05,0.173,0.074,0.263,0.074
		c0.167,0,0.33-0.084,0.426-0.237c0.145-0.234,0.072-0.543-0.163-0.688c-4.476-2.763-7.94,0.011-7.976,0.04
		c-0.213,0.175-0.243,0.49-0.068,0.703C13.945,12.367,14.26,12.399,14.475,12.223z"/>
	<path fill="#414042" d="M29.854,13.558c-2.146,0-3.893,2.407-3.893,5.365s1.746,5.365,3.893,5.365s3.892-2.407,3.892-5.365
		S32,13.558,29.854,13.558z M29.854,23.288c-1.243,0-2.297-1.196-2.705-2.861c0.171,0.078,0.356,0.133,0.562,0.133
		c0.691,0,1.249-0.498,1.249-1.111c0-0.612-0.558-1.109-1.249-1.109c-0.276,0-0.519,0.096-0.726,0.23
		c0.121-2.24,1.354-4.012,2.869-4.012c1.594,0,2.892,1.958,2.892,4.365S31.447,23.288,29.854,23.288z"/>
	<path fill="#414042" d="M17.854,13.558c-2.146,0-3.893,2.407-3.893,5.365s1.746,5.365,3.893,5.365s3.892-2.407,3.892-5.365
		S20,13.558,17.854,13.558z M17.854,23.288c-1.243,0-2.296-1.196-2.705-2.861c0.17,0.078,0.356,0.133,0.561,0.133
		c0.691,0,1.249-0.498,1.249-1.111c0-0.612-0.558-1.109-1.249-1.109c-0.276,0-0.519,0.096-0.726,0.23
		c0.122-2.24,1.354-4.012,2.869-4.012c1.594,0,2.892,1.958,2.892,4.365S19.447,23.288,17.854,23.288z"/>
</g>
</svg>
