<?xml version="1.0" encoding="utf-8"?>
<!-- Generator: Adobe Illustrator 16.0.0, SVG Export Plug-In . SVG Version: 6.00 Build 0)  -->
<!DOCTYPE svg PUBLIC "-//W3C//DTD SVG 1.1//EN" "http://www.w3.org/Graphics/SVG/1.1/DTD/svg11.dtd">
<svg version="1.1" id="Layer_1" xmlns="http://www.w3.org/2000/svg" xmlns:xlink="http://www.w3.org/1999/xlink" x="0px" y="0px"
	 width="48px" height="48px" viewBox="0 0 48 48" enable-background="new 0 0 48 48" xml:space="preserve">
<g>
	<path fill="#414042" d="M28.366,9.921c-0.013-0.05-0.015-0.104-0.041-0.147c-2.689-9.735-3.902-9.735-4.303-9.735
		c-0.066,0-0.16,0.018-0.222,0.044c-0.195,0.082-0.317,0.279-0.304,0.49c0.145,2.386-1.514,8.044-1.813,9.037
		C12.58,10.828,5.528,18.626,5.528,28.06c0,10.273,8.359,18.631,18.635,18.631c10.273,0,18.631-8.357,18.631-18.631
		C42.794,19.231,36.619,11.834,28.366,9.921z M22.78,9.434c0.432-1.476,1.457-5.17,1.682-7.676c0.525,0.938,1.43,3.047,2.756,7.764
		l-1.882-0.037c-0.39-0.024-0.777-0.06-1.173-0.06c-0.173,0-0.341,0.021-0.514,0.026L22.78,9.434z M24.163,45.69
		c-9.723,0-17.635-7.909-17.635-17.631c0-9.548,7.634-17.33,17.115-17.608l1.699,0.033c9.172,0.611,16.452,8.25,16.452,17.575
		C41.794,37.781,33.886,45.69,24.163,45.69z"/>
	<path fill="#414042" d="M24.503,32.168l-0.682-0.015v0.015c-6.369,0.274-8.561,4.349-8.654,4.528
		c-0.127,0.244-0.031,0.545,0.213,0.673c0.242,0.126,0.545,0.034,0.674-0.21c0.085-0.161,2.111-3.866,8.109-4.002
		c5.998,0.136,8.025,3.841,8.111,4.002c0.088,0.17,0.264,0.267,0.443,0.267c0.078,0,0.156-0.019,0.23-0.057
		c0.244-0.128,0.338-0.429,0.211-0.673C33.067,36.517,30.874,32.442,24.503,32.168z"/>
	<path fill="#414042" d="M25.823,24.278c0,2.499,1.486,4.531,3.313,4.531c1.857,0,3.311-1.99,3.311-4.531
		c0-2.542-1.453-4.533-3.311-4.533C27.31,19.745,25.823,21.778,25.823,24.278z M31.446,24.278c0,1.914-1.057,3.531-2.311,3.531
		s-2.313-1.617-2.313-3.531c0-1.915,1.059-3.533,2.313-3.533C30.411,20.745,31.446,22.33,31.446,24.278z"/>
	<path fill="#414042" d="M19.188,28.81c1.827,0,3.313-2.032,3.313-4.531c0-2.5-1.485-4.533-3.313-4.533
		c-1.826,0-3.313,2.033-3.313,4.533C15.876,26.777,17.362,28.81,19.188,28.81z M19.188,20.745c1.254,0,2.313,1.618,2.313,3.533
		c0,1.914-1.059,3.531-2.313,3.531c-1.253,0-2.313-1.617-2.313-3.531C16.876,22.363,17.936,20.745,19.188,20.745z"/>
	<path fill="#414042" d="M18.39,17.511c0.122-0.011,2.868-0.082,3.976,2.402c0.083,0.187,0.266,0.297,0.457,0.297
		c0.067,0,0.137-0.014,0.203-0.043c0.252-0.112,0.366-0.408,0.253-0.66c-1.389-3.116-4.792-2.997-4.932-2.996
		c-0.275,0.013-0.488,0.245-0.477,0.521C17.881,17.307,18.128,17.495,18.39,17.511z"/>
	<path fill="#414042" d="M25.409,20.132c0.066,0.029,0.135,0.043,0.203,0.043c0.191,0,0.375-0.11,0.457-0.297
		c1.104-2.488,3.852-2.419,3.969-2.408c0.254,0.007,0.508-0.205,0.52-0.48c0.01-0.275-0.203-0.508-0.479-0.52
		c-0.154,0.001-3.541-0.113-4.924,3.002C25.044,19.725,25.157,20.02,25.409,20.132z"/>
	<ellipse fill="#414042" cx="19.16" cy="23.801" rx="1.381" ry="1.397"/>
	<ellipse fill="#414042" cx="29.136" cy="23.799" rx="1.381" ry="1.399"/>
</g>
</svg>
