<?xml version="1.0" encoding="utf-8"?>
<!-- Generator: Adobe Illustrator 16.0.0, SVG Export Plug-In . SVG Version: 6.00 Build 0)  -->
<!DOCTYPE svg PUBLIC "-//W3C//DTD SVG 1.1//EN" "http://www.w3.org/Graphics/SVG/1.1/DTD/svg11.dtd">
<svg version="1.1" id="Layer_1" xmlns="http://www.w3.org/2000/svg" xmlns:xlink="http://www.w3.org/1999/xlink" x="0px" y="0px"
	 width="48px" height="48px" viewBox="0 0 48 48" enable-background="new 0 0 48 48" xml:space="preserve">
<g>
	<path fill="#414042" d="M24.151,0.787c-12.299,0-22.303,10.006-22.303,22.305c0,1.346,0.128,2.691,0.367,4.008
		c-0.146,0.033-0.291,0.074-0.427,0.145c-1.021,0.523-1.285,1.871-1.295,1.928c-0.014,0.074-0.01,0.15,0.008,0.225l3.477,12.973
		c0.029,0.107,0.092,0.201,0.18,0.27c0,0,0.234,0.176,0.621,0.447c1.775,1.244,5.02,3.258,6.791,2.785l4.295-1.15
		c0.047-0.016,0.094-0.035,0.137-0.061c0.048-0.03,0.339-0.223,0.746-0.549c0.036,0.024,0.07,0.052,0.113,0.066
		c2.34,0.809,4.793,1.219,7.291,1.219c12.298,0,22.304-10.006,22.304-22.305S36.449,0.787,24.151,0.787z M15.524,43.773
		l-4.213,1.133c-0.979,0.262-3.262-0.75-5.959-2.639c-0.199-0.139-0.354-0.25-0.455-0.326L1.499,29.254
		c0.082-0.309,0.316-0.904,0.746-1.121c0.246-0.125,0.557-0.113,0.918,0.021l2.182,7.188c0.031,0.119,0.102,0.215,0.195,0.279
		c0.115,0.082,0.268,0.113,0.416,0.074c0.268-0.072,0.426-0.346,0.354-0.613L4.053,27.65v-0.002l-0.32-1.193
		c0.197-0.691,0.496-1.115,0.885-1.26c0.508-0.188,1.121,0.107,1.402,0.271l2.598,8.688c0.033,0.117,0.105,0.213,0.197,0.279
		c0.117,0.082,0.268,0.113,0.416,0.072c0.268-0.07,0.426-0.346,0.354-0.613l-2.627-8.779c-0.002-0.027,0.012-0.051,0.006-0.078
		l-0.199-0.734c0.197-0.697,0.496-1.127,0.891-1.273c0.537-0.199,1.186,0.125,1.463,0.289l0.299,1.113l2.41,8.662
		c0.031,0.117,0.102,0.213,0.195,0.279c0.117,0.082,0.268,0.113,0.416,0.074c0.268-0.074,0.426-0.348,0.354-0.613l-2.346-8.438
		c0.316-0.453,0.648-0.729,0.992-0.799c0.502-0.102,0.969,0.242,1.148,0.402l2.887,10.277c0.066,0.24,0.301,0.393,0.549,0.361
		c0.246-0.033,0.432-0.244,0.434-0.492c0.014-1.6,0.35-2.672,0.943-3.02c0.4-0.232,0.875-0.117,1.129-0.023l1.215,4.533
		C20.264,40.371,16.075,43.398,15.524,43.773z M24.151,44.396c-2.242,0-4.441-0.359-6.554-1.041
		c1.528-1.482,3.539-4.182,3.124-7.904l-0.403-1.513c1.075,0.286,2.217,0.463,3.423,0.517l0.822,0.018v-0.018
		c7.621-0.33,10.238-5.195,10.349-5.408c0.127-0.244,0.031-0.545-0.213-0.674c-0.248-0.131-0.547-0.031-0.674,0.211
		c-0.104,0.195-2.57,4.719-9.873,4.883c-1.482-0.034-2.869-0.257-4.135-0.654l-0.587-2.201c-0.035-0.131-0.121-0.24-0.24-0.307
		c-0.049-0.027-1.227-0.666-2.295-0.043c-0.49,0.287-0.855,0.779-1.096,1.473l-2.287-8.139c-0.021-0.076-0.061-0.146-0.113-0.203
		c-0.043-0.047-0.971-1.018-2.16-0.777c-0.398,0.082-0.77,0.285-1.111,0.605l-0.094-0.352c-0.031-0.109-0.098-0.207-0.188-0.273
		H9.844c-0.248-0.174-1.41-0.926-2.537-0.506c-0.744,0.277-1.266,0.98-1.545,2.09c-0.006,0.027-0.012,0.053-0.014,0.08
		c-0.438-0.135-0.961-0.193-1.477-0.004c-0.545,0.204-0.97,0.641-1.27,1.298c-0.094-0.816-0.154-1.638-0.154-2.462
		c0-11.748,9.557-21.305,21.303-21.305c11.746,0,21.304,9.557,21.304,21.305C45.455,34.838,35.896,44.396,24.151,44.396z"/>
	<path fill="#414042" d="M17.639,9.842c-2.723,0.098-4.531,2.885-4.607,3.004c-0.148,0.232-0.08,0.541,0.152,0.691
		c0.084,0.053,0.176,0.078,0.27,0.078c0.164,0,0.326-0.082,0.422-0.232c0.016-0.023,1.596-2.463,3.799-2.543
		c1.346-0.047,2.709,0.818,4.016,2.574c0.166,0.221,0.48,0.266,0.701,0.102s0.268-0.479,0.102-0.699
		C20.977,10.781,19.336,9.768,17.639,9.842z"/>
	<path fill="#414042" d="M30.293,9.719c-0.012,0-0.021,0-0.031,0c-2.924,0.021-5.014,2.863-5.102,2.984
		c-0.16,0.223-0.111,0.535,0.113,0.697c0.221,0.16,0.533,0.111,0.697-0.111c0.018-0.025,1.887-2.557,4.301-2.57
		c0.008,0,0.014,0,0.02,0c1.412,0,2.771,0.867,4.043,2.576c0.1,0.131,0.25,0.201,0.402,0.201c0.104,0,0.209-0.033,0.299-0.1
		c0.221-0.164,0.268-0.479,0.102-0.699C33.666,10.721,32.035,9.719,30.293,9.719z"/>
	<path fill="#414042" d="M30.152,13.838c-2.146,0-3.893,2.406-3.893,5.365c0,2.957,1.746,5.365,3.893,5.365
		c2.145,0,3.891-2.408,3.891-5.365C34.043,16.244,32.297,13.838,30.152,13.838z M30.152,23.568c-1.244,0-2.297-1.197-2.705-2.863
		c0.171,0.078,0.356,0.132,0.561,0.132c0.691,0,1.25-0.498,1.25-1.109c0-0.613-0.559-1.111-1.25-1.111
		c-0.275,0-0.518,0.096-0.724,0.23c0.122-2.239,1.354-4.01,2.868-4.01c1.594,0,2.891,1.957,2.891,4.365
		C33.043,21.609,31.746,23.568,30.152,23.568z"/>
	<path fill="#414042" d="M18.153,13.838c-2.146,0-3.893,2.406-3.893,5.365c0,2.957,1.746,5.365,3.893,5.365
		c2.145,0,3.891-2.408,3.891-5.365C22.043,16.244,20.297,13.838,18.153,13.838z M18.153,23.568c-1.244,0-2.297-1.197-2.705-2.863
		c0.17,0.078,0.356,0.132,0.561,0.132c0.691,0,1.25-0.498,1.25-1.109c0-0.613-0.559-1.111-1.25-1.111
		c-0.276,0-0.518,0.096-0.724,0.23c0.122-2.239,1.354-4.01,2.869-4.01c1.594,0,2.891,1.957,2.891,4.365
		C21.043,21.609,19.747,23.568,18.153,23.568z"/>
</g>
</svg>
