<?xml version="1.0" encoding="utf-8"?>
<!-- Generator: Adobe Illustrator 16.0.0, SVG Export Plug-In . SVG Version: 6.00 Build 0)  -->
<!DOCTYPE svg PUBLIC "-//W3C//DTD SVG 1.1//EN" "http://www.w3.org/Graphics/SVG/1.1/DTD/svg11.dtd">
<svg version="1.1" id="Layer_1" xmlns="http://www.w3.org/2000/svg" xmlns:xlink="http://www.w3.org/1999/xlink" x="0px" y="0px"
	 width="48px" height="48px" viewBox="0 0 48 48" enable-background="new 0 0 48 48" xml:space="preserve">
<g>
	<path fill="#414042" d="M12.5,36.462c-0.337-1.405,0.171-3.595,0.184-3.661c0.1-0.713-0.152-1.176-0.383-1.438
		c-0.637-0.725-1.771-0.756-1.963-0.756c-0.076-0.004-0.1,0.006-0.146,0.02c-1.392,0.396-1.97,1.728-2.199,2.549
		c-0.401-0.066-0.781-0.071-1.139-0.021v-0.992c0-0.063-0.012-0.123-0.033-0.18c-0.13-0.34-0.342-0.606-0.622-0.789
		c0.188-0.087,0.311-0.281,0.29-0.498c-0.166-1.617-0.654-2.549-1.494-2.844c-1.238-0.436-2.561,0.846-2.742,1.033
		c-0.072,0.09-1.773,2.262-1.338,5.619c0.424,3.271,2.693,6.451,6.742,9.451c0.043,0.033,0.092,0.059,0.143,0.074
		c0.58,0.189,1.373,0.342,2.203,0.342c1.584,0,3.313-0.555,3.998-2.477C14.06,41.78,15.246,39.35,12.5,36.462z M2.28,35.916
		c0.033-0.084,0.052-0.174,0.035-0.27c-0.014-0.07-0.295-1.711,1.307-3.289C4,32.164,4.979,31.764,5.534,31.971
		c0.146,0.053,0.248,0.146,0.32,0.293v1.023c0,0.051,0.015,0.098,0.029,0.144c-1.609,0.713-2.645,2.479-3.085,3.732
		C2.592,36.748,2.418,36.333,2.28,35.916z M2.999,29.549c0.322-0.324,1.154-0.936,1.664-0.754c0.418,0.146,0.713,0.857,0.832,2.002
		c0.006,0.058,0.027,0.108,0.051,0.158c-1.063-0.176-2.308,0.472-2.461,0.555c-0.039,0.021-0.074,0.049-0.105,0.078
		c-0.503,0.484-0.859,0.979-1.11,1.453C1.987,30.904,3.003,29.549,2.999,29.549z M13.084,41.498
		c-0.945,2.643-4.338,1.77-4.902,1.604c-2.224-1.658-3.854-3.357-4.912-5.081c0.183-0.027,0.348-0.151,0.408-0.341
		c0.053-0.17,1.324-4.092,4.248-3.51c0.09,0.104,0.238,0.32,0.23,0.615c-0.012,0.504-0.459,1.088-1.266,1.67
		c-0.066,0.043-1.645,1.043-1.631,2.789c0.002,0.273,0.227,0.496,0.5,0.496c0.002,0,0.004,0,0.004,0
		c0.277-0.002,0.498-0.229,0.496-0.504c-0.002-0.31,0.078-0.587,0.195-0.832c0.991,0.012,3.068,0.268,4.024,1.193
		c0.098,0.096,0.223,0.143,0.348,0.143c0.131,0,0.262-0.051,0.359-0.152c0.191-0.197,0.188-0.516-0.01-0.707
		c-1.031-0.998-2.813-1.32-3.956-1.425c0.125-0.104,0.217-0.164,0.227-0.171c1.113-0.801,1.688-1.635,1.709-2.475
		c0.011-0.408-0.12-0.75-0.281-1.016c0.084-0.457,0.421-1.822,1.523-2.188c0.279,0.012,0.875,0.1,1.152,0.416
		c0.135,0.156,0.182,0.363,0.15,0.592c-0.018,0.077-0.338,1.453-0.318,2.831c-0.042-0.034-0.076-0.067-0.12-0.101
		c-0.217-0.17-0.531-0.133-0.701,0.088c-0.17,0.217-0.131,0.531,0.088,0.701C14.274,38.953,13.159,41.34,13.084,41.498z"/>
	<path fill="#414042" d="M45.268,28.484c-0.146-0.148-1.463-1.424-2.707-0.994c-0.838,0.295-1.326,1.227-1.492,2.844
		c-0.021,0.217,0.102,0.411,0.29,0.498c-0.279,0.183-0.492,0.449-0.624,0.789c-0.021,0.057-0.033,0.117-0.033,0.18v0.992
		c-0.357-0.051-0.736-0.046-1.138,0.021c-0.229-0.822-0.809-2.153-2.2-2.548c-0.043-0.014-0.086-0.02-0.131-0.02
		c-0.131-0.006-1.32,0.008-1.977,0.756c-0.23,0.262-0.484,0.723-0.375,1.48c0.006,0.023,0.514,2.213,0.176,3.617
		c-2.744,2.888-1.562,5.313-1.527,5.373c0.705,1.969,2.449,2.533,4.039,2.533c0.826,0,1.611-0.152,2.189-0.34
		c0.051-0.016,0.098-0.041,0.143-0.074c4.049-3,6.316-6.18,6.742-9.451C47.078,30.785,45.375,28.613,45.268,28.484z M42.893,28.434
		c0.543-0.197,1.408,0.496,1.629,0.715c0.014,0.015,1.053,1.368,1.169,3.533c-0.252-0.475-0.607-0.971-1.112-1.457
		c-0.031-0.029-0.066-0.057-0.105-0.078c-0.153-0.083-1.393-0.732-2.459-0.554c0.023-0.049,0.043-0.101,0.049-0.157
		C42.18,29.293,42.475,28.582,42.893,28.434z M41.701,32.926v-1.023c0.074-0.146,0.176-0.24,0.322-0.293
		c0.555-0.205,1.533,0.191,1.912,0.385c1.598,1.576,1.32,3.213,1.307,3.287c-0.019,0.097,0,0.188,0.033,0.273
		c-0.139,0.416-0.311,0.83-0.518,1.244c-0.44-1.253-1.475-3.018-3.085-3.729C41.688,33.023,41.701,32.977,41.701,32.926z
		 M39.373,42.738c-0.566,0.166-3.959,1.037-4.926-1.658c-0.049-0.102-1.166-2.49,2.459-5.309c0.219-0.17,0.258-0.484,0.088-0.701
		c-0.172-0.219-0.486-0.26-0.701-0.088c-0.043,0.034-0.077,0.067-0.119,0.102c0.02-1.376-0.299-2.744-0.311-2.787
		c-0.039-0.271,0.008-0.48,0.143-0.635c0.275-0.314,0.871-0.404,1.15-0.416c1.093,0.361,1.438,1.726,1.524,2.188
		c-0.16,0.266-0.29,0.607-0.28,1.016c0.021,0.84,0.596,1.674,1.738,2.494c0.003,0.002,0.085,0.055,0.202,0.15
		c-1.144,0.104-2.929,0.425-3.96,1.426c-0.197,0.193-0.201,0.51-0.01,0.707c0.098,0.102,0.229,0.152,0.359,0.152
		c0.125,0,0.25-0.047,0.348-0.143c1.041-1.012,3.254-1.161,4.031-1.187c0.113,0.242,0.19,0.518,0.188,0.825
		c-0.002,0.275,0.219,0.502,0.496,0.504c0,0,0.002,0,0.004,0c0.273,0,0.498-0.223,0.5-0.496c0.014-1.746-1.564-2.746-1.604-2.77
		c-0.826-0.596-1.273-1.176-1.293-1.678c-0.012-0.303,0.139-0.523,0.23-0.629c2.926-0.584,4.195,3.342,4.248,3.512
		c0.061,0.189,0.223,0.313,0.405,0.34C43.227,39.382,41.598,41.081,39.373,42.738z"/>
	<path fill="#414042" d="M39.74,17.984c0-8.617-7.008-15.627-15.623-15.627c-8.617,0-15.629,7.01-15.629,15.627
		c0,8.613,7.012,15.621,15.629,15.621C32.732,33.605,39.74,26.598,39.74,17.984z M24.118,32.605
		c-8.066,0-14.629-6.559-14.629-14.621c0-8.066,6.563-14.627,14.629-14.627c8.062,0,14.623,6.561,14.623,14.627
		C38.74,26.047,32.18,32.605,24.118,32.605z"/>
	<path fill="#414042" d="M31.48,21.373c-0.242-0.131-0.547-0.033-0.674,0.213c-0.018,0.031-1.711,3.178-6.693,3.293
		c-4.945-0.113-6.619-3.164-6.689-3.293c-0.127-0.246-0.432-0.344-0.674-0.213c-0.244,0.127-0.34,0.428-0.213,0.674
		c0.078,0.15,1.93,3.594,7.293,3.824l0.568,0.012v-0.012c5.365-0.23,7.216-3.674,7.294-3.824C31.82,21.801,31.725,21.5,31.48,21.373
		z"/>
	<path fill="#414042" d="M20.616,16.557c1.367,0,2.48-1.113,2.48-2.48s-1.113-2.479-2.48-2.479c-1.369,0-2.48,1.111-2.48,2.479
		S19.247,16.557,20.616,16.557z M20.616,12.598c0.816,0,1.48,0.662,1.48,1.479s-0.664,1.48-1.48,1.48s-1.48-0.664-1.48-1.48
		S19.799,12.598,20.616,12.598z"/>
	<path fill="#414042" d="M27.615,16.557c1.367,0,2.48-1.113,2.48-2.48s-1.113-2.479-2.48-2.479s-2.48,1.111-2.48,2.479
		S26.248,16.557,27.615,16.557z M27.615,12.598c0.816,0,1.48,0.662,1.48,1.479s-0.664,1.48-1.48,1.48s-1.48-0.664-1.48-1.48
		S26.799,12.598,27.615,12.598z"/>
	<ellipse fill="#414042" cx="27.615" cy="14.077" rx="0.66" ry="0.649"/>
	<ellipse fill="#414042" cx="20.616" cy="14.077" rx="0.66" ry="0.649"/>
</g>
</svg>
