<?xml version="1.0" encoding="utf-8"?>
<!-- Generator: Adobe Illustrator 16.0.0, SVG Export Plug-In . SVG Version: 6.00 Build 0)  -->
<!DOCTYPE svg PUBLIC "-//W3C//DTD SVG 1.1//EN" "http://www.w3.org/Graphics/SVG/1.1/DTD/svg11.dtd">
<svg version="1.1" id="Layer_1" xmlns="http://www.w3.org/2000/svg" xmlns:xlink="http://www.w3.org/1999/xlink" x="0px" y="0px"
	 width="1024px" height="1024px" viewBox="0 0 1024 1024" enable-background="new 0 0 1024 1024" xml:space="preserve">
<path fill="#414042" d="M178.625,181.563c0.458-2.083,0.708-4.229,0.708-6.438v-74c0-20.625,17.042-37.438,37.938-37.438h642.292
	c16.875,0,30.542-13.5,30.542-30.167c0-16.646-13.667-30.146-30.542-30.146H217.271c-54.604,0-99.021,43.854-99.021,97.75v74
	c0,2.563,0.417,4.979,1,7.354v838.125h775.292V181.563H178.625z M652.375,833.167L506.167,730.708L361.5,836.042l45.271-169.667
	L268.813,563.792l171.938-6.125l61.708-165.042l64.646,163.667l172.438,2.771L603.917,664.083L652.375,833.167z"/>
</svg>
