<?xml version="1.0" encoding="utf-8"?>
<!-- Generator: Adobe Illustrator 16.0.0, SVG Export Plug-In . SVG Version: 6.00 Build 0)  -->
<!DOCTYPE svg PUBLIC "-//W3C//DTD SVG 1.1//EN" "http://www.w3.org/Graphics/SVG/1.1/DTD/svg11.dtd">
<svg version="1.1" id="Layer_1" xmlns="http://www.w3.org/2000/svg" xmlns:xlink="http://www.w3.org/1999/xlink" x="0px" y="0px"
	 width="1024px" height="1024px" viewBox="0 0 1024 1024" enable-background="new 0 0 1024 1024" xml:space="preserve">
<path fill="#414042" d="M852.75,169.542L737.938,83.021c-31.708-23.875-69.396-36.5-108.979-36.5
	c-57.541,0-110.375,26.313-144.958,72.209L69.771,668.417c-3.541,4.708-2.604,11.396,2.104,14.938l387.396,291.958
	c1.854,1.396,4.104,2.146,6.417,2.146c0.5,0,1-0.041,1.479-0.104c2.813-0.396,5.333-1.875,7.041-4.146L888.438,423.5
	C948.604,343.646,932.604,229.729,852.75,169.542z M714.646,348.625c-13.208,17.542-33.416,27.604-55.416,27.604
	c-15.146,0-29.542-4.834-41.667-13.959c-14.792-11.146-24.354-27.396-26.938-45.75c-2.563-18.354,2.167-36.604,13.313-51.396
	c13.208-17.542,33.396-27.583,55.375-27.583c15.167,0,29.583,4.833,41.708,14c14.771,11.125,24.334,27.375,26.917,45.708
	S725.792,333.833,714.646,348.625z"/>
</svg>
