<?xml version="1.0" encoding="utf-8"?>
<!-- Generator: Adobe Illustrator 16.0.0, SVG Export Plug-In . SVG Version: 6.00 Build 0)  -->
<!DOCTYPE svg PUBLIC "-//W3C//DTD SVG 1.1//EN" "http://www.w3.org/Graphics/SVG/1.1/DTD/svg11.dtd">
<svg version="1.1" id="Layer_1" xmlns="http://www.w3.org/2000/svg" xmlns:xlink="http://www.w3.org/1999/xlink" x="0px" y="0px"
	 width="48px" height="48px" viewBox="0 0 48 48" enable-background="new 0 0 48 48" xml:space="preserve">
<g>
	<path fill="#414042" d="M45.562,12.943L2.44,12.951c-0.277,0-0.5,0.224-0.5,0.5c0,0.276,0.224,0.5,0.5,0.5l1.581,0v20.624
		c0,0.276,0.224,0.5,0.5,0.5c0.276,0,0.5-0.224,0.5-0.5v-6.197h37.987v6.197c0,0.276,0.224,0.5,0.5,0.5s0.5-0.224,0.5-0.5V13.945
		c0,0,0-0.001,0-0.001l1.553,0c0.276,0,0.5-0.224,0.5-0.5C46.062,13.167,45.838,12.943,45.562,12.943z M23.5,13.947v6.43H5.021
		v-6.426L23.5,13.947z M5.021,21.377H23.5v6H5.021V21.377z M24.501,27.377v-6h18.508v6H24.501z M43.009,13.945v6.432H24.501v-6.43
		l18.508-0.003C43.009,13.944,43.009,13.945,43.009,13.945z"/>
	<path fill="#414042" d="M27.135,18.352c0.478,0,0.866-0.388,0.866-0.865c0-0.478-0.389-0.867-0.866-0.867s-0.866,0.389-0.866,0.867
		C26.269,17.963,26.657,18.352,27.135,18.352z M27.135,17.352c0.074,0,0.134,0.061,0.134,0.135c0,0.146-0.268,0.146-0.268,0
		C27.001,17.412,27.061,17.352,27.135,17.352z"/>
	<path fill="#414042" d="M20.867,18.311c0.478,0,0.866-0.388,0.866-0.865c0-0.478-0.389-0.867-0.866-0.867s-0.866,0.389-0.866,0.867
		C20.001,17.922,20.389,18.311,20.867,18.311z M20.867,17.311c0.074,0,0.134,0.061,0.134,0.135c0,0.146-0.267,0.146-0.267,0
		C20.733,17.371,20.793,17.311,20.867,17.311z"/>
	<path fill="#414042" d="M27.135,23.619c-0.478,0-0.866,0.389-0.866,0.867c0,0.477,0.389,0.865,0.866,0.865s0.866-0.388,0.866-0.865
		C28.001,24.008,27.612,23.619,27.135,23.619z M27.001,24.486c0-0.074,0.06-0.135,0.134-0.135s0.134,0.061,0.134,0.135
		C27.269,24.633,27.001,24.633,27.001,24.486z"/>
	<path fill="#414042" d="M20.867,23.578c-0.478,0-0.866,0.389-0.866,0.867c0,0.477,0.388,0.865,0.866,0.865s0.866-0.388,0.866-0.865
		C21.733,23.967,21.344,23.578,20.867,23.578z M20.733,24.445c0-0.074,0.06-0.135,0.133-0.135S21,24.371,21,24.445
		C21,24.592,20.733,24.592,20.733,24.445z"/>
</g>
</svg>
