<?xml version="1.0" encoding="utf-8"?>
<!-- Generator: Adobe Illustrator 16.0.0, SVG Export Plug-In . SVG Version: 6.00 Build 0)  -->
<!DOCTYPE svg PUBLIC "-//W3C//DTD SVG 1.1//EN" "http://www.w3.org/Graphics/SVG/1.1/DTD/svg11.dtd">
<svg version="1.1" id="Layer_1" xmlns="http://www.w3.org/2000/svg" xmlns:xlink="http://www.w3.org/1999/xlink" x="0px" y="0px"
	 width="48px" height="48px" viewBox="0 0 48 48" enable-background="new 0 0 48 48" xml:space="preserve">
<g>
	<path fill="#414042" d="M31.288,20.954h7.135c0.277,0,0.5-0.224,0.5-0.5s-0.223-0.5-0.5-0.5h-7.135c-0.275,0-0.5,0.224-0.5,0.5
		S31.013,20.954,31.288,20.954z"/>
	<path fill="#414042" d="M45.05,7.288H2.952c-0.276,0-0.5,0.224-0.5,0.5v25.537c0,0.234,0.164,0.422,0.381,0.476v6.429
		c0,0.276,0.224,0.5,0.5,0.5s0.5-0.224,0.5-0.5v-6.404h40.25v6.404c0,0.276,0.225,0.5,0.5,0.5c0.277,0,0.5-0.224,0.5-0.5v-6.411
		c0.259-0.018,0.467-0.229,0.467-0.493V7.788C45.55,7.512,45.325,7.288,45.05,7.288z M44.55,16.333v8H3.452v-8H44.55z M3.452,32.825
		v-7.492H44.55v7.492H3.452z M44.55,15.333H24.458V8.288H44.55V15.333z M23.458,8.288v7.045H3.452V8.288H23.458z"/>
	<path fill="#414042" d="M9.492,20.954h7.136c0.276,0,0.5-0.224,0.5-0.5s-0.224-0.5-0.5-0.5H9.492c-0.276,0-0.5,0.224-0.5,0.5
		S9.216,20.954,9.492,20.954z"/>
	<path fill="#414042" d="M38.423,28.954h-7.135c-0.275,0-0.5,0.224-0.5,0.5s0.225,0.5,0.5,0.5h7.135c0.277,0,0.5-0.224,0.5-0.5
		S38.7,28.954,38.423,28.954z"/>
	<path fill="#414042" d="M16.628,28.954H9.492c-0.276,0-0.5,0.224-0.5,0.5s0.224,0.5,0.5,0.5h7.136c0.276,0,0.5-0.224,0.5-0.5
		S16.904,28.954,16.628,28.954z"/>
	<path fill="#414042" d="M27.134,12.728c0.479,0,0.867-0.388,0.867-0.865c0-0.478-0.389-0.867-0.867-0.867
		c-0.477,0-0.865,0.389-0.865,0.867C26.269,12.339,26.657,12.728,27.134,12.728z M27.134,11.728c0.074,0,0.135,0.061,0.135,0.135
		c0,0.146-0.268,0.146-0.268,0C27.001,11.788,27.06,11.728,27.134,11.728z"/>
	<path fill="#414042" d="M20.866,12.687c0.478,0,0.866-0.388,0.866-0.865c0-0.478-0.389-0.867-0.866-0.867S20,11.343,20,11.821
		C20,12.298,20.389,12.687,20.866,12.687z M20.866,11.687c0.074,0,0.134,0.061,0.134,0.135c0,0.146-0.268,0.146-0.268,0
		C20.732,11.747,20.792,11.687,20.866,11.687z"/>
</g>
</svg>
