<?xml version="1.0" encoding="utf-8"?>
<!-- Generator: Adobe Illustrator 16.0.0, SVG Export Plug-In . SVG Version: 6.00 Build 0)  -->
<!DOCTYPE svg PUBLIC "-//W3C//DTD SVG 1.1//EN" "http://www.w3.org/Graphics/SVG/1.1/DTD/svg11.dtd">
<svg version="1.1" id="Layer_1" xmlns="http://www.w3.org/2000/svg" xmlns:xlink="http://www.w3.org/1999/xlink" x="0px" y="0px"
	 width="48px" height="48px" viewBox="0 0 48 48" enable-background="new 0 0 48 48" xml:space="preserve">
<path fill="#414042" d="M35.607,24.973h-3.102l2.226-19.445c0.016-0.142-0.029-0.283-0.124-0.39
	c-0.095-0.106-0.23-0.167-0.373-0.167H13.966c-0.143,0-0.278,0.061-0.374,0.167c-0.095,0.106-0.14,0.249-0.123,0.39l2.254,19.444
	h-3.33c-0.276,0-0.5,0.224-0.5,0.5v2.699c0,0.276,0.223,0.5,0.5,0.5h1.975v13.875c0,0.276,0.224,0.5,0.5,0.5
	c0.276,0,0.5-0.224,0.5-0.5V28.672h17.264v13.875c0,0.276,0.224,0.5,0.5,0.5s0.5-0.224,0.5-0.5V28.672h1.975
	c0.276,0,0.5-0.224,0.5-0.5v-2.699C36.107,25.196,35.884,24.973,35.607,24.973z M14.528,5.971h19.146l-2.175,19.002H16.73
	L14.528,5.971z M35.107,27.672H12.894v-1.699h3.391h15.661h3.162V27.672z"/>
</svg>
