<?xml version="1.0" encoding="utf-8"?>
<!-- Generator: Adobe Illustrator 16.0.0, SVG Export Plug-In . SVG Version: 6.00 Build 0)  -->
<!DOCTYPE svg PUBLIC "-//W3C//DTD SVG 1.1//EN" "http://www.w3.org/Graphics/SVG/1.1/DTD/svg11.dtd">
<svg version="1.1" id="Layer_1" xmlns="http://www.w3.org/2000/svg" xmlns:xlink="http://www.w3.org/1999/xlink" x="0px" y="0px"
	 width="48px" height="48px" viewBox="0 0 48 48" enable-background="new 0 0 48 48" xml:space="preserve">
<path fill="#414042" d="M38.038,19.631L31.837,4.268c-0.076-0.189-0.26-0.313-0.464-0.313H17.025c-0.2,0-0.38,0.119-0.459,0.303
	L9.964,19.621c-0.066,0.154-0.041,0.332,0.052,0.472c0.092,0.141,0.259,0.225,0.427,0.225h9.779v5.571
	c-5.185,1.056-8.77,4.222-8.77,7.796c0,3.307,2.964,6.227,7.586,7.512v2.365c0,0.276,0.224,0.5,0.5,0.5h8.859
	c0.276,0,0.5-0.224,0.5-0.5v-2.365c4.623-1.285,7.588-4.205,7.588-7.512c0-3.574-3.585-6.74-8.771-7.796v-5.571h9.859
	c0.166,0,0.321-0.083,0.414-0.22C38.082,19.96,38.1,19.785,38.038,19.631z M27.215,19.318h-6.492h-1.529l3.038-14.363h3.616
	l2.994,14.363H27.215z M17.355,4.955h3.854l-3.038,14.363h-6.988L17.355,4.955z M27.127,26.795c4.922,0.882,8.359,3.716,8.359,6.891
	c0,2.879-2.897,5.548-7.211,6.643c-0.222,0.056-0.377,0.256-0.377,0.484v2.25h-7.859v-2.25c0-0.229-0.155-0.429-0.377-0.484
	c-4.312-1.095-7.209-3.765-7.209-6.643c0-3.175,3.438-6.009,8.358-6.891c0.239-0.043,0.412-0.25,0.412-0.492v-5.984h5.492v5.984
	C26.715,26.545,26.889,26.752,27.127,26.795z M29.863,19.318L26.868,4.955h4.168l5.797,14.363H29.863z"/>
</svg>
