<?xml version="1.0" encoding="utf-8"?>
<!-- Generator: Adobe Illustrator 16.0.0, SVG Export Plug-In . SVG Version: 6.00 Build 0)  -->
<!DOCTYPE svg PUBLIC "-//W3C//DTD SVG 1.1//EN" "http://www.w3.org/Graphics/SVG/1.1/DTD/svg11.dtd">
<svg version="1.1" id="Layer_1" xmlns="http://www.w3.org/2000/svg" xmlns:xlink="http://www.w3.org/1999/xlink" x="0px" y="0px"
	 width="48px" height="48px" viewBox="0 0 48 48" enable-background="new 0 0 48 48" xml:space="preserve">
<g>
	<path fill="#414042" d="M46.972,11.363c0-0.276-0.225-0.5-0.5-0.5H1.53c-0.276,0-0.5,0.224-0.5,0.5v13.4v11.891
		c0,0.276,0.224,0.5,0.5,0.5s0.5-0.224,0.5-0.5V25.264h43.941v11.391c0,0.276,0.223,0.5,0.5,0.5c0.275,0,0.5-0.224,0.5-0.5v-11.83
		c0-0.011-0.006-0.02-0.006-0.03s0.006-0.02,0.006-0.03V11.363z M45.972,24.264H24.501v-12.4h21.471V24.264z M2.03,11.863h21.471
		v12.4H2.03V11.863z"/>
	<path fill="#414042" d="M17.634,14.99c-0.276,0-0.5,0.224-0.5,0.5v5.574c0,0.276,0.224,0.5,0.5,0.5s0.5-0.224,0.5-0.5V15.49
		C18.134,15.214,17.91,14.99,17.634,14.99z"/>
	<path fill="#414042" d="M30.405,21.563c0.275,0,0.5-0.224,0.5-0.5V15.49c0-0.276-0.225-0.5-0.5-0.5c-0.277,0-0.5,0.224-0.5,0.5
		v5.572C29.905,21.339,30.128,21.563,30.405,21.563z"/>
</g>
</svg>
