<?xml version="1.0" encoding="utf-8"?>
<!-- Generator: Adobe Illustrator 16.0.0, SVG Export Plug-In . SVG Version: 6.00 Build 0)  -->
<!DOCTYPE svg PUBLIC "-//W3C//DTD SVG 1.1//EN" "http://www.w3.org/Graphics/SVG/1.1/DTD/svg11.dtd">
<svg version="1.1" id="Layer_1" xmlns="http://www.w3.org/2000/svg" xmlns:xlink="http://www.w3.org/1999/xlink" x="0px" y="0px"
	 width="48px" height="48px" viewBox="0 0 48 48" enable-background="new 0 0 48 48" xml:space="preserve">
<g>
	<path fill="#414042" d="M46.804,4.794c0-0.276-0.223-0.5-0.5-0.5H1.697c-0.276,0-0.5,0.224-0.5,0.5v28.408v9.857
		c0,0.276,0.224,0.5,0.5,0.5s0.5-0.224,0.5-0.5v-9.357h43.606v9.521c0,0.276,0.225,0.5,0.5,0.5c0.277,0,0.5-0.224,0.5-0.5v-9.859
		c0-0.028-0.012-0.054-0.017-0.081c0.005-0.027,0.017-0.053,0.017-0.081V4.794z M45.804,32.702H24.5V19.335h21.304V32.702z
		 M45.804,18.335H24.5V5.294h21.304V18.335z M23.5,5.294v13.041H2.197V5.294H23.5z M2.197,19.335H23.5v13.367H2.197V19.335z"/>
	<path fill="#414042" d="M18.097,15.29c0.276,0,0.5-0.224,0.5-0.5V8.892c0-0.276-0.224-0.5-0.5-0.5s-0.5,0.224-0.5,0.5v5.898
		C17.597,15.066,17.82,15.29,18.097,15.29z"/>
	<path fill="#414042" d="M29.925,15.31c0.275,0,0.5-0.224,0.5-0.5V8.892c0-0.276-0.225-0.5-0.5-0.5c-0.277,0-0.5,0.224-0.5,0.5
		v5.918C29.425,15.086,29.647,15.31,29.925,15.31z"/>
	<path fill="#414042" d="M29.925,29.899c0.275,0,0.5-0.224,0.5-0.5v-5.916c0-0.276-0.225-0.5-0.5-0.5c-0.277,0-0.5,0.224-0.5,0.5
		v5.916C29.425,29.676,29.647,29.899,29.925,29.899z"/>
	<path fill="#414042" d="M18.186,22.983c-0.276,0-0.5,0.224-0.5,0.5v5.916c0,0.276,0.224,0.5,0.5,0.5s0.5-0.224,0.5-0.5v-5.916
		C18.686,23.207,18.462,22.983,18.186,22.983z"/>
</g>
</svg>
