<?xml version="1.0" encoding="utf-8"?>
<!-- Generator: Adobe Illustrator 16.0.0, SVG Export Plug-In . SVG Version: 6.00 Build 0)  -->
<!DOCTYPE svg PUBLIC "-//W3C//DTD SVG 1.1//EN" "http://www.w3.org/Graphics/SVG/1.1/DTD/svg11.dtd">
<svg version="1.1" id="Layer_1" xmlns="http://www.w3.org/2000/svg" xmlns:xlink="http://www.w3.org/1999/xlink" x="0px" y="0px"
	 width="48px" height="48px" viewBox="0 0 48 48" enable-background="new 0 0 48 48" xml:space="preserve">
<g>
	<path fill="#414042" d="M41.05,33.04v-8.861c0.025-0.06,0.039-0.125,0.039-0.194s-0.014-0.135-0.039-0.194V1.381
		c0-0.276-0.225-0.5-0.5-0.5H7.412c-0.276,0-0.5,0.224-0.5,0.5v41.023c0,0.018,0.008,0.031,0.01,0.049v4.184
		c0,0.276,0.224,0.5,0.5,0.5s0.5-0.224,0.5-0.5V42.98H40.05v3.656c0,0.276,0.223,0.5,0.5,0.5c0.275,0,0.5-0.224,0.5-0.5v-4.232
		v-8.976c0.025-0.06,0.039-0.125,0.039-0.194S41.075,33.1,41.05,33.04z M7.912,33.734H23.48v8.17H7.912V33.734z M24.48,33.734H40.05
		v8.17H24.48V33.734z M24.48,32.734v-8.25H40.05v8.25H24.48z M23.48,32.734H7.912v-8.25H23.48V32.734z M40.05,23.484H24.48V1.881
		H40.05V23.484z M23.48,1.881v21.604H7.912V1.881H23.48z"/>
	<path fill="#414042" d="M20.812,16.547c0.276,0,0.5-0.224,0.5-0.5V9.172c0-0.276-0.224-0.5-0.5-0.5s-0.5,0.224-0.5,0.5v6.875
		C20.312,16.323,20.535,16.547,20.812,16.547z"/>
	<path fill="#414042" d="M27.239,16.547c0.275,0,0.5-0.224,0.5-0.5V9.172c0-0.276-0.225-0.5-0.5-0.5c-0.277,0-0.5,0.224-0.5,0.5
		v6.875C26.739,16.323,26.962,16.547,27.239,16.547z"/>
	<path fill="#414042" d="M20.812,31.047c0.276,0,0.5-0.224,0.5-0.5v-3.75c0-0.276-0.224-0.5-0.5-0.5s-0.5,0.224-0.5,0.5v3.75
		C20.312,30.823,20.535,31.047,20.812,31.047z"/>
	<path fill="#414042" d="M27.265,26.297c-0.277,0-0.5,0.224-0.5,0.5v3.75c0,0.276,0.223,0.5,0.5,0.5c0.275,0,0.5-0.224,0.5-0.5
		v-3.75C27.765,26.521,27.54,26.297,27.265,26.297z"/>
	<path fill="#414042" d="M20.812,35.672c-0.276,0-0.5,0.224-0.5,0.5v3.5c0,0.276,0.224,0.5,0.5,0.5s0.5-0.224,0.5-0.5v-3.5
		C21.312,35.896,21.088,35.672,20.812,35.672z"/>
	<path fill="#414042" d="M27.239,35.672c-0.277,0-0.5,0.224-0.5,0.5v3.5c0,0.276,0.223,0.5,0.5,0.5c0.275,0,0.5-0.224,0.5-0.5v-3.5
		C27.739,35.896,27.515,35.672,27.239,35.672z"/>
</g>
</svg>
