<?xml version="1.0" encoding="utf-8"?>
<!-- Generator: Adobe Illustrator 16.0.0, SVG Export Plug-In . SVG Version: 6.00 Build 0)  -->
<!DOCTYPE svg PUBLIC "-//W3C//DTD SVG 1.1//EN" "http://www.w3.org/Graphics/SVG/1.1/DTD/svg11.dtd">
<svg version="1.1" id="Layer_1" xmlns="http://www.w3.org/2000/svg" xmlns:xlink="http://www.w3.org/1999/xlink" x="0px" y="0px"
	 width="48px" height="48px" viewBox="0 0 48 48" enable-background="new 0 0 48 48" xml:space="preserve">
<g>
	<path fill="#414042" d="M46.344,9.345H1.658c-0.277,0-0.5,0.224-0.5,0.5v22.602v5.727c0,0.276,0.224,0.5,0.5,0.5
		c0.276,0,0.5-0.224,0.5-0.5v-5.227h14.149c0.276,0,0.5-0.224,0.5-0.5V17.634h14.387v14.813c0,0.276,0.224,0.5,0.5,0.5h14.15v5.227
		c0,0.276,0.224,0.5,0.5,0.5s0.5-0.224,0.5-0.5v-5.727V9.845C46.844,9.568,46.62,9.345,46.344,9.345z M32.193,25.659h13.65v6.287
		h-13.65V25.659z M45.844,16.634h-13.65v-6.289h13.65V16.634z M15.806,10.345v6.289H2.158v-6.289H15.806z M2.158,25.659h13.648
		v6.287H2.158V25.659z M15.806,24.659H2.158v-7.025h13.648V24.659z M16.806,16.634v-6.289h14.387v6.289H16.806z M45.844,17.634
		v7.025h-13.65v-7.025H45.844z"/>
	<path fill="#414042" d="M6.771,13.989h4.457c0.277,0,0.5-0.224,0.5-0.5s-0.223-0.5-0.5-0.5H6.771c-0.276,0-0.5,0.224-0.5,0.5
		S6.495,13.989,6.771,13.989z"/>
	<path fill="#414042" d="M26.229,12.989h-4.458c-0.276,0-0.5,0.224-0.5,0.5s0.224,0.5,0.5,0.5h4.458c0.276,0,0.5-0.224,0.5-0.5
		S26.505,12.989,26.229,12.989z"/>
	<path fill="#414042" d="M36.771,13.989h4.457c0.276,0,0.5-0.224,0.5-0.5s-0.224-0.5-0.5-0.5h-4.457c-0.276,0-0.5,0.224-0.5,0.5
		S36.495,13.989,36.771,13.989z"/>
	<path fill="#414042" d="M6.771,21.646h4.457c0.277,0,0.5-0.224,0.5-0.5s-0.223-0.5-0.5-0.5H6.771c-0.276,0-0.5,0.224-0.5,0.5
		S6.495,21.646,6.771,21.646z"/>
	<path fill="#414042" d="M36.771,21.646h4.457c0.276,0,0.5-0.224,0.5-0.5s-0.224-0.5-0.5-0.5h-4.457c-0.276,0-0.5,0.224-0.5,0.5
		S36.495,21.646,36.771,21.646z"/>
	<path fill="#414042" d="M11.228,28.302H6.771c-0.276,0-0.5,0.224-0.5,0.5s0.224,0.5,0.5,0.5h4.457c0.277,0,0.5-0.224,0.5-0.5
		S11.505,28.302,11.228,28.302z"/>
	<path fill="#414042" d="M41.229,28.302h-4.457c-0.276,0-0.5,0.224-0.5,0.5s0.224,0.5,0.5,0.5h4.457c0.276,0,0.5-0.224,0.5-0.5
		S41.505,28.302,41.229,28.302z"/>
</g>
</svg>
