<?xml version="1.0" encoding="utf-8"?>
<!-- Generator: Adobe Illustrator 16.0.0, SVG Export Plug-In . SVG Version: 6.00 Build 0)  -->
<!DOCTYPE svg PUBLIC "-//W3C//DTD SVG 1.1//EN" "http://www.w3.org/Graphics/SVG/1.1/DTD/svg11.dtd">
<svg version="1.1" id="Layer_1" xmlns="http://www.w3.org/2000/svg" xmlns:xlink="http://www.w3.org/1999/xlink" x="0px" y="0px"
	 width="48px" height="48px" viewBox="0 0 48 48" enable-background="new 0 0 48 48" xml:space="preserve">
<path fill="#414042" d="M39.551,9.85c-4.155-0.282-9.678-0.438-15.55-0.438c-5.873,0-11.396,0.156-15.551,0.438
	c-6.893,0.469-6.893,1.021-6.893,1.554s0,1.085,6.893,1.554c2.131,0.145,4.625,0.255,7.337,0.33l6.792,7.905v13.224l-7.618,3.229
	c-0.219,0.093-0.342,0.326-0.295,0.56c0.047,0.233,0.252,0.4,0.49,0.4h17.688c0.235,0,0.439-0.165,0.489-0.396
	c0.049-0.23-0.069-0.464-0.284-0.561l-7.188-3.225V21.188l6.494-7.902c2.658-0.075,5.102-0.185,7.195-0.327
	c6.894-0.469,6.894-1.021,6.894-1.554S46.444,10.319,39.551,9.85z M17.134,13.321c1.749,0.039,3.574,0.063,5.446,0.07v6.267
	L17.134,13.321z M30.509,37.605H17.618l5.657-2.397c0.185-0.078,0.305-0.259,0.305-0.46V13.396h1.282v21.352
	c0,0.197,0.115,0.376,0.295,0.456L30.509,37.605z M25.861,19.611V13.39c1.779-0.01,3.51-0.035,5.173-0.073L25.861,19.611z
	 M24.001,12.396c-10.867,0-18.178-0.515-20.667-0.992c2.488-0.477,9.799-0.992,20.667-0.992s18.178,0.515,20.666,0.992
	C42.179,11.881,34.868,12.396,24.001,12.396z"/>
</svg>
