<?xml version="1.0" encoding="utf-8"?>
<!-- Generator: Adobe Illustrator 16.0.0, SVG Export Plug-In . SVG Version: 6.00 Build 0)  -->
<!DOCTYPE svg PUBLIC "-//W3C//DTD SVG 1.1//EN" "http://www.w3.org/Graphics/SVG/1.1/DTD/svg11.dtd">
<svg version="1.1" id="Layer_1" xmlns="http://www.w3.org/2000/svg" xmlns:xlink="http://www.w3.org/1999/xlink" x="0px" y="0px"
	 width="48px" height="48px" viewBox="0 0 48 48" enable-background="new 0 0 48 48" xml:space="preserve">
<g>
	<path fill="#414042" d="M39.521,2.271H8.481c-0.277,0-0.5,0.224-0.5,0.5v42.475c0,0.276,0.224,0.5,0.5,0.5h31.039
		c0.276,0,0.5-0.224,0.5-0.5V2.771C40.021,2.495,39.797,2.271,39.521,2.271z M8.981,24.85v-6.416H23.5v6.416H8.981z M23.5,17.434
		H8.981v-6.375H23.5V17.434z M24.501,11.059h14.52v6.375h-14.52V11.059z M24.501,18.434h14.52v6.416h-14.52V18.434z M39.021,10.059
		h-14.52V3.271h14.52V10.059z M23.5,3.271v6.787H8.981V3.271H23.5z M8.981,44.746V25.85h30.04v18.896H8.981z"/>
	<path fill="#414042" d="M18.929,32.027c-0.276,0-0.5,0.224-0.5,0.5v6.434c0,0.276,0.224,0.5,0.5,0.5c0.276,0,0.5-0.224,0.5-0.5
		v-6.434C19.43,32.251,19.206,32.027,18.929,32.027z"/>
	<path fill="#414042" d="M28.93,32.027c-0.276,0-0.5,0.224-0.5,0.5v6.434c0,0.276,0.224,0.5,0.5,0.5s0.5-0.224,0.5-0.5v-6.434
		C29.43,32.251,29.206,32.027,28.93,32.027z"/>
</g>
</svg>
