<?xml version="1.0" encoding="utf-8"?>
<!-- Generator: Adobe Illustrator 16.0.0, SVG Export Plug-In . SVG Version: 6.00 Build 0)  -->
<!DOCTYPE svg PUBLIC "-//W3C//DTD SVG 1.1//EN" "http://www.w3.org/Graphics/SVG/1.1/DTD/svg11.dtd">
<svg version="1.1" id="Layer_1" xmlns="http://www.w3.org/2000/svg" xmlns:xlink="http://www.w3.org/1999/xlink" x="0px" y="0px"
	 width="48px" height="48px" viewBox="0 0 48 48" enable-background="new 0 0 48 48" xml:space="preserve">
<g>
	<path fill="#414042" d="M37.78,1.026H10.418c-0.276,0-0.5,0.224-0.5,0.5v25.562c-0.117,0.091-0.197,0.228-0.197,0.388
		s0.08,0.297,0.197,0.388v16.796v1.832c0,0.276,0.224,0.5,0.5,0.5c0.276,0,0.5-0.224,0.5-0.5v-1.332H37.28v1.332
		c0,0.276,0.224,0.5,0.5,0.5s0.5-0.224,0.5-0.5v-1.832V1.526C38.28,1.25,38.057,1.026,37.78,1.026z M24.401,27.976H37.28v16.184
		H24.398c0-0.006,0.003-0.012,0.003-0.018V27.976z M37.28,2.026v24.949h-8.762V2.026H37.28z M27.519,2.026v24.949h-7.86V2.026
		H27.519z M18.659,2.026v24.949h-7.74V2.026H18.659z M10.919,27.976h12.482v16.166c0,0.006,0.003,0.012,0.003,0.018H10.919V27.976z"
		/>
	<path fill="#414042" d="M16.688,18.464c0.276,0,0.5-0.224,0.5-0.5v-7.98c0-0.276-0.224-0.5-0.5-0.5c-0.276,0-0.5,0.224-0.5,0.5
		v7.98C16.188,18.24,16.412,18.464,16.688,18.464z"/>
	<path fill="#414042" d="M25.413,18.464c0.276,0,0.5-0.224,0.5-0.5v-7.98c0-0.276-0.224-0.5-0.5-0.5s-0.5,0.224-0.5,0.5v7.98
		C24.913,18.24,25.137,18.464,25.413,18.464z"/>
	<path fill="#414042" d="M31.413,18.464c0.276,0,0.5-0.224,0.5-0.5v-7.98c0-0.276-0.224-0.5-0.5-0.5s-0.5,0.224-0.5,0.5v7.98
		C30.913,18.24,31.137,18.464,31.413,18.464z"/>
	<path fill="#414042" d="M26.944,36.925c0.478,0,0.865-0.389,0.865-0.867c0-0.478-0.388-0.865-0.865-0.865
		c-0.479,0-0.867,0.388-0.867,0.865C26.077,36.536,26.466,36.925,26.944,36.925z M26.944,35.925c0.074,0,0.133,0.059,0.133,0.133
		c0,0.148-0.268,0.146-0.268,0C26.81,35.984,26.87,35.925,26.944,35.925z"/>
	<path fill="#414042" d="M20.676,35.151c-0.478,0-0.867,0.388-0.867,0.865c0,0.479,0.389,0.867,0.867,0.867
		c0.477,0,0.866-0.389,0.866-0.867C21.542,35.539,21.153,35.151,20.676,35.151z M20.542,36.017c0-0.073,0.061-0.133,0.135-0.133
		c0.075,0,0.133,0.059,0.133,0.133C20.808,36.165,20.542,36.163,20.542,36.017z"/>
</g>
</svg>
