<?xml version="1.0" encoding="utf-8"?>
<!-- Generator: Adobe Illustrator 16.0.0, SVG Export Plug-In . SVG Version: 6.00 Build 0)  -->
<!DOCTYPE svg PUBLIC "-//W3C//DTD SVG 1.1//EN" "http://www.w3.org/Graphics/SVG/1.1/DTD/svg11.dtd">
<svg version="1.1" id="Layer_1" xmlns="http://www.w3.org/2000/svg" xmlns:xlink="http://www.w3.org/1999/xlink" x="0px" y="0px"
	 width="48px" height="48px" viewBox="0 0 48 48" enable-background="new 0 0 48 48" xml:space="preserve">
<g>
	<path fill="#414042" d="M40.45,2.745H7.551c-0.276,0-0.5,0.224-0.5,0.5v37.754v3.773c0,0.276,0.223,0.5,0.5,0.5
		c0.277,0,0.5-0.224,0.5-0.5v-3.273H39.95v3.273c0,0.276,0.224,0.5,0.5,0.5s0.5-0.224,0.5-0.5v-3.773V3.245
		C40.95,2.969,40.727,2.745,40.45,2.745z M8.051,3.745H23.5v36.754H8.051V3.745z M24.501,40.499V3.745H39.95v36.754H24.501z"/>
	<path fill="#414042" d="M20.458,18.038c-0.276,0-0.5,0.224-0.5,0.5v5.75c0,0.276,0.224,0.5,0.5,0.5c0.276,0,0.5-0.224,0.5-0.5
		v-5.75C20.959,18.262,20.735,18.038,20.458,18.038z"/>
	<path fill="#414042" d="M27.459,18.038c-0.276,0-0.5,0.224-0.5,0.5v5.75c0,0.276,0.224,0.5,0.5,0.5s0.5-0.224,0.5-0.5v-5.75
		C27.959,18.262,27.735,18.038,27.459,18.038z"/>
</g>
</svg>
