<?xml version="1.0" encoding="utf-8"?>
<!-- Generator: Adobe Illustrator 16.0.0, SVG Export Plug-In . SVG Version: 6.00 Build 0)  -->
<!DOCTYPE svg PUBLIC "-//W3C//DTD SVG 1.1//EN" "http://www.w3.org/Graphics/SVG/1.1/DTD/svg11.dtd">
<svg version="1.1" id="Layer_1" xmlns="http://www.w3.org/2000/svg" xmlns:xlink="http://www.w3.org/1999/xlink" x="0px" y="0px"
	 width="48px" height="48px" viewBox="0 0 48 48" enable-background="new 0 0 48 48" xml:space="preserve">
<g>
	<path fill="#414042" d="M42.469,2.614H5.533c-0.276,0-0.5,0.224-0.5,0.5V42.95c0,0.276,0.223,0.5,0.5,0.5h4.399v1.453
		c0,0.276,0.223,0.5,0.5,0.5c0.277,0,0.5-0.224,0.5-0.5V43.45h26.858v1.453c0,0.276,0.224,0.5,0.5,0.5s0.5-0.224,0.5-0.5V43.45h3.68
		c0.276,0,0.5-0.224,0.5-0.5V3.114C42.969,2.838,42.745,2.614,42.469,2.614z M21.029,19.735H6.033v-7.305h14.997V19.735z
		 M6.033,20.735h14.997v7.131H6.033V20.735z M21.029,3.614v7.816H6.033V3.614H21.029z M6.033,28.866h14.997V42.45H6.033V28.866z
		 M41.969,42.45h-19.94V3.614h19.94V42.45z"/>
	<path fill="#414042" d="M28.27,23.532c0.276,0,0.5-0.224,0.5-0.5v-6.258c0-0.276-0.224-0.5-0.5-0.5s-0.5,0.224-0.5,0.5v6.258
		C27.77,23.309,27.993,23.532,28.27,23.532z"/>
</g>
</svg>
