<?xml version="1.0" encoding="utf-8"?>
<!-- Generator: Adobe Illustrator 16.0.0, SVG Export Plug-In . SVG Version: 6.00 Build 0)  -->
<!DOCTYPE svg PUBLIC "-//W3C//DTD SVG 1.1//EN" "http://www.w3.org/Graphics/SVG/1.1/DTD/svg11.dtd">
<svg version="1.1" id="Layer_1" xmlns="http://www.w3.org/2000/svg" xmlns:xlink="http://www.w3.org/1999/xlink" x="0px" y="0px"
	 width="48px" height="48px" viewBox="0 0 48 48" enable-background="new 0 0 48 48" xml:space="preserve">
<g>
	<path fill="#414042" d="M18.044,44.835h-1.827c-0.276,0-0.5,0.224-0.5,0.5s0.224,0.5,0.5,0.5h1.827c0.276,0,0.5-0.224,0.5-0.5
		S18.32,44.835,18.044,44.835z"/>
	<path fill="#414042" d="M18.278,23.312c0.021,0.26,0.237,0.461,0.498,0.461h10.438c0.262,0,0.479-0.2,0.498-0.46l1.066-13.407
		V8.831c0-3.666-2.906-6.648-6.479-6.648h-0.597c-3.572,0-6.479,2.982-6.479,6.648l0.001,1.113L18.278,23.312z M18.223,8.831
		c0-3.115,2.458-5.648,5.479-5.648h0.597c3.022,0,5.479,2.534,5.479,5.648l0.002,1.035l-1.027,12.907h-9.515L18.223,9.905V8.831z"/>
	<path fill="#414042" d="M21.932,25.138c-0.276,0-0.5,0.224-0.5,0.5s0.224,0.5,0.5,0.5h3.946c0.275,0,0.5-0.224,0.5-0.5
		s-0.225-0.5-0.5-0.5H21.932z"/>
	<path fill="#414042" d="M34.728,19.261h-2.693c-0.275,0-0.5,0.224-0.5,0.5v8.511c-1.457-1.176-3.198-1.194-3.291-1.194h-8.725
		c-1.236,0-2.33,0.688-3.052,1.283v-8.6c0-0.276-0.224-0.5-0.5-0.5h-2.693c-0.276,0-0.5,0.224-0.5,0.5s0.224,0.5,0.5,0.5h2.193
		v9.266v0.662v1.742c0,0.276,0.224,0.5,0.5,0.5H23.5l0.001,5.859c0,0.276,0.224,0.5,0.5,0.5c0.276,0,0.5-0.224,0.5-0.5L24.5,32.431
		h7.534c0.277,0,0.5-0.224,0.5-0.5v-1.742v-0.662v-9.266h2.193c0.277,0,0.5-0.224,0.5-0.5S35.005,19.261,34.728,19.261z
		 M31.534,31.431H16.467v-1.242v-0.47c0.383-0.409,1.657-1.642,3.052-1.642h8.729c0.086,0,2.063,0.019,3.287,1.613v0.498V31.431z"/>
	<path fill="#414042" d="M22.113,40.363c-0.007,0.003-0.014,0.002-0.021,0.006l-5.876,3.109c-0.021,0.012-0.035,0.03-0.054,0.045
		c-0.028,0.021-0.057,0.039-0.08,0.065c-0.021,0.023-0.036,0.05-0.052,0.077c-0.017,0.027-0.035,0.055-0.046,0.086
		c-0.012,0.032-0.016,0.066-0.021,0.101c-0.003,0.023-0.014,0.044-0.014,0.068c0,0.008,0.004,0.014,0.004,0.021
		c0.001,0.033,0.011,0.064,0.019,0.097c0.008,0.033,0.014,0.066,0.029,0.097c0.003,0.007,0.002,0.014,0.006,0.02
		c0.006,0.011,0.018,0.016,0.024,0.025c0.036,0.059,0.082,0.105,0.138,0.145c0.017,0.012,0.032,0.024,0.05,0.033
		c0.07,0.037,0.146,0.063,0.23,0.063h1.36c0.276,0,0.5-0.224,0.5-0.5c0-0.134-0.054-0.254-0.14-0.344l4.28-2.266h2.906l4.232,2.239
		c-0.104,0.092-0.171,0.222-0.171,0.37c0,0.276,0.225,0.5,0.5,0.5h1.361c0.016,0,0.028-0.007,0.043-0.009
		c0.012,0.001,0.023,0.009,0.035,0.009c0.18,0,0.354-0.097,0.443-0.266c0.129-0.244,0.035-0.547-0.209-0.677l-5.875-3.109
		c-0.007-0.004-0.015-0.003-0.021-0.006c-0.03-0.015-0.063-0.021-0.097-0.028c-0.032-0.008-0.063-0.018-0.094-0.019
		c-0.008-0.001-0.015-0.005-0.022-0.005h-3.157c-0.007,0-0.013,0.004-0.02,0.004c-0.034,0.001-0.066,0.012-0.099,0.021
		C22.175,40.344,22.143,40.35,22.113,40.363z"/>
	<path fill="#414042" d="M31.513,44.835h-1.826c-0.277,0-0.5,0.224-0.5,0.5s0.223,0.5,0.5,0.5h1.826c0.277,0,0.5-0.224,0.5-0.5
		S31.79,44.835,31.513,44.835z"/>
	<path fill="#414042" d="M22.771,40.04h2.188c0.276,0,0.501-0.224,0.501-0.5s-0.225-0.5-0.501-0.5h-2.188
		c-0.276,0-0.5,0.224-0.5,0.5S22.495,40.04,22.771,40.04z"/>
</g>
</svg>
