<?xml version="1.0" encoding="utf-8"?>
<!-- Generator: Adobe Illustrator 16.0.0, SVG Export Plug-In . SVG Version: 6.00 Build 0)  -->
<!DOCTYPE svg PUBLIC "-//W3C//DTD SVG 1.1//EN" "http://www.w3.org/Graphics/SVG/1.1/DTD/svg11.dtd">
<svg version="1.1" id="Layer_1" xmlns="http://www.w3.org/2000/svg" xmlns:xlink="http://www.w3.org/1999/xlink" x="0px" y="0px"
	 width="48px" height="48px" viewBox="0 0 48 48" enable-background="new 0 0 48 48" xml:space="preserve">
<path fill="#414042" d="M36.49,20.835h-3.188v-5.617c0-1.182-0.96-2.143-2.141-2.143H16.717c-1.181,0-2.141,0.961-2.141,2.143v5.617
	h-3.064c-1.189,0-2.156,0.967-2.156,2.156v9.795c0,1.188,0.967,2.156,2.156,2.156h3.565h17.727c0.021,0,0.04-0.01,0.062-0.013
	c0.021,0.003,0.04,0.013,0.062,0.013h3.564c1.188,0,2.156-0.968,2.156-2.156v-9.795C38.646,21.802,37.679,20.835,36.49,20.835z
	 M16.717,14.075h14.445c0.629,0,1.141,0.513,1.141,1.143v5.678c-0.953,0.223-1.668,1.075-1.668,2.096v3.189H17.367v-3.189
	c0-1.064-0.777-1.945-1.792-2.119v-5.654C15.576,14.588,16.087,14.075,16.717,14.075z M10.355,32.786v-9.795
	c0-0.638,0.519-1.156,1.156-1.156h3.7c0.637,0,1.156,0.519,1.156,1.156v3.225c-1.014,0.169-1.791,1.045-1.791,2.105v5.621h-3.064
	C10.874,33.942,10.355,33.424,10.355,32.786z M32.303,33.942H15.576v-5.621c0-0.629,0.512-1.141,1.141-1.141h14.445
	c0.629,0,1.141,0.512,1.141,1.141V33.942z M37.646,32.786c0,0.638-0.519,1.156-1.156,1.156h-3.188v-5.621
	c0-1.018-0.715-1.868-1.668-2.084v-3.246c0-0.638,0.519-1.156,1.156-1.156h3.699c0.638,0,1.156,0.519,1.156,1.156V32.786z"/>
</svg>
