<?xml version="1.0" encoding="utf-8"?>
<!-- Generator: Adobe Illustrator 16.0.0, SVG Export Plug-In . SVG Version: 6.00 Build 0)  -->
<!DOCTYPE svg PUBLIC "-//W3C//DTD SVG 1.1//EN" "http://www.w3.org/Graphics/SVG/1.1/DTD/svg11.dtd">
<svg version="1.1" id="Layer_1" xmlns="http://www.w3.org/2000/svg" xmlns:xlink="http://www.w3.org/1999/xlink" x="0px" y="0px"
	 width="48px" height="48px" viewBox="0 0 48 48" enable-background="new 0 0 48 48" xml:space="preserve">
<path fill="#414042" d="M45.562,24.75l-1.844,0c-0.064-0.03-0.134-0.049-0.209-0.049c-0.076,0-0.146,0.02-0.21,0.049l-2.309,0
	l-4.524-5.626c0.326-2.111,0.763-6.87-1.35-9.614c-0.866-1.124-2.059-1.782-3.548-1.965c-0.013-0.022-0.019-0.048-0.032-0.071
	c-0.525-0.875-1.664-1.338-3.295-1.338c-1.564,0-3.415,0.456-4.499,1.108c-0.236,0.142-0.313,0.449-0.171,0.686l3.822,6.361
	c0.094,0.156,0.26,0.243,0.43,0.243c0.088,0,0.176-0.023,0.256-0.071c1.387-0.832,3.188-2.988,3.656-4.872
	c0.088-0.352,0.115-0.676,0.106-0.982c1.033,0.207,1.855,0.698,2.481,1.51c1.841,2.39,1.457,6.777,1.159,8.788l-4.701,5.845
	l-26.04,0.005c-0.067-0.033-0.14-0.056-0.22-0.056s-0.153,0.023-0.22,0.056l-1.861,0c-0.276,0-0.5,0.224-0.5,0.5s0.225,0.5,0.5,0.5
	h1.581V41.38c0,0.276,0.224,0.5,0.5,0.5s0.5-0.224,0.5-0.5V25.758l37.987-0.006V41.38c0,0.276,0.223,0.5,0.5,0.5
	c0.275,0,0.5-0.224,0.5-0.5V25.751h1.553c0.275,0,0.5-0.224,0.5-0.5C46.062,24.974,45.837,24.75,45.562,24.75z M30.767,9.351
	c-0.35,1.396-1.666,3.108-2.789,3.972l-3.275-5.451c0.961-0.436,2.359-0.734,3.539-0.734c1.083,0,1.855,0.242,2.26,0.666
	c-0.02,0.055-0.035,0.113-0.037,0.174c-0.01,0.236,0.149,0.431,0.368,0.492C30.866,8.724,30.85,9.015,30.767,9.351z M32.106,24.702
	l3.392-4.216c0.053,0.037,0.112,0.064,0.179,0.079c0.037,0.008,0.074,0.012,0.109,0.012c0.159,0,0.305-0.08,0.398-0.206l3.48,4.331
	H32.106z"/>
</svg>
