<?xml version="1.0" encoding="utf-8"?>
<!-- Generator: Adobe Illustrator 16.0.0, SVG Export Plug-In . SVG Version: 6.00 Build 0)  -->
<!DOCTYPE svg PUBLIC "-//W3C//DTD SVG 1.1//EN" "http://www.w3.org/Graphics/SVG/1.1/DTD/svg11.dtd">
<svg version="1.1" id="Layer_1" xmlns="http://www.w3.org/2000/svg" xmlns:xlink="http://www.w3.org/1999/xlink" x="0px" y="0px"
	 width="48px" height="48px" viewBox="0 0 48 48" enable-background="new 0 0 48 48" xml:space="preserve">
<g>
	<path fill="#414042" d="M38.062,3.521H9.94c-1.93,0-3.5,1.57-3.5,3.5v33.977c0,1.93,1.57,3.5,3.5,3.5h28.121
		c1.93,0,3.5-1.57,3.5-3.5V7.021C41.562,5.091,39.991,3.521,38.062,3.521z M9.94,4.521h28.121c1.379,0,2.5,1.122,2.5,2.5v9.061H7.44
		V7.021C7.44,5.642,8.562,4.521,9.94,4.521z M38.062,43.497H9.94c-1.379,0-2.5-1.121-2.5-2.5V17.081h33.122v23.916
		C40.562,42.376,39.44,43.497,38.062,43.497z"/>
	<path fill="#414042" d="M12.292,14.392h7.709c1.929,0,3.5-1.57,3.5-3.5V9.021c0-1.93-1.57-3.5-3.5-3.5h-7.709
		c-1.929,0-3.5,1.57-3.5,3.5v1.871C8.792,12.821,10.362,14.392,12.292,14.392z M9.792,9.021c0-1.378,1.122-2.5,2.5-2.5h7.709
		c1.378,0,2.5,1.122,2.5,2.5v1.871c0,1.378-1.122,2.5-2.5,2.5h-7.709c-1.378,0-2.5-1.122-2.5-2.5V9.021z"/>
	<path fill="#414042" d="M28.003,14.392h7.709c1.93,0,3.5-1.57,3.5-3.5V9.021c0-1.93-1.57-3.5-3.5-3.5h-7.709
		c-1.93,0-3.5,1.57-3.5,3.5v1.871C24.502,12.821,26.073,14.392,28.003,14.392z M25.503,9.021c0-1.378,1.121-2.5,2.5-2.5h7.709
		c1.379,0,2.5,1.122,2.5,2.5v1.871c0,1.378-1.121,2.5-2.5,2.5h-7.709c-1.379,0-2.5-1.122-2.5-2.5V9.021z"/>
</g>
</svg>
