<?xml version="1.0" encoding="utf-8"?>
<!-- Generator: Adobe Illustrator 16.0.0, SVG Export Plug-In . SVG Version: 6.00 Build 0)  -->
<!DOCTYPE svg PUBLIC "-//W3C//DTD SVG 1.1//EN" "http://www.w3.org/Graphics/SVG/1.1/DTD/svg11.dtd">
<svg version="1.1" id="Layer_1" xmlns="http://www.w3.org/2000/svg" xmlns:xlink="http://www.w3.org/1999/xlink" x="0px" y="0px"
	 width="48px" height="48px" viewBox="0 0 48 48" enable-background="new 0 0 48 48" xml:space="preserve">
<path fill="#414042" d="M42.083,21.188h-0.498v-10.08c0-1.136-0.925-2.061-2.061-2.061H8.477c-1.136,0-2.061,0.924-2.061,2.061
	v10.08H5.921c-1.138,0-2.063,0.925-2.063,2.063v13.137c0,0.276,0.223,0.5,0.5,0.5h2.059v1.582c0,0.276,0.224,0.5,0.5,0.5h4.77
	c0.276,0,0.5-0.224,0.5-0.5v-1.582h23.891v1.582c0,0.276,0.224,0.5,0.5,0.5h4.768c0.276,0,0.5-0.224,0.5-0.5v-1.582h1.799
	c0.276,0,0.5-0.224,0.5-0.5V23.251C44.144,22.114,43.219,21.188,42.083,21.188z M7.417,11.108c0-0.585,0.476-1.061,1.061-1.061
	h31.047c0.585,0,1.061,0.476,1.061,1.061v10.08h-1.832v-3.986c0-1.125-0.915-2.039-2.039-2.039h-9.783
	c-1.124,0-2.039,0.915-2.039,2.039v3.986h-1.749v-3.986c0-1.125-0.915-2.039-2.039-2.039h-9.783c-1.125,0-2.039,0.915-2.039,2.039
	v3.986H7.417V11.108z M37.753,21.188H25.892v-3.986c0-0.573,0.466-1.039,1.039-1.039h9.783c0.573,0,1.039,0.466,1.039,1.039V21.188z
	 M22.143,21.188H10.282v-3.986c0-0.573,0.466-1.039,1.039-1.039h9.783c0.573,0,1.039,0.466,1.039,1.039V21.188z M11.186,37.97h-3.77
	v-1.082h3.77V37.97z M40.845,37.97h-3.768v-1.082h3.768V37.97z M43.144,35.888h-1.799h-4.768H11.687h-4.77H4.858V23.251
	c0-0.586,0.477-1.063,1.063-1.063h0.996h2.865h12.691h18.611h0.998c0.585,0,1.061,0.477,1.061,1.063V35.888z"/>
</svg>
