<?xml version="1.0" encoding="utf-8"?>
<!-- Generator: Adobe Illustrator 16.0.0, SVG Export Plug-In . SVG Version: 6.00 Build 0)  -->
<!DOCTYPE svg PUBLIC "-//W3C//DTD SVG 1.1//EN" "http://www.w3.org/Graphics/SVG/1.1/DTD/svg11.dtd">
<svg version="1.1" id="Layer_1" xmlns="http://www.w3.org/2000/svg" xmlns:xlink="http://www.w3.org/1999/xlink" x="0px" y="0px"
	 width="48px" height="48px" viewBox="0 0 48 48" enable-background="new 0 0 48 48" xml:space="preserve">
<g>
	<path fill="#414042" d="M24.734,16.07c-0.009,0-0.019,0-0.027,0c-4.443,0.015-7.813,3.602-8.005,8.411h16.006
		c-0.105-2.38-1.039-4.619-2.619-6.194C28.633,16.835,26.781,16.07,24.734,16.07z"/>
	<path fill="#414042" d="M28.17,32.227h-6.888c-0.891,0-1.77,0.387-2.295,1.008c-0.28,0.334-0.588,0.895-0.455,1.662l0.475,3.053
		c0.302,1.865,1.227,2.813,2.75,2.813h5.894c1.305,0,2.105-0.834,2.764-2.879l0.504-2.986C30.912,33.303,29.836,32.227,28.17,32.227
		z"/>
	<path fill="#414042" d="M40.711,26.063H15.07H8.701c-0.042,0-0.079-0.014-0.118-0.023c-2.256,9.109-1.717,11.848-1.717,11.848
		c1.17,8.07,6.501,8.535,11.219,8.535h5.832h1.58h5.834c4.715,0,10.045-0.465,11.217-8.535c0,0,0.539-2.738-1.717-11.848
		C40.791,26.049,40.754,26.063,40.711,26.063z M32.236,38.328c-0.617,1.932-1.629,4.07-4.146,4.07h-6.775
		c-2.249,0-3.723-1.447-4.147-4.074l-0.546-3.504c-0.169-0.977,0.097-1.945,0.746-2.715c0.788-0.936,2.091-1.518,3.402-1.518h7.916
		c2.484,0,4.152,1.67,4.152,4.154L32.236,38.328z"/>
	<path fill="#414042" d="M5.609,33.326c-0.81-0.047-1.495-0.291-2.032-0.754c-0.51-0.438-0.862-1.061-1.031-1.791
		c-0.501,1.85-2.788,11.209,2.763,9.271l0.453-0.219c-0.154-0.582-0.291-1.195-0.391-1.875C5.359,37.9,5.143,36.668,5.609,33.326z"
		/>
	<path fill="#414042" d="M46.814,31.158c-0.141,0.41-0.34,0.773-0.602,1.08c-0.176,0.252-0.424,0.48-0.77,0.658
		c-0.037,0.021-0.08,0.039-0.119,0.059c-0.055,0.025-0.105,0.051-0.166,0.072c-0.4,0.18-0.855,0.273-1.355,0.299
		c0.467,3.344,0.25,4.582,0.234,4.658c-0.102,0.699-0.244,1.326-0.404,1.922l0.32,0.146C49.195,41.881,47.447,33.641,46.814,31.158z
		"/>
	<path fill="#414042" d="M4.406,27.732c-0.784,0.391-1.183,1.127-1.123,2.072c0.03,0.473,0.184,1.359,0.875,1.953
		c0.417,0.359,0.962,0.547,1.613,0.578c0.042-0.285,0.092-0.586,0.146-0.902c-0.492-0.008-0.887-0.125-1.166-0.363
		c-0.439-0.379-0.54-0.992-0.562-1.324c-0.036-0.572,0.172-0.977,0.621-1.199c0.528-0.262,1.24-0.203,1.669,0.01
		c0.066-0.301,0.131-0.602,0.204-0.92C5.988,27.375,5.087,27.393,4.406,27.732z"/>
	<path fill="#414042" d="M46.105,29.762c0.059-0.926-0.334-1.65-1.104-2.033c-0.68-0.338-1.582-0.352-2.27-0.08
		c0.072,0.314,0.137,0.611,0.201,0.906c0.418-0.223,1.141-0.291,1.672-0.027c0.439,0.219,0.645,0.615,0.609,1.18
		c-0.021,0.326-0.119,0.928-0.553,1.299c-0.281,0.242-0.682,0.355-1.18,0.357c0.053,0.311,0.102,0.609,0.143,0.889
		c0.656-0.025,1.201-0.211,1.619-0.57C45.924,31.098,46.074,30.229,46.105,29.762z"/>
	<path fill="#414042" d="M24.705,14.487c0.011,0,0.021,0,0.033,0c2.602,0,4.954,0.974,6.803,2.816
		c1.854,1.848,2.984,4.422,3.227,7.177h5.662c-0.492-1.883-1.088-3.991-1.824-6.384c-1.445-5.824-4.211-9.269-8.119-10.73
		c0.01-0.019,0.029-0.028,0.035-0.049c0.502-1.551,0.326-3.028-0.496-4.16c-0.686-0.94-1.732-1.502-2.803-1.502h-4.534
		c-1.173,0-2.41,0.684-3.151,1.74c-0.783,1.117-0.936,2.502-0.431,3.901c-4.004,1.421-6.832,4.885-8.3,10.8
		c-0.736,2.394-1.331,4.501-1.824,6.384h5.654C15.104,18.735,19.262,14.504,24.705,14.487z M21.082,4.115
		c0.462-0.658,1.247-1.101,1.953-1.101h3.794c0.619,0,1.26,0.35,1.668,0.912c0.529,0.727,0.635,1.695,0.299,2.732
		c-0.006,0.015-0.004,0.03-0.006,0.046c-1.037-0.293-2.156-0.445-3.361-0.445h-0.395h-0.62h-0.396c-1.14,0-2.2,0.135-3.188,0.396
		c-0.003-0.013,0-0.024-0.005-0.037C20.402,5.454,20.731,4.614,21.082,4.115z"/>
</g>
</svg>
