<?xml version="1.0" encoding="utf-8"?>
<!-- Generator: Adobe Illustrator 16.0.0, SVG Export Plug-In . SVG Version: 6.00 Build 0)  -->
<!DOCTYPE svg PUBLIC "-//W3C//DTD SVG 1.1//EN" "http://www.w3.org/Graphics/SVG/1.1/DTD/svg11.dtd">
<svg version="1.1" id="Layer_1" xmlns="http://www.w3.org/2000/svg" xmlns:xlink="http://www.w3.org/1999/xlink" x="0px" y="0px"
	 width="48px" height="48px" viewBox="0 0 48 48" enable-background="new 0 0 48 48" xml:space="preserve">
<g>
	<path fill="#414042" d="M6.663,30.545c0,0,7.339-1.111,15.966,6.658v-25.31c-0.446-0.406-1.144-0.883-1.841-1.252
		c-6.187-3.875-13.746-2.98-13.746-2.98c-0.988,0-1.788,0.571-1.788,1.275v20.021C5.253,29.664,5.217,30.566,6.663,30.545z"/>
	<path fill="#414042" d="M39.826,31.309c1.557-0.018,1.455-0.342,1.557-1.061V8.954c0-0.704-0.801-1.275-1.789-1.275
		c0,0-7.559-0.895-13.746,2.98c-0.482,0.285-1.312,0.849-1.838,1.309v25.218C30.752,30.719,39.826,31.309,39.826,31.309z"/>
	<path fill="#414042" d="M46.424,32.535V10.12c0-0.16-0.076-0.31-0.203-0.404c-0.059-0.043-1.176-0.826-2.775-0.201V31.51v0.07
		l-0.01,0.07l-0.021,0.164c-0.166,1.34-0.824,1.799-2.607,1.818H40.77l-0.037-0.002c-0.016-0.002-0.221-0.014-0.576-0.014
		c-2.16,0-9.656,0.43-15.426,5.965l-0.692,0.662v0.26c0.129-0.037,0.256-0.09,0.376-0.17l2.237-1.1
		c8.814-3.576,16.324-3.336,16.418-3.332c1.363-0.023,2.213-0.258,2.752-0.84C46.326,34.518,46.518,33.701,46.424,32.535z"/>
	<path fill="#414042" d="M7.205,32.785c-0.598,0-0.934,0.047-0.934,0.047l-0.067,0.01H6.136l-0.067,0.002
		c-0.785,0-1.397-0.215-1.821-0.641c-0.621-0.621-0.62-1.445-0.619-1.992V30.16V9.511C2.05,8.753,0.936,9.438,0.877,9.475
		C0.735,9.566,0.648,9.726,0.648,9.896v23.993c0,1.158,0.936,1.852,2.522,1.852c0.001,0,0.001,0,0.002,0
		c0.092-0.004,9.285-0.322,17.678,3.768l1.782,0.813c0.104,0.059,0.245,0.117,0.405,0.164v-0.242l-0.669-0.602
		C15.498,33.453,9.475,32.785,7.205,32.785z"/>
</g>
</svg>
