<?xml version="1.0" encoding="utf-8"?>
<!-- Generator: Adobe Illustrator 16.0.0, SVG Export Plug-In . SVG Version: 6.00 Build 0)  -->
<!DOCTYPE svg PUBLIC "-//W3C//DTD SVG 1.1//EN" "http://www.w3.org/Graphics/SVG/1.1/DTD/svg11.dtd">
<svg version="1.1" id="Layer_1" xmlns="http://www.w3.org/2000/svg" xmlns:xlink="http://www.w3.org/1999/xlink" x="0px" y="0px"
	 width="48px" height="48px" viewBox="0 0 48 48" enable-background="new 0 0 48 48" xml:space="preserve">
<g>
	<path fill="#414042" d="M4.961,36.863c-0.297,0.146-0.566,0.336-0.801,0.564c-0.637,0.611-0.982,1.461-1.001,2.453
		c-0.026,1.443,0.64,2.977,1.819,4.197c1.716,1.775,4.102,2.438,5.809,1.604c0.3-0.145,0.57-0.332,0.805-0.561
		c0.639-0.613,0.982-1.461,1-2.455c0.027-1.439-0.636-2.971-1.818-4.193C9.056,36.695,6.663,36.033,4.961,36.863z"/>
	<polygon fill="#414042" points="28.828,29.824 26.244,39.789 30.58,35.113 35.967,37.938 32.957,25.461 	"/>
	<path fill="#414042" d="M27.609,27.816L32,23.113c-0.004-0.004-0.01-0.005-0.014-0.01l-7.392-7.375
		c-0.078-0.076-0.115-0.174-0.132-0.273l-4.464,4.799c0.064,0.024,0.124,0.061,0.176,0.111L27.609,27.816z"/>
	<path fill="#414042" d="M26.244,29.23c-0.006-0.004-0.012-0.006-0.016-0.01c0,0-7.519-7.554-7.542-7.606L6.43,34.844
		c1.82-0.553,4.195,0.195,5.849,1.906c1.274,1.318,1.989,2.977,1.959,4.551c-0.007,0.346-0.06,0.67-0.136,0.984L26.244,29.23z"/>
	<path fill="#414042" d="M33.197,21.778L44.309,9.929c0,0,0.422-0.408,0.494-1.049c-0.604-6.842-7.494-6.842-7.494-6.842
		c-0.313-0.027-0.881,0.548-0.881,0.548l-10.92,11.691c0.111,0.01,0.221,0.051,0.305,0.137L33.197,21.778z"/>
	<path fill="#414042" d="M34.693,24.297c0.014,0.029,0.033,0.055,0.041,0.087l1.063,4.404h9.973l-4.994-3.588l2.777-4.988
		L34.693,24.297z"/>
</g>
</svg>
