<?xml version="1.0" encoding="utf-8"?>
<!-- Generator: Adobe Illustrator 16.0.0, SVG Export Plug-In . SVG Version: 6.00 Build 0)  -->
<!DOCTYPE svg PUBLIC "-//W3C//DTD SVG 1.1//EN" "http://www.w3.org/Graphics/SVG/1.1/DTD/svg11.dtd">
<svg version="1.1" id="Layer_1" xmlns="http://www.w3.org/2000/svg" xmlns:xlink="http://www.w3.org/1999/xlink" x="0px" y="0px"
	 width="48px" height="48px" viewBox="0 0 48 48" enable-background="new 0 0 48 48" xml:space="preserve">
<g>
	<polygon fill="#414042" points="1.651,47.26 14.853,38.316 9.593,33.375 	"/>
	<path fill="#414042" d="M46.428,8.649L43.5,5.777c-0.857-2.178-3.877-4.053-5.648-2.212c-0.854,0.887-1.242,1.321-1.242,1.321
		h0.004l-1.797,1.916l-0.004-0.002l-5.682,5.943c0.002,0.002,0.006,0.005,0.01,0.007l5.125,5.066l5.809-6.078l1.801-1.916
		c0,0,0.367-0.381,1.238-1.321c0.254-0.272,0.406-0.574,0.504-0.888l1.492,1.463L34.549,19.735
		c-0.238,0.242-0.236,0.631,0.004,0.868c0.119,0.12,0.275,0.177,0.432,0.177c0.158,0,0.316-0.06,0.438-0.182L46.293,9.623
		c0.166-0.091,0.279-0.252,0.309-0.439C46.635,8.988,46.568,8.789,46.428,8.649z"/>
	<polygon fill="#414042" points="28.283,13.626 10.36,32.379 15.62,37.32 33.418,18.699 33.41,18.695 	"/>
</g>
</svg>
