<?xml version="1.0" encoding="utf-8"?>
<!-- Generator: Adobe Illustrator 16.0.0, SVG Export Plug-In . SVG Version: 6.00 Build 0)  -->
<!DOCTYPE svg PUBLIC "-//W3C//DTD SVG 1.1//EN" "http://www.w3.org/Graphics/SVG/1.1/DTD/svg11.dtd">
<svg version="1.1" id="Layer_1" xmlns="http://www.w3.org/2000/svg" xmlns:xlink="http://www.w3.org/1999/xlink" x="0px" y="0px"
	 width="48px" height="48px" viewBox="0 0 48 48" enable-background="new 0 0 48 48" xml:space="preserve">
<g>
	<path fill="#414042" d="M39.111,4.604H8.984c-0.23,0-0.418,0.188-0.418,0.418v18.016h30.963V5.021
		C39.529,4.791,39.342,4.604,39.111,4.604z M28.973,18.971c0,0.553-0.447,1-1,1h-7.915c-0.552,0-1-0.447-1-1v-4.854
		c0-0.553,0.448-1,1-1s1,0.447,1,1v3.854h5.915v-3.854c0-0.553,0.447-1,1-1s1,0.447,1,1V18.971z"/>
	<path fill="#414042" d="M8.566,43.053c0,0.232,0.188,0.42,0.418,0.42h30.127c0.23,0,0.418-0.188,0.418-0.42V25.037H8.566V43.053z
		 M19.058,33.117c0-0.553,0.448-1,1-1s1,0.447,1,1v2.854h5.915v-2.854c0-0.553,0.447-1,1-1s1,0.447,1,1v3.854c0,0.553-0.447,1-1,1
		h-7.915c-0.552,0-1-0.447-1-1V33.117z"/>
</g>
</svg>
