<?xml version="1.0" encoding="utf-8"?>
<!-- Generator: Adobe Illustrator 16.0.0, SVG Export Plug-In . SVG Version: 6.00 Build 0)  -->
<!DOCTYPE svg PUBLIC "-//W3C//DTD SVG 1.1//EN" "http://www.w3.org/Graphics/SVG/1.1/DTD/svg11.dtd">
<svg version="1.1" id="Layer_1" xmlns="http://www.w3.org/2000/svg" xmlns:xlink="http://www.w3.org/1999/xlink" x="0px" y="0px"
	 width="48px" height="48px" viewBox="0 0 48 48" enable-background="new 0 0 48 48" xml:space="preserve">
<g>
	<path fill="#414042" d="M30.318,21.655h1.287c0.277,0,0.5-0.224,0.5-0.5v-1.191c0-0.276-0.223-0.5-0.5-0.5h-1.287
		c-0.275,0-0.5,0.224-0.5,0.5v1.191C29.818,21.431,30.043,21.655,30.318,21.655z"/>
	<path fill="#414042" d="M16.321,21.655h1.287c0.276,0,0.5-0.224,0.5-0.5v-1.191c0-0.276-0.224-0.5-0.5-0.5h-1.287
		c-0.276,0-0.5,0.224-0.5,0.5v1.191C15.821,21.431,16.044,21.655,16.321,21.655z"/>
	<path fill="#414042" d="M23.321,21.655h1.287c0.276,0,0.5-0.224,0.5-0.5v-1.191c0-0.276-0.223-0.5-0.5-0.5h-1.287
		c-0.276,0-0.5,0.224-0.5,0.5v1.191C22.821,21.431,23.044,21.655,23.321,21.655z"/>
	<path fill="#414042" d="M30.318,35.654h1.287c0.277,0,0.5-0.223,0.5-0.5v-1.191c0-0.275-0.223-0.5-0.5-0.5h-1.287
		c-0.275,0-0.5,0.225-0.5,0.5v1.191C29.818,35.432,30.043,35.654,30.318,35.654z"/>
	<path fill="#414042" d="M16.321,35.654h1.287c0.276,0,0.5-0.223,0.5-0.5v-1.191c0-0.275-0.224-0.5-0.5-0.5h-1.287
		c-0.276,0-0.5,0.225-0.5,0.5v1.191C15.821,35.432,16.044,35.654,16.321,35.654z"/>
	<path fill="#414042" d="M23.321,35.654h1.287c0.276,0,0.5-0.223,0.5-0.5v-1.191c0-0.275-0.223-0.5-0.5-0.5h-1.287
		c-0.276,0-0.5,0.225-0.5,0.5v1.191C22.821,35.432,23.044,35.654,23.321,35.654z"/>
	<path fill="#414042" d="M30.318,28.654h1.287c0.277,0,0.5-0.223,0.5-0.5v-1.191c0-0.275-0.223-0.5-0.5-0.5h-1.287
		c-0.275,0-0.5,0.225-0.5,0.5v1.191C29.818,28.432,30.043,28.654,30.318,28.654z"/>
	<path fill="#414042" d="M16.321,28.654h1.287c0.276,0,0.5-0.223,0.5-0.5v-1.191c0-0.275-0.224-0.5-0.5-0.5h-1.287
		c-0.276,0-0.5,0.225-0.5,0.5v1.191C15.821,28.432,16.044,28.654,16.321,28.654z"/>
	<path fill="#414042" d="M23.321,28.654h1.287c0.276,0,0.5-0.223,0.5-0.5v-1.191c0-0.275-0.223-0.5-0.5-0.5h-1.287
		c-0.276,0-0.5,0.225-0.5,0.5v1.191C22.821,28.432,23.044,28.654,23.321,28.654z"/>
	<path fill="#414042" d="M37.432,4.444H10.493c-1.682,0-3.061,1.377-3.061,3.061V40.57c0,1.684,1.379,3.063,3.061,3.063h26.939
		c1.686,0,3.063-1.379,3.063-3.063V7.504C40.494,5.821,39.117,4.444,37.432,4.444z M36.82,39.959H11.106V16.154H36.82V39.959z
		 M36.82,12.623H11.106V8.116H36.82V12.623z"/>
</g>
</svg>
