<?xml version="1.0" encoding="utf-8"?>
<!-- Generator: Adobe Illustrator 16.0.0, SVG Export Plug-In . SVG Version: 6.00 Build 0)  -->
<!DOCTYPE svg PUBLIC "-//W3C//DTD SVG 1.1//EN" "http://www.w3.org/Graphics/SVG/1.1/DTD/svg11.dtd">
<svg version="1.1" id="Layer_1" xmlns="http://www.w3.org/2000/svg" xmlns:xlink="http://www.w3.org/1999/xlink" x="0px" y="0px"
	 width="48px" height="48px" viewBox="0 0 48 48" enable-background="new 0 0 48 48" xml:space="preserve">
<path fill="#414042" d="M32.309,21.41h-5.625l-0.973-5.158c0.766-0.588,1.268-1.502,1.268-2.54c0-1.602-1.182-2.924-2.714-3.166
	v-4.57c0-0.275-0.224-0.5-0.5-0.5s-0.5,0.225-0.5,0.5v4.57c-1.535,0.242-2.716,1.564-2.716,3.166c0,1.124,0.581,2.111,1.456,2.686
	l-0.976,5.012h-5.576c-0.276,0-0.5,0.223-0.5,0.5c0,0.275,0.224,0.5,0.5,0.5h5.382l-3.883,19.943l5.24-19.943h3.501L30.676,42.6
	L26.871,22.41h5.438c0.275,0,0.5-0.225,0.5-0.5C32.809,21.633,32.584,21.41,32.309,21.41z M23.764,11.496
	c1.222,0,2.214,0.994,2.214,2.217c0,1.221-0.993,2.215-2.214,2.215s-2.216-0.994-2.216-2.215
	C21.548,12.49,22.542,11.496,23.764,11.496z M22.455,21.41l1.182-4.496c0.043,0.002,0.084,0.013,0.128,0.013
	c0.193,0,0.38-0.024,0.563-0.057l1.12,4.54H22.455z"/>
</svg>
