<?xml version="1.0" encoding="utf-8"?>
<!-- Generator: Adobe Illustrator 16.0.0, SVG Export Plug-In . SVG Version: 6.00 Build 0)  -->
<!DOCTYPE svg PUBLIC "-//W3C//DTD SVG 1.1//EN" "http://www.w3.org/Graphics/SVG/1.1/DTD/svg11.dtd">
<svg version="1.1" id="Layer_1" xmlns="http://www.w3.org/2000/svg" xmlns:xlink="http://www.w3.org/1999/xlink" x="0px" y="0px"
	 width="48px" height="48px" viewBox="0 0 48 48" enable-background="new 0 0 48 48" xml:space="preserve">
<g>
	<path fill="#414042" d="M15.125,15.301c0.451-0.396,0.945-0.766,1.436-1.107l9.255-6.756c-0.58,0.086-1.125,0.135-1.624,0.135
		c-1.34,0-2.376-0.313-3.099-0.934c-0.583-0.502-0.842-1.105-0.955-1.602L9.811,12.271c-1.459,1.02-2.383,2.124-2.536,3.032
		c-0.076,0.451,0.027,0.864,0.316,1.264c0.789,1.016,3.299,1.639,6.145-0.287l1.214-0.896
		C15.004,15.342,15.064,15.315,15.125,15.301z"/>
	<path fill="#414042" d="M14.407,18.002c-0.065,0.386,0.03,0.75,0.293,1.113c0.789,1.014,3.298,1.636,6.146-0.287l1.489-1.102
		c0.063-0.047,0.134-0.072,0.206-0.086c0.485-0.44,1.02-0.84,1.523-1.191l8.685-6.354c-0.559,0.104-1.078,0.155-1.555,0.155
		c-1.08,0-1.945-0.266-2.588-0.796c-0.721-0.596-0.994-1.389-1.096-2.017l-10.37,7.568C16.444,15.494,14.614,16.773,14.407,18.002z"
		/>
	<path fill="#414042" d="M7.25,17.613v18.764c0,1.146,0.531,1.908,3.122,1.908c1.71,0,2.62-0.322,2.953-1.043
		c0.015-0.033,0.04-0.057,0.062-0.084l-0.001-18.494c0-0.053,0.015-0.101,0.03-0.148c-0.028-0.223-0.035-0.449,0.004-0.68
		c0.016-0.089,0.049-0.174,0.072-0.262c-1.207,0.65-2.396,0.957-3.449,0.957C8.903,18.531,7.934,18.185,7.25,17.613z"/>
	<path fill="#414042" d="M14.386,20.188l0.001,18.738c0,1.145,0.531,1.906,3.122,1.906c1.222,0,2.863-0.477,3.378-0.98
		c0.005-0.004,0.012-0.006,0.017-0.01V20.617c-0.007-0.166,0.003-0.334,0.031-0.503c0.013-0.075,0.043-0.147,0.062-0.223
		c-1.342,0.81-2.676,1.187-3.845,1.187C16.028,21.078,15.069,20.742,14.386,20.188z"/>
	<path fill="#414042" d="M29.107,21.814c0.018,0.051,0.031,0.104,0.031,0.16v19.242c0,0.084-0.01,0.156-0.016,0.236l12.082-8.752
		V13.178L29.107,21.814z"/>
	<path fill="#414042" d="M21.904,22.48v18.736c0,1.146,0.53,1.908,3.122,1.908c2.584,0,3.113-0.762,3.113-1.908V22.4
		c-1.213,0.66-2.41,0.971-3.468,0.971C23.546,23.371,22.586,23.037,21.904,22.48z"/>
	<path fill="#414042" d="M38.041,13.28c-1.25,0-2.24-0.307-2.959-0.92c-0.672-0.573-0.967-1.301-1.1-1.927l-9.336,6.829
		c-1.083,0.758-2.534,1.888-2.726,3.019c-0.065,0.392,0.031,0.76,0.295,1.125c0.79,1.016,3.3,1.639,6.144-0.287l11.166-7.97
		C38.998,13.231,38.5,13.28,38.041,13.28z"/>
</g>
</svg>
