<?xml version="1.0" encoding="utf-8"?>
<!-- Generator: Adobe Illustrator 16.0.0, SVG Export Plug-In . SVG Version: 6.00 Build 0)  -->
<!DOCTYPE svg PUBLIC "-//W3C//DTD SVG 1.1//EN" "http://www.w3.org/Graphics/SVG/1.1/DTD/svg11.dtd">
<svg version="1.1" id="Layer_1" xmlns="http://www.w3.org/2000/svg" xmlns:xlink="http://www.w3.org/1999/xlink" x="0px" y="0px"
	 width="48px" height="48px" viewBox="0 0 48 48" enable-background="new 0 0 48 48" xml:space="preserve">
<path fill="#414042" d="M37.561,4.687c-0.322-0.449-0.947-0.551-1.395-0.229L20.202,15.875c-3.178,2.148-5.933,1.516-6.771,0.441
	c-0.252-0.349-0.341-0.679-0.28-1.039c0.226-1.336,2.368-2.831,3.088-3.336l11.849-8.647c0.445-0.325,0.543-0.951,0.219-1.396
	c-0.326-0.447-0.951-0.545-1.398-0.219l-11.831,8.636c-1.645,1.149-3.888,2.713-4.213,4.629V43.49c0,2.646,2.145,3.186,4.794,3.186
	c2.387,0,4.783-1.596,4.783-1.596l17.287-12.52V5.162C37.711,4.996,37.666,4.832,37.561,4.687z"/>
</svg>
