<?xml version="1.0" encoding="utf-8"?>
<!-- Generator: Adobe Illustrator 16.0.0, SVG Export Plug-In . SVG Version: 6.00 Build 0)  -->
<!DOCTYPE svg PUBLIC "-//W3C//DTD SVG 1.1//EN" "http://www.w3.org/Graphics/SVG/1.1/DTD/svg11.dtd">
<svg version="1.1" id="Layer_1" xmlns="http://www.w3.org/2000/svg" xmlns:xlink="http://www.w3.org/1999/xlink" x="0px" y="0px"
	 width="48px" height="48px" viewBox="0 0 48 48" enable-background="new 0 0 48 48" xml:space="preserve">
<path fill="#414042" d="M43.566,29.166l-2.865,0.969c-0.133,0.045-0.271,0.031-0.387-0.027c-0.113-0.057-0.203-0.156-0.248-0.285
	c-0.088-0.262,0.053-0.545,0.314-0.635l2.914-0.986c-0.391-1.285-0.904-2.518-1.541-3.678l-3.871,2.213
	c-0.078,0.043-0.164,0.064-0.248,0.064c-0.174,0-0.342-0.09-0.436-0.252c-0.137-0.24-0.053-0.545,0.188-0.682l3.844-2.197
	c-0.734-1.188-1.607-2.279-2.574-3.283l-2.066,2.122c-0.098,0.101-0.229,0.151-0.359,0.151c-0.125,0-0.252-0.047-0.348-0.142
	c-0.199-0.193-0.203-0.51-0.01-0.707l2.068-2.123c-0.971-0.912-2.018-1.747-3.158-2.453l-2.246,3.822
	c-0.094,0.159-0.262,0.247-0.432,0.247c-0.086,0-0.174-0.022-0.254-0.069c-0.238-0.14-0.316-0.446-0.178-0.684l2.246-3.822
	c-1.152-0.635-2.379-1.149-3.658-1.546l-0.721,2.835c-0.059,0.227-0.262,0.377-0.484,0.377c-0.041,0-0.082-0.005-0.123-0.016
	c-0.268-0.067-0.43-0.34-0.361-0.607l0.727-2.861c-1.359-0.347-2.775-0.562-4.232-0.612l0.004,4.51c0,0.275-0.224,0.5-0.499,0.5
	H24.57c-0.276,0-0.5-0.224-0.5-0.5l-0.004-4.518c-1.399,0.021-2.759,0.195-4.072,0.492l0.833,2.957
	c0.075,0.266-0.08,0.542-0.346,0.617c-0.045,0.013-0.091,0.019-0.136,0.019c-0.218,0-0.419-0.144-0.481-0.364l-0.84-2.983
	c-1.359,0.38-2.662,0.894-3.887,1.534l2.34,4.034c0.139,0.239,0.057,0.545-0.182,0.684c-0.08,0.046-0.166,0.067-0.251,0.067
	c-0.173,0-0.341-0.089-0.433-0.249l-2.348-4.046c-1.16,0.685-2.237,1.489-3.228,2.387l2.37,2.31c0.198,0.193,0.202,0.51,0.01,0.707
	c-0.098,0.101-0.229,0.151-0.358,0.151c-0.126,0-0.252-0.047-0.349-0.142l-2.398-2.337c-1.006,1.009-1.908,2.12-2.678,3.324
	l4.17,2.496c0.237,0.141,0.314,0.447,0.173,0.686c-0.094,0.156-0.26,0.242-0.43,0.242c-0.087,0-0.176-0.021-0.257-0.07l-4.175-2.499
	c-0.665,1.168-1.205,2.417-1.62,3.717l3.435,1.162c0.262,0.09,0.401,0.373,0.313,0.635c-0.044,0.129-0.135,0.229-0.246,0.285
	c-0.116,0.059-0.256,0.072-0.389,0.027l-3.395-1.148c-0.408,1.561-0.631,3.195-0.631,4.885h39.562
	C44.145,32.248,43.941,30.674,43.566,29.166z M33.223,33.418H15.88c0-4.666,3.883-8.057,8.672-8.057c4.79,0,8.671,3.291,8.671,7.957
	V33.418z"/>
</svg>
