<?xml version="1.0" encoding="utf-8"?>
<!-- Generator: Adobe Illustrator 16.0.0, SVG Export Plug-In . SVG Version: 6.00 Build 0)  -->
<!DOCTYPE svg PUBLIC "-//W3C//DTD SVG 1.1//EN" "http://www.w3.org/Graphics/SVG/1.1/DTD/svg11.dtd">
<svg version="1.1" id="Layer_1" xmlns="http://www.w3.org/2000/svg" xmlns:xlink="http://www.w3.org/1999/xlink" x="0px" y="0px"
	 width="48px" height="48px" viewBox="0 0 48 48" enable-background="new 0 0 48 48" xml:space="preserve">
<path fill="#414042" d="M43.031,43.752L5.831,4.41v12.639h3.875c0.276,0,0.5,0.224,0.5,0.5s-0.224,0.5-0.5,0.5H5.831v6h3.875
	c0.276,0,0.5,0.224,0.5,0.5s-0.224,0.5-0.5,0.5H5.831v6h3.875c0.276,0,0.5,0.223,0.5,0.5c0,0.275-0.224,0.5-0.5,0.5H5.831v6h3.875
	c0.276,0,0.5,0.223,0.5,0.5c0,0.275-0.224,0.5-0.5,0.5H5.831v4.703h11.988v-4.014c0-0.275,0.224-0.5,0.5-0.5s0.5,0.225,0.5,0.5
	v4.014h6v-4.014c0-0.275,0.224-0.5,0.5-0.5c0.277,0,0.498,0.225,0.498,0.5v4.014h6v-4.014c0-0.275,0.225-0.5,0.5-0.5
	c0.277,0,0.5,0.225,0.5,0.5v4.014H43.031z M14.741,33.957V21.282l11.984,12.675H14.741z"/>
</svg>
