<?xml version="1.0" encoding="utf-8"?>
<!-- Generator: Adobe Illustrator 16.0.0, SVG Export Plug-In . SVG Version: 6.00 Build 0)  -->
<!DOCTYPE svg PUBLIC "-//W3C//DTD SVG 1.1//EN" "http://www.w3.org/Graphics/SVG/1.1/DTD/svg11.dtd">
<svg version="1.1" id="Layer_1" xmlns="http://www.w3.org/2000/svg" xmlns:xlink="http://www.w3.org/1999/xlink" x="0px" y="0px"
	 width="48px" height="48px" viewBox="0 0 48 48" enable-background="new 0 0 48 48" xml:space="preserve">
<g>
	<path fill="#414042" d="M24.375,18.256c-7.703,0-13.949,6.247-13.949,13.951c0,7.705,6.246,13.951,13.949,13.951
		c7.706,0,13.95-6.246,13.95-13.951C38.324,24.503,32.08,18.256,24.375,18.256z M29.299,38.965l-4.825-3.424l-4.775,3.52
		l1.497-5.672l-4.555-3.43l5.675-0.205l2.035-5.518l2.131,5.471l5.691,0.092l-4.477,3.514L29.299,38.965z"/>
	<path fill="#414042" d="M47.018,2.375h-9.9l-7.656,14.859c1.9,0.691,3.619,1.759,5.07,3.115L47.018,2.375z"/>
	<path fill="#414042" d="M19.516,17.152L12.014,2.003H2.116l12.12,18.331C15.739,18.93,17.531,17.838,19.516,17.152z"/>
</g>
</svg>
