<?xml version="1.0" encoding="utf-8"?>
<!-- Generator: Adobe Illustrator 16.0.0, SVG Export Plug-In . SVG Version: 6.00 Build 0)  -->
<!DOCTYPE svg PUBLIC "-//W3C//DTD SVG 1.1//EN" "http://www.w3.org/Graphics/SVG/1.1/DTD/svg11.dtd">
<svg version="1.1" id="Layer_1" xmlns="http://www.w3.org/2000/svg" xmlns:xlink="http://www.w3.org/1999/xlink" x="0px" y="0px"
	 width="48px" height="48px" viewBox="0 0 48 48" enable-background="new 0 0 48 48" xml:space="preserve">
<g>
	<path fill="#414042" d="M40.361,17.035c0-9.354-7.584-16.938-16.938-16.938c-9.354,0-16.939,7.583-16.939,16.938
		c0,9.356,7.586,16.94,16.939,16.94C32.777,33.975,40.361,26.391,40.361,17.035z M28.936,26.203l-5.858-4.158l-5.797,4.277
		l1.814-6.886l-5.529-4.165l6.891-0.249l2.473-6.701l2.592,6.643l6.906,0.113l-5.434,4.266L28.936,26.203z"/>
	<path fill="#414042" d="M35.848,31.051c-2.422,2.313-5.477,3.961-8.889,4.643l2.83,12.371l3.584-6.131l7.412,3.744L35.848,31.051z"
		/>
	<path fill="#414042" d="M6.843,45.678l7.412-3.744l3.584,6.131l2.906-12.24c-3.504-0.525-6.674-2.051-9.215-4.289L6.843,45.678z"/>
</g>
</svg>
