<?xml version="1.0" encoding="utf-8"?>
<!-- Generator: Adobe Illustrator 16.0.0, SVG Export Plug-In . SVG Version: 6.00 Build 0)  -->
<!DOCTYPE svg PUBLIC "-//W3C//DTD SVG 1.1//EN" "http://www.w3.org/Graphics/SVG/1.1/DTD/svg11.dtd">
<svg version="1.1" id="Layer_1" xmlns="http://www.w3.org/2000/svg" xmlns:xlink="http://www.w3.org/1999/xlink" x="0px" y="0px"
	 width="48px" height="48px" viewBox="0 0 48 48" enable-background="new 0 0 48 48" xml:space="preserve">
<g>
	<path fill="#414042" d="M23.702,17.378c-8.124,0-14.712,6.588-14.712,14.712c0,8.127,6.588,14.715,14.712,14.715
		c8.126,0,14.712-6.588,14.712-14.715C38.414,23.966,31.828,17.378,23.702,17.378z M28.441,40.336l-5.086-3.611l-5.035,3.713
		l1.576-5.98l-4.802-3.617l5.983-0.215l2.146-5.822l2.252,5.77l5.998,0.1l-4.719,3.705L28.441,40.336z"/>
	<polygon fill="#414042" points="24.703,1.357 24.703,17.026 38.414,12.212 38.414,1.357 	"/>
	<polygon fill="#414042" points="22.703,1.357 10.035,1.357 10.035,12.212 22.703,17.001 	"/>
</g>
</svg>
