<?xml version="1.0" encoding="utf-8"?>
<!-- Generator: Adobe Illustrator 16.0.0, SVG Export Plug-In . SVG Version: 6.00 Build 0)  -->
<!DOCTYPE svg PUBLIC "-//W3C//DTD SVG 1.1//EN" "http://www.w3.org/Graphics/SVG/1.1/DTD/svg11.dtd">
<svg version="1.1" id="Layer_1" xmlns="http://www.w3.org/2000/svg" xmlns:xlink="http://www.w3.org/1999/xlink" x="0px" y="0px"
	 width="48px" height="48px" viewBox="0 0 48 48" enable-background="new 0 0 48 48" xml:space="preserve">
<g>
	<path fill="#414042" d="M27.941,38.152c3.635,0,6.594-2.957,6.594-6.592c0-3.637-2.959-6.594-6.594-6.594
		c-3.634,0-6.592,2.957-6.592,6.594C21.349,35.195,24.307,38.152,27.941,38.152z M23.798,30.322l2.547-0.094l0.92-2.49
		c0.072-0.195,0.258-0.326,0.465-0.328c0.174-0.027,0.395,0.125,0.471,0.318l0.963,2.469l2.559,0.043
		c0.211,0.004,0.396,0.141,0.465,0.34c0.068,0.201,0.002,0.422-0.166,0.553l-2.012,1.58l0.723,2.551
		c0.057,0.203-0.02,0.422-0.193,0.545c-0.174,0.121-0.404,0.121-0.578-0.002l-2.158-1.531l-2.133,1.576
		c-0.088,0.064-0.193,0.098-0.297,0.098c-0.098,0-0.197-0.029-0.281-0.086c-0.176-0.119-0.257-0.336-0.204-0.541l0.674-2.559
		l-2.047-1.543c-0.17-0.127-0.24-0.348-0.176-0.549C23.402,30.469,23.586,30.328,23.798,30.322z"/>
	<path fill="#414042" d="M16.036,13.074h15.466c0.826,0,1.5-0.673,1.5-1.5s-0.674-1.5-1.5-1.5H16.036c-0.827,0-1.5,0.673-1.5,1.5
		S15.208,13.074,16.036,13.074z"/>
	<path fill="#414042" d="M33.002,20.089c0-0.827-0.674-1.5-1.5-1.5H16.036c-0.827,0-1.5,0.673-1.5,1.5s0.673,1.5,1.5,1.5h15.466
		C32.328,21.589,33.002,20.916,33.002,20.089z"/>
	<path fill="#414042" d="M16.036,26.617c-0.827,0-1.5,0.672-1.5,1.5c0,0.826,0.673,1.5,1.5,1.5h3.241c0.827,0,1.5-0.674,1.5-1.5
		c0-0.828-0.673-1.5-1.5-1.5H16.036z"/>
	<path fill="#414042" d="M36.846,4.029H10.693c-0.827,0-1.5,0.673-1.5,1.5v31.939c0,0.826,0.673,1.5,1.5,1.5h12.053l-1.462,4.447
		l2.201-1.111c0.072-0.037,0.149-0.053,0.226-0.053c0.172,0,0.34,0.088,0.432,0.246l0.956,1.635l1.199-5.166
		c-0.998-0.225-1.825-0.648-2.372-0.984c-0.469-0.293-0.91-0.627-1.303-1.014h-11.43V6.029h25.153v30.939h-3.084
		c-0.396,0.389-0.84,0.727-1.313,1.021c-1.201,0.736-2.285,0.963-2.285,0.963l1.145,5.164l0.945-1.619
		c0.133-0.227,0.418-0.313,0.656-0.193l2.201,1.113l-1.469-4.449h3.703c0.826,0,1.5-0.674,1.5-1.5V5.529
		C38.346,4.702,37.672,4.029,36.846,4.029z"/>
</g>
</svg>
