<?xml version="1.0" encoding="utf-8"?>
<!-- Generator: Adobe Illustrator 16.0.0, SVG Export Plug-In . SVG Version: 6.00 Build 0)  -->
<!DOCTYPE svg PUBLIC "-//W3C//DTD SVG 1.1//EN" "http://www.w3.org/Graphics/SVG/1.1/DTD/svg11.dtd">
<svg version="1.1" id="Layer_1" xmlns="http://www.w3.org/2000/svg" xmlns:xlink="http://www.w3.org/1999/xlink" x="0px" y="0px"
	 width="48px" height="48px" viewBox="0 0 48 48" enable-background="new 0 0 48 48" xml:space="preserve">
<g>
	<path fill="#414042" d="M40.998,6.642c-0.404-1.541-1.4-3.131-3.129-3.131H10.541c-1.729,0-2.961,1.672-3.13,3.131l-3,14.961
		c0,1.73,1.401,3.131,3.13,3.131h33.328c1.729,0,3.129-1.4,3.129-3.131L40.998,6.642z"/>
	<path fill="#414042" d="M32.414,26.814c-0.223-0.572-0.783-0.957-1.396-0.957c-0.189,0-0.373,0.035-0.549,0.104
		c-0.369,0.145-0.664,0.426-0.826,0.793c-0.16,0.367-0.17,0.775-0.023,1.148l1.174,3.018H17.616l1.174-3.018
		c0.146-0.373,0.137-0.781-0.024-1.148s-0.456-0.648-0.83-0.795c-0.171-0.066-0.355-0.102-0.543-0.102
		c-0.622,0-1.17,0.375-1.397,0.955L9.62,43.189c-0.146,0.373-0.137,0.781,0.024,1.148s0.456,0.648,0.83,0.793
		c0.175,0.068,0.357,0.102,0.543,0.102c0.622,0,1.171-0.373,1.397-0.953l4.032-10.359h15.514l4.033,10.357
		c0.227,0.582,0.775,0.955,1.396,0.955c0.186,0,0.369-0.033,0.543-0.102c0.375-0.145,0.67-0.426,0.83-0.793
		c0.162-0.367,0.17-0.775,0.025-1.15L32.414,26.814z"/>
</g>
</svg>
