<?xml version="1.0" encoding="utf-8"?>
<!-- Generator: Adobe Illustrator 16.0.0, SVG Export Plug-In . SVG Version: 6.00 Build 0)  -->
<!DOCTYPE svg PUBLIC "-//W3C//DTD SVG 1.1//EN" "http://www.w3.org/Graphics/SVG/1.1/DTD/svg11.dtd">
<svg version="1.1" id="Layer_1" xmlns="http://www.w3.org/2000/svg" xmlns:xlink="http://www.w3.org/1999/xlink" x="0px" y="0px"
	 width="48px" height="48px" viewBox="0 0 48 48" enable-background="new 0 0 48 48" xml:space="preserve">
<g>
	<path fill="#414042" d="M45.186,36.408c-0.279-1.195-0.674-5.037-0.709-5.385v-6.378c0-0.222-0.146-0.418-0.361-0.479
		l-19.419-5.667c-0.262-0.08-0.541,0.075-0.619,0.34c-0.078,0.266,0.074,0.543,0.34,0.62l19.06,5.562v6.001c0,0,0,0.004,0,0.006
		c-0.012,0.189-0.236,3.811-0.676,5.357c-0.041,0.15-0.012,0.313,0.084,0.438c0.094,0.125,0.24,0.199,0.398,0.199h1.416
		c0.152,0,0.297-0.07,0.391-0.189C45.186,36.713,45.221,36.557,45.186,36.408z"/>
	<path fill="#414042" d="M23.68,19.46c-0.129-0.234-0.158-0.504-0.084-0.761c0.152-0.521,0.736-0.838,1.246-0.679l15.21,4.439
		l3.15-1.091c0.715-0.175,1.213-0.698,1.27-1.335c0.051-0.584-0.289-1.124-0.896-1.39l-16.859-6.13
		c-1.248-0.526-2.5-0.793-3.716-0.793c-1.525,0-2.672,0.409-3.357,0.654l-14.969,5.42c-2.135,0.728-2.557,1.578-2.535,2.162
		c0.031,0.824,0.912,1.469,2.586,1.902l14.791,5.011c1.574,0.563,2.74,0.803,3.9,0.803c0.973,0,1.966-0.172,3.138-0.543
		l10.232-3.541l-12.509-3.651C24.02,19.864,23.809,19.694,23.68,19.46z"/>
	<path fill="#414042" d="M23.417,28.674c-1.281,0-2.549-0.258-4.223-0.855l-9.176-3.109v7.178c0,0.055,0.008,0.109,0.025,0.162
		c0.047,0.137,1.209,3.348,7.381,3.889l12.984-0.006c0.182-0.027,4.479-0.723,5.93-3.902c0.029-0.064,0.045-0.135,0.045-0.207
		v-7.034l-9.525,3.296C25.59,28.486,24.495,28.674,23.417,28.674z"/>
</g>
</svg>
