<?xml version="1.0" encoding="utf-8"?>
<!-- Generator: Adobe Illustrator 16.0.0, SVG Export Plug-In . SVG Version: 6.00 Build 0)  -->
<!DOCTYPE svg PUBLIC "-//W3C//DTD SVG 1.1//EN" "http://www.w3.org/Graphics/SVG/1.1/DTD/svg11.dtd">
<svg version="1.1" id="Layer_1" xmlns="http://www.w3.org/2000/svg" xmlns:xlink="http://www.w3.org/1999/xlink" x="0px" y="0px"
	 width="48px" height="48px" viewBox="0 0 48 48" enable-background="new 0 0 48 48" xml:space="preserve">
<g>
	<path fill="#414042" d="M14.199,37.477l2.726,2.561c2.149-2.287,13.951-14.85,20.785-22.128l-2.73-2.564L14.199,37.477z"/>
	
		<rect x="21.77" y="9.72" transform="matrix(0.7289 0.6846 -0.6846 0.7289 23.2772 -8.9817)" fill="#414042" width="2.417" height="30.36"/>
	<path fill="#414042" d="M4.672,44.637c-0.05,0.186,0.01,0.383,0.154,0.508c0.093,0.082,0.21,0.123,0.329,0.123
		c0.066,0,0.133-0.014,0.196-0.039l10.763-4.582l-8.253-7.75L4.672,44.637z"/>
	<path fill="#414042" d="M43.15,7.968c-1.098-2.519-3.813-4.492-6.182-4.492c-1.129,0-2.146,0.436-2.939,1.26
		c-0.297,0.309-1.902,2.015-4.172,4.429l8.535,8.015c2.26-2.406,3.861-4.113,4.164-4.438C43.713,11.499,43.93,9.759,43.15,7.968z"/>
	<path fill="#414042" d="M31.76,12.321l-2.586-2.428C22.34,17.168,10.545,29.74,8.398,32.029l2.581,2.424L31.76,12.321z"/>
</g>
</svg>
