<?xml version="1.0" encoding="utf-8"?>
<!-- Generator: Adobe Illustrator 16.0.0, SVG Export Plug-In . SVG Version: 6.00 Build 0)  -->
<!DOCTYPE svg PUBLIC "-//W3C//DTD SVG 1.1//EN" "http://www.w3.org/Graphics/SVG/1.1/DTD/svg11.dtd">
<svg version="1.1" id="Layer_1" xmlns="http://www.w3.org/2000/svg" xmlns:xlink="http://www.w3.org/1999/xlink" x="0px" y="0px"
	 width="48px" height="48px" viewBox="0 0 48 48" enable-background="new 0 0 48 48" xml:space="preserve">
<g>
	<path fill="#414042" d="M42.854,19.421c0-5.615-2.207-10.875-6.215-14.813c-0.395-0.388-1.027-0.381-1.414,0.013
		c-0.387,0.394-0.381,1.027,0.012,1.414c3.621,3.559,5.617,8.313,5.617,13.386c0,10.347-8.418,18.763-18.763,18.763
		c-4.768,0-9.313-1.789-12.799-5.039c-0.404-0.377-1.036-0.355-1.414,0.049c-0.376,0.404-0.354,1.037,0.049,1.414
		c3.612,3.367,8.255,5.295,13.162,5.529v3.949h-5.896c-0.552,0-1,0.447-1,1s0.448,1,1,1h13.791c0.553,0,1-0.447,1-1s-0.447-1-1-1
		H23.09v-3.953C34.072,39.607,42.854,30.533,42.854,19.421z"/>
	<path fill="#414042" d="M22.043,36.205c9.197,0,16.658-7.406,16.763-16.58c0.014-0.068,0.043-0.131,0.043-0.201
		c0-9.245-7.52-16.766-16.76-16.766c-0.007,0-0.014,0.001-0.021,0.001c-0.008,0-0.016-0.001-0.024-0.001
		c-0.631,0-1.253,0.042-1.866,0.11c-0.024,0.002-0.048,0.008-0.072,0.011c-0.61,0.07-1.209,0.178-1.797,0.312
		c-0.011,0.002-0.022,0.003-0.034,0.006c-0.012,0.003-0.02,0.008-0.032,0.011C12.873,4.353,8.497,8.168,6.48,13.196
		c-0.15,0.361-0.298,0.761-0.44,1.203c-0.011,0.034-0.021,0.068-0.031,0.102c-0.289,0.918-0.53,1.996-0.651,3.208
		c0,0.005-0.001,0.009-0.001,0.014c-0.053,0.53-0.087,1.079-0.084,1.658c0,0.018-0.002,0.034-0.002,0.051
		c0,0.165,0.02,0.324,0.025,0.488c0.009,0.247,0.016,0.491,0.038,0.746C5.966,29.352,13.196,36.205,22.043,36.205z M17.762,5.296
		c0.047,0.128,0.098,0.258,0.164,0.388c-0.042,0.063-0.078,0.13-0.105,0.202l-0.132,0.344c-0.176,0.458-0.026,0.934,0.308,1.15
		c-0.427,0.159-1.075,0.366-1.632,0.437c0.12-0.29,0.176-0.598,0.168-0.917c-0.002-0.063-0.012-0.139-0.026-0.196
		c-0.076-0.337-0.168-0.61-0.267-0.855C16.734,5.637,17.242,5.454,17.762,5.296z M9.414,11.807c0.137-0.226,0.267-0.455,0.415-0.672
		c0.443,3.101,1.403,8.172,3.067,9.471c0.125,0.086,0.813,0.517,2.004,0.517c1.207,0,3.122-0.465,5.343-2.645
		c0.24-0.185,0.39-0.496,0.39-0.81c0-0.567-0.313-0.798-0.542-0.891c-0.792-0.501-2.96-2.467-3.142-3.193
		c0.193-0.087,0.458-0.224,0.752-0.377c0.221-0.115,0.605-0.314,0.937-0.469c0.278,0.46,0.664,0.909,1.043,1.35
		c0.28,0.326,0.569,0.663,0.677,0.86c0.092,0.169,0.23,0.307,0.402,0.4l3.347,1.806c0.371,0.234,0.79,0.359,1.209,0.362
		c0.088,0.395,0.205,0.84,0.35,1.314c0.006,0.032,0.674,3.193,1.607,4.499c0.289,0.817,0.826,1.284,1.484,1.284
		c0.406,0,0.99-0.188,1.436-1.033c0.27-0.392,1.109-1.786,0.912-3.671c0.189-0.232,0.75-0.807,2.277-1.886
		c0.088-0.061,0.158-0.138,0.172-0.155c0.055-0.059,0.104-0.127,0.139-0.193c0.107-0.192,0.338-0.432,0.422-0.45
		c0.045,0.007,0.197,0.099,0.334,0.254c1.049,1.966,1.781,2.782,2.309,3.112c-0.596,7.604-6.961,13.614-14.714,13.614
		c-3.664,0-7.013-1.348-9.598-3.564c-0.008-0.014-0.011-0.029-0.02-0.041c-0.076-0.219-0.076-0.41-0.001-0.604
		c0.233-0.598,1.087-1.092,1.528-1.281c1.877-0.902,2.532-2.457,2.661-3.113l0.004,0.002c0.197-0.563,0.134-1.114-0.179-1.556
		c-0.466-0.657-1.376-0.963-2.865-0.963c-0.508,0-0.978,0.036-1.284,0.067c-1.003-0.691-2.238-2.947-2.877-4.411V11.807z"/>
</g>
</svg>
