<?xml version="1.0" encoding="utf-8"?>
<!-- Generator: Adobe Illustrator 16.0.0, SVG Export Plug-In . SVG Version: 6.00 Build 0)  -->
<!DOCTYPE svg PUBLIC "-//W3C//DTD SVG 1.1//EN" "http://www.w3.org/Graphics/SVG/1.1/DTD/svg11.dtd">
<svg version="1.1" id="Layer_1" xmlns="http://www.w3.org/2000/svg" xmlns:xlink="http://www.w3.org/1999/xlink" x="0px" y="0px"
	 width="48px" height="48px" viewBox="0 0 48 48" enable-background="new 0 0 48 48" xml:space="preserve">
<g>
	<path fill="#414042" d="M24.703,9.966c0.174,0.198,0.499,0.439,1.077,0.459h3.805c0.276,0,0.5-0.224,0.5-0.5
		c0-0.021-0.001-0.099-0.004-0.12c-0.444-3.496-3.474-4.429-5.231-4.429h-0.001c-0.271,0.006-0.488,0.229-0.488,0.5l0.002,3
		C24.356,8.942,24.313,9.521,24.703,9.966z M25.36,6.406c0.988,0.11,3.114,0.628,3.647,3.02h-3.21
		c-0.162-0.005-0.276-0.044-0.34-0.115c-0.093-0.103-0.104-0.287-0.098-0.385V6.406z"/>
	<path fill="#414042" d="M23.321,39.207c-1.265,0-1.265,1.961,0,1.961S24.586,39.207,23.321,39.207z"/>
	<path fill="#414042" d="M23.907,14.886h-0.436c-0.276,0-0.5,0.224-0.5,0.5s0.224,0.5,0.5,0.5h0.436c0.276,0,0.5-0.224,0.5-0.5
		S24.184,14.886,23.907,14.886z"/>
	<path fill="#414042" d="M21.886,14.886h-0.393c-0.276,0-0.5,0.224-0.5,0.5s0.224,0.5,0.5,0.5h0.393c0.276,0,0.5-0.224,0.5-0.5
		S22.162,14.886,21.886,14.886z"/>
	<path fill="#414042" d="M25.868,14.886h-0.357c-0.276,0-0.5,0.224-0.5,0.5s0.224,0.5,0.5,0.5h0.357c0.276,0,0.5-0.224,0.5-0.5
		S26.145,14.886,25.868,14.886z"/>
	<path fill="#414042" d="M34.071,14.886H32.28c0.38-0.948,0.449-1.712,0.455-1.782c0.012-0.139-0.036-0.276-0.131-0.379
		s-0.228-0.161-0.367-0.161h-7.356c-0.111-0.001-2.742-0.039-2.86-2.236V3.726c0-0.269-0.213-0.49-0.481-0.5
		c-0.006,0-0.105-0.001-0.111-0.001c-0.625,0-3.853,0.121-6.02,2.506c-1.567,1.726-2.208,4.205-1.899,7.395
		c0.026,0.172,0.693,4.215,4.33,5.215c2.501,0.688,1.942,3.457,1.907,3.647l-1.205,18.274c0.002,0.042,0.25,4.096,4.413,4.499
		c0.054,0.021,0.112,0.031,0.174,0.031h0.389c0.008,0.001,0.016,0,0.02,0c0.064,0,0.125-0.012,0.182-0.034
		c4.139-0.418,4.386-4.456,4.388-4.554L26.894,21.93c-0.021-0.108-0.456-2.688,1.959-3.604c1.449-0.55,2.354-1.501,2.927-2.442
		c0.003,0,0.006,0.002,0.009,0.002h2.283c0.276,0,0.5-0.224,0.5-0.5S34.348,14.886,34.071,14.886z M28.497,17.391
		c-2.563,0.974-2.813,3.515-2.595,4.663l1.205,18.158c-0.008,0.14-0.229,3.397-3.785,3.574c-3.554-0.177-3.775-3.435-3.783-3.515
		l1.194-18.144c0.287-1.313,0.106-3.998-2.629-4.751c-3.007-0.826-3.602-4.368-3.604-4.374c-0.277-2.87,0.277-5.09,1.647-6.599
		c1.57-1.729,3.809-2.089,4.872-2.161l0.001,6.111c0.136,2.539,2.583,3.21,3.858,3.21h6.766
		C31.424,14.536,30.707,16.552,28.497,17.391z"/>
</g>
</svg>
