<?xml version="1.0" encoding="utf-8"?>
<!-- Generator: Adobe Illustrator 16.0.0, SVG Export Plug-In . SVG Version: 6.00 Build 0)  -->
<!DOCTYPE svg PUBLIC "-//W3C//DTD SVG 1.1//EN" "http://www.w3.org/Graphics/SVG/1.1/DTD/svg11.dtd">
<svg version="1.1" id="Layer_1" xmlns="http://www.w3.org/2000/svg" xmlns:xlink="http://www.w3.org/1999/xlink" x="0px" y="0px"
	 width="48px" height="48px" viewBox="0 0 48 48" enable-background="new 0 0 48 48" xml:space="preserve">
<g>
	<path fill="#414042" d="M32.529,24.01c0.387-0.436,0.468-0.863,0.456-1.175c-0.046-1.144-1.344-1.965-1.491-2.055
		c-0.142-0.085-0.316-0.097-0.468-0.027l-0.835,0.382l-0.799-2.491c-0.009-0.025-0.019-0.05-0.029-0.072
		c0.934-0.914,1.545-2.049,1.545-3.279c0-0.128-0.049-0.249-0.135-0.341c0.037-0.103,0.04-0.218,0.003-0.329L27.011,3.525
		c-0.069-0.203-0.26-0.339-0.474-0.339h-2.046c-0.066-0.033-0.141-0.051-0.22-0.051h-2.805c-0.214,0-0.404,0.136-0.474,0.339
		L17.226,14.57c-0.052,0.154-0.025,0.316,0.06,0.441c-0.056,0.082-0.086,0.18-0.086,0.28c0,1.192,0.574,2.295,1.459,3.193
		c-0.02,0.033-0.036,0.068-0.048,0.106l-0.801,2.492l-0.834-0.381c-0.127-0.059-0.269-0.06-0.398-0.007
		c-0.127,0.052-1.249,0.541-1.49,1.593c-0.124,0.539,0.011,1.096,0.399,1.66c-1.467,1.405-6.564,7.249-4.538,19.076
		c0.014,0.076,0.044,0.148,0.089,0.211c0.04,0.054,0.981,1.319,2.712,1.558c1.359,0.186,2.791-0.304,4.26-1.46
		c0.165-0.13,0.231-0.351,0.165-0.551c-0.033-0.098-3.166-9.744,1.357-16.551c0.498,0.144,1.376,0.283,2.181-0.122
		c0.736-0.371,1.227-1.093,1.458-2.146c0.051-0.23-0.066-0.464-0.28-0.563l-1.283-0.585L22.31,21
		c0.061-0.156,0.038-0.324-0.047-0.454c1.172,0.314,2.326,0.323,3.499,0.021c-0.101,0.134-0.133,0.315-0.068,0.483l0.703,1.818
		l-1.282,0.585c-0.177,0.082-0.29,0.257-0.292,0.451c-0.009,0.986,0.298,1.704,0.912,2.135c0.874,0.614,2.114,0.405,2.732,0.245
		c4.529,6.794,1.395,16.452,1.361,16.55c-0.066,0.2,0,0.421,0.165,0.551c1.267,0.996,2.506,1.498,3.694,1.498
		c0.19,0,0.38-0.013,0.567-0.039c1.731-0.238,2.672-1.503,2.712-1.557c0.045-0.063,0.075-0.135,0.089-0.211
		C39.056,31.4,34.079,25.521,32.529,24.01z M24.502,4.186h1.677l3.306,9.742l-4.982-3.922V4.186z M21.825,4.135h1.677v5.951
		l-5.047,3.974L21.825,4.135z M22.088,24.135c-0.178,0.529-0.453,0.892-0.821,1.079c-0.757,0.382-1.721-0.031-1.73-0.035
		c-0.217-0.096-0.475-0.025-0.61,0.168c-4.655,6.573-2.367,15.52-1.809,17.407c-1.14,0.828-2.22,1.186-3.217,1.05
		c-1.084-0.144-1.778-0.839-1.988-1.077c-2.134-12.752,4.503-18.273,4.571-18.328c0.106-0.086,0.173-0.212,0.185-0.349
		c0.011-0.137-0.034-0.271-0.125-0.374c-0.395-0.442-0.557-0.832-0.482-1.16c0.082-0.366,0.456-0.653,0.717-0.804l0.862,0.394
		c0.056,0.105,0.149,0.191,0.27,0.236l1.275,0.469L22.088,24.135z M21.378,20.638l-0.649,1.675l-1.163-0.429l-0.84-0.383
		l0.742-2.312c0.656,0.491,1.407,0.89,2.187,1.166C21.532,20.407,21.429,20.505,21.378,20.638z M24.053,19.793
		c-2.495,0-5.639-1.982-5.843-4.268l5.633-4.435c0.123,0.041,0.271,0.029,0.385-0.028l5.67,4.463
		C29.693,17.811,26.549,19.793,24.053,19.793z M26.328,20.399c0.785-0.265,1.545-0.653,2.213-1.137l0.734,2.291l-0.843,0.385
		l-1.159,0.425l-0.646-1.675C26.572,20.548,26.461,20.446,26.328,20.399z M36.092,42.779c-0.207,0.239-0.887,0.925-1.973,1.074
		c-1.013,0.138-2.089-0.216-3.234-1.048c0.561-1.888,2.852-10.826-1.805-17.396c-0.131-0.186-0.372-0.259-0.582-0.18
		c-0.37,0.137-1.564,0.431-2.189-0.01c-0.271-0.19-0.431-0.525-0.475-0.996l2.979-1.36l1.279-0.47
		c0.121-0.045,0.215-0.132,0.271-0.239l0.822-0.375c0.339,0.256,0.784,0.701,0.8,1.093c0.01,0.24-0.156,0.486-0.495,0.729
		c-0.126,0.092-0.203,0.237-0.207,0.393c-0.004,0.157,0.065,0.306,0.188,0.404C31.539,24.453,38.233,29.982,36.092,42.779z"/>
	<path fill="#414042" d="M24.002,14.69c-1.612,0-1.612,2.5,0,2.5S25.614,14.69,24.002,14.69z"/>
</g>
</svg>
