<?xml version="1.0" encoding="utf-8"?>
<!-- Generator: Adobe Illustrator 16.0.0, SVG Export Plug-In . SVG Version: 6.00 Build 0)  -->
<!DOCTYPE svg PUBLIC "-//W3C//DTD SVG 1.1//EN" "http://www.w3.org/Graphics/SVG/1.1/DTD/svg11.dtd">
<svg version="1.1" id="Layer_1" xmlns="http://www.w3.org/2000/svg" xmlns:xlink="http://www.w3.org/1999/xlink" x="0px" y="0px"
	 width="48px" height="48px" viewBox="0 0 48 48" enable-background="new 0 0 48 48" xml:space="preserve">
<path fill="#414042" d="M42.125,25.63h-2.791c-0.518,0-0.962,0.315-1.156,0.763l-1.865,0.002v-4.847
	c0.164-0.141,0.273-0.344,0.273-0.577c0-0.426-0.347-0.772-0.773-0.772c-0.426,0-0.771,0.347-0.771,0.772
	c0,0.232,0.108,0.435,0.271,0.576v4.848l-5.938,0.007v-0.808c0-0.114-0.039-0.226-0.111-0.314l-0.335-0.414l0.262-5.02
	c0.142-1.286-0.237-2.505-1.067-3.431c-0.925-1.032-2.313-1.601-3.906-1.601h-14.6c-1.593,0-2.979,0.568-3.904,1.599
	c-0.83,0.927-1.21,2.146-1.072,3.398l0.226,5.333c0.091,0.386,0.942,3.769,3.032,3.811c0.132-0.016,0.265-0.049,0.359-0.143
	c0.097-0.095,0.15-0.223,0.15-0.357v-3.605l0.078-3.801c0-1.27,1.033-2.303,2.288-2.303l6.057,0.184
	c0.021,0.002,0.043,0.004,0.064,0.004l6.308,0.008c1.269,0,2.301,1.032,2.301,2.306l0.034,3.58l-0.348,0.516
	c-0.056,0.083-0.085,0.18-0.085,0.279v0.73H10.67c-0.276,0-0.5,0.224-0.5,0.5s0.224,0.5,0.5,0.5h14.436v0.373
	c0,1.058,1.09,1.849,2.064,1.849c1.236,0,2.205-0.825,2.205-1.878v-0.294l5.938-0.007v4.551c-0.14,0.133-0.229,0.317-0.229,0.525
	c0,0.402,0.327,0.73,0.729,0.73c0.402,0,0.73-0.328,0.73-0.73c0-0.208-0.09-0.394-0.23-0.526v-4.551l1.866-0.002
	c0.194,0.446,0.639,0.761,1.155,0.761h2.791c0.695,0,1.262-0.566,1.262-1.262S42.82,25.63,42.125,25.63z M28.375,27.696
	c0,0.484-0.541,0.878-1.205,0.878c-0.469,0-1.064-0.399-1.064-0.849v-1.951l0.349-0.518c0.057-0.084,0.086-0.183,0.085-0.284
	l-0.035-3.73c0-1.82-1.48-3.301-3.3-3.301l-6.212-0.008l-6.203-0.188c-1.821,0-3.303,1.481-3.303,3.292l-0.078,3.793
	c0,0.004,0,0.009,0,0.013v2.945c-0.841-0.533-1.411-2.202-1.555-2.779l-0.216-5.274c-0.109-1,0.182-1.943,0.82-2.655
	c0.732-0.816,1.854-1.267,3.159-1.267h14.6c1.306,0,2.429,0.45,3.161,1.269c0.638,0.711,0.929,1.653,0.816,2.682l-0.273,5.24
	c-0.007,0.123,0.032,0.244,0.11,0.341l0.344,0.426V27.696z M42.125,27.153h-2.791c-0.041,0-0.07-0.026-0.104-0.043
	c0.033-0.067,0.056-0.14,0.056-0.22c0-0.079-0.022-0.151-0.056-0.218c0.034-0.017,0.063-0.043,0.104-0.043h2.791
	c0.146,0,0.262,0.115,0.262,0.262C42.387,27.036,42.27,27.153,42.125,27.153z"/>
</svg>
