<?xml version="1.0" encoding="utf-8"?>
<!-- Generator: Adobe Illustrator 16.0.0, SVG Export Plug-In . SVG Version: 6.00 Build 0)  -->
<!DOCTYPE svg PUBLIC "-//W3C//DTD SVG 1.1//EN" "http://www.w3.org/Graphics/SVG/1.1/DTD/svg11.dtd">
<svg version="1.1" id="Layer_1" xmlns="http://www.w3.org/2000/svg" xmlns:xlink="http://www.w3.org/1999/xlink" x="0px" y="0px"
	 width="48px" height="48px" viewBox="0 0 48 48" enable-background="new 0 0 48 48" xml:space="preserve">
<g>
	<path fill="#414042" d="M29.28,41.458V31.374c0.048-2.013-1.261-2.42-1.402-2.454c-1.346-0.148-1.346-0.522-1.346-0.853
		c0-0.471,0.55-1.018,1.258-1.018c0.051,0,0.1-0.008,0.146-0.021c0.289-0.053,0.553-0.198,0.76-0.424
		c0.258-0.28,0.549-0.817,0.46-1.839l-0.023-0.071c0-0.853-0.617-1.52-1.404-1.52h-3.229V1.513c0-0.276-0.224-0.5-0.5-0.5
		s-0.5,0.224-0.5,0.5v21.662h-3.316c-0.9,0-1.475,1.055-1.475,1.78c-0.002,1.252,0.646,1.852,1.275,2.005
		c0.048,0.016,0.098,0.023,0.15,0.023c0.761,0,1.334,0.657,1.334,1.084c0,0.358,0,0.667-1.437,0.87
		c-0.056,0.017-1.361,0.424-1.313,2.425l0.002,10.05c-0.009,0.094-0.197,2.327,1.293,3.962c0.945,1.037,2.33,1.584,4.12,1.628
		c0.018,0.002,0.035,0.003,0.054,0.003c0.063,0,0.121,0,0.182,0c0.021,0,0.041-0.001,0.062-0.004
		c1.522-0.047,2.721-0.539,3.565-1.466C29.49,43.896,29.287,41.513,29.28,41.458z M27.256,44.861
		c-0.677,0.742-1.68,1.127-2.983,1.143c-1.56-0.017-2.742-0.453-3.515-1.297c-1.193-1.303-1.044-3.186-1.04-3.249V31.351
		c-0.028-1.188,0.559-1.438,0.526-1.438c-0.001,0-0.001,0-0.001,0c1.155-0.159,2.225-0.492,2.225-1.845
		c0-1.051-1.091-2.045-2.264-2.083c-0.174-0.049-0.497-0.245-0.496-1.028c0-0.352,0.317-0.781,0.475-0.781h7.545
		c0.25,0,0.404,0.27,0.414,0.616l0.025,0.113c0.039,0.465-0.037,0.838-0.208,1.023c-0.095,0.104-0.223,0.107-0.349,0.129
		c-1.126,0.088-2.078,0.99-2.078,2.011c0,1.388,1.144,1.718,2.168,1.839c0.129,0.063,0.605,0.373,0.58,1.456l0.002,10.142
		C28.284,41.524,28.457,43.545,27.256,44.861z"/>
	<path fill="#414042" d="M22.56,31.321c-0.276,0-0.5,0.224-0.5,0.5v11.031c0,0.276,0.224,0.5,0.5,0.5s0.5-0.224,0.5-0.5V31.821
		C23.06,31.545,22.836,31.321,22.56,31.321z"/>
	<path fill="#414042" d="M25.593,31.321c-0.276,0-0.5,0.224-0.5,0.5v11.031c0,0.276,0.224,0.5,0.5,0.5s0.5-0.224,0.5-0.5V31.821
		C26.093,31.545,25.869,31.321,25.593,31.321z"/>
</g>
</svg>
