<?xml version="1.0" encoding="utf-8"?>
<!-- Generator: Adobe Illustrator 16.0.0, SVG Export Plug-In . SVG Version: 6.00 Build 0)  -->
<!DOCTYPE svg PUBLIC "-//W3C//DTD SVG 1.1//EN" "http://www.w3.org/Graphics/SVG/1.1/DTD/svg11.dtd">
<svg version="1.1" id="Layer_1" xmlns="http://www.w3.org/2000/svg" xmlns:xlink="http://www.w3.org/1999/xlink" x="0px" y="0px"
	 width="48px" height="48px" viewBox="0 0 48 48" enable-background="new 0 0 48 48" xml:space="preserve">
<g>
	<path fill="#414042" d="M42.328,10.92l2.639-2.187c0.457-0.391,0.438-0.728,0.343-0.941c-0.071-0.161-0.265-0.585-1.566-0.407
		L24.204,7.386c-0.734-0.038-1.254,0.496-1.249,0.501l-0.707,0.571c-0.137-0.353-0.475-0.606-0.877-0.606h-2.023
		c-0.45,0-0.809,0.322-0.903,0.744l-2.671,0.25c-0.283,0-1.609,0.701-1.609,1.275v1.164H1.352c-0.276,0-0.5,0.224-0.5,0.5
		s0.224,0.5,0.5,0.5h12.813v1.67c0,0.488,1.212,1.445,1.531,1.438l2.744,0.433c0.085,0.435,0.45,0.77,0.908,0.77h2.023
		c0.419,0,0.763-0.278,0.887-0.657c0.761,0.437,1.419,2.067,1.664,2.958c0.777,1.679,2.987,1.343,3.001,1.333l3.571-0.001
		c0.307-0.021,0.582-0.03,0.843-0.032c0.007,0.05,0.016,0.101,0.039,0.149c0.013,0.025,1.208,2.526,0.04,4.195
		C31.322,24.676,31.3,24.847,31.355,25s0.183,0.27,0.341,0.313l3.363,0.9c0.043,0.011,0.086,0.017,0.129,0.017
		c0.13,0,0.243-0.063,0.335-0.15c0.076,0.708,0.204,1.518,0.428,2.098c0.126,0.764,0.712,2.079,2.017,2.009
		c1.739-0.13,2.845,3.111,3.109,4.379c0.81,3.339,1.812,5.334,2.979,5.929c0.269,0.137,0.503,0.176,0.682,0.176
		c0.1,0,0.183-0.012,0.245-0.026c0.543-0.014,0.888-0.191,1.024-0.528c0.185-0.456-0.149-0.894-0.324-1.081
		c-2.367-4.249-1.647-8.097-1.656-8.097c0,0,0,0,0,0.001c0.283-0.715,1.449-0.724,1.467-0.724c0.396-0.003,0.747-0.15,1.018-0.427
		c0.615-0.627,0.622-1.723,0.621-1.82C47.46,20.117,43.367,12.674,42.328,10.92z M15.164,13.813v-3.521
		c0.183-0.155,0.578-0.412,0.655-0.447l2.585-0.24v5.205l-2.496-0.39C15.751,14.339,15.33,13.992,15.164,13.813z M21.316,15.598
		l-1.912,0.053l-0.002-0.249c0-0.003,0.002-0.006,0.002-0.009V9.055c0-0.071-0.016-0.14-0.044-0.204l1.956-0.056V15.598z
		 M35.317,25.246l-2.74-0.733c0.741-1.656,0.138-3.531-0.159-4.271c0.812,0.086,1.295,0.277,1.577,0.458
		c0.401,0.257,0.436,0.519,0.438,0.519v-0.001c-0.09,2.108,0.634,3.168,0.993,3.56c0.005,0.129,0.016,0.319,0.03,0.536
		C35.413,25.287,35.369,25.26,35.317,25.246z M44.843,39.58c0.013,0.022,0.026,0.044,0.042,0.063c-0.046,0-0.071,0.003-0.123,0.024
		c0.003,0.002-1.389,0.123-2.709-5.323c-0.03-0.148-0.546-2.604-1.833-4.075l3.058,0.012c-0.076,0.114-0.151,0.23-0.206,0.371
		C43.036,30.825,42.232,34.943,44.843,39.58z M46.132,27.95c0,0.013-0.012,1.259-0.64,1.264c-0.02-0.002-0.313,0.002-0.693,0.09
		c-0.028-0.005-0.055-0.018-0.085-0.018l-5.951-0.021c-0.017,0.002-0.029,0.009-0.045,0.012c-0.255-0.068-0.521-0.11-0.811-0.089
		c-0.824,0.051-0.974-1.2-0.976-1.212c-0.006-0.04-0.017-0.081-0.032-0.118c-0.424-1.043-0.48-3.285-0.48-3.308
		c-0.004-0.146-0.078-0.29-0.191-0.382c-0.037-0.029-0.889-0.75-0.795-2.915c0.002-0.06,0.001-0.598-0.532-1.109
		c-0.788-0.756-2.292-1.062-4.44-0.913l-3.615,0.006c-0.019,0.003-1.558,0.229-1.985-0.678c-0.09-0.339-0.91-3.222-2.543-3.672
		V9.672c0.019-0.012,0.041-0.016,0.059-0.031l1.266-1.03c0.003-0.004,0.233-0.256,0.526-0.226L43.811,8.38
		c0.006,0,0.012-0.001,0.019-0.002l-2.472,2.048c-0.193,0.16-0.237,0.439-0.104,0.652C41.307,11.162,46.486,19.45,46.132,27.95z"/>
	<path fill="#414042" d="M29.985,10.135h-1.578c-0.504,0-0.914,0.409-0.914,0.912v5.567c0,0.504,0.41,0.913,0.914,0.913h1.578
		c0.503,0,0.912-0.409,0.912-0.913v-5.567C30.897,10.544,30.488,10.135,29.985,10.135z M29.897,11.135v2.197h-1.404v-2.197H29.897z
		 M28.493,16.528v-2.195h1.404v2.195H28.493z"/>
	<path fill="#414042" d="M38.993,25.104c-0.806,0-0.806,1.25,0,1.25S39.799,25.104,38.993,25.104z"/>
	<path fill="#414042" d="M42.419,19.163c0.806,0,0.806-1.25,0-1.25S41.613,19.163,42.419,19.163z"/>
	<path fill="#414042" d="M40.024,9.54c-0.806,0-0.806,1.25,0,1.25S40.83,9.54,40.024,9.54z"/>
	<path fill="#414042" d="M25.019,9.774c-0.806,0-0.806,1.25,0,1.25S25.824,9.774,25.019,9.774z"/>
	<path fill="#414042" d="M25.915,16.872c-0.806,0-0.806,1.25,0,1.25S26.721,16.872,25.915,16.872z"/>
</g>
</svg>
