<?xml version="1.0" encoding="utf-8"?>
<!-- Generator: Adobe Illustrator 16.0.0, SVG Export Plug-In . SVG Version: 6.00 Build 0)  -->
<!DOCTYPE svg PUBLIC "-//W3C//DTD SVG 1.1//EN" "http://www.w3.org/Graphics/SVG/1.1/DTD/svg11.dtd">
<svg version="1.1" id="Layer_1" xmlns="http://www.w3.org/2000/svg" xmlns:xlink="http://www.w3.org/1999/xlink" x="0px" y="0px"
	 width="48px" height="48px" viewBox="0 0 48 48" enable-background="new 0 0 48 48" xml:space="preserve">
<path fill="#414042" d="M27.259,39.169c-0.587-1.407-0.118-3.124-0.113-3.142c0.566-2.027-0.219-3.798-0.242-3.849
	c-0.015-0.038-0.345-0.936,0.169-2.367c0.374-1.043,0.378-1.911,0.012-2.581c-0.243-0.443-0.591-0.694-0.858-0.83
	c-0.014-1.672-0.069-9.178,0.003-13.441c0.086-5.064-3.042-7.32-3.176-7.414c-0.153-0.107-0.354-0.12-0.518-0.035
	c-0.166,0.086-0.27,0.257-0.27,0.444V26.24h-0.734c-0.095,0-0.187,0.026-0.267,0.077c-0.074,0.047-0.727,0.477-0.716,1.133
	c0.005,0.283,0.135,0.692,0.73,1.04c0.016,0.01,0.032,0.018,0.049,0.025c0.045,0.094,0.153,0.414,0.113,1.271l0.007,10.618
	c-0.012,0.066-0.095,0.672,0.372,1.241c0.462,0.562,1.273,0.865,2.368,0.898c0.113,0.014,0.243,0.022,0.384,0.022
	c0.9,0,2.241-0.332,2.685-1.632C27.37,40.721,27.633,40.07,27.259,39.169z M23.266,7.111c0.832,0.949,2.014,2.832,1.963,5.831
	c-0.07,4.145-0.02,11.338-0.004,13.298h-1.959V7.111z M26.378,40.46c-0.025,0.038-0.044,0.079-0.058,0.122
	c-0.362,1.146-1.944,0.979-2.057,0.967c-1.025-0.033-1.467-0.302-1.657-0.521c-0.195-0.226-0.171-0.461-0.165-0.541L22.44,29.811
	c0.049-1.02-0.084-1.679-0.404-2.015c-0.105-0.11-0.215-0.171-0.307-0.202c-0.148-0.096-0.179-0.158-0.181-0.158
	c0.005-0.038,0.069-0.122,0.15-0.195h3.957c0.102,0.037,0.381,0.162,0.55,0.471c0.221,0.402,0.194,1.012-0.075,1.763
	c-0.65,1.815-0.178,3.024-0.149,3.093c0.007,0.015,0.666,1.525,0.201,3.189c-0.023,0.084-0.57,2.063,0.152,3.798
	C26.568,40.114,26.379,40.457,26.378,40.46z"/>
</svg>
