<?xml version="1.0" encoding="utf-8"?>
<!-- Generator: Adobe Illustrator 16.0.0, SVG Export Plug-In . SVG Version: 6.00 Build 0)  -->
<!DOCTYPE svg PUBLIC "-//W3C//DTD SVG 1.1//EN" "http://www.w3.org/Graphics/SVG/1.1/DTD/svg11.dtd">
<svg version="1.1" id="Layer_1" xmlns="http://www.w3.org/2000/svg" xmlns:xlink="http://www.w3.org/1999/xlink" x="0px" y="0px"
	 width="48px" height="48px" viewBox="0 0 48 48" enable-background="new 0 0 48 48" xml:space="preserve">
<path fill="#414042" d="M37.355,6.454c-0.075-0.233-0.309-0.373-0.55-0.341c-1.375,0.208-2.832,0.313-4.33,0.313
	c-10.054,0-19.524-4.705-19.619-4.753c-0.237-0.119-0.526-0.033-0.658,0.198c-0.052,0.09-5.106,9.093,0.005,17.586
	c0.074,0.122,0.196,0.208,0.337,0.233c0.031,0.006,0.062,0.009,0.092,0.009c0.11,0,0.219-0.036,0.308-0.105
	c4.067-3.167,11.189-4.116,16.484-4.354l-1.498,29.69c-0.009,0.159,0.061,0.313,0.184,0.414c0.078,0.063,1.346,1.059,3.694,1.059
	c1.175,0,2.619-0.249,4.32-0.988c0.191-0.083,0.311-0.276,0.3-0.484l-1.499-29.721c1.183,0.041,1.903,0.097,1.915,0.097
	c0.198,0.016,0.394-0.09,0.485-0.271C39.021,11.722,37.425,6.667,37.355,6.454z M35.408,44.63c-3.64,1.471-5.826,0.462-6.47,0.071
	l1.485-29.456c0.001-0.016-0.006-0.029-0.007-0.045c0.766-0.023,1.482-0.032,2.132-0.032c0.5,0,0.956,0.006,1.386,0.015
	c-0.001,0.021-0.01,0.041-0.009,0.063L35.408,44.63z M36.573,14.286c-0.637-0.04-2.104-0.117-4.024-0.117
	c-5.176,0-14.486,0.568-19.765,4.295c-3.786-6.838-0.79-13.929,0.069-15.685c2.02,0.938,10.581,4.646,19.622,4.646
	c1.392,0,2.749-0.088,4.044-0.262C36.835,8.341,37.621,11.844,36.573,14.286z"/>
</svg>
