<?xml version="1.0" encoding="utf-8"?>
<!-- Generator: Adobe Illustrator 16.0.0, SVG Export Plug-In . SVG Version: 6.00 Build 0)  -->
<!DOCTYPE svg PUBLIC "-//W3C//DTD SVG 1.1//EN" "http://www.w3.org/Graphics/SVG/1.1/DTD/svg11.dtd">
<svg version="1.1" id="Layer_1" xmlns="http://www.w3.org/2000/svg" xmlns:xlink="http://www.w3.org/1999/xlink" x="0px" y="0px"
	 width="48px" height="48px" viewBox="0 0 48 48" enable-background="new 0 0 48 48" xml:space="preserve">
<g>
	<path fill="#414042" d="M31.991,18.305c0.092,0.163,0.261,0.255,0.436,0.255c0.083,0,0.167-0.021,0.245-0.064
		c0.24-0.135,0.326-0.439,0.19-0.681l-0.551-0.98c-0.136-0.24-0.438-0.326-0.681-0.19c-0.24,0.135-0.326,0.439-0.19,0.681
		L31.991,18.305z"/>
	<path fill="#414042" d="M28.83,18.304c0.092,0.164,0.262,0.256,0.437,0.256c0.083,0,0.167-0.021,0.244-0.063
		c0.241-0.135,0.327-0.439,0.192-0.681l-0.549-0.982c-0.136-0.242-0.441-0.325-0.681-0.192c-0.241,0.135-0.327,0.439-0.192,0.681
		L28.83,18.304z"/>
	<path fill="#414042" d="M25.67,18.306c0.092,0.164,0.262,0.256,0.437,0.256c0.083,0,0.167-0.021,0.244-0.063
		c0.241-0.136,0.327-0.44,0.192-0.681l-0.551-0.982c-0.135-0.241-0.441-0.325-0.681-0.192c-0.241,0.136-0.327,0.44-0.192,0.681
		L25.67,18.306z"/>
	<path fill="#414042" d="M22.51,18.304c0.092,0.164,0.262,0.256,0.437,0.256c0.083,0,0.167-0.021,0.244-0.063
		c0.241-0.135,0.327-0.439,0.192-0.681l-0.549-0.98c-0.135-0.241-0.441-0.325-0.681-0.192c-0.241,0.135-0.327,0.439-0.192,0.681
		L22.51,18.304z"/>
	<path fill="#414042" d="M44.482,25.885c-0.007,0-0.013,0-0.021,0l-23.691-1.239c0.189-0.067,0.329-0.24,0.335-0.452l0.028-0.93
		l10.194-0.001c0.238,0,0.443-0.168,0.49-0.4l0.551-2.723c0.029-0.147-0.008-0.3-0.104-0.416c-0.095-0.116-0.236-0.184-0.387-0.184
		H21.048l-0.004-0.926c-0.001-0.129-0.051-0.253-0.141-0.346c-0.403-0.416-1.394-0.989-2.469-0.517v-0.799
		c0-0.673-0.548-1.221-1.221-1.221h-6.471c-0.672,0-1.219,0.548-1.219,1.221v1.598H2.45c-0.711,0-1.289,0.579-1.289,1.291v4.438
		l-0.005,0.229c-0.016,0.553-0.041,1.478,0.31,2.087l2.412,4.711c0.375,0.652,0.733,0.983,1.648,0.983
		c0.64,0,1.174-0.205,1.467-0.563c0.205-0.25,0.282-0.566,0.218-0.888l-0.606-3.15c-0.043-0.297-0.044-1.299-0.033-1.87
		c0-0.138,0.112-0.25,0.25-0.25h2.703v4.203c0,0.674,0.547,1.223,1.231,1.223l7.191-0.188c0.07-0.002,0.136-0.019,0.196-0.046
		l26.201-1.356c0.762-0.001,2.509-0.012,2.509-1.762C46.853,25.993,45.348,25.892,44.482,25.885z M6.821,24.566
		c-0.689,0-1.25,0.561-1.25,1.241c-0.003,0.157-0.026,1.549,0.048,2.047l0.601,3.236c-0.078,0.095-0.348,0.196-0.693,0.196
		c-0.462,0-0.527-0.04-0.77-0.46l-2.412-4.711c-0.222-0.387-0.2-1.164-0.188-1.582l0.005-4.695c0-0.16,0.13-0.291,0.289-0.291h7.074
		v5.018H6.821z M10.743,29.992c-0.123,0-0.219-0.098-0.219-0.223V16.951c0-0.124,0.096-0.221,0.219-0.221h6.471
		c0.124,0,0.221,0.097,0.221,0.221v6.92c0,0.276,0.224,0.5,0.5,0.5s0.5-0.224,0.5-0.5v-5.036c0.071-0.01,0.141-0.031,0.204-0.073
		c0.613-0.398,1.156-0.105,1.406,0.081l0.005,1.197c0.001,0.275,0.225,0.498,0.5,0.498h10.719l-0.349,1.723l-10.271,0.002
		c-0.271,0-0.491,0.214-0.5,0.484l-0.043,1.415c-0.006,0.203,0.111,0.379,0.282,0.463l-2.991-0.156l-0.844-0.029
		c-2.487,0-3.973,1.196-3.973,3.199c0,0.963,0.351,1.733,0.982,2.28L10.743,29.992z M44.507,28.4
		c-0.027-0.004-0.055-0.008-0.089-0.003l-0.121,0.006c-0.008,0-0.016,0.001-0.023,0.001l-26.911,1.406l-0.817,0.029
		c-1.111-0.002-2.964-0.291-2.964-2.201c0-1.913,1.862-2.199,2.955-2.199l27.68,1.435c0.034,0.007,0.069,0.011,0.105,0.011
		c1.428,0,1.531,0.285,1.531,0.756C45.853,28.094,45.759,28.376,44.507,28.4z"/>
</g>
</svg>
