<?xml version="1.0" encoding="utf-8"?>
<!-- Generator: Adobe Illustrator 16.0.0, SVG Export Plug-In . SVG Version: 6.00 Build 0)  -->
<!DOCTYPE svg PUBLIC "-//W3C//DTD SVG 1.1//EN" "http://www.w3.org/Graphics/SVG/1.1/DTD/svg11.dtd">
<svg version="1.1" id="Layer_1" xmlns="http://www.w3.org/2000/svg" xmlns:xlink="http://www.w3.org/1999/xlink" x="0px" y="0px"
	 width="48px" height="48px" viewBox="0 0 48 48" enable-background="new 0 0 48 48" xml:space="preserve">
<path fill="#414042" d="M34.033,3.41h-1.872c-0.328-0.072-1.126-0.036-2.392,1.117c-0.409,0.353-1.325,0.128-1.645-0.01
	c-0.344-0.542-0.841-1.107-1.651-1.107l-2.218,0.006L21.527,3.41c-0.809,0-1.307,0.566-1.651,1.106
	c-0.318,0.137-1.25,0.35-1.633,0.02c-1.278-1.165-2.075-1.199-2.402-1.126h-1.872c-1.379,0-2.5,1.122-2.5,2.5v6
	c0,1.379,1.121,2.5,2.5,2.5l1.879-0.004c0.002,0.002,1.276,0.19,2.229-0.929c0.544-0.236,1.179-0.149,1.437-0.045
	c0.404,0.964,1.262,0.964,1.786,0.964l0.42,0.001c-0.001,0.01-0.007,0.019-0.007,0.029l-1.5,28.733
	c-0.009,0.16,0.06,0.313,0.184,0.414c0.078,0.063,1.346,1.061,3.694,1.061c1.175,0,2.619-0.249,4.32-0.99
	c0.191-0.083,0.311-0.275,0.3-0.484l-1.5-28.733c-0.001-0.019-0.011-0.035-0.014-0.053c0.471-0.053,1-0.244,1.293-0.941
	c0.259-0.105,0.893-0.191,1.437,0.045c0.719,0.845,1.655,0.938,2.034,0.938c0.082,0,0.141-0.004,0.154-0.006h1.919
	c1.379,0,2.5-1.121,2.5-2.5v-6C36.533,4.532,35.412,3.41,34.033,3.41z M27.693,42.861c-3.64,1.475-5.823,0.464-6.469,0.071
	L22.71,14.48c0.001-0.027-0.009-0.052-0.012-0.078l0.899,0.003l2.626-0.006c-0.003,0.027-0.014,0.053-0.012,0.082L27.693,42.861z
	 M35.533,11.911c0,0.827-0.673,1.5-1.5,1.5l-1.992,0.003l-0.081,0.003c-0.246,0-0.868-0.063-1.325-0.65
	c-0.047-0.061-0.106-0.109-0.175-0.143c-0.428-0.209-0.871-0.314-1.317-0.314c-0.761,0-1.267,0.307-1.322,0.341
	c-0.101,0.064-0.176,0.162-0.21,0.276c-0.132,0.428-0.29,0.471-0.913,0.471l-2.295,0.008l-3.102-0.008
	c-0.619,0-0.777-0.043-0.909-0.471c-0.034-0.114-0.109-0.212-0.21-0.276c-0.056-0.034-0.562-0.341-1.322-0.341
	c-0.446,0-0.89,0.105-1.317,0.314c-0.068,0.033-0.128,0.082-0.175,0.143c-0.457,0.587-1.079,0.65-1.325,0.65l-2.073-0.006
	c-0.827,0-1.5-0.673-1.5-1.5v-6c0-0.827,0.673-1.5,1.5-1.5h1.938c0.07-0.001,0.104,0.003,0.165-0.023
	c0.087,0,0.569,0.043,1.509,0.898c0.354,0.305,0.798,0.459,1.319,0.459c0.801,0,1.526-0.38,1.558-0.396
	c0.08-0.042,0.146-0.106,0.193-0.184c0.4-0.663,0.658-0.754,0.876-0.754l2.218,0.006l2.73-0.006c0.219,0,0.477,0.091,0.874,0.753
	c0.047,0.078,0.114,0.142,0.194,0.185c0.031,0.016,0.758,0.396,1.56,0.396c0.521,0,0.966-0.155,1.33-0.468
	c0.929-0.846,1.411-0.889,1.467-0.906c0.063,0.026,0.129,0.04,0.196,0.04h1.938c0.827,0,1.5,0.673,1.5,1.5V11.911z"/>
</svg>
