<?xml version="1.0" encoding="utf-8"?>
<!-- Generator: Adobe Illustrator 16.0.0, SVG Export Plug-In . SVG Version: 6.00 Build 0)  -->
<!DOCTYPE svg PUBLIC "-//W3C//DTD SVG 1.1//EN" "http://www.w3.org/Graphics/SVG/1.1/DTD/svg11.dtd">
<svg version="1.1" id="Layer_1" xmlns="http://www.w3.org/2000/svg" xmlns:xlink="http://www.w3.org/1999/xlink" x="0px" y="0px"
	 width="48px" height="48px" viewBox="0 0 48 48" enable-background="new 0 0 48 48" xml:space="preserve">
<path fill="#414042" d="M35.681,3.398h-2.678c-0.937,0-1.396,0.799-1.882,1.646l-0.178,0.315c-0.041,0.092-0.195,0.324-0.257,0.34
	h-1.243c-0.156-0.014-0.57-0.476-0.868-1.063c-0.349-0.576-0.86-1.237-1.732-1.237l-5.107,0c-0.281,0.012-6.934,0.354-9.774,5.612
	c-0.478,0.887-1.372,3.323-1.41,3.427c-0.074,0.204-0.009,0.432,0.162,0.565c0.17,0.133,0.408,0.142,0.588,0.021
	c0.03-0.021,3.044-2.035,6.19-2.035c0.244,0,0.49,0.012,0.715,0.035c0.039,0.007,0.865,0.151,1.499,1.089l0.46,0.852
	c0.388,0.764,0.722,1.423,1.738,1.423h0.054c-0.001,0.011-0.007,0.02-0.008,0.03l-1.5,28.733c-0.009,0.16,0.06,0.313,0.184,0.414
	c0.078,0.063,1.346,1.061,3.694,1.061c1.175,0,2.619-0.249,4.32-0.99c0.191-0.083,0.311-0.275,0.3-0.484l-1.5-28.733
	c-0.001-0.025-0.014-0.047-0.019-0.072c0.701-0.15,1.287-0.731,1.541-1.559l0.303-0.902c0.183-0.323,0.345-0.345,0.357-0.345h0.835
	c0.157,0.021,0.521,0.602,0.74,1.313c0.042,0.082,0.078,0.161,0.113,0.236c0.229,0.493,0.514,1.107,1.685,1.107h2.678
	c0.993,0,1.801-1.013,1.801-2.258V5.656C37.481,4.411,36.674,3.398,35.681,3.398z M27.931,42.851
	c-3.641,1.474-5.823,0.464-6.469,0.071l1.485-28.453c0.001-0.029-0.009-0.055-0.012-0.083h3.526
	c-0.003,0.028-0.014,0.054-0.012,0.083L27.931,42.851z M36.481,11.937c0,0.67-0.374,1.258-0.801,1.258h-2.678
	c-0.532,0-0.579-0.102-0.777-0.528c-0.041-0.087-0.083-0.179-0.097-0.185c-0.134-0.456-0.648-1.943-1.663-1.943h-0.851
	c-0.172,0-0.768,0.062-1.251,0.937l-0.345,1.001c-0.173,0.562-0.537,0.91-0.95,0.91h-5.166c-0.375,0-0.464-0.121-0.846-0.875
	l-0.176-0.34c-0.003-0.006-0.005-0.013-0.009-0.02c-0.876-1.865-2.456-2.108-2.54-2.12c-2.472-0.265-4.928,0.716-6.348,1.444
	c0.284-0.729,0.629-1.57,0.855-1.991c2.567-4.751,8.874-5.084,8.916-5.087h5.086c0.218,0,0.476,0.091,0.857,0.72
	c0.187,0.371,0.861,1.581,1.742,1.581l1.324-0.006c0.718-0.117,1.057-0.851,1.066-0.882l0.155-0.269
	c0.42-0.73,0.674-1.144,1.015-1.144h2.678c0.427,0,0.801,0.588,0.801,1.258V11.937z"/>
</svg>
