<?xml version="1.0" encoding="utf-8"?>
<!-- Generator: Adobe Illustrator 16.0.0, SVG Export Plug-In . SVG Version: 6.00 Build 0)  -->
<!DOCTYPE svg PUBLIC "-//W3C//DTD SVG 1.1//EN" "http://www.w3.org/Graphics/SVG/1.1/DTD/svg11.dtd">
<svg version="1.1" id="Layer_1" xmlns="http://www.w3.org/2000/svg" xmlns:xlink="http://www.w3.org/1999/xlink" x="0px" y="0px"
	 width="48px" height="48px" viewBox="0 0 48 48" enable-background="new 0 0 48 48" xml:space="preserve">
<path fill="#414042" d="M29.348,33.875c-0.226-0.028-0.455-0.037-0.686-0.022l-3.201-8.617c0.855-0.549,1.38-1.199,1.407-1.235
	c4.052-4.647,7.452-13.61,6.738-17.759c-0.191-1.11-0.655-1.88-1.38-2.288c-0.123-0.069-0.269-0.083-0.406-0.038
	c-0.135,0.046-0.243,0.147-0.299,0.278L24.11,21.599L17.524,3.863c-0.05-0.134-0.153-0.24-0.286-0.292
	c-0.132-0.052-0.28-0.044-0.407,0.019c-0.78,0.393-1.274,1.255-1.469,2.562c-0.692,4.662,2.631,14.625,5.934,17.773
	c0.503,0.462,1.071,1.046,1.264,1.314l-3.571,8.387c-0.229-0.024-0.456-0.027-0.688-0.009c-2.43,0.195-4.218,2.736-3.985,5.665
	c0.227,2.81,2.233,4.972,4.542,4.972c0.098,0,0.196-0.004,0.295-0.012c1.197-0.095,2.271-0.751,3.025-1.846
	c0.73-1.063,1.072-2.419,0.96-3.819c-0.154-1.939-1.173-3.654-2.722-4.505l-0.456-0.175l3.37-7.913
	c0.447-0.03,0.855-0.146,1.233-0.295l3.093,8.327l-0.508,0.24c-1.521,0.751-2.617,2.417-2.862,4.346
	c-0.178,1.395,0.099,2.766,0.779,3.862c0.701,1.129,1.743,1.835,2.935,1.986c0.159,0.021,0.318,0.03,0.477,0.03
	c1.028,0,2.031-0.423,2.864-1.218c0.934-0.891,1.546-2.147,1.723-3.54C33.436,36.809,31.77,34.186,29.348,33.875z M19.996,34.977
	c1.195,0.661,2.017,2.071,2.146,3.681c0.093,1.172-0.187,2.298-0.788,3.173c-0.579,0.842-1.39,1.345-2.281,1.416
	c-1.862,0.15-3.567-1.665-3.761-4.044c-0.188-2.378,1.188-4.438,3.068-4.589c0.072-0.005,0.145-0.008,0.216-0.008
	c0.2,0,0.398,0.021,0.592,0.064c0.054,0.012,0.107,0.015,0.161,0.009c0.051,0.056,0.114,0.1,0.189,0.128L19.996,34.977z
	 M21.979,23.194c-3.064-2.921-6.272-12.553-5.627-16.895c0.069-0.464,0.208-1.021,0.485-1.416l6.704,18.054l-0.539,1.266
	C22.759,23.937,22.429,23.607,21.979,23.194z M24.531,23.163c0.001-0.003,0.002-0.006,0.004-0.009l7.637-17.936
	c0.212,0.289,0.362,0.688,0.449,1.192c0.661,3.843-2.684,12.547-6.523,16.953c-0.011,0.015-0.954,1.194-2.307,1.538L24.531,23.163z
	 M32.071,39.597c-0.148,1.166-0.652,2.211-1.421,2.943c-0.738,0.705-1.638,1.034-2.523,0.919c-0.888-0.113-1.673-0.653-2.212-1.521
	c-0.56-0.901-0.786-2.041-0.637-3.209c0.203-1.601,1.09-2.971,2.306-3.571l0.525-0.248c0.024-0.012,0.047-0.025,0.069-0.04
	c0.072,0.023,0.153,0.03,0.233,0.017c0.271-0.045,0.543-0.054,0.81-0.019C31.096,35.107,32.374,37.229,32.071,39.597z"/>
</svg>
