<?xml version="1.0" encoding="utf-8"?>
<!-- Generator: Adobe Illustrator 16.0.0, SVG Export Plug-In . SVG Version: 6.00 Build 0)  -->
<!DOCTYPE svg PUBLIC "-//W3C//DTD SVG 1.1//EN" "http://www.w3.org/Graphics/SVG/1.1/DTD/svg11.dtd">
<svg version="1.1" id="Layer_1" xmlns="http://www.w3.org/2000/svg" xmlns:xlink="http://www.w3.org/1999/xlink" x="0px" y="0px"
	 width="48px" height="48px" viewBox="0 0 48 48" enable-background="new 0 0 48 48" xml:space="preserve">
<path fill="#414042" d="M27.992,2.754c-0.276,0-0.5,0.224-0.5,0.5v8.947c0,0.827-0.673,1.5-1.5,1.5H24.5V3.254
	c0-0.276-0.224-0.5-0.5-0.5s-0.5,0.224-0.5,0.5v10.447h-1.49c-0.827,0-1.5-0.673-1.5-1.5V3.254c0-0.276-0.224-0.5-0.5-0.5
	s-0.5,0.224-0.5,0.5v8.947c0,1.379,1.121,2.5,2.5,2.5h1.652v26.545h-0.844c-1.108,0-2.01,0.901-2.01,2.01
	c0,1.107,0.901,2.008,2.01,2.008h2.742c1.108,0,2.01-0.9,2.01-2.008c0-1.108-0.901-2.01-2.01-2.01h-0.898V14.701h1.33
	c1.379,0,2.5-1.121,2.5-2.5V3.254C28.492,2.978,28.269,2.754,27.992,2.754z M26.57,43.256c0,0.556-0.453,1.008-1.01,1.008h-2.742
	c-0.557,0-1.01-0.452-1.01-1.008c0-0.557,0.453-1.01,1.01-1.01h2.742C26.117,42.246,26.57,42.699,26.57,43.256z"/>
</svg>
