<?xml version="1.0" encoding="utf-8"?>
<!-- Generator: Adobe Illustrator 16.0.0, SVG Export Plug-In . SVG Version: 6.00 Build 0)  -->
<!DOCTYPE svg PUBLIC "-//W3C//DTD SVG 1.1//EN" "http://www.w3.org/Graphics/SVG/1.1/DTD/svg11.dtd">
<svg version="1.1" id="Layer_1" xmlns="http://www.w3.org/2000/svg" xmlns:xlink="http://www.w3.org/1999/xlink" x="0px" y="0px"
	 width="48px" height="48px" viewBox="0 0 48 48" enable-background="new 0 0 48 48" xml:space="preserve">
<g>
	<path fill="#414042" d="M45.115,33.111h-0.613c-0.276,0-0.5,0.224-0.5,0.5v0.111H31.283v-1.682c0-0.195-0.113-0.372-0.29-0.454
		l-1.626-0.751l-0.008-7.275c0.024-0.632-0.014-1.255-0.082-1.872c0.007-0.003,0.015-0.001,0.021-0.004l2.566-1.025
		c0.155-0.062,0.269-0.197,0.304-0.36c0.034-0.163-0.015-0.333-0.132-0.453c-4.029-4.128-4.151-5.873-4.152-5.873
		c0.003-0.142-0.054-0.277-0.156-0.374c-0.102-0.098-0.251-0.148-0.381-0.137l-1.535,0.115c-0.221,0.017-0.392,0.176-0.442,0.379
		c-2.558-2.414-6.012-3.8-9.6-3.8c-7.381,0-13.385,6.004-13.385,13.385c0,7.379,6.004,13.383,13.385,13.383h15.013
		c0.276,0,0.5-0.224,0.5-0.5v-1.701h13.219c0.039,0,0.077-0.005,0.113-0.013v2.651c0,0.276,0.224,0.5,0.5,0.5s0.5-0.224,0.5-0.5
		v-3.75C45.615,33.335,45.392,33.111,45.115,33.111z M30.806,20.005l-1.681,0.672c-0.443-2.261-1.511-4.363-3.136-6.11l0.989-0.074
		C27.213,15.308,28.023,17.056,30.806,20.005z M30.283,35.924H15.771c-6.829,0-12.385-5.555-12.385-12.383
		c0-6.83,5.556-12.385,12.385-12.385c3.538,0,6.946,1.436,9.353,3.938c2.211,2.299,3.359,5.292,3.236,8.448l0.008,7.616
		c0,0.194,0.113,0.371,0.29,0.453l1.626,0.751V35.924z"/>
	<path fill="#414042" d="M16.124,15.234c-4.577,0-8.301,3.724-8.301,8.301c0,4.576,3.724,8.299,8.301,8.299
		c4.575,0,8.298-3.723,8.298-8.299C24.422,18.958,20.699,15.234,16.124,15.234z M16.124,30.834c-4.025,0-7.301-3.274-7.301-7.299
		c0-4.026,3.275-7.301,7.301-7.301c4.024,0,7.298,3.275,7.298,7.301C23.422,27.56,20.148,30.834,16.124,30.834z"/>
</g>
</svg>
