<?xml version="1.0" encoding="utf-8"?>
<!-- Generator: Adobe Illustrator 16.0.0, SVG Export Plug-In . SVG Version: 6.00 Build 0)  -->
<!DOCTYPE svg PUBLIC "-//W3C//DTD SVG 1.1//EN" "http://www.w3.org/Graphics/SVG/1.1/DTD/svg11.dtd">
<svg version="1.1" id="Layer_1" xmlns="http://www.w3.org/2000/svg" xmlns:xlink="http://www.w3.org/1999/xlink" x="0px" y="0px"
	 width="48px" height="48px" viewBox="0 0 48 48" enable-background="new 0 0 48 48" xml:space="preserve">
<g>
	<path fill="#414042" d="M35.095,8.625c0-3.25-4.873-5.796-11.094-5.796S12.907,5.374,12.907,8.625c0,2.286,2.415,4.219,6.009,5.168
		l0.344,4.227c0.01,0.119,0.062,0.23,0.146,0.314c0.049,0.049,0.482,0.466,1.215,1.023c-0.897,0.467-1.242,1.261-1.259,1.305
		c-0.031,0.076-0.044,0.159-0.035,0.242l0.48,4.747c0.008,0.083,0.037,0.163,0.085,0.232c0.032,0.047,0.405,0.565,1.324,1.258
		c-0.989,0.395-1.293,1.29-1.308,1.337c-0.02,0.064-0.026,0.132-0.02,0.198l0.463,4.545c0.009,0.092,0.044,0.18,0.1,0.253
		c0.041,0.053,0.518,0.663,1.471,1.365c-1.397,0.568-1.521,1.507-1.531,1.69l0.387,5.773c0.009,0.131,0.068,0.253,0.167,0.341
		l2.723,2.42c0.095,0.084,0.213,0.126,0.332,0.126c0.111,0,0.224-0.037,0.315-0.112l2.971-2.42c0.11-0.09,0.177-0.222,0.184-0.362
		l0.293-5.834c0.014-0.259-0.173-0.484-0.429-0.521c-0.588-0.084-1.115-0.215-1.615-0.362c1.427-0.57,2.003-1.471,2.03-1.516
		c0.039-0.063,0.063-0.134,0.07-0.207l0.457-4.299c0.026-0.247-0.133-0.476-0.373-0.537c-0.592-0.151-1.136-0.313-1.642-0.481
		c1.902-0.369,2.117-1.327,2.142-1.564l0.363-4.811c0.02-0.264-0.169-0.498-0.432-0.533c-0.659-0.09-1.289-0.236-1.891-0.412
		c1.853-0.426,2.356-1.332,2.418-1.46c0.026-0.055,0.043-0.114,0.048-0.175l0.497-5.875C32.824,12.73,35.095,10.842,35.095,8.625z
		 M26.483,42.022l-2.469,2.011l-2.252-2.002l-0.375-5.473c0.004-0.025,0.122-0.621,1.396-0.951c0.069-0.019,0.132-0.05,0.184-0.091
		c0.965,0.548,2.217,1.064,3.775,1.342L26.483,42.022z M26.84,33.62c-0.188,0.241-0.838,0.947-2.229,1.266
		c-0.115,0.026-0.207,0.096-0.274,0.182c-1.726-0.78-2.723-1.782-3.004-2.102l-0.435-4.271c0.095-0.204,0.4-0.689,1.169-0.739
		c0.091-0.006,0.169-0.042,0.24-0.089c1.13,0.673,2.721,1.406,4.931,2.01L26.84,33.62z M27.413,26.852
		c-0.062,0.232-0.697,0.834-2.879,0.834c-0.095,0-0.179,0.033-0.254,0.079c-2.246-1.023-3.235-2.058-3.492-2.36l-0.45-4.456
		c0.128-0.223,0.521-0.734,1.298-0.879c1.465,0.96,3.571,2.044,6.1,2.479L27.413,26.852z M27.926,19.372
		c-0.18,0.226-0.969,1.003-3.34,1.063c-0.052,0.001-0.099,0.018-0.146,0.033c-2.215-1.012-3.755-2.321-4.199-2.724l-0.303-3.716
		c1.254,0.251,2.619,0.393,4.063,0.393c1.565,0,3.044-0.162,4.383-0.455L27.926,19.372z M24.001,13.421
		c-5.472,0-10.094-2.196-10.094-4.797c0-2.6,4.622-4.796,10.094-4.796s10.094,2.196,10.094,4.796
		C34.095,11.225,29.473,13.421,24.001,13.421z"/>
	<path fill="#414042" d="M27.67,6.309c-0.148-0.234-0.46-0.302-0.689-0.156l-2.979,1.881l-2.979-1.881
		c-0.231-0.145-0.541-0.078-0.689,0.156c-0.147,0.234-0.077,0.542,0.156,0.689l2.577,1.627l-2.577,1.627
		c-0.233,0.147-0.304,0.456-0.156,0.689c0.095,0.151,0.258,0.233,0.423,0.233c0.092,0,0.185-0.025,0.267-0.077l2.979-1.881
		l2.979,1.881c0.083,0.053,0.175,0.077,0.267,0.077c0.165,0,0.328-0.082,0.423-0.233c0.147-0.233,0.077-0.542-0.156-0.689
		l-2.577-1.627l2.577-1.627C27.747,6.852,27.817,6.543,27.67,6.309z"/>
</g>
</svg>
