<?xml version="1.0" encoding="utf-8"?>
<!-- Generator: Adobe Illustrator 16.0.0, SVG Export Plug-In . SVG Version: 6.00 Build 0)  -->
<!DOCTYPE svg PUBLIC "-//W3C//DTD SVG 1.1//EN" "http://www.w3.org/Graphics/SVG/1.1/DTD/svg11.dtd">
<svg version="1.1" id="Layer_1" xmlns="http://www.w3.org/2000/svg" xmlns:xlink="http://www.w3.org/1999/xlink" x="0px" y="0px"
	 width="48px" height="48px" viewBox="0 0 48 48" enable-background="new 0 0 48 48" xml:space="preserve">
<path fill="#414042" d="M26.668,29.165c-0.02-0.262-0.237-0.464-0.499-0.464h-0.304c0-0.008,0.004-0.014,0.003-0.021
	c-0.142-1.74,0.072-4.404,0.983-4.593c0.232-0.048,0.399-0.252,0.399-0.49V4.361c0-0.276-0.224-0.5-0.5-0.5h-5.5
	c-0.276,0-0.5,0.224-0.5,0.5v19.236c0,0.237,0.167,0.442,0.399,0.49c0.909,0.188,1.124,2.852,0.983,4.593
	c0,0.008,0.003,0.014,0.003,0.021h-0.304c-0.262,0-0.479,0.202-0.499,0.464l-1,13.857c-0.015,0.213,0.106,0.412,0.304,0.496
	c0.061,0.026,1.523,0.639,3.48,0.639c1.158,0,2.25-0.215,3.246-0.639c0.197-0.084,0.318-0.283,0.304-0.496L26.668,29.165z
	 M21.751,23.25V4.861h4.5V23.25c-1.417,0.742-1.469,3.63-1.412,4.971h-1.676C23.22,26.88,23.168,23.991,21.751,23.25z
	 M24.118,43.157c-1.23,0-2.257-0.275-2.759-0.44l0.938-13.016h3.406l0.939,13.027C25.861,43.014,25.014,43.157,24.118,43.157z"/>
</svg>
