<?xml version="1.0" encoding="utf-8"?>
<!-- Generator: Adobe Illustrator 16.0.0, SVG Export Plug-In . SVG Version: 6.00 Build 0)  -->
<!DOCTYPE svg PUBLIC "-//W3C//DTD SVG 1.1//EN" "http://www.w3.org/Graphics/SVG/1.1/DTD/svg11.dtd">
<svg version="1.1" id="Layer_1" xmlns="http://www.w3.org/2000/svg" xmlns:xlink="http://www.w3.org/1999/xlink" x="0px" y="0px"
	 width="48px" height="48px" viewBox="0 0 48 48" enable-background="new 0 0 48 48" xml:space="preserve">
<path fill="#414042" d="M46.023,20.438c-0.906-1.261-2.916-1.358-3.511-1.358l-29.867-0.024c-1.762,0-3.021,1.12-3.729,3.294
	L3.212,36.094c-0.404-0.568-0.642-1.262-0.642-2.01V13.912c0-1.922,2.346-3.47,4.288-3.47h9.065c1.924,0,4.265,1.536,4.285,3.443
	c0.003,0.273,0.226,0.494,0.5,0.494h16.125c0.276,0,0.5-0.224,0.5-0.5s-0.224-0.5-0.5-0.5H21.167
	c-0.365-2.253-2.983-3.938-5.243-3.938H6.858c-2.445,0-5.288,1.952-5.288,4.47v20.172c0,2.466,2.006,4.473,4.473,4.473h31.496
	c2.3,0,3.133-1.708,3.73-3.301l4.987-12.535C46.627,21.618,46.334,20.871,46.023,20.438z M45.317,22.377l-4.981,12.519
	c-0.747,1.989-1.453,2.661-2.798,2.661H6.042c-0.775,0-1.492-0.255-2.071-0.687l5.882-14.175c0.588-1.802,1.476-2.641,2.792-2.641
	l29.867,0.024c1.228,0,2.287,0.37,2.698,0.942C45.469,21.38,45.5,21.831,45.317,22.377z"/>
</svg>
