<?xml version="1.0" encoding="utf-8"?>
<!-- Generator: Adobe Illustrator 16.0.0, SVG Export Plug-In . SVG Version: 6.00 Build 0)  -->
<!DOCTYPE svg PUBLIC "-//W3C//DTD SVG 1.1//EN" "http://www.w3.org/Graphics/SVG/1.1/DTD/svg11.dtd">
<svg version="1.1" id="Layer_1" xmlns="http://www.w3.org/2000/svg" xmlns:xlink="http://www.w3.org/1999/xlink" x="0px" y="0px"
	 width="48px" height="48px" viewBox="0 0 48 48" enable-background="new 0 0 48 48" xml:space="preserve">
<g>
	<path fill="#414042" d="M45.938,20.447c-0.902-1.256-2.903-1.354-3.495-1.354l-29.75-0.021c-1.761,0-3.017,1.117-3.719,3.282
		L3.295,36.037c-0.4-0.564-0.64-1.249-0.64-1.991V13.951c0-1.86,2.348-3.455,4.27-3.455h9.032c1.915,0,4.246,1.529,4.27,3.429
		c0.003,0.274,0.227,0.494,0.5,0.494h16.06c0.276,0,0.5-0.224,0.5-0.5s-0.224-0.5-0.5-0.5H21.183
		c-0.366-2.244-2.976-3.923-5.226-3.923H6.924c-2.437,0-5.27,1.946-5.27,4.455v20.095c0,2.458,2,4.457,4.457,4.457h24.596
		c0.276,0,0.5-0.224,0.5-0.5s-0.224-0.5-0.5-0.5H6.112c-0.772,0-1.479-0.264-2.055-0.693L9.912,22.7
		c0.582-1.793,1.466-2.628,2.781-2.628l29.75,0.021c1.221,0,2.273,0.368,2.683,0.937c0.258,0.358,0.289,0.81,0.106,1.355
		l-0.738,1.862c-0.102,0.257,0.023,0.548,0.28,0.649c0.256,0.104,0.547-0.023,0.649-0.28l0.747-1.888
		C46.542,21.627,46.249,20.879,45.938,20.447z"/>
	<path fill="#414042" d="M45.311,31.476l-11.568,0.001c-0.276,0-0.5,0.224-0.5,0.5s0.224,0.5,0.5,0.5l11.568-0.001
		c0.276,0,0.5-0.224,0.5-0.5S45.587,31.476,45.311,31.476z"/>
</g>
</svg>
