<?xml version="1.0" encoding="utf-8"?>
<!-- Generator: Adobe Illustrator 16.0.0, SVG Export Plug-In . SVG Version: 6.00 Build 0)  -->
<!DOCTYPE svg PUBLIC "-//W3C//DTD SVG 1.1//EN" "http://www.w3.org/Graphics/SVG/1.1/DTD/svg11.dtd">
<svg version="1.1" id="Layer_1" xmlns="http://www.w3.org/2000/svg" xmlns:xlink="http://www.w3.org/1999/xlink" x="0px" y="0px"
	 width="48px" height="48px" viewBox="0 0 48 48" enable-background="new 0 0 48 48" xml:space="preserve">
<g>
	<path fill="#414042" d="M45.961,20.444c-0.903-1.257-2.906-1.354-3.498-1.354l-29.782-0.022c-1.76,0-3.017,1.118-3.723,3.286
		L3.273,36.049c-0.4-0.564-0.641-1.25-0.641-1.993V13.941c0-1.863,2.35-3.459,4.274-3.459h9.043c1.916,0,4.249,1.531,4.272,3.432
		c0.003,0.274,0.227,0.494,0.5,0.494h16.077c0.276,0,0.5-0.224,0.5-0.5s-0.224-0.5-0.5-0.5h-15.62
		c-0.366-2.246-2.979-3.926-5.229-3.926H6.906c-2.439,0-5.274,1.948-5.274,4.459v20.114c0,2.46,2.001,4.461,4.461,4.461h24.623
		c0.276,0,0.5-0.224,0.5-0.5s-0.224-0.5-0.5-0.5H6.093c-0.773,0-1.481-0.264-2.058-0.694L9.896,22.7
		c0.586-1.796,1.471-2.633,2.785-2.633l29.782,0.022c1.222,0,2.276,0.368,2.687,0.938c0.258,0.358,0.289,0.811,0.106,1.355
		l-0.742,1.862c-0.102,0.257,0.023,0.548,0.279,0.65c0.261,0.1,0.548-0.023,0.65-0.279l0.751-1.889
		C46.565,21.625,46.272,20.877,45.961,20.444z"/>
	<path fill="#414042" d="M45.083,31.482H39.8v-5.283c0-0.276-0.224-0.5-0.5-0.5s-0.5,0.224-0.5,0.5v5.284h-5.285
		c-0.276,0-0.5,0.224-0.5,0.5s0.224,0.5,0.5,0.5H38.8v5.284c0,0.276,0.224,0.5,0.5,0.5s0.5-0.224,0.5-0.5v-5.285h5.283
		c0.276,0,0.5-0.224,0.5-0.5S45.359,31.482,45.083,31.482z"/>
</g>
</svg>
