<?xml version="1.0" encoding="utf-8"?>
<!-- Generator: Adobe Illustrator 16.0.0, SVG Export Plug-In . SVG Version: 6.00 Build 0)  -->
<!DOCTYPE svg PUBLIC "-//W3C//DTD SVG 1.1//EN" "http://www.w3.org/Graphics/SVG/1.1/DTD/svg11.dtd">
<svg version="1.1" id="Layer_1" xmlns="http://www.w3.org/2000/svg" xmlns:xlink="http://www.w3.org/1999/xlink" x="0px" y="0px"
	 width="48px" height="48px" viewBox="0 0 48 48" enable-background="new 0 0 48 48" xml:space="preserve">
<g>
	<path fill="#414042" d="M45.919,20.449c-0.902-1.254-2.901-1.352-3.492-1.352l-29.724-0.021c-1.759,0-3.014,1.115-3.716,3.279
		L3.313,36.024c-0.399-0.563-0.638-1.246-0.638-1.987V13.96c0-1.912,2.333-3.451,4.266-3.451h9.023c1.913,0,4.242,1.527,4.266,3.425
		c0.003,0.274,0.227,0.494,0.5,0.494h16.045c0.276,0,0.5-0.224,0.5-0.5s-0.224-0.5-0.5-0.5H21.186
		c-0.366-2.242-2.974-3.919-5.222-3.919H6.94c-2.435,0-5.266,1.944-5.266,4.451v20.077c0,2.455,1.998,4.453,4.453,4.453h24.575
		c0.276,0,0.5-0.224,0.5-0.5s-0.224-0.5-0.5-0.5H6.127c-0.772,0-1.478-0.264-2.053-0.692l5.85-14.097
		c0.583-1.791,1.466-2.625,2.778-2.625l29.724,0.021c1.22,0,2.271,0.367,2.68,0.936c0.257,0.357,0.289,0.809,0.106,1.354
		l-0.738,1.861c-0.102,0.257,0.023,0.548,0.28,0.649c0.257,0.1,0.547-0.023,0.649-0.28l0.747-1.887
		C46.522,21.628,46.229,20.882,45.919,20.449z"/>
	<path fill="#414042" d="M44.558,26.681c-0.195-0.195-0.512-0.195-0.707,0l-4.581,4.581l-4.58-4.58
		c-0.195-0.195-0.512-0.195-0.707,0s-0.195,0.512,0,0.707l4.58,4.58l-4.579,4.58c-0.195,0.195-0.195,0.512,0,0.707
		c0.098,0.098,0.226,0.146,0.354,0.146s0.256-0.049,0.354-0.146l4.579-4.58l4.581,4.581c0.098,0.098,0.226,0.146,0.354,0.146
		s0.256-0.049,0.354-0.146c0.195-0.195,0.195-0.512,0-0.707l-4.581-4.581l4.581-4.581C44.753,27.192,44.753,26.876,44.558,26.681z"
		/>
</g>
</svg>
