<?xml version="1.0" encoding="utf-8"?>
<!-- Generator: Adobe Illustrator 16.0.0, SVG Export Plug-In . SVG Version: 6.00 Build 0)  -->
<!DOCTYPE svg PUBLIC "-//W3C//DTD SVG 1.1//EN" "http://www.w3.org/Graphics/SVG/1.1/DTD/svg11.dtd">
<svg version="1.1" id="Layer_1" xmlns="http://www.w3.org/2000/svg" xmlns:xlink="http://www.w3.org/1999/xlink" x="0px" y="0px"
	 width="48px" height="48px" viewBox="0 0 48 48" enable-background="new 0 0 48 48" xml:space="preserve">
<g>
	<path fill="#414042" d="M45.877,20.456c-0.9-1.252-2.896-1.35-3.486-1.35l-29.667-0.021c-1.756,0-3.008,1.114-3.707,3.274L3.354,36
		c-0.398-0.562-0.637-1.243-0.637-1.982V13.979c0-1.854,2.34-3.443,4.256-3.443h9.006c1.91,0,4.234,1.524,4.256,3.417
		c0.004,0.273,0.227,0.494,0.5,0.494h16.014c0.277,0,0.5-0.224,0.5-0.5s-0.223-0.5-0.5-0.5H21.191
		c-0.363-2.238-2.968-3.911-5.212-3.911H6.973c-2.431,0-5.256,1.941-5.256,4.443v20.038c0,2.452,1.995,4.446,4.446,4.446h24.524
		c0.277,0,0.5-0.224,0.5-0.5s-0.223-0.5-0.5-0.5H6.163c-0.77,0-1.474-0.263-2.048-0.69l5.838-14.068
		c0.58-1.787,1.461-2.62,2.77-2.62l29.667,0.021c1.217,0,2.268,0.366,2.674,0.934c0.258,0.356,0.289,0.807,0.107,1.35l-0.738,1.858
		c-0.102,0.257,0.023,0.548,0.281,0.649c0.256,0.1,0.547-0.023,0.648-0.28l0.746-1.884C46.48,21.633,46.188,20.888,45.877,20.456z"
		/>
	<path fill="#414042" d="M44.744,29.259l-7.977,5.914l-2.57-2.906c-0.184-0.209-0.5-0.228-0.705-0.043
		c-0.207,0.183-0.227,0.498-0.043,0.705l2.875,3.25c0.098,0.111,0.234,0.169,0.373,0.169c0.105,0,0.209-0.032,0.299-0.099
		l8.344-6.188c0.221-0.164,0.268-0.478,0.104-0.699C45.279,29.142,44.967,29.095,44.744,29.259z"/>
</g>
</svg>
