<?xml version="1.0" encoding="utf-8"?>
<!-- Generator: Adobe Illustrator 16.0.0, SVG Export Plug-In . SVG Version: 6.00 Build 0)  -->
<!DOCTYPE svg PUBLIC "-//W3C//DTD SVG 1.1//EN" "http://www.w3.org/Graphics/SVG/1.1/DTD/svg11.dtd">
<svg version="1.1" id="Layer_1" xmlns="http://www.w3.org/2000/svg" xmlns:xlink="http://www.w3.org/1999/xlink" x="0px" y="0px"
	 width="48px" height="48px" viewBox="0 0 48 48" enable-background="new 0 0 48 48" xml:space="preserve">
<g>
	<path fill="#414042" d="M30.714,37.374H6.093c-0.773,0-1.481-0.264-2.058-0.694l5.862-14.124c0.583-1.794,1.468-2.63,2.784-2.63
		l29.781,0.021c1.222,0,2.276,0.368,2.687,0.938c0.258,0.358,0.289,0.811,0.106,1.356l-0.74,1.864
		c-0.102,0.257,0.023,0.548,0.28,0.649c0.257,0.099,0.547-0.023,0.649-0.28l0.749-1.89c0.371-1.104,0.078-1.852-0.233-2.284
		c-0.903-1.257-2.906-1.354-3.498-1.354l-29.781-0.021c-1.763,0-3.02,1.117-3.722,3.284L3.273,35.906
		c-0.4-0.564-0.641-1.25-0.641-1.993V13.798c0-1.863,2.35-3.459,4.274-3.459h9.042c1.917,0,4.251,1.531,4.273,3.433
		c0.003,0.273,0.227,0.494,0.5,0.494h16.076c0.276,0,0.5-0.224,0.5-0.5s-0.224-0.5-0.5-0.5H21.179
		c-0.364-2.247-2.978-3.927-5.23-3.927H6.907c-2.439,0-5.274,1.948-5.274,4.459v20.115c0,2.46,2.001,4.461,4.461,4.461h24.621
		c0.276,0,0.5-0.224,0.5-0.5S30.99,37.374,30.714,37.374z"/>
	<path fill="#414042" d="M45.913,29.773l-4.261-0.614l-1.899-3.854c-0.084-0.171-0.258-0.279-0.447-0.279c-0.001,0-0.001,0-0.001,0
		c-0.189,0-0.363,0.107-0.448,0.277l-1.912,3.855l-4.26,0.614c-0.188,0.027-0.346,0.159-0.404,0.341
		c-0.059,0.181-0.01,0.38,0.127,0.513l3.095,3.016l-0.631,4.447c-0.027,0.19,0.058,0.379,0.217,0.486
		c0.084,0.056,0.182,0.084,0.278,0.084c0.088,0,0.175-0.022,0.254-0.069l3.699-2.178l3.984,2.07c0.17,0.089,0.379,0.072,0.533-0.045
		s0.227-0.313,0.187-0.502l-0.912-4.309l3.079-3.001c0.137-0.133,0.186-0.332,0.127-0.513
		C46.259,29.933,46.102,29.801,45.913,29.773z M42.217,33.104c-0.123,0.12-0.176,0.294-0.141,0.462l0.75,3.543l-3.291-1.71
		c-0.153-0.081-0.337-0.075-0.484,0.013l-3.044,1.792l0.521-3.671c0.022-0.158-0.032-0.317-0.146-0.429l-2.55-2.485l3.516-0.507
		c0.163-0.023,0.304-0.126,0.377-0.272l1.579-3.185l1.569,3.183c0.072,0.148,0.214,0.251,0.377,0.274l3.518,0.507L42.217,33.104z"/>
</g>
</svg>
