<?xml version="1.0" encoding="utf-8"?>
<!-- Generator: Adobe Illustrator 16.0.0, SVG Export Plug-In . SVG Version: 6.00 Build 0)  -->
<!DOCTYPE svg PUBLIC "-//W3C//DTD SVG 1.1//EN" "http://www.w3.org/Graphics/SVG/1.1/DTD/svg11.dtd">
<svg version="1.1" id="Layer_1" xmlns="http://www.w3.org/2000/svg" xmlns:xlink="http://www.w3.org/1999/xlink" x="0px" y="0px"
	 width="48px" height="48px" viewBox="0 0 48 48" enable-background="new 0 0 48 48" xml:space="preserve">
<g>
	<path fill="#414042" d="M30.717,37.518H6.093c-0.773,0-1.481-0.264-2.058-0.694L9.896,22.7c0.587-1.795,1.473-2.631,2.786-2.631
		l29.781,0.021c1.222,0,2.276,0.368,2.687,0.938c0.258,0.358,0.289,0.811,0.106,1.356l-0.742,1.864
		c-0.102,0.256,0.023,0.547,0.28,0.649c0.256,0.1,0.547-0.023,0.649-0.28l0.751-1.89c0.371-1.104,0.078-1.852-0.233-2.284
		c-0.903-1.257-2.906-1.354-3.498-1.354l-29.781-0.021c-1.759,0-3.017,1.117-3.724,3.284L3.273,36.05
		c-0.4-0.564-0.641-1.25-0.641-1.993V13.941c0-1.863,2.35-3.459,4.274-3.459h9.043c1.916,0,4.25,1.531,4.273,3.433
		c0.004,0.274,0.227,0.494,0.5,0.494h16.076c0.276,0,0.5-0.224,0.5-0.5s-0.224-0.5-0.5-0.5H21.18
		c-0.367-2.246-2.979-3.927-5.23-3.927H6.906c-2.439,0-5.274,1.948-5.274,4.459v20.115c0,2.46,2.001,4.461,4.461,4.461h24.624
		c0.276,0,0.5-0.224,0.5-0.5S30.993,37.518,30.717,37.518z"/>
	<path fill="#414042" d="M46.267,30.685c0.005-0.085,0.014-0.522-0.297-0.853c-0.137-0.145-0.384-0.316-0.786-0.316
		c-0.01,0-0.018,0-0.027,0h-0.933l-0.001-0.672c0-0.325-0.031-0.626-0.096-0.918c-0.23-1.03-0.775-1.878-1.62-2.52
		c-0.59-0.45-1.271-0.731-2.02-0.836l-0.853-0.044c-0.023,0-0.105,0.014-0.129,0.017l-0.175,0.022
		c-0.146,0.019-0.294,0.037-0.444,0.069c-2.002,0.464-3.387,2.21-3.367,4.248c0.002,0.211,0.002,0.423,0.001,0.635h-1.034
		c-0.433,0-0.694,0.18-0.838,0.331c-0.313,0.327-0.308,0.75-0.305,0.807l0.002,6.412c0.006,0.461,0.346,1.146,1.26,1.146h10.486
		c0.479,0,0.757-0.203,0.905-0.373c0.329-0.379,0.275-0.88,0.271-0.88L46.267,30.685z M39.104,25.611
		c0.114-0.024,0.231-0.039,0.35-0.053l0.598-0.036l0.296,0.038c0.587,0.081,1.095,0.291,1.553,0.642
		c0.662,0.502,1.07,1.138,1.25,1.941c0.049,0.219,0.072,0.448,0.072,0.703l0.001,0.671h-6.703c0.001-0.215,0.002-0.432-0.001-0.646
		C36.505,27.309,37.571,25.967,39.104,25.611z M45.242,37.185c-0.007,0.008-0.049,0.029-0.15,0.029H34.605
		c-0.178,0-0.251-0.048-0.26-0.156l-0.002-6.402c0-0.008,0.029-0.109,0.028-0.117c0.004-0.004,0.036-0.021,0.114-0.021h1.533h7.85
		c0.004,0,0.006-0.002,0.01-0.002h1.277c0.009,0,0.019,0,0.027-0.001c0.02,0.002,0.038,0.004,0.058,0.004
		c0.014,0.017,0.027,0.077,0.026,0.137l0.004,6.366C45.276,37.074,45.265,37.16,45.242,37.185z"/>
</g>
</svg>
