<?xml version="1.0" encoding="utf-8"?>
<!-- Generator: Adobe Illustrator 16.0.0, SVG Export Plug-In . SVG Version: 6.00 Build 0)  -->
<!DOCTYPE svg PUBLIC "-//W3C//DTD SVG 1.1//EN" "http://www.w3.org/Graphics/SVG/1.1/DTD/svg11.dtd">
<svg version="1.1" id="Layer_1" xmlns="http://www.w3.org/2000/svg" xmlns:xlink="http://www.w3.org/1999/xlink" x="0px" y="0px"
	 width="48px" height="48px" viewBox="0 0 48 48" enable-background="new 0 0 48 48" xml:space="preserve">
<path fill="#414042" d="M47.266,11.672c0-0.008-0.007-0.014-0.007-0.022c-0.006-0.085-0.031-0.165-0.076-0.235
	c-0.011-0.016-0.023-0.026-0.035-0.04c-0.046-0.057-0.103-0.101-0.172-0.133c-0.011-0.005-0.016-0.017-0.027-0.021L41.065,8.98
	c-0.251-0.097-0.538,0.03-0.634,0.284c-0.098,0.254,0.029,0.538,0.284,0.634l4.758,1.813c-4.831,2.203-8.091,4.966-9.729,8.232
	l-24.141-0.017c-1.731,0-2.967,1.099-3.662,3.229L2.346,36.633c-0.395-0.555-0.627-1.234-0.627-1.966V14.88
	c0-1.833,2.312-3.402,4.204-3.402h8.894c1.887,0,4.182,1.506,4.203,3.376c0.003,0.269,0.222,0.486,0.492,0.486h15.816
	c0.271,0,0.491-0.22,0.491-0.492s-0.22-0.492-0.491-0.492H19.96c-0.357-2.209-2.928-3.863-5.144-3.863H5.923
	c-2.399,0-5.188,1.917-5.188,4.386v19.787c0,2.418,1.968,4.386,4.388,4.386h30.896c2.255,0,3.075-1.676,3.664-3.238l4.888-12.293
	c0.365-1.083,0.077-1.816-0.229-2.242c-0.889-1.236-2.858-1.333-3.441-1.333l-4.023-0.003c1.622-2.896,4.69-5.369,9.146-7.382
	l-1.248,4.591c-0.071,0.261,0.084,0.532,0.346,0.603c0.043,0.012,0.087,0.018,0.129,0.018c0.217,0,0.415-0.144,0.475-0.363
	l1.523-5.602c0.009-0.033,0.005-0.065,0.007-0.099C47.256,11.697,47.266,11.686,47.266,11.672z M40.9,20.931
	c1.202,0,2.24,0.362,2.644,0.923c0.253,0.352,0.283,0.794,0.104,1.33l-4.883,12.275c-0.734,1.952-1.429,2.61-2.746,2.61H5.123
	c-0.76,0-1.462-0.25-2.029-0.673l5.77-13.9c0.577-1.765,1.447-2.587,2.74-2.587l23.725,0.017c-0.065,0.166-0.148,0.326-0.206,0.494
	c-1.614,4.762,0.581,8.678,0.676,8.843c0.09,0.159,0.256,0.247,0.426,0.247c0.083,0,0.168-0.021,0.244-0.065
	c0.235-0.134,0.317-0.434,0.184-0.67c-0.021-0.037-2.07-3.719-0.593-8.054c0.092-0.271,0.223-0.53,0.338-0.794L40.9,20.931z"/>
</svg>
