<?xml version="1.0" encoding="utf-8"?>
<!-- Generator: Adobe Illustrator 16.0.0, SVG Export Plug-In . SVG Version: 6.00 Build 0)  -->
<!DOCTYPE svg PUBLIC "-//W3C//DTD SVG 1.1//EN" "http://www.w3.org/Graphics/SVG/1.1/DTD/svg11.dtd">
<svg version="1.1" id="Layer_1" xmlns="http://www.w3.org/2000/svg" xmlns:xlink="http://www.w3.org/1999/xlink" x="0px" y="0px"
	 width="48px" height="48px" viewBox="0 0 48 48" enable-background="new 0 0 48 48" xml:space="preserve">
<path fill="#414042" d="M46.504,14.411c-2.372-0.312-7.067-0.179-10.829,4.562l-24.261-0.018c-1.735,0-2.974,1.106-3.668,3.25
	L2.141,35.756c-0.394-0.559-0.625-1.24-0.625-1.976V13.882c0-1.843,2.314-3.422,4.209-3.422h8.908c1.887,0,4.185,1.515,4.207,3.396
	c0.003,0.271,0.224,0.488,0.494,0.488h15.84c0.273,0,0.494-0.221,0.494-0.494s-0.221-0.494-0.494-0.494H19.786
	c-0.359-2.222-2.934-3.885-5.153-3.885H5.725c-2.404,0-5.198,1.927-5.198,4.411V33.78c0,2.435,1.972,4.414,4.396,4.414h30.941
	c2.262,0,3.084-1.686,3.674-3.257l4.896-12.366c0.364-1.092,0.074-1.831-0.234-2.259c-0.893-1.24-2.865-1.336-3.447-1.336
	l-3.769-0.003c3.371-3.75,7.328-3.859,9.39-3.583c0.266,0.037,0.518-0.154,0.555-0.425C46.966,14.695,46.775,14.447,46.504,14.411z
	 M40.754,19.965c1.201,0,2.24,0.363,2.646,0.926c0.255,0.354,0.287,0.802,0.107,1.342l-4.89,12.348
	c-0.738,1.963-1.432,2.625-2.752,2.625H4.924c-0.761,0-1.465-0.252-2.033-0.678l5.781-13.981c0.577-1.776,1.448-2.604,2.742-2.604
	l23.533,0.018c-1.277,1.889-2.412,4.383-3.262,7.668l-2.611-4.39c-0.14-0.235-0.444-0.312-0.678-0.172
	c-0.234,0.14-0.312,0.443-0.172,0.678l3.232,5.433c0.027,0.047,0.072,0.075,0.112,0.109c0.022,0.02,0.036,0.046,0.062,0.061
	c0.075,0.045,0.161,0.071,0.251,0.071c0.026,0,0.051-0.002,0.077-0.006c0.016-0.003,0.026-0.017,0.042-0.021
	c0.03-0.008,0.063-0.007,0.092-0.021l5.266-2.485c0.246-0.116,0.353-0.411,0.235-0.658c-0.116-0.247-0.411-0.35-0.658-0.235
	l-4.329,2.043c0.912-3.591,2.168-6.195,3.57-8.074L40.754,19.965z"/>
</svg>
