<?xml version="1.0" encoding="utf-8"?>
<!-- Generator: Adobe Illustrator 16.0.0, SVG Export Plug-In . SVG Version: 6.00 Build 0)  -->
<!DOCTYPE svg PUBLIC "-//W3C//DTD SVG 1.1//EN" "http://www.w3.org/Graphics/SVG/1.1/DTD/svg11.dtd">
<svg version="1.1" id="Layer_1" xmlns="http://www.w3.org/2000/svg" xmlns:xlink="http://www.w3.org/1999/xlink" x="0px" y="0px"
	 width="48px" height="48px" viewBox="0 0 48 48" enable-background="new 0 0 48 48" xml:space="preserve">
<path fill="#414042" d="M40.6,11.819H25.633c-0.362-2.155-2.872-3.766-5.035-3.766h-8.674c-2.312,0-4.987,1.819-5.073,4.184
	C4.911,12.769,3.1,14.379,3.1,16.352v19.294c0,2.371,1.928,4.3,4.299,4.3h29.455c2.287,0,4.146-1.798,4.277-4.052
	c2.119-0.266,3.77-2.057,3.77-4.246V16.12C44.9,13.749,42.971,11.819,40.6,11.819z M11.924,9.054h8.674
	c1.83,0,4.057,1.459,4.08,3.271c0.003,0.274,0.227,0.494,0.5,0.494H40.6c1.82,0,3.301,1.48,3.301,3.301v1.382h-3.656
	c-0.788-1.017-2.008-1.684-3.391-1.684H21.888c-0.363-2.156-2.871-3.767-5.036-3.767H8.18c-0.097,0-0.194,0.008-0.292,0.014
	C8.114,10.417,10.188,9.054,11.924,9.054z M8.18,13.052h8.672c1.831,0,4.06,1.46,4.08,3.272c0.003,0.273,0.226,0.494,0.5,0.494
	h15.422c1.821,0,3.303,1.48,3.303,3.3V21.5H4.1v-5.148C4.1,14.574,6.343,13.052,8.18,13.052z M36.854,38.945H7.398
	c-1.819,0-3.299-1.48-3.299-3.3V22.5h36.057v12.727c-0.033,0.067-0.057,0.141-0.057,0.221c0,0.079,0.022,0.151,0.055,0.218
	C40.144,37.475,38.668,38.945,36.854,38.945z M41.156,34.891V20.118c0-0.572-0.117-1.116-0.321-1.616H43.9v13.146
	C43.9,33.276,42.711,34.625,41.156,34.891z"/>
</svg>
