<?xml version="1.0" encoding="utf-8"?>
<!-- Generator: Adobe Illustrator 16.0.0, SVG Export Plug-In . SVG Version: 6.00 Build 0)  -->
<!DOCTYPE svg PUBLIC "-//W3C//DTD SVG 1.1//EN" "http://www.w3.org/Graphics/SVG/1.1/DTD/svg11.dtd">
<svg version="1.1" id="Layer_1" xmlns="http://www.w3.org/2000/svg" xmlns:xlink="http://www.w3.org/1999/xlink" x="0px" y="0px"
	 width="48px" height="48px" viewBox="0 0 48 48" enable-background="new 0 0 48 48" xml:space="preserve">
<g>
	<path fill="#414042" d="M46.023,19.47c-0.906-1.261-2.916-1.358-3.511-1.358l-29.867-0.024c-1.762,0-3.021,1.12-3.729,3.294
		L3.215,35.118c-0.403-0.566-0.645-1.255-0.645-2.002V12.944c0-1.922,2.346-3.47,4.288-3.47h9.065c1.924,0,4.265,1.536,4.286,3.443
		c0.003,0.273,0.226,0.494,0.5,0.494h16.124c0.276,0,0.5-0.224,0.5-0.5s-0.224-0.5-0.5-0.5H21.167
		c-0.363-2.253-2.984-3.938-5.243-3.938H6.858c-2.445,0-5.288,1.952-5.288,4.47v20.172c0,2.466,2.006,4.473,4.473,4.473h26.493
		c0.276,0,0.5-0.224,0.5-0.5s-0.224-0.5-0.5-0.5H6.042c-0.777,0-1.487-0.266-2.066-0.697l5.878-14.164
		c0.588-1.802,1.475-2.641,2.791-2.641l29.867,0.024c1.228,0,2.287,0.37,2.698,0.942c0.258,0.358,0.289,0.81,0.106,1.355
		l-2.152,5.408c-0.102,0.256,0.023,0.547,0.28,0.649c0.255,0.098,0.547-0.023,0.649-0.28l2.161-5.434
		C46.627,20.65,46.334,19.903,46.023,19.47z"/>
	<path fill="#414042" d="M38.981,26.416c-0.189-0.174-0.482-0.174-0.672,0l-4.734,4.304c-0.205,0.186-0.22,0.502-0.034,0.706
		c0.187,0.206,0.502,0.22,0.706,0.034l3.898-3.544v11.109c0,0.276,0.224,0.5,0.5,0.5s0.5-0.224,0.5-0.5V27.916l3.898,3.544
		c0.096,0.087,0.216,0.13,0.336,0.13c0.136,0,0.271-0.055,0.37-0.164c0.186-0.204,0.171-0.521-0.034-0.706L38.981,26.416z"/>
</g>
</svg>
