<?xml version="1.0" encoding="utf-8"?>
<!-- Generator: Adobe Illustrator 16.0.0, SVG Export Plug-In . SVG Version: 6.00 Build 0)  -->
<!DOCTYPE svg PUBLIC "-//W3C//DTD SVG 1.1//EN" "http://www.w3.org/Graphics/SVG/1.1/DTD/svg11.dtd">
<svg version="1.1" id="Layer_1" xmlns="http://www.w3.org/2000/svg" xmlns:xlink="http://www.w3.org/1999/xlink" x="0px" y="0px"
	 width="48px" height="48px" viewBox="0 0 48 48" enable-background="new 0 0 48 48" xml:space="preserve">
<g>
	<path fill="#414042" d="M46.023,19.469c-0.906-1.261-2.916-1.358-3.511-1.358l-29.867-0.024c-1.761,0-3.02,1.12-3.728,3.294
		L3.215,35.117c-0.403-0.566-0.645-1.255-0.645-2.002V12.943c0-1.922,2.346-3.47,4.288-3.47h9.065c1.924,0,4.265,1.536,4.287,3.443
		c0.003,0.273,0.227,0.494,0.5,0.494h16.123c0.276,0,0.5-0.224,0.5-0.5s-0.224-0.5-0.5-0.5H21.167
		c-0.366-2.253-2.985-3.938-5.244-3.938H6.858c-2.445,0-5.288,1.952-5.288,4.47v20.172c0,2.466,2.006,4.473,4.473,4.473h24.481
		c0.276,0,0.5-0.224,0.5-0.5s-0.224-0.5-0.5-0.5H6.043c-0.776,0-1.487-0.266-2.066-0.697l5.879-14.164
		c0.588-1.802,1.475-2.641,2.79-2.641l29.867,0.024c1.228,0,2.287,0.37,2.698,0.942c0.258,0.358,0.289,0.81,0.105,1.357l-2.829,7.23
		c-0.101,0.258,0.026,0.548,0.283,0.648c0.26,0.102,0.548-0.025,0.648-0.283l2.837-7.254C46.627,20.649,46.334,19.902,46.023,19.469
		z"/>
	<path fill="#414042" d="M43.045,34.352l-3.899,3.544l0.001-11.109c0-0.276-0.224-0.5-0.5-0.5s-0.5,0.224-0.5,0.5l-0.001,11.109
		l-3.898-3.544c-0.204-0.185-0.52-0.172-0.706,0.034c-0.186,0.204-0.171,0.521,0.034,0.706l4.734,4.304
		c0.095,0.087,0.216,0.13,0.336,0.13s0.241-0.043,0.336-0.13l4.735-4.304c0.205-0.186,0.22-0.502,0.034-0.706
		C43.566,34.18,43.249,34.167,43.045,34.352z"/>
</g>
</svg>
