<?xml version="1.0" encoding="utf-8"?>
<!-- Generator: Adobe Illustrator 16.0.0, SVG Export Plug-In . SVG Version: 6.00 Build 0)  -->
<!DOCTYPE svg PUBLIC "-//W3C//DTD SVG 1.1//EN" "http://www.w3.org/Graphics/SVG/1.1/DTD/svg11.dtd">
<svg version="1.1" id="Layer_1" xmlns="http://www.w3.org/2000/svg" xmlns:xlink="http://www.w3.org/1999/xlink" x="0px" y="0px"
	 width="48px" height="48px" viewBox="0 0 48 48" enable-background="new 0 0 48 48" xml:space="preserve">
<g>
	<path fill="#414042" d="M27.147,36.934H5.812c-0.773,0-1.481-0.264-2.058-0.694l5.861-14.12c0.586-1.794,1.471-2.63,2.785-2.63
		l29.783,0.021c1.223,0,2.277,0.368,2.688,0.938c0.257,0.356,0.288,0.808,0.105,1.352l-3.385,8.51
		c-0.102,0.257,0.023,0.547,0.28,0.649c0.256,0.1,0.547-0.023,0.649-0.28l3.394-8.535c0.371-1.101,0.078-1.847-0.232-2.279
		c-0.902-1.257-2.906-1.354-3.499-1.354L12.4,18.489c-1.76,0-3.017,1.117-3.723,3.283L2.992,35.467
		c-0.4-0.564-0.641-1.249-0.641-1.992V13.359c0-1.863,2.35-3.459,4.274-3.459h9.041c1.918,0,4.251,1.531,4.272,3.433
		c0.003,0.273,0.226,0.494,0.5,0.494h16.078c0.276,0,0.5-0.224,0.5-0.5s-0.224-0.5-0.5-0.5H20.896
		C20.532,10.581,17.919,8.9,15.667,8.9H6.625c-2.439,0-5.274,1.948-5.274,4.459v20.115c0,2.459,2.001,4.459,4.461,4.459h21.335
		c0.276,0,0.5-0.224,0.5-0.5S27.424,36.934,27.147,36.934z"/>
	<path fill="#414042" d="M37.877,37.241c-0.276,0-0.5,0.224-0.5,0.5c0,0.189-0.153,0.345-0.343,0.345l-5.052,0.013h-0.001
		c-0.188,0-0.342-0.153-0.343-0.342l-0.006-2.422c0-0.091,0.035-0.177,0.1-0.241s0.15-0.101,0.241-0.101l5.053-0.013h0.001
		c0.188,0,0.343,0.152,0.343,0.341c0.001,0.275,0.225,0.499,0.5,0.499h0.001c0.276-0.001,0.5-0.225,0.499-0.501
		c-0.002-0.739-0.604-1.339-1.343-1.339c-0.001,0-0.002,0-0.003,0l-5.053,0.013c-0.358,0.001-0.695,0.141-0.948,0.395
		s-0.392,0.591-0.391,0.949l0.006,2.423c0.003,0.739,0.605,1.339,1.343,1.339c0.001,0,0.002,0,0.003,0l5.052-0.013
		c0.739-0.002,1.341-0.604,1.341-1.345C38.377,37.465,38.153,37.241,37.877,37.241z"/>
	<path fill="#414042" d="M46.642,35.268c-0.001-0.36-0.142-0.697-0.396-0.95c-0.254-0.253-0.615-0.354-0.948-0.39l-5.055,0.012
		c-0.741,0.005-1.341,0.609-1.338,1.348c0.001,0.275,0.225,0.498,0.5,0.498c0.001,0,0.002,0,0.002,0
		c0.276-0.001,0.499-0.226,0.498-0.502c-0.001-0.188,0.153-0.343,0.342-0.344l5.054-0.012c0.065-0.008,0.176,0.034,0.24,0.099
		c0.065,0.064,0.102,0.151,0.102,0.243l0.007,2.42c0,0.189-0.153,0.344-0.341,0.344l-5.053,0.014c-0.189,0-0.344-0.154-0.345-0.343
		c-0.001-0.275-0.225-0.498-0.5-0.498c-0.001,0-0.001,0-0.002,0c-0.276,0.001-0.499,0.226-0.498,0.502
		c0.003,0.738,0.606,1.339,1.346,1.339l5.054-0.014c0.738-0.002,1.339-0.604,1.339-1.345L46.642,35.268z"/>
	<path fill="#414042" d="M36.064,35.933c-0.273,0-0.497,0.221-0.5,0.495c-0.003,0.275,0.219,0.502,0.495,0.505l5.024,0.053
		c0.001,0,0.003,0,0.005,0c0.273,0,0.497-0.221,0.5-0.495c0.003-0.275-0.219-0.502-0.495-0.505l-5.024-0.053
		C36.068,35.933,36.066,35.933,36.064,35.933z"/>
</g>
</svg>
