<?xml version="1.0" encoding="utf-8"?>
<!-- Generator: Adobe Illustrator 16.0.0, SVG Export Plug-In . SVG Version: 6.00 Build 0)  -->
<!DOCTYPE svg PUBLIC "-//W3C//DTD SVG 1.1//EN" "http://www.w3.org/Graphics/SVG/1.1/DTD/svg11.dtd">
<svg version="1.1" id="Layer_1" xmlns="http://www.w3.org/2000/svg" xmlns:xlink="http://www.w3.org/1999/xlink" x="0px" y="0px"
	 width="48px" height="48px" viewBox="0 0 48 48" enable-background="new 0 0 48 48" xml:space="preserve">
<g>
	<path fill="#414042" d="M45.962,19.195c-0.902-1.257-2.906-1.354-3.499-1.354L12.68,17.819c-1.76,0-3.017,1.117-3.723,3.283
		L3.272,34.797c-0.4-0.564-0.641-1.249-0.641-1.992V12.689c0-1.863,2.35-3.459,4.274-3.459h9.041c1.918,0,4.251,1.531,4.272,3.433
		c0.003,0.273,0.225,0.494,0.5,0.494h16.078c0.276,0,0.5-0.224,0.5-0.5s-0.224-0.5-0.5-0.5H21.176
		C20.813,9.911,18.2,8.23,15.947,8.23H6.906c-2.439,0-5.274,1.948-5.274,4.459v20.115c0,2.459,2.001,4.459,4.461,4.459h23.981
		c0.276,0,0.5-0.224,0.5-0.5s-0.224-0.5-0.5-0.5H6.092c-0.773,0-1.481-0.264-2.058-0.694l5.861-14.12
		c0.586-1.794,1.471-2.63,2.785-2.63l29.783,0.021c1.223,0,2.277,0.368,2.688,0.938c0.257,0.356,0.288,0.808,0.105,1.352
		l-2.397,6.029c-0.102,0.257,0.023,0.547,0.28,0.649c0.257,0.1,0.548-0.023,0.649-0.28l2.406-6.055
		C46.565,20.374,46.272,19.628,45.962,19.195z"/>
	<path fill="#414042" d="M40.512,35.514c0.71-0.814,1.172-1.855,1.22-3.022c0.107-2.706-2.007-4.995-4.713-5.104l-0.197-0.004
		c-2.646,0-4.801,2.072-4.906,4.717c-0.053,1.311,0.408,2.563,1.298,3.526s2.102,1.524,3.412,1.577l0.2,0.004
		c1.116,0,2.132-0.385,2.957-1.01l3.147,3.411c0.099,0.107,0.232,0.161,0.367,0.161c0.121,0,0.243-0.044,0.339-0.133
		c0.203-0.187,0.216-0.503,0.028-0.706L40.512,35.514z M36.666,36.203c-1.045-0.041-2.01-0.487-2.719-1.255
		c-0.708-0.768-1.075-1.765-1.032-2.809c0.083-2.106,1.799-3.757,3.906-3.757l0.157,0.004c2.155,0.086,3.839,1.91,3.753,4.064
		c-0.043,1.066-0.507,2.014-1.226,2.691c-0.003,0.003-0.008,0.004-0.011,0.007c-0.002,0.001-0.002,0.004-0.004,0.005
		c-0.698,0.652-1.634,1.053-2.666,1.053L36.666,36.203z"/>
</g>
</svg>
