<?xml version="1.0" encoding="utf-8"?>
<!-- Generator: Adobe Illustrator 16.0.0, SVG Export Plug-In . SVG Version: 6.00 Build 0)  -->
<!DOCTYPE svg PUBLIC "-//W3C//DTD SVG 1.1//EN" "http://www.w3.org/Graphics/SVG/1.1/DTD/svg11.dtd">
<svg version="1.1" id="Layer_1" xmlns="http://www.w3.org/2000/svg" xmlns:xlink="http://www.w3.org/1999/xlink" x="0px" y="0px"
	 width="48px" height="48px" viewBox="0 0 48 48" enable-background="new 0 0 48 48" xml:space="preserve">
<g>
	<path fill="#414042" d="M45.962,19.195c-0.902-1.257-2.906-1.354-3.499-1.354L12.68,17.819c-1.76,0-3.017,1.117-3.723,3.283
		L3.272,34.797c-0.4-0.564-0.641-1.249-0.641-1.992V12.689c0-1.863,2.35-3.459,4.274-3.459h9.041c1.918,0,4.251,1.531,4.272,3.433
		c0.003,0.273,0.225,0.494,0.5,0.494h16.078c0.276,0,0.5-0.224,0.5-0.5s-0.224-0.5-0.5-0.5H21.176
		C20.813,9.911,18.2,8.23,15.947,8.23H6.906c-2.439,0-5.274,1.948-5.274,4.459v20.115c0,2.459,2.001,4.459,4.461,4.459h22.418
		c0.276,0,0.5-0.224,0.5-0.5s-0.224-0.5-0.5-0.5H6.092c-0.773,0-1.481-0.264-2.058-0.694l5.861-14.12
		c0.586-1.794,1.471-2.63,2.785-2.63l29.783,0.021c1.223,0,2.277,0.368,2.688,0.938c0.257,0.356,0.288,0.808,0.105,1.352
		l-1.438,3.613c-0.102,0.256,0.023,0.547,0.28,0.649c0.255,0.1,0.547-0.023,0.649-0.28l1.446-3.639
		C46.565,20.374,46.272,19.628,45.962,19.195z"/>
	<path fill="#414042" d="M38.011,29.576c-1.616,0-2.931,1.315-2.931,2.932s1.314,2.931,2.931,2.931s2.931-1.314,2.931-2.931
		S39.627,29.576,38.011,29.576z M38.011,34.438c-1.064,0-1.931-0.866-1.931-1.931c0-1.065,0.866-1.932,1.931-1.932
		s1.931,0.866,1.931,1.932C39.941,33.572,39.075,34.438,38.011,34.438z"/>
	<path fill="#414042" d="M44.705,33.813l-1.429-0.825c0-0.224-0.004-0.413-0.007-0.606c-0.003-0.121-0.005-0.244-0.007-0.379
		l1.438-0.83c0.407-0.236,0.548-0.761,0.313-1.169l-1.325-2.292c-0.228-0.396-0.78-0.543-1.17-0.314L41.09,28.22
		c-0.126-0.072-0.235-0.137-0.343-0.2c-0.164-0.097-0.321-0.189-0.519-0.3v-1.639c0-0.472-0.384-0.855-0.855-0.855h-2.649
		c-0.472,0-0.855,0.384-0.855,0.855v1.535c-0.324,0.232-0.657,0.457-0.877,0.603l-1.406-0.812c-0.396-0.227-0.941-0.081-1.169,0.313
		l-1.324,2.293c-0.236,0.408-0.096,0.933,0.315,1.172l1.333,0.756c-0.001,0.414,0,0.841,0.001,1.114l-1.332,0.768
		c-0.407,0.236-0.548,0.761-0.313,1.169l1.325,2.296c0.228,0.393,0.775,0.535,1.169,0.312l1.407-0.813
		c0.323,0.206,0.657,0.395,0.882,0.517v1.61c0,0.473,0.384,0.856,0.856,0.856h2.648c0.473,0,0.856-0.384,0.856-0.856v-1.606
		c0.21-0.113,0.52-0.291,0.88-0.528l1.404,0.811c0.396,0.226,0.942,0.077,1.167-0.314l1.325-2.292
		c0.115-0.198,0.146-0.429,0.086-0.65S44.902,33.926,44.705,33.813z M42.898,36.649l-1.549-0.894
		c-0.167-0.097-0.377-0.088-0.536,0.022c-0.709,0.494-1.282,0.771-1.288,0.773c-0.173,0.083-0.284,0.259-0.284,0.451v1.767H36.88
		v-1.767c0-0.188-0.104-0.359-0.271-0.444c-0.007-0.004-0.72-0.371-1.271-0.746c-0.051-0.042-0.11-0.074-0.175-0.094
		c-0.133-0.04-0.273-0.023-0.395,0.045l-1.544,0.913l-1.19-2.061l1.458-0.84c0.155-0.09,0.251-0.257,0.25-0.437
		c0,0-0.006-0.938,0-1.686c0.001-0.182-0.096-0.35-0.253-0.438l-1.46-0.828l1.18-2.043l1.549,0.894
		c0.161,0.095,0.363,0.091,0.521-0.012c0,0,0.759-0.488,1.388-0.955c0.127-0.094,0.202-0.243,0.202-0.401v-1.645h2.36v1.788
		c0,0.183,0.1,0.351,0.26,0.438c0.319,0.175,0.529,0.299,0.751,0.429c0.176,0.104,0.358,0.211,0.551,0.315
		c0.161,0.12,0.376,0.135,0.551,0.033l1.542-0.912l1.192,2.061l-1.563,0.903c-0.154,0.089-0.25,0.254-0.25,0.432
		c0,0.266,0.004,0.479,0.008,0.688c0.005,0.261,0.01,0.515,0.005,0.865c-0.001,0.08,0.019,0.162,0.055,0.234
		c0.044,0.087,0.112,0.16,0.197,0.209l1.554,0.896L42.898,36.649z"/>
</g>
</svg>
