<?xml version="1.0" encoding="utf-8"?>
<!-- Generator: Adobe Illustrator 16.0.0, SVG Export Plug-In . SVG Version: 6.00 Build 0)  -->
<!DOCTYPE svg PUBLIC "-//W3C//DTD SVG 1.1//EN" "http://www.w3.org/Graphics/SVG/1.1/DTD/svg11.dtd">
<svg version="1.1" id="Layer_1" xmlns="http://www.w3.org/2000/svg" xmlns:xlink="http://www.w3.org/1999/xlink" x="0px" y="0px"
	 width="48px" height="48px" viewBox="0 0 48 48" enable-background="new 0 0 48 48" xml:space="preserve">
<g>
	<path fill="#414042" d="M46.023,18.908c-0.906-1.261-2.916-1.358-3.511-1.358l-29.867-0.024c-1.762,0-3.021,1.12-3.729,3.294
		L3.215,34.557C2.812,33.99,2.57,33.302,2.57,32.555V12.383c0-1.922,2.346-3.47,4.288-3.47h9.065c1.924,0,4.265,1.536,4.285,3.443
		c0.003,0.273,0.226,0.494,0.5,0.494h16.125c0.276,0,0.5-0.224,0.5-0.5s-0.224-0.5-0.5-0.5H21.167
		c-0.365-2.253-2.983-3.938-5.243-3.938H6.858c-2.445,0-5.288,1.952-5.288,4.47v20.172c0,2.466,2.006,4.473,4.473,4.473h24.367
		c0.276,0,0.5-0.224,0.5-0.5s-0.224-0.5-0.5-0.5H6.042c-0.777,0-1.487-0.266-2.066-0.697l5.877-14.164
		c0.588-1.802,1.476-2.641,2.792-2.641l29.867,0.024c1.228,0,2.287,0.37,2.698,0.942c0.258,0.358,0.289,0.81,0.106,1.355
		l-1.75,4.396c-0.102,0.256,0.023,0.547,0.28,0.649c0.255,0.099,0.547-0.022,0.649-0.28l1.759-4.422
		C46.627,20.089,46.334,19.342,46.023,18.908z"/>
	<path fill="#414042" d="M44.833,31.105c-0.026-0.167-0.053-0.334-0.093-0.496c-0.227-0.902-0.683-1.631-1.354-2.165
		c-0.444-0.353-0.931-0.574-1.448-0.659c-0.423-0.067-0.862-0.077-1.311-0.028c-0.466,0.052-0.897,0.191-1.284,0.415
		c-0.38,0.222-0.688,0.508-0.934,0.769c-0.343-0.367-0.67-0.628-1.025-0.818c-0.4-0.216-0.836-0.34-1.336-0.379
		c-0.411-0.03-0.781-0.019-1.135,0.036c-0.617,0.099-1.179,0.376-1.67,0.826c-0.659,0.604-1.079,1.409-1.248,2.391l-0.061,1.25
		c0,0.042,0.008,0.089,0.02,0.133c0.05,0.468,0.171,0.941,0.366,1.443c0,0.001,0,0.002,0,0.003c0.001,0.002,0.002,0.004,0.002,0.006
		c0.002,0.004,0.003,0.007,0.004,0.011c0.001,0.001,0.002,0.002,0.002,0.004c0.183,0.514,0.463,0.941,0.468,0.949l0.104,0.169
		c0.078,0.128,0.157,0.256,0.241,0.382c0.58,0.854,1.309,1.664,2.292,2.551c0.757,0.683,1.618,1.362,2.628,2.075
		c0.107,0.076,0.227,0.115,0.346,0.115c0.117,0,0.235-0.037,0.346-0.112c0.644-0.456,1.212-0.886,1.739-1.313
		c0.936-0.764,1.667-1.457,2.303-2.181c0.504-0.575,0.908-1.131,1.236-1.699c0.032-0.057,0.318-0.559,0.452-0.918
		c0-0.001,0.002-0.002,0.002-0.003c0.17-0.434,0.281-0.831,0.343-1.218l0.056-1.213c0-0.047-0.007-0.082-0.02-0.127L44.833,31.105z
		 M42.043,35.82c-0.598,0.682-1.291,1.338-2.183,2.065c-0.445,0.361-0.924,0.727-1.451,1.105c-0.88-0.631-1.637-1.233-2.306-1.837
		c-0.923-0.832-1.601-1.585-2.133-2.369c-0.076-0.112-0.146-0.229-0.218-0.344l-0.116-0.188c-0.002-0.004-0.232-0.356-0.373-0.759
		c-0.001-0.003-0.003-0.005-0.004-0.007c-0.002-0.004-0.001-0.007-0.002-0.01c-0.172-0.441-0.274-0.849-0.313-1.239
		c-0.001-0.016-0.005-0.037-0.011-0.06l-0.005-0.673l0.052-0.338c0.132-0.771,0.439-1.369,0.938-1.826
		c0.349-0.319,0.726-0.508,1.149-0.575c0.273-0.044,0.571-0.053,0.903-0.027c0.355,0.028,0.662,0.114,0.939,0.264
		c0.267,0.143,0.52,0.349,0.796,0.649l0.329,0.37c0.094,0.106,0.262,0.131,0.404,0.131c0.147-0.027,0.316-0.101,0.412-0.209
		l0.148-0.172c0.212-0.237,0.499-0.536,0.844-0.737c0.269-0.155,0.561-0.248,0.893-0.285c0.355-0.04,0.706-0.031,1.041,0.021
		c0.35,0.058,0.672,0.206,0.985,0.455c0.503,0.4,0.832,0.932,1.006,1.624c0.033,0.133,0.054,0.271,0.075,0.407l0.032,0.2
		c0.001,0.008,0.004,0.021,0.008,0.035l0.005,0.676l-0.05,0.318c-0.049,0.313-0.143,0.642-0.286,1.007
		c-0.001,0.003,0,0.005-0.001,0.008c-0.001,0.001-0.002,0.002-0.003,0.004c-0.086,0.236-0.308,0.64-0.386,0.775
		C42.87,34.793,42.504,35.296,42.043,35.82z"/>
</g>
</svg>
