<?xml version="1.0" encoding="utf-8"?>
<!-- Generator: Adobe Illustrator 16.0.0, SVG Export Plug-In . SVG Version: 6.00 Build 0)  -->
<!DOCTYPE svg PUBLIC "-//W3C//DTD SVG 1.1//EN" "http://www.w3.org/Graphics/SVG/1.1/DTD/svg11.dtd">
<svg version="1.1" id="Layer_1" xmlns="http://www.w3.org/2000/svg" xmlns:xlink="http://www.w3.org/1999/xlink" x="0px" y="0px"
	 width="48px" height="48px" viewBox="0 0 48 48" enable-background="new 0 0 48 48" xml:space="preserve">
<g>
	<path fill="#414042" d="M46.022,19.554c-0.906-1.261-2.916-1.358-3.511-1.358l-29.865-0.024c-1.762,0-3.021,1.12-3.729,3.294
		L3.216,35.202c-0.403-0.566-0.645-1.255-0.645-2.002V13.028c0-1.922,2.345-3.47,4.287-3.47h9.066c1.924,0,4.265,1.536,4.285,3.443
		c0.003,0.273,0.226,0.494,0.5,0.494h16.123c0.276,0,0.5-0.224,0.5-0.5s-0.224-0.5-0.5-0.5H21.167
		c-0.364-2.253-2.983-3.938-5.243-3.938H6.858c-2.445,0-5.287,1.952-5.287,4.47V33.2c0,2.466,2.006,4.473,4.473,4.473h23.326
		c0.276,0,0.5-0.224,0.5-0.5s-0.224-0.5-0.5-0.5H6.043c-0.777,0-1.487-0.266-2.066-0.697l5.877-14.164
		c0.588-1.802,1.476-2.641,2.792-2.641l29.865,0.024c1.228,0,2.287,0.37,2.698,0.942c0.258,0.358,0.289,0.81,0.106,1.355
		l-1.748,4.396c-0.102,0.257,0.023,0.547,0.28,0.649c0.256,0.098,0.547-0.023,0.649-0.28l1.757-4.422
		C46.626,20.734,46.333,19.987,46.022,19.554z"/>
	<path fill="#414042" d="M45.393,32.842c-0.705,0-1.122,0.375-1.564,0.771l-0.638,0.575H42.51v-0.723c0-0.276-0.224-0.5-0.5-0.5
		h-0.606c0.554-0.402,0.919-1.05,0.919-1.785c0-1.219-0.992-2.211-2.211-2.211S37.9,29.962,37.9,31.181
		c0,0.735,0.365,1.383,0.919,1.785h-1.918c0.554-0.402,0.919-1.05,0.919-1.785c0-1.219-0.992-2.211-2.211-2.211
		s-2.211,0.992-2.211,2.211c0,0.735,0.365,1.383,0.919,1.785h-0.72c-0.276,0-0.5,0.224-0.5,0.5v5.351c0,0.276,0.224,0.5,0.5,0.5
		h8.412c0.276,0,0.5-0.224,0.5-0.5v-0.723h0.565l0.64,0.58c0.007,0.006,0.071,0.06,0.078,0.064c0.536,0.438,0.86,0.702,1.6,0.702
		c0.276,0,0.5-0.224,0.5-0.5v-5.599C45.893,33.065,45.669,32.842,45.393,32.842z M40.111,29.97c0.668,0,1.211,0.543,1.211,1.211
		c0,0.667-0.543,1.21-1.211,1.21s-1.211-0.543-1.211-1.21C38.9,30.513,39.443,29.97,40.111,29.97z M35.609,29.97
		c0.668,0,1.211,0.543,1.211,1.211c0,0.667-0.543,1.21-1.211,1.21s-1.211-0.543-1.211-1.21C34.398,30.513,34.941,29.97,35.609,29.97
		z M41.51,38.316h-7.412v-4.351h7.412V38.316z M42.51,35.188h0.338v1.905H42.51V35.188z M44.893,38.319
		c-0.125-0.076-0.273-0.196-0.506-0.386l-0.539-0.488v-2.503l0.649-0.585c0.158-0.142,0.283-0.252,0.396-0.334V38.319z"/>
</g>
</svg>
