<?xml version="1.0" encoding="utf-8"?>
<!-- Generator: Adobe Illustrator 16.0.0, SVG Export Plug-In . SVG Version: 6.00 Build 0)  -->
<!DOCTYPE svg PUBLIC "-//W3C//DTD SVG 1.1//EN" "http://www.w3.org/Graphics/SVG/1.1/DTD/svg11.dtd">
<svg version="1.1" id="Layer_1" xmlns="http://www.w3.org/2000/svg" xmlns:xlink="http://www.w3.org/1999/xlink" x="0px" y="0px"
	 width="48px" height="48px" viewBox="0 0 48 48" enable-background="new 0 0 48 48" xml:space="preserve">
<g>
	<path fill="#414042" d="M46.023,19.706c-0.906-1.261-2.916-1.358-3.511-1.358l-29.867-0.024c-1.761,0-3.02,1.12-3.728,3.294
		L3.215,35.354C2.812,34.788,2.57,34.1,2.57,33.353V13.181c0-1.922,2.346-3.47,4.289-3.47h9.064c1.924,0,4.265,1.536,4.287,3.443
		c0.003,0.273,0.227,0.494,0.5,0.494h16.123c0.276,0,0.5-0.224,0.5-0.5s-0.224-0.5-0.5-0.5H21.167
		c-0.366-2.253-2.985-3.938-5.244-3.938H6.859c-2.446,0-5.289,1.952-5.289,4.47v20.172c0,2.466,2.006,4.473,4.473,4.473h25.619
		c0.276,0,0.5-0.224,0.5-0.5s-0.224-0.5-0.5-0.5H6.042c-0.777,0-1.487-0.266-2.066-0.697l5.879-14.164
		c0.588-1.802,1.475-2.641,2.79-2.641l29.867,0.024c1.228,0,2.287,0.37,2.698,0.942c0.258,0.358,0.289,0.81,0.106,1.355
		l-1.748,4.396c-0.102,0.257,0.023,0.547,0.28,0.649c0.255,0.099,0.547-0.022,0.649-0.28l1.757-4.422
		C46.627,20.887,46.334,20.14,46.023,19.706z"/>
	<path fill="#414042" d="M42.132,30.619h-7.711c-0.276,0-0.5,0.224-0.5,0.5v7.291c0,0.484,0.395,0.879,0.879,0.879h6.953
		c0.484,0,0.879-0.395,0.879-0.879v-7.291C42.632,30.843,42.408,30.619,42.132,30.619z M41.632,38.289h-6.711v-6.67h1.561v5.179
		c0,0.276,0.224,0.5,0.5,0.5s0.5-0.224,0.5-0.5v-5.179h1.57v5.104c0,0.276,0.224,0.5,0.5,0.5s0.5-0.224,0.5-0.5v-5.104h1.58V38.289z
		"/>
	<path fill="#414042" d="M42.696,28.846h-1.801v-1.116c0-0.467-0.38-0.847-0.848-0.847h-3.465c-0.468,0-0.848,0.38-0.848,0.847
		v1.116h-1.881c-0.276,0-0.5,0.224-0.5,0.5s0.224,0.5,0.5,0.5h8.842c0.276,0,0.5-0.224,0.5-0.5S42.973,28.846,42.696,28.846z
		 M36.735,27.883h3.16v0.963h-3.16V27.883z"/>
</g>
</svg>
