<?xml version="1.0" encoding="utf-8"?>
<!-- Generator: Adobe Illustrator 16.0.0, SVG Export Plug-In . SVG Version: 6.00 Build 0)  -->
<!DOCTYPE svg PUBLIC "-//W3C//DTD SVG 1.1//EN" "http://www.w3.org/Graphics/SVG/1.1/DTD/svg11.dtd">
<svg version="1.1" id="Layer_1" xmlns="http://www.w3.org/2000/svg" xmlns:xlink="http://www.w3.org/1999/xlink" x="0px" y="0px"
	 width="48px" height="48px" viewBox="0 0 48 48" enable-background="new 0 0 48 48" xml:space="preserve">
<g>
	<path fill="#414042" d="M46.023,18.115c-0.906-1.261-2.916-1.358-3.511-1.358l-29.867-0.024c-1.761,0-3.02,1.12-3.728,3.294
		L3.215,33.764c-0.403-0.566-0.645-1.255-0.645-2.002V11.59c0-1.922,2.346-3.47,4.289-3.47h9.064c1.924,0,4.265,1.536,4.287,3.443
		c0.003,0.273,0.227,0.494,0.5,0.494h16.123c0.276,0,0.5-0.224,0.5-0.5s-0.224-0.5-0.5-0.5H21.167
		c-0.366-2.253-2.985-3.938-5.244-3.938H6.859c-2.446,0-5.289,1.952-5.289,4.47v20.172c0,2.466,2.006,4.473,4.473,4.473h25.619
		c0.276,0,0.5-0.224,0.5-0.5s-0.224-0.5-0.5-0.5H6.042c-0.777,0-1.487-0.266-2.066-0.697l5.879-14.164
		c0.588-1.802,1.475-2.641,2.79-2.641l29.867,0.024c1.228,0,2.287,0.37,2.698,0.942c0.258,0.358,0.289,0.81,0.106,1.355
		l-1.748,4.396c-0.102,0.257,0.023,0.547,0.28,0.649c0.255,0.1,0.547-0.023,0.649-0.28l1.757-4.422
		C46.627,19.296,46.334,18.549,46.023,18.115z"/>
	<path fill="#414042" d="M42.653,27.445h-7.066c-0.276,0-0.5,0.224-0.5,0.5v12.434c0,0.218,0.141,0.41,0.348,0.477
		c0.21,0.065,0.435-0.01,0.56-0.187l3.126-4.4l3.126,4.4c0.095,0.134,0.248,0.21,0.407,0.21c0.051,0,0.102-0.008,0.152-0.023
		c0.207-0.066,0.348-0.259,0.348-0.477V27.945C43.153,27.669,42.93,27.445,42.653,27.445z M42.153,38.812l-2.626-3.696
		c-0.094-0.132-0.245-0.21-0.407-0.21s-0.313,0.078-0.407,0.21l-2.626,3.696V28.445h6.066V38.812z"/>
</g>
</svg>
