<?xml version="1.0" encoding="utf-8"?>
<!-- Generator: Adobe Illustrator 16.0.0, SVG Export Plug-In . SVG Version: 6.00 Build 0)  -->
<!DOCTYPE svg PUBLIC "-//W3C//DTD SVG 1.1//EN" "http://www.w3.org/Graphics/SVG/1.1/DTD/svg11.dtd">
<svg version="1.1" id="Layer_1" xmlns="http://www.w3.org/2000/svg" xmlns:xlink="http://www.w3.org/1999/xlink" x="0px" y="0px"
	 width="48px" height="48px" viewBox="0 0 48 48" enable-background="new 0 0 48 48" xml:space="preserve">
<g>
	<path fill="#414042" d="M30.409,36.026H6.042c-0.777,0-1.487-0.266-2.066-0.697l5.878-14.164c0.588-1.802,1.475-2.641,2.791-2.641
		l29.867,0.024c1.228,0,2.287,0.37,2.698,0.942c0.258,0.358,0.289,0.81,0.106,1.355l-0.859,2.161
		c-0.102,0.257,0.023,0.547,0.28,0.649c0.256,0.1,0.547-0.023,0.649-0.28l0.868-2.187c0.371-1.103,0.078-1.85-0.232-2.283
		c-0.906-1.261-2.916-1.358-3.511-1.358l-29.867-0.024c-1.762,0-3.021,1.12-3.729,3.294L3.214,34.556
		c-0.403-0.566-0.645-1.255-0.645-2.002V12.382c0-1.922,2.346-3.47,4.288-3.47h9.065c1.924,0,4.265,1.536,4.286,3.443
		c0.003,0.273,0.226,0.494,0.5,0.494h16.124c0.276,0,0.5-0.224,0.5-0.5s-0.224-0.5-0.5-0.5H21.165
		c-0.363-2.253-2.984-3.938-5.243-3.938H6.857c-2.445,0-5.288,1.952-5.288,4.47v20.172c0,2.466,2.006,4.473,4.473,4.473h24.368
		c0.276,0,0.5-0.224,0.5-0.5S30.686,36.026,30.409,36.026z"/>
	<path fill="#414042" d="M43.936,25.84c-0.461,0-0.875,0.177-1.198,0.513c-0.411,0.427-0.603,0.642-0.603,0.642l-0.861,0.919
		c-0.001,0.001-0.002,0.001-0.003,0.002L34.3,35.337c-0.054,0.058-0.087,0.125-0.109,0.196c-0.001,0.006-0.007,0.01-0.009,0.016
		l-1.061,3.907c-0.051,0.185,0.01,0.382,0.154,0.508c0.093,0.081,0.21,0.123,0.328,0.123c0.066,0,0.133-0.013,0.196-0.04l3.59-1.529
		c0.001,0,0.001,0,0.001,0l0.001-0.001c0.002-0.001,0.003-0.003,0.005-0.004c0.06-0.026,0.115-0.063,0.163-0.113l6.973-7.422
		c0,0,0,0,0-0.001c0.001,0,0.001,0,0.001,0l0.86-0.919c0,0,0.178-0.185,0.603-0.643c0.471-0.506,0.564-1.203,0.256-1.914
		C45.84,26.554,44.844,25.84,43.936,25.84z M34.929,36.614l1.365,1.282l-1.938,0.826L34.929,36.614z M37.173,37.351l-1.803-1.692
		l6.286-6.694l1.805,1.693L37.173,37.351z M45.264,28.734c-0.414,0.446-0.588,0.627-0.596,0.635l-0.522,0.559l-1.803-1.693
		l0.531-0.566c0.004-0.005,0.187-0.209,0.584-0.622c0.497-0.514,1.535,0.068,1.877,0.854C45.483,28.243,45.46,28.523,45.264,28.734z
		"/>
</g>
</svg>
