<?xml version="1.0" encoding="utf-8"?>
<!-- Generator: Adobe Illustrator 16.0.0, SVG Export Plug-In . SVG Version: 6.00 Build 0)  -->
<!DOCTYPE svg PUBLIC "-//W3C//DTD SVG 1.1//EN" "http://www.w3.org/Graphics/SVG/1.1/DTD/svg11.dtd">
<svg version="1.1" id="Layer_1" xmlns="http://www.w3.org/2000/svg" xmlns:xlink="http://www.w3.org/1999/xlink" x="0px" y="0px"
	 width="48px" height="48px" viewBox="0 0 48 48" enable-background="new 0 0 48 48" xml:space="preserve">
<g>
	<path fill="#414042" d="M46.023,19.123c-0.906-1.261-2.916-1.358-3.511-1.358L12.646,17.74c-1.762,0-3.021,1.12-3.729,3.294
		L3.215,34.771C2.812,34.205,2.57,33.517,2.57,32.77V12.598c0-1.922,2.346-3.47,4.288-3.47h9.065c1.924,0,4.265,1.536,4.286,3.443
		c0.003,0.273,0.226,0.494,0.5,0.494h16.124c0.276,0,0.5-0.224,0.5-0.5s-0.224-0.5-0.5-0.5H21.167
		c-0.363-2.253-2.984-3.938-5.243-3.938H6.858c-2.445,0-5.288,1.952-5.288,4.47V32.77c0,2.466,2.006,4.473,4.473,4.473h24.41
		c0.276,0,0.5-0.224,0.5-0.5s-0.224-0.5-0.5-0.5H6.042c-0.777,0-1.487-0.266-2.066-0.697l5.878-14.164
		c0.588-1.802,1.475-2.641,2.791-2.641l29.867,0.024c1.228,0,2.287,0.37,2.698,0.942c0.258,0.358,0.289,0.81,0.107,1.353
		l-2.496,6.174c-0.104,0.256,0.021,0.548,0.276,0.651c0.255,0.101,0.547-0.021,0.651-0.276l2.506-6.202
		C46.627,20.304,46.334,19.557,46.023,19.123z"/>
	<path fill="#414042" d="M43.771,33.945c-0.276,0-0.5,0.224-0.5,0.5c0,2.44-1.985,4.426-4.426,4.426s-4.426-1.985-4.426-4.426
		c0-2.349,1.844-4.257,4.157-4.398l-1.039,1.824c-0.137,0.239-0.053,0.545,0.188,0.682c0.078,0.044,0.163,0.065,0.247,0.065
		c0.174,0,0.343-0.091,0.435-0.253l1.456-2.558c0.001-0.002,0.002-0.004,0.003-0.006l0.058-0.101
		c0.065-0.115,0.083-0.252,0.048-0.38s-0.12-0.236-0.235-0.302l-2.665-1.516c-0.24-0.138-0.546-0.053-0.682,0.188
		c-0.137,0.24-0.053,0.545,0.188,0.682l1.298,0.738c-2.529,0.459-4.455,2.674-4.455,5.334c0,2.992,2.434,5.426,5.426,5.426
		s5.426-2.434,5.426-5.426C44.271,34.169,44.047,33.945,43.771,33.945z"/>
</g>
</svg>
