<?xml version="1.0" encoding="utf-8"?>
<!-- Generator: Adobe Illustrator 16.0.0, SVG Export Plug-In . SVG Version: 6.00 Build 0)  -->
<!DOCTYPE svg PUBLIC "-//W3C//DTD SVG 1.1//EN" "http://www.w3.org/Graphics/SVG/1.1/DTD/svg11.dtd">
<svg version="1.1" id="Layer_1" xmlns="http://www.w3.org/2000/svg" xmlns:xlink="http://www.w3.org/1999/xlink" x="0px" y="0px"
	 width="48px" height="48px" viewBox="0 0 48 48" enable-background="new 0 0 48 48" xml:space="preserve">
<g>
	<path fill="#414042" d="M46.023,18.251c-0.906-1.261-2.916-1.358-3.511-1.358l-29.867-0.024c-1.762,0-3.021,1.12-3.729,3.294
		L3.215,33.899c-0.403-0.566-0.645-1.255-0.645-2.002V11.726c0-1.922,2.346-3.47,4.288-3.47h9.065c1.924,0,4.265,1.536,4.286,3.443
		c0.003,0.273,0.226,0.494,0.5,0.494h16.124c0.276,0,0.5-0.224,0.5-0.5s-0.224-0.5-0.5-0.5H21.167
		c-0.363-2.253-2.984-3.938-5.243-3.938H6.858c-2.445,0-5.288,1.952-5.288,4.47v20.172c0,2.466,2.006,4.473,4.473,4.473h23.327
		c0.276,0,0.5-0.224,0.5-0.5s-0.224-0.5-0.5-0.5H6.042c-0.777,0-1.487-0.266-2.066-0.697l5.878-14.164
		c0.588-1.802,1.475-2.641,2.791-2.641l29.867,0.024c1.228,0,2.287,0.37,2.698,0.942c0.258,0.358,0.289,0.81,0.106,1.355
		l-1.75,4.396c-0.102,0.256,0.023,0.547,0.28,0.649c0.255,0.1,0.547-0.023,0.649-0.28l1.759-4.422
		C46.627,19.432,46.334,18.685,46.023,18.251z"/>
	<path fill="#414042" d="M43.619,28.321l-8.814-0.714c-0.128-0.007-0.275,0.035-0.379,0.131c-0.103,0.095-0.161,0.228-0.161,0.367
		v4.284v4.057c-0.272-0.15-0.581-0.243-0.914-0.243c-1.056,0-1.914,0.858-1.914,1.913c0,1.056,0.858,1.914,1.914,1.914
		s1.914-0.858,1.914-1.914c0-0.058-0.012-0.111-0.017-0.168c0.005-0.028,0.017-0.054,0.017-0.084v-4.933l7.814,0.633v3.596
		c-0.272-0.15-0.581-0.243-0.914-0.243c-1.055,0-1.912,0.858-1.912,1.914c0,1.055,0.857,1.913,1.912,1.913
		c1.056,0,1.914-0.858,1.914-1.913c0-0.058-0.012-0.111-0.017-0.168c0.005-0.028,0.017-0.054,0.017-0.084v-5.476v-4.284
		C44.079,28.559,43.879,28.342,43.619,28.321z M33.351,39.03c-0.504,0-0.914-0.41-0.914-0.914s0.41-0.913,0.914-0.913
		s0.914,0.409,0.914,0.913S33.854,39.03,33.351,39.03z M35.265,28.647l7.814,0.633v3.281l-7.814-0.633V28.647z M42.165,39.744
		c-0.503,0-0.912-0.409-0.912-0.913s0.409-0.914,0.912-0.914c0.504,0,0.914,0.41,0.914,0.914S42.669,39.744,42.165,39.744z"/>
</g>
</svg>
