<?xml version="1.0" encoding="utf-8"?>
<!-- Generator: Adobe Illustrator 16.0.0, SVG Export Plug-In . SVG Version: 6.00 Build 0)  -->
<!DOCTYPE svg PUBLIC "-//W3C//DTD SVG 1.1//EN" "http://www.w3.org/Graphics/SVG/1.1/DTD/svg11.dtd">
<svg version="1.1" id="Layer_1" xmlns="http://www.w3.org/2000/svg" xmlns:xlink="http://www.w3.org/1999/xlink" x="0px" y="0px"
	 width="48px" height="48px" viewBox="0 0 48 48" enable-background="new 0 0 48 48" xml:space="preserve">
<path fill="#414042" d="M46.023,20.438c-0.906-1.261-2.916-1.358-3.511-1.358l-13.991-0.011c-0.011-0.001-0.02-0.006-0.03-0.006
	h-3.625c-0.005,0-0.01,0.003-0.016,0.003l-12.205-0.01c-1.762,0-3.021,1.12-3.729,3.294L3.212,36.094
	c-0.404-0.568-0.642-1.262-0.642-2.01V13.912c0-1.922,2.346-3.47,4.288-3.47h9.065c1.924,0,4.265,1.536,4.285,3.443
	c0.003,0.273,0.226,0.494,0.5,0.494h16.125c0.276,0,0.5-0.224,0.5-0.5s-0.224-0.5-0.5-0.5H21.167
	c-0.365-2.253-2.983-3.938-5.243-3.938H6.858c-2.445,0-5.288,1.952-5.288,4.47v20.172c0,2.466,2.006,4.473,4.473,4.473h31.496
	c2.3,0,3.133-1.708,3.73-3.301l4.987-12.535C46.627,21.618,46.334,20.871,46.023,20.438z M25.366,24.449v-4.384l2.625,0.002v4.382
	H25.366z M3.972,36.87l5.882-14.175c0.588-1.802,1.476-2.641,2.792-2.641l11.72,0.01v4.885c0,0.276,0.224,0.5,0.5,0.5h1.285v2.118
	h-1.473c-0.276,0-0.5,0.224-0.5,0.5s0.224,0.5,0.5,0.5h1.473v2.479h-1.473c-0.276,0-0.5,0.224-0.5,0.5s0.224,0.5,0.5,0.5h1.473
	v2.479h-1.473c-0.276,0-0.5,0.224-0.5,0.5s0.224,0.5,0.5,0.5h1.473v2.03H6.042C5.267,37.557,4.55,37.302,3.972,36.87z
	 M45.317,22.377l-4.981,12.519c-0.747,1.989-1.453,2.661-2.798,2.661H27.151v-2.03h1.527c0.276,0,0.5-0.224,0.5-0.5
	s-0.224-0.5-0.5-0.5h-1.527v-2.479h1.527c0.276,0,0.5-0.224,0.5-0.5s-0.224-0.5-0.5-0.5h-1.527v-2.479h1.527
	c0.276,0,0.5-0.224,0.5-0.5s-0.224-0.5-0.5-0.5h-1.527v-2.118h1.34c0.276,0,0.5-0.224,0.5-0.5v-4.881l13.521,0.011
	c1.228,0,2.287,0.37,2.698,0.942C45.469,21.38,45.5,21.831,45.317,22.377z"/>
</svg>
