<?xml version="1.0" encoding="utf-8"?>
<!-- Generator: Adobe Illustrator 16.0.0, SVG Export Plug-In . SVG Version: 6.00 Build 0)  -->
<!DOCTYPE svg PUBLIC "-//W3C//DTD SVG 1.1//EN" "http://www.w3.org/Graphics/SVG/1.1/DTD/svg11.dtd">
<svg version="1.1" id="Layer_1" xmlns="http://www.w3.org/2000/svg" xmlns:xlink="http://www.w3.org/1999/xlink" x="0px" y="0px"
	 width="48px" height="48px" viewBox="0 0 48 48" enable-background="new 0 0 48 48" xml:space="preserve">
<g>
	<path fill="#414042" d="M46.023,18.985c-0.906-1.261-2.916-1.358-3.511-1.358l-29.867-0.024c-1.761,0-3.02,1.12-3.728,3.294
		L3.215,34.634c-0.403-0.566-0.645-1.255-0.645-2.002V12.46c0-1.922,2.346-3.47,4.289-3.47h9.064c1.924,0,4.265,1.536,4.287,3.443
		c0.003,0.273,0.227,0.494,0.5,0.494h16.123c0.276,0,0.5-0.224,0.5-0.5s-0.224-0.5-0.5-0.5H21.167
		c-0.366-2.253-2.985-3.938-5.244-3.938H6.859c-2.446,0-5.289,1.952-5.289,4.47v20.172c0,2.466,2.006,4.473,4.473,4.473h24.41
		c0.276,0,0.5-0.224,0.5-0.5s-0.224-0.5-0.5-0.5H6.042c-0.777,0-1.487-0.266-2.066-0.697l5.879-14.164
		c0.588-1.802,1.475-2.641,2.79-2.641l29.867,0.024c1.228,0,2.287,0.37,2.698,0.942c0.258,0.358,0.289,0.81,0.107,1.353
		l-2.496,6.174c-0.104,0.256,0.021,0.548,0.276,0.651c0.255,0.101,0.547-0.021,0.651-0.276l2.506-6.202
		C46.627,20.166,46.334,19.419,46.023,18.985z"/>
	<path fill="#414042" d="M38.845,28.606c-3.145,0-5.703,2.558-5.703,5.702c0,3.144,2.559,5.7,5.703,5.7
		c3.144,0,5.701-2.557,5.701-5.7C44.546,31.164,41.988,28.606,38.845,28.606z M38.845,29.606c1.115,0,2.127,0.406,2.934,1.058
		l-6.577,6.58c-0.652-0.807-1.06-1.819-1.06-2.936C34.142,31.716,36.251,29.606,38.845,29.606z M38.845,39.009
		c-1.116,0-2.129-0.406-2.937-1.058l6.577-6.58c0.653,0.808,1.061,1.82,1.061,2.938C43.546,36.9,41.437,39.009,38.845,39.009z"/>
</g>
</svg>
