<?xml version="1.0" encoding="utf-8"?>
<!-- Generator: Adobe Illustrator 16.0.0, SVG Export Plug-In . SVG Version: 6.00 Build 0)  -->
<!DOCTYPE svg PUBLIC "-//W3C//DTD SVG 1.1//EN" "http://www.w3.org/Graphics/SVG/1.1/DTD/svg11.dtd">
<svg version="1.1" id="Layer_1" xmlns="http://www.w3.org/2000/svg" xmlns:xlink="http://www.w3.org/1999/xlink" x="0px" y="0px"
	 width="48px" height="48px" viewBox="0 0 48 48" enable-background="new 0 0 48 48" xml:space="preserve">
<g>
	<path fill="#414042" d="M32.701,4.356c-5.889,0-10.5,1.948-10.5,4.436v6.911c-1.833-0.668-4.233-1.071-6.9-1.071
		c-5.887,0-10.499,1.948-10.499,4.436v20.966c0,0.145,0.062,0.279,0.169,0.374c0.055,0.05,3.757,3.233,9.839,3.233
		c2.827,0,6.174-0.707,9.903-2.718c1.658,0.841,4.204,1.752,7.454,1.752c3.037,0,6.684-0.796,10.785-3.193
		c0.01-0.006,0.02-0.012,0.029-0.019c0.084-0.057,0.146-0.135,0.184-0.225c0.014-0.033,0.023-0.068,0.029-0.105
		c0.006-0.031,0.008-0.063,0.008-0.094V8.792C43.201,6.304,38.59,4.356,32.701,4.356z M42.201,26.334
		c-7.514,3.456-13.38,2.36-16.4,1.276v-3.069c1.547,0.52,3.707,1.01,6.361,1.01c2.834,0,6.236-0.574,10.039-2.253V26.334z
		 M24.801,27.839c-10.411,4.785-17.699,0.851-19,0.052v-2.964c1.382,0.767,4.496,2.156,8.922,2.156
		c2.851,0,6.252-0.592,10.078-2.283V27.839z M5.801,29.056c1.382,0.767,4.496,2.155,8.922,2.155c2.851,0,6.251-0.591,10.078-2.281
		v3.039c-10.412,4.786-17.701,0.851-19,0.051V29.056z M25.801,32.253V28.67c1.547,0.52,3.708,1.009,6.361,1.009
		c2.836,0,6.236-0.572,10.039-2.253v3.555C34.679,34.436,28.817,33.337,25.801,32.253z M42.201,22.205
		c-7.517,3.457-13.383,2.359-16.4,1.276v-3.069c1.546,0.52,3.706,1.011,6.359,1.011c2.835,0,6.235-0.574,10.041-2.254V22.205z
		 M24.801,20.975v2.735c-10.412,4.787-17.701,0.852-19,0.052v-2.787C7.463,22.479,11.043,23.5,15.3,23.5
		C19.559,23.5,23.14,22.479,24.801,20.975z M5.801,33.185c1.382,0.768,4.496,2.157,8.922,2.157c2.851,0,6.252-0.593,10.078-2.284
		V36.1c-10.411,4.78-17.699,0.85-19,0.051V33.185z M25.801,36.384v-3.07c1.547,0.52,3.706,1.011,6.361,1.011
		c2.834,0,6.235-0.573,10.039-2.252v3.035C34.688,38.563,28.821,37.467,25.801,36.384z M32.701,5.356c5.598,0,9.5,1.811,9.5,3.436
		c0,1.624-3.902,3.434-9.5,3.434s-9.5-1.81-9.5-3.434C23.201,7.167,27.104,5.356,32.701,5.356z M42.201,10.7v3.25
		c-10.412,4.784-17.701,0.851-19,0.052V10.7c1.662,1.504,5.242,2.525,9.5,2.525S40.54,12.204,42.201,10.7z M23.201,15.167
		c1.381,0.767,4.496,2.157,8.922,2.157c2.852,0,6.253-0.592,10.078-2.284v3.036c-7.522,3.458-13.384,2.359-16.4,1.275v-0.284
		c0-1.142-0.979-2.167-2.6-2.945V15.167z M15.3,15.631c5.599,0,9.501,1.811,9.501,3.436c0,1.624-3.902,3.434-9.501,3.434
		c-5.598,0-9.499-1.81-9.499-3.434C5.801,17.442,9.702,15.631,15.3,15.631z M5.801,39.799v-2.484
		c1.381,0.768,4.496,2.155,8.922,2.155c2.851,0,6.251-0.591,10.078-2.281v2.524l-0.104,0.049c-0.075,0.033-0.138,0.086-0.186,0.146
		C14.045,45.725,6.993,40.75,5.801,39.799z M42.098,38.777c-0.074,0.033-0.135,0.084-0.182,0.145
		c-7.37,4.091-13.099,2.786-16.209,1.371c0.016-0.024,0.045-0.041,0.057-0.068c0.014-0.035,0.025-0.072,0.031-0.11
		c0.004-0.03,0.008-0.06,0.006-0.089v-2.582c1.547,0.52,3.708,1.01,6.361,1.01c2.836,0,6.236-0.573,10.039-2.253v2.53L42.098,38.777
		z"/>
	<path fill="#414042" d="M15.347,19.241c0.373,0.007,0.666,0.01,0.902,0.028c-0.266,0.029-0.561,0.047-0.842,0.05
		c-0.991-0.014-1.969-0.11-2.227-0.188c-0.266-0.08-0.543,0.071-0.623,0.334c-0.08,0.265,0.07,0.543,0.334,0.623
		c0.347,0.105,1.148,0.179,1.909,0.212v0.03c0,0.276,0.224,0.5,0.5,0.5s0.5-0.224,0.5-0.5v-0.027
		c1.821-0.077,2.116-0.543,2.197-0.746c0.077-0.159,0.11-0.395-0.014-0.629c-0.261-0.489-1.055-0.694-2.729-0.688
		c-0.379-0.003-0.671-0.01-0.908-0.028c0.268-0.029,0.565-0.048,0.848-0.05c1.004,0.014,1.968,0.163,2.225,0.243
		c0.264,0.083,0.544-0.065,0.626-0.329s-0.065-0.544-0.329-0.626c-0.331-0.103-1.106-0.216-1.915-0.264v-0.043
		c0-0.276-0.224-0.5-0.5-0.5s-0.5,0.224-0.5,0.5v0.035c-1.821,0.075-2.115,0.543-2.196,0.748c-0.077,0.159-0.11,0.395,0.015,0.629
		C12.881,19.044,13.666,19.257,15.347,19.241z"/>
	<path fill="#414042" d="M32.748,8.922c0.371-0.004,0.668,0.009,0.904,0.028C33.387,8.979,33.09,8.998,32.809,9
		c-0.984-0.014-1.965-0.11-2.23-0.188c-0.264-0.078-0.541,0.073-0.621,0.338c-0.078,0.265,0.074,0.543,0.338,0.621
		c0.353,0.104,1.15,0.178,1.906,0.211v0.028c0,0.276,0.225,0.5,0.5,0.5c0.277,0,0.5-0.224,0.5-0.5V9.985
		c1.822-0.077,2.117-0.543,2.197-0.746c0.078-0.16,0.111-0.396-0.014-0.631c-0.262-0.489-1.096-0.683-2.729-0.686
		c-0.375,0.006-0.67-0.01-0.906-0.029c0.268-0.029,0.563-0.047,0.846-0.049c1.01,0.014,1.969,0.163,2.221,0.242
		c0.262,0.085,0.543-0.063,0.627-0.326c0.082-0.263-0.063-0.544-0.326-0.627c-0.327-0.104-1.089-0.217-1.916-0.266V6.823
		c0-0.276-0.223-0.5-0.5-0.5c-0.275,0-0.5,0.224-0.5,0.5v0.037c-1.82,0.075-2.115,0.543-2.197,0.747
		c-0.076,0.159-0.109,0.395,0.016,0.629C30.279,8.724,31.088,8.93,32.748,8.922z"/>
</g>
</svg>
