<?xml version="1.0" encoding="utf-8"?>
<!-- Generator: Adobe Illustrator 16.0.0, SVG Export Plug-In . SVG Version: 6.00 Build 0)  -->
<!DOCTYPE svg PUBLIC "-//W3C//DTD SVG 1.1//EN" "http://www.w3.org/Graphics/SVG/1.1/DTD/svg11.dtd">
<svg version="1.1" id="Layer_1" xmlns="http://www.w3.org/2000/svg" xmlns:xlink="http://www.w3.org/1999/xlink" x="0px" y="0px"
	 width="48px" height="48px" viewBox="0 0 48 48" enable-background="new 0 0 48 48" xml:space="preserve">
<g>
	<path fill="#414042" d="M43.023,17.685c0.189-0.195,0.686-0.948-0.107-2.954c-0.041-0.95-0.648-2.584-2.742-2.584
		c-0.365,0-0.77,0.052-1.199,0.155c-0.85-0.59-4.262-2.68-9.924-2.68c-2.838,0-5.821,0.534-8.844,1.582
		c-0.113,0.033-1.125,0.37-3.187,2.239c-0.063-0.103-0.143-0.249-0.243-0.453c-0.148-0.254-1.499-2.485-3.178-2.485
		c-0.144,0-0.287,0.017-0.503,0.075c-0.086,0.036-0.299,0.155-0.418,0.479c-0.197,0.537-0.034,1.379,0.498,2.563
		c-0.671,0.062-1.481,0.254-1.879,0.792c-0.037,0.05-0.063,0.106-0.08,0.166c-0.008,0.029-0.174,0.651-0.104,1.543
		c-0.372,0.335-1.157,1.106-1.731,2.11c-0.263,0.41-1.199,1.581-2.056,1.587c-0.019-0.005-0.46-0.114-0.977-0.114
		c-1.09,0-1.784,0.494-1.904,1.378c-0.034,0.374-0.266,3.53,1.331,4.284c0.189,0.43,0.713,1.256,2.048,1.771l1.417,1.004
		c0.036,0.024,0.076,0.045,0.117,0.061c0.011,0.004,1.076,0.396,1.715,0.734c0.28,0.248,1.594,1.32,3.593,1.555
		c0.051,0.01,0.109,0.004,0.158-0.006c0.015-0.004,0.067-0.012,0.143-0.012c0.347,0,0.985,0.152,1.353,1.108l0.464,1.853
		c-0.109,0.604-0.525,3.035-0.293,3.942c0.035,0.381,0.409,1.019,2.532,1.019c0.189,0,0.395-0.005,0.619-0.016
		c0.075-0.002,0.147-0.023,0.213-0.059c0.072-0.039,1.777-0.971,2.232-2.486l1.578-3.322c0.406,0.012,1.25,0.076,1.921,0.405
		c0.053,0.017,0.535,0.153,1.484,0.153c1.02,0,2.744-0.165,5.145-0.943c0.002,0,0.125-0.031,0.291-0.031
		c0.508,0,0.752,0.268,0.795,0.867c0.004,0.066,0.027,0.141,0.059,0.2c0.004,0.009,0.439,0.896-0.045,2.886
		c-0.018,0.07-0.02,0.143-0.006,0.213l0.246,1.284c0.029,0.151,0.125,0.28,0.26,0.351c0.035,0.018,0.855,0.438,1.924,0.438
		c0.643,0,1.242-0.149,1.785-0.441c0.096-0.051,0.172-0.133,0.217-0.232L40,32.709c0.035-0.078,0.051-0.166,0.043-0.253
		c-0.002-0.018-0.123-1.794,1.607-4.538C41.785,27.744,44.822,23.75,43.023,17.685z M39.041,32.402l-2.139,4.684
		c-0.816,0.379-1.965,0.186-2.418,0.014l-0.176-0.918c0.461-1.974,0.127-3.043-0.021-3.386c-0.109-1.065-0.771-1.698-1.783-1.698
		c-0.299,0-0.523,0.059-0.572,0.072c-2.303,0.746-3.916,0.902-4.863,0.902c-0.74,0-1.123-0.08-1.125-0.084
		c-0.869-0.432-1.994-0.479-2.438-0.479l-0.181,0.004c-0.185,0.008-0.351,0.119-0.43,0.285l-1.74,3.676
		c-0.307,1.008-1.364,1.719-1.685,1.914c-1.423,0.051-1.907-0.166-2.011-0.236c-0.129-0.693,0.127-2.581,0.326-3.642
		c0.014-0.07,0.011-0.144-0.006-0.212l-0.508-2.015c-0.621-1.632-1.819-1.81-2.305-1.81c-0.104,0-0.189,0.008-0.25,0.016
		c-1.834-0.238-2.998-1.314-3.009-1.326c-0.031-0.029-0.066-0.056-0.104-0.076c-0.612-0.334-1.58-0.703-1.838-0.801l-1.415-1.002
		c-0.036-0.025-0.074-0.047-0.115-0.061c-1.344-0.498-1.573-1.325-1.58-1.352c-0.04-0.18-0.176-0.323-0.354-0.373
		c-0.85-0.238-0.946-2.345-0.862-3.304c0.018-0.134,0.067-0.491,0.91-0.491c0.389,0,0.732,0.083,0.799,0.095
		c1.61,0.198,2.935-1.81,3.089-2.051c0.678-1.183,1.704-2.023,1.714-2.032c0.135-0.109,0.204-0.28,0.182-0.452
		c-0.08-0.624-0.012-1.116,0.027-1.321c0.241-0.212,0.862-0.35,1.604-0.35l0.172,0.003c0.196,0.01,0.349-0.078,0.445-0.228
		c0.097-0.15,0.107-0.34,0.026-0.499c-0.761-1.489-0.823-2.137-0.807-2.367c0.938,0,2.012,1.474,2.297,1.957
		c0.407,0.835,0.716,1.16,1.102,1.16c0.137,0,0.303-0.081,0.419-0.191l0.003,0.003c2.071-1.93,3.067-2.27,3.092-2.278
		c2.939-1.018,5.813-1.534,8.539-1.534c6.084,0,9.479,2.591,9.514,2.617c0.123,0.097,0.289,0.131,0.439,0.088
		c0.434-0.119,0.828-0.18,1.17-0.18c1.016,0,1.441,0.556,1.617,1.032c-0.342-0.4-0.777-0.457-0.996-0.457
		c-0.334,0-0.592,0.115-0.641,0.138c-0.164,0.078-0.271,0.238-0.283,0.418c-0.012,0.181,0.074,0.354,0.225,0.452
		c0.213,0.138,0.537,0.476,0.904,0.938c-0.029,0.474,0.1,1.169,0.9,1.779c1.982,5.848-0.914,9.694-1.066,9.896
		C39.146,30.012,39.033,31.877,39.041,32.402z"/>
	<path fill="#414042" d="M32.982,13.044h-7.855c-0.276,0-0.5,0.224-0.5,0.5s0.224,0.5,0.5,0.5h7.855c0.277,0,0.5-0.224,0.5-0.5
		S33.26,13.044,32.982,13.044z"/>
</g>
</svg>
