<?xml version="1.0" encoding="utf-8"?>
<!-- Generator: Adobe Illustrator 16.0.0, SVG Export Plug-In . SVG Version: 6.00 Build 0)  -->
<!DOCTYPE svg PUBLIC "-//W3C//DTD SVG 1.1//EN" "http://www.w3.org/Graphics/SVG/1.1/DTD/svg11.dtd">
<svg version="1.1" id="Layer_1" xmlns="http://www.w3.org/2000/svg" xmlns:xlink="http://www.w3.org/1999/xlink" x="0px" y="0px"
	 width="48px" height="48px" viewBox="0 0 48 48" enable-background="new 0 0 48 48" xml:space="preserve">
<g>
	<path fill="#414042" d="M37.848,18.024H4.859c-0.473,0-0.857,0.385-0.857,0.857v15.48c0,0.473,0.385,0.857,0.857,0.857h32.989
		c0.473,0,0.857-0.385,0.857-0.857v-15.48C38.705,18.409,38.32,18.024,37.848,18.024z M37.705,34.219H5.001V19.024h32.704V34.219z"
		/>
	<path fill="#414042" d="M40.467,15.532H7.478c-0.276,0-0.5,0.224-0.5,0.5s0.224,0.5,0.5,0.5h32.846v15.339
		c0,0.277,0.223,0.5,0.5,0.5c0.275,0,0.5-0.223,0.5-0.5V16.389C41.324,15.917,40.939,15.532,40.467,15.532z"/>
	<path fill="#414042" d="M43.145,12.799H10.158c-0.276,0-0.5,0.224-0.5,0.5s0.224,0.5,0.5,0.5h32.844v15.337
		c0,0.277,0.223,0.5,0.5,0.5c0.275,0,0.5-0.223,0.5-0.5v-15.48C44.002,13.184,43.617,12.799,43.145,12.799z"/>
	<path fill="#414042" d="M7.179,29.889c0.946,0,2.558,0.306,2.73,2.351c0.021,0.259,0.238,0.458,0.498,0.458h21.756
		c0.26,0,0.477-0.199,0.498-0.458c0.172-2.045,1.785-2.351,2.73-2.351c0.133,0,0.26-0.053,0.354-0.146s0.146-0.222,0.146-0.354
		l-0.01-5.672c0-0.276-0.225-0.499-0.5-0.499c-0.945,0-2.559-0.305-2.73-2.351c-0.021-0.259-0.238-0.458-0.498-0.458H10.398
		c-0.26,0-0.477,0.199-0.498,0.458c-0.173,2.045-1.785,2.351-2.73,2.351c-0.133,0-0.26,0.053-0.354,0.147
		c-0.094,0.094-0.146,0.221-0.146,0.354l0.01,5.672C6.68,29.666,6.903,29.889,7.179,29.889z M10.836,21.409h20.879
		c0.395,2.168,2.152,2.674,3.168,2.782l0.008,4.726c-1.016,0.109-2.771,0.615-3.166,2.781H10.846
		c-0.394-2.168-2.151-2.674-3.167-2.781L7.67,24.19C8.686,24.082,10.442,23.576,10.836,21.409z"/>
	<path fill="#414042" d="M21.955,27.909c-0.012,0-0.023,0-0.035-0.001c-1.006-0.043-1.925-0.23-2.141-0.346
		c-0.244-0.129-0.546-0.037-0.676,0.206c-0.13,0.245-0.037,0.548,0.207,0.677c0.371,0.198,1.211,0.349,2,0.422l0.029,1.107
		c0.007,0.271,0.229,0.486,0.5,0.486c0.005,0,0.009,0,0.014,0c0.276-0.008,0.494-0.237,0.487-0.514l-0.028-1.051
		c0.755-0.039,2.005-0.226,2.198-1.027c0.093-0.215,0.122-0.59-0.102-0.934c-0.353-0.545-1.177-0.819-2.606-0.842
		c-1.33-0.019-1.636-0.309-1.691-0.451c0.082-0.168,0.882-0.359,1.647-0.361c0.957,0.043,1.895,0.308,2.13,0.438
		c0.241,0.133,0.546,0.047,0.68-0.195c0.134-0.24,0.046-0.545-0.195-0.679c-0.343-0.19-1.134-0.409-1.988-0.511l0.007-1.213
		c0.001-0.276-0.221-0.501-0.497-0.503c-0.001,0-0.002,0-0.003,0c-0.275,0-0.499,0.222-0.5,0.497l-0.007,1.18
		c-0.754,0.039-2.023,0.216-2.218,1.027c-0.093,0.217-0.122,0.592,0.102,0.935c0.353,0.544,1.176,0.817,2.606,0.839
		c1.33,0.02,1.635,0.31,1.691,0.453C23.483,27.713,22.722,27.909,21.955,27.909z"/>
</g>
</svg>
