<?xml version="1.0" encoding="utf-8"?>
<!-- Generator: Adobe Illustrator 16.0.0, SVG Export Plug-In . SVG Version: 6.00 Build 0)  -->
<!DOCTYPE svg PUBLIC "-//W3C//DTD SVG 1.1//EN" "http://www.w3.org/Graphics/SVG/1.1/DTD/svg11.dtd">
<svg version="1.1" id="Layer_1" xmlns="http://www.w3.org/2000/svg" xmlns:xlink="http://www.w3.org/1999/xlink" x="0px" y="0px"
	 width="48px" height="48px" viewBox="0 0 48 48" enable-background="new 0 0 48 48" xml:space="preserve">
<g>
	<path fill="#414042" d="M33.158,8.64h-2.586V3.798c0-0.183-0.1-0.351-0.262-0.439c-0.16-0.088-0.355-0.081-0.51,0.018l-0.52,0.334
		l-0.625-0.35c-0.152-0.085-0.332-0.085-0.484-0.003l-0.68,0.371l-0.74-0.377c-0.154-0.078-0.338-0.071-0.486,0.018l-0.57,0.345
		l-0.627-0.353c-0.152-0.085-0.336-0.085-0.488-0.002l-0.662,0.367l-0.721-0.374c-0.145-0.074-0.316-0.074-0.459,0l-0.722,0.374
		l-0.663-0.367c-0.144-0.079-0.316-0.083-0.463-0.011l-0.758,0.374l-0.569-0.351c-0.154-0.094-0.347-0.1-0.505-0.011l-0.63,0.351
		l-0.521-0.334c-0.154-0.099-0.35-0.106-0.51-0.018c-0.161,0.088-0.26,0.256-0.26,0.439V8.64h-2.292
		c-0.549,0-0.995,0.446-0.995,0.994v14.852c0,0.538,0.43,0.972,0.962,0.99l0.024,16.255c-0.082,0.963,0.224,2.83,2.007,2.989h8.184
		h0.001l6.13-0.001c1.738-0.158,2.047-2.023,1.967-2.946l0.021-16.29h0.015c0.549,0,0.994-0.447,0.994-0.997V9.634
		C34.152,9.086,33.707,8.64,33.158,8.64z M18.135,4.713l0.003,0.002c0.155,0.1,0.352,0.105,0.513,0.016l0.635-0.354l0.556,0.342
		c0.147,0.09,0.329,0.099,0.483,0.022l0.771-0.38l0.667,0.37c0.146,0.08,0.323,0.083,0.472,0.007l0.73-0.377l0.729,0.377
		c0.149,0.076,0.327,0.073,0.472-0.007l0.652-0.361l0.638,0.359c0.158,0.089,0.352,0.086,0.504-0.008l0.582-0.352l0.729,0.37
		c0.146,0.075,0.318,0.072,0.465-0.006l0.67-0.365l0.646,0.362c0.162,0.089,0.359,0.084,0.516-0.016l0.002-0.001v7.433H18.135V4.713
		z M31.111,43.721H22.93c-0.001,0-0.001,0-0.002,0l-6.041,0.002c-1.185-0.109-1.062-1.836-1.054-1.951l-0.022-16.289h16.333
		l-0.019,16.33C32.131,41.887,32.252,43.613,31.111,43.721z M32.752,24.482c-0.035-0.008-0.068-0.021-0.105-0.021
		c-0.002,0-0.002,0-0.002,0c-0.038,0-0.071,0.014-0.107,0.021l-17.102,0.004c-0.041-0.011-0.081-0.025-0.125-0.025h0
		c-0.044,0-0.083,0.015-0.125,0.025h-0.337L14.843,9.64h2.292v2.507h-0.851c-0.276,0-0.5,0.224-0.5,0.5s0.224,0.5,0.5,0.5h1.351
		h12.437h1.6c0.275,0,0.5-0.224,0.5-0.5s-0.225-0.5-0.5-0.5h-1.1V9.639l2.58-0.005l0.006,14.848H32.752z"/>
	<path fill="#414042" d="M31.324,14.931H16.628c-0.276,0-0.5,0.224-0.5,0.5v5.632c0,0.276,0.224,0.5,0.5,0.5h14.696
		c0.275,0,0.5-0.224,0.5-0.5v-5.632C31.824,15.155,31.6,14.931,31.324,14.931z M30.824,20.563H17.128v-4.632h13.696V20.563z"/>
	<path fill="#414042" d="M28.531,27.697h-0.695c-0.34,0-0.615,0.276-0.615,0.617v0.695c0,0.34,0.275,0.616,0.615,0.616h0.695
		c0.34,0,0.617-0.276,0.617-0.616v-0.695C29.148,27.974,28.871,27.697,28.531,27.697z"/>
	<path fill="#414042" d="M24.325,27.697h-0.695c-0.34,0-0.616,0.276-0.616,0.617v0.695c0,0.34,0.276,0.616,0.616,0.616h0.695
		c0.34,0,0.616-0.276,0.616-0.616v-0.695C24.941,27.974,24.665,27.697,24.325,27.697z"/>
	<path fill="#414042" d="M20.117,27.697h-0.694c-0.34,0-0.617,0.276-0.617,0.617v0.695c0,0.34,0.277,0.616,0.617,0.616h0.694
		c0.34,0,0.617-0.276,0.617-0.616v-0.695C20.734,27.974,20.457,27.697,20.117,27.697z"/>
	<path fill="#414042" d="M28.531,31.199h-0.695c-0.34,0-0.615,0.275-0.615,0.613v0.696c0,0.339,0.275,0.615,0.615,0.615h0.695
		c0.34,0,0.617-0.276,0.617-0.615v-0.696C29.148,31.475,28.871,31.199,28.531,31.199z"/>
	<path fill="#414042" d="M24.325,31.199h-0.695c-0.34,0-0.616,0.275-0.616,0.613v0.696c0,0.339,0.276,0.615,0.616,0.615h0.695
		c0.34,0,0.616-0.276,0.616-0.615v-0.696C24.941,31.475,24.665,31.199,24.325,31.199z"/>
	<path fill="#414042" d="M20.117,31.199h-0.694c-0.34,0-0.617,0.275-0.617,0.613v0.696c0,0.339,0.277,0.615,0.617,0.615h0.694
		c0.34,0,0.617-0.276,0.617-0.615v-0.696C20.734,31.475,20.457,31.199,20.117,31.199z"/>
	<path fill="#414042" d="M28.531,34.699h-0.695c-0.34,0-0.615,0.275-0.615,0.615v0.697c0,0.338,0.275,0.613,0.615,0.613h0.695
		c0.34,0,0.617-0.275,0.617-0.613v-0.697C29.148,34.975,28.871,34.699,28.531,34.699z"/>
	<path fill="#414042" d="M24.325,34.699h-0.695c-0.34,0-0.616,0.275-0.616,0.615v0.697c0,0.338,0.276,0.613,0.616,0.613h0.695
		c0.34,0,0.616-0.275,0.616-0.613v-0.697C24.941,34.975,24.665,34.699,24.325,34.699z"/>
	<path fill="#414042" d="M20.117,34.699h-0.694c-0.34,0-0.617,0.275-0.617,0.615v0.697c0,0.338,0.277,0.613,0.617,0.613h0.694
		c0.34,0,0.617-0.275,0.617-0.613v-0.697C20.734,34.975,20.457,34.699,20.117,34.699z"/>
	<path fill="#414042" d="M28.531,38.197h-0.695c-0.34,0-0.615,0.276-0.615,0.617v0.695c0,0.34,0.275,0.616,0.615,0.616h0.695
		c0.34,0,0.617-0.276,0.617-0.616v-0.695C29.148,38.474,28.871,38.197,28.531,38.197z"/>
	<path fill="#414042" d="M24.325,38.197h-0.695c-0.34,0-0.616,0.276-0.616,0.617v0.695c0,0.34,0.276,0.616,0.616,0.616h0.695
		c0.34,0,0.616-0.276,0.616-0.616v-0.695C24.941,38.474,24.665,38.197,24.325,38.197z"/>
	<path fill="#414042" d="M20.117,38.197h-0.694c-0.34,0-0.617,0.276-0.617,0.617v0.695c0,0.34,0.277,0.616,0.617,0.616h0.694
		c0.34,0,0.617-0.276,0.617-0.616v-0.695C20.734,38.474,20.457,38.197,20.117,38.197z"/>
</g>
</svg>
