<?xml version="1.0" encoding="utf-8"?>
<!-- Generator: Adobe Illustrator 16.0.0, SVG Export Plug-In . SVG Version: 6.00 Build 0)  -->
<!DOCTYPE svg PUBLIC "-//W3C//DTD SVG 1.1//EN" "http://www.w3.org/Graphics/SVG/1.1/DTD/svg11.dtd">
<svg version="1.1" id="Layer_1" xmlns="http://www.w3.org/2000/svg" xmlns:xlink="http://www.w3.org/1999/xlink" x="0px" y="0px"
	 width="48px" height="48px" viewBox="0 0 48 48" enable-background="new 0 0 48 48" xml:space="preserve">
<g>
	<path fill="#414042" d="M38.057,4.402H9.943c-1.11,0-2.014,0.903-2.014,2.014v35.186c0,1.111,0.903,2.016,2.014,2.016h28.114
		c1.111,0,2.016-0.904,2.016-2.016V6.416C40.072,5.305,39.168,4.402,38.057,4.402z M39.072,41.602c0,0.559-0.455,1.015-1.016,1.015
		H9.943c-0.559,0-1.014-0.456-1.014-1.015V6.416c0-0.559,0.455-1.014,1.014-1.014h28.114c0.561,0,1.016,0.455,1.016,1.014V41.602z"
		/>
	<path fill="#414042" d="M36.627,13.013h-0.762V9.058c0-0.276-0.225-0.5-0.5-0.5H12.637c-0.276,0-0.5,0.224-0.5,0.5v29.905
		c0,0.275,0.224,0.5,0.5,0.5h22.728c0.275,0,0.5-0.225,0.5-0.5v-4.662h0.762c0.693,0,1.258-0.566,1.258-1.26v-3.465
		c0-0.693-0.564-1.257-1.258-1.257h-0.762v-9.427h0.762c0.693,0,1.258-0.563,1.258-1.256v-3.364
		C37.885,13.578,37.32,13.013,36.627,13.013z M36.885,14.272v1.181h-3.123v-1.181c0-0.143,0.115-0.259,0.256-0.259h2.609
		C36.771,14.013,36.885,14.127,36.885,14.272z M36.627,33.3h-2.609c-0.141,0-0.256-0.116-0.256-0.259v-1.23h3.123v1.23
		C36.885,33.184,36.77,33.3,36.627,33.3z M36.885,29.576v1.233h-3.123v-1.233c0-0.141,0.115-0.256,0.256-0.256h1.284
		c0.022,0.003,0.041,0.013,0.063,0.013s0.041-0.01,0.063-0.013h1.199C36.77,29.32,36.885,29.436,36.885,29.576z M34.865,28.319
		h-0.848c-0.693,0-1.256,0.563-1.256,1.257v3.465c0,0.693,0.563,1.26,1.256,1.26h0.848v4.161H13.137V9.558h21.728v3.455h-0.848
		c-0.693,0-1.256,0.564-1.256,1.259v3.364c0,0.692,0.563,1.256,1.256,1.256h0.848V28.319z M36.627,17.892h-2.609
		c-0.145,0-0.256-0.112-0.256-0.256v-1.184h3.123v1.184C36.885,17.78,36.771,17.892,36.627,17.892z"/>
	<path fill="#414042" d="M24.896,32.205l-2.893-1.158c0.035-0.157,0.057-0.319,0.057-0.486c0-0.285-0.059-0.557-0.157-0.808
		l2.506-1.968c0.217-0.17,0.255-0.485,0.084-0.702c-0.17-0.218-0.484-0.253-0.702-0.085l-2.457,1.93
		c-0.317-0.293-0.717-0.49-1.163-0.56l-0.451-3.157c-0.04-0.274-0.295-0.467-0.566-0.425c-0.273,0.039-0.463,0.292-0.424,0.566
		l0.442,3.094c-0.425,0.134-0.792,0.388-1.065,0.728l-2.962-1.19c-0.255-0.103-0.548,0.021-0.65,0.277
		c-0.103,0.256,0.021,0.549,0.277,0.65l2.895,1.163c-0.036,0.157-0.058,0.319-0.058,0.487c0,0.284,0.059,0.553,0.156,0.803
		l-2.505,1.967c-0.217,0.172-0.255,0.485-0.084,0.702c0.099,0.126,0.245,0.192,0.394,0.192c0.108,0,0.217-0.035,0.308-0.107
		l2.455-1.927c0.318,0.293,0.72,0.491,1.167,0.56l0.45,3.156c0.036,0.25,0.25,0.429,0.495,0.429c0.023,0,0.047-0.001,0.071-0.005
		c0.273-0.039,0.463-0.291,0.424-0.564l-0.441-3.094c0.424-0.134,0.792-0.388,1.064-0.727l2.962,1.188
		c0.061,0.025,0.124,0.037,0.186,0.037c0.198,0,0.386-0.119,0.464-0.315C25.275,32.6,25.152,32.309,24.896,32.205z M19.833,31.785
		c-0.675,0-1.225-0.551-1.225-1.225c0-0.678,0.549-1.228,1.225-1.228c0.676,0,1.227,0.55,1.227,1.228
		C21.06,31.234,20.51,31.785,19.833,31.785z"/>
</g>
</svg>
