<?xml version="1.0" encoding="utf-8"?>
<!-- Generator: Adobe Illustrator 16.0.0, SVG Export Plug-In . SVG Version: 6.00 Build 0)  -->
<!DOCTYPE svg PUBLIC "-//W3C//DTD SVG 1.1//EN" "http://www.w3.org/Graphics/SVG/1.1/DTD/svg11.dtd">
<svg version="1.1" id="Layer_1" xmlns="http://www.w3.org/2000/svg" xmlns:xlink="http://www.w3.org/1999/xlink" x="0px" y="0px"
	 width="48px" height="48px" viewBox="0 0 48 48" enable-background="new 0 0 48 48" xml:space="preserve">
<g>
	<path fill="#414042" d="M39.324,17.926L34.473,2.67c-0.066-0.208-0.258-0.349-0.477-0.349H13.771c-0.22,0-0.415,0.144-0.479,0.355
		L8.675,17.933c-0.014,0.047-0.021,0.096-0.021,0.145v27.12c0,0.275,0.224,0.5,0.5,0.5h29.694c0.275,0,0.5-0.225,0.5-0.5v-27.12
		C39.348,18.026,39.34,17.975,39.324,17.926z M38.348,44.696H9.654V18.152l4.488-14.83h19.489l4.717,14.833V44.696z"/>
	<path fill="#414042" d="M14.712,9.07c-0.276,0-0.5,0.224-0.5,0.5v24.345c0,0.276,0.224,0.501,0.5,0.501h18.676
		c0.275,0,0.5-0.225,0.5-0.501V9.57c0-0.276-0.225-0.5-0.5-0.5H14.712z M32.889,33.416H15.212V10.07h17.676V33.416z"/>
	<path fill="#414042" d="M19.283,20.609h9.538c0.518,0,0.939-0.422,0.939-0.941v-6.242c0-0.519-0.422-0.941-0.939-0.941h-9.538
		c-0.519,0-0.941,0.422-0.941,0.941v6.242C18.341,20.187,18.764,20.609,19.283,20.609z M28.76,13.425v6.184l-9.418,0.058
		l-0.059-6.184L28.76,13.425z"/>
	<path fill="#414042" d="M16.341,14.88h0.732c0.276,0,0.5-0.224,0.5-0.5s-0.224-0.5-0.5-0.5h-0.732c-0.276,0-0.5,0.224-0.5,0.5
		S16.065,14.88,16.341,14.88z"/>
	<path fill="#414042" d="M16.341,17.106h0.732c0.276,0,0.5-0.224,0.5-0.5s-0.224-0.5-0.5-0.5h-0.732c-0.276,0-0.5,0.224-0.5,0.5
		S16.065,17.106,16.341,17.106z"/>
	<path fill="#414042" d="M16.341,19.328h0.732c0.276,0,0.5-0.224,0.5-0.5s-0.224-0.5-0.5-0.5h-0.732c-0.276,0-0.5,0.224-0.5,0.5
		S16.065,19.328,16.341,19.328z"/>
	<path fill="#414042" d="M30.779,14.822h0.734c0.275,0,0.5-0.224,0.5-0.5s-0.225-0.5-0.5-0.5h-0.734c-0.277,0-0.5,0.224-0.5,0.5
		S30.502,14.822,30.779,14.822z"/>
	<path fill="#414042" d="M30.779,17.046h0.734c0.275,0,0.5-0.224,0.5-0.5s-0.225-0.5-0.5-0.5h-0.734c-0.277,0-0.5,0.224-0.5,0.5
		S30.502,17.046,30.779,17.046z"/>
	<path fill="#414042" d="M30.779,19.269h0.734c0.275,0,0.5-0.224,0.5-0.5s-0.225-0.5-0.5-0.5h-0.734c-0.277,0-0.5,0.224-0.5,0.5
		S30.502,19.269,30.779,19.269z"/>
	<path fill="#414042" d="M29.549,23.745c-0.047-0.234-0.252-0.403-0.49-0.403H19.046c-0.239,0-0.444,0.169-0.491,0.403l-1.416,7.177
		c-0.029,0.146,0.009,0.299,0.104,0.414c0.095,0.115,0.237,0.183,0.386,0.183h12.846c0.008,0.001,0.016,0.001,0.02,0
		c0.275,0,0.5-0.224,0.5-0.499c0-0.084-0.02-0.162-0.057-0.23L29.549,23.745z M18.239,30.52l1.219-6.178h9.189l1.221,6.178H18.239z"
		/>
	<polygon fill="#414042" points="19.503,29.754 21.167,29.754 21.31,28.764 19.72,28.764 	"/>
	<polygon fill="#414042" points="21.759,29.76 23.669,29.76 23.669,28.788 21.894,28.788 	"/>
	<polygon fill="#414042" points="20.615,25.119 20.483,25.741 21.671,25.741 21.759,25.119 	"/>
	<polygon fill="#414042" points="19.826,28.307 21.365,28.307 21.478,27.504 19.997,27.504 	"/>
	<polygon fill="#414042" points="20.142,27.019 21.5,27.019 21.605,26.269 20.3,26.269 	"/>
	<polygon fill="#414042" points="23.667,25.119 22.475,25.119 22.387,25.741 23.667,25.741 	"/>
	<polygon fill="#414042" points="22.142,27.019 23.669,27.019 23.669,26.269 22.247,26.269 	"/>
	<polygon fill="#414042" points="21.966,28.283 23.669,28.283 23.669,27.523 22.072,27.523 	"/>
	<polygon fill="#414042" points="26.717,28.764 26.861,29.754 28.521,29.754 28.305,28.764 	"/>
	<polygon fill="#414042" points="24.357,28.788 24.357,29.76 26.27,29.76 26.131,28.788 	"/>
	<polygon fill="#414042" points="27.412,25.119 26.27,25.119 26.357,25.741 27.543,25.741 	"/>
	<polygon fill="#414042" points="28.033,27.504 26.551,27.504 26.662,28.307 28.199,28.307 	"/>
	<polygon fill="#414042" points="27.729,26.269 26.422,26.269 26.527,27.019 27.887,27.019 	"/>
	<polygon fill="#414042" points="25.551,25.119 24.361,25.119 24.361,25.741 25.639,25.741 	"/>
	<polygon fill="#414042" points="25.779,26.269 24.357,26.269 24.357,27.019 25.885,27.019 	"/>
	<polygon fill="#414042" points="25.955,27.523 24.357,27.523 24.357,28.283 26.061,28.283 	"/>
	<path fill="#414042" d="M25.754,22.791c0.275,0,0.5-0.224,0.5-0.5s-0.225-0.5-0.5-0.5h-3.268c-0.276,0-0.5,0.224-0.5,0.5
		s0.224,0.5,0.5,0.5H25.754z"/>
</g>
</svg>
