<?xml version="1.0" encoding="utf-8"?>
<!-- Generator: Adobe Illustrator 16.0.0, SVG Export Plug-In . SVG Version: 6.00 Build 0)  -->
<!DOCTYPE svg PUBLIC "-//W3C//DTD SVG 1.1//EN" "http://www.w3.org/Graphics/SVG/1.1/DTD/svg11.dtd">
<svg version="1.1" id="Layer_1" xmlns="http://www.w3.org/2000/svg" xmlns:xlink="http://www.w3.org/1999/xlink" x="0px" y="0px"
	 width="48px" height="48px" viewBox="0 0 48 48" enable-background="new 0 0 48 48" xml:space="preserve">
<g>
	<path fill="#414042" d="M10.822,25.744c-0.632,0-1.146,0.516-1.146,1.148c0,0.631,0.514,1.145,1.146,1.145s1.146-0.514,1.146-1.145
		C11.968,26.26,11.454,25.744,10.822,25.744z M10.675,26.893c0-0.082,0.066-0.148,0.146-0.148c0.08,0,0.146,0.068,0.146,0.148
		C10.969,27.051,10.676,27.053,10.675,26.893z"/>
	<path fill="#414042" d="M43.414,8.592c0-1.512-1.23-2.742-2.742-2.742H12.628c-0.276,0-0.5,0.224-0.5,0.5v5.605H5.087
		c-0.276,0-0.5,0.224-0.5,0.5v11.209v6.542v11.461c0,0.277,0.224,0.5,0.5,0.5h35.584c1.512,0,2.742-1.23,2.742-2.742V10.411
		c0-0.023-0.01-0.044-0.014-0.067c0.003-0.044,0.014-0.085,0.014-0.13V8.592z M13.128,6.85h27.543c0.961,0,1.742,0.782,1.742,1.742
		v1.621c0,0.466-0.187,0.887-0.485,1.2c-0.032,0.032-0.064,0.063-0.099,0.091c-0.03,0.027-0.062,0.053-0.094,0.078
		c-0.061,0.045-0.121,0.087-0.181,0.124c-0.054,0.032-0.108,0.064-0.166,0.091c-0.015,0.007-0.029,0.016-0.043,0.022
		c-0.208,0.087-0.436,0.136-0.675,0.136H13.128V6.85z M5.587,24.165h6.746c0.716,0,1.299,0.583,1.299,1.298v2.947
		c0,0.715-0.583,1.297-1.299,1.297H5.587V24.165z M42.414,39.426c0,0.961-0.781,1.742-1.742,1.742H5.587V30.707h6.746
		c1.268,0,2.299-1.029,2.299-2.297v-2.947c0-1.267-1.031-2.298-2.299-2.298H5.587V12.956h7.041h28.043h0.4
		c0.039,0,0.078-0.005,0.117-0.014c0.025-0.006,0.239-0.067,0.517-0.192c0.047-0.02,0.09-0.045,0.136-0.066
		c0.07-0.035,0.137-0.071,0.212-0.115c0.093-0.055,0.183-0.114,0.269-0.179c0.031-0.023,0.061-0.037,0.092-0.062V39.426z"/>
</g>
</svg>
