<?xml version="1.0" encoding="utf-8"?>
<!-- Generator: Adobe Illustrator 16.0.0, SVG Export Plug-In . SVG Version: 6.00 Build 0)  -->
<!DOCTYPE svg PUBLIC "-//W3C//DTD SVG 1.1//EN" "http://www.w3.org/Graphics/SVG/1.1/DTD/svg11.dtd">
<svg version="1.1" id="Layer_1" xmlns="http://www.w3.org/2000/svg" xmlns:xlink="http://www.w3.org/1999/xlink" x="0px" y="0px"
	 width="48px" height="48px" viewBox="0 0 48 48" enable-background="new 0 0 48 48" xml:space="preserve">
<path fill="#414042" d="M42.082,38.695h-3.846V18.375c0-0.276-0.223-0.5-0.5-0.5h-5.129c-0.277,0-0.5,0.224-0.5,0.5v20.321h-4.203
	V14.302c0-0.276-0.225-0.5-0.5-0.5h-5.129c-0.276,0-0.5,0.224-0.5,0.5v24.393h-3.891V24.007c0-0.276-0.224-0.5-0.5-0.5h-5.128
	c-0.276,0-0.5,0.224-0.5,0.5v14.688H8.054V8.824c0-0.276-0.224-0.5-0.5-0.5H5.919c-0.276,0-0.5,0.224-0.5,0.5s0.224,0.5,0.5,0.5
	h1.135v6.594H5.919c-0.276,0-0.5,0.224-0.5,0.5s0.224,0.5,0.5,0.5h1.135v6.59H5.919c-0.276,0-0.5,0.224-0.5,0.5s0.224,0.5,0.5,0.5
	h1.135v6.594H5.919c-0.276,0-0.5,0.223-0.5,0.499s0.224,0.501,0.5,0.501h1.135v6.594H5.919c-0.276,0-0.5,0.223-0.5,0.499
	s0.224,0.501,0.5,0.501h1.635h4.702h5.128h4.891h5.129h5.203h5.129h4.346c0.275,0,0.5-0.225,0.5-0.501S42.357,38.695,42.082,38.695z
	 M12.756,38.695V24.507h4.128v14.188H12.756z M22.775,38.695V14.802h4.129v23.893H22.775z M33.107,38.695V18.875h4.129v19.821
	H33.107z"/>
</svg>
