<?xml version="1.0" encoding="utf-8"?>
<!-- Generator: Adobe Illustrator 16.0.0, SVG Export Plug-In . SVG Version: 6.00 Build 0)  -->
<!DOCTYPE svg PUBLIC "-//W3C//DTD SVG 1.1//EN" "http://www.w3.org/Graphics/SVG/1.1/DTD/svg11.dtd">
<svg version="1.1" id="Layer_1" xmlns="http://www.w3.org/2000/svg" xmlns:xlink="http://www.w3.org/1999/xlink" x="0px" y="0px"
	 width="48px" height="48px" viewBox="0 0 48 48" enable-background="new 0 0 48 48" xml:space="preserve">
<path fill="#414042" d="M41.455,12.3H6.545c-1.408,0-2.554,1.146-2.554,2.554v18.31c0,1.407,1.146,2.555,2.554,2.555h34.91
	c1.408,0,2.555-1.147,2.555-2.555v-18.31C44.01,13.446,42.863,12.3,41.455,12.3z M6.545,13.3h34.91c0.857,0,1.555,0.697,1.555,1.554
	v11.321H4.992V14.854C4.992,13.997,5.688,13.3,6.545,13.3z M41.455,34.718H6.545c-0.857,0-1.554-0.697-1.554-1.554v-3.053H43.01
	v3.053C43.01,34.021,42.313,34.718,41.455,34.718z"/>
</svg>
