<?xml version="1.0" encoding="utf-8"?>
<!-- Generator: Adobe Illustrator 16.0.0, SVG Export Plug-In . SVG Version: 6.00 Build 0)  -->
<!DOCTYPE svg PUBLIC "-//W3C//DTD SVG 1.1//EN" "http://www.w3.org/Graphics/SVG/1.1/DTD/svg11.dtd">
<svg version="1.1" id="Layer_1" xmlns="http://www.w3.org/2000/svg" xmlns:xlink="http://www.w3.org/1999/xlink" x="0px" y="0px"
	 width="48px" height="48px" viewBox="0 0 48 48" enable-background="new 0 0 48 48" xml:space="preserve">
<g>
	<path fill="#414042" d="M40.449,14.737h-8.438v-3.373c0-1.971-1.602-3.574-3.572-3.574h-8.876c-1.97,0-3.573,1.604-3.573,3.574
		v3.373H7.554c-1.971,0-3.574,1.604-3.574,3.576v18.341c0,1.971,1.604,3.574,3.574,3.574h32.895c1.971,0,3.572-1.604,3.572-3.574
		V18.313C44.021,16.341,42.42,14.737,40.449,14.737z M16.99,11.364c0-1.419,1.154-2.574,2.573-2.574h8.876
		c1.418,0,2.572,1.155,2.572,2.574v3.373H16.99V11.364z M43.021,36.654c0,1.42-1.154,2.574-2.572,2.574H7.554
		c-1.419,0-2.574-1.154-2.574-2.574V18.313c0-1.42,1.155-2.576,2.574-2.576h32.895c1.418,0,2.572,1.156,2.572,2.576V36.654z"/>
	<path fill="#414042" d="M29.271,24.168c-0.678-0.375-2.589-0.923-4.667-1.11l0.016-1.947c0.002-0.276-0.22-0.501-0.496-0.504
		c-0.001,0-0.002,0-0.004,0c-0.274,0-0.498,0.221-0.5,0.496l-0.016,1.904c-1.173,0.018-4.494,0.207-4.91,1.917
		c-0.032,0.075-0.301,0.756,0.175,1.49c0.647,1,2.34,1.527,5.033,1.566l0.19,0.002c3.032,0.047,3.93,0.705,4.196,1.094
		c0.201,0.293,0.113,0.551,0.082,0.646c-0.219,0.879-2.602,1.283-4.216,1.236c-2.208-0.096-4.341-0.506-4.947-0.83
		c-0.244-0.13-0.546-0.037-0.676,0.207c-0.13,0.243-0.038,0.547,0.207,0.676c0.729,0.389,2.695,0.761,4.686,0.904l0.036,1.949
		c0.005,0.273,0.228,0.49,0.5,0.49c0.003,0,0.006,0,0.009,0c0.276-0.004,0.496-0.232,0.491-0.508l-0.035-1.891
		c1.192-0.018,4.477-0.222,4.89-1.918c0.033-0.075,0.303-0.754-0.174-1.488c-0.648-0.998-2.34-1.527-5.035-1.568l-0.191-0.002
		c-3.03-0.045-3.928-0.703-4.193-1.092c-0.201-0.293-0.114-0.551-0.082-0.647c0.218-0.88,2.604-1.255,4.213-1.237
		c2.065,0.094,4.266,0.667,4.934,1.037c0.238,0.133,0.545,0.047,0.68-0.195C29.6,24.607,29.514,24.303,29.271,24.168z"/>
</g>
</svg>
