<?xml version="1.0" encoding="utf-8"?>
<!-- Generator: Adobe Illustrator 16.0.0, SVG Export Plug-In . SVG Version: 6.00 Build 0)  -->
<!DOCTYPE svg PUBLIC "-//W3C//DTD SVG 1.1//EN" "http://www.w3.org/Graphics/SVG/1.1/DTD/svg11.dtd">
<svg version="1.1" id="Layer_1" xmlns="http://www.w3.org/2000/svg" xmlns:xlink="http://www.w3.org/1999/xlink" x="0px" y="0px"
	 width="48px" height="48px" viewBox="0 0 48 48" enable-background="new 0 0 48 48" xml:space="preserve">
<path fill="#414042" d="M43.164,15.133c-0.133-0.201-0.391-0.279-0.607-0.186l-7.594,3.155l-5.977-8.057
	c-0.148-0.201-0.424-0.259-0.639-0.143c-0.219,0.118-0.318,0.378-0.232,0.611l3.609,9.934l-1.042,0.728
	c-0.092-0.117-0.228-0.196-0.388-0.196H8.698c-0.24,0-0.446,0.17-0.491,0.406l-1.372,7.194c-0.214,0.025-0.392,0.181-0.433,0.396
	l-1.64,8.607c-0.028,0.146,0.011,0.299,0.106,0.412c0.095,0.115,0.236,0.182,0.385,0.182h33.913c0.008,0.002,0.014,0.002,0.02,0
	c0.275,0,0.5-0.224,0.5-0.5c0-0.082-0.02-0.158-0.055-0.227l-1.617-8.475c-0.005-0.026-0.02-0.049-0.028-0.074l1.271,1.434
	c0.098,0.109,0.234,0.168,0.373,0.168c0.004,0,0.008,0,0.012,0c0.256,0,0.508-0.221,0.508-0.5c0-0.104-0.031-0.201-0.086-0.282
	l-2.775-8.267l5.811-5.687C43.27,15.598,43.297,15.333,43.164,15.133z M9.111,21.979h20.42l-4.81,3.359
	c-0.198,0.139-0.269,0.398-0.169,0.617c0.101,0.22,0.344,0.336,0.577,0.278l8.586-2.151l2.538,2.864l0.31,1.622H7.855L9.111,21.979z
	 M38.561,37.176H5.857l1.449-7.607h29.803L38.561,37.176z M37.583,28.579l-0.032-0.169l0.191,0.216
	C37.692,28.602,37.64,28.586,37.583,28.579z M36.363,20.958c-0.137,0.134-0.186,0.335-0.123,0.517l2.133,6.358l-1.188-1.342
	l-0.03-0.156c-0.044-0.228-0.241-0.378-0.458-0.395l-2.435-2.747c-0.096-0.108-0.232-0.168-0.375-0.168
	c-0.039,0-0.08,0.005-0.121,0.015l-6.246,1.564l5.092-3.556c0.186-0.13,0.262-0.368,0.184-0.581l-2.57-7.073l4.168,5.618
	c0.137,0.185,0.383,0.252,0.594,0.164l5.559-2.31L36.363,20.958z"/>
</svg>
