<?xml version="1.0" encoding="utf-8"?>
<!-- Generator: Adobe Illustrator 16.0.0, SVG Export Plug-In . SVG Version: 6.00 Build 0)  -->
<!DOCTYPE svg PUBLIC "-//W3C//DTD SVG 1.1//EN" "http://www.w3.org/Graphics/SVG/1.1/DTD/svg11.dtd">
<svg version="1.1" id="Layer_1" xmlns="http://www.w3.org/2000/svg" xmlns:xlink="http://www.w3.org/1999/xlink" x="0px" y="0px"
	 width="48px" height="48px" viewBox="0 0 48 48" enable-background="new 0 0 48 48" xml:space="preserve">
<g>
	<path fill="#414042" d="M9.272,13.772l10.681-7.684c2.975-1.972,5.348-1.974,8.186-0.011l10.695,7.695
		c0.088,0.063,0.191,0.094,0.293,0.094c0.154,0,0.309-0.072,0.406-0.208c0.16-0.224,0.109-0.537-0.115-0.698L28.715,5.26
		c-3.154-2.183-6.027-2.186-9.331,0.005L8.688,12.96c-0.224,0.161-0.275,0.474-0.114,0.698C8.735,13.882,9.048,13.934,9.272,13.772z
		"/>
	<path fill="#414042" d="M6.323,17.403H41.68c0.275,0,0.5-0.224,0.5-0.5s-0.225-0.5-0.5-0.5H6.323c-0.276,0-0.5,0.224-0.5,0.5
		S6.046,17.403,6.323,17.403z"/>
	<path fill="#414042" d="M41.68,37.404H6.323c-0.276,0-0.5,0.223-0.5,0.5c0,0.275,0.224,0.499,0.5,0.499H41.68
		c0.275,0,0.5-0.224,0.5-0.499C42.18,37.627,41.955,37.404,41.68,37.404z"/>
	<path fill="#414042" d="M31.326,40.404h-14.65c-0.276,0-0.5,0.223-0.5,0.5c0,0.275,0.224,0.499,0.5,0.499h14.65
		c0.275,0,0.5-0.224,0.5-0.499C31.826,40.627,31.602,40.404,31.326,40.404z"/>
	<path fill="#414042" d="M29.434,43.404H18.569c-0.276,0-0.5,0.223-0.5,0.5c0,0.275,0.224,0.499,0.5,0.499h10.865
		c0.275,0,0.5-0.224,0.5-0.499C29.934,43.627,29.709,43.404,29.434,43.404z"/>
	<path fill="#414042" d="M9.225,20.386v14.366c0,0.275,0.224,0.499,0.5,0.499s0.5-0.224,0.5-0.499V20.386c0-0.276-0.224-0.5-0.5-0.5
		S9.225,20.109,9.225,20.386z"/>
	<path fill="#414042" d="M18.892,20.386v14.366c0,0.275,0.224,0.499,0.5,0.499s0.5-0.224,0.5-0.499V20.386
		c0-0.276-0.224-0.5-0.5-0.5S18.892,20.109,18.892,20.386z"/>
	<path fill="#414042" d="M28.559,20.386v14.366c0,0.275,0.223,0.499,0.5,0.499c0.275,0,0.5-0.224,0.5-0.499V20.386
		c0-0.276-0.225-0.5-0.5-0.5C28.781,19.886,28.559,20.109,28.559,20.386z"/>
	<path fill="#414042" d="M38.225,20.386v14.366c0,0.275,0.225,0.499,0.5,0.499c0.277,0,0.5-0.224,0.5-0.499V20.386
		c0-0.276-0.223-0.5-0.5-0.5C38.449,19.886,38.225,20.109,38.225,20.386z"/>
</g>
</svg>
