<?xml version="1.0" encoding="utf-8"?>
<!-- Generator: Adobe Illustrator 16.0.0, SVG Export Plug-In . SVG Version: 6.00 Build 0)  -->
<!DOCTYPE svg PUBLIC "-//W3C//DTD SVG 1.1//EN" "http://www.w3.org/Graphics/SVG/1.1/DTD/svg11.dtd">
<svg version="1.1" id="Layer_1" xmlns="http://www.w3.org/2000/svg" xmlns:xlink="http://www.w3.org/1999/xlink" x="0px" y="0px"
	 width="48px" height="48px" viewBox="0 0 48 48" enable-background="new 0 0 48 48" xml:space="preserve">
<g>
	<path fill="#414042" d="M34.102,11.191c1.613,0,2.928-1.313,2.928-2.926s-1.314-2.926-2.928-2.926s-2.926,1.313-2.926,2.926
		S32.488,11.191,34.102,11.191z M34.102,6.339c1.063,0,1.928,0.864,1.928,1.926s-0.865,1.926-1.928,1.926s-1.926-0.864-1.926-1.926
		S33.039,6.339,34.102,6.339z"/>
	<path fill="#414042" d="M39.213,27.154c0.941-5.691,0.525-9.631-1.234-11.709c-0.938-1.105-1.977-1.307-2.338-1.344
		c-0.24-0.109-0.859-0.35-1.668-0.35c-0.6,0-1.186,0.131-1.738,0.388c-0.064,0.03-0.121,0.073-0.166,0.126l-5.688,6.57l-4.293,1.208
		c-0.685-2.996-1.452-5.926-1.893-6.445c-0.057-0.067-0.13-0.118-0.213-0.147l-9.126-3.259c-0.373-0.303-0.779-0.462-1.18-0.462
		c-0.895,0-1.545,0.784-1.545,1.864V41.02c0,0.914,0.745,1.66,1.66,1.66h12.044c0.916,0,1.66-0.746,1.66-1.66V29.049
		c0-0.146-0.137-0.933-0.355-2.053l5.041-1.346c0.08-0.021,0.154-0.063,0.215-0.119l1.064-1l0.059,4.79L28.76,42.15
		c-0.008,0.137,0.041,0.271,0.135,0.371c0.094,0.101,0.227,0.158,0.363,0.158h3.52c0.248,0,0.459-0.184,0.494-0.428l1.248-8.578
		l1.168,8.572c0.033,0.248,0.246,0.434,0.496,0.434h3.188c0.137,0,0.266-0.057,0.361-0.154c0.094-0.1,0.145-0.232,0.139-0.367
		L39.213,27.154z M22.495,41.02c0,0.363-0.296,0.659-0.66,0.659H9.791c-0.364,0-0.66-0.296-0.66-0.659V13.595
		c0-0.517,0.219-0.864,0.545-0.864c0.18,0,0.392,0.099,0.597,0.279c0.047,0.042,0.102,0.074,0.162,0.095l9.054,3.233
		c0.347,0.662,1.081,3.558,1.737,6.427c0,0.003,0,0.006,0,0.009l0.849,3.962c0.004,0.02,0.017,0.034,0.023,0.053
		c0.233,1.152,0.386,2.006,0.397,2.26V41.02z M36.619,41.679l-1.59-11.657c-0.033-0.246-0.244-0.432-0.492-0.432
		c-0.002,0-0.002,0-0.002,0c-0.248,0-0.459,0.182-0.496,0.428l-1.695,11.661h-2.555l0.729-12.334l-0.074-5.963
		c-0.002-0.198-0.121-0.376-0.305-0.454c-0.18-0.077-0.393-0.04-0.537,0.096l-1.801,1.693l-4.857,1.297
		c-0.184-0.905-0.401-1.936-0.636-2.992l4.489-1.264c0.094-0.027,0.18-0.08,0.242-0.154l5.713-6.6
		c0.391-0.167,0.801-0.252,1.221-0.252c0.758,0,1.295,0.279,1.299,0.281c0.068,0.038,0.152,0.059,0.232,0.061
		c0.037,0.001,0.914,0.034,1.742,1.034c1.059,1.282,2.088,4.216,0.973,10.915c-0.006,0.034-0.008,0.069-0.008,0.104l0.637,14.532
		H36.619z"/>
</g>
</svg>
