<?xml version="1.0" encoding="utf-8"?>
<!-- Generator: Adobe Illustrator 16.0.0, SVG Export Plug-In . SVG Version: 6.00 Build 0)  -->
<!DOCTYPE svg PUBLIC "-//W3C//DTD SVG 1.1//EN" "http://www.w3.org/Graphics/SVG/1.1/DTD/svg11.dtd">
<svg version="1.1" id="Layer_1" xmlns="http://www.w3.org/2000/svg" xmlns:xlink="http://www.w3.org/1999/xlink" x="0px" y="0px"
	 width="48px" height="48px" viewBox="0 0 48 48" enable-background="new 0 0 48 48" xml:space="preserve">
<g>
	<path fill="#414042" d="M43.865,13.556c0-0.276-0.225-0.5-0.5-0.5h-6.666c-0.277,0-0.5,0.224-0.5,0.5v29.045h-3.021V17.496
		c0-0.276-0.225-0.5-0.5-0.5h-6.666c-0.277,0-0.5,0.224-0.5,0.5v25.106H22.49V20.724c0-0.276-0.224-0.5-0.5-0.5h-6.666
		c-0.276,0-0.5,0.224-0.5,0.5v21.877h-3.021v-17.5c0-0.277-0.224-0.5-0.5-0.5H4.636c-0.276,0-0.5,0.224-0.5,0.5v18
		c0,0.275,0.224,0.499,0.5,0.499h38.729c0.275,0,0.5-0.224,0.5-0.499c0-0.021-0.01-0.038-0.012-0.059
		c0.002-0.02,0.012-0.037,0.012-0.058V13.556z M37.199,14.056h5.666v28.545h-5.666V14.056z M26.512,17.996h5.666v24.606h-5.666
		V17.996z M15.824,21.224h5.666v21.377h-5.666V21.224z M10.802,25.601v17.001H5.136V25.601H10.802z"/>
	<path fill="#414042" d="M4.637,21.058c0.111,0,0.223-0.037,0.315-0.113l7.198-5.871l3.83,2.089
		c0.165,0.091,0.368,0.081,0.521-0.026L25,11.323l6.262,2.207c0.131,0.047,0.277,0.036,0.4-0.03L42.41,7.796l-0.424,3.537
		c-0.033,0.274,0.162,0.523,0.436,0.556c0.021,0.002,0.041,0.003,0.061,0.003c0.25,0,0.465-0.187,0.496-0.44l0.541-4.51
		c0.025-0.213-0.088-0.419-0.281-0.511l-4.141-1.965c-0.248-0.118-0.547-0.013-0.666,0.237c-0.119,0.25-0.012,0.548,0.236,0.666
		l3.264,1.548l-10.545,5.596l-6.293-2.218c-0.149-0.052-0.317-0.031-0.449,0.059l-8.455,5.784l-3.856-2.104
		c-0.177-0.097-0.398-0.077-0.555,0.052L4.32,20.171c-0.214,0.174-0.246,0.489-0.071,0.703C4.348,20.995,4.492,21.058,4.637,21.058z
		"/>
</g>
</svg>
