<?xml version="1.0" encoding="utf-8"?>
<!-- Generator: Adobe Illustrator 16.0.0, SVG Export Plug-In . SVG Version: 6.00 Build 0)  -->
<!DOCTYPE svg PUBLIC "-//W3C//DTD SVG 1.1//EN" "http://www.w3.org/Graphics/SVG/1.1/DTD/svg11.dtd">
<svg version="1.1" id="Layer_1" xmlns="http://www.w3.org/2000/svg" xmlns:xlink="http://www.w3.org/1999/xlink" x="0px" y="0px"
	 width="48px" height="48px" viewBox="0 0 48 48" enable-background="new 0 0 48 48" xml:space="preserve">
<g>
	<path fill="#414042" d="M42.594,9.842l-0.008-6.188c0.043-0.757-0.16-1.364-0.6-1.804c-0.727-0.726-1.83-0.67-1.939-0.663
		L16.078,5.657c-0.117,0.022-0.223,0.085-0.298,0.178l-6.103,7.567c-1.884,0.4-3.302,2.072-3.302,4.071v2.282
		c-0.206-0.05-0.43,0.028-0.546,0.221C1.404,27.349,2.924,31.3,4.224,32.999c1.866,2.438,5.43,3.272,9.303,2.173
		c5.264-1.487,8.016,0.443,9.045,1.473l-9.301,2.308c-0.129,0.032-0.24,0.114-0.309,0.228s-0.089,0.25-0.057,0.379l1.001,4.021
		c0.057,0.227,0.261,0.379,0.485,0.379c0.04,0,0.08-0.005,0.121-0.015c0.268-0.067,0.431-0.339,0.364-0.606l-0.88-3.535
		l18.159-4.506l0.922,3.717c0.066,0.266,0.332,0.428,0.605,0.364c0.27-0.066,0.432-0.338,0.365-0.606l-1.043-4.201
		c-0.066-0.268-0.336-0.432-0.605-0.364l-8.725,2.165c-0.808-0.984-3.908-4.002-10.42-2.16c-3.475,0.981-6.628,0.284-8.236-1.82
		c-1.908-2.492-1.418-6.515,1.355-11.36v4.292c0,2.299,1.87,4.17,4.169,4.17h15.478c0.275,0,0.5-0.224,0.5-0.5s-0.225-0.5-0.5-0.5
		H10.543c-1.747,0-3.169-1.422-3.169-3.17v-7.85c0-1.745,1.422-3.164,3.23-3.168l30.44-3.779c1.748,0,3.17,1.424,3.17,3.174v12.713
		c0,0.276,0.223,0.5,0.5,0.5c0.275,0,0.5-0.224,0.5-0.5V13.699C45.215,11.956,44.14,10.464,42.594,9.842z M17.025,12.504l1.82-2.261
		l18.249-3.408c0.006-0.004,0.498-0.015,0.773,0.259c0.154,0.156,0.223,0.39,0.203,0.745l0.004,2.052L17.025,12.504z M40.99,9.529
		c-0.002,0-0.006,0-0.008,0l-1.909,0.237l-0.005-1.9c0.045-0.771-0.244-1.23-0.496-1.48c-0.584-0.585-1.438-0.555-1.598-0.542
		L18.48,9.293c-0.117,0.022-0.223,0.085-0.298,0.178l-2.521,3.133c-0.018,0.022-0.024,0.049-0.038,0.073l-4.53,0.563l5.35-6.634
		l23.721-4.429c0.008-0.001,0.713-0.027,1.119,0.383c0.227,0.23,0.33,0.579,0.303,1.065l0.007,5.963
		C41.395,9.561,41.197,9.529,40.99,9.529z"/>
	<path fill="#414042" d="M33.955,41.062l-19.242,4.771c-0.269,0.066-0.432,0.338-0.365,0.605c0.057,0.228,0.261,0.38,0.485,0.38
		c0.039,0,0.08-0.005,0.12-0.015l19.242-4.771c0.27-0.066,0.432-0.338,0.365-0.605C34.494,41.158,34.225,40.994,33.955,41.062z"/>
	<path fill="#414042" d="M34.746,16.783c-4.061,0-7.365,3.301-7.365,7.359c0,4.063,3.305,7.367,7.365,7.367s7.363-3.305,7.363-7.367
		C42.109,20.084,38.807,16.783,34.746,16.783z M34.746,30.51c-3.51,0-6.365-2.856-6.365-6.367c0-3.506,2.855-6.359,6.365-6.359
		c3.508,0,6.363,2.853,6.363,6.359C41.109,27.653,38.254,30.51,34.746,30.51z"/>
</g>
</svg>
