<?xml version="1.0" encoding="utf-8"?>
<!-- Generator: Adobe Illustrator 16.0.0, SVG Export Plug-In . SVG Version: 6.00 Build 0)  -->
<!DOCTYPE svg PUBLIC "-//W3C//DTD SVG 1.1//EN" "http://www.w3.org/Graphics/SVG/1.1/DTD/svg11.dtd">
<svg version="1.1" id="Layer_1" xmlns="http://www.w3.org/2000/svg" xmlns:xlink="http://www.w3.org/1999/xlink" x="0px" y="0px"
	 width="48px" height="48px" viewBox="0 0 48 48" enable-background="new 0 0 48 48" xml:space="preserve">
<g>
	<path fill="#414042" d="M44.191,18.763c0.015-0.046,0.029-0.093,0.029-0.145v-5.225c0-1.896-1.543-3.438-3.438-3.438h-6.39
		l-4.363-4.772c-0.187-0.205-0.504-0.218-0.706-0.032c-0.204,0.187-0.219,0.503-0.032,0.707l3.746,4.098H7.311
		c-1.896,0-3.438,1.542-3.438,3.438v5.225c0,0.052,0.015,0.099,0.029,0.146c-0.278,0.412-0.44,0.907-0.44,1.439v20.2
		c0,1.421,1.156,2.576,2.578,2.576h36.016c1.422,0,2.578-1.155,2.578-2.576v-20.2C44.633,19.67,44.47,19.174,44.191,18.763z
		 M40.782,10.956c1.345,0,2.438,1.094,2.438,2.438v4.524c-0.352-0.18-0.744-0.292-1.166-0.292h-0.649l-6.099-6.67H40.782z
		 M7.311,10.956h26.642l6.099,6.67H6.039c-0.422,0-0.815,0.112-1.167,0.292v-4.524C4.872,12.05,5.966,10.956,7.311,10.956z
		 M43.633,40.403c0,0.869-0.708,1.576-1.578,1.576H6.039c-0.87,0-1.578-0.707-1.578-1.576v-20.2c0-0.869,0.708-1.577,1.578-1.577
		h36.016c0.87,0,1.578,0.708,1.578,1.577V40.403z"/>
	<path fill="#414042" d="M13.297,27.364c-2.895,0-5.25,2.356-5.25,5.252c0,2.894,2.355,5.248,5.25,5.248s5.25-2.354,5.25-5.248
		C18.547,29.721,16.191,27.364,13.297,27.364z M13.297,36.864c-2.344,0-4.25-1.905-4.25-4.248c0-2.345,1.906-4.252,4.25-4.252
		s4.25,1.907,4.25,4.252C17.547,34.959,15.641,36.864,13.297,36.864z"/>
	<path fill="#414042" d="M35.046,29.802c-1.552,0-2.813,1.263-2.813,2.814c0,1.55,1.262,2.811,2.813,2.811s2.813-1.261,2.813-2.811
		C37.859,31.064,36.598,29.802,35.046,29.802z M35.046,34.427c-1,0-1.813-0.812-1.813-1.811c0-1,0.813-1.814,1.813-1.814
		s1.813,0.814,1.813,1.814C36.859,33.615,36.046,34.427,35.046,34.427z"/>
	<path fill="#414042" d="M28.296,30.481h-5.999c-0.276,0-0.5,0.224-0.5,0.5s0.224,0.5,0.5,0.5h5.999c0.276,0,0.5-0.224,0.5-0.5
		S28.572,30.481,28.296,30.481z"/>
	<path fill="#414042" d="M27.703,34.981h-4.813c-0.276,0-0.5,0.224-0.5,0.5s0.224,0.5,0.5,0.5h4.813c0.276,0,0.5-0.224,0.5-0.5
		S27.979,34.981,27.703,34.981z"/>
	<path fill="#414042" d="M40.789,21.013H9.047c-0.276,0-0.5,0.224-0.5,0.5v3.656c0,0.276,0.224,0.5,0.5,0.5h31.742
		c0.276,0,0.5-0.224,0.5-0.5v-3.656C41.289,21.236,41.065,21.013,40.789,21.013z M9.547,22.013h15.25l-0.001,2.656H9.547V22.013z
		 M40.289,24.669H25.796l0.001-2.656h14.492V24.669z"/>
</g>
</svg>
