<?xml version="1.0" encoding="utf-8"?>
<!-- Generator: Adobe Illustrator 16.0.0, SVG Export Plug-In . SVG Version: 6.00 Build 0)  -->
<!DOCTYPE svg PUBLIC "-//W3C//DTD SVG 1.1//EN" "http://www.w3.org/Graphics/SVG/1.1/DTD/svg11.dtd">
<svg version="1.1" id="Layer_1" xmlns="http://www.w3.org/2000/svg" xmlns:xlink="http://www.w3.org/1999/xlink" x="0px" y="0px"
	 width="48px" height="48px" viewBox="0 0 48 48" enable-background="new 0 0 48 48" xml:space="preserve">
<g>
	<path fill="#414042" d="M46.759,10.869H1.335c-0.276,0-0.5,0.224-0.5,0.5v25.262c0,0.276,0.224,0.5,0.5,0.5h45.424
		c0.276,0,0.5-0.224,0.5-0.5V11.369C47.259,11.093,47.035,10.869,46.759,10.869z M46.259,36.131H1.835V11.869h44.424V36.131z"/>
	<path fill="#414042" d="M6.634,30.66h19.374c0.276,0,0.5-0.224,0.5-0.5V17.375c0-0.276-0.224-0.5-0.5-0.5H6.634
		c-0.276,0-0.5,0.224-0.5,0.5V30.16C6.134,30.437,6.357,30.66,6.634,30.66z M7.134,17.875h18.374V29.66H7.134V17.875z"/>
	<path fill="#414042" d="M32.563,19.633h2.666c0.276,0,0.5-0.224,0.5-0.5s-0.224-0.5-0.5-0.5h-2.666c-0.276,0-0.5,0.224-0.5,0.5
		S32.286,19.633,32.563,19.633z"/>
	<path fill="#414042" d="M39.517,19.633h2.664c0.276,0,0.5-0.224,0.5-0.5s-0.224-0.5-0.5-0.5h-2.664c-0.276,0-0.5,0.224-0.5,0.5
		S39.24,19.633,39.517,19.633z"/>
	<path fill="#414042" d="M32.563,24.268h2.666c0.276,0,0.5-0.224,0.5-0.5s-0.224-0.5-0.5-0.5h-2.666c-0.276,0-0.5,0.224-0.5,0.5
		S32.286,24.268,32.563,24.268z"/>
	<path fill="#414042" d="M39.517,24.268h2.664c0.276,0,0.5-0.224,0.5-0.5s-0.224-0.5-0.5-0.5h-2.664c-0.276,0-0.5,0.224-0.5,0.5
		S39.24,24.268,39.517,24.268z"/>
	<path fill="#414042" d="M32.563,30.777h9.618c0.276,0,0.5-0.224,0.5-0.5s-0.224-0.5-0.5-0.5h-9.618c-0.276,0-0.5,0.224-0.5,0.5
		S32.286,30.777,32.563,30.777z"/>
</g>
</svg>
