<?xml version="1.0" encoding="utf-8"?>
<!-- Generator: Adobe Illustrator 16.0.0, SVG Export Plug-In . SVG Version: 6.00 Build 0)  -->
<!DOCTYPE svg PUBLIC "-//W3C//DTD SVG 1.1//EN" "http://www.w3.org/Graphics/SVG/1.1/DTD/svg11.dtd">
<svg version="1.1" id="Layer_1" xmlns="http://www.w3.org/2000/svg" xmlns:xlink="http://www.w3.org/1999/xlink" x="0px" y="0px"
	 width="48px" height="48px" viewBox="0 0 48 48" enable-background="new 0 0 48 48" xml:space="preserve">
<g>
	<path fill="#414042" d="M45.818,13.327c-0.132-0.586-0.873-1.725-2.799-1.591L23.41,13.05c-0.106,0.004-2.505,0.124-4.295,1.526
		c-0.04-0.011-0.079-0.024-0.123-0.024h-2.771c-0.119,0-0.232,0.046-0.317,0.129l-5.467,5.352c-0.132,0.129-0.172,0.325-0.103,0.495
		s0.235,0.282,0.419,0.282h1.59l-9.636,8.914c-0.067,0.085-0.653,0.849-0.368,1.622c0.194,0.523,0.714,0.869,1.632,1.035h38.24
		c1.128,0,3.336-0.613,3.617-2.986V13.427C45.83,13.393,45.826,13.36,45.818,13.327z M11.866,19.903l4.541-4.445h1.724l-4.861,4.497
		c-0.061-0.031-0.127-0.052-0.2-0.052H11.866z M42.211,31.475L4.058,31.482c-0.484-0.092-0.792-0.252-0.866-0.45
		c-0.088-0.233,0.114-0.603,0.179-0.692L19.46,15.464c1.555-1.386,3.964-1.507,3.998-1.509l19.622-1.314
		c0.084-0.005,0.166-0.008,0.243-0.008c1.228,0,1.54,0.677,1.601,0.858l0.004,15.851C44.677,31.437,42.312,31.474,42.211,31.475z"/>
	<path fill="#414042" d="M37.942,17.1l-14.029,0.615c-4.054,0.935-8.079,5.918-8.248,6.13c-0.037,0.046-0.064,0.1-0.08,0.156
		c-0.219,0.748-0.134,1.388,0.251,1.902c0.822,1.096,2.733,1.107,2.814,1.107h15.486h0.035c0.002,0,0.002,0,0.002,0
		c3.815,0,4.234-2.917,4.241-3.004v-6.453c0-0.124-0.05-0.242-0.14-0.328C38.187,17.141,38.066,17.091,37.942,17.1z M31.079,26.104
		h-6.581v-1.245c0-0.419,0.342-0.761,0.762-0.761h5.058c0.419,0,0.761,0.342,0.761,0.761V26.104z M34.174,26.104h-0.035h-2.153
		v-1.245c0-0.919-0.748-1.667-1.667-1.667h-5.058c-0.919,0-1.668,0.748-1.668,1.667v1.245h-4.941
		c-0.427-0.001-1.636-0.138-2.091-0.746c-0.194-0.26-0.236-0.594-0.129-1.018c0.502-0.608,4.178-4.934,7.603-5.731l13.474-0.583
		l0.005,5.919C37.5,24.033,37.17,26.104,34.174,26.104z"/>
	<path fill="#414042" d="M44.699,35.368H3.395c-0.25,0-0.453,0.202-0.453,0.453s0.203,0.453,0.453,0.453h41.304
		c0.25,0,0.453-0.202,0.453-0.453S44.949,35.368,44.699,35.368z"/>
</g>
</svg>
