<?xml version="1.0" encoding="utf-8"?>
<!-- Generator: Adobe Illustrator 16.0.0, SVG Export Plug-In . SVG Version: 6.00 Build 0)  -->
<!DOCTYPE svg PUBLIC "-//W3C//DTD SVG 1.1//EN" "http://www.w3.org/Graphics/SVG/1.1/DTD/svg11.dtd">
<svg version="1.1" id="Layer_1" xmlns="http://www.w3.org/2000/svg" xmlns:xlink="http://www.w3.org/1999/xlink" x="0px" y="0px"
	 width="48px" height="48px" viewBox="0 0 48 48" enable-background="new 0 0 48 48" xml:space="preserve">
<g>
	<path fill="#414042" d="M24.046,2.144c9.572,0,17.359,7.788,17.359,17.359c0,4.025-1.409,7.949-3.968,11.049
		c-0.176,0.213-0.146,0.528,0.067,0.704c0.093,0.076,0.206,0.114,0.318,0.114c0.144,0,0.287-0.062,0.386-0.182
		c2.706-3.278,4.196-7.429,4.196-11.686c0-10.124-8.236-18.359-18.359-18.359c-10.122,0-18.357,8.236-18.357,18.359
		c0,3.951,1.233,7.712,3.566,10.877c0.163,0.224,0.477,0.27,0.699,0.105c0.222-0.163,0.27-0.477,0.105-0.699
		c-2.205-2.991-3.371-6.547-3.371-10.283C6.688,9.931,14.475,2.144,24.046,2.144z"/>
	<path fill="#414042" d="M15.92,27.479c0.017-0.049,0.024-0.101,0.024-0.155c-0.001-0.275-0.225-0.498-0.5-0.498
		c0,0-0.002,0-0.004,0h-0.025c-0.001,0-0.002,0-0.003,0c0,0,0,0-0.001,0c-1.958,0.029-3.492,2.634-3.492,5.93
		c0,3.323,1.549,5.928,3.525,5.928h0.059c0.007,0.001,0.015,0.001,0.02,0c0.276,0,0.5-0.224,0.5-0.5c0-0.05-0.007-0.099-0.021-0.144
		L15.92,27.479z M12.919,32.755c0-2.317,0.877-4.333,2.005-4.819l0.074,9.666C13.833,37.178,12.919,35.13,12.919,32.755z"/>
	<path fill="#414042" d="M31.421,38.183c0,0.276,0.224,0.5,0.5,0.5c0.005,0.001,0.013,0.001,0.02,0h0.059
		c1.977,0,3.525-2.604,3.525-5.928c0-3.296-1.534-5.9-3.492-5.93c-0.001,0-0.001,0-0.001,0c-0.001,0-0.002,0-0.003,0h-0.025
		c-0.002,0-0.004,0-0.004,0c-0.275,0-0.499,0.223-0.5,0.498c0,0.055,0.008,0.106,0.024,0.155l-0.082,10.561
		C31.428,38.084,31.421,38.133,31.421,38.183z M32.52,27.936c1.128,0.486,2.005,2.502,2.005,4.819c0,2.375-0.914,4.423-2.079,4.847
		L32.52,27.936z"/>
	<path fill="#414042" d="M41.905,29.356c-0.276,0-0.5,0.224-0.5,0.5l0.008,10.663c-0.024,0.137-0.636,3.371-3.414,3.587H25.662
		c-0.355-0.592-1.05-1-1.856-1c-1.163,0-2.109,0.841-2.109,1.875s0.946,1.875,2.109,1.875c1.116,0,2.023-0.775,2.097-1.75
		l12.135-0.001c2.877-0.222,4.11-2.983,4.368-4.499v-10.75C42.405,29.58,42.182,29.356,41.905,29.356z M23.806,45.856
		c-0.611,0-1.109-0.393-1.109-0.875s0.498-0.875,1.109-0.875c0.612,0,1.111,0.393,1.111,0.875S24.418,45.856,23.806,45.856z"/>
</g>
</svg>
