<?xml version="1.0" encoding="utf-8"?>
<!-- Generator: Adobe Illustrator 16.0.0, SVG Export Plug-In . SVG Version: 6.00 Build 0)  -->
<!DOCTYPE svg PUBLIC "-//W3C//DTD SVG 1.1//EN" "http://www.w3.org/Graphics/SVG/1.1/DTD/svg11.dtd">
<svg version="1.1" id="Layer_1" xmlns="http://www.w3.org/2000/svg" xmlns:xlink="http://www.w3.org/1999/xlink" x="0px" y="0px"
	 width="48px" height="48px" viewBox="0 0 48 48" enable-background="new 0 0 48 48" xml:space="preserve">
<path fill="#414042" d="M40.979,18.831c-3.832-7.926-9.164-13.461-12.965-13.461c-0.529,0-1.023,0.109-1.469,0.325
	c-1.764,0.852-2.592,3.277-2.37,6.829c0,0.003-0.002,0.006-0.003,0.01c-0.338,3.551-2.395,7.891-5.642,11.909
	c-2.018,2.495-4.371,4.574-6.817,6.041c-0.772-0.461-1.664-0.726-2.592-0.726c-0.756,0-1.487,0.166-2.175,0.494l-0.686,0.327
	c-1.221,0.58-2.143,1.601-2.595,2.876c-0.452,1.274-0.38,2.65,0.202,3.873l1.152,2.42c0.837,1.753,2.634,2.885,4.576,2.885
	c0.756,0,1.487-0.165,2.175-0.492l0.687-0.328c1.221-0.582,2.143-1.604,2.595-2.879c0.107-0.304,0.181-0.614,0.229-0.927
	c2.253-1.127,4.873-1.963,7.602-2.415c5.2-0.861,9.984-0.555,13.153,0.831c1.711,1.412,3.366,2.205,4.803,2.205
	c0.529,0,1.023-0.109,1.471-0.325C45.982,36.525,45.396,27.973,40.979,18.831z M14.11,38.597c-0.362,1.023-1.102,1.845-2.082,2.312
	l-0.687,0.328c-0.552,0.262-1.139,0.395-1.744,0.395c-1.56,0-3.002-0.908-3.674-2.314l-1.152-2.42
	c-0.467-0.982-0.524-2.086-0.161-3.109c0.362-1.022,1.102-1.842,2.082-2.307l0.686-0.328c0.552-0.264,1.139-0.396,1.744-0.396
	c1.561,0,3.003,0.909,3.673,2.316l1.154,2.42C14.416,36.471,14.473,37.574,14.11,38.597z M22.721,34.604
	c-2.634,0.436-5.165,1.23-7.395,2.283c-0.044-0.625-0.197-1.243-0.475-1.825l-1.154-2.419c-0.277-0.583-0.668-1.088-1.127-1.515
	c2.422-1.513,4.742-3.59,6.739-6.058c2.524-3.123,4.355-6.452,5.265-9.499c0.334,1.725,0.858,3.555,1.541,5.425
	c0.005,0.01,0.004,0.021,0.009,0.031c0.001,0.002,0.004,0.004,0.005,0.006c0.5,1.366,1.078,2.75,1.745,4.129
	c1.897,3.922,4.162,7.256,6.426,9.627C31.129,33.971,27.061,33.885,22.721,34.604z M27.195,21.04l4.809-2.463
	c0.154-0.08,0.332-0.095,0.5-0.041c0.166,0.054,0.301,0.168,0.381,0.324l2.898,5.654c0.078,0.156,0.094,0.333,0.039,0.499
	c-0.053,0.166-0.168,0.301-0.344,0.392l-4.841,2.765c-0.654-1.09-1.282-2.238-1.864-3.441C28.177,23.496,27.655,22.261,27.195,21.04
	z M41.875,37.4c-0.309,0.15-0.658,0.226-1.035,0.226c-2.635,0-6.44-3.493-9.678-8.604l4.791-2.736
	c0.395-0.201,0.686-0.543,0.822-0.964c0.135-0.419,0.098-0.867-0.102-1.262l-2.898-5.654c-0.201-0.393-0.543-0.685-0.963-0.82
	c-0.424-0.137-0.871-0.101-1.266,0.103l-4.701,2.409c-0.901-2.582-1.474-5.068-1.656-7.264c-0.272-3.283,0.381-5.556,1.791-6.238
	c0.309-0.149,0.656-0.225,1.033-0.225c3.322,0,8.51,5.544,12.064,12.897C44.113,27.615,44.936,35.92,41.875,37.4z"/>
</svg>
