<?xml version="1.0" encoding="utf-8"?>
<!-- Generator: Adobe Illustrator 16.0.0, SVG Export Plug-In . SVG Version: 6.00 Build 0)  -->
<!DOCTYPE svg PUBLIC "-//W3C//DTD SVG 1.1//EN" "http://www.w3.org/Graphics/SVG/1.1/DTD/svg11.dtd">
<svg version="1.1" id="Layer_1" xmlns="http://www.w3.org/2000/svg" xmlns:xlink="http://www.w3.org/1999/xlink" x="0px" y="0px"
	 width="48px" height="48px" viewBox="0 0 48 48" enable-background="new 0 0 48 48" xml:space="preserve">
<g>
	<path fill="#414042" d="M40.115,14.138H7.98c-2.479,0-4.496,2.017-4.496,4.496v9.324v1.995c0,0.145,0.063,0.282,0.172,0.377
		l3.912,3.409c0.091,0.079,0.207,0.123,0.328,0.123h32.385c0.118,0,0.233-0.042,0.323-0.118l3.828-3.246
		c0.112-0.096,0.177-0.234,0.177-0.382v-2.413v-9.069C44.609,16.155,42.594,14.138,40.115,14.138z M43.609,29.885l-3.512,2.978
		H8.084l-3.6-3.137v-1.522h39.125V29.885z M43.609,27.203H4.484v-3.665h39.125V27.203z M43.609,22.538H4.484v-3.904
		c0-1.928,1.568-3.496,3.496-3.496h32.135c1.927,0,3.494,1.568,3.494,3.496V22.538z"/>
	<path fill="#414042" d="M39.914,30.974c0.276,0,0.5-0.224,0.5-0.5v-0.355c0-0.276-0.224-0.5-0.5-0.5s-0.5,0.224-0.5,0.5v0.355
		C39.414,30.75,39.638,30.974,39.914,30.974z"/>
</g>
</svg>
