<?xml version="1.0" encoding="utf-8"?>
<!-- Generator: Adobe Illustrator 16.0.0, SVG Export Plug-In . SVG Version: 6.00 Build 0)  -->
<!DOCTYPE svg PUBLIC "-//W3C//DTD SVG 1.1//EN" "http://www.w3.org/Graphics/SVG/1.1/DTD/svg11.dtd">
<svg version="1.1" id="Layer_1" xmlns="http://www.w3.org/2000/svg" xmlns:xlink="http://www.w3.org/1999/xlink" x="0px" y="0px"
	 width="48px" height="48px" viewBox="0 0 48 48" enable-background="new 0 0 48 48" xml:space="preserve">
<g>
	<path fill="#414042" d="M39.479,24.634c-0.034-0.567-0.507-1.018-1.082-1.018H28.111c-0.598,0-1.084,0.486-1.076,0.995
		l-0.846,4.666H10.475c-0.939,0-1.572,0.538-2.297,1.417l-1.35,1.734c-0.068,0.088-0.105,0.196-0.105,0.308v5.59
		c0,0.951,0.774,1.725,1.727,1.725H38.98c0.951,0,1.725-0.773,1.725-1.725v-8.348c0-0.038-0.004-0.076-0.013-0.112L39.479,24.634z
		 M39.705,38.325c0,0.399-0.325,0.725-0.725,0.725H8.449c-0.4,0-0.727-0.325-0.727-0.725v-5.419l1.235-1.588
		c0.723-0.876,1.091-1.042,1.517-1.042h16.133c0.242,0,0.449-0.173,0.492-0.411l0.928-5.165c0-0.046,0.038-0.084,0.084-0.084h10.285
		c0.046,0,0.084,0.038,0.084,0.084c0,0.038,0.004,0.076,0.013,0.113l1.212,5.222V38.325z"/>
	<path fill="#414042" d="M39.449,41.505H8.268c-0.276,0-0.5,0.224-0.5,0.5s0.224,0.5,0.5,0.5h5.768v2.201c0,0.276,0.224,0.5,0.5,0.5
		s0.5-0.224,0.5-0.5v-2.201h18v2.201c0,0.276,0.224,0.5,0.5,0.5s0.5-0.224,0.5-0.5v-2.201h5.414c0.276,0,0.5-0.224,0.5-0.5
		S39.726,41.505,39.449,41.505z"/>
	<path fill="#414042" d="M14.342,32.97c-0.843,0-1.529,0.685-1.529,1.527s0.687,1.527,1.529,1.527c0.842,0,1.527-0.685,1.527-1.527
		S15.184,32.97,14.342,32.97z M14.342,35.024c-0.292,0-0.529-0.236-0.529-0.527s0.237-0.527,0.529-0.527
		c0.291,0,0.527,0.236,0.527,0.527S14.633,35.024,14.342,35.024z"/>
	<path fill="#414042" d="M30.299,21.513h6.48c0.951,0,1.481-0.499,1.779-1.702l1.688-9.541c0.026-0.146-0.014-0.295-0.109-0.408
		c-0.095-0.113-0.235-0.179-0.383-0.179H27.479c-0.146,0-0.285,0.064-0.381,0.176c-0.095,0.111-0.136,0.259-0.113,0.404l1.538,9.555
		C28.74,20.958,29.321,21.513,30.299,21.513z M39.158,10.683l-1.577,8.92c-0.226,0.91-0.48,0.91-0.802,0.91h-6.48
		c-0.354,0-0.638-0.065-0.792-0.869l-1.441-8.961H39.158z"/>
	<path fill="#414042" d="M40.871,7.134h-1.086c-0.618-2.516-3.206-4.34-6.168-4.34c-2.993,0-5.539,1.817-6.155,4.34h-1.099
		c-0.276,0-0.5,0.224-0.5,0.5s0.224,0.5,0.5,0.5h14.508c0.276,0,0.5-0.224,0.5-0.5S41.147,7.134,40.871,7.134z M28.506,7.134
		c0.607-1.953,2.677-3.34,5.111-3.34c2.407,0,4.498,1.393,5.113,3.34H28.506z"/>
	<path fill="#414042" d="M32.478,18.585c0.024,0,0.048-0.001,0.072-0.005c0.273-0.04,0.463-0.293,0.424-0.566l-0.664-4.617
		c-0.04-0.274-0.302-0.465-0.566-0.424c-0.273,0.04-0.463,0.293-0.424,0.566l0.664,4.617C32.02,18.405,32.233,18.585,32.478,18.585z
		"/>
</g>
</svg>
