<?xml version="1.0" encoding="utf-8"?>
<!-- Generator: Adobe Illustrator 16.0.0, SVG Export Plug-In . SVG Version: 6.00 Build 0)  -->
<!DOCTYPE svg PUBLIC "-//W3C//DTD SVG 1.1//EN" "http://www.w3.org/Graphics/SVG/1.1/DTD/svg11.dtd">
<svg version="1.1" id="Layer_1" xmlns="http://www.w3.org/2000/svg" xmlns:xlink="http://www.w3.org/1999/xlink" x="0px" y="0px"
	 width="48px" height="48px" viewBox="0 0 48 48" enable-background="new 0 0 48 48" xml:space="preserve">
<path fill="#414042" d="M39.322,9.014c-2.023-2.024-4.715-3.139-7.578-3.139c-2.861,0-5.553,1.115-7.578,3.139
	c-2.023,2.023-3.139,4.714-3.138,7.577c0,0.757,0.083,1.5,0.235,2.224L9.073,32.846c-1.607,1.608-1.706,4.138-0.339,5.883
	l-2.928,2.518c-0.209,0.18-0.233,0.496-0.053,0.705c0.099,0.115,0.238,0.174,0.379,0.174c0.115,0,0.231-0.039,0.326-0.121
	l2.966-2.551c0.811,0.71,1.828,1.113,2.916,1.113c1.189,0,2.308-0.463,3.124-1.281l14.061-12.213
	c0.723,0.151,1.464,0.234,2.22,0.234c2.863,0,5.555-1.114,7.578-3.139c2.025-2.024,3.141-4.715,3.141-7.577
	S41.348,11.038,39.322,9.014z M14.782,38.555c-1.305,1.306-3.579,1.306-4.884,0l-0.117-0.117c-1.347-1.346-1.347-3.537,0.022-4.91
	l11.778-13.555c0.518,1.563,1.388,2.998,2.586,4.196c1.199,1.199,2.634,2.069,4.198,2.587L14.782,38.555z M38.615,23.461
	c-1.836,1.836-4.275,2.846-6.871,2.846c-2.594,0-5.033-1.01-6.87-2.846c-1.835-1.835-2.846-4.275-2.846-6.871
	c0-2.595,1.01-5.035,2.845-6.869c1.835-1.835,4.275-2.846,6.871-2.846s5.035,1.011,6.871,2.846c1.836,1.835,2.848,4.275,2.848,6.87
	S40.451,21.625,38.615,23.461z"/>
</svg>
