<?xml version="1.0" encoding="utf-8"?>
<!-- Generator: Adobe Illustrator 16.0.0, SVG Export Plug-In . SVG Version: 6.00 Build 0)  -->
<!DOCTYPE svg PUBLIC "-//W3C//DTD SVG 1.1//EN" "http://www.w3.org/Graphics/SVG/1.1/DTD/svg11.dtd">
<svg version="1.1" id="Layer_1" xmlns="http://www.w3.org/2000/svg" xmlns:xlink="http://www.w3.org/1999/xlink" x="0px" y="0px"
	 width="48px" height="48px" viewBox="0 0 48 48" enable-background="new 0 0 48 48" xml:space="preserve">
<g>
	<path fill="#414042" d="M32.427,9.68H15.772c-0.862,0-1.563,0.702-1.563,1.564v25.514c0,0.861,0.701,1.563,1.563,1.563h16.654
		c0.862,0,1.563-0.701,1.563-1.563V11.244C33.99,10.381,33.289,9.68,32.427,9.68z M32.99,36.758c0,0.311-0.253,0.563-0.563,0.563
		H15.772c-0.311,0-0.563-0.252-0.563-0.563V11.244c0-0.311,0.253-0.564,0.563-0.564h16.654c0.311,0,0.563,0.253,0.563,0.564V36.758z
		"/>
	<path fill="#414042" d="M24.1,13.629c-3.373,0-6.117,2.745-6.117,6.119s2.744,6.119,6.117,6.119s6.117-2.745,6.117-6.119
		S27.473,13.629,24.1,13.629z M24.1,24.867c-2.821,0-5.117-2.296-5.117-5.119s2.296-5.119,5.117-5.119s5.117,2.296,5.117,5.119
		S26.921,24.867,24.1,24.867z"/>
	<path fill="#414042" d="M24.1,18.205c-0.852,0-1.545,0.692-1.545,1.543c0,0.852,0.693,1.545,1.545,1.545s1.545-0.693,1.545-1.545
		C25.645,18.897,24.951,18.205,24.1,18.205z M24.1,20.293c-0.301,0-0.545-0.245-0.545-0.545c0-0.299,0.244-0.543,0.545-0.543
		s0.545,0.244,0.545,0.543C24.645,20.048,24.4,20.293,24.1,20.293z"/>
	<path fill="#414042" d="M23.897,28.531c-1.63,0-2.956,1.326-2.956,2.955c0,1.631,1.326,2.957,2.956,2.957
		c1.631,0,2.957-1.326,2.957-2.957C26.854,29.857,25.528,28.531,23.897,28.531z M23.897,33.443c-1.078,0-1.956-0.878-1.956-1.957
		c0-1.078,0.878-1.955,1.956-1.955c1.079,0,1.957,0.877,1.957,1.955C25.854,32.565,24.977,33.443,23.897,33.443z"/>
	<path fill="#414042" d="M42.398,18.865h-6.367c-0.276,0-0.5,0.224-0.5,0.5s0.224,0.5,0.5,0.5h6.367
		c0.091,0,0.164,0.074,0.164,0.164v15.92c0,0.09-0.073,0.164-0.164,0.164h-6.367c-0.276,0-0.5,0.224-0.5,0.5s0.224,0.5,0.5,0.5
		h6.367c0.642,0,1.164-0.521,1.164-1.164v-15.92C43.563,19.387,43.04,18.865,42.398,18.865z"/>
	<path fill="#414042" d="M35.625,28.863c0,0.276,0.224,0.5,0.5,0.5c2.221,0,4.027-1.807,4.027-4.027c0-2.22-1.807-4.025-4.027-4.025
		c-0.276,0-0.5,0.224-0.5,0.5s0.224,0.5,0.5,0.5c1.669,0,3.027,1.357,3.027,3.025c0,1.67-1.358,3.027-3.027,3.027
		C35.849,28.363,35.625,28.587,35.625,28.863z"/>
	<path fill="#414042" d="M36.287,25.656c-0.276,0-0.5,0.224-0.5,0.5s0.224,0.5,0.5,0.5c0.728,0,1.319-0.592,1.319-1.32
		c0-0.728-0.592-1.32-1.319-1.32c-0.276,0-0.5,0.224-0.5,0.5s0.224,0.5,0.5,0.5c0.176,0,0.319,0.144,0.319,0.32
		S36.463,25.656,36.287,25.656z"/>
	<path fill="#414042" d="M36.031,33.213c-0.276,0-0.5,0.224-0.5,0.5s0.224,0.5,0.5,0.5c0.728,0,1.32-0.592,1.32-1.32
		s-0.593-1.32-1.32-1.32c-0.276,0-0.5,0.224-0.5,0.5s0.224,0.5,0.5,0.5c0.177,0,0.32,0.144,0.32,0.32S36.208,33.213,36.031,33.213z"
		/>
	<path fill="#414042" d="M12.063,18.865H5.695c-0.642,0-1.164,0.522-1.164,1.164v15.92c0,0.643,0.522,1.164,1.164,1.164h6.367
		c0.276,0,0.5-0.224,0.5-0.5s-0.224-0.5-0.5-0.5H5.695c-0.091,0-0.164-0.074-0.164-0.164v-15.92c0-0.09,0.073-0.164,0.164-0.164
		h6.367c0.276,0,0.5-0.224,0.5-0.5S12.339,18.865,12.063,18.865z"/>
	<path fill="#414042" d="M12.469,21.811c0-0.276-0.224-0.5-0.5-0.5c-2.221,0-4.027,1.806-4.027,4.025
		c0,2.221,1.807,4.027,4.027,4.027c0.276,0,0.5-0.224,0.5-0.5s-0.224-0.5-0.5-0.5c-1.669,0-3.027-1.357-3.027-3.027
		c0-1.668,1.358-3.025,3.027-3.025C12.245,22.311,12.469,22.087,12.469,21.811z"/>
	<path fill="#414042" d="M11.807,25.016c0.276,0,0.5-0.224,0.5-0.5s-0.224-0.5-0.5-0.5c-0.728,0-1.319,0.592-1.319,1.32
		c0,0.729,0.592,1.32,1.319,1.32c0.276,0,0.5-0.224,0.5-0.5s-0.224-0.5-0.5-0.5c-0.176,0-0.319-0.144-0.319-0.32
		S11.631,25.016,11.807,25.016z"/>
	<path fill="#414042" d="M12.063,32.572c0.276,0,0.5-0.224,0.5-0.5s-0.224-0.5-0.5-0.5c-0.728,0-1.32,0.592-1.32,1.32
		s0.593,1.32,1.32,1.32c0.276,0,0.5-0.224,0.5-0.5s-0.224-0.5-0.5-0.5c-0.177,0-0.32-0.144-0.32-0.32S11.886,32.572,12.063,32.572z"
		/>
</g>
</svg>
