<?xml version="1.0" encoding="utf-8"?>
<!-- Generator: Adobe Illustrator 16.0.0, SVG Export Plug-In . SVG Version: 6.00 Build 0)  -->
<!DOCTYPE svg PUBLIC "-//W3C//DTD SVG 1.1//EN" "http://www.w3.org/Graphics/SVG/1.1/DTD/svg11.dtd">
<svg version="1.1" id="Layer_1" xmlns="http://www.w3.org/2000/svg" xmlns:xlink="http://www.w3.org/1999/xlink" x="0px" y="0px"
	 width="48px" height="48px" viewBox="0 0 48 48" enable-background="new 0 0 48 48" xml:space="preserve">
<g>
	<path fill="#414042" d="M20.742,30.313h6.75c1.93,0,3.5-1.57,3.5-3.5V6.563c0-1.93-1.57-3.5-3.5-3.5h-6.75
		c-1.93,0-3.5,1.57-3.5,3.5v20.25C17.242,28.742,18.813,30.313,20.742,30.313z M18.242,6.563c0-1.378,1.121-2.5,2.5-2.5h6.75
		c1.379,0,2.5,1.122,2.5,2.5v4.75h-11.75V6.563z M18.242,12.313h11.75v14.5c0,1.379-1.121,2.5-2.5,2.5h-6.75
		c-1.379,0-2.5-1.121-2.5-2.5V12.313z"/>
	<path fill="#414042" d="M34.43,14.687c-0.276,0-0.5,0.224-0.5,0.5v14.077c0,2.355-2.439,4.115-4.621,4.115H18.924
		c-2.201,0-4.76-1.799-4.76-4.115V15.187c0-0.276-0.224-0.5-0.5-0.5s-0.5,0.224-0.5,0.5v14.077c0,2.928,3.041,5.115,5.76,5.115
		h4.693v9.559h-4.094c-0.276,0-0.5,0.223-0.5,0.5c0,0.275,0.224,0.5,0.5,0.5h9.188c0.276,0,0.5-0.225,0.5-0.5
		c0-0.277-0.224-0.5-0.5-0.5h-4.094v-9.559h4.691c2.994,0,5.621-2.391,5.621-5.115V15.187C34.93,14.911,34.706,14.687,34.43,14.687z
		"/>
</g>
</svg>
