<?xml version="1.0" encoding="utf-8"?>
<!-- Generator: Adobe Illustrator 16.0.0, SVG Export Plug-In . SVG Version: 6.00 Build 0)  -->
<!DOCTYPE svg PUBLIC "-//W3C//DTD SVG 1.1//EN" "http://www.w3.org/Graphics/SVG/1.1/DTD/svg11.dtd">
<svg version="1.1" id="Layer_1" xmlns="http://www.w3.org/2000/svg" xmlns:xlink="http://www.w3.org/1999/xlink" x="0px" y="0px"
	 width="48px" height="48px" viewBox="0 0 48 48" enable-background="new 0 0 48 48" xml:space="preserve">
<g>
	<path fill="#414042" d="M41.296,12.063l-21.567,0.061c-0.287-1.14-1.417-2.687-2.493-2.687H9.734c-1.072,0-2.198,1.509-2.489,2.626
		H6.797c-1.93,0-3.5,1.57-3.5,3.5v19.5c0,1.93,1.57,3.5,3.5,3.5h34.5c1.93,0,3.5-1.57,3.5-3.5v-19.5
		C44.797,13.633,43.227,12.063,41.296,12.063z M43.797,35.063c0,1.379-1.121,2.5-2.5,2.5h-34.5c-1.379,0-2.5-1.121-2.5-2.5v-19.5
		c0-1.378,1.121-2.5,2.5-2.5h0.876c0.276,0,0.5-0.224,0.5-0.5c0-0.715,1.036-2.126,1.562-2.126h7.501
		c0.526,0,1.563,1.452,1.563,2.188c0,0.133,0.053,0.26,0.146,0.354s0.221,0.146,0.354,0.146H19.3l21.997-0.062
		c1.379,0,2.5,1.122,2.5,2.5V35.063z"/>
	<path fill="#414042" d="M23.798,16.25c-5.101,0-9.251,4.149-9.251,9.25c0,5.102,4.15,9.252,9.251,9.252s9.25-4.15,9.25-9.252
		C33.048,20.399,28.898,16.25,23.798,16.25z M23.798,33.752c-4.55,0-8.251-3.702-8.251-8.252c0-4.549,3.701-8.25,8.251-8.25
		c4.549,0,8.25,3.701,8.25,8.25C32.048,30.05,28.347,33.752,23.798,33.752z"/>
	<path fill="#414042" d="M23.798,20.5c-2.758,0-5.001,2.243-5.001,5c0,2.758,2.243,5.002,5.001,5.002c2.757,0,5-2.244,5-5.002
		C28.798,22.743,26.555,20.5,23.798,20.5z M23.798,29.502c-2.206,0-4.001-1.796-4.001-4.002s1.795-4,4.001-4s4,1.794,4,4
		S26.004,29.502,23.798,29.502z"/>
	<path fill="#414042" d="M39.108,15.218h-3.281c-0.913,0-1.655,0.743-1.655,1.656s0.742,1.656,1.655,1.656h3.281
		c0.914,0,1.657-0.743,1.657-1.656S40.022,15.218,39.108,15.218z M39.108,17.531h-3.281c-0.361,0-0.655-0.294-0.655-0.656
		s0.294-0.656,0.655-0.656h3.281c0.362,0,0.657,0.294,0.657,0.656S39.471,17.531,39.108,17.531z"/>
</g>
</svg>
