<?xml version="1.0" encoding="utf-8"?>
<!-- Generator: Adobe Illustrator 16.0.0, SVG Export Plug-In . SVG Version: 6.00 Build 0)  -->
<!DOCTYPE svg PUBLIC "-//W3C//DTD SVG 1.1//EN" "http://www.w3.org/Graphics/SVG/1.1/DTD/svg11.dtd">
<svg version="1.1" id="Layer_1" xmlns="http://www.w3.org/2000/svg" xmlns:xlink="http://www.w3.org/1999/xlink" x="0px" y="0px"
	 width="48px" height="48px" viewBox="0 0 48 48" enable-background="new 0 0 48 48" xml:space="preserve">
<g>
	<path fill="#414042" d="M33.912,2.057h-19.73c-1.103,0-2,0.897-2,2v7.451c0,0.015,0.007,0.027,0.008,0.042
		c-0.001,0.015-0.008,0.027-0.008,0.042v26.822c0,1.104,0.897,2,2,2h19.73c1.103,0,2-0.896,2-2V11.592V4.057
		C35.912,2.954,35.015,2.057,33.912,2.057z M34.912,11.092H18.867c-0.276,0-0.5,0.224-0.5,0.5s0.224,0.5,0.5,0.5h16.045v26.322
		c0,0.551-0.448,1-1,1h-19.73c-0.552,0-1-0.449-1-1V12.092h0.902c0.276,0,0.5-0.224,0.5-0.5s-0.224-0.5-0.5-0.5h-0.902V4.057
		c0-0.551,0.448-1,1-1h19.73c0.552,0,1,0.449,1,1V11.092z"/>
	<path fill="#414042" d="M34.475,41.734H13.619c-0.276,0-0.5,0.224-0.5,0.5s0.224,0.5,0.5,0.5h3.074v2.709
		c0,0.276,0.224,0.5,0.5,0.5s0.5-0.224,0.5-0.5v-2.709h13v2.709c0,0.276,0.224,0.5,0.5,0.5s0.5-0.224,0.5-0.5v-2.709h2.781
		c0.276,0,0.5-0.224,0.5-0.5S34.751,41.734,34.475,41.734z"/>
	<path fill="#414042" d="M16.414,7.811c-0.276,0-0.5,0.224-0.5,0.5v9.375c0,0.276,0.224,0.5,0.5,0.5s0.5-0.224,0.5-0.5V8.311
		C16.914,8.034,16.69,7.811,16.414,7.811z"/>
</g>
</svg>
