<?xml version="1.0" encoding="utf-8"?>
<!-- Generator: Adobe Illustrator 16.0.0, SVG Export Plug-In . SVG Version: 6.00 Build 0)  -->
<!DOCTYPE svg PUBLIC "-//W3C//DTD SVG 1.1//EN" "http://www.w3.org/Graphics/SVG/1.1/DTD/svg11.dtd">
<svg version="1.1" id="Layer_1" xmlns="http://www.w3.org/2000/svg" xmlns:xlink="http://www.w3.org/1999/xlink" x="0px" y="0px"
	 width="48px" height="48px" viewBox="0 0 48 48" enable-background="new 0 0 48 48" xml:space="preserve">
<g>
	<path fill="#414042" d="M44.165,20.113H22.986c-1.402,0-2.543,1.14-2.543,2.541v3.102h-2.857v-7.903
		c0.597-1.167,0.94-2.485,0.94-3.883c0-4.726-3.845-8.57-8.57-8.57s-8.57,3.845-8.57,8.57c0,1.398,0.344,2.716,0.94,3.883v22.049
		c0,1.488,1.21,2.698,2.698,2.698h9.863c1.488,0,2.698-1.21,2.698-2.698v-8.434h2.857v3.818c0,1.4,1.141,2.539,2.543,2.539h21.179
		c1.402,0,2.543-1.139,2.543-2.539V22.654C46.708,21.253,45.567,20.113,44.165,20.113z M16.586,26.256v4.713v8.934
		c0,0.936-0.762,1.698-1.698,1.698H5.024c-0.937,0-1.698-0.763-1.698-1.698v-20.51c1.573,1.919,3.96,3.147,6.63,3.147
		s5.057-1.228,6.63-3.147V26.256z M9.956,21.539c-4.174,0-7.57-3.396-7.57-7.569c0-4.174,3.396-7.57,7.57-7.57s7.57,3.396,7.57,7.57
		C17.526,18.144,14.13,21.539,9.956,21.539z M20.443,30.469h-2.857v-3.713h2.857V30.469z M28.335,36.826v-2.365
		c0.001-1.238,0.856-2.227,2.056-2.402c0.244-0.016,3.771-0.027,5.996-0.027c1.228,0.002,2.221,0.848,2.41,2.031
		c0.014,0.183,0.021,1.918,0.022,2.764H28.335z M45.708,35.287c0,0.849-0.692,1.539-1.543,1.539h-4.348
		c0-0.927-0.003-2.73-0.029-2.895c-0.272-1.706-1.671-2.898-3.401-2.9c-0.059,0-5.876,0.001-6.115,0.035
		c-1.7,0.247-2.936,1.675-2.937,3.395v2.365h-4.349c-0.851,0-1.543-0.69-1.543-1.539v-4.318v-4.713v-3.602
		c0-0.85,0.692-1.541,1.543-1.541h21.179c0.851,0,1.543,0.691,1.543,1.541V35.287z"/>
	<path fill="#414042" d="M11.841,30.357H6.952c-0.276,0-0.5,0.224-0.5,0.5s0.224,0.5,0.5,0.5h4.889c0.276,0,0.5-0.224,0.5-0.5
		S12.117,30.357,11.841,30.357z"/>
	<path fill="#414042" d="M9.956,11.109c-1.577,0-2.86,1.283-2.86,2.86c0,1.578,1.283,2.861,2.86,2.861s2.86-1.284,2.86-2.861
		C12.816,12.393,11.533,11.109,9.956,11.109z M9.956,15.831c-1.025,0-1.86-0.835-1.86-1.861c0-1.026,0.835-1.86,1.86-1.86
		s1.86,0.834,1.86,1.86C11.816,14.996,10.981,15.831,9.956,15.831z"/>
	<path fill="#414042" d="M33.57,23.92c-1.859,0-3.379,1.518-3.388,3.384c-0.011,1.849,1.479,3.378,3.32,3.408
		c0.002,0,0.054,0.001,0.057,0.001c0.914,0,1.773-0.357,2.421-1.006c0.643-0.643,0.996-1.49,0.995-2.386
		C36.971,25.454,35.452,23.928,33.57,23.92z M35.272,29.001c-0.458,0.458-1.066,0.712-1.713,0.712v0.5l-0.041-0.501
		c-1.273-0.021-2.343-1.121-2.336-2.403c0.007-1.316,1.077-2.389,2.402-2.389c1.314,0.006,2.388,1.084,2.391,2.402
		C35.977,27.95,35.727,28.547,35.272,29.001z"/>
</g>
</svg>
