<?xml version="1.0" encoding="utf-8"?>
<!-- Generator: Adobe Illustrator 16.0.0, SVG Export Plug-In . SVG Version: 6.00 Build 0)  -->
<!DOCTYPE svg PUBLIC "-//W3C//DTD SVG 1.1//EN" "http://www.w3.org/Graphics/SVG/1.1/DTD/svg11.dtd">
<svg version="1.1" id="Layer_1" xmlns="http://www.w3.org/2000/svg" xmlns:xlink="http://www.w3.org/1999/xlink" x="0px" y="0px"
	 width="48px" height="48px" viewBox="0 0 48 48" enable-background="new 0 0 48 48" xml:space="preserve">
<g>
	<path fill="#414042" d="M10.926,23.886h11.186c0.276,0,0.5-0.224,0.5-0.5V12.2c0-0.276-0.224-0.5-0.5-0.5H10.926
		c-0.276,0-0.5,0.224-0.5,0.5v11.186C10.426,23.662,10.649,23.886,10.926,23.886z M11.426,12.7h10.186v10.186H11.426V12.7z"/>
	<path fill="#414042" d="M16.464,31.59c-0.8,0-1.451,0.652-1.451,1.453s0.651,1.451,1.451,1.451s1.451-0.65,1.451-1.451
		S17.264,31.59,16.464,31.59z M16.464,33.494c-0.249,0-0.451-0.202-0.451-0.451c0-0.25,0.202-0.453,0.451-0.453
		s0.451,0.203,0.451,0.453C16.915,33.292,16.713,33.494,16.464,33.494z"/>
	<path fill="#414042" d="M17.119,36.381h-1.383c-0.276,0-0.5,0.223-0.5,0.5c0,0.275,0.224,0.5,0.5,0.5h1.383
		c0.276,0,0.5-0.225,0.5-0.5C17.619,36.604,17.396,36.381,17.119,36.381z"/>
	<path fill="#414042" d="M20.302,31.887c-0.276,0-0.5,0.225-0.5,0.5v1.383c0,0.276,0.224,0.5,0.5,0.5s0.5-0.224,0.5-0.5v-1.383
		C20.802,32.111,20.578,31.887,20.302,31.887z"/>
	<path fill="#414042" d="M15.809,29.705h1.382c0.276,0,0.5-0.225,0.5-0.5c0-0.277-0.224-0.5-0.5-0.5h-1.382
		c-0.276,0-0.5,0.223-0.5,0.5C15.309,29.48,15.532,29.705,15.809,29.705z"/>
	<path fill="#414042" d="M12.626,31.815c-0.276,0-0.5,0.224-0.5,0.5v1.382c0,0.277,0.224,0.5,0.5,0.5s0.5-0.223,0.5-0.5v-1.382
		C13.126,32.039,12.902,31.815,12.626,31.815z"/>
	<path fill="#414042" d="M41.521,15.347c-0.714-0.947-2.112-0.964-2.093-0.943c-0.106,0-0.21,0.034-0.296,0.097
		c-0.427,0.313-0.529,0.779-0.604,1.125l-0.141,0.673l-0.34,0.247c-0.13,0.095-0.219,0.242-0.242,0.401
		c-0.02,0.129,0.033,0.34,0.109,0.446l0.001,0.001c-2.387,2.465-2.258,9.375-2.248,9.624c-0.789,8.222-6.99,9.646-8.902,9.891
		v-0.793c1.688-0.603,8.548-3.643,7.325-12.854c-0.475-1.848-1.362-6.847-0.192-9.043c0.1,0.063,0.237,0.117,0.338,0.117
		c0.146,0,0.364-0.1,0.459-0.209l0.297-0.342l0.614-0.072c0.404-0.032,0.862-0.069,1.223-0.485c0.073-0.084,0.116-0.191,0.121-0.303
		c0.047-0.97-0.211-1.697-0.767-2.162c-0.894-0.749-2.196-0.458-2.251-0.446c-0.103,0.024-0.196,0.08-0.266,0.159
		c-0.346,0.398-0.342,0.877-0.339,1.234l0.017,0.688l-0.278,0.319c-0.104,0.123-0.156,0.285-0.144,0.445
		c0.011,0.129,0.109,0.322,0.208,0.408v0c-1.77,2.938-0.085,9.643-0.021,9.882c1.066,8.052-4.442,10.876-6.345,11.604V6.659
		c0-0.276-0.224-0.5-0.5-0.5H6.662c-0.276,0-0.5,0.224-0.5,0.5v34.682c0,0.276,0.224,0.5,0.5,0.5h19.604c0.276,0,0.5-0.224,0.5-0.5
		v-3.433c1.985-0.261,9.035-1.821,9.9-10.855c-0.046-1.908,0.215-6.982,1.854-8.857c0.112,0.111,0.298,0.208,0.438,0.208
		c0.105,0,0.271-0.054,0.356-0.116l0.366-0.266l0.615,0.068c0.17,0.025,0.343,0.05,0.517,0.05c0.258,0,0.52-0.055,0.783-0.248
		c0.09-0.066,0.155-0.16,0.187-0.268C42.046,16.691,41.959,15.925,41.521,15.347z M34.356,11.261c0.289-0.03,0.83-0.033,1.188,0.271
		c0.265,0.223,0.402,0.599,0.411,1.121c-0.081,0.029-0.208,0.044-0.448,0.064l-0.619,0.073l-0.546-0.476l-0.015-0.62
		C34.326,11.49,34.331,11.356,34.356,11.261z M25.766,37.272c-0.025,0.063-0.041,0.133-0.038,0.205
		c0.002,0.059,0.018,0.112,0.038,0.164v3.199H7.162V7.159h18.604V37.272z M40.874,17.137c-0.088,0.01-0.214-0.003-0.45-0.038
		l-0.621-0.069l-0.424-0.586l0.127-0.609c0.043-0.194,0.077-0.325,0.125-0.414c0.287,0.037,0.812,0.155,1.093,0.528
		C40.934,16.227,40.983,16.625,40.874,17.137z"/>
</g>
</svg>
