<?xml version="1.0" encoding="utf-8"?>
<!-- Generator: Adobe Illustrator 16.0.0, SVG Export Plug-In . SVG Version: 6.00 Build 0)  -->
<!DOCTYPE svg PUBLIC "-//W3C//DTD SVG 1.1//EN" "http://www.w3.org/Graphics/SVG/1.1/DTD/svg11.dtd">
<svg version="1.1" id="Layer_1" xmlns="http://www.w3.org/2000/svg" xmlns:xlink="http://www.w3.org/1999/xlink" x="0px" y="0px"
	 width="48px" height="48px" viewBox="0 0 48 48" enable-background="new 0 0 48 48" xml:space="preserve">
<g>
	<path fill="#414042" d="M41.494,19.681c0-9.621-7.827-17.447-17.447-17.447S6.6,10.061,6.6,19.681
		c0,9.452,7.56,17.155,16.947,17.422v7.662H14.41c-0.276,0-0.5,0.225-0.5,0.5c0,0.277,0.224,0.5,0.5,0.5h19.271
		c0.276,0,0.5-0.223,0.5-0.5c0-0.275-0.224-0.5-0.5-0.5h-9.135v-7.662C33.935,36.836,41.494,29.133,41.494,19.681z M24.047,36.129
		C14.978,36.129,7.6,28.75,7.6,19.681S14.978,3.234,24.047,3.234s16.447,7.378,16.447,16.447S33.116,36.129,24.047,36.129z"/>
	<path fill="#414042" d="M36.1,22.765c0.74-3.079,0.273-6.285-1.315-9.026c-0.136-0.232-0.429-0.318-0.667-0.191l-9.264,4.91
		c-0.039-0.019-0.078-0.035-0.118-0.051l-3.464-9.98c-0.088-0.252-0.359-0.393-0.614-0.315c-3.037,0.899-5.58,2.906-7.161,5.651
		c-0.134,0.233-0.06,0.53,0.168,0.673l8.872,5.56c0.003,0.048,0.013,0.096,0.02,0.144l-6.903,7.984
		c-0.175,0.201-0.16,0.506,0.034,0.689c2.294,2.176,5.298,3.374,8.459,3.374c0,0,0.014,0,0.015,0
		c0.269-0.001,0.489-0.214,0.499-0.481l0.378-10.466c0.042-0.028,0.087-0.051,0.126-0.083l10.355,1.983
		c0.031,0.006,0.063,0.009,0.094,0.009C35.841,23.148,36.045,22.993,36.1,22.765z M14.612,13.849c1.378-2.176,3.438-3.8,5.874-4.634
		l3.172,9.138c-0.01,0.003-0.017,0.01-0.026,0.014c-0.152,0.051-0.291,0.125-0.417,0.215c-0.018,0.013-0.037,0.022-0.054,0.036
		c-0.125,0.097-0.23,0.21-0.321,0.336c-0.009,0.012-0.023,0.02-0.031,0.033L14.612,13.849z M23.679,31.177
		c-2.572-0.104-5.01-1.076-6.95-2.769l6.326-7.317c0.022,0.021,0.052,0.03,0.076,0.049c0.064,0.053,0.135,0.091,0.207,0.134
		c0.079,0.046,0.155,0.095,0.24,0.127c0.08,0.031,0.164,0.043,0.248,0.061c0.068,0.014,0.132,0.044,0.202,0.049L23.679,31.177z
		 M24.717,20.111c-0.016,0.041-0.032,0.081-0.056,0.118c-0.08,0.123-0.194,0.218-0.337,0.26c-0.005,0.001-0.01,0-0.016,0.001
		c-0.087,0.023-0.179,0.021-0.268,0.006c-0.033-0.006-0.064-0.02-0.096-0.031c-0.056-0.02-0.107-0.048-0.155-0.082
		c-0.035-0.025-0.07-0.049-0.099-0.081c-0.02-0.022-0.034-0.047-0.05-0.071c-0.034-0.05-0.068-0.1-0.085-0.16
		c-0.021-0.071-0.023-0.142-0.019-0.211c0.011-0.039,0.023-0.077,0.024-0.12c0.008-0.03,0.015-0.06,0.027-0.088
		c0.024-0.054,0.057-0.103,0.095-0.147c0.018-0.022,0.033-0.047,0.054-0.066c0.066-0.06,0.144-0.109,0.232-0.135l0,0
		c0.069-0.021,0.139-0.023,0.208-0.021c0.159,0.008,0.302,0.081,0.41,0.192c0.063,0.066,0.113,0.141,0.142,0.225
		c0.002,0.007,0.008,0.013,0.01,0.021c0.028,0.092,0.027,0.191,0.009,0.29C24.743,20.043,24.73,20.077,24.717,20.111z
		 M35.229,22.065l-9.5-1.819c0.003-0.015-0.001-0.029,0.002-0.043c0.031-0.159,0.043-0.32,0.024-0.482
		c-0.002-0.02-0.008-0.037-0.011-0.057c-0.011-0.076-0.021-0.153-0.044-0.228c-0.02-0.066-0.05-0.126-0.077-0.188
		c-0.009-0.019-0.009-0.04-0.018-0.058l8.546-4.529C35.349,16.942,35.727,19.538,35.229,22.065z"/>
</g>
</svg>
