<?xml version="1.0" encoding="utf-8"?>
<!-- Generator: Adobe Illustrator 16.0.0, SVG Export Plug-In . SVG Version: 6.00 Build 0)  -->
<!DOCTYPE svg PUBLIC "-//W3C//DTD SVG 1.1//EN" "http://www.w3.org/Graphics/SVG/1.1/DTD/svg11.dtd">
<svg version="1.1" id="Layer_1" xmlns="http://www.w3.org/2000/svg" xmlns:xlink="http://www.w3.org/1999/xlink" x="0px" y="0px"
	 width="48px" height="48px" viewBox="0 0 48 48" enable-background="new 0 0 48 48" xml:space="preserve">
<g>
	<path fill="#414042" d="M39.206,2.591H8.888c-0.91,0-1.65,0.74-1.65,1.65v39.516c0,0.911,0.74,1.652,1.65,1.652h30.318
		c0.91,0,1.65-0.741,1.65-1.652V4.241C40.856,3.331,40.116,2.591,39.206,2.591z M39.856,43.757c0,0.36-0.292,0.652-0.65,0.652H8.888
		c-0.358,0-0.65-0.292-0.65-0.652V26.643c0.354-0.967,4.758-12.154,17.515-9.57c0.379,0.113,8.94,2.599,14.104,0.554V43.757z
		 M39.856,16.538c-4.758,2.208-13.729-0.397-13.863-0.435c-10.583-2.145-15.785,4.595-17.756,8.189V4.241
		c0-0.358,0.292-0.65,0.65-0.65h30.318c0.358,0,0.65,0.292,0.65,0.65V16.538z"/>
	<path fill="#414042" d="M24.046,20.87c-5.396,0-9.787,4.391-9.787,9.787c0,5.397,4.391,9.789,9.787,9.789s9.787-4.392,9.787-9.789
		C33.833,25.261,29.442,20.87,24.046,20.87z M24.046,39.446c-3.771,0-6.985-2.393-8.229-5.736c0.016-0.035,0.034-0.069,0.042-0.108
		c0.006-0.029,0.589-2.891,2.418-3.626c1.012-0.405,2.267-0.09,3.732,0.938c0.125,0.088,0.282,0.111,0.427,0.07
		c0.146-0.043,0.265-0.149,0.323-0.289c0.007-0.018,0.729-1.723,2.191-1.937c1.192-0.173,2.621,0.669,4.185,2.426
		c-0.21,0.036-0.416,0.082-0.616,0.149c-1.596,0.54-2.234,1.905-2.261,1.963c-0.114,0.252-0.004,0.549,0.247,0.663
		c0.067,0.03,0.139,0.045,0.208,0.045c0.189,0,0.371-0.108,0.455-0.292c0.005-0.011,0.48-1.029,1.672-1.432
		c1.019-0.345,2.263-0.133,3.692,0.617C31.538,36.661,28.116,39.446,24.046,39.446z M32.737,31.883
		c-0.813-0.398-1.585-0.641-2.309-0.724c-0.003-0.004-0.003-0.008-0.006-0.011c-2.03-2.495-3.923-3.637-5.625-3.378
		c-1.418,0.212-2.284,1.327-2.69,2.011c-1.571-0.979-2.984-1.227-4.208-0.732c-1.32,0.533-2.104,1.813-2.542,2.852
		c-0.058-0.407-0.098-0.82-0.098-1.243c0-4.845,3.941-8.787,8.787-8.787s8.787,3.942,8.787,8.787
		C32.833,31.074,32.794,31.481,32.737,31.883z"/>
	<path fill="#414042" d="M16.503,8.319c-0.276,0-0.5,0.224-0.5,0.5v1.191c0,0.276,0.224,0.5,0.5,0.5s0.5-0.224,0.5-0.5V8.819
		C17.003,8.543,16.779,8.319,16.503,8.319z"/>
	<path fill="#414042" d="M29.269,7.546c0.276,0,0.5-0.224,0.5-0.5s-0.224-0.5-0.5-0.5h-2.012c-0.276,0-0.5,0.224-0.5,0.5
		s0.224,0.5,0.5,0.5H29.269z"/>
	<path fill="#414042" d="M29.423,10.618h-2.012c-0.276,0-0.5,0.224-0.5,0.5s0.224,0.5,0.5,0.5h2.012c0.276,0,0.5-0.224,0.5-0.5
		S29.699,10.618,29.423,10.618z"/>
	<path fill="#414042" d="M36.327,9.062c-0.694,0-1.26,0.565-1.26,1.26c0,0.696,0.565,1.262,1.26,1.262s1.26-0.566,1.26-1.262
		C37.587,9.626,37.021,9.062,36.327,9.062z M36.067,10.321c0-0.143,0.116-0.26,0.26-0.26s0.26,0.117,0.26,0.26
		C36.587,10.61,36.067,10.61,36.067,10.321z"/>
	<path fill="#414042" d="M18.04,5.538h-3.004c-1.93,0-3.5,1.57-3.5,3.5v3.609c0,0.276,0.224,0.5,0.5,0.5h9.004
		c0.276,0,0.5-0.224,0.5-0.5V9.038C21.54,7.108,19.97,5.538,18.04,5.538z M20.54,12.147h-8.004V9.038c0-1.378,1.121-2.5,2.5-2.5
		h3.004c1.379,0,2.5,1.122,2.5,2.5V12.147z"/>
</g>
</svg>
