<?xml version="1.0" encoding="utf-8"?>
<!-- Generator: Adobe Illustrator 16.0.0, SVG Export Plug-In . SVG Version: 6.00 Build 0)  -->
<!DOCTYPE svg PUBLIC "-//W3C//DTD SVG 1.1//EN" "http://www.w3.org/Graphics/SVG/1.1/DTD/svg11.dtd">
<svg version="1.1" id="Layer_1" xmlns="http://www.w3.org/2000/svg" xmlns:xlink="http://www.w3.org/1999/xlink" x="0px" y="0px"
	 width="48px" height="48px" viewBox="0 0 48 48" enable-background="new 0 0 48 48" xml:space="preserve">
<g>
	<path fill="#414042" d="M9.289,19.508c3.858,0,6.998-3.138,6.998-6.994c0-3.859-3.14-6.998-6.998-6.998s-6.998,3.139-6.998,6.998
		C2.291,16.37,5.431,19.508,9.289,19.508z M9.289,6.516c3.308,0,5.998,2.691,5.998,5.998c0,3.305-2.69,5.994-5.998,5.994
		s-5.998-2.689-5.998-5.994C3.291,9.207,5.981,6.516,9.289,6.516z"/>
	<path fill="#414042" d="M26.387,19.508c3.858,0,6.997-3.138,6.997-6.994c0-3.859-3.139-6.998-6.997-6.998s-6.998,3.139-6.998,6.998
		C19.389,16.37,22.528,19.508,26.387,19.508z M26.387,6.516c3.307,0,5.997,2.691,5.997,5.998c0,3.305-2.69,5.994-5.997,5.994
		c-3.308,0-5.998-2.689-5.998-5.994C20.389,9.207,23.079,6.516,26.387,6.516z"/>
	<path fill="#414042" d="M46.444,20.221c-2.139,0-3.401,1.133-5,2.569l-2.825,2.546h-4.522v-4.144c0-0.276-0.224-0.5-0.5-0.5H1.649
		c-0.276,0-0.5,0.224-0.5,0.5v20.321c0,0.276,0.224,0.5,0.5,0.5h31.947c0.276,0,0.5-0.224,0.5-0.5v-4.145h4.085l2.851,2.586
		l0.222,0.182c1.978,1.611,2.881,2.348,5.19,2.348c0.276,0,0.5-0.224,0.5-0.5V20.721C46.944,20.444,46.721,20.221,46.444,20.221z
		 M33.097,41.014H2.149V21.692h30.947V41.014z M38.178,36.369h-4.081V26.336h4.081V36.369z M45.944,41.471
		c-1.583-0.092-2.286-0.665-4.058-2.109l-2.718-2.449c0.001-0.015,0.009-0.027,0.009-0.043v-10.69l2.935-2.645
		c1.398-1.255,2.369-2.126,3.832-2.287V41.471z"/>
</g>
</svg>
