<?xml version="1.0" encoding="utf-8"?>
<!-- Generator: Adobe Illustrator 16.0.0, SVG Export Plug-In . SVG Version: 6.00 Build 0)  -->
<!DOCTYPE svg PUBLIC "-//W3C//DTD SVG 1.1//EN" "http://www.w3.org/Graphics/SVG/1.1/DTD/svg11.dtd">
<svg version="1.1" id="Layer_1" xmlns="http://www.w3.org/2000/svg" xmlns:xlink="http://www.w3.org/1999/xlink" x="0px" y="0px"
	 width="48px" height="48px" viewBox="0 0 48 48" enable-background="new 0 0 48 48" xml:space="preserve">
<g>
	<path fill="#414042" d="M30.644,9.102c-0.249-0.118-0.548-0.012-0.666,0.238s-0.011,0.548,0.238,0.666
		c0.026,0.012,2.616,1.278,2.712,4.945c-0.095,3.668-2.606,4.924-2.712,4.975c-0.249,0.118-0.356,0.416-0.238,0.665
		c0.085,0.182,0.265,0.287,0.452,0.287c0.072,0,0.145-0.016,0.214-0.048c0.129-0.062,3.173-1.549,3.284-5.879
		C33.816,10.65,30.772,9.163,30.644,9.102z"/>
	<path fill="#414042" d="M35.349,5.053c-0.224-0.163-0.535-0.115-0.699,0.107c-0.163,0.223-0.115,0.536,0.107,0.699
		c0.043,0.03,4.229,3.168,4.023,9.123c0.204,5.9-3.981,9.059-4.023,9.09c-0.223,0.164-0.27,0.477-0.106,0.699
		c0.098,0.133,0.249,0.204,0.403,0.204c0.103,0,0.205-0.031,0.295-0.097c0.189-0.14,4.653-3.486,4.432-9.896
		C40.002,8.54,35.538,5.192,35.349,5.053z"/>
	<path fill="#414042" d="M39.569,1.526c-0.228-0.158-0.538-0.104-0.696,0.122c-0.159,0.226-0.104,0.538,0.122,0.696
		c0.061,0.042,6.022,4.32,5.783,12.637c0.239,8.262-5.724,12.562-5.784,12.605c-0.225,0.16-0.279,0.471-0.121,0.697
		c0.098,0.139,0.253,0.213,0.41,0.213c0.099,0,0.199-0.029,0.286-0.092c0.264-0.186,6.464-4.636,6.209-13.423
		C46.033,6.161,39.833,1.71,39.569,1.526z"/>
	<path fill="#414042" d="M17.877,10.005c0.249-0.118,0.355-0.416,0.237-0.665c-0.119-0.25-0.416-0.355-0.666-0.238
		c-0.129,0.062-3.171,1.548-3.284,5.875c0.113,4.305,3.155,5.792,3.284,5.854c0.069,0.032,0.142,0.048,0.214,0.048
		c0.187,0,0.366-0.105,0.452-0.286c0.118-0.25,0.011-0.548-0.238-0.666c-0.026-0.013-2.615-1.278-2.712-4.949
		C15.26,11.322,17.758,10.063,17.877,10.005z"/>
	<path fill="#414042" d="M9.312,14.949c-0.204-5.899,3.983-9.059,4.025-9.09c0.223-0.163,0.27-0.477,0.106-0.698
		s-0.473-0.271-0.698-0.107C12.556,5.192,8.09,8.54,8.312,14.949c-0.222,6.444,4.244,9.791,4.434,9.931
		c0.09,0.065,0.193,0.097,0.296,0.097c0.153,0,0.306-0.071,0.403-0.205c0.163-0.223,0.115-0.535-0.107-0.698
		C13.294,24.042,9.106,20.905,9.312,14.949z"/>
	<path fill="#414042" d="M3.315,14.952C3.076,6.686,9.036,2.386,9.097,2.344c0.225-0.159,0.279-0.471,0.121-0.697
		C9.059,1.422,8.747,1.366,8.521,1.526C8.258,1.71,2.061,6.161,2.315,14.952c-0.255,8.816,5.942,13.267,6.206,13.453
		c0.087,0.063,0.188,0.092,0.286,0.092c0.157,0,0.313-0.074,0.409-0.213c0.159-0.227,0.104-0.537-0.12-0.697
		C9.036,27.545,3.076,23.243,3.315,14.952z"/>
	<path fill="#414042" d="M26.237,14.966c0-1.275-1.053-2.313-2.346-2.313s-2.345,1.037-2.345,2.313c0,0.978,0.623,1.811,1.497,2.146
		l-4.752,28.872c-0.024,0.145,0.017,0.293,0.112,0.404c0.095,0.113,0.234,0.178,0.381,0.178h10.521c0.147,0,0.288-0.066,0.383-0.18
		c0.095-0.111,0.135-0.262,0.109-0.406L24.782,17.1C25.635,16.753,26.237,15.928,26.237,14.966z M22.547,14.966
		c0-0.724,0.604-1.313,1.345-1.313c0.742,0,1.346,0.589,1.346,1.313c0,0.463-0.263,0.852-0.637,1.084l-0.204-1.172
		c-0.041-0.239-0.249-0.414-0.492-0.414c-0.001,0-0.002,0-0.002,0c-0.244,0.001-0.452,0.178-0.491,0.419l-0.195,1.188
		C22.823,15.843,22.547,15.443,22.547,14.966z M28.712,45.566h-9.338l4.544-27.604L28.712,45.566z"/>
</g>
</svg>
