<?xml version="1.0" encoding="utf-8"?>
<!-- Generator: Adobe Illustrator 16.0.0, SVG Export Plug-In . SVG Version: 6.00 Build 0)  -->
<!DOCTYPE svg PUBLIC "-//W3C//DTD SVG 1.1//EN" "http://www.w3.org/Graphics/SVG/1.1/DTD/svg11.dtd">
<svg version="1.1" id="Layer_1" xmlns="http://www.w3.org/2000/svg" xmlns:xlink="http://www.w3.org/1999/xlink" x="0px" y="0px"
	 width="48px" height="48px" viewBox="0 0 48 48" enable-background="new 0 0 48 48" xml:space="preserve">
<path fill="#414042" d="M24.533,5.633c-0.004,0-0.008-0.002-0.013-0.002c-0.002,0-0.004,0.001-0.006,0.001
	c-0.172-0.009-0.34-0.035-0.513-0.035c-7.647,0-13.869,8.255-13.869,18.402c0,10.146,6.222,18.402,13.869,18.402
	c7.646,0,13.867-8.256,13.867-18.402C37.868,14.092,31.932,6.009,24.533,5.633z M36.284,18.813H25.021V6.667
	C30.33,7.235,34.745,12.165,36.284,18.813z M24.001,6.598c0.007,0,0.013,0.001,0.02,0.001v12.213H11.716
	C13.353,11.743,18.241,6.598,24.001,6.598z M24.001,41.402c-7.096,0-12.869-7.807-12.869-17.402c0-1.446,0.146-2.844,0.393-4.188
	c0.001,0,0.001,0,0.002,0h24.949c0.247,1.344,0.393,2.742,0.393,4.188C36.868,33.596,31.096,41.402,24.001,41.402z"/>
</svg>
