<?xml version="1.0" encoding="utf-8"?>
<!-- Generator: Adobe Illustrator 16.0.0, SVG Export Plug-In . SVG Version: 6.00 Build 0)  -->
<!DOCTYPE svg PUBLIC "-//W3C//DTD SVG 1.1//EN" "http://www.w3.org/Graphics/SVG/1.1/DTD/svg11.dtd">
<svg version="1.1" id="Layer_1" xmlns="http://www.w3.org/2000/svg" xmlns:xlink="http://www.w3.org/1999/xlink" x="0px" y="0px"
	 width="48px" height="48px" viewBox="0 0 48 48" enable-background="new 0 0 48 48" xml:space="preserve">
<path fill="#414042" d="M35.679,14.176h-5.035c-0.827,0-1.5,0.673-1.5,1.5v4.215c0,0.827,0.673,1.5,1.5,1.5h2.296
	c0.084,1.212,0.052,4.728-2.988,5.873l-5.546,1.816V12.418h4.838c1.011,0,1.371-0.599,1.371-1.16c0-0.403-0.356-0.814-0.566-1.021
	l-5.324-5.321c-0.245-0.203-0.525-0.31-0.812-0.31c-0.471,0-0.785,0.278-0.853,0.342l-5.289,5.288
	c-0.212,0.209-0.566,0.621-0.566,1.023c0,0.577,0.471,1.16,1.371,1.16h4.83v18.687L17.851,29.5
	c-3.311-1.014-3.004-4.739-2.823-5.898c1.883-0.214,3.356-1.799,3.356-3.738c0-2.085-1.696-3.781-3.781-3.781
	s-3.781,1.696-3.781,3.781c0,1.884,1.389,3.438,3.194,3.722c-0.322,2.181,0.061,5.805,3.55,6.874l5.84,1.687v3.737
	c-1.847,0.247-3.281,1.816-3.281,3.73c0,2.085,1.696,3.781,3.781,3.781s3.781-1.696,3.781-3.781c0-1.914-1.435-3.483-3.281-3.73
	v-5.752l5.877-1.925c3.604-1.355,3.739-5.323,3.656-6.815h1.74c0.827,0,1.5-0.673,1.5-1.5v-4.215
	C37.179,14.849,36.506,14.176,35.679,14.176z M18.198,11.309c0.021-0.067,0.156-0.245,0.277-0.366l5.273-5.272
	c0.001-0.001,0.079-0.065,0.163-0.065c0.051,0,0.109,0.027,0.14,0.049l5.291,5.291c0.12,0.12,0.256,0.297,0.271,0.313
	c0,0.064,0,0.16-0.371,0.16H18.575C18.363,11.418,18.204,11.349,18.198,11.309z M11.821,19.863c0-1.534,1.248-2.781,2.781-2.781
	s2.781,1.248,2.781,2.781s-1.248,2.781-2.781,2.781S11.821,21.397,11.821,19.863z M26.687,39.613c0,1.533-1.248,2.781-2.781,2.781
	s-2.781-1.248-2.781-2.781s1.248-2.781,2.781-2.781S26.687,38.08,26.687,39.613z M36.179,19.891c0,0.276-0.225,0.5-0.5,0.5h-5.035
	c-0.275,0-0.5-0.224-0.5-0.5v-4.215c0-0.276,0.225-0.5,0.5-0.5h5.035c0.275,0,0.5,0.224,0.5,0.5V19.891z"/>
</svg>
