<?xml version="1.0" encoding="utf-8"?>
<!-- Generator: Adobe Illustrator 16.0.0, SVG Export Plug-In . SVG Version: 6.00 Build 0)  -->
<!DOCTYPE svg PUBLIC "-//W3C//DTD SVG 1.1//EN" "http://www.w3.org/Graphics/SVG/1.1/DTD/svg11.dtd">
<svg version="1.1" id="Layer_1" xmlns="http://www.w3.org/2000/svg" xmlns:xlink="http://www.w3.org/1999/xlink" x="0px" y="0px"
	 width="48px" height="48px" viewBox="0 0 48 48" enable-background="new 0 0 48 48" xml:space="preserve">
<g>
	<path fill="#414042" d="M21.839,8.848h-1.189c-0.276,0-0.5,0.224-0.5,0.5v3.209c0,0.276,0.224,0.5,0.5,0.5h1.189
		c0.276,0,0.5-0.224,0.5-0.5V9.348C22.339,9.071,22.115,8.848,21.839,8.848z M21.339,12.057h-0.189V9.848h0.189V12.057z"/>
	<path fill="#414042" d="M32.633,14.997c-0.484-0.491-1.124-0.621-1.552-0.646V6.092c0-0.276-0.224-0.5-0.5-0.5H17.419
		c-0.276,0-0.5,0.224-0.5,0.5v8.247c-0.65,0.032-2.193,0.339-2.193,2.526v8.967c0,2.854,1.748,5.43,4.387,6.521v1.156
		c0,0.88,0.716,1.596,1.596,1.596h0.598v6.082c0,0.143,0.061,0.277,0.166,0.372c0.038,0.034,0.962,0.849,2.436,0.849
		c0.851,0,1.709-0.269,2.551-0.797c0.146-0.092,0.234-0.252,0.234-0.424v-6.082h0.598c0.88,0,1.596-0.716,1.596-1.596v-1.156
		c2.64-1.092,4.389-3.669,4.389-6.521v-8.96C33.285,16.071,33.069,15.44,32.633,14.997z M32.274,25.832
		c0,2.549-1.63,4.842-4.057,5.707c-0.199,0.07-0.332,0.26-0.332,0.471v1.5c0,0.328-0.268,0.596-0.596,0.596h-1.098
		c-0.276,0-0.5,0.224-0.5,0.5v6.297c-0.602,0.336-1.201,0.506-1.785,0.506c-0.768,0-1.336-0.299-1.602-0.473v-6.33
		c0-0.276-0.224-0.5-0.5-0.5h-1.098c-0.328,0-0.596-0.268-0.596-0.596v-1.5c0-0.211-0.133-0.4-0.332-0.471
		c-2.425-0.864-4.055-3.158-4.055-5.707v-8.967c0-1.029,0.432-1.53,1.32-1.53c0.154,0,0.263,0.018,0.276,0.021
		c0.147,0.03,0.299-0.009,0.414-0.104s0.183-0.237,0.183-0.386V6.592h12.162v8.273c0,0.146,0.065,0.284,0.176,0.379
		c0.112,0.095,0.265,0.134,0.403,0.114c0.043-0.007,0.797-0.129,1.261,0.34c0.242,0.246,0.361,0.636,0.354,1.167V25.832z"/>
	<path fill="#414042" d="M27.298,8.848h-1.189c-0.276,0-0.5,0.224-0.5,0.5v3.209c0,0.276,0.224,0.5,0.5,0.5h1.189
		c0.276,0,0.5-0.224,0.5-0.5V9.348C27.798,9.071,27.574,8.848,27.298,8.848z M26.798,12.057h-0.189V9.848h0.189V12.057z"/>
</g>
</svg>
