<?xml version="1.0" encoding="utf-8"?>
<!-- Generator: Adobe Illustrator 16.0.0, SVG Export Plug-In . SVG Version: 6.00 Build 0)  -->
<!DOCTYPE svg PUBLIC "-//W3C//DTD SVG 1.1//EN" "http://www.w3.org/Graphics/SVG/1.1/DTD/svg11.dtd">
<svg version="1.1" id="Layer_1" xmlns="http://www.w3.org/2000/svg" xmlns:xlink="http://www.w3.org/1999/xlink" x="0px" y="0px"
	 width="48px" height="48px" viewBox="0 0 48 48" enable-background="new 0 0 48 48" xml:space="preserve">
<g>
	<path fill="#414042" d="M21.871,7.875h-0.703c-0.276,0-0.5,0.224-0.5,0.5v3.91c0,0.276,0.224,0.5,0.5,0.5h0.703
		c0.276,0,0.5-0.224,0.5-0.5v-3.91C22.371,8.099,22.147,7.875,21.871,7.875z"/>
	<path fill="#414042" d="M34.564,11.762h-4.195V5.219c0-0.276-0.224-0.5-0.5-0.5H18.131c-0.276,0-0.5,0.224-0.5,0.5v6.543h-4.195
		c-0.276,0-0.5,0.224-0.5,0.5v23.477c0,4.159,3.384,7.543,7.543,7.543h7.043c4.159,0,7.543-3.384,7.543-7.543V12.262
		C35.064,11.985,34.841,11.762,34.564,11.762z M34.064,35.738c0,3.607-2.936,6.543-6.543,6.543h-7.043
		c-3.607,0-6.543-2.936-6.543-6.543V12.762h4.195c0.276,0,0.5-0.224,0.5-0.5V5.719h10.738v6.543c0,0.276,0.224,0.5,0.5,0.5h4.195
		V35.738z"/>
	<path fill="#414042" d="M26.871,7.875h-0.703c-0.276,0-0.5,0.224-0.5,0.5v3.91c0,0.276,0.224,0.5,0.5,0.5h0.703
		c0.276,0,0.5-0.224,0.5-0.5v-3.91C27.371,8.099,27.147,7.875,26.871,7.875z"/>
</g>
</svg>
