<?xml version="1.0" encoding="utf-8"?>
<!-- Generator: Adobe Illustrator 16.0.0, SVG Export Plug-In . SVG Version: 6.00 Build 0)  -->
<!DOCTYPE svg PUBLIC "-//W3C//DTD SVG 1.1//EN" "http://www.w3.org/Graphics/SVG/1.1/DTD/svg11.dtd">
<svg version="1.1" id="Layer_1" xmlns="http://www.w3.org/2000/svg" xmlns:xlink="http://www.w3.org/1999/xlink" x="0px" y="0px"
	 width="48px" height="48px" viewBox="0 0 48 48" enable-background="new 0 0 48 48" xml:space="preserve">
<g>
	<path fill="#414042" d="M38.292,10.718C34.47,6.902,29.394,4.801,24,4.801c-5.395,0-10.47,2.102-14.291,5.917
		c-0.195,0.195-0.195,0.512,0,0.708c0.195,0.195,0.512,0.195,0.707,0C14.048,7.798,18.873,5.801,24,5.801s9.952,1.998,13.585,5.625
		c0.098,0.097,0.226,0.146,0.354,0.146s0.256-0.049,0.354-0.147C38.487,11.23,38.487,10.914,38.292,10.718z"/>
	<path fill="#414042" d="M24,11.369c-3.643,0-7.067,1.419-9.645,3.996c-0.195,0.195-0.195,0.512,0,0.707s0.512,0.195,0.707,0
		c2.388-2.388,5.563-3.703,8.938-3.703c3.376,0,6.55,1.315,8.937,3.703c0.098,0.098,0.226,0.146,0.354,0.146
		s0.256-0.049,0.354-0.146c0.195-0.195,0.195-0.512,0-0.707C31.067,12.788,27.643,11.369,24,11.369z"/>
	<path fill="#414042" d="M26.338,30.563h-4.676c-0.276,0-0.5,0.224-0.5,0.5s0.224,0.5,0.5,0.5h4.676c0.276,0,0.5-0.224,0.5-0.5
		S26.614,30.563,26.338,30.563z"/>
	<path fill="#414042" d="M29.757,21.162H18.07c-0.921,0-1.67,0.748-1.67,1.668v15.193c0,2.854,2.322,5.176,5.176,5.176h4.675
		c2.854,0,5.175-2.322,5.175-5.176V22.83C31.426,21.91,30.677,21.162,29.757,21.162z M30.426,38.023
		c0,2.303-1.873,4.176-4.175,4.176h-4.675c-2.303,0-4.176-1.873-4.176-4.176V22.83c0-0.368,0.301-0.668,0.67-0.668h11.687
		c0.369,0,0.669,0.3,0.669,0.668V38.023z"/>
	<path fill="#414042" d="M26.424,25.838H21.75c-0.276,0-0.5,0.224-0.5,0.5s0.224,0.5,0.5,0.5h4.674c0.276,0,0.5-0.224,0.5-0.5
		S26.7,25.838,26.424,25.838z"/>
</g>
</svg>
