<?xml version="1.0" encoding="utf-8"?>
<!-- Generator: Adobe Illustrator 16.0.0, SVG Export Plug-In . SVG Version: 6.00 Build 0)  -->
<!DOCTYPE svg PUBLIC "-//W3C//DTD SVG 1.1//EN" "http://www.w3.org/Graphics/SVG/1.1/DTD/svg11.dtd">
<svg version="1.1" id="Layer_1" xmlns="http://www.w3.org/2000/svg" xmlns:xlink="http://www.w3.org/1999/xlink" x="0px" y="0px"
	 width="48px" height="48px" viewBox="0 0 48 48" enable-background="new 0 0 48 48" xml:space="preserve">
<g>
	<path fill="#414042" d="M41.896,17.719h-1.648v-2.145c0-1.378-1.121-2.5-2.5-2.5H6.994c-1.379,0-2.5,1.122-2.5,2.5v16.852
		c0,1.379,1.121,2.5,2.5,2.5h30.754c1.379,0,2.5-1.121,2.5-2.5v-2.146h1.648c0.888,0,1.609-0.721,1.609-1.607v-9.344
		C43.506,18.441,42.784,17.719,41.896,17.719z M42.506,28.672c0,0.335-0.273,0.607-0.609,0.607h-2.148c-0.276,0-0.5,0.224-0.5,0.5
		v2.646c0,0.827-0.673,1.5-1.5,1.5H6.994c-0.827,0-1.5-0.673-1.5-1.5V15.574c0-0.827,0.673-1.5,1.5-1.5h30.754
		c0.827,0,1.5,0.673,1.5,1.5v2.645c0,0.276,0.224,0.5,0.5,0.5h2.148c0.336,0,0.609,0.273,0.609,0.609V28.672z"/>
	<path fill="#414042" d="M11.484,17.75c-0.276,0-0.5,0.224-0.5,0.5v11.5c0,0.276,0.224,0.5,0.5,0.5s0.5-0.224,0.5-0.5v-11.5
		C11.984,17.974,11.761,17.75,11.484,17.75z"/>
</g>
</svg>
