<?xml version="1.0" encoding="utf-8"?>
<!-- Generator: Adobe Illustrator 16.0.0, SVG Export Plug-In . SVG Version: 6.00 Build 0)  -->
<!DOCTYPE svg PUBLIC "-//W3C//DTD SVG 1.1//EN" "http://www.w3.org/Graphics/SVG/1.1/DTD/svg11.dtd">
<svg version="1.1" id="Layer_1" xmlns="http://www.w3.org/2000/svg" xmlns:xlink="http://www.w3.org/1999/xlink" x="0px" y="0px"
	 width="48px" height="48px" viewBox="0 0 48 48" enable-background="new 0 0 48 48" xml:space="preserve">
<g>
	<path fill="#414042" d="M41.896,17.721h-1.648v-2.146c0-1.378-1.121-2.5-2.5-2.5H6.995c-1.379,0-2.5,1.122-2.5,2.5v16.852
		c0,1.379,1.121,2.5,2.5,2.5h30.753c1.379,0,2.5-1.121,2.5-2.5v-2.145h1.648c0.888,0,1.609-0.723,1.609-1.609v-9.344
		C43.506,18.442,42.784,17.721,41.896,17.721z M42.506,28.672c0,0.336-0.273,0.609-0.609,0.609h-2.148c-0.276,0-0.5,0.224-0.5,0.5
		v2.645c0,0.827-0.673,1.5-1.5,1.5H6.995c-0.827,0-1.5-0.673-1.5-1.5V15.574c0-0.827,0.673-1.5,1.5-1.5h30.753
		c0.827,0,1.5,0.673,1.5,1.5v2.646c0,0.276,0.224,0.5,0.5,0.5h2.148c0.336,0,0.609,0.272,0.609,0.607V28.672z"/>
	<path fill="#414042" d="M12.118,17.75c-0.276,0-0.5,0.224-0.5,0.5v11.5c0,0.276,0.224,0.5,0.5,0.5s0.5-0.224,0.5-0.5v-11.5
		C12.618,17.974,12.395,17.75,12.118,17.75z"/>
	<path fill="#414042" d="M22.118,17.75c-0.276,0-0.5,0.224-0.5,0.5v11.5c0,0.276,0.224,0.5,0.5,0.5s0.5-0.224,0.5-0.5v-11.5
		C22.618,17.974,22.395,17.75,22.118,17.75z"/>
	<path fill="#414042" d="M32.118,17.75c-0.276,0-0.5,0.224-0.5,0.5v11.5c0,0.276,0.224,0.5,0.5,0.5s0.5-0.224,0.5-0.5v-11.5
		C32.618,17.974,32.395,17.75,32.118,17.75z"/>
</g>
</svg>
