<?xml version="1.0" encoding="utf-8"?>
<!-- Generator: Adobe Illustrator 16.0.0, SVG Export Plug-In . SVG Version: 6.00 Build 0)  -->
<!DOCTYPE svg PUBLIC "-//W3C//DTD SVG 1.1//EN" "http://www.w3.org/Graphics/SVG/1.1/DTD/svg11.dtd">
<svg version="1.1" id="Layer_1" xmlns="http://www.w3.org/2000/svg" xmlns:xlink="http://www.w3.org/1999/xlink" x="0px" y="0px"
	 width="48px" height="48px" viewBox="0 0 48 48" enable-background="new 0 0 48 48" xml:space="preserve">
<g>
	<path fill="#414042" d="M16.691,19.846c0.276,0,0.5-0.224,0.5-0.5v-9.309c0-0.276-0.224-0.5-0.5-0.5s-0.5,0.224-0.5,0.5v9.309
		C16.191,19.622,16.415,19.846,16.691,19.846z"/>
	<path fill="#414042" d="M26,19.846c0.276,0,0.5-0.224,0.5-0.5v-9.309c0-0.276-0.224-0.5-0.5-0.5s-0.5,0.224-0.5,0.5v9.309
		C25.5,19.622,25.724,19.846,26,19.846z"/>
	<path fill="#414042" d="M21.346,19.846c0.276,0,0.5-0.224,0.5-0.5v-9.309c0-0.276-0.224-0.5-0.5-0.5s-0.5,0.224-0.5,0.5v9.309
		C20.846,19.622,21.069,19.846,21.346,19.846z"/>
	<path fill="#414042" d="M30.524,30.908H16.146c-0.276,0-0.5,0.224-0.5,0.5v4.443c0,0.276,0.224,0.5,0.5,0.5h14.379
		c0.276,0,0.5-0.224,0.5-0.5v-4.443C31.024,31.132,30.801,30.908,30.524,30.908z M30.024,35.352H16.646v-3.443h13.379V35.352z"/>
	<path fill="#414042" d="M38.316,14.338l-9.309-9.309c-0.094-0.094-0.221-0.146-0.354-0.146H10.037c-0.276,0-0.5,0.224-0.5,0.5
		v16.289c0,0.276,0.224,0.5,0.5,0.5h1.827v5.982h-1.827c-0.276,0-0.5,0.224-0.5,0.5v13.963c0,0.276,0.224,0.5,0.5,0.5h27.926
		c0.276,0,0.5-0.224,0.5-0.5V14.691C38.463,14.559,38.41,14.432,38.316,14.338z M37.463,42.117H10.537V29.154h1.827
		c0.276,0,0.5-0.224,0.5-0.5v-6.982c0-0.276-0.224-0.5-0.5-0.5h-1.827V5.883h17.91l9.016,9.016V42.117z"/>
	<path fill="#414042" d="M30.654,19.846c0.276,0,0.5-0.224,0.5-0.5v-4.654c0-0.276-0.224-0.5-0.5-0.5s-0.5,0.224-0.5,0.5v4.654
		C30.154,19.622,30.378,19.846,30.654,19.846z"/>
</g>
</svg>
