<?xml version="1.0" encoding="utf-8"?>
<!-- Generator: Adobe Illustrator 16.0.0, SVG Export Plug-In . SVG Version: 6.00 Build 0)  -->
<!DOCTYPE svg PUBLIC "-//W3C//DTD SVG 1.1//EN" "http://www.w3.org/Graphics/SVG/1.1/DTD/svg11.dtd">
<svg version="1.1" id="Layer_1" xmlns="http://www.w3.org/2000/svg" xmlns:xlink="http://www.w3.org/1999/xlink" x="0px" y="0px"
	 width="48px" height="48px" viewBox="0 0 48 48" enable-background="new 0 0 48 48" xml:space="preserve">
<g>
	<path fill="#414042" d="M23.999,6.333c-7.343,0-13.316,7.926-13.316,17.668c0,9.741,5.974,17.666,13.316,17.666
		c7.344,0,13.318-7.925,13.318-17.666C37.317,14.259,31.343,6.333,23.999,6.333z M23.999,40.667
		c-6.791,0-12.316-7.477-12.316-16.666c0-9.191,5.525-16.668,12.316-16.668c6.792,0,12.318,7.477,12.318,16.668
		C36.317,33.19,30.791,40.667,23.999,40.667z"/>
	<path fill="#414042" d="M23.999,13.679c-0.622,0-1.129,0.506-1.129,1.129v3.637c0,0.623,0.507,1.129,1.129,1.129
		s1.129-0.506,1.129-1.129v-3.637C25.128,14.185,24.621,13.679,23.999,13.679z M24.128,18.444c0,0.143-0.258,0.143-0.258,0v-3.637
		c0-0.071,0.058-0.129,0.129-0.129s0.129,0.058,0.129,0.129V18.444z"/>
</g>
</svg>
