<?xml version="1.0" encoding="utf-8"?>
<!-- Generator: Adobe Illustrator 16.0.0, SVG Export Plug-In . SVG Version: 6.00 Build 0)  -->
<!DOCTYPE svg PUBLIC "-//W3C//DTD SVG 1.1//EN" "http://www.w3.org/Graphics/SVG/1.1/DTD/svg11.dtd">
<svg version="1.1" id="Layer_1" xmlns="http://www.w3.org/2000/svg" xmlns:xlink="http://www.w3.org/1999/xlink" x="0px" y="0px"
	 width="48px" height="48px" viewBox="0 0 48 48" enable-background="new 0 0 48 48" xml:space="preserve">
<g>
	<path fill="#414042" d="M42.419,7.231H11.894c-0.912,0-1.654,0.742-1.654,1.654v2.283H4.786c-0.505,0-0.857,0.537-0.857,1.305
		v26.988c0,0.77,0.353,1.307,0.857,1.307h11.908c0.504,0,0.855-0.537,0.855-1.307V12.474c0-0.768-0.352-1.305-0.855-1.305h-5.455
		V8.886c0-0.361,0.294-0.654,0.654-0.654h30.525c0.36,0,0.654,0.293,0.654,0.654v19.732c0,0.36-0.294,0.654-0.654,0.654H18.366
		c-0.276,0-0.5,0.224-0.5,0.5s0.224,0.5,0.5,0.5h24.053c0.912,0,1.654-0.742,1.654-1.654V8.886
		C44.073,7.974,43.331,7.231,42.419,7.231z M16.511,39.769H4.968c-0.02-0.067-0.039-0.169-0.039-0.307V28.886H16.55v10.576
		C16.55,39.6,16.53,39.701,16.511,39.769z M16.55,12.474v15.412H4.929V12.474c0-0.137,0.02-0.238,0.039-0.305h11.544
		C16.53,12.235,16.55,12.337,16.55,12.474z"/>
	<path fill="#414042" d="M31.337,33.376c0.276,0,0.5-0.224,0.5-0.5s-0.224-0.5-0.5-0.5h-8.363c-0.276,0-0.5,0.224-0.5,0.5
		s0.224,0.5,0.5,0.5H31.337z"/>
	<path fill="#414042" d="M39.755,35.415H18.366c-0.276,0-0.5,0.224-0.5,0.5s0.224,0.5,0.5,0.5h21.389c0.276,0,0.5-0.224,0.5-0.5
		S40.031,35.415,39.755,35.415z"/>
	<path fill="#414042" d="M10.741,30.265c-1.442,0-2.615,1.174-2.615,2.617c0,1.44,1.173,2.613,2.615,2.613
		c1.441,0,2.613-1.173,2.613-2.613C13.354,31.438,12.183,30.265,10.741,30.265z M10.741,34.495c-0.891,0-1.615-0.724-1.615-1.613
		c0-0.892,0.725-1.617,1.615-1.617c0.89,0,1.613,0.726,1.613,1.617C12.354,33.771,11.631,34.495,10.741,34.495z"/>
	<path fill="#414042" d="M12.427,37.015H9.054c-0.276,0-0.5,0.224-0.5,0.5s0.224,0.5,0.5,0.5h3.373c0.276,0,0.5-0.224,0.5-0.5
		S12.703,37.015,12.427,37.015z"/>
	<path fill="#414042" d="M6.313,18.04v1.074c0,0.721,0.586,1.307,1.307,1.307h6.242c0.721,0,1.307-0.586,1.307-1.307V18.04
		c0-0.719-0.586-1.305-1.307-1.305H7.62C6.899,16.735,6.313,17.321,6.313,18.04z M14.169,18.04v1.074
		c0,0.169-0.138,0.307-0.307,0.307H7.62c-0.169,0-0.307-0.138-0.307-0.307V18.04c0-0.168,0.138-0.305,0.307-0.305h6.242
		C14.031,17.735,14.169,17.872,14.169,18.04z"/>
</g>
</svg>
