<?xml version="1.0" encoding="utf-8"?>
<!-- Generator: Adobe Illustrator 16.0.0, SVG Export Plug-In . SVG Version: 6.00 Build 0)  -->
<!DOCTYPE svg PUBLIC "-//W3C//DTD SVG 1.1//EN" "http://www.w3.org/Graphics/SVG/1.1/DTD/svg11.dtd">
<svg version="1.1" id="Layer_1" xmlns="http://www.w3.org/2000/svg" xmlns:xlink="http://www.w3.org/1999/xlink" x="0px" y="0px"
	 width="48px" height="48px" viewBox="0 0 48 48" enable-background="new 0 0 48 48" xml:space="preserve">
<g>
	<path fill="#414042" d="M25.643,39.809h-3.285c-1.244,0-2.146,0.527-2.146,1.254c0,0.728,0.902,1.256,2.146,1.256h3.285
		c1.244,0,2.146-0.528,2.146-1.256C27.789,40.336,26.887,39.809,25.643,39.809z M25.643,41.318h-3.285
		c-0.57,0-0.952-0.151-1.099-0.256c0.146-0.104,0.529-0.254,1.099-0.254h3.285c0.569,0,0.952,0.15,1.099,0.254
		C26.595,41.167,26.213,41.318,25.643,41.318z"/>
	<path fill="#414042" d="M37.125,2.5h-26.25c-3.171,0-5.75,2.58-5.75,5.75v31.5c0,3.17,2.579,5.75,5.75,5.75h26.25
		c3.171,0,5.75-2.58,5.75-5.75V8.25C42.875,5.08,40.296,2.5,37.125,2.5z M41.875,39.75c0,2.619-2.131,4.75-4.75,4.75h-26.25
		c-2.619,0-4.75-2.131-4.75-4.75V8.25c0-2.619,2.131-4.75,4.75-4.75h26.25c2.619,0,4.75,2.131,4.75,4.75V39.75z"/>
	<path fill="#414042" d="M37.125,7.75h-26.25c-0.276,0-0.5,0.224-0.5,0.5v28.875c0,0.276,0.224,0.5,0.5,0.5h26.25
		c0.276,0,0.5-0.224,0.5-0.5V8.25C37.625,7.974,37.401,7.75,37.125,7.75z M36.625,36.625h-25.25V8.75h25.25V36.625z"/>
</g>
</svg>
