<?xml version="1.0" encoding="utf-8"?>
<!-- Generator: Adobe Illustrator 16.0.0, SVG Export Plug-In . SVG Version: 6.00 Build 0)  -->
<!DOCTYPE svg PUBLIC "-//W3C//DTD SVG 1.1//EN" "http://www.w3.org/Graphics/SVG/1.1/DTD/svg11.dtd">
<svg version="1.1" id="Layer_1" xmlns="http://www.w3.org/2000/svg" xmlns:xlink="http://www.w3.org/1999/xlink" x="0px" y="0px"
	 width="48px" height="48px" viewBox="0 0 48 48" enable-background="new 0 0 48 48" xml:space="preserve">
<g>
	<path fill="#414042" d="M24.002,29.171c-0.85,0-1.541,0.69-1.541,1.539s0.691,1.539,1.541,1.539c0.848,0,1.537-0.69,1.537-1.539
		S24.85,29.171,24.002,29.171z M24.002,31.249c-0.298,0-0.541-0.241-0.541-0.539s0.243-0.539,0.541-0.539
		c0.296,0,0.537,0.241,0.537,0.539S24.298,31.249,24.002,31.249z"/>
	<path fill="#414042" d="M25.357,34.101h-2.625c-0.276,0-0.5,0.224-0.5,0.5s0.224,0.5,0.5,0.5h2.625c0.276,0,0.5-0.224,0.5-0.5
		S25.634,34.101,25.357,34.101z"/>
	<path fill="#414042" d="M27.961,28.827c-0.276,0-0.5,0.224-0.5,0.5v2.625c0,0.276,0.224,0.5,0.5,0.5s0.5-0.224,0.5-0.5v-2.625
		C28.461,29.051,28.237,28.827,27.961,28.827z"/>
	<path fill="#414042" d="M22.688,27.226h2.625c0.276,0,0.5-0.224,0.5-0.5s-0.224-0.5-0.5-0.5h-2.625c-0.276,0-0.5,0.224-0.5,0.5
		S22.411,27.226,22.688,27.226z"/>
	<path fill="#414042" d="M18.127,8.954c0-0.276-0.224-0.5-0.5-0.5h-1.625c-0.276,0-0.5,0.224-0.5,0.5s0.224,0.5,0.5,0.5h1.625
		C17.903,9.454,18.127,9.23,18.127,8.954z"/>
	<path fill="#414042" d="M20.086,28.872c-0.276,0-0.5,0.224-0.5,0.5v2.625c0,0.276,0.224,0.5,0.5,0.5s0.5-0.224,0.5-0.5v-2.625
		C20.586,29.096,20.362,28.872,20.086,28.872z"/>
	<path fill="#414042" d="M30.445,3.647H17.557c-3.013,0-5.463,2.451-5.463,5.463V38.89c0,3.013,2.45,5.463,5.463,5.463h12.889
		c3.013,0,5.463-2.45,5.463-5.463V9.11C35.908,6.098,33.458,3.647,30.445,3.647z M34.908,38.89c0,2.461-2.002,4.463-4.463,4.463
		H17.557c-2.461,0-4.463-2.002-4.463-4.463V9.11c0-2.461,2.002-4.463,4.463-4.463h12.889c2.461,0,4.463,2.002,4.463,4.463V38.89z"/>
	<path fill="#414042" d="M31.627,8.454h-1.625c-0.276,0-0.5,0.224-0.5,0.5s0.224,0.5,0.5,0.5h1.625c0.276,0,0.5-0.224,0.5-0.5
		S31.903,8.454,31.627,8.454z"/>
	<path fill="#414042" d="M29.813,12.351h-0.625c-0.276,0-0.5,0.224-0.5,0.5s0.224,0.5,0.5,0.5h0.625c0.276,0,0.5-0.224,0.5-0.5
		S30.089,12.351,29.813,12.351z"/>
	<path fill="#414042" d="M23.688,13.351h0.625c0.276,0,0.5-0.224,0.5-0.5s-0.224-0.5-0.5-0.5h-0.625c-0.276,0-0.5,0.224-0.5,0.5
		S23.411,13.351,23.688,13.351z"/>
	<path fill="#414042" d="M18.813,12.351h-0.625c-0.276,0-0.5,0.224-0.5,0.5s0.224,0.5,0.5,0.5h0.625c0.276,0,0.5-0.224,0.5-0.5
		S19.089,12.351,18.813,12.351z"/>
	<path fill="#414042" d="M29.813,17.351h-0.625c-0.276,0-0.5,0.224-0.5,0.5s0.224,0.5,0.5,0.5h0.625c0.276,0,0.5-0.224,0.5-0.5
		S30.089,17.351,29.813,17.351z"/>
	<path fill="#414042" d="M23.688,18.351h0.625c0.276,0,0.5-0.224,0.5-0.5s-0.224-0.5-0.5-0.5h-0.625c-0.276,0-0.5,0.224-0.5,0.5
		S23.411,18.351,23.688,18.351z"/>
	<path fill="#414042" d="M18.813,17.351h-0.625c-0.276,0-0.5,0.224-0.5,0.5s0.224,0.5,0.5,0.5h0.625c0.276,0,0.5-0.224,0.5-0.5
		S19.089,17.351,18.813,17.351z"/>
	<path fill="#414042" d="M29.813,22.351h-0.625c-0.276,0-0.5,0.224-0.5,0.5s0.224,0.5,0.5,0.5h0.625c0.276,0,0.5-0.224,0.5-0.5
		S30.089,22.351,29.813,22.351z"/>
	<path fill="#414042" d="M23.688,23.351h0.625c0.276,0,0.5-0.224,0.5-0.5s-0.224-0.5-0.5-0.5h-0.625c-0.276,0-0.5,0.224-0.5,0.5
		S23.411,23.351,23.688,23.351z"/>
	<path fill="#414042" d="M18.813,22.351h-0.625c-0.276,0-0.5,0.224-0.5,0.5s0.224,0.5,0.5,0.5h0.625c0.276,0,0.5-0.224,0.5-0.5
		S19.089,22.351,18.813,22.351z"/>
	<path fill="#414042" d="M29.813,38.351h-0.625c-0.276,0-0.5,0.224-0.5,0.5s0.224,0.5,0.5,0.5h0.625c0.276,0,0.5-0.224,0.5-0.5
		S30.089,38.351,29.813,38.351z"/>
	<path fill="#414042" d="M24.313,38.351h-0.625c-0.276,0-0.5,0.224-0.5,0.5s0.224,0.5,0.5,0.5h0.625c0.276,0,0.5-0.224,0.5-0.5
		S24.589,38.351,24.313,38.351z"/>
	<path fill="#414042" d="M18.813,38.351h-0.625c-0.276,0-0.5,0.224-0.5,0.5s0.224,0.5,0.5,0.5h0.625c0.276,0,0.5-0.224,0.5-0.5
		S19.089,38.351,18.813,38.351z"/>
</g>
</svg>
