<?xml version="1.0" encoding="utf-8"?>
<!-- Generator: Adobe Illustrator 16.0.0, SVG Export Plug-In . SVG Version: 6.00 Build 0)  -->
<!DOCTYPE svg PUBLIC "-//W3C//DTD SVG 1.1//EN" "http://www.w3.org/Graphics/SVG/1.1/DTD/svg11.dtd">
<svg version="1.1" id="Layer_1" xmlns="http://www.w3.org/2000/svg" xmlns:xlink="http://www.w3.org/1999/xlink" x="0px" y="0px"
	 width="48px" height="48px" viewBox="0 0 48 48" enable-background="new 0 0 48 48" xml:space="preserve">
<g>
	<path fill="#414042" d="M7.543,24.499H9.17c0.276,0,0.5-0.224,0.5-0.5s-0.224-0.5-0.5-0.5H7.543c-0.276,0-0.5,0.224-0.5,0.5
		S7.267,24.499,7.543,24.499z"/>
	<path fill="#414042" d="M17.043,21.009h1.627c0.276,0,0.5-0.224,0.5-0.5s-0.224-0.5-0.5-0.5h-1.627c-0.276,0-0.5,0.224-0.5,0.5
		S16.767,21.009,17.043,21.009z"/>
	<path fill="#414042" d="M9.232,27.55H7.605c-0.276,0-0.5,0.224-0.5,0.5s0.224,0.5,0.5,0.5h1.627c0.276,0,0.5-0.224,0.5-0.5
		S9.509,27.55,9.232,27.55z"/>
	<path fill="#414042" d="M12.543,24.499h1.627c0.276,0,0.5-0.224,0.5-0.5s-0.224-0.5-0.5-0.5h-1.627c-0.276,0-0.5,0.224-0.5,0.5
		S12.267,24.499,12.543,24.499z"/>
	<path fill="#414042" d="M22.544,21.009h1.625c0.276,0,0.5-0.224,0.5-0.5s-0.224-0.5-0.5-0.5h-1.625c-0.276,0-0.5,0.224-0.5,0.5
		S22.268,21.009,22.544,21.009z"/>
	<path fill="#414042" d="M17.543,23.499c-0.276,0-0.5,0.224-0.5,0.5s0.224,0.5,0.5,0.5h1.627c0.276,0,0.5-0.224,0.5-0.5
		s-0.224-0.5-0.5-0.5H17.543z"/>
	<path fill="#414042" d="M33.544,21.009h1.625c0.276,0,0.5-0.224,0.5-0.5s-0.224-0.5-0.5-0.5h-1.625c-0.276,0-0.5,0.224-0.5,0.5
		S33.268,21.009,33.544,21.009z"/>
	<path fill="#414042" d="M22.544,24.499h1.625c0.276,0,0.5-0.224,0.5-0.5s-0.224-0.5-0.5-0.5h-1.625c-0.276,0-0.5,0.224-0.5,0.5
		S22.268,24.499,22.544,24.499z"/>
	<path fill="#414042" d="M13.67,20.509c0-0.276-0.224-0.5-0.5-0.5h-1.627c-0.276,0-0.5,0.224-0.5,0.5s0.224,0.5,0.5,0.5h1.627
		C13.446,21.009,13.67,20.785,13.67,20.509z"/>
	<path fill="#414042" d="M34.169,23.499h-1.625c-0.276,0-0.5,0.224-0.5,0.5s0.224,0.5,0.5,0.5h1.625c0.276,0,0.5-0.224,0.5-0.5
		S34.445,23.499,34.169,23.499z"/>
	<path fill="#414042" d="M36.711,27.653h-1.627c-0.276,0-0.5,0.224-0.5,0.5s0.224,0.5,0.5,0.5h1.627c0.276,0,0.5-0.224,0.5-0.5
		S36.987,27.653,36.711,27.653z"/>
	<path fill="#414042" d="M39.169,23.499h-1.625c-0.276,0-0.5,0.224-0.5,0.5s0.224,0.5,0.5,0.5h1.625c0.276,0,0.5-0.224,0.5-0.5
		S39.445,23.499,39.169,23.499z"/>
	<path fill="#414042" d="M26.981,27.618H12.606c-0.276,0-0.5,0.224-0.5,0.5s0.224,0.5,0.5,0.5h14.375c0.276,0,0.5-0.224,0.5-0.5
		S27.258,27.618,26.981,27.618z"/>
	<path fill="#414042" d="M42.091,15.669H5.909c-0.756,0-1.37,0.615-1.37,1.371v13.922c0,0.755,0.614,1.369,1.37,1.369h36.182
		c0.756,0,1.37-0.614,1.37-1.369V17.04C43.461,16.284,42.847,15.669,42.091,15.669z M42.461,30.962c0,0.204-0.166,0.369-0.37,0.369
		H5.909c-0.204,0-0.37-0.165-0.37-0.369V17.04c0-0.205,0.166-0.371,0.37-0.371h36.182c0.204,0,0.37,0.167,0.37,0.371V30.962z"/>
	<path fill="#414042" d="M29.169,23.499h-1.625c-0.276,0-0.5,0.224-0.5,0.5s0.224,0.5,0.5,0.5h1.625c0.276,0,0.5-0.224,0.5-0.5
		S29.445,23.499,29.169,23.499z"/>
	<path fill="#414042" d="M30.169,20.509c0-0.276-0.224-0.5-0.5-0.5h-1.625c-0.276,0-0.5,0.224-0.5,0.5s0.224,0.5,0.5,0.5h1.625
		C29.945,21.009,30.169,20.785,30.169,20.509z"/>
	<path fill="#414042" d="M32.044,27.612h-1.627c-0.276,0-0.5,0.224-0.5,0.5s0.224,0.5,0.5,0.5h1.627c0.276,0,0.5-0.224,0.5-0.5
		S32.32,27.612,32.044,27.612z"/>
</g>
</svg>
