<?xml version="1.0" encoding="utf-8"?>
<!-- Generator: Adobe Illustrator 16.0.0, SVG Export Plug-In . SVG Version: 6.00 Build 0)  -->
<!DOCTYPE svg PUBLIC "-//W3C//DTD SVG 1.1//EN" "http://www.w3.org/Graphics/SVG/1.1/DTD/svg11.dtd">
<svg version="1.1" id="Layer_1" xmlns="http://www.w3.org/2000/svg" xmlns:xlink="http://www.w3.org/1999/xlink" x="0px" y="0px"
	 width="48px" height="48px" viewBox="0 0 48 48" enable-background="new 0 0 48 48" xml:space="preserve">
<g>
	<path fill="#414042" d="M34.215,3.071H13.787c-3.092,0-5.607,2.516-5.607,5.607v30.643c0,3.092,2.516,5.607,5.607,5.607h20.428
		c3.092,0,5.606-2.516,5.606-5.607V8.679C39.821,5.587,37.307,3.071,34.215,3.071z M38.821,39.321c0,2.54-2.066,4.607-4.606,4.607
		H13.787c-2.541,0-4.607-2.067-4.607-4.607V8.679c0-2.541,2.066-4.607,4.607-4.607h20.428c2.54,0,4.606,2.067,4.606,4.607V39.321z"
		/>
	<path fill="#414042" d="M34.215,8.179H13.787c-0.276,0-0.5,0.224-0.5,0.5v17.875c0,0.276,0.224,0.5,0.5,0.5h20.428
		c0.276,0,0.5-0.224,0.5-0.5V8.679C34.715,8.402,34.491,8.179,34.215,8.179z M33.715,26.054H14.287V9.179h19.428V26.054z"/>
	<path fill="#414042" d="M16.691,20.257h1.625c0.276,0,0.5-0.224,0.5-0.5s-0.224-0.5-0.5-0.5h-1.625c-0.276,0-0.5,0.224-0.5,0.5
		S16.415,20.257,16.691,20.257z"/>
	<path fill="#414042" d="M16.691,16.831h1.625c0.276,0,0.5-0.224,0.5-0.5s-0.224-0.5-0.5-0.5h-1.625c-0.276,0-0.5,0.224-0.5,0.5
		S16.415,16.831,16.691,16.831z"/>
	<path fill="#414042" d="M19.691,23.747h1.625c0.276,0,0.5-0.224,0.5-0.5s-0.224-0.5-0.5-0.5h-1.625c-0.276,0-0.5,0.224-0.5,0.5
		S19.415,23.747,19.691,23.747z"/>
	<path fill="#414042" d="M16.691,23.747h1.625c0.276,0,0.5-0.224,0.5-0.5s-0.224-0.5-0.5-0.5h-1.625c-0.276,0-0.5,0.224-0.5,0.5
		S16.415,23.747,16.691,23.747z"/>
	<path fill="#414042" d="M28.691,13.747h1.625c0.276,0,0.5-0.224,0.5-0.5s-0.224-0.5-0.5-0.5h-1.625c-0.276,0-0.5,0.224-0.5,0.5
		S28.415,13.747,28.691,13.747z"/>
	<path fill="#414042" d="M25.691,10.257h1.625c0.276,0,0.5-0.224,0.5-0.5s-0.224-0.5-0.5-0.5h-1.625c-0.276,0-0.5,0.224-0.5,0.5
		S25.415,10.257,25.691,10.257z"/>
	<path fill="#414042" d="M28.691,10.257h1.625c0.276,0,0.5-0.224,0.5-0.5s-0.224-0.5-0.5-0.5h-1.625c-0.276,0-0.5,0.224-0.5,0.5
		S28.415,10.257,28.691,10.257z"/>
	<path fill="#414042" d="M26.146,35.421c0-0.849-0.69-1.539-1.538-1.539c-0.85,0-1.54,0.69-1.54,1.539s0.69,1.539,1.54,1.539
		C25.455,36.96,26.146,36.27,26.146,35.421z M24.067,35.421c0-0.298,0.242-0.539,0.54-0.539c0.297,0,0.538,0.241,0.538,0.539
		s-0.241,0.539-0.538,0.539C24.31,35.96,24.067,35.719,24.067,35.421z"/>
	<path fill="#414042" d="M20.288,33.225c-0.258-0.1-0.547,0.027-0.646,0.285c-0.236,0.608-0.355,1.252-0.355,1.913
		c0,0.627,0.108,1.241,0.321,1.824c0.074,0.202,0.266,0.328,0.47,0.328c0.057,0,0.115-0.01,0.172-0.03
		c0.259-0.095,0.393-0.382,0.298-0.642c-0.173-0.473-0.261-0.972-0.261-1.48c0-0.537,0.097-1.06,0.287-1.552
		C20.674,33.613,20.546,33.324,20.288,33.225z"/>
	<path fill="#414042" d="M26.18,39.447c-1.039,0.408-2.224,0.391-3.252-0.043c-0.251-0.107-0.547,0.01-0.655,0.266
		c-0.107,0.254,0.012,0.547,0.267,0.654c0.656,0.278,1.354,0.419,2.072,0.419c0.666,0,1.316-0.122,1.934-0.364
		c0.257-0.102,0.384-0.391,0.283-0.648S26.436,39.348,26.18,39.447z"/>
	<path fill="#414042" d="M28.904,33.183c-0.257,0.103-0.382,0.393-0.28,0.649c0.201,0.506,0.303,1.041,0.303,1.591
		c0,0.519-0.091,1.024-0.27,1.503c-0.098,0.258,0.034,0.547,0.292,0.643c0.059,0.021,0.117,0.032,0.176,0.032
		c0.202,0,0.393-0.124,0.468-0.325c0.222-0.59,0.334-1.214,0.334-1.853c0-0.677-0.126-1.336-0.373-1.96
		C29.451,33.207,29.16,33.082,28.904,33.183z"/>
	<path fill="#414042" d="M26.653,30.506c-1.378-0.575-2.976-0.535-4.318,0.102c-0.249,0.119-0.355,0.418-0.236,0.666
		c0.085,0.181,0.265,0.286,0.451,0.286c0.072,0,0.146-0.016,0.215-0.048c1.086-0.518,2.387-0.551,3.502-0.082
		c0.255,0.104,0.548-0.014,0.654-0.27C27.027,30.906,26.908,30.613,26.653,30.506z"/>
</g>
</svg>
