<?xml version="1.0" encoding="utf-8"?>
<!-- Generator: Adobe Illustrator 16.0.0, SVG Export Plug-In . SVG Version: 6.00 Build 0)  -->
<!DOCTYPE svg PUBLIC "-//W3C//DTD SVG 1.1//EN" "http://www.w3.org/Graphics/SVG/1.1/DTD/svg11.dtd">
<svg version="1.1" id="Layer_1" xmlns="http://www.w3.org/2000/svg" xmlns:xlink="http://www.w3.org/1999/xlink" x="0px" y="0px"
	 width="48px" height="48px" viewBox="0 0 48 48" enable-background="new 0 0 48 48" xml:space="preserve">
<g>
	<path fill="#414042" d="M43.428,19.457l-7.197-3.795c-0.072-0.038-0.152-0.058-0.233-0.058H12.005c-0.081,0-0.161,0.02-0.233,0.058
		l-7.197,3.795c-0.164,0.086-0.267,0.257-0.267,0.442v11.996c0,0.276,0.224,0.5,0.5,0.5h38.387c0.276,0,0.5-0.224,0.5-0.5V19.899
		C43.694,19.714,43.592,19.543,43.428,19.457z M12.129,16.604h23.744l5.371,2.832H6.758L12.129,16.604z M42.694,31.396H5.308V20.437
		h37.387V31.396z"/>
	<path fill="#414042" d="M8.187,26.079h31.627c0.276,0,0.5-0.224,0.5-0.5s-0.224-0.5-0.5-0.5H8.187c-0.276,0-0.5,0.224-0.5,0.5
		S7.91,26.079,8.187,26.079z"/>
</g>
</svg>
