<?xml version="1.0" encoding="utf-8"?>
<!-- Generator: Adobe Illustrator 16.0.0, SVG Export Plug-In . SVG Version: 6.00 Build 0)  -->
<!DOCTYPE svg PUBLIC "-//W3C//DTD SVG 1.1//EN" "http://www.w3.org/Graphics/SVG/1.1/DTD/svg11.dtd">
<svg version="1.1" id="Layer_1" xmlns="http://www.w3.org/2000/svg" xmlns:xlink="http://www.w3.org/1999/xlink" x="0px" y="0px"
	 width="48px" height="48px" viewBox="0 0 48 48" enable-background="new 0 0 48 48" xml:space="preserve">
<g>
	<path fill="#414042" d="M6.5,5.874h35c0.276,0,0.5-0.224,0.5-0.5s-0.224-0.5-0.5-0.5h-35c-0.276,0-0.5,0.224-0.5,0.5
		S6.224,5.874,6.5,5.874z"/>
	<path fill="#414042" d="M9.916,37.343h-0.25c-0.276,0-0.5,0.224-0.5,0.5v0.25c0,0.276,0.224,0.5,0.5,0.5h0.25
		c0.276,0,0.5-0.224,0.5-0.5v-0.25C10.416,37.566,10.192,37.343,9.916,37.343z"/>
	<path fill="#414042" d="M13.791,37.343h-0.25c-0.276,0-0.5,0.224-0.5,0.5v0.25c0,0.276,0.224,0.5,0.5,0.5h0.25
		c0.276,0,0.5-0.224,0.5-0.5v-0.25C14.291,37.566,14.067,37.343,13.791,37.343z"/>
	<path fill="#414042" d="M37.916,37.343h-0.25c-0.276,0-0.5,0.224-0.5,0.5v0.25c0,0.276,0.224,0.5,0.5,0.5h0.25
		c0.276,0,0.5-0.224,0.5-0.5v-0.25C38.416,37.566,38.192,37.343,37.916,37.343z"/>
	<path fill="#414042" d="M27.791,37.343h-0.25c-0.276,0-0.5,0.224-0.5,0.5v0.25c0,0.276,0.224,0.5,0.5,0.5h0.25
		c0.276,0,0.5-0.224,0.5-0.5v-0.25C28.291,37.566,28.067,37.343,27.791,37.343z"/>
	<path fill="#414042" d="M23.791,37.343h-0.25c-0.276,0-0.5,0.224-0.5,0.5v0.25c0,0.276,0.224,0.5,0.5,0.5h0.25
		c0.276,0,0.5-0.224,0.5-0.5v-0.25C24.291,37.566,24.067,37.343,23.791,37.343z"/>
	<path fill="#414042" d="M13.75,25.593H13.5c-0.276,0-0.5,0.224-0.5,0.5v0.25c0,0.276,0.224,0.5,0.5,0.5h0.25
		c0.276,0,0.5-0.224,0.5-0.5v-0.25C14.25,25.816,14.026,25.593,13.75,25.593z"/>
	<path fill="#414042" d="M9.875,25.593h-0.25c-0.276,0-0.5,0.224-0.5,0.5v0.25c0,0.276,0.224,0.5,0.5,0.5h0.25
		c0.276,0,0.5-0.224,0.5-0.5v-0.25C10.375,25.816,10.151,25.593,9.875,25.593z"/>
	<path fill="#414042" d="M23.75,25.593H23.5c-0.276,0-0.5,0.224-0.5,0.5v0.25c0,0.276,0.224,0.5,0.5,0.5h0.25
		c0.276,0,0.5-0.224,0.5-0.5v-0.25C24.25,25.816,24.026,25.593,23.75,25.593z"/>
	<path fill="#414042" d="M27.75,25.593H27.5c-0.276,0-0.5,0.224-0.5,0.5v0.25c0,0.276,0.224,0.5,0.5,0.5h0.25
		c0.276,0,0.5-0.224,0.5-0.5v-0.25C28.25,25.816,28.026,25.593,27.75,25.593z"/>
	<path fill="#414042" d="M37.875,25.593h-0.25c-0.276,0-0.5,0.224-0.5,0.5v0.25c0,0.276,0.224,0.5,0.5,0.5h0.25
		c0.276,0,0.5-0.224,0.5-0.5v-0.25C38.375,25.816,38.151,25.593,37.875,25.593z"/>
	<path fill="#414042" d="M27.875,13.718h-0.25c-0.276,0-0.5,0.224-0.5,0.5v0.25c0,0.276,0.224,0.5,0.5,0.5h0.25
		c0.276,0,0.5-0.224,0.5-0.5v-0.25C28.375,13.941,28.151,13.718,27.875,13.718z"/>
	<path fill="#414042" d="M38,13.718h-0.25c-0.276,0-0.5,0.224-0.5,0.5v0.25c0,0.276,0.224,0.5,0.5,0.5H38c0.276,0,0.5-0.224,0.5-0.5
		v-0.25C38.5,13.941,38.276,13.718,38,13.718z"/>
	<path fill="#414042" d="M23.875,13.718h-0.25c-0.276,0-0.5,0.224-0.5,0.5v0.25c0,0.276,0.224,0.5,0.5,0.5h0.25
		c0.276,0,0.5-0.224,0.5-0.5v-0.25C24.375,13.941,24.151,13.718,23.875,13.718z"/>
	<path fill="#414042" d="M10,13.718H9.75c-0.276,0-0.5,0.224-0.5,0.5v0.25c0,0.276,0.224,0.5,0.5,0.5H10c0.276,0,0.5-0.224,0.5-0.5
		v-0.25C10.5,13.941,10.276,13.718,10,13.718z"/>
	<path fill="#414042" d="M13.875,13.718h-0.25c-0.276,0-0.5,0.224-0.5,0.5v0.25c0,0.276,0.224,0.5,0.5,0.5h0.25
		c0.276,0,0.5-0.224,0.5-0.5v-0.25C14.375,13.941,14.151,13.718,13.875,13.718z"/>
	<path fill="#414042" d="M41.5,8.208c-0.276,0-0.5,0.224-0.5,0.5v2.354H7V8.708c0-0.276-0.224-0.5-0.5-0.5S6,8.432,6,8.708v2.854
		v3.064v2.498c0,0.276,0.224,0.5,0.5,0.5h35c0.276,0,0.5-0.224,0.5-0.5v-2.498v-3.064V8.708C42,8.432,41.776,8.208,41.5,8.208z
		 M41,16.624H7v-1.998v-2.564h34v2.564V16.624z"/>
	<path fill="#414042" d="M41.5,20.208c-0.276,0-0.5,0.224-0.5,0.5v2.104H7v-2.104c0-0.276-0.224-0.5-0.5-0.5S6,20.432,6,20.708
		v2.604v3.314v2.248c0,0.276,0.224,0.5,0.5,0.5h35c0.276,0,0.5-0.224,0.5-0.5v-2.248v-3.314v-2.604
		C42,20.432,41.776,20.208,41.5,20.208z M41,28.374H7v-1.748v-2.814h34v2.814V28.374z"/>
	<path fill="#414042" d="M41.5,32.208c-0.276,0-0.5,0.224-0.5,0.5v1.854H7v-1.854c0-0.276-0.224-0.5-0.5-0.5S6,32.432,6,32.708
		v2.354v5.563v2.002c0,0.276,0.224,0.5,0.5,0.5s0.5-0.224,0.5-0.5v-1.502h34v1.502c0,0.276,0.224,0.5,0.5,0.5s0.5-0.224,0.5-0.5
		v-2.002v-5.563v-2.354C42,32.432,41.776,32.208,41.5,32.208z M7,40.124v-4.563h34v4.563H7z"/>
</g>
</svg>
