<?xml version="1.0" encoding="utf-8"?>
<!-- Generator: Adobe Illustrator 16.0.0, SVG Export Plug-In . SVG Version: 6.00 Build 0)  -->
<!DOCTYPE svg PUBLIC "-//W3C//DTD SVG 1.1//EN" "http://www.w3.org/Graphics/SVG/1.1/DTD/svg11.dtd">
<svg version="1.1" id="Layer_1" xmlns="http://www.w3.org/2000/svg" xmlns:xlink="http://www.w3.org/1999/xlink" x="0px" y="0px"
	 width="48px" height="48px" viewBox="0 0 48 48" enable-background="new 0 0 48 48" xml:space="preserve">
<g>
	<path fill="#414042" d="M29.433,39.624h-5.625V28.499c0-0.276-0.224-0.5-0.5-0.5s-0.5,0.224-0.5,0.5v11.125h-6.25
		c-0.276,0-0.5,0.224-0.5,0.5s0.224,0.5,0.5,0.5h12.875c0.276,0,0.5-0.224,0.5-0.5S29.709,39.624,29.433,39.624z"/>
	<path fill="#414042" d="M43.438,11.227L36.24,7.434c-0.072-0.038-0.152-0.058-0.233-0.058H12.015c-0.081,0-0.161,0.02-0.233,0.058
		l-7.197,3.793c-0.164,0.086-0.267,0.257-0.267,0.442v11.996c0,0.276,0.224,0.5,0.5,0.5h38.387c0.276,0,0.5-0.224,0.5-0.5V11.669
		C43.704,11.483,43.602,11.313,43.438,11.227z M12.139,8.376h23.744l5.374,2.832H6.765L12.139,8.376z M42.704,23.165H5.317V12.208
		h37.387V23.165z"/>
	<path fill="#414042" d="M9.558,18.659h0.25c0.276,0,0.5-0.224,0.5-0.5v-0.25c0-0.276-0.224-0.5-0.5-0.5h-0.25
		c-0.276,0-0.5,0.224-0.5,0.5v0.25C9.058,18.436,9.281,18.659,9.558,18.659z"/>
	<path fill="#414042" d="M13.433,18.659h0.25c0.276,0,0.5-0.224,0.5-0.5v-0.25c0-0.276-0.224-0.5-0.5-0.5h-0.25
		c-0.276,0-0.5,0.224-0.5,0.5v0.25C12.933,18.436,13.156,18.659,13.433,18.659z"/>
	<path fill="#414042" d="M34.433,18.659h0.25c0.276,0,0.5-0.224,0.5-0.5v-0.25c0-0.276-0.224-0.5-0.5-0.5h-0.25
		c-0.276,0-0.5,0.224-0.5,0.5v0.25C33.933,18.436,34.156,18.659,34.433,18.659z"/>
	<path fill="#414042" d="M38.558,18.659h0.25c0.276,0,0.5-0.224,0.5-0.5v-0.25c0-0.276-0.224-0.5-0.5-0.5h-0.25
		c-0.276,0-0.5,0.224-0.5,0.5v0.25C38.058,18.436,38.281,18.659,38.558,18.659z"/>
	<path fill="#414042" d="M17.683,18.534h12.625c0.276,0,0.5-0.224,0.5-0.5s-0.224-0.5-0.5-0.5H17.683c-0.276,0-0.5,0.224-0.5,0.5
		S17.406,18.534,17.683,18.534z"/>
	<path fill="#414042" d="M42.818,26.499H4.797c-0.276,0-0.5,0.224-0.5,0.5s0.224,0.5,0.5,0.5h38.021c0.276,0,0.5-0.224,0.5-0.5
		S43.095,26.499,42.818,26.499z"/>
</g>
</svg>
