<?xml version="1.0" encoding="utf-8"?>
<!-- Generator: Adobe Illustrator 16.0.0, SVG Export Plug-In . SVG Version: 6.00 Build 0)  -->
<!DOCTYPE svg PUBLIC "-//W3C//DTD SVG 1.1//EN" "http://www.w3.org/Graphics/SVG/1.1/DTD/svg11.dtd">
<svg version="1.1" id="Layer_1" xmlns="http://www.w3.org/2000/svg" xmlns:xlink="http://www.w3.org/1999/xlink" x="0px" y="0px"
	 width="48px" height="48px" viewBox="0 0 48 48" enable-background="new 0 0 48 48" xml:space="preserve">
<g>
	<path fill="#414042" d="M33.475,16.25c-0.276,0-0.5,0.224-0.5,0.5v7.302c-0.145,5.897-5.113,8.094-8.211,8.094H24
		c-3.304,0-8.911-1.703-8.973-8.082V16.75c0-0.276-0.224-0.5-0.5-0.5s-0.5,0.224-0.5,0.5v7.319c0.068,7.181,6.554,9.077,9.973,9.077
		h0.764c3.475,0,9.049-2.463,9.211-9.082V16.75C33.975,16.474,33.751,16.25,33.475,16.25z"/>
	<path fill="#414042" d="M36.516,14.859h-6.471c0.039-0.071,0.066-0.148,0.066-0.234V6.75c0-0.276-0.224-0.5-0.5-0.5
		s-0.5,0.224-0.5,0.5v7.875c0,0.086,0.027,0.164,0.066,0.234H18.745c0.039-0.071,0.066-0.148,0.066-0.234V6.75
		c0-0.276-0.224-0.5-0.5-0.5s-0.5,0.224-0.5,0.5v7.875c0,0.086,0.027,0.164,0.066,0.234h-6.392c-0.276,0-0.5,0.224-0.5,0.5
		s0.224,0.5,0.5,0.5h25.031c0.276,0,0.5-0.224,0.5-0.5S36.792,14.859,36.516,14.859z"/>
	<path fill="#414042" d="M24,34.898c-0.276,0-0.5,0.224-0.5,0.5v5.852c0,0.276,0.224,0.5,0.5,0.5s0.5-0.224,0.5-0.5v-5.852
		C24.5,35.122,24.276,34.898,24,34.898z"/>
	<path fill="#414042" d="M27.197,25.199c0-1.763-1.434-3.197-3.195-3.197c-1.763,0-3.197,1.434-3.197,3.197
		c0,1.762,1.435,3.195,3.197,3.195C25.764,28.395,27.197,26.961,27.197,25.199z M21.805,25.199c0-1.211,0.985-2.197,2.197-2.197
		c1.211,0,2.195,0.986,2.195,2.197c0,1.211-0.984,2.195-2.195,2.195C22.79,27.395,21.805,26.41,21.805,25.199z"/>
</g>
</svg>
