<?xml version="1.0" encoding="utf-8"?>
<!-- Generator: Adobe Illustrator 16.0.0, SVG Export Plug-In . SVG Version: 6.00 Build 0)  -->
<!DOCTYPE svg PUBLIC "-//W3C//DTD SVG 1.1//EN" "http://www.w3.org/Graphics/SVG/1.1/DTD/svg11.dtd">
<svg version="1.1" id="Layer_1" xmlns="http://www.w3.org/2000/svg" xmlns:xlink="http://www.w3.org/1999/xlink" x="0px" y="0px"
	 width="48px" height="48px" viewBox="0 0 48 48" enable-background="new 0 0 48 48" xml:space="preserve">
<g>
	<path fill="#414042" d="M33.915,15.789c-0.002-0.275-0.226-0.497-0.5-0.497h-3.337c0.018-0.051,0.032-0.104,0.032-0.16V8.931
		c0-0.276-0.224-0.5-0.5-0.5s-0.5,0.224-0.5,0.5v6.201c0,0.057,0.015,0.109,0.032,0.16h-4.688c0.018-0.051,0.032-0.104,0.032-0.16
		V6.243c0-0.276-0.224-0.5-0.5-0.5s-0.5,0.224-0.5,0.5v8.889c0,0.057,0.015,0.109,0.032,0.16h-4.742
		c0.018-0.051,0.032-0.104,0.032-0.16V8.931c0-0.276-0.224-0.5-0.5-0.5s-0.5,0.224-0.5,0.5v6.201c0,0.057,0.015,0.109,0.032,0.16
		h-3.284c-0.275,0-0.499,0.223-0.5,0.498l-0.031,8.788c0.068,7.18,6.554,9.077,9.973,9.077h0.764c3.475,0,9.048-2.462,9.211-9.085
		L33.915,15.789z M32.918,16.292l0.021,3.214l-17.889,0.091c-0.002,0-0.004,0.001-0.007,0.001l0.012-3.306H32.918z M24.763,32.655
		h-0.764c-3.304,0-8.911-1.703-8.973-8.08l0.014-3.981c0.004,0,0.008,0.003,0.013,0.003c0.001,0,0.002,0,0.003,0l17.89-0.091
		l0.027,4.055C32.829,30.457,27.86,32.655,24.763,32.655z"/>
	<path fill="#414042" d="M23.999,35.407c-0.276,0-0.5,0.224-0.5,0.5v5.85c0,0.276,0.224,0.5,0.5,0.5s0.5-0.224,0.5-0.5v-5.85
		C24.499,35.631,24.275,35.407,23.999,35.407z"/>
	<path fill="#414042" d="M23.985,25.585c-0.837,0-1.518,0.681-1.518,1.518s0.682,1.518,1.52,1.518c0.837,0,1.518-0.681,1.518-1.518
		S24.823,25.585,23.985,25.585z M23.987,27.62c-0.286,0-0.52-0.232-0.52-0.518s0.232-0.518,0.518-0.518
		c0.286,0,0.52,0.232,0.52,0.518S24.272,27.62,23.987,27.62z"/>
</g>
</svg>
