<?xml version="1.0" encoding="utf-8"?>
<!-- Generator: Adobe Illustrator 16.0.0, SVG Export Plug-In . SVG Version: 6.00 Build 0)  -->
<!DOCTYPE svg PUBLIC "-//W3C//DTD SVG 1.1//EN" "http://www.w3.org/Graphics/SVG/1.1/DTD/svg11.dtd">
<svg version="1.1" id="Layer_1" xmlns="http://www.w3.org/2000/svg" xmlns:xlink="http://www.w3.org/1999/xlink" x="0px" y="0px"
	 width="48px" height="48px" viewBox="0 0 48 48" enable-background="new 0 0 48 48" xml:space="preserve">
<path fill="#414042" d="M33.58,31.268l-9.763-7.153l9.781-7.395c0.084-0.067,0.819-0.689,0.851-1.635
	c0.02-0.613-0.258-1.19-0.867-1.749l-7.634-5.658c-0.486-0.322-2.147-1.33-3.065-0.796c-0.271,0.157-0.583,0.5-0.534,1.206v14.952
	l-8.001-5.863c-0.224-0.163-0.536-0.115-0.699,0.108c-0.163,0.223-0.115,0.536,0.107,0.699l8.388,6.145l-8.394,6.345
	c-0.22,0.167-0.264,0.48-0.097,0.701c0.166,0.221,0.479,0.264,0.7,0.098l7.995-6.046l0.001,14.653
	c-0.05,0.74,0.263,1.082,0.533,1.24c0.187,0.107,0.402,0.152,0.634,0.152c0.91,0,2.048-0.695,2.454-0.965l7.653-5.675
	c0.567-0.525,0.846-1.103,0.825-1.717C34.417,31.969,33.682,31.35,33.58,31.268z M23.386,7.746c0.032-0.019,0.08-0.028,0.139-0.028
	c0.363,0,1.18,0.337,1.851,0.779l7.57,5.608c0.343,0.317,0.513,0.633,0.504,0.942c-0.013,0.498-0.468,0.886-0.467,0.886
	l-9.634,7.284L23.348,8.053C23.332,7.829,23.377,7.75,23.386,7.746z M32.986,33.863l-7.589,5.625
	c-0.802,0.529-1.775,0.9-2.012,0.766c-0.009-0.004-0.054-0.083-0.037-0.341V25.011l9.621,7.05c0.005,0.003,0.463,0.395,0.479,0.889
	C33.46,33.26,33.29,33.578,32.986,33.863z"/>
</svg>
