<?xml version="1.0" encoding="utf-8"?>
<!-- Generator: Adobe Illustrator 16.0.0, SVG Export Plug-In . SVG Version: 6.00 Build 0)  -->
<!DOCTYPE svg PUBLIC "-//W3C//DTD SVG 1.1//EN" "http://www.w3.org/Graphics/SVG/1.1/DTD/svg11.dtd">
<svg version="1.1" id="Layer_1" xmlns="http://www.w3.org/2000/svg" xmlns:xlink="http://www.w3.org/1999/xlink" x="0px" y="0px"
	 width="48px" height="48px" viewBox="0 0 48 48" enable-background="new 0 0 48 48" xml:space="preserve">
<g>
	<path fill="#414042" d="M24.001,3.001c-11.58,0-21.002,9.42-21.002,21c0,6.982,3.44,13.163,8.7,16.982
		c0.006,0.009,0.008,0.019,0.015,0.026c0.058,0.069,0.131,0.112,0.209,0.142c3.42,2.415,7.582,3.848,12.078,3.848
		c11.579,0,21-9.42,21-20.998C45.001,12.421,35.58,3.001,24.001,3.001z M3.999,24.001c0-11.028,8.973-20,20.002-20
		c7.804,0,14.56,4.502,17.854,11.036l-9.171,7.704c-0.614-4.248-4.269-7.525-8.683-7.525c-4.843,0-8.783,3.941-8.783,8.785
		c0,3.885,2.538,7.183,6.04,8.339l-9.16,7.695C7.195,36.387,3.999,30.567,3.999,24.001z M16.218,24.001
		c0-4.293,3.491-7.785,7.783-7.785s7.783,3.492,7.783,7.785c0,4.292-3.491,7.783-7.783,7.783S16.218,28.293,16.218,24.001z
		 M24.001,43.999c-4.093,0-7.899-1.24-11.072-3.357l9.526-8.002c0.503,0.09,1.018,0.145,1.546,0.145c4.843,0,8.783-3.94,8.783-8.783
		c0-0.019-0.003-0.037-0.003-0.056c0.024-0.014,0.05-0.023,0.072-0.042l9.449-7.938c1.085,2.462,1.698,5.177,1.698,8.035
		C44.001,35.027,35.029,43.999,24.001,43.999z"/>
	<path fill="#414042" d="M29.333,24.001c0-2.941-2.392-5.334-5.332-5.334c-2.941,0-5.334,2.393-5.334,5.334
		c0,2.94,2.393,5.332,5.334,5.332C26.941,29.333,29.333,26.941,29.333,24.001z M19.667,24.001c0-2.39,1.944-4.334,4.334-4.334
		c2.389,0,4.332,1.944,4.332,4.334c0,2.389-1.943,4.332-4.332,4.332C21.611,28.333,19.667,26.39,19.667,24.001z"/>
</g>
</svg>
