<?xml version="1.0" encoding="utf-8"?>
<!-- Generator: Adobe Illustrator 16.0.0, SVG Export Plug-In . SVG Version: 6.00 Build 0)  -->
<!DOCTYPE svg PUBLIC "-//W3C//DTD SVG 1.1//EN" "http://www.w3.org/Graphics/SVG/1.1/DTD/svg11.dtd">
<svg version="1.1" id="Layer_1" xmlns="http://www.w3.org/2000/svg" xmlns:xlink="http://www.w3.org/1999/xlink" x="0px" y="0px"
	 width="48px" height="48px" viewBox="0 0 48 48" enable-background="new 0 0 48 48" xml:space="preserve">
<g>
	<path fill="#414042" d="M46.179,30.639l-1.875-11.312c-0.001-0.007-0.006-0.012-0.007-0.019c-0.099-2.678-1.632-4.994-3.859-6.192
		v-1.463c0-0.883-0.718-1.602-1.6-1.602h-4.342c-0.886,0-1.605,0.718-1.605,1.602v1.837c-0.085,0.057-0.164,0.122-0.246,0.182
		H15.248c-0.147-0.108-0.297-0.21-0.452-0.308v-1.712c0-0.883-0.719-1.602-1.603-1.602H8.85c-0.884,0-1.603,0.718-1.603,1.602v1.585
		c-2.115,1.229-3.559,3.479-3.654,6.073c-0.001,0.007-0.007,0.013-0.008,0.021L1.82,30.645c-0.33,2.141-0.434,5.166,2.474,6.707
		c0.764,0.404,1.584,0.596,2.393,0.596c1.822,0,3.582-0.975,4.486-2.682l2.915-5.509c0.842,0.819,1.986,1.329,3.251,1.329
		c2.576,0,4.672-2.095,4.672-4.67c0-0.021-0.006-0.041-0.006-0.063h4.044c0,0.021-0.006,0.041-0.006,0.063
		c0,2.575,2.096,4.67,4.672,4.67c1.247,0,2.376-0.498,3.214-1.298l2.9,5.478c0.904,1.708,2.662,2.682,4.484,2.682
		c0.809,0,1.629-0.191,2.394-0.596C46.614,35.81,46.511,32.785,46.179,30.639z M43.311,19.58c0,3.494-2.843,6.336-6.336,6.336
		s-6.335-2.842-6.335-6.336s2.842-6.336,6.335-6.336S43.311,16.086,43.311,19.58z M33.891,11.652c0-0.332,0.271-0.602,0.605-0.602
		h4.342c0.331,0,0.6,0.27,0.6,0.602v1.026c-0.771-0.276-1.598-0.435-2.463-0.435c-1.103,0-2.145,0.251-3.084,0.689V11.652z
		 M8.247,11.652c0-0.332,0.271-0.602,0.603-0.602h4.344c0.332,0,0.603,0.27,0.603,0.602v1.182c-0.885-0.379-1.857-0.59-2.879-0.59
		c-0.942,0-1.841,0.185-2.67,0.51V11.652z M10.917,13.244c3.495,0,6.338,2.842,6.338,6.336s-2.843,6.336-6.338,6.336
		s-6.338-2.842-6.338-6.336S7.422,13.244,10.917,13.244z M10.288,34.797c-1.047,1.979-3.527,2.729-5.526,1.672
		c-1.808-0.959-2.41-2.709-1.953-5.671l1.318-8.448c1.096,2.675,3.725,4.566,6.791,4.566c0.615,0,1.21-0.084,1.781-0.228
		c0.047,0.805,0.291,1.554,0.696,2.198c-0.041,0.093-0.076,0.187-0.125,0.277L10.288,34.797z M17.339,30.086
		c-2.022,0-3.668-1.646-3.668-3.67c0-0.014,0.002-0.027,0.002-0.042c1.683-0.685,3.05-1.977,3.841-3.602
		c1.919,0.135,3.497,1.74,3.497,3.644C21.011,28.439,19.363,30.086,17.339,30.086z M21.875,25.354
		c-0.443-1.859-2.017-3.278-3.969-3.543c0.225-0.704,0.349-1.453,0.349-2.23c0-1.888-0.724-3.606-1.9-4.908h15.185
		c-1.176,1.302-1.899,3.02-1.899,4.908c0,0.78,0.125,1.53,0.352,2.236c-1.879,0.285-3.388,1.696-3.816,3.538H21.875z M30.715,30.086
		c-2.024,0-3.672-1.646-3.672-3.67c0-1.921,1.476-3.485,3.34-3.64c0.815,1.675,2.246,2.992,4,3.658
		C34.373,28.449,32.732,30.086,30.715,30.086z M43.239,36.469c-2.003,1.057-4.479,0.307-5.526-1.672l-2.981-5.632
		c-0.041-0.077-0.074-0.145-0.105-0.213c0.421-0.647,0.672-1.408,0.728-2.223c0.522,0.118,1.063,0.187,1.621,0.187
		c3.084,0,5.726-1.916,6.809-4.619l1.408,8.5C45.649,33.76,45.047,35.51,43.239,36.469z"/>
	<path fill="#414042" d="M17.339,25.75c-0.458,0-0.83,0.373-0.83,0.832s0.372,0.832,0.83,0.832c0.459,0,0.832-0.373,0.832-0.832
		S17.798,25.75,17.339,25.75z M17.171,26.582c0-0.093,0.075-0.168,0.168-0.168c0.096,0,0.17,0.074,0.17,0.168
		C17.509,26.768,17.171,26.77,17.171,26.582z"/>
	<path fill="#414042" d="M30.471,25.75c-0.458,0-0.831,0.373-0.831,0.832s0.373,0.832,0.831,0.832s0.83-0.373,0.83-0.832
		S30.929,25.75,30.471,25.75z M30.301,26.582c0-0.093,0.076-0.168,0.17-0.168c0.095,0,0.169,0.074,0.169,0.168
		C30.64,26.77,30.301,26.77,30.301,26.582z"/>
	<path fill="#414042" d="M10.208,17.146h1.263c0.276,0,0.5-0.224,0.5-0.5s-0.224-0.5-0.5-0.5h-1.263c-0.276,0-0.5,0.224-0.5,0.5
		S9.932,17.146,10.208,17.146z"/>
	<path fill="#414042" d="M11.6,22.014h-1.258c-0.276,0-0.5,0.224-0.5,0.5s0.224,0.5,0.5,0.5H11.6c0.276,0,0.5-0.224,0.5-0.5
		S11.876,22.014,11.6,22.014z"/>
	<path fill="#414042" d="M35.937,16.646c0,0.276,0.224,0.5,0.5,0.5h1.263c0.276,0,0.5-0.224,0.5-0.5s-0.224-0.5-0.5-0.5h-1.263
		C36.16,16.146,35.937,16.37,35.937,16.646z"/>
	<path fill="#414042" d="M37.828,22.014h-1.259c-0.276,0-0.5,0.224-0.5,0.5s0.224,0.5,0.5,0.5h1.259c0.276,0,0.5-0.224,0.5-0.5
		S38.104,22.014,37.828,22.014z"/>
</g>
</svg>
