<?xml version="1.0" encoding="utf-8"?>
<!-- Generator: Adobe Illustrator 16.0.0, SVG Export Plug-In . SVG Version: 6.00 Build 0)  -->
<!DOCTYPE svg PUBLIC "-//W3C//DTD SVG 1.1//EN" "http://www.w3.org/Graphics/SVG/1.1/DTD/svg11.dtd">
<svg version="1.1" id="Layer_1" xmlns="http://www.w3.org/2000/svg" xmlns:xlink="http://www.w3.org/1999/xlink" x="0px" y="0px"
	 width="48px" height="48px" viewBox="0 0 48 48" enable-background="new 0 0 48 48" xml:space="preserve">
<g>
	<path fill="#414042" d="M31.914,4.496H16.088c-0.574,0-0.975,0.646-0.975,1.57v35.865c0,0.926,0.4,1.572,0.975,1.572h15.826
		c0.572,0,0.973-0.646,0.973-1.572V6.066C32.887,5.142,32.486,4.496,31.914,4.496z M16.216,5.496h15.57
		c0.044,0.096,0.101,0.292,0.101,0.57v20.646H16.113V6.066C16.113,5.788,16.17,5.591,16.216,5.496z M31.785,42.504H16.216
		c-0.046-0.096-0.103-0.293-0.103-0.572V27.713h15.773v14.219C31.887,42.211,31.83,42.408,31.785,42.504z"/>
	<path fill="#414042" d="M24.002,29.875c-1.825,0-3.311,1.486-3.311,3.313c0,1.824,1.485,3.309,3.311,3.309
		c1.824,0,3.309-1.484,3.309-3.309C27.311,31.361,25.826,29.875,24.002,29.875z M24.002,35.496c-1.274,0-2.311-1.035-2.311-2.309
		c0-1.275,1.036-2.313,2.311-2.313c1.273,0,2.309,1.037,2.309,2.313C26.311,34.461,25.275,35.496,24.002,35.496z"/>
	<path fill="#414042" d="M26.242,38.846H21.76c-0.276,0-0.5,0.224-0.5,0.5s0.224,0.5,0.5,0.5h4.482c0.276,0,0.5-0.224,0.5-0.5
		S26.519,38.846,26.242,38.846z"/>
	<path fill="#414042" d="M19.854,16.463h8.297c0.867,0,1.572-0.705,1.572-1.572v-1.426c0-0.867-0.705-1.572-1.572-1.572h-8.297
		c-0.867,0-1.572,0.705-1.572,1.572v1.426C18.281,15.758,18.986,16.463,19.854,16.463z M19.281,13.465
		c0-0.315,0.257-0.572,0.572-0.572h8.297c0.315,0,0.572,0.257,0.572,0.572v1.426c0,0.315-0.257,0.572-0.572,0.572h-8.297
		c-0.315,0-0.572-0.257-0.572-0.572V13.465z"/>
</g>
</svg>
