<?xml version="1.0" encoding="utf-8"?>
<!-- Generator: Adobe Illustrator 16.0.0, SVG Export Plug-In . SVG Version: 6.00 Build 0)  -->
<!DOCTYPE svg PUBLIC "-//W3C//DTD SVG 1.1//EN" "http://www.w3.org/Graphics/SVG/1.1/DTD/svg11.dtd">
<svg version="1.1" id="Layer_1" xmlns="http://www.w3.org/2000/svg" xmlns:xlink="http://www.w3.org/1999/xlink" x="0px" y="0px"
	 width="48px" height="48px" viewBox="0 0 48 48" enable-background="new 0 0 48 48" xml:space="preserve">
<g>
	<path fill="#414042" d="M43.841,6.275H4.161c-1.103,0-2,0.897-2,2v25.65c0,1.104,0.897,2,2,2h39.68c1.103,0,2-0.896,2-2V8.275
		C45.841,7.172,44.943,6.275,43.841,6.275z M44.841,33.926c0,0.551-0.448,1-1,1H4.161c-0.552,0-1-0.449-1-1V8.275
		c0-0.551,0.448-1,1-1h39.68c0.552,0,1,0.449,1,1V33.926z"/>
	<path fill="#414042" d="M29.437,38.725c0.276,0,0.5-0.224,0.5-0.5s-0.224-0.5-0.5-0.5H18.564c-0.276,0-0.5,0.224-0.5,0.5
		s0.224,0.5,0.5,0.5H29.437z"/>
	<path fill="#414042" d="M40.378,40.725H7.626c-0.276,0-0.5,0.224-0.5,0.5s0.224,0.5,0.5,0.5h32.752c0.276,0,0.5-0.224,0.5-0.5
		S40.654,40.725,40.378,40.725z"/>
</g>
</svg>
