<?xml version="1.0" encoding="utf-8"?>
<!-- Generator: Adobe Illustrator 16.0.0, SVG Export Plug-In . SVG Version: 6.00 Build 0)  -->
<!DOCTYPE svg PUBLIC "-//W3C//DTD SVG 1.1//EN" "http://www.w3.org/Graphics/SVG/1.1/DTD/svg11.dtd">
<svg version="1.1" id="Layer_1" xmlns="http://www.w3.org/2000/svg" xmlns:xlink="http://www.w3.org/1999/xlink" x="0px" y="0px"
	 width="48px" height="48px" viewBox="0 0 48 48" enable-background="new 0 0 48 48" xml:space="preserve">
<g>
	<path fill="#414042" d="M43.619,35.853c0-0.097-0.004-0.199-0.013-0.302c-0.023-0.258-0.239-0.455-0.498-0.455H4.889
		c-0.261,0-0.478,0.2-0.498,0.46c-0.008,0.101-0.012,0.199-0.012,0.294l0.002,1.955c0.084,1.133,0.688,2.506,3.119,2.62h32.998
		c0.008,0,0.056-0.001,0.063-0.001c2.375-0.114,2.975-1.521,3.06-2.719L43.619,35.853z M40.51,39.425l-0.012,0.5v-0.5L7.523,39.426
		c-1.797-0.086-2.09-0.95-2.144-1.658l-0.001-1.672h37.24l0.003,1.573C42.566,38.441,42.276,39.34,40.51,39.425z"/>
	<path fill="#414042" d="M8.562,34.053h30.876c1.607,0,2.915-1.309,2.915-2.916V10.49c0-1.607-1.308-2.915-2.915-2.915H8.562
		c-1.607,0-2.915,1.308-2.915,2.915v20.646C5.646,32.744,6.954,34.053,8.562,34.053z M6.646,10.49c0-1.056,0.859-1.915,1.915-1.915
		h30.876c1.056,0,1.915,0.859,1.915,1.915v20.646c0,1.057-0.859,1.916-1.915,1.916H8.562c-1.056,0-1.915-0.859-1.915-1.916V10.49z"
		/>
</g>
</svg>
