<?xml version="1.0" encoding="utf-8"?>
<!-- Generator: Adobe Illustrator 16.0.0, SVG Export Plug-In . SVG Version: 6.00 Build 0)  -->
<!DOCTYPE svg PUBLIC "-//W3C//DTD SVG 1.1//EN" "http://www.w3.org/Graphics/SVG/1.1/DTD/svg11.dtd">
<svg version="1.1" id="Layer_1" xmlns="http://www.w3.org/2000/svg" xmlns:xlink="http://www.w3.org/1999/xlink" x="0px" y="0px"
	 width="48px" height="48px" viewBox="0 0 48 48" enable-background="new 0 0 48 48" xml:space="preserve">
<g>
	<path fill="#414042" d="M33.973,3.026H14.029c-1.158,0-2.101,0.901-2.101,2.008v37.934c0,1.106,0.942,2.006,2.101,2.006h19.943
		c1.158,0,2.1-0.899,2.1-2.006V5.034C36.072,3.927,35.131,3.026,33.973,3.026z M35.072,42.968c0,0.555-0.493,1.006-1.1,1.006H14.029
		c-0.606,0-1.101-0.451-1.101-1.006V5.034c0-0.556,0.494-1.008,1.101-1.008h19.943c0.606,0,1.1,0.452,1.1,1.008V42.968z"/>
	<path fill="#414042" d="M31.489,9.894H16.738c-0.276,0-0.5,0.224-0.5,0.5v25.107c0,0.276,0.224,0.5,0.5,0.5h14.751
		c0.276,0,0.5-0.224,0.5-0.5V10.394C31.989,10.117,31.766,9.894,31.489,9.894z M30.989,35.001H17.238V10.894h13.751V35.001z"/>
	<path fill="#414042" d="M22.065,7.522h3.871c0.276,0,0.5-0.224,0.5-0.5s-0.224-0.5-0.5-0.5h-3.871c-0.276,0-0.5,0.224-0.5,0.5
		S21.789,7.522,22.065,7.522z"/>
	<path fill="#414042" d="M24.002,38.854c-0.896,0-1.624,0.729-1.624,1.625s0.729,1.623,1.624,1.623c0.895,0,1.622-0.728,1.622-1.623
		S24.896,38.854,24.002,38.854z M24.002,41.103c-0.344,0-0.624-0.279-0.624-0.623c0-0.345,0.28-0.625,0.624-0.625
		c0.343,0,0.622,0.28,0.622,0.625C24.624,40.823,24.345,41.103,24.002,41.103z"/>
</g>
</svg>
