<?xml version="1.0" encoding="utf-8"?>
<!-- Generator: Adobe Illustrator 16.0.0, SVG Export Plug-In . SVG Version: 6.00 Build 0)  -->
<!DOCTYPE svg PUBLIC "-//W3C//DTD SVG 1.1//EN" "http://www.w3.org/Graphics/SVG/1.1/DTD/svg11.dtd">
<svg version="1.1" id="Layer_1" xmlns="http://www.w3.org/2000/svg" xmlns:xlink="http://www.w3.org/1999/xlink" x="0px" y="0px"
	 width="48px" height="48px" viewBox="0 0 48 48" enable-background="new 0 0 48 48" xml:space="preserve">
<g>
	<path fill="#414042" d="M33.379,1.212H14.62c-2.323,0-4.214,1.89-4.214,4.213v37.148c0,2.324,1.891,4.215,4.214,4.215h18.759
		c2.324,0,4.215-1.891,4.215-4.215V5.425C37.594,3.102,35.703,1.212,33.379,1.212z M36.594,42.573c0,1.772-1.442,3.215-3.215,3.215
		H14.62c-1.772,0-3.214-1.442-3.214-3.215V5.425c0-1.771,1.441-3.213,3.214-3.213h18.759c1.772,0,3.215,1.441,3.215,3.213V42.573z"
		/>
	<path fill="#414042" d="M15.752,26.831h16.496c0.276,0,0.5-0.224,0.5-0.5V9.837c0-0.276-0.224-0.5-0.5-0.5H15.752
		c-0.276,0-0.5,0.224-0.5,0.5v16.494C15.252,26.607,15.476,26.831,15.752,26.831z M16.252,10.337h15.496v15.494H16.252V10.337z"/>
	<path fill="#414042" d="M20.348,6.378h7.305c0.276,0,0.5-0.224,0.5-0.5s-0.224-0.5-0.5-0.5h-7.305c-0.276,0-0.5,0.224-0.5,0.5
		S20.071,6.378,20.348,6.378z"/>
	<path fill="#414042" d="M18.707,29.257h-2.415c-0.893,0-1.618,0.727-1.618,1.619c0,0.892,0.726,1.617,1.618,1.617h2.415
		c0.893,0,1.619-0.726,1.619-1.617C20.326,29.983,19.6,29.257,18.707,29.257z M18.707,31.493h-2.415
		c-0.341,0-0.618-0.276-0.618-0.617s0.277-0.619,0.618-0.619h2.415c0.342,0,0.619,0.278,0.619,0.619S19.049,31.493,18.707,31.493z"
		/>
	<path fill="#414042" d="M18.707,34.257h-2.415c-0.893,0-1.618,0.727-1.618,1.619c0,0.892,0.726,1.617,1.618,1.617h2.415
		c0.893,0,1.619-0.726,1.619-1.617C20.326,34.983,19.6,34.257,18.707,34.257z M18.707,36.493h-2.415
		c-0.341,0-0.618-0.276-0.618-0.617s0.277-0.619,0.618-0.619h2.415c0.342,0,0.619,0.278,0.619,0.619S19.049,36.493,18.707,36.493z"
		/>
	<path fill="#414042" d="M18.707,39.257h-2.415c-0.893,0-1.618,0.727-1.618,1.619c0,0.892,0.726,1.617,1.618,1.617h2.415
		c0.893,0,1.619-0.726,1.619-1.617C20.326,39.983,19.6,39.257,18.707,39.257z M18.707,41.493h-2.415
		c-0.341,0-0.618-0.276-0.618-0.617s0.277-0.619,0.618-0.619h2.415c0.342,0,0.619,0.278,0.619,0.619S19.049,41.493,18.707,41.493z"
		/>
	<path fill="#414042" d="M31.707,39.257h-2.415c-0.893,0-1.618,0.727-1.618,1.619c0,0.892,0.726,1.617,1.618,1.617h2.415
		c0.893,0,1.619-0.726,1.619-1.617C33.326,39.983,32.6,39.257,31.707,39.257z M31.707,41.493h-2.415
		c-0.341,0-0.618-0.276-0.618-0.617s0.277-0.619,0.618-0.619h2.415c0.342,0,0.619,0.278,0.619,0.619S32.049,41.493,31.707,41.493z"
		/>
	<path fill="#414042" d="M31.707,34.257h-2.415c-0.893,0-1.618,0.727-1.618,1.619c0,0.892,0.726,1.617,1.618,1.617h2.415
		c0.893,0,1.619-0.726,1.619-1.617C33.326,34.983,32.6,34.257,31.707,34.257z M31.707,36.493h-2.415
		c-0.341,0-0.618-0.276-0.618-0.617s0.277-0.619,0.618-0.619h2.415c0.342,0,0.619,0.278,0.619,0.619S32.049,36.493,31.707,36.493z"
		/>
	<path fill="#414042" d="M31.707,29.257h-2.415c-0.893,0-1.618,0.727-1.618,1.619c0,0.892,0.726,1.617,1.618,1.617h2.415
		c0.893,0,1.619-0.726,1.619-1.617C33.326,29.983,32.6,29.257,31.707,29.257z M31.707,31.493h-2.415
		c-0.341,0-0.618-0.276-0.618-0.617s0.277-0.619,0.618-0.619h2.415c0.342,0,0.619,0.278,0.619,0.619S32.049,31.493,31.707,31.493z"
		/>
	<path fill="#414042" d="M25.207,39.257h-2.415c-0.893,0-1.618,0.727-1.618,1.619c0,0.892,0.726,1.617,1.618,1.617h2.415
		c0.893,0,1.619-0.726,1.619-1.617C26.826,39.983,26.1,39.257,25.207,39.257z M25.207,41.493h-2.415
		c-0.341,0-0.618-0.276-0.618-0.617s0.277-0.619,0.618-0.619h2.415c0.342,0,0.619,0.278,0.619,0.619S25.549,41.493,25.207,41.493z"
		/>
	<path fill="#414042" d="M25.207,34.257h-2.415c-0.893,0-1.618,0.727-1.618,1.619c0,0.892,0.726,1.617,1.618,1.617h2.415
		c0.893,0,1.619-0.726,1.619-1.617C26.826,34.983,26.1,34.257,25.207,34.257z M25.207,36.493h-2.415
		c-0.341,0-0.618-0.276-0.618-0.617s0.277-0.619,0.618-0.619h2.415c0.342,0,0.619,0.278,0.619,0.619S25.549,36.493,25.207,36.493z"
		/>
	<path fill="#414042" d="M25.207,29.257h-2.415c-0.893,0-1.618,0.727-1.618,1.619c0,0.892,0.726,1.617,1.618,1.617h2.415
		c0.893,0,1.619-0.726,1.619-1.617C26.826,29.983,26.1,29.257,25.207,29.257z M25.207,31.493h-2.415
		c-0.341,0-0.618-0.276-0.618-0.617s0.277-0.619,0.618-0.619h2.415c0.342,0,0.619,0.278,0.619,0.619S25.549,31.493,25.207,31.493z"
		/>
</g>
</svg>
