<?xml version="1.0" encoding="utf-8"?>
<!-- Generator: Adobe Illustrator 16.0.0, SVG Export Plug-In . SVG Version: 6.00 Build 0)  -->
<!DOCTYPE svg PUBLIC "-//W3C//DTD SVG 1.1//EN" "http://www.w3.org/Graphics/SVG/1.1/DTD/svg11.dtd">
<svg version="1.1" id="Layer_1" xmlns="http://www.w3.org/2000/svg" xmlns:xlink="http://www.w3.org/1999/xlink" x="0px" y="0px"
	 width="48px" height="48px" viewBox="0 0 48 48" enable-background="new 0 0 48 48" xml:space="preserve">
<path fill="#414042" d="M36.318,5.52c-3.734,0-6.416,2.128-9.538,4.914l-7.326,6.684c-0.193-0.075-0.4-0.12-0.619-0.12h-5.937
	c-0.947,0-1.719,0.771-1.719,1.719v10.564c0,0.949,0.771,1.721,1.719,1.721h5.937c0.325,0,0.626-0.096,0.886-0.254l7.043,6.397
	c3.399,3.308,5.679,5.335,9.548,5.335c0.002,0,0.004,0,0.006,0c0.276,0,0.5-0.225,0.5-0.5V6.02
	C36.818,5.743,36.595,5.52,36.318,5.52z M12.899,30.002c-0.396,0-0.719-0.323-0.719-0.721V18.717c0-0.396,0.322-0.719,0.719-0.719
	h5.937c0.396,0,0.719,0.322,0.719,0.719v10.564c0,0.397-0.322,0.721-0.719,0.721H12.899z M35.818,41.468
	c-3.194-0.167-5.201-1.97-8.369-5.051l-7.06-6.412c0.104-0.221,0.165-0.464,0.165-0.724V18.717c0-0.361-0.113-0.695-0.304-0.972
	l7.2-6.569c2.903-2.59,5.236-4.462,8.368-4.642V41.468z"/>
</svg>
