<?xml version="1.0" encoding="utf-8"?>
<!-- Generator: Adobe Illustrator 16.0.0, SVG Export Plug-In . SVG Version: 6.00 Build 0)  -->
<!DOCTYPE svg PUBLIC "-//W3C//DTD SVG 1.1//EN" "http://www.w3.org/Graphics/SVG/1.1/DTD/svg11.dtd">
<svg version="1.1" id="Layer_1" xmlns="http://www.w3.org/2000/svg" xmlns:xlink="http://www.w3.org/1999/xlink" x="0px" y="0px"
	 width="48px" height="48px" viewBox="0 0 48 48" enable-background="new 0 0 48 48" xml:space="preserve">
<g>
	<path fill="#414042" d="M28.127,5.52c-3.734,0-6.416,2.128-9.538,4.914l-7.326,6.684c-0.193-0.075-0.4-0.12-0.619-0.12H4.708
		c-0.947,0-1.719,0.771-1.719,1.719v10.564c0,0.949,0.771,1.721,1.719,1.721h5.937c0.325,0,0.626-0.096,0.886-0.254l7.043,6.397
		c3.399,3.308,5.679,5.335,9.548,5.335c0.313,0.006,0.507-0.223,0.506-0.5V6.02C28.627,5.743,28.403,5.52,28.127,5.52z
		 M4.708,30.002c-0.396,0-0.719-0.323-0.719-0.721V18.717c0-0.396,0.322-0.719,0.719-0.719h5.937c0.396,0,0.719,0.322,0.719,0.719
		v10.564c0,0.397-0.322,0.721-0.719,0.721H4.708z M27.627,41.468c-3.194-0.167-5.201-1.97-8.369-5.051l-7.06-6.412
		c0.104-0.221,0.165-0.464,0.165-0.724V18.717c0-0.361-0.113-0.695-0.304-0.972l7.2-6.569c2.903-2.59,5.236-4.462,8.368-4.642
		V41.468z"/>
	<path fill="#414042" d="M36.913,16.561c-0.176-0.214-0.493-0.243-0.704-0.067c-0.213,0.176-0.243,0.491-0.067,0.704
		c1.566,1.897,2.429,4.3,2.429,6.768c0,2.5-0.884,4.928-2.488,6.836c-0.178,0.212-0.15,0.527,0.062,0.705
		c0.094,0.078,0.207,0.117,0.321,0.117c0.143,0,0.284-0.061,0.383-0.178c1.756-2.09,2.723-4.746,2.723-7.48
		C39.57,21.266,38.627,18.636,36.913,16.561z"/>
	<path fill="#414042" d="M40.407,13.357c-0.217-0.17-0.531-0.13-0.701,0.087c-0.17,0.218-0.131,0.532,0.088,0.702
		c2.602,2.024,4.218,5.789,4.218,9.824c0,4.082-1.644,7.868-4.289,9.879c-0.22,0.168-0.263,0.48-0.096,0.701
		c0.099,0.129,0.248,0.197,0.398,0.197c0.105,0,0.212-0.033,0.303-0.102c2.889-2.197,4.684-6.287,4.684-10.676
		C45.012,19.633,43.247,15.566,40.407,13.357z"/>
	<path fill="#414042" d="M32.637,19.172c-0.218-0.171-0.531-0.131-0.701,0.087s-0.131,0.532,0.088,0.702
		c1.058,0.823,1.715,2.365,1.715,4.025c0,1.679-0.668,3.23-1.743,4.049c-0.22,0.168-0.263,0.482-0.095,0.701
		c0.098,0.129,0.247,0.197,0.397,0.197c0.106,0,0.213-0.033,0.303-0.102c1.318-1.005,2.138-2.861,2.138-4.846
		C34.738,21.995,33.953,20.195,32.637,19.172z"/>
</g>
</svg>
