<?xml version="1.0" encoding="utf-8"?>
<!-- Generator: Adobe Illustrator 16.0.0, SVG Export Plug-In . SVG Version: 6.00 Build 0)  -->
<!DOCTYPE svg PUBLIC "-//W3C//DTD SVG 1.1//EN" "http://www.w3.org/Graphics/SVG/1.1/DTD/svg11.dtd">
<svg version="1.1" id="Layer_1" xmlns="http://www.w3.org/2000/svg" xmlns:xlink="http://www.w3.org/1999/xlink" x="0px" y="0px"
	 width="48px" height="48px" viewBox="0 0 48 48" enable-background="new 0 0 48 48" xml:space="preserve">
<path fill="#414042" d="M43.557,7.096c-0.195-0.195-0.512-0.195-0.707,0L29.937,20.009V6.02c0-0.276-0.224-0.5-0.5-0.5
	c-3.734,0-6.416,2.128-9.539,4.914l-7.326,6.684c-0.193-0.075-0.4-0.12-0.619-0.12H6.018c-0.947,0-1.719,0.771-1.719,1.719v10.564
	c0,0.949,0.771,1.721,1.719,1.721h5.936c0.325,0,0.626-0.096,0.886-0.254l3.332,3.026l-7.558,7.558
	c-0.195,0.195-0.195,0.512,0,0.707c0.098,0.098,0.226,0.146,0.354,0.146s0.256-0.049,0.354-0.146l7.591-7.592l2.97,2.698
	c3.399,3.308,5.68,5.335,9.549,5.335c0.256,0.006,0.506-0.223,0.506-0.5V21.423l13.62-13.62C43.752,7.607,43.752,7.291,43.557,7.096
	z M6.018,30.002c-0.396,0-0.719-0.323-0.719-0.721V18.717c0-0.396,0.322-0.719,0.719-0.719h5.936c0.396,0,0.719,0.322,0.719,0.719
	v10.564c0,0.397-0.322,0.721-0.719,0.721H6.018z M13.507,30.005c0.104-0.221,0.165-0.464,0.165-0.724V18.717
	c0-0.361-0.113-0.695-0.304-0.972l7.2-6.569c2.903-2.59,5.237-4.462,8.369-4.642v14.475L16.878,33.067L13.507,30.005z
	 M28.937,41.468c-3.195-0.167-5.202-1.97-8.37-5.051l-2.947-2.677l11.317-11.317V41.468z"/>
</svg>
