<?xml version="1.0" encoding="utf-8"?>
<!-- Generator: Adobe Illustrator 16.0.0, SVG Export Plug-In . SVG Version: 6.00 Build 0)  -->
<!DOCTYPE svg PUBLIC "-//W3C//DTD SVG 1.1//EN" "http://www.w3.org/Graphics/SVG/1.1/DTD/svg11.dtd">
<svg version="1.1" id="Layer_1" xmlns="http://www.w3.org/2000/svg" xmlns:xlink="http://www.w3.org/1999/xlink" x="0px" y="0px"
	 width="48px" height="48px" viewBox="0 0 48 48" enable-background="new 0 0 48 48" xml:space="preserve">
<g>
	<path fill="#414042" d="M2.588,2.088c-0.276,0-0.5,0.224-0.5,0.5s0.224,0.5,0.5,0.5c23.338,0,42.324,18.986,42.324,42.324
		c0,0.276,0.224,0.5,0.5,0.5s0.5-0.224,0.5-0.5C45.912,21.523,26.477,2.088,2.588,2.088z"/>
	<path fill="#414042" d="M2.588,14.408c-0.276,0-0.5,0.224-0.5,0.5s0.224,0.5,0.5,0.5c16.545,0,30.005,13.459,30.005,30.004
		c0,0.276,0.224,0.5,0.5,0.5s0.5-0.224,0.5-0.5C33.593,28.316,19.684,14.408,2.588,14.408z"/>
	<path fill="#414042" d="M2.588,26.084c-0.276,0-0.5,0.224-0.5,0.5s0.224,0.5,0.5,0.5c10.104,0,18.325,8.223,18.325,18.328
		c0,0.276,0.224,0.5,0.5,0.5s0.5-0.224,0.5-0.5C21.913,34.754,13.244,26.084,2.588,26.084z"/>
	<path fill="#414042" d="M5.47,38.643c-1.865,0-3.382,1.518-3.382,3.383c0,1.864,1.517,3.381,3.382,3.381
		c1.862,0,3.378-1.517,3.378-3.381C8.848,40.16,7.332,38.643,5.47,38.643z M5.47,44.406c-1.313,0-2.382-1.068-2.382-2.381
		c0-1.314,1.068-2.383,2.382-2.383c1.312,0,2.378,1.068,2.378,2.383C7.848,43.338,6.781,44.406,5.47,44.406z"/>
</g>
</svg>
