<?xml version="1.0" encoding="utf-8"?>
<!-- Generator: Adobe Illustrator 16.0.0, SVG Export Plug-In . SVG Version: 6.00 Build 0)  -->
<!DOCTYPE svg PUBLIC "-//W3C//DTD SVG 1.1//EN" "http://www.w3.org/Graphics/SVG/1.1/DTD/svg11.dtd">
<svg version="1.1" id="Layer_1" xmlns="http://www.w3.org/2000/svg" xmlns:xlink="http://www.w3.org/1999/xlink" x="0px" y="0px"
	 width="48px" height="48px" viewBox="0 0 48 48" enable-background="new 0 0 48 48" xml:space="preserve">
<g>
	<path fill="#414042" d="M45.278,6.879h-7.102c-0.276,0-0.5,0.224-0.5,0.5v33.242c0,0.276,0.224,0.5,0.5,0.5h7.102
		c0.276,0,0.5-0.224,0.5-0.5V7.379C45.778,7.103,45.555,6.879,45.278,6.879z M44.778,40.121h-6.102V7.879h6.102V40.121z"/>
	<path fill="#414042" d="M33.462,14.178H26.36c-0.276,0-0.5,0.224-0.5,0.5v25.943c0,0.276,0.224,0.5,0.5,0.5h7.102
		c0.276,0,0.5-0.224,0.5-0.5V14.678C33.962,14.401,33.738,14.178,33.462,14.178z M32.962,40.121H26.86V15.178h6.102V40.121z"/>
	<path fill="#414042" d="M21.644,20.434h-7.102c-0.276,0-0.5,0.224-0.5,0.5v19.688c0,0.276,0.224,0.5,0.5,0.5h7.102
		c0.276,0,0.5-0.224,0.5-0.5V20.934C22.144,20.657,21.92,20.434,21.644,20.434z M21.144,40.121h-6.102V21.434h6.102V40.121z"/>
	<path fill="#414042" d="M9.825,26.689H2.724c-0.276,0-0.5,0.224-0.5,0.5v13.432c0,0.276,0.224,0.5,0.5,0.5h7.102
		c0.276,0,0.5-0.224,0.5-0.5V27.189C10.325,26.913,10.102,26.689,9.825,26.689z M9.325,40.121H3.224V27.689h6.102V40.121z"/>
</g>
</svg>
