<?xml version="1.0" encoding="utf-8"?>
<!-- Generator: Adobe Illustrator 16.0.0, SVG Export Plug-In . SVG Version: 6.00 Build 0)  -->
<!DOCTYPE svg PUBLIC "-//W3C//DTD SVG 1.1//EN" "http://www.w3.org/Graphics/SVG/1.1/DTD/svg11.dtd">
<svg version="1.1" id="Layer_1" xmlns="http://www.w3.org/2000/svg" xmlns:xlink="http://www.w3.org/1999/xlink" x="0px" y="0px"
	 width="48px" height="48px" viewBox="0 0 48 48" enable-background="new 0 0 48 48" xml:space="preserve">
<path fill="#414042" d="M41.089,18.384c0.104,0.074,0.219,0.146,0.352,0.215c0,0,0.551-0.549-0.244-2.506c0,0,0-2.965-3.547-1.988
	c0,0-6.693-5.258-18.523-1.162c0,0-1.04,0.307-3.27,2.387c0,0-0.152,0.367-0.735-0.828c0,0-1.497-2.566-3.056-2.199
	c0,0-0.735,0.307,0.672,3.057c0,0-1.743-0.092-2.263,0.611c0,0-0.184,0.674-0.062,1.619c0,0-1.099,0.889-1.834,2.172
	c0,0-1.254,1.957-2.598,1.805c0,0-2.079-0.52-2.263,0.824c0,0-0.306,3.424,1.223,3.852c0,0,0.245,1.1,1.896,1.713l1.468,1.039
	c0,0,1.162,0.426,1.834,0.795c0,0,1.285,1.223,3.362,1.467c0,0,1.406-0.307,2.08,1.469l0.489,1.955c0,0-0.551,2.934-0.307,3.914
	c0,0,0.062,0.672,2.63,0.549c0,0,1.589-0.855,2.017-2.262l1.713-3.607c0,0,1.405-0.063,2.384,0.428c0,0,2.016,0.611,6.357-0.795
	c0,0,1.59-0.428,1.711,1.283c0,0,0.551,0.98,0,3.24l0.246,1.285c0,0,1.65,0.857,3.24,0l2.262-4.953c0,0-0.184-1.895,1.711-4.891
	C40.034,28.871,43.3,24.671,41.089,18.384z M31.761,15.804h-7.855c-0.553,0-1-0.447-1-1s0.447-1,1-1h7.855c0.553,0,1,0.447,1,1
	S32.313,15.804,31.761,15.804z M39.147,15.572c0,0,0.994-0.475,1.316,0.764c0,0-0.111,0.18-0.163,0.451
	C39.986,16.376,39.518,15.814,39.147,15.572z"/>
</svg>
