<?xml version="1.0" encoding="utf-8"?>
<!-- Generator: Adobe Illustrator 16.0.0, SVG Export Plug-In . SVG Version: 6.00 Build 0)  -->
<!DOCTYPE svg PUBLIC "-//W3C//DTD SVG 1.1//EN" "http://www.w3.org/Graphics/SVG/1.1/DTD/svg11.dtd">
<svg version="1.1" id="Layer_1" xmlns="http://www.w3.org/2000/svg" xmlns:xlink="http://www.w3.org/1999/xlink" x="0px" y="0px"
	 width="48px" height="48px" viewBox="0 0 48 48" enable-background="new 0 0 48 48" xml:space="preserve">
<g>
	<path fill="#414042" d="M40.594,14.167H7.605c-0.553,0-1,0.447-1,1s0.447,1,1,1h32.346v14.84c0,0.551,0.447,1,1,1s1-0.449,1-1
		V15.524C41.951,14.776,41.342,14.167,40.594,14.167z"/>
	<path fill="#414042" d="M43.271,11.435H10.286c-0.553,0-1,0.447-1,1s0.447,1,1,1h32.343v14.838c0,0.553,0.447,1,1,1s1-0.447,1-1
		v-15.48C44.629,12.044,44.02,11.435,43.271,11.435z"/>
	<path fill="#414042" d="M37.726,16.911H4.737c-0.748,0-1.357,0.607-1.357,1.357v15.479c0,0.748,0.609,1.357,1.357,1.357h32.988
		c0.748,0,1.357-0.609,1.357-1.357V18.269C39.083,17.519,38.474,16.911,37.726,16.911z M33.488,32.911H8.841
		c-0.245-3.172-2.734-3.469-3.657-3.469l-0.01-7.006c0.923,0,3.412-0.297,3.657-3.469h24.646c0.246,3.172,2.735,3.469,3.658,3.469
		l0.01,7.006C36.223,29.442,33.733,29.739,33.488,32.911z"/>
	<path fill="#414042" d="M24.496,24.856c0.361,0.201,0.819,0.07,1.02-0.291c0.201-0.363,0.071-0.818-0.291-1.02
		c-0.467-0.26-1.534-0.559-2.693-0.703l0.009-1.607c0.002-0.416-0.332-0.752-0.746-0.756c-0.001,0-0.003,0-0.004,0
		c-0.412,0-0.748,0.334-0.75,0.746l-0.009,1.557c-1.038,0.061-2.728,0.34-3.063,1.514c-0.111,0.316-0.129,0.816,0.17,1.277
		c0.496,0.766,1.644,1.15,3.504,1.178l0.125,0.004c2.008,0.029,2.274,0.498,2.266,0.521c-0.16,0.242-1.236,0.484-2.202,0.463
		c-1.349-0.057-2.622-0.314-2.907-0.467c-0.366-0.195-0.82-0.055-1.015,0.309c-0.194,0.367-0.057,0.82,0.31,1.016
		c0.516,0.275,1.63,0.479,2.711,0.582l0.039,1.461c0.011,0.408,0.345,0.73,0.75,0.73c0.006,0,0.013,0,0.02,0
		c0.414-0.012,0.741-0.355,0.73-0.77l-0.037-1.381c1.044-0.064,2.703-0.348,3.036-1.51c0.111-0.316,0.129-0.816-0.17-1.275
		c-0.496-0.766-1.644-1.152-3.504-1.18l-0.125-0.004c-1.742-0.025-2.238-0.402-2.266-0.523c0.159-0.242,1.272-0.447,2.201-0.463
		C22.907,24.323,24.18,24.681,24.496,24.856z"/>
</g>
</svg>
