<?xml version="1.0" encoding="utf-8"?>
<!-- Generator: Adobe Illustrator 16.0.0, SVG Export Plug-In . SVG Version: 6.00 Build 0)  -->
<!DOCTYPE svg PUBLIC "-//W3C//DTD SVG 1.1//EN" "http://www.w3.org/Graphics/SVG/1.1/DTD/svg11.dtd">
<svg version="1.1" id="Layer_1" xmlns="http://www.w3.org/2000/svg" xmlns:xlink="http://www.w3.org/1999/xlink" x="0px" y="0px"
	 width="48px" height="48px" viewBox="0 0 48 48" enable-background="new 0 0 48 48" xml:space="preserve">
<g>
	<path fill="#414042" d="M15.542,25.483l0.023,15.811c0,0-0.193,2.293,1.508,2.449h8.183h6.088c1.703-0.156,1.512-2.449,1.512-2.449
		l0.021-15.811H15.542z M20.969,40.255c0,0.447-0.363,0.811-0.811,0.811h-0.911c-0.447,0-0.811-0.363-0.811-0.811v-0.912
		c0-0.447,0.363-0.811,0.811-0.811h0.911c0.447,0,0.811,0.363,0.811,0.811V40.255z M20.969,35.255c0,0.447-0.363,0.811-0.811,0.811
		h-0.911c-0.447,0-0.811-0.363-0.811-0.811v-0.912c0-0.447,0.363-0.811,0.811-0.811h0.911c0.447,0,0.811,0.363,0.811,0.811V35.255z
		 M20.969,30.255c0,0.447-0.363,0.811-0.811,0.811h-0.911c-0.447,0-0.811-0.363-0.811-0.811v-0.912c0-0.447,0.363-0.811,0.811-0.811
		h0.911c0.447,0,0.811,0.363,0.811,0.811V30.255z M25.498,40.247c0,0.447-0.363,0.811-0.81,0.811h-0.911
		c-0.447,0-0.811-0.363-0.811-0.811v-0.91c0-0.447,0.363-0.811,0.811-0.811h0.911c0.447,0,0.81,0.363,0.81,0.811V40.247z
		 M25.498,35.247c0,0.447-0.363,0.811-0.81,0.811h-0.911c-0.447,0-0.811-0.363-0.811-0.811v-0.91c0-0.447,0.363-0.811,0.811-0.811
		h0.911c0.447,0,0.81,0.363,0.81,0.811V35.247z M25.498,30.247c0,0.447-0.363,0.811-0.81,0.811h-0.911
		c-0.447,0-0.811-0.363-0.811-0.811v-0.91c0-0.447,0.363-0.811,0.811-0.811h0.911c0.447,0,0.81,0.363,0.81,0.811V30.247z
		 M29.969,40.255c0,0.447-0.363,0.811-0.811,0.811h-0.91c-0.447,0-0.811-0.363-0.811-0.811v-0.912c0-0.447,0.363-0.811,0.811-0.811
		h0.91c0.447,0,0.811,0.363,0.811,0.811V40.255z M29.969,35.255c0,0.447-0.363,0.811-0.811,0.811h-0.91
		c-0.447,0-0.811-0.363-0.811-0.811v-0.912c0-0.447,0.363-0.811,0.811-0.811h0.91c0.447,0,0.811,0.363,0.811,0.811V35.255z
		 M29.969,30.255c0,0.447-0.363,0.811-0.811,0.811h-0.91c-0.447,0-0.811-0.363-0.811-0.811v-0.912c0-0.447,0.363-0.811,0.811-0.811
		h0.91c0.447,0,0.811,0.363,0.811,0.811V30.255z"/>
	<polygon fill="#414042" points="29.637,2.796 28.947,3.239 28.154,2.796 27.34,3.239 26.471,2.796 25.738,3.239 24.951,2.796 
		24.151,3.239 23.294,2.796 22.438,3.239 21.637,2.796 20.739,3.239 20.021,2.796 19.225,3.239 18.535,2.796 18.535,12.169 
		29.637,12.169 	"/>
	<path fill="#414042" d="M33.389,8.663h-3.086v2.506h1.145c0.553,0,1,0.447,1,1s-0.447,1-1,1H16.972c-0.552,0-1-0.447-1-1
		s0.448-1,1-1h0.896V8.663h-2.793c-0.271,0-0.494,0.223-0.494,0.494v14.852c0,0.271,0.223,0.496,0.494,0.496h18.314
		c0.275,0,0.496-0.225,0.496-0.496V9.157C33.885,8.886,33.664,8.663,33.389,8.663z M31.555,20.585H16.86v-5.631h14.695V20.585z"/>
</g>
</svg>
