<?xml version="1.0" encoding="utf-8"?>
<!-- Generator: Adobe Illustrator 16.0.0, SVG Export Plug-In . SVG Version: 6.00 Build 0)  -->
<!DOCTYPE svg PUBLIC "-//W3C//DTD SVG 1.1//EN" "http://www.w3.org/Graphics/SVG/1.1/DTD/svg11.dtd">
<svg version="1.1" id="Layer_1" xmlns="http://www.w3.org/2000/svg" xmlns:xlink="http://www.w3.org/1999/xlink" x="0px" y="0px"
	 width="48px" height="48px" viewBox="0 0 48 48" enable-background="new 0 0 48 48" xml:space="preserve">
<g>
	<path fill="#414042" d="M37.518,3.162H9.403c-1.387,0-2.514,1.129-2.514,2.516v35.186c0,1.387,1.127,2.514,2.514,2.514h28.114
		c1.387,0,2.516-1.127,2.516-2.514V5.678C40.033,4.291,38.904,3.162,37.518,3.162z M37.887,16.977c0,0.693-0.564,1.256-1.258,1.256
		h-0.958v9.428h0.958c0.693,0,1.258,0.563,1.258,1.256v3.465c0,0.695-0.564,1.26-1.258,1.26h-0.958v5.116
		c0,0.25-0.194,0.452-0.433,0.452H11.683c-0.237,0-0.432-0.202-0.432-0.452V7.783c0-0.25,0.194-0.453,0.432-0.453h23.556
		c0.238,0,0.433,0.203,0.433,0.453v4.57h0.958c0.693,0,1.258,0.564,1.258,1.258V16.977z"/>
	<circle fill="#414042" cx="19.294" cy="29.82" r="0.926"/>
	<path fill="#414042" d="M32.763,32.381v-3.465c0-0.693,0.563-1.256,1.256-1.256v-9.428c-0.692,0-1.256-0.563-1.256-1.256v-3.365
		c0-0.693,0.563-1.258,1.256-1.258l0.08-3.433L12.715,8.92v28.833l21.384,0.001l-0.08-4.113
		C33.326,33.641,32.763,33.076,32.763,32.381z M24.912,32.229c-0.125,0.313-0.425,0.502-0.742,0.502c-0.1,0-0.2-0.02-0.298-0.059
		l-2.76-1.105c-0.232,0.242-0.51,0.44-0.822,0.574l0.406,2.844c0.063,0.438-0.242,0.842-0.68,0.904
		c-0.038,0.006-0.076,0.008-0.113,0.008c-0.393,0-0.734-0.287-0.791-0.688l-0.42-2.943c-0.334-0.082-0.638-0.23-0.904-0.43
		l-2.266,1.777c-0.146,0.115-0.32,0.172-0.493,0.172c-0.237,0-0.472-0.105-0.63-0.307c-0.272-0.348-0.212-0.85,0.135-1.123
		l2.344-1.84c-0.063-0.223-0.109-0.453-0.109-0.695c0-0.1,0.019-0.197,0.03-0.295l-2.678-1.074
		c-0.409-0.166-0.608-0.631-0.444-1.041c0.165-0.41,0.631-0.609,1.041-0.443l2.76,1.107c0.232-0.242,0.51-0.439,0.823-0.574
		l-0.406-2.846c-0.063-0.438,0.241-0.842,0.679-0.904c0.434-0.066,0.843,0.24,0.905,0.678l0.421,2.949
		c0.331,0.082,0.634,0.229,0.899,0.428l2.268-1.781c0.349-0.271,0.852-0.209,1.123,0.137c0.273,0.348,0.213,0.85-0.135,1.123
		l-2.345,1.84c0.064,0.223,0.109,0.453,0.109,0.697c0,0.102-0.018,0.195-0.029,0.293l2.678,1.074
		C24.878,31.352,25.077,31.818,24.912,32.229z"/>
	<path fill="#414042" d="M36.405,13.477h-2.163c-0.117,0-0.212,0.096-0.212,0.214v0.979h2.589V13.69
		C36.619,13.572,36.524,13.477,36.405,13.477z"/>
	<path fill="#414042" d="M34.03,16.897c0,0.116,0.096,0.212,0.212,0.212h2.163c0.118,0,0.214-0.096,0.214-0.212v-0.98H34.03V16.897z
		"/>
	<path fill="#414042" d="M34.099,29.021v0.969h2.452v-0.969c0-0.112-0.09-0.201-0.202-0.201H34.3
		C34.188,28.82,34.099,28.909,34.099,29.021z"/>
	<path fill="#414042" d="M34.099,32.276c0,0.112,0.091,0.204,0.201,0.204h2.049c0.111,0,0.202-0.092,0.202-0.204v-0.966h-2.452
		V32.276z"/>
</g>
</svg>
