<?xml version="1.0" encoding="utf-8"?>
<!-- Generator: Adobe Illustrator 16.0.0, SVG Export Plug-In . SVG Version: 6.00 Build 0)  -->
<!DOCTYPE svg PUBLIC "-//W3C//DTD SVG 1.1//EN" "http://www.w3.org/Graphics/SVG/1.1/DTD/svg11.dtd">
<svg version="1.1" id="Layer_1" xmlns="http://www.w3.org/2000/svg" xmlns:xlink="http://www.w3.org/1999/xlink" x="0px" y="0px"
	 width="48px" height="48px" viewBox="0 0 48 48" enable-background="new 0 0 48 48" xml:space="preserve">
<g>
	<path fill="#414042" d="M27.826,23.695h-8.168l-1.083,5.49h10.336L27.826,23.695z M21.852,24.877h3.777
		c0.319,0,0.578,0.21,0.578,0.467c0,0.258-0.259,0.466-0.578,0.466h-3.777c-0.319,0-0.578-0.208-0.578-0.466
		C21.274,25.087,21.533,24.877,21.852,24.877z M26.299,27.726h-5.117c-0.433,0-0.783-0.208-0.783-0.466
		c0-0.257,0.351-0.467,0.783-0.467h5.117c0.433,0,0.783,0.21,0.783,0.467C27.082,27.518,26.731,27.726,26.299,27.726z"/>
	<path fill="#414042" d="M15.503,31.883h16.475v-21.76H15.503V31.883z M16.896,19.094c-0.259,0-0.466-0.209-0.466-0.466v-0.683
		c0-0.258,0.207-0.467,0.466-0.467c0.257,0,0.466,0.209,0.466,0.467v0.683C17.362,18.885,17.153,19.094,16.896,19.094z
		 M29.888,13.745c0-0.258,0.208-0.466,0.467-0.466c0.256,0,0.465,0.208,0.465,0.466v0.685c0,0.258-0.209,0.466-0.465,0.466
		c-0.259,0-0.467-0.208-0.467-0.466V13.745z M29.888,17.89c0-0.258,0.207-0.466,0.466-0.466c0.257,0,0.466,0.208,0.466,0.466v0.685
		c0,0.258-0.209,0.466-0.466,0.466c-0.259,0-0.466-0.208-0.466-0.466V17.89z M18.885,13.251c0-0.226,0.186-0.411,0.412-0.411h8.889
		c0.226,0,0.41,0.186,0.41,0.411v5.817c0,0.227-0.185,0.412-0.41,0.412h-8.889c-0.226,0-0.412-0.186-0.412-0.412V13.251z
		 M25.729,21.004c0,0.258-0.208,0.466-0.465,0.466h-3.046c-0.258,0-0.466-0.208-0.466-0.466c0-0.257,0.208-0.467,0.466-0.467h3.046
		C25.521,20.537,25.729,20.747,25.729,21.004z M19.076,22.493h9.332c0.223,0,0.414,0.156,0.457,0.375l1.297,6.565
		c0.033,0.065,0.051,0.139,0.051,0.215c0,0.258-0.207,0.467-0.465,0.467c-0.006-0.001-0.014,0-0.019,0H17.757
		c-0.14,0-0.271-0.063-0.361-0.172c-0.088-0.107-0.124-0.249-0.096-0.385l1.32-6.69C18.662,22.649,18.854,22.493,19.076,22.493z
		 M16.43,13.801c0-0.258,0.208-0.467,0.467-0.467c0.256,0,0.466,0.209,0.466,0.467v0.682c0,0.258-0.21,0.467-0.466,0.467
		c-0.259,0-0.467-0.209-0.467-0.467V13.801z"/>
	<path fill="#414042" d="M33.687,2.082H13.461L8.844,17.338v27.119h29.693V17.338L33.687,2.082z M33.578,33.176
		c0,0.277-0.224,0.5-0.5,0.5H14.402c-0.276,0-0.5-0.223-0.5-0.5V8.83c0-0.275,0.224-0.5,0.5-0.5h18.676c0.276,0,0.5,0.225,0.5,0.5
		V33.176z"/>
</g>
</svg>
