<?xml version="1.0" encoding="utf-8"?>
<!-- Generator: Adobe Illustrator 16.0.0, SVG Export Plug-In . SVG Version: 6.00 Build 0)  -->
<!DOCTYPE svg PUBLIC "-//W3C//DTD SVG 1.1//EN" "http://www.w3.org/Graphics/SVG/1.1/DTD/svg11.dtd">
<svg version="1.1" id="Layer_1" xmlns="http://www.w3.org/2000/svg" xmlns:xlink="http://www.w3.org/1999/xlink" x="0px" y="0px"
	 width="48px" height="48px" viewBox="0 0 48 48" enable-background="new 0 0 48 48" xml:space="preserve">
<path fill="#414042" d="M42.229,37.455h-4.345v-19.82h-5.13v19.82h-5.203V13.563h-5.129v23.893h-4.891V23.268h-5.128v14.188H8.701
	V8.084c0-0.553-0.447-1-1-1H6.066c-0.553,0-1,0.447-1,1c0,0.552,0.447,1,1,1h0.635v5.594H6.066c-0.553,0-1,0.447-1,1s0.447,1,1,1
	h0.635v5.59H6.066c-0.553,0-1,0.447-1,1s0.447,1,1,1h0.635v5.594H6.066c-0.553,0-1,0.447-1,1s0.447,1,1,1h0.635v5.594H6.066
	c-0.553,0-1,0.447-1,1s0.447,1,1,1h1.635h34.527c0.553,0,1-0.447,1-1S42.781,37.455,42.229,37.455z"/>
</svg>
