<?xml version="1.0" encoding="utf-8"?>
<!-- Generator: Adobe Illustrator 16.0.0, SVG Export Plug-In . SVG Version: 6.00 Build 0)  -->
<!DOCTYPE svg PUBLIC "-//W3C//DTD SVG 1.1//EN" "http://www.w3.org/Graphics/SVG/1.1/DTD/svg11.dtd">
<svg version="1.1" id="Layer_1" xmlns="http://www.w3.org/2000/svg" xmlns:xlink="http://www.w3.org/1999/xlink" x="0px" y="0px"
	 width="48px" height="48px" viewBox="0 0 48 48" enable-background="new 0 0 48 48" xml:space="preserve">
<path fill="#414042" d="M40.053,13.497h-7.937v-2.873c0-2.246-1.827-4.074-4.073-4.074h-8.876c-2.246,0-4.073,1.828-4.073,4.074
	v2.873H7.158c-2.246,0-4.074,1.828-4.074,4.076v18.342c0,2.246,1.828,4.074,4.074,4.074h32.895c2.246,0,4.073-1.828,4.073-4.074
	V17.573C44.126,15.325,42.299,13.497,40.053,13.497z M19.753,24.89c0.104,0.135,0.774,0.809,3.773,0.854l0.194,0.002
	c2.908,0.045,4.689,0.633,5.443,1.797c0.44,0.68,0.414,1.412,0.248,1.871c-0.516,1.816-3.273,2.215-4.874,2.291l0.025,1.395
	c0.01,0.553-0.43,1.008-0.981,1.02c-0.006,0-0.013,0-0.02,0c-0.543,0-0.988-0.436-0.999-0.982l-0.027-1.498
	c-1.738-0.156-3.609-0.486-4.429-0.922c-0.487-0.258-0.672-0.863-0.414-1.352c0.26-0.488,0.866-0.674,1.354-0.414
	c0.482,0.258,2.518,0.676,4.734,0.771c1.814,0.012,3.611-0.467,3.708-0.857c0.024-0.102-0.003-0.066,0.052-0.154
	c-0.008,0.008-0.029-0.049-0.076-0.109c-0.104-0.135-0.775-0.809-3.775-0.855l-0.193-0.002c-2.907-0.043-4.688-0.631-5.441-1.795
	c-0.44-0.679-0.414-1.412-0.248-1.873c0.518-1.832,3.311-2.219,4.906-2.291l0.012-1.424c0.004-0.551,0.451-0.992,1-0.992
	c0,0,0.006,0,0.008,0c0.553,0.004,0.996,0.455,0.992,1.008l-0.012,1.494c1.889,0.219,3.65,0.703,4.404,1.121
	c0.483,0.268,0.658,0.877,0.391,1.359c-0.268,0.484-0.875,0.658-1.359,0.391c-0.521-0.289-2.601-0.879-4.715-0.975
	c-1.827-0.021-3.607,0.465-3.704,0.857c-0.024,0.102,0.003,0.066-0.052,0.154C19.694,24.782,19.705,24.827,19.753,24.89z
	 M30.116,13.497H17.094v-2.873c0-1.145,0.93-2.074,2.073-2.074h8.876c1.143,0,2.073,0.93,2.073,2.074V13.497z"/>
</svg>
