<?xml version="1.0" encoding="utf-8"?>
<!-- Generator: Adobe Illustrator 16.0.0, SVG Export Plug-In . SVG Version: 6.00 Build 0)  -->
<!DOCTYPE svg PUBLIC "-//W3C//DTD SVG 1.1//EN" "http://www.w3.org/Graphics/SVG/1.1/DTD/svg11.dtd">
<svg version="1.1" id="Layer_1" xmlns="http://www.w3.org/2000/svg" xmlns:xlink="http://www.w3.org/1999/xlink" x="0px" y="0px"
	 width="48px" height="48px" viewBox="0 0 48 48" enable-background="new 0 0 48 48" xml:space="preserve">
<g>
	<path fill="#414042" d="M28.035,4.768c-2.814-1.947-5.439-2.197-8.754,0L8.584,12.463H38.73L28.035,4.768z"/>
	<path fill="#414042" d="M5.927,17h35.356c0.553,0,1-0.447,1-1s-0.447-1-1-1H5.927c-0.552,0-1,0.447-1,1S5.375,17,5.927,17z"/>
	<path fill="#414042" d="M41.283,36H5.927c-0.552,0-1,0.447-1,1s0.448,1,1,1h35.356c0.553,0,1-0.447,1-1S41.836,36,41.283,36z"/>
	<path fill="#414042" d="M30.93,39H16.281c-0.552,0-1,0.447-1,1s0.448,1,1,1H30.93c0.553,0,1-0.447,1-1S31.482,39,30.93,39z"/>
	<path fill="#414042" d="M29.037,42H18.173c-0.552,0-1,0.447-1,1s0.448,1,1,1h10.864c0.553,0,1-0.447,1-1S29.59,42,29.037,42z"/>
	<path fill="#414042" d="M8.33,19.483v14.365c0,0.553,0.448,1,1,1s1-0.447,1-1V19.483c0-0.553-0.448-1-1-1S8.33,18.93,8.33,19.483z"
		/>
	<path fill="#414042" d="M17.997,19.483v14.365c0,0.553,0.447,1,1,1s1-0.447,1-1V19.483c0-0.553-0.447-1-1-1
		S17.997,18.93,17.997,19.483z"/>
	<path fill="#414042" d="M27.662,19.483v14.365c0,0.553,0.447,1,1,1s1-0.447,1-1V19.483c0-0.553-0.447-1-1-1
		S27.662,18.93,27.662,19.483z"/>
	<path fill="#414042" d="M37.33,19.483v14.365c0,0.553,0.447,1,1,1c0.551,0,1-0.447,1-1V19.483c0-0.553-0.449-1-1-1
		C37.777,18.483,37.33,18.93,37.33,19.483z"/>
</g>
</svg>
