<?xml version="1.0" encoding="utf-8"?>
<!-- Generator: Adobe Illustrator 16.0.0, SVG Export Plug-In . SVG Version: 6.00 Build 0)  -->
<!DOCTYPE svg PUBLIC "-//W3C//DTD SVG 1.1//EN" "http://www.w3.org/Graphics/SVG/1.1/DTD/svg11.dtd">
<svg version="1.1" id="Layer_1" xmlns="http://www.w3.org/2000/svg" xmlns:xlink="http://www.w3.org/1999/xlink" x="0px" y="0px"
	 width="48px" height="48px" viewBox="0 0 48 48" enable-background="new 0 0 48 48" xml:space="preserve">
<g>
	<path fill="#414042" d="M33.594,11.9c1.787,0,3.234-1.446,3.234-3.23c0-1.788-1.447-3.232-3.234-3.232
		c-1.785,0-3.23,1.444-3.23,3.232C30.363,10.454,31.809,11.9,33.594,11.9z"/>
	<path fill="#414042" d="M37.398,26.723c2.088-12.532-3.201-12.532-3.201-12.532s-1.414-0.768-3.064,0l-5.783,6.684l-4.948,1.393
		c-0.702-3.111-1.508-6.283-1.9-6.746L9.29,12.232c-0.955-0.838-1.972-0.297-1.972,0.961v27.424c0,0.643,0.521,1.16,1.16,1.16
		h12.044c0.642,0,1.16-0.518,1.16-1.16V28.646c0-0.172-0.175-2.141-0.444-3.477l0.013,0.061l5.488-1.465l2.512-2.432l-0.545,7.616
		l-0.76,12.828h3.52l1.758-12.09l1.648,12.09h3.188L37.398,26.723z"/>
</g>
</svg>
