<?xml version="1.0" encoding="utf-8"?>
<!-- Generator: Adobe Illustrator 16.0.0, SVG Export Plug-In . SVG Version: 6.00 Build 0)  -->
<!DOCTYPE svg PUBLIC "-//W3C//DTD SVG 1.1//EN" "http://www.w3.org/Graphics/SVG/1.1/DTD/svg11.dtd">
<svg version="1.1" id="Layer_1" xmlns="http://www.w3.org/2000/svg" xmlns:xlink="http://www.w3.org/1999/xlink" x="0px" y="0px"
	 width="48px" height="48px" viewBox="0 0 48 48" enable-background="new 0 0 48 48" xml:space="preserve">
<g>
	<path fill="#414042" d="M37.004,3.437l2.318,4.015l-9.762,5.23l-5.997-2.181c-0.303-0.11-0.639-0.067-0.905,0.113l-8.164,5.575
		l-3.63-1.961c-0.355-0.191-0.794-0.152-1.107,0.105l-7.453,6.082c-0.429,0.349-0.492,0.979-0.143,1.406
		c0.197,0.242,0.485,0.368,0.775,0.368c0.222,0,0.445-0.074,0.631-0.226l6.935-5.658l3.577,1.932
		c0.331,0.178,0.73,0.157,1.039-0.054l8.244-5.629l5.934,2.158c0.268,0.099,0.564,0.076,0.814-0.057l10.213-5.471l2.555,4.426
		l2.727-8.358L37.004,3.437z"/>
	<rect x="34.98" y="14.23" fill="#414042" width="6.793" height="29.547"/>
	<rect x="24.202" y="18.23" fill="#414042" width="6.792" height="25.547"/>
	<rect x="2.936" y="25.688" fill="#414042" width="6.793" height="18.09"/>
	<rect x="13.569" y="21.47" fill="#414042" width="6.793" height="22.307"/>
</g>
</svg>
