<?xml version="1.0" encoding="utf-8"?>
<!-- Generator: Adobe Illustrator 16.0.0, SVG Export Plug-In . SVG Version: 6.00 Build 0)  -->
<!DOCTYPE svg PUBLIC "-//W3C//DTD SVG 1.1//EN" "http://www.w3.org/Graphics/SVG/1.1/DTD/svg11.dtd">
<svg version="1.1" id="Layer_1" xmlns="http://www.w3.org/2000/svg" xmlns:xlink="http://www.w3.org/1999/xlink" x="0px" y="0px"
	 width="48px" height="48px" viewBox="0 0 48 48" enable-background="new 0 0 48 48" xml:space="preserve">
<g>
	<path fill="#414042" d="M37.285,19.606c-2.554-1.19-3.349-2.397-3.349-7.627V2.364c0-0.276-0.224-0.5-0.5-0.5H30.87
		c-0.276,0-0.5,0.224-0.5,0.5v5.188c0,3.567-2.902,6.47-6.47,6.47s-6.47-2.902-6.47-6.47V2.371c0-0.275-0.223-0.499-0.499-0.5
		l-2.541-0.007c-0.126,0.031-0.26,0.053-0.354,0.146c-0.094,0.095-0.147,0.222-0.147,0.354v9.615c0,5.229-0.795,6.437-3.348,7.627
		c-0.176,0.082-0.289,0.259-0.289,0.453v25.145c0,0.276,0.224,0.5,0.5,0.5H23.9c0.009,0,0.018,0,0.026,0h13.146
		c0.276,0,0.5-0.224,0.5-0.5V20.06C37.573,19.865,37.461,19.688,37.285,19.606z"/>
	<path fill="#414042" d="M23.9,13.396c3.167,0,5.744-2.577,5.744-5.744V3.756c-0.158,3.035-2.663,5.451-5.738,5.451
		c-3.159,0-5.722-2.548-5.75-5.701v4.146C18.157,10.819,20.733,13.396,23.9,13.396z"/>
</g>
</svg>
