<?xml version="1.0" encoding="utf-8"?>
<!-- Generator: Adobe Illustrator 16.0.0, SVG Export Plug-In . SVG Version: 6.00 Build 0)  -->
<!DOCTYPE svg PUBLIC "-//W3C//DTD SVG 1.1//EN" "http://www.w3.org/Graphics/SVG/1.1/DTD/svg11.dtd">
<svg version="1.1" id="Layer_1" xmlns="http://www.w3.org/2000/svg" xmlns:xlink="http://www.w3.org/1999/xlink" x="0px" y="0px"
	 width="48px" height="48px" viewBox="0 0 48 48" enable-background="new 0 0 48 48" xml:space="preserve">
<path fill="#414042" d="M33.977,21.328L32.479,4.414l0.042-1.672c0.005-0.173-0.082-0.336-0.227-0.431
	c-0.146-0.097-0.33-0.106-0.486-0.034c-0.023,0.011-2.379,1.09-7.505,1.204h-0.274c-5.135-0.114-7.46-1.192-7.483-1.203
	c-0.155-0.073-0.339-0.063-0.483,0.029C15.917,2.4,15.83,2.561,15.831,2.732l0.012,1.625l-1.499,16.975l-1.859,23.027
	c-0.02,0.248,0.146,0.474,0.389,0.528c0.091,0.02,2.499,0.555,5.884,0.434c0.257-0.01,0.466-0.212,0.481-0.47
	c0.015-0.242,1.509-23.99,4.92-30.297c3.411,6.297,4.907,30.055,4.921,30.297c0.016,0.258,0.224,0.46,0.481,0.47
	c0.336,0.012,0.662,0.017,0.977,0.017c2.869,0,4.826-0.433,4.908-0.45c0.242-0.055,0.408-0.28,0.389-0.528L33.977,21.328z"/>
</svg>
