<?xml version="1.0" encoding="utf-8"?>
<!-- Generator: Adobe Illustrator 16.0.0, SVG Export Plug-In . SVG Version: 6.00 Build 0)  -->
<!DOCTYPE svg PUBLIC "-//W3C//DTD SVG 1.1//EN" "http://www.w3.org/Graphics/SVG/1.1/DTD/svg11.dtd">
<svg version="1.1" id="Layer_1" xmlns="http://www.w3.org/2000/svg" xmlns:xlink="http://www.w3.org/1999/xlink" x="0px" y="0px"
	 width="48px" height="48px" viewBox="0 0 48 48" enable-background="new 0 0 48 48" xml:space="preserve">
<g>
	<path fill="#414042" d="M32.279,4.393l-0.146-0.916l-0.309-1.555c-0.03-0.149-0.128-0.277-0.265-0.348
		c-0.136-0.069-0.299-0.073-0.437-0.008c-0.021,0.01-2.044,0.909-7.096,1.061v3.037c0,0.038-0.014,0.071-0.021,0.106
		c0.941-0.027,5.753-0.221,8.253-1.373C32.266,4.395,32.272,4.396,32.279,4.393z M25.136,5.007c-0.401,0-0.728-0.327-0.728-0.729
		c0-0.399,0.326-0.725,0.728-0.725c0.398,0,0.723,0.325,0.723,0.725C25.858,4.68,25.534,5.007,25.136,5.007z"/>
	<path fill="#414042" d="M24.523,14.372c1.6-1.49,1.44-6.038,1.242-7.69c-0.792,0.057-1.405,0.08-1.711,0.089
		c0.055,1.759,0.061,6.168-1.1,8.057C23.587,14.9,24.107,14.759,24.523,14.372z"/>
	<path fill="#414042" d="M33.611,12.802L32.438,5.4c-0.953,0.401-2.132,0.689-3.32,0.89L33.611,12.802z"/>
	<path fill="#414042" d="M23.048,5.76c-0.007-0.032-0.02-0.062-0.02-0.096V2.627c-5.054-0.152-7.077-1.051-7.095-1.06
		c-0.139-0.065-0.3-0.064-0.438,0.006c-0.137,0.069-0.235,0.197-0.265,0.349l-0.418,2.445c0.042,0.008,0.085,0.012,0.126,0.03
		C17.234,5.454,21.591,5.705,23.048,5.76z"/>
	<path fill="#414042" d="M14.644,5.354l-1.227,7.175l4.412-6.288C16.67,6.035,15.541,5.749,14.644,5.354z"/>
	<path fill="#414042" d="M34.918,21.049l-0.945-5.961L28.088,6.56c-0.022-0.033-0.031-0.071-0.045-0.107
		c-0.443,0.059-0.872,0.106-1.281,0.146c0.069,0.593,0.679,6.423-1.557,8.505c-0.539,0.504-1.19,0.757-1.942,0.757
		c-0.156,0-0.323-0.027-0.488-0.05l0.882,2.83c3.463,6.662,4.985,26.728,5,26.935c0.018,0.254,0.226,0.453,0.48,0.463
		c0.196,0.007,0.396,0.01,0.602,0.01c3.447,0,7.836-0.923,8.021-0.962c0.256-0.055,0.427-0.298,0.391-0.558L34.918,21.049z"/>
	<path fill="#414042" d="M21.554,15.255c-0.069-0.224,0.025-0.465,0.229-0.582c1.05-0.604,1.367-4.835,1.271-7.911
		c-0.778-0.027-2.393-0.11-4.124-0.35l-5.907,8.418l-1.126,6.588l-3.233,23.35c-0.038,0.27,0.148,0.521,0.417,0.563
		c0.188,0.029,4.629,0.72,8.07,0.72c0.263,0,0.52-0.004,0.767-0.013c0.255-0.01,0.462-0.209,0.481-0.463
		c0.015-0.198,1.406-18.555,4.556-25.986c0.028-0.064-0.154-0.337-0.199-0.48L21.554,15.255z"/>
</g>
</svg>
