<?xml version="1.0" encoding="utf-8"?>
<!-- Generator: Adobe Illustrator 16.0.0, SVG Export Plug-In . SVG Version: 6.00 Build 0)  -->
<!DOCTYPE svg PUBLIC "-//W3C//DTD SVG 1.1//EN" "http://www.w3.org/Graphics/SVG/1.1/DTD/svg11.dtd">
<svg version="1.1" id="Layer_1" xmlns="http://www.w3.org/2000/svg" xmlns:xlink="http://www.w3.org/1999/xlink" x="0px" y="0px"
	 width="48px" height="48px" viewBox="0 0 48 48" enable-background="new 0 0 48 48" xml:space="preserve">
<g>
	<path fill="#414042" d="M23.512,5.761h0.274c3.553,0.086,4.866-3.831,4.921-3.998l0.051-0.17C26.795,2.923,24.398,3,23.928,3
		l-0.142-0.002L23.383,3c-0.47,0-2.869-0.077-4.833-1.409l0.055,0.177C18.658,1.93,19.958,5.838,23.512,5.761z"/>
	<path fill="#414042" d="M8.679,5.984C8.164,6.489,7.583,7.129,6.934,7.98L1.666,15.93c-0.14,0.212-0.1,0.495,0.095,0.659
		l6.828,5.754c0.203,0.169,0.504,0.154,0.687-0.04l0.457-0.485c0.329-9.025-0.956-15.54-0.969-15.606L8.679,5.984z"/>
	<path fill="#414042" d="M23.475,9.206c0.001,0,0.003,0,0.005,0h0.35c0.001,0,0.003,0,0.004,0c6.745,0,8.223-6.065,8.237-6.126
		l0.071-0.488L29.79,1.626l-0.128,0.433c-0.019,0.06-1.613,4.765-5.888,4.702h-0.25c-0.047,0.001-0.094,0.002-0.14,0.002
		c-4.173,0-5.717-4.646-5.732-4.692l-0.138-0.441l-2.351,0.966l0.083,0.519C15.299,3.329,16.756,9.206,23.475,9.206z"/>
	<path fill="#414042" d="M37.566,6.007l0.281-0.733c-0.821-0.676-1.328-0.883-1.354-0.893l-3.4-1.397l-0.041,0.282
		c-0.023,0.108-1.689,6.94-9.219,6.94c-0.002,0-0.003,0-0.005,0h-0.35c-0.001,0-0.004,0-0.005,0c-7.528,0-9.193-6.832-9.209-6.901
		l-0.052-0.319l-3.379,1.389c-0.036,0.014-0.542,0.22-1.361,0.891L9.722,5.94c0.033,0.133,1.237,6.218,1.044,14.778l0.034-0.036
		c0.104,2.804,0.341,10.647,0.341,24.149c0,0.253,0.189,0.466,0.44,0.496c0.054,0.007,5.466,0.65,10.862,0.65
		c0.364,0,0.727-0.003,1.081-0.009h0.253c0.362,0.006,0.726,0.009,1.089,0.009c5.396,0,10.808-0.644,10.862-0.65
		c0.252-0.03,0.44-0.243,0.44-0.496c0-12.188,0.192-19.75,0.308-23.172C36.172,12.606,37.553,6.072,37.566,6.007z"/>
	<path fill="#414042" d="M45.645,15.93l-5.287-7.977c-0.637-0.835-1.211-1.465-1.718-1.964l-0.118,0.304
		c0.007,0-1.354,6.457-1.043,15.418l0.557,0.592c0.182,0.194,0.482,0.209,0.687,0.04l6.828-5.754
		C45.744,16.425,45.785,16.142,45.645,15.93z"/>
</g>
</svg>
