<?xml version="1.0" encoding="utf-8"?>
<!-- Generator: Adobe Illustrator 16.0.0, SVG Export Plug-In . SVG Version: 6.00 Build 0)  -->
<!DOCTYPE svg PUBLIC "-//W3C//DTD SVG 1.1//EN" "http://www.w3.org/Graphics/SVG/1.1/DTD/svg11.dtd">
<svg version="1.1" id="Layer_1" xmlns="http://www.w3.org/2000/svg" xmlns:xlink="http://www.w3.org/1999/xlink" x="0px" y="0px"
	 width="48px" height="48px" viewBox="0 0 48 48" enable-background="new 0 0 48 48" xml:space="preserve">
<g>
	<path fill="#414042" d="M26.211,6.417c0.613,0.361,1.105,0.97,1.245,1.152c0.05,0.064,0.083,0.142,0.097,0.223
		c0.203,1.231,0.545,1.773,0.767,2.005c1.688-2.117,1.674-6.708,1.647-7.738l-0.928-0.816C29.07,3.35,27.449,5.265,26.211,6.417z"/>
	<path fill="#414042" d="M20.874,6.125c-1.546-1.119-2.345-3.329-2.691-4.583l-0.926,0.862c-0.017,0.909,0.015,4.029,1.098,6.501
		C18.852,7.979,19.735,6.633,20.874,6.125z"/>
	<path fill="#414042" d="M27.781,2.581c0.248-0.673,0.336-1.379,0.143-2.083c-1.104-0.139-2.195-0.22-3.25-0.22
		c-2.81,0-4.712,0.488-5.586,0.772c0.119,0.462,0.324,1.134,0.622,1.827C20.735,2.604,23.574,2.028,27.781,2.581z"/>
	<path fill="#414042" d="M24.88,6.227c0.015-0.006,0.029-0.012,0.044-0.017c0.67-0.558,1.707-1.529,2.396-2.68
		c-3.6-0.43-6.107,0.01-7.153,0.265c0.395,0.686,0.894,1.311,1.526,1.674c0.036,0.017,0.528,0.269,0.906,0.614
		c0.341,0.153,0.766,0.502,0.942,1.09c0.211-0.182,0.464-0.348,0.766-0.481c0.056-0.04,0.17-0.125,0.326-0.247
		C24.687,6.35,24.771,6.271,24.88,6.227z"/>
	<path fill="#414042" d="M24.337,19.815c-0.121-1.33-0.653-7.625-0.381-11.627c-0.408,0.5-0.475,1.047-0.476,1.055l-0.04,0.262
		l0,0.001c0,0.012,0.006,0.021,0.006,0.033v10.686C23.707,20.178,24.04,20.068,24.337,19.815z"/>
	<path fill="#414042" d="M45.891,17.241l-5.287-7.977c-2.254-2.954-3.813-3.553-3.823-3.553l-5.806-3.006
		c-0.008,1.867-0.247,6.13-2.209,8.091c-0.096,0.095-0.223,0.146-0.354,0.146c-0.029,0-0.057-0.002-0.085-0.007
		c-0.215-0.037-1.292-0.347-1.739-2.853c-0.381-0.464-0.923-0.907-1.218-0.943c-0.137,0.109-0.251,0.196-0.341,0.262
		c-0.466,4.123,0.316,12.473,0.325,12.558c0.014,0.142-0.034,0.282-0.13,0.387c-0.755,0.819-1.748,0.91-2.149,0.91
		c-0.103,0-0.167-0.006-0.179-0.008c-0.255-0.025-0.45-0.24-0.45-0.497V9.539c0-0.021,0.01-0.04,0.012-0.061
		c-0.003-0.028-0.013-0.056-0.011-0.086l0.069-0.986c0.002-0.036,0.009-0.072,0.02-0.107c0.296-0.994-0.257-1.269-0.379-1.315
		c-1.723-0.576-3.311,3.195-3.326,3.234c-0.071,0.176-0.236,0.296-0.425,0.311c-0.188,0.018-0.37-0.08-0.467-0.242
		c-1.372-2.297-1.642-5.402-1.682-7.059l-5.175,2.459C11.017,5.711,9.458,6.306,7.18,9.292l-5.267,7.949
		c-0.14,0.212-0.1,0.495,0.095,0.659l6.828,5.754c0.203,0.169,0.504,0.153,0.687-0.04l0.74-0.785
		c-0.082-0.077-0.14-0.179-0.155-0.298c-0.606-4.642-0.022-8.209,0.002-8.358c0.046-0.272,0.303-0.461,0.576-0.41
		c0.272,0.046,0.456,0.304,0.411,0.576c-0.006,0.035-0.583,3.578,0.002,8.063c0.011,0.079-0.003,0.154-0.027,0.226
		c0.112,3.248,0.318,10.917,0.318,23.517c0,0.253,0.189,0.466,0.44,0.496c0.054,0.007,5.465,0.649,10.86,0.649
		c0.364,0,0.727-0.003,1.082-0.009h0.253c0.362,0.006,0.727,0.009,1.091,0.009c5.395,0,10.807-0.643,10.859-0.649
		c0.252-0.03,0.441-0.243,0.441-0.496c0-12.761,0.211-20.46,0.323-23.636c-0.001-0.024-0.009-0.047-0.006-0.072
		c0.005-0.04,0.009-0.079,0.013-0.119c0.004-0.109,0.008-0.227,0.012-0.323l0.021,0.021c0.466-4.359-0.036-7.647-0.042-7.682
		c-0.043-0.272,0.143-0.528,0.416-0.572c0.274-0.043,0.528,0.144,0.571,0.416c0.023,0.147,0.566,3.672,0.003,8.378
		c-0.015,0.121-0.073,0.226-0.156,0.303l0.711,0.756c0.182,0.193,0.482,0.209,0.688,0.04l6.828-5.754
		C45.99,17.736,46.031,17.453,45.891,17.241z"/>
</g>
</svg>
