<?xml version="1.0" encoding="utf-8"?>
<!-- Generator: Adobe Illustrator 16.0.0, SVG Export Plug-In . SVG Version: 6.00 Build 0)  -->
<!DOCTYPE svg PUBLIC "-//W3C//DTD SVG 1.1//EN" "http://www.w3.org/Graphics/SVG/1.1/DTD/svg11.dtd">
<svg version="1.1" id="Layer_1" xmlns="http://www.w3.org/2000/svg" xmlns:xlink="http://www.w3.org/1999/xlink" x="0px" y="0px"
	 width="48px" height="48px" viewBox="0 0 48 48" enable-background="new 0 0 48 48" xml:space="preserve">
<g>
	<path fill="#414042" d="M5.673,43.214l-4-0.097c-0.263,0-0.449,0.159-0.5,0.393l-0.417,1.889c-0.033,0.147,0.003,0.303,0.099,0.421
		c0.095,0.118,0.238,0.187,0.39,0.187h4.042c0.237,0,0.441-0.166,0.489-0.397l0.375-1.792c0.031-0.146-0.005-0.297-0.097-0.413
		C5.96,43.287,5.821,43.218,5.673,43.214z"/>
	<path fill="#414042" d="M47.461,43.51c-0.052-0.233-0.244-0.39-0.5-0.393l-4,0.097c-0.148,0.004-0.288,0.073-0.381,0.189
		c-0.092,0.116-0.127,0.268-0.097,0.413l0.375,1.792c0.048,0.231,0.253,0.397,0.489,0.397h4.042c0.007,0,0.014-0.001,0.021,0
		c0.275,0,0.5-0.224,0.5-0.5c0-0.087-0.022-0.168-0.061-0.239L47.461,43.51z"/>
	<path fill="#414042" d="M23.385,8.641h0.078c0.736-0.427,4.973-2.975,7.235-6.223L28.708,1.6c-0.207-0.085-0.45-0.02-0.589,0.16
		c-1.582,2.085-4.105,3.663-4.693,4.015c-0.589-0.35-3.127-1.928-4.69-4.012C18.6,1.58,18.355,1.514,18.146,1.6l-1.952,0.803
		C18.684,5.922,22.686,8.251,23.385,8.641z"/>
	<path fill="#414042" d="M47.498,42.349c0.305-0.01,0.511-0.221,0.511-0.5c0-0.094-0.026-0.181-0.07-0.256l-9.01-33.815
		c-0.017-0.064-0.046-0.124-0.086-0.176c-2.086-2.737-3.533-3.29-3.575-3.306l-3.629-1.492c-2.564,3.829-7.58,6.651-7.8,6.774
		c-0.074,0.041-0.158,0.063-0.243,0.063h-0.339c-0.081,0-0.161-0.02-0.233-0.058c-0.204-0.107-4.932-2.637-7.776-6.792l-3.643,1.498
		c-0.061,0.022-1.508,0.575-3.594,3.313c-0.044,0.057-0.075,0.123-0.09,0.192L0.302,41.593c-0.033,0.148,0.002,0.304,0.097,0.423
		c0.095,0.118,0.239,0.188,0.391,0.188h6.141c0.235,0,0.439-0.164,0.489-0.395l4.221-19.542c0.101,3.72,0.221,9.175,0.221,18.418
		c0,0.268,0.211,0.481,0.476,0.495h22.18c0.264-0.014,0.475-0.228,0.475-0.495c0-9.797,0.137-15.45,0.241-19.058l5.478,20.35
		c0.059,0.22,0.257,0.372,0.484,0.372h6.293C47.492,42.349,47.496,42.349,47.498,42.349z"/>
	<path fill="#414042" d="M13.628,43.793c0,0.276,0.224,0.5,0.5,0.5h18.537c0.276,0,0.5-0.224,0.5-0.5V42.18H13.628V43.793z"/>
</g>
</svg>
