<?xml version="1.0" encoding="utf-8"?>
<!-- Generator: Adobe Illustrator 16.0.0, SVG Export Plug-In . SVG Version: 6.00 Build 0)  -->
<!DOCTYPE svg PUBLIC "-//W3C//DTD SVG 1.1//EN" "http://www.w3.org/Graphics/SVG/1.1/DTD/svg11.dtd">
<svg version="1.1" id="Layer_1" xmlns="http://www.w3.org/2000/svg" xmlns:xlink="http://www.w3.org/1999/xlink" x="0px" y="0px"
	 width="48px" height="48px" viewBox="0 0 48 48" enable-background="new 0 0 48 48" xml:space="preserve">
<g>
	<path fill="#414042" d="M1.265,36.907c-0.196,0.585-0.535,1.646-0.808,2.758c-0.033,0.135-0.008,0.277,0.068,0.394
		s0.197,0.195,0.334,0.219l5,0.848c0.241,0.042,0.479-0.101,0.558-0.334c0,0,0.41-1.221,0.807-2.438l-5.916-1.426
		C1.292,36.923,1.28,36.912,1.265,36.907z"/>
	<path fill="#414042" d="M21.413,10.564c-0.033-0.069-0.05-0.146-0.05-0.222l0.01-1.175l-0.137-0.107l-1.619,4.287
		c-0.073,0.192-0.256,0.321-0.462,0.323c-0.002,0-0.004,0-0.005,0c-0.204,0-0.388-0.124-0.464-0.313l-2.556-6.366L9.148,9.43
		c-0.154,0.054-0.273,0.18-0.317,0.338l-7.273,26.19l5.937,1.431c0.013,0.003,0.022,0.012,0.035,0.016l4.12-12.778l-0.583,15.987
		c-0.003,0.078,0.013,0.156,0.045,0.227c0.066,0.145,1.722,3.522,11.011,3.522c0.296,0,0.606-0.008,0.916-0.015
		c-1.199-6.35-0.046-27.579,0.103-30.2L21.413,10.564z"/>
	<path fill="#414042" d="M22.184,8.534c0.121,0.096,0.192,0.242,0.19,0.396l-0.011,1.304l1.209,2.505l0.934-2.461l-0.125-1.304
		c-0.017-0.169,0.055-0.335,0.188-0.44l0.824-0.649l3.127-3.763c-1.785-0.6-3.587-0.916-5.361-0.916
		c-2.489,0-4.248,0.593-4.978,0.891l3.179,3.787L22.184,8.534z"/>
	<path fill="#414042" d="M28.224,12.168l1.765-6.046c0.017-0.055,0.045-0.1,0.076-0.144l-0.748-1.251l-2.981,3.589L28.224,12.168z"
		/>
	<polygon fill="#414042" points="20.438,8.342 17.457,4.789 16.882,6.185 19.135,11.794 	"/>
	<path fill="#414042" d="M46.329,39.636l-0.823-2.627l-5.907,1.329c0.422,1.157,0.87,2.456,0.871,2.457
		c0.079,0.231,0.315,0.371,0.558,0.33l4.909-0.848c0.142-0.025,0.267-0.109,0.341-0.232C46.354,39.922,46.371,39.773,46.329,39.636z
		"/>
	<path fill="#414042" d="M37.921,9.768c-0.043-0.154-0.157-0.279-0.308-0.335L30.803,6.9l-1.98,6.786
		c-0.058,0.197-0.231,0.34-0.438,0.357c-0.014,0.001-0.028,0.002-0.043,0.002c-0.189,0-0.363-0.107-0.448-0.28l-2.326-4.745
		l-0.165,0.13l0.11,1.148c0.007,0.076-0.003,0.153-0.03,0.226l-1.333,3.514c-0.079,1.399-1.348,24.245-0.094,30.283
		c2.24-0.094,9.425-0.605,11.593-3.382c0.073-0.093,0.111-0.209,0.105-0.327l-0.637-15.94l4.105,12.733
		c0.015-0.005,0.025-0.015,0.041-0.019l5.957-1.34L37.921,9.768z M24.895,36.987c-0.361,0-0.655-0.294-0.655-0.654
		c0-0.362,0.294-0.656,0.655-0.656s0.655,0.294,0.655,0.656C25.55,36.693,25.256,36.987,24.895,36.987z M24.957,31.362
		c-0.361,0-0.655-0.294-0.655-0.654c0-0.362,0.294-0.656,0.655-0.656c0.362,0,0.655,0.294,0.655,0.656
		C25.611,31.068,25.318,31.362,24.957,31.362z M25.018,25.511c-0.361,0-0.655-0.294-0.655-0.654c0-0.362,0.294-0.656,0.655-0.656
		c0.361,0,0.656,0.294,0.656,0.656C25.674,25.217,25.379,25.511,25.018,25.511z M25.236,19.886c-0.362,0-0.656-0.294-0.656-0.654
		c0-0.362,0.294-0.656,0.656-0.656c0.361,0,0.654,0.294,0.654,0.656C25.891,19.592,25.598,19.886,25.236,19.886z M25.547,14.634
		c-0.361,0-0.656-0.294-0.656-0.656c0-0.36,0.294-0.654,0.656-0.654s0.654,0.294,0.654,0.654
		C26.201,14.34,25.908,14.634,25.547,14.634z"/>
</g>
</svg>
