<?xml version="1.0" encoding="utf-8"?>
<!-- Generator: Adobe Illustrator 16.0.0, SVG Export Plug-In . SVG Version: 6.00 Build 0)  -->
<!DOCTYPE svg PUBLIC "-//W3C//DTD SVG 1.1//EN" "http://www.w3.org/Graphics/SVG/1.1/DTD/svg11.dtd">
<svg version="1.1" id="Layer_1" xmlns="http://www.w3.org/2000/svg" xmlns:xlink="http://www.w3.org/1999/xlink" x="0px" y="0px"
	 width="48px" height="48px" viewBox="0 0 48 48" enable-background="new 0 0 48 48" xml:space="preserve">
<g>
	<path fill="#414042" d="M21.525,10.564c-0.033-0.069-0.05-0.146-0.049-0.222l0.01-1.175L21.35,9.061l-1.619,4.287
		c-0.073,0.192-0.257,0.321-0.463,0.323c-0.002,0-0.004,0-0.006,0c-0.203,0-0.387-0.124-0.463-0.313l-2.557-6.366L9.262,9.43
		c-0.154,0.054-0.273,0.18-0.316,0.338L3.613,22.7l7.375,3.25c0.012,0.003,0.021,0.012,0.034,0.016l0.741-1.34l-0.582,15.987
		c-0.004,0.078,0.012,0.156,0.045,0.227c0.065,0.145,1.722,3.522,11.01,3.522c0.297,0,0.607-0.008,0.916-0.015
		c-1.199-6.35-0.046-27.579,0.103-30.2L21.525,10.564z"/>
	<path fill="#414042" d="M22.297,8.534c0.121,0.096,0.192,0.242,0.191,0.396l-0.012,1.304l1.209,2.505l0.934-2.461l-0.125-1.304
		c-0.017-0.169,0.055-0.335,0.188-0.44l0.824-0.649l3.127-3.763c-1.785-0.6-3.587-0.916-5.361-0.916
		c-2.488,0-4.248,0.593-4.978,0.891l3.179,3.787L22.297,8.534z"/>
	<path fill="#414042" d="M28.337,12.168l1.765-6.046c0.017-0.055,0.045-0.1,0.076-0.144L29.43,4.728l-2.981,3.589L28.337,12.168z"/>
	<polygon fill="#414042" points="20.551,8.342 17.57,4.789 16.996,6.185 19.248,11.794 	"/>
	<path fill="#414042" d="M38.034,9.768c-0.043-0.154-0.157-0.279-0.308-0.335L30.916,6.9l-1.98,6.786
		c-0.058,0.197-0.231,0.34-0.438,0.357c-0.014,0.001-0.028,0.002-0.043,0.002c-0.189,0-0.363-0.107-0.448-0.28l-2.326-4.745
		l-0.165,0.13l0.11,1.148c0.007,0.076-0.003,0.153-0.03,0.226l-1.333,3.514c-0.079,1.399-1.349,24.245-0.094,30.283
		c2.24-0.094,9.425-0.605,11.593-3.382c0.073-0.093,0.111-0.209,0.105-0.327l-0.637-15.94l0.759,1.401
		c0.015-0.005,0.025-0.015,0.041-0.019l7.646-3.417L38.034,9.768z M25.008,35.987c-0.361,0-0.655-0.294-0.655-0.654
		c0-0.362,0.294-0.656,0.655-0.656s0.655,0.294,0.655,0.656C25.663,35.693,25.369,35.987,25.008,35.987z M25.07,30.362
		c-0.361,0-0.656-0.294-0.656-0.654c0-0.362,0.295-0.656,0.656-0.656s0.654,0.294,0.654,0.656
		C25.725,30.068,25.432,30.362,25.07,30.362z M25.131,25.511c-0.361,0-0.654-0.294-0.654-0.654c0-0.362,0.293-0.656,0.654-0.656
		s0.656,0.294,0.656,0.656C25.787,25.217,25.492,25.511,25.131,25.511z M25.35,19.886c-0.361,0-0.656-0.294-0.656-0.654
		c0-0.362,0.295-0.656,0.656-0.656s0.654,0.294,0.654,0.656C26.004,19.592,25.711,19.886,25.35,19.886z M25.66,14.634
		c-0.361,0-0.656-0.294-0.656-0.656c0-0.36,0.295-0.654,0.656-0.654s0.654,0.294,0.654,0.654
		C26.314,14.34,26.021,14.634,25.66,14.634z"/>
</g>
</svg>
