<?xml version="1.0" encoding="utf-8"?>
<!-- Generator: Adobe Illustrator 16.0.0, SVG Export Plug-In . SVG Version: 6.00 Build 0)  -->
<!DOCTYPE svg PUBLIC "-//W3C//DTD SVG 1.1//EN" "http://www.w3.org/Graphics/SVG/1.1/DTD/svg11.dtd">
<svg version="1.1" id="Layer_1" xmlns="http://www.w3.org/2000/svg" xmlns:xlink="http://www.w3.org/1999/xlink" x="0px" y="0px"
	 width="48px" height="48px" viewBox="0 0 48 48" enable-background="new 0 0 48 48" xml:space="preserve">
<g>
	<path fill="#414042" d="M20.383,6.61l3.295,19.44l4.22-19.35C22.31,5.316,20.383,6.61,20.383,6.61z"/>
	<path fill="#414042" d="M30.024,17.615l-0.801-0.738c-0.114-0.105-0.173-0.258-0.159-0.412s0.099-0.294,0.23-0.377l2.102-1.334
		l-2.473-7.199l-0.379-0.378l-3.315,15.638C26.92,20.419,29.098,18.418,30.024,17.615z"/>
	<path fill="#414042" d="M18.352,16.088c0.132,0.083,0.217,0.223,0.23,0.377c0.014,0.155-0.045,0.308-0.159,0.412l-0.825,0.76
		c0.906,0.877,3.155,3.165,4.826,5.794l-2.77-16.242l-0.442,0.442c-0.005,0.016-0.003,0.032-0.01,0.049l-2.931,7.087L18.352,16.088z
		"/>
	<path fill="#414042" d="M40.649,38.805l6.07-2.374L36.396,10.164l-6.234-2.08l2.309,6.717c0.075,0.219-0.01,0.461-0.205,0.586
		l-1.886,1.196l0.738,0.681c0.106,0.1,0.165,0.238,0.161,0.384c-0.005,0.146-0.072,0.281-0.185,0.372
		c-0.053,0.043-4.887,4.012-6.55,8.023l-0.389,1.836l-0.149,12.094l0.013,0.093c0,0-0.184,1.456,0.973,1.442l1.643-0.123
		l7.809-0.619c-0.383-10.965-0.357-17.95-0.357-17.95L40.649,38.805z M41.12,36.386c0.287,0,0.521,0.233,0.521,0.519
		c0,0.288-0.233,0.521-0.521,0.521S40.6,37.192,40.6,36.904C40.6,36.619,40.833,36.386,41.12,36.386z M25.229,34.511
		c-0.287,0-0.521-0.233-0.521-0.521c0-0.285,0.233-0.52,0.521-0.52s0.521,0.234,0.521,0.52
		C25.75,34.277,25.517,34.511,25.229,34.511z M25.229,28.511c-0.287,0-0.521-0.233-0.521-0.521c0-0.285,0.233-0.52,0.521-0.52
		s0.521,0.234,0.521,0.52C25.75,28.277,25.517,28.511,25.229,28.511z"/>
	<path fill="#414042" d="M16.527,18.001c-0.103-0.095-0.162-0.229-0.162-0.368c0-0.141,0.059-0.273,0.161-0.369l0.74-0.681
		l-1.886-1.196c-0.205-0.131-0.287-0.39-0.194-0.613l2.751-6.652l-6.121,2.043L1.063,36.109l5.943,2.545l6.539-15.762
		c0,0-0.172,7.381,0.154,18.314l7.871,0.301c0,0,1.043,0.016,1.42-0.816l0.011-0.184l0.164-12.73l-0.178-1.042
		C21.475,22.563,16.58,18.049,16.527,18.001z M6.553,37.114c-0.287,0-0.521-0.233-0.521-0.521c0-0.285,0.233-0.52,0.521-0.52
		s0.521,0.234,0.521,0.52C7.073,36.881,6.84,37.114,6.553,37.114z"/>
</g>
</svg>
