<?xml version="1.0" encoding="utf-8"?>
<!-- Generator: Adobe Illustrator 16.0.0, SVG Export Plug-In . SVG Version: 6.00 Build 0)  -->
<!DOCTYPE svg PUBLIC "-//W3C//DTD SVG 1.1//EN" "http://www.w3.org/Graphics/SVG/1.1/DTD/svg11.dtd">
<svg version="1.1" id="Layer_1" xmlns="http://www.w3.org/2000/svg" xmlns:xlink="http://www.w3.org/1999/xlink" x="0px" y="0px"
	 width="48px" height="48px" viewBox="0 0 48 48" enable-background="new 0 0 48 48" xml:space="preserve">
<g>
	<path fill="#414042" d="M18.945,7.19l-7.185,2.397c-0.139,0.047-0.251,0.151-0.306,0.288L1.195,35.321
		c-0.102,0.252,0.017,0.539,0.267,0.646l5.945,2.547c0.125,0.052,0.265,0.054,0.39,0.002c0.124-0.052,0.223-0.152,0.272-0.278
		l5.043-12.736c-0.024,3.105-0.019,8.665,0.189,15.618c0.008,0.264,0.219,0.476,0.482,0.485l8.424,0.301
		c0.073,0,0.454-0.01,0.87-0.177c-0.001-0.528,0.012-1.342,0.017-1.65v-4.093c0-0.047,0.045-4.218,0.195-9.119l0.13-0.591
		L19.646,6.49L18.945,7.19z M21.94,33.117c0,0.276-0.224,0.5-0.5,0.5h-5.125c-0.276,0-0.5-0.224-0.5-0.5s0.224-0.5,0.5-0.5h5.125
		C21.717,32.617,21.94,32.841,21.94,33.117z"/>
	<path fill="#414042" d="M23.657,5.539c-1.49,0-2.503,0.234-3.093,0.428l3.4,17.828l3.893-17.733
		C26.355,5.721,24.941,5.539,23.657,5.539z"/>
	<path fill="#414042" d="M47.084,35.779L36.965,9.881c-0.054-0.139-0.167-0.246-0.308-0.293L29.469,7.19l-0.685-0.685l-4.351,19.78
		c0.015,0.121-0.012,0.238-0.074,0.334l-0.081,0.37c-0.139,4.799-0.184,8.96-0.184,9.001v4.097c-0.012,0.723-0.02,1.506-0.017,1.846
		c0.149,0.057,0.31,0.096,0.489,0.096c0.013,0,0.025,0,0.037-0.001l9.985-0.866c0.265-0.023,0.465-0.25,0.456-0.516
		c-0.245-6.974-0.323-12.373-0.349-15.352l5.39,13.229c0.104,0.254,0.388,0.377,0.646,0.277l6.068-2.375
		C47.058,36.326,47.185,36.036,47.084,35.779z M31.44,33.617h-5.125c-0.276,0-0.5-0.224-0.5-0.5s0.224-0.5,0.5-0.5h5.125
		c0.276,0,0.5,0.224,0.5,0.5S31.717,33.617,31.44,33.617z"/>
</g>
</svg>
