<?xml version="1.0" encoding="utf-8"?>
<!-- Generator: Adobe Illustrator 16.0.0, SVG Export Plug-In . SVG Version: 6.00 Build 0)  -->
<!DOCTYPE svg PUBLIC "-//W3C//DTD SVG 1.1//EN" "http://www.w3.org/Graphics/SVG/1.1/DTD/svg11.dtd">
<svg version="1.1" id="Layer_1" xmlns="http://www.w3.org/2000/svg" xmlns:xlink="http://www.w3.org/1999/xlink" x="0px" y="0px"
	 width="48px" height="48px" viewBox="0 0 48 48" enable-background="new 0 0 48 48" xml:space="preserve">
<g>
	<path fill="#414042" d="M39.037,7.797c0-0.276-0.224-0.5-0.5-0.5H9.289c-0.276,0-0.5,0.224-0.5,0.5v3.229h30.248V7.797z"/>
	<path fill="#414042" d="M46.025,36.809l-2.566-12.09l-4.22-12.644H27.391v11.974c-0.17,1.757-0.709,2.984-1.604,3.696
		c-0.694,0.552-1.412,0.626-1.745,0.626c-0.112,0-0.181-0.009-0.191-0.01c-0.249-0.032-0.436-0.245-0.436-0.496v-15.79H8.587
		L4.354,24.773L1.802,36.809c-0.055,0.26,0.103,0.518,0.359,0.586l8.425,2.266c0.041,0.012,0.083,0.017,0.124,0.018l10.862,0.123
		c0.254,0.046,0.448-0.166,0.496-0.401l1.846-9.149l1.844,9.149c0.047,0.233,0.252,0.401,0.49,0.401c0.003,0,0.006,0,0.009,0
		l10.799-0.186c0.039-0.001,0.079-0.006,0.116-0.016l8.49-2.203C45.92,37.329,46.08,37.07,46.025,36.809z"/>
	<path fill="#414042" d="M24.414,27.329c0.218-0.051,0.494-0.158,0.769-0.382c0.655-0.533,1.073-1.553,1.21-2.947l-0.002-11.925
		h-1.977V27.329z"/>
</g>
</svg>
