<?xml version="1.0" encoding="utf-8"?>
<!-- Generator: Adobe Illustrator 16.0.0, SVG Export Plug-In . SVG Version: 6.00 Build 0)  -->
<!DOCTYPE svg PUBLIC "-//W3C//DTD SVG 1.1//EN" "http://www.w3.org/Graphics/SVG/1.1/DTD/svg11.dtd">
<svg version="1.1" id="Layer_1" xmlns="http://www.w3.org/2000/svg" xmlns:xlink="http://www.w3.org/1999/xlink" x="0px" y="0px"
	 width="48px" height="48px" viewBox="0 0 48 48" enable-background="new 0 0 48 48" xml:space="preserve">
<g>
	<path fill="#414042" d="M24.891,11.269c-0.566,0.227-0.93,1.01-1.069,1.426c0.172,0.485,0.272,0.906,0.314,1.121
		c0.556-0.138,0.984-0.389,1.271-0.758c0.451-0.578,0.477-1.321,0.457-1.688C25.493,11.188,25.174,11.156,24.891,11.269z"/>
	<path fill="#414042" d="M21.907,11.59c-0.075-0.027-0.282-0.106-0.671,0.149c0.053,0.53,0.343,1.745,1.877,2.079
		C22.93,13.035,22.493,11.808,21.907,11.59z"/>
	<path fill="#414042" d="M46.18,36.812l-2.566-12.09l-4.275-12.813c-5.179,1.454-11.43,1.899-11.495,1.904
		c-0.012,0.001-0.022,0.001-0.034,0.001c-0.262,0-0.48-0.202-0.499-0.466c-0.019-0.275,0.189-0.514,0.465-0.533
		c0.064-0.004,6.32-0.45,11.417-1.903V7.8c0-0.146-0.063-0.285-0.175-0.38s-0.257-0.135-0.403-0.114
		C32.399,8.29,26.711,8.789,21.707,8.789h-0.001c-8.429,0-12.035-1.438-12.071-1.451C9.48,7.273,9.304,7.292,9.166,7.385
		S8.944,7.633,8.944,7.8v2.871c0.25,0.173,3.696,2.457,10.647,2.486c0.276,0.001,0.499,0.226,0.498,0.502
		c-0.001,0.275-0.225,0.498-0.5,0.498c0,0-0.001,0-0.002,0c-6.034-0.025-9.516-1.662-10.747-2.374L4.509,24.776L1.957,36.812
		c-0.055,0.26,0.103,0.518,0.359,0.586l8.425,2.266c0.041,0.012,0.082,0.017,0.124,0.018l10.862,0.123c0.002,0,0.004,0,0.006,0
		c0.238,0,0.443-0.168,0.49-0.401l1.845-9.149l1.845,9.149c0.048,0.233,0.253,0.401,0.49,0.401c0.003,0,0.006,0,0.009,0
		l10.799-0.186c0.039-0.001,0.078-0.006,0.117-0.016l8.488-2.203C46.075,37.332,46.235,37.073,46.18,36.812z M26.202,13.663
		c-0.358,0.464-0.856,0.788-1.459,0.999c0.433,0.812,0.591,2.167,0.753,3.577c0.104,0.896,0.259,2.25,0.471,2.483
		c0.186,0.202,0.177,0.52-0.023,0.706c-0.098,0.092-0.221,0.138-0.344,0.138c-0.129,0-0.257-0.051-0.354-0.152
		c-0.424-0.44-0.552-1.401-0.743-3.061c-0.107-0.933-0.391-3.396-0.834-3.453c-0.042,0.004-0.078,0.016-0.121,0.019
		c-0.201,0.015-0.499,0.093-0.761,0.592c-0.832,1.58-0.287,5.375,0.002,5.876c0.195,0.195,0.176,0.488-0.019,0.684
		c-0.092,0.092-0.214,0.135-0.339,0.135c-0.141,0.001-0.283-0.055-0.387-0.158c-0.555-0.555-1.078-4.555-0.327-6.584
		c0.144-0.39,0.323-0.676,0.516-0.898c-1.581-0.669-2.029-2.195-2.006-3.081c0.004-0.146,0.07-0.281,0.183-0.374
		c0.792-0.651,1.443-0.609,1.848-0.457c0.414,0.154,0.738,0.492,1.001,0.888c0.271-0.466,0.674-0.963,1.257-1.197
		c0.641-0.26,1.339-0.162,2.079,0.289c0.123,0.074,0.207,0.197,0.232,0.338C26.838,11.032,27.092,12.512,26.202,13.663z"/>
</g>
</svg>
