<?xml version="1.0" encoding="utf-8"?>
<!-- Generator: Adobe Illustrator 16.0.0, SVG Export Plug-In . SVG Version: 6.00 Build 0)  -->
<!DOCTYPE svg PUBLIC "-//W3C//DTD SVG 1.1//EN" "http://www.w3.org/Graphics/SVG/1.1/DTD/svg11.dtd">
<svg version="1.1" id="Layer_1" xmlns="http://www.w3.org/2000/svg" xmlns:xlink="http://www.w3.org/1999/xlink" x="0px" y="0px"
	 width="48px" height="48px" viewBox="0 0 48 48" enable-background="new 0 0 48 48" xml:space="preserve">
<g>
	<path fill="#414042" d="M32.089,7.774c-0.042-0.09-0.076-0.145-0.083-0.154c-3.945-7.192-7.284-7.729-7.425-7.747
		c-0.083-0.01-0.168-0.002-0.248,0.028c-2.81,1.081-5.678,5.756-6.666,7.494c1.095-0.739,3.14-1.527,6.981-1.904
		C24.879,5.464,29.823,4.923,32.089,7.774z"/>
	<path fill="#414042" d="M42.289,39.665c0.135-0.03,0.25-0.113,0.32-0.23c0.071-0.118,0.09-0.26,0.054-0.392l-6.2-22.328
		c-0.038-0.136-0.131-0.249-0.257-0.313l-6.315-3.187l-0.287-0.658c-0.105-0.241-0.379-0.359-0.625-0.272
		c-0.319,0.113-3.127,1.154-3.656,2.889c-0.011,0.037-0.018,0.077-0.02,0.116c-0.002,0.014-0.078,1.113-0.736,2.195
		c-0.355-1.409-0.517-2.634-0.529-2.701c-0.417-1.565-3.521-2.569-4.14-2.754c-0.151-0.047-0.315-0.017-0.442,0.077
		c-0.127,0.095-0.202,0.243-0.202,0.401v0.772l-6.991,3.11c-0.137,0.061-0.239,0.18-0.279,0.323L5.784,39.043
		c-0.037,0.132-0.018,0.273,0.053,0.392c0.071,0.117,0.187,0.2,0.32,0.23l0.275,0.062c-0.248,0.544-0.688,1.604-0.538,1.981
		l3.397,0.615c0,0,0.419-0.905,0.736-1.799l0.315,0.07c0.254,0.055,0.505-0.089,0.584-0.335l3.55-11.011l0.128,13.388
		c-0.077,0.714,0.121,2.053,1.277,2.613c0.002,0.253,0,0.618-0.014,1.149c0,0,5.172,2.063,17.107-0.294v-1.685
		c0.457-0.36,0.857-0.915,0.867-1.726l0.127-13.444l3.55,11.009c0.079,0.246,0.338,0.39,0.585,0.335l0.396-0.088
		c0.316,0.885,0.758,1.789,0.758,1.789l3.33-0.605c0.15-0.374-0.313-1.441-0.563-1.967L42.289,39.665z M20.477,33.396l-2.763,4.807
		c-0.093,0.161-0.261,0.251-0.434,0.251c-0.084,0-0.17-0.021-0.249-0.066c-0.24-0.138-0.322-0.443-0.185-0.683l2.763-4.807
		c0.138-0.24,0.442-0.321,0.683-0.185C20.532,32.852,20.615,33.157,20.477,33.396z M31.16,38.388
		c-0.078,0.045-0.164,0.066-0.248,0.066c-0.174,0-0.342-0.09-0.434-0.251l-2.764-4.807c-0.137-0.239-0.055-0.545,0.186-0.683
		c0.24-0.137,0.544-0.056,0.682,0.185l2.764,4.807C31.482,37.944,31.4,38.25,31.16,38.388z"/>
	<path fill="#414042" d="M18.858,11.306c0.382-0.282,0.889-0.369,1.336-0.23c1.145,0.342,3.73,1.274,4.599,2.917
		c1.018-1.538,3.137-2.396,3.85-2.649c0.737-0.261,1.572,0.111,1.878,0.815l0.075,0.173c0.975-0.917,1.441-1.771,1.633-2.493
		c-0.131-0.052-0.244-0.138-0.293-0.28c-1.271-3.716-7.121-3.08-7.18-3.071c-6.796,0.666-7.347,2.581-7.348,2.601
		c-0.014,0.21-0.154,0.384-0.343,0.443c0.067,1.028,0.623,1.909,1.257,2.562C18.412,11.782,18.595,11.502,18.858,11.306z"/>
</g>
</svg>
