<?xml version="1.0" encoding="utf-8"?>
<!-- Generator: Adobe Illustrator 16.0.0, SVG Export Plug-In . SVG Version: 6.00 Build 0)  -->
<!DOCTYPE svg PUBLIC "-//W3C//DTD SVG 1.1//EN" "http://www.w3.org/Graphics/SVG/1.1/DTD/svg11.dtd">
<svg version="1.1" id="Layer_1" xmlns="http://www.w3.org/2000/svg" xmlns:xlink="http://www.w3.org/1999/xlink" x="0px" y="0px"
	 width="48px" height="48px" viewBox="0 0 48 48" enable-background="new 0 0 48 48" xml:space="preserve">
<g>
	<path fill="#414042" d="M1.593,40.162c0.064,0.159,0.205,0.274,0.375,0.306l4.659,0.847c0.228,0.04,0.448-0.074,0.543-0.282
		c0.028-0.06,0.641-1.39,1.082-2.671L2.12,37.298C1.754,38.23,1.34,39.533,1.593,40.162z"/>
	<path fill="#414042" d="M46.479,37.115l-5.963,1.428c0.455,1.233,1.094,2.454,1.124,2.512c0.102,0.194,0.315,0.297,0.532,0.26
		l4.658-0.847c0.225-0.041,0.394-0.23,0.409-0.459C47.278,39.427,46.781,37.948,46.479,37.115z"/>
	<path fill="#414042" d="M22.158,10.589l1.628,0.547c0.026-1.16,0.046-2.001,0.057-2.409c-0.004-0.001-0.008,0-0.012-0.002
		l-2.037-0.826c-0.049-0.02-0.094-0.047-0.134-0.08l-3.266-2.751L17.822,6.46c0.008,0.011,0.02,0.017,0.027,0.028
		C18.482,7.493,20.49,10.188,22.158,10.589z"/>
	<path fill="#414042" d="M26.877,7.909l-2.03,0.686c-0.006,0.251-0.027,1.104-0.055,2.389l2.229-0.679
		c0.938-0.473,3.665-2.119,4.095-3.683c0.019-0.066,0.05-0.125,0.09-0.175l-0.872-1.459l-3.29,2.826
		C26.994,7.856,26.938,7.889,26.877,7.909z"/>
	<polygon fill="#414042" points="29.533,4.358 24.504,3.361 24.099,3.371 19.117,4.368 22.244,7.002 24.113,7.761 24.195,7.759 
		26.465,6.993 	"/>
	<path fill="#414042" d="M23.764,12.183l-1.883-0.634c-2.125-0.51-4.286-3.627-4.775-4.367l-6.984,2.439
		c-0.154,0.054-0.273,0.18-0.317,0.338L2.481,36.347l6.085,1.056l4.218-13.08l0.156,16.685c0.002,0.234,0.167,0.436,0.396,0.484
		l10.583,2.25C23.289,38.424,23.595,20.133,23.764,12.183z M20.958,21.909h-4.833c-0.276,0-0.5-0.224-0.5-0.5s0.224-0.5,0.5-0.5
		h4.833c0.276,0,0.5,0.224,0.5,0.5S21.234,21.909,20.958,21.909z"/>
	<path fill="#414042" d="M38.895,9.959c-0.043-0.154-0.158-0.279-0.309-0.335l-6.607-2.458c-0.852,2.189-4.432,3.986-4.591,4.065
		l-2.618,0.803c-0.166,7.878-0.481,26.62,0.151,31.678l10.442-2.221c0.229-0.049,0.395-0.25,0.396-0.484l0.156-16.686l4.279,13.27
		l5.977-1.431L38.895,9.959z M31.958,21.909h-4.833c-0.276,0-0.5-0.224-0.5-0.5s0.224-0.5,0.5-0.5h4.833c0.276,0,0.5,0.224,0.5,0.5
		S32.234,21.909,31.958,21.909z"/>
</g>
</svg>
