<?xml version="1.0" encoding="utf-8"?>
<!-- Generator: Adobe Illustrator 16.0.0, SVG Export Plug-In . SVG Version: 6.00 Build 0)  -->
<!DOCTYPE svg PUBLIC "-//W3C//DTD SVG 1.1//EN" "http://www.w3.org/Graphics/SVG/1.1/DTD/svg11.dtd">
<svg version="1.1" id="Layer_1" xmlns="http://www.w3.org/2000/svg" xmlns:xlink="http://www.w3.org/1999/xlink" x="0px" y="0px"
	 width="48px" height="48px" viewBox="0 0 48 48" enable-background="new 0 0 48 48" xml:space="preserve">
<g>
	<path fill="#414042" d="M9.075,17.821c0,0,1.006,3.067,1.865,4.699c0,0,0.857-6.422-2.283-11.274
		C8.656,11.246,7.748,13.555,9.075,17.821z"/>
	<path fill="#414042" d="M38.545,11.246c0,0-3.103,3.891-2.424,11.195c0.813-2.271,1.73-4.629,1.73-4.629
		C39.226,13.598,38.545,11.246,38.545,11.246z"/>
	<path fill="#414042" d="M28.759,4.181c-1.528-0.672-3.182-1.028-4.932-1.028c-2.6,0-4.644,0.737-5.417,1.06
		c0.413,0.714,2.125,3.338,5.051,3.449C26.432,7.55,28.313,4.885,28.759,4.181z"/>
	<path fill="#414042" d="M24.123,8.611c-0.008,0.311-0.024,0.998-0.046,1.998c1.218-0.347,4.08-1.459,6.194-4.607L29.551,4.8
		C28.984,5.681,27.127,8.193,24.123,8.611z"/>
	<path fill="#414042" d="M23.075,10.636c0.021-0.948,0.038-1.642,0.047-1.999c-3.006-0.261-4.794-2.648-5.437-3.687l-0.482,1.173
		c0.053,0.049,0.098,0.107,0.125,0.179C17.384,6.445,18.703,9.669,23.075,10.636z"/>
	<path fill="#414042" d="M23.052,11.65c-4.214-0.856-5.974-3.616-6.486-4.62L9.4,9.533C9.245,9.587,9.127,9.716,9.084,9.875
		c-0.043,0.158-0.005,0.33,0.102,0.455c0.023,0.028,2.551,2.777,2.848,10.792l-0.858,19.642c-0.006,0.142,0.048,0.279,0.15,0.379
		c0.116,0.114,2.949,2.775,11.892,2.808C22.548,38.751,22.884,19.447,23.052,11.65z M20.236,21.821h-4.833
		c-0.276,0-0.5-0.224-0.5-0.5s0.224-0.5,0.5-0.5h4.833c0.276,0,0.5,0.224,0.5,0.5S20.513,21.821,20.236,21.821z"/>
	<path fill="#414042" d="M38.066,10.335c0.105-0.122,0.147-0.289,0.109-0.446c-0.037-0.157-0.148-0.287-0.299-0.348l-6.918-2.779
		c-2.477,3.548-5.756,4.616-6.905,4.892c-0.166,7.809-0.503,27.416,0.168,32.27c1.772-0.128,8.789-0.774,11.532-3.179
		c0.113-0.099,0.176-0.244,0.17-0.395l-0.7-19.201C35.295,13.596,38.038,10.367,38.066,10.335z M31.236,21.821h-4.833
		c-0.276,0-0.5-0.224-0.5-0.5s0.224-0.5,0.5-0.5h4.833c0.276,0,0.5,0.224,0.5,0.5S31.513,21.821,31.236,21.821z"/>
</g>
</svg>
