<?xml version="1.0" encoding="utf-8"?>
<!-- Generator: Adobe Illustrator 16.0.0, SVG Export Plug-In . SVG Version: 6.00 Build 0)  -->
<!DOCTYPE svg PUBLIC "-//W3C//DTD SVG 1.1//EN" "http://www.w3.org/Graphics/SVG/1.1/DTD/svg11.dtd">
<svg version="1.1" id="Layer_1" xmlns="http://www.w3.org/2000/svg" xmlns:xlink="http://www.w3.org/1999/xlink" x="0px" y="0px"
	 width="48px" height="48px" viewBox="0 0 48 48" enable-background="new 0 0 48 48" xml:space="preserve">
<g>
	<path fill="#414042" d="M23.063,24.163c1.175-0.163,2.31-0.339,2.822-0.448l0.588-4.189c0-0.007,0.005-0.012,0.006-0.019
		c0.002-0.007-0.001-0.013,0-0.02l0.43-1.953c-0.895,0.456-1.836,1.628-2.187,2.144l-1.659,4.396V24.163z"/>
	<circle fill="#414042" cx="23.906" cy="14.408" r="0.274"/>
	<polygon fill="#414042" points="23.063,21.241 23.553,19.942 23.063,19.942 	"/>
	<path fill="#414042" d="M33.18,29.587c0,0-1.141-7.701-3.088-11.551c0,0,0.141-0.334-0.168-0.713c0,0-0.014-0.085-0.033-0.218
		l-0.221,0.081l0.869,9.935c0.016,0.184-0.07,0.36-0.223,0.461l-0.125,0.081c0.045,0.063,0.08,0.135,0.091,0.218
		c0.112,0.85,0.318,1.566,0.536,2.325c0.309,1.077,0.628,2.19,0.682,3.723c0.003,0.084,0.25,7.993,1.148,10.737l2.877-0.472
		C35.525,44.194,33.895,34.438,33.18,29.587z"/>
	<path fill="#414042" d="M24.178,8.478c0-0.149-0.122-0.271-0.272-0.271c-0.151,0-0.273,0.122-0.273,0.271
		C23.632,8.783,24.178,8.785,24.178,8.478z"/>
	<path fill="#414042" d="M29.517,26.912l-0.852-9.732c-0.265-0.084-0.504-0.03-0.661,0.025l-0.543,2.473l-1.08,9.236l1.177-0.708
		L29.517,26.912z"/>
	<path fill="#414042" d="M17.802,16.575c-0.094,0.392-0.209,1.018-0.246,1.873c0,0-0.089,0.113-0.263,0.494h6.722
		c0.313-0.436,1.028-1.351,1.903-1.969c-2.013-0.252-5.602-0.362-7.983-0.371C17.888,16.603,17.845,16.588,17.802,16.575z"/>
	<path fill="#414042" d="M26.296,16.027c0.521,0.077,0.964,0.166,1.265,0.273c0.244-0.099,0.646-0.206,1.102-0.142l0.88-0.493
		c0.083-0.046,0.173-0.058,0.261-0.055c0.001-0.007,0.001-0.018,0.002-0.024l0.785-4.443c0,0,0.523-1.844,0.76-2.008
		c0,0-0.949-3.936,0.334-7.072l-0.5-0.475l-2.527-0.451c0,0,0.176,0.859,0.049,1.449c0,0-0.262,1.428-0.57,1.785
		c-0.213,0.245-0.516,1.053-1.762,1.556c0.113,0.097,0.188,0.236,0.181,0.396C26.551,6.393,26.256,12.978,26.296,16.027z"/>
	<path fill="#414042" d="M26.024,30.3c-0.08,0.048-0.169,0.072-0.259,0.072c-0.095,0-0.188-0.026-0.271-0.079
		c-0.16-0.104-0.248-0.289-0.226-0.479l0.594-5.078c-0.747,0.147-1.913,0.315-2.799,0.437v4.318
		c-1.322,10.869-0.508,15.504-0.5,15.55c0.018,0.096-0.001,0.187-0.035,0.271c0.01,0.007,0.024,0.011,0.034,0.018v0.5
		c0,0,2.417,0.28,3.46,0.041c0.33-2.745,0.088-12.603,0.005-15.572L26.024,30.3z"/>
	<path fill="#414042" d="M22.065,25.232c-0.074-0.032-0.142-0.081-0.193-0.146c-0.109-0.138-0.138-0.322-0.076-0.487l0.269-0.711
		l-0.002-3.945h-2.507c-0.001,0.008,0.002,0.014,0.001,0.021l-0.855,5.705c-0.654,6.167-1.461,19.36-1.469,19.493
		c0,0.012-0.007,0.021-0.008,0.031c0.907,0.104,2.803,0.273,3.375-0.062c0,0,0.454-0.078,0.957-0.061
		c-0.133-0.859-0.718-5.559,0.511-15.641L22.065,25.232z"/>
	<path fill="#414042" d="M29.857,30.481c-0.201-0.698-0.398-1.43-0.525-2.257l-1.51,0.985l-0.811,0.491
		c0.057,1.89,0.342,12.058,0.059,15.755c0.507-0.1,1.193-0.212,1.387-0.137l3.25-0.314c-0.951-2.875-1.196-10.707-1.207-11.044
		C30.451,32.555,30.162,31.548,29.857,30.481z"/>
	<path fill="#414042" d="M18.548,19.942h-1.467c-0.063,0-0.121-0.015-0.176-0.035c-0.604,1.654-1.62,5.087-3.026,12.041
		c0,0-1.521,10.141-2.027,11.664c0,0,0.507,0.441,1.711,0.633c0.893,0.141,2.063,0.039,2.713,0.183
		c0.174-2.777,0.86-13.481,1.434-18.886L18.548,19.942z"/>
	<path fill="#414042" d="M16.636,8.909c0,0,0.413,0.918,0.729,3.391l0.499,3.317c0.024-0.004,0.047-0.015,0.073-0.015
		c0,0,0.001,0,0.001,0c0.544,0.002,1.931,0.014,3.504,0.067c0.152-2.146-0.017-9.535-0.019-9.612
		c-0.002-0.097,0.03-0.182,0.076-0.259c-1.048-0.54-1.489-1.286-1.489-1.286s-1.046-1.355-1.26-3.375l-1.804,0.545
		c0,0-0.642-0.238-1.069,0.381C15.877,2.063,17.494,3.489,16.636,8.909z"/>
	<path fill="#414042" d="M22.442,15.709c0.98,0.044,1.974,0.107,2.853,0.196c-0.031-3.139,0.257-9.559,0.26-9.626
		c0.002-0.039,0.018-0.074,0.027-0.11c-0.428,0.095-0.931,0.159-1.528,0.174c-0.629,0.016-1.159-0.072-1.628-0.201
		C22.446,7.052,22.586,13.566,22.442,15.709z M23.906,15.134c-0.401,0-0.728-0.326-0.728-0.727c0-0.399,0.326-0.725,0.728-0.725
		c0.4,0,0.727,0.325,0.727,0.725C24.632,14.808,24.306,15.134,23.906,15.134z M23.906,7.751c0.4,0,0.727,0.326,0.727,0.727
		c0,0.401-0.326,0.729-0.727,0.729c-0.401,0-0.728-0.327-0.728-0.729C23.178,8.077,23.504,7.751,23.906,7.751z M23.905,10.495
		c0.4,0,0.727,0.326,0.727,0.727c0,0.401-0.326,0.728-0.727,0.728c-0.401,0-0.728-0.326-0.728-0.728
		C23.177,10.821,23.503,10.495,23.905,10.495z"/>
	<path fill="#414042" d="M24.177,11.222c0-0.15-0.122-0.272-0.272-0.272c-0.151,0-0.273,0.122-0.273,0.272
		C23.631,11.521,24.177,11.523,24.177,11.222z"/>
</g>
</svg>
