<?xml version="1.0" encoding="utf-8"?>
<!-- Generator: Adobe Illustrator 16.0.0, SVG Export Plug-In . SVG Version: 6.00 Build 0)  -->
<!DOCTYPE svg PUBLIC "-//W3C//DTD SVG 1.1//EN" "http://www.w3.org/Graphics/SVG/1.1/DTD/svg11.dtd">
<svg version="1.1" id="Layer_1" xmlns="http://www.w3.org/2000/svg" xmlns:xlink="http://www.w3.org/1999/xlink" x="0px" y="0px"
	 width="48px" height="48px" viewBox="0 0 48 48" enable-background="new 0 0 48 48" xml:space="preserve">
<g>
	<path fill="#414042" d="M16.106,8.728c-0.015,0.095-0.001,0.193,0.037,0.281c0.004,0.009,0.392,0.914,0.692,3.262l0.554,3.684
		c-0.095,0.298-0.306,1.085-0.365,2.294l-1.315,3.713c0.063,0.042,0.119,0.095,0.158,0.165c0.023,0.041,2.359,4.076,4.371,3.072
		c1.409-0.703,2.244-0.139,2.917,0.314c0.707,0.478,1.265,0.853,2.673-0.048c1.471-0.939,2.563-0.805,3.443-0.695
		c1.099,0.136,1.825,0.225,3.156-1.873c0.056-0.089,0.139-0.146,0.229-0.184l-2.078-4.831c0.025-0.209,0.01-0.524-0.215-0.859
		c-0.094-0.624-0.143-1.272-0.102-1.452l0.773-4.394c0.207-0.732,0.511-1.628,0.563-1.733c0.17-0.118,0.25-0.328,0.201-0.528
		c-0.009-0.038-0.896-3.813,0.311-6.766c0.078-0.191,0.031-0.41-0.118-0.552l-0.5-0.475c-0.071-0.067-0.16-0.112-0.257-0.13
		l-2.525-0.451c-0.163-0.026-0.331,0.024-0.446,0.144c-0.116,0.118-0.165,0.286-0.132,0.449c0.04,0.196,0.135,0.846,0.047,1.258
		c-0.125,0.682-0.34,1.406-0.456,1.548c-0.054,0.062-0.112,0.149-0.183,0.257c-0.312,0.479-0.959,1.478-3.533,1.542L23.86,5.741
		c-2.463,0-3.418-1.523-3.49-1.637c-0.009-0.013-0.964-1.28-1.159-3.123c-0.016-0.148-0.097-0.281-0.221-0.364
		c-0.124-0.082-0.278-0.106-0.421-0.062l-1.672,0.505c-0.077-0.015-0.173-0.026-0.281-0.026c-0.479,0-0.901,0.228-1.187,0.642
		c-0.139,0.201-0.103,0.481,0.072,0.651C15.516,2.341,16.895,3.744,16.106,8.728z"/>
	<path fill="#414042" d="M11.267,36.772c0.027,0.021,0.053,0.044,0.075,0.069c0.003,0.004,0.802,0.841,2.874,0.841
		c1.478,0,1.879,0.152,2.461,0.422c0.304,0.141,0.648,0.3,1.389,0.475c1.271,0.297,2.216,0.197,3.217,0.092
		c0.488-0.052,0.992-0.105,1.523-0.105c0.474,0,0.737,0.031,0.96,0.059c0.463,0.055,0.719,0.086,3.083-0.403
		c1.354-0.28,2.039-0.36,2.539-0.419c0.732-0.086,0.953-0.112,2.43-0.736c1.159-0.49,2.73-0.403,4.117-0.323
		c0.983,0.058,2.168,0.122,2.614-0.129c0.061-0.186,0.095-0.392,0.099-0.618c0.054-3.29-1.728-5.456-2.438-6.188
		c-0.433,0.456-1.146,0.99-1.155,0.996c-0.888,0.626-1.739,0.695-2.562,0.763c-0.663,0.054-1.348,0.109-2.144,0.446
		c-1.169,0.494-1.427,0.541-2.065,0.616c-0.359,0.042-0.852,0.1-1.832,0.303c-1.841,0.381-2.129,0.372-2.599,0.315
		c-0.144-0.017-0.313-0.037-0.617-0.037c-0.361,0-0.704,0.037-1.052,0.074c-0.379,0.04-0.784,0.083-1.233,0.083
		c-0.444,0-0.931-0.042-1.478-0.171c-0.668-0.157-0.929-0.303-1.158-0.449c-0.131-0.085-0.219-0.141-1.099-0.141
		c-1.731,0-2.88-0.714-3.129-0.885l-0.191-0.087c-0.752-0.34-1.644-0.75-2.054-1.349c-0.87,0.877-2.119,2.396-2.422,4.021
		C9.634,34.956,10.587,36.257,11.267,36.772z"/>
	<path fill="#414042" d="M39.166,37.396c-0.698,0.481-1.913,0.422-3.287,0.344c-1.277-0.07-2.726-0.153-3.671,0.246
		c-1.608,0.68-1.906,0.715-2.703,0.809c-0.481,0.056-1.142,0.134-2.452,0.404c-2.421,0.503-2.793,0.491-3.405,0.417
		c-0.195-0.023-0.426-0.051-0.841-0.051c-0.478,0-0.935,0.049-1.417,0.1c-0.521,0.056-1.051,0.112-1.63,0.112
		c-0.578,0-1.206-0.057-1.923-0.226c-0.839-0.197-1.249-0.388-1.579-0.54c-0.444-0.205-0.713-0.329-2.042-0.329
		c-2.308,0-3.365-0.918-3.584-1.138c-0.53-0.414-1.338-1.347-1.83-2.224c-0.82,1.099-2.798,4.038-2.23,6.209
		c0.236,0.903,0.86,1.563,1.854,1.966c0.221,0.165,0.893,0.588,2.153,0.788c0.449,0.07,1.052,0.117,1.692,0.166
		c0.838,0.065,2.358,0.183,2.728,0.334v0.318c0,0.249,0.183,0.46,0.429,0.495c0.066,0.01,1.648,0.234,2.994,0.234
		c0.809,0,1.357-0.079,1.71-0.249c0.132-0.02,0.433-0.057,0.771-0.057c0.343,0,0.632,0.038,0.843,0.111v0.271
		c0,0.254,0.19,0.467,0.442,0.497c0.058,0.006,1.427,0.164,2.684,0.164c0.961,0,1.877-0.069,2.252-0.513
		c0.477-0.104,1.322-0.268,1.762-0.272c0.074,0.029,0.156,0.036,0.23,0.032l4.348-0.42c0.201-0.02,0.363-0.155,0.426-0.336
		l6.17-1.215c0.069-0.014,0.136-0.042,0.193-0.084c0.562-0.401,0.881-0.953,0.95-1.64C41.361,40.542,40.074,38.573,39.166,37.396z"
		/>
	<path fill="#414042" d="M12.613,29.63c0.076,0.361,1.211,0.875,1.695,1.094l0.238,0.108c0.032,0.015,0.062,0.032,0.089,0.054
		c0.008,0.006,1.004,0.721,2.581,0.721c1.068,0,1.309,0.087,1.64,0.299c0.129,0.083,0.29,0.187,0.846,0.318
		c0.934,0.219,1.634,0.145,2.376,0.066c0.383-0.041,0.761-0.08,1.158-0.08c0.362,0,0.564,0.023,0.735,0.044
		c0.325,0.038,0.52,0.063,2.279-0.301c1.022-0.212,1.54-0.273,1.918-0.317c0.537-0.063,0.699-0.082,1.792-0.545
		c0.943-0.398,1.744-0.464,2.451-0.521c0.783-0.063,1.402-0.114,2.066-0.582c0.303-0.215,1.021-0.834,1.131-1.007
		c0.102-0.158,0.283-0.244,0.463-0.237c-0.053-1.948-1.963-4.234-2.868-5.21c-1.636,2.521-2.864,2.378-4.056,2.229
		c-0.83-0.102-1.616-0.199-2.781,0.545c-0.82,0.525-1.474,0.713-2.015,0.713c-0.752,0-1.288-0.361-1.756-0.678
		c-0.618-0.418-1.026-0.693-1.911-0.249c-2.697,1.349-5.205-2.653-5.629-3.372c-0.596,0.868-2.773,4.243-2.531,6.716
		C12.566,29.493,12.598,29.558,12.613,29.63z"/>
</g>
</svg>
