<?xml version="1.0" encoding="utf-8"?>
<!-- Generator: Adobe Illustrator 16.0.0, SVG Export Plug-In . SVG Version: 6.00 Build 0)  -->
<!DOCTYPE svg PUBLIC "-//W3C//DTD SVG 1.1//EN" "http://www.w3.org/Graphics/SVG/1.1/DTD/svg11.dtd">
<svg version="1.1" id="Layer_1" xmlns="http://www.w3.org/2000/svg" xmlns:xlink="http://www.w3.org/1999/xlink" x="0px" y="0px"
	 width="48px" height="48px" viewBox="0 0 48 48" enable-background="new 0 0 48 48" xml:space="preserve">
<g>
	<rect x="24.499" y="6.898" fill="#414042" width="0.723" height="8.264"/>
	<path fill="#414042" d="M28.11,8.408c3.423-1.932,2.847-5.677,2.818-5.844c-0.007-0.042,0.001-0.081,0.004-0.121l-0.817-0.68
		c-0.144-0.12-0.342-0.148-0.516-0.075c-0.173,0.074-0.289,0.238-0.303,0.426c-0.024,0.359-0.153,1.418-0.441,1.991
		c-0.305,0.604-1.493,1.397-3.189,1.783c0.5,0.044,0.946,0.211,1.325,0.519C27.666,6.957,27.972,7.804,28.11,8.408z"/>
	<path fill="#414042" d="M21.095,8.429c0.156-0.666,0.504-1.651,1.244-2.19c0.344-0.249,0.744-0.372,1.173-0.38
		c-1.251-0.254-2.44-0.801-2.832-1.139c-0.452-0.387-1.491-2.229-2.041-3.298c-0.078-0.152-0.229-0.254-0.399-0.27
		c-0.165-0.01-0.338,0.058-0.441,0.193c-0.005,0.007-0.278,0.362-0.603,0.764C17.299,2.7,18.116,6.79,21.095,8.429z"/>
	<path fill="#414042" d="M36.368,18.39c0.031,0.012,0.064,0.021,0.098,0.026c2.048,0.322,4.564-0.517,5.233-1.33
		c0.218-0.264,0.229-0.5,0.198-0.653c-0.093-0.463-1.979-8.804-2.386-10.435c-0.466-1.868-3.039-2.564-4.552-2.564
		c-0.955,0-2.373-0.171-2.991-0.251c0.018,1.507-0.388,4.812-4.044,6.437c-0.064,0.028-0.134,0.043-0.202,0.043
		c-0.091,0-0.182-0.025-0.262-0.074c-0.14-0.085-0.229-0.234-0.238-0.398c-0.001-0.014-0.087-1.378-0.865-2.009
		c-0.042-0.034-0.091-0.058-0.136-0.086v8.567c0,0.276-0.224,0.5-0.5,0.5h-1.723c-0.276,0-0.5-0.224-0.5-0.5V6.867
		c-0.21,0.012-0.404,0.059-0.571,0.18c-0.666,0.484-0.916,1.724-0.956,2.161c-0.015,0.157-0.103,0.299-0.238,0.381
		c-0.079,0.049-0.169,0.073-0.26,0.073c-0.063,0-0.128-0.012-0.188-0.037c-3.254-1.321-4.494-4.89-4.909-6.563
		c-0.006,0.007-0.014,0.016-0.02,0.021C16.12,3.317,15.73,3.35,15.062,3.387c-0.218,0.012-0.448,0.025-0.69,0.05
		c-1.098,0.11-2.366,0.556-3.574,1.255C9.466,5.471,8.724,6.259,8.392,7.25c-0.019,0.056-1.859,5.729-2.3,8.814
		c-0.024,0.169,0.04,0.339,0.17,0.45c0.756,0.647,2.21,0.977,4.321,0.977c0.819,0,1.448-0.052,1.578-0.063
		c-0.113,1.088-0.146,3.432,1.298,5.321c0.014,0.022,1.327,2.292,0.585,4.37c-0.136,0.38-0.344,0.838-0.588,1.376
		c-1.219,2.688-3.486,7.692-2.103,15.114c0.03,0.166,0.144,0.305,0.3,0.37c0.193,0.08,4.833,1.973,12.354,1.973
		c4.336,0,8.744-0.637,13.103-1.894c0.191-0.056,0.331-0.219,0.357-0.416c1.286-9.893-2.178-15.397-2.296-15.573
		c-0.468-0.97-1.487-3.757-0.605-4.991c1.66-2.324,1.561-4.716,1.555-4.758c0-0.007,0.001-0.015,0.001-0.022L36.368,18.39z"/>
</g>
</svg>
