<?xml version="1.0" encoding="utf-8"?>
<!-- Generator: Adobe Illustrator 16.0.0, SVG Export Plug-In . SVG Version: 6.00 Build 0)  -->
<!DOCTYPE svg PUBLIC "-//W3C//DTD SVG 1.1//EN" "http://www.w3.org/Graphics/SVG/1.1/DTD/svg11.dtd">
<svg version="1.1" id="Layer_1" xmlns="http://www.w3.org/2000/svg" xmlns:xlink="http://www.w3.org/1999/xlink" x="0px" y="0px"
	 width="48px" height="48px" viewBox="0 0 48 48" enable-background="new 0 0 48 48" xml:space="preserve">
<g>
	<path fill="#414042" d="M27.34,6.639c0,0-3.092,2.285-6.338,0.08c0,0-0.669,11.561,3.437,15.453
		C24.438,22.172,28.023,14.406,27.34,6.639z"/>
	<path fill="#414042" d="M20.28,5.854l-0.955,0.955l-0.033,0.01c-2.302,3.629-1.866,6.053-1.861,6.078
		c0.052,0.266-0.115,0.527-0.379,0.586l-0.951,0.217c0.657,1.742,3.105,7.471,7.826,10.656c0.091-0.531,0.154-0.836,0.154-0.836
		C18.958,17.309,20.28,5.854,20.28,5.854z"/>
	<path fill="#414042" d="M23.563,25.324c-6.02-3.926-8.496-11.514-8.599-11.834c-0.042-0.135-0.027-0.279,0.042-0.4
		s0.187-0.209,0.323-0.24l1.068-0.242c-0.043-0.861,0.075-2.791,1.49-5.381l-7.826,2.279l-8.6,20.748c0,0,1.5,3.707,5.646,3.037
		l5.76-14.762c0,0,3.079,6.762-1.255,18.346c0,0,6.61,4.828,11.081,4.188l0.287-0.076c0,0,0.842-0.787,0.609-2.551
		c-0.709-5.381-0.206-10.434,0.174-13.051C23.695,25.375,23.625,25.365,23.563,25.324z"/>
	<path fill="#414042" d="M24.981,23.801c-0.004,0.01-0.006,0.023-0.01,0.035c3.977-3.223,6.502-8.461,7.242-10.145l-0.919-0.209
		c-0.134-0.029-0.249-0.113-0.319-0.232c-0.069-0.117-0.088-0.26-0.05-0.393c0.006-0.02,0.636-2.49-1.756-6.18
		c-0.007-0.012-0.008-0.023-0.014-0.035l-0.79-0.789C29.116,13.977,24.981,23.801,24.981,23.801z"/>
	<path fill="#414042" d="M38.245,9.506l-7.601-2.297c1.396,2.586,1.427,4.523,1.333,5.404l1.04,0.236
		c0.142,0.033,0.263,0.125,0.33,0.254c0.068,0.129,0.077,0.279,0.024,0.416c-0.126,0.322-3.146,7.939-8.698,11.797
		c-0.017,0.012-0.037,0.008-0.056,0.018c-0.68,3.756-0.521,9.387-0.521,9.387c0.005,6.006,1.863,6.467,1.863,6.467
		c3.716,0.646,10.204-3.873,10.204-3.873c-3.533-9.717-0.487-18.035-0.487-18.035l5.861,14.012c3.893,0.053,5.305-3.037,5.305-3.037
		L38.245,9.506z M25.135,33.242c-0.391,0-0.708-0.318-0.708-0.709s0.317-0.707,0.708-0.707s0.708,0.316,0.708,0.707
		S25.525,33.242,25.135,33.242z M25.587,26.93c-0.391,0-0.708-0.316-0.708-0.707s0.317-0.709,0.708-0.709s0.708,0.318,0.708,0.709
		S25.978,26.93,25.587,26.93z"/>
</g>
</svg>
