<?xml version="1.0" encoding="utf-8"?>
<!-- Generator: Adobe Illustrator 16.0.0, SVG Export Plug-In . SVG Version: 6.00 Build 0)  -->
<!DOCTYPE svg PUBLIC "-//W3C//DTD SVG 1.1//EN" "http://www.w3.org/Graphics/SVG/1.1/DTD/svg11.dtd">
<svg version="1.1" id="Layer_1" xmlns="http://www.w3.org/2000/svg" xmlns:xlink="http://www.w3.org/1999/xlink" x="0px" y="0px"
	 width="48px" height="48px" viewBox="0 0 48 48" enable-background="new 0 0 48 48" xml:space="preserve">
<g>
	<path fill="#414042" d="M17.929,6.458c0.046,0.012,0.095,0.012,0.144,0.01c0.038-0.004,3.777-0.394,7.229-0.394
		c2.005,0,3.514,0.129,4.484,0.382c0.035,0.01,0.071,0.014,0.107,0.014c0.003,0,0.006,0,0.009,0c0.269-0.005,0.792-0.145,1.054-0.63
		c0.344-0.64,0.114-1.58-0.703-2.873l-0.358-0.574c-0.047-0.075-0.115-0.134-0.197-0.167c-1.506-0.624-3.368-0.94-5.532-0.94
		c-2.832,0-5.152,0.539-5.25,0.562c-0.067,0.017-0.131,0.049-0.183,0.095c-0.397,0.351-2.361,2.164-2.034,3.49
		C16.785,5.785,17.069,6.25,17.929,6.458z"/>
	<path fill="#414042" d="M8.516,42.172l-4.559-1.274c-0.037-0.011-0.079-0.016-0.117-0.016c-0.419,0-0.789,0.16-1.07,0.464
		c-0.777,0.841-0.669,2.546-0.654,2.738c0.011,0.137,0.088,0.261,0.206,0.331c0.096,0.058,2.379,1.403,4.428,1.403
		c0.35,0,0.678-0.04,0.975-0.118c0.087-0.022,0.164-0.072,0.221-0.142c0.149-0.183,1.44-1.82,0.844-3.152
		C8.737,42.292,8.637,42.205,8.516,42.172z"/>
	<path fill="#414042" d="M33.988,20.026c3.175,13.619,4.639,19.047,5.357,21.235c0.144-0.111,0.306-0.2,0.485-0.249l4.55-1.272
		c0.127-0.036,0.258-0.055,0.392-0.055c0.03,0,0.058,0.008,0.087,0.009c-0.883-3.526-3.407-13.513-5.978-23.681
		c-0.978-3.865-1.7-6.726-1.799-7.117c-0.395-1.585-2.577-2.175-3.86-2.175c-0.379,0-0.893-0.198-1.376-0.439
		c-0.005,0.011-0.006,0.021-0.012,0.032c-0.45,0.835-1.313,1.145-1.942,1.155c-0.129,0-0.255-0.017-0.359-0.046
		c-0.612-0.159-1.843-0.35-4.232-0.35c-3.328,0-6.971,0.372-7.127,0.389l-0.03,0.003l-0.031,0.001L18.05,7.469h-0.02
		c-0.125,0-0.239-0.014-0.337-0.039c-0.761-0.185-1.229-0.531-1.525-0.892C16.03,6.634,15.892,6.71,15.76,6.724
		c-0.93,0.093-2.006,0.471-3.031,1.064c-1.129,0.661-1.758,1.329-2.042,2.17c-0.296,0.904-5.71,23.847-6.999,29.939
		c0.051-0.003,0.101-0.016,0.152-0.016c0.134,0,0.271,0.02,0.387,0.053l4.554,1.272c0.112,0.031,0.218,0.077,0.316,0.133
		l4.87-21.594c0.146,0.771,0.445,1.607,1.019,2.358c0.012,0.02,1.127,1.943,0.496,3.707c-0.115,0.323-0.292,0.711-0.499,1.168
		c-1.033,2.28-2.956,6.525-1.783,12.818c0.026,0.141,0.122,0.259,0.254,0.313c0.091,0.036,9.088,3.674,21.595,0.067
		c0.162-0.047,0.281-0.186,0.304-0.353c1.089-8.391-1.847-13.061-1.947-13.21c-0.397-0.821-1.265-3.185-0.515-4.234
		C33.479,21.558,33.807,20.722,33.988,20.026z"/>
	<path fill="#414042" d="M45.847,41.149c-0.281-0.304-0.651-0.464-1.074-0.464c-0.038,0-0.076,0.005-0.113,0.016l-4.559,1.274
		c-0.121,0.033-0.222,0.12-0.272,0.234c-0.597,1.332,0.694,2.97,0.844,3.152c0.057,0.069,0.134,0.119,0.221,0.142
		c0.297,0.078,0.625,0.118,0.975,0.118c2.049,0,4.332-1.346,4.428-1.403c0.118-0.07,0.195-0.194,0.206-0.331
		C46.516,43.695,46.624,41.99,45.847,41.149z"/>
</g>
</svg>
