<?xml version="1.0" encoding="utf-8"?>
<!-- Generator: Adobe Illustrator 16.0.0, SVG Export Plug-In . SVG Version: 6.00 Build 0)  -->
<!DOCTYPE svg PUBLIC "-//W3C//DTD SVG 1.1//EN" "http://www.w3.org/Graphics/SVG/1.1/DTD/svg11.dtd">
<svg version="1.1" id="Layer_1" xmlns="http://www.w3.org/2000/svg" xmlns:xlink="http://www.w3.org/1999/xlink" x="0px" y="0px"
	 width="48px" height="48px" viewBox="0 0 48 48" enable-background="new 0 0 48 48" xml:space="preserve">
<path fill="#414042" d="M32.244,33.647c-0.221-3.045,1.406-8.035,1.411-8.052c1.365-3.333,1.59-5.772,1.599-5.883
	c0.063-0.885-0.525-1.475-0.895-1.69c-3.665-2.017-3.218-9.409-3.212-9.51c0.034-2.563-0.357-4.102-1.196-4.705
	c-0.352-0.252-0.725-0.289-0.975-0.23c-0.675,0.015-1.257,0.305-1.688,0.841c-2.01,2.503-0.488,10.14-0.131,11.783
	c-0.324,0.396-1.326,1.414-3.054,1.414c-1.332,0-2.176-0.609-2.622-1.064c0.5-2.015,2.694-11.688-0.926-12.755
	c-0.386-0.112-0.768-0.054-1.109,0.175c-1.312,0.876-1.73,4.226-1.8,4.886c-0.112,1.004-0.738,3.915-0.743,3.936
	c-0.812,3.458-3.133,5.413-3.123,5.413c-0.804,0.468-0.816,1.404-0.705,1.841c0.412,2.581,1.33,4.667,1.343,4.683
	c0.015,0.054,1.464,5.486,0.686,9.318c-0.787,3.886-2.551,7.604-2.568,7.642l-0.263,0.55l0.59,0.15
	c5.645,1.438,9.971,1.9,13.203,1.9c5.637,0,7.942-1.407,8.088-1.5l0.334-0.213l-0.131-0.373
	C34.342,42.148,32.469,36.731,32.244,33.647z M20.543,15.033c-0.008-0.02-0.802-2.006-0.802-3.73
	c0.001-0.039,0.113-3.956,0.457-5.196c0.121-0.448,0.277-0.914,0.396-1.198c1.601,1.102,1.028,6.5,0.138,10.478L20.543,15.033z
	 M29.117,9.11c-0.396,2.83-0.867,4.576-1.232,5.607c-0.545-3.027-1.113-8.058,0.184-9.674c0.236-0.293,0.513-0.442,0.866-0.465
	c0.154,0.126,0.298,0.596,0.324,0.959l0.012,0.163l0.051,0.061C29.357,5.925,29.459,6.671,29.117,9.11z"/>
</svg>
