<?xml version="1.0" encoding="utf-8"?>
<!-- Generator: Adobe Illustrator 16.0.0, SVG Export Plug-In . SVG Version: 6.00 Build 0)  -->
<!DOCTYPE svg PUBLIC "-//W3C//DTD SVG 1.1//EN" "http://www.w3.org/Graphics/SVG/1.1/DTD/svg11.dtd">
<svg version="1.1" id="Layer_1" xmlns="http://www.w3.org/2000/svg" xmlns:xlink="http://www.w3.org/1999/xlink" x="0px" y="0px"
	 width="48px" height="48px" viewBox="0 0 48 48" enable-background="new 0 0 48 48" xml:space="preserve">
<g>
	<path fill="#414042" d="M31.511,3.33c-0.093-0.201-0.178-0.404-0.28-0.602l-0.433-1.734c0,0-1.592,1.671-6.564,2.091
		c0.001,0.009,0.005,0.016,0.005,0.024v2.688c0.004,0.04,0.014,0.136,0.028,0.277C26.802,5.624,30.586,4.57,31.511,3.33z
		 M25.526,5.307c-0.276,0-0.568-0.292-0.568-0.568s0.292-0.566,0.568-0.566s0.568,0.29,0.568,0.566S25.803,5.307,25.526,5.307z"/>
	<path fill="#414042" d="M29.271,5.861c0.006,0.026,0.603,2.624,2.033,3.369c0.48,0.25,1,0.255,1.59,0.011
		c0.046-0.019,0.093-0.022,0.14-0.027c-0.162-1.579-0.496-3.261-1.104-4.88c-0.645,0.581-1.626,1.067-2.688,1.464
		C29.25,5.819,29.265,5.838,29.271,5.861z"/>
	<path fill="#414042" d="M24.357,7.074c0.109,1.267,0.253,3.235,0.272,4.954c0.293-0.074,0.535-0.221,0.722-0.456
		c0.88-1.106,0.522-3.723,0.311-4.638c-0.009-0.04-0.004-0.078-0.003-0.117C25.111,6.936,24.661,7.021,24.357,7.074z"/>
	<path fill="#414042" d="M33.283,23.715c0,0-0.834-3.5-0.453-7.451c0,0,0.494-2.665,0.285-6.047
		c-0.358,0.129-0.709,0.205-1.048,0.205c-0.427,0-0.837-0.103-1.228-0.306c-1.756-0.917-2.45-3.633-2.536-3.995
		c-0.588,0.186-1.171,0.347-1.716,0.48c0.018,0.035,0.04,0.068,0.049,0.108c0.035,0.153,0.854,3.778-0.502,5.484
		c-0.382,0.48-0.893,0.758-1.51,0.85c-0.016,0.61-0.054,1.154-0.127,1.568c-0.018,0.104-0.071,0.19-0.141,0.261
		c0.636,1.846,1.97,6.154,2.539,11.273c0,0,1.445,5.398,1.599,9.656c0,0-0.076,7.832,1.368,8.82c0,0,2.744,0.951,5.627-1.066
		C35.49,43.557,35.871,29.875,33.283,23.715z"/>
	<path fill="#414042" d="M19.825,6.452c-0.171,0.585-0.924,2.837-2.583,3.675c-0.42,0.213-0.861,0.319-1.32,0.319
		c-0.306,0-0.621-0.064-0.941-0.159c-0.139,1.662-0.181,3.647-0.045,6.053c0,0,0.639,5.17-0.086,7.4c0,0-0.84,1.951-0.915,4.916
		c0,0-1.065,3.611-0.95,6.158c0,0-0.762,3.498-0.496,8.631c0,0,1.702,1.795,5.894,1.178c0,0,0.209-0.478,0.292-1.894
		c0,0,0.177-1.028,0.621-7.687l1.443-8.363c0,0,2.122-8.272,2.797-12.428c0.237-1.68-0.019-5.281-0.183-7.17
		C21.928,6.94,20.763,6.72,19.825,6.452z"/>
	<path fill="#414042" d="M23.238,6.066V3.109c0-0.014,0.007-0.024,0.008-0.037c-1.284-0.105-3.963-0.51-5.422-2.078l-0.66,1.863
		c0,0-0.166,0.164-0.407,0.555c0.013,0.024,0.031,0.045,0.04,0.072C16.82,3.545,17.645,5.465,23.238,6.066z"/>
	<path fill="#414042" d="M16.792,9.234c1.182-0.597,1.882-2.369,2.081-3.091c-1.489-0.558-2.248-1.212-2.639-1.696
		c-0.425,0.995-0.886,2.542-1.154,4.829C15.71,9.505,16.271,9.498,16.792,9.234z"/>
</g>
</svg>
