<?xml version="1.0" encoding="utf-8"?>
<!-- Generator: Adobe Illustrator 16.0.0, SVG Export Plug-In . SVG Version: 6.00 Build 0)  -->
<!DOCTYPE svg PUBLIC "-//W3C//DTD SVG 1.1//EN" "http://www.w3.org/Graphics/SVG/1.1/DTD/svg11.dtd">
<svg version="1.1" id="Layer_1" xmlns="http://www.w3.org/2000/svg" xmlns:xlink="http://www.w3.org/1999/xlink" x="0px" y="0px"
	 width="48px" height="48px" viewBox="0 0 48 48" enable-background="new 0 0 48 48" xml:space="preserve">
<g>
	<polygon fill="#414042" points="18.098,3.936 18.102,3.938 18.102,3.936 	"/>
	<path fill="#414042" d="M32.525,24.752c0,0-0.766-3.205-0.416-6.826c0,0,1.322-7.035-1.465-12.398l-0.396-1.592
		c0,0-1.502,1.592-6.254,1.939c-0.471,0-4.091-0.002-5.892-1.937l-0.398,1.589c-2.786,5.363-1.462,12.398-1.462,12.398
		c0.349,3.621-0.419,6.826-0.419,6.826c-2.367,5.643-2.019,18.178-2.019,18.178l0.026-0.016l5.309,0.992
		c0.703-1.773,0.788-8.08,0.788-8.08c0.14-3.9,1.462-8.846,1.462-8.846c0.697-6.27,2.517-11.15,2.517-11.15l0.176-0.008
		c0,0,1.897,4.889,2.592,11.158c0,0,1.324,4.945,1.463,8.846c0,0,0.172,6.043,0.945,8.08l5.465-0.977
		C34.547,42.93,34.895,30.395,32.525,24.752z"/>
</g>
</svg>
