<?xml version="1.0" encoding="utf-8"?>
<!-- Generator: Adobe Illustrator 16.0.0, SVG Export Plug-In . SVG Version: 6.00 Build 0)  -->
<!DOCTYPE svg PUBLIC "-//W3C//DTD SVG 1.1//EN" "http://www.w3.org/Graphics/SVG/1.1/DTD/svg11.dtd">
<svg version="1.1" id="Layer_1" xmlns="http://www.w3.org/2000/svg" xmlns:xlink="http://www.w3.org/1999/xlink" x="0px" y="0px"
	 width="48px" height="48px" viewBox="0 0 48 48" enable-background="new 0 0 48 48" xml:space="preserve">
<path fill="#414042" d="M37.813,18.076c-1.246-7.543-5.26-11.211-5.26-11.211c-10.243,4.982-17.37,0-17.37,0
	C12.79,9.004,9.58,19.418,9.58,19.418c-1.858,6.836-8.108,12.461-8.108,12.461c2.575,2.997,6.787,4.136,8.666,4.512
	c2.759-5.193,6.488-17.159,6.525-17.281c0.082-0.263,0.359-0.412,0.626-0.329c0.264,0.082,0.411,0.362,0.329,0.626
	c-0.158,0.508-3.894,12.498-6.71,17.666c0,0.001-0.001,0.001-0.001,0.002c-0.268,0.548-0.579,0.622-0.579,0.622
	c3.252-0.83,7.208,2.941,7.208,2.941c3.46,0.761,5.952,0,5.952,0c1.245-0.831,3.805-0.554,3.805-0.554c1.246,1.245,4.291,0,4.291,0
	c1.385-1.454,4.881-2.075,4.881-2.075c-0.08-0.105-0.125-0.216-0.156-0.326c-0.009-0.008-0.021-0.012-0.028-0.021
	c-3.805-4.344-6.995-19.594-7.13-20.24c-0.056-0.271,0.118-0.535,0.389-0.591c0.266-0.065,0.535,0.117,0.591,0.388
	c0.031,0.152,3.12,14.909,6.646,19.467c4.498-0.035,8.512-4.561,8.512-4.561C39.889,30.74,37.813,18.076,37.813,18.076z"/>
</svg>
