<?xml version="1.0" encoding="utf-8"?>
<!-- Generator: Adobe Illustrator 16.0.0, SVG Export Plug-In . SVG Version: 6.00 Build 0)  -->
<!DOCTYPE svg PUBLIC "-//W3C//DTD SVG 1.1//EN" "http://www.w3.org/Graphics/SVG/1.1/DTD/svg11.dtd">
<svg version="1.1" id="Layer_1" xmlns="http://www.w3.org/2000/svg" xmlns:xlink="http://www.w3.org/1999/xlink" x="0px" y="0px"
	 width="48px" height="48px" viewBox="0 0 48 48" enable-background="new 0 0 48 48" xml:space="preserve">
<g>
	<path fill="#414042" d="M15.042,13.334l0.502-1.287c0,0,0,0.573-0.07,1.287c-0.07,0.716,1.061,2.098,1.569,2.947
		c0.262,0.438,1.011,2.672,0.936,3.947c0.023,0.011,0.049,0.015,0.071,0.03c0.2,0.138,5.212,3.438,12.254-0.158
		c0.011-0.006,0.017-0.002,0.027-0.006c0.017-0.861,0.154-1.645,0.216-2.045c0.165-1.069,0.785-2.431,1.071-2.928
		c0.061-0.107,0.31-0.414,0.336-0.81c0.027-0.396-0.126-0.875-0.135-0.996c-0.067-1.014,0.229,0.52,0.229,0.52s0,0,0.57,0.214
		c1.787,0.284,3.571-0.644,3.501-1.001c-0.071-0.357-1.43-6.358-1.714-7.499c-0.286-1.146-2.001-1.574-2.929-1.574
		c-0.931,0-2.431-0.215-2.431-0.215l-1.288-1.07c0,0-0.069,1.001-0.355,1.571c-0.287,0.57-1.288,1.213-2.643,1.499
		c-1.357,0.287-3.303-0.515-3.802-0.945c-0.501-0.429-1.556-2.483-1.556-2.483s-0.714,0.93-1.07,1.287
		c-0.361,0.356-0.93,0.285-1.648,0.356c-0.713,0.071-1.566,0.358-2.426,0.856c-0.859,0.502-1.356,0.999-1.574,1.645
		c-0.211,0.642-1.355,4.286-1.641,6.286C12.043,13.619,15.042,13.334,15.042,13.334z M23.974,10.725c0.276,0,0.545,0.27,0.545,0.546
		s-0.269,0.545-0.545,0.545s-0.545-0.269-0.545-0.545S23.697,10.725,23.974,10.725z M23.974,15.767c0.276,0,0.545,0.269,0.545,0.545
		s-0.269,0.545-0.545,0.545s-0.545-0.269-0.545-0.545S23.697,15.767,23.974,15.767z"/>
	<path fill="#414042" d="M33.978,29.104c-0.796-4.818-3.028-7.436-3.524-7.968c-2.537,1.228-4.813,1.64-6.722,1.64
		c-3.467,0-5.709-1.341-6.156-1.633c-1.712,1.738-3.93,8.927-3.93,8.927c-1.339,4.923-5.84,8.975-5.84,8.975
		c2.441,2.841,6.297,2.053,6.297,2.053c2.64,2.941,6.631,1.689,6.631,1.689c1.83,1.409,7.075,0.165,7.075,0.165
		c2.413,1.418,5.198-0.238,5.617-0.888c3.181,1.651,5.935-2.843,5.935-2.843C35.473,38.224,33.978,29.104,33.978,29.104z"/>
</g>
</svg>
