<?xml version="1.0" encoding="utf-8"?>
<!-- Generator: Adobe Illustrator 16.0.0, SVG Export Plug-In . SVG Version: 6.00 Build 0)  -->
<!DOCTYPE svg PUBLIC "-//W3C//DTD SVG 1.1//EN" "http://www.w3.org/Graphics/SVG/1.1/DTD/svg11.dtd">
<svg version="1.1" id="Layer_1" xmlns="http://www.w3.org/2000/svg" xmlns:xlink="http://www.w3.org/1999/xlink" x="0px" y="0px"
	 width="48px" height="48px" viewBox="0 0 48 48" enable-background="new 0 0 48 48" xml:space="preserve">
<g>
	<path fill="#414042" d="M26.191,16.709c0,0,2.249,1.707,5.093,2.051l0.446,0.063c3.271-2.813,3.828-8.343,3.828-8.343
		C35.369,0.35,24.507,1.802,24.507,1.802c-12.139,0.574-7.698,13.24-7.698,13.24c3.438,8.569,13.336,10.188,13.336,10.188
		c2.352-2.093,2.097-5.241,2.097-5.241c-11.635-2.01-10.683-9.196-10.683-9.196c-0.216-5.027,3.625-4.75,3.625-4.75
		c5.25-0.688,5.063,4.188,5.063,4.188C30.469,12.896,27.731,15.534,26.191,16.709z"/>
	<path fill="#414042" d="M29.71,37.75c-0.004-0.04-0.021-0.074-0.033-0.11h0.001c0,0-1.568-7.284-1.496-11.88l-0.709-0.271
		c-2.055-0.542-5.229-2.291-5.229-2.291s-5.115,5.179-3.371,17.053c-0.046,0.073-0.08,0.153-0.083,0.245
		c-0.035,1.057-0.106,4.569,0.443,5.394c0.097,0.145,0.254,0.222,0.414,0.222c0.096,0,0.191-0.027,0.277-0.084
		c0.229-0.151,0.292-0.463,0.141-0.692c-0.248-0.377-0.343-2.789-0.275-4.806c0-0.006-0.003-0.011-0.003-0.017h1.497
		c0,0.017-0.007,0.032-0.005,0.05c0.073,0.746,0.471,4.51,1.017,5.327c0.097,0.145,0.255,0.223,0.416,0.223
		c0.096,0,0.192-0.027,0.277-0.084c0.229-0.153,0.292-0.464,0.139-0.693c-0.271-0.404-0.642-2.759-0.849-4.822h3.308
		c0.096,0.944,0.48,4.43,1.003,5.214c0.097,0.145,0.255,0.223,0.416,0.223c0.096,0,0.192-0.027,0.277-0.084
		c0.229-0.153,0.292-0.464,0.139-0.693c-0.271-0.407-0.646-2.797-0.851-4.871c-0.006-0.063-0.026-0.118-0.053-0.17v-2.347
		l2.212-0.102c-0.013,0.054-0.022,0.109-0.017,0.167c0.074,0.746,0.471,4.51,1.015,5.326c0.096,0.146,0.255,0.224,0.416,0.224
		c0.096,0,0.191-0.027,0.276-0.084c0.23-0.152,0.293-0.463,0.14-0.692C30.29,42.215,29.915,39.825,29.71,37.75z"/>
</g>
</svg>
