<?xml version="1.0" encoding="utf-8"?>
<!-- Generator: Adobe Illustrator 16.0.0, SVG Export Plug-In . SVG Version: 6.00 Build 0)  -->
<!DOCTYPE svg PUBLIC "-//W3C//DTD SVG 1.1//EN" "http://www.w3.org/Graphics/SVG/1.1/DTD/svg11.dtd">
<svg version="1.1" id="Layer_1" xmlns="http://www.w3.org/2000/svg" xmlns:xlink="http://www.w3.org/1999/xlink" x="0px" y="0px"
	 width="48px" height="48px" viewBox="0 0 48 48" enable-background="new 0 0 48 48" xml:space="preserve">
<path fill="#414042" d="M32.1,21.533l0.162,0.265c0.844,1.964,1.404,3.775,1.445,3.91c0.07,0.234-0.045,0.475-0.256,0.582
	c-0.025,0.014-0.047,0.033-0.076,0.041c-0.049,0.016-0.1,0.022-0.146,0.022c-0.215,0-0.412-0.139-0.479-0.354
	c-0.002-0.003-0.01-0.031-0.025-0.078c-0.006-0.02-0.012-0.04-0.021-0.067c-0.016-0.051-0.035-0.11-0.061-0.187
	c-0.006-0.018-0.01-0.033-0.018-0.053c-0.428-1.309-1.951-5.697-3.643-7.471c-0.084-0.11-0.881-1.223-3.049-1.502
	c-0.016-0.003-2.547-0.266-5.657,0.943c-0.256,0.101-0.547-0.026-0.647-0.284c-0.101-0.257,0.027-0.547,0.284-0.647
	c0.952-0.369,1.847-0.609,2.646-0.766c-2.845-0.572-4.552,0.646-4.571,0.66c-1.975,1.083-2.315,2.41-2.329,2.467
	c-0.973,2.38-0.911,8.597-0.875,10.277v0.001c0.002,0.11,0.004,0.196,0.006,0.265c0.001,0.021,0.001,0.042,0.002,0.06
	c0.002,0.064,0.003,0.102,0.003,0.106c0.009,0.276-0.207,0.508-0.482,0.518c-0.006,0-0.012,0-0.018,0c-0.269,0-0.49-0.213-0.5-0.482
	c-0.006-0.172-0.075-2.356,0.021-4.82l-0.071,0.012l-0.018-0.037c-5.48,1.717-9.01,3.715-8.739,5.234
	c0.407,2.282,9.245,2.62,19.74,0.752c10.495-1.869,18.672-5.235,18.266-7.519C42.709,21.784,38.307,21.14,32.1,21.533z"/>
</svg>
