<?xml version="1.0" encoding="utf-8"?>
<!-- Generator: Adobe Illustrator 16.0.0, SVG Export Plug-In . SVG Version: 6.00 Build 0)  -->
<!DOCTYPE svg PUBLIC "-//W3C//DTD SVG 1.1//EN" "http://www.w3.org/Graphics/SVG/1.1/DTD/svg11.dtd">
<svg version="1.1" id="Layer_1" xmlns="http://www.w3.org/2000/svg" xmlns:xlink="http://www.w3.org/1999/xlink" x="0px" y="0px"
	 width="48px" height="48px" viewBox="0 0 48 48" enable-background="new 0 0 48 48" xml:space="preserve">
<g>
	<path fill="#414042" d="M24.189,5.202c0.043,0,4.458-0.072,6.161-2.953c-1.687-0.687-3.759-1.038-6.168-1.038
		c-3.186,0-5.796,0.606-5.905,0.633c-0.014,0.003-0.025,0.012-0.038,0.017c0.002,0.015,0.01,0.026,0.011,0.042
		C18.26,2.05,18.526,5.202,24.189,5.202z"/>
	<path fill="#414042" d="M36.567,19.069c0.031,0.012,0.064,0.021,0.098,0.026c2.051,0.324,4.563-0.517,5.231-1.33
		c0.218-0.264,0.229-0.5,0.198-0.653c-0.096-0.479-1.988-8.845-2.386-10.435c-0.466-1.868-3.039-2.564-4.552-2.564
		c-1.033,0-2.626-0.202-3.139-0.271L31.11,2.924c-2.043,3.208-6.712,3.277-6.919,3.278c-4.873,0-6.324-2.238-6.756-3.467
		c-0.299,0.372-0.651,0.796-0.882,1.027c-0.236,0.234-0.627,0.267-1.296,0.304c-0.218,0.012-0.447,0.025-0.689,0.05
		c-1.098,0.11-2.366,0.556-3.574,1.255C9.663,6.15,8.921,6.938,8.589,7.929c-0.019,0.057-1.86,5.739-2.3,8.815
		c-0.024,0.169,0.04,0.339,0.17,0.45c0.756,0.647,2.209,0.977,4.321,0.977c0.818,0,1.448-0.052,1.578-0.063
		c-0.113,1.088-0.146,3.431,1.298,5.321c0.014,0.022,1.327,2.292,0.585,4.37c-0.136,0.38-0.344,0.838-0.588,1.376
		c-1.219,2.688-3.486,7.692-2.103,15.113c0.03,0.166,0.144,0.305,0.3,0.37c0.193,0.08,4.835,1.974,12.356,1.973
		c4.336,0,8.744-0.637,13.103-1.893c0.191-0.055,0.331-0.219,0.357-0.416c1.284-9.893-2.178-15.397-2.296-15.574
		c-0.468-0.97-1.487-3.757-0.605-4.992c1.658-2.322,1.559-4.715,1.553-4.757c0-0.007,0.001-0.015,0.001-0.022L36.567,19.069z"/>
</g>
</svg>
