<?xml version="1.0" encoding="utf-8"?>
<!-- Generator: Adobe Illustrator 16.0.0, SVG Export Plug-In . SVG Version: 6.00 Build 0)  -->
<!DOCTYPE svg PUBLIC "-//W3C//DTD SVG 1.1//EN" "http://www.w3.org/Graphics/SVG/1.1/DTD/svg11.dtd">
<svg version="1.1" id="Layer_1" xmlns="http://www.w3.org/2000/svg" xmlns:xlink="http://www.w3.org/1999/xlink" x="0px" y="0px"
	 width="48px" height="48px" viewBox="0 0 48 48" enable-background="new 0 0 48 48" xml:space="preserve">
<g>
	<path fill="#414042" d="M29.299,7.38c-0.203-0.512-0.887-0.89-1.559-1.146c0.078,1.544-1.52,4.003-2.666,5.553
		c1.594-0.849,3.205-2.373,3.863-3.094C29.313,8.2,29.443,7.748,29.299,7.38z"/>
	<path fill="#414042" d="M4.365,41.965c-0.031,0.019-0.066,0.017-0.1,0.027l-0.375,1.737c-0.049,0.229,0.068,0.463,0.281,0.561
		c0.115,0.051,1.203,0.491,4.41,0.04c0.27-0.038,0.459-0.287,0.426-0.559c-0.002-0.016-0.141-1.17,0.359-1.921
		C8.689,41.516,6.537,40.653,4.365,41.965z"/>
	<path fill="#414042" d="M26.709,6.068C26.631,5.9,26.398,5.815,26.02,5.815c-0.033,0-0.068-0.004-0.1-0.01
		c-0.008-0.002-0.682-0.135-1.875-0.135c-1.271,0-2.631,0.146-4.039,0.432c-0.051,0.01-0.369,0.081-0.48,0.426
		c-0.152,0.467-0.109,1.972,3.529,5.856c0.006,0.001,0.014,0.002,0.02,0.002s0.012,0.001,0.018,0.001
		c0.061-0.005,0.154-0.02,0.311-0.074C25.031,10.313,27.158,7.02,26.709,6.068z"/>
	<path fill="#414042" d="M16.342,7.736c-0.18,0.6,0.525,1.354,1.15,1.881c0.031,0.027,1.906,1.662,3.893,2.407
		c-2.193-2.521-3.119-4.369-2.84-5.628C17.525,6.679,16.523,7.132,16.342,7.736z"/>
	<path fill="#414042" d="M22.75,22.775c-0.402-2.791-0.025-9.071-0.006-9.409c-0.063-0.005-0.123-0.006-0.186-0.014
		c-0.629-0.037-1.24-0.107-1.83-0.22c0.068,0.506,0.061,1.232-0.209,2.212c-0.336,1.216-0.023,2.124,0.23,2.854
		c0.104,0.299,0.201,0.582,0.244,0.854c0.094,0.597,0.047,1.278,0.018,1.729c-0.012,0.183-0.025,0.328-0.02,0.406
		c0.055,0.271-0.121,0.524-0.393,0.579c-0.031,0.007-0.064,0.01-0.096,0.01c-0.234,0-0.447-0.172-0.494-0.411
		c-0.029-0.14-0.02-0.31,0.004-0.651c0.029-0.431,0.068-1.021-0.008-1.507c-0.029-0.184-0.109-0.415-0.201-0.683
		c-0.283-0.814-0.668-1.931-0.25-3.445c0.34-1.232,0.186-1.933,0.098-2.19c-4.494-1.192-7.563-4.134-7.721-4.287V8.601
		c-0.586,0.254-1.238,0.658-1.811,1.308c-1.166,1.324-1.646,3.238-1.432,5.691c-0.109,0.777-0.717,5.343-0.199,7.158
		c-0.482,0.667-1.695,2.532-1.189,3.818c-0.281,0.664-1.016,2.543-0.85,3.708c0.051,0.346-0.137,0.773-0.396,1.366
		c-0.445,1.024-1.121,2.572-1.121,5.151c0,1.262-0.332,1.743-0.625,2.168c-0.398,0.576-0.619,1.043-0.207,2.004
		c3.004-1.625,5.875,0.062,6,0.136c0.047,0.028,0.082,0.066,0.115,0.105c0.057-0.034,0.121-0.059,0.16-0.113
		c0.08-0.11,0.805-1.212,1.516-5.827c0.215-1.395,0.471-2.508,0.721-3.378c-0.105,1.705-0.27,4.03-0.518,6.645
		c0.033,0.009,0.066,0.011,0.096,0.026c0.063,0.031,4.119,2.029,10.57,2.23c-0.133-3.97-0.254-9.957,0.158-11.296
		c0.543-1.764,0.236-3.897-0.152-6.599L22.75,22.775z M18.48,29.392c-0.201,0.601-2.023,5.901-4.154,7.048
		c-0.076,0.04-0.156,0.06-0.236,0.06c-0.178,0-0.35-0.096-0.441-0.263c-0.131-0.243-0.039-0.547,0.203-0.678
		c1.514-0.813,3.17-4.956,3.68-6.483c0.088-0.263,0.379-0.403,0.633-0.316C18.428,28.847,18.568,29.13,18.48,29.392z M18.006,25.995
		c-0.002,0-0.006,0-0.008,0c-3.77-0.065-6.098-8.386-6.352-9.334c-0.07-0.267,0.088-0.541,0.355-0.612
		c0.27-0.067,0.541,0.088,0.611,0.354c0.635,2.375,2.842,8.548,5.402,8.592c0.275,0.005,0.496,0.232,0.49,0.509
		C18.502,25.777,18.279,25.995,18.006,25.995z"/>
	<path fill="#414042" d="M17.982,11.27c-0.66-0.474-1.096-0.853-1.145-0.896c-1.232-1.041-1.725-2.027-1.455-2.926
		c0.539-1.793,3.969-2.271,4.441-2.329c0.002,0,0.002-0.001,0.004-0.001c1.453-0.295,2.879-0.447,4.217-0.447
		c1.127,0,1.83,0.11,2.023,0.145c0.188,0.003,0.338,0.033,0.486,0.064c0.014,0.002,0.027-0.004,0.043-0.001
		C26.902,4.93,29.6,5.42,30.229,7.013c0.283,0.718,0.105,1.499-0.525,2.322c-0.084,0.093-0.922,1-2.08,1.933
		c2.02-0.739,4.178-1.919,5.221-3.771c0.002-0.004,0.006-0.006,0.008-0.01c-0.021-0.288-0.098-0.641-0.305-1.029
		c-0.609-1.14-2.021-2.013-4.164-2.586c-0.201-0.068-5.053-1.656-11.07,0.375c-2.498,0.843-3.865,1.664-4.301,2.584
		c-0.252,0.532-0.162,0.998-0.045,1.356C13.68,8.799,15.498,10.241,17.982,11.27z"/>
	<path fill="#414042" d="M41.527,35.357c0.006-0.818-0.055-5.391-1.955-8.402c0.006-0.616-0.047-2.784-1.043-4.104
		c-0.139-0.787-0.887-5.253-0.68-8.321c0.008-0.055,0.699-5.058-4.102-6.645c-0.012,0.034-0.016,0.069-0.033,0.102
		c-1.418,2.519-4.506,3.903-6.977,4.639c-0.295,1.011-0.795,3.363-0.227,4.5c0.664,1.334,0.521,2.236,0.396,3.032
		c-0.045,0.278-0.09,0.56-0.096,0.866c-0.006,0.272-0.229,0.489-0.5,0.489c-0.004,0-0.008,0-0.012,0
		c-0.275-0.006-0.494-0.234-0.488-0.511c0.008-0.364,0.059-0.688,0.107-1.001c0.117-0.741,0.219-1.382-0.303-2.43
		c-0.656-1.312-0.271-3.488,0.008-4.647c-0.566,0.139-1.068,0.242-1.469,0.313c-0.143,0.038-0.283,0.069-0.424,0.094
		c0.002,0.029,0.014,0.056,0.012,0.085c-0.004,0.065-0.395,6.511-0.004,9.217l0.018,0.129c0.406,2.825,0.727,5.057,0.117,7.034
		c-0.346,1.126-0.248,6.805-0.109,11.027c3.268,0.002,7.086-0.469,11.281-1.861c0.02-0.006,0.037-0.003,0.057-0.007
		c-0.076-0.701-0.23-2.144-0.43-3.901c0.137,0.459,0.365,0.99,0.768,1.65c0.506,0.831,0.49,1.19,0.471,1.646
		c-0.027,0.619-0.045,1.328,0.996,2.906c0.793-0.498,2.855-1.499,5.66-0.786c0.033-0.134,0.063-0.268,0.111-0.4
		c0.039-0.037,0.072-0.079,0.104-0.126C43.037,39.54,43.086,38.678,41.527,35.357z M32.582,36.236
		c-0.092,0.167-0.264,0.263-0.441,0.263c-0.08,0-0.16-0.02-0.236-0.06c-2.131-1.146-3.953-6.447-4.154-7.048
		c-0.088-0.262,0.053-0.545,0.316-0.633c0.258-0.088,0.545,0.054,0.633,0.316c0.51,1.527,2.168,5.671,3.68,6.483
		C32.621,35.689,32.713,35.993,32.582,36.236z M34.584,17.021c-0.254,0.948-2.582,9.269-6.352,9.332c-0.002,0-0.006,0-0.008,0
		c-0.273,0-0.496-0.219-0.5-0.491c-0.006-0.276,0.215-0.504,0.49-0.509c2.563-0.043,4.77-6.215,5.402-8.59
		c0.07-0.266,0.34-0.423,0.611-0.354C34.496,16.479,34.654,16.754,34.584,17.021z"/>
	<path fill="#414042" d="M23.801,41.854c0.023,0.676,0.049,1.293,0.07,1.823c2.998-0.081,6.596-0.493,10.896-1.491
		c0.227-0.053,0.387-0.255,0.387-0.487l-0.002-1.723C30.922,41.355,27.084,41.843,23.801,41.854z"/>
	<path fill="#414042" d="M11.91,39.542l-0.27,1.346c-0.039,0.195,0.041,0.395,0.205,0.509c0.189,0.131,3.484,2.311,11.027,2.295
		c-0.02-0.453-0.047-1.079-0.074-1.854C16.752,41.677,12.771,39.951,11.91,39.542z"/>
	<path fill="#414042" d="M42.439,41.47c-2.48-0.67-4.305,0.206-4.977,0.619c0.238,0.438,0.479,1.093,0.395,1.892
		c-0.027,0.264,0.156,0.503,0.418,0.545c0.049,0.009,0.637,0.101,1.414,0.101c0.869,0,1.973-0.115,2.828-0.593
		c0.215-0.121,0.311-0.383,0.223-0.614C42.736,43.406,42.422,42.536,42.439,41.47z"/>
</g>
</svg>
