<?xml version="1.0" encoding="utf-8"?>
<!-- Generator: Adobe Illustrator 16.0.0, SVG Export Plug-In . SVG Version: 6.00 Build 0)  -->
<!DOCTYPE svg PUBLIC "-//W3C//DTD SVG 1.1//EN" "http://www.w3.org/Graphics/SVG/1.1/DTD/svg11.dtd">
<svg version="1.1" id="Layer_1" xmlns="http://www.w3.org/2000/svg" xmlns:xlink="http://www.w3.org/1999/xlink" x="0px" y="0px"
	 width="48px" height="48px" viewBox="0 0 48 48" enable-background="new 0 0 48 48" xml:space="preserve">
<g>
	<path fill="#414042" d="M21.653,25.334c-1.021,0.408-2.018,0.487-2.637,0.487c-0.37,0-0.605-0.028-0.63-0.031
		c-3.4-0.436-5.1-1.908-5.902-2.965c-0.027,0.191-0.052,0.382-0.091,0.583c-0.171,0.503-4.025,11.875-3.976,16.893
		c1.083,0.345,6.812,2.061,10.129,0.941c2.168-0.731,3.626-0.119,4.69,0.328c0.348,0.146,0.648,0.272,0.903,0.32
		c0.033,0.006,0.065,0.016,0.097,0.028c0.017,0.006,1.754,0.681,4.347-0.02c1.41-0.384,2.787-0.335,4.004-0.293
		c1.288,0.047,2.404,0.084,3.284-0.367c1.432-0.732,2.313-1.226,2.651-1.418c-0.015-2.111-0.458-7.754-4.119-16.561
		c-0.015-0.045-0.12-0.375-0.205-0.888c-0.805,1.263-2.499,2.984-5.879,3.417c-0.024,0.003-0.259,0.031-0.628,0.031
		c-0.572,0-1.471-0.068-2.412-0.401c-0.261-0.093-0.396-0.379-0.305-0.639c0.094-0.261,0.382-0.396,0.639-0.305
		c1.326,0.471,2.566,0.323,2.58,0.321c4.723-0.604,5.688-4.045,5.697-4.079c0.036-0.135,0.123-0.241,0.234-0.306
		c0.111-1.311,0.58-2.893,1.917-4.352c0.173-0.188,0.176-0.477,0.007-0.668c-0.031-0.036-3.14-3.581-3.826-5.504
		c-0.043-0.121-0.136-0.214-0.249-0.271c0.502-2.737,1.28-7.983,0.119-9.129c-0.269-0.266-0.621-0.37-0.995-0.293
		c-2.422,0.501-2.879,3.731-3.032,11.262l-0.907,0.484c-0.138,0.074-0.236,0.229-0.261,0.383c-0.002,0.012-0.229,1.206-3.159,1.572
		c-0.028-0.001-2.812-0.115-3.103-1.49c-0.032-0.153-0.135-0.282-0.275-0.349l-1.703-0.805c-0.156-7.38-0.627-10.562-3.027-11.058
		c-0.373-0.075-0.727,0.027-0.995,0.293c-1.159,1.146-0.384,6.381,0.118,9.12c-0.015,0.007-0.031,0.005-0.045,0.013
		c-0.141,0.08-0.234,0.224-0.251,0.385c-0.005,0.044-0.489,4.458-3.46,5.233c-0.175,0.045-0.312,0.183-0.357,0.357
		c-0.045,0.175,0.008,0.362,0.138,0.487c0.087,0.083,1.766,1.755,1.819,5.048c0.083,0.06,0.153,0.138,0.188,0.241
		c0.04,0.115,1.026,2.822,5.727,3.424c0.01,0.002,1.386,0.161,2.77-0.392c0.255-0.104,0.547,0.022,0.649,0.278
		C22.034,24.941,21.91,25.232,21.653,25.334z M31.235,1.503c0.385,0.802,0.106,4.539-0.644,8.432
		c-0.012,0.06-0.003,0.117,0.002,0.175l-1.211,0.646C29.544,4.333,30.03,1.898,31.235,1.503z M16.138,10.063
		c0-0.043,0.01-0.084,0.001-0.128c-0.751-3.893-1.029-7.631-0.645-8.432c1.198,0.394,1.687,2.799,1.85,9.13L16.138,10.063z"/>
	<path fill="#414042" d="M40.011,44.7l-1.401-3.781c-0.47,0.261-1.219,0.666-2.281,1.211c-1.109,0.569-2.404,0.526-3.775,0.476
		c-1.199-0.041-2.44-0.084-3.707,0.259c-0.983,0.267-1.859,0.356-2.591,0.356c-1.289,0-2.133-0.278-2.347-0.356
		c-0.343-0.072-0.691-0.218-1.059-0.372c-0.968-0.406-2.173-0.913-3.982-0.303c-3.414,1.155-8.823-0.338-10.473-0.847
		c-0.114,0.774-0.44,2.544-1.171,3.899c-0.093,0.174-0.076,0.386,0.044,0.542c0.1,0.13,0.686,0.775,2.457,0.775
		c0.447,0,0.942-0.042,1.472-0.125c0.271-0.043,0.547-0.064,0.818-0.064c0.931,0,1.721,0.249,2.485,0.489
		c1.028,0.324,2.053,0.582,3.018,0.285c1.514-0.465,1.473-0.374,2.537-0.148c0.363,0.077,0.822,0.175,1.441,0.284
		c0.46,0.081,0.815,0.15,1.104,0.207c0.58,0.114,0.931,0.183,1.32,0.183c0.471,0,0.955-0.098,2.016-0.313l0.395-0.079
		c1.153-0.232,2.083-0.332,3.108-0.332c0.438,0,0.858,0.018,1.296,0.035c0.493,0.021,1.009,0.041,1.599,0.041
		c2.202,0,3.33-0.034,4.886-0.813c1.354-0.676,2.387-0.84,2.397-0.842c0.148-0.022,0.279-0.111,0.355-0.24
		C40.049,44.998,40.063,44.841,40.011,44.7z"/>
</g>
</svg>
